<?xml version="1.0" encoding="UTF-8" standalone="no"?>
<!DOCTYPE svg PUBLIC "-//W3C//DTD SVG 1.1//EN"
 "http://www.w3.org/Graphics/SVG/1.1/DTD/svg11.dtd">
<!-- Generated by graphviz version 2.40.1 (20161225.0304)
 -->
<!-- Title: ABL.H Pages: 1 -->
<svg width="740pt" height="95pt"
 viewBox="0.00 0.00 739.50 95.00" xmlns="http://www.w3.org/2000/svg" xmlns:xlink="http://www.w3.org/1999/xlink">
<g id="graph0" class="graph" transform="scale(1 1) rotate(0) translate(4 91)">
<title>ABL.H</title>
<polygon fill="#ffffff" stroke="transparent" points="-4,4 -4,-91 735.5,-91 735.5,4 -4,4"/>
<!-- Node60 -->
<g id="node1" class="node">
<title>Node60</title>
<polygon fill="#bfbfbf" stroke="#000000" points="397.5,-67.5 397.5,-86.5 443.5,-86.5 443.5,-67.5 397.5,-67.5"/>
<text text-anchor="middle" x="420.5" y="-74.5" font-family="Helvetica,sans-Serif" font-size="10.00" fill="#000000">ABL.H</text>
</g>
<!-- Node61 -->
<g id="node2" class="node">
<title>Node61</title>
<g id="a_node2"><a xlink:href="incflo__set__velocity__bcs_8cpp.html" target="_top" xlink:title="incflo_set_velocity\l_bcs.cpp">
<polygon fill="#ffffff" stroke="#000000" points="0,-.5 0,-30.5 107,-30.5 107,-.5 0,-.5"/>
<text text-anchor="start" x="8" y="-18.5" font-family="Helvetica,sans-Serif" font-size="10.00" fill="#000000">incflo_set_velocity</text>
<text text-anchor="middle" x="53.5" y="-7.5" font-family="Helvetica,sans-Serif" font-size="10.00" fill="#000000">_bcs.cpp</text>
</a>
</g>
</g>
<!-- Node60&#45;&gt;Node61 -->
<g id="edge1" class="edge">
<title>Node60&#45;&gt;Node61</title>
<path fill="none" stroke="#191970" d="M387.3289,-73.0495C331.1155,-66.1202 213.6699,-50.6278 115.5,-31 112.78,-30.4562 110,-29.8708 107.1977,-29.257"/>
<polygon fill="#191970" stroke="#191970" points="387.0624,-76.5429 397.4131,-74.2814 387.9113,-69.5946 387.0624,-76.5429"/>
</g>
<!-- Node62 -->
<g id="node3" class="node">
<title>Node62</title>
<g id="a_node3"><a xlink:href="_a_b_l_forcing_8cpp.html" target="_top" xlink:title="ABLForcing.cpp">
<polygon fill="#ffffff" stroke="#000000" points="125,-6 125,-25 216,-25 216,-6 125,-6"/>
<text text-anchor="middle" x="170.5" y="-13" font-family="Helvetica,sans-Serif" font-size="10.00" fill="#000000">ABLForcing.cpp</text>
</a>
</g>
</g>
<!-- Node60&#45;&gt;Node62 -->
<g id="edge2" class="edge">
<title>Node60&#45;&gt;Node62</title>
<path fill="none" stroke="#191970" d="M387.2155,-69.7105C348.1233,-61.0284 281.3842,-45.8296 224.5,-31 217.4214,-29.1546 209.8556,-27.0602 202.6956,-25.0209"/>
<polygon fill="#191970" stroke="#191970" points="386.9573,-73.2379 397.4773,-71.9807 388.4694,-66.4032 386.9573,-73.2379"/>
</g>
<!-- Node63 -->
<g id="node4" class="node">
<title>Node63</title>
<g id="a_node4"><a xlink:href="_a_b_l_mean_boussinesq_8cpp.html" target="_top" xlink:title="ABLMeanBoussinesq.cpp">
<polygon fill="#ffffff" stroke="#000000" points="234,-6 234,-25 371,-25 371,-6 234,-6"/>
<text text-anchor="middle" x="302.5" y="-13" font-family="Helvetica,sans-Serif" font-size="10.00" fill="#000000">ABLMeanBoussinesq.cpp</text>
</a>
</g>
</g>
<!-- Node60&#45;&gt;Node63 -->
<g id="edge3" class="edge">
<title>Node60&#45;&gt;Node63</title>
<path fill="none" stroke="#191970" d="M393.1133,-62.7264C370.8826,-51.1401 340.1546,-35.1251 320.808,-25.0419"/>
<polygon fill="#191970" stroke="#191970" points="391.577,-65.8725 402.0625,-67.3906 394.8123,-59.665 391.577,-65.8725"/>
</g>
<!-- Node64 -->
<g id="node5" class="node">
<title>Node64</title>
<g id="a_node5"><a xlink:href="incflo_8cpp.html" target="_top" xlink:title="incflo.cpp">
<polygon fill="#ffffff" stroke="#000000" points="389,-6 389,-25 452,-25 452,-6 389,-6"/>
<text text-anchor="middle" x="420.5" y="-13" font-family="Helvetica,sans-Serif" font-size="10.00" fill="#000000">incflo.cpp</text>
</a>
</g>
</g>
<!-- Node60&#45;&gt;Node64 -->
<g id="edge4" class="edge">
<title>Node60&#45;&gt;Node64</title>
<path fill="none" stroke="#191970" d="M420.5,-57.2462C420.5,-46.5519 420.5,-33.814 420.5,-25.2449"/>
<polygon fill="#191970" stroke="#191970" points="417.0001,-57.3906 420.5,-67.3906 424.0001,-57.3907 417.0001,-57.3906"/>
</g>
<!-- Node65 -->
<g id="node6" class="node">
<title>Node65</title>
<g id="a_node6"><a xlink:href="init_8cpp.html" target="_top" xlink:title="init.cpp">
<polygon fill="#ffffff" stroke="#000000" points="470,-6 470,-25 523,-25 523,-6 470,-6"/>
<text text-anchor="middle" x="496.5" y="-13" font-family="Helvetica,sans-Serif" font-size="10.00" fill="#000000">init.cpp</text>
</a>
</g>
</g>
<!-- Node60&#45;&gt;Node65 -->
<g id="edge5" class="edge">
<title>Node60&#45;&gt;Node65</title>
<path fill="none" stroke="#191970" d="M440.434,-60.8692C454.4125,-49.5576 472.6419,-34.8062 484.4576,-25.2449"/>
<polygon fill="#191970" stroke="#191970" points="437.947,-58.3793 432.375,-67.3906 442.3504,-63.8209 437.947,-58.3793"/>
</g>
<!-- Node66 -->
<g id="node7" class="node">
<title>Node66</title>
<g id="a_node7"><a xlink:href="_a_b_l_8cpp.html" target="_top" xlink:title="ABL.cpp">
<polygon fill="#ffffff" stroke="#000000" points="541.5,-6 541.5,-25 597.5,-25 597.5,-6 541.5,-6"/>
<text text-anchor="middle" x="569.5" y="-13" font-family="Helvetica,sans-Serif" font-size="10.00" fill="#000000">ABL.cpp</text>
</a>
</g>
</g>
<!-- Node60&#45;&gt;Node66 -->
<g id="edge6" class="edge">
<title>Node60&#45;&gt;Node66</title>
<path fill="none" stroke="#191970" d="M453.0511,-63.701C475.4149,-54.5469 505.7767,-42.0851 532.5,-31 537.1318,-29.0787 542.0849,-27.0121 546.8123,-25.0338"/>
<polygon fill="#191970" stroke="#191970" points="451.616,-60.5065 443.6859,-67.5325 454.2666,-66.9853 451.616,-60.5065"/>
</g>
<!-- Node67 -->
<g id="node8" class="node">
<title>Node67</title>
<g id="a_node8"><a xlink:href="_a_b_l_wall_function_8cpp.html" target="_top" xlink:title="ABLWallFunction.cpp">
<polygon fill="#ffffff" stroke="#000000" points="615.5,-6 615.5,-25 731.5,-25 731.5,-6 615.5,-6"/>
<text text-anchor="middle" x="673.5" y="-13" font-family="Helvetica,sans-Serif" font-size="10.00" fill="#000000">ABLWallFunction.cpp</text>
</a>
</g>
</g>
<!-- Node60&#45;&gt;Node67 -->
<g id="edge7" class="edge">
<title>Node60&#45;&gt;Node67</title>
<path fill="none" stroke="#191970" d="M453.7213,-68.9245C500.2397,-57.6166 584.6349,-37.1016 634.2117,-25.0503"/>
<polygon fill="#191970" stroke="#191970" points="452.7384,-65.5614 443.8481,-71.3245 454.3919,-72.3633 452.7384,-65.5614"/>
</g>
</g>
</svg>
