<?xml version="1.0" encoding="UTF-8" standalone="no"?>
<!DOCTYPE svg PUBLIC "-//W3C//DTD SVG 1.1//EN"
 "http://www.w3.org/Graphics/SVG/1.1/DTD/svg11.dtd">
<!-- Generated by graphviz version 2.40.1 (20161225.0304)
 -->
<!-- Title: ABLBoundaryPlane.H Pages: 1 -->
<svg width="2539pt" height="330pt"
 viewBox="0.00 0.00 2539.37 330.00" xmlns="http://www.w3.org/2000/svg" xmlns:xlink="http://www.w3.org/1999/xlink">
<g id="graph0" class="graph" transform="scale(1 1) rotate(0) translate(4 326)">
<title>ABLBoundaryPlane.H</title>
<polygon fill="#ffffff" stroke="transparent" points="-4,4 -4,-326 2535.3674,-326 2535.3674,4 -4,4"/>
<!-- Node0 -->
<g id="node1" class="node">
<title>Node0</title>
<polygon fill="#bfbfbf" stroke="#000000" points="1365,-302.5 1365,-321.5 1484,-321.5 1484,-302.5 1365,-302.5"/>
<text text-anchor="middle" x="1424.5" y="-309.5" font-family="Helvetica,sans-Serif" font-size="10.00" fill="#000000">ABLBoundaryPlane.H</text>
</g>
<!-- Node1 -->
<g id="node2" class="node">
<title>Node1</title>
<g id="a_node2"><a xlink:href="_field_8_h.html" target="_top" xlink:title="amr&#45;wind/core/Field.H">
<polygon fill="#ffffff" stroke="#000000" points="1943.5,-129 1943.5,-148 2065.5,-148 2065.5,-129 1943.5,-129"/>
<text text-anchor="middle" x="2004.5" y="-136" font-family="Helvetica,sans-Serif" font-size="10.00" fill="#000000">amr&#45;wind/core/Field.H</text>
</a>
</g>
</g>
<!-- Node0&#45;&gt;Node1 -->
<g id="edge1" class="edge">
<title>Node0&#45;&gt;Node1</title>
<path fill="none" stroke="#191970" d="M1464.5811,-302.4378C1534.3619,-285.5309 1682.4775,-248.4949 1805.5,-210 1864.122,-191.6567 1931.124,-166.7477 1970.5092,-151.6917"/>
<polygon fill="#191970" stroke="#191970" points="1971.8231,-154.9364 1979.9055,-148.0862 1969.3153,-148.401 1971.8231,-154.9364"/>
</g>
<!-- Node8 -->
<g id="node9" class="node">
<title>Node8</title>
<polygon fill="#ffffff" stroke="#bfbfbf" points="2265.5,-62 2265.5,-81 2351.5,-81 2351.5,-62 2265.5,-62"/>
<text text-anchor="middle" x="2308.5" y="-69" font-family="Helvetica,sans-Serif" font-size="10.00" fill="#000000">AMReX_Gpu.H</text>
</g>
<!-- Node0&#45;&gt;Node8 -->
<g id="edge67" class="edge">
<title>Node0&#45;&gt;Node8</title>
<path fill="none" stroke="#191970" d="M1479.5762,-302.4193C1527.5572,-293.7981 1598.9007,-280.3162 1660.5,-266 1846.166,-222.8497 1892.4885,-210.6184 2074.5,-154 2146.1585,-131.7091 2228.6566,-101.5497 2274.0539,-84.5548"/>
<polygon fill="#191970" stroke="#191970" points="2275.2973,-87.8266 2283.4288,-81.0348 2272.8366,-81.2733 2275.2973,-87.8266"/>
</g>
<!-- Node13 -->
<g id="node14" class="node">
<title>Node13</title>
<g id="a_node14"><a xlink:href="_c_f_d_sim_8_h.html" target="_top" xlink:title="amr&#45;wind/CFDSim.H">
<polygon fill="#ffffff" stroke="#000000" points="691.5,-246.5 691.5,-265.5 805.5,-265.5 805.5,-246.5 691.5,-246.5"/>
<text text-anchor="middle" x="748.5" y="-253.5" font-family="Helvetica,sans-Serif" font-size="10.00" fill="#000000">amr&#45;wind/CFDSim.H</text>
</a>
</g>
</g>
<!-- Node0&#45;&gt;Node13 -->
<g id="edge16" class="edge">
<title>Node0&#45;&gt;Node13</title>
<path fill="none" stroke="#191970" d="M1364.8061,-307.0549C1239.0205,-296.6348 947.4808,-272.4836 815.5261,-261.5525"/>
<polygon fill="#191970" stroke="#191970" points="815.7985,-258.0631 805.5437,-260.7255 815.2206,-265.0392 815.7985,-258.0631"/>
</g>
<!-- Node36 -->
<g id="node37" class="node">
<title>Node36</title>
<g id="a_node37"><a xlink:href="nc__interface_8_h.html" target="_top" xlink:title="Interface to NetCDF library. ">
<polygon fill="#ffffff" stroke="#000000" points="63,-56.5 63,-86.5 188,-86.5 188,-56.5 63,-56.5"/>
<text text-anchor="start" x="71" y="-74.5" font-family="Helvetica,sans-Serif" font-size="10.00" fill="#000000">amr&#45;wind/utilities</text>
<text text-anchor="middle" x="125.5" y="-63.5" font-family="Helvetica,sans-Serif" font-size="10.00" fill="#000000">/ncutils/nc_interface.H</text>
</a>
</g>
</g>
<!-- Node0&#45;&gt;Node36 -->
<g id="edge68" class="edge">
<title>Node0&#45;&gt;Node36</title>
<path fill="none" stroke="#191970" d="M1364.7683,-309.5923C1238.5795,-304.2208 935.6431,-289.8223 682.5,-266 395.8748,-239.0269 217.7114,-383.9552 44.5,-154 36.2105,-142.9949 37.8676,-135.0764 44.5,-123 51.7999,-109.7083 64.145,-99.3587 77.0261,-91.5391"/>
<polygon fill="#191970" stroke="#191970" points="78.9615,-94.4666 85.9741,-86.5246 75.5394,-88.3601 78.9615,-94.4666"/>
</g>
<!-- Node2 -->
<g id="node3" class="node">
<title>Node2</title>
<polygon fill="#ffffff" stroke="#bfbfbf" points="965.5,-.5 965.5,-19.5 1009.5,-19.5 1009.5,-.5 965.5,-.5"/>
<text text-anchor="middle" x="987.5" y="-7.5" font-family="Helvetica,sans-Serif" font-size="10.00" fill="#000000">string</text>
</g>
<!-- Node1&#45;&gt;Node2 -->
<g id="edge2" class="edge">
<title>Node1&#45;&gt;Node2</title>
<path fill="none" stroke="#191970" d="M1943.462,-129.2678C1927.8462,-127.0578 1911.068,-124.8152 1895.5,-123 1720.403,-102.5845 1671.7686,-128.7473 1500.5,-87 1465.0581,-78.3609 1459.8807,-64.8868 1424.5,-56 1347.525,-36.6657 1106.9907,-18.3724 1019.6228,-12.2003"/>
<polygon fill="#191970" stroke="#191970" points="1019.7332,-8.6995 1009.513,-11.4921 1019.244,-15.6824 1019.7332,-8.6995"/>
</g>
<!-- Node3 -->
<g id="node4" class="node">
<title>Node3</title>
<polygon fill="#ffffff" stroke="#bfbfbf" points="612.5,-.5 612.5,-19.5 670.5,-19.5 670.5,-.5 612.5,-.5"/>
<text text-anchor="middle" x="641.5" y="-7.5" font-family="Helvetica,sans-Serif" font-size="10.00" fill="#000000">memory</text>
</g>
<!-- Node1&#45;&gt;Node3 -->
<g id="edge3" class="edge">
<title>Node1&#45;&gt;Node3</title>
<path fill="none" stroke="#191970" d="M1945.2259,-128.9845C1929.1302,-126.6978 1911.6785,-124.4888 1895.5,-123 1518.5323,-88.3096 1420.2884,-132.7291 1044.5,-87 975.6263,-78.6189 959.6209,-69.1672 891.5,-56 817.0682,-41.613 729.9598,-25.8216 680.7016,-16.9886"/>
<polygon fill="#191970" stroke="#191970" points="681.2436,-13.53 670.7831,-15.2123 680.0095,-20.4204 681.2436,-13.53"/>
</g>
<!-- Node4 -->
<g id="node5" class="node">
<title>Node4</title>
<polygon fill="#ffffff" stroke="#bfbfbf" points="499,-.5 499,-19.5 592,-19.5 592,-.5 499,-.5"/>
<text text-anchor="middle" x="545.5" y="-7.5" font-family="Helvetica,sans-Serif" font-size="10.00" fill="#000000">unordered_map</text>
</g>
<!-- Node1&#45;&gt;Node4 -->
<g id="edge4" class="edge">
<title>Node1&#45;&gt;Node4</title>
<path fill="none" stroke="#191970" d="M1946.3744,-128.981C1929.9668,-126.6355 1912.0703,-124.3977 1895.5,-123 1821.7902,-116.7828 622.1131,-133.3952 564.5,-87 547.7152,-73.4833 544.3523,-47.7122 544.2735,-29.7236"/>
<polygon fill="#191970" stroke="#191970" points="547.7725,-29.8034 544.5581,-19.708 540.7753,-29.6045 547.7725,-29.8034"/>
</g>
<!-- Node5 -->
<g id="node6" class="node">
<title>Node5</title>
<polygon fill="#ffffff" stroke="#bfbfbf" points="2029.5,-62 2029.5,-81 2093.5,-81 2093.5,-62 2029.5,-62"/>
<text text-anchor="middle" x="2061.5" y="-69" font-family="Helvetica,sans-Serif" font-size="10.00" fill="#000000">algorithm</text>
</g>
<!-- Node1&#45;&gt;Node5 -->
<g id="edge5" class="edge">
<title>Node1&#45;&gt;Node5</title>
<path fill="none" stroke="#191970" d="M2012.6667,-128.9005C2021.5554,-118.4525 2035.95,-101.5325 2046.8131,-88.7635"/>
<polygon fill="#191970" stroke="#191970" points="2049.5344,-90.9662 2053.3484,-81.0817 2044.2028,-86.4303 2049.5344,-90.9662"/>
</g>
<!-- Node6 -->
<g id="node7" class="node">
<title>Node6</title>
<polygon fill="#ffffff" stroke="#bfbfbf" points="1630,-.5 1630,-19.5 1737,-19.5 1737,-.5 1630,-.5"/>
<text text-anchor="middle" x="1683.5" y="-7.5" font-family="Helvetica,sans-Serif" font-size="10.00" fill="#000000">AMReX_MultiFab.H</text>
</g>
<!-- Node1&#45;&gt;Node6 -->
<g id="edge6" class="edge">
<title>Node1&#45;&gt;Node6</title>
<path fill="none" stroke="#191970" d="M2005.0429,-128.8998C2005.4527,-111.5205 2003.5831,-74.8975 1982.5,-56 1945.0015,-22.3889 1813.283,-27.5006 1747.1407,-19.8738"/>
<polygon fill="#191970" stroke="#191970" points="1747.4885,-16.3893 1737.1128,-18.5325 1746.5605,-23.3275 1747.4885,-16.3893"/>
</g>
<!-- Node7 -->
<g id="node8" class="node">
<title>Node7</title>
<polygon fill="#ffffff" stroke="#bfbfbf" points="2112,-62 2112,-81 2209,-81 2209,-62 2112,-62"/>
<text text-anchor="middle" x="2160.5" y="-69" font-family="Helvetica,sans-Serif" font-size="10.00" fill="#000000">AMReX_BCRec.H</text>
</g>
<!-- Node1&#45;&gt;Node7 -->
<g id="edge7" class="edge">
<title>Node1&#45;&gt;Node7</title>
<path fill="none" stroke="#191970" d="M2026.851,-128.9005C2053.6105,-117.4077 2098.6035,-98.0838 2128.9089,-85.068"/>
<polygon fill="#191970" stroke="#191970" points="2130.3833,-88.244 2138.1905,-81.0817 2127.6208,-81.8121 2130.3833,-88.244"/>
</g>
<!-- Node1&#45;&gt;Node8 -->
<g id="edge8" class="edge">
<title>Node1&#45;&gt;Node8</title>
<path fill="none" stroke="#191970" d="M2054.8419,-128.9221C2104.8946,-119.1835 2183.7744,-103.2533 2251.5,-87 2255.8815,-85.9485 2260.438,-84.8014 2264.9804,-83.6224"/>
<polygon fill="#191970" stroke="#191970" points="2266.0574,-86.9579 2274.8287,-81.0153 2264.266,-80.191 2266.0574,-86.9579"/>
</g>
<!-- Node9 -->
<g id="node10" class="node">
<title>Node9</title>
<g id="a_node10"><a xlink:href="incflo__enums_8_h.html" target="_top" xlink:title="amr&#45;wind/incflo_enums.H">
<polygon fill="#ffffff" stroke="#000000" points="1275.5,-62 1275.5,-81 1415.5,-81 1415.5,-62 1275.5,-62"/>
<text text-anchor="middle" x="1345.5" y="-69" font-family="Helvetica,sans-Serif" font-size="10.00" fill="#000000">amr&#45;wind/incflo_enums.H</text>
</a>
</g>
</g>
<!-- Node1&#45;&gt;Node9 -->
<g id="edge9" class="edge">
<title>Node1&#45;&gt;Node9</title>
<path fill="none" stroke="#191970" d="M1943.4788,-129.119C1927.8627,-126.9118 1911.0801,-124.7078 1895.5,-123 1689.0086,-100.3658 1635.4812,-113.8845 1429.5,-87 1420.7392,-85.8565 1411.5065,-84.4058 1402.4961,-82.8527"/>
<polygon fill="#191970" stroke="#191970" points="1402.9129,-79.372 1392.4545,-81.0667 1401.6871,-86.2639 1402.9129,-79.372"/>
</g>
<!-- Node10 -->
<g id="node11" class="node">
<title>Node10</title>
<g id="a_node11"><a xlink:href="_field_desc_types_8_h.html" target="_top" xlink:title="amr&#45;wind/core/FieldDescTypes.H">
<polygon fill="#ffffff" stroke="#000000" points="1755.5,-.5 1755.5,-19.5 1929.5,-19.5 1929.5,-.5 1755.5,-.5"/>
<text text-anchor="middle" x="1842.5" y="-7.5" font-family="Helvetica,sans-Serif" font-size="10.00" fill="#000000">amr&#45;wind/core/FieldDescTypes.H</text>
</a>
</g>
</g>
<!-- Node1&#45;&gt;Node10 -->
<g id="edge10" class="edge">
<title>Node1&#45;&gt;Node10</title>
<path fill="none" stroke="#191970" d="M2065.79,-134.8267C2144.046,-127.937 2264.0789,-108.6417 2217.5,-56 2199.3149,-35.4479 2044.6509,-22.1084 1939.7165,-15.3344"/>
<polygon fill="#191970" stroke="#191970" points="1939.9249,-11.8406 1929.723,-14.6993 1939.4809,-18.8266 1939.9249,-11.8406"/>
</g>
<!-- Node11 -->
<g id="node12" class="node">
<title>Node11</title>
<g id="a_node12"><a xlink:href="_view_field_8_h.html" target="_top" xlink:title="amr&#45;wind/core/ViewField.H">
<polygon fill="#ffffff" stroke="#000000" points="1509.5,-62 1509.5,-81 1655.5,-81 1655.5,-62 1509.5,-62"/>
<text text-anchor="middle" x="1582.5" y="-69" font-family="Helvetica,sans-Serif" font-size="10.00" fill="#000000">amr&#45;wind/core/ViewField.H</text>
</a>
</g>
</g>
<!-- Node1&#45;&gt;Node11 -->
<g id="edge11" class="edge">
<title>Node1&#45;&gt;Node11</title>
<path fill="none" stroke="#191970" d="M1944.4859,-128.9717C1867.5637,-116.7589 1734.4205,-95.6201 1652.8264,-82.6656"/>
<polygon fill="#191970" stroke="#191970" points="1653.0735,-79.161 1642.6484,-81.0496 1651.9758,-86.0744 1653.0735,-79.161"/>
</g>
<!-- Node11&#45;&gt;Node2 -->
<g id="edge12" class="edge">
<title>Node11&#45;&gt;Node2</title>
<path fill="none" stroke="#191970" d="M1509.4995,-62.1265C1492.4456,-60.026 1474.3441,-57.8683 1457.5,-56 1293.2329,-37.7799 1096.2357,-19.7313 1019.9117,-12.8818"/>
<polygon fill="#191970" stroke="#191970" points="1019.8169,-9.3594 1009.5447,-11.9538 1019.1928,-16.3315 1019.8169,-9.3594"/>
</g>
<!-- Node11&#45;&gt;Node6 -->
<g id="edge14" class="edge">
<title>Node11&#45;&gt;Node6</title>
<path fill="none" stroke="#191970" d="M1598.2813,-61.8906C1614.5875,-51.9616 1640.254,-36.333 1659.1614,-24.8201"/>
<polygon fill="#191970" stroke="#191970" points="1661.1087,-27.7322 1667.8296,-19.5419 1657.4681,-21.7533 1661.1087,-27.7322"/>
</g>
<!-- Node11&#45;&gt;Node10 -->
<g id="edge13" class="edge">
<title>Node11&#45;&gt;Node10</title>
<path fill="none" stroke="#191970" d="M1622.8397,-61.9581C1668.4768,-51.1632 1742.857,-33.5694 1792.234,-21.8899"/>
<polygon fill="#191970" stroke="#191970" points="1793.1398,-25.2722 1802.0656,-19.5643 1791.5285,-18.4602 1793.1398,-25.2722"/>
</g>
<!-- Node12 -->
<g id="node13" class="node">
<title>Node12</title>
<polygon fill="#ffffff" stroke="#bfbfbf" points="1433.5,-.5 1433.5,-19.5 1529.5,-19.5 1529.5,-.5 1433.5,-.5"/>
<text text-anchor="middle" x="1481.5" y="-7.5" font-family="Helvetica,sans-Serif" font-size="10.00" fill="#000000">AMReX_Vector.H</text>
</g>
<!-- Node11&#45;&gt;Node12 -->
<g id="edge15" class="edge">
<title>Node11&#45;&gt;Node12</title>
<path fill="none" stroke="#191970" d="M1566.7188,-61.8906C1550.4125,-51.9616 1524.746,-36.333 1505.8386,-24.8201"/>
<polygon fill="#191970" stroke="#191970" points="1507.5319,-21.7533 1497.1704,-19.5419 1503.8913,-27.7322 1507.5319,-21.7533"/>
</g>
<!-- Node14 -->
<g id="node15" class="node">
<title>Node14</title>
<polygon fill="#ffffff" stroke="#bfbfbf" points="600,-129 600,-148 709,-148 709,-129 600,-129"/>
<text text-anchor="middle" x="654.5" y="-136" font-family="Helvetica,sans-Serif" font-size="10.00" fill="#000000">AMReX_AmrCore.H</text>
</g>
<!-- Node13&#45;&gt;Node14 -->
<g id="edge17" class="edge">
<title>Node13&#45;&gt;Node14</title>
<path fill="none" stroke="#191970" d="M740.8076,-246.3845C725.0399,-226.6749 688.8462,-181.4328 668.6969,-156.2461"/>
<polygon fill="#191970" stroke="#191970" points="671.2787,-153.8706 662.2987,-148.2484 665.8126,-158.2435 671.2787,-153.8706"/>
</g>
<!-- Node15 -->
<g id="node16" class="node">
<title>Node15</title>
<g id="a_node16"><a xlink:href="_sim_time_8_h.html" target="_top" xlink:title="amr&#45;wind/core/SimTime.H">
<polygon fill="#ffffff" stroke="#000000" points="249,-190.5 249,-209.5 392,-209.5 392,-190.5 249,-190.5"/>
<text text-anchor="middle" x="320.5" y="-197.5" font-family="Helvetica,sans-Serif" font-size="10.00" fill="#000000">amr&#45;wind/core/SimTime.H</text>
</a>
</g>
</g>
<!-- Node13&#45;&gt;Node15 -->
<g id="edge18" class="edge">
<title>Node13&#45;&gt;Node15</title>
<path fill="none" stroke="#191970" d="M691.2221,-248.5057C616.9098,-238.7826 486.7842,-221.7568 402.1431,-210.6823"/>
<polygon fill="#191970" stroke="#191970" points="402.4229,-207.1891 392.0533,-209.3621 401.5147,-214.13 402.4229,-207.1891"/>
</g>
<!-- Node19 -->
<g id="node20" class="node">
<title>Node19</title>
<g id="a_node20"><a xlink:href="_field_repo_8_h.html" target="_top" xlink:title="amr&#45;wind/core/FieldRepo.H">
<polygon fill="#ffffff" stroke="#000000" points="1650.5,-190.5 1650.5,-209.5 1796.5,-209.5 1796.5,-190.5 1650.5,-190.5"/>
<text text-anchor="middle" x="1723.5" y="-197.5" font-family="Helvetica,sans-Serif" font-size="10.00" fill="#000000">amr&#45;wind/core/FieldRepo.H</text>
</a>
</g>
</g>
<!-- Node13&#45;&gt;Node19 -->
<g id="edge22" class="edge">
<title>Node13&#45;&gt;Node19</title>
<path fill="none" stroke="#191970" d="M805.8507,-252.706C970.771,-243.2337 1446.8188,-215.8914 1640.2772,-204.78"/>
<polygon fill="#191970" stroke="#191970" points="1640.604,-208.2671 1650.3868,-204.1993 1640.2025,-201.2786 1640.604,-208.2671"/>
</g>
<!-- Node26 -->
<g id="node27" class="node">
<title>Node26</title>
<g id="a_node27"><a xlink:href="_p_d_e_base_8_h.html" target="_top" xlink:title="amr&#45;wind/equation_systems\l/PDEBase.H">
<polygon fill="#ffffff" stroke="#000000" points="766,-123.5 766,-153.5 921,-153.5 921,-123.5 766,-123.5"/>
<text text-anchor="start" x="774" y="-141.5" font-family="Helvetica,sans-Serif" font-size="10.00" fill="#000000">amr&#45;wind/equation_systems</text>
<text text-anchor="middle" x="843.5" y="-130.5" font-family="Helvetica,sans-Serif" font-size="10.00" fill="#000000">/PDEBase.H</text>
</a>
</g>
</g>
<!-- Node13&#45;&gt;Node26 -->
<g id="edge45" class="edge">
<title>Node13&#45;&gt;Node26</title>
<path fill="none" stroke="#191970" d="M756.2742,-246.3845C771.1492,-227.9865 804.0115,-187.341 824.8822,-161.5272"/>
<polygon fill="#191970" stroke="#191970" points="827.6335,-163.6912 831.1991,-153.7143 822.1901,-159.2901 827.6335,-163.6912"/>
</g>
<!-- Node34 -->
<g id="node35" class="node">
<title>Node34</title>
<g id="a_node35"><a xlink:href="_physics_8_h.html" target="_top" xlink:title="amr&#45;wind/core/Physics.H">
<polygon fill="#ffffff" stroke="#000000" points="445,-129 445,-148 582,-148 582,-129 445,-129"/>
<text text-anchor="middle" x="513.5" y="-136" font-family="Helvetica,sans-Serif" font-size="10.00" fill="#000000">amr&#45;wind/core/Physics.H</text>
</a>
</g>
</g>
<!-- Node13&#45;&gt;Node34 -->
<g id="edge62" class="edge">
<title>Node13&#45;&gt;Node34</title>
<path fill="none" stroke="#191970" d="M729.269,-246.3845C687.8536,-225.6768 590.07,-176.785 541.6596,-152.5798"/>
<polygon fill="#191970" stroke="#191970" points="543.1767,-149.4253 532.6672,-148.0836 540.0462,-155.6863 543.1767,-149.4253"/>
</g>
<!-- Node16 -->
<g id="node17" class="node">
<title>Node16</title>
<polygon fill="#ffffff" stroke="#bfbfbf" points="336,-129 336,-148 427,-148 427,-129 336,-129"/>
<text text-anchor="middle" x="381.5" y="-136" font-family="Helvetica,sans-Serif" font-size="10.00" fill="#000000">AMReX_REAL.H</text>
</g>
<!-- Node15&#45;&gt;Node16 -->
<g id="edge19" class="edge">
<title>Node15&#45;&gt;Node16</title>
<path fill="none" stroke="#191970" d="M330.0313,-190.3906C339.2879,-181.0581 353.539,-166.6902 364.7003,-155.4374"/>
<polygon fill="#191970" stroke="#191970" points="367.2772,-157.8095 371.8344,-148.2449 362.3072,-152.88 367.2772,-157.8095"/>
</g>
<!-- Node17 -->
<g id="node18" class="node">
<title>Node17</title>
<polygon fill="#ffffff" stroke="#bfbfbf" points="53.5,-129 53.5,-148 185.5,-148 185.5,-129 53.5,-129"/>
<text text-anchor="middle" x="119.5" y="-136" font-family="Helvetica,sans-Serif" font-size="10.00" fill="#000000">AMReX_GpuQualifiers.H</text>
</g>
<!-- Node15&#45;&gt;Node17 -->
<g id="edge20" class="edge">
<title>Node15&#45;&gt;Node17</title>
<path fill="none" stroke="#191970" d="M289.0938,-190.3906C254.4302,-179.7846 198.5119,-162.6753 160.4375,-151.0257"/>
<polygon fill="#191970" stroke="#191970" points="161.2722,-147.6209 150.6857,-148.0419 159.2241,-154.3146 161.2722,-147.6209"/>
</g>
<!-- Node18 -->
<g id="node19" class="node">
<title>Node18</title>
<polygon fill="#ffffff" stroke="#bfbfbf" points="203.5,-129 203.5,-148 317.5,-148 317.5,-129 203.5,-129"/>
<text text-anchor="middle" x="260.5" y="-136" font-family="Helvetica,sans-Serif" font-size="10.00" fill="#000000">AMReX_Extension.H</text>
</g>
<!-- Node15&#45;&gt;Node18 -->
<g id="edge21" class="edge">
<title>Node15&#45;&gt;Node18</title>
<path fill="none" stroke="#191970" d="M311.125,-190.3906C302.0201,-181.0581 288.0026,-166.6902 277.0243,-155.4374"/>
<polygon fill="#191970" stroke="#191970" points="279.4957,-152.9586 270.0072,-148.2449 274.4852,-157.8468 279.4957,-152.9586"/>
</g>
<!-- Node19&#45;&gt;Node1 -->
<g id="edge30" class="edge">
<title>Node19&#45;&gt;Node1</title>
<path fill="none" stroke="#191970" d="M1767.0979,-190.4581C1816.6271,-179.6181 1897.4807,-161.9224 1950.8411,-150.2439"/>
<polygon fill="#191970" stroke="#191970" points="1951.7793,-153.6214 1960.7998,-148.0643 1950.2827,-146.7833 1951.7793,-153.6214"/>
</g>
<!-- Node19&#45;&gt;Node2 -->
<g id="edge23" class="edge">
<title>Node19&#45;&gt;Node2</title>
<path fill="none" stroke="#191970" d="M1650.3528,-198.1196C1487.8356,-192.4521 1103.6363,-170.3548 1009.5,-87 993.3711,-72.7184 988.7072,-47.5151 987.5383,-29.844"/>
<polygon fill="#191970" stroke="#191970" points="991.0327,-29.6181 987.19,-19.7447 984.0369,-29.8594 991.0327,-29.6181"/>
</g>
<!-- Node19&#45;&gt;Node4 -->
<g id="edge24" class="edge">
<title>Node19&#45;&gt;Node4</title>
<path fill="none" stroke="#191970" d="M1650.1874,-199.1013C1439.0256,-196.1514 839.2422,-185.1038 756.5,-154 735.7739,-146.2088 737.5537,-132.3873 717.5,-123 645.9773,-89.5195 593.3643,-148.2372 543.5,-87 530.5474,-71.0932 533.8356,-46.6022 538.552,-29.526"/>
<polygon fill="#191970" stroke="#191970" points="542.0315,-30.1296 541.7012,-19.5399 535.3556,-28.0243 542.0315,-30.1296"/>
</g>
<!-- Node19&#45;&gt;Node6 -->
<g id="edge43" class="edge">
<title>Node19&#45;&gt;Node6</title>
<path fill="none" stroke="#191970" d="M1721.4614,-190.3167C1715.204,-160.5938 1696.1825,-70.242 1687.6818,-29.8634"/>
<polygon fill="#191970" stroke="#191970" points="1691.0676,-28.9561 1685.5825,-19.8917 1684.2177,-30.3982 1691.0676,-28.9561"/>
</g>
<!-- Node19&#45;&gt;Node10 -->
<g id="edge25" class="edge">
<title>Node19&#45;&gt;Node10</title>
<path fill="none" stroke="#191970" d="M1796.5656,-195.2149C1985.399,-182.0934 2478.1742,-142.7714 2524.5,-87 2533.3034,-76.4016 2533.9088,-66.0648 2524.5,-56 2504.8518,-34.9819 2123.4867,-19.407 1939.7923,-13.0923"/>
<polygon fill="#191970" stroke="#191970" points="1939.7031,-9.5873 1929.5895,-12.7441 1939.4643,-16.5833 1939.7031,-9.5873"/>
</g>
<!-- Node19&#45;&gt;Node14 -->
<g id="edge42" class="edge">
<title>Node19&#45;&gt;Node14</title>
<path fill="none" stroke="#191970" d="M1650.4673,-198.3005C1451.4924,-193.4053 902.7466,-178.0669 723.5,-154 716.3054,-153.034 708.7535,-151.6874 701.3932,-150.1876"/>
<polygon fill="#191970" stroke="#191970" points="702.0386,-146.7465 691.5266,-148.0687 700.5688,-153.5904 702.0386,-146.7465"/>
</g>
<!-- Node20 -->
<g id="node21" class="node">
<title>Node20</title>
<g id="a_node21"><a xlink:href="_field_utils_8_h.html" target="_top" xlink:title="amr&#45;wind/core/FieldUtils.H">
<polygon fill="#ffffff" stroke="#000000" points="2370,-62 2370,-81 2515,-81 2515,-62 2370,-62"/>
<text text-anchor="middle" x="2442.5" y="-69" font-family="Helvetica,sans-Serif" font-size="10.00" fill="#000000">amr&#45;wind/core/FieldUtils.H</text>
</a>
</g>
</g>
<!-- Node19&#45;&gt;Node20 -->
<g id="edge26" class="edge">
<title>Node19&#45;&gt;Node20</title>
<path fill="none" stroke="#191970" d="M1796.7333,-192.351C1867.9444,-184.4547 1979.037,-170.9205 2074.5,-154 2190.6363,-133.4152 2325.5463,-100.9499 2395.3031,-83.5168"/>
<polygon fill="#191970" stroke="#191970" points="2396.264,-86.8843 2405.1124,-81.057 2394.5613,-80.0945 2396.264,-86.8843"/>
</g>
<!-- Node22 -->
<g id="node23" class="node">
<title>Node22</title>
<g id="a_node23"><a xlink:href="_int_field_8_h.html" target="_top" xlink:title="amr&#45;wind/core/IntField.H">
<polygon fill="#ffffff" stroke="#000000" points="1752,-129 1752,-148 1887,-148 1887,-129 1752,-129"/>
<text text-anchor="middle" x="1819.5" y="-136" font-family="Helvetica,sans-Serif" font-size="10.00" fill="#000000">amr&#45;wind/core/IntField.H</text>
</a>
</g>
</g>
<!-- Node19&#45;&gt;Node22 -->
<g id="edge31" class="edge">
<title>Node19&#45;&gt;Node22</title>
<path fill="none" stroke="#191970" d="M1738.5,-190.3906C1753.8581,-180.5519 1777.9521,-165.1167 1795.8745,-153.6351"/>
<polygon fill="#191970" stroke="#191970" points="1798.073,-156.3833 1804.6053,-148.0419 1794.297,-150.4891 1798.073,-156.3833"/>
</g>
<!-- Node23 -->
<g id="node24" class="node">
<title>Node23</title>
<polygon fill="#ffffff" stroke="#bfbfbf" points="1863.5,-62 1863.5,-81 1973.5,-81 1973.5,-62 1863.5,-62"/>
<text text-anchor="middle" x="1918.5" y="-69" font-family="Helvetica,sans-Serif" font-size="10.00" fill="#000000">AMReX_iMultiFab.H</text>
</g>
<!-- Node19&#45;&gt;Node23 -->
<g id="edge44" class="edge">
<title>Node19&#45;&gt;Node23</title>
<path fill="none" stroke="#191970" d="M1783.4833,-190.4453C1826.5055,-182.4266 1879.5702,-169.7625 1895.5,-154 1912.2087,-137.4667 1917.0521,-109.8927 1918.3128,-91.2185"/>
<polygon fill="#191970" stroke="#191970" points="1921.8126,-91.2901 1918.7064,-81.1609 1914.8179,-91.0163 1921.8126,-91.2901"/>
</g>
<!-- Node24 -->
<g id="node25" class="node">
<title>Node24</title>
<g id="a_node25"><a xlink:href="_scratch_field_8_h.html" target="_top" xlink:title="amr&#45;wind/core/ScratchField.H">
<polygon fill="#ffffff" stroke="#000000" points="1503.5,-129 1503.5,-148 1661.5,-148 1661.5,-129 1503.5,-129"/>
<text text-anchor="middle" x="1582.5" y="-136" font-family="Helvetica,sans-Serif" font-size="10.00" fill="#000000">amr&#45;wind/core/ScratchField.H</text>
</a>
</g>
</g>
<!-- Node19&#45;&gt;Node24 -->
<g id="edge35" class="edge">
<title>Node19&#45;&gt;Node24</title>
<path fill="none" stroke="#191970" d="M1701.4688,-190.3906C1677.8769,-180.1005 1640.2499,-163.6888 1613.6367,-152.0809"/>
<polygon fill="#191970" stroke="#191970" points="1614.9419,-148.8318 1604.3765,-148.0419 1612.1433,-155.248 1614.9419,-148.8318"/>
</g>
<!-- Node20&#45;&gt;Node6 -->
<g id="edge28" class="edge">
<title>Node20&#45;&gt;Node6</title>
<path fill="none" stroke="#191970" d="M2397.5495,-61.9284C2385.5592,-59.6703 2372.5786,-57.4894 2360.5,-56 2092.5092,-22.9535 2020.0267,-48.8146 1747.2725,-19.9668"/>
<polygon fill="#191970" stroke="#191970" points="1747.3843,-16.4587 1737.068,-18.872 1746.6375,-23.4188 1747.3843,-16.4587"/>
</g>
<!-- Node20&#45;&gt;Node10 -->
<g id="edge27" class="edge">
<title>Node20&#45;&gt;Node10</title>
<path fill="none" stroke="#191970" d="M2396.2291,-61.9315C2384.602,-59.754 2372.1244,-57.6108 2360.5,-56 2214.6668,-35.7916 2044.4399,-22.6634 1940.0694,-15.7952"/>
<polygon fill="#191970" stroke="#191970" points="1940.0719,-12.288 1929.8653,-15.1299 1939.6164,-19.2732 1940.0719,-12.288"/>
</g>
<!-- Node21 -->
<g id="node22" class="node">
<title>Node21</title>
<polygon fill="#ffffff" stroke="#bfbfbf" points="2381.5,-.5 2381.5,-19.5 2503.5,-19.5 2503.5,-.5 2381.5,-.5"/>
<text text-anchor="middle" x="2442.5" y="-7.5" font-family="Helvetica,sans-Serif" font-size="10.00" fill="#000000">AMReX_Interpolater.H</text>
</g>
<!-- Node20&#45;&gt;Node21 -->
<g id="edge29" class="edge">
<title>Node20&#45;&gt;Node21</title>
<path fill="none" stroke="#191970" d="M2442.5,-61.8906C2442.5,-53.3657 2442.5,-40.6392 2442.5,-29.9235"/>
<polygon fill="#191970" stroke="#191970" points="2446.0001,-29.7448 2442.5,-19.7449 2439.0001,-29.7449 2446.0001,-29.7448"/>
</g>
<!-- Node22&#45;&gt;Node2 -->
<g id="edge32" class="edge">
<title>Node22&#45;&gt;Node2</title>
<path fill="none" stroke="#191970" d="M1751.6517,-131.2283C1726.2072,-128.5575 1697.0344,-125.5622 1670.5,-123 1491.0676,-105.6735 1441.682,-129.5144 1266.5,-87 1231.0494,-78.3966 1225.2953,-66.9569 1190.5,-56 1131.3321,-37.3683 1060.2383,-23.0403 1019.8162,-15.6218"/>
<polygon fill="#191970" stroke="#191970" points="1020.2081,-12.136 1009.7449,-13.8004 1018.9624,-19.0242 1020.2081,-12.136"/>
</g>
<!-- Node22&#45;&gt;Node10 -->
<g id="edge33" class="edge">
<title>Node22&#45;&gt;Node10</title>
<path fill="none" stroke="#191970" d="M1821.2287,-128.8416C1824.975,-107.9114 1833.9079,-58.004 1838.9245,-29.9762"/>
<polygon fill="#191970" stroke="#191970" points="1842.4345,-30.2307 1840.7512,-19.7705 1835.544,-28.9973 1842.4345,-30.2307"/>
</g>
<!-- Node22&#45;&gt;Node23 -->
<g id="edge34" class="edge">
<title>Node22&#45;&gt;Node23</title>
<path fill="none" stroke="#191970" d="M1833.6843,-128.9005C1849.9311,-117.9052 1876.7691,-99.7422 1895.9034,-86.7927"/>
<polygon fill="#191970" stroke="#191970" points="1898.022,-89.5851 1904.342,-81.0817 1894.0986,-83.7879 1898.022,-89.5851"/>
</g>
<!-- Node24&#45;&gt;Node2 -->
<g id="edge36" class="edge">
<title>Node24&#45;&gt;Node2</title>
<path fill="none" stroke="#191970" d="M1503.3298,-134.4748C1363.4205,-126.8406 1083.4779,-109.0333 1044.5,-87 1021.2882,-73.8789 1004.7952,-46.9955 995.7086,-28.7317"/>
<polygon fill="#191970" stroke="#191970" points="998.8457,-27.1779 991.4268,-19.6141 992.5096,-30.1535 998.8457,-27.1779"/>
</g>
<!-- Node24&#45;&gt;Node6 -->
<g id="edge39" class="edge">
<title>Node24&#45;&gt;Node6</title>
<path fill="none" stroke="#191970" d="M1607.3252,-128.9913C1625.8085,-120.6526 1650.2187,-106.7542 1664.5,-87 1676.5601,-70.3182 1681.0141,-46.8603 1682.6327,-30.2297"/>
<polygon fill="#191970" stroke="#191970" points="1686.1438,-30.1964 1683.359,-19.9742 1679.1613,-29.7019 1686.1438,-30.1964"/>
</g>
<!-- Node24&#45;&gt;Node10 -->
<g id="edge37" class="edge">
<title>Node24&#45;&gt;Node10</title>
<path fill="none" stroke="#191970" d="M1621.1918,-128.9374C1652.9201,-120.2913 1698.4731,-106.006 1735.5,-87 1768.8152,-69.8992 1803.2552,-43.2022 1823.772,-26.1622"/>
<polygon fill="#191970" stroke="#191970" points="1826.2778,-28.6275 1831.6686,-19.5067 1821.7665,-23.2751 1826.2778,-28.6275"/>
</g>
<!-- Node24&#45;&gt;Node11 -->
<g id="edge38" class="edge">
<title>Node24&#45;&gt;Node11</title>
<path fill="none" stroke="#191970" d="M1582.5,-128.9005C1582.5,-119.149 1582.5,-103.7597 1582.5,-91.3695"/>
<polygon fill="#191970" stroke="#191970" points="1586.0001,-91.0816 1582.5,-81.0817 1579.0001,-91.0817 1586.0001,-91.0816"/>
</g>
<!-- Node24&#45;&gt;Node12 -->
<g id="edge40" class="edge">
<title>Node24&#45;&gt;Node12</title>
<path fill="none" stroke="#191970" d="M1557.6748,-128.9913C1539.1915,-120.6526 1514.7813,-106.7542 1500.5,-87 1488.4399,-70.3182 1483.9859,-46.8603 1482.3673,-30.2297"/>
<polygon fill="#191970" stroke="#191970" points="1485.8387,-29.7019 1481.641,-19.9742 1478.8562,-30.1964 1485.8387,-29.7019"/>
</g>
<!-- Node25 -->
<g id="node26" class="node">
<title>Node25</title>
<polygon fill="#ffffff" stroke="#bfbfbf" points="1053.5,-62 1053.5,-81 1181.5,-81 1181.5,-62 1053.5,-62"/>
<text text-anchor="middle" x="1117.5" y="-69" font-family="Helvetica,sans-Serif" font-size="10.00" fill="#000000">AMReX_PhysBCFunct.H</text>
</g>
<!-- Node24&#45;&gt;Node25 -->
<g id="edge41" class="edge">
<title>Node24&#45;&gt;Node25</title>
<path fill="none" stroke="#191970" d="M1503.3436,-129.4667C1424.9701,-120.1698 1301.6526,-104.5919 1195.5,-87 1188.1129,-85.7758 1180.355,-84.3746 1172.7149,-82.9264"/>
<polygon fill="#191970" stroke="#191970" points="1173.2627,-79.4676 1162.7803,-81.0064 1171.9344,-86.3404 1173.2627,-79.4676"/>
</g>
<!-- Node26&#45;&gt;Node2 -->
<g id="edge46" class="edge">
<title>Node26&#45;&gt;Node2</title>
<path fill="none" stroke="#191970" d="M860.4257,-123.2602C878.8589,-106.6774 909.2263,-79.4009 935.5,-56 946.4696,-46.2298 958.7802,-35.3365 968.6687,-26.6039"/>
<polygon fill="#191970" stroke="#191970" points="971.141,-29.0901 976.3227,-19.8488 966.5091,-23.8417 971.141,-29.0901"/>
</g>
<!-- Node26&#45;&gt;Node9 -->
<g id="edge61" class="edge">
<title>Node26&#45;&gt;Node9</title>
<path fill="none" stroke="#191970" d="M921.1163,-130.3441C1005.1866,-121.1821 1143.1591,-105.1918 1261.5,-87 1269.7173,-85.7368 1278.364,-84.2835 1286.858,-82.784"/>
<polygon fill="#191970" stroke="#191970" points="1287.5008,-86.2246 1296.7241,-81.011 1286.2627,-79.335 1287.5008,-86.2246"/>
</g>
<!-- Node26&#45;&gt;Node10 -->
<g id="edge60" class="edge">
<title>Node26&#45;&gt;Node10</title>
<path fill="none" stroke="#191970" d="M921.2552,-137.0666C1097.9009,-133.2533 1524.9018,-120.7419 1664.5,-87 1697.9685,-78.9104 1703.9056,-69.6885 1735.5,-56 1760.7606,-45.0556 1789.4167,-32.7415 1810.7119,-23.6102"/>
<polygon fill="#191970" stroke="#191970" points="1812.1271,-26.8116 1819.9396,-19.6551 1809.3694,-20.3777 1812.1271,-26.8116"/>
</g>
<!-- Node27 -->
<g id="node28" class="node">
<title>Node27</title>
<g id="a_node28"><a xlink:href="_factory_8_h.html" target="_top" xlink:title="amr&#45;wind/core/Factory.H">
<polygon fill="#ffffff" stroke="#000000" points="345.5,-62 345.5,-81 479.5,-81 479.5,-62 345.5,-62"/>
<text text-anchor="middle" x="412.5" y="-69" font-family="Helvetica,sans-Serif" font-size="10.00" fill="#000000">amr&#45;wind/core/Factory.H</text>
</a>
</g>
</g>
<!-- Node26&#45;&gt;Node27 -->
<g id="edge47" class="edge">
<title>Node26&#45;&gt;Node27</title>
<path fill="none" stroke="#191970" d="M765.9481,-126.4444C685.8112,-113.9869 561.7681,-94.7041 483.9516,-82.6073"/>
<polygon fill="#191970" stroke="#191970" points="484.1769,-79.1004 473.7579,-81.0227 483.1016,-86.0173 484.1769,-79.1004"/>
</g>
<!-- Node31 -->
<g id="node32" class="node">
<title>Node31</title>
<g id="a_node32"><a xlink:href="_coll_mgr_8_h.html" target="_top" xlink:title="amr&#45;wind/core/CollMgr.H">
<polygon fill="#ffffff" stroke="#000000" points="573.5,-62 573.5,-81 709.5,-81 709.5,-62 573.5,-62"/>
<text text-anchor="middle" x="641.5" y="-69" font-family="Helvetica,sans-Serif" font-size="10.00" fill="#000000">amr&#45;wind/core/CollMgr.H</text>
</a>
</g>
</g>
<!-- Node26&#45;&gt;Node31 -->
<g id="edge53" class="edge">
<title>Node26&#45;&gt;Node31</title>
<path fill="none" stroke="#191970" d="M798.1673,-123.4639C762.489,-111.63 713.333,-95.3258 679.6518,-84.1543"/>
<polygon fill="#191970" stroke="#191970" points="680.7511,-80.8315 670.1577,-81.0053 678.5474,-87.4756 680.7511,-80.8315"/>
</g>
<!-- Node32 -->
<g id="node33" class="node">
<title>Node32</title>
<g id="a_node33"><a xlink:href="_p_d_e_fields_8_h.html" target="_top" xlink:title="amr&#45;wind/equation_systems\l/PDEFields.H">
<polygon fill="#ffffff" stroke="#000000" points="728,-56.5 728,-86.5 883,-86.5 883,-56.5 728,-56.5"/>
<text text-anchor="start" x="736" y="-74.5" font-family="Helvetica,sans-Serif" font-size="10.00" fill="#000000">amr&#45;wind/equation_systems</text>
<text text-anchor="middle" x="805.5" y="-63.5" font-family="Helvetica,sans-Serif" font-size="10.00" fill="#000000">/PDEFields.H</text>
</a>
</g>
</g>
<!-- Node26&#45;&gt;Node32 -->
<g id="edge58" class="edge">
<title>Node26&#45;&gt;Node32</title>
<path fill="none" stroke="#191970" d="M834.8772,-123.2967C830.213,-115.0729 824.3453,-104.7272 819.0826,-95.4483"/>
<polygon fill="#191970" stroke="#191970" points="822.0665,-93.6148 814.0887,-86.6432 815.9777,-97.0683 822.0665,-93.6148"/>
</g>
<!-- Node27&#45;&gt;Node3 -->
<g id="edge48" class="edge">
<title>Node27&#45;&gt;Node3</title>
<path fill="none" stroke="#191970" d="M448.2813,-61.8906C490.2059,-50.6314 559.4208,-32.0431 602.633,-20.4381"/>
<polygon fill="#191970" stroke="#191970" points="603.747,-23.763 612.497,-17.789 601.9314,-17.0025 603.747,-23.763"/>
</g>
<!-- Node27&#45;&gt;Node4 -->
<g id="edge49" class="edge">
<title>Node27&#45;&gt;Node4</title>
<path fill="none" stroke="#191970" d="M433.2813,-61.8906C455.3394,-51.6908 490.405,-35.4763 515.4669,-23.8875"/>
<polygon fill="#191970" stroke="#191970" points="517.2571,-26.9158 524.8647,-19.5419 514.3191,-20.5622 517.2571,-26.9158"/>
</g>
<!-- Node28 -->
<g id="node29" class="node">
<title>Node28</title>
<polygon fill="#ffffff" stroke="#bfbfbf" points="234.5,-.5 234.5,-19.5 294.5,-19.5 294.5,-.5 234.5,-.5"/>
<text text-anchor="middle" x="264.5" y="-7.5" font-family="Helvetica,sans-Serif" font-size="10.00" fill="#000000">iostream</text>
</g>
<!-- Node27&#45;&gt;Node28 -->
<g id="edge50" class="edge">
<title>Node27&#45;&gt;Node28</title>
<path fill="none" stroke="#191970" d="M389.375,-61.8906C364.5033,-51.5554 324.7702,-35.0447 296.8156,-23.4284"/>
<polygon fill="#191970" stroke="#191970" points="298.0402,-20.1472 287.4626,-19.5419 295.354,-26.6113 298.0402,-20.1472"/>
</g>
<!-- Node29 -->
<g id="node30" class="node">
<title>Node29</title>
<polygon fill="#ffffff" stroke="#bfbfbf" points="313,-.5 313,-19.5 402,-19.5 402,-.5 313,-.5"/>
<text text-anchor="middle" x="357.5" y="-7.5" font-family="Helvetica,sans-Serif" font-size="10.00" fill="#000000">AMReX_Print.H</text>
</g>
<!-- Node27&#45;&gt;Node29 -->
<g id="edge51" class="edge">
<title>Node27&#45;&gt;Node29</title>
<path fill="none" stroke="#191970" d="M403.9063,-61.8906C395.6403,-52.6478 382.9574,-38.466 372.9383,-27.2628"/>
<polygon fill="#191970" stroke="#191970" points="375.49,-24.8657 366.2149,-19.7449 370.2722,-29.5321 375.49,-24.8657"/>
</g>
<!-- Node30 -->
<g id="node31" class="node">
<title>Node30</title>
<polygon fill="#ffffff" stroke="#bfbfbf" points="420,-.5 420,-19.5 481,-19.5 481,-.5 420,-.5"/>
<text text-anchor="middle" x="450.5" y="-7.5" font-family="Helvetica,sans-Serif" font-size="10.00" fill="#000000">AMReX.H</text>
</g>
<!-- Node27&#45;&gt;Node30 -->
<g id="edge52" class="edge">
<title>Node27&#45;&gt;Node30</title>
<path fill="none" stroke="#191970" d="M418.4375,-61.8906C423.9267,-53.0068 432.2353,-39.5601 439.019,-28.5811"/>
<polygon fill="#191970" stroke="#191970" points="442.1998,-30.0917 444.4788,-19.7449 436.2449,-26.4122 442.1998,-30.0917"/>
</g>
<!-- Node31&#45;&gt;Node2 -->
<g id="edge54" class="edge">
<title>Node31&#45;&gt;Node2</title>
<path fill="none" stroke="#191970" d="M687.8756,-61.9362C697.9605,-59.9203 708.5795,-57.8463 718.5,-56 803.9506,-40.0968 905.0704,-23.3641 955.5212,-15.1575"/>
<polygon fill="#191970" stroke="#191970" points="956.1837,-18.5959 965.4938,-13.5391 955.0623,-11.6862 956.1837,-18.5959"/>
</g>
<!-- Node31&#45;&gt;Node3 -->
<g id="edge55" class="edge">
<title>Node31&#45;&gt;Node3</title>
<path fill="none" stroke="#191970" d="M641.5,-61.8906C641.5,-53.3657 641.5,-40.6392 641.5,-29.9235"/>
<polygon fill="#191970" stroke="#191970" points="645.0001,-29.7448 641.5,-19.7449 638.0001,-29.7449 645.0001,-29.7448"/>
</g>
<!-- Node31&#45;&gt;Node4 -->
<g id="edge56" class="edge">
<title>Node31&#45;&gt;Node4</title>
<path fill="none" stroke="#191970" d="M626.5,-61.8906C611.1419,-52.0519 587.0479,-36.6167 569.1255,-25.1351"/>
<polygon fill="#191970" stroke="#191970" points="570.703,-21.9891 560.3947,-19.5419 566.927,-27.8833 570.703,-21.9891"/>
</g>
<!-- Node31&#45;&gt;Node12 -->
<g id="edge57" class="edge">
<title>Node31&#45;&gt;Node12</title>
<path fill="none" stroke="#191970" d="M683.2856,-61.9941C694.6561,-59.7074 707.0062,-57.496 718.5,-56 979.6148,-22.014 1294.335,-13.0773 1422.6964,-10.7765"/>
<polygon fill="#191970" stroke="#191970" points="1423.1366,-14.2695 1433.0749,-10.5978 1423.016,-7.2706 1423.1366,-14.2695"/>
</g>
<!-- Node33 -->
<g id="node34" class="node">
<title>Node33</title>
<polygon fill="#ffffff" stroke="#bfbfbf" points="781,-.5 781,-19.5 830,-19.5 830,-.5 781,-.5"/>
<text text-anchor="middle" x="805.5" y="-7.5" font-family="Helvetica,sans-Serif" font-size="10.00" fill="#000000">iosfwd</text>
</g>
<!-- Node32&#45;&gt;Node33 -->
<g id="edge59" class="edge">
<title>Node32&#45;&gt;Node33</title>
<path fill="none" stroke="#191970" d="M805.5,-56.2977C805.5,-48.3834 805.5,-38.6043 805.5,-30.0759"/>
<polygon fill="#191970" stroke="#191970" points="809.0001,-29.8469 805.5,-19.8469 802.0001,-29.847 809.0001,-29.8469"/>
</g>
<!-- Node34&#45;&gt;Node6 -->
<g id="edge65" class="edge">
<title>Node34&#45;&gt;Node6</title>
<path fill="none" stroke="#191970" d="M555.2853,-128.9919C566.6558,-126.7052 579.006,-124.4944 590.5,-123 855.4167,-88.5578 930.0049,-146.2402 1190.5,-87 1226.0714,-78.9106 1231.1416,-64.975 1266.5,-56 1331.7003,-39.4502 1519.9078,-22.8347 1619.6702,-14.8644"/>
<polygon fill="#191970" stroke="#191970" points="1620.2283,-18.3312 1629.9201,-14.0511 1619.6745,-11.3531 1620.2283,-18.3312"/>
</g>
<!-- Node34&#45;&gt;Node27 -->
<g id="edge63" class="edge">
<title>Node34&#45;&gt;Node27</title>
<path fill="none" stroke="#191970" d="M499.0292,-128.9005C482.3791,-117.8554 454.826,-99.5776 435.2886,-86.6172"/>
<polygon fill="#191970" stroke="#191970" points="437.212,-83.693 426.944,-81.0817 433.3424,-89.5263 437.212,-83.693"/>
</g>
<!-- Node34&#45;&gt;Node31 -->
<g id="edge64" class="edge">
<title>Node34&#45;&gt;Node31</title>
<path fill="none" stroke="#191970" d="M531.8393,-128.9005C553.4156,-117.6067 589.4391,-98.7506 614.2766,-85.7497"/>
<polygon fill="#191970" stroke="#191970" points="615.9582,-88.8201 623.1947,-81.0817 612.7119,-82.6183 615.9582,-88.8201"/>
</g>
<!-- Node35 -->
<g id="node36" class="node">
<title>Node35</title>
<polygon fill="#ffffff" stroke="#bfbfbf" points="214,-62 214,-81 327,-81 327,-62 214,-62"/>
<text text-anchor="middle" x="270.5" y="-69" font-family="Helvetica,sans-Serif" font-size="10.00" fill="#000000">AMReX_Geometry.H</text>
</g>
<!-- Node34&#45;&gt;Node35 -->
<g id="edge66" class="edge">
<title>Node34&#45;&gt;Node35</title>
<path fill="none" stroke="#191970" d="M478.9421,-128.9717C435.882,-117.0991 362.2267,-96.7909 314.9903,-83.7669"/>
<polygon fill="#191970" stroke="#191970" points="315.9027,-80.3879 305.3321,-81.1039 314.0421,-87.1361 315.9027,-80.3879"/>
</g>
<!-- Node36&#45;&gt;Node2 -->
<g id="edge69" class="edge">
<title>Node36&#45;&gt;Node2</title>
<path fill="none" stroke="#191970" d="M188.3309,-58.3664C193.7846,-57.4714 199.2304,-56.6634 204.5,-56 484.5215,-20.748 556.8083,-37.4498 838.5,-20 878.6007,-17.5159 924.752,-14.3748 954.9338,-12.2825"/>
<polygon fill="#191970" stroke="#191970" points="955.557,-15.7477 965.2901,-11.5622 955.0713,-8.7645 955.557,-15.7477"/>
</g>
<!-- Node36&#45;&gt;Node4 -->
<g id="edge70" class="edge">
<title>Node36&#45;&gt;Node4</title>
<path fill="none" stroke="#191970" d="M188.3875,-58.7605C193.8288,-57.7799 199.2564,-56.8446 204.5,-56 327.3482,-36.2132 361.5606,-39.0642 488.6532,-20.0578"/>
<polygon fill="#191970" stroke="#191970" points="489.4142,-23.4826 498.7787,-18.5271 488.3678,-16.5613 489.4142,-23.4826"/>
</g>
<!-- Node37 -->
<g id="node38" class="node">
<title>Node37</title>
<polygon fill="#ffffff" stroke="#bfbfbf" points="95,-.5 95,-19.5 142,-19.5 142,-.5 95,-.5"/>
<text text-anchor="middle" x="118.5" y="-7.5" font-family="Helvetica,sans-Serif" font-size="10.00" fill="#000000">vector</text>
</g>
<!-- Node36&#45;&gt;Node37 -->
<g id="edge71" class="edge">
<title>Node36&#45;&gt;Node37</title>
<path fill="none" stroke="#191970" d="M123.7697,-56.2977C122.8587,-48.2945 121.7307,-38.3843 120.7524,-29.7889"/>
<polygon fill="#191970" stroke="#191970" points="124.2293,-29.3869 119.6208,-19.8469 117.2742,-30.1786 124.2293,-29.3869"/>
</g>
<!-- Node38 -->
<g id="node39" class="node">
<title>Node38</title>
<polygon fill="#ffffff" stroke="#bfbfbf" points="160.5,-.5 160.5,-19.5 216.5,-19.5 216.5,-.5 160.5,-.5"/>
<text text-anchor="middle" x="188.5" y="-7.5" font-family="Helvetica,sans-Serif" font-size="10.00" fill="#000000">netcdf.h</text>
</g>
<!-- Node36&#45;&gt;Node38 -->
<g id="edge72" class="edge">
<title>Node36&#45;&gt;Node38</title>
<path fill="none" stroke="#191970" d="M141.073,-56.2977C150.1825,-47.4052 161.7034,-36.1586 171.1091,-26.9769"/>
<polygon fill="#191970" stroke="#191970" points="173.702,-29.3368 178.4129,-19.8469 168.8122,-24.3278 173.702,-29.3368"/>
</g>
<!-- Node39 -->
<g id="node40" class="node">
<title>Node39</title>
<polygon fill="#ffffff" stroke="#bfbfbf" points="0,-.5 0,-19.5 77,-19.5 77,-.5 0,-.5"/>
<text text-anchor="middle" x="38.5" y="-7.5" font-family="Helvetica,sans-Serif" font-size="10.00" fill="#000000">netcdf_par.h</text>
</g>
<!-- Node36&#45;&gt;Node39 -->
<g id="edge73" class="edge">
<title>Node36&#45;&gt;Node39</title>
<path fill="none" stroke="#191970" d="M103.9944,-56.2977C90.7032,-46.9022 73.6943,-34.8787 60.3412,-25.4395"/>
<polygon fill="#191970" stroke="#191970" points="62.3561,-22.5776 52.17,-19.6633 58.3154,-28.2937 62.3561,-22.5776"/>
</g>
</g>
</svg>
