<?xml version="1.0" encoding="UTF-8" standalone="no"?>
<!DOCTYPE svg PUBLIC "-//W3C//DTD SVG 1.1//EN"
 "http://www.w3.org/Graphics/SVG/1.1/DTD/svg11.dtd">
<!-- Generated by graphviz version 2.40.1 (20161225.0304)
 -->
<!-- Title: ABLFieldInit.cpp Pages: 1 -->
<!--zoomable 263 -->
<svg id="main" version="1.1" xmlns="http://www.w3.org/2000/svg" xmlns:xlink="http://www.w3.org/1999/xlink" xml:space="preserve" onload="init(evt)">
<style type="text/css"><![CDATA[
.edge:hover path { stroke: red; }
.edge:hover polygon { stroke: red; fill: red; }
]]></style>
<script type="text/javascript"><![CDATA[
var edges = document.getElementsByTagName('g');
if (edges && edges.length) {
  for (var i=0;i<edges.length;i++) {
    if (edges[i].id.substr(0,4)=='edge') {
      edges[i].setAttribute('class','edge');
    }
  }
}
]]></script>
        <defs>
                <circle id="rim" cx="0" cy="0" r="7"/>
                <circle id="rim2" cx="0" cy="0" r="3.5"/>
                <g id="zoomPlus">
                        <use xlink:href="#rim" fill="#404040">
                                <set attributeName="fill" to="#808080" begin="zoomplus.mouseover" end="zoomplus.mouseout"/>
                        </use>
                        <path d="M-4,0h8M0,-4v8" fill="none" stroke="white" stroke-width="1.5" pointer-events="none"/>
                </g>
                <g id="zoomMin">
                        <use xlink:href="#rim" fill="#404040">
                                <set attributeName="fill" to="#808080" begin="zoomminus.mouseover" end="zoomminus.mouseout"/>
                        </use>
                        <path d="M-4,0h8" fill="none" stroke="white" stroke-width="1.5" pointer-events="none"/>
                </g>
                <g id="dirArrow">
                        <path fill="none" stroke="white" stroke-width="1.5" d="M0,-3.0v7 M-2.5,-0.5L0,-3.0L2.5,-0.5"/>
                </g>
               <g id="resetDef">
                       <use xlink:href="#rim2" fill="#404040">
                               <set attributeName="fill" to="#808080" begin="reset.mouseover" end="reset.mouseout"/>
                       </use>
               </g>
        </defs>

<script type="text/javascript">
var viewWidth = 1401;
var viewHeight = 263;
var sectionId = 'dynsection-0';
</script>
<script xlink:href="svgpan.js"/>
<svg id="graph" class="graph">
<g id="viewport">
<title>ABLFieldInit.cpp</title>
<polygon fill="#ffffff" stroke="transparent" points="-4,4 -4,-259 1396.5,-259 1396.5,4 -4,4"/>
<!-- Node0 -->
<g id="node1" class="node">
<title>Node0</title>
<polygon fill="#bfbfbf" stroke="#000000" points="741.5,-235.5 741.5,-254.5 835.5,-254.5 835.5,-235.5 741.5,-235.5"/>
<text text-anchor="middle" x="788.5" y="-242.5" font-family="Helvetica,sans-Serif" font-size="10.00" fill="#000000">ABLFieldInit.cpp</text>
</g>
<!-- Node1 -->
<g id="node2" class="node">
<title>Node1</title>
<polygon fill="#ffffff" stroke="#bfbfbf" points="413,-174 413,-193 460,-193 460,-174 413,-174"/>
<text text-anchor="middle" x="436.5" y="-181" font-family="Helvetica,sans-Serif" font-size="10.00" fill="#000000">cmath</text>
</g>
<!-- Node0&#45;&gt;Node1 -->
<g id="edge1" class="edge">
<title>Node0&#45;&gt;Node1</title>
<path fill="none" stroke="#191970" d="M741.3434,-242.5593C678.2538,-238.3159 563.4334,-227.15 469.5,-199 467.5901,-198.4276 465.6505,-197.7614 463.7176,-197.0332"/>
<polygon fill="#191970" stroke="#191970" points="464.8478,-193.7106 454.2753,-193.0217 462.1106,-200.1533 464.8478,-193.7106"/>
</g>
<!-- Node2 -->
<g id="node3" class="node">
<title>Node2</title>
<g id="a_node3"><a xlink:href="_a_b_l_field_init_8_h.html" target="_top" xlink:title="amr&#45;wind/wind_energy\l/ABLFieldInit.H">
<polygon fill="#ffffff" stroke="#000000" points="478.5,-168.5 478.5,-198.5 606.5,-198.5 606.5,-168.5 478.5,-168.5"/>
<text text-anchor="start" x="486.5" y="-186.5" font-family="Helvetica,sans-Serif" font-size="10.00" fill="#000000">amr&#45;wind/wind_energy</text>
<text text-anchor="middle" x="542.5" y="-175.5" font-family="Helvetica,sans-Serif" font-size="10.00" fill="#000000">/ABLFieldInit.H</text>
</a>
</g>
</g>
<!-- Node0&#45;&gt;Node2 -->
<g id="edge2" class="edge">
<title>Node0&#45;&gt;Node2</title>
<path fill="none" stroke="#191970" d="M750.3324,-235.4581C713.6964,-226.2991 657.4832,-212.2458 612.7523,-201.0631"/>
<polygon fill="#191970" stroke="#191970" points="613.364,-197.6084 602.8137,-198.5784 611.6662,-204.3994 613.364,-197.6084"/>
</g>
<!-- Node10 -->
<g id="node11" class="node">
<title>Node10</title>
<polygon fill="#ffffff" stroke="#bfbfbf" points="1306.5,-56.5 1306.5,-75.5 1392.5,-75.5 1392.5,-56.5 1306.5,-56.5"/>
<text text-anchor="middle" x="1349.5" y="-63.5" font-family="Helvetica,sans-Serif" font-size="10.00" fill="#000000">AMReX_Gpu.H</text>
</g>
<!-- Node0&#45;&gt;Node10 -->
<g id="edge25" class="edge">
<title>Node0&#45;&gt;Node10</title>
<path fill="none" stroke="#191970" d="M816.3984,-235.4183C859.5998,-220.6356 945.3377,-191.5157 1018.5,-168 1122.0765,-134.7086 1244.5804,-97.5261 1307.522,-78.5815"/>
<polygon fill="#191970" stroke="#191970" points="1308.8982,-81.8225 1317.4665,-75.5909 1306.8822,-75.1191 1308.8982,-81.8225"/>
</g>
<!-- Node20 -->
<g id="node21" class="node">
<title>Node20</title>
<polygon fill="#ffffff" stroke="#bfbfbf" points="1027,-174 1027,-193 1144,-193 1144,-174 1027,-174"/>
<text text-anchor="middle" x="1085.5" y="-181" font-family="Helvetica,sans-Serif" font-size="10.00" fill="#000000">AMReX_ParmParse.H</text>
</g>
<!-- Node0&#45;&gt;Node20 -->
<g id="edge26" class="edge">
<title>Node0&#45;&gt;Node20</title>
<path fill="none" stroke="#191970" d="M835.2824,-235.4876C880.6118,-226.2483 951.2924,-211.7826 1012.5,-199 1018.3498,-197.7783 1024.4615,-196.4937 1030.5507,-195.2085"/>
<polygon fill="#191970" stroke="#191970" points="1031.6678,-198.5497 1040.7271,-193.056 1030.2192,-191.7012 1031.6678,-198.5497"/>
</g>
<!-- Node3 -->
<g id="node4" class="node">
<title>Node3</title>
<g id="a_node4"><a xlink:href="_field_8_h.html" target="_top" xlink:title="amr&#45;wind/core/Field.H">
<polygon fill="#ffffff" stroke="#000000" points="810.5,-112.5 810.5,-131.5 932.5,-131.5 932.5,-112.5 810.5,-112.5"/>
<text text-anchor="middle" x="871.5" y="-119.5" font-family="Helvetica,sans-Serif" font-size="10.00" fill="#000000">amr&#45;wind/core/Field.H</text>
</a>
</g>
</g>
<!-- Node2&#45;&gt;Node3 -->
<g id="edge3" class="edge">
<title>Node2&#45;&gt;Node3</title>
<path fill="none" stroke="#191970" d="M606.7155,-171.4962C665.7247,-160.4656 752.5744,-144.2308 810.5332,-133.3965"/>
<polygon fill="#191970" stroke="#191970" points="811.4616,-136.7837 820.6482,-131.5057 810.1753,-129.9029 811.4616,-136.7837"/>
</g>
<!-- Node2&#45;&gt;Node10 -->
<g id="edge24" class="edge">
<title>Node2&#45;&gt;Node10</title>
<path fill="none" stroke="#191970" d="M606.6096,-181.261C686.4742,-177.1075 826.4417,-165.3171 941.5,-132 961.7455,-126.1376 964.2144,-117.7221 984.5,-112 1116.1106,-74.8758 1157.1728,-96.1808 1296.2292,-76.0667"/>
<polygon fill="#191970" stroke="#191970" points="1297.04,-79.4845 1306.4132,-74.5455 1296.0058,-72.5613 1297.04,-79.4845"/>
</g>
<!-- Node14 -->
<g id="node15" class="node">
<title>Node14</title>
<polygon fill="#ffffff" stroke="#bfbfbf" points="465.5,-.5 465.5,-19.5 561.5,-19.5 561.5,-.5 465.5,-.5"/>
<text text-anchor="middle" x="513.5" y="-7.5" font-family="Helvetica,sans-Serif" font-size="10.00" fill="#000000">AMReX_Vector.H</text>
</g>
<!-- Node2&#45;&gt;Node14 -->
<g id="edge23" class="edge">
<title>Node2&#45;&gt;Node14</title>
<path fill="none" stroke="#191970" d="M552.4576,-168.3539C561.1691,-153.0081 570.8084,-129.1496 559.5,-112 537.1405,-78.0909 497.8595,-109.9091 475.5,-76 464.6914,-59.6084 479.2091,-40.0252 493.3077,-26.4688"/>
<polygon fill="#191970" stroke="#191970" points="495.8349,-28.9034 500.9335,-19.6161 491.1561,-23.6967 495.8349,-28.9034"/>
</g>
<!-- Node15 -->
<g id="node16" class="node">
<title>Node15</title>
<polygon fill="#ffffff" stroke="#bfbfbf" points="0,-112.5 0,-131.5 91,-131.5 91,-112.5 0,-112.5"/>
<text text-anchor="middle" x="45.5" y="-119.5" font-family="Helvetica,sans-Serif" font-size="10.00" fill="#000000">AMReX_Array.H</text>
</g>
<!-- Node2&#45;&gt;Node15 -->
<g id="edge18" class="edge">
<title>Node2&#45;&gt;Node15</title>
<path fill="none" stroke="#191970" d="M478.4026,-169.6282C475.0595,-169.0445 471.7437,-168.4969 468.5,-168 309.231,-143.6037 264.976,-154.2787 101.0148,-131.9579"/>
<polygon fill="#191970" stroke="#191970" points="101.4569,-128.4858 91.0719,-130.5842 100.4988,-135.42 101.4569,-128.4858"/>
</g>
<!-- Node16 -->
<g id="node17" class="node">
<title>Node16</title>
<polygon fill="#ffffff" stroke="#bfbfbf" points="109.5,-112.5 109.5,-131.5 207.5,-131.5 207.5,-112.5 109.5,-112.5"/>
<text text-anchor="middle" x="158.5" y="-119.5" font-family="Helvetica,sans-Serif" font-size="10.00" fill="#000000">AMReX_Array4.H</text>
</g>
<!-- Node2&#45;&gt;Node16 -->
<g id="edge19" class="edge">
<title>Node2&#45;&gt;Node16</title>
<path fill="none" stroke="#191970" d="M478.3737,-169.8037C475.0382,-169.1742 471.7318,-168.5687 468.5,-168 360.2305,-148.9479 329.9561,-149.5608 217.5711,-132.1272"/>
<polygon fill="#191970" stroke="#191970" points="217.9522,-128.6443 207.5313,-130.5559 216.8698,-135.5601 217.9522,-128.6443"/>
</g>
<!-- Node17 -->
<g id="node18" class="node">
<title>Node17</title>
<polygon fill="#ffffff" stroke="#bfbfbf" points="226,-112.5 226,-131.5 311,-131.5 311,-112.5 226,-112.5"/>
<text text-anchor="middle" x="268.5" y="-119.5" font-family="Helvetica,sans-Serif" font-size="10.00" fill="#000000">AMReX_Box.H</text>
</g>
<!-- Node2&#45;&gt;Node17 -->
<g id="edge20" class="edge">
<title>Node2&#45;&gt;Node17</title>
<path fill="none" stroke="#191970" d="M478.2592,-169.081C430.3195,-158.3208 365.635,-143.8022 320.8282,-133.7452"/>
<polygon fill="#191970" stroke="#191970" points="321.5427,-130.3186 311.0189,-131.5435 320.0096,-137.1486 321.5427,-130.3186"/>
</g>
<!-- Node18 -->
<g id="node19" class="node">
<title>Node18</title>
<polygon fill="#ffffff" stroke="#bfbfbf" points="329,-112.5 329,-131.5 442,-131.5 442,-112.5 329,-112.5"/>
<text text-anchor="middle" x="385.5" y="-119.5" font-family="Helvetica,sans-Serif" font-size="10.00" fill="#000000">AMReX_Geometry.H</text>
</g>
<!-- Node2&#45;&gt;Node18 -->
<g id="edge21" class="edge">
<title>Node2&#45;&gt;Node18</title>
<path fill="none" stroke="#191970" d="M504.0935,-168.4554C478.1274,-158.284 444.161,-144.9787 419.237,-135.2155"/>
<polygon fill="#191970" stroke="#191970" points="420.4171,-131.9188 409.8294,-131.5303 417.864,-138.4366 420.4171,-131.9188"/>
</g>
<!-- Node19 -->
<g id="node20" class="node">
<title>Node19</title>
<polygon fill="#ffffff" stroke="#bfbfbf" points="460,-112.5 460,-131.5 551,-131.5 551,-112.5 460,-112.5"/>
<text text-anchor="middle" x="505.5" y="-119.5" font-family="Helvetica,sans-Serif" font-size="10.00" fill="#000000">AMReX_REAL.H</text>
</g>
<!-- Node2&#45;&gt;Node19 -->
<g id="edge22" class="edge">
<title>Node2&#45;&gt;Node19</title>
<path fill="none" stroke="#191970" d="M533.3539,-168.2977C528.3249,-159.9388 522.0445,-149.4997 516.7209,-140.6509"/>
<polygon fill="#191970" stroke="#191970" points="519.5785,-138.6114 511.4242,-131.8469 513.5803,-142.2201 519.5785,-138.6114"/>
</g>
<!-- Node4 -->
<g id="node5" class="node">
<title>Node4</title>
<polygon fill="#ffffff" stroke="#bfbfbf" points="1065.5,-.5 1065.5,-19.5 1109.5,-19.5 1109.5,-.5 1065.5,-.5"/>
<text text-anchor="middle" x="1087.5" y="-7.5" font-family="Helvetica,sans-Serif" font-size="10.00" fill="#000000">string</text>
</g>
<!-- Node3&#45;&gt;Node4 -->
<g id="edge4" class="edge">
<title>Node3&#45;&gt;Node4</title>
<path fill="none" stroke="#191970" d="M927.0927,-112.499C971.8418,-103.9776 1030.3253,-90.5962 1049.5,-76 1064.9076,-64.2714 1075.123,-44.3619 1081.0443,-29.4703"/>
<polygon fill="#191970" stroke="#191970" points="1084.4686,-30.2964 1084.6098,-19.7025 1077.893,-27.896 1084.4686,-30.2964"/>
</g>
<!-- Node5 -->
<g id="node6" class="node">
<title>Node5</title>
<polygon fill="#ffffff" stroke="#bfbfbf" points="1118.5,-56.5 1118.5,-75.5 1176.5,-75.5 1176.5,-56.5 1118.5,-56.5"/>
<text text-anchor="middle" x="1147.5" y="-63.5" font-family="Helvetica,sans-Serif" font-size="10.00" fill="#000000">memory</text>
</g>
<!-- Node3&#45;&gt;Node5 -->
<g id="edge5" class="edge">
<title>Node3&#45;&gt;Node5</title>
<path fill="none" stroke="#191970" d="M922.508,-112.4404C969.781,-103.4599 1042.017,-89.4294 1104.5,-76 1105.7645,-75.7282 1107.0491,-75.4488 1108.3458,-75.164"/>
<polygon fill="#191970" stroke="#191970" points="1109.3949,-78.5157 1118.3854,-72.9102 1107.8616,-71.6856 1109.3949,-78.5157"/>
</g>
<!-- Node6 -->
<g id="node7" class="node">
<title>Node6</title>
<polygon fill="#ffffff" stroke="#bfbfbf" points="1195,-56.5 1195,-75.5 1288,-75.5 1288,-56.5 1195,-56.5"/>
<text text-anchor="middle" x="1241.5" y="-63.5" font-family="Helvetica,sans-Serif" font-size="10.00" fill="#000000">unordered_map</text>
</g>
<!-- Node3&#45;&gt;Node6 -->
<g id="edge6" class="edge">
<title>Node3&#45;&gt;Node6</title>
<path fill="none" stroke="#191970" d="M932.6634,-113.6162C993.8422,-105.0998 1090.8941,-91.2372 1184.8104,-76.0724"/>
<polygon fill="#191970" stroke="#191970" points="1185.457,-79.5133 1194.7677,-74.4576 1184.3364,-72.6036 1185.457,-79.5133"/>
</g>
<!-- Node7 -->
<g id="node8" class="node">
<title>Node7</title>
<polygon fill="#ffffff" stroke="#bfbfbf" points="484.5,-56.5 484.5,-75.5 548.5,-75.5 548.5,-56.5 484.5,-56.5"/>
<text text-anchor="middle" x="516.5" y="-63.5" font-family="Helvetica,sans-Serif" font-size="10.00" fill="#000000">algorithm</text>
</g>
<!-- Node3&#45;&gt;Node7 -->
<g id="edge7" class="edge">
<title>Node3&#45;&gt;Node7</title>
<path fill="none" stroke="#191970" d="M810.3279,-114.1109C747.8464,-105.7677 648.1296,-91.6635 562.5,-76 561.2338,-75.7684 559.9493,-75.5274 558.6536,-75.2791"/>
<polygon fill="#191970" stroke="#191970" points="559.1092,-71.8009 548.6161,-73.2659 557.7325,-78.6642 559.1092,-71.8009"/>
</g>
<!-- Node8 -->
<g id="node9" class="node">
<title>Node8</title>
<polygon fill="#ffffff" stroke="#bfbfbf" points="688,-.5 688,-19.5 795,-19.5 795,-.5 688,-.5"/>
<text text-anchor="middle" x="741.5" y="-7.5" font-family="Helvetica,sans-Serif" font-size="10.00" fill="#000000">AMReX_MultiFab.H</text>
</g>
<!-- Node3&#45;&gt;Node8 -->
<g id="edge8" class="edge">
<title>Node3&#45;&gt;Node8</title>
<path fill="none" stroke="#191970" d="M810.4387,-115.9531C733.667,-107.724 610.184,-92.1631 596.5,-76 568.9385,-43.4453 627.2055,-26.1618 677.894,-17.5645"/>
<polygon fill="#191970" stroke="#191970" points="678.5837,-20.9988 687.903,-15.959 677.4749,-14.0871 678.5837,-20.9988"/>
</g>
<!-- Node9 -->
<g id="node10" class="node">
<title>Node9</title>
<polygon fill="#ffffff" stroke="#bfbfbf" points="605,-56.5 605,-75.5 702,-75.5 702,-56.5 605,-56.5"/>
<text text-anchor="middle" x="653.5" y="-63.5" font-family="Helvetica,sans-Serif" font-size="10.00" fill="#000000">AMReX_BCRec.H</text>
</g>
<!-- Node3&#45;&gt;Node9 -->
<g id="edge9" class="edge">
<title>Node3&#45;&gt;Node9</title>
<path fill="none" stroke="#191970" d="M834.0245,-112.3733C796.9897,-102.8598 740.2318,-88.2797 700.2639,-78.0127"/>
<polygon fill="#191970" stroke="#191970" points="701.0429,-74.5993 690.4865,-75.5011 699.3012,-81.3792 701.0429,-74.5993"/>
</g>
<!-- Node3&#45;&gt;Node10 -->
<g id="edge10" class="edge">
<title>Node3&#45;&gt;Node10</title>
<path fill="none" stroke="#191970" d="M932.8759,-113.6623C937.4842,-113.0835 942.0645,-112.523 946.5,-112 1099.0454,-94.0117 1140.6584,-98.6262 1296.4797,-76.0415"/>
<polygon fill="#191970" stroke="#191970" points="1297.0317,-79.498 1306.4194,-74.5866 1296.0179,-72.5718 1297.0317,-79.498"/>
</g>
<!-- Node11 -->
<g id="node12" class="node">
<title>Node11</title>
<g id="a_node12"><a xlink:href="incflo__enums_8_h.html" target="_top" xlink:title="amr&#45;wind/incflo_enums.H">
<polygon fill="#ffffff" stroke="#000000" points="720.5,-56.5 720.5,-75.5 860.5,-75.5 860.5,-56.5 720.5,-56.5"/>
<text text-anchor="middle" x="790.5" y="-63.5" font-family="Helvetica,sans-Serif" font-size="10.00" fill="#000000">amr&#45;wind/incflo_enums.H</text>
</a>
</g>
</g>
<!-- Node3&#45;&gt;Node11 -->
<g id="edge11" class="edge">
<title>Node3&#45;&gt;Node11</title>
<path fill="none" stroke="#191970" d="M857.3909,-112.2455C845.0791,-103.7337 827.0042,-91.2375 812.7462,-81.3801"/>
<polygon fill="#191970" stroke="#191970" points="814.6634,-78.4506 804.4474,-75.6427 810.6826,-84.2085 814.6634,-78.4506"/>
</g>
<!-- Node12 -->
<g id="node13" class="node">
<title>Node12</title>
<g id="a_node13"><a xlink:href="_field_desc_types_8_h.html" target="_top" xlink:title="amr&#45;wind/core/FieldDescTypes.H">
<polygon fill="#ffffff" stroke="#000000" points="867.5,-.5 867.5,-19.5 1041.5,-19.5 1041.5,-.5 867.5,-.5"/>
<text text-anchor="middle" x="954.5" y="-7.5" font-family="Helvetica,sans-Serif" font-size="10.00" fill="#000000">amr&#45;wind/core/FieldDescTypes.H</text>
</a>
</g>
</g>
<!-- Node3&#45;&gt;Node12 -->
<g id="edge12" class="edge">
<title>Node3&#45;&gt;Node12</title>
<path fill="none" stroke="#191970" d="M932.6801,-112.4478C973.1918,-104.7297 1021.0741,-92.4454 1033.5,-76 1049.6913,-54.5711 1019.6485,-35.557 992.0741,-23.5071"/>
<polygon fill="#191970" stroke="#191970" points="993.0817,-20.1361 982.5035,-19.5428 990.4029,-26.6033 993.0817,-20.1361"/>
</g>
<!-- Node13 -->
<g id="node14" class="node">
<title>Node13</title>
<g id="a_node14"><a xlink:href="_view_field_8_h.html" target="_top" xlink:title="amr&#45;wind/core/ViewField.H">
<polygon fill="#ffffff" stroke="#000000" points="878.5,-56.5 878.5,-75.5 1024.5,-75.5 1024.5,-56.5 878.5,-56.5"/>
<text text-anchor="middle" x="951.5" y="-63.5" font-family="Helvetica,sans-Serif" font-size="10.00" fill="#000000">amr&#45;wind/core/ViewField.H</text>
</a>
</g>
</g>
<!-- Node3&#45;&gt;Node13 -->
<g id="edge13" class="edge">
<title>Node3&#45;&gt;Node13</title>
<path fill="none" stroke="#191970" d="M885.4349,-112.2455C897.5947,-103.7337 915.4464,-91.2375 929.5285,-81.3801"/>
<polygon fill="#191970" stroke="#191970" points="931.5395,-84.2447 937.7248,-75.6427 927.5253,-78.51 931.5395,-84.2447"/>
</g>
<!-- Node13&#45;&gt;Node4 -->
<g id="edge14" class="edge">
<title>Node13&#45;&gt;Node4</title>
<path fill="none" stroke="#191970" d="M974.8792,-56.3733C997.2727,-47.1524 1031.225,-33.1721 1055.9958,-22.9723"/>
<polygon fill="#191970" stroke="#191970" points="1057.4123,-26.1742 1065.3264,-19.1303 1054.747,-19.7015 1057.4123,-26.1742"/>
</g>
<!-- Node13&#45;&gt;Node8 -->
<g id="edge16" class="edge">
<title>Node13&#45;&gt;Node8</title>
<path fill="none" stroke="#191970" d="M915.3997,-56.3733C879.8752,-46.9001 825.512,-32.4032 787.0381,-22.1435"/>
<polygon fill="#191970" stroke="#191970" points="787.6934,-18.696 777.1292,-19.5011 785.8897,-25.4596 787.6934,-18.696"/>
</g>
<!-- Node13&#45;&gt;Node12 -->
<g id="edge15" class="edge">
<title>Node13&#45;&gt;Node12</title>
<path fill="none" stroke="#191970" d="M952.0226,-56.2455C952.414,-48.9382 952.9628,-38.6944 953.4444,-29.7046"/>
<polygon fill="#191970" stroke="#191970" points="956.9434,-29.8156 953.9834,-19.6427 949.9534,-29.4411 956.9434,-29.8156"/>
</g>
<!-- Node13&#45;&gt;Node14 -->
<g id="edge17" class="edge">
<title>Node13&#45;&gt;Node14</title>
<path fill="none" stroke="#191970" d="M878.1886,-56.6269C792.0705,-45.6163 650.9451,-27.5729 571.8768,-17.4637"/>
<polygon fill="#191970" stroke="#191970" points="571.9758,-13.9479 561.6126,-16.1514 571.088,-20.8914 571.9758,-13.9479"/>
</g>
</g>
</svg>
        <g id="navigator" transform="translate(0 0)" fill="#404254">
                <rect fill="#f2f5e9" fill-opacity="0.5" stroke="#606060" stroke-width=".5" x="0" y="0" width="60" height="60"/>
                <use id="zoomplus" xlink:href="#zoomPlus" x="17" y="9" onmousedown="handleZoom(evt,'in')"/>
                <use id="zoomminus" xlink:href="#zoomMin" x="42" y="9" onmousedown="handleZoom(evt,'out')"/>
                <use id="reset" xlink:href="#resetDef" x="30" y="36" onmousedown="handleReset()"/>
                <g id="arrowUp" xlink:href="#dirArrow" transform="translate(30 24)" onmousedown="handlePan(0,-1)">
                  <use xlink:href="#rim" fill="#404040">
                        <set attributeName="fill" to="#808080" begin="arrowUp.mouseover" end="arrowUp.mouseout"/>
                  </use>
                  <path fill="none" stroke="white" stroke-width="1.5" d="M0,-3.0v7 M-2.5,-0.5L0,-3.0L2.5,-0.5"/>
                </g>
                <g id="arrowRight" xlink:href="#dirArrow" transform="rotate(90) translate(36 -43)" onmousedown="handlePan(1,0)">
                  <use xlink:href="#rim" fill="#404040">
                        <set attributeName="fill" to="#808080" begin="arrowRight.mouseover" end="arrowRight.mouseout"/>
                  </use>
                  <path fill="none" stroke="white" stroke-width="1.5" d="M0,-3.0v7 M-2.5,-0.5L0,-3.0L2.5,-0.5"/>
                </g>
                <g id="arrowDown" xlink:href="#dirArrow" transform="rotate(180) translate(-30 -48)" onmousedown="handlePan(0,1)">
                  <use xlink:href="#rim" fill="#404040">
                        <set attributeName="fill" to="#808080" begin="arrowDown.mouseover" end="arrowDown.mouseout"/>
                  </use>
                  <path fill="none" stroke="white" stroke-width="1.5" d="M0,-3.0v7 M-2.5,-0.5L0,-3.0L2.5,-0.5"/>
                </g>
                <g id="arrowLeft" xlink:href="#dirArrow" transform="rotate(270) translate(-36 17)" onmousedown="handlePan(-1,0)">
                  <use xlink:href="#rim" fill="#404040">
                        <set attributeName="fill" to="#808080" begin="arrowLeft.mouseover" end="arrowLeft.mouseout"/>
                  </use>
                  <path fill="none" stroke="white" stroke-width="1.5" d="M0,-3.0v7 M-2.5,-0.5L0,-3.0L2.5,-0.5"/>
                </g>
        </g>
        <svg viewBox="0 0 15 15" width="100%" height="30px" preserveAspectRatio="xMaxYMin meet">
         <g id="arrow_out" transform="scale(0.3 0.3)">
          <a xlink:href="_a_b_l_field_init_8cpp__incl_org.svg" target="_base">
           <rect id="button" ry="5" rx="5" y="6" x="6" height="38" width="38"
                fill="#f2f5e9" fill-opacity="0.5" stroke="#606060" stroke-width="1.0"/>
           <path id="arrow"
             d="M 11.500037,31.436501 C 11.940474,20.09759 22.043105,11.32322 32.158766,21.979434 L 37.068811,17.246167 C 37.068811,17.246167 37.088388,32 37.088388,32 L 22.160133,31.978069 C 22.160133,31.978069 26.997745,27.140456 26.997745,27.140456 C 18.528582,18.264221 13.291696,25.230495 11.500037,31.436501 z"
             style="fill:#404040;"/>
          </a>
         </g>
        </svg>
</svg>
