<?xml version="1.0" encoding="UTF-8" standalone="no"?>
<!DOCTYPE svg PUBLIC "-//W3C//DTD SVG 1.1//EN"
 "http://www.w3.org/Graphics/SVG/1.1/DTD/svg11.dtd">
<!-- Generated by graphviz version 2.40.1 (20161225.0304)
 -->
<!-- Title: ABLFieldInit.H Pages: 1 -->
<svg width="740pt" height="151pt"
 viewBox="0.00 0.00 739.50 151.00" xmlns="http://www.w3.org/2000/svg" xmlns:xlink="http://www.w3.org/1999/xlink">
<g id="graph0" class="graph" transform="scale(1 1) rotate(0) translate(4 147)">
<title>ABLFieldInit.H</title>
<polygon fill="#ffffff" stroke="transparent" points="-4,4 -4,-147 735.5,-147 735.5,4 -4,4"/>
<!-- Node18 -->
<g id="node1" class="node">
<title>Node18</title>
<polygon fill="#bfbfbf" stroke="#000000" points="564.5,-123.5 564.5,-142.5 648.5,-142.5 648.5,-123.5 564.5,-123.5"/>
<text text-anchor="middle" x="606.5" y="-130.5" font-family="Helvetica,sans-Serif" font-size="10.00" fill="#000000">ABLFieldInit.H</text>
</g>
<!-- Node19 -->
<g id="node2" class="node">
<title>Node19</title>
<g id="a_node2"><a xlink:href="_a_b_l_8_h.html" target="_top" xlink:title="ABL.H">
<polygon fill="#ffffff" stroke="#000000" points="435.5,-67.5 435.5,-86.5 481.5,-86.5 481.5,-67.5 435.5,-67.5"/>
<text text-anchor="middle" x="458.5" y="-74.5" font-family="Helvetica,sans-Serif" font-size="10.00" fill="#000000">ABL.H</text>
</a>
</g>
</g>
<!-- Node18&#45;&gt;Node19 -->
<g id="edge1" class="edge">
<title>Node18&#45;&gt;Node19</title>
<path fill="none" stroke="#191970" d="M571.3431,-119.6974C543.6057,-109.2021 505.7069,-94.8621 481.6644,-85.7649"/>
<polygon fill="#191970" stroke="#191970" points="570.4664,-123.1078 581.0579,-123.3733 572.9437,-116.5608 570.4664,-123.1078"/>
</g>
<!-- Node25 -->
<g id="node8" class="node">
<title>Node25</title>
<g id="a_node8"><a xlink:href="_a_b_l_8cpp.html" target="_top" xlink:title="ABL.cpp">
<polygon fill="#ffffff" stroke="#000000" points="675.5,-6 675.5,-25 731.5,-25 731.5,-6 675.5,-6"/>
<text text-anchor="middle" x="703.5" y="-13" font-family="Helvetica,sans-Serif" font-size="10.00" fill="#000000">ABL.cpp</text>
</a>
</g>
</g>
<!-- Node18&#45;&gt;Node25 -->
<g id="edge9" class="edge">
<title>Node18&#45;&gt;Node25</title>
<path fill="none" stroke="#191970" d="M608.5568,-113.0482C610.8282,-99.0487 615.5825,-80.4949 625.5,-67 639.6259,-47.7786 663.2478,-33.6509 680.8025,-25.1048"/>
<polygon fill="#191970" stroke="#191970" points="605.0669,-112.741 607.2163,-123.1155 612.0056,-113.665 605.0669,-112.741"/>
</g>
<!-- Node27 -->
<g id="node10" class="node">
<title>Node27</title>
<g id="a_node10"><a xlink:href="_a_b_l_field_init_8cpp.html" target="_top" xlink:title="ABLFieldInit.cpp">
<polygon fill="#ffffff" stroke="#000000" points="634.5,-67.5 634.5,-86.5 728.5,-86.5 728.5,-67.5 634.5,-67.5"/>
<text text-anchor="middle" x="681.5" y="-74.5" font-family="Helvetica,sans-Serif" font-size="10.00" fill="#000000">ABLFieldInit.cpp</text>
</a>
</g>
</g>
<!-- Node18&#45;&gt;Node27 -->
<g id="edge10" class="edge">
<title>Node18&#45;&gt;Node27</title>
<path fill="none" stroke="#191970" d="M627.6477,-117.2097C640.8201,-107.3743 657.34,-95.0394 668.5857,-86.6427"/>
<polygon fill="#191970" stroke="#191970" points="625.4828,-114.4581 619.564,-123.2455 629.6709,-120.0671 625.4828,-114.4581"/>
</g>
<!-- Node20 -->
<g id="node3" class="node">
<title>Node20</title>
<g id="a_node3"><a xlink:href="incflo__set__velocity__bcs_8cpp.html" target="_top" xlink:title="incflo_set_velocity\l_bcs.cpp">
<polygon fill="#ffffff" stroke="#000000" points="0,-.5 0,-30.5 107,-30.5 107,-.5 0,-.5"/>
<text text-anchor="start" x="8" y="-18.5" font-family="Helvetica,sans-Serif" font-size="10.00" fill="#000000">incflo_set_velocity</text>
<text text-anchor="middle" x="53.5" y="-7.5" font-family="Helvetica,sans-Serif" font-size="10.00" fill="#000000">_bcs.cpp</text>
</a>
</g>
</g>
<!-- Node19&#45;&gt;Node20 -->
<g id="edge2" class="edge">
<title>Node19&#45;&gt;Node20</title>
<path fill="none" stroke="#191970" d="M425.2189,-73.7853C363.7112,-67.5678 228.2273,-52.58 115.5,-31 112.7757,-30.4785 109.9922,-29.911 107.187,-29.3115"/>
<polygon fill="#191970" stroke="#191970" points="425.1786,-77.2986 435.477,-74.8099 425.8744,-70.3332 425.1786,-77.2986"/>
</g>
<!-- Node21 -->
<g id="node4" class="node">
<title>Node21</title>
<g id="a_node4"><a xlink:href="_a_b_l_forcing_8cpp.html" target="_top" xlink:title="ABLForcing.cpp">
<polygon fill="#ffffff" stroke="#000000" points="125,-6 125,-25 216,-25 216,-6 125,-6"/>
<text text-anchor="middle" x="170.5" y="-13" font-family="Helvetica,sans-Serif" font-size="10.00" fill="#000000">ABLForcing.cpp</text>
</a>
</g>
</g>
<!-- Node19&#45;&gt;Node21 -->
<g id="edge3" class="edge">
<title>Node19&#45;&gt;Node21</title>
<path fill="none" stroke="#191970" d="M425.548,-71.438C380.0739,-63.5546 295.6299,-48.1667 224.5,-31 217.1994,-29.238 209.4052,-27.1337 202.0748,-25.0524"/>
<polygon fill="#191970" stroke="#191970" points="424.9917,-74.8936 435.4405,-73.1409 426.1793,-67.9951 424.9917,-74.8936"/>
</g>
<!-- Node22 -->
<g id="node5" class="node">
<title>Node22</title>
<g id="a_node5"><a xlink:href="_a_b_l_mean_boussinesq_8cpp.html" target="_top" xlink:title="ABLMeanBoussinesq.cpp">
<polygon fill="#ffffff" stroke="#000000" points="234,-6 234,-25 371,-25 371,-6 234,-6"/>
<text text-anchor="middle" x="302.5" y="-13" font-family="Helvetica,sans-Serif" font-size="10.00" fill="#000000">ABLMeanBoussinesq.cpp</text>
</a>
</g>
</g>
<!-- Node19&#45;&gt;Node22 -->
<g id="edge4" class="edge">
<title>Node19&#45;&gt;Node22</title>
<path fill="none" stroke="#191970" d="M425.9963,-64.186C396.3781,-52.5097 353.3042,-35.5286 326.6398,-25.0166"/>
<polygon fill="#191970" stroke="#191970" points="424.8948,-67.5139 435.4817,-67.9255 427.4622,-61.0017 424.8948,-67.5139"/>
</g>
<!-- Node23 -->
<g id="node6" class="node">
<title>Node23</title>
<g id="a_node6"><a xlink:href="incflo_8cpp.html" target="_top" xlink:title="incflo.cpp">
<polygon fill="#ffffff" stroke="#000000" points="389,-6 389,-25 452,-25 452,-6 389,-6"/>
<text text-anchor="middle" x="420.5" y="-13" font-family="Helvetica,sans-Serif" font-size="10.00" fill="#000000">incflo.cpp</text>
</a>
</g>
</g>
<!-- Node19&#45;&gt;Node23 -->
<g id="edge5" class="edge">
<title>Node19&#45;&gt;Node23</title>
<path fill="none" stroke="#191970" d="M447.1221,-58.5857C440.3539,-47.632 432.0389,-34.1748 426.5212,-25.2449"/>
<polygon fill="#191970" stroke="#191970" points="444.3286,-60.7233 452.5625,-67.3906 450.2835,-57.0438 444.3286,-60.7233"/>
</g>
<!-- Node24 -->
<g id="node7" class="node">
<title>Node24</title>
<g id="a_node7"><a xlink:href="init_8cpp.html" target="_top" xlink:title="init.cpp">
<polygon fill="#ffffff" stroke="#000000" points="470,-6 470,-25 523,-25 523,-6 470,-6"/>
<text text-anchor="middle" x="496.5" y="-13" font-family="Helvetica,sans-Serif" font-size="10.00" fill="#000000">init.cpp</text>
</a>
</g>
</g>
<!-- Node19&#45;&gt;Node24 -->
<g id="edge6" class="edge">
<title>Node19&#45;&gt;Node24</title>
<path fill="none" stroke="#191970" d="M469.8779,-58.5857C476.6461,-47.632 484.9611,-34.1748 490.4788,-25.2449"/>
<polygon fill="#191970" stroke="#191970" points="466.7165,-57.0438 464.4375,-67.3906 472.6714,-60.7233 466.7165,-57.0438"/>
</g>
<!-- Node19&#45;&gt;Node25 -->
<g id="edge7" class="edge">
<title>Node19&#45;&gt;Node25</title>
<path fill="none" stroke="#191970" d="M491.7169,-71.5501C533.1833,-64.3162 606.019,-50.1858 666.5,-31 671.8108,-29.3153 677.4156,-27.1699 682.6121,-25.0162"/>
<polygon fill="#191970" stroke="#191970" points="490.8939,-68.1401 481.6301,-73.2812 492.078,-75.0392 490.8939,-68.1401"/>
</g>
<!-- Node26 -->
<g id="node9" class="node">
<title>Node26</title>
<g id="a_node9"><a xlink:href="_a_b_l_wall_function_8cpp.html" target="_top" xlink:title="ABLWallFunction.cpp">
<polygon fill="#ffffff" stroke="#000000" points="541.5,-6 541.5,-25 657.5,-25 657.5,-6 541.5,-6"/>
<text text-anchor="middle" x="599.5" y="-13" font-family="Helvetica,sans-Serif" font-size="10.00" fill="#000000">ABLWallFunction.cpp</text>
</a>
</g>
</g>
<!-- Node19&#45;&gt;Node26 -->
<g id="edge8" class="edge">
<title>Node19&#45;&gt;Node26</title>
<path fill="none" stroke="#191970" d="M489.8116,-63.3428C516.4729,-51.7139 554.0931,-35.3051 577.6235,-25.0419"/>
<polygon fill="#191970" stroke="#191970" points="488.298,-60.1845 480.5313,-67.3906 491.0966,-66.6007 488.298,-60.1845"/>
</g>
</g>
</svg>
