<?xml version="1.0" encoding="UTF-8" standalone="no"?>
<!DOCTYPE svg PUBLIC "-//W3C//DTD SVG 1.1//EN"
 "http://www.w3.org/Graphics/SVG/1.1/DTD/svg11.dtd">
<!-- Generated by graphviz version 2.40.1 (20161225.0304)
 -->
<!-- Title: ABLFieldInit.H Pages: 1 -->
<svg width="1210pt" height="196pt"
 viewBox="0.00 0.00 1209.81 196.00" xmlns="http://www.w3.org/2000/svg" xmlns:xlink="http://www.w3.org/1999/xlink">
<g id="graph0" class="graph" transform="scale(1 1) rotate(0) translate(4 192)">
<title>ABLFieldInit.H</title>
<polygon fill="#ffffff" stroke="transparent" points="-4,4 -4,-192 1205.806,-192 1205.806,4 -4,4"/>
<!-- Node0 -->
<g id="node1" class="node">
<title>Node0</title>
<polygon fill="#bfbfbf" stroke="#000000" points="710.306,-168.5 710.306,-187.5 794.306,-187.5 794.306,-168.5 710.306,-168.5"/>
<text text-anchor="middle" x="752.306" y="-175.5" font-family="Helvetica,sans-Serif" font-size="10.00" fill="#000000">ABLFieldInit.H</text>
</g>
<!-- Node1 -->
<g id="node2" class="node">
<title>Node1</title>
<g id="a_node2"><a xlink:href="_field_8_h.html" target="_top" xlink:title="amr&#45;wind/core/Field.H">
<polygon fill="#ffffff" stroke="#000000" points="472.306,-112.5 472.306,-131.5 594.306,-131.5 594.306,-112.5 472.306,-112.5"/>
<text text-anchor="middle" x="533.306" y="-119.5" font-family="Helvetica,sans-Serif" font-size="10.00" fill="#000000">amr&#45;wind/core/Field.H</text>
</a>
</g>
</g>
<!-- Node0&#45;&gt;Node1 -->
<g id="edge1" class="edge">
<title>Node0&#45;&gt;Node1</title>
<path fill="none" stroke="#191970" d="M714.6586,-168.3733C677.454,-158.8598 620.4357,-144.2797 580.2844,-134.0127"/>
<polygon fill="#191970" stroke="#191970" points="581.0176,-130.5877 570.4622,-131.5011 579.2834,-137.3695 581.0176,-130.5877"/>
</g>
<!-- Node8 -->
<g id="node9" class="node">
<title>Node8</title>
<polygon fill="#ffffff" stroke="#bfbfbf" points="838.306,-56.5 838.306,-75.5 924.306,-75.5 924.306,-56.5 838.306,-56.5"/>
<text text-anchor="middle" x="881.306" y="-63.5" font-family="Helvetica,sans-Serif" font-size="10.00" fill="#000000">AMReX_Gpu.H</text>
</g>
<!-- Node0&#45;&gt;Node8 -->
<g id="edge22" class="edge">
<title>Node0&#45;&gt;Node8</title>
<path fill="none" stroke="#191970" d="M710.1501,-169.2796C670.1056,-159.0936 619.1895,-139.99 642.306,-112 642.306,-112 757.8478,-89.7618 828.2595,-76.2098"/>
<polygon fill="#191970" stroke="#191970" points="829.1433,-79.604 838.3016,-74.277 827.8203,-72.7302 829.1433,-79.604"/>
</g>
<!-- Node12 -->
<g id="node13" class="node">
<title>Node12</title>
<polygon fill="#ffffff" stroke="#bfbfbf" points="95.306,-.5 95.306,-19.5 191.306,-19.5 191.306,-.5 95.306,-.5"/>
<text text-anchor="middle" x="143.306" y="-7.5" font-family="Helvetica,sans-Serif" font-size="10.00" fill="#000000">AMReX_Vector.H</text>
</g>
<!-- Node0&#45;&gt;Node12 -->
<g id="edge21" class="edge">
<title>Node0&#45;&gt;Node12</title>
<path fill="none" stroke="#191970" d="M710.2505,-175.4191C559.6908,-165.7577 53.9984,-129.5207 7.306,-76 -19.5935,-45.1666 36.7157,-27.4097 84.8587,-18.2379"/>
<polygon fill="#191970" stroke="#191970" points="85.757,-21.6323 94.975,-16.4094 84.5119,-14.7439 85.757,-21.6323"/>
</g>
<!-- Node13 -->
<g id="node14" class="node">
<title>Node13</title>
<polygon fill="#ffffff" stroke="#bfbfbf" points="650.806,-112.5 650.806,-131.5 741.806,-131.5 741.806,-112.5 650.806,-112.5"/>
<text text-anchor="middle" x="696.306" y="-119.5" font-family="Helvetica,sans-Serif" font-size="10.00" fill="#000000">AMReX_Array.H</text>
</g>
<!-- Node0&#45;&gt;Node13 -->
<g id="edge16" class="edge">
<title>Node0&#45;&gt;Node13</title>
<path fill="none" stroke="#191970" d="M742.5516,-168.2455C734.4412,-160.1352 722.7135,-148.4075 713.0979,-138.7919"/>
<polygon fill="#191970" stroke="#191970" points="715.4947,-136.2389 705.9487,-131.6427 710.5449,-141.1887 715.4947,-136.2389"/>
</g>
<!-- Node14 -->
<g id="node15" class="node">
<title>Node14</title>
<polygon fill="#ffffff" stroke="#bfbfbf" points="760.306,-112.5 760.306,-131.5 858.306,-131.5 858.306,-112.5 760.306,-112.5"/>
<text text-anchor="middle" x="809.306" y="-119.5" font-family="Helvetica,sans-Serif" font-size="10.00" fill="#000000">AMReX_Array4.H</text>
</g>
<!-- Node0&#45;&gt;Node14 -->
<g id="edge17" class="edge">
<title>Node0&#45;&gt;Node14</title>
<path fill="none" stroke="#191970" d="M762.2347,-168.2455C770.4898,-160.1352 782.4269,-148.4075 792.2142,-138.7919"/>
<polygon fill="#191970" stroke="#191970" points="794.8106,-141.1476 799.4911,-131.6427 789.9049,-136.1542 794.8106,-141.1476"/>
</g>
<!-- Node15 -->
<g id="node16" class="node">
<title>Node15</title>
<polygon fill="#ffffff" stroke="#bfbfbf" points="876.806,-112.5 876.806,-131.5 961.806,-131.5 961.806,-112.5 876.806,-112.5"/>
<text text-anchor="middle" x="919.306" y="-119.5" font-family="Helvetica,sans-Serif" font-size="10.00" fill="#000000">AMReX_Box.H</text>
</g>
<!-- Node0&#45;&gt;Node15 -->
<g id="edge18" class="edge">
<title>Node0&#45;&gt;Node15</title>
<path fill="none" stroke="#191970" d="M781.0143,-168.3733C808.6637,-159.1016 850.6636,-145.0178 881.1226,-134.804"/>
<polygon fill="#191970" stroke="#191970" points="882.6039,-137.9989 890.9723,-131.5011 880.3784,-131.3621 882.6039,-137.9989"/>
</g>
<!-- Node16 -->
<g id="node17" class="node">
<title>Node16</title>
<polygon fill="#ffffff" stroke="#bfbfbf" points="979.806,-112.5 979.806,-131.5 1092.806,-131.5 1092.806,-112.5 979.806,-112.5"/>
<text text-anchor="middle" x="1036.306" y="-119.5" font-family="Helvetica,sans-Serif" font-size="10.00" fill="#000000">AMReX_Geometry.H</text>
</g>
<!-- Node0&#45;&gt;Node16 -->
<g id="edge19" class="edge">
<title>Node0&#45;&gt;Node16</title>
<path fill="none" stroke="#191970" d="M794.517,-169.6767C843.1023,-160.0965 923.2024,-144.3021 977.7859,-133.5392"/>
<polygon fill="#191970" stroke="#191970" points="978.5336,-136.9592 987.6675,-131.5907 977.1793,-130.0915 978.5336,-136.9592"/>
</g>
<!-- Node17 -->
<g id="node18" class="node">
<title>Node17</title>
<polygon fill="#ffffff" stroke="#bfbfbf" points="1110.806,-112.5 1110.806,-131.5 1201.806,-131.5 1201.806,-112.5 1110.806,-112.5"/>
<text text-anchor="middle" x="1156.306" y="-119.5" font-family="Helvetica,sans-Serif" font-size="10.00" fill="#000000">AMReX_REAL.H</text>
</g>
<!-- Node0&#45;&gt;Node17 -->
<g id="edge20" class="edge">
<title>Node0&#45;&gt;Node17</title>
<path fill="none" stroke="#191970" d="M794.4317,-173.1868C858.4134,-165.7181 984.1477,-150.4226 1100.5202,-132.2236"/>
<polygon fill="#191970" stroke="#191970" points="1101.3362,-135.6383 1110.6698,-130.625 1100.2471,-128.7235 1101.3362,-135.6383"/>
</g>
<!-- Node2 -->
<g id="node3" class="node">
<title>Node2</title>
<polygon fill="#ffffff" stroke="#bfbfbf" points="362.306,-.5 362.306,-19.5 406.306,-19.5 406.306,-.5 362.306,-.5"/>
<text text-anchor="middle" x="384.306" y="-7.5" font-family="Helvetica,sans-Serif" font-size="10.00" fill="#000000">string</text>
</g>
<!-- Node1&#45;&gt;Node2 -->
<g id="edge2" class="edge">
<title>Node1&#45;&gt;Node2</title>
<path fill="none" stroke="#191970" d="M472.1267,-113.6108C447.0294,-107.2064 419.6272,-95.9132 401.306,-76 389.9273,-63.6326 385.9418,-44.6726 384.6484,-30.2421"/>
<polygon fill="#191970" stroke="#191970" points="388.1222,-29.6537 384.0984,-19.8527 381.132,-30.0238 388.1222,-29.6537"/>
</g>
<!-- Node3 -->
<g id="node4" class="node">
<title>Node3</title>
<polygon fill="#ffffff" stroke="#bfbfbf" points="650.306,-56.5 650.306,-75.5 708.306,-75.5 708.306,-56.5 650.306,-56.5"/>
<text text-anchor="middle" x="679.306" y="-63.5" font-family="Helvetica,sans-Serif" font-size="10.00" fill="#000000">memory</text>
</g>
<!-- Node1&#45;&gt;Node3 -->
<g id="edge3" class="edge">
<title>Node1&#45;&gt;Node3</title>
<path fill="none" stroke="#191970" d="M558.4043,-112.3733C582.2615,-103.2226 618.3395,-89.3844 644.877,-79.2057"/>
<polygon fill="#191970" stroke="#191970" points="646.4519,-82.3503 654.5352,-75.5011 643.945,-75.8145 646.4519,-82.3503"/>
</g>
<!-- Node4 -->
<g id="node5" class="node">
<title>Node4</title>
<polygon fill="#ffffff" stroke="#bfbfbf" points="726.806,-56.5 726.806,-75.5 819.806,-75.5 819.806,-56.5 726.806,-56.5"/>
<text text-anchor="middle" x="773.306" y="-63.5" font-family="Helvetica,sans-Serif" font-size="10.00" fill="#000000">unordered_map</text>
</g>
<!-- Node1&#45;&gt;Node4 -->
<g id="edge4" class="edge">
<title>Node1&#45;&gt;Node4</title>
<path fill="none" stroke="#191970" d="M574.2908,-112.4369C615.2786,-102.8731 678.4065,-88.1432 722.5417,-77.845"/>
<polygon fill="#191970" stroke="#191970" points="723.5472,-81.2045 732.4903,-75.5237 721.9565,-74.3876 723.5472,-81.2045"/>
</g>
<!-- Node5 -->
<g id="node6" class="node">
<title>Node5</title>
<polygon fill="#ffffff" stroke="#bfbfbf" points="16.306,-56.5 16.306,-75.5 80.306,-75.5 80.306,-56.5 16.306,-56.5"/>
<text text-anchor="middle" x="48.306" y="-63.5" font-family="Helvetica,sans-Serif" font-size="10.00" fill="#000000">algorithm</text>
</g>
<!-- Node1&#45;&gt;Node5 -->
<g id="edge5" class="edge">
<title>Node1&#45;&gt;Node5</title>
<path fill="none" stroke="#191970" d="M472.2616,-118.313C388.3516,-112.6615 232.5599,-100.08 90.6412,-76.0289"/>
<polygon fill="#191970" stroke="#191970" points="90.8966,-72.5215 80.4482,-74.2773 89.711,-79.4204 90.8966,-72.5215"/>
</g>
<!-- Node6 -->
<g id="node7" class="node">
<title>Node6</title>
<polygon fill="#ffffff" stroke="#bfbfbf" points="427.806,-.5 427.806,-19.5 534.806,-19.5 534.806,-.5 427.806,-.5"/>
<text text-anchor="middle" x="481.306" y="-7.5" font-family="Helvetica,sans-Serif" font-size="10.00" fill="#000000">AMReX_MultiFab.H</text>
</g>
<!-- Node1&#45;&gt;Node6 -->
<g id="edge6" class="edge">
<title>Node1&#45;&gt;Node6</title>
<path fill="none" stroke="#191970" d="M544.0749,-112.3413C557.3213,-99.2463 576.7305,-75.2816 565.306,-56 556.4624,-41.0742 540.8729,-30.6736 525.5058,-23.589"/>
<polygon fill="#191970" stroke="#191970" points="526.6031,-20.2534 516.0287,-19.5956 523.8849,-26.7041 526.6031,-20.2534"/>
</g>
<!-- Node7 -->
<g id="node8" class="node">
<title>Node7</title>
<polygon fill="#ffffff" stroke="#bfbfbf" points="98.806,-56.5 98.806,-75.5 195.806,-75.5 195.806,-56.5 98.806,-56.5"/>
<text text-anchor="middle" x="147.306" y="-63.5" font-family="Helvetica,sans-Serif" font-size="10.00" fill="#000000">AMReX_BCRec.H</text>
</g>
<!-- Node1&#45;&gt;Node7 -->
<g id="edge7" class="edge">
<title>Node1&#45;&gt;Node7</title>
<path fill="none" stroke="#191970" d="M472.165,-114.0091C408.3487,-105.5367 305.1129,-91.461 205.9166,-76.0566"/>
<polygon fill="#191970" stroke="#191970" points="206.4419,-72.5963 196.022,-74.5135 205.3632,-79.5127 206.4419,-72.5963"/>
</g>
<!-- Node1&#45;&gt;Node8 -->
<g id="edge8" class="edge">
<title>Node1&#45;&gt;Node8</title>
<path fill="none" stroke="#191970" d="M594.3523,-113.1654C652.0515,-104.6672 741.2967,-91.1422 828.1664,-76.1527"/>
<polygon fill="#191970" stroke="#191970" points="828.9426,-79.5704 838.1976,-74.4133 827.7466,-72.6733 828.9426,-79.5704"/>
</g>
<!-- Node9 -->
<g id="node10" class="node">
<title>Node9</title>
<g id="a_node10"><a xlink:href="incflo__enums_8_h.html" target="_top" xlink:title="amr&#45;wind/incflo_enums.H">
<polygon fill="#ffffff" stroke="#000000" points="214.306,-56.5 214.306,-75.5 354.306,-75.5 354.306,-56.5 214.306,-56.5"/>
<text text-anchor="middle" x="284.306" y="-63.5" font-family="Helvetica,sans-Serif" font-size="10.00" fill="#000000">amr&#45;wind/incflo_enums.H</text>
</a>
</g>
</g>
<!-- Node1&#45;&gt;Node9 -->
<g id="edge9" class="edge">
<title>Node1&#45;&gt;Node9</title>
<path fill="none" stroke="#191970" d="M490.7843,-112.4369C448.1699,-102.8529 382.4884,-88.0812 336.685,-77.78"/>
<polygon fill="#191970" stroke="#191970" points="337.1766,-74.3032 326.6523,-75.5237 335.6407,-81.1326 337.1766,-74.3032"/>
</g>
<!-- Node10 -->
<g id="node11" class="node">
<title>Node10</title>
<g id="a_node11"><a xlink:href="_field_desc_types_8_h.html" target="_top" xlink:title="amr&#45;wind/core/FieldDescTypes.H">
<polygon fill="#ffffff" stroke="#000000" points="553.306,-.5 553.306,-19.5 727.306,-19.5 727.306,-.5 553.306,-.5"/>
<text text-anchor="middle" x="640.306" y="-7.5" font-family="Helvetica,sans-Serif" font-size="10.00" fill="#000000">amr&#45;wind/core/FieldDescTypes.H</text>
</a>
</g>
</g>
<!-- Node1&#45;&gt;Node10 -->
<g id="edge10" class="edge">
<title>Node1&#45;&gt;Node10</title>
<path fill="none" stroke="#191970" d="M543.5599,-112.297C553.1966,-103.1005 567.9456,-88.8243 580.306,-76 595.9689,-59.7494 613.2455,-40.6094 625.2213,-27.1376"/>
<polygon fill="#191970" stroke="#191970" points="627.923,-29.366 631.9311,-19.5586 622.6818,-24.726 627.923,-29.366"/>
</g>
<!-- Node11 -->
<g id="node12" class="node">
<title>Node11</title>
<g id="a_node12"><a xlink:href="_view_field_8_h.html" target="_top" xlink:title="amr&#45;wind/core/ViewField.H">
<polygon fill="#ffffff" stroke="#000000" points="410.306,-56.5 410.306,-75.5 556.306,-75.5 556.306,-56.5 410.306,-56.5"/>
<text text-anchor="middle" x="483.306" y="-63.5" font-family="Helvetica,sans-Serif" font-size="10.00" fill="#000000">amr&#45;wind/core/ViewField.H</text>
</a>
</g>
</g>
<!-- Node1&#45;&gt;Node11 -->
<g id="edge11" class="edge">
<title>Node1&#45;&gt;Node11</title>
<path fill="none" stroke="#191970" d="M524.5967,-112.2455C517.4987,-104.2958 507.2976,-92.8706 498.811,-83.3656"/>
<polygon fill="#191970" stroke="#191970" points="501.1865,-80.771 491.9155,-75.6427 495.9649,-85.4331 501.1865,-80.771"/>
</g>
<!-- Node11&#45;&gt;Node2 -->
<g id="edge12" class="edge">
<title>Node11&#45;&gt;Node2</title>
<path fill="none" stroke="#191970" d="M466.0615,-56.2455C450.7299,-47.5731 428.0861,-34.7645 410.5145,-24.825"/>
<polygon fill="#191970" stroke="#191970" points="411.7801,-21.5198 401.3529,-19.6427 408.3337,-27.6126 411.7801,-21.5198"/>
</g>
<!-- Node11&#45;&gt;Node6 -->
<g id="edge14" class="edge">
<title>Node11&#45;&gt;Node6</title>
<path fill="none" stroke="#191970" d="M482.9576,-56.2455C482.6967,-48.9382 482.3308,-38.6944 482.0097,-29.7046"/>
<polygon fill="#191970" stroke="#191970" points="485.5052,-29.5113 481.6504,-19.6427 478.5096,-29.7613 485.5052,-29.5113"/>
</g>
<!-- Node11&#45;&gt;Node10 -->
<g id="edge13" class="edge">
<title>Node11&#45;&gt;Node10</title>
<path fill="none" stroke="#191970" d="M510.2953,-56.3733C536.176,-47.1419 575.4308,-33.1402 604.0349,-22.9375"/>
<polygon fill="#191970" stroke="#191970" points="605.426,-26.1573 613.6689,-19.5011 603.0743,-19.5642 605.426,-26.1573"/>
</g>
<!-- Node11&#45;&gt;Node12 -->
<g id="edge15" class="edge">
<title>Node11&#45;&gt;Node12</title>
<path fill="none" stroke="#191970" d="M425.2443,-56.4369C362.8116,-46.1539 264.1194,-29.8987 201.5978,-19.601"/>
<polygon fill="#191970" stroke="#191970" points="201.9408,-16.1104 191.5049,-17.9386 200.8031,-23.0173 201.9408,-16.1104"/>
</g>
</g>
</svg>
