<?xml version="1.0" encoding="UTF-8" standalone="no"?>
<!DOCTYPE svg PUBLIC "-//W3C//DTD SVG 1.1//EN"
 "http://www.w3.org/Graphics/SVG/1.1/DTD/svg11.dtd">
<!-- Generated by graphviz version 2.40.1 (20161225.0304)
 -->
<!-- Title: ActParser.H Pages: 1 -->
<!--zoomable 252 -->
<svg id="main" version="1.1" xmlns="http://www.w3.org/2000/svg" xmlns:xlink="http://www.w3.org/1999/xlink" xml:space="preserve" onload="init(evt)">
<style type="text/css"><![CDATA[
.edge:hover path { stroke: red; }
.edge:hover polygon { stroke: red; fill: red; }
]]></style>
<script type="text/javascript"><![CDATA[
var edges = document.getElementsByTagName('g');
if (edges && edges.length) {
  for (var i=0;i<edges.length;i++) {
    if (edges[i].id.substr(0,4)=='edge') {
      edges[i].setAttribute('class','edge');
    }
  }
}
]]></script>
        <defs>
                <circle id="rim" cx="0" cy="0" r="7"/>
                <circle id="rim2" cx="0" cy="0" r="3.5"/>
                <g id="zoomPlus">
                        <use xlink:href="#rim" fill="#404040">
                                <set attributeName="fill" to="#808080" begin="zoomplus.mouseover" end="zoomplus.mouseout"/>
                        </use>
                        <path d="M-4,0h8M0,-4v8" fill="none" stroke="white" stroke-width="1.5" pointer-events="none"/>
                </g>
                <g id="zoomMin">
                        <use xlink:href="#rim" fill="#404040">
                                <set attributeName="fill" to="#808080" begin="zoomminus.mouseover" end="zoomminus.mouseout"/>
                        </use>
                        <path d="M-4,0h8" fill="none" stroke="white" stroke-width="1.5" pointer-events="none"/>
                </g>
                <g id="dirArrow">
                        <path fill="none" stroke="white" stroke-width="1.5" d="M0,-3.0v7 M-2.5,-0.5L0,-3.0L2.5,-0.5"/>
                </g>
               <g id="resetDef">
                       <use xlink:href="#rim2" fill="#404040">
                               <set attributeName="fill" to="#808080" begin="reset.mouseover" end="reset.mouseout"/>
                       </use>
               </g>
        </defs>

<script type="text/javascript">
var viewWidth = 660;
var viewHeight = 252;
var sectionId = 'dynsection-1';
</script>
<script xlink:href="svgpan.js"/>
<svg id="graph" class="graph">
<g id="viewport">
<title>ActParser.H</title>
<polygon fill="#ffffff" stroke="transparent" points="-4,4 -4,-248 656.2863,-248 656.2863,4 -4,4"/>
<!-- Node14 -->
<g id="node1" class="node">
<title>Node14</title>
<polygon fill="#bfbfbf" stroke="#000000" points="232.7863,-224.5 232.7863,-243.5 304.7863,-243.5 304.7863,-224.5 232.7863,-224.5"/>
<text text-anchor="middle" x="268.7863" y="-231.5" font-family="Helvetica,sans-Serif" font-size="10.00" fill="#000000">ActParser.H</text>
</g>
<!-- Node15 -->
<g id="node2" class="node">
<title>Node15</title>
<g id="a_node2"><a xlink:href="actuator__ops_8_h.html" target="_top" xlink:title="actuator_ops.H">
<polygon fill="#ffffff" stroke="#000000" points="325.7863,-168.5 325.7863,-187.5 415.7863,-187.5 415.7863,-168.5 325.7863,-168.5"/>
<text text-anchor="middle" x="370.7863" y="-175.5" font-family="Helvetica,sans-Serif" font-size="10.00" fill="#000000">actuator_ops.H</text>
</a>
</g>
</g>
<!-- Node14&#45;&gt;Node15 -->
<g id="edge1" class="edge">
<title>Node14&#45;&gt;Node15</title>
<path fill="none" stroke="#191970" d="M295.5202,-219.3225C313.7394,-209.3198 337.3461,-196.3593 353.2228,-187.6427"/>
<polygon fill="#191970" stroke="#191970" points="293.6347,-216.3649 286.5533,-224.2455 297.0035,-222.5009 293.6347,-216.3649"/>
</g>
<!-- Node17 -->
<g id="node4" class="node">
<title>Node17</title>
<g id="a_node4"><a xlink:href="_actuator_model_8_h.html" target="_top" xlink:title="ActuatorModel.H">
<polygon fill="#ffffff" stroke="#000000" points="219.7863,-56.5 219.7863,-75.5 317.7863,-75.5 317.7863,-56.5 219.7863,-56.5"/>
<text text-anchor="middle" x="268.7863" y="-63.5" font-family="Helvetica,sans-Serif" font-size="10.00" fill="#000000">ActuatorModel.H</text>
</a>
</g>
</g>
<!-- Node14&#45;&gt;Node17 -->
<g id="edge19" class="edge">
<title>Node14&#45;&gt;Node17</title>
<path fill="none" stroke="#191970" d="M268.7863,-214.2601C268.7863,-178.1669 268.7863,-102.7656 268.7863,-75.8279"/>
<polygon fill="#191970" stroke="#191970" points="265.2864,-214.4862 268.7863,-224.4862 272.2864,-214.4863 265.2864,-214.4862"/>
</g>
<!-- Node18 -->
<g id="node5" class="node">
<title>Node18</title>
<g id="a_node5"><a xlink:href="_actuator_8cpp.html" target="_top" xlink:title="Actuator.cpp">
<polygon fill="#ffffff" stroke="#000000" points="15.2863,-.5 15.2863,-19.5 92.2863,-19.5 92.2863,-.5 15.2863,-.5"/>
<text text-anchor="middle" x="53.7863" y="-7.5" font-family="Helvetica,sans-Serif" font-size="10.00" fill="#000000">Actuator.cpp</text>
</a>
</g>
</g>
<!-- Node14&#45;&gt;Node18 -->
<g id="edge20" class="edge">
<title>Node14&#45;&gt;Node18</title>
<path fill="none" stroke="#191970" d="M222.7186,-222.8452C154.4881,-205.2613 31.9932,-169.2487 7.7863,-132 -16.8832,-94.0396 25.0695,-40.9294 44.6043,-19.5102"/>
<polygon fill="#191970" stroke="#191970" points="222.2225,-226.3304 232.7768,-225.4052 223.9491,-219.5467 222.2225,-226.3304"/>
</g>
<!-- Node26 -->
<g id="node13" class="node">
<title>Node26</title>
<g id="a_node13"><a xlink:href="wing__ops_8cpp.html" target="_top" xlink:title="wing_ops.cpp">
<polygon fill="#ffffff" stroke="#000000" points="569.2863,-56.5 569.2863,-75.5 652.2863,-75.5 652.2863,-56.5 569.2863,-56.5"/>
<text text-anchor="middle" x="610.7863" y="-63.5" font-family="Helvetica,sans-Serif" font-size="10.00" fill="#000000">wing_ops.cpp</text>
</a>
</g>
</g>
<!-- Node14&#45;&gt;Node26 -->
<g id="edge24" class="edge">
<title>Node14&#45;&gt;Node26</title>
<path fill="none" stroke="#191970" d="M315.3737,-231.2645C383.0587,-224.8595 508.681,-203.4634 583.7863,-132 599.9301,-116.639 606.72,-90.25 609.3287,-75.9354"/>
<polygon fill="#191970" stroke="#191970" points="314.682,-227.8115 305.0248,-232.1691 315.2916,-234.7849 314.682,-227.8115"/>
</g>
<!-- Node27 -->
<g id="node14" class="node">
<title>Node27</title>
<g id="a_node14"><a xlink:href="turbine__utils_8_h.html" target="_top" xlink:title="turbine_utils.H">
<polygon fill="#ffffff" stroke="#000000" points="142.7863,-168.5 142.7863,-187.5 230.7863,-187.5 230.7863,-168.5 142.7863,-168.5"/>
<text text-anchor="middle" x="186.7863" y="-175.5" font-family="Helvetica,sans-Serif" font-size="10.00" fill="#000000">turbine_utils.H</text>
</a>
</g>
</g>
<!-- Node14&#45;&gt;Node27 -->
<g id="edge21" class="edge">
<title>Node14&#45;&gt;Node27</title>
<path fill="none" stroke="#191970" d="M246.0753,-218.49C231.6075,-208.6096 213.3183,-196.1194 200.9059,-187.6427"/>
<polygon fill="#191970" stroke="#191970" points="244.271,-221.4962 254.503,-224.2455 248.2188,-215.7156 244.271,-221.4962"/>
</g>
<!-- Node16 -->
<g id="node3" class="node">
<title>Node16</title>
<g id="a_node3"><a xlink:href="_act_src_op_8_h.html" target="_top" xlink:title="ActSrcOp.H">
<polygon fill="#ffffff" stroke="#000000" points="335.2863,-112.5 335.2863,-131.5 406.2863,-131.5 406.2863,-112.5 335.2863,-112.5"/>
<text text-anchor="middle" x="370.7863" y="-119.5" font-family="Helvetica,sans-Serif" font-size="10.00" fill="#000000">ActSrcOp.H</text>
</a>
</g>
</g>
<!-- Node15&#45;&gt;Node16 -->
<g id="edge2" class="edge">
<title>Node15&#45;&gt;Node16</title>
<path fill="none" stroke="#191970" d="M370.7863,-158.1575C370.7863,-149.155 370.7863,-138.9199 370.7863,-131.6427"/>
<polygon fill="#191970" stroke="#191970" points="367.2864,-158.2455 370.7863,-168.2455 374.2864,-158.2456 367.2864,-158.2455"/>
</g>
<!-- Node15&#45;&gt;Node17 -->
<g id="edge8" class="edge">
<title>Node15&#45;&gt;Node17</title>
<path fill="none" stroke="#191970" d="M354.1973,-161.0011C345.8809,-152.3925 335.7066,-141.7288 326.7863,-132 308.6424,-112.2118 288.0323,-88.4371 276.9228,-75.5103"/>
<polygon fill="#191970" stroke="#191970" points="351.7481,-163.5029 361.2233,-168.2433 356.7723,-158.6288 351.7481,-163.5029"/>
</g>
<!-- Node22 -->
<g id="node9" class="node">
<title>Node22</title>
<g id="a_node9"><a xlink:href="turbine__fast__ops_8_h.html" target="_top" xlink:title="turbine_fast_ops.H">
<polygon fill="#ffffff" stroke="#000000" points="132.7863,-112.5 132.7863,-131.5 240.7863,-131.5 240.7863,-112.5 132.7863,-112.5"/>
<text text-anchor="middle" x="186.7863" y="-119.5" font-family="Helvetica,sans-Serif" font-size="10.00" fill="#000000">turbine_fast_ops.H</text>
</a>
</g>
</g>
<!-- Node15&#45;&gt;Node22 -->
<g id="edge9" class="edge">
<title>Node15&#45;&gt;Node22</title>
<path fill="none" stroke="#191970" d="M329.5705,-165.4561C295.7947,-155.1765 248.7199,-140.8494 218.0042,-131.5011"/>
<polygon fill="#191970" stroke="#191970" points="328.5697,-168.8099 339.1555,-168.3733 330.6079,-162.1132 328.5697,-168.8099"/>
</g>
<!-- Node23 -->
<g id="node10" class="node">
<title>Node23</title>
<g id="a_node10"><a xlink:href="fixed__wing__ops_8_h.html" target="_top" xlink:title="fixed_wing_ops.H">
<polygon fill="#ffffff" stroke="#000000" points="335.7863,-56.5 335.7863,-75.5 437.7863,-75.5 437.7863,-56.5 335.7863,-56.5"/>
<text text-anchor="middle" x="386.7863" y="-63.5" font-family="Helvetica,sans-Serif" font-size="10.00" fill="#000000">fixed_wing_ops.H</text>
</a>
</g>
</g>
<!-- Node15&#45;&gt;Node23 -->
<g id="edge11" class="edge">
<title>Node15&#45;&gt;Node23</title>
<path fill="none" stroke="#191970" d="M393.0501,-161.6617C401.8935,-153.7992 411.0707,-143.5637 415.7863,-132 424.0094,-111.835 407.6569,-88.5914 396.3374,-75.77"/>
<polygon fill="#191970" stroke="#191970" points="390.6366,-159.1158 385.16,-168.1853 395.0971,-164.5106 390.6366,-159.1158"/>
</g>
<!-- Node24 -->
<g id="node11" class="node">
<title>Node24</title>
<g id="a_node11"><a xlink:href="wing__ops_8_h.html" target="_top" xlink:title="wing_ops.H">
<polygon fill="#ffffff" stroke="#000000" points="501.2863,-112.5 501.2863,-131.5 574.2863,-131.5 574.2863,-112.5 501.2863,-112.5"/>
<text text-anchor="middle" x="537.7863" y="-119.5" font-family="Helvetica,sans-Serif" font-size="10.00" fill="#000000">wing_ops.H</text>
</a>
</g>
</g>
<!-- Node15&#45;&gt;Node24 -->
<g id="edge13" class="edge">
<title>Node15&#45;&gt;Node24</title>
<path fill="none" stroke="#191970" d="M408.9861,-165.1905C439.5817,-154.9309 481.814,-140.7691 509.4526,-131.5011"/>
<polygon fill="#191970" stroke="#191970" points="407.863,-161.8755 399.4946,-168.3733 410.0885,-168.5123 407.863,-161.8755"/>
</g>
<!-- Node25 -->
<g id="node12" class="node">
<title>Node25</title>
<g id="a_node12"><a xlink:href="flat__plate__ops_8_h.html" target="_top" xlink:title="flat_plate_ops.H">
<polygon fill="#ffffff" stroke="#000000" points="456.2863,-56.5 456.2863,-75.5 551.2863,-75.5 551.2863,-56.5 456.2863,-56.5"/>
<text text-anchor="middle" x="503.7863" y="-63.5" font-family="Helvetica,sans-Serif" font-size="10.00" fill="#000000">flat_plate_ops.H</text>
</a>
</g>
</g>
<!-- Node15&#45;&gt;Node25 -->
<g id="edge18" class="edge">
<title>Node15&#45;&gt;Node25</title>
<path fill="none" stroke="#191970" d="M392.1303,-162.2971C403.7403,-153.5917 418.2496,-142.4439 430.7863,-132 453.89,-112.753 479.73,-88.7753 493.6238,-75.6688"/>
<polygon fill="#191970" stroke="#191970" points="389.829,-159.6469 383.8979,-168.426 394.0092,-165.2617 389.829,-159.6469"/>
</g>
<!-- Node16&#45;&gt;Node17 -->
<g id="edge3" class="edge">
<title>Node16&#45;&gt;Node17</title>
<path fill="none" stroke="#191970" d="M344.0523,-107.3225C325.8331,-97.3198 302.2265,-84.3593 286.3497,-75.6427"/>
<polygon fill="#191970" stroke="#191970" points="342.569,-110.5009 353.0192,-112.2455 345.9378,-104.3649 342.569,-110.5009"/>
</g>
<!-- Node17&#45;&gt;Node18 -->
<g id="edge4" class="edge">
<title>Node17&#45;&gt;Node18</title>
<path fill="none" stroke="#191970" d="M222.1432,-53.8511C182.5799,-43.5462 126.6165,-28.9697 90.2638,-19.5011"/>
<polygon fill="#191970" stroke="#191970" points="221.2671,-57.2396 231.8264,-56.3733 223.0315,-50.4656 221.2671,-57.2396"/>
</g>
<!-- Node19 -->
<g id="node6" class="node">
<title>Node19</title>
<g id="a_node6"><a xlink:href="_turbine_fast_8cpp.html" target="_top" xlink:title="TurbineFast.cpp">
<polygon fill="#ffffff" stroke="#000000" points="157.7863,-.5 157.7863,-19.5 249.7863,-19.5 249.7863,-.5 157.7863,-.5"/>
<text text-anchor="middle" x="203.7863" y="-7.5" font-family="Helvetica,sans-Serif" font-size="10.00" fill="#000000">TurbineFast.cpp</text>
</a>
</g>
</g>
<!-- Node17&#45;&gt;Node19 -->
<g id="edge5" class="edge">
<title>Node17&#45;&gt;Node19</title>
<path fill="none" stroke="#191970" d="M249.8028,-49.645C238.4984,-39.9058 224.5393,-27.8795 214.9787,-19.6427"/>
<polygon fill="#191970" stroke="#191970" points="247.6035,-52.3701 257.4641,-56.2455 252.1725,-47.0668 247.6035,-52.3701"/>
</g>
<!-- Node20 -->
<g id="node7" class="node">
<title>Node20</title>
<g id="a_node7"><a xlink:href="_fixed_wing_8cpp.html" target="_top" xlink:title="FixedWing.cpp">
<polygon fill="#ffffff" stroke="#000000" points="314.2863,-.5 314.2863,-19.5 401.2863,-19.5 401.2863,-.5 314.2863,-.5"/>
<text text-anchor="middle" x="357.7863" y="-7.5" font-family="Helvetica,sans-Serif" font-size="10.00" fill="#000000">FixedWing.cpp</text>
</a>
</g>
</g>
<!-- Node17&#45;&gt;Node20 -->
<g id="edge6" class="edge">
<title>Node17&#45;&gt;Node20</title>
<path fill="none" stroke="#191970" d="M292.9927,-50.769C308.7637,-40.8456 328.8622,-28.1994 342.4613,-19.6427"/>
<polygon fill="#191970" stroke="#191970" points="290.8888,-47.9575 284.2889,-56.2455 294.6168,-53.8823 290.8888,-47.9575"/>
</g>
<!-- Node21 -->
<g id="node8" class="node">
<title>Node21</title>
<g id="a_node8"><a xlink:href="_flat_plate_8cpp.html" target="_top" xlink:title="FlatPlate.cpp">
<polygon fill="#ffffff" stroke="#000000" points="449.7863,-.5 449.7863,-19.5 529.7863,-19.5 529.7863,-.5 449.7863,-.5"/>
<text text-anchor="middle" x="489.7863" y="-7.5" font-family="Helvetica,sans-Serif" font-size="10.00" fill="#000000">FlatPlate.cpp</text>
</a>
</g>
</g>
<!-- Node17&#45;&gt;Node21 -->
<g id="edge7" class="edge">
<title>Node17&#45;&gt;Node21</title>
<path fill="none" stroke="#191970" d="M316.4726,-53.9166C357.1222,-43.6162 414.753,-29.013 452.2018,-19.5237"/>
<polygon fill="#191970" stroke="#191970" points="315.3603,-50.5877 306.5264,-56.4369 317.0798,-57.3733 315.3603,-50.5877"/>
</g>
<!-- Node22&#45;&gt;Node19 -->
<g id="edge10" class="edge">
<title>Node22&#45;&gt;Node19</title>
<path fill="none" stroke="#191970" d="M189.781,-102.2702C193.4651,-77.9985 199.5708,-37.7725 202.3405,-19.5249"/>
<polygon fill="#191970" stroke="#191970" points="186.2761,-102.0389 188.2357,-112.4509 193.1968,-103.0894 186.2761,-102.0389"/>
</g>
<!-- Node23&#45;&gt;Node20 -->
<g id="edge12" class="edge">
<title>Node23&#45;&gt;Node20</title>
<path fill="none" stroke="#191970" d="M377.1216,-47.3372C372.3176,-38.0605 366.714,-27.2398 362.7798,-19.6427"/>
<polygon fill="#191970" stroke="#191970" points="374.0283,-48.9751 381.7348,-56.2455 380.2442,-45.7561 374.0283,-48.9751"/>
</g>
<!-- Node24&#45;&gt;Node23 -->
<g id="edge14" class="edge">
<title>Node24&#45;&gt;Node23</title>
<path fill="none" stroke="#191970" d="M502.1632,-108.7888C474.5924,-98.5639 437.0713,-84.6488 412.4054,-75.5011"/>
<polygon fill="#191970" stroke="#191970" points="501.2354,-112.1776 511.8284,-112.3733 503.6695,-105.6144 501.2354,-112.1776"/>
</g>
<!-- Node24&#45;&gt;Node25 -->
<g id="edge15" class="edge">
<title>Node24&#45;&gt;Node25</title>
<path fill="none" stroke="#191970" d="M526.6328,-103.6296C520.9615,-94.2887 514.3018,-83.3197 509.6407,-75.6427"/>
<polygon fill="#191970" stroke="#191970" points="523.6823,-105.5141 531.8639,-112.2455 529.6658,-101.8812 523.6823,-105.5141"/>
</g>
<!-- Node24&#45;&gt;Node26 -->
<g id="edge17" class="edge">
<title>Node24&#45;&gt;Node26</title>
<path fill="none" stroke="#191970" d="M558.7372,-105.928C571.497,-96.1397 587.3748,-83.9595 598.2163,-75.6427"/>
<polygon fill="#191970" stroke="#191970" points="556.3059,-103.3819 550.5019,-112.2455 560.5665,-108.9359 556.3059,-103.3819"/>
</g>
<!-- Node25&#45;&gt;Node21 -->
<g id="edge16" class="edge">
<title>Node25&#45;&gt;Node21</title>
<path fill="none" stroke="#191970" d="M498.8997,-46.4538C496.6313,-37.3803 494.0362,-26.9998 492.1969,-19.6427"/>
<polygon fill="#191970" stroke="#191970" points="495.5267,-47.393 501.3476,-56.2455 502.3177,-45.6952 495.5267,-47.393"/>
</g>
<!-- Node27&#45;&gt;Node22 -->
<g id="edge22" class="edge">
<title>Node27&#45;&gt;Node22</title>
<path fill="none" stroke="#191970" d="M186.7863,-158.1575C186.7863,-149.155 186.7863,-138.9199 186.7863,-131.6427"/>
<polygon fill="#191970" stroke="#191970" points="183.2864,-158.2455 186.7863,-168.2455 190.2864,-158.2456 183.2864,-158.2455"/>
</g>
<!-- Node28 -->
<g id="node15" class="node">
<title>Node28</title>
<g id="a_node15"><a xlink:href="turbine__utils_8cpp.html" target="_top" xlink:title="turbine_utils.cpp">
<polygon fill="#ffffff" stroke="#000000" points="16.7863,-112.5 16.7863,-131.5 114.7863,-131.5 114.7863,-112.5 16.7863,-112.5"/>
<text text-anchor="middle" x="65.7863" y="-119.5" font-family="Helvetica,sans-Serif" font-size="10.00" fill="#000000">turbine_utils.cpp</text>
</a>
</g>
</g>
<!-- Node27&#45;&gt;Node28 -->
<g id="edge23" class="edge">
<title>Node27&#45;&gt;Node28</title>
<path fill="none" stroke="#191970" d="M156.7758,-164.1109C134.8337,-153.9559 105.6475,-140.4482 86.3155,-131.5011"/>
<polygon fill="#191970" stroke="#191970" points="155.4404,-167.3494 165.9856,-168.3733 158.3805,-160.9968 155.4404,-167.3494"/>
</g>
</g>
</svg>
        <g id="navigator" transform="translate(0 0)" fill="#404254">
                <rect fill="#f2f5e9" fill-opacity="0.5" stroke="#606060" stroke-width=".5" x="0" y="0" width="60" height="60"/>
                <use id="zoomplus" xlink:href="#zoomPlus" x="17" y="9" onmousedown="handleZoom(evt,'in')"/>
                <use id="zoomminus" xlink:href="#zoomMin" x="42" y="9" onmousedown="handleZoom(evt,'out')"/>
                <use id="reset" xlink:href="#resetDef" x="30" y="36" onmousedown="handleReset()"/>
                <g id="arrowUp" xlink:href="#dirArrow" transform="translate(30 24)" onmousedown="handlePan(0,-1)">
                  <use xlink:href="#rim" fill="#404040">
                        <set attributeName="fill" to="#808080" begin="arrowUp.mouseover" end="arrowUp.mouseout"/>
                  </use>
                  <path fill="none" stroke="white" stroke-width="1.5" d="M0,-3.0v7 M-2.5,-0.5L0,-3.0L2.5,-0.5"/>
                </g>
                <g id="arrowRight" xlink:href="#dirArrow" transform="rotate(90) translate(36 -43)" onmousedown="handlePan(1,0)">
                  <use xlink:href="#rim" fill="#404040">
                        <set attributeName="fill" to="#808080" begin="arrowRight.mouseover" end="arrowRight.mouseout"/>
                  </use>
                  <path fill="none" stroke="white" stroke-width="1.5" d="M0,-3.0v7 M-2.5,-0.5L0,-3.0L2.5,-0.5"/>
                </g>
                <g id="arrowDown" xlink:href="#dirArrow" transform="rotate(180) translate(-30 -48)" onmousedown="handlePan(0,1)">
                  <use xlink:href="#rim" fill="#404040">
                        <set attributeName="fill" to="#808080" begin="arrowDown.mouseover" end="arrowDown.mouseout"/>
                  </use>
                  <path fill="none" stroke="white" stroke-width="1.5" d="M0,-3.0v7 M-2.5,-0.5L0,-3.0L2.5,-0.5"/>
                </g>
                <g id="arrowLeft" xlink:href="#dirArrow" transform="rotate(270) translate(-36 17)" onmousedown="handlePan(-1,0)">
                  <use xlink:href="#rim" fill="#404040">
                        <set attributeName="fill" to="#808080" begin="arrowLeft.mouseover" end="arrowLeft.mouseout"/>
                  </use>
                  <path fill="none" stroke="white" stroke-width="1.5" d="M0,-3.0v7 M-2.5,-0.5L0,-3.0L2.5,-0.5"/>
                </g>
        </g>
        <svg viewBox="0 0 15 15" width="100%" height="30px" preserveAspectRatio="xMaxYMin meet">
         <g id="arrow_out" transform="scale(0.3 0.3)">
          <a xlink:href="_act_parser_8_h__dep__incl_org.svg" target="_base">
           <rect id="button" ry="5" rx="5" y="6" x="6" height="38" width="38"
                fill="#f2f5e9" fill-opacity="0.5" stroke="#606060" stroke-width="1.0"/>
           <path id="arrow"
             d="M 11.500037,31.436501 C 11.940474,20.09759 22.043105,11.32322 32.158766,21.979434 L 37.068811,17.246167 C 37.068811,17.246167 37.088388,32 37.088388,32 L 22.160133,31.978069 C 22.160133,31.978069 26.997745,27.140456 26.997745,27.140456 C 18.528582,18.264221 13.291696,25.230495 11.500037,31.436501 z"
             style="fill:#404040;"/>
          </a>
         </g>
        </svg>
</svg>
