<?xml version="1.0" encoding="UTF-8" standalone="no"?>
<!DOCTYPE svg PUBLIC "-//W3C//DTD SVG 1.1//EN"
 "http://www.w3.org/Graphics/SVG/1.1/DTD/svg11.dtd">
<!-- Generated by graphviz version 2.40.1 (20161225.0304)
 -->
<!-- Title: Actuator.H Pages: 1 -->
<svg width="717pt" height="196pt"
 viewBox="0.00 0.00 716.50 196.00" xmlns="http://www.w3.org/2000/svg" xmlns:xlink="http://www.w3.org/1999/xlink">
<g id="graph0" class="graph" transform="scale(1 1) rotate(0) translate(4 192)">
<title>Actuator.H</title>
<polygon fill="#ffffff" stroke="transparent" points="-4,4 -4,-192 712.5,-192 712.5,4 -4,4"/>
<!-- Node0 -->
<g id="node1" class="node">
<title>Node0</title>
<polygon fill="#bfbfbf" stroke="#000000" points="420,-168.5 420,-187.5 488,-187.5 488,-168.5 420,-168.5"/>
<text text-anchor="middle" x="454" y="-175.5" font-family="Helvetica,sans-Serif" font-size="10.00" fill="#000000">Actuator.H</text>
</g>
<!-- Node1 -->
<g id="node2" class="node">
<title>Node1</title>
<g id="a_node2"><a xlink:href="_physics_8_h.html" target="_top" xlink:title="amr&#45;wind/core/Physics.H">
<polygon fill="#ffffff" stroke="#000000" points="385.5,-112.5 385.5,-131.5 522.5,-131.5 522.5,-112.5 385.5,-112.5"/>
<text text-anchor="middle" x="454" y="-119.5" font-family="Helvetica,sans-Serif" font-size="10.00" fill="#000000">amr&#45;wind/core/Physics.H</text>
</a>
</g>
</g>
<!-- Node0&#45;&gt;Node1 -->
<g id="edge1" class="edge">
<title>Node0&#45;&gt;Node1</title>
<path fill="none" stroke="#191970" d="M454,-168.2455C454,-160.9382 454,-150.6944 454,-141.7046"/>
<polygon fill="#191970" stroke="#191970" points="457.5001,-141.6426 454,-131.6427 450.5001,-141.6427 457.5001,-141.6426"/>
</g>
<!-- Node2 -->
<g id="node3" class="node">
<title>Node2</title>
<g id="a_node3"><a xlink:href="_factory_8_h.html" target="_top" xlink:title="amr&#45;wind/core/Factory.H">
<polygon fill="#ffffff" stroke="#000000" points="318,-56.5 318,-75.5 452,-75.5 452,-56.5 318,-56.5"/>
<text text-anchor="middle" x="385" y="-63.5" font-family="Helvetica,sans-Serif" font-size="10.00" fill="#000000">amr&#45;wind/core/Factory.H</text>
</a>
</g>
</g>
<!-- Node1&#45;&gt;Node2 -->
<g id="edge2" class="edge">
<title>Node1&#45;&gt;Node2</title>
<path fill="none" stroke="#191970" d="M441.9811,-112.2455C431.7902,-103.9746 416.9638,-91.9416 404.9893,-82.2232"/>
<polygon fill="#191970" stroke="#191970" points="406.8514,-79.2268 396.8812,-75.6427 402.4402,-84.662 406.8514,-79.2268"/>
</g>
<!-- Node8 -->
<g id="node9" class="node">
<title>Node8</title>
<g id="a_node9"><a xlink:href="_coll_mgr_8_h.html" target="_top" xlink:title="amr&#45;wind/core/CollMgr.H">
<polygon fill="#ffffff" stroke="#000000" points="155,-56.5 155,-75.5 291,-75.5 291,-56.5 155,-56.5"/>
<text text-anchor="middle" x="223" y="-63.5" font-family="Helvetica,sans-Serif" font-size="10.00" fill="#000000">amr&#45;wind/core/CollMgr.H</text>
</a>
</g>
</g>
<!-- Node1&#45;&gt;Node8 -->
<g id="edge8" class="edge">
<title>Node1&#45;&gt;Node8</title>
<path fill="none" stroke="#191970" d="M414.5522,-112.4369C375.1844,-102.8932 314.5966,-88.2052 272.1292,-77.9101"/>
<polygon fill="#191970" stroke="#191970" points="272.8283,-74.4783 262.2851,-75.5237 271.179,-81.2812 272.8283,-74.4783"/>
</g>
<!-- Node11 -->
<g id="node12" class="node">
<title>Node11</title>
<polygon fill="#ffffff" stroke="#bfbfbf" points="470.5,-56.5 470.5,-75.5 577.5,-75.5 577.5,-56.5 470.5,-56.5"/>
<text text-anchor="middle" x="524" y="-63.5" font-family="Helvetica,sans-Serif" font-size="10.00" fill="#000000">AMReX_MultiFab.H</text>
</g>
<!-- Node1&#45;&gt;Node11 -->
<g id="edge13" class="edge">
<title>Node1&#45;&gt;Node11</title>
<path fill="none" stroke="#191970" d="M466.1931,-112.2455C476.6321,-103.8943 491.8655,-91.7076 504.074,-81.9408"/>
<polygon fill="#191970" stroke="#191970" points="506.3244,-84.6227 511.9467,-75.6427 501.9515,-79.1566 506.3244,-84.6227"/>
</g>
<!-- Node12 -->
<g id="node13" class="node">
<title>Node12</title>
<polygon fill="#ffffff" stroke="#bfbfbf" points="595.5,-56.5 595.5,-75.5 708.5,-75.5 708.5,-56.5 595.5,-56.5"/>
<text text-anchor="middle" x="652" y="-63.5" font-family="Helvetica,sans-Serif" font-size="10.00" fill="#000000">AMReX_Geometry.H</text>
</g>
<!-- Node1&#45;&gt;Node12 -->
<g id="edge14" class="edge">
<title>Node1&#45;&gt;Node12</title>
<path fill="none" stroke="#191970" d="M488.0374,-112.3733C521.3894,-102.9404 572.3527,-88.5265 608.6002,-78.2747"/>
<polygon fill="#191970" stroke="#191970" points="609.7368,-81.5906 618.4067,-75.5011 607.8316,-74.8548 609.7368,-81.5906"/>
</g>
<!-- Node3 -->
<g id="node4" class="node">
<title>Node3</title>
<polygon fill="#ffffff" stroke="#bfbfbf" points="288,-.5 288,-19.5 346,-19.5 346,-.5 288,-.5"/>
<text text-anchor="middle" x="317" y="-7.5" font-family="Helvetica,sans-Serif" font-size="10.00" fill="#000000">memory</text>
</g>
<!-- Node2&#45;&gt;Node3 -->
<g id="edge3" class="edge">
<title>Node2&#45;&gt;Node3</title>
<path fill="none" stroke="#191970" d="M373.1553,-56.2455C363.112,-47.9746 348.5005,-35.9416 336.6996,-26.2232"/>
<polygon fill="#191970" stroke="#191970" points="338.6533,-23.298 328.709,-19.6427 334.2033,-28.7015 338.6533,-23.298"/>
</g>
<!-- Node4 -->
<g id="node5" class="node">
<title>Node4</title>
<polygon fill="#ffffff" stroke="#bfbfbf" points="176.5,-.5 176.5,-19.5 269.5,-19.5 269.5,-.5 176.5,-.5"/>
<text text-anchor="middle" x="223" y="-7.5" font-family="Helvetica,sans-Serif" font-size="10.00" fill="#000000">unordered_map</text>
</g>
<!-- Node2&#45;&gt;Node4 -->
<g id="edge4" class="edge">
<title>Node2&#45;&gt;Node4</title>
<path fill="none" stroke="#191970" d="M357.1512,-56.3733C330.3297,-47.1016 289.5873,-33.0178 260.0402,-22.804"/>
<polygon fill="#191970" stroke="#191970" points="261.0802,-19.4603 250.4854,-19.5011 258.7931,-26.0762 261.0802,-19.4603"/>
</g>
<!-- Node5 -->
<g id="node6" class="node">
<title>Node5</title>
<polygon fill="#ffffff" stroke="#bfbfbf" points="364,-.5 364,-19.5 424,-19.5 424,-.5 364,-.5"/>
<text text-anchor="middle" x="394" y="-7.5" font-family="Helvetica,sans-Serif" font-size="10.00" fill="#000000">iostream</text>
</g>
<!-- Node2&#45;&gt;Node5 -->
<g id="edge5" class="edge">
<title>Node2&#45;&gt;Node5</title>
<path fill="none" stroke="#191970" d="M386.5677,-56.2455C387.7421,-48.9382 389.3884,-38.6944 390.8332,-29.7046"/>
<polygon fill="#191970" stroke="#191970" points="394.3191,-30.0714 392.4503,-19.6427 387.4078,-28.9606 394.3191,-30.0714"/>
</g>
<!-- Node6 -->
<g id="node7" class="node">
<title>Node6</title>
<polygon fill="#ffffff" stroke="#bfbfbf" points="442.5,-.5 442.5,-19.5 531.5,-19.5 531.5,-.5 442.5,-.5"/>
<text text-anchor="middle" x="487" y="-7.5" font-family="Helvetica,sans-Serif" font-size="10.00" fill="#000000">AMReX_Print.H</text>
</g>
<!-- Node2&#45;&gt;Node6 -->
<g id="edge6" class="edge">
<title>Node2&#45;&gt;Node6</title>
<path fill="none" stroke="#191970" d="M402.767,-56.2455C418.7095,-47.4928 442.3259,-34.527 460.4989,-24.5496"/>
<polygon fill="#191970" stroke="#191970" points="462.3552,-27.5233 469.4366,-19.6427 458.9863,-21.3873 462.3552,-27.5233"/>
</g>
<!-- Node7 -->
<g id="node8" class="node">
<title>Node7</title>
<polygon fill="#ffffff" stroke="#bfbfbf" points="549.5,-.5 549.5,-19.5 610.5,-19.5 610.5,-.5 549.5,-.5"/>
<text text-anchor="middle" x="580" y="-7.5" font-family="Helvetica,sans-Serif" font-size="10.00" fill="#000000">AMReX.H</text>
</g>
<!-- Node2&#45;&gt;Node7 -->
<g id="edge7" class="edge">
<title>Node2&#45;&gt;Node7</title>
<path fill="none" stroke="#191970" d="M418.5217,-56.3733C452.1646,-46.7117 504.0032,-31.8247 539.828,-21.5366"/>
<polygon fill="#191970" stroke="#191970" points="540.8339,-24.8892 549.4793,-18.7649 538.9017,-18.1612 540.8339,-24.8892"/>
</g>
<!-- Node8&#45;&gt;Node3 -->
<g id="edge10" class="edge">
<title>Node8&#45;&gt;Node3</title>
<path fill="none" stroke="#191970" d="M239.3736,-56.2455C253.9308,-47.5731 275.431,-34.7645 292.1152,-24.825"/>
<polygon fill="#191970" stroke="#191970" points="294.0144,-27.7676 300.8141,-19.6427 290.4317,-21.7539 294.0144,-27.7676"/>
</g>
<!-- Node8&#45;&gt;Node4 -->
<g id="edge11" class="edge">
<title>Node8&#45;&gt;Node4</title>
<path fill="none" stroke="#191970" d="M223,-56.2455C223,-48.9382 223,-38.6944 223,-29.7046"/>
<polygon fill="#191970" stroke="#191970" points="226.5001,-29.6426 223,-19.6427 219.5001,-29.6427 226.5001,-29.6426"/>
</g>
<!-- Node9 -->
<g id="node10" class="node">
<title>Node9</title>
<polygon fill="#ffffff" stroke="#bfbfbf" points="114,-.5 114,-19.5 158,-19.5 158,-.5 114,-.5"/>
<text text-anchor="middle" x="136" y="-7.5" font-family="Helvetica,sans-Serif" font-size="10.00" fill="#000000">string</text>
</g>
<!-- Node8&#45;&gt;Node9 -->
<g id="edge9" class="edge">
<title>Node8&#45;&gt;Node9</title>
<path fill="none" stroke="#191970" d="M207.8458,-56.2455C194.4973,-47.6534 174.8414,-35.0014 159.4617,-25.1018"/>
<polygon fill="#191970" stroke="#191970" points="161.2836,-22.1121 150.9806,-19.6427 157.4949,-27.9982 161.2836,-22.1121"/>
</g>
<!-- Node10 -->
<g id="node11" class="node">
<title>Node10</title>
<polygon fill="#ffffff" stroke="#bfbfbf" points="0,-.5 0,-19.5 96,-19.5 96,-.5 0,-.5"/>
<text text-anchor="middle" x="48" y="-7.5" font-family="Helvetica,sans-Serif" font-size="10.00" fill="#000000">AMReX_Vector.H</text>
</g>
<!-- Node8&#45;&gt;Node10 -->
<g id="edge12" class="edge">
<title>Node8&#45;&gt;Node10</title>
<path fill="none" stroke="#191970" d="M192.9164,-56.3733C163.8166,-47.0613 119.5477,-32.8953 87.597,-22.671"/>
<polygon fill="#191970" stroke="#191970" points="88.282,-19.2155 77.691,-19.5011 86.1485,-25.8824 88.282,-19.2155"/>
</g>
</g>
</svg>
