<?xml version="1.0" encoding="UTF-8" standalone="no"?>
<!DOCTYPE svg PUBLIC "-//W3C//DTD SVG 1.1//EN"
 "http://www.w3.org/Graphics/SVG/1.1/DTD/svg11.dtd">
<!-- Generated by graphviz version 2.40.1 (20161225.0304)
 -->
<!-- Title: Actuator.H Pages: 1 -->
<svg width="359pt" height="84pt"
 viewBox="0.00 0.00 359.00 84.00" xmlns="http://www.w3.org/2000/svg" xmlns:xlink="http://www.w3.org/1999/xlink">
<g id="graph0" class="graph" transform="scale(1 1) rotate(0) translate(4 80)">
<title>Actuator.H</title>
<polygon fill="#ffffff" stroke="transparent" points="-4,4 -4,-80 355,-80 355,4 -4,4"/>
<!-- Node13 -->
<g id="node1" class="node">
<title>Node13</title>
<polygon fill="#bfbfbf" stroke="#000000" points="135.5,-56.5 135.5,-75.5 203.5,-75.5 203.5,-56.5 135.5,-56.5"/>
<text text-anchor="middle" x="169.5" y="-63.5" font-family="Helvetica,sans-Serif" font-size="10.00" fill="#000000">Actuator.H</text>
</g>
<!-- Node14 -->
<g id="node2" class="node">
<title>Node14</title>
<g id="a_node2"><a xlink:href="_actuator_forcing_8cpp.html" target="_top" xlink:title="ActuatorForcing.cpp">
<polygon fill="#ffffff" stroke="#000000" points="0,-.5 0,-19.5 113,-19.5 113,-.5 0,-.5"/>
<text text-anchor="middle" x="56.5" y="-7.5" font-family="Helvetica,sans-Serif" font-size="10.00" fill="#000000">ActuatorForcing.cpp</text>
</a>
</g>
</g>
<!-- Node13&#45;&gt;Node14 -->
<g id="edge1" class="edge">
<title>Node13&#45;&gt;Node14</title>
<path fill="none" stroke="#191970" d="M140.9208,-51.8368C120.4942,-41.7139 93.5638,-28.3679 75.6719,-19.5011"/>
<polygon fill="#191970" stroke="#191970" points="139.5604,-55.0688 150.0746,-56.3733 142.6687,-48.7968 139.5604,-55.0688"/>
</g>
<!-- Node15 -->
<g id="node3" class="node">
<title>Node15</title>
<g id="a_node3"><a xlink:href="_actuator_8cpp.html" target="_top" xlink:title="Actuator.cpp">
<polygon fill="#ffffff" stroke="#000000" points="131,-.5 131,-19.5 208,-19.5 208,-.5 131,-.5"/>
<text text-anchor="middle" x="169.5" y="-7.5" font-family="Helvetica,sans-Serif" font-size="10.00" fill="#000000">Actuator.cpp</text>
</a>
</g>
</g>
<!-- Node13&#45;&gt;Node15 -->
<g id="edge2" class="edge">
<title>Node13&#45;&gt;Node15</title>
<path fill="none" stroke="#191970" d="M169.5,-46.1575C169.5,-37.155 169.5,-26.9199 169.5,-19.6427"/>
<polygon fill="#191970" stroke="#191970" points="166.0001,-46.2455 169.5,-56.2455 173.0001,-46.2456 166.0001,-46.2455"/>
</g>
<!-- Node16 -->
<g id="node4" class="node">
<title>Node16</title>
<g id="a_node4"><a xlink:href="_actuator_container_8cpp.html" target="_top" xlink:title="ActuatorContainer.cpp">
<polygon fill="#ffffff" stroke="#000000" points="226,-.5 226,-19.5 351,-19.5 351,-.5 226,-.5"/>
<text text-anchor="middle" x="288.5" y="-7.5" font-family="Helvetica,sans-Serif" font-size="10.00" fill="#000000">ActuatorContainer.cpp</text>
</a>
</g>
</g>
<!-- Node13&#45;&gt;Node16 -->
<g id="edge3" class="edge">
<title>Node13&#45;&gt;Node16</title>
<path fill="none" stroke="#191970" d="M199.0144,-52.1109C220.5938,-41.9559 249.2976,-28.4482 268.3101,-19.5011"/>
<polygon fill="#191970" stroke="#191970" points="197.5147,-48.9484 189.9568,-56.3733 200.4953,-55.2821 197.5147,-48.9484"/>
</g>
</g>
</svg>
