<?xml version="1.0" encoding="UTF-8" standalone="no"?>
<!DOCTYPE svg PUBLIC "-//W3C//DTD SVG 1.1//EN"
 "http://www.w3.org/Graphics/SVG/1.1/DTD/svg11.dtd">
<!-- Generated by graphviz version 2.40.1 (20161225.0304)
 -->
<!-- Title: ActuatorWing.H Pages: 1 -->
<svg width="662pt" height="397pt"
 viewBox="0.00 0.00 661.80 397.00" xmlns="http://www.w3.org/2000/svg" xmlns:xlink="http://www.w3.org/1999/xlink">
<g id="graph0" class="graph" transform="scale(1 1) rotate(0) translate(4 393)">
<title>ActuatorWing.H</title>
<polygon fill="#ffffff" stroke="transparent" points="-4,4 -4,-393 657.7994,-393 657.7994,4 -4,4"/>
<!-- Node0 -->
<g id="node1" class="node">
<title>Node0</title>
<polygon fill="#bfbfbf" stroke="#000000" points="322.5,-369.5 322.5,-388.5 415.5,-388.5 415.5,-369.5 322.5,-369.5"/>
<text text-anchor="middle" x="369" y="-376.5" font-family="Helvetica,sans-Serif" font-size="10.00" fill="#000000">ActuatorWing.H</text>
</g>
<!-- Node1 -->
<g id="node2" class="node">
<title>Node1</title>
<g id="a_node2"><a xlink:href="actuator__types_8_h.html" target="_top" xlink:title="amr&#45;wind/wind_energy\l/actuator/actuator_types.H">
<polygon fill="#ffffff" stroke="#000000" points="143,-302.5 143,-332.5 289,-332.5 289,-302.5 143,-302.5"/>
<text text-anchor="start" x="151" y="-320.5" font-family="Helvetica,sans-Serif" font-size="10.00" fill="#000000">amr&#45;wind/wind_energy</text>
<text text-anchor="middle" x="216" y="-309.5" font-family="Helvetica,sans-Serif" font-size="10.00" fill="#000000">/actuator/actuator_types.H</text>
</a>
</g>
</g>
<!-- Node0&#45;&gt;Node1 -->
<g id="edge1" class="edge">
<title>Node0&#45;&gt;Node1</title>
<path fill="none" stroke="#191970" d="M345.0938,-369.3906C323.1408,-360.5664 289.9883,-347.2404 262.7771,-336.3026"/>
<polygon fill="#191970" stroke="#191970" points="264.0119,-333.0268 253.428,-332.5446 261.4011,-339.5217 264.0119,-333.0268"/>
</g>
<!-- Node6 -->
<g id="node7" class="node">
<title>Node6</title>
<g id="a_node7"><a xlink:href="vector__space_8_h.html" target="_top" xlink:title="amr&#45;wind/core/vs/vector\l_space.H">
<polygon fill="#ffffff" stroke="#000000" points="354,-235.5 354,-265.5 488,-265.5 488,-235.5 354,-235.5"/>
<text text-anchor="start" x="362" y="-253.5" font-family="Helvetica,sans-Serif" font-size="10.00" fill="#000000">amr&#45;wind/core/vs/vector</text>
<text text-anchor="middle" x="421" y="-242.5" font-family="Helvetica,sans-Serif" font-size="10.00" fill="#000000">_space.H</text>
</a>
</g>
</g>
<!-- Node0&#45;&gt;Node6 -->
<g id="edge30" class="edge">
<title>Node0&#45;&gt;Node6</title>
<path fill="none" stroke="#191970" d="M370.3647,-369.1892C372.6765,-354.2287 378.1055,-325.0235 388,-302 392.1699,-292.2971 398.0803,-282.3606 403.7496,-273.8363"/>
<polygon fill="#191970" stroke="#191970" points="406.6816,-275.75 409.4873,-265.5334 400.9228,-271.7704 406.6816,-275.75"/>
</g>
<!-- Node19 -->
<g id="node20" class="node">
<title>Node19</title>
<polygon fill="#ffffff" stroke="#bfbfbf" points="397,-308 397,-327 441,-327 441,-308 397,-308"/>
<text text-anchor="middle" x="419" y="-315" font-family="Helvetica,sans-Serif" font-size="10.00" fill="#000000">string</text>
</g>
<!-- Node0&#45;&gt;Node19 -->
<g id="edge31" class="edge">
<title>Node0&#45;&gt;Node19</title>
<path fill="none" stroke="#191970" d="M376.8125,-369.3906C384.254,-360.2376 395.6334,-346.2409 404.6992,-335.09"/>
<polygon fill="#191970" stroke="#191970" points="407.4847,-337.212 411.0774,-327.2449 402.0533,-332.7962 407.4847,-337.212"/>
</g>
<!-- Node2 -->
<g id="node3" class="node">
<title>Node2</title>
<g id="a_node3"><a xlink:href="_slice_8_h.html" target="_top" xlink:title="amr&#45;wind/core/Slice.H">
<polygon fill="#ffffff" stroke="#000000" points="88.5,-241 88.5,-260 211.5,-260 211.5,-241 88.5,-241"/>
<text text-anchor="middle" x="150" y="-248" font-family="Helvetica,sans-Serif" font-size="10.00" fill="#000000">amr&#45;wind/core/Slice.H</text>
</a>
</g>
</g>
<!-- Node1&#45;&gt;Node2 -->
<g id="edge2" class="edge">
<title>Node1&#45;&gt;Node2</title>
<path fill="none" stroke="#191970" d="M201.0236,-302.2967C190.7405,-291.8578 177.0892,-277.9997 166.4947,-267.2446"/>
<polygon fill="#191970" stroke="#191970" points="168.9235,-264.7228 159.4124,-260.055 163.9367,-269.6352 168.9235,-264.7228"/>
</g>
<!-- Node5 -->
<g id="node6" class="node">
<title>Node5</title>
<polygon fill="#ffffff" stroke="#bfbfbf" points="93,-.5 93,-19.5 179,-19.5 179,-.5 93,-.5"/>
<text text-anchor="middle" x="136" y="-7.5" font-family="Helvetica,sans-Serif" font-size="10.00" fill="#000000">AMReX_Gpu.H</text>
</g>
<!-- Node1&#45;&gt;Node5 -->
<g id="edge27" class="edge">
<title>Node1&#45;&gt;Node5</title>
<path fill="none" stroke="#191970" d="M142.7629,-304.133C119.4962,-296.5222 95.5424,-284.6128 79,-266 55.5839,-239.6532 60,-224.2487 60,-189 60,-189 60,-189 60,-133 60,-89.4388 94.9243,-48.4145 117.4235,-26.5053"/>
<polygon fill="#191970" stroke="#191970" points="119.8999,-28.981 124.7859,-19.5801 115.1038,-23.8822 119.8999,-28.981"/>
</g>
<!-- Node1&#45;&gt;Node6 -->
<g id="edge6" class="edge">
<title>Node1&#45;&gt;Node6</title>
<path fill="none" stroke="#191970" d="M262.006,-302.4639C292.4957,-292.499 332.6841,-279.3642 365.0271,-268.7936"/>
<polygon fill="#191970" stroke="#191970" points="366.3754,-272.0352 374.7933,-265.6017 364.2008,-265.3815 366.3754,-272.0352"/>
</g>
<!-- Node17 -->
<g id="node18" class="node">
<title>Node17</title>
<polygon fill="#ffffff" stroke="#bfbfbf" points="230,-241 230,-260 336,-260 336,-241 230,-241"/>
<text text-anchor="middle" x="283" y="-248" font-family="Helvetica,sans-Serif" font-size="10.00" fill="#000000">AMReX_RealBox.H</text>
</g>
<!-- Node1&#45;&gt;Node17 -->
<g id="edge28" class="edge">
<title>Node1&#45;&gt;Node17</title>
<path fill="none" stroke="#191970" d="M231.2033,-302.2967C241.6422,-291.8578 255.5003,-277.9997 266.2554,-267.2446"/>
<polygon fill="#191970" stroke="#191970" points="268.8488,-269.601 273.445,-260.055 263.899,-264.6512 268.8488,-269.601"/>
</g>
<!-- Node18 -->
<g id="node19" class="node">
<title>Node18</title>
<polygon fill="#ffffff" stroke="#bfbfbf" points="0,-241 0,-260 32,-260 32,-241 0,-241"/>
<text text-anchor="middle" x="16" y="-248" font-family="Helvetica,sans-Serif" font-size="10.00" fill="#000000">set</text>
</g>
<!-- Node1&#45;&gt;Node18 -->
<g id="edge29" class="edge">
<title>Node1&#45;&gt;Node18</title>
<path fill="none" stroke="#191970" d="M156.8618,-302.4505C123.7493,-293.3158 82.0045,-280.6117 46,-266 44.5741,-265.4213 43.1251,-264.7983 41.6729,-264.1462"/>
<polygon fill="#191970" stroke="#191970" points="42.7758,-260.7914 32.2503,-259.5809 39.7235,-267.091 42.7758,-260.7914"/>
</g>
<!-- Node3 -->
<g id="node4" class="node">
<title>Node3</title>
<polygon fill="#ffffff" stroke="#bfbfbf" points="126.5,-179.5 126.5,-198.5 179.5,-198.5 179.5,-179.5 126.5,-179.5"/>
<text text-anchor="middle" x="153" y="-186.5" font-family="Helvetica,sans-Serif" font-size="10.00" fill="#000000">iterator</text>
</g>
<!-- Node2&#45;&gt;Node3 -->
<g id="edge3" class="edge">
<title>Node2&#45;&gt;Node3</title>
<path fill="none" stroke="#191970" d="M150.4688,-240.8906C150.8846,-232.3657 151.5054,-219.6392 152.0281,-208.9235"/>
<polygon fill="#191970" stroke="#191970" points="155.5332,-208.9035 152.5246,-198.7449 148.5415,-208.5624 155.5332,-208.9035"/>
</g>
<!-- Node4 -->
<g id="node5" class="node">
<title>Node4</title>
<polygon fill="#ffffff" stroke="#bfbfbf" points="198,-179.5 198,-198.5 294,-198.5 294,-179.5 198,-179.5"/>
<text text-anchor="middle" x="246" y="-186.5" font-family="Helvetica,sans-Serif" font-size="10.00" fill="#000000">AMReX_Vector.H</text>
</g>
<!-- Node2&#45;&gt;Node4 -->
<g id="edge4" class="edge">
<title>Node2&#45;&gt;Node4</title>
<path fill="none" stroke="#191970" d="M165,-240.8906C180.3581,-231.0519 204.4521,-215.6167 222.3745,-204.1351"/>
<polygon fill="#191970" stroke="#191970" points="224.573,-206.8833 231.1053,-198.5419 220.797,-200.9891 224.573,-206.8833"/>
</g>
<!-- Node2&#45;&gt;Node5 -->
<g id="edge5" class="edge">
<title>Node2&#45;&gt;Node5</title>
<path fill="none" stroke="#191970" d="M141.268,-240.7158C133.1812,-230.9452 121.7162,-215.1016 117,-199 99.4344,-139.0291 118.2832,-64.2861 129.2624,-29.498"/>
<polygon fill="#191970" stroke="#191970" points="132.6932,-30.2694 132.4945,-19.6764 126.0439,-28.0812 132.6932,-30.2694"/>
</g>
<!-- Node7 -->
<g id="node8" class="node">
<title>Node7</title>
<g id="a_node8"><a xlink:href="vector_8_h.html" target="_top" xlink:title="amr&#45;wind/core/vs/vector.H">
<polygon fill="#ffffff" stroke="#000000" points="232,-123.5 232,-142.5 376,-142.5 376,-123.5 232,-123.5"/>
<text text-anchor="middle" x="304" y="-130.5" font-family="Helvetica,sans-Serif" font-size="10.00" fill="#000000">amr&#45;wind/core/vs/vector.H</text>
</a>
</g>
</g>
<!-- Node6&#45;&gt;Node7 -->
<g id="edge7" class="edge">
<title>Node6&#45;&gt;Node7</title>
<path fill="none" stroke="#191970" d="M399.8643,-235.3309C386.9048,-225.5944 370.305,-212.3184 357,-199 342.0051,-183.99 327.0664,-164.9185 316.8897,-151.1406"/>
<polygon fill="#191970" stroke="#191970" points="319.6464,-148.9802 310.9372,-142.9469 313.9831,-153.0945 319.6464,-148.9802"/>
</g>
<!-- Node14 -->
<g id="node15" class="node">
<title>Node14</title>
<g id="a_node15"><a xlink:href="tensor_8_h.html" target="_top" xlink:title="amr&#45;wind/core/vs/tensor.H">
<polygon fill="#ffffff" stroke="#000000" points="366,-179.5 366,-198.5 510,-198.5 510,-179.5 366,-179.5"/>
<text text-anchor="middle" x="438" y="-186.5" font-family="Helvetica,sans-Serif" font-size="10.00" fill="#000000">amr&#45;wind/core/vs/tensor.H</text>
</a>
</g>
</g>
<!-- Node6&#45;&gt;Node14 -->
<g id="edge16" class="edge">
<title>Node6&#45;&gt;Node14</title>
<path fill="none" stroke="#191970" d="M425.2022,-235.2977C427.4391,-227.2055 430.2149,-217.1639 432.609,-208.5029"/>
<polygon fill="#191970" stroke="#191970" points="435.9872,-209.418 435.2781,-198.8469 429.2402,-207.5529 435.9872,-209.418"/>
</g>
<!-- Node7&#45;&gt;Node5 -->
<g id="edge8" class="edge">
<title>Node7&#45;&gt;Node5</title>
<path fill="none" stroke="#191970" d="M267.6645,-123.4231C244.6264,-116.0937 215.1093,-104.2733 193,-87 172.5118,-70.9933 155.7916,-45.8242 145.8771,-28.6507"/>
<polygon fill="#191970" stroke="#191970" points="148.7626,-26.6373 140.8489,-19.5929 142.6423,-30.0348 148.7626,-26.6373"/>
</g>
<!-- Node8 -->
<g id="node9" class="node">
<title>Node8</title>
<g id="a_node9"><a xlink:href="vstraits_8_h.html" target="_top" xlink:title="amr&#45;wind/core/vs/vstraits.H">
<polygon fill="#ffffff" stroke="#000000" points="368.5,-62 368.5,-81 519.5,-81 519.5,-62 368.5,-62"/>
<text text-anchor="middle" x="444" y="-69" font-family="Helvetica,sans-Serif" font-size="10.00" fill="#000000">amr&#45;wind/core/vs/vstraits.H</text>
</a>
</g>
</g>
<!-- Node7&#45;&gt;Node8 -->
<g id="edge9" class="edge">
<title>Node7&#45;&gt;Node8</title>
<path fill="none" stroke="#191970" d="M325.875,-123.3906C349.2996,-113.1005 386.6596,-96.6888 413.0841,-85.0809"/>
<polygon fill="#191970" stroke="#191970" points="414.5307,-88.2683 422.2786,-81.0419 411.7154,-81.8594 414.5307,-88.2683"/>
</g>
<!-- Node11 -->
<g id="node12" class="node">
<title>Node11</title>
<g id="a_node12"><a xlink:href="vector_i_8_h.html" target="_top" xlink:title="amr&#45;wind/core/vs/vectorI.H">
<polygon fill="#ffffff" stroke="#000000" points="202,-62 202,-81 350,-81 350,-62 202,-62"/>
<text text-anchor="middle" x="276" y="-69" font-family="Helvetica,sans-Serif" font-size="10.00" fill="#000000">amr&#45;wind/core/vs/vectorI.H</text>
</a>
</g>
</g>
<!-- Node7&#45;&gt;Node11 -->
<g id="edge12" class="edge">
<title>Node7&#45;&gt;Node11</title>
<path fill="none" stroke="#191970" d="M294.5625,-123.3906C288.9595,-114.776 282.6588,-101.8708 278.5791,-91.0858"/>
<polygon fill="#191970" stroke="#191970" points="281.7929,-89.6539 275.3479,-81.2449 275.1423,-91.8377 281.7929,-89.6539"/>
</g>
<!-- Node9 -->
<g id="node10" class="node">
<title>Node9</title>
<polygon fill="#ffffff" stroke="#bfbfbf" points="408,-.5 408,-19.5 452,-19.5 452,-.5 408,-.5"/>
<text text-anchor="middle" x="430" y="-7.5" font-family="Helvetica,sans-Serif" font-size="10.00" fill="#000000">limits</text>
</g>
<!-- Node8&#45;&gt;Node9 -->
<g id="edge10" class="edge">
<title>Node8&#45;&gt;Node9</title>
<path fill="none" stroke="#191970" d="M441.8125,-61.8906C439.8514,-53.276 436.9137,-40.3708 434.4585,-29.5858"/>
<polygon fill="#191970" stroke="#191970" points="437.8507,-28.7185 432.2183,-19.7449 431.0254,-30.2723 437.8507,-28.7185"/>
</g>
<!-- Node10 -->
<g id="node11" class="node">
<title>Node10</title>
<polygon fill="#ffffff" stroke="#bfbfbf" points="470.5,-.5 470.5,-19.5 561.5,-19.5 561.5,-.5 470.5,-.5"/>
<text text-anchor="middle" x="516" y="-7.5" font-family="Helvetica,sans-Serif" font-size="10.00" fill="#000000">AMReX_REAL.H</text>
</g>
<!-- Node8&#45;&gt;Node10 -->
<g id="edge11" class="edge">
<title>Node8&#45;&gt;Node10</title>
<path fill="none" stroke="#191970" d="M455.25,-61.8906C466.386,-52.3786 483.646,-37.6357 496.9268,-26.2917"/>
<polygon fill="#191970" stroke="#191970" points="499.2608,-28.9011 504.5914,-19.7449 494.7144,-23.5784 499.2608,-28.9011"/>
</g>
<!-- Node11&#45;&gt;Node7 -->
<g id="edge15" class="edge">
<title>Node11&#45;&gt;Node7</title>
<path fill="none" stroke="#191970" d="M285.5254,-81.2449C291.1357,-89.9042 297.4283,-102.8205 301.4847,-113.5832"/>
<polygon fill="#191970" stroke="#191970" points="298.256,-114.9712 304.6875,-123.3906 304.9101,-112.7981 298.256,-114.9712"/>
</g>
<!-- Node12 -->
<g id="node13" class="node">
<title>Node12</title>
<polygon fill="#ffffff" stroke="#bfbfbf" points="247.5,-.5 247.5,-19.5 304.5,-19.5 304.5,-.5 247.5,-.5"/>
<text text-anchor="middle" x="276" y="-7.5" font-family="Helvetica,sans-Serif" font-size="10.00" fill="#000000">ostream</text>
</g>
<!-- Node11&#45;&gt;Node12 -->
<g id="edge13" class="edge">
<title>Node11&#45;&gt;Node12</title>
<path fill="none" stroke="#191970" d="M276,-61.8906C276,-53.3657 276,-40.6392 276,-29.9235"/>
<polygon fill="#191970" stroke="#191970" points="279.5001,-29.7448 276,-19.7449 272.5001,-29.7449 279.5001,-29.7448"/>
</g>
<!-- Node13 -->
<g id="node14" class="node">
<title>Node13</title>
<polygon fill="#ffffff" stroke="#bfbfbf" points="579.5,-.5 579.5,-19.5 626.5,-19.5 626.5,-.5 579.5,-.5"/>
<text text-anchor="middle" x="603" y="-7.5" font-family="Helvetica,sans-Serif" font-size="10.00" fill="#000000">cmath</text>
</g>
<!-- Node11&#45;&gt;Node13 -->
<g id="edge14" class="edge">
<title>Node11&#45;&gt;Node13</title>
<path fill="none" stroke="#191970" d="M326.4519,-61.9413C337.1894,-59.9453 348.4651,-57.878 359,-56 449.9637,-39.7842 476.3329,-42.1214 569.4934,-20.1386"/>
<polygon fill="#191970" stroke="#191970" points="570.4215,-23.5154 579.3335,-17.7859 568.7937,-16.7073 570.4215,-23.5154"/>
</g>
<!-- Node14&#45;&gt;Node5 -->
<g id="edge17" class="edge">
<title>Node14&#45;&gt;Node5</title>
<path fill="none" stroke="#191970" d="M365.6258,-183.025C322.3552,-177.1896 267.3513,-165.679 223,-143 189.9398,-126.0947 181.1957,-118.1592 161,-87 149.5716,-69.3675 142.9653,-46.0693 139.4465,-29.7361"/>
<polygon fill="#191970" stroke="#191970" points="142.8373,-28.8384 137.4824,-19.6965 135.9675,-30.1825 142.8373,-28.8384"/>
</g>
<!-- Node14&#45;&gt;Node7 -->
<g id="edge19" class="edge">
<title>Node14&#45;&gt;Node7</title>
<path fill="none" stroke="#191970" d="M414.9646,-179.3733C393.2612,-170.3032 360.5382,-156.6279 336.245,-146.4755"/>
<polygon fill="#191970" stroke="#191970" points="337.3111,-143.1278 326.7348,-142.5011 334.6119,-149.5865 337.3111,-143.1278"/>
</g>
<!-- Node14&#45;&gt;Node8 -->
<g id="edge18" class="edge">
<title>Node14&#45;&gt;Node8</title>
<path fill="none" stroke="#191970" d="M438.491,-179.3845C439.4711,-160.1913 441.6875,-116.786 442.9907,-91.2663"/>
<polygon fill="#191970" stroke="#191970" points="446.4876,-91.4139 443.5022,-81.2484 439.4967,-91.0568 446.4876,-91.4139"/>
</g>
<!-- Node15 -->
<g id="node16" class="node">
<title>Node15</title>
<g id="a_node16"><a xlink:href="tensor_i_8_h.html" target="_top" xlink:title="amr&#45;wind/core/vs/tensorI.H">
<polygon fill="#ffffff" stroke="#000000" points="493,-123.5 493,-142.5 641,-142.5 641,-123.5 493,-123.5"/>
<text text-anchor="middle" x="567" y="-130.5" font-family="Helvetica,sans-Serif" font-size="10.00" fill="#000000">amr&#45;wind/core/vs/tensorI.H</text>
</a>
</g>
</g>
<!-- Node14&#45;&gt;Node15 -->
<g id="edge20" class="edge">
<title>Node14&#45;&gt;Node15</title>
<path fill="none" stroke="#191970" d="M454.9339,-179.3733C474.138,-170.2629 505.625,-156.5062 530.4201,-146.3404"/>
<polygon fill="#191970" stroke="#191970" points="531.9423,-149.5001 539.8962,-142.5011 529.3137,-143.0124 531.9423,-149.5001"/>
</g>
<!-- Node15&#45;&gt;Node13 -->
<g id="edge21" class="edge">
<title>Node15&#45;&gt;Node13</title>
<path fill="none" stroke="#191970" d="M600.5002,-123.3574C618.2612,-116.3494 638.524,-104.8886 649,-87 655.9625,-75.1109 654.2725,-68.729 649,-56 644.1688,-44.3363 634.7863,-34.0881 625.7482,-26.243"/>
<polygon fill="#191970" stroke="#191970" points="627.667,-23.2942 617.6852,-19.7423 623.2734,-28.7436 627.667,-23.2942"/>
</g>
<!-- Node15&#45;&gt;Node14 -->
<g id="edge22" class="edge">
<title>Node15&#45;&gt;Node14</title>
<path fill="none" stroke="#191970" d="M550.3308,-142.5011C531.2402,-151.5685 499.7794,-165.3201 474.923,-175.5189"/>
<polygon fill="#191970" stroke="#191970" points="473.3697,-172.3719 465.4179,-179.3733 476.0003,-178.8588 473.3697,-172.3719"/>
</g>
<!-- Node16 -->
<g id="node17" class="node">
<title>Node16</title>
<g id="a_node17"><a xlink:href="trig__ops_8_h.html" target="_top" xlink:title="Trigonometric utilities. ">
<polygon fill="#ffffff" stroke="#000000" points="538,-56.5 538,-86.5 640,-86.5 640,-56.5 538,-56.5"/>
<text text-anchor="start" x="546" y="-74.5" font-family="Helvetica,sans-Serif" font-size="10.00" fill="#000000">amr&#45;wind/utilities</text>
<text text-anchor="middle" x="589" y="-63.5" font-family="Helvetica,sans-Serif" font-size="10.00" fill="#000000">/trig_ops.H</text>
</a>
</g>
</g>
<!-- Node15&#45;&gt;Node16 -->
<g id="edge23" class="edge">
<title>Node15&#45;&gt;Node16</title>
<path fill="none" stroke="#191970" d="M570.4375,-123.3906C573.0565,-116.0692 576.7842,-105.6488 580.2126,-96.0647"/>
<polygon fill="#191970" stroke="#191970" points="583.5454,-97.1392 583.6182,-86.5446 576.9544,-94.7814 583.5454,-97.1392"/>
</g>
<!-- Node16&#45;&gt;Node5 -->
<g id="edge26" class="edge">
<title>Node16&#45;&gt;Node5</title>
<path fill="none" stroke="#191970" d="M537.7161,-57.7613C534.776,-57.1266 531.8554,-56.5334 529,-56 465.1167,-44.0672 280.9849,-24.6454 189.2513,-15.3231"/>
<polygon fill="#191970" stroke="#191970" points="189.371,-11.8174 179.069,-14.2913 188.6652,-18.7817 189.371,-11.8174"/>
</g>
<!-- Node16&#45;&gt;Node10 -->
<g id="edge25" class="edge">
<title>Node16&#45;&gt;Node10</title>
<path fill="none" stroke="#191970" d="M570.9551,-56.2977C560.1886,-47.2274 546.5149,-35.7077 535.5005,-26.4285"/>
<polygon fill="#191970" stroke="#191970" points="537.5911,-23.6132 527.6882,-19.8469 533.0809,-28.9667 537.5911,-23.6132"/>
</g>
<!-- Node16&#45;&gt;Node13 -->
<g id="edge24" class="edge">
<title>Node16&#45;&gt;Node13</title>
<path fill="none" stroke="#191970" d="M592.4607,-56.2977C594.2826,-48.2945 596.5385,-38.3843 598.4952,-29.7889"/>
<polygon fill="#191970" stroke="#191970" points="601.9514,-30.3744 600.7584,-19.8469 595.126,-28.8206 601.9514,-30.3744"/>
</g>
</g>
</svg>
