<?xml version="1.0" encoding="UTF-8" standalone="no"?>
<!DOCTYPE svg PUBLIC "-//W3C//DTD SVG 1.1//EN"
 "http://www.w3.org/Graphics/SVG/1.1/DTD/svg11.dtd">
<!-- Generated by graphviz version 2.40.1 (20161225.0304)
 -->
<!-- Title: AirfoilTable.H Pages: 1 -->
<!--zoomable 397 -->
<svg id="main" version="1.1" xmlns="http://www.w3.org/2000/svg" xmlns:xlink="http://www.w3.org/1999/xlink" xml:space="preserve" onload="init(evt)">
<style type="text/css"><![CDATA[
.edge:hover path { stroke: red; }
.edge:hover polygon { stroke: red; fill: red; }
]]></style>
<script type="text/javascript"><![CDATA[
var edges = document.getElementsByTagName('g');
if (edges && edges.length) {
  for (var i=0;i<edges.length;i++) {
    if (edges[i].id.substr(0,4)=='edge') {
      edges[i].setAttribute('class','edge');
    }
  }
}
]]></script>
        <defs>
                <circle id="rim" cx="0" cy="0" r="7"/>
                <circle id="rim2" cx="0" cy="0" r="3.5"/>
                <g id="zoomPlus">
                        <use xlink:href="#rim" fill="#404040">
                                <set attributeName="fill" to="#808080" begin="zoomplus.mouseover" end="zoomplus.mouseout"/>
                        </use>
                        <path d="M-4,0h8M0,-4v8" fill="none" stroke="white" stroke-width="1.5" pointer-events="none"/>
                </g>
                <g id="zoomMin">
                        <use xlink:href="#rim" fill="#404040">
                                <set attributeName="fill" to="#808080" begin="zoomminus.mouseover" end="zoomminus.mouseout"/>
                        </use>
                        <path d="M-4,0h8" fill="none" stroke="white" stroke-width="1.5" pointer-events="none"/>
                </g>
                <g id="dirArrow">
                        <path fill="none" stroke="white" stroke-width="1.5" d="M0,-3.0v7 M-2.5,-0.5L0,-3.0L2.5,-0.5"/>
                </g>
               <g id="resetDef">
                       <use xlink:href="#rim2" fill="#404040">
                               <set attributeName="fill" to="#808080" begin="reset.mouseover" end="reset.mouseout"/>
                       </use>
               </g>
        </defs>

<script type="text/javascript">
var viewWidth = 627;
var viewHeight = 397;
var sectionId = 'dynsection-0';
</script>
<script xlink:href="svgpan.js"/>
<svg id="graph" class="graph">
<g id="viewport">
<title>AirfoilTable.H</title>
<polygon fill="#ffffff" stroke="transparent" points="-4,4 -4,-393 623.2718,-393 623.2718,4 -4,4"/>
<!-- Node0 -->
<g id="node1" class="node">
<title>Node0</title>
<polygon fill="#bfbfbf" stroke="#000000" points="372.2718,-369.5 372.2718,-388.5 454.2718,-388.5 454.2718,-369.5 372.2718,-369.5"/>
<text text-anchor="middle" x="413.2718" y="-376.5" font-family="Helvetica,sans-Serif" font-size="10.00" fill="#000000">AirfoilTable.H</text>
</g>
<!-- Node1 -->
<g id="node2" class="node">
<title>Node1</title>
<g id="a_node2"><a xlink:href="actuator__types_8_h.html" target="_top" xlink:title="amr&#45;wind/wind_energy\l/actuator/actuator_types.H">
<polygon fill="#ffffff" stroke="#000000" points="152.2718,-302.5 152.2718,-332.5 298.2718,-332.5 298.2718,-302.5 152.2718,-302.5"/>
<text text-anchor="start" x="160.2718" y="-320.5" font-family="Helvetica,sans-Serif" font-size="10.00" fill="#000000">amr&#45;wind/wind_energy</text>
<text text-anchor="middle" x="225.2718" y="-309.5" font-family="Helvetica,sans-Serif" font-size="10.00" fill="#000000">/actuator/actuator_types.H</text>
</a>
</g>
</g>
<!-- Node0&#45;&gt;Node1 -->
<g id="edge1" class="edge">
<title>Node0&#45;&gt;Node1</title>
<path fill="none" stroke="#191970" d="M383.8968,-369.3906C356.4508,-360.4123 314.7583,-346.7735 281.0042,-335.7316"/>
<polygon fill="#191970" stroke="#191970" points="281.8544,-332.3273 271.2617,-332.5446 279.6779,-338.9803 281.8544,-332.3273"/>
</g>
<!-- Node19 -->
<g id="node20" class="node">
<title>Node19</title>
<polygon fill="#ffffff" stroke="#bfbfbf" points="316.7718,-308 316.7718,-327 365.7718,-327 365.7718,-308 316.7718,-308"/>
<text text-anchor="middle" x="341.2718" y="-315" font-family="Helvetica,sans-Serif" font-size="10.00" fill="#000000">iosfwd</text>
</g>
<!-- Node0&#45;&gt;Node19 -->
<g id="edge30" class="edge">
<title>Node0&#45;&gt;Node19</title>
<path fill="none" stroke="#191970" d="M402.0218,-369.3906C390.8858,-359.8786 373.6257,-345.1357 360.345,-333.7917"/>
<polygon fill="#191970" stroke="#191970" points="362.5574,-331.0784 352.6804,-327.2449 358.0109,-336.4011 362.5574,-331.0784"/>
</g>
<!-- Node20 -->
<g id="node21" class="node">
<title>Node20</title>
<polygon fill="#ffffff" stroke="#bfbfbf" points="384.2718,-308 384.2718,-327 442.2718,-327 442.2718,-308 384.2718,-308"/>
<text text-anchor="middle" x="413.2718" y="-315" font-family="Helvetica,sans-Serif" font-size="10.00" fill="#000000">memory</text>
</g>
<!-- Node0&#45;&gt;Node20 -->
<g id="edge31" class="edge">
<title>Node0&#45;&gt;Node20</title>
<path fill="none" stroke="#191970" d="M413.2718,-369.3906C413.2718,-360.8657 413.2718,-348.1392 413.2718,-337.4235"/>
<polygon fill="#191970" stroke="#191970" points="416.7719,-337.2448 413.2718,-327.2449 409.7719,-337.2449 416.7719,-337.2448"/>
</g>
<!-- Node21 -->
<g id="node22" class="node">
<title>Node21</title>
<g id="a_node22"><a xlink:href="_airfoil_table_i_8_h.html" target="_top" xlink:title="amr&#45;wind/wind_energy\l/actuator/aero/AirfoilTableI.H">
<polygon fill="#ffffff" stroke="#000000" points="460.2718,-302.5 460.2718,-332.5 616.2718,-332.5 616.2718,-302.5 460.2718,-302.5"/>
<text text-anchor="start" x="468.2718" y="-320.5" font-family="Helvetica,sans-Serif" font-size="10.00" fill="#000000">amr&#45;wind/wind_energy</text>
<text text-anchor="middle" x="538.2718" y="-309.5" font-family="Helvetica,sans-Serif" font-size="10.00" fill="#000000">/actuator/aero/AirfoilTableI.H</text>
</a>
</g>
</g>
<!-- Node0&#45;&gt;Node21 -->
<g id="edge32" class="edge">
<title>Node0&#45;&gt;Node21</title>
<path fill="none" stroke="#191970" d="M427.7405,-369.3906C443.6709,-360.7205 469.7064,-347.7046 492.5641,-336.8779"/>
<polygon fill="#191970" stroke="#191970" points="494.2309,-339.9619 501.7963,-332.5446 491.2567,-333.6252 494.2309,-339.9619"/>
</g>
<!-- Node2 -->
<g id="node3" class="node">
<title>Node2</title>
<g id="a_node3"><a xlink:href="_slice_8_h.html" target="_top" xlink:title="amr&#45;wind/core/Slice.H">
<polygon fill="#ffffff" stroke="#000000" points="30.7718,-241 30.7718,-260 153.7718,-260 153.7718,-241 30.7718,-241"/>
<text text-anchor="middle" x="92.2718" y="-248" font-family="Helvetica,sans-Serif" font-size="10.00" fill="#000000">amr&#45;wind/core/Slice.H</text>
</a>
</g>
</g>
<!-- Node1&#45;&gt;Node2 -->
<g id="edge2" class="edge">
<title>Node1&#45;&gt;Node2</title>
<path fill="none" stroke="#191970" d="M195.424,-302.4639C173.0078,-291.1715 142.5112,-275.8086 120.4979,-264.7192"/>
<polygon fill="#191970" stroke="#191970" points="121.8417,-261.4772 111.3363,-260.1039 118.6924,-267.7287 121.8417,-261.4772"/>
</g>
<!-- Node5 -->
<g id="node6" class="node">
<title>Node5</title>
<polygon fill="#ffffff" stroke="#bfbfbf" points="34.2718,-.5 34.2718,-19.5 120.2718,-19.5 120.2718,-.5 34.2718,-.5"/>
<text text-anchor="middle" x="77.2718" y="-7.5" font-family="Helvetica,sans-Serif" font-size="10.00" fill="#000000">AMReX_Gpu.H</text>
</g>
<!-- Node1&#45;&gt;Node5 -->
<g id="edge27" class="edge">
<title>Node1&#45;&gt;Node5</title>
<path fill="none" stroke="#191970" d="M152.2166,-307.059C101.4996,-298.3658 39.835,-284.4367 21.2718,-266 -3.8153,-241.0839 1.2718,-224.3578 1.2718,-189 1.2718,-189 1.2718,-189 1.2718,-133 1.2718,-89.4388 36.1961,-48.4145 58.6953,-26.5053"/>
<polygon fill="#191970" stroke="#191970" points="61.1717,-28.981 66.0577,-19.5801 56.3756,-23.8822 61.1717,-28.981"/>
</g>
<!-- Node6 -->
<g id="node7" class="node">
<title>Node6</title>
<g id="a_node7"><a xlink:href="vector__space_8_h.html" target="_top" xlink:title="amr&#45;wind/core/vs/vector\l_space.H">
<polygon fill="#ffffff" stroke="#000000" points="346.2718,-235.5 346.2718,-265.5 480.2718,-265.5 480.2718,-235.5 346.2718,-235.5"/>
<text text-anchor="start" x="354.2718" y="-253.5" font-family="Helvetica,sans-Serif" font-size="10.00" fill="#000000">amr&#45;wind/core/vs/vector</text>
<text text-anchor="middle" x="413.2718" y="-242.5" font-family="Helvetica,sans-Serif" font-size="10.00" fill="#000000">_space.H</text>
</a>
</g>
</g>
<!-- Node1&#45;&gt;Node6 -->
<g id="edge6" class="edge">
<title>Node1&#45;&gt;Node6</title>
<path fill="none" stroke="#191970" d="M267.4626,-302.4639C295.1829,-292.5849 331.6448,-279.5905 361.1719,-269.0675"/>
<polygon fill="#191970" stroke="#191970" points="362.6522,-272.2557 370.8969,-265.6017 360.3022,-265.6619 362.6522,-272.2557"/>
</g>
<!-- Node17 -->
<g id="node18" class="node">
<title>Node17</title>
<polygon fill="#ffffff" stroke="#bfbfbf" points="172.2718,-241 172.2718,-260 278.2718,-260 278.2718,-241 172.2718,-241"/>
<text text-anchor="middle" x="225.2718" y="-248" font-family="Helvetica,sans-Serif" font-size="10.00" fill="#000000">AMReX_RealBox.H</text>
</g>
<!-- Node1&#45;&gt;Node17 -->
<g id="edge28" class="edge">
<title>Node1&#45;&gt;Node17</title>
<path fill="none" stroke="#191970" d="M225.2718,-302.2967C225.2718,-292.7699 225.2718,-280.3954 225.2718,-270.1306"/>
<polygon fill="#191970" stroke="#191970" points="228.7719,-270.0549 225.2718,-260.055 221.7719,-270.055 228.7719,-270.0549"/>
</g>
<!-- Node18 -->
<g id="node19" class="node">
<title>Node18</title>
<polygon fill="#ffffff" stroke="#bfbfbf" points="296.2718,-241 296.2718,-260 328.2718,-260 328.2718,-241 296.2718,-241"/>
<text text-anchor="middle" x="312.2718" y="-248" font-family="Helvetica,sans-Serif" font-size="10.00" fill="#000000">set</text>
</g>
<!-- Node1&#45;&gt;Node18 -->
<g id="edge29" class="edge">
<title>Node1&#45;&gt;Node18</title>
<path fill="none" stroke="#191970" d="M245.0134,-302.2967C258.9632,-291.5537 277.6152,-277.1895 291.7386,-266.3129"/>
<polygon fill="#191970" stroke="#191970" points="294.0772,-268.9295 299.8646,-260.055 289.8062,-263.3835 294.0772,-268.9295"/>
</g>
<!-- Node3 -->
<g id="node4" class="node">
<title>Node3</title>
<polygon fill="#ffffff" stroke="#bfbfbf" points="67.7718,-179.5 67.7718,-198.5 120.7718,-198.5 120.7718,-179.5 67.7718,-179.5"/>
<text text-anchor="middle" x="94.2718" y="-186.5" font-family="Helvetica,sans-Serif" font-size="10.00" fill="#000000">iterator</text>
</g>
<!-- Node2&#45;&gt;Node3 -->
<g id="edge3" class="edge">
<title>Node2&#45;&gt;Node3</title>
<path fill="none" stroke="#191970" d="M92.5843,-240.8906C92.8615,-232.3657 93.2754,-219.6392 93.6239,-208.9235"/>
<polygon fill="#191970" stroke="#191970" points="97.1279,-208.8534 93.9549,-198.7449 90.1316,-208.6258 97.1279,-208.8534"/>
</g>
<!-- Node4 -->
<g id="node5" class="node">
<title>Node4</title>
<polygon fill="#ffffff" stroke="#bfbfbf" points="139.2718,-179.5 139.2718,-198.5 235.2718,-198.5 235.2718,-179.5 139.2718,-179.5"/>
<text text-anchor="middle" x="187.2718" y="-186.5" font-family="Helvetica,sans-Serif" font-size="10.00" fill="#000000">AMReX_Vector.H</text>
</g>
<!-- Node2&#45;&gt;Node4 -->
<g id="edge4" class="edge">
<title>Node2&#45;&gt;Node4</title>
<path fill="none" stroke="#191970" d="M107.1155,-240.8906C122.3136,-231.0519 146.1566,-215.6167 163.8924,-204.1351"/>
<polygon fill="#191970" stroke="#191970" points="166.0398,-206.9144 172.5323,-198.5419 162.2357,-201.0382 166.0398,-206.9144"/>
</g>
<!-- Node2&#45;&gt;Node5 -->
<g id="edge5" class="edge">
<title>Node2&#45;&gt;Node5</title>
<path fill="none" stroke="#191970" d="M83.2795,-240.7645C74.9509,-231.03 63.1407,-215.2123 58.2718,-199 40.2975,-139.1503 59.3426,-64.3491 70.4515,-29.5225"/>
<polygon fill="#191970" stroke="#191970" points="73.887,-30.283 73.7224,-19.6894 67.2448,-28.0735 73.887,-30.283"/>
</g>
<!-- Node7 -->
<g id="node8" class="node">
<title>Node7</title>
<g id="a_node8"><a xlink:href="vector_8_h.html" target="_top" xlink:title="amr&#45;wind/core/vs/vector.H">
<polygon fill="#ffffff" stroke="#000000" points="390.2718,-123.5 390.2718,-142.5 534.2718,-142.5 534.2718,-123.5 390.2718,-123.5"/>
<text text-anchor="middle" x="462.2718" y="-130.5" font-family="Helvetica,sans-Serif" font-size="10.00" fill="#000000">amr&#45;wind/core/vs/vector.H</text>
</a>
</g>
</g>
<!-- Node6&#45;&gt;Node7 -->
<g id="edge7" class="edge">
<title>Node6&#45;&gt;Node7</title>
<path fill="none" stroke="#191970" d="M419.6777,-235.1389C428.5861,-213.7768 444.7059,-175.1224 454.3559,-151.982"/>
<polygon fill="#191970" stroke="#191970" points="457.6666,-153.1362 458.2853,-142.5595 451.2059,-150.4419 457.6666,-153.1362"/>
</g>
<!-- Node14 -->
<g id="node15" class="node">
<title>Node14</title>
<g id="a_node15"><a xlink:href="tensor_8_h.html" target="_top" xlink:title="amr&#45;wind/core/vs/tensor.H">
<polygon fill="#ffffff" stroke="#000000" points="278.2718,-179.5 278.2718,-198.5 422.2718,-198.5 422.2718,-179.5 278.2718,-179.5"/>
<text text-anchor="middle" x="350.2718" y="-186.5" font-family="Helvetica,sans-Serif" font-size="10.00" fill="#000000">amr&#45;wind/core/vs/tensor.H</text>
</a>
</g>
</g>
<!-- Node6&#45;&gt;Node14 -->
<g id="edge16" class="edge">
<title>Node6&#45;&gt;Node14</title>
<path fill="none" stroke="#191970" d="M397.6987,-235.2977C388.5893,-226.4052 377.0683,-215.1586 367.6627,-205.9769"/>
<polygon fill="#191970" stroke="#191970" points="369.9595,-203.3278 360.3589,-198.8469 365.0698,-208.3368 369.9595,-203.3278"/>
</g>
<!-- Node7&#45;&gt;Node5 -->
<g id="edge8" class="edge">
<title>Node7&#45;&gt;Node5</title>
<path fill="none" stroke="#191970" d="M390.2635,-125.8801C300.4003,-116.5363 155.8332,-99.8206 134.2718,-87 111.4742,-73.4444 94.961,-46.8983 85.749,-28.806"/>
<polygon fill="#191970" stroke="#191970" points="88.8839,-27.2489 81.3888,-19.7606 82.5782,-30.2885 88.8839,-27.2489"/>
</g>
<!-- Node8 -->
<g id="node9" class="node">
<title>Node8</title>
<g id="a_node9"><a xlink:href="vstraits_8_h.html" target="_top" xlink:title="amr&#45;wind/core/vs/vstraits.H">
<polygon fill="#ffffff" stroke="#000000" points="301.7718,-62 301.7718,-81 452.7718,-81 452.7718,-62 301.7718,-62"/>
<text text-anchor="middle" x="377.2718" y="-69" font-family="Helvetica,sans-Serif" font-size="10.00" fill="#000000">amr&#45;wind/core/vs/vstraits.H</text>
</a>
</g>
</g>
<!-- Node7&#45;&gt;Node8 -->
<g id="edge9" class="edge">
<title>Node7&#45;&gt;Node8</title>
<path fill="none" stroke="#191970" d="M448.9905,-123.3906C435.517,-113.6421 414.4498,-98.3994 398.6283,-86.9521"/>
<polygon fill="#191970" stroke="#191970" points="400.6132,-84.0682 390.4598,-81.0419 396.5099,-89.7394 400.6132,-84.0682"/>
</g>
<!-- Node11 -->
<g id="node12" class="node">
<title>Node11</title>
<g id="a_node12"><a xlink:href="vector_i_8_h.html" target="_top" xlink:title="amr&#45;wind/core/vs/vectorI.H">
<polygon fill="#ffffff" stroke="#000000" points="471.2718,-62 471.2718,-81 619.2718,-81 619.2718,-62 471.2718,-62"/>
<text text-anchor="middle" x="545.2718" y="-69" font-family="Helvetica,sans-Serif" font-size="10.00" fill="#000000">amr&#45;wind/core/vs/vectorI.H</text>
</a>
</g>
</g>
<!-- Node7&#45;&gt;Node11 -->
<g id="edge12" class="edge">
<title>Node7&#45;&gt;Node11</title>
<path fill="none" stroke="#191970" d="M470.178,-123.3906C481.5366,-113.5519 502.0861,-98.1167 518.9378,-86.6351"/>
<polygon fill="#191970" stroke="#191970" points="520.9577,-89.4951 527.3448,-81.0419 517.0803,-83.667 520.9577,-89.4951"/>
</g>
<!-- Node9 -->
<g id="node10" class="node">
<title>Node9</title>
<polygon fill="#ffffff" stroke="#bfbfbf" points="355.2718,-.5 355.2718,-19.5 399.2718,-19.5 399.2718,-.5 355.2718,-.5"/>
<text text-anchor="middle" x="377.2718" y="-7.5" font-family="Helvetica,sans-Serif" font-size="10.00" fill="#000000">limits</text>
</g>
<!-- Node8&#45;&gt;Node9 -->
<g id="edge10" class="edge">
<title>Node8&#45;&gt;Node9</title>
<path fill="none" stroke="#191970" d="M377.2718,-61.8906C377.2718,-53.3657 377.2718,-40.6392 377.2718,-29.9235"/>
<polygon fill="#191970" stroke="#191970" points="380.7719,-29.7448 377.2718,-19.7449 373.7719,-29.7449 380.7719,-29.7448"/>
</g>
<!-- Node10 -->
<g id="node11" class="node">
<title>Node10</title>
<polygon fill="#ffffff" stroke="#bfbfbf" points="148.7718,-.5 148.7718,-19.5 239.7718,-19.5 239.7718,-.5 148.7718,-.5"/>
<text text-anchor="middle" x="194.2718" y="-7.5" font-family="Helvetica,sans-Serif" font-size="10.00" fill="#000000">AMReX_REAL.H</text>
</g>
<!-- Node8&#45;&gt;Node10 -->
<g id="edge11" class="edge">
<title>Node8&#45;&gt;Node10</title>
<path fill="none" stroke="#191970" d="M348.678,-61.8906C317.3873,-51.3749 267.0732,-34.466 232.4318,-22.8243"/>
<polygon fill="#191970" stroke="#191970" points="233.2588,-19.4099 222.6647,-19.5419 231.0288,-26.0452 233.2588,-19.4099"/>
</g>
<!-- Node11&#45;&gt;Node7 -->
<g id="edge15" class="edge">
<title>Node11&#45;&gt;Node7</title>
<path fill="none" stroke="#191970" d="M537.2089,-81.2449C525.8334,-91.0768 505.4324,-106.3968 488.67,-117.8212"/>
<polygon fill="#191970" stroke="#191970" points="486.688,-114.9359 480.303,-123.3906 490.5669,-120.763 486.688,-114.9359"/>
</g>
<!-- Node12 -->
<g id="node13" class="node">
<title>Node12</title>
<polygon fill="#ffffff" stroke="#bfbfbf" points="516.7718,-.5 516.7718,-19.5 573.7718,-19.5 573.7718,-.5 516.7718,-.5"/>
<text text-anchor="middle" x="545.2718" y="-7.5" font-family="Helvetica,sans-Serif" font-size="10.00" fill="#000000">ostream</text>
</g>
<!-- Node11&#45;&gt;Node12 -->
<g id="edge13" class="edge">
<title>Node11&#45;&gt;Node12</title>
<path fill="none" stroke="#191970" d="M545.2718,-61.8906C545.2718,-53.3657 545.2718,-40.6392 545.2718,-29.9235"/>
<polygon fill="#191970" stroke="#191970" points="548.7719,-29.7448 545.2718,-19.7449 541.7719,-29.7449 548.7719,-29.7448"/>
</g>
<!-- Node13 -->
<g id="node14" class="node">
<title>Node13</title>
<polygon fill="#ffffff" stroke="#bfbfbf" points="257.7718,-.5 257.7718,-19.5 304.7718,-19.5 304.7718,-.5 257.7718,-.5"/>
<text text-anchor="middle" x="281.2718" y="-7.5" font-family="Helvetica,sans-Serif" font-size="10.00" fill="#000000">cmath</text>
</g>
<!-- Node11&#45;&gt;Node13 -->
<g id="edge14" class="edge">
<title>Node11&#45;&gt;Node13</title>
<path fill="none" stroke="#191970" d="M504.3114,-61.9581C452.2288,-49.8252 363.2781,-29.1037 314.9429,-17.8438"/>
<polygon fill="#191970" stroke="#191970" points="315.523,-14.3853 304.9897,-15.5252 313.9348,-21.2028 315.523,-14.3853"/>
</g>
<!-- Node14&#45;&gt;Node5 -->
<g id="edge17" class="edge">
<title>Node14&#45;&gt;Node5</title>
<path fill="none" stroke="#191970" d="M294.328,-179.4917C259.5414,-172.2917 214.5059,-160.5872 177.2718,-143 138.6839,-124.7734 123.8317,-121.9005 99.2718,-87 87.3101,-70.002 81.8164,-46.5972 79.3158,-30.0655"/>
<polygon fill="#191970" stroke="#191970" points="82.7543,-29.36 78.02,-19.8818 75.8103,-30.2436 82.7543,-29.36"/>
</g>
<!-- Node14&#45;&gt;Node7 -->
<g id="edge19" class="edge">
<title>Node14&#45;&gt;Node7</title>
<path fill="none" stroke="#191970" d="M369.5253,-179.3733C387.3429,-170.4644 414.0464,-157.1127 434.2312,-147.0203"/>
<polygon fill="#191970" stroke="#191970" points="435.8905,-150.1038 443.2695,-142.5011 432.76,-143.8428 435.8905,-150.1038"/>
</g>
<!-- Node14&#45;&gt;Node8 -->
<g id="edge18" class="edge">
<title>Node14&#45;&gt;Node8</title>
<path fill="none" stroke="#191970" d="M352.4813,-179.3845C356.8916,-160.1913 366.8656,-116.786 372.7297,-91.2663"/>
<polygon fill="#191970" stroke="#191970" points="376.2032,-91.7782 375.0317,-81.2484 369.381,-90.2105 376.2032,-91.7782"/>
</g>
<!-- Node15 -->
<g id="node16" class="node">
<title>Node15</title>
<g id="a_node16"><a xlink:href="tensor_i_8_h.html" target="_top" xlink:title="amr&#45;wind/core/vs/tensorI.H">
<polygon fill="#ffffff" stroke="#000000" points="186.2718,-123.5 186.2718,-142.5 334.2718,-142.5 334.2718,-123.5 186.2718,-123.5"/>
<text text-anchor="middle" x="260.2718" y="-130.5" font-family="Helvetica,sans-Serif" font-size="10.00" fill="#000000">amr&#45;wind/core/vs/tensorI.H</text>
</a>
</g>
</g>
<!-- Node14&#45;&gt;Node15 -->
<g id="edge20" class="edge">
<title>Node14&#45;&gt;Node15</title>
<path fill="none" stroke="#191970" d="M329.3281,-179.2455C314.0048,-170.7337 293.644,-158.2375 278.8903,-148.3801"/>
<polygon fill="#191970" stroke="#191970" points="280.7504,-145.4117 270.5238,-142.6427 276.7915,-151.1847 280.7504,-145.4117"/>
</g>
<!-- Node15&#45;&gt;Node13 -->
<g id="edge21" class="edge">
<title>Node15&#45;&gt;Node13</title>
<path fill="none" stroke="#191970" d="M261.9196,-123.3484C265.3545,-103.2295 273.3394,-56.4608 277.9067,-29.7098"/>
<polygon fill="#191970" stroke="#191970" points="281.3986,-30.0532 279.6316,-19.6068 274.4985,-28.8751 281.3986,-30.0532"/>
</g>
<!-- Node15&#45;&gt;Node14 -->
<g id="edge22" class="edge">
<title>Node15&#45;&gt;Node14</title>
<path fill="none" stroke="#191970" d="M281.0141,-142.6427C296.293,-151.1194 316.6561,-163.6096 331.4588,-173.49"/>
<polygon fill="#191970" stroke="#191970" points="329.6337,-176.4822 339.8618,-179.2455 333.5893,-170.707 329.6337,-176.4822"/>
</g>
<!-- Node16 -->
<g id="node17" class="node">
<title>Node16</title>
<g id="a_node17"><a xlink:href="trig__ops_8_h.html" target="_top" xlink:title="Trigonometric utilities. ">
<polygon fill="#ffffff" stroke="#000000" points="143.2718,-56.5 143.2718,-86.5 245.2718,-86.5 245.2718,-56.5 143.2718,-56.5"/>
<text text-anchor="start" x="151.2718" y="-74.5" font-family="Helvetica,sans-Serif" font-size="10.00" fill="#000000">amr&#45;wind/utilities</text>
<text text-anchor="middle" x="194.2718" y="-63.5" font-family="Helvetica,sans-Serif" font-size="10.00" fill="#000000">/trig_ops.H</text>
</a>
</g>
</g>
<!-- Node15&#45;&gt;Node16 -->
<g id="edge23" class="edge">
<title>Node15&#45;&gt;Node16</title>
<path fill="none" stroke="#191970" d="M249.9593,-123.3906C241.3578,-115.3756 228.7706,-103.6466 217.7384,-93.3666"/>
<polygon fill="#191970" stroke="#191970" points="220.1193,-90.8012 210.4172,-86.5446 215.3472,-95.9225 220.1193,-90.8012"/>
</g>
<!-- Node16&#45;&gt;Node5 -->
<g id="edge26" class="edge">
<title>Node16&#45;&gt;Node5</title>
<path fill="none" stroke="#191970" d="M165.6504,-56.4554C146.9848,-46.644 122.7719,-33.9167 104.4106,-24.2653"/>
<polygon fill="#191970" stroke="#191970" points="105.8828,-21.0851 95.4026,-19.5303 102.6258,-27.2812 105.8828,-21.0851"/>
</g>
<!-- Node16&#45;&gt;Node10 -->
<g id="edge25" class="edge">
<title>Node16&#45;&gt;Node10</title>
<path fill="none" stroke="#191970" d="M194.2718,-56.2977C194.2718,-48.3834 194.2718,-38.6043 194.2718,-30.0759"/>
<polygon fill="#191970" stroke="#191970" points="197.7719,-29.8469 194.2718,-19.8469 190.7719,-29.847 197.7719,-29.8469"/>
</g>
<!-- Node16&#45;&gt;Node13 -->
<g id="edge24" class="edge">
<title>Node16&#45;&gt;Node13</title>
<path fill="none" stroke="#191970" d="M215.7774,-56.2977C229.0686,-46.9022 246.0775,-34.8787 259.4306,-25.4395"/>
<polygon fill="#191970" stroke="#191970" points="261.4563,-28.2937 267.6018,-19.6633 257.4156,-22.5776 261.4563,-28.2937"/>
</g>
<!-- Node21&#45;&gt;Node0 -->
<g id="edge33" class="edge">
<title>Node21&#45;&gt;Node0</title>
<path fill="none" stroke="#191970" d="M513.5904,-332.5446C494.5236,-342.5093 468.105,-355.4819 447.0933,-365.185"/>
<polygon fill="#191970" stroke="#191970" points="445.5135,-362.0586 437.8655,-369.3906 448.4166,-368.4282 445.5135,-362.0586"/>
</g>
<!-- Node22 -->
<g id="node23" class="node">
<title>Node22</title>
<polygon fill="#ffffff" stroke="#bfbfbf" points="516.2718,-241 516.2718,-260 560.2718,-260 560.2718,-241 516.2718,-241"/>
<text text-anchor="middle" x="538.2718" y="-248" font-family="Helvetica,sans-Serif" font-size="10.00" fill="#000000">string</text>
</g>
<!-- Node21&#45;&gt;Node22 -->
<g id="edge34" class="edge">
<title>Node21&#45;&gt;Node22</title>
<path fill="none" stroke="#191970" d="M538.2718,-302.2967C538.2718,-292.7699 538.2718,-280.3954 538.2718,-270.1306"/>
<polygon fill="#191970" stroke="#191970" points="541.7719,-270.0549 538.2718,-260.055 534.7719,-270.055 541.7719,-270.0549"/>
</g>
</g>
</svg>
        <g id="navigator" transform="translate(0 0)" fill="#404254">
                <rect fill="#f2f5e9" fill-opacity="0.5" stroke="#606060" stroke-width=".5" x="0" y="0" width="60" height="60"/>
                <use id="zoomplus" xlink:href="#zoomPlus" x="17" y="9" onmousedown="handleZoom(evt,'in')"/>
                <use id="zoomminus" xlink:href="#zoomMin" x="42" y="9" onmousedown="handleZoom(evt,'out')"/>
                <use id="reset" xlink:href="#resetDef" x="30" y="36" onmousedown="handleReset()"/>
                <g id="arrowUp" xlink:href="#dirArrow" transform="translate(30 24)" onmousedown="handlePan(0,-1)">
                  <use xlink:href="#rim" fill="#404040">
                        <set attributeName="fill" to="#808080" begin="arrowUp.mouseover" end="arrowUp.mouseout"/>
                  </use>
                  <path fill="none" stroke="white" stroke-width="1.5" d="M0,-3.0v7 M-2.5,-0.5L0,-3.0L2.5,-0.5"/>
                </g>
                <g id="arrowRight" xlink:href="#dirArrow" transform="rotate(90) translate(36 -43)" onmousedown="handlePan(1,0)">
                  <use xlink:href="#rim" fill="#404040">
                        <set attributeName="fill" to="#808080" begin="arrowRight.mouseover" end="arrowRight.mouseout"/>
                  </use>
                  <path fill="none" stroke="white" stroke-width="1.5" d="M0,-3.0v7 M-2.5,-0.5L0,-3.0L2.5,-0.5"/>
                </g>
                <g id="arrowDown" xlink:href="#dirArrow" transform="rotate(180) translate(-30 -48)" onmousedown="handlePan(0,1)">
                  <use xlink:href="#rim" fill="#404040">
                        <set attributeName="fill" to="#808080" begin="arrowDown.mouseover" end="arrowDown.mouseout"/>
                  </use>
                  <path fill="none" stroke="white" stroke-width="1.5" d="M0,-3.0v7 M-2.5,-0.5L0,-3.0L2.5,-0.5"/>
                </g>
                <g id="arrowLeft" xlink:href="#dirArrow" transform="rotate(270) translate(-36 17)" onmousedown="handlePan(-1,0)">
                  <use xlink:href="#rim" fill="#404040">
                        <set attributeName="fill" to="#808080" begin="arrowLeft.mouseover" end="arrowLeft.mouseout"/>
                  </use>
                  <path fill="none" stroke="white" stroke-width="1.5" d="M0,-3.0v7 M-2.5,-0.5L0,-3.0L2.5,-0.5"/>
                </g>
        </g>
        <svg viewBox="0 0 15 15" width="100%" height="30px" preserveAspectRatio="xMaxYMin meet">
         <g id="arrow_out" transform="scale(0.3 0.3)">
          <a xlink:href="_airfoil_table_8_h__incl_org.svg" target="_base">
           <rect id="button" ry="5" rx="5" y="6" x="6" height="38" width="38"
                fill="#f2f5e9" fill-opacity="0.5" stroke="#606060" stroke-width="1.0"/>
           <path id="arrow"
             d="M 11.500037,31.436501 C 11.940474,20.09759 22.043105,11.32322 32.158766,21.979434 L 37.068811,17.246167 C 37.068811,17.246167 37.088388,32 37.088388,32 L 22.160133,31.978069 C 22.160133,31.978069 26.997745,27.140456 26.997745,27.140456 C 18.528582,18.264221 13.291696,25.230495 11.500037,31.436501 z"
             style="fill:#404040;"/>
          </a>
         </g>
        </svg>
</svg>
