<?xml version="1.0" encoding="UTF-8" standalone="no"?>
<!DOCTYPE svg PUBLIC "-//W3C//DTD SVG 1.1//EN"
 "http://www.w3.org/Graphics/SVG/1.1/DTD/svg11.dtd">
<!-- Generated by graphviz version 2.40.1 (20161225.0304)
 -->
<!-- Title: AirfoilTable.H Pages: 1 -->
<svg width="551pt" height="196pt"
 viewBox="0.00 0.00 551.00 196.00" xmlns="http://www.w3.org/2000/svg" xmlns:xlink="http://www.w3.org/1999/xlink">
<g id="graph0" class="graph" transform="scale(1 1) rotate(0) translate(4 192)">
<title>AirfoilTable.H</title>
<polygon fill="#ffffff" stroke="transparent" points="-4,4 -4,-192 547,-192 547,4 -4,4"/>
<!-- Node23 -->
<g id="node1" class="node">
<title>Node23</title>
<polygon fill="#bfbfbf" stroke="#000000" points="161,-168.5 161,-187.5 243,-187.5 243,-168.5 161,-168.5"/>
<text text-anchor="middle" x="202" y="-175.5" font-family="Helvetica,sans-Serif" font-size="10.00" fill="#000000">AirfoilTable.H</text>
</g>
<!-- Node24 -->
<g id="node2" class="node">
<title>Node24</title>
<g id="a_node2"><a xlink:href="_airfoil_table_8cpp.html" target="_top" xlink:title="AirfoilTable.cpp">
<polygon fill="#ffffff" stroke="#000000" points="0,-112.5 0,-131.5 92,-131.5 92,-112.5 0,-112.5"/>
<text text-anchor="middle" x="46" y="-119.5" font-family="Helvetica,sans-Serif" font-size="10.00" fill="#000000">AirfoilTable.cpp</text>
</a>
</g>
</g>
<!-- Node23&#45;&gt;Node24 -->
<g id="edge1" class="edge">
<title>Node23&#45;&gt;Node24</title>
<path fill="none" stroke="#191970" d="M165.5716,-164.9231C137.0539,-154.686 98.0619,-140.6889 72.4674,-131.5011"/>
<polygon fill="#191970" stroke="#191970" points="164.5881,-168.2887 175.1826,-168.3733 166.9532,-161.7004 164.5881,-168.2887"/>
</g>
<!-- Node25 -->
<g id="node3" class="node">
<title>Node25</title>
<g id="a_node3"><a xlink:href="_airfoil_table_i_8_h.html" target="_top" xlink:title="AirfoilTableI.H">
<polygon fill="#ffffff" stroke="#000000" points="110.5,-112.5 110.5,-131.5 195.5,-131.5 195.5,-112.5 110.5,-112.5"/>
<text text-anchor="middle" x="153" y="-119.5" font-family="Helvetica,sans-Serif" font-size="10.00" fill="#000000">AirfoilTableI.H</text>
</a>
</g>
</g>
<!-- Node23&#45;&gt;Node25 -->
<g id="edge2" class="edge">
<title>Node23&#45;&gt;Node25</title>
<path fill="none" stroke="#191970" d="M180.9338,-161.0751C171.6003,-151.4402 161.682,-139.7196 156.1922,-131.6427"/>
<polygon fill="#191970" stroke="#191970" points="178.6224,-163.7114 188.198,-168.2455 183.5399,-158.7296 178.6224,-163.7114"/>
</g>
<!-- Node26 -->
<g id="node4" class="node">
<title>Node26</title>
<g id="a_node4"><a xlink:href="_fixed_wing_8_h.html" target="_top" xlink:title="FixedWing.H">
<polygon fill="#ffffff" stroke="#000000" points="213.5,-112.5 213.5,-131.5 290.5,-131.5 290.5,-112.5 213.5,-112.5"/>
<text text-anchor="middle" x="252" y="-119.5" font-family="Helvetica,sans-Serif" font-size="10.00" fill="#000000">FixedWing.H</text>
</a>
</g>
</g>
<!-- Node23&#45;&gt;Node26 -->
<g id="edge4" class="edge">
<title>Node23&#45;&gt;Node26</title>
<path fill="none" stroke="#191970" d="M217.6247,-160.5004C226.1273,-150.9775 236.3218,-139.5596 243.3905,-131.6427"/>
<polygon fill="#191970" stroke="#191970" points="214.7587,-158.4551 210.7093,-168.2455 219.9803,-163.1172 214.7587,-158.4551"/>
</g>
<!-- Node29 -->
<g id="node7" class="node">
<title>Node29</title>
<g id="a_node7"><a xlink:href="wing__ops_8_h.html" target="_top" xlink:title="wing_ops.H">
<polygon fill="#ffffff" stroke="#000000" points="317.5,-112.5 317.5,-131.5 390.5,-131.5 390.5,-112.5 317.5,-112.5"/>
<text text-anchor="middle" x="354" y="-119.5" font-family="Helvetica,sans-Serif" font-size="10.00" fill="#000000">wing_ops.H</text>
</a>
</g>
</g>
<!-- Node23&#45;&gt;Node29 -->
<g id="edge8" class="edge">
<title>Node23&#45;&gt;Node29</title>
<path fill="none" stroke="#191970" d="M237.859,-164.7888C265.6123,-154.5639 303.3819,-140.6488 328.2112,-131.5011"/>
<polygon fill="#191970" stroke="#191970" points="236.3032,-161.6319 228.1297,-168.3733 238.7232,-168.2003 236.3032,-161.6319"/>
</g>
<!-- Node33 -->
<g id="node11" class="node">
<title>Node33</title>
<g id="a_node11"><a xlink:href="_flat_plate_8_h.html" target="_top" xlink:title="FlatPlate.H">
<polygon fill="#ffffff" stroke="#000000" points="430,-112.5 430,-131.5 500,-131.5 500,-112.5 430,-112.5"/>
<text text-anchor="middle" x="465" y="-119.5" font-family="Helvetica,sans-Serif" font-size="10.00" fill="#000000">FlatPlate.H</text>
</a>
</g>
</g>
<!-- Node23&#45;&gt;Node33 -->
<g id="edge13" class="edge">
<title>Node23&#45;&gt;Node33</title>
<path fill="none" stroke="#191970" d="M253.1087,-167.1175C305.0865,-156.05 384.2553,-139.1928 429.6672,-129.5233"/>
<polygon fill="#191970" stroke="#191970" points="252.1456,-163.7441 243.0938,-169.25 253.6034,-170.5906 252.1456,-163.7441"/>
</g>
<!-- Node25&#45;&gt;Node23 -->
<g id="edge3" class="edge">
<title>Node25&#45;&gt;Node23</title>
<path fill="none" stroke="#191970" d="M173.9373,-138.7919C183.2654,-148.4075 193.2013,-160.1352 198.7317,-168.2455"/>
<polygon fill="#191970" stroke="#191970" points="176.2619,-136.1688 166.6825,-131.6427 171.3485,-141.1547 176.2619,-136.1688"/>
</g>
<!-- Node27 -->
<g id="node5" class="node">
<title>Node27</title>
<g id="a_node5"><a xlink:href="fixed__wing__ops_8_h.html" target="_top" xlink:title="fixed_wing_ops.H">
<polygon fill="#ffffff" stroke="#000000" points="196,-56.5 196,-75.5 298,-75.5 298,-56.5 196,-56.5"/>
<text text-anchor="middle" x="247" y="-63.5" font-family="Helvetica,sans-Serif" font-size="10.00" fill="#000000">fixed_wing_ops.H</text>
</a>
</g>
</g>
<!-- Node26&#45;&gt;Node27 -->
<g id="edge5" class="edge">
<title>Node26&#45;&gt;Node27</title>
<path fill="none" stroke="#191970" d="M250.2283,-102.1575C249.4246,-93.155 248.5107,-82.9199 247.861,-75.6427"/>
<polygon fill="#191970" stroke="#191970" points="246.7535,-102.5965 251.1291,-112.2455 253.7258,-101.9739 246.7535,-102.5965"/>
</g>
<!-- Node28 -->
<g id="node6" class="node">
<title>Node28</title>
<g id="a_node6"><a xlink:href="_fixed_wing_8cpp.html" target="_top" xlink:title="FixedWing.cpp">
<polygon fill="#ffffff" stroke="#000000" points="164.5,-.5 164.5,-19.5 251.5,-19.5 251.5,-.5 164.5,-.5"/>
<text text-anchor="middle" x="208" y="-7.5" font-family="Helvetica,sans-Serif" font-size="10.00" fill="#000000">FixedWing.cpp</text>
</a>
</g>
</g>
<!-- Node26&#45;&gt;Node28 -->
<g id="edge7" class="edge">
<title>Node26&#45;&gt;Node28</title>
<path fill="none" stroke="#191970" d="M219.8663,-107.5718C207.2195,-100.0964 194.0546,-89.635 187,-76 177.2751,-57.2039 190.8477,-33.0571 200.2803,-19.8009"/>
<polygon fill="#191970" stroke="#191970" points="218.4334,-110.7769 228.8888,-112.4901 221.7837,-104.6308 218.4334,-110.7769"/>
</g>
<!-- Node27&#45;&gt;Node28 -->
<g id="edge6" class="edge">
<title>Node27&#45;&gt;Node28</title>
<path fill="none" stroke="#191970" d="M234.4092,-47.9209C227.8605,-38.5176 220.1176,-27.3997 214.7154,-19.6427"/>
<polygon fill="#191970" stroke="#191970" points="231.6196,-50.0397 240.2067,-56.2455 237.3639,-46.0392 231.6196,-50.0397"/>
</g>
<!-- Node29&#45;&gt;Node27 -->
<g id="edge9" class="edge">
<title>Node29&#45;&gt;Node27</title>
<path fill="none" stroke="#191970" d="M326.4801,-107.5971C307.2983,-97.558 282.2322,-84.4393 265.4244,-75.6427"/>
<polygon fill="#191970" stroke="#191970" points="324.8791,-110.7095 335.362,-112.2455 328.125,-104.5075 324.8791,-110.7095"/>
</g>
<!-- Node30 -->
<g id="node8" class="node">
<title>Node30</title>
<g id="a_node8"><a xlink:href="flat__plate__ops_8_h.html" target="_top" xlink:title="flat_plate_ops.H">
<polygon fill="#ffffff" stroke="#000000" points="417.5,-56.5 417.5,-75.5 512.5,-75.5 512.5,-56.5 417.5,-56.5"/>
<text text-anchor="middle" x="465" y="-63.5" font-family="Helvetica,sans-Serif" font-size="10.00" fill="#000000">flat_plate_ops.H</text>
</a>
</g>
</g>
<!-- Node29&#45;&gt;Node30 -->
<g id="edge10" class="edge">
<title>Node29&#45;&gt;Node30</title>
<path fill="none" stroke="#191970" d="M382.0734,-107.8368C402.1385,-97.7139 428.5922,-84.3679 446.1674,-75.5011"/>
<polygon fill="#191970" stroke="#191970" points="380.4332,-104.7441 373.0816,-112.3733 383.5862,-110.9938 380.4332,-104.7441"/>
</g>
<!-- Node32 -->
<g id="node10" class="node">
<title>Node32</title>
<g id="a_node10"><a xlink:href="wing__ops_8cpp.html" target="_top" xlink:title="wing_ops.cpp">
<polygon fill="#ffffff" stroke="#000000" points="316.5,-56.5 316.5,-75.5 399.5,-75.5 399.5,-56.5 316.5,-56.5"/>
<text text-anchor="middle" x="358" y="-63.5" font-family="Helvetica,sans-Serif" font-size="10.00" fill="#000000">wing_ops.cpp</text>
</a>
</g>
</g>
<!-- Node29&#45;&gt;Node32 -->
<g id="edge12" class="edge">
<title>Node29&#45;&gt;Node32</title>
<path fill="none" stroke="#191970" d="M355.4173,-102.1575C356.0604,-93.155 356.7914,-82.9199 357.3112,-75.6427"/>
<polygon fill="#191970" stroke="#191970" points="351.9182,-102.0216 354.6967,-112.2455 358.9004,-102.5204 351.9182,-102.0216"/>
</g>
<!-- Node31 -->
<g id="node9" class="node">
<title>Node31</title>
<g id="a_node9"><a xlink:href="_flat_plate_8cpp.html" target="_top" xlink:title="FlatPlate.cpp">
<polygon fill="#ffffff" stroke="#000000" points="463,-.5 463,-19.5 543,-19.5 543,-.5 463,-.5"/>
<text text-anchor="middle" x="503" y="-7.5" font-family="Helvetica,sans-Serif" font-size="10.00" fill="#000000">FlatPlate.cpp</text>
</a>
</g>
</g>
<!-- Node30&#45;&gt;Node31 -->
<g id="edge11" class="edge">
<title>Node30&#45;&gt;Node31</title>
<path fill="none" stroke="#191970" d="M477.2679,-47.9209C483.6488,-38.5176 491.1931,-27.3997 496.4568,-19.6427"/>
<polygon fill="#191970" stroke="#191970" points="474.338,-46.0055 471.6191,-56.2455 480.1303,-49.936 474.338,-46.0055"/>
</g>
<!-- Node33&#45;&gt;Node30 -->
<g id="edge14" class="edge">
<title>Node33&#45;&gt;Node30</title>
<path fill="none" stroke="#191970" d="M465,-102.1575C465,-93.155 465,-82.9199 465,-75.6427"/>
<polygon fill="#191970" stroke="#191970" points="461.5001,-102.2455 465,-112.2455 468.5001,-102.2456 461.5001,-102.2455"/>
</g>
<!-- Node33&#45;&gt;Node31 -->
<g id="edge15" class="edge">
<title>Node33&#45;&gt;Node31</title>
<path fill="none" stroke="#191970" d="M492.9715,-106.9168C504.1701,-99.2694 515.8552,-88.8551 522,-76 531.0504,-57.0662 518.676,-32.9711 510.0582,-19.7606"/>
<polygon fill="#191970" stroke="#191970" points="490.7959,-104.1512 484.21,-112.4505 494.5339,-110.0696 490.7959,-104.1512"/>
</g>
</g>
</svg>
