<?xml version="1.0" encoding="UTF-8" standalone="no"?>
<!DOCTYPE svg PUBLIC "-//W3C//DTD SVG 1.1//EN"
 "http://www.w3.org/Graphics/SVG/1.1/DTD/svg11.dtd">
<!-- Generated by graphviz version 2.40.1 (20161225.0304)
 -->
<!-- Title: AirfoilTable.cpp Pages: 1 -->
<svg width="938pt" height="475pt"
 viewBox="0.00 0.00 938.39 475.00" xmlns="http://www.w3.org/2000/svg" xmlns:xlink="http://www.w3.org/1999/xlink">
<g id="graph0" class="graph" transform="scale(1 1) rotate(0) translate(4 471)">
<title>AirfoilTable.cpp</title>
<polygon fill="#ffffff" stroke="transparent" points="-4,4 -4,-471 934.3927,-471 934.3927,4 -4,4"/>
<!-- Node0 -->
<g id="node1" class="node">
<title>Node0</title>
<polygon fill="#bfbfbf" stroke="#000000" points="336.5,-447.5 336.5,-466.5 428.5,-466.5 428.5,-447.5 336.5,-447.5"/>
<text text-anchor="middle" x="382.5" y="-454.5" font-family="Helvetica,sans-Serif" font-size="10.00" fill="#000000">AirfoilTable.cpp</text>
</g>
<!-- Node1 -->
<g id="node2" class="node">
<title>Node1</title>
<g id="a_node2"><a xlink:href="_airfoil_table_8_h.html" target="_top" xlink:title="amr&#45;wind/wind_energy\l/actuator/aero/AirfoilTable.H">
<polygon fill="#ffffff" stroke="#000000" points="245,-380.5 245,-410.5 398,-410.5 398,-380.5 245,-380.5"/>
<text text-anchor="start" x="253" y="-398.5" font-family="Helvetica,sans-Serif" font-size="10.00" fill="#000000">amr&#45;wind/wind_energy</text>
<text text-anchor="middle" x="321.5" y="-387.5" font-family="Helvetica,sans-Serif" font-size="10.00" fill="#000000">/actuator/aero/AirfoilTable.H</text>
</a>
</g>
</g>
<!-- Node0&#45;&gt;Node1 -->
<g id="edge1" class="edge">
<title>Node0&#45;&gt;Node1</title>
<path fill="none" stroke="#191970" d="M372.9688,-447.3906C365.0953,-439.4527 353.6087,-427.8718 343.4833,-417.6635"/>
<polygon fill="#191970" stroke="#191970" points="345.9494,-415.1797 336.4223,-410.5446 340.9795,-420.1093 345.9494,-415.1797"/>
</g>
<!-- Node24 -->
<g id="node25" class="node">
<title>Node24</title>
<g id="a_node25"><a xlink:href="linear__interpolation_8_h.html" target="_top" xlink:title="amr&#45;wind/utilities\l/linear_interpolation.H">
<polygon fill="#ffffff" stroke="#000000" points="0,-123.5 0,-153.5 125,-153.5 125,-123.5 0,-123.5"/>
<text text-anchor="start" x="8" y="-141.5" font-family="Helvetica,sans-Serif" font-size="10.00" fill="#000000">amr&#45;wind/utilities</text>
<text text-anchor="middle" x="62.5" y="-130.5" font-family="Helvetica,sans-Serif" font-size="10.00" fill="#000000">/linear_interpolation.H</text>
</a>
</g>
</g>
<!-- Node0&#45;&gt;Node24 -->
<g id="edge36" class="edge">
<title>Node0&#45;&gt;Node24</title>
<path fill="none" stroke="#191970" d="M336.2601,-448.341C248.0635,-430.4988 64.5,-386.4079 64.5,-328.5 64.5,-328.5 64.5,-328.5 64.5,-261.5 64.5,-227.6408 63.733,-188.5457 63.1489,-163.6856"/>
<polygon fill="#191970" stroke="#191970" points="66.647,-163.5593 62.9047,-153.6474 59.649,-163.7295 66.647,-163.5593"/>
</g>
<!-- Node25 -->
<g id="node26" class="node">
<title>Node25</title>
<polygon fill="#ffffff" stroke="#bfbfbf" points="416,-386 416,-405 471,-405 471,-386 416,-386"/>
<text text-anchor="middle" x="443.5" y="-393" font-family="Helvetica,sans-Serif" font-size="10.00" fill="#000000">fstream</text>
</g>
<!-- Node0&#45;&gt;Node25 -->
<g id="edge38" class="edge">
<title>Node0&#45;&gt;Node25</title>
<path fill="none" stroke="#191970" d="M392.0313,-447.3906C401.2879,-438.0581 415.539,-423.6902 426.7003,-412.4374"/>
<polygon fill="#191970" stroke="#191970" points="429.2772,-414.8095 433.8344,-405.2449 424.3072,-409.88 429.2772,-414.8095"/>
</g>
<!-- Node26 -->
<g id="node27" class="node">
<title>Node26</title>
<polygon fill="#ffffff" stroke="#bfbfbf" points="489.5,-386 489.5,-405 553.5,-405 553.5,-386 489.5,-386"/>
<text text-anchor="middle" x="521.5" y="-393" font-family="Helvetica,sans-Serif" font-size="10.00" fill="#000000">algorithm</text>
</g>
<!-- Node0&#45;&gt;Node26 -->
<g id="edge39" class="edge">
<title>Node0&#45;&gt;Node26</title>
<path fill="none" stroke="#191970" d="M404.2188,-447.3906C427.374,-437.1457 464.2441,-420.8326 490.4591,-409.2339"/>
<polygon fill="#191970" stroke="#191970" points="492.205,-412.2888 499.9338,-405.0419 489.3727,-405.8874 492.205,-412.2888"/>
</g>
<!-- Node2 -->
<g id="node3" class="node">
<title>Node2</title>
<g id="a_node3"><a xlink:href="actuator__types_8_h.html" target="_top" xlink:title="amr&#45;wind/wind_energy\l/actuator/actuator_types.H">
<polygon fill="#ffffff" stroke="#000000" points="190.5,-313.5 190.5,-343.5 336.5,-343.5 336.5,-313.5 190.5,-313.5"/>
<text text-anchor="start" x="198.5" y="-331.5" font-family="Helvetica,sans-Serif" font-size="10.00" fill="#000000">amr&#45;wind/wind_energy</text>
<text text-anchor="middle" x="263.5" y="-320.5" font-family="Helvetica,sans-Serif" font-size="10.00" fill="#000000">/actuator/actuator_types.H</text>
</a>
</g>
</g>
<!-- Node1&#45;&gt;Node2 -->
<g id="edge2" class="edge">
<title>Node1&#45;&gt;Node2</title>
<path fill="none" stroke="#191970" d="M308.3389,-380.2967C300.9232,-371.7303 291.5143,-360.8614 283.2323,-351.2943"/>
<polygon fill="#191970" stroke="#191970" points="285.8003,-348.913 276.609,-343.6432 280.5078,-353.4946 285.8003,-348.913"/>
</g>
<!-- Node20 -->
<g id="node21" class="node">
<title>Node20</title>
<polygon fill="#ffffff" stroke="#bfbfbf" points="355,-319 355,-338 404,-338 404,-319 355,-319"/>
<text text-anchor="middle" x="379.5" y="-326" font-family="Helvetica,sans-Serif" font-size="10.00" fill="#000000">iosfwd</text>
</g>
<!-- Node1&#45;&gt;Node20 -->
<g id="edge31" class="edge">
<title>Node1&#45;&gt;Node20</title>
<path fill="none" stroke="#191970" d="M334.6611,-380.2967C343.5223,-370.0605 355.2295,-356.5366 364.4593,-345.8746"/>
<polygon fill="#191970" stroke="#191970" points="367.3297,-347.9064 371.2285,-338.055 362.0373,-343.3248 367.3297,-347.9064"/>
</g>
<!-- Node21 -->
<g id="node22" class="node">
<title>Node21</title>
<polygon fill="#ffffff" stroke="#bfbfbf" points="114.5,-319 114.5,-338 172.5,-338 172.5,-319 114.5,-319"/>
<text text-anchor="middle" x="143.5" y="-326" font-family="Helvetica,sans-Serif" font-size="10.00" fill="#000000">memory</text>
</g>
<!-- Node1&#45;&gt;Node21 -->
<g id="edge32" class="edge">
<title>Node1&#45;&gt;Node21</title>
<path fill="none" stroke="#191970" d="M279.3926,-380.4429C251.5229,-370.3709 214.2183,-356.6862 181.5,-344 179.8558,-343.3625 178.1744,-342.7034 176.4783,-342.0328"/>
<polygon fill="#191970" stroke="#191970" points="177.3448,-338.6095 166.7605,-338.1372 174.7402,-345.1068 177.3448,-338.6095"/>
</g>
<!-- Node22 -->
<g id="node23" class="node">
<title>Node22</title>
<g id="a_node23"><a xlink:href="_airfoil_table_i_8_h.html" target="_top" xlink:title="amr&#45;wind/wind_energy\l/actuator/aero/AirfoilTableI.H">
<polygon fill="#ffffff" stroke="#000000" points="422.5,-313.5 422.5,-343.5 578.5,-343.5 578.5,-313.5 422.5,-313.5"/>
<text text-anchor="start" x="430.5" y="-331.5" font-family="Helvetica,sans-Serif" font-size="10.00" fill="#000000">amr&#45;wind/wind_energy</text>
<text text-anchor="middle" x="500.5" y="-320.5" font-family="Helvetica,sans-Serif" font-size="10.00" fill="#000000">/actuator/aero/AirfoilTableI.H</text>
</a>
</g>
</g>
<!-- Node1&#45;&gt;Node22 -->
<g id="edge33" class="edge">
<title>Node1&#45;&gt;Node22</title>
<path fill="none" stroke="#191970" d="M355.9306,-380.4639C381.1169,-370.5849 415.7086,-357.5905 444.7795,-347.0675"/>
<polygon fill="#191970" stroke="#191970" points="446.1822,-350.2825 454.4052,-343.6017 443.8108,-343.6964 446.1822,-350.2825"/>
</g>
<!-- Node3 -->
<g id="node4" class="node">
<title>Node3</title>
<g id="a_node4"><a xlink:href="_slice_8_h.html" target="_top" xlink:title="amr&#45;wind/core/Slice.H">
<polygon fill="#ffffff" stroke="#000000" points="202,-252 202,-271 325,-271 325,-252 202,-252"/>
<text text-anchor="middle" x="263.5" y="-259" font-family="Helvetica,sans-Serif" font-size="10.00" fill="#000000">amr&#45;wind/core/Slice.H</text>
</a>
</g>
</g>
<!-- Node2&#45;&gt;Node3 -->
<g id="edge3" class="edge">
<title>Node2&#45;&gt;Node3</title>
<path fill="none" stroke="#191970" d="M263.5,-313.2967C263.5,-303.7699 263.5,-291.3954 263.5,-281.1306"/>
<polygon fill="#191970" stroke="#191970" points="267.0001,-281.0549 263.5,-271.055 260.0001,-281.055 267.0001,-281.0549"/>
</g>
<!-- Node6 -->
<g id="node7" class="node">
<title>Node6</title>
<polygon fill="#ffffff" stroke="#bfbfbf" points="350.5,-.5 350.5,-19.5 436.5,-19.5 436.5,-.5 350.5,-.5"/>
<text text-anchor="middle" x="393.5" y="-7.5" font-family="Helvetica,sans-Serif" font-size="10.00" fill="#000000">AMReX_Gpu.H</text>
</g>
<!-- Node2&#45;&gt;Node6 -->
<g id="edge28" class="edge">
<title>Node2&#45;&gt;Node6</title>
<path fill="none" stroke="#191970" d="M237.4315,-313.4822C204.903,-292.5693 153.5,-251.3915 153.5,-200 153.5,-200 153.5,-200 153.5,-138.5 153.5,-54.3735 269.5252,-25.111 340.2316,-15.0889"/>
<polygon fill="#191970" stroke="#191970" points="340.8654,-18.5355 350.3156,-13.7456 339.941,-11.5968 340.8654,-18.5355"/>
</g>
<!-- Node7 -->
<g id="node8" class="node">
<title>Node7</title>
<g id="a_node8"><a xlink:href="vector__space_8_h.html" target="_top" xlink:title="amr&#45;wind/core/vs/vector\l_space.H">
<polygon fill="#ffffff" stroke="#000000" points="477.5,-246.5 477.5,-276.5 611.5,-276.5 611.5,-246.5 477.5,-246.5"/>
<text text-anchor="start" x="485.5" y="-264.5" font-family="Helvetica,sans-Serif" font-size="10.00" fill="#000000">amr&#45;wind/core/vs/vector</text>
<text text-anchor="middle" x="544.5" y="-253.5" font-family="Helvetica,sans-Serif" font-size="10.00" fill="#000000">_space.H</text>
</a>
</g>
</g>
<!-- Node2&#45;&gt;Node7 -->
<g id="edge7" class="edge">
<title>Node2&#45;&gt;Node7</title>
<path fill="none" stroke="#191970" d="M326.5619,-313.4639C369.436,-303.2412 426.3008,-289.6827 471.1939,-278.9787"/>
<polygon fill="#191970" stroke="#191970" points="472.2475,-282.3257 481.1631,-276.6017 470.624,-275.5165 472.2475,-282.3257"/>
</g>
<!-- Node18 -->
<g id="node19" class="node">
<title>Node18</title>
<polygon fill="#ffffff" stroke="#bfbfbf" points="343.5,-252 343.5,-271 449.5,-271 449.5,-252 343.5,-252"/>
<text text-anchor="middle" x="396.5" y="-259" font-family="Helvetica,sans-Serif" font-size="10.00" fill="#000000">AMReX_RealBox.H</text>
</g>
<!-- Node2&#45;&gt;Node18 -->
<g id="edge29" class="edge">
<title>Node2&#45;&gt;Node18</title>
<path fill="none" stroke="#191970" d="M293.3478,-313.4639C315.764,-302.1715 346.2606,-286.8086 368.2738,-275.7192"/>
<polygon fill="#191970" stroke="#191970" points="370.0793,-278.7287 377.4355,-271.1039 366.93,-272.4772 370.0793,-278.7287"/>
</g>
<!-- Node19 -->
<g id="node20" class="node">
<title>Node19</title>
<polygon fill="#ffffff" stroke="#bfbfbf" points="93.5,-252 93.5,-271 125.5,-271 125.5,-252 93.5,-252"/>
<text text-anchor="middle" x="109.5" y="-259" font-family="Helvetica,sans-Serif" font-size="10.00" fill="#000000">set</text>
</g>
<!-- Node2&#45;&gt;Node19 -->
<g id="edge30" class="edge">
<title>Node2&#45;&gt;Node19</title>
<path fill="none" stroke="#191970" d="M224.8775,-313.4224C200.2268,-303.5631 167.718,-290.1217 139.5,-277 137.9285,-276.2692 136.3199,-275.5006 134.7037,-274.7125"/>
<polygon fill="#191970" stroke="#191970" points="136.0759,-271.4848 125.5699,-270.1152 132.9287,-277.7375 136.0759,-271.4848"/>
</g>
<!-- Node4 -->
<g id="node5" class="node">
<title>Node4</title>
<polygon fill="#ffffff" stroke="#bfbfbf" points="296,-190.5 296,-209.5 349,-209.5 349,-190.5 296,-190.5"/>
<text text-anchor="middle" x="322.5" y="-197.5" font-family="Helvetica,sans-Serif" font-size="10.00" fill="#000000">iterator</text>
</g>
<!-- Node3&#45;&gt;Node4 -->
<g id="edge4" class="edge">
<title>Node3&#45;&gt;Node4</title>
<path fill="none" stroke="#191970" d="M272.7188,-251.8906C281.5858,-242.6478 295.1912,-228.466 305.9389,-217.2628"/>
<polygon fill="#191970" stroke="#191970" points="308.7541,-219.3841 313.1513,-209.7449 303.7027,-214.5381 308.7541,-219.3841"/>
</g>
<!-- Node5 -->
<g id="node6" class="node">
<title>Node5</title>
<polygon fill="#ffffff" stroke="#bfbfbf" points="181.5,-190.5 181.5,-209.5 277.5,-209.5 277.5,-190.5 181.5,-190.5"/>
<text text-anchor="middle" x="229.5" y="-197.5" font-family="Helvetica,sans-Serif" font-size="10.00" fill="#000000">AMReX_Vector.H</text>
</g>
<!-- Node3&#45;&gt;Node5 -->
<g id="edge5" class="edge">
<title>Node3&#45;&gt;Node5</title>
<path fill="none" stroke="#191970" d="M258.1875,-251.8906C253.2761,-243.0068 245.8421,-229.5601 239.7725,-218.5811"/>
<polygon fill="#191970" stroke="#191970" points="242.7888,-216.8031 234.8874,-209.7449 236.6627,-220.1899 242.7888,-216.8031"/>
</g>
<!-- Node3&#45;&gt;Node6 -->
<g id="edge6" class="edge">
<title>Node3&#45;&gt;Node6</title>
<path fill="none" stroke="#191970" d="M296.2685,-251.9861C317.3383,-244.1461 343.4901,-230.8639 358.5,-210 398.2369,-154.7653 397.9478,-69.1159 395.4015,-30.3231"/>
<polygon fill="#191970" stroke="#191970" points="398.8531,-29.5689 394.5806,-19.8738 391.8746,-30.1172 398.8531,-29.5689"/>
</g>
<!-- Node8 -->
<g id="node9" class="node">
<title>Node8</title>
<g id="a_node9"><a xlink:href="vector_8_h.html" target="_top" xlink:title="amr&#45;wind/core/vs/vector.H">
<polygon fill="#ffffff" stroke="#000000" points="480.5,-129 480.5,-148 624.5,-148 624.5,-129 480.5,-129"/>
<text text-anchor="middle" x="552.5" y="-136" font-family="Helvetica,sans-Serif" font-size="10.00" fill="#000000">amr&#45;wind/core/vs/vector.H</text>
</a>
</g>
</g>
<!-- Node7&#45;&gt;Node8 -->
<g id="edge8" class="edge">
<title>Node7&#45;&gt;Node8</title>
<path fill="none" stroke="#191970" d="M545.481,-246.4178C546.9217,-224.2662 549.6118,-182.9061 551.2107,-158.3234"/>
<polygon fill="#191970" stroke="#191970" points="554.7224,-158.2554 551.8789,-148.0493 547.7372,-157.801 554.7224,-158.2554"/>
</g>
<!-- Node15 -->
<g id="node16" class="node">
<title>Node15</title>
<g id="a_node16"><a xlink:href="tensor_8_h.html" target="_top" xlink:title="amr&#45;wind/core/vs/tensor.H">
<polygon fill="#ffffff" stroke="#000000" points="597.5,-190.5 597.5,-209.5 741.5,-209.5 741.5,-190.5 597.5,-190.5"/>
<text text-anchor="middle" x="669.5" y="-197.5" font-family="Helvetica,sans-Serif" font-size="10.00" fill="#000000">amr&#45;wind/core/vs/tensor.H</text>
</a>
</g>
</g>
<!-- Node7&#45;&gt;Node15 -->
<g id="edge17" class="edge">
<title>Node7&#45;&gt;Node15</title>
<path fill="none" stroke="#191970" d="M575.0784,-246.4554C595.2032,-236.554 621.3639,-223.683 641.0438,-214.0004"/>
<polygon fill="#191970" stroke="#191970" points="642.7018,-217.0855 650.1294,-209.5303 639.6115,-210.8045 642.7018,-217.0855"/>
</g>
<!-- Node8&#45;&gt;Node6 -->
<g id="edge9" class="edge">
<title>Node8&#45;&gt;Node6</title>
<path fill="none" stroke="#191970" d="M534.5291,-128.9855C517.1494,-119.4148 490.441,-103.715 469.5,-87 446.4984,-68.6403 423.1826,-43.9095 408.554,-27.4845"/>
<polygon fill="#191970" stroke="#191970" points="410.9724,-24.9342 401.7437,-19.7301 405.7128,-29.5534 410.9724,-24.9342"/>
</g>
<!-- Node9 -->
<g id="node10" class="node">
<title>Node9</title>
<g id="a_node10"><a xlink:href="vstraits_8_h.html" target="_top" xlink:title="amr&#45;wind/core/vs/vstraits.H">
<polygon fill="#ffffff" stroke="#000000" points="645,-62 645,-81 796,-81 796,-62 645,-62"/>
<text text-anchor="middle" x="720.5" y="-69" font-family="Helvetica,sans-Serif" font-size="10.00" fill="#000000">amr&#45;wind/core/vs/vstraits.H</text>
</a>
</g>
</g>
<!-- Node8&#45;&gt;Node9 -->
<g id="edge10" class="edge">
<title>Node8&#45;&gt;Node9</title>
<path fill="none" stroke="#191970" d="M576.5703,-128.9005C605.513,-117.3579 654.2621,-97.9163 686.9017,-84.8993"/>
<polygon fill="#191970" stroke="#191970" points="688.4823,-88.0371 696.4743,-81.0817 685.8892,-81.5351 688.4823,-88.0371"/>
</g>
<!-- Node12 -->
<g id="node13" class="node">
<title>Node12</title>
<g id="a_node13"><a xlink:href="vector_i_8_h.html" target="_top" xlink:title="amr&#45;wind/core/vs/vectorI.H">
<polygon fill="#ffffff" stroke="#000000" points="478.5,-62 478.5,-81 626.5,-81 626.5,-62 478.5,-62"/>
<text text-anchor="middle" x="552.5" y="-69" font-family="Helvetica,sans-Serif" font-size="10.00" fill="#000000">amr&#45;wind/core/vs/vectorI.H</text>
</a>
</g>
</g>
<!-- Node8&#45;&gt;Node12 -->
<g id="edge13" class="edge">
<title>Node8&#45;&gt;Node12</title>
<path fill="none" stroke="#191970" d="M547.5994,-128.9005C545.7106,-119.149 545.2686,-103.7597 546.2734,-91.3695"/>
<polygon fill="#191970" stroke="#191970" points="549.7923,-91.4478 547.6029,-81.0817 542.85,-90.5506 549.7923,-91.4478"/>
</g>
<!-- Node10 -->
<g id="node11" class="node">
<title>Node10</title>
<polygon fill="#ffffff" stroke="#bfbfbf" points="684.5,-.5 684.5,-19.5 728.5,-19.5 728.5,-.5 684.5,-.5"/>
<text text-anchor="middle" x="706.5" y="-7.5" font-family="Helvetica,sans-Serif" font-size="10.00" fill="#000000">limits</text>
</g>
<!-- Node9&#45;&gt;Node10 -->
<g id="edge11" class="edge">
<title>Node9&#45;&gt;Node10</title>
<path fill="none" stroke="#191970" d="M718.3125,-61.8906C716.3514,-53.276 713.4137,-40.3708 710.9585,-29.5858"/>
<polygon fill="#191970" stroke="#191970" points="714.3507,-28.7185 708.7183,-19.7449 707.5254,-30.2723 714.3507,-28.7185"/>
</g>
<!-- Node11 -->
<g id="node12" class="node">
<title>Node11</title>
<polygon fill="#ffffff" stroke="#bfbfbf" points="747,-.5 747,-19.5 838,-19.5 838,-.5 747,-.5"/>
<text text-anchor="middle" x="792.5" y="-7.5" font-family="Helvetica,sans-Serif" font-size="10.00" fill="#000000">AMReX_REAL.H</text>
</g>
<!-- Node9&#45;&gt;Node11 -->
<g id="edge12" class="edge">
<title>Node9&#45;&gt;Node11</title>
<path fill="none" stroke="#191970" d="M731.75,-61.8906C742.886,-52.3786 760.146,-37.6357 773.4268,-26.2917"/>
<polygon fill="#191970" stroke="#191970" points="775.7608,-28.9011 781.0914,-19.7449 771.2144,-23.5784 775.7608,-28.9011"/>
</g>
<!-- Node12&#45;&gt;Node8 -->
<g id="edge16" class="edge">
<title>Node12&#45;&gt;Node8</title>
<path fill="none" stroke="#191970" d="M557.3971,-81.0817C559.2877,-90.8263 559.7315,-106.214 558.7285,-118.6079"/>
<polygon fill="#191970" stroke="#191970" points="555.209,-118.5349 557.4006,-128.9005 562.1514,-119.4306 555.209,-118.5349"/>
</g>
<!-- Node13 -->
<g id="node14" class="node">
<title>Node13</title>
<polygon fill="#ffffff" stroke="#bfbfbf" points="524,-.5 524,-19.5 581,-19.5 581,-.5 524,-.5"/>
<text text-anchor="middle" x="552.5" y="-7.5" font-family="Helvetica,sans-Serif" font-size="10.00" fill="#000000">ostream</text>
</g>
<!-- Node12&#45;&gt;Node13 -->
<g id="edge14" class="edge">
<title>Node12&#45;&gt;Node13</title>
<path fill="none" stroke="#191970" d="M552.5,-61.8906C552.5,-53.3657 552.5,-40.6392 552.5,-29.9235"/>
<polygon fill="#191970" stroke="#191970" points="556.0001,-29.7448 552.5,-19.7449 549.0001,-29.7449 556.0001,-29.7448"/>
</g>
<!-- Node14 -->
<g id="node15" class="node">
<title>Node14</title>
<polygon fill="#ffffff" stroke="#bfbfbf" points="856,-.5 856,-19.5 903,-19.5 903,-.5 856,-.5"/>
<text text-anchor="middle" x="879.5" y="-7.5" font-family="Helvetica,sans-Serif" font-size="10.00" fill="#000000">cmath</text>
</g>
<!-- Node12&#45;&gt;Node14 -->
<g id="edge15" class="edge">
<title>Node12&#45;&gt;Node14</title>
<path fill="none" stroke="#191970" d="M603.5643,-61.9637C614.4308,-59.9662 625.8412,-57.8926 636.5,-56 727.0577,-39.9204 753.2776,-42.0686 846.0354,-20.1309"/>
<polygon fill="#191970" stroke="#191970" points="846.9236,-23.5173 855.833,-17.7838 845.2927,-16.7099 846.9236,-23.5173"/>
</g>
<!-- Node15&#45;&gt;Node6 -->
<g id="edge18" class="edge">
<title>Node15&#45;&gt;Node6</title>
<path fill="none" stroke="#191970" d="M603.7303,-190.4624C554.556,-182.2868 492.3675,-169.4062 471.5,-154 428.9409,-122.5792 407.043,-60.7644 398.2546,-29.3347"/>
<polygon fill="#191970" stroke="#191970" points="401.6172,-28.3597 395.6804,-19.5844 394.8491,-30.1466 401.6172,-28.3597"/>
</g>
<!-- Node15&#45;&gt;Node8 -->
<g id="edge20" class="edge">
<title>Node15&#45;&gt;Node8</title>
<path fill="none" stroke="#191970" d="M651.2188,-190.3906C631.9859,-180.2811 601.5121,-164.2628 579.5075,-152.6962"/>
<polygon fill="#191970" stroke="#191970" points="581.133,-149.5967 570.6529,-148.0419 577.876,-155.7928 581.133,-149.5967"/>
</g>
<!-- Node15&#45;&gt;Node9 -->
<g id="edge19" class="edge">
<title>Node15&#45;&gt;Node9</title>
<path fill="none" stroke="#191970" d="M673.3333,-190.3416C681.7141,-169.2254 701.8009,-118.6144 712.8663,-90.7341"/>
<polygon fill="#191970" stroke="#191970" points="716.1864,-91.8563 716.6222,-81.2705 709.6801,-89.274 716.1864,-91.8563"/>
</g>
<!-- Node16 -->
<g id="node17" class="node">
<title>Node16</title>
<g id="a_node17"><a xlink:href="tensor_i_8_h.html" target="_top" xlink:title="amr&#45;wind/core/vs/tensorI.H">
<polygon fill="#ffffff" stroke="#000000" points="752.5,-129 752.5,-148 900.5,-148 900.5,-129 752.5,-129"/>
<text text-anchor="middle" x="826.5" y="-136" font-family="Helvetica,sans-Serif" font-size="10.00" fill="#000000">amr&#45;wind/core/vs/tensorI.H</text>
</a>
</g>
</g>
<!-- Node15&#45;&gt;Node16 -->
<g id="edge21" class="edge">
<title>Node15&#45;&gt;Node16</title>
<path fill="none" stroke="#191970" d="M688.9688,-190.3906C713.5491,-179.9652 756.0103,-163.2559 787.3456,-151.6252"/>
<polygon fill="#191970" stroke="#191970" points="788.9138,-154.7778 797.0917,-148.0419 786.4982,-148.2078 788.9138,-154.7778"/>
</g>
<!-- Node16&#45;&gt;Node14 -->
<g id="edge22" class="edge">
<title>Node16&#45;&gt;Node14</title>
<path fill="none" stroke="#191970" d="M865.5934,-128.9133C887.3003,-121.3745 912.4813,-108.4473 925.5,-87 932.6492,-75.2222 930.7725,-68.729 925.5,-56 920.6688,-44.3363 911.2863,-34.0881 902.2482,-26.243"/>
<polygon fill="#191970" stroke="#191970" points="904.167,-23.2942 894.1852,-19.7423 899.7734,-28.7436 904.167,-23.2942"/>
</g>
<!-- Node16&#45;&gt;Node15 -->
<g id="edge23" class="edge">
<title>Node16&#45;&gt;Node15</title>
<path fill="none" stroke="#191970" d="M807.1903,-148.0419C782.6873,-158.4402 740.2409,-175.1468 708.8576,-186.7993"/>
<polygon fill="#191970" stroke="#191970" points="707.2708,-183.6537 699.0938,-190.3906 709.6873,-190.2234 707.2708,-183.6537"/>
</g>
<!-- Node17 -->
<g id="node18" class="node">
<title>Node17</title>
<g id="a_node18"><a xlink:href="trig__ops_8_h.html" target="_top" xlink:title="Trigonometric utilities. ">
<polygon fill="#ffffff" stroke="#000000" points="814.5,-56.5 814.5,-86.5 916.5,-86.5 916.5,-56.5 814.5,-56.5"/>
<text text-anchor="start" x="822.5" y="-74.5" font-family="Helvetica,sans-Serif" font-size="10.00" fill="#000000">amr&#45;wind/utilities</text>
<text text-anchor="middle" x="865.5" y="-63.5" font-family="Helvetica,sans-Serif" font-size="10.00" fill="#000000">/trig_ops.H</text>
</a>
</g>
</g>
<!-- Node16&#45;&gt;Node17 -->
<g id="edge24" class="edge">
<title>Node16&#45;&gt;Node17</title>
<path fill="none" stroke="#191970" d="M832.0877,-128.9005C837.1733,-120.1638 844.893,-106.9018 851.6314,-95.3256"/>
<polygon fill="#191970" stroke="#191970" points="854.7501,-96.925 856.756,-86.5218 848.7004,-93.4035 854.7501,-96.925"/>
</g>
<!-- Node17&#45;&gt;Node6 -->
<g id="edge27" class="edge">
<title>Node17&#45;&gt;Node6</title>
<path fill="none" stroke="#191970" d="M814.2195,-57.743C811.2785,-57.113 808.3569,-56.5258 805.5,-56 737.8879,-43.557 541.7503,-24.0685 446.5627,-14.9791"/>
<polygon fill="#191970" stroke="#191970" points="446.8575,-11.4914 436.5707,-14.0278 446.194,-18.4599 446.8575,-11.4914"/>
</g>
<!-- Node17&#45;&gt;Node11 -->
<g id="edge26" class="edge">
<title>Node17&#45;&gt;Node11</title>
<path fill="none" stroke="#191970" d="M847.4551,-56.2977C836.6886,-47.2274 823.0149,-35.7077 812.0005,-26.4285"/>
<polygon fill="#191970" stroke="#191970" points="814.0911,-23.6132 804.1882,-19.8469 809.5809,-28.9667 814.0911,-23.6132"/>
</g>
<!-- Node17&#45;&gt;Node14 -->
<g id="edge25" class="edge">
<title>Node17&#45;&gt;Node14</title>
<path fill="none" stroke="#191970" d="M868.9607,-56.2977C870.7826,-48.2945 873.0385,-38.3843 874.9952,-29.7889"/>
<polygon fill="#191970" stroke="#191970" points="878.4514,-30.3744 877.2584,-19.8469 871.626,-28.8206 878.4514,-30.3744"/>
</g>
<!-- Node22&#45;&gt;Node1 -->
<g id="edge34" class="edge">
<title>Node22&#45;&gt;Node1</title>
<path fill="none" stroke="#191970" d="M465.9022,-343.6017C440.6743,-353.4945 406.0741,-366.4903 377.0277,-377.0023"/>
<polygon fill="#191970" stroke="#191970" points="375.635,-373.7836 367.4116,-380.4639 378.006,-380.3699 375.635,-373.7836"/>
</g>
<!-- Node23 -->
<g id="node24" class="node">
<title>Node23</title>
<polygon fill="#ffffff" stroke="#bfbfbf" points="629.5,-252 629.5,-271 673.5,-271 673.5,-252 629.5,-252"/>
<text text-anchor="middle" x="651.5" y="-259" font-family="Helvetica,sans-Serif" font-size="10.00" fill="#000000">string</text>
</g>
<!-- Node22&#45;&gt;Node23 -->
<g id="edge35" class="edge">
<title>Node22&#45;&gt;Node23</title>
<path fill="none" stroke="#191970" d="M536.9769,-313.4954C560.8857,-303.5014 592.7384,-289.8843 620.5,-277 621.5097,-276.5314 622.5354,-276.0495 623.5695,-275.5588"/>
<polygon fill="#191970" stroke="#191970" points="625.4362,-278.543 632.8975,-271.0211 622.374,-272.2483 625.4362,-278.543"/>
</g>
<!-- Node24&#45;&gt;Node6 -->
<g id="edge37" class="edge">
<title>Node24&#45;&gt;Node6</title>
<path fill="none" stroke="#191970" d="M72.151,-123.2266C85.0427,-104.2037 109.747,-72.2354 139.5,-56 173.2708,-37.5722 275.9927,-23.1716 339.9884,-15.6852"/>
<polygon fill="#191970" stroke="#191970" points="340.7631,-19.1192 350.2977,-14.4996 339.9633,-12.1651 340.7631,-19.1192"/>
</g>
</g>
</svg>
