<?xml version="1.0" encoding="UTF-8" standalone="no"?>
<!DOCTYPE svg PUBLIC "-//W3C//DTD SVG 1.1//EN"
 "http://www.w3.org/Graphics/SVG/1.1/DTD/svg11.dtd">
<!-- Generated by graphviz version 2.40.1 (20161225.0304)
 -->
<!-- Title: BCInterface.H Pages: 1 -->
<svg width="711pt" height="196pt"
 viewBox="0.00 0.00 710.50 196.00" xmlns="http://www.w3.org/2000/svg" xmlns:xlink="http://www.w3.org/1999/xlink">
<g id="graph0" class="graph" transform="scale(1 1) rotate(0) translate(4 192)">
<title>BCInterface.H</title>
<polygon fill="#ffffff" stroke="transparent" points="-4,4 -4,-192 706.5,-192 706.5,4 -4,4"/>
<!-- Node15 -->
<g id="node1" class="node">
<title>Node15</title>
<polygon fill="#bfbfbf" stroke="#000000" points="234.5,-168.5 234.5,-187.5 318.5,-187.5 318.5,-168.5 234.5,-168.5"/>
<text text-anchor="middle" x="276.5" y="-175.5" font-family="Helvetica,sans-Serif" font-size="10.00" fill="#000000">BCInterface.H</text>
</g>
<!-- Node16 -->
<g id="node2" class="node">
<title>Node16</title>
<g id="a_node2"><a xlink:href="_b_c_interface_8cpp.html" target="_top" xlink:title="BCInterface.cpp">
<polygon fill="#ffffff" stroke="#000000" points="134.5,-112.5 134.5,-131.5 228.5,-131.5 228.5,-112.5 134.5,-112.5"/>
<text text-anchor="middle" x="181.5" y="-119.5" font-family="Helvetica,sans-Serif" font-size="10.00" fill="#000000">BCInterface.cpp</text>
</a>
</g>
</g>
<!-- Node15&#45;&gt;Node16 -->
<g id="edge1" class="edge">
<title>Node15&#45;&gt;Node16</title>
<path fill="none" stroke="#191970" d="M251.1324,-163.0465C234.229,-153.0824 212.5096,-140.2794 197.8581,-131.6427"/>
<polygon fill="#191970" stroke="#191970" points="249.5602,-166.1825 259.9523,-168.2455 253.1149,-160.1522 249.5602,-166.1825"/>
</g>
<!-- Node17 -->
<g id="node3" class="node">
<title>Node17</title>
<g id="a_node3"><a xlink:href="_field_8cpp.html" target="_top" xlink:title="Field.cpp">
<polygon fill="#ffffff" stroke="#000000" points="247,-112.5 247,-131.5 306,-131.5 306,-112.5 247,-112.5"/>
<text text-anchor="middle" x="276.5" y="-119.5" font-family="Helvetica,sans-Serif" font-size="10.00" fill="#000000">Field.cpp</text>
</a>
</g>
</g>
<!-- Node15&#45;&gt;Node17 -->
<g id="edge2" class="edge">
<title>Node15&#45;&gt;Node17</title>
<path fill="none" stroke="#191970" d="M276.5,-158.1575C276.5,-149.155 276.5,-138.9199 276.5,-131.6427"/>
<polygon fill="#191970" stroke="#191970" points="273.0001,-158.2455 276.5,-168.2455 280.0001,-158.2456 273.0001,-158.2455"/>
</g>
<!-- Node18 -->
<g id="node4" class="node">
<title>Node18</title>
<g id="a_node4"><a xlink:href="_b_c_ops_8_h.html" target="_top" xlink:title="BCOps.H">
<polygon fill="#ffffff" stroke="#000000" points="324,-112.5 324,-131.5 383,-131.5 383,-112.5 324,-112.5"/>
<text text-anchor="middle" x="353.5" y="-119.5" font-family="Helvetica,sans-Serif" font-size="10.00" fill="#000000">BCOps.H</text>
</a>
</g>
</g>
<!-- Node15&#45;&gt;Node18 -->
<g id="edge3" class="edge">
<title>Node15&#45;&gt;Node18</title>
<path fill="none" stroke="#191970" d="M298.2116,-162.2097C311.7353,-152.3743 328.6958,-140.0394 340.2413,-131.6427"/>
<polygon fill="#191970" stroke="#191970" points="295.9411,-159.5332 289.9124,-168.2455 300.0584,-165.1944 295.9411,-159.5332"/>
</g>
<!-- Node19 -->
<g id="node5" class="node">
<title>Node19</title>
<g id="a_node5"><a xlink:href="density_8cpp.html" target="_top" xlink:title="density.cpp">
<polygon fill="#ffffff" stroke="#000000" points="0,-56.5 0,-75.5 71,-75.5 71,-56.5 0,-56.5"/>
<text text-anchor="middle" x="35.5" y="-63.5" font-family="Helvetica,sans-Serif" font-size="10.00" fill="#000000">density.cpp</text>
</a>
</g>
</g>
<!-- Node18&#45;&gt;Node19 -->
<g id="edge4" class="edge">
<title>Node18&#45;&gt;Node19</title>
<path fill="none" stroke="#191970" d="M313.7852,-111.7993C210.2961,-90.8021 181.2093,-94.8821 80.5,-76 77.5109,-75.4396 74.4177,-74.8252 71.3171,-74.1852"/>
<polygon fill="#191970" stroke="#191970" points="313.1991,-115.252 323.6995,-113.8406 314.6108,-108.3958 313.1991,-115.252"/>
</g>
<!-- Node20 -->
<g id="node6" class="node">
<title>Node20</title>
<g id="a_node6"><a xlink:href="icns__bcop_8_h.html" target="_top" xlink:title="icns_bcop.H">
<polygon fill="#ffffff" stroke="#000000" points="89,-56.5 89,-75.5 164,-75.5 164,-56.5 89,-56.5"/>
<text text-anchor="middle" x="126.5" y="-63.5" font-family="Helvetica,sans-Serif" font-size="10.00" fill="#000000">icns_bcop.H</text>
</a>
</g>
</g>
<!-- Node18&#45;&gt;Node20 -->
<g id="edge5" class="edge">
<title>Node18&#45;&gt;Node20</title>
<path fill="none" stroke="#191970" d="M313.7153,-111.5753C256.5457,-97.149 200.2994,-83.5836 164.2034,-74.9585"/>
<polygon fill="#191970" stroke="#191970" points="313.0898,-115.0272 323.6428,-114.0869 314.8067,-108.241 313.0898,-115.0272"/>
</g>
<!-- Node22 -->
<g id="node8" class="node">
<title>Node22</title>
<g id="a_node8"><a xlink:href="levelset_8cpp.html" target="_top" xlink:title="levelset.cpp">
<polygon fill="#ffffff" stroke="#000000" points="182.5,-56.5 182.5,-75.5 258.5,-75.5 258.5,-56.5 182.5,-56.5"/>
<text text-anchor="middle" x="220.5" y="-63.5" font-family="Helvetica,sans-Serif" font-size="10.00" fill="#000000">levelset.cpp</text>
</a>
</g>
</g>
<!-- Node18&#45;&gt;Node22 -->
<g id="edge7" class="edge">
<title>Node18&#45;&gt;Node22</title>
<path fill="none" stroke="#191970" d="M321.1603,-108.3833C296.9715,-98.1985 264.505,-84.5284 243.0652,-75.5011"/>
<polygon fill="#191970" stroke="#191970" points="320.0619,-111.7184 330.6365,-112.3733 322.7783,-105.2669 320.0619,-111.7184"/>
</g>
<!-- Node23 -->
<g id="node9" class="node">
<title>Node23</title>
<g id="a_node9"><a xlink:href="_s_d_r_8cpp.html" target="_top" xlink:title="SDR.cpp">
<polygon fill="#ffffff" stroke="#000000" points="277,-56.5 277,-75.5 334,-75.5 334,-56.5 277,-56.5"/>
<text text-anchor="middle" x="305.5" y="-63.5" font-family="Helvetica,sans-Serif" font-size="10.00" fill="#000000">SDR.cpp</text>
</a>
</g>
</g>
<!-- Node18&#45;&gt;Node23 -->
<g id="edge8" class="edge">
<title>Node18&#45;&gt;Node23</title>
<path fill="none" stroke="#191970" d="M338.5003,-104.5004C330.3378,-94.9775 320.5511,-83.5596 313.7651,-75.6427"/>
<polygon fill="#191970" stroke="#191970" points="335.9737,-106.9307 345.139,-112.2455 341.2885,-102.3752 335.9737,-106.9307"/>
</g>
<!-- Node24 -->
<g id="node10" class="node">
<title>Node24</title>
<g id="a_node10"><a xlink:href="temperature_8cpp.html" target="_top" xlink:title="temperature.cpp">
<polygon fill="#ffffff" stroke="#000000" points="352.5,-56.5 352.5,-75.5 450.5,-75.5 450.5,-56.5 352.5,-56.5"/>
<text text-anchor="middle" x="401.5" y="-63.5" font-family="Helvetica,sans-Serif" font-size="10.00" fill="#000000">temperature.cpp</text>
</a>
</g>
</g>
<!-- Node18&#45;&gt;Node24 -->
<g id="edge9" class="edge">
<title>Node18&#45;&gt;Node24</title>
<path fill="none" stroke="#191970" d="M368.4997,-104.5004C376.6622,-94.9775 386.4489,-83.5596 393.2349,-75.6427"/>
<polygon fill="#191970" stroke="#191970" points="365.7115,-102.3752 361.861,-112.2455 371.0263,-106.9307 365.7115,-102.3752"/>
</g>
<!-- Node25 -->
<g id="node11" class="node">
<title>Node25</title>
<g id="a_node11"><a xlink:href="_t_k_e_8cpp.html" target="_top" xlink:title="TKE.cpp">
<polygon fill="#ffffff" stroke="#000000" points="468.5,-56.5 468.5,-75.5 524.5,-75.5 524.5,-56.5 468.5,-56.5"/>
<text text-anchor="middle" x="496.5" y="-63.5" font-family="Helvetica,sans-Serif" font-size="10.00" fill="#000000">TKE.cpp</text>
</a>
</g>
</g>
<!-- Node18&#45;&gt;Node25 -->
<g id="edge10" class="edge">
<title>Node18&#45;&gt;Node25</title>
<path fill="none" stroke="#191970" d="M387.5798,-108.6541C413.6573,-98.4419 448.9815,-84.6086 472.2382,-75.5011"/>
<polygon fill="#191970" stroke="#191970" points="386.1178,-105.4677 378.0826,-112.3733 388.6703,-111.9858 386.1178,-105.4677"/>
</g>
<!-- Node26 -->
<g id="node12" class="node">
<title>Node26</title>
<g id="a_node12"><a xlink:href="vof_8cpp.html" target="_top" xlink:title="vof.cpp">
<polygon fill="#ffffff" stroke="#000000" points="542.5,-56.5 542.5,-75.5 594.5,-75.5 594.5,-56.5 542.5,-56.5"/>
<text text-anchor="middle" x="568.5" y="-63.5" font-family="Helvetica,sans-Serif" font-size="10.00" fill="#000000">vof.cpp</text>
</a>
</g>
</g>
<!-- Node18&#45;&gt;Node26 -->
<g id="edge11" class="edge">
<title>Node18&#45;&gt;Node26</title>
<path fill="none" stroke="#191970" d="M392.9576,-112.2552C429.482,-103.1545 485.2619,-89.0522 533.5,-76 536.3061,-75.2407 539.2338,-74.4315 542.1488,-73.6147"/>
<polygon fill="#191970" stroke="#191970" points="392.0485,-108.8746 383.1887,-114.6844 393.7378,-115.6677 392.0485,-108.8746"/>
</g>
<!-- Node27 -->
<g id="node13" class="node">
<title>Node27</title>
<g id="a_node13"><a xlink:href="_multi_phase_8cpp.html" target="_top" xlink:title="MultiPhase.cpp">
<polygon fill="#ffffff" stroke="#000000" points="612.5,-56.5 612.5,-75.5 702.5,-75.5 702.5,-56.5 612.5,-56.5"/>
<text text-anchor="middle" x="657.5" y="-63.5" font-family="Helvetica,sans-Serif" font-size="10.00" fill="#000000">MultiPhase.cpp</text>
</a>
</g>
</g>
<!-- Node18&#45;&gt;Node27 -->
<g id="edge12" class="edge">
<title>Node18&#45;&gt;Node27</title>
<path fill="none" stroke="#191970" d="M393.0653,-114.7344C442.3552,-105.6798 529.1526,-89.724 603.5,-76 606.4066,-75.4635 609.401,-74.9102 612.4195,-74.3522"/>
<polygon fill="#191970" stroke="#191970" points="392.3378,-111.3094 383.1347,-116.5586 393.6025,-118.1943 392.3378,-111.3094"/>
</g>
<!-- Node21 -->
<g id="node7" class="node">
<title>Node21</title>
<g id="a_node7"><a xlink:href="icns_8cpp.html" target="_top" xlink:title="icns.cpp">
<polygon fill="#ffffff" stroke="#000000" points="98.5,-.5 98.5,-19.5 154.5,-19.5 154.5,-.5 98.5,-.5"/>
<text text-anchor="middle" x="126.5" y="-7.5" font-family="Helvetica,sans-Serif" font-size="10.00" fill="#000000">icns.cpp</text>
</a>
</g>
</g>
<!-- Node20&#45;&gt;Node21 -->
<g id="edge6" class="edge">
<title>Node20&#45;&gt;Node21</title>
<path fill="none" stroke="#191970" d="M126.5,-46.1575C126.5,-37.155 126.5,-26.9199 126.5,-19.6427"/>
<polygon fill="#191970" stroke="#191970" points="123.0001,-46.2455 126.5,-56.2455 130.0001,-46.2456 123.0001,-46.2455"/>
</g>
</g>
</svg>
