<?xml version="1.0" encoding="UTF-8" standalone="no"?>
<!DOCTYPE svg PUBLIC "-//W3C//DTD SVG 1.1//EN"
 "http://www.w3.org/Graphics/SVG/1.1/DTD/svg11.dtd">
<!-- Generated by graphviz version 2.40.1 (20161225.0304)
 -->
<!-- Title: BCOps.H Pages: 1 -->
<svg width="711pt" height="140pt"
 viewBox="0.00 0.00 710.50 140.00" xmlns="http://www.w3.org/2000/svg" xmlns:xlink="http://www.w3.org/1999/xlink">
<g id="graph0" class="graph" transform="scale(1 1) rotate(0) translate(4 136)">
<title>BCOps.H</title>
<polygon fill="#ffffff" stroke="transparent" points="-4,4 -4,-136 706.5,-136 706.5,4 -4,4"/>
<!-- Node52 -->
<g id="node1" class="node">
<title>Node52</title>
<polygon fill="#bfbfbf" stroke="#000000" points="324,-112.5 324,-131.5 383,-131.5 383,-112.5 324,-112.5"/>
<text text-anchor="middle" x="353.5" y="-119.5" font-family="Helvetica,sans-Serif" font-size="10.00" fill="#000000">BCOps.H</text>
</g>
<!-- Node53 -->
<g id="node2" class="node">
<title>Node53</title>
<g id="a_node2"><a xlink:href="density_8cpp.html" target="_top" xlink:title="density.cpp">
<polygon fill="#ffffff" stroke="#000000" points="0,-56.5 0,-75.5 71,-75.5 71,-56.5 0,-56.5"/>
<text text-anchor="middle" x="35.5" y="-63.5" font-family="Helvetica,sans-Serif" font-size="10.00" fill="#000000">density.cpp</text>
</a>
</g>
</g>
<!-- Node52&#45;&gt;Node53 -->
<g id="edge1" class="edge">
<title>Node52&#45;&gt;Node53</title>
<path fill="none" stroke="#191970" d="M313.8818,-115.9831C260.6613,-107.7501 163.2009,-92.1452 80.5,-76 77.5152,-75.4173 74.425,-74.7872 71.3264,-74.1367"/>
<polygon fill="#191970" stroke="#191970" points="313.5022,-119.4659 323.9186,-117.5294 314.5682,-112.5475 313.5022,-119.4659"/>
</g>
<!-- Node54 -->
<g id="node3" class="node">
<title>Node54</title>
<g id="a_node3"><a xlink:href="icns__bcop_8_h.html" target="_top" xlink:title="icns_bcop.H">
<polygon fill="#ffffff" stroke="#000000" points="89,-56.5 89,-75.5 164,-75.5 164,-56.5 89,-56.5"/>
<text text-anchor="middle" x="126.5" y="-63.5" font-family="Helvetica,sans-Serif" font-size="10.00" fill="#000000">icns_bcop.H</text>
</a>
</g>
</g>
<!-- Node52&#45;&gt;Node54 -->
<g id="edge2" class="edge">
<title>Node52&#45;&gt;Node54</title>
<path fill="none" stroke="#191970" d="M313.913,-112.2341C271.7505,-101.8327 205.5087,-85.4911 164.1157,-75.2797"/>
<polygon fill="#191970" stroke="#191970" points="313.2765,-115.6819 323.8237,-114.679 314.9531,-108.8856 313.2765,-115.6819"/>
</g>
<!-- Node56 -->
<g id="node5" class="node">
<title>Node56</title>
<g id="a_node5"><a xlink:href="levelset_8cpp.html" target="_top" xlink:title="levelset.cpp">
<polygon fill="#ffffff" stroke="#000000" points="182.5,-56.5 182.5,-75.5 258.5,-75.5 258.5,-56.5 182.5,-56.5"/>
<text text-anchor="middle" x="220.5" y="-63.5" font-family="Helvetica,sans-Serif" font-size="10.00" fill="#000000">levelset.cpp</text>
</a>
</g>
</g>
<!-- Node52&#45;&gt;Node56 -->
<g id="edge4" class="edge">
<title>Node52&#45;&gt;Node56</title>
<path fill="none" stroke="#191970" d="M321.1603,-108.3833C296.9715,-98.1985 264.505,-84.5284 243.0652,-75.5011"/>
<polygon fill="#191970" stroke="#191970" points="320.0619,-111.7184 330.6365,-112.3733 322.7783,-105.2669 320.0619,-111.7184"/>
</g>
<!-- Node57 -->
<g id="node6" class="node">
<title>Node57</title>
<g id="a_node6"><a xlink:href="_s_d_r_8cpp.html" target="_top" xlink:title="SDR.cpp">
<polygon fill="#ffffff" stroke="#000000" points="277,-56.5 277,-75.5 334,-75.5 334,-56.5 277,-56.5"/>
<text text-anchor="middle" x="305.5" y="-63.5" font-family="Helvetica,sans-Serif" font-size="10.00" fill="#000000">SDR.cpp</text>
</a>
</g>
</g>
<!-- Node52&#45;&gt;Node57 -->
<g id="edge5" class="edge">
<title>Node52&#45;&gt;Node57</title>
<path fill="none" stroke="#191970" d="M338.5003,-104.5004C330.3378,-94.9775 320.5511,-83.5596 313.7651,-75.6427"/>
<polygon fill="#191970" stroke="#191970" points="335.9737,-106.9307 345.139,-112.2455 341.2885,-102.3752 335.9737,-106.9307"/>
</g>
<!-- Node58 -->
<g id="node7" class="node">
<title>Node58</title>
<g id="a_node7"><a xlink:href="temperature_8cpp.html" target="_top" xlink:title="temperature.cpp">
<polygon fill="#ffffff" stroke="#000000" points="352.5,-56.5 352.5,-75.5 450.5,-75.5 450.5,-56.5 352.5,-56.5"/>
<text text-anchor="middle" x="401.5" y="-63.5" font-family="Helvetica,sans-Serif" font-size="10.00" fill="#000000">temperature.cpp</text>
</a>
</g>
</g>
<!-- Node52&#45;&gt;Node58 -->
<g id="edge6" class="edge">
<title>Node52&#45;&gt;Node58</title>
<path fill="none" stroke="#191970" d="M368.4997,-104.5004C376.6622,-94.9775 386.4489,-83.5596 393.2349,-75.6427"/>
<polygon fill="#191970" stroke="#191970" points="365.7115,-102.3752 361.861,-112.2455 371.0263,-106.9307 365.7115,-102.3752"/>
</g>
<!-- Node59 -->
<g id="node8" class="node">
<title>Node59</title>
<g id="a_node8"><a xlink:href="_t_k_e_8cpp.html" target="_top" xlink:title="TKE.cpp">
<polygon fill="#ffffff" stroke="#000000" points="468.5,-56.5 468.5,-75.5 524.5,-75.5 524.5,-56.5 468.5,-56.5"/>
<text text-anchor="middle" x="496.5" y="-63.5" font-family="Helvetica,sans-Serif" font-size="10.00" fill="#000000">TKE.cpp</text>
</a>
</g>
</g>
<!-- Node52&#45;&gt;Node59 -->
<g id="edge7" class="edge">
<title>Node52&#45;&gt;Node59</title>
<path fill="none" stroke="#191970" d="M387.5798,-108.6541C413.6573,-98.4419 448.9815,-84.6086 472.2382,-75.5011"/>
<polygon fill="#191970" stroke="#191970" points="386.1178,-105.4677 378.0826,-112.3733 388.6703,-111.9858 386.1178,-105.4677"/>
</g>
<!-- Node60 -->
<g id="node9" class="node">
<title>Node60</title>
<g id="a_node9"><a xlink:href="vof_8cpp.html" target="_top" xlink:title="vof.cpp">
<polygon fill="#ffffff" stroke="#000000" points="542.5,-56.5 542.5,-75.5 594.5,-75.5 594.5,-56.5 542.5,-56.5"/>
<text text-anchor="middle" x="568.5" y="-63.5" font-family="Helvetica,sans-Serif" font-size="10.00" fill="#000000">vof.cpp</text>
</a>
</g>
</g>
<!-- Node52&#45;&gt;Node60 -->
<g id="edge8" class="edge">
<title>Node52&#45;&gt;Node60</title>
<path fill="none" stroke="#191970" d="M392.9576,-112.2552C429.482,-103.1545 485.2619,-89.0522 533.5,-76 536.3061,-75.2407 539.2338,-74.4315 542.1488,-73.6147"/>
<polygon fill="#191970" stroke="#191970" points="392.0485,-108.8746 383.1887,-114.6844 393.7378,-115.6677 392.0485,-108.8746"/>
</g>
<!-- Node61 -->
<g id="node10" class="node">
<title>Node61</title>
<g id="a_node10"><a xlink:href="_multi_phase_8cpp.html" target="_top" xlink:title="MultiPhase.cpp">
<polygon fill="#ffffff" stroke="#000000" points="612.5,-56.5 612.5,-75.5 702.5,-75.5 702.5,-56.5 612.5,-56.5"/>
<text text-anchor="middle" x="657.5" y="-63.5" font-family="Helvetica,sans-Serif" font-size="10.00" fill="#000000">MultiPhase.cpp</text>
</a>
</g>
</g>
<!-- Node52&#45;&gt;Node61 -->
<g id="edge9" class="edge">
<title>Node52&#45;&gt;Node61</title>
<path fill="none" stroke="#191970" d="M393.0653,-114.7344C442.3552,-105.6798 529.1526,-89.724 603.5,-76 606.4066,-75.4635 609.401,-74.9102 612.4195,-74.3522"/>
<polygon fill="#191970" stroke="#191970" points="392.3378,-111.3094 383.1347,-116.5586 393.6025,-118.1943 392.3378,-111.3094"/>
</g>
<!-- Node55 -->
<g id="node4" class="node">
<title>Node55</title>
<g id="a_node4"><a xlink:href="icns_8cpp.html" target="_top" xlink:title="icns.cpp">
<polygon fill="#ffffff" stroke="#000000" points="98.5,-.5 98.5,-19.5 154.5,-19.5 154.5,-.5 98.5,-.5"/>
<text text-anchor="middle" x="126.5" y="-7.5" font-family="Helvetica,sans-Serif" font-size="10.00" fill="#000000">icns.cpp</text>
</a>
</g>
</g>
<!-- Node54&#45;&gt;Node55 -->
<g id="edge3" class="edge">
<title>Node54&#45;&gt;Node55</title>
<path fill="none" stroke="#191970" d="M126.5,-46.1575C126.5,-37.155 126.5,-26.9199 126.5,-19.6427"/>
<polygon fill="#191970" stroke="#191970" points="123.0001,-46.2455 126.5,-56.2455 130.0001,-46.2456 123.0001,-46.2455"/>
</g>
</g>
</svg>
