<?xml version="1.0" encoding="UTF-8" standalone="no"?>
<!DOCTYPE svg PUBLIC "-//W3C//DTD SVG 1.1//EN"
 "http://www.w3.org/Graphics/SVG/1.1/DTD/svg11.dtd">
<!-- Generated by graphviz version 2.40.1 (20161225.0304)
 -->
<!-- Title: BCInterface.cpp Pages: 1 -->
<svg width="1787pt" height="330pt"
 viewBox="0.00 0.00 1787.33 330.00" xmlns="http://www.w3.org/2000/svg" xmlns:xlink="http://www.w3.org/1999/xlink">
<g id="graph0" class="graph" transform="scale(1 1) rotate(0) translate(4 326)">
<title>BCInterface.cpp</title>
<polygon fill="#ffffff" stroke="transparent" points="-4,4 -4,-326 1783.3336,-326 1783.3336,4 -4,4"/>
<!-- Node0 -->
<g id="node1" class="node">
<title>Node0</title>
<polygon fill="#bfbfbf" stroke="#000000" points="1187.8336,-302.5 1187.8336,-321.5 1281.8336,-321.5 1281.8336,-302.5 1187.8336,-302.5"/>
<text text-anchor="middle" x="1234.8336" y="-309.5" font-family="Helvetica,sans-Serif" font-size="10.00" fill="#000000">BCInterface.cpp</text>
</g>
<!-- Node1 -->
<g id="node2" class="node">
<title>Node1</title>
<g id="a_node2"><a xlink:href="_b_c_interface_8_h.html" target="_top" xlink:title="amr&#45;wind/boundary_conditions\l/BCInterface.H">
<polygon fill="#ffffff" stroke="#000000" points="1489.3336,-168.5 1489.3336,-198.5 1656.3336,-198.5 1656.3336,-168.5 1489.3336,-168.5"/>
<text text-anchor="start" x="1497.3336" y="-186.5" font-family="Helvetica,sans-Serif" font-size="10.00" fill="#000000">amr&#45;wind/boundary_conditions</text>
<text text-anchor="middle" x="1572.8336" y="-175.5" font-family="Helvetica,sans-Serif" font-size="10.00" fill="#000000">/BCInterface.H</text>
</a>
</g>
</g>
<!-- Node0&#45;&gt;Node1 -->
<g id="edge1" class="edge">
<title>Node0&#45;&gt;Node1</title>
<path fill="none" stroke="#191970" d="M1242.9746,-302.4441C1259.0491,-283.8071 1294.7012,-243.6674 1310.8336,-235 1339.6146,-219.537 1416.1348,-205.4886 1479.0959,-195.985"/>
<polygon fill="#191970" stroke="#191970" points="1479.6995,-199.4338 1489.075,-194.4993 1478.6686,-192.5102 1479.6995,-199.4338"/>
</g>
<!-- Node16 -->
<g id="node17" class="node">
<title>Node16</title>
<g id="a_node17"><a xlink:href="_field_repo_8_h.html" target="_top" xlink:title="amr&#45;wind/core/FieldRepo.H">
<polygon fill="#ffffff" stroke="#000000" points="634.8336,-174 634.8336,-193 780.8336,-193 780.8336,-174 634.8336,-174"/>
<text text-anchor="middle" x="707.8336" y="-181" font-family="Helvetica,sans-Serif" font-size="10.00" fill="#000000">amr&#45;wind/core/FieldRepo.H</text>
</a>
</g>
</g>
<!-- Node0&#45;&gt;Node16 -->
<g id="edge20" class="edge">
<title>Node0&#45;&gt;Node16</title>
<path fill="none" stroke="#191970" d="M1195.6535,-302.4466C1101.1185,-279.3958 860.6657,-220.7655 756.8225,-195.4451"/>
<polygon fill="#191970" stroke="#191970" points="757.458,-191.9976 746.9135,-193.029 755.7997,-198.7983 757.458,-191.9976"/>
</g>
<!-- Node24 -->
<g id="node25" class="node">
<title>Node24</title>
<g id="a_node25"><a xlink:href="_fixed_gradient_b_c_8_h.html" target="_top" xlink:title="amr&#45;wind/boundary_conditions\l/FixedGradientBC.H">
<polygon fill="#ffffff" stroke="#000000" points="1096.3336,-235.5 1096.3336,-265.5 1263.3336,-265.5 1263.3336,-235.5 1096.3336,-235.5"/>
<text text-anchor="start" x="1104.3336" y="-253.5" font-family="Helvetica,sans-Serif" font-size="10.00" fill="#000000">amr&#45;wind/boundary_conditions</text>
<text text-anchor="middle" x="1179.8336" y="-242.5" font-family="Helvetica,sans-Serif" font-size="10.00" fill="#000000">/FixedGradientBC.H</text>
</a>
</g>
</g>
<!-- Node0&#45;&gt;Node24 -->
<g id="edge43" class="edge">
<title>Node0&#45;&gt;Node24</title>
<path fill="none" stroke="#191970" d="M1226.2398,-302.3906C1219.2787,-294.6068 1209.185,-283.3202 1200.1878,-273.2597"/>
<polygon fill="#191970" stroke="#191970" points="1202.5632,-270.6654 1193.2881,-265.5446 1197.3454,-275.3318 1202.5632,-270.6654"/>
</g>
<!-- Node29 -->
<g id="node30" class="node">
<title>Node29</title>
<polygon fill="#ffffff" stroke="#bfbfbf" points="1319.3336,-241 1319.3336,-260 1436.3336,-260 1436.3336,-241 1319.3336,-241"/>
<text text-anchor="middle" x="1377.8336" y="-248" font-family="Helvetica,sans-Serif" font-size="10.00" fill="#000000">AMReX_ParmParse.H</text>
</g>
<!-- Node0&#45;&gt;Node29 -->
<g id="edge53" class="edge">
<title>Node0&#45;&gt;Node29</title>
<path fill="none" stroke="#191970" d="M1257.1773,-302.3906C1281.1039,-292.1005 1319.2645,-275.6888 1346.2552,-264.0809"/>
<polygon fill="#191970" stroke="#191970" points="1347.8431,-267.208 1355.6467,-260.0419 1345.0775,-260.7775 1347.8431,-267.208"/>
</g>
<!-- Node2 -->
<g id="node3" class="node">
<title>Node2</title>
<g id="a_node3"><a xlink:href="_field_8_h.html" target="_top" xlink:title="amr&#45;wind/core/Field.H">
<polygon fill="#ffffff" stroke="#000000" points="1118.8336,-112.5 1118.8336,-131.5 1240.8336,-131.5 1240.8336,-112.5 1118.8336,-112.5"/>
<text text-anchor="middle" x="1179.8336" y="-119.5" font-family="Helvetica,sans-Serif" font-size="10.00" fill="#000000">amr&#45;wind/core/Field.H</text>
</a>
</g>
</g>
<!-- Node1&#45;&gt;Node2 -->
<g id="edge2" class="edge">
<title>Node1&#45;&gt;Node2</title>
<path fill="none" stroke="#191970" d="M1489.0073,-170.3821C1418.1408,-159.2923 1317.7438,-143.5814 1250.7945,-133.1046"/>
<polygon fill="#191970" stroke="#191970" points="1251.1778,-129.622 1240.7569,-131.5338 1250.0955,-136.5379 1251.1778,-129.622"/>
</g>
<!-- Node10 -->
<g id="node11" class="node">
<title>Node10</title>
<g id="a_node11"><a xlink:href="incflo__enums_8_h.html" target="_top" xlink:title="amr&#45;wind/incflo_enums.H">
<polygon fill="#ffffff" stroke="#000000" points="1560.8336,-56.5 1560.8336,-75.5 1700.8336,-75.5 1700.8336,-56.5 1560.8336,-56.5"/>
<text text-anchor="middle" x="1630.8336" y="-63.5" font-family="Helvetica,sans-Serif" font-size="10.00" fill="#000000">amr&#45;wind/incflo_enums.H</text>
</a>
</g>
</g>
<!-- Node1&#45;&gt;Node10 -->
<g id="edge17" class="edge">
<title>Node1&#45;&gt;Node10</title>
<path fill="none" stroke="#191970" d="M1575.1831,-168.3066C1577.9245,-153.3461 1583.3406,-130.1634 1592.8336,-112 1598.3034,-101.5343 1606.4372,-91.2677 1613.7777,-83.0982"/>
<polygon fill="#191970" stroke="#191970" points="1616.4324,-85.3841 1620.7257,-75.6981 1611.3292,-80.5927 1616.4324,-85.3841"/>
</g>
<!-- Node14 -->
<g id="node15" class="node">
<title>Node14</title>
<polygon fill="#ffffff" stroke="#bfbfbf" points="1601.3336,-112.5 1601.3336,-131.5 1716.3336,-131.5 1716.3336,-112.5 1601.3336,-112.5"/>
<text text-anchor="middle" x="1658.8336" y="-119.5" font-family="Helvetica,sans-Serif" font-size="10.00" fill="#000000">AMReX_BC_TYPES.H</text>
</g>
<!-- Node1&#45;&gt;Node14 -->
<g id="edge18" class="edge">
<title>Node1&#45;&gt;Node14</title>
<path fill="none" stroke="#191970" d="M1594.092,-168.2977C1607.1054,-158.9917 1623.7239,-147.1075 1636.8653,-137.7099"/>
<polygon fill="#191970" stroke="#191970" points="1639.2225,-140.3271 1645.3207,-131.6633 1635.1507,-134.6332 1639.2225,-140.3271"/>
</g>
<!-- Node15 -->
<g id="node16" class="node">
<title>Node15</title>
<polygon fill="#ffffff" stroke="#bfbfbf" points="1734.3336,-112.5 1734.3336,-131.5 1779.3336,-131.5 1779.3336,-112.5 1734.3336,-112.5"/>
<text text-anchor="middle" x="1756.8336" y="-119.5" font-family="Helvetica,sans-Serif" font-size="10.00" fill="#000000">utility</text>
</g>
<!-- Node1&#45;&gt;Node15 -->
<g id="edge19" class="edge">
<title>Node1&#45;&gt;Node15</title>
<path fill="none" stroke="#191970" d="M1617.8451,-168.4554C1650.7744,-157.4491 1694.6821,-142.7735 1724.2619,-132.8867"/>
<polygon fill="#191970" stroke="#191970" points="1725.7109,-136.0928 1734.0856,-129.6033 1723.4918,-129.4539 1725.7109,-136.0928"/>
</g>
<!-- Node3 -->
<g id="node4" class="node">
<title>Node3</title>
<polygon fill="#ffffff" stroke="#bfbfbf" points="204.8336,-.5 204.8336,-19.5 248.8336,-19.5 248.8336,-.5 204.8336,-.5"/>
<text text-anchor="middle" x="226.8336" y="-7.5" font-family="Helvetica,sans-Serif" font-size="10.00" fill="#000000">string</text>
</g>
<!-- Node2&#45;&gt;Node3 -->
<g id="edge3" class="edge">
<title>Node2&#45;&gt;Node3</title>
<path fill="none" stroke="#191970" d="M1118.7965,-121.0573C975.3112,-118.3232 620.0813,-108.3966 505.8336,-76 487.4723,-70.7934 485.8482,-62.3024 467.8336,-56 395.6569,-30.7491 306.1985,-18.2922 259.1871,-13.1027"/>
<polygon fill="#191970" stroke="#191970" points="259.3163,-9.5968 249.0022,-12.0197 258.576,-16.5576 259.3163,-9.5968"/>
</g>
<!-- Node4 -->
<g id="node5" class="node">
<title>Node4</title>
<polygon fill="#ffffff" stroke="#bfbfbf" points="1298.8336,-56.5 1298.8336,-75.5 1356.8336,-75.5 1356.8336,-56.5 1298.8336,-56.5"/>
<text text-anchor="middle" x="1327.8336" y="-63.5" font-family="Helvetica,sans-Serif" font-size="10.00" fill="#000000">memory</text>
</g>
<!-- Node2&#45;&gt;Node4 -->
<g id="edge4" class="edge">
<title>Node2&#45;&gt;Node4</title>
<path fill="none" stroke="#191970" d="M1205.2757,-112.3733C1229.5662,-103.1822 1266.3544,-89.2624 1293.2879,-79.0713"/>
<polygon fill="#191970" stroke="#191970" points="1294.6093,-82.3136 1302.7235,-75.5011 1292.132,-75.7666 1294.6093,-82.3136"/>
</g>
<!-- Node5 -->
<g id="node6" class="node">
<title>Node5</title>
<polygon fill="#ffffff" stroke="#bfbfbf" points="793.3336,-56.5 793.3336,-75.5 886.3336,-75.5 886.3336,-56.5 793.3336,-56.5"/>
<text text-anchor="middle" x="839.8336" y="-63.5" font-family="Helvetica,sans-Serif" font-size="10.00" fill="#000000">unordered_map</text>
</g>
<!-- Node2&#45;&gt;Node5 -->
<g id="edge5" class="edge">
<title>Node2&#45;&gt;Node5</title>
<path fill="none" stroke="#191970" d="M1121.7718,-112.4369C1058.8002,-102.0651 958.9402,-85.6176 896.5143,-75.3356"/>
<polygon fill="#191970" stroke="#191970" points="896.8853,-71.8497 886.4494,-73.6779 895.7476,-78.7566 896.8853,-71.8497"/>
</g>
<!-- Node6 -->
<g id="node7" class="node">
<title>Node6</title>
<polygon fill="#ffffff" stroke="#bfbfbf" points="1374.8336,-56.5 1374.8336,-75.5 1438.8336,-75.5 1438.8336,-56.5 1374.8336,-56.5"/>
<text text-anchor="middle" x="1406.8336" y="-63.5" font-family="Helvetica,sans-Serif" font-size="10.00" fill="#000000">algorithm</text>
</g>
<!-- Node2&#45;&gt;Node6 -->
<g id="edge6" class="edge">
<title>Node2&#45;&gt;Node6</title>
<path fill="none" stroke="#191970" d="M1218.5984,-112.4369C1259.3085,-102.3939 1323.1104,-86.6542 1364.9537,-76.3316"/>
<polygon fill="#191970" stroke="#191970" points="1365.9603,-79.6883 1374.8309,-73.8949 1364.2836,-72.892 1365.9603,-79.6883"/>
</g>
<!-- Node7 -->
<g id="node8" class="node">
<title>Node7</title>
<polygon fill="#ffffff" stroke="#bfbfbf" points="895.3336,-.5 895.3336,-19.5 1002.3336,-19.5 1002.3336,-.5 895.3336,-.5"/>
<text text-anchor="middle" x="948.8336" y="-7.5" font-family="Helvetica,sans-Serif" font-size="10.00" fill="#000000">AMReX_MultiFab.H</text>
</g>
<!-- Node2&#45;&gt;Node7 -->
<g id="edge7" class="edge">
<title>Node2&#45;&gt;Node7</title>
<path fill="none" stroke="#191970" d="M1175.3283,-112.2655C1168.0781,-97.711 1152.4178,-70.4475 1130.8336,-56 1111.4456,-43.0225 1056.8181,-30.173 1012.4318,-21.3673"/>
<polygon fill="#191970" stroke="#191970" points="1013.0415,-17.9204 1002.5563,-19.4405 1011.701,-24.7908 1013.0415,-17.9204"/>
</g>
<!-- Node8 -->
<g id="node9" class="node">
<title>Node8</title>
<polygon fill="#ffffff" stroke="#bfbfbf" points="1183.3336,-56.5 1183.3336,-75.5 1280.3336,-75.5 1280.3336,-56.5 1183.3336,-56.5"/>
<text text-anchor="middle" x="1231.8336" y="-63.5" font-family="Helvetica,sans-Serif" font-size="10.00" fill="#000000">AMReX_BCRec.H</text>
</g>
<!-- Node2&#45;&gt;Node8 -->
<g id="edge8" class="edge">
<title>Node2&#45;&gt;Node8</title>
<path fill="none" stroke="#191970" d="M1188.8913,-112.2455C1196.3478,-104.2155 1207.097,-92.6394 1215.9753,-83.0781"/>
<polygon fill="#191970" stroke="#191970" points="1218.6399,-85.3522 1222.8797,-75.6427 1213.5104,-80.589 1218.6399,-85.3522"/>
</g>
<!-- Node9 -->
<g id="node10" class="node">
<title>Node9</title>
<polygon fill="#ffffff" stroke="#bfbfbf" points="1456.8336,-56.5 1456.8336,-75.5 1542.8336,-75.5 1542.8336,-56.5 1456.8336,-56.5"/>
<text text-anchor="middle" x="1499.8336" y="-63.5" font-family="Helvetica,sans-Serif" font-size="10.00" fill="#000000">AMReX_Gpu.H</text>
</g>
<!-- Node2&#45;&gt;Node9 -->
<g id="edge9" class="edge">
<title>Node2&#45;&gt;Node9</title>
<path fill="none" stroke="#191970" d="M1237.3989,-112.4615C1289.4819,-103.7537 1368.5644,-90.3397 1446.6979,-76.1811"/>
<polygon fill="#191970" stroke="#191970" points="1447.5028,-79.5923 1456.7158,-74.3607 1446.2512,-72.7051 1447.5028,-79.5923"/>
</g>
<!-- Node2&#45;&gt;Node10 -->
<g id="edge10" class="edge">
<title>Node2&#45;&gt;Node10</title>
<path fill="none" stroke="#191970" d="M1241.0587,-114.484C1312.7012,-105.6768 1435.2006,-90.5795 1550.5569,-76.1572"/>
<polygon fill="#191970" stroke="#191970" points="1551.1354,-79.6121 1560.6237,-74.898 1550.2666,-72.6663 1551.1354,-79.6121"/>
</g>
<!-- Node11 -->
<g id="node12" class="node">
<title>Node11</title>
<g id="a_node12"><a xlink:href="_field_desc_types_8_h.html" target="_top" xlink:title="amr&#45;wind/core/FieldDescTypes.H">
<polygon fill="#ffffff" stroke="#000000" points="601.8336,-.5 601.8336,-19.5 775.8336,-19.5 775.8336,-.5 601.8336,-.5"/>
<text text-anchor="middle" x="688.8336" y="-7.5" font-family="Helvetica,sans-Serif" font-size="10.00" fill="#000000">amr&#45;wind/core/FieldDescTypes.H</text>
</a>
</g>
</g>
<!-- Node2&#45;&gt;Node11 -->
<g id="edge11" class="edge">
<title>Node2&#45;&gt;Node11</title>
<path fill="none" stroke="#191970" d="M1118.6771,-115.486C1068.3412,-108.9546 995.6394,-96.8087 934.8336,-76 916.4033,-69.6929 914.1571,-62.611 895.8336,-56 852.2576,-40.278 801.506,-28.8977 761.1617,-21.3896"/>
<polygon fill="#191970" stroke="#191970" points="761.605,-17.9129 751.1396,-19.5639 760.3504,-24.7995 761.605,-17.9129"/>
</g>
<!-- Node12 -->
<g id="node13" class="node">
<title>Node12</title>
<g id="a_node13"><a xlink:href="_view_field_8_h.html" target="_top" xlink:title="amr&#45;wind/core/ViewField.H">
<polygon fill="#ffffff" stroke="#000000" points="514.8336,-56.5 514.8336,-75.5 660.8336,-75.5 660.8336,-56.5 514.8336,-56.5"/>
<text text-anchor="middle" x="587.8336" y="-63.5" font-family="Helvetica,sans-Serif" font-size="10.00" fill="#000000">amr&#45;wind/core/ViewField.H</text>
</a>
</g>
</g>
<!-- Node2&#45;&gt;Node12 -->
<g id="edge12" class="edge">
<title>Node2&#45;&gt;Node12</title>
<path fill="none" stroke="#191970" d="M1118.7089,-116.2179C1012.0686,-106.1303 791.9129,-85.3048 671.3155,-73.8969"/>
<polygon fill="#191970" stroke="#191970" points="671.315,-70.3813 661.0298,-72.924 670.6557,-77.3502 671.315,-70.3813"/>
</g>
<!-- Node12&#45;&gt;Node3 -->
<g id="edge13" class="edge">
<title>Node12&#45;&gt;Node3</title>
<path fill="none" stroke="#191970" d="M526.1857,-56.4369C448.8669,-44.4428 319.171,-24.3238 259.1328,-15.0104"/>
<polygon fill="#191970" stroke="#191970" points="259.5166,-11.5282 249.0982,-13.4538 258.4435,-18.4454 259.5166,-11.5282"/>
</g>
<!-- Node12&#45;&gt;Node7 -->
<g id="edge15" class="edge">
<title>Node12&#45;&gt;Node7</title>
<path fill="none" stroke="#191970" d="M649.4815,-56.4369C715.1817,-46.2452 818.7004,-30.1869 885.1641,-19.8767"/>
<polygon fill="#191970" stroke="#191970" points="885.7514,-23.3276 895.0967,-18.3359 884.6783,-16.4103 885.7514,-23.3276"/>
</g>
<!-- Node12&#45;&gt;Node11 -->
<g id="edge14" class="edge">
<title>Node12&#45;&gt;Node11</title>
<path fill="none" stroke="#191970" d="M605.4265,-56.2455C621.2126,-47.4928 644.5975,-34.527 662.5923,-24.5496"/>
<polygon fill="#191970" stroke="#191970" points="664.3939,-27.5528 671.4423,-19.6427 660.9995,-21.4308 664.3939,-27.5528"/>
</g>
<!-- Node13 -->
<g id="node14" class="node">
<title>Node13</title>
<polygon fill="#ffffff" stroke="#bfbfbf" points="377.8336,-.5 377.8336,-19.5 473.8336,-19.5 473.8336,-.5 377.8336,-.5"/>
<text text-anchor="middle" x="425.8336" y="-7.5" font-family="Helvetica,sans-Serif" font-size="10.00" fill="#000000">AMReX_Vector.H</text>
</g>
<!-- Node12&#45;&gt;Node13 -->
<g id="edge16" class="edge">
<title>Node12&#45;&gt;Node13</title>
<path fill="none" stroke="#191970" d="M559.9848,-56.3733C533.1633,-47.1016 492.4209,-33.0178 462.8738,-22.804"/>
<polygon fill="#191970" stroke="#191970" points="463.9138,-19.4603 453.319,-19.5011 461.6267,-26.0762 463.9138,-19.4603"/>
</g>
<!-- Node16&#45;&gt;Node2 -->
<g id="edge28" class="edge">
<title>Node16&#45;&gt;Node2</title>
<path fill="none" stroke="#191970" d="M781.0142,-174.0858C860.6798,-163.8189 991.8251,-146.8638 1104.8336,-132 1105.9406,-131.8544 1107.0568,-131.7074 1108.1804,-131.5594"/>
<polygon fill="#191970" stroke="#191970" points="1108.9857,-134.9835 1118.441,-130.2037 1108.0687,-128.0438 1108.9857,-134.9835"/>
</g>
<!-- Node16&#45;&gt;Node3 -->
<g id="edge21" class="edge">
<title>Node16&#45;&gt;Node3</title>
<path fill="none" stroke="#191970" d="M634.588,-182.2341C492.2026,-178.9932 183.3258,-167.9274 83.8336,-132 43.0125,-117.2592 23.8767,-114.4958 3.8336,-76 -.2714,-68.1157 -1.7811,-62.8911 3.8336,-56 27.5259,-26.9217 138.6326,-15.6768 194.5363,-11.8047"/>
<polygon fill="#191970" stroke="#191970" points="194.8689,-15.2905 204.619,-11.1451 194.4119,-8.3055 194.8689,-15.2905"/>
</g>
<!-- Node16&#45;&gt;Node5 -->
<g id="edge22" class="edge">
<title>Node16&#45;&gt;Node5</title>
<path fill="none" stroke="#191970" d="M718.6357,-173.8845C741.1643,-153.8306 793.387,-107.3445 821.3594,-82.4449"/>
<polygon fill="#191970" stroke="#191970" points="823.7399,-85.0116 828.8822,-75.7484 819.0857,-79.783 823.7399,-85.0116"/>
</g>
<!-- Node16&#45;&gt;Node7 -->
<g id="edge41" class="edge">
<title>Node16&#45;&gt;Node7</title>
<path fill="none" stroke="#191970" d="M780.4159,-173.9977C882.2829,-159.0033 1059.5336,-126.2854 1097.8336,-76 1103.2195,-68.9286 1103.1111,-63.1526 1097.8336,-56 1087.1816,-41.5634 1047.6206,-29.7453 1011.94,-21.704"/>
<polygon fill="#191970" stroke="#191970" points="1012.5226,-18.2488 1002.0064,-19.537 1011.0307,-25.088 1012.5226,-18.2488"/>
</g>
<!-- Node16&#45;&gt;Node11 -->
<g id="edge23" class="edge">
<title>Node16&#45;&gt;Node11</title>
<path fill="none" stroke="#191970" d="M706.785,-173.9248C703.7816,-146.499 695.1011,-67.232 691.0125,-29.8964"/>
<polygon fill="#191970" stroke="#191970" points="694.4702,-29.3191 689.9024,-19.7595 687.5118,-30.0811 694.4702,-29.3191"/>
</g>
<!-- Node17 -->
<g id="node18" class="node">
<title>Node17</title>
<g id="a_node18"><a xlink:href="_field_utils_8_h.html" target="_top" xlink:title="amr&#45;wind/core/FieldUtils.H">
<polygon fill="#ffffff" stroke="#000000" points="943.3336,-56.5 943.3336,-75.5 1088.3336,-75.5 1088.3336,-56.5 943.3336,-56.5"/>
<text text-anchor="middle" x="1015.8336" y="-63.5" font-family="Helvetica,sans-Serif" font-size="10.00" fill="#000000">amr&#45;wind/core/FieldUtils.H</text>
</a>
</g>
</g>
<!-- Node16&#45;&gt;Node17 -->
<g id="edge24" class="edge">
<title>Node16&#45;&gt;Node17</title>
<path fill="none" stroke="#191970" d="M732.7776,-173.984C787.561,-153.0845 918.4893,-103.1362 981.1999,-79.2125"/>
<polygon fill="#191970" stroke="#191970" points="982.5611,-82.4394 990.6567,-75.6048 980.066,-75.8991 982.5611,-82.4394"/>
</g>
<!-- Node19 -->
<g id="node20" class="node">
<title>Node19</title>
<g id="a_node20"><a xlink:href="_int_field_8_h.html" target="_top" xlink:title="amr&#45;wind/core/IntField.H">
<polygon fill="#ffffff" stroke="#000000" points="115.3336,-112.5 115.3336,-131.5 250.3336,-131.5 250.3336,-112.5 115.3336,-112.5"/>
<text text-anchor="middle" x="182.8336" y="-119.5" font-family="Helvetica,sans-Serif" font-size="10.00" fill="#000000">amr&#45;wind/core/IntField.H</text>
</a>
</g>
</g>
<!-- Node16&#45;&gt;Node19 -->
<g id="edge29" class="edge">
<title>Node16&#45;&gt;Node19</title>
<path fill="none" stroke="#191970" d="M634.5584,-174.9163C536.0085,-163.3719 361.5162,-142.9314 260.68,-131.1191"/>
<polygon fill="#191970" stroke="#191970" points="260.8968,-127.6207 250.5575,-129.9334 260.0823,-134.5732 260.8968,-127.6207"/>
</g>
<!-- Node20 -->
<g id="node21" class="node">
<title>Node20</title>
<polygon fill="#ffffff" stroke="#bfbfbf" points="12.8336,-56.5 12.8336,-75.5 122.8336,-75.5 122.8336,-56.5 12.8336,-56.5"/>
<text text-anchor="middle" x="67.8336" y="-63.5" font-family="Helvetica,sans-Serif" font-size="10.00" fill="#000000">AMReX_iMultiFab.H</text>
</g>
<!-- Node16&#45;&gt;Node20 -->
<g id="edge42" class="edge">
<title>Node16&#45;&gt;Node20</title>
<path fill="none" stroke="#191970" d="M634.7372,-181.0182C484.1051,-175.3631 149.5249,-159.812 105.8336,-132 89.1587,-121.3855 79.0001,-100.6599 73.4338,-85.2526"/>
<polygon fill="#191970" stroke="#191970" points="76.7214,-84.0449 70.2902,-75.6253 70.0671,-86.2178 76.7214,-84.0449"/>
</g>
<!-- Node21 -->
<g id="node22" class="node">
<title>Node21</title>
<g id="a_node22"><a xlink:href="_scratch_field_8_h.html" target="_top" xlink:title="amr&#45;wind/core/ScratchField.H">
<polygon fill="#ffffff" stroke="#000000" points="315.8336,-112.5 315.8336,-131.5 473.8336,-131.5 473.8336,-112.5 315.8336,-112.5"/>
<text text-anchor="middle" x="394.8336" y="-119.5" font-family="Helvetica,sans-Serif" font-size="10.00" fill="#000000">amr&#45;wind/core/ScratchField.H</text>
</a>
</g>
</g>
<!-- Node16&#45;&gt;Node21 -->
<g id="edge33" class="edge">
<title>Node16&#45;&gt;Node21</title>
<path fill="none" stroke="#191970" d="M659.2708,-173.9581C603.6761,-163.0345 512.6497,-145.1492 453.2342,-133.4749"/>
<polygon fill="#191970" stroke="#191970" points="453.74,-130.0074 443.2528,-131.5137 452.3904,-136.8761 453.74,-130.0074"/>
</g>
<!-- Node23 -->
<g id="node24" class="node">
<title>Node23</title>
<polygon fill="#ffffff" stroke="#bfbfbf" points="551.3336,-112.5 551.3336,-131.5 660.3336,-131.5 660.3336,-112.5 551.3336,-112.5"/>
<text text-anchor="middle" x="605.8336" y="-119.5" font-family="Helvetica,sans-Serif" font-size="10.00" fill="#000000">AMReX_AmrCore.H</text>
</g>
<!-- Node16&#45;&gt;Node23 -->
<g id="edge40" class="edge">
<title>Node16&#45;&gt;Node23</title>
<path fill="none" stroke="#191970" d="M691.8961,-173.8906C675.4285,-163.9616 649.5078,-148.333 630.4132,-136.8201"/>
<polygon fill="#191970" stroke="#191970" points="632.0302,-133.7081 621.6592,-131.5419 628.4158,-139.7027 632.0302,-133.7081"/>
</g>
<!-- Node17&#45;&gt;Node7 -->
<g id="edge26" class="edge">
<title>Node17&#45;&gt;Node7</title>
<path fill="none" stroke="#191970" d="M1004.1631,-56.2455C994.2675,-47.9746 979.8709,-35.9416 968.2435,-26.2232"/>
<polygon fill="#191970" stroke="#191970" points="970.2878,-23.3703 960.3704,-19.6427 965.7986,-28.7413 970.2878,-23.3703"/>
</g>
<!-- Node17&#45;&gt;Node11 -->
<g id="edge25" class="edge">
<title>Node17&#45;&gt;Node11</title>
<path fill="none" stroke="#191970" d="M959.9918,-56.4369C903.0878,-46.6918 814.864,-31.5832 754.61,-21.2645"/>
<polygon fill="#191970" stroke="#191970" points="754.8924,-17.7619 744.445,-19.5237 753.7107,-24.6615 754.8924,-17.7619"/>
</g>
<!-- Node18 -->
<g id="node19" class="node">
<title>Node18</title>
<polygon fill="#ffffff" stroke="#bfbfbf" points="1020.8336,-.5 1020.8336,-19.5 1142.8336,-19.5 1142.8336,-.5 1020.8336,-.5"/>
<text text-anchor="middle" x="1081.8336" y="-7.5" font-family="Helvetica,sans-Serif" font-size="10.00" fill="#000000">AMReX_Interpolater.H</text>
</g>
<!-- Node17&#45;&gt;Node18 -->
<g id="edge27" class="edge">
<title>Node17&#45;&gt;Node18</title>
<path fill="none" stroke="#191970" d="M1027.3299,-56.2455C1037.0778,-47.9746 1051.2595,-35.9416 1062.7134,-26.2232"/>
<polygon fill="#191970" stroke="#191970" points="1065.1083,-28.7813 1070.469,-19.6427 1060.5795,-23.4437 1065.1083,-28.7813"/>
</g>
<!-- Node19&#45;&gt;Node3 -->
<g id="edge30" class="edge">
<title>Node19&#45;&gt;Node3</title>
<path fill="none" stroke="#191970" d="M178.5336,-112.1186C173.3998,-98.7713 166.4896,-74.5215 174.8336,-56 180.4032,-43.6369 191.1199,-33.2563 201.3842,-25.5033"/>
<polygon fill="#191970" stroke="#191970" points="203.5954,-28.2277 209.7769,-19.623 199.5787,-22.4948 203.5954,-28.2277"/>
</g>
<!-- Node19&#45;&gt;Node11 -->
<g id="edge31" class="edge">
<title>Node19&#45;&gt;Node11</title>
<path fill="none" stroke="#191970" d="M197.3267,-112.4958C220.6154,-97.7314 268.2825,-69.5745 312.8336,-56 363.2125,-40.6498 497.7295,-26.5014 591.3846,-18.0595"/>
<polygon fill="#191970" stroke="#191970" points="591.8047,-21.536 601.4534,-17.1596 591.1815,-14.5638 591.8047,-21.536"/>
</g>
<!-- Node19&#45;&gt;Node20 -->
<g id="edge32" class="edge">
<title>Node19&#45;&gt;Node20</title>
<path fill="none" stroke="#191970" d="M163.0644,-112.3733C144.6867,-103.4241 117.1024,-89.9917 96.3443,-79.8835"/>
<polygon fill="#191970" stroke="#191970" points="97.8679,-76.7325 87.3448,-75.5011 94.8032,-83.026 97.8679,-76.7325"/>
</g>
<!-- Node21&#45;&gt;Node3 -->
<g id="edge34" class="edge">
<title>Node21&#45;&gt;Node3</title>
<path fill="none" stroke="#191970" d="M358.5817,-112.4918C334.9258,-105.1081 304.2132,-93.2008 280.8336,-76 263.2254,-63.0453 247.9648,-43.078 238.2015,-28.4973"/>
<polygon fill="#191970" stroke="#191970" points="240.9693,-26.3309 232.6101,-19.8213 235.0854,-30.123 240.9693,-26.3309"/>
</g>
<!-- Node21&#45;&gt;Node7 -->
<g id="edge37" class="edge">
<title>Node21&#45;&gt;Node7</title>
<path fill="none" stroke="#191970" d="M459.2335,-112.4681C515.1064,-103.9027 598.0641,-90.4747 669.8336,-76 752.0537,-59.4176 846.9196,-36.0686 902.1578,-22.0463"/>
<polygon fill="#191970" stroke="#191970" points="903.1719,-25.3999 911.9989,-19.5403 901.4444,-18.6163 903.1719,-25.3999"/>
</g>
<!-- Node21&#45;&gt;Node11 -->
<g id="edge35" class="edge">
<title>Node21&#45;&gt;Node11</title>
<path fill="none" stroke="#191970" d="M370.132,-112.4624C342.0264,-100.2533 302.3889,-78.0341 321.8336,-56 339.4893,-35.9932 488.9312,-22.5745 591.5846,-15.623"/>
<polygon fill="#191970" stroke="#191970" points="591.9324,-19.1077 601.6774,-14.9501 591.4666,-12.1232 591.9324,-19.1077"/>
</g>
<!-- Node21&#45;&gt;Node12 -->
<g id="edge36" class="edge">
<title>Node21&#45;&gt;Node12</title>
<path fill="none" stroke="#191970" d="M428.0115,-112.3733C460.3823,-102.9807 509.7734,-88.6496 545.076,-78.4064"/>
<polygon fill="#191970" stroke="#191970" points="546.4601,-81.6492 555.0887,-75.5011 544.5094,-74.9264 546.4601,-81.6492"/>
</g>
<!-- Node21&#45;&gt;Node13 -->
<g id="edge38" class="edge">
<title>Node21&#45;&gt;Node13</title>
<path fill="none" stroke="#191970" d="M350.6222,-112.4204C313.3331,-102.1956 268.9631,-83.6325 288.8336,-56 298.69,-42.2933 336.0443,-30.2854 369.2615,-21.978"/>
<polygon fill="#191970" stroke="#191970" points="370.5079,-25.2774 379.4024,-19.5209 368.8594,-18.4742 370.5079,-25.2774"/>
</g>
<!-- Node22 -->
<g id="node23" class="node">
<title>Node22</title>
<polygon fill="#ffffff" stroke="#bfbfbf" points="330.8336,-56.5 330.8336,-75.5 458.8336,-75.5 458.8336,-56.5 330.8336,-56.5"/>
<text text-anchor="middle" x="394.8336" y="-63.5" font-family="Helvetica,sans-Serif" font-size="10.00" fill="#000000">AMReX_PhysBCFunct.H</text>
</g>
<!-- Node21&#45;&gt;Node22 -->
<g id="edge39" class="edge">
<title>Node21&#45;&gt;Node22</title>
<path fill="none" stroke="#191970" d="M394.8336,-112.2455C394.8336,-104.9382 394.8336,-94.6944 394.8336,-85.7046"/>
<polygon fill="#191970" stroke="#191970" points="398.3337,-85.6426 394.8336,-75.6427 391.3337,-85.6427 398.3337,-85.6426"/>
</g>
<!-- Node24&#45;&gt;Node16 -->
<g id="edge51" class="edge">
<title>Node24&#45;&gt;Node16</title>
<path fill="none" stroke="#191970" d="M1096.2648,-238.6375C1008.1396,-226.1282 870.4507,-206.5834 784.8731,-194.4357"/>
<polygon fill="#191970" stroke="#191970" points="785.3521,-190.9687 774.9594,-193.0285 784.3682,-197.8992 785.3521,-190.9687"/>
</g>
<!-- Node25 -->
<g id="node26" class="node">
<title>Node25</title>
<g id="a_node26"><a xlink:href="_field_b_c_ops_8_h.html" target="_top" xlink:title="amr&#45;wind/core/FieldBCOps.H">
<polygon fill="#ffffff" stroke="#000000" points="1102.3336,-174 1102.3336,-193 1257.3336,-193 1257.3336,-174 1102.3336,-174"/>
<text text-anchor="middle" x="1179.8336" y="-181" font-family="Helvetica,sans-Serif" font-size="10.00" fill="#000000">amr&#45;wind/core/FieldBCOps.H</text>
</a>
</g>
</g>
<!-- Node24&#45;&gt;Node25 -->
<g id="edge44" class="edge">
<title>Node24&#45;&gt;Node25</title>
<path fill="none" stroke="#191970" d="M1179.8336,-235.2967C1179.8336,-225.7699 1179.8336,-213.3954 1179.8336,-203.1306"/>
<polygon fill="#191970" stroke="#191970" points="1183.3337,-203.0549 1179.8336,-193.055 1176.3337,-203.055 1183.3337,-203.0549"/>
</g>
<!-- Node28 -->
<g id="node29" class="node">
<title>Node28</title>
<polygon fill="#ffffff" stroke="#bfbfbf" points="1275.3336,-174 1275.3336,-193 1396.3336,-193 1396.3336,-174 1275.3336,-174"/>
<text text-anchor="middle" x="1335.8336" y="-181" font-family="Helvetica,sans-Serif" font-size="10.00" fill="#000000">AMReX_Orientation.H</text>
</g>
<!-- Node24&#45;&gt;Node28 -->
<g id="edge52" class="edge">
<title>Node24&#45;&gt;Node28</title>
<path fill="none" stroke="#191970" d="M1214.843,-235.4639C1241.6074,-223.969 1278.1925,-208.2561 1304.1059,-197.1266"/>
<polygon fill="#191970" stroke="#191970" points="1305.6651,-200.2662 1313.4722,-193.1039 1302.9026,-193.8343 1305.6651,-200.2662"/>
</g>
<!-- Node25&#45;&gt;Node2 -->
<g id="edge46" class="edge">
<title>Node25&#45;&gt;Node2</title>
<path fill="none" stroke="#191970" d="M1179.8336,-173.8906C1179.8336,-165.3657 1179.8336,-152.6392 1179.8336,-141.9235"/>
<polygon fill="#191970" stroke="#191970" points="1183.3337,-141.7448 1179.8336,-131.7449 1176.3337,-141.7449 1183.3337,-141.7448"/>
</g>
<!-- Node25&#45;&gt;Node9 -->
<g id="edge47" class="edge">
<title>Node25&#45;&gt;Node9</title>
<path fill="none" stroke="#191970" d="M1192.9793,-173.9015C1217.1388,-156.4143 1267.944,-120.3911 1287.8336,-112 1302.3597,-105.8717 1388.5831,-88.0801 1446.4965,-76.5047"/>
<polygon fill="#191970" stroke="#191970" points="1447.4774,-79.8781 1456.6003,-74.4908 1446.109,-73.0132 1447.4774,-79.8781"/>
</g>
<!-- Node25&#45;&gt;Node11 -->
<g id="edge45" class="edge">
<title>Node25&#45;&gt;Node11</title>
<path fill="none" stroke="#191970" d="M1121.4682,-173.9769C1042.4627,-159.6847 898.3214,-128.5986 784.8336,-76 756.1604,-62.7107 726.7249,-41.056 708.1399,-26.1986"/>
<polygon fill="#191970" stroke="#191970" points="710.137,-23.3113 700.1725,-19.7114 705.7172,-28.7395 710.137,-23.3113"/>
</g>
<!-- Node25&#45;&gt;Node22 -->
<g id="edge50" class="edge">
<title>Node25&#45;&gt;Node22</title>
<path fill="none" stroke="#191970" d="M1113.7786,-173.9986C1042.8421,-163.7633 926.8312,-146.933 826.8336,-132 699.9253,-113.0484 552.1526,-90.3315 466.4727,-77.0959"/>
<polygon fill="#191970" stroke="#191970" points="466.7546,-73.598 456.3374,-75.5297 465.6855,-80.5159 466.7546,-73.598"/>
</g>
<!-- Node26 -->
<g id="node27" class="node">
<title>Node26</title>
<polygon fill="#ffffff" stroke="#bfbfbf" points="1296.8336,-112.5 1296.8336,-131.5 1412.8336,-131.5 1412.8336,-112.5 1296.8336,-112.5"/>
<text text-anchor="middle" x="1354.8336" y="-119.5" font-family="Helvetica,sans-Serif" font-size="10.00" fill="#000000">AMReX_FArrayBox.H</text>
</g>
<!-- Node25&#45;&gt;Node26 -->
<g id="edge48" class="edge">
<title>Node25&#45;&gt;Node26</title>
<path fill="none" stroke="#191970" d="M1207.1773,-173.8906C1236.9718,-163.42 1284.8021,-146.6111 1317.9144,-134.9745"/>
<polygon fill="#191970" stroke="#191970" points="1319.4079,-138.1595 1327.6819,-131.5419 1317.087,-131.5554 1319.4079,-138.1595"/>
</g>
<!-- Node27 -->
<g id="node28" class="node">
<title>Node27</title>
<polygon fill="#ffffff" stroke="#bfbfbf" points="1431.3336,-112.5 1431.3336,-131.5 1544.3336,-131.5 1544.3336,-112.5 1431.3336,-112.5"/>
<text text-anchor="middle" x="1487.8336" y="-119.5" font-family="Helvetica,sans-Serif" font-size="10.00" fill="#000000">AMReX_Geometry.H</text>
</g>
<!-- Node25&#45;&gt;Node27 -->
<g id="edge49" class="edge">
<title>Node25&#45;&gt;Node27</title>
<path fill="none" stroke="#191970" d="M1227.6207,-173.9581C1282.3273,-163.0345 1371.8996,-145.1492 1430.3659,-133.4749"/>
<polygon fill="#191970" stroke="#191970" points="1431.0668,-136.9041 1440.1879,-131.5137 1429.6961,-130.0396 1431.0668,-136.9041"/>
</g>
</g>
</svg>
