<?xml version="1.0" encoding="UTF-8" standalone="no"?>
<!DOCTYPE svg PUBLIC "-//W3C//DTD SVG 1.1//EN"
 "http://www.w3.org/Graphics/SVG/1.1/DTD/svg11.dtd">
<!-- Generated by graphviz version 2.40.1 (20161225.0304)
 -->
<!-- Title: BoussinesqBubbleFieldInit.cpp Pages: 1 -->
<svg width="778pt" height="151pt"
 viewBox="0.00 0.00 777.50 151.00" xmlns="http://www.w3.org/2000/svg" xmlns:xlink="http://www.w3.org/1999/xlink">
<g id="graph0" class="graph" transform="scale(1 1) rotate(0) translate(4 147)">
<title>BoussinesqBubbleFieldInit.cpp</title>
<polygon fill="#ffffff" stroke="transparent" points="-4,4 -4,-147 773.5,-147 773.5,4 -4,4"/>
<!-- Node0 -->
<g id="node1" class="node">
<title>Node0</title>
<polygon fill="#bfbfbf" stroke="#000000" points="417.5,-123.5 417.5,-142.5 581.5,-142.5 581.5,-123.5 417.5,-123.5"/>
<text text-anchor="middle" x="499.5" y="-130.5" font-family="Helvetica,sans-Serif" font-size="10.00" fill="#000000">BoussinesqBubbleFieldInit.cpp</text>
</g>
<!-- Node1 -->
<g id="node2" class="node">
<title>Node1</title>
<polygon fill="#ffffff" stroke="#bfbfbf" points="300,-62 300,-81 347,-81 347,-62 300,-62"/>
<text text-anchor="middle" x="323.5" y="-69" font-family="Helvetica,sans-Serif" font-size="10.00" fill="#000000">cmath</text>
</g>
<!-- Node0&#45;&gt;Node1 -->
<g id="edge1" class="edge">
<title>Node0&#45;&gt;Node1</title>
<path fill="none" stroke="#191970" d="M464.9766,-123.469C435.4997,-114.9777 392.1785,-101.6556 355.5,-87 354.1386,-86.456 352.7543,-85.8796 351.3632,-85.2813"/>
<polygon fill="#191970" stroke="#191970" points="352.8034,-82.0914 342.2522,-81.1311 349.9016,-88.4616 352.8034,-82.0914"/>
</g>
<!-- Node2 -->
<g id="node3" class="node">
<title>Node2</title>
<g id="a_node3"><a xlink:href="_boussinesq_bubble_field_init_8_h.html" target="_top" xlink:title="amr&#45;wind/physics/Boussinesq\lBubbleFieldInit.H">
<polygon fill="#ffffff" stroke="#000000" points="365,-56.5 365,-86.5 526,-86.5 526,-56.5 365,-56.5"/>
<text text-anchor="start" x="373" y="-74.5" font-family="Helvetica,sans-Serif" font-size="10.00" fill="#000000">amr&#45;wind/physics/Boussinesq</text>
<text text-anchor="middle" x="445.5" y="-63.5" font-family="Helvetica,sans-Serif" font-size="10.00" fill="#000000">BubbleFieldInit.H</text>
</a>
</g>
</g>
<!-- Node0&#45;&gt;Node2 -->
<g id="edge2" class="edge">
<title>Node0&#45;&gt;Node2</title>
<path fill="none" stroke="#191970" d="M491.0625,-123.3906C484.2279,-115.6068 474.3177,-104.3202 465.4841,-94.2597"/>
<polygon fill="#191970" stroke="#191970" points="467.938,-91.7497 458.7099,-86.5446 462.6779,-96.3683 467.938,-91.7497"/>
</g>
<!-- Node9 -->
<g id="node10" class="node">
<title>Node9</title>
<polygon fill="#ffffff" stroke="#bfbfbf" points="683.5,-.5 683.5,-19.5 769.5,-19.5 769.5,-.5 683.5,-.5"/>
<text text-anchor="middle" x="726.5" y="-7.5" font-family="Helvetica,sans-Serif" font-size="10.00" fill="#000000">AMReX_Gpu.H</text>
</g>
<!-- Node0&#45;&gt;Node9 -->
<g id="edge10" class="edge">
<title>Node0&#45;&gt;Node9</title>
<path fill="none" stroke="#191970" d="M506.2184,-123.4451C518.1258,-107.2082 544.5213,-74.2242 574.5,-56 591.9094,-45.4167 639.8781,-31.7217 677.3188,-22.0352"/>
<polygon fill="#191970" stroke="#191970" points="678.254,-25.4088 687.0746,-19.5395 676.5191,-18.6271 678.254,-25.4088"/>
</g>
<!-- Node10 -->
<g id="node11" class="node">
<title>Node10</title>
<polygon fill="#ffffff" stroke="#bfbfbf" points="583,-62 583,-81 700,-81 700,-62 583,-62"/>
<text text-anchor="middle" x="641.5" y="-69" font-family="Helvetica,sans-Serif" font-size="10.00" fill="#000000">AMReX_ParmParse.H</text>
</g>
<!-- Node0&#45;&gt;Node10 -->
<g id="edge11" class="edge">
<title>Node0&#45;&gt;Node10</title>
<path fill="none" stroke="#191970" d="M521.6875,-123.3906C545.4467,-113.1005 583.3405,-96.6888 610.1425,-85.0809"/>
<polygon fill="#191970" stroke="#191970" points="611.683,-88.2279 619.4683,-81.0419 608.9009,-81.8045 611.683,-88.2279"/>
</g>
<!-- Node3 -->
<g id="node4" class="node">
<title>Node3</title>
<polygon fill="#ffffff" stroke="#bfbfbf" points="0,-.5 0,-19.5 91,-19.5 91,-.5 0,-.5"/>
<text text-anchor="middle" x="45.5" y="-7.5" font-family="Helvetica,sans-Serif" font-size="10.00" fill="#000000">AMReX_Array.H</text>
</g>
<!-- Node2&#45;&gt;Node3 -->
<g id="edge3" class="edge">
<title>Node2&#45;&gt;Node3</title>
<path fill="none" stroke="#191970" d="M364.566,-57.4423C361.5063,-56.9487 358.4762,-56.4663 355.5,-56 245.6245,-38.7866 215.2003,-38.2576 101.2729,-20.0696"/>
<polygon fill="#191970" stroke="#191970" points="101.5234,-16.565 91.0946,-18.4335 100.4123,-23.4763 101.5234,-16.565"/>
</g>
<!-- Node4 -->
<g id="node5" class="node">
<title>Node4</title>
<polygon fill="#ffffff" stroke="#bfbfbf" points="109.5,-.5 109.5,-19.5 207.5,-19.5 207.5,-.5 109.5,-.5"/>
<text text-anchor="middle" x="158.5" y="-7.5" font-family="Helvetica,sans-Serif" font-size="10.00" fill="#000000">AMReX_Array4.H</text>
</g>
<!-- Node2&#45;&gt;Node4 -->
<g id="edge4" class="edge">
<title>Node2&#45;&gt;Node4</title>
<path fill="none" stroke="#191970" d="M375.2919,-56.4554C325.1999,-45.7214 258.8206,-31.4973 212.7691,-21.6291"/>
<polygon fill="#191970" stroke="#191970" points="213.4862,-18.2034 202.9748,-19.5303 212.0195,-25.048 213.4862,-18.2034"/>
</g>
<!-- Node5 -->
<g id="node6" class="node">
<title>Node5</title>
<polygon fill="#ffffff" stroke="#bfbfbf" points="226,-.5 226,-19.5 311,-19.5 311,-.5 226,-.5"/>
<text text-anchor="middle" x="268.5" y="-7.5" font-family="Helvetica,sans-Serif" font-size="10.00" fill="#000000">AMReX_Box.H</text>
</g>
<!-- Node2&#45;&gt;Node5 -->
<g id="edge5" class="edge">
<title>Node2&#45;&gt;Node5</title>
<path fill="none" stroke="#191970" d="M402.2009,-56.4554C372.5385,-46.149 333.6155,-32.6249 305.4212,-22.8286"/>
<polygon fill="#191970" stroke="#191970" points="306.5235,-19.5064 295.9287,-19.5303 304.226,-26.1186 306.5235,-19.5064"/>
</g>
<!-- Node6 -->
<g id="node7" class="node">
<title>Node6</title>
<polygon fill="#ffffff" stroke="#bfbfbf" points="329,-.5 329,-19.5 442,-19.5 442,-.5 329,-.5"/>
<text text-anchor="middle" x="385.5" y="-7.5" font-family="Helvetica,sans-Serif" font-size="10.00" fill="#000000">AMReX_Geometry.H</text>
</g>
<!-- Node2&#45;&gt;Node6 -->
<g id="edge6" class="edge">
<title>Node2&#45;&gt;Node6</title>
<path fill="none" stroke="#191970" d="M430.6685,-56.2977C422.0796,-47.4941 411.2398,-36.3833 402.3321,-27.2529"/>
<polygon fill="#191970" stroke="#191970" points="404.5953,-24.5606 395.1068,-19.8469 399.5848,-29.4489 404.5953,-24.5606"/>
</g>
<!-- Node7 -->
<g id="node8" class="node">
<title>Node7</title>
<polygon fill="#ffffff" stroke="#bfbfbf" points="460,-.5 460,-19.5 551,-19.5 551,-.5 460,-.5"/>
<text text-anchor="middle" x="505.5" y="-7.5" font-family="Helvetica,sans-Serif" font-size="10.00" fill="#000000">AMReX_REAL.H</text>
</g>
<!-- Node2&#45;&gt;Node7 -->
<g id="edge7" class="edge">
<title>Node2&#45;&gt;Node7</title>
<path fill="none" stroke="#191970" d="M460.3315,-56.2977C468.9204,-47.4941 479.7602,-36.3833 488.6679,-27.2529"/>
<polygon fill="#191970" stroke="#191970" points="491.4152,-29.4489 495.8932,-19.8469 486.4047,-24.5606 491.4152,-29.4489"/>
</g>
<!-- Node8 -->
<g id="node9" class="node">
<title>Node8</title>
<polygon fill="#ffffff" stroke="#bfbfbf" points="569.5,-.5 569.5,-19.5 665.5,-19.5 665.5,-.5 569.5,-.5"/>
<text text-anchor="middle" x="617.5" y="-7.5" font-family="Helvetica,sans-Serif" font-size="10.00" fill="#000000">AMReX_Vector.H</text>
</g>
<!-- Node2&#45;&gt;Node8 -->
<g id="edge8" class="edge">
<title>Node2&#45;&gt;Node8</title>
<path fill="none" stroke="#191970" d="M487.5759,-56.4554C516.2746,-46.194 553.8937,-32.7429 581.2623,-22.9571"/>
<polygon fill="#191970" stroke="#191970" points="582.6083,-26.1929 590.8461,-19.5303 580.2515,-19.6015 582.6083,-26.1929"/>
</g>
<!-- Node2&#45;&gt;Node9 -->
<g id="edge9" class="edge">
<title>Node2&#45;&gt;Node9</title>
<path fill="none" stroke="#191970" d="M514.2403,-56.4554C563.3333,-45.7109 628.4046,-31.4693 673.4984,-21.6"/>
<polygon fill="#191970" stroke="#191970" points="674.351,-24.9963 683.3714,-19.4392 672.8543,-18.1582 674.351,-24.9963"/>
</g>
</g>
</svg>
