<?xml version="1.0" encoding="UTF-8" standalone="no"?>
<!DOCTYPE svg PUBLIC "-//W3C//DTD SVG 1.1//EN"
 "http://www.w3.org/Graphics/SVG/1.1/DTD/svg11.dtd">
<!-- Generated by graphviz version 2.40.1 (20161225.0304)
 -->
<!-- Title: CFDSim.H Pages: 1 -->
<svg width="2615pt" height="274pt"
 viewBox="0.00 0.00 2614.50 274.00" xmlns="http://www.w3.org/2000/svg" xmlns:xlink="http://www.w3.org/1999/xlink">
<g id="graph0" class="graph" transform="scale(1 1) rotate(0) translate(4 270)">
<title>CFDSim.H</title>
<polygon fill="#ffffff" stroke="transparent" points="-4,4 -4,-270 2610.5,-270 2610.5,4 -4,4"/>
<!-- Node0 -->
<g id="node1" class="node">
<title>Node0</title>
<polygon fill="#bfbfbf" stroke="#000000" points="657,-246.5 657,-265.5 722,-265.5 722,-246.5 657,-246.5"/>
<text text-anchor="middle" x="689.5" y="-253.5" font-family="Helvetica,sans-Serif" font-size="10.00" fill="#000000">CFDSim.H</text>
</g>
<!-- Node1 -->
<g id="node2" class="node">
<title>Node1</title>
<polygon fill="#ffffff" stroke="#bfbfbf" points="635,-129 635,-148 744,-148 744,-129 635,-129"/>
<text text-anchor="middle" x="689.5" y="-136" font-family="Helvetica,sans-Serif" font-size="10.00" fill="#000000">AMReX_AmrCore.H</text>
</g>
<!-- Node0&#45;&gt;Node1 -->
<g id="edge1" class="edge">
<title>Node0&#45;&gt;Node1</title>
<path fill="none" stroke="#191970" d="M689.5,-246.3845C689.5,-227.1913 689.5,-183.786 689.5,-158.2663"/>
<polygon fill="#191970" stroke="#191970" points="693.0001,-158.2483 689.5,-148.2484 686.0001,-158.2484 693.0001,-158.2483"/>
</g>
<!-- Node2 -->
<g id="node3" class="node">
<title>Node2</title>
<g id="a_node3"><a xlink:href="_sim_time_8_h.html" target="_top" xlink:title="amr&#45;wind/core/SimTime.H">
<polygon fill="#ffffff" stroke="#000000" points="2272,-190.5 2272,-209.5 2415,-209.5 2415,-190.5 2272,-190.5"/>
<text text-anchor="middle" x="2343.5" y="-197.5" font-family="Helvetica,sans-Serif" font-size="10.00" fill="#000000">amr&#45;wind/core/SimTime.H</text>
</a>
</g>
</g>
<!-- Node0&#45;&gt;Node2 -->
<g id="edge2" class="edge">
<title>Node0&#45;&gt;Node2</title>
<path fill="none" stroke="#191970" d="M722.1675,-254.894C919.9953,-248.196 1959.2717,-213.0089 2261.1863,-202.7869"/>
<polygon fill="#191970" stroke="#191970" points="2261.7369,-206.2704 2271.6127,-202.4339 2261.4999,-199.2744 2261.7369,-206.2704"/>
</g>
<!-- Node6 -->
<g id="node7" class="node">
<title>Node6</title>
<g id="a_node7"><a xlink:href="_field_repo_8_h.html" target="_top" xlink:title="amr&#45;wind/core/FieldRepo.H">
<polygon fill="#ffffff" stroke="#000000" points="1553.5,-190.5 1553.5,-209.5 1699.5,-209.5 1699.5,-190.5 1553.5,-190.5"/>
<text text-anchor="middle" x="1626.5" y="-197.5" font-family="Helvetica,sans-Serif" font-size="10.00" fill="#000000">amr&#45;wind/core/FieldRepo.H</text>
</a>
</g>
</g>
<!-- Node0&#45;&gt;Node6 -->
<g id="edge6" class="edge">
<title>Node0&#45;&gt;Node6</title>
<path fill="none" stroke="#191970" d="M722.0258,-254.0561C853.1664,-246.2184 1345.4887,-216.7947 1543.3791,-204.9677"/>
<polygon fill="#191970" stroke="#191970" points="1543.6574,-208.4574 1553.4307,-204.367 1543.2397,-201.4699 1543.6574,-208.4574"/>
</g>
<!-- Node25 -->
<g id="node26" class="node">
<title>Node25</title>
<g id="a_node26"><a xlink:href="_p_d_e_base_8_h.html" target="_top" xlink:title="amr&#45;wind/equation_systems\l/PDEBase.H">
<polygon fill="#ffffff" stroke="#000000" points="307,-123.5 307,-153.5 462,-153.5 462,-123.5 307,-123.5"/>
<text text-anchor="start" x="315" y="-141.5" font-family="Helvetica,sans-Serif" font-size="10.00" fill="#000000">amr&#45;wind/equation_systems</text>
<text text-anchor="middle" x="384.5" y="-130.5" font-family="Helvetica,sans-Serif" font-size="10.00" fill="#000000">/PDEBase.H</text>
</a>
</g>
</g>
<!-- Node0&#45;&gt;Node25 -->
<g id="edge43" class="edge">
<title>Node0&#45;&gt;Node25</title>
<path fill="none" stroke="#191970" d="M664.7989,-246.484C614.381,-227.0607 498.8354,-182.5473 432.9159,-157.152"/>
<polygon fill="#191970" stroke="#191970" points="434.1535,-153.8781 423.5638,-153.5492 431.637,-160.4102 434.1535,-153.8781"/>
</g>
<!-- Node33 -->
<g id="node34" class="node">
<title>Node33</title>
<g id="a_node34"><a xlink:href="_physics_8_h.html" target="_top" xlink:title="amr&#45;wind/core/Physics.H">
<polygon fill="#ffffff" stroke="#000000" points="480,-129 480,-148 617,-148 617,-129 480,-129"/>
<text text-anchor="middle" x="548.5" y="-136" font-family="Helvetica,sans-Serif" font-size="10.00" fill="#000000">amr&#45;wind/core/Physics.H</text>
</a>
</g>
</g>
<!-- Node0&#45;&gt;Node33 -->
<g id="edge60" class="edge">
<title>Node0&#45;&gt;Node33</title>
<path fill="none" stroke="#191970" d="M677.9614,-246.3845C653.8968,-226.3306 598.1134,-179.8445 568.2339,-154.9449"/>
<polygon fill="#191970" stroke="#191970" points="570.1209,-151.9615 560.1981,-148.2484 565.6396,-157.339 570.1209,-151.9615"/>
</g>
<!-- Node3 -->
<g id="node4" class="node">
<title>Node3</title>
<polygon fill="#ffffff" stroke="#bfbfbf" points="2233,-129 2233,-148 2324,-148 2324,-129 2233,-129"/>
<text text-anchor="middle" x="2278.5" y="-136" font-family="Helvetica,sans-Serif" font-size="10.00" fill="#000000">AMReX_REAL.H</text>
</g>
<!-- Node2&#45;&gt;Node3 -->
<g id="edge3" class="edge">
<title>Node2&#45;&gt;Node3</title>
<path fill="none" stroke="#191970" d="M2333.3438,-190.3906C2323.4801,-181.0581 2308.2945,-166.6902 2296.4013,-155.4374"/>
<polygon fill="#191970" stroke="#191970" points="2298.4689,-152.5753 2288.7994,-148.2449 2293.6579,-157.6601 2298.4689,-152.5753"/>
</g>
<!-- Node4 -->
<g id="node5" class="node">
<title>Node4</title>
<polygon fill="#ffffff" stroke="#bfbfbf" points="2342.5,-129 2342.5,-148 2474.5,-148 2474.5,-129 2342.5,-129"/>
<text text-anchor="middle" x="2408.5" y="-136" font-family="Helvetica,sans-Serif" font-size="10.00" fill="#000000">AMReX_GpuQualifiers.H</text>
</g>
<!-- Node2&#45;&gt;Node4 -->
<g id="edge4" class="edge">
<title>Node2&#45;&gt;Node4</title>
<path fill="none" stroke="#191970" d="M2353.6563,-190.3906C2363.5199,-181.0581 2378.7055,-166.6902 2390.5987,-155.4374"/>
<polygon fill="#191970" stroke="#191970" points="2393.3421,-157.6601 2398.2006,-148.2449 2388.5311,-152.5753 2393.3421,-157.6601"/>
</g>
<!-- Node5 -->
<g id="node6" class="node">
<title>Node5</title>
<polygon fill="#ffffff" stroke="#bfbfbf" points="2492.5,-129 2492.5,-148 2606.5,-148 2606.5,-129 2492.5,-129"/>
<text text-anchor="middle" x="2549.5" y="-136" font-family="Helvetica,sans-Serif" font-size="10.00" fill="#000000">AMReX_Extension.H</text>
</g>
<!-- Node2&#45;&gt;Node5 -->
<g id="edge5" class="edge">
<title>Node2&#45;&gt;Node5</title>
<path fill="none" stroke="#191970" d="M2375.6875,-190.3906C2411.2133,-179.7846 2468.5226,-162.6753 2507.5441,-151.0257"/>
<polygon fill="#191970" stroke="#191970" points="2508.9577,-154.2564 2517.5385,-148.0419 2506.9552,-147.5489 2508.9577,-154.2564"/>
</g>
<!-- Node6&#45;&gt;Node1 -->
<g id="edge40" class="edge">
<title>Node6&#45;&gt;Node1</title>
<path fill="none" stroke="#191970" d="M1553.4775,-197.711C1373.3292,-191.8094 911.263,-175.0539 758.5,-154 751.3088,-153.0089 743.7588,-151.6488 736.3992,-150.1431"/>
<polygon fill="#191970" stroke="#191970" points="737.0457,-146.7021 726.5332,-148.0204 735.5733,-153.5455 737.0457,-146.7021"/>
</g>
<!-- Node7 -->
<g id="node8" class="node">
<title>Node7</title>
<polygon fill="#ffffff" stroke="#bfbfbf" points="1024.5,-.5 1024.5,-19.5 1068.5,-19.5 1068.5,-.5 1024.5,-.5"/>
<text text-anchor="middle" x="1046.5" y="-7.5" font-family="Helvetica,sans-Serif" font-size="10.00" fill="#000000">string</text>
</g>
<!-- Node6&#45;&gt;Node7 -->
<g id="edge7" class="edge">
<title>Node6&#45;&gt;Node7</title>
<path fill="none" stroke="#191970" d="M1553.0984,-198.0105C1435.3028,-194.0031 1209.7534,-182.7451 1135.5,-154 1089.3278,-136.1258 1068.6023,-131.304 1046.5,-87 1037.5784,-69.1166 1039.0769,-45.8606 1041.8678,-29.6059"/>
<polygon fill="#191970" stroke="#191970" points="1045.3348,-30.1197 1043.8943,-19.6232 1038.4748,-28.727 1045.3348,-30.1197"/>
</g>
<!-- Node8 -->
<g id="node9" class="node">
<title>Node8</title>
<polygon fill="#ffffff" stroke="#bfbfbf" points="566,-.5 566,-19.5 659,-19.5 659,-.5 566,-.5"/>
<text text-anchor="middle" x="612.5" y="-7.5" font-family="Helvetica,sans-Serif" font-size="10.00" fill="#000000">unordered_map</text>
</g>
<!-- Node6&#45;&gt;Node8 -->
<g id="edge8" class="edge">
<title>Node6&#45;&gt;Node8</title>
<path fill="none" stroke="#191970" d="M1553.4016,-196.5814C1364.8647,-186.8724 866.4875,-155.3015 717.5,-87 697.3722,-77.7727 696.2581,-69.2258 678.5,-56 664.3021,-45.4258 647.9842,-34.0461 635.126,-25.2506"/>
<polygon fill="#191970" stroke="#191970" points="637.082,-22.3482 626.8455,-19.616 633.1439,-28.1354 637.082,-22.3482"/>
</g>
<!-- Node9 -->
<g id="node10" class="node">
<title>Node9</title>
<g id="a_node10"><a xlink:href="_field_desc_types_8_h.html" target="_top" xlink:title="amr&#45;wind/core/FieldDescTypes.H">
<polygon fill="#ffffff" stroke="#000000" points="1565.5,-.5 1565.5,-19.5 1739.5,-19.5 1739.5,-.5 1565.5,-.5"/>
<text text-anchor="middle" x="1652.5" y="-7.5" font-family="Helvetica,sans-Serif" font-size="10.00" fill="#000000">amr&#45;wind/core/FieldDescTypes.H</text>
</a>
</g>
</g>
<!-- Node6&#45;&gt;Node9 -->
<g id="edge9" class="edge">
<title>Node6&#45;&gt;Node9</title>
<path fill="none" stroke="#191970" d="M1699.7357,-196.5491C1767.5959,-191.7794 1870.6949,-180.5042 1956.5,-154 2027.3398,-132.1184 2141.1196,-111.0906 2091.5,-56 2085.8161,-49.6894 1877.3793,-30.0508 1749.7973,-18.5758"/>
<polygon fill="#191970" stroke="#191970" points="1749.8885,-15.07 1739.6156,-17.6619 1749.2626,-22.0419 1749.8885,-15.07"/>
</g>
<!-- Node10 -->
<g id="node11" class="node">
<title>Node10</title>
<g id="a_node11"><a xlink:href="_field_utils_8_h.html" target="_top" xlink:title="amr&#45;wind/core/FieldUtils.H">
<polygon fill="#ffffff" stroke="#000000" points="2195,-62 2195,-81 2340,-81 2340,-62 2195,-62"/>
<text text-anchor="middle" x="2267.5" y="-69" font-family="Helvetica,sans-Serif" font-size="10.00" fill="#000000">amr&#45;wind/core/FieldUtils.H</text>
</a>
</g>
</g>
<!-- Node6&#45;&gt;Node10 -->
<g id="edge10" class="edge">
<title>Node6&#45;&gt;Node10</title>
<path fill="none" stroke="#191970" d="M1699.6402,-196.6306C1840.1266,-189.7648 2137.6662,-173.1721 2180.5,-154 2197.0942,-146.5726 2231.5503,-110.8685 2251.7654,-88.9356"/>
<polygon fill="#191970" stroke="#191970" points="2254.588,-91.0352 2258.7488,-81.2916 2249.4199,-86.3138 2254.588,-91.0352"/>
</g>
<!-- Node11 -->
<g id="node12" class="node">
<title>Node11</title>
<polygon fill="#ffffff" stroke="#bfbfbf" points="1793,-.5 1793,-19.5 1900,-19.5 1900,-.5 1793,-.5"/>
<text text-anchor="middle" x="1846.5" y="-7.5" font-family="Helvetica,sans-Serif" font-size="10.00" fill="#000000">AMReX_MultiFab.H</text>
</g>
<!-- Node6&#45;&gt;Node11 -->
<g id="edge41" class="edge">
<title>Node6&#45;&gt;Node11</title>
<path fill="none" stroke="#191970" d="M1699.6888,-195.9044C1797.1194,-189.6919 1963.7395,-176.2005 2020.5,-154 2067.6077,-135.5749 2089.5612,-132.0825 2112.5,-87 2118.7481,-74.7204 2121.3736,-66.5398 2112.5,-56 2087.1472,-25.8866 1980.527,-15.4865 1910.2124,-11.8947"/>
<polygon fill="#191970" stroke="#191970" points="1910.2711,-8.3937 1900.1155,-11.4127 1909.9372,-15.3857 1910.2711,-8.3937"/>
</g>
<!-- Node13 -->
<g id="node14" class="node">
<title>Node13</title>
<g id="a_node14"><a xlink:href="_field_8_h.html" target="_top" xlink:title="amr&#45;wind/core/Field.H">
<polygon fill="#ffffff" stroke="#000000" points="1144.5,-129 1144.5,-148 1266.5,-148 1266.5,-129 1144.5,-129"/>
<text text-anchor="middle" x="1205.5" y="-136" font-family="Helvetica,sans-Serif" font-size="10.00" fill="#000000">amr&#45;wind/core/Field.H</text>
</a>
</g>
</g>
<!-- Node6&#45;&gt;Node13 -->
<g id="edge14" class="edge">
<title>Node6&#45;&gt;Node13</title>
<path fill="none" stroke="#191970" d="M1561.1807,-190.4581C1483.9927,-179.1824 1356.0255,-160.4889 1276.459,-148.8657"/>
<polygon fill="#191970" stroke="#191970" points="1276.9242,-145.3966 1266.5232,-147.4143 1275.9123,-152.3231 1276.9242,-145.3966"/>
</g>
<!-- Node21 -->
<g id="node22" class="node">
<title>Node21</title>
<g id="a_node22"><a xlink:href="_int_field_8_h.html" target="_top" xlink:title="amr&#45;wind/core/IntField.H">
<polygon fill="#ffffff" stroke="#000000" points="1559,-129 1559,-148 1694,-148 1694,-129 1559,-129"/>
<text text-anchor="middle" x="1626.5" y="-136" font-family="Helvetica,sans-Serif" font-size="10.00" fill="#000000">amr&#45;wind/core/IntField.H</text>
</a>
</g>
</g>
<!-- Node6&#45;&gt;Node21 -->
<g id="edge29" class="edge">
<title>Node6&#45;&gt;Node21</title>
<path fill="none" stroke="#191970" d="M1626.5,-190.3906C1626.5,-181.8657 1626.5,-169.1392 1626.5,-158.4235"/>
<polygon fill="#191970" stroke="#191970" points="1630.0001,-158.2448 1626.5,-148.2449 1623.0001,-158.2449 1630.0001,-158.2448"/>
</g>
<!-- Node22 -->
<g id="node23" class="node">
<title>Node22</title>
<polygon fill="#ffffff" stroke="#bfbfbf" points="1692.5,-62 1692.5,-81 1802.5,-81 1802.5,-62 1692.5,-62"/>
<text text-anchor="middle" x="1747.5" y="-69" font-family="Helvetica,sans-Serif" font-size="10.00" fill="#000000">AMReX_iMultiFab.H</text>
</g>
<!-- Node6&#45;&gt;Node22 -->
<g id="edge42" class="edge">
<title>Node6&#45;&gt;Node22</title>
<path fill="none" stroke="#191970" d="M1648.9423,-190.3427C1665.331,-182.4267 1687.259,-169.9417 1702.5,-154 1720.2184,-135.467 1733.1413,-108.5973 1740.4791,-90.611"/>
<polygon fill="#191970" stroke="#191970" points="1743.7851,-91.7662 1744.1481,-81.1776 1737.2612,-89.2288 1743.7851,-91.7662"/>
</g>
<!-- Node23 -->
<g id="node24" class="node">
<title>Node23</title>
<g id="a_node24"><a xlink:href="_scratch_field_8_h.html" target="_top" xlink:title="amr&#45;wind/core/ScratchField.H">
<polygon fill="#ffffff" stroke="#000000" points="1789.5,-129 1789.5,-148 1947.5,-148 1947.5,-129 1789.5,-129"/>
<text text-anchor="middle" x="1868.5" y="-136" font-family="Helvetica,sans-Serif" font-size="10.00" fill="#000000">amr&#45;wind/core/ScratchField.H</text>
</a>
</g>
</g>
<!-- Node6&#45;&gt;Node23 -->
<g id="edge33" class="edge">
<title>Node6&#45;&gt;Node23</title>
<path fill="none" stroke="#191970" d="M1664.047,-190.4581C1706.3472,-179.7082 1775.1777,-162.2162 1821.137,-150.5365"/>
<polygon fill="#191970" stroke="#191970" points="1822.0351,-153.9196 1830.8649,-148.0643 1820.3109,-147.1352 1822.0351,-153.9196"/>
</g>
<!-- Node10&#45;&gt;Node9 -->
<g id="edge11" class="edge">
<title>Node10&#45;&gt;Node9</title>
<path fill="none" stroke="#191970" d="M2194.8348,-62.1185C2177.6844,-60.0071 2159.4564,-57.8468 2142.5,-56 2006.3847,-41.1751 1848.6791,-26.8857 1749.7467,-18.2702"/>
<polygon fill="#191970" stroke="#191970" points="1750.0303,-14.7818 1739.7648,-17.4029 1749.4243,-21.7555 1750.0303,-14.7818"/>
</g>
<!-- Node10&#45;&gt;Node11 -->
<g id="edge12" class="edge">
<title>Node10&#45;&gt;Node11</title>
<path fill="none" stroke="#191970" d="M2216.0323,-61.984C2204.3639,-59.9231 2192.0173,-57.8183 2180.5,-56 2086.5974,-41.1747 1977.4099,-26.6457 1910.127,-18.0042"/>
<polygon fill="#191970" stroke="#191970" points="1910.4678,-14.5193 1900.1042,-16.7206 1909.5786,-21.4626 1910.4678,-14.5193"/>
</g>
<!-- Node12 -->
<g id="node13" class="node">
<title>Node12</title>
<polygon fill="#ffffff" stroke="#bfbfbf" points="2206.5,-.5 2206.5,-19.5 2328.5,-19.5 2328.5,-.5 2206.5,-.5"/>
<text text-anchor="middle" x="2267.5" y="-7.5" font-family="Helvetica,sans-Serif" font-size="10.00" fill="#000000">AMReX_Interpolater.H</text>
</g>
<!-- Node10&#45;&gt;Node12 -->
<g id="edge13" class="edge">
<title>Node10&#45;&gt;Node12</title>
<path fill="none" stroke="#191970" d="M2267.5,-61.8906C2267.5,-53.3657 2267.5,-40.6392 2267.5,-29.9235"/>
<polygon fill="#191970" stroke="#191970" points="2271.0001,-29.7448 2267.5,-19.7449 2264.0001,-29.7449 2271.0001,-29.7448"/>
</g>
<!-- Node13&#45;&gt;Node7 -->
<g id="edge15" class="edge">
<title>Node13&#45;&gt;Node7</title>
<path fill="none" stroke="#191970" d="M1144.3726,-129.4069C1116.6886,-122.2743 1085.709,-109.5769 1065.5,-87 1051.413,-71.2624 1047.3861,-46.7378 1046.4211,-29.6075"/>
<polygon fill="#191970" stroke="#191970" points="1049.9193,-29.4881 1046.1542,-19.5849 1042.9218,-29.6746 1049.9193,-29.4881"/>
</g>
<!-- Node13&#45;&gt;Node8 -->
<g id="edge17" class="edge">
<title>Node13&#45;&gt;Node8</title>
<path fill="none" stroke="#191970" d="M1175.4341,-128.8896C1122.1331,-112.1362 1007.3667,-77.3374 908.5,-56 825.9651,-38.1873 729.0616,-24.4664 669.2121,-16.8118"/>
<polygon fill="#191970" stroke="#191970" points="669.5676,-13.329 659.207,-15.5446 668.6879,-20.2735 669.5676,-13.329"/>
</g>
<!-- Node13&#45;&gt;Node9 -->
<g id="edge23" class="edge">
<title>Node13&#45;&gt;Node9</title>
<path fill="none" stroke="#191970" d="M1238.0283,-128.9899C1270.9218,-119.179 1323.104,-103.0824 1367.5,-87 1401.7986,-74.5753 1408.6709,-66.849 1443.5,-56 1490.689,-41.3009 1545.2724,-29.4569 1586.8223,-21.4699"/>
<polygon fill="#191970" stroke="#191970" points="1587.6499,-24.8755 1596.8227,-19.5735 1586.3457,-17.998 1587.6499,-24.8755"/>
</g>
<!-- Node13&#45;&gt;Node11 -->
<g id="edge19" class="edge">
<title>Node13&#45;&gt;Node11</title>
<path fill="none" stroke="#191970" d="M1266.7134,-135.6037C1346.3487,-130.7182 1489.2722,-118.1165 1607.5,-87 1642.7783,-77.7151 1649.0026,-67.8615 1683.5,-56 1721.5509,-42.9166 1765.4974,-30.6766 1798.164,-22.1167"/>
<polygon fill="#191970" stroke="#191970" points="1799.1223,-25.484 1807.9207,-19.5815 1797.3618,-18.709 1799.1223,-25.484"/>
</g>
<!-- Node14 -->
<g id="node15" class="node">
<title>Node14</title>
<polygon fill="#ffffff" stroke="#bfbfbf" points="403.5,-.5 403.5,-19.5 461.5,-19.5 461.5,-.5 403.5,-.5"/>
<text text-anchor="middle" x="432.5" y="-7.5" font-family="Helvetica,sans-Serif" font-size="10.00" fill="#000000">memory</text>
</g>
<!-- Node13&#45;&gt;Node14 -->
<g id="edge16" class="edge">
<title>Node13&#45;&gt;Node14</title>
<path fill="none" stroke="#191970" d="M1144.2102,-132.0704C1069.6965,-123.5322 948.8857,-107.1564 908.5,-87 890.4949,-78.0137 893.8011,-64.367 875.5,-56 857.2496,-47.6562 577.2213,-22.5901 472.0303,-13.4138"/>
<polygon fill="#191970" stroke="#191970" points="472.0947,-9.9062 461.8288,-12.5259 471.4876,-16.8799 472.0947,-9.9062"/>
</g>
<!-- Node15 -->
<g id="node16" class="node">
<title>Node15</title>
<polygon fill="#ffffff" stroke="#bfbfbf" points="1074.5,-62 1074.5,-81 1138.5,-81 1138.5,-62 1074.5,-62"/>
<text text-anchor="middle" x="1106.5" y="-69" font-family="Helvetica,sans-Serif" font-size="10.00" fill="#000000">algorithm</text>
</g>
<!-- Node13&#45;&gt;Node15 -->
<g id="edge18" class="edge">
<title>Node13&#45;&gt;Node15</title>
<path fill="none" stroke="#191970" d="M1191.3157,-128.9005C1175.0689,-117.9052 1148.2309,-99.7422 1129.0966,-86.7927"/>
<polygon fill="#191970" stroke="#191970" points="1130.9014,-83.7879 1120.658,-81.0817 1126.978,-89.5851 1130.9014,-83.7879"/>
</g>
<!-- Node16 -->
<g id="node17" class="node">
<title>Node16</title>
<polygon fill="#ffffff" stroke="#bfbfbf" points="1157,-62 1157,-81 1254,-81 1254,-62 1157,-62"/>
<text text-anchor="middle" x="1205.5" y="-69" font-family="Helvetica,sans-Serif" font-size="10.00" fill="#000000">AMReX_BCRec.H</text>
</g>
<!-- Node13&#45;&gt;Node16 -->
<g id="edge20" class="edge">
<title>Node13&#45;&gt;Node16</title>
<path fill="none" stroke="#191970" d="M1205.5,-128.9005C1205.5,-119.149 1205.5,-103.7597 1205.5,-91.3695"/>
<polygon fill="#191970" stroke="#191970" points="1209.0001,-91.0816 1205.5,-81.0817 1202.0001,-91.0817 1209.0001,-91.0816"/>
</g>
<!-- Node17 -->
<g id="node18" class="node">
<title>Node17</title>
<polygon fill="#ffffff" stroke="#bfbfbf" points="1272.5,-62 1272.5,-81 1358.5,-81 1358.5,-62 1272.5,-62"/>
<text text-anchor="middle" x="1315.5" y="-69" font-family="Helvetica,sans-Serif" font-size="10.00" fill="#000000">AMReX_Gpu.H</text>
</g>
<!-- Node13&#45;&gt;Node17 -->
<g id="edge21" class="edge">
<title>Node13&#45;&gt;Node17</title>
<path fill="none" stroke="#191970" d="M1221.2603,-128.9005C1239.4757,-117.8057 1269.673,-99.4128 1290.9677,-86.4424"/>
<polygon fill="#191970" stroke="#191970" points="1293.0491,-89.2728 1299.7689,-81.0817 1289.4077,-83.2945 1293.0491,-89.2728"/>
</g>
<!-- Node18 -->
<g id="node19" class="node">
<title>Node18</title>
<g id="a_node19"><a xlink:href="incflo__enums_8_h.html" target="_top" xlink:title="amr&#45;wind/incflo_enums.H">
<polygon fill="#ffffff" stroke="#000000" points="726.5,-62 726.5,-81 866.5,-81 866.5,-62 726.5,-62"/>
<text text-anchor="middle" x="796.5" y="-69" font-family="Helvetica,sans-Serif" font-size="10.00" fill="#000000">amr&#45;wind/incflo_enums.H</text>
</a>
</g>
</g>
<!-- Node13&#45;&gt;Node18 -->
<g id="edge22" class="edge">
<title>Node13&#45;&gt;Node18</title>
<path fill="none" stroke="#191970" d="M1144.3263,-129.2788C1078.9414,-119.3124 972.2786,-102.7368 880.5,-87 872.895,-85.696 864.9114,-84.2818 857.0172,-82.856"/>
<polygon fill="#191970" stroke="#191970" points="857.5662,-79.3985 847.1011,-81.0513 856.3127,-86.2854 857.5662,-79.3985"/>
</g>
<!-- Node19 -->
<g id="node20" class="node">
<title>Node19</title>
<g id="a_node20"><a xlink:href="_view_field_8_h.html" target="_top" xlink:title="amr&#45;wind/core/ViewField.H">
<polygon fill="#ffffff" stroke="#000000" points="1452.5,-62 1452.5,-81 1598.5,-81 1598.5,-62 1452.5,-62"/>
<text text-anchor="middle" x="1525.5" y="-69" font-family="Helvetica,sans-Serif" font-size="10.00" fill="#000000">amr&#45;wind/core/ViewField.H</text>
</a>
</g>
</g>
<!-- Node13&#45;&gt;Node19 -->
<g id="edge24" class="edge">
<title>Node13&#45;&gt;Node19</title>
<path fill="none" stroke="#191970" d="M1251.0084,-128.9717C1308.6252,-116.9082 1407.8385,-96.1354 1469.8864,-83.1441"/>
<polygon fill="#191970" stroke="#191970" points="1470.8194,-86.5247 1479.8899,-81.0496 1469.3848,-79.6733 1470.8194,-86.5247"/>
</g>
<!-- Node19&#45;&gt;Node7 -->
<g id="edge25" class="edge">
<title>Node19&#45;&gt;Node7</title>
<path fill="none" stroke="#191970" d="M1474.9784,-61.9746C1463.0395,-59.8692 1450.3385,-57.7476 1438.5,-56 1305.5788,-36.3781 1146.3002,-19.8277 1079.0241,-13.1553"/>
<polygon fill="#191970" stroke="#191970" points="1078.9592,-9.632 1068.6641,-12.134 1078.2724,-16.5983 1078.9592,-9.632"/>
</g>
<!-- Node19&#45;&gt;Node9 -->
<g id="edge26" class="edge">
<title>Node19&#45;&gt;Node9</title>
<path fill="none" stroke="#191970" d="M1545.3438,-61.8906C1566.3136,-51.7359 1599.5944,-35.6196 1623.5036,-24.0416"/>
<polygon fill="#191970" stroke="#191970" points="1625.3208,-27.0504 1632.7956,-19.5419 1622.2699,-20.7502 1625.3208,-27.0504"/>
</g>
<!-- Node19&#45;&gt;Node11 -->
<g id="edge27" class="edge">
<title>Node19&#45;&gt;Node11</title>
<path fill="none" stroke="#191970" d="M1575.304,-61.9581C1632.4375,-51.012 1726.0586,-33.0752 1786.984,-21.4026"/>
<polygon fill="#191970" stroke="#191970" points="1787.6805,-24.8329 1796.8432,-19.5137 1786.3632,-17.9579 1787.6805,-24.8329"/>
</g>
<!-- Node20 -->
<g id="node21" class="node">
<title>Node20</title>
<polygon fill="#ffffff" stroke="#bfbfbf" points="1451.5,-.5 1451.5,-19.5 1547.5,-19.5 1547.5,-.5 1451.5,-.5"/>
<text text-anchor="middle" x="1499.5" y="-7.5" font-family="Helvetica,sans-Serif" font-size="10.00" fill="#000000">AMReX_Vector.H</text>
</g>
<!-- Node19&#45;&gt;Node20 -->
<g id="edge28" class="edge">
<title>Node19&#45;&gt;Node20</title>
<path fill="none" stroke="#191970" d="M1521.4375,-61.8906C1517.7576,-53.1862 1512.2258,-40.1015 1507.638,-29.2494"/>
<polygon fill="#191970" stroke="#191970" points="1510.7375,-27.5927 1503.6198,-19.7449 1504.29,-30.3185 1510.7375,-27.5927"/>
</g>
<!-- Node21&#45;&gt;Node7 -->
<g id="edge30" class="edge">
<title>Node21&#45;&gt;Node7</title>
<path fill="none" stroke="#191970" d="M1587.9073,-128.9932C1550.6014,-119.4866 1492.6643,-103.8845 1443.5,-87 1408.9983,-75.1511 1402.708,-65.5478 1367.5,-56 1264.1725,-27.9794 1137.2283,-16.2053 1078.7692,-12.0025"/>
<polygon fill="#191970" stroke="#191970" points="1078.8896,-8.5026 1068.6718,-11.3037 1078.4062,-15.4859 1078.8896,-8.5026"/>
</g>
<!-- Node21&#45;&gt;Node9 -->
<g id="edge31" class="edge">
<title>Node21&#45;&gt;Node9</title>
<path fill="none" stroke="#191970" d="M1628.4542,-128.8416C1632.708,-107.8184 1642.877,-57.5598 1648.5335,-29.6038"/>
<polygon fill="#191970" stroke="#191970" points="1651.9703,-30.266 1650.5231,-19.7705 1645.1094,-28.8777 1651.9703,-30.266"/>
</g>
<!-- Node21&#45;&gt;Node22 -->
<g id="edge32" class="edge">
<title>Node21&#45;&gt;Node22</title>
<path fill="none" stroke="#191970" d="M1643.8363,-128.9005C1664.053,-117.7062 1697.6872,-99.0823 1721.1424,-86.0947"/>
<polygon fill="#191970" stroke="#191970" points="1723.1429,-88.9878 1730.1958,-81.0817 1719.7519,-82.8639 1723.1429,-88.9878"/>
</g>
<!-- Node23&#45;&gt;Node7 -->
<g id="edge34" class="edge">
<title>Node23&#45;&gt;Node7</title>
<path fill="none" stroke="#191970" d="M1865.1613,-128.9668C1858.3048,-111.0091 1840.7722,-72.4941 1811.5,-56 1779.1259,-37.7581 1220.5402,-16.3187 1078.9269,-11.1585"/>
<polygon fill="#191970" stroke="#191970" points="1078.8448,-7.6533 1068.7246,-10.7887 1078.5912,-14.6487 1078.8448,-7.6533"/>
</g>
<!-- Node23&#45;&gt;Node9 -->
<g id="edge35" class="edge">
<title>Node23&#45;&gt;Node9</title>
<path fill="none" stroke="#191970" d="M1947.8255,-131.7775C2020.9822,-122.6119 2112.5045,-101.7526 2071.5,-56 2060.8558,-44.1232 1870.366,-27.0877 1749.9352,-17.4289"/>
<polygon fill="#191970" stroke="#191970" points="1750.1968,-13.9388 1739.95,-16.6321 1749.6399,-20.9166 1750.1968,-13.9388"/>
</g>
<!-- Node23&#45;&gt;Node11 -->
<g id="edge37" class="edge">
<title>Node23&#45;&gt;Node11</title>
<path fill="none" stroke="#191970" d="M1873.267,-128.5901C1880.1687,-112.8346 1891.2131,-81.271 1882.5,-56 1878.7813,-45.2144 1871.3787,-35.0249 1864.2481,-26.9904"/>
<polygon fill="#191970" stroke="#191970" points="1866.7791,-24.5729 1857.3548,-19.7321 1861.7033,-29.3934 1866.7791,-24.5729"/>
</g>
<!-- Node23&#45;&gt;Node19 -->
<g id="edge36" class="edge">
<title>Node23&#45;&gt;Node19</title>
<path fill="none" stroke="#191970" d="M1819.7207,-128.9717C1757.708,-116.8584 1650.7406,-95.9639 1584.2901,-82.9838"/>
<polygon fill="#191970" stroke="#191970" points="1584.8739,-79.5317 1574.3884,-81.0496 1583.5319,-86.4019 1584.8739,-79.5317"/>
</g>
<!-- Node23&#45;&gt;Node20 -->
<g id="edge38" class="edge">
<title>Node23&#45;&gt;Node20</title>
<path fill="none" stroke="#191970" d="M1868.837,-128.8201C1868.8691,-111.3112 1866.18,-74.4853 1844.5,-56 1797.6253,-16.0325 1635.7639,-28.3054 1558.0599,-19.9476"/>
<polygon fill="#191970" stroke="#191970" points="1558.0372,-16.4164 1547.6748,-18.6238 1557.1519,-23.3603 1558.0372,-16.4164"/>
</g>
<!-- Node24 -->
<g id="node25" class="node">
<title>Node24</title>
<polygon fill="#ffffff" stroke="#bfbfbf" points="1934.5,-62 1934.5,-81 2062.5,-81 2062.5,-62 1934.5,-62"/>
<text text-anchor="middle" x="1998.5" y="-69" font-family="Helvetica,sans-Serif" font-size="10.00" fill="#000000">AMReX_PhysBCFunct.H</text>
</g>
<!-- Node23&#45;&gt;Node24 -->
<g id="edge39" class="edge">
<title>Node23&#45;&gt;Node24</title>
<path fill="none" stroke="#191970" d="M1887.1258,-128.9005C1909.0393,-117.6067 1945.6256,-98.7506 1970.8513,-85.7497"/>
<polygon fill="#191970" stroke="#191970" points="1972.6232,-88.774 1979.9087,-81.0817 1969.4164,-82.5518 1972.6232,-88.774"/>
</g>
<!-- Node25&#45;&gt;Node7 -->
<g id="edge44" class="edge">
<title>Node25&#45;&gt;Node7</title>
<path fill="none" stroke="#191970" d="M370.9105,-123.2048C356.4409,-105.0432 337.8665,-74.8464 355.5,-56 378.2709,-31.6628 880.1354,-14.9712 1013.9548,-10.9422"/>
<polygon fill="#191970" stroke="#191970" points="1014.4581,-14.4288 1024.3494,-10.6325 1014.2496,-7.4319 1014.4581,-14.4288"/>
</g>
<!-- Node25&#45;&gt;Node9 -->
<g id="edge58" class="edge">
<title>Node25&#45;&gt;Node9</title>
<path fill="none" stroke="#191970" d="M429.989,-123.4296C454.3919,-114.4509 484.5006,-101.9023 509.5,-87 528.2219,-75.8397 527.1011,-63.6777 547.5,-56 649.9287,-17.448 1406.323,-27.2929 1555.3725,-19.921"/>
<polygon fill="#191970" stroke="#191970" points="1555.6232,-23.4124 1565.4016,-19.3342 1555.2142,-16.4244 1555.6232,-23.4124"/>
</g>
<!-- Node25&#45;&gt;Node18 -->
<g id="edge59" class="edge">
<title>Node25&#45;&gt;Node18</title>
<path fill="none" stroke="#191970" d="M462.3025,-124.3996C465.0683,-123.9232 467.8074,-123.4553 470.5,-123 557.4221,-108.3029 657.612,-92.6704 723.7275,-82.5351"/>
<polygon fill="#191970" stroke="#191970" points="724.2786,-85.9916 733.6337,-81.0185 723.2192,-79.0722 724.2786,-85.9916"/>
</g>
<!-- Node26 -->
<g id="node27" class="node">
<title>Node26</title>
<g id="a_node27"><a xlink:href="_factory_8_h.html" target="_top" xlink:title="amr&#45;wind/core/Factory.H">
<polygon fill="#ffffff" stroke="#000000" points="174.5,-62 174.5,-81 308.5,-81 308.5,-62 174.5,-62"/>
<text text-anchor="middle" x="241.5" y="-69" font-family="Helvetica,sans-Serif" font-size="10.00" fill="#000000">amr&#45;wind/core/Factory.H</text>
</a>
</g>
</g>
<!-- Node25&#45;&gt;Node26 -->
<g id="edge45" class="edge">
<title>Node25&#45;&gt;Node26</title>
<path fill="none" stroke="#191970" d="M352.408,-123.4639C328.0902,-112.0702 294.9279,-96.5327 271.2138,-85.4219"/>
<polygon fill="#191970" stroke="#191970" points="272.5382,-82.1773 261.9979,-81.1039 269.5683,-88.5161 272.5382,-82.1773"/>
</g>
<!-- Node30 -->
<g id="node31" class="node">
<title>Node30</title>
<g id="a_node31"><a xlink:href="_coll_mgr_8_h.html" target="_top" xlink:title="amr&#45;wind/core/CollMgr.H">
<polygon fill="#ffffff" stroke="#000000" points="364.5,-62 364.5,-81 500.5,-81 500.5,-62 364.5,-62"/>
<text text-anchor="middle" x="432.5" y="-69" font-family="Helvetica,sans-Serif" font-size="10.00" fill="#000000">amr&#45;wind/core/CollMgr.H</text>
</a>
</g>
</g>
<!-- Node25&#45;&gt;Node30 -->
<g id="edge51" class="edge">
<title>Node25&#45;&gt;Node30</title>
<path fill="none" stroke="#191970" d="M395.3919,-123.2967C402.6527,-113.1618 412.2225,-99.804 419.825,-89.1921"/>
<polygon fill="#191970" stroke="#191970" points="422.676,-91.2225 425.6546,-81.055 416.9856,-87.1458 422.676,-91.2225"/>
</g>
<!-- Node31 -->
<g id="node32" class="node">
<title>Node31</title>
<g id="a_node32"><a xlink:href="_p_d_e_fields_8_h.html" target="_top" xlink:title="amr&#45;wind/equation_systems\l/PDEFields.H">
<polygon fill="#ffffff" stroke="#000000" points="0,-56.5 0,-86.5 155,-86.5 155,-56.5 0,-56.5"/>
<text text-anchor="start" x="8" y="-74.5" font-family="Helvetica,sans-Serif" font-size="10.00" fill="#000000">amr&#45;wind/equation_systems</text>
<text text-anchor="middle" x="77.5" y="-63.5" font-family="Helvetica,sans-Serif" font-size="10.00" fill="#000000">/PDEFields.H</text>
</a>
</g>
</g>
<!-- Node25&#45;&gt;Node31 -->
<g id="edge56" class="edge">
<title>Node25&#45;&gt;Node31</title>
<path fill="none" stroke="#191970" d="M315.6032,-123.4639C268.3842,-113.1588 205.6323,-99.4637 156.4043,-88.7202"/>
<polygon fill="#191970" stroke="#191970" points="156.9482,-85.2566 146.4319,-86.5438 155.4556,-92.0956 156.9482,-85.2566"/>
</g>
<!-- Node26&#45;&gt;Node8 -->
<g id="edge47" class="edge">
<title>Node26&#45;&gt;Node8</title>
<path fill="none" stroke="#191970" d="M289.8537,-61.9867C300.5903,-59.9471 311.9224,-57.8505 322.5,-56 403.3841,-41.8498 497.2952,-27.2948 555.817,-18.4465"/>
<polygon fill="#191970" stroke="#191970" points="556.599,-21.8683 565.965,-16.9158 555.5548,-14.9466 556.599,-21.8683"/>
</g>
<!-- Node26&#45;&gt;Node14 -->
<g id="edge46" class="edge">
<title>Node26&#45;&gt;Node14</title>
<path fill="none" stroke="#191970" d="M271.3438,-61.8906C304.3344,-51.268 357.5857,-34.1216 393.7692,-22.4709"/>
<polygon fill="#191970" stroke="#191970" points="395.0452,-25.7371 403.4912,-19.3405 392.8997,-19.074 395.0452,-25.7371"/>
</g>
<!-- Node27 -->
<g id="node28" class="node">
<title>Node27</title>
<polygon fill="#ffffff" stroke="#bfbfbf" points="119.5,-.5 119.5,-19.5 179.5,-19.5 179.5,-.5 119.5,-.5"/>
<text text-anchor="middle" x="149.5" y="-7.5" font-family="Helvetica,sans-Serif" font-size="10.00" fill="#000000">iostream</text>
</g>
<!-- Node26&#45;&gt;Node27 -->
<g id="edge48" class="edge">
<title>Node26&#45;&gt;Node27</title>
<path fill="none" stroke="#191970" d="M227.125,-61.8906C212.4069,-52.0519 189.3168,-36.6167 172.1411,-25.1351"/>
<polygon fill="#191970" stroke="#191970" points="174.0327,-22.1896 163.7741,-19.5419 170.1425,-28.0091 174.0327,-22.1896"/>
</g>
<!-- Node28 -->
<g id="node29" class="node">
<title>Node28</title>
<polygon fill="#ffffff" stroke="#bfbfbf" points="198,-.5 198,-19.5 287,-19.5 287,-.5 198,-.5"/>
<text text-anchor="middle" x="242.5" y="-7.5" font-family="Helvetica,sans-Serif" font-size="10.00" fill="#000000">AMReX_Print.H</text>
</g>
<!-- Node26&#45;&gt;Node28 -->
<g id="edge49" class="edge">
<title>Node26&#45;&gt;Node28</title>
<path fill="none" stroke="#191970" d="M241.6563,-61.8906C241.7949,-53.3657 242.0018,-40.6392 242.176,-29.9235"/>
<polygon fill="#191970" stroke="#191970" points="245.6784,-29.8005 242.3415,-19.7449 238.6793,-29.6866 245.6784,-29.8005"/>
</g>
<!-- Node29 -->
<g id="node30" class="node">
<title>Node29</title>
<polygon fill="#ffffff" stroke="#bfbfbf" points="305,-.5 305,-19.5 366,-19.5 366,-.5 305,-.5"/>
<text text-anchor="middle" x="335.5" y="-7.5" font-family="Helvetica,sans-Serif" font-size="10.00" fill="#000000">AMReX.H</text>
</g>
<!-- Node26&#45;&gt;Node29 -->
<g id="edge50" class="edge">
<title>Node26&#45;&gt;Node29</title>
<path fill="none" stroke="#191970" d="M256.1875,-61.8906C271.2256,-52.0519 294.8176,-36.6167 312.3667,-25.1351"/>
<polygon fill="#191970" stroke="#191970" points="314.4637,-27.9457 320.9156,-19.5419 310.6313,-22.088 314.4637,-27.9457"/>
</g>
<!-- Node30&#45;&gt;Node7 -->
<g id="edge52" class="edge">
<title>Node30&#45;&gt;Node7</title>
<path fill="none" stroke="#191970" d="M478.3381,-61.9932C490.0873,-59.7885 502.7302,-57.6171 514.5,-56 703.0106,-30.1004 931.2253,-16.1614 1014.2957,-11.6529"/>
<polygon fill="#191970" stroke="#191970" points="1014.5684,-15.1434 1024.3671,-11.1142 1014.1944,-8.1534 1014.5684,-15.1434"/>
</g>
<!-- Node30&#45;&gt;Node8 -->
<g id="edge54" class="edge">
<title>Node30&#45;&gt;Node8</title>
<path fill="none" stroke="#191970" d="M460.625,-61.8906C491.4028,-51.3749 540.8921,-34.466 574.9655,-22.8243"/>
<polygon fill="#191970" stroke="#191970" points="576.2412,-26.0871 584.5725,-19.5419 573.978,-19.4631 576.2412,-26.0871"/>
</g>
<!-- Node30&#45;&gt;Node14 -->
<g id="edge53" class="edge">
<title>Node30&#45;&gt;Node14</title>
<path fill="none" stroke="#191970" d="M432.5,-61.8906C432.5,-53.3657 432.5,-40.6392 432.5,-29.9235"/>
<polygon fill="#191970" stroke="#191970" points="436.0001,-29.7448 432.5,-19.7449 429.0001,-29.7449 436.0001,-29.7448"/>
</g>
<!-- Node30&#45;&gt;Node20 -->
<g id="edge55" class="edge">
<title>Node30&#45;&gt;Node20</title>
<path fill="none" stroke="#191970" d="M476.5841,-61.9924C488.8104,-59.6768 502.125,-57.4513 514.5,-56 695.6759,-34.7523 1257.819,-17.0024 1441.0832,-11.6515"/>
<polygon fill="#191970" stroke="#191970" points="1441.4282,-15.143 1451.3222,-11.354 1441.2248,-8.146 1441.4282,-15.143"/>
</g>
<!-- Node32 -->
<g id="node33" class="node">
<title>Node32</title>
<polygon fill="#ffffff" stroke="#bfbfbf" points="52,-.5 52,-19.5 101,-19.5 101,-.5 52,-.5"/>
<text text-anchor="middle" x="76.5" y="-7.5" font-family="Helvetica,sans-Serif" font-size="10.00" fill="#000000">iosfwd</text>
</g>
<!-- Node31&#45;&gt;Node32 -->
<g id="edge57" class="edge">
<title>Node31&#45;&gt;Node32</title>
<path fill="none" stroke="#191970" d="M77.2528,-56.2977C77.1241,-48.3834 76.9651,-38.6043 76.8264,-30.0759"/>
<polygon fill="#191970" stroke="#191970" points="80.3223,-29.7887 76.6601,-19.8469 73.3233,-29.9025 80.3223,-29.7887"/>
</g>
<!-- Node33&#45;&gt;Node11 -->
<g id="edge63" class="edge">
<title>Node33&#45;&gt;Node11</title>
<path fill="none" stroke="#191970" d="M593.6159,-128.9813C604.0642,-126.8985 615.153,-124.785 625.5,-123 736.1232,-103.9162 764.5435,-104.0391 875.5,-87 960.0697,-74.013 980.4301,-65.1543 1065.5,-56 1367.7321,-23.4772 1445.4278,-43.436 1748.5,-20 1759.5314,-19.147 1771.246,-18.0864 1782.594,-16.9777"/>
<polygon fill="#191970" stroke="#191970" points="1783.2795,-20.4268 1792.8823,-15.9506 1782.5841,-13.4614 1783.2795,-20.4268"/>
</g>
<!-- Node33&#45;&gt;Node26 -->
<g id="edge61" class="edge">
<title>Node33&#45;&gt;Node26</title>
<path fill="none" stroke="#191970" d="M504.8404,-128.9717C449.7565,-116.9501 355.043,-96.2797 295.4766,-83.2799"/>
<polygon fill="#191970" stroke="#191970" points="296.0224,-79.8167 285.506,-81.1039 294.5298,-86.6557 296.0224,-79.8167"/>
</g>
<!-- Node33&#45;&gt;Node30 -->
<g id="edge62" class="edge">
<title>Node33&#45;&gt;Node30</title>
<path fill="none" stroke="#191970" d="M531.88,-128.9005C512.4988,-117.7062 480.2545,-99.0823 457.7685,-86.0947"/>
<polygon fill="#191970" stroke="#191970" points="459.4991,-83.0525 449.0891,-81.0817 455.998,-89.114 459.4991,-83.0525"/>
</g>
<!-- Node34 -->
<g id="node35" class="node">
<title>Node34</title>
<polygon fill="#ffffff" stroke="#bfbfbf" points="557,-62 557,-81 670,-81 670,-62 557,-62"/>
<text text-anchor="middle" x="613.5" y="-69" font-family="Helvetica,sans-Serif" font-size="10.00" fill="#000000">AMReX_Geometry.H</text>
</g>
<!-- Node33&#45;&gt;Node34 -->
<g id="edge64" class="edge">
<title>Node33&#45;&gt;Node34</title>
<path fill="none" stroke="#191970" d="M557.8129,-128.9005C568.0456,-118.353 584.6772,-101.2096 597.1046,-88.3998"/>
<polygon fill="#191970" stroke="#191970" points="599.7533,-90.6962 604.2044,-81.0817 594.7291,-85.822 599.7533,-90.6962"/>
</g>
</g>
</svg>
