<?xml version="1.0" encoding="UTF-8" standalone="no"?>
<!DOCTYPE svg PUBLIC "-//W3C//DTD SVG 1.1//EN"
 "http://www.w3.org/Graphics/SVG/1.1/DTD/svg11.dtd">
<!-- Generated by graphviz version 2.40.1 (20161225.0304)
 -->
<!-- Title: CollMgr.H Pages: 1 -->
<svg width="354pt" height="84pt"
 viewBox="0.00 0.00 354.00 84.00" xmlns="http://www.w3.org/2000/svg" xmlns:xlink="http://www.w3.org/1999/xlink">
<g id="graph0" class="graph" transform="scale(1 1) rotate(0) translate(4 80)">
<title>CollMgr.H</title>
<polygon fill="#ffffff" stroke="transparent" points="-4,4 -4,-80 350,-80 350,4 -4,4"/>
<!-- Node0 -->
<g id="node1" class="node">
<title>Node0</title>
<polygon fill="#bfbfbf" stroke="#000000" points="106.5,-56.5 106.5,-75.5 169.5,-75.5 169.5,-56.5 106.5,-56.5"/>
<text text-anchor="middle" x="138" y="-63.5" font-family="Helvetica,sans-Serif" font-size="10.00" fill="#000000">CollMgr.H</text>
</g>
<!-- Node1 -->
<g id="node2" class="node">
<title>Node1</title>
<polygon fill="#ffffff" stroke="#bfbfbf" points="0,-.5 0,-19.5 44,-19.5 44,-.5 0,-.5"/>
<text text-anchor="middle" x="22" y="-7.5" font-family="Helvetica,sans-Serif" font-size="10.00" fill="#000000">string</text>
</g>
<!-- Node0&#45;&gt;Node1 -->
<g id="edge1" class="edge">
<title>Node0&#45;&gt;Node1</title>
<path fill="none" stroke="#191970" d="M118.0589,-56.3733C99.5214,-47.4241 71.6972,-33.9917 50.7587,-23.8835"/>
<polygon fill="#191970" stroke="#191970" points="52.2081,-20.6967 41.6809,-19.5011 49.1648,-27.0006 52.2081,-20.6967"/>
</g>
<!-- Node2 -->
<g id="node3" class="node">
<title>Node2</title>
<polygon fill="#ffffff" stroke="#bfbfbf" points="62,-.5 62,-19.5 120,-19.5 120,-.5 62,-.5"/>
<text text-anchor="middle" x="91" y="-7.5" font-family="Helvetica,sans-Serif" font-size="10.00" fill="#000000">memory</text>
</g>
<!-- Node0&#45;&gt;Node2 -->
<g id="edge2" class="edge">
<title>Node0&#45;&gt;Node2</title>
<path fill="none" stroke="#191970" d="M129.8132,-56.2455C123.1411,-48.2958 113.5521,-36.8706 105.5747,-27.3656"/>
<polygon fill="#191970" stroke="#191970" points="108.2026,-25.0524 99.093,-19.6427 102.8408,-29.5525 108.2026,-25.0524"/>
</g>
<!-- Node3 -->
<g id="node4" class="node">
<title>Node3</title>
<polygon fill="#ffffff" stroke="#bfbfbf" points="138.5,-.5 138.5,-19.5 231.5,-19.5 231.5,-.5 138.5,-.5"/>
<text text-anchor="middle" x="185" y="-7.5" font-family="Helvetica,sans-Serif" font-size="10.00" fill="#000000">unordered_map</text>
</g>
<!-- Node0&#45;&gt;Node3 -->
<g id="edge3" class="edge">
<title>Node0&#45;&gt;Node3</title>
<path fill="none" stroke="#191970" d="M146.1868,-56.2455C152.8589,-48.2958 162.4479,-36.8706 170.4253,-27.3656"/>
<polygon fill="#191970" stroke="#191970" points="173.1592,-29.5525 176.907,-19.6427 167.7974,-25.0524 173.1592,-29.5525"/>
</g>
<!-- Node4 -->
<g id="node5" class="node">
<title>Node4</title>
<polygon fill="#ffffff" stroke="#bfbfbf" points="250,-.5 250,-19.5 346,-19.5 346,-.5 250,-.5"/>
<text text-anchor="middle" x="298" y="-7.5" font-family="Helvetica,sans-Serif" font-size="10.00" fill="#000000">AMReX_Vector.H</text>
</g>
<!-- Node0&#45;&gt;Node4 -->
<g id="edge4" class="edge">
<title>Node0&#45;&gt;Node4</title>
<path fill="none" stroke="#191970" d="M165.505,-56.3733C191.8802,-47.1419 231.8851,-33.1402 261.0358,-22.9375"/>
<polygon fill="#191970" stroke="#191970" points="262.5716,-26.1082 270.8539,-19.5011 260.2591,-19.5012 262.5716,-26.1082"/>
</g>
</g>
</svg>
