<?xml version="1.0" encoding="UTF-8" standalone="no"?>
<!DOCTYPE svg PUBLIC "-//W3C//DTD SVG 1.1//EN"
 "http://www.w3.org/Graphics/SVG/1.1/DTD/svg11.dtd">
<!-- Generated by graphviz version 2.40.1 (20161225.0304)
 -->
<!-- Title: CompRHSOps.H Pages: 1 -->
<svg width="3436pt" height="408pt"
 viewBox="0.00 0.00 3436.50 408.00" xmlns="http://www.w3.org/2000/svg" xmlns:xlink="http://www.w3.org/1999/xlink">
<g id="graph0" class="graph" transform="scale(1 1) rotate(0) translate(4 404)">
<title>CompRHSOps.H</title>
<polygon fill="#ffffff" stroke="transparent" points="-4,4 -4,-404 3432.4952,-404 3432.4952,4 -4,4"/>
<!-- Node0 -->
<g id="node1" class="node">
<title>Node0</title>
<polygon fill="#bfbfbf" stroke="#000000" points="479.9952,-380.5 479.9952,-399.5 574.9952,-399.5 574.9952,-380.5 479.9952,-380.5"/>
<text text-anchor="middle" x="527.4952" y="-387.5" font-family="Helvetica,sans-Serif" font-size="10.00" fill="#000000">CompRHSOps.H</text>
</g>
<!-- Node1 -->
<g id="node2" class="node">
<title>Node1</title>
<g id="a_node2"><a xlink:href="incflo__enums_8_h.html" target="_top" xlink:title="amr&#45;wind/incflo_enums.H">
<polygon fill="#ffffff" stroke="#000000" points="449.4952,-56.5 449.4952,-75.5 589.4952,-75.5 589.4952,-56.5 449.4952,-56.5"/>
<text text-anchor="middle" x="519.4952" y="-63.5" font-family="Helvetica,sans-Serif" font-size="10.00" fill="#000000">amr&#45;wind/incflo_enums.H</text>
</a>
</g>
</g>
<!-- Node0&#45;&gt;Node1 -->
<g id="edge1" class="edge">
<title>Node0&#45;&gt;Node1</title>
<path fill="none" stroke="#191970" d="M527.4952,-380.3281C527.4952,-358.9175 527.4952,-305.895 527.4952,-261.5 527.4952,-261.5 527.4952,-261.5 527.4952,-194.5 527.4952,-155.9267 523.8599,-110.9659 521.4904,-85.7575"/>
<polygon fill="#191970" stroke="#191970" points="524.96,-85.2733 520.5084,-75.6591 517.9928,-85.9509 524.96,-85.2733"/>
</g>
<!-- Node2 -->
<g id="node3" class="node">
<title>Node2</title>
<g id="a_node3"><a xlink:href="_p_d_e_ops_8_h.html" target="_top" xlink:title="amr&#45;wind/equation_systems\l/PDEOps.H">
<polygon fill="#ffffff" stroke="#000000" points="1237.9952,-313.5 1237.9952,-343.5 1392.9952,-343.5 1392.9952,-313.5 1237.9952,-313.5"/>
<text text-anchor="start" x="1245.9952" y="-331.5" font-family="Helvetica,sans-Serif" font-size="10.00" fill="#000000">amr&#45;wind/equation_systems</text>
<text text-anchor="middle" x="1315.4952" y="-320.5" font-family="Helvetica,sans-Serif" font-size="10.00" fill="#000000">/PDEOps.H</text>
</a>
</g>
</g>
<!-- Node0&#45;&gt;Node2 -->
<g id="edge2" class="edge">
<title>Node0&#45;&gt;Node2</title>
<path fill="none" stroke="#191970" d="M575.0136,-386.2914C703.7532,-376.2438 1060.7599,-348.381 1227.534,-335.365"/>
<polygon fill="#191970" stroke="#191970" points="1228.058,-338.8348 1237.7554,-334.5673 1227.5133,-331.8561 1228.058,-338.8348"/>
</g>
<!-- Node48 -->
<g id="node49" class="node">
<title>Node48</title>
<g id="a_node49"><a xlink:href="_scheme_traits_8_h.html" target="_top" xlink:title="amr&#45;wind/equation_systems\l/SchemeTraits.H">
<polygon fill="#ffffff" stroke="#000000" points="343.9952,-313.5 343.9952,-343.5 498.9952,-343.5 498.9952,-313.5 343.9952,-313.5"/>
<text text-anchor="start" x="351.9952" y="-331.5" font-family="Helvetica,sans-Serif" font-size="10.00" fill="#000000">amr&#45;wind/equation_systems</text>
<text text-anchor="middle" x="421.4952" y="-320.5" font-family="Helvetica,sans-Serif" font-size="10.00" fill="#000000">/SchemeTraits.H</text>
</a>
</g>
</g>
<!-- Node0&#45;&gt;Node48 -->
<g id="edge103" class="edge">
<title>Node0&#45;&gt;Node48</title>
<path fill="none" stroke="#191970" d="M510.9327,-380.3906C496.3213,-371.9132 474.5485,-359.2809 456.144,-348.6028"/>
<polygon fill="#191970" stroke="#191970" points="457.8318,-345.5357 447.4258,-343.5446 454.3189,-351.5904 457.8318,-345.5357"/>
</g>
<!-- Node3 -->
<g id="node4" class="node">
<title>Node3</title>
<g id="a_node4"><a xlink:href="_field_utils_8_h.html" target="_top" xlink:title="amr&#45;wind/core/FieldUtils.H">
<polygon fill="#ffffff" stroke="#000000" points="2346.9952,-118 2346.9952,-137 2491.9952,-137 2491.9952,-118 2346.9952,-118"/>
<text text-anchor="middle" x="2419.4952" y="-125" font-family="Helvetica,sans-Serif" font-size="10.00" fill="#000000">amr&#45;wind/core/FieldUtils.H</text>
</a>
</g>
</g>
<!-- Node2&#45;&gt;Node3 -->
<g id="edge3" class="edge">
<title>Node2&#45;&gt;Node3</title>
<path fill="none" stroke="#191970" d="M1393.0992,-316.9268C1459.0161,-306.9233 1556.0886,-291.7829 1640.4952,-277 1911.5684,-229.5244 2234.1271,-165.0694 2362.6081,-139.0739"/>
<polygon fill="#191970" stroke="#191970" points="2363.5081,-142.4627 2372.6145,-137.0476 2362.1187,-135.602 2363.5081,-142.4627"/>
</g>
<!-- Node7 -->
<g id="node8" class="node">
<title>Node7</title>
<g id="a_node8"><a xlink:href="_p_d_e_helpers_8_h.html" target="_top" xlink:title="amr&#45;wind/equation_systems\l/PDEHelpers.H">
<polygon fill="#ffffff" stroke="#000000" points="1834.9952,-246.5 1834.9952,-276.5 1989.9952,-276.5 1989.9952,-246.5 1834.9952,-246.5"/>
<text text-anchor="start" x="1842.9952" y="-264.5" font-family="Helvetica,sans-Serif" font-size="10.00" fill="#000000">amr&#45;wind/equation_systems</text>
<text text-anchor="middle" x="1912.4952" y="-253.5" font-family="Helvetica,sans-Serif" font-size="10.00" fill="#000000">/PDEHelpers.H</text>
</a>
</g>
</g>
<!-- Node2&#45;&gt;Node7 -->
<g id="edge7" class="edge">
<title>Node2&#45;&gt;Node7</title>
<path fill="none" stroke="#191970" d="M1393.1107,-322.1692C1492.4124,-313.7061 1669.6238,-297.3801 1820.4952,-277 1821.8044,-276.8231 1823.1236,-276.6418 1824.4508,-276.4565"/>
<polygon fill="#191970" stroke="#191970" points="1825.3546,-279.8622 1834.7497,-274.9651 1824.3513,-272.9345 1825.3546,-279.8622"/>
</g>
<!-- Node34 -->
<g id="node35" class="node">
<title>Node34</title>
<g id="a_node35"><a xlink:href="_turbulence_model_8_h.html" target="_top" xlink:title="amr&#45;wind/turbulence\l/TurbulenceModel.H">
<polygon fill="#ffffff" stroke="#000000" points="826.9952,-179.5 826.9952,-209.5 943.9952,-209.5 943.9952,-179.5 826.9952,-179.5"/>
<text text-anchor="start" x="834.9952" y="-197.5" font-family="Helvetica,sans-Serif" font-size="10.00" fill="#000000">amr&#45;wind/turbulence</text>
<text text-anchor="middle" x="885.4952" y="-186.5" font-family="Helvetica,sans-Serif" font-size="10.00" fill="#000000">/TurbulenceModel.H</text>
</a>
</g>
</g>
<!-- Node2&#45;&gt;Node34 -->
<g id="edge66" class="edge">
<title>Node2&#45;&gt;Node34</title>
<path fill="none" stroke="#191970" d="M1267.0046,-313.389C1187.273,-288.5424 1028.822,-239.1646 943.3562,-212.5311"/>
<polygon fill="#191970" stroke="#191970" points="944.3971,-209.1895 933.8086,-209.5558 942.3145,-215.8725 944.3971,-209.1895"/>
</g>
<!-- Node39 -->
<g id="node40" class="node">
<title>Node39</title>
<g id="a_node40"><a xlink:href="_i_o_manager_8_h.html" target="_top" xlink:title="amr&#45;wind/utilities\l/IOManager.H">
<polygon fill="#ffffff" stroke="#000000" points="222.4952,-112.5 222.4952,-142.5 324.4952,-142.5 324.4952,-112.5 222.4952,-112.5"/>
<text text-anchor="start" x="230.4952" y="-130.5" font-family="Helvetica,sans-Serif" font-size="10.00" fill="#000000">amr&#45;wind/utilities</text>
<text text-anchor="middle" x="273.4952" y="-119.5" font-family="Helvetica,sans-Serif" font-size="10.00" fill="#000000">/IOManager.H</text>
</a>
</g>
</g>
<!-- Node2&#45;&gt;Node39 -->
<g id="edge75" class="edge">
<title>Node2&#45;&gt;Node39</title>
<path fill="none" stroke="#191970" d="M1237.602,-313.4745C1038.5375,-275.0753 514.2433,-173.9399 334.7746,-139.3207"/>
<polygon fill="#191970" stroke="#191970" points="335.1994,-135.8382 324.7175,-137.3807 333.8735,-142.7115 335.1994,-135.8382"/>
</g>
<!-- Node43 -->
<g id="node44" class="node">
<title>Node43</title>
<g id="a_node44"><a xlink:href="_c_f_d_sim_8_h.html" target="_top" xlink:title="amr&#45;wind/CFDSim.H">
<polygon fill="#ffffff" stroke="#000000" points="1517.4952,-252 1517.4952,-271 1631.4952,-271 1631.4952,-252 1517.4952,-252"/>
<text text-anchor="middle" x="1574.4952" y="-259" font-family="Helvetica,sans-Serif" font-size="10.00" fill="#000000">amr&#45;wind/CFDSim.H</text>
</a>
</g>
</g>
<!-- Node2&#45;&gt;Node43 -->
<g id="edge82" class="edge">
<title>Node2&#45;&gt;Node43</title>
<path fill="none" stroke="#191970" d="M1373.6199,-313.4639C1420.2493,-301.4015 1484.8334,-284.6944 1528.0575,-273.5128"/>
<polygon fill="#191970" stroke="#191970" points="1528.9462,-276.8983 1537.7509,-271.0053 1527.193,-270.1213 1528.9462,-276.8983"/>
</g>
<!-- Node47 -->
<g id="node48" class="node">
<title>Node47</title>
<polygon fill="#ffffff" stroke="#bfbfbf" points="1256.9952,-252 1256.9952,-271 1373.9952,-271 1373.9952,-252 1256.9952,-252"/>
<text text-anchor="middle" x="1315.4952" y="-259" font-family="Helvetica,sans-Serif" font-size="10.00" fill="#000000">AMReX_ParmParse.H</text>
</g>
<!-- Node2&#45;&gt;Node47 -->
<g id="edge102" class="edge">
<title>Node2&#45;&gt;Node47</title>
<path fill="none" stroke="#191970" d="M1315.4952,-313.2967C1315.4952,-303.7699 1315.4952,-291.3954 1315.4952,-281.1306"/>
<polygon fill="#191970" stroke="#191970" points="1318.9953,-281.0549 1315.4952,-271.055 1311.9953,-281.055 1318.9953,-281.0549"/>
</g>
<!-- Node4 -->
<g id="node5" class="node">
<title>Node4</title>
<g id="a_node5"><a xlink:href="_field_desc_types_8_h.html" target="_top" xlink:title="amr&#45;wind/core/FieldDescTypes.H">
<polygon fill="#ffffff" stroke="#000000" points="1764.4952,-.5 1764.4952,-19.5 1938.4952,-19.5 1938.4952,-.5 1764.4952,-.5"/>
<text text-anchor="middle" x="1851.4952" y="-7.5" font-family="Helvetica,sans-Serif" font-size="10.00" fill="#000000">amr&#45;wind/core/FieldDescTypes.H</text>
</a>
</g>
</g>
<!-- Node3&#45;&gt;Node4 -->
<g id="edge4" class="edge">
<title>Node3&#45;&gt;Node4</title>
<path fill="none" stroke="#191970" d="M2406.7311,-117.8435C2384.8729,-101.8839 2338.2879,-70.3446 2293.4952,-56 2261.5687,-45.7757 2069.2493,-28.2306 1949.0489,-18.0184"/>
<polygon fill="#191970" stroke="#191970" points="1948.9882,-14.5008 1938.7285,-17.1446 1948.3975,-21.4759 1948.9882,-14.5008"/>
</g>
<!-- Node5 -->
<g id="node6" class="node">
<title>Node5</title>
<polygon fill="#ffffff" stroke="#bfbfbf" points="1984.9952,-.5 1984.9952,-19.5 2091.9952,-19.5 2091.9952,-.5 1984.9952,-.5"/>
<text text-anchor="middle" x="2038.4952" y="-7.5" font-family="Helvetica,sans-Serif" font-size="10.00" fill="#000000">AMReX_MultiFab.H</text>
</g>
<!-- Node3&#45;&gt;Node5 -->
<g id="edge5" class="edge">
<title>Node3&#45;&gt;Node5</title>
<path fill="none" stroke="#191970" d="M2448.7593,-117.9991C2483.1491,-105.3703 2532.7572,-81.6445 2509.4952,-56 2482.6768,-26.4348 2225.1521,-15.2485 2102.6455,-11.5749"/>
<polygon fill="#191970" stroke="#191970" points="2102.3848,-8.0659 2092.287,-11.2726 2102.1806,-15.0629 2102.3848,-8.0659"/>
</g>
<!-- Node6 -->
<g id="node7" class="node">
<title>Node6</title>
<polygon fill="#ffffff" stroke="#bfbfbf" points="2378.4952,-56.5 2378.4952,-75.5 2500.4952,-75.5 2500.4952,-56.5 2378.4952,-56.5"/>
<text text-anchor="middle" x="2439.4952" y="-63.5" font-family="Helvetica,sans-Serif" font-size="10.00" fill="#000000">AMReX_Interpolater.H</text>
</g>
<!-- Node3&#45;&gt;Node6 -->
<g id="edge6" class="edge">
<title>Node3&#45;&gt;Node6</title>
<path fill="none" stroke="#191970" d="M2422.6202,-117.8906C2425.4218,-109.276 2429.6185,-96.3708 2433.1259,-85.5858"/>
<polygon fill="#191970" stroke="#191970" points="2436.5619,-86.3371 2436.3262,-75.7449 2429.9051,-84.1722 2436.5619,-86.3371"/>
</g>
<!-- Node8 -->
<g id="node9" class="node">
<title>Node8</title>
<polygon fill="#ffffff" stroke="#bfbfbf" points="1325.4952,-.5 1325.4952,-19.5 1369.4952,-19.5 1369.4952,-.5 1325.4952,-.5"/>
<text text-anchor="middle" x="1347.4952" y="-7.5" font-family="Helvetica,sans-Serif" font-size="10.00" fill="#000000">string</text>
</g>
<!-- Node7&#45;&gt;Node8 -->
<g id="edge8" class="edge">
<title>Node7&#45;&gt;Node8</title>
<path fill="none" stroke="#191970" d="M1834.8479,-254.1211C1767.9506,-246.6184 1669.2279,-232.7971 1585.4952,-210 1507.1357,-188.6658 1479.2894,-193.256 1415.4952,-143 1378.4649,-113.8281 1359.7373,-59.0262 1351.9906,-29.7007"/>
<polygon fill="#191970" stroke="#191970" points="1355.3441,-28.6816 1349.5441,-19.8153 1348.5491,-30.3633 1355.3441,-28.6816"/>
</g>
<!-- Node9 -->
<g id="node10" class="node">
<title>Node9</title>
<g id="a_node10"><a xlink:href="_p_d_e_fields_8_h.html" target="_top" xlink:title="amr&#45;wind/equation_systems\l/PDEFields.H">
<polygon fill="#ffffff" stroke="#000000" points="1215.9952,-112.5 1215.9952,-142.5 1370.9952,-142.5 1370.9952,-112.5 1215.9952,-112.5"/>
<text text-anchor="start" x="1223.9952" y="-130.5" font-family="Helvetica,sans-Serif" font-size="10.00" fill="#000000">amr&#45;wind/equation_systems</text>
<text text-anchor="middle" x="1293.4952" y="-119.5" font-family="Helvetica,sans-Serif" font-size="10.00" fill="#000000">/PDEFields.H</text>
</a>
</g>
</g>
<!-- Node7&#45;&gt;Node9 -->
<g id="edge9" class="edge">
<title>Node7&#45;&gt;Node9</title>
<path fill="none" stroke="#191970" d="M1834.7907,-256.5893C1698.1854,-247.5608 1425.6003,-227.6321 1385.4952,-210 1369.5962,-203.01 1337.0075,-171.8612 1315.2,-149.9087"/>
<polygon fill="#191970" stroke="#191970" points="1317.4928,-147.2488 1307.9811,-142.582 1312.5065,-152.1617 1317.4928,-147.2488"/>
</g>
<!-- Node11 -->
<g id="node12" class="node">
<title>Node11</title>
<g id="a_node12"><a xlink:href="_sim_time_8_h.html" target="_top" xlink:title="amr&#45;wind/core/SimTime.H">
<polygon fill="#ffffff" stroke="#000000" points="2728.9952,-118 2728.9952,-137 2871.9952,-137 2871.9952,-118 2728.9952,-118"/>
<text text-anchor="middle" x="2800.4952" y="-125" font-family="Helvetica,sans-Serif" font-size="10.00" fill="#000000">amr&#45;wind/core/SimTime.H</text>
</a>
</g>
</g>
<!-- Node7&#45;&gt;Node11 -->
<g id="edge11" class="edge">
<title>Node7&#45;&gt;Node11</title>
<path fill="none" stroke="#191970" d="M1990.2831,-260.4119C2183.7588,-257.1776 2675.7901,-245.5217 2740.4952,-210 2766.0103,-195.9928 2783.4938,-165.9674 2792.7419,-146.2644"/>
<polygon fill="#191970" stroke="#191970" points="2795.9773,-147.6022 2796.8263,-137.0414 2789.5768,-144.7677 2795.9773,-147.6022"/>
</g>
<!-- Node15 -->
<g id="node16" class="node">
<title>Node15</title>
<g id="a_node16"><a xlink:href="_field_repo_8_h.html" target="_top" xlink:title="amr&#45;wind/core/FieldRepo.H">
<polygon fill="#ffffff" stroke="#000000" points="1594.4952,-185 1594.4952,-204 1740.4952,-204 1740.4952,-185 1594.4952,-185"/>
<text text-anchor="middle" x="1667.4952" y="-192" font-family="Helvetica,sans-Serif" font-size="10.00" fill="#000000">amr&#45;wind/core/FieldRepo.H</text>
</a>
</g>
</g>
<!-- Node7&#45;&gt;Node15 -->
<g id="edge15" class="edge">
<title>Node7&#45;&gt;Node15</title>
<path fill="none" stroke="#191970" d="M1857.5125,-246.4639C1813.5893,-234.4522 1752.8246,-217.835 1711.9404,-206.6544"/>
<polygon fill="#191970" stroke="#191970" points="1712.8225,-203.2672 1702.2534,-204.0053 1710.9759,-210.0192 1712.8225,-203.2672"/>
</g>
<!-- Node29 -->
<g id="node30" class="node">
<title>Node29</title>
<g id="a_node30"><a xlink:href="_field_fill_patch_ops_8_h.html" target="_top" xlink:title="amr&#45;wind/core/FieldFillPatch\lOps.H">
<polygon fill="#ffffff" stroke="#000000" points="2489.4952,-179.5 2489.4952,-209.5 2641.4952,-209.5 2641.4952,-179.5 2489.4952,-179.5"/>
<text text-anchor="start" x="2497.4952" y="-197.5" font-family="Helvetica,sans-Serif" font-size="10.00" fill="#000000">amr&#45;wind/core/FieldFillPatch</text>
<text text-anchor="middle" x="2565.4952" y="-186.5" font-family="Helvetica,sans-Serif" font-size="10.00" fill="#000000">Ops.H</text>
</a>
</g>
</g>
<!-- Node7&#45;&gt;Node29 -->
<g id="edge49" class="edge">
<title>Node7&#45;&gt;Node29</title>
<path fill="none" stroke="#191970" d="M1990.2902,-253.518C2113.1893,-240.9081 2351.4081,-216.4661 2479.3275,-203.3411"/>
<polygon fill="#191970" stroke="#191970" points="2479.8825,-206.8026 2489.473,-202.3001 2479.168,-199.8392 2479.8825,-206.8026"/>
</g>
<!-- Node31 -->
<g id="node32" class="node">
<title>Node31</title>
<g id="a_node32"><a xlink:href="_field_b_c_ops_8_h.html" target="_top" xlink:title="amr&#45;wind/core/FieldBCOps.H">
<polygon fill="#ffffff" stroke="#000000" points="3094.9952,-185 3094.9952,-204 3249.9952,-204 3249.9952,-185 3094.9952,-185"/>
<text text-anchor="middle" x="3172.4952" y="-192" font-family="Helvetica,sans-Serif" font-size="10.00" fill="#000000">amr&#45;wind/core/FieldBCOps.H</text>
</a>
</g>
</g>
<!-- Node7&#45;&gt;Node31 -->
<g id="edge59" class="edge">
<title>Node7&#45;&gt;Node31</title>
<path fill="none" stroke="#191970" d="M1990.363,-257.3594C2212.8053,-245.5311 2850.1053,-211.643 3084.559,-199.176"/>
<polygon fill="#191970" stroke="#191970" points="3084.9455,-202.6605 3094.7455,-198.6343 3084.5737,-195.6703 3084.9455,-202.6605"/>
</g>
<!-- Node10 -->
<g id="node11" class="node">
<title>Node10</title>
<polygon fill="#ffffff" stroke="#bfbfbf" points="1250.9952,-56.5 1250.9952,-75.5 1299.9952,-75.5 1299.9952,-56.5 1250.9952,-56.5"/>
<text text-anchor="middle" x="1275.4952" y="-63.5" font-family="Helvetica,sans-Serif" font-size="10.00" fill="#000000">iosfwd</text>
</g>
<!-- Node9&#45;&gt;Node10 -->
<g id="edge10" class="edge">
<title>Node9&#45;&gt;Node10</title>
<path fill="none" stroke="#191970" d="M1289.0458,-112.2977C1286.6773,-104.2055 1283.7383,-94.1639 1281.2034,-85.5029"/>
<polygon fill="#191970" stroke="#191970" points="1284.5454,-84.4611 1278.3773,-75.8469 1277.8272,-86.4275 1284.5454,-84.4611"/>
</g>
<!-- Node12 -->
<g id="node13" class="node">
<title>Node12</title>
<polygon fill="#ffffff" stroke="#bfbfbf" points="2594.9952,-56.5 2594.9952,-75.5 2685.9952,-75.5 2685.9952,-56.5 2594.9952,-56.5"/>
<text text-anchor="middle" x="2640.4952" y="-63.5" font-family="Helvetica,sans-Serif" font-size="10.00" fill="#000000">AMReX_REAL.H</text>
</g>
<!-- Node11&#45;&gt;Node12 -->
<g id="edge12" class="edge">
<title>Node11&#45;&gt;Node12</title>
<path fill="none" stroke="#191970" d="M2775.4952,-117.8906C2748.4895,-107.5103 2705.2768,-90.9004 2675.0359,-79.2766"/>
<polygon fill="#191970" stroke="#191970" points="2675.9097,-75.8628 2665.3197,-75.5419 2673.3981,-82.3968 2675.9097,-75.8628"/>
</g>
<!-- Node13 -->
<g id="node14" class="node">
<title>Node13</title>
<polygon fill="#ffffff" stroke="#bfbfbf" points="2836.4952,-56.5 2836.4952,-75.5 2968.4952,-75.5 2968.4952,-56.5 2836.4952,-56.5"/>
<text text-anchor="middle" x="2902.4952" y="-63.5" font-family="Helvetica,sans-Serif" font-size="10.00" fill="#000000">AMReX_GpuQualifiers.H</text>
</g>
<!-- Node11&#45;&gt;Node13 -->
<g id="edge13" class="edge">
<title>Node11&#45;&gt;Node13</title>
<path fill="none" stroke="#191970" d="M2816.4327,-117.8906C2832.9004,-107.9616 2858.821,-92.333 2877.9156,-80.8201"/>
<polygon fill="#191970" stroke="#191970" points="2879.9131,-83.7027 2886.6697,-75.5419 2876.2986,-77.7081 2879.9131,-83.7027"/>
</g>
<!-- Node14 -->
<g id="node15" class="node">
<title>Node14</title>
<polygon fill="#ffffff" stroke="#bfbfbf" points="2704.4952,-56.5 2704.4952,-75.5 2818.4952,-75.5 2818.4952,-56.5 2704.4952,-56.5"/>
<text text-anchor="middle" x="2761.4952" y="-63.5" font-family="Helvetica,sans-Serif" font-size="10.00" fill="#000000">AMReX_Extension.H</text>
</g>
<!-- Node11&#45;&gt;Node14 -->
<g id="edge14" class="edge">
<title>Node11&#45;&gt;Node14</title>
<path fill="none" stroke="#191970" d="M2794.4015,-117.8906C2788.7109,-108.917 2780.0681,-95.2879 2773.0679,-84.2491"/>
<polygon fill="#191970" stroke="#191970" points="2775.9862,-82.3155 2767.6749,-75.7449 2770.0746,-86.0644 2775.9862,-82.3155"/>
</g>
<!-- Node15&#45;&gt;Node3 -->
<g id="edge19" class="edge">
<title>Node15&#45;&gt;Node3</title>
<path fill="none" stroke="#191970" d="M1738.48,-184.9801C1756.1073,-182.8141 1774.9706,-180.6639 1792.4952,-179 2034.1584,-156.0544 2096.6815,-173.5995 2337.4952,-143 2346.267,-141.8854 2355.517,-140.4213 2364.5185,-138.8377"/>
<polygon fill="#191970" stroke="#191970" points="2365.3271,-142.248 2374.5372,-137.0112 2364.0716,-135.3615 2365.3271,-142.248"/>
</g>
<!-- Node15&#45;&gt;Node4 -->
<g id="edge18" class="edge">
<title>Node15&#45;&gt;Node4</title>
<path fill="none" stroke="#191970" d="M1668.0329,-184.7455C1669.2796,-168.6616 1673.3558,-135.9733 1686.4952,-112 1712.0656,-65.3461 1768.9093,-37.43 1808.6923,-22.8916"/>
<polygon fill="#191970" stroke="#191970" points="1809.8839,-26.1827 1818.1579,-19.5652 1807.5631,-19.5787 1809.8839,-26.1827"/>
</g>
<!-- Node15&#45;&gt;Node5 -->
<g id="edge47" class="edge">
<title>Node15&#45;&gt;Node5</title>
<path fill="none" stroke="#191970" d="M1714.2817,-184.9502C1776.0825,-172.1793 1879.0609,-150.2989 1895.4952,-143 1917.3577,-133.2903 1918.8632,-124.1065 1939.4952,-112 1971.385,-93.2876 1989.6726,-103.4034 2014.4952,-76 2026.2361,-63.0385 2032.3546,-43.8818 2035.4653,-29.5413"/>
<polygon fill="#191970" stroke="#191970" points="2038.9086,-30.1684 2037.3011,-19.6963 2032.0272,-28.8852 2038.9086,-30.1684"/>
</g>
<!-- Node15&#45;&gt;Node8 -->
<g id="edge16" class="edge">
<title>Node15&#45;&gt;Node8</title>
<path fill="none" stroke="#191970" d="M1600.6064,-184.9701C1560.1956,-177.3957 1508.5481,-164.4119 1466.4952,-143 1424.8618,-121.8016 1415.6306,-111.7012 1385.4952,-76 1373.2796,-61.5282 1362.8376,-42.5893 1356.0085,-28.7124"/>
<polygon fill="#191970" stroke="#191970" points="1359.1514,-27.1714 1351.7008,-19.6388 1352.8279,-30.1736 1359.1514,-27.1714"/>
</g>
<!-- Node16 -->
<g id="node17" class="node">
<title>Node16</title>
<polygon fill="#ffffff" stroke="#bfbfbf" points="872.9952,-56.5 872.9952,-75.5 965.9952,-75.5 965.9952,-56.5 872.9952,-56.5"/>
<text text-anchor="middle" x="919.4952" y="-63.5" font-family="Helvetica,sans-Serif" font-size="10.00" fill="#000000">unordered_map</text>
</g>
<!-- Node15&#45;&gt;Node16 -->
<g id="edge17" class="edge">
<title>Node15&#45;&gt;Node16</title>
<path fill="none" stroke="#191970" d="M1594.3734,-190.4664C1412.0447,-180.2608 950.947,-153.4816 938.4952,-143 922.086,-129.1871 918.6117,-103.6732 918.4063,-85.8131"/>
<polygon fill="#191970" stroke="#191970" points="921.9097,-85.6917 918.6273,-75.6182 914.9113,-85.54 921.9097,-85.6917"/>
</g>
<!-- Node17 -->
<g id="node18" class="node">
<title>Node17</title>
<g id="a_node18"><a xlink:href="_field_8_h.html" target="_top" xlink:title="amr&#45;wind/core/Field.H">
<polygon fill="#ffffff" stroke="#000000" points="2206.4952,-118 2206.4952,-137 2328.4952,-137 2328.4952,-118 2206.4952,-118"/>
<text text-anchor="middle" x="2267.4952" y="-125" font-family="Helvetica,sans-Serif" font-size="10.00" fill="#000000">amr&#45;wind/core/Field.H</text>
</a>
</g>
</g>
<!-- Node15&#45;&gt;Node17 -->
<g id="edge20" class="edge">
<title>Node15&#45;&gt;Node17</title>
<path fill="none" stroke="#191970" d="M1740.814,-184.9765C1757.7718,-182.8939 1775.7517,-180.7817 1792.4952,-179 1972.1904,-159.8783 2018.9044,-170.5916 2197.4952,-143 2204.3551,-141.9402 2211.5479,-140.6066 2218.6032,-139.1688"/>
<polygon fill="#191970" stroke="#191970" points="2219.7313,-142.5074 2228.7867,-137.0074 2218.2779,-135.6599 2219.7313,-142.5074"/>
</g>
<!-- Node24 -->
<g id="node25" class="node">
<title>Node24</title>
<g id="a_node25"><a xlink:href="_int_field_8_h.html" target="_top" xlink:title="amr&#45;wind/core/IntField.H">
<polygon fill="#ffffff" stroke="#000000" points="1503.9952,-118 1503.9952,-137 1638.9952,-137 1638.9952,-118 1503.9952,-118"/>
<text text-anchor="middle" x="1571.4952" y="-125" font-family="Helvetica,sans-Serif" font-size="10.00" fill="#000000">amr&#45;wind/core/IntField.H</text>
</a>
</g>
</g>
<!-- Node15&#45;&gt;Node24 -->
<g id="edge35" class="edge">
<title>Node15&#45;&gt;Node24</title>
<path fill="none" stroke="#191970" d="M1653.7408,-184.9005C1638.0575,-173.9549 1612.1969,-155.9064 1593.6594,-142.9688"/>
<polygon fill="#191970" stroke="#191970" points="1595.4277,-139.9347 1585.2242,-137.0817 1591.4214,-145.675 1595.4277,-139.9347"/>
</g>
<!-- Node25 -->
<g id="node26" class="node">
<title>Node25</title>
<polygon fill="#ffffff" stroke="#bfbfbf" points="1394.4952,-56.5 1394.4952,-75.5 1504.4952,-75.5 1504.4952,-56.5 1394.4952,-56.5"/>
<text text-anchor="middle" x="1449.4952" y="-63.5" font-family="Helvetica,sans-Serif" font-size="10.00" fill="#000000">AMReX_iMultiFab.H</text>
</g>
<!-- Node15&#45;&gt;Node25 -->
<g id="edge48" class="edge">
<title>Node15&#45;&gt;Node25</title>
<path fill="none" stroke="#191970" d="M1594.0895,-185.1881C1560.9587,-178.0179 1522.9634,-165.352 1494.4952,-143 1475.5352,-128.1134 1462.9931,-102.8549 1456.0751,-85.3458"/>
<polygon fill="#191970" stroke="#191970" points="1459.2286,-83.7809 1452.4874,-75.6073 1452.6602,-86.2008 1459.2286,-83.7809"/>
</g>
<!-- Node26 -->
<g id="node27" class="node">
<title>Node26</title>
<g id="a_node27"><a xlink:href="_scratch_field_8_h.html" target="_top" xlink:title="amr&#45;wind/core/ScratchField.H">
<polygon fill="#ffffff" stroke="#000000" points="1695.4952,-118 1695.4952,-137 1853.4952,-137 1853.4952,-118 1695.4952,-118"/>
<text text-anchor="middle" x="1774.4952" y="-125" font-family="Helvetica,sans-Serif" font-size="10.00" fill="#000000">amr&#45;wind/core/ScratchField.H</text>
</a>
</g>
</g>
<!-- Node15&#45;&gt;Node26 -->
<g id="edge39" class="edge">
<title>Node15&#45;&gt;Node26</title>
<path fill="none" stroke="#191970" d="M1682.8257,-184.9005C1700.5444,-173.8057 1729.918,-155.4128 1750.632,-142.4424"/>
<polygon fill="#191970" stroke="#191970" points="1752.5751,-145.3553 1759.1932,-137.0817 1748.8601,-139.4224 1752.5751,-145.3553"/>
</g>
<!-- Node28 -->
<g id="node29" class="node">
<title>Node28</title>
<polygon fill="#ffffff" stroke="#bfbfbf" points="1947.9952,-118 1947.9952,-137 2056.9952,-137 2056.9952,-118 1947.9952,-118"/>
<text text-anchor="middle" x="2002.4952" y="-125" font-family="Helvetica,sans-Serif" font-size="10.00" fill="#000000">AMReX_AmrCore.H</text>
</g>
<!-- Node15&#45;&gt;Node28 -->
<g id="edge46" class="edge">
<title>Node15&#45;&gt;Node28</title>
<path fill="none" stroke="#191970" d="M1719.077,-184.9834C1772.7339,-174.9739 1859.1365,-158.5466 1933.4952,-143 1939.1924,-141.8089 1945.1458,-140.5273 1951.065,-139.2298"/>
<polygon fill="#191970" stroke="#191970" points="1951.9355,-142.6219 1960.9431,-137.044 1950.4231,-135.7872 1951.9355,-142.6219"/>
</g>
<!-- Node17&#45;&gt;Node1 -->
<g id="edge28" class="edge">
<title>Node17&#45;&gt;Node1</title>
<path fill="none" stroke="#191970" d="M2230.6727,-117.9326C2220.0394,-115.5556 2208.3697,-113.3136 2197.4952,-112 1495.1382,-27.1596 1309.153,-127.7381 599.883,-76.0177"/>
<polygon fill="#191970" stroke="#191970" points="599.8988,-72.5095 589.6686,-75.265 599.3843,-79.4905 599.8988,-72.5095"/>
</g>
<!-- Node17&#45;&gt;Node4 -->
<g id="edge29" class="edge">
<title>Node17&#45;&gt;Node4</title>
<path fill="none" stroke="#191970" d="M2233.8046,-117.984C2158.805,-96.8002 1978.1436,-45.7721 1894.8686,-22.2509"/>
<polygon fill="#191970" stroke="#191970" points="1895.7845,-18.8727 1885.2096,-19.5227 1893.8817,-25.6091 1895.7845,-18.8727"/>
</g>
<!-- Node17&#45;&gt;Node5 -->
<g id="edge25" class="edge">
<title>Node17&#45;&gt;Node5</title>
<path fill="none" stroke="#191970" d="M2276.621,-117.6547C2289.2663,-102.8023 2308.9111,-74.4456 2293.4952,-56 2269.5886,-27.3949 2169.7509,-16.5478 2102.3228,-12.4548"/>
<polygon fill="#191970" stroke="#191970" points="2102.393,-8.9532 2092.2095,-11.8764 2101.9933,-15.9418 2102.393,-8.9532"/>
</g>
<!-- Node17&#45;&gt;Node8 -->
<g id="edge21" class="edge">
<title>Node17&#45;&gt;Node8</title>
<path fill="none" stroke="#191970" d="M2228.7972,-117.9235C2218.6633,-115.6931 2207.7129,-113.527 2197.4952,-112 1996.4309,-81.9517 1943.2721,-100.817 1741.4952,-76 1606.2383,-59.3644 1446.5018,-29.3845 1379.5441,-16.3448"/>
<polygon fill="#191970" stroke="#191970" points="1380.0983,-12.887 1369.6124,-14.4021 1378.7545,-19.7568 1380.0983,-12.887"/>
</g>
<!-- Node17&#45;&gt;Node16 -->
<g id="edge23" class="edge">
<title>Node17&#45;&gt;Node16</title>
<path fill="none" stroke="#191970" d="M2230.6668,-117.9813C2220.0333,-115.6051 2208.365,-113.3513 2197.4952,-112 1661.59,-45.3781 1517.7102,-130.8536 976.1948,-75.894"/>
<polygon fill="#191970" stroke="#191970" points="976.4784,-72.4048 966.1733,-74.8655 975.7637,-79.3683 976.4784,-72.4048"/>
</g>
<!-- Node18 -->
<g id="node19" class="node">
<title>Node18</title>
<polygon fill="#ffffff" stroke="#bfbfbf" points="984.4952,-56.5 984.4952,-75.5 1042.4952,-75.5 1042.4952,-56.5 984.4952,-56.5"/>
<text text-anchor="middle" x="1013.4952" y="-63.5" font-family="Helvetica,sans-Serif" font-size="10.00" fill="#000000">memory</text>
</g>
<!-- Node17&#45;&gt;Node18 -->
<g id="edge22" class="edge">
<title>Node17&#45;&gt;Node18</title>
<path fill="none" stroke="#191970" d="M2230.2966,-117.9579C2219.7609,-115.6121 2208.236,-113.3799 2197.4952,-112 1775.7714,-57.8187 1666.3325,-93.3155 1241.4952,-76 1175.2019,-73.298 1098.0802,-69.8521 1052.662,-67.7916"/>
<polygon fill="#191970" stroke="#191970" points="1052.7943,-64.2941 1042.6457,-67.3364 1052.4764,-71.2869 1052.7943,-64.2941"/>
</g>
<!-- Node19 -->
<g id="node20" class="node">
<title>Node19</title>
<polygon fill="#ffffff" stroke="#bfbfbf" points="2104.4952,-56.5 2104.4952,-75.5 2168.4952,-75.5 2168.4952,-56.5 2104.4952,-56.5"/>
<text text-anchor="middle" x="2136.4952" y="-63.5" font-family="Helvetica,sans-Serif" font-size="10.00" fill="#000000">algorithm</text>
</g>
<!-- Node17&#45;&gt;Node19 -->
<g id="edge24" class="edge">
<title>Node17&#45;&gt;Node19</title>
<path fill="none" stroke="#191970" d="M2247.0265,-117.8906C2225.3001,-107.6908 2190.7617,-91.4763 2166.0767,-79.8875"/>
<polygon fill="#191970" stroke="#191970" points="2167.3598,-76.6234 2156.8203,-75.5419 2164.385,-82.9598 2167.3598,-76.6234"/>
</g>
<!-- Node20 -->
<g id="node21" class="node">
<title>Node20</title>
<polygon fill="#ffffff" stroke="#bfbfbf" points="2186.9952,-56.5 2186.9952,-75.5 2283.9952,-75.5 2283.9952,-56.5 2186.9952,-56.5"/>
<text text-anchor="middle" x="2235.4952" y="-63.5" font-family="Helvetica,sans-Serif" font-size="10.00" fill="#000000">AMReX_BCRec.H</text>
</g>
<!-- Node17&#45;&gt;Node20 -->
<g id="edge26" class="edge">
<title>Node17&#45;&gt;Node20</title>
<path fill="none" stroke="#191970" d="M2262.4952,-117.8906C2257.9194,-109.0965 2251.0172,-95.8312 2245.3369,-84.9145"/>
<polygon fill="#191970" stroke="#191970" points="2248.2864,-83.0003 2240.5657,-75.7449 2242.0767,-86.2314 2248.2864,-83.0003"/>
</g>
<!-- Node21 -->
<g id="node22" class="node">
<title>Node21</title>
<polygon fill="#ffffff" stroke="#bfbfbf" points="3132.4952,-56.5 3132.4952,-75.5 3218.4952,-75.5 3218.4952,-56.5 3132.4952,-56.5"/>
<text text-anchor="middle" x="3175.4952" y="-63.5" font-family="Helvetica,sans-Serif" font-size="10.00" fill="#000000">AMReX_Gpu.H</text>
</g>
<!-- Node17&#45;&gt;Node21 -->
<g id="edge27" class="edge">
<title>Node17&#45;&gt;Node21</title>
<path fill="none" stroke="#191970" d="M2305.6083,-117.9387C2316.1943,-115.6228 2327.737,-113.4107 2338.4952,-112 2681.4892,-67.0244 2774.8919,-116.1318 3122.3485,-75.9589"/>
<polygon fill="#191970" stroke="#191970" points="3122.9155,-79.4165 3132.4397,-74.7755 3122.1001,-72.4641 3122.9155,-79.4165"/>
</g>
<!-- Node22 -->
<g id="node23" class="node">
<title>Node22</title>
<g id="a_node23"><a xlink:href="_view_field_8_h.html" target="_top" xlink:title="amr&#45;wind/core/ViewField.H">
<polygon fill="#ffffff" stroke="#000000" points="1750.4952,-56.5 1750.4952,-75.5 1896.4952,-75.5 1896.4952,-56.5 1750.4952,-56.5"/>
<text text-anchor="middle" x="1823.4952" y="-63.5" font-family="Helvetica,sans-Serif" font-size="10.00" fill="#000000">amr&#45;wind/core/ViewField.H</text>
</a>
</g>
</g>
<!-- Node17&#45;&gt;Node22 -->
<g id="edge30" class="edge">
<title>Node17&#45;&gt;Node22</title>
<path fill="none" stroke="#191970" d="M2227.6464,-117.9858C2217.8253,-115.8321 2207.3092,-113.6861 2197.4952,-112 2097.9963,-94.9053 1982.5493,-81.7047 1906.5386,-73.9153"/>
<polygon fill="#191970" stroke="#191970" points="1906.8467,-70.4287 1896.5439,-72.899 1906.1385,-77.3928 1906.8467,-70.4287"/>
</g>
<!-- Node22&#45;&gt;Node4 -->
<g id="edge32" class="edge">
<title>Node22&#45;&gt;Node4</title>
<path fill="none" stroke="#191970" d="M1828.3725,-56.2455C1832.1466,-48.6973 1837.4874,-38.0158 1842.0854,-28.8197"/>
<polygon fill="#191970" stroke="#191970" points="1845.3322,-30.1522 1846.6739,-19.6427 1839.0712,-27.0217 1845.3322,-30.1522"/>
</g>
<!-- Node22&#45;&gt;Node5 -->
<g id="edge33" class="edge">
<title>Node22&#45;&gt;Node5</title>
<path fill="none" stroke="#191970" d="M1860.4551,-56.3733C1896.9027,-46.8799 1952.7198,-32.3415 1992.1241,-22.0781"/>
<polygon fill="#191970" stroke="#191970" points="1993.2228,-25.4087 2002.0177,-19.5011 1991.4584,-18.6348 1993.2228,-25.4087"/>
</g>
<!-- Node22&#45;&gt;Node8 -->
<g id="edge31" class="edge">
<title>Node22&#45;&gt;Node8</title>
<path fill="none" stroke="#191970" d="M1750.4233,-57.4033C1645.3529,-45.0421 1455.9133,-22.7551 1380.1277,-13.8391"/>
<polygon fill="#191970" stroke="#191970" points="1380.135,-10.3159 1369.7945,-12.6234 1379.317,-17.268 1380.135,-10.3159"/>
</g>
<!-- Node23 -->
<g id="node24" class="node">
<title>Node23</title>
<polygon fill="#ffffff" stroke="#bfbfbf" points="1107.4952,-.5 1107.4952,-19.5 1203.4952,-19.5 1203.4952,-.5 1107.4952,-.5"/>
<text text-anchor="middle" x="1155.4952" y="-7.5" font-family="Helvetica,sans-Serif" font-size="10.00" fill="#000000">AMReX_Vector.H</text>
</g>
<!-- Node22&#45;&gt;Node23 -->
<g id="edge34" class="edge">
<title>Node22&#45;&gt;Node23</title>
<path fill="none" stroke="#191970" d="M1750.4166,-59.8736C1616.8638,-48.6776 1335.9212,-25.1255 1214.0086,-14.9053"/>
<polygon fill="#191970" stroke="#191970" points="1214.0193,-11.394 1203.7618,-14.0463 1213.4344,-18.3695 1214.0193,-11.394"/>
</g>
<!-- Node24&#45;&gt;Node4 -->
<g id="edge37" class="edge">
<title>Node24&#45;&gt;Node4</title>
<path fill="none" stroke="#191970" d="M1576.8299,-117.861C1586.022,-102.2172 1606.3983,-71.4932 1632.4952,-56 1655.9941,-42.0492 1719.8033,-29.5397 1772.5215,-21.1004"/>
<polygon fill="#191970" stroke="#191970" points="1773.2283,-24.5323 1782.5625,-19.5201 1772.1399,-17.6175 1773.2283,-24.5323"/>
</g>
<!-- Node24&#45;&gt;Node8 -->
<g id="edge36" class="edge">
<title>Node24&#45;&gt;Node8</title>
<path fill="none" stroke="#191970" d="M1566.1508,-117.5376C1557.2977,-102.0003 1538.099,-72.1125 1513.4952,-56 1472.2309,-28.9769 1415.2312,-17.6802 1379.9013,-13.0627"/>
<polygon fill="#191970" stroke="#191970" points="1380.0201,-9.5519 1369.674,-11.8341 1379.1851,-16.5019 1380.0201,-9.5519"/>
</g>
<!-- Node24&#45;&gt;Node25 -->
<g id="edge38" class="edge">
<title>Node24&#45;&gt;Node25</title>
<path fill="none" stroke="#191970" d="M1552.4327,-117.8906C1532.378,-107.7811 1500.6019,-91.7628 1477.6569,-80.1962"/>
<polygon fill="#191970" stroke="#191970" points="1478.929,-76.918 1468.4239,-75.5419 1475.778,-83.1687 1478.929,-76.918"/>
</g>
<!-- Node26&#45;&gt;Node4 -->
<g id="edge41" class="edge">
<title>Node26&#45;&gt;Node4</title>
<path fill="none" stroke="#191970" d="M1811.6267,-117.929C1846.3694,-108.1337 1894.5214,-92.1056 1905.4952,-76 1918.0018,-57.645 1897.3047,-38.1368 1878.0255,-25.1306"/>
<polygon fill="#191970" stroke="#191970" points="1879.708,-22.0528 1869.3916,-19.6398 1875.9515,-27.9595 1879.708,-22.0528"/>
</g>
<!-- Node26&#45;&gt;Node5 -->
<g id="edge43" class="edge">
<title>Node26&#45;&gt;Node5</title>
<path fill="none" stroke="#191970" d="M1806.4342,-117.9705C1836.4304,-108.6168 1882.2879,-93.271 1920.4952,-76 1954.295,-60.7214 1991.3289,-39.1569 2014.7254,-24.8885"/>
<polygon fill="#191970" stroke="#191970" points="2016.5993,-27.8451 2023.2823,-19.6238 2012.9311,-21.8831 2016.5993,-27.8451"/>
</g>
<!-- Node26&#45;&gt;Node8 -->
<g id="edge40" class="edge">
<title>Node26&#45;&gt;Node8</title>
<path fill="none" stroke="#191970" d="M1744.9832,-117.8955C1700.6156,-103.5989 1613.9835,-76.2351 1539.4952,-56 1483.7112,-40.846 1418.1014,-25.6951 1379.8206,-17.1197"/>
<polygon fill="#191970" stroke="#191970" points="1380.301,-13.6409 1369.779,-14.8808 1378.7776,-20.4731 1380.301,-13.6409"/>
</g>
<!-- Node26&#45;&gt;Node22 -->
<g id="edge42" class="edge">
<title>Node26&#45;&gt;Node22</title>
<path fill="none" stroke="#191970" d="M1782.1515,-117.8906C1789.4442,-108.7376 1800.596,-94.7409 1809.4805,-83.59"/>
<polygon fill="#191970" stroke="#191970" points="1812.237,-85.747 1815.731,-75.7449 1806.7622,-81.3849 1812.237,-85.747"/>
</g>
<!-- Node26&#45;&gt;Node23 -->
<g id="edge44" class="edge">
<title>Node26&#45;&gt;Node23</title>
<path fill="none" stroke="#191970" d="M1706.1727,-117.9892C1659.9495,-110.1374 1598.1461,-96.8403 1546.4952,-76 1530.591,-69.5829 1529.6844,-61.6599 1513.4952,-56 1459.5662,-37.1458 1300.8427,-21.8134 1213.9647,-14.5509"/>
<polygon fill="#191970" stroke="#191970" points="1213.9923,-11.0413 1203.7379,-13.7055 1213.4155,-18.0175 1213.9923,-11.0413"/>
</g>
<!-- Node27 -->
<g id="node28" class="node">
<title>Node27</title>
<polygon fill="#ffffff" stroke="#bfbfbf" points="2986.4952,-56.5 2986.4952,-75.5 3114.4952,-75.5 3114.4952,-56.5 2986.4952,-56.5"/>
<text text-anchor="middle" x="3050.4952" y="-63.5" font-family="Helvetica,sans-Serif" font-size="10.00" fill="#000000">AMReX_PhysBCFunct.H</text>
</g>
<!-- Node26&#45;&gt;Node27 -->
<g id="edge45" class="edge">
<title>Node26&#45;&gt;Node27</title>
<path fill="none" stroke="#191970" d="M1853.7302,-119.101C1880.8958,-116.4758 1911.5003,-113.7988 1939.4952,-112 2396.782,-82.6172 2515.8286,-114.8956 2976.196,-76.0208"/>
<polygon fill="#191970" stroke="#191970" points="2976.7751,-79.4843 2986.4422,-75.1487 2976.1813,-72.5095 2976.7751,-79.4843"/>
</g>
<!-- Node29&#45;&gt;Node3 -->
<g id="edge53" class="edge">
<title>Node29&#45;&gt;Node3</title>
<path fill="none" stroke="#191970" d="M2532.73,-179.4639C2507.902,-168.0702 2474.044,-152.5327 2449.8324,-141.4219"/>
<polygon fill="#191970" stroke="#191970" points="2450.9717,-138.0938 2440.4232,-137.1039 2448.0521,-144.4559 2450.9717,-138.0938"/>
</g>
<!-- Node29&#45;&gt;Node4 -->
<g id="edge52" class="edge">
<title>Node29&#45;&gt;Node4</title>
<path fill="none" stroke="#191970" d="M2557.6116,-179.3775C2552.4519,-169.2205 2545.7229,-155.4649 2540.4952,-143 2524.6196,-105.1463 2542.2232,-80.7753 2509.4952,-56 2462.1692,-20.1738 2035.6915,-24.3668 1976.4952,-20 1967.4866,-19.3354 1958.1144,-18.6236 1948.7333,-17.8973"/>
<polygon fill="#191970" stroke="#191970" points="1948.8088,-14.3927 1938.567,-17.105 1948.2648,-21.3715 1948.8088,-14.3927"/>
</g>
<!-- Node29&#45;&gt;Node5 -->
<g id="edge55" class="edge">
<title>Node29&#45;&gt;Node5</title>
<path fill="none" stroke="#191970" d="M2641.6816,-190.6479C2832.7529,-179.6382 3311.2427,-143.0501 3227.4952,-56 3207.8274,-35.5566 2346.0551,-16.32 2102.1852,-11.2781"/>
<polygon fill="#191970" stroke="#191970" points="2102.1334,-7.7763 2092.0634,-11.0696 2101.9892,-14.7749 2102.1334,-7.7763"/>
</g>
<!-- Node29&#45;&gt;Node11 -->
<g id="edge51" class="edge">
<title>Node29&#45;&gt;Node11</title>
<path fill="none" stroke="#191970" d="M2618.2338,-179.4639C2660.1861,-167.503 2718.1561,-150.9754 2757.3657,-139.7965"/>
<polygon fill="#191970" stroke="#191970" points="2758.4987,-143.113 2767.1558,-137.0053 2756.5794,-136.3813 2758.4987,-143.113"/>
</g>
<!-- Node29&#45;&gt;Node12 -->
<g id="edge56" class="edge">
<title>Node29&#45;&gt;Node12</title>
<path fill="none" stroke="#191970" d="M2632.8022,-179.4702C2651.7646,-171.7979 2670.2654,-160.2725 2681.4952,-143 2694.4779,-123.0315 2676.0367,-98.5382 2659.8807,-82.6153"/>
<polygon fill="#191970" stroke="#191970" points="2661.9862,-79.7937 2652.2808,-75.5445 2657.218,-84.9186 2661.9862,-79.7937"/>
</g>
<!-- Node29&#45;&gt;Node17 -->
<g id="edge50" class="edge">
<title>Node29&#45;&gt;Node17</title>
<path fill="none" stroke="#191970" d="M2498.6182,-179.4639C2444.5156,-167.2999 2369.4053,-150.4127 2319.6743,-139.2315"/>
<polygon fill="#191970" stroke="#191970" points="2320.2967,-135.7842 2309.7725,-137.0053 2318.7612,-142.6137 2320.2967,-135.7842"/>
</g>
<!-- Node29&#45;&gt;Node27 -->
<g id="edge57" class="edge">
<title>Node29&#45;&gt;Node27</title>
<path fill="none" stroke="#191970" d="M2641.8003,-187.8077C2706.6158,-180.7702 2801.5754,-167.2445 2881.4952,-143 2934.2888,-126.9845 2992.0097,-97.9784 3024.4853,-80.5024"/>
<polygon fill="#191970" stroke="#191970" points="3026.2239,-83.5411 3033.3356,-75.6877 3022.8787,-77.3921 3026.2239,-83.5411"/>
</g>
<!-- Node29&#45;&gt;Node28 -->
<g id="edge54" class="edge">
<title>Node29&#45;&gt;Node28</title>
<path fill="none" stroke="#191970" d="M2489.3999,-189.8481C2391.174,-183.112 2215.2014,-168.5612 2066.4952,-143 2060.5765,-141.9826 2054.392,-140.7301 2048.2999,-139.3818"/>
<polygon fill="#191970" stroke="#191970" points="2048.7294,-135.8889 2038.198,-137.0469 2047.1529,-142.7091 2048.7294,-135.8889"/>
</g>
<!-- Node30 -->
<g id="node31" class="node">
<title>Node30</title>
<polygon fill="#ffffff" stroke="#bfbfbf" points="2548.9952,-118 2548.9952,-137 2671.9952,-137 2671.9952,-118 2548.9952,-118"/>
<text text-anchor="middle" x="2610.4952" y="-125" font-family="Helvetica,sans-Serif" font-size="10.00" fill="#000000">AMReX_FillPatchUtil.H</text>
</g>
<!-- Node29&#45;&gt;Node30 -->
<g id="edge58" class="edge">
<title>Node29&#45;&gt;Node30</title>
<path fill="none" stroke="#191970" d="M2575.7064,-179.2967C2582.4454,-169.2631 2591.3058,-156.0709 2598.3981,-145.5113"/>
<polygon fill="#191970" stroke="#191970" points="2601.4076,-147.3078 2604.0777,-137.055 2595.5966,-143.4049 2601.4076,-147.3078"/>
</g>
<!-- Node31&#45;&gt;Node4 -->
<g id="edge60" class="edge">
<title>Node31&#45;&gt;Node4</title>
<path fill="none" stroke="#191970" d="M3182.5746,-184.7287C3206.9525,-159.9691 3264.4547,-94.0384 3227.4952,-56 3203.2692,-31.0668 2011.2084,-21.8868 1976.4952,-20 1967.4754,-19.5097 1958.0957,-18.9157 1948.7098,-18.2644"/>
<polygon fill="#191970" stroke="#191970" points="1948.7635,-14.7594 1938.5393,-17.5374 1948.2643,-21.7416 1948.7635,-14.7594"/>
</g>
<!-- Node31&#45;&gt;Node17 -->
<g id="edge61" class="edge">
<title>Node31&#45;&gt;Node17</title>
<path fill="none" stroke="#191970" d="M3094.7755,-193.6675C2946.8491,-191.2065 2614.9039,-181.4743 2338.4952,-143 2331.1098,-141.972 2323.3502,-140.5925 2315.7829,-139.0786"/>
<polygon fill="#191970" stroke="#191970" points="2316.4982,-135.6526 2305.9932,-137.0293 2315.0639,-142.5041 2316.4982,-135.6526"/>
</g>
<!-- Node31&#45;&gt;Node21 -->
<g id="edge62" class="edge">
<title>Node31&#45;&gt;Node21</title>
<path fill="none" stroke="#191970" d="M3175.9684,-184.7863C3179.4303,-174.5493 3184.509,-157.878 3186.4952,-143 3188.3184,-129.3434 3188.1085,-125.683 3186.4952,-112 3185.4523,-103.1546 3183.3184,-93.5467 3181.2052,-85.4104"/>
<polygon fill="#191970" stroke="#191970" points="3184.5724,-84.4548 3178.5327,-75.7501 3177.8258,-86.3213 3184.5724,-84.4548"/>
</g>
<!-- Node31&#45;&gt;Node27 -->
<g id="edge65" class="edge">
<title>Node31&#45;&gt;Node27</title>
<path fill="none" stroke="#191970" d="M3163.3254,-184.8416C3142.7474,-163.1672 3092.6667,-110.4184 3066.7036,-83.0719"/>
<polygon fill="#191970" stroke="#191970" points="3069.195,-80.6127 3059.7715,-75.7705 3064.1185,-85.4325 3069.195,-80.6127"/>
</g>
<!-- Node32 -->
<g id="node33" class="node">
<title>Node32</title>
<polygon fill="#ffffff" stroke="#bfbfbf" points="3312.4952,-118 3312.4952,-137 3428.4952,-137 3428.4952,-118 3312.4952,-118"/>
<text text-anchor="middle" x="3370.4952" y="-125" font-family="Helvetica,sans-Serif" font-size="10.00" fill="#000000">AMReX_FArrayBox.H</text>
</g>
<!-- Node31&#45;&gt;Node32 -->
<g id="edge63" class="edge">
<title>Node31&#45;&gt;Node32</title>
<path fill="none" stroke="#191970" d="M3200.8638,-184.9005C3235.4159,-173.2086 3293.9189,-153.4122 3332.38,-140.3976"/>
<polygon fill="#191970" stroke="#191970" points="3333.8288,-143.6024 3342.1793,-137.0817 3331.585,-136.9717 3333.8288,-143.6024"/>
</g>
<!-- Node33 -->
<g id="node34" class="node">
<title>Node33</title>
<polygon fill="#ffffff" stroke="#bfbfbf" points="2074.9952,-118 2074.9952,-137 2187.9952,-137 2187.9952,-118 2074.9952,-118"/>
<text text-anchor="middle" x="2131.4952" y="-125" font-family="Helvetica,sans-Serif" font-size="10.00" fill="#000000">AMReX_Geometry.H</text>
</g>
<!-- Node31&#45;&gt;Node33 -->
<g id="edge64" class="edge">
<title>Node31&#45;&gt;Node33</title>
<path fill="none" stroke="#191970" d="M3094.8617,-192.1845C2895.7072,-185.9581 2370.232,-167.6455 2197.4952,-143 2190.7625,-142.0394 2183.7067,-140.7228 2176.8167,-139.2598"/>
<polygon fill="#191970" stroke="#191970" points="2177.4211,-135.8085 2166.8976,-137.0361 2175.8898,-142.639 2177.4211,-135.8085"/>
</g>
<!-- Node34&#45;&gt;Node4 -->
<g id="edge74" class="edge">
<title>Node34&#45;&gt;Node4</title>
<path fill="none" stroke="#191970" d="M944.3065,-186.3672C986.9589,-178.9435 1045.2138,-165.5923 1092.4952,-143 1150.3223,-115.3687 1147.5025,-78.5461 1207.4952,-56 1257.2689,-37.2943 1587.0622,-21.0464 1754.4258,-13.8895"/>
<polygon fill="#191970" stroke="#191970" points="1754.6333,-17.3839 1764.4756,-13.4623 1754.336,-10.3902 1754.6333,-17.3839"/>
</g>
<!-- Node34&#45;&gt;Node16 -->
<g id="edge67" class="edge">
<title>Node34&#45;&gt;Node16</title>
<path fill="none" stroke="#191970" d="M826.5869,-182.1814C778.4204,-169.3426 722.2297,-146.2648 748.4952,-112 755.6979,-102.6037 816.148,-87.8598 863.1565,-77.6062"/>
<polygon fill="#191970" stroke="#191970" points="863.9233,-81.0213 872.9595,-75.4899 862.4461,-74.179 863.9233,-81.0213"/>
</g>
<!-- Node35 -->
<g id="node36" class="node">
<title>Node35</title>
<g id="a_node36"><a xlink:href="_factory_8_h.html" target="_top" xlink:title="amr&#45;wind/core/Factory.H">
<polygon fill="#ffffff" stroke="#000000" points="757.4952,-118 757.4952,-137 891.4952,-137 891.4952,-118 757.4952,-118"/>
<text text-anchor="middle" x="824.4952" y="-125" font-family="Helvetica,sans-Serif" font-size="10.00" fill="#000000">amr&#45;wind/core/Factory.H</text>
</a>
</g>
</g>
<!-- Node34&#45;&gt;Node35 -->
<g id="edge68" class="edge">
<title>Node34&#45;&gt;Node35</title>
<path fill="none" stroke="#191970" d="M871.6534,-179.2967C862.2416,-168.9591 849.777,-155.2684 840.0263,-144.5588"/>
<polygon fill="#191970" stroke="#191970" points="842.5148,-142.0931 833.1945,-137.055 837.3387,-146.8057 842.5148,-142.0931"/>
</g>
<!-- Node35&#45;&gt;Node16 -->
<g id="edge70" class="edge">
<title>Node35&#45;&gt;Node16</title>
<path fill="none" stroke="#191970" d="M839.339,-117.8906C854.5371,-108.0519 878.3801,-92.6167 896.1159,-81.1351"/>
<polygon fill="#191970" stroke="#191970" points="898.2632,-83.9144 904.7557,-75.5419 894.4592,-78.0382 898.2632,-83.9144"/>
</g>
<!-- Node35&#45;&gt;Node18 -->
<g id="edge69" class="edge">
<title>Node35&#45;&gt;Node18</title>
<path fill="none" stroke="#191970" d="M854.0265,-117.8906C886.5767,-107.2989 939.0592,-90.2213 974.8573,-78.5727"/>
<polygon fill="#191970" stroke="#191970" points="976.0552,-81.8636 984.4814,-75.441 973.8891,-75.2071 976.0552,-81.8636"/>
</g>
<!-- Node36 -->
<g id="node37" class="node">
<title>Node36</title>
<polygon fill="#ffffff" stroke="#bfbfbf" points="794.4952,-56.5 794.4952,-75.5 854.4952,-75.5 854.4952,-56.5 794.4952,-56.5"/>
<text text-anchor="middle" x="824.4952" y="-63.5" font-family="Helvetica,sans-Serif" font-size="10.00" fill="#000000">iostream</text>
</g>
<!-- Node35&#45;&gt;Node36 -->
<g id="edge71" class="edge">
<title>Node35&#45;&gt;Node36</title>
<path fill="none" stroke="#191970" d="M824.4952,-117.8906C824.4952,-109.3657 824.4952,-96.6392 824.4952,-85.9235"/>
<polygon fill="#191970" stroke="#191970" points="827.9953,-85.7448 824.4952,-75.7449 820.9953,-85.7449 827.9953,-85.7448"/>
</g>
<!-- Node37 -->
<g id="node38" class="node">
<title>Node37</title>
<polygon fill="#ffffff" stroke="#bfbfbf" points="607.9952,-56.5 607.9952,-75.5 696.9952,-75.5 696.9952,-56.5 607.9952,-56.5"/>
<text text-anchor="middle" x="652.4952" y="-63.5" font-family="Helvetica,sans-Serif" font-size="10.00" fill="#000000">AMReX_Print.H</text>
</g>
<!-- Node35&#45;&gt;Node37 -->
<g id="edge72" class="edge">
<title>Node35&#45;&gt;Node37</title>
<path fill="none" stroke="#191970" d="M797.6202,-117.8906C768.3366,-107.42 721.3262,-90.6111 688.7815,-78.9745"/>
<polygon fill="#191970" stroke="#191970" points="689.7761,-75.6131 679.1815,-75.5419 687.4193,-82.2045 689.7761,-75.6131"/>
</g>
<!-- Node38 -->
<g id="node39" class="node">
<title>Node38</title>
<polygon fill="#ffffff" stroke="#bfbfbf" points="714.9952,-56.5 714.9952,-75.5 775.9952,-75.5 775.9952,-56.5 714.9952,-56.5"/>
<text text-anchor="middle" x="745.4952" y="-63.5" font-family="Helvetica,sans-Serif" font-size="10.00" fill="#000000">AMReX.H</text>
</g>
<!-- Node35&#45;&gt;Node38 -->
<g id="edge73" class="edge">
<title>Node35&#45;&gt;Node38</title>
<path fill="none" stroke="#191970" d="M812.1515,-117.8906C799.745,-108.2324 780.4109,-93.1812 765.7539,-81.771"/>
<polygon fill="#191970" stroke="#191970" points="767.7932,-78.923 757.7523,-75.5419 763.4931,-84.4466 767.7932,-78.923"/>
</g>
<!-- Node39&#45;&gt;Node8 -->
<g id="edge76" class="edge">
<title>Node39&#45;&gt;Node8</title>
<path fill="none" stroke="#191970" d="M300.0824,-112.4954C335.8154,-92.4568 396.1783,-59.1006 407.4952,-56 580.1981,-8.6823 1033.7425,-30.6152 1212.4952,-20 1247.497,-17.9214 1287.5538,-14.8691 1314.8851,-12.684"/>
<polygon fill="#191970" stroke="#191970" points="1315.3687,-16.1565 1325.055,-11.864 1314.806,-9.1792 1315.3687,-16.1565"/>
</g>
<!-- Node39&#45;&gt;Node16 -->
<g id="edge77" class="edge">
<title>Node39&#45;&gt;Node16</title>
<path fill="none" stroke="#191970" d="M324.5667,-124.5887C425.4071,-118.5049 657.3596,-102.8484 862.7254,-75.9911"/>
<polygon fill="#191970" stroke="#191970" points="863.3371,-79.4408 872.7932,-74.6626 862.4212,-72.501 863.3371,-79.4408"/>
</g>
<!-- Node39&#45;&gt;Node23 -->
<g id="edge79" class="edge">
<title>Node39&#45;&gt;Node23</title>
<path fill="none" stroke="#191970" d="M222.4857,-125.2274C152.3231,-120.9097 31.6111,-108.7996 4.4952,-76 -1.1685,-69.1491 -1.6634,-62.4097 4.4952,-56 23.6105,-36.1055 865.4746,-16.3198 1097.0684,-11.2458"/>
<polygon fill="#191970" stroke="#191970" points="1097.3879,-14.7398 1107.3091,-11.0223 1097.2351,-7.7414 1097.3879,-14.7398"/>
</g>
<!-- Node40 -->
<g id="node41" class="node">
<title>Node40</title>
<polygon fill="#ffffff" stroke="#bfbfbf" points="13.4952,-56.5 13.4952,-75.5 45.4952,-75.5 45.4952,-56.5 13.4952,-56.5"/>
<text text-anchor="middle" x="29.4952" y="-63.5" font-family="Helvetica,sans-Serif" font-size="10.00" fill="#000000">set</text>
</g>
<!-- Node39&#45;&gt;Node40 -->
<g id="edge78" class="edge">
<title>Node39&#45;&gt;Node40</title>
<path fill="none" stroke="#191970" d="M222.4623,-117.7548C179.8866,-109.1181 117.5612,-95.3016 55.1195,-75.8537"/>
<polygon fill="#191970" stroke="#191970" points="56.0949,-72.4914 45.505,-72.8141 53.9847,-79.1658 56.0949,-72.4914"/>
</g>
<!-- Node41 -->
<g id="node42" class="node">
<title>Node41</title>
<polygon fill="#ffffff" stroke="#bfbfbf" points="63.4952,-56.5 63.4952,-75.5 173.4952,-75.5 173.4952,-56.5 63.4952,-56.5"/>
<text text-anchor="middle" x="118.4952" y="-63.5" font-family="Helvetica,sans-Serif" font-size="10.00" fill="#000000">AMReX_BoxArray.H</text>
</g>
<!-- Node39&#45;&gt;Node41 -->
<g id="edge80" class="edge">
<title>Node39&#45;&gt;Node41</title>
<path fill="none" stroke="#191970" d="M235.578,-112.4554C210.0561,-102.329 176.7056,-89.0964 152.1297,-79.3453"/>
<polygon fill="#191970" stroke="#191970" points="153.1006,-75.9651 142.5147,-75.5303 150.519,-82.4717 153.1006,-75.9651"/>
</g>
<!-- Node42 -->
<g id="node43" class="node">
<title>Node42</title>
<polygon fill="#ffffff" stroke="#bfbfbf" points="191.4952,-56.5 191.4952,-75.5 355.4952,-75.5 355.4952,-56.5 191.4952,-56.5"/>
<text text-anchor="middle" x="273.4952" y="-63.5" font-family="Helvetica,sans-Serif" font-size="10.00" fill="#000000">AMReX_DistributionMapping.H</text>
</g>
<!-- Node39&#45;&gt;Node42 -->
<g id="edge81" class="edge">
<title>Node39&#45;&gt;Node42</title>
<path fill="none" stroke="#191970" d="M273.4952,-112.2977C273.4952,-104.3834 273.4952,-94.6043 273.4952,-86.0759"/>
<polygon fill="#191970" stroke="#191970" points="276.9953,-85.8469 273.4952,-75.8469 269.9953,-85.847 276.9953,-85.8469"/>
</g>
<!-- Node43&#45;&gt;Node11 -->
<g id="edge84" class="edge">
<title>Node43&#45;&gt;Node11</title>
<path fill="none" stroke="#191970" d="M1631.5265,-257.7022C1682.5915,-254.3709 1759.5238,-249.5223 1826.4952,-246 2009.528,-236.3735 2474.0097,-259.4623 2650.4952,-210 2700.334,-196.032 2751.7815,-162.8887 2779.5844,-143.1235"/>
<polygon fill="#191970" stroke="#191970" points="2781.6977,-145.9146 2787.7485,-137.2175 2777.5948,-140.243 2781.6977,-145.9146"/>
</g>
<!-- Node43&#45;&gt;Node15 -->
<g id="edge85" class="edge">
<title>Node43&#45;&gt;Node15</title>
<path fill="none" stroke="#191970" d="M1587.8199,-251.9005C1603.013,-240.9549 1628.0655,-222.9064 1646.0237,-209.9688"/>
<polygon fill="#191970" stroke="#191970" points="1648.1275,-212.7668 1654.1953,-204.0817 1644.0357,-207.0872 1648.1275,-212.7668"/>
</g>
<!-- Node43&#45;&gt;Node28 -->
<g id="edge83" class="edge">
<title>Node43&#45;&gt;Node28</title>
<path fill="none" stroke="#191970" d="M1622.5331,-251.9853C1658.6357,-243.7507 1708.6806,-229.9893 1749.4952,-210 1770.6537,-199.6375 1771.1055,-188.8762 1792.4952,-179 1806.7621,-172.4126 1892.2097,-152.4094 1949.6175,-139.3589"/>
<polygon fill="#191970" stroke="#191970" points="1950.6548,-142.7126 1959.6333,-137.0878 1949.1068,-135.8859 1950.6548,-142.7126"/>
</g>
<!-- Node44 -->
<g id="node45" class="node">
<title>Node44</title>
<g id="a_node45"><a xlink:href="_p_d_e_base_8_h.html" target="_top" xlink:title="amr&#45;wind/equation_systems\l/PDEBase.H">
<polygon fill="#ffffff" stroke="#000000" points="1022.9952,-179.5 1022.9952,-209.5 1177.9952,-209.5 1177.9952,-179.5 1022.9952,-179.5"/>
<text text-anchor="start" x="1030.9952" y="-197.5" font-family="Helvetica,sans-Serif" font-size="10.00" fill="#000000">amr&#45;wind/equation_systems</text>
<text text-anchor="middle" x="1100.4952" y="-186.5" font-family="Helvetica,sans-Serif" font-size="10.00" fill="#000000">/PDEBase.H</text>
</a>
</g>
</g>
<!-- Node43&#45;&gt;Node44 -->
<g id="edge86" class="edge">
<title>Node43&#45;&gt;Node44</title>
<path fill="none" stroke="#191970" d="M1517.1806,-254.7355C1443.3651,-245.8357 1310.8667,-229.2273 1188.2246,-210.2349"/>
<polygon fill="#191970" stroke="#191970" points="1188.7032,-206.7674 1178.2837,-208.6868 1187.626,-213.684 1188.7032,-206.7674"/>
</g>
<!-- Node46 -->
<g id="node47" class="node">
<title>Node46</title>
<g id="a_node47"><a xlink:href="_physics_8_h.html" target="_top" xlink:title="amr&#45;wind/core/Physics.H">
<polygon fill="#ffffff" stroke="#000000" points="1195.9952,-185 1195.9952,-204 1332.9952,-204 1332.9952,-185 1195.9952,-185"/>
<text text-anchor="middle" x="1264.4952" y="-192" font-family="Helvetica,sans-Serif" font-size="10.00" fill="#000000">amr&#45;wind/core/Physics.H</text>
</a>
</g>
</g>
<!-- Node43&#45;&gt;Node46 -->
<g id="edge97" class="edge">
<title>Node43&#45;&gt;Node46</title>
<path fill="none" stroke="#191970" d="M1530.409,-251.9717C1474.7868,-239.9501 1379.1478,-219.2797 1318.9993,-206.2799"/>
<polygon fill="#191970" stroke="#191970" points="1319.445,-202.7955 1308.9313,-204.1039 1317.9662,-209.6375 1319.445,-202.7955"/>
</g>
<!-- Node44&#45;&gt;Node1 -->
<g id="edge96" class="edge">
<title>Node44&#45;&gt;Node1</title>
<path fill="none" stroke="#191970" d="M1022.8328,-187.1776C951.0002,-179.4548 841.5986,-165.2737 748.4952,-143 677.1965,-125.9428 596.5102,-96.2846 552.4896,-79.1827"/>
<polygon fill="#191970" stroke="#191970" points="553.7387,-75.9131 543.1508,-75.5288 551.1881,-82.4319 553.7387,-75.9131"/>
</g>
<!-- Node44&#45;&gt;Node4 -->
<g id="edge95" class="edge">
<title>Node44&#45;&gt;Node4</title>
<path fill="none" stroke="#191970" d="M1117.0167,-179.3402C1128.0208,-169.1674 1142.7464,-155.4083 1155.4952,-143 1194.4572,-105.0788 1192.1485,-78.8242 1241.4952,-56 1286.7105,-35.0867 1593.3311,-20.1188 1753.8837,-13.6155"/>
<polygon fill="#191970" stroke="#191970" points="1754.3921,-17.098 1764.2435,-13.1994 1754.1111,-10.1036 1754.3921,-17.098"/>
</g>
<!-- Node44&#45;&gt;Node8 -->
<g id="edge87" class="edge">
<title>Node44&#45;&gt;Node8</title>
<path fill="none" stroke="#191970" d="M1108.3985,-179.1841C1123.8207,-150.7721 1160.6462,-89.7317 1208.4952,-56 1241.0179,-33.0728 1285.7415,-20.9847 1315.5833,-15.0527"/>
<polygon fill="#191970" stroke="#191970" points="1316.2873,-18.4818 1325.4737,-13.2035 1315.0007,-11.6011 1316.2873,-18.4818"/>
</g>
<!-- Node44&#45;&gt;Node9 -->
<g id="edge94" class="edge">
<title>Node44&#45;&gt;Node9</title>
<path fill="none" stroke="#191970" d="M1143.8082,-179.4639C1172.3894,-169.5419 1210.023,-156.4774 1240.4047,-145.9304"/>
<polygon fill="#191970" stroke="#191970" points="1241.6943,-149.1877 1249.9934,-142.6017 1239.3986,-142.5748 1241.6943,-149.1877"/>
</g>
<!-- Node44&#45;&gt;Node35 -->
<g id="edge88" class="edge">
<title>Node44&#45;&gt;Node35</title>
<path fill="none" stroke="#191970" d="M1038.5554,-179.4639C988.6562,-167.3507 919.4623,-150.5536 873.4004,-139.3719"/>
<polygon fill="#191970" stroke="#191970" points="874.1948,-135.9632 863.6513,-137.0053 872.5434,-142.7656 874.1948,-135.9632"/>
</g>
<!-- Node45 -->
<g id="node46" class="node">
<title>Node45</title>
<g id="a_node46"><a xlink:href="_coll_mgr_8_h.html" target="_top" xlink:title="amr&#45;wind/core/CollMgr.H">
<polygon fill="#ffffff" stroke="#000000" points="947.4952,-118 947.4952,-137 1083.4952,-137 1083.4952,-118 947.4952,-118"/>
<text text-anchor="middle" x="1015.4952" y="-125" font-family="Helvetica,sans-Serif" font-size="10.00" fill="#000000">amr&#45;wind/core/CollMgr.H</text>
</a>
</g>
</g>
<!-- Node44&#45;&gt;Node45 -->
<g id="edge89" class="edge">
<title>Node44&#45;&gt;Node45</title>
<path fill="none" stroke="#191970" d="M1081.2074,-179.2967C1067.5783,-168.5537 1049.3551,-154.1895 1035.5564,-143.3129"/>
<polygon fill="#191970" stroke="#191970" points="1037.6375,-140.4967 1027.6172,-137.055 1033.3041,-145.9942 1037.6375,-140.4967"/>
</g>
<!-- Node45&#45;&gt;Node8 -->
<g id="edge90" class="edge">
<title>Node45&#45;&gt;Node8</title>
<path fill="none" stroke="#191970" d="M1029.7967,-117.9161C1056.0699,-100.4535 1111.2697,-64.4695 1132.4952,-56 1194.5933,-31.2215 1272.365,-18.8159 1315.292,-13.4517"/>
<polygon fill="#191970" stroke="#191970" points="1315.9122,-16.9025 1325.4242,-12.2364 1315.0785,-9.9523 1315.9122,-16.9025"/>
</g>
<!-- Node45&#45;&gt;Node16 -->
<g id="edge92" class="edge">
<title>Node45&#45;&gt;Node16</title>
<path fill="none" stroke="#191970" d="M1000.4952,-117.8906C985.1372,-108.0519 961.0432,-92.6167 943.1207,-81.1351"/>
<polygon fill="#191970" stroke="#191970" points="944.6983,-77.9891 934.3899,-75.5419 940.9222,-83.8833 944.6983,-77.9891"/>
</g>
<!-- Node45&#45;&gt;Node18 -->
<g id="edge91" class="edge">
<title>Node45&#45;&gt;Node18</title>
<path fill="none" stroke="#191970" d="M1015.1827,-117.8906C1014.9055,-109.3657 1014.4916,-96.6392 1014.1432,-85.9235"/>
<polygon fill="#191970" stroke="#191970" points="1017.6354,-85.6258 1013.8121,-75.7449 1010.6391,-85.8534 1017.6354,-85.6258"/>
</g>
<!-- Node45&#45;&gt;Node23 -->
<g id="edge93" class="edge">
<title>Node45&#45;&gt;Node23</title>
<path fill="none" stroke="#191970" d="M1025.4639,-117.9466C1040.2019,-103.9462 1068.833,-77.2172 1094.4952,-56 1107.203,-45.4934 1121.9531,-34.3437 1133.7655,-25.6531"/>
<polygon fill="#191970" stroke="#191970" points="1136.1297,-28.2607 1142.1434,-19.538 1132.0027,-22.6066 1136.1297,-28.2607"/>
</g>
<!-- Node46&#45;&gt;Node5 -->
<g id="edge100" class="edge">
<title>Node46&#45;&gt;Node5</title>
<path fill="none" stroke="#191970" d="M1333.1923,-191.1217C1480.0669,-183.5337 1815.1602,-164.1404 1862.4952,-143 1880.8691,-134.794 1879.5345,-124.2554 1895.4952,-112 1919.5592,-93.5225 1928.5903,-93.3274 1953.4952,-76 1976.6114,-59.9172 2001.9729,-39.8934 2018.9224,-26.1445"/>
<polygon fill="#191970" stroke="#191970" points="2021.4295,-28.616 2026.9626,-19.5808 2017.0027,-23.1934 2021.4295,-28.616"/>
</g>
<!-- Node46&#45;&gt;Node33 -->
<g id="edge101" class="edge">
<title>Node46&#45;&gt;Node33</title>
<path fill="none" stroke="#191970" d="M1333.2186,-190.7589C1514.2147,-180.8107 1995.0502,-153.7327 2066.4952,-143 2072.8947,-142.0387 2079.5914,-140.7603 2086.152,-139.3488"/>
<polygon fill="#191970" stroke="#191970" points="2087.3105,-142.675 2096.2873,-137.0475 2085.7605,-135.8487 2087.3105,-142.675"/>
</g>
<!-- Node46&#45;&gt;Node35 -->
<g id="edge98" class="edge">
<title>Node46&#45;&gt;Node35</title>
<path fill="none" stroke="#191970" d="M1219.2212,-184.956C1208.5164,-182.8513 1197.1236,-180.7347 1186.4952,-179 1062.2299,-158.7177 1029.8316,-162.8416 905.4952,-143 897.741,-141.7626 889.5916,-140.344 881.5723,-138.8786"/>
<polygon fill="#191970" stroke="#191970" points="881.9953,-135.3973 871.5236,-137.0075 880.7139,-142.279 881.9953,-135.3973"/>
</g>
<!-- Node46&#45;&gt;Node45 -->
<g id="edge99" class="edge">
<title>Node46&#45;&gt;Node45</title>
<path fill="none" stroke="#191970" d="M1229.084,-184.9717C1184.9607,-173.0991 1109.4868,-152.7909 1061.0841,-139.7669"/>
<polygon fill="#191970" stroke="#191970" points="1061.7534,-136.3225 1051.1874,-137.1039 1059.9345,-143.0821 1061.7534,-136.3225"/>
</g>
<!-- Node48&#45;&gt;Node8 -->
<g id="edge104" class="edge">
<title>Node48&#45;&gt;Node8</title>
<path fill="none" stroke="#191970" d="M421.4952,-313.2271C421.4952,-288.3518 421.4952,-237.5382 421.4952,-194.5 421.4952,-194.5 421.4952,-194.5 421.4952,-127.5 421.4952,-94.6194 414.904,-76.6452 440.4952,-56 473.9122,-29.0415 1169.6377,-22.5861 1212.4952,-20 1247.495,-17.8881 1287.5521,-14.8413 1314.8841,-12.6666"/>
<polygon fill="#191970" stroke="#191970" points="1315.3661,-16.1393 1325.0542,-11.8509 1314.8064,-9.1617 1315.3661,-16.1393"/>
</g>
</g>
</svg>
