<?xml version="1.0" encoding="UTF-8" standalone="no"?>
<!DOCTYPE svg PUBLIC "-//W3C//DTD SVG 1.1//EN"
 "http://www.w3.org/Graphics/SVG/1.1/DTD/svg11.dtd">
<!-- Generated by graphviz version 2.40.1 (20161225.0304)
 -->
<!-- Title: ConvectingTaylorVortex.H Pages: 1 -->
<svg width="2975pt" height="330pt"
 viewBox="0.00 0.00 2974.50 330.00" xmlns="http://www.w3.org/2000/svg" xmlns:xlink="http://www.w3.org/1999/xlink">
<g id="graph0" class="graph" transform="scale(1 1) rotate(0) translate(4 326)">
<title>ConvectingTaylorVortex.H</title>
<polygon fill="#ffffff" stroke="transparent" points="-4,4 -4,-326 2970.5,-326 2970.5,4 -4,4"/>
<!-- Node0 -->
<g id="node1" class="node">
<title>Node0</title>
<polygon fill="#bfbfbf" stroke="#000000" points="944,-302.5 944,-321.5 1087,-321.5 1087,-302.5 944,-302.5"/>
<text text-anchor="middle" x="1015.5" y="-309.5" font-family="Helvetica,sans-Serif" font-size="10.00" fill="#000000">ConvectingTaylorVortex.H</text>
</g>
<!-- Node1 -->
<g id="node2" class="node">
<title>Node1</title>
<g id="a_node2"><a xlink:href="_physics_8_h.html" target="_top" xlink:title="amr&#45;wind/core/Physics.H">
<polygon fill="#ffffff" stroke="#000000" points="444,-185 444,-204 581,-204 581,-185 444,-185"/>
<text text-anchor="middle" x="512.5" y="-192" font-family="Helvetica,sans-Serif" font-size="10.00" fill="#000000">amr&#45;wind/core/Physics.H</text>
</a>
</g>
</g>
<!-- Node0&#45;&gt;Node1 -->
<g id="edge1" class="edge">
<title>Node0&#45;&gt;Node1</title>
<path fill="none" stroke="#191970" d="M974.7635,-302.484C883.526,-281.1711 662.9662,-229.6487 563.1156,-206.3237"/>
<polygon fill="#191970" stroke="#191970" points="563.7992,-202.8893 553.2652,-204.0227 562.2068,-209.7057 563.7992,-202.8893"/>
</g>
<!-- Node13 -->
<g id="node14" class="node">
<title>Node13</title>
<g id="a_node14"><a xlink:href="_field_8_h.html" target="_top" xlink:title="amr&#45;wind/core/Field.H">
<polygon fill="#ffffff" stroke="#000000" points="954.5,-118 954.5,-137 1076.5,-137 1076.5,-118 954.5,-118"/>
<text text-anchor="middle" x="1015.5" y="-125" font-family="Helvetica,sans-Serif" font-size="10.00" fill="#000000">amr&#45;wind/core/Field.H</text>
</a>
</g>
</g>
<!-- Node0&#45;&gt;Node13 -->
<g id="edge15" class="edge">
<title>Node0&#45;&gt;Node13</title>
<path fill="none" stroke="#191970" d="M1015.5,-302.3402C1015.5,-273.3223 1015.5,-186.5088 1015.5,-147.2113"/>
<polygon fill="#191970" stroke="#191970" points="1019.0001,-147.0641 1015.5,-137.0641 1012.0001,-147.0642 1019.0001,-147.0641"/>
</g>
<!-- Node20 -->
<g id="node21" class="node">
<title>Node20</title>
<g id="a_node21"><a xlink:href="_c_f_d_sim_8_h.html" target="_top" xlink:title="amr&#45;wind/CFDSim.H">
<polygon fill="#ffffff" stroke="#000000" points="1768.5,-246.5 1768.5,-265.5 1882.5,-265.5 1882.5,-246.5 1768.5,-246.5"/>
<text text-anchor="middle" x="1825.5" y="-253.5" font-family="Helvetica,sans-Serif" font-size="10.00" fill="#000000">amr&#45;wind/CFDSim.H</text>
</a>
</g>
</g>
<!-- Node0&#45;&gt;Node20 -->
<g id="edge30" class="edge">
<title>Node0&#45;&gt;Node20</title>
<path fill="none" stroke="#191970" d="M1087.0268,-307.0549C1242.0729,-296.3357 1607.2971,-271.0856 1758.3229,-260.6443"/>
<polygon fill="#191970" stroke="#191970" points="1758.6541,-264.1299 1768.3888,-259.9484 1758.1712,-257.1466 1758.6541,-264.1299"/>
</g>
<!-- Node2 -->
<g id="node3" class="node">
<title>Node2</title>
<g id="a_node3"><a xlink:href="_factory_8_h.html" target="_top" xlink:title="amr&#45;wind/core/Factory.H">
<polygon fill="#ffffff" stroke="#000000" points="301.5,-118 301.5,-137 435.5,-137 435.5,-118 301.5,-118"/>
<text text-anchor="middle" x="368.5" y="-125" font-family="Helvetica,sans-Serif" font-size="10.00" fill="#000000">amr&#45;wind/core/Factory.H</text>
</a>
</g>
</g>
<!-- Node1&#45;&gt;Node2 -->
<g id="edge2" class="edge">
<title>Node1&#45;&gt;Node2</title>
<path fill="none" stroke="#191970" d="M491.8683,-184.9005C467.3811,-173.5072 426.3532,-154.4178 398.3907,-141.4075"/>
<polygon fill="#191970" stroke="#191970" points="399.6366,-138.1269 389.0934,-137.0817 396.6836,-144.4736 399.6366,-138.1269"/>
</g>
<!-- Node8 -->
<g id="node9" class="node">
<title>Node8</title>
<g id="a_node9"><a xlink:href="_coll_mgr_8_h.html" target="_top" xlink:title="amr&#45;wind/core/CollMgr.H">
<polygon fill="#ffffff" stroke="#000000" points="588.5,-118 588.5,-137 724.5,-137 724.5,-118 588.5,-118"/>
<text text-anchor="middle" x="656.5" y="-125" font-family="Helvetica,sans-Serif" font-size="10.00" fill="#000000">amr&#45;wind/core/CollMgr.H</text>
</a>
</g>
</g>
<!-- Node1&#45;&gt;Node8 -->
<g id="edge8" class="edge">
<title>Node1&#45;&gt;Node8</title>
<path fill="none" stroke="#191970" d="M533.1317,-184.9005C557.6189,-173.5072 598.6468,-154.4178 626.6093,-141.4075"/>
<polygon fill="#191970" stroke="#191970" points="628.3164,-144.4736 635.9066,-137.0817 625.3634,-138.1269 628.3164,-144.4736"/>
</g>
<!-- Node11 -->
<g id="node12" class="node">
<title>Node11</title>
<polygon fill="#ffffff" stroke="#bfbfbf" points="873,-.5 873,-19.5 980,-19.5 980,-.5 873,-.5"/>
<text text-anchor="middle" x="926.5" y="-7.5" font-family="Helvetica,sans-Serif" font-size="10.00" fill="#000000">AMReX_MultiFab.H</text>
</g>
<!-- Node1&#45;&gt;Node11 -->
<g id="edge13" class="edge">
<title>Node1&#45;&gt;Node11</title>
<path fill="none" stroke="#191970" d="M443.738,-190.2681C318.4323,-180.2165 73.4923,-148.3895 160.5,-56 184.4395,-30.5797 683.0424,-15.9414 862.6923,-11.4763"/>
<polygon fill="#191970" stroke="#191970" points="862.8775,-14.9729 872.7883,-11.2278 862.7052,-7.975 862.8775,-14.9729"/>
</g>
<!-- Node12 -->
<g id="node13" class="node">
<title>Node12</title>
<polygon fill="#ffffff" stroke="#bfbfbf" points="0,-118 0,-137 113,-137 113,-118 0,-118"/>
<text text-anchor="middle" x="56.5" y="-125" font-family="Helvetica,sans-Serif" font-size="10.00" fill="#000000">AMReX_Geometry.H</text>
</g>
<!-- Node1&#45;&gt;Node12 -->
<g id="edge14" class="edge">
<title>Node1&#45;&gt;Node12</title>
<path fill="none" stroke="#191970" d="M443.736,-187.0243C366.5145,-178.2296 237.5876,-162.3461 127.5,-143 120.9044,-141.8409 113.9916,-140.4962 107.1767,-139.0926"/>
<polygon fill="#191970" stroke="#191970" points="107.818,-135.6508 97.3105,-137.0087 106.3714,-142.4998 107.818,-135.6508"/>
</g>
<!-- Node3 -->
<g id="node4" class="node">
<title>Node3</title>
<polygon fill="#ffffff" stroke="#bfbfbf" points="584.5,-56.5 584.5,-75.5 642.5,-75.5 642.5,-56.5 584.5,-56.5"/>
<text text-anchor="middle" x="613.5" y="-63.5" font-family="Helvetica,sans-Serif" font-size="10.00" fill="#000000">memory</text>
</g>
<!-- Node2&#45;&gt;Node3 -->
<g id="edge3" class="edge">
<title>Node2&#45;&gt;Node3</title>
<path fill="none" stroke="#191970" d="M406.8637,-117.9824C446.227,-108.2005 509.5101,-92.4295 574.1543,-76.0765"/>
<polygon fill="#191970" stroke="#191970" points="575.2823,-79.4014 584.1175,-73.5542 573.5643,-72.6155 575.2823,-79.4014"/>
</g>
<!-- Node4 -->
<g id="node5" class="node">
<title>Node4</title>
<polygon fill="#ffffff" stroke="#bfbfbf" points="473,-56.5 473,-75.5 566,-75.5 566,-56.5 473,-56.5"/>
<text text-anchor="middle" x="519.5" y="-63.5" font-family="Helvetica,sans-Serif" font-size="10.00" fill="#000000">unordered_map</text>
</g>
<!-- Node2&#45;&gt;Node4 -->
<g id="edge4" class="edge">
<title>Node2&#45;&gt;Node4</title>
<path fill="none" stroke="#191970" d="M392.0938,-117.8906C417.4696,-107.5554 458.0081,-91.0447 486.5293,-79.4284"/>
<polygon fill="#191970" stroke="#191970" points="488.1308,-82.5554 496.0719,-75.5419 485.4904,-76.0725 488.1308,-82.5554"/>
</g>
<!-- Node5 -->
<g id="node6" class="node">
<title>Node5</title>
<polygon fill="#ffffff" stroke="#bfbfbf" points="356.5,-56.5 356.5,-75.5 416.5,-75.5 416.5,-56.5 356.5,-56.5"/>
<text text-anchor="middle" x="386.5" y="-63.5" font-family="Helvetica,sans-Serif" font-size="10.00" fill="#000000">iostream</text>
</g>
<!-- Node2&#45;&gt;Node5 -->
<g id="edge5" class="edge">
<title>Node2&#45;&gt;Node5</title>
<path fill="none" stroke="#191970" d="M371.3125,-117.8906C373.8339,-109.276 377.611,-96.3708 380.7676,-85.5858"/>
<polygon fill="#191970" stroke="#191970" points="384.1979,-86.3254 383.6478,-75.7449 377.4797,-84.3591 384.1979,-86.3254"/>
</g>
<!-- Node6 -->
<g id="node7" class="node">
<title>Node6</title>
<polygon fill="#ffffff" stroke="#bfbfbf" points="170,-56.5 170,-75.5 259,-75.5 259,-56.5 170,-56.5"/>
<text text-anchor="middle" x="214.5" y="-63.5" font-family="Helvetica,sans-Serif" font-size="10.00" fill="#000000">AMReX_Print.H</text>
</g>
<!-- Node2&#45;&gt;Node6 -->
<g id="edge6" class="edge">
<title>Node2&#45;&gt;Node6</title>
<path fill="none" stroke="#191970" d="M344.4375,-117.8906C318.4444,-107.5103 276.8522,-90.9004 247.7453,-79.2766"/>
<polygon fill="#191970" stroke="#191970" points="248.9785,-76.0003 238.3935,-75.5419 246.3823,-82.5011 248.9785,-76.0003"/>
</g>
<!-- Node7 -->
<g id="node8" class="node">
<title>Node7</title>
<polygon fill="#ffffff" stroke="#bfbfbf" points="277,-56.5 277,-75.5 338,-75.5 338,-56.5 277,-56.5"/>
<text text-anchor="middle" x="307.5" y="-63.5" font-family="Helvetica,sans-Serif" font-size="10.00" fill="#000000">AMReX.H</text>
</g>
<!-- Node2&#45;&gt;Node7 -->
<g id="edge7" class="edge">
<title>Node2&#45;&gt;Node7</title>
<path fill="none" stroke="#191970" d="M358.9688,-117.8906C349.7121,-108.5581 335.461,-94.1902 324.2997,-82.9374"/>
<polygon fill="#191970" stroke="#191970" points="326.6928,-80.38 317.1656,-75.7449 321.7228,-85.3095 326.6928,-80.38"/>
</g>
<!-- Node8&#45;&gt;Node3 -->
<g id="edge10" class="edge">
<title>Node8&#45;&gt;Node3</title>
<path fill="none" stroke="#191970" d="M649.7813,-117.8906C643.507,-108.917 633.9777,-95.2879 626.2596,-84.2491"/>
<polygon fill="#191970" stroke="#191970" points="628.9121,-81.9348 620.3135,-75.7449 623.1753,-85.9459 628.9121,-81.9348"/>
</g>
<!-- Node8&#45;&gt;Node4 -->
<g id="edge11" class="edge">
<title>Node8&#45;&gt;Node4</title>
<path fill="none" stroke="#191970" d="M635.0938,-117.8906C612.2717,-107.6457 575.9321,-91.3326 550.0943,-79.7339"/>
<polygon fill="#191970" stroke="#191970" points="551.3123,-76.4443 540.7559,-75.5419 548.4455,-82.8303 551.3123,-76.4443"/>
</g>
<!-- Node9 -->
<g id="node10" class="node">
<title>Node9</title>
<polygon fill="#ffffff" stroke="#bfbfbf" points="1500.5,-.5 1500.5,-19.5 1544.5,-19.5 1544.5,-.5 1500.5,-.5"/>
<text text-anchor="middle" x="1522.5" y="-7.5" font-family="Helvetica,sans-Serif" font-size="10.00" fill="#000000">string</text>
</g>
<!-- Node8&#45;&gt;Node9 -->
<g id="edge9" class="edge">
<title>Node8&#45;&gt;Node9</title>
<path fill="none" stroke="#191970" d="M666.9393,-117.884C685.2641,-101.6841 725.1208,-69.4092 765.5,-56 800.3605,-44.4235 1349.8081,-18.0691 1490.0933,-11.503"/>
<polygon fill="#191970" stroke="#191970" points="1490.3822,-14.9934 1500.208,-11.0307 1490.0556,-8.0011 1490.3822,-14.9934"/>
</g>
<!-- Node10 -->
<g id="node11" class="node">
<title>Node10</title>
<polygon fill="#ffffff" stroke="#bfbfbf" points="1177.5,-.5 1177.5,-19.5 1273.5,-19.5 1273.5,-.5 1177.5,-.5"/>
<text text-anchor="middle" x="1225.5" y="-7.5" font-family="Helvetica,sans-Serif" font-size="10.00" fill="#000000">AMReX_Vector.H</text>
</g>
<!-- Node8&#45;&gt;Node10 -->
<g id="edge12" class="edge">
<title>Node8&#45;&gt;Node10</title>
<path fill="none" stroke="#191970" d="M658.5152,-117.8777C662.4046,-101.9686 672.5745,-70.5017 694.5,-56 733.199,-30.4042 1037.2003,-16.6795 1167.0366,-11.936"/>
<polygon fill="#191970" stroke="#191970" points="1167.3255,-15.4279 1177.1931,-11.5703 1167.0736,-8.4325 1167.3255,-15.4279"/>
</g>
<!-- Node13&#45;&gt;Node3 -->
<g id="edge17" class="edge">
<title>Node13&#45;&gt;Node3</title>
<path fill="none" stroke="#191970" d="M954.4449,-118.1595C870.8768,-105.3748 723.2376,-82.7882 652.8967,-72.0271"/>
<polygon fill="#191970" stroke="#191970" points="653.1084,-68.5189 642.6941,-70.4663 652.0498,-75.4383 653.1084,-68.5189"/>
</g>
<!-- Node13&#45;&gt;Node4 -->
<g id="edge18" class="edge">
<title>Node13&#45;&gt;Node4</title>
<path fill="none" stroke="#191970" d="M954.4918,-121.5318C871.3988,-113.1426 717.7756,-96.7086 576.3751,-76.0535"/>
<polygon fill="#191970" stroke="#191970" points="576.6195,-72.5519 566.2165,-74.5591 575.6006,-79.4774 576.6195,-72.5519"/>
</g>
<!-- Node13&#45;&gt;Node9 -->
<g id="edge16" class="edge">
<title>Node13&#45;&gt;Node9</title>
<path fill="none" stroke="#191970" d="M1028.5207,-117.9322C1050.8055,-102.1033 1098.2442,-70.7515 1143.5,-56 1207.7499,-35.0572 1410.1016,-18.2927 1489.7903,-12.3373"/>
<polygon fill="#191970" stroke="#191970" points="1490.4783,-15.7961 1500.1935,-11.5694 1489.963,-8.8151 1490.4783,-15.7961"/>
</g>
<!-- Node13&#45;&gt;Node11 -->
<g id="edge20" class="edge">
<title>Node13&#45;&gt;Node11</title>
<path fill="none" stroke="#191970" d="M954.3373,-123.5546C888.1421,-117.8595 788.8765,-104.6829 765.5,-76 734.9387,-38.5014 805.6083,-22.0908 862.8214,-15.0586"/>
<polygon fill="#191970" stroke="#191970" points="863.4229,-18.5125 872.9566,-13.8908 862.6216,-11.5586 863.4229,-18.5125"/>
</g>
<!-- Node14 -->
<g id="node15" class="node">
<title>Node14</title>
<polygon fill="#ffffff" stroke="#bfbfbf" points="774.5,-56.5 774.5,-75.5 838.5,-75.5 838.5,-56.5 774.5,-56.5"/>
<text text-anchor="middle" x="806.5" y="-63.5" font-family="Helvetica,sans-Serif" font-size="10.00" fill="#000000">algorithm</text>
</g>
<!-- Node13&#45;&gt;Node14 -->
<g id="edge19" class="edge">
<title>Node13&#45;&gt;Node14</title>
<path fill="none" stroke="#191970" d="M982.8438,-117.8906C946.5414,-107.2083 887.8192,-89.9289 848.2156,-78.2752"/>
<polygon fill="#191970" stroke="#191970" points="849.1654,-74.9063 838.5841,-75.441 847.1893,-81.6216 849.1654,-74.9063"/>
</g>
<!-- Node15 -->
<g id="node16" class="node">
<title>Node15</title>
<polygon fill="#ffffff" stroke="#bfbfbf" points="857,-56.5 857,-75.5 954,-75.5 954,-56.5 857,-56.5"/>
<text text-anchor="middle" x="905.5" y="-63.5" font-family="Helvetica,sans-Serif" font-size="10.00" fill="#000000">AMReX_BCRec.H</text>
</g>
<!-- Node13&#45;&gt;Node15 -->
<g id="edge21" class="edge">
<title>Node13&#45;&gt;Node15</title>
<path fill="none" stroke="#191970" d="M998.3125,-117.8906C980.3918,-107.8713 952.0905,-92.0483 931.4477,-80.5071"/>
<polygon fill="#191970" stroke="#191970" points="933.0033,-77.367 922.5668,-75.5419 929.5872,-83.4769 933.0033,-77.367"/>
</g>
<!-- Node16 -->
<g id="node17" class="node">
<title>Node16</title>
<polygon fill="#ffffff" stroke="#bfbfbf" points="972.5,-56.5 972.5,-75.5 1058.5,-75.5 1058.5,-56.5 972.5,-56.5"/>
<text text-anchor="middle" x="1015.5" y="-63.5" font-family="Helvetica,sans-Serif" font-size="10.00" fill="#000000">AMReX_Gpu.H</text>
</g>
<!-- Node13&#45;&gt;Node16 -->
<g id="edge22" class="edge">
<title>Node13&#45;&gt;Node16</title>
<path fill="none" stroke="#191970" d="M1015.5,-117.8906C1015.5,-109.3657 1015.5,-96.6392 1015.5,-85.9235"/>
<polygon fill="#191970" stroke="#191970" points="1019.0001,-85.7448 1015.5,-75.7449 1012.0001,-85.7449 1019.0001,-85.7448"/>
</g>
<!-- Node17 -->
<g id="node18" class="node">
<title>Node17</title>
<g id="a_node18"><a xlink:href="incflo__enums_8_h.html" target="_top" xlink:title="amr&#45;wind/incflo_enums.H">
<polygon fill="#ffffff" stroke="#000000" points="1354.5,-56.5 1354.5,-75.5 1494.5,-75.5 1494.5,-56.5 1354.5,-56.5"/>
<text text-anchor="middle" x="1424.5" y="-63.5" font-family="Helvetica,sans-Serif" font-size="10.00" fill="#000000">amr&#45;wind/incflo_enums.H</text>
</a>
</g>
</g>
<!-- Node13&#45;&gt;Node17 -->
<g id="edge23" class="edge">
<title>Node13&#45;&gt;Node17</title>
<path fill="none" stroke="#191970" d="M1076.7314,-118.2928C1149.99,-107.2772 1272.5435,-88.8492 1350.889,-77.0686"/>
<polygon fill="#191970" stroke="#191970" points="1351.7975,-80.4715 1361.1659,-75.5233 1350.7566,-73.5493 1351.7975,-80.4715"/>
</g>
<!-- Node18 -->
<g id="node19" class="node">
<title>Node18</title>
<g id="a_node19"><a xlink:href="_field_desc_types_8_h.html" target="_top" xlink:title="amr&#45;wind/core/FieldDescTypes.H">
<polygon fill="#ffffff" stroke="#000000" points="1897.5,-.5 1897.5,-19.5 2071.5,-19.5 2071.5,-.5 1897.5,-.5"/>
<text text-anchor="middle" x="1984.5" y="-7.5" font-family="Helvetica,sans-Serif" font-size="10.00" fill="#000000">amr&#45;wind/core/FieldDescTypes.H</text>
</a>
</g>
</g>
<!-- Node13&#45;&gt;Node18 -->
<g id="edge24" class="edge">
<title>Node13&#45;&gt;Node18</title>
<path fill="none" stroke="#191970" d="M1076.5975,-124.8095C1268.878,-116.2227 1851.1638,-89.2606 1889.5,-76 1897.6492,-73.1811 1937.6238,-44.4377 1963.0526,-25.824"/>
<polygon fill="#191970" stroke="#191970" points="1965.3749,-28.461 1971.3644,-19.7216 1961.2322,-22.8185 1965.3749,-28.461"/>
</g>
<!-- Node19 -->
<g id="node20" class="node">
<title>Node19</title>
<g id="a_node20"><a xlink:href="_view_field_8_h.html" target="_top" xlink:title="amr&#45;wind/core/ViewField.H">
<polygon fill="#ffffff" stroke="#000000" points="1152.5,-56.5 1152.5,-75.5 1298.5,-75.5 1298.5,-56.5 1152.5,-56.5"/>
<text text-anchor="middle" x="1225.5" y="-63.5" font-family="Helvetica,sans-Serif" font-size="10.00" fill="#000000">amr&#45;wind/core/ViewField.H</text>
</a>
</g>
</g>
<!-- Node13&#45;&gt;Node19 -->
<g id="edge25" class="edge">
<title>Node13&#45;&gt;Node19</title>
<path fill="none" stroke="#191970" d="M1048.3125,-117.8906C1084.6822,-107.2395 1143.4478,-90.0296 1183.2363,-78.3772"/>
<polygon fill="#191970" stroke="#191970" points="1184.3047,-81.7114 1192.9179,-75.5419 1182.3373,-74.9936 1184.3047,-81.7114"/>
</g>
<!-- Node19&#45;&gt;Node9 -->
<g id="edge26" class="edge">
<title>Node19&#45;&gt;Node9</title>
<path fill="none" stroke="#191970" d="M1276.2187,-56.4369C1337.5982,-44.8636 1439.0984,-25.7256 1490.5207,-16.0298"/>
<polygon fill="#191970" stroke="#191970" points="1491.2278,-19.4582 1500.4061,-14.1658 1489.9308,-12.5794 1491.2278,-19.4582"/>
</g>
<!-- Node19&#45;&gt;Node10 -->
<g id="edge29" class="edge">
<title>Node19&#45;&gt;Node10</title>
<path fill="none" stroke="#191970" d="M1225.5,-56.2455C1225.5,-48.9382 1225.5,-38.6944 1225.5,-29.7046"/>
<polygon fill="#191970" stroke="#191970" points="1229.0001,-29.6426 1225.5,-19.6427 1222.0001,-29.6427 1229.0001,-29.6426"/>
</g>
<!-- Node19&#45;&gt;Node11 -->
<g id="edge28" class="edge">
<title>Node19&#45;&gt;Node11</title>
<path fill="none" stroke="#191970" d="M1174.4398,-56.4369C1122.6232,-46.7321 1042.405,-31.708 987.3285,-21.3926"/>
<polygon fill="#191970" stroke="#191970" points="987.823,-17.9245 977.3496,-19.5237 986.5344,-24.8048 987.823,-17.9245"/>
</g>
<!-- Node19&#45;&gt;Node18 -->
<g id="edge27" class="edge">
<title>Node19&#45;&gt;Node18</title>
<path fill="none" stroke="#191970" d="M1298.7821,-59.7106C1314.2089,-58.4378 1330.3865,-57.141 1345.5,-56 1581.8127,-38.1592 1641.2799,-39.0276 1877.5,-20 1880.6078,-19.7497 1883.7657,-19.4894 1886.9541,-19.2216"/>
<polygon fill="#191970" stroke="#191970" points="1887.5507,-22.6834 1897.2158,-18.3434 1886.9537,-15.7089 1887.5507,-22.6834"/>
</g>
<!-- Node20&#45;&gt;Node1 -->
<g id="edge67" class="edge">
<title>Node20&#45;&gt;Node1</title>
<path fill="none" stroke="#191970" d="M1768.2378,-253.3179C1558.6373,-243.5003 832.902,-209.5074 591.3753,-198.1945"/>
<polygon fill="#191970" stroke="#191970" points="591.4232,-194.693 581.2704,-197.7212 591.0957,-201.6853 591.4232,-194.693"/>
</g>
<!-- Node21 -->
<g id="node22" class="node">
<title>Node21</title>
<polygon fill="#ffffff" stroke="#bfbfbf" points="2466,-118 2466,-137 2575,-137 2575,-118 2466,-118"/>
<text text-anchor="middle" x="2520.5" y="-125" font-family="Helvetica,sans-Serif" font-size="10.00" fill="#000000">AMReX_AmrCore.H</text>
</g>
<!-- Node20&#45;&gt;Node21 -->
<g id="edge31" class="edge">
<title>Node20&#45;&gt;Node21</title>
<path fill="none" stroke="#191970" d="M1882.8212,-247.0192C1994.0589,-229.3109 2246.7903,-187.7095 2457.5,-143 2462.6029,-141.9172 2467.9213,-140.719 2473.2103,-139.4824"/>
<polygon fill="#191970" stroke="#191970" points="2474.367,-142.8047 2483.2805,-137.0775 2472.7411,-135.9961 2474.367,-142.8047"/>
</g>
<!-- Node22 -->
<g id="node23" class="node">
<title>Node22</title>
<g id="a_node23"><a xlink:href="_sim_time_8_h.html" target="_top" xlink:title="amr&#45;wind/core/SimTime.H">
<polygon fill="#ffffff" stroke="#000000" points="2632,-185 2632,-204 2775,-204 2775,-185 2632,-185"/>
<text text-anchor="middle" x="2703.5" y="-192" font-family="Helvetica,sans-Serif" font-size="10.00" fill="#000000">amr&#45;wind/core/SimTime.H</text>
</a>
</g>
</g>
<!-- Node20&#45;&gt;Node22 -->
<g id="edge32" class="edge">
<title>Node20&#45;&gt;Node22</title>
<path fill="none" stroke="#191970" d="M1882.7693,-251.9885C2034.2253,-241.3797 2445.7304,-212.5556 2621.7976,-200.2229"/>
<polygon fill="#191970" stroke="#191970" points="2622.0507,-203.7138 2631.7816,-199.5236 2621.5615,-196.7309 2622.0507,-203.7138"/>
</g>
<!-- Node26 -->
<g id="node27" class="node">
<title>Node26</title>
<g id="a_node27"><a xlink:href="_field_repo_8_h.html" target="_top" xlink:title="amr&#45;wind/core/FieldRepo.H">
<polygon fill="#ffffff" stroke="#000000" points="1668.5,-185 1668.5,-204 1814.5,-204 1814.5,-185 1668.5,-185"/>
<text text-anchor="middle" x="1741.5" y="-192" font-family="Helvetica,sans-Serif" font-size="10.00" fill="#000000">amr&#45;wind/core/FieldRepo.H</text>
</a>
</g>
</g>
<!-- Node20&#45;&gt;Node26 -->
<g id="edge36" class="edge">
<title>Node20&#45;&gt;Node26</title>
<path fill="none" stroke="#191970" d="M1812.375,-246.3906C1799.06,-236.6421 1778.2406,-221.3994 1762.6053,-209.9521"/>
<polygon fill="#191970" stroke="#191970" points="1764.6691,-207.1253 1754.5328,-204.0419 1760.5339,-212.7734 1764.6691,-207.1253"/>
</g>
<!-- Node33 -->
<g id="node34" class="node">
<title>Node33</title>
<g id="a_node34"><a xlink:href="_p_d_e_base_8_h.html" target="_top" xlink:title="amr&#45;wind/equation_systems\l/PDEBase.H">
<polygon fill="#ffffff" stroke="#000000" points="1833,-179.5 1833,-209.5 1988,-209.5 1988,-179.5 1833,-179.5"/>
<text text-anchor="start" x="1841" y="-197.5" font-family="Helvetica,sans-Serif" font-size="10.00" fill="#000000">amr&#45;wind/equation_systems</text>
<text text-anchor="middle" x="1910.5" y="-186.5" font-family="Helvetica,sans-Serif" font-size="10.00" fill="#000000">/PDEBase.H</text>
</a>
</g>
</g>
<!-- Node20&#45;&gt;Node33 -->
<g id="edge59" class="edge">
<title>Node20&#45;&gt;Node33</title>
<path fill="none" stroke="#191970" d="M1838.7813,-246.3906C1850.1784,-238.1444 1867.0092,-225.9669 1881.5023,-215.4807"/>
<polygon fill="#191970" stroke="#191970" points="1883.6565,-218.2421 1889.7067,-209.5446 1879.5532,-212.5709 1883.6565,-218.2421"/>
</g>
<!-- Node23 -->
<g id="node24" class="node">
<title>Node23</title>
<polygon fill="#ffffff" stroke="#bfbfbf" points="2593,-118 2593,-137 2684,-137 2684,-118 2593,-118"/>
<text text-anchor="middle" x="2638.5" y="-125" font-family="Helvetica,sans-Serif" font-size="10.00" fill="#000000">AMReX_REAL.H</text>
</g>
<!-- Node22&#45;&gt;Node23 -->
<g id="edge33" class="edge">
<title>Node22&#45;&gt;Node23</title>
<path fill="none" stroke="#191970" d="M2694.1871,-184.9005C2683.9544,-174.353 2667.3228,-157.2096 2654.8954,-144.3998"/>
<polygon fill="#191970" stroke="#191970" points="2657.2709,-141.822 2647.7956,-137.0817 2652.2467,-146.6962 2657.2709,-141.822"/>
</g>
<!-- Node24 -->
<g id="node25" class="node">
<title>Node24</title>
<polygon fill="#ffffff" stroke="#bfbfbf" points="2702.5,-118 2702.5,-137 2834.5,-137 2834.5,-118 2702.5,-118"/>
<text text-anchor="middle" x="2768.5" y="-125" font-family="Helvetica,sans-Serif" font-size="10.00" fill="#000000">AMReX_GpuQualifiers.H</text>
</g>
<!-- Node22&#45;&gt;Node24 -->
<g id="edge34" class="edge">
<title>Node22&#45;&gt;Node24</title>
<path fill="none" stroke="#191970" d="M2712.8129,-184.9005C2723.0456,-174.353 2739.6772,-157.2096 2752.1046,-144.3998"/>
<polygon fill="#191970" stroke="#191970" points="2754.7533,-146.6962 2759.2044,-137.0817 2749.7291,-141.822 2754.7533,-146.6962"/>
</g>
<!-- Node25 -->
<g id="node26" class="node">
<title>Node25</title>
<polygon fill="#ffffff" stroke="#bfbfbf" points="2852.5,-118 2852.5,-137 2966.5,-137 2966.5,-118 2852.5,-118"/>
<text text-anchor="middle" x="2909.5" y="-125" font-family="Helvetica,sans-Serif" font-size="10.00" fill="#000000">AMReX_Extension.H</text>
</g>
<!-- Node22&#45;&gt;Node25 -->
<g id="edge35" class="edge">
<title>Node22&#45;&gt;Node25</title>
<path fill="none" stroke="#191970" d="M2733.0148,-184.9005C2769.1159,-173.1589 2830.3482,-153.2436 2870.3544,-140.2318"/>
<polygon fill="#191970" stroke="#191970" points="2871.6129,-143.5031 2880.04,-137.0817 2869.4478,-136.8463 2871.6129,-143.5031"/>
</g>
<!-- Node26&#45;&gt;Node4 -->
<g id="edge38" class="edge">
<title>Node26&#45;&gt;Node4</title>
<path fill="none" stroke="#191970" d="M1668.3771,-192.9433C1420.9651,-187.4571 627.9189,-167.9969 579.5,-143 555.2469,-130.479 537.7625,-103.2365 528.1293,-84.7513"/>
<polygon fill="#191970" stroke="#191970" points="531.2629,-83.1919 523.7025,-75.7696 524.9841,-86.2866 531.2629,-83.1919"/>
</g>
<!-- Node26&#45;&gt;Node9 -->
<g id="edge37" class="edge">
<title>Node26&#45;&gt;Node9</title>
<path fill="none" stroke="#191970" d="M1740.6364,-184.7958C1737.8657,-159.6153 1726.9229,-91.6697 1687.5,-56 1668.0352,-38.3883 1596.9497,-23.1913 1554.696,-15.4539"/>
<polygon fill="#191970" stroke="#191970" points="1555.084,-11.9678 1544.6237,-13.6506 1553.8503,-18.8583 1555.084,-11.9678"/>
</g>
<!-- Node26&#45;&gt;Node11 -->
<g id="edge57" class="edge">
<title>Node26&#45;&gt;Node11</title>
<path fill="none" stroke="#191970" d="M1668.3922,-194.1106C1424.3074,-192.4319 646.9639,-183.8977 542.5,-143 499.6302,-126.2164 482.8468,-117.7757 463.5,-76 459.7646,-67.9341 457.5334,-62.5888 463.5,-56 489.7771,-26.9829 741.7395,-15.5348 862.5302,-11.6864"/>
<polygon fill="#191970" stroke="#191970" points="862.8622,-15.1779 872.7487,-11.3691 862.6448,-8.1813 862.8622,-15.1779"/>
</g>
<!-- Node26&#45;&gt;Node13 -->
<g id="edge44" class="edge">
<title>Node26&#45;&gt;Node13</title>
<path fill="none" stroke="#191970" d="M1668.2284,-187.738C1528.4332,-174.8368 1225.2736,-146.8593 1086.9283,-134.0919"/>
<polygon fill="#191970" stroke="#191970" points="1087.1362,-130.5963 1076.8568,-133.1624 1086.4928,-137.5666 1087.1362,-130.5963"/>
</g>
<!-- Node26&#45;&gt;Node18 -->
<g id="edge39" class="edge">
<title>Node26&#45;&gt;Node18</title>
<path fill="none" stroke="#191970" d="M1791.0385,-184.9192C1802.0407,-182.8834 1813.6551,-180.8054 1824.5,-179 1982.3486,-152.7217 2094.4843,-217.3484 2169.5,-76 2173.667,-68.1483 2174.9748,-63.0028 2169.5,-56 2156.9033,-39.8876 2113.3503,-28.6112 2071.6671,-21.2567"/>
<polygon fill="#191970" stroke="#191970" points="2072.1399,-17.787 2061.695,-19.5631 2070.9678,-24.6882 2072.1399,-17.787"/>
</g>
<!-- Node26&#45;&gt;Node21 -->
<g id="edge56" class="edge">
<title>Node26&#45;&gt;Node21</title>
<path fill="none" stroke="#191970" d="M1787.0015,-184.9194C1799.138,-182.6614 1812.2762,-180.4828 1824.5,-179 2104.2373,-145.0663 2178.8353,-184.8384 2457.5,-143 2463.7865,-142.0562 2470.3631,-140.7751 2476.7963,-139.3515"/>
<polygon fill="#191970" stroke="#191970" points="2477.7877,-142.7141 2486.7254,-137.0249 2476.1906,-135.8987 2477.7877,-142.7141"/>
</g>
<!-- Node27 -->
<g id="node28" class="node">
<title>Node27</title>
<g id="a_node28"><a xlink:href="_field_utils_8_h.html" target="_top" xlink:title="amr&#45;wind/core/FieldUtils.H">
<polygon fill="#ffffff" stroke="#000000" points="1735,-56.5 1735,-75.5 1880,-75.5 1880,-56.5 1735,-56.5"/>
<text text-anchor="middle" x="1807.5" y="-63.5" font-family="Helvetica,sans-Serif" font-size="10.00" fill="#000000">amr&#45;wind/core/FieldUtils.H</text>
</a>
</g>
</g>
<!-- Node26&#45;&gt;Node27 -->
<g id="edge40" class="edge">
<title>Node26&#45;&gt;Node27</title>
<path fill="none" stroke="#191970" d="M1746.4607,-184.8416C1757.3542,-163.6323 1783.5305,-112.6679 1797.8096,-84.8669"/>
<polygon fill="#191970" stroke="#191970" points="1801.0262,-86.2649 1802.4817,-75.7705 1794.7995,-83.0667 1801.0262,-86.2649"/>
</g>
<!-- Node29 -->
<g id="node30" class="node">
<title>Node29</title>
<g id="a_node30"><a xlink:href="_int_field_8_h.html" target="_top" xlink:title="amr&#45;wind/core/IntField.H">
<polygon fill="#ffffff" stroke="#000000" points="1895,-118 1895,-137 2030,-137 2030,-118 1895,-118"/>
<text text-anchor="middle" x="1962.5" y="-125" font-family="Helvetica,sans-Serif" font-size="10.00" fill="#000000">amr&#45;wind/core/IntField.H</text>
</a>
</g>
</g>
<!-- Node26&#45;&gt;Node29 -->
<g id="edge45" class="edge">
<title>Node26&#45;&gt;Node29</title>
<path fill="none" stroke="#191970" d="M1773.1639,-184.9005C1812.14,-173.0843 1878.4208,-152.9901 1921.3196,-139.9845"/>
<polygon fill="#191970" stroke="#191970" points="1922.3404,-143.3325 1930.8948,-137.0817 1920.3095,-136.6335 1922.3404,-143.3325"/>
</g>
<!-- Node30 -->
<g id="node31" class="node">
<title>Node30</title>
<polygon fill="#ffffff" stroke="#bfbfbf" points="2050.5,-56.5 2050.5,-75.5 2160.5,-75.5 2160.5,-56.5 2050.5,-56.5"/>
<text text-anchor="middle" x="2105.5" y="-63.5" font-family="Helvetica,sans-Serif" font-size="10.00" fill="#000000">AMReX_iMultiFab.H</text>
</g>
<!-- Node26&#45;&gt;Node30 -->
<g id="edge58" class="edge">
<title>Node26&#45;&gt;Node30</title>
<path fill="none" stroke="#191970" d="M1791.9486,-184.9227C1802.6863,-182.928 1813.963,-180.8659 1824.5,-179 1919.9016,-162.1064 1955.135,-190.6384 2039.5,-143 2063.9488,-129.1945 2083.5484,-102.7099 2094.8532,-84.6994"/>
<polygon fill="#191970" stroke="#191970" points="2098.11,-86.0745 2100.2583,-75.6998 2092.1091,-82.4704 2098.11,-86.0745"/>
</g>
<!-- Node31 -->
<g id="node32" class="node">
<title>Node31</title>
<g id="a_node32"><a xlink:href="_scratch_field_8_h.html" target="_top" xlink:title="amr&#45;wind/core/ScratchField.H">
<polygon fill="#ffffff" stroke="#000000" points="1443.5,-118 1443.5,-137 1601.5,-137 1601.5,-118 1443.5,-118"/>
<text text-anchor="middle" x="1522.5" y="-125" font-family="Helvetica,sans-Serif" font-size="10.00" fill="#000000">amr&#45;wind/core/ScratchField.H</text>
</a>
</g>
</g>
<!-- Node26&#45;&gt;Node31 -->
<g id="edge49" class="edge">
<title>Node26&#45;&gt;Node31</title>
<path fill="none" stroke="#191970" d="M1710.1226,-184.9005C1671.5806,-173.1091 1606.0947,-153.0746 1563.5765,-140.0668"/>
<polygon fill="#191970" stroke="#191970" points="1564.4056,-136.6604 1553.8192,-137.0817 1562.3577,-143.3541 1564.4056,-136.6604"/>
</g>
<!-- Node27&#45;&gt;Node11 -->
<g id="edge42" class="edge">
<title>Node27&#45;&gt;Node11</title>
<path fill="none" stroke="#191970" d="M1734.8621,-59.6792C1719.2434,-58.395 1702.826,-57.1016 1687.5,-56 1429.1394,-37.4289 1121.0677,-20.3694 990.2719,-13.3631"/>
<polygon fill="#191970" stroke="#191970" points="990.2127,-9.855 980.0401,-12.8162 989.839,-16.8451 990.2127,-9.855"/>
</g>
<!-- Node27&#45;&gt;Node18 -->
<g id="edge41" class="edge">
<title>Node27&#45;&gt;Node18</title>
<path fill="none" stroke="#191970" d="M1837.9274,-56.3733C1867.4872,-47.021 1912.5226,-32.7725 1944.8695,-22.5385"/>
<polygon fill="#191970" stroke="#191970" points="1945.9913,-25.8546 1954.4697,-19.5011 1943.8797,-19.1807 1945.9913,-25.8546"/>
</g>
<!-- Node28 -->
<g id="node29" class="node">
<title>Node28</title>
<polygon fill="#ffffff" stroke="#bfbfbf" points="1746.5,-.5 1746.5,-19.5 1868.5,-19.5 1868.5,-.5 1746.5,-.5"/>
<text text-anchor="middle" x="1807.5" y="-7.5" font-family="Helvetica,sans-Serif" font-size="10.00" fill="#000000">AMReX_Interpolater.H</text>
</g>
<!-- Node27&#45;&gt;Node28 -->
<g id="edge43" class="edge">
<title>Node27&#45;&gt;Node28</title>
<path fill="none" stroke="#191970" d="M1807.5,-56.2455C1807.5,-48.9382 1807.5,-38.6944 1807.5,-29.7046"/>
<polygon fill="#191970" stroke="#191970" points="1811.0001,-29.6426 1807.5,-19.6427 1804.0001,-29.6427 1811.0001,-29.6426"/>
</g>
<!-- Node29&#45;&gt;Node9 -->
<g id="edge46" class="edge">
<title>Node29&#45;&gt;Node9</title>
<path fill="none" stroke="#191970" d="M1955.9597,-117.8611C1944.5553,-101.9273 1919.3734,-70.4251 1889.5,-56 1830.6826,-27.5985 1633.5925,-15.2879 1555.1296,-11.4296"/>
<polygon fill="#191970" stroke="#191970" points="1555.0275,-7.9209 1544.8722,-10.9405 1554.6941,-14.9129 1555.0275,-7.9209"/>
</g>
<!-- Node29&#45;&gt;Node18 -->
<g id="edge47" class="edge">
<title>Node29&#45;&gt;Node18</title>
<path fill="none" stroke="#191970" d="M1972.012,-117.8647C1980.8236,-108.2045 1993.3235,-92.4403 1998.5,-76 2003.3854,-60.4841 1998.8503,-42.3796 1993.6779,-29.061"/>
<polygon fill="#191970" stroke="#191970" points="1996.7445,-27.3344 1989.561,-19.5468 1990.3202,-30.1144 1996.7445,-27.3344"/>
</g>
<!-- Node29&#45;&gt;Node30 -->
<g id="edge48" class="edge">
<title>Node29&#45;&gt;Node30</title>
<path fill="none" stroke="#191970" d="M1984.8438,-117.8906C2008.7703,-107.6005 2046.9309,-91.1888 2073.9216,-79.5809"/>
<polygon fill="#191970" stroke="#191970" points="2075.5095,-82.708 2083.3131,-75.5419 2072.7439,-76.2775 2075.5095,-82.708"/>
</g>
<!-- Node31&#45;&gt;Node9 -->
<g id="edge50" class="edge">
<title>Node31&#45;&gt;Node9</title>
<path fill="none" stroke="#191970" d="M1522.5,-117.8845C1522.5,-98.6913 1522.5,-55.286 1522.5,-29.7663"/>
<polygon fill="#191970" stroke="#191970" points="1526.0001,-29.7483 1522.5,-19.7484 1519.0001,-29.7484 1526.0001,-29.7483"/>
</g>
<!-- Node31&#45;&gt;Node10 -->
<g id="edge54" class="edge">
<title>Node31&#45;&gt;Node10</title>
<path fill="none" stroke="#191970" d="M1480.1265,-117.9556C1443.7009,-109.0987 1390.1413,-94.5064 1345.5,-76 1335.9545,-72.0428 1284.038,-43.0257 1251.6972,-24.8079"/>
<polygon fill="#191970" stroke="#191970" points="1253.1813,-21.6268 1242.7517,-19.7632 1249.7428,-27.724 1253.1813,-21.6268"/>
</g>
<!-- Node31&#45;&gt;Node11 -->
<g id="edge53" class="edge">
<title>Node31&#45;&gt;Node11</title>
<path fill="none" stroke="#191970" d="M1443.4631,-120.4848C1366.344,-112.7673 1245.9981,-98.3999 1143.5,-76 1109.3473,-68.5363 1018.1812,-39.6764 965.5177,-22.6907"/>
<polygon fill="#191970" stroke="#191970" points="966.4325,-19.3082 955.8407,-19.5634 964.2799,-25.969 966.4325,-19.3082"/>
</g>
<!-- Node31&#45;&gt;Node18 -->
<g id="edge51" class="edge">
<title>Node31&#45;&gt;Node18</title>
<path fill="none" stroke="#191970" d="M1601.7688,-123.6156C1702.0081,-117.6259 1868.0987,-103.7945 1922.5,-76 1944.0334,-64.9983 1962.0728,-43.3911 1973.0433,-27.8942"/>
<polygon fill="#191970" stroke="#191970" points="1975.9493,-29.8449 1978.6586,-19.6023 1970.1533,-25.9197 1975.9493,-29.8449"/>
</g>
<!-- Node31&#45;&gt;Node19 -->
<g id="edge52" class="edge">
<title>Node31&#45;&gt;Node19</title>
<path fill="none" stroke="#191970" d="M1476.4196,-117.9581C1423.8527,-107.073 1337.9017,-89.2751 1281.5123,-77.5985"/>
<polygon fill="#191970" stroke="#191970" points="1282.1905,-74.1648 1271.6885,-75.5643 1280.771,-81.0193 1282.1905,-74.1648"/>
</g>
<!-- Node32 -->
<g id="node33" class="node">
<title>Node32</title>
<polygon fill="#ffffff" stroke="#bfbfbf" points="1550.5,-56.5 1550.5,-75.5 1678.5,-75.5 1678.5,-56.5 1550.5,-56.5"/>
<text text-anchor="middle" x="1614.5" y="-63.5" font-family="Helvetica,sans-Serif" font-size="10.00" fill="#000000">AMReX_PhysBCFunct.H</text>
</g>
<!-- Node31&#45;&gt;Node32 -->
<g id="edge55" class="edge">
<title>Node31&#45;&gt;Node32</title>
<path fill="none" stroke="#191970" d="M1536.875,-117.8906C1551.5931,-108.0519 1574.6832,-92.6167 1591.8589,-81.1351"/>
<polygon fill="#191970" stroke="#191970" points="1593.8575,-84.0091 1600.2259,-75.5419 1589.9673,-78.1896 1593.8575,-84.0091"/>
</g>
<!-- Node33&#45;&gt;Node2 -->
<g id="edge61" class="edge">
<title>Node33&#45;&gt;Node2</title>
<path fill="none" stroke="#191970" d="M1832.792,-180.0704C1829.6586,-179.6742 1826.5523,-179.3143 1823.5,-179 1273.2896,-122.3379 1131.8975,-171.2684 579.5,-143 535.2938,-140.7378 485.95,-137.1707 446.1014,-134.0285"/>
<polygon fill="#191970" stroke="#191970" points="446.1667,-130.5227 435.9206,-133.2187 445.6116,-137.5006 446.1667,-130.5227"/>
</g>
<!-- Node33&#45;&gt;Node8 -->
<g id="edge62" class="edge">
<title>Node33&#45;&gt;Node8</title>
<path fill="none" stroke="#191970" d="M1832.787,-180.1173C1829.655,-179.708 1826.5503,-179.3327 1823.5,-179 1435.2526,-136.652 1335.6137,-161.4586 945.5,-143 874.1247,-139.6228 792.8653,-135.2145 734.7293,-131.9629"/>
<polygon fill="#191970" stroke="#191970" points="734.6951,-128.4556 724.5149,-131.3902 734.3032,-135.4446 734.6951,-128.4556"/>
</g>
<!-- Node33&#45;&gt;Node9 -->
<g id="edge60" class="edge">
<title>Node33&#45;&gt;Node9</title>
<path fill="none" stroke="#191970" d="M1988.0784,-181.6977C2084.8979,-162.6225 2230.7536,-121.7632 2169.5,-56 2158.8969,-44.6163 1684.2664,-18.5976 1554.8163,-11.7028"/>
<polygon fill="#191970" stroke="#191970" points="1554.9068,-8.2027 1544.7352,-11.1674 1554.5355,-15.1929 1554.9068,-8.2027"/>
</g>
<!-- Node33&#45;&gt;Node17 -->
<g id="edge66" class="edge">
<title>Node33&#45;&gt;Node17</title>
<path fill="none" stroke="#191970" d="M1857.5038,-179.4792C1797.6439,-162.6172 1697.2592,-134.6536 1610.5,-112 1564.6055,-100.0165 1512.1304,-87.111 1474.6446,-78.0286"/>
<polygon fill="#191970" stroke="#191970" points="1475.0297,-74.5209 1464.4871,-75.5722 1473.3842,-81.3247 1475.0297,-74.5209"/>
</g>
<!-- Node33&#45;&gt;Node18 -->
<g id="edge65" class="edge">
<title>Node33&#45;&gt;Node18</title>
<path fill="none" stroke="#191970" d="M1988.1333,-187.6613C2080.4748,-178.7268 2224.2619,-161.9688 2240.5,-143 2265.6453,-113.6261 2265.3062,-85.6608 2240.5,-56 2220.1856,-31.71 2145.2963,-20.2281 2081.7257,-14.8109"/>
<polygon fill="#191970" stroke="#191970" points="2081.8804,-11.3121 2071.6303,-13.9925 2081.3147,-18.2892 2081.8804,-11.3121"/>
</g>
<!-- Node34 -->
<g id="node35" class="node">
<title>Node34</title>
<g id="a_node35"><a xlink:href="_p_d_e_fields_8_h.html" target="_top" xlink:title="amr&#45;wind/equation_systems\l/PDEFields.H">
<polygon fill="#ffffff" stroke="#000000" points="2293,-112.5 2293,-142.5 2448,-142.5 2448,-112.5 2293,-112.5"/>
<text text-anchor="start" x="2301" y="-130.5" font-family="Helvetica,sans-Serif" font-size="10.00" fill="#000000">amr&#45;wind/equation_systems</text>
<text text-anchor="middle" x="2370.5" y="-119.5" font-family="Helvetica,sans-Serif" font-size="10.00" fill="#000000">/PDEFields.H</text>
</a>
</g>
</g>
<!-- Node33&#45;&gt;Node34 -->
<g id="edge63" class="edge">
<title>Node33&#45;&gt;Node34</title>
<path fill="none" stroke="#191970" d="M1988.1283,-184.2756C2062.6688,-174.3068 2178.3998,-158.4336 2278.5,-143 2279.8057,-142.7987 2281.1215,-142.5945 2282.4456,-142.3877"/>
<polygon fill="#191970" stroke="#191970" points="2283.3953,-145.781 2292.7248,-140.76 2282.3004,-138.8672 2283.3953,-145.781"/>
</g>
<!-- Node35 -->
<g id="node36" class="node">
<title>Node35</title>
<polygon fill="#ffffff" stroke="#bfbfbf" points="2346,-56.5 2346,-75.5 2395,-75.5 2395,-56.5 2346,-56.5"/>
<text text-anchor="middle" x="2370.5" y="-63.5" font-family="Helvetica,sans-Serif" font-size="10.00" fill="#000000">iosfwd</text>
</g>
<!-- Node34&#45;&gt;Node35 -->
<g id="edge64" class="edge">
<title>Node34&#45;&gt;Node35</title>
<path fill="none" stroke="#191970" d="M2370.5,-112.2977C2370.5,-104.3834 2370.5,-94.6043 2370.5,-86.0759"/>
<polygon fill="#191970" stroke="#191970" points="2374.0001,-85.8469 2370.5,-75.8469 2367.0001,-85.847 2374.0001,-85.8469"/>
</g>
</g>
</svg>
