<?xml version="1.0" encoding="UTF-8" standalone="no"?>
<!DOCTYPE svg PUBLIC "-//W3C//DTD SVG 1.1//EN"
 "http://www.w3.org/Graphics/SVG/1.1/DTD/svg11.dtd">
<!-- Generated by graphviz version 2.40.1 (20161225.0304)
 -->
<!-- Title: CoriolisForcing.cpp Pages: 1 -->
<svg width="2668pt" height="408pt"
 viewBox="0.00 0.00 2667.83 408.00" xmlns="http://www.w3.org/2000/svg" xmlns:xlink="http://www.w3.org/1999/xlink">
<g id="graph0" class="graph" transform="scale(1 1) rotate(0) translate(4 404)">
<title>CoriolisForcing.cpp</title>
<polygon fill="#ffffff" stroke="transparent" points="-4,4 -4,-404 2663.8261,-404 2663.8261,4 -4,4"/>
<!-- Node0 -->
<g id="node1" class="node">
<title>Node0</title>
<polygon fill="#bfbfbf" stroke="#000000" points="2157.6837,-380.5 2157.6837,-399.5 2266.6837,-399.5 2266.6837,-380.5 2157.6837,-380.5"/>
<text text-anchor="middle" x="2212.1837" y="-387.5" font-family="Helvetica,sans-Serif" font-size="10.00" fill="#000000">CoriolisForcing.cpp</text>
</g>
<!-- Node1 -->
<g id="node2" class="node">
<title>Node1</title>
<g id="a_node2"><a xlink:href="_coriolis_forcing_8_h.html" target="_top" xlink:title="amr&#45;wind/equation_systems\l/icns/source_terms/CoriolisForcing.H">
<polygon fill="#ffffff" stroke="#000000" points="494.1837,-313.5 494.1837,-343.5 688.1837,-343.5 688.1837,-313.5 494.1837,-313.5"/>
<text text-anchor="start" x="502.1837" y="-331.5" font-family="Helvetica,sans-Serif" font-size="10.00" fill="#000000">amr&#45;wind/equation_systems</text>
<text text-anchor="middle" x="591.1837" y="-320.5" font-family="Helvetica,sans-Serif" font-size="10.00" fill="#000000">/icns/source_terms/CoriolisForcing.H</text>
</a>
</g>
</g>
<!-- Node0&#45;&gt;Node1 -->
<g id="edge1" class="edge">
<title>Node0&#45;&gt;Node1</title>
<path fill="none" stroke="#191970" d="M2157.3213,-387.9185C1924.1193,-379.071 1012.7597,-344.4944 698.4476,-332.5695"/>
<polygon fill="#191970" stroke="#191970" points="698.5467,-329.0709 688.4212,-332.1891 698.2813,-336.0659 698.5467,-329.0709"/>
</g>
<!-- Node27 -->
<g id="node28" class="node">
<title>Node27</title>
<g id="a_node28"><a xlink:href="_c_f_d_sim_8_h.html" target="_top" xlink:title="amr&#45;wind/CFDSim.H">
<polygon fill="#ffffff" stroke="#000000" points="1558.1837,-252 1558.1837,-271 1672.1837,-271 1672.1837,-252 1558.1837,-252"/>
<text text-anchor="middle" x="1615.1837" y="-259" font-family="Helvetica,sans-Serif" font-size="10.00" fill="#000000">amr&#45;wind/CFDSim.H</text>
</a>
</g>
</g>
<!-- Node0&#45;&gt;Node27 -->
<g id="edge50" class="edge">
<title>Node0&#45;&gt;Node27</title>
<path fill="none" stroke="#191970" d="M2167.7994,-380.4466C2060.2753,-357.3028 1786.1144,-298.2916 1669.2627,-273.1401"/>
<polygon fill="#191970" stroke="#191970" points="1669.9671,-269.7116 1659.4545,-271.029 1668.4941,-276.5549 1669.9671,-269.7116"/>
</g>
<!-- Node38 -->
<g id="node39" class="node">
<title>Node38</title>
<g id="a_node39"><a xlink:href="tensor__ops_8_h.html" target="_top" xlink:title="amr&#45;wind/utilities\l/tensor_ops.H">
<polygon fill="#ffffff" stroke="#000000" points="2508.1837,-246.5 2508.1837,-276.5 2610.1837,-276.5 2610.1837,-246.5 2508.1837,-246.5"/>
<text text-anchor="start" x="2516.1837" y="-264.5" font-family="Helvetica,sans-Serif" font-size="10.00" fill="#000000">amr&#45;wind/utilities</text>
<text text-anchor="middle" x="2559.1837" y="-253.5" font-family="Helvetica,sans-Serif" font-size="10.00" fill="#000000">/tensor_ops.H</text>
</a>
</g>
</g>
<!-- Node0&#45;&gt;Node38 -->
<g id="edge74" class="edge">
<title>Node0&#45;&gt;Node38</title>
<path fill="none" stroke="#191970" d="M2216.4839,-380.3398C2224.4618,-363.6348 2243.2302,-329.5545 2270.1837,-313 2307.4605,-290.1051 2424.7083,-274.7569 2497.905,-267.1298"/>
<polygon fill="#191970" stroke="#191970" points="2498.3361,-270.6041 2507.9281,-266.1049 2497.6239,-263.6404 2498.3361,-270.6041"/>
</g>
<!-- Node39 -->
<g id="node40" class="node">
<title>Node39</title>
<g id="a_node40"><a xlink:href="trig__ops_8_h.html" target="_top" xlink:title="Trigonometric utilities. ">
<polygon fill="#ffffff" stroke="#000000" points="2492.1837,-179.5 2492.1837,-209.5 2594.1837,-209.5 2594.1837,-179.5 2492.1837,-179.5"/>
<text text-anchor="start" x="2500.1837" y="-197.5" font-family="Helvetica,sans-Serif" font-size="10.00" fill="#000000">amr&#45;wind/utilities</text>
<text text-anchor="middle" x="2543.1837" y="-186.5" font-family="Helvetica,sans-Serif" font-size="10.00" fill="#000000">/trig_ops.H</text>
</a>
</g>
</g>
<!-- Node0&#45;&gt;Node39 -->
<g id="edge76" class="edge">
<title>Node0&#45;&gt;Node39</title>
<path fill="none" stroke="#191970" d="M2212.2901,-380.4127C2212.9798,-364.4218 2216.6253,-332.1737 2234.1837,-313 2299.4605,-241.7177 2412.3803,-212.9482 2482.1391,-201.5997"/>
<polygon fill="#191970" stroke="#191970" points="2482.7644,-205.0446 2492.1074,-200.0488 2481.6882,-198.1278 2482.7644,-205.0446"/>
</g>
<!-- Node41 -->
<g id="node42" class="node">
<title>Node41</title>
<polygon fill="#ffffff" stroke="#bfbfbf" points="2278.6837,-319 2278.6837,-338 2395.6837,-338 2395.6837,-319 2278.6837,-319"/>
<text text-anchor="middle" x="2337.1837" y="-326" font-family="Helvetica,sans-Serif" font-size="10.00" fill="#000000">AMReX_ParmParse.H</text>
</g>
<!-- Node0&#45;&gt;Node41 -->
<g id="edge80" class="edge">
<title>Node0&#45;&gt;Node41</title>
<path fill="none" stroke="#191970" d="M2231.7149,-380.3906C2252.3545,-370.2359 2285.1113,-354.1196 2308.6439,-342.5416"/>
<polygon fill="#191970" stroke="#191970" points="2310.3619,-345.5971 2317.7896,-338.0419 2307.2716,-339.3161 2310.3619,-345.5971"/>
</g>
<!-- Node2 -->
<g id="node3" class="node">
<title>Node2</title>
<g id="a_node3"><a xlink:href="_field_repo_8_h.html" target="_top" xlink:title="amr&#45;wind/core/FieldRepo.H">
<polygon fill="#ffffff" stroke="#000000" points="518.1837,-185 518.1837,-204 664.1837,-204 664.1837,-185 518.1837,-185"/>
<text text-anchor="middle" x="591.1837" y="-192" font-family="Helvetica,sans-Serif" font-size="10.00" fill="#000000">amr&#45;wind/core/FieldRepo.H</text>
</a>
</g>
</g>
<!-- Node1&#45;&gt;Node2 -->
<g id="edge2" class="edge">
<title>Node1&#45;&gt;Node2</title>
<path fill="none" stroke="#191970" d="M591.1837,-313.389C591.1837,-289.0735 591.1837,-241.2644 591.1837,-214.2698"/>
<polygon fill="#191970" stroke="#191970" points="594.6838,-214.1041 591.1837,-204.1042 587.6838,-214.1042 594.6838,-214.1041"/>
</g>
<!-- Node22 -->
<g id="node23" class="node">
<title>Node22</title>
<g id="a_node23"><a xlink:href="_momentum_source_8_h.html" target="_top" xlink:title="amr&#45;wind/equation_systems\l/icns/MomentumSource.H">
<polygon fill="#ffffff" stroke="#000000" points="273.6837,-246.5 273.6837,-276.5 428.6837,-276.5 428.6837,-246.5 273.6837,-246.5"/>
<text text-anchor="start" x="281.6837" y="-264.5" font-family="Helvetica,sans-Serif" font-size="10.00" fill="#000000">amr&#45;wind/equation_systems</text>
<text text-anchor="middle" x="351.1837" y="-253.5" font-family="Helvetica,sans-Serif" font-size="10.00" fill="#000000">/icns/MomentumSource.H</text>
</a>
</g>
</g>
<!-- Node1&#45;&gt;Node22 -->
<g id="edge39" class="edge">
<title>Node1&#45;&gt;Node22</title>
<path fill="none" stroke="#191970" d="M537.323,-313.4639C501.1661,-303.3701 453.3592,-290.024 415.2486,-279.3848"/>
<polygon fill="#191970" stroke="#191970" points="415.8521,-275.9195 405.2793,-276.6017 413.9699,-282.6617 415.8521,-275.9195"/>
</g>
<!-- Node3 -->
<g id="node4" class="node">
<title>Node3</title>
<polygon fill="#ffffff" stroke="#bfbfbf" points="1301.1837,-.5 1301.1837,-19.5 1345.1837,-19.5 1345.1837,-.5 1301.1837,-.5"/>
<text text-anchor="middle" x="1323.1837" y="-7.5" font-family="Helvetica,sans-Serif" font-size="10.00" fill="#000000">string</text>
</g>
<!-- Node2&#45;&gt;Node3 -->
<g id="edge3" class="edge">
<title>Node2&#45;&gt;Node3</title>
<path fill="none" stroke="#191970" d="M664.4476,-193.5366C905.3502,-190.0591 1663.5543,-176.5413 1768.1837,-143 1820.1875,-126.329 1845.1439,-124.0026 1871.1837,-76 1875.4221,-68.1867 1877.2004,-62.543 1871.1837,-56 1836.1639,-17.9174 1467.5762,-11.3464 1355.3976,-10.2267"/>
<polygon fill="#191970" stroke="#191970" points="1355.3936,-6.7267 1345.3618,-10.1345 1355.3292,-13.7264 1355.3936,-6.7267"/>
</g>
<!-- Node4 -->
<g id="node5" class="node">
<title>Node4</title>
<polygon fill="#ffffff" stroke="#bfbfbf" points="1351.6837,-56.5 1351.6837,-75.5 1444.6837,-75.5 1444.6837,-56.5 1351.6837,-56.5"/>
<text text-anchor="middle" x="1398.1837" y="-63.5" font-family="Helvetica,sans-Serif" font-size="10.00" fill="#000000">unordered_map</text>
</g>
<!-- Node2&#45;&gt;Node4 -->
<g id="edge4" class="edge">
<title>Node2&#45;&gt;Node4</title>
<path fill="none" stroke="#191970" d="M664.411,-193.1358C798.0811,-189.7921 1076.062,-178.6525 1165.1837,-143 1185.7418,-134.7759 1184.2672,-121.6751 1204.1837,-112 1228.0917,-100.3859 1293.1329,-86.1517 1341.3509,-76.6208"/>
<polygon fill="#191970" stroke="#191970" points="1342.2224,-80.0167 1351.3639,-74.661 1340.8778,-73.147 1342.2224,-80.0167"/>
</g>
<!-- Node5 -->
<g id="node6" class="node">
<title>Node5</title>
<g id="a_node6"><a xlink:href="_field_desc_types_8_h.html" target="_top" xlink:title="amr&#45;wind/core/FieldDescTypes.H">
<polygon fill="#ffffff" stroke="#000000" points="516.1837,-.5 516.1837,-19.5 690.1837,-19.5 690.1837,-.5 516.1837,-.5"/>
<text text-anchor="middle" x="603.1837" y="-7.5" font-family="Helvetica,sans-Serif" font-size="10.00" fill="#000000">amr&#45;wind/core/FieldDescTypes.H</text>
</a>
</g>
</g>
<!-- Node2&#45;&gt;Node5 -->
<g id="edge5" class="edge">
<title>Node2&#45;&gt;Node5</title>
<path fill="none" stroke="#191970" d="M580.7633,-184.815C557.3454,-161.8364 504.5409,-102.4676 530.1837,-56 538.0801,-41.6908 552.5047,-31.2233 566.4591,-23.9219"/>
<polygon fill="#191970" stroke="#191970" points="567.9977,-27.0657 575.4878,-19.5725 564.9596,-20.7593 567.9977,-27.0657"/>
</g>
<!-- Node6 -->
<g id="node7" class="node">
<title>Node6</title>
<g id="a_node7"><a xlink:href="_field_utils_8_h.html" target="_top" xlink:title="amr&#45;wind/core/FieldUtils.H">
<polygon fill="#ffffff" stroke="#000000" points="95.6837,-118 95.6837,-137 240.6837,-137 240.6837,-118 95.6837,-118"/>
<text text-anchor="middle" x="168.1837" y="-125" font-family="Helvetica,sans-Serif" font-size="10.00" fill="#000000">amr&#45;wind/core/FieldUtils.H</text>
</a>
</g>
</g>
<!-- Node2&#45;&gt;Node6 -->
<g id="edge6" class="edge">
<title>Node2&#45;&gt;Node6</title>
<path fill="none" stroke="#191970" d="M531.0273,-184.9717C453.8443,-172.7465 320.1923,-151.577 238.427,-138.626"/>
<polygon fill="#191970" stroke="#191970" points="238.899,-135.1572 228.4746,-137.0496 237.8039,-142.071 238.899,-135.1572"/>
</g>
<!-- Node7 -->
<g id="node8" class="node">
<title>Node7</title>
<polygon fill="#ffffff" stroke="#bfbfbf" points="139.6837,-.5 139.6837,-19.5 246.6837,-19.5 246.6837,-.5 139.6837,-.5"/>
<text text-anchor="middle" x="193.1837" y="-7.5" font-family="Helvetica,sans-Serif" font-size="10.00" fill="#000000">AMReX_MultiFab.H</text>
</g>
<!-- Node2&#45;&gt;Node7 -->
<g id="edge37" class="edge">
<title>Node2&#45;&gt;Node7</title>
<path fill="none" stroke="#191970" d="M517.9412,-193.3357C396.6488,-190.37 160.1097,-179.8925 86.1837,-143 43.6994,-121.7984 -4.6463,-93.726 24.1837,-56 37.2171,-38.9448 87.2749,-26.7107 129.5559,-19.1672"/>
<polygon fill="#191970" stroke="#191970" points="130.292,-22.592 139.5517,-17.4433 129.1023,-15.6938 130.292,-22.592"/>
</g>
<!-- Node9 -->
<g id="node10" class="node">
<title>Node9</title>
<g id="a_node10"><a xlink:href="_field_8_h.html" target="_top" xlink:title="amr&#45;wind/core/Field.H">
<polygon fill="#ffffff" stroke="#000000" points="1034.1837,-118 1034.1837,-137 1156.1837,-137 1156.1837,-118 1034.1837,-118"/>
<text text-anchor="middle" x="1095.1837" y="-125" font-family="Helvetica,sans-Serif" font-size="10.00" fill="#000000">amr&#45;wind/core/Field.H</text>
</a>
</g>
</g>
<!-- Node2&#45;&gt;Node9 -->
<g id="edge10" class="edge">
<title>Node2&#45;&gt;Node9</title>
<path fill="none" stroke="#191970" d="M662.8593,-184.9717C758.8297,-172.2137 928.0743,-149.7149 1023.8634,-136.9811"/>
<polygon fill="#191970" stroke="#191970" points="1024.583,-140.4163 1034.0346,-135.6289 1023.6605,-133.4773 1024.583,-140.4163"/>
</g>
<!-- Node17 -->
<g id="node18" class="node">
<title>Node17</title>
<g id="a_node18"><a xlink:href="_int_field_8_h.html" target="_top" xlink:title="amr&#45;wind/core/IntField.H">
<polygon fill="#ffffff" stroke="#000000" points="373.6837,-118 373.6837,-137 508.6837,-137 508.6837,-118 373.6837,-118"/>
<text text-anchor="middle" x="441.1837" y="-125" font-family="Helvetica,sans-Serif" font-size="10.00" fill="#000000">amr&#45;wind/core/IntField.H</text>
</a>
</g>
</g>
<!-- Node2&#45;&gt;Node17 -->
<g id="edge25" class="edge">
<title>Node2&#45;&gt;Node17</title>
<path fill="none" stroke="#191970" d="M569.6923,-184.9005C544.0734,-173.4574 501.0738,-154.2509 471.939,-141.2374"/>
<polygon fill="#191970" stroke="#191970" points="473.1932,-137.9643 462.6352,-137.0817 470.3383,-144.3557 473.1932,-137.9643"/>
</g>
<!-- Node18 -->
<g id="node19" class="node">
<title>Node18</title>
<polygon fill="#ffffff" stroke="#bfbfbf" points="297.1837,-56.5 297.1837,-75.5 407.1837,-75.5 407.1837,-56.5 297.1837,-56.5"/>
<text text-anchor="middle" x="352.1837" y="-63.5" font-family="Helvetica,sans-Serif" font-size="10.00" fill="#000000">AMReX_iMultiFab.H</text>
</g>
<!-- Node2&#45;&gt;Node18 -->
<g id="edge38" class="edge">
<title>Node2&#45;&gt;Node18</title>
<path fill="none" stroke="#191970" d="M518.1659,-186.8322C459.9928,-179.1647 384.972,-165.2633 364.1837,-143 350.0195,-127.8309 348.5214,-103.1935 349.5957,-85.8815"/>
<polygon fill="#191970" stroke="#191970" points="353.098,-86.0237 350.5659,-75.7359 346.1298,-85.3573 353.098,-86.0237"/>
</g>
<!-- Node19 -->
<g id="node20" class="node">
<title>Node19</title>
<g id="a_node20"><a xlink:href="_scratch_field_8_h.html" target="_top" xlink:title="amr&#45;wind/core/ScratchField.H">
<polygon fill="#ffffff" stroke="#000000" points="565.1837,-118 565.1837,-137 723.1837,-137 723.1837,-118 565.1837,-118"/>
<text text-anchor="middle" x="644.1837" y="-125" font-family="Helvetica,sans-Serif" font-size="10.00" fill="#000000">amr&#45;wind/core/ScratchField.H</text>
</a>
</g>
</g>
<!-- Node2&#45;&gt;Node19 -->
<g id="edge29" class="edge">
<title>Node2&#45;&gt;Node19</title>
<path fill="none" stroke="#191970" d="M598.7773,-184.9005C606.9635,-174.552 620.1722,-157.8542 630.238,-145.1295"/>
<polygon fill="#191970" stroke="#191970" points="633.1451,-147.0959 636.6042,-137.0817 627.6551,-142.7531 633.1451,-147.0959"/>
</g>
<!-- Node21 -->
<g id="node22" class="node">
<title>Node21</title>
<polygon fill="#ffffff" stroke="#bfbfbf" points="1212.6837,-118 1212.6837,-137 1321.6837,-137 1321.6837,-118 1212.6837,-118"/>
<text text-anchor="middle" x="1267.1837" y="-125" font-family="Helvetica,sans-Serif" font-size="10.00" fill="#000000">AMReX_AmrCore.H</text>
</g>
<!-- Node2&#45;&gt;Node21 -->
<g id="edge36" class="edge">
<title>Node2&#45;&gt;Node21</title>
<path fill="none" stroke="#191970" d="M664.4444,-191.5116C778.9125,-186.1176 1006.897,-172.4592 1198.1837,-143 1204.9506,-141.9579 1212.0436,-140.6342 1218.9995,-139.2012"/>
<polygon fill="#191970" stroke="#191970" points="1219.9973,-142.5668 1229.0386,-137.0435 1218.5263,-135.723 1219.9973,-142.5668"/>
</g>
<!-- Node6&#45;&gt;Node5 -->
<g id="edge7" class="edge">
<title>Node6&#45;&gt;Node5</title>
<path fill="none" stroke="#191970" d="M176.429,-117.8909C190.6847,-102.0011 221.6494,-70.5619 255.1837,-56 298.8721,-37.0288 418.9505,-24.0751 505.8451,-16.8633"/>
<polygon fill="#191970" stroke="#191970" points="506.3218,-20.3362 516.0037,-16.0337 505.7519,-13.3594 506.3218,-20.3362"/>
</g>
<!-- Node6&#45;&gt;Node7 -->
<g id="edge8" class="edge">
<title>Node6&#45;&gt;Node7</title>
<path fill="none" stroke="#191970" d="M109.6964,-117.9518C63.2317,-107.7403 9.7839,-88.4594 34.1837,-56 45.9525,-40.3437 90.272,-28.3179 129.1392,-20.4955"/>
<polygon fill="#191970" stroke="#191970" points="130.2533,-23.8444 139.4011,-18.4995 128.9168,-16.9732 130.2533,-23.8444"/>
</g>
<!-- Node8 -->
<g id="node9" class="node">
<title>Node8</title>
<polygon fill="#ffffff" stroke="#bfbfbf" points="43.1837,-56.5 43.1837,-75.5 165.1837,-75.5 165.1837,-56.5 43.1837,-56.5"/>
<text text-anchor="middle" x="104.1837" y="-63.5" font-family="Helvetica,sans-Serif" font-size="10.00" fill="#000000">AMReX_Interpolater.H</text>
</g>
<!-- Node6&#45;&gt;Node8 -->
<g id="edge9" class="edge">
<title>Node6&#45;&gt;Node8</title>
<path fill="none" stroke="#191970" d="M158.1837,-117.8906C148.4718,-108.5581 133.5198,-94.1902 121.8096,-82.9374"/>
<polygon fill="#191970" stroke="#191970" points="123.9603,-80.15 114.3247,-75.7449 119.1101,-85.1974 123.9603,-80.15"/>
</g>
<!-- Node9&#45;&gt;Node3 -->
<g id="edge11" class="edge">
<title>Node9&#45;&gt;Node3</title>
<path fill="none" stroke="#191970" d="M1138.8981,-117.8986C1198.3772,-104.666 1298.1579,-81.797 1304.1837,-76 1316.646,-64.0108 1321.086,-44.4231 1322.5935,-29.6944"/>
<polygon fill="#191970" stroke="#191970" points="1326.0945,-29.793 1323.259,-19.5847 1319.1096,-29.3331 1326.0945,-29.793"/>
</g>
<!-- Node9&#45;&gt;Node4 -->
<g id="edge13" class="edge">
<title>Node9&#45;&gt;Node4</title>
<path fill="none" stroke="#191970" d="M1141.1865,-117.957C1150.768,-115.9794 1160.8041,-113.9154 1170.1837,-112 1228.6065,-100.0695 1295.4903,-86.5974 1341.636,-77.3317"/>
<polygon fill="#191970" stroke="#191970" points="1342.3318,-80.7619 1351.4474,-75.3623 1340.9541,-73.8988 1342.3318,-80.7619"/>
</g>
<!-- Node9&#45;&gt;Node5 -->
<g id="edge19" class="edge">
<title>Node9&#45;&gt;Node5</title>
<path fill="none" stroke="#191970" d="M1051.2086,-117.9479C1005.0507,-107.8426 930.4064,-91.2775 866.1837,-76 845.3131,-71.0353 720.8189,-39.6777 650.8534,-22.0306"/>
<polygon fill="#191970" stroke="#191970" points="651.4975,-18.5835 640.9452,-19.5312 649.7853,-25.3709 651.4975,-18.5835"/>
</g>
<!-- Node9&#45;&gt;Node7 -->
<g id="edge15" class="edge">
<title>Node9&#45;&gt;Node7</title>
<path fill="none" stroke="#191970" d="M1035.9928,-117.9707C973.572,-107.8502 872.3805,-91.2416 785.1837,-76 736.6661,-67.5194 724.9672,-62.7856 676.1837,-56 526.6103,-35.1949 349.6528,-20.9699 257.0218,-14.3123"/>
<polygon fill="#191970" stroke="#191970" points="257.1893,-10.8154 246.9657,-13.5955 256.6915,-17.7977 257.1893,-10.8154"/>
</g>
<!-- Node10 -->
<g id="node11" class="node">
<title>Node10</title>
<polygon fill="#ffffff" stroke="#bfbfbf" points="1539.1837,-56.5 1539.1837,-75.5 1597.1837,-75.5 1597.1837,-56.5 1539.1837,-56.5"/>
<text text-anchor="middle" x="1568.1837" y="-63.5" font-family="Helvetica,sans-Serif" font-size="10.00" fill="#000000">memory</text>
</g>
<!-- Node9&#45;&gt;Node10 -->
<g id="edge12" class="edge">
<title>Node9&#45;&gt;Node10</title>
<path fill="none" stroke="#191970" d="M1156.2688,-118.643C1171.8837,-116.4258 1188.6496,-114.0859 1204.1837,-112 1322.2352,-96.1481 1462.0411,-78.9105 1528.8324,-70.7695"/>
<polygon fill="#191970" stroke="#191970" points="1529.4069,-74.2255 1538.9106,-69.5427 1528.5609,-67.2768 1529.4069,-74.2255"/>
</g>
<!-- Node11 -->
<g id="node12" class="node">
<title>Node11</title>
<polygon fill="#ffffff" stroke="#bfbfbf" points="1115.1837,-56.5 1115.1837,-75.5 1179.1837,-75.5 1179.1837,-56.5 1115.1837,-56.5"/>
<text text-anchor="middle" x="1147.1837" y="-63.5" font-family="Helvetica,sans-Serif" font-size="10.00" fill="#000000">algorithm</text>
</g>
<!-- Node9&#45;&gt;Node11 -->
<g id="edge14" class="edge">
<title>Node9&#45;&gt;Node11</title>
<path fill="none" stroke="#191970" d="M1103.3087,-117.8906C1111.0479,-108.7376 1122.8824,-94.7409 1132.3108,-83.59"/>
<polygon fill="#191970" stroke="#191970" points="1135.1601,-85.6409 1138.9441,-75.7449 1129.8148,-81.1213 1135.1601,-85.6409"/>
</g>
<!-- Node12 -->
<g id="node13" class="node">
<title>Node12</title>
<polygon fill="#ffffff" stroke="#bfbfbf" points="1197.6837,-56.5 1197.6837,-75.5 1294.6837,-75.5 1294.6837,-56.5 1197.6837,-56.5"/>
<text text-anchor="middle" x="1246.1837" y="-63.5" font-family="Helvetica,sans-Serif" font-size="10.00" fill="#000000">AMReX_BCRec.H</text>
</g>
<!-- Node9&#45;&gt;Node12 -->
<g id="edge16" class="edge">
<title>Node9&#45;&gt;Node12</title>
<path fill="none" stroke="#191970" d="M1118.7774,-117.8906C1144.1533,-107.5554 1184.6918,-91.0447 1213.213,-79.4284"/>
<polygon fill="#191970" stroke="#191970" points="1214.8145,-82.5554 1222.7556,-75.5419 1212.1741,-76.0725 1214.8145,-82.5554"/>
</g>
<!-- Node13 -->
<g id="node14" class="node">
<title>Node13</title>
<polygon fill="#ffffff" stroke="#bfbfbf" points="2527.1837,-56.5 2527.1837,-75.5 2613.1837,-75.5 2613.1837,-56.5 2527.1837,-56.5"/>
<text text-anchor="middle" x="2570.1837" y="-63.5" font-family="Helvetica,sans-Serif" font-size="10.00" fill="#000000">AMReX_Gpu.H</text>
</g>
<!-- Node9&#45;&gt;Node13 -->
<g id="edge17" class="edge">
<title>Node9&#45;&gt;Node13</title>
<path fill="none" stroke="#191970" d="M1153.8819,-117.9719C1170.1343,-115.6562 1187.8085,-113.4358 1204.1837,-112 1336.4372,-100.4037 2281.4139,-73.9274 2517.0569,-67.45"/>
<polygon fill="#191970" stroke="#191970" points="2517.1908,-70.9477 2527.091,-67.1745 2516.9986,-63.9504 2517.1908,-70.9477"/>
</g>
<!-- Node14 -->
<g id="node15" class="node">
<title>Node14</title>
<g id="a_node15"><a xlink:href="incflo__enums_8_h.html" target="_top" xlink:title="amr&#45;wind/incflo_enums.H">
<polygon fill="#ffffff" stroke="#000000" points="1918.1837,-56.5 1918.1837,-75.5 2058.1837,-75.5 2058.1837,-56.5 1918.1837,-56.5"/>
<text text-anchor="middle" x="1988.1837" y="-63.5" font-family="Helvetica,sans-Serif" font-size="10.00" fill="#000000">amr&#45;wind/incflo_enums.H</text>
</a>
</g>
</g>
<!-- Node9&#45;&gt;Node14 -->
<g id="edge18" class="edge">
<title>Node9&#45;&gt;Node14</title>
<path fill="none" stroke="#191970" d="M1155.3231,-117.9895C1171.1809,-115.7447 1188.2994,-113.555 1204.1837,-112 1499.6471,-83.0745 1575.0264,-96.6435 1871.1837,-76 1883.0206,-75.1749 1895.5229,-74.2081 1907.7762,-73.2067"/>
<polygon fill="#191970" stroke="#191970" points="1908.3139,-76.6742 1917.9904,-72.3596 1907.7353,-69.6981 1908.3139,-76.6742"/>
</g>
<!-- Node15 -->
<g id="node16" class="node">
<title>Node15</title>
<g id="a_node16"><a xlink:href="_view_field_8_h.html" target="_top" xlink:title="amr&#45;wind/core/ViewField.H">
<polygon fill="#ffffff" stroke="#000000" points="875.1837,-56.5 875.1837,-75.5 1021.1837,-75.5 1021.1837,-56.5 875.1837,-56.5"/>
<text text-anchor="middle" x="948.1837" y="-63.5" font-family="Helvetica,sans-Serif" font-size="10.00" fill="#000000">amr&#45;wind/core/ViewField.H</text>
</a>
</g>
</g>
<!-- Node9&#45;&gt;Node15 -->
<g id="edge20" class="edge">
<title>Node9&#45;&gt;Node15</title>
<path fill="none" stroke="#191970" d="M1072.2149,-117.8906C1047.5113,-107.5554 1008.0467,-91.0447 980.2809,-79.4284"/>
<polygon fill="#191970" stroke="#191970" points="981.5672,-76.1727 970.9911,-75.5419 978.8655,-82.6303 981.5672,-76.1727"/>
</g>
<!-- Node15&#45;&gt;Node3 -->
<g id="edge21" class="edge">
<title>Node15&#45;&gt;Node3</title>
<path fill="none" stroke="#191970" d="M1012.2224,-56.4369C1093.1015,-44.3589 1229.1526,-24.042 1290.9299,-14.8166"/>
<polygon fill="#191970" stroke="#191970" points="1291.5074,-18.2692 1300.8807,-13.3306 1290.4734,-11.346 1291.5074,-18.2692"/>
</g>
<!-- Node15&#45;&gt;Node5 -->
<g id="edge22" class="edge">
<title>Node15&#45;&gt;Node5</title>
<path fill="none" stroke="#191970" d="M889.2681,-56.4369C828.9836,-46.6516 735.3817,-31.4582 671.7943,-21.1368"/>
<polygon fill="#191970" stroke="#191970" points="672.2879,-17.6712 661.8563,-19.5237 671.1663,-24.5808 672.2879,-17.6712"/>
</g>
<!-- Node15&#45;&gt;Node7 -->
<g id="edge23" class="edge">
<title>Node15&#45;&gt;Node7</title>
<path fill="none" stroke="#191970" d="M875.1051,-60.5796C727.6221,-49.6405 396.5808,-25.0864 257.0895,-14.74"/>
<polygon fill="#191970" stroke="#191970" points="257.2145,-11.2398 246.9829,-13.9904 256.6966,-18.2206 257.2145,-11.2398"/>
</g>
<!-- Node16 -->
<g id="node17" class="node">
<title>Node16</title>
<polygon fill="#ffffff" stroke="#bfbfbf" points="900.1837,-.5 900.1837,-19.5 996.1837,-19.5 996.1837,-.5 900.1837,-.5"/>
<text text-anchor="middle" x="948.1837" y="-7.5" font-family="Helvetica,sans-Serif" font-size="10.00" fill="#000000">AMReX_Vector.H</text>
</g>
<!-- Node15&#45;&gt;Node16 -->
<g id="edge24" class="edge">
<title>Node15&#45;&gt;Node16</title>
<path fill="none" stroke="#191970" d="M948.1837,-56.2455C948.1837,-48.9382 948.1837,-38.6944 948.1837,-29.7046"/>
<polygon fill="#191970" stroke="#191970" points="951.6838,-29.6426 948.1837,-19.6427 944.6838,-29.6427 951.6838,-29.6426"/>
</g>
<!-- Node17&#45;&gt;Node3 -->
<g id="edge26" class="edge">
<title>Node17&#45;&gt;Node3</title>
<path fill="none" stroke="#191970" d="M506.784,-117.9876C522.9146,-115.8338 540.1556,-113.6874 556.1837,-112 766.2959,-89.8802 829.0025,-140.5179 1030.1837,-76 1046.5145,-70.7628 1047.1329,-62.0413 1063.1837,-56 1141.5227,-26.5141 1240.3878,-15.6882 1290.6397,-11.9042"/>
<polygon fill="#191970" stroke="#191970" points="1291.1604,-15.3763 1300.8889,-11.1804 1290.6672,-8.3937 1291.1604,-15.3763"/>
</g>
<!-- Node17&#45;&gt;Node5 -->
<g id="edge27" class="edge">
<title>Node17&#45;&gt;Node5</title>
<path fill="none" stroke="#191970" d="M446.5334,-117.9238C455.341,-102.9156 474.2273,-73.7396 497.1837,-56 516.0945,-41.3866 540.3601,-30.4124 560.9013,-22.855"/>
<polygon fill="#191970" stroke="#191970" points="562.0804,-26.1506 570.3445,-19.5206 559.7497,-19.55 562.0804,-26.1506"/>
</g>
<!-- Node17&#45;&gt;Node18 -->
<g id="edge28" class="edge">
<title>Node17&#45;&gt;Node18</title>
<path fill="none" stroke="#191970" d="M427.2774,-117.8906C413.1698,-108.1421 391.1113,-92.8994 374.5452,-81.4521"/>
<polygon fill="#191970" stroke="#191970" points="376.2089,-78.3474 365.9923,-75.5419 372.2295,-84.1063 376.2089,-78.3474"/>
</g>
<!-- Node19&#45;&gt;Node3 -->
<g id="edge30" class="edge">
<title>Node19&#45;&gt;Node3</title>
<path fill="none" stroke="#191970" d="M723.1984,-120.7559C826.3877,-111.4361 1001.1789,-93.7509 1063.1837,-76 1083.4468,-70.199 1086.1906,-62.6726 1106.1837,-56 1169.9999,-34.7016 1247.7707,-21.0504 1290.7331,-14.5275"/>
<polygon fill="#191970" stroke="#191970" points="1291.4982,-17.9524 1300.8762,-13.0225 1290.4707,-11.0282 1291.4982,-17.9524"/>
</g>
<!-- Node19&#45;&gt;Node5 -->
<g id="edge31" class="edge">
<title>Node19&#45;&gt;Node5</title>
<path fill="none" stroke="#191970" d="M654.5429,-117.5346C667.8402,-103.4827 687.8796,-77.1945 676.1837,-56 668.2873,-41.6908 653.8626,-31.2233 639.9083,-23.9219"/>
<polygon fill="#191970" stroke="#191970" points="641.4077,-20.7593 630.8796,-19.5725 638.3697,-27.0657 641.4077,-20.7593"/>
</g>
<!-- Node19&#45;&gt;Node7 -->
<g id="edge33" class="edge">
<title>Node19&#45;&gt;Node7</title>
<path fill="none" stroke="#191970" d="M616.7157,-117.901C574.1384,-103.2465 489.4696,-74.9985 416.1837,-56 362.8213,-42.1664 301.4229,-29.7542 256.5784,-21.3197"/>
<polygon fill="#191970" stroke="#191970" points="257.1707,-17.8699 246.6983,-19.4754 255.8862,-24.751 257.1707,-17.8699"/>
</g>
<!-- Node19&#45;&gt;Node15 -->
<g id="edge32" class="edge">
<title>Node19&#45;&gt;Node15</title>
<path fill="none" stroke="#191970" d="M691.3501,-117.9581C745.156,-107.073 833.1328,-89.2751 890.8513,-77.5985"/>
<polygon fill="#191970" stroke="#191970" points="891.7992,-80.9777 900.9066,-75.5643 890.4111,-74.1167 891.7992,-80.9777"/>
</g>
<!-- Node19&#45;&gt;Node16 -->
<g id="edge34" class="edge">
<title>Node19&#45;&gt;Node16</title>
<path fill="none" stroke="#191970" d="M668.8038,-117.984C722.8757,-97.0845 852.1036,-47.1362 913.9998,-23.2125"/>
<polygon fill="#191970" stroke="#191970" points="915.2681,-26.4747 923.3338,-19.6048 912.7444,-19.9454 915.2681,-26.4747"/>
</g>
<!-- Node20 -->
<g id="node21" class="node">
<title>Node20</title>
<polygon fill="#ffffff" stroke="#bfbfbf" points="539.1837,-56.5 539.1837,-75.5 667.1837,-75.5 667.1837,-56.5 539.1837,-56.5"/>
<text text-anchor="middle" x="603.1837" y="-63.5" font-family="Helvetica,sans-Serif" font-size="10.00" fill="#000000">AMReX_PhysBCFunct.H</text>
</g>
<!-- Node19&#45;&gt;Node20 -->
<g id="edge35" class="edge">
<title>Node19&#45;&gt;Node20</title>
<path fill="none" stroke="#191970" d="M637.7774,-117.8906C631.795,-108.917 622.709,-95.2879 615.3498,-84.2491"/>
<polygon fill="#191970" stroke="#191970" points="618.1395,-82.1239 609.6802,-75.7449 612.3151,-86.0068 618.1395,-82.1239"/>
</g>
<!-- Node22&#45;&gt;Node2 -->
<g id="edge48" class="edge">
<title>Node22&#45;&gt;Node2</title>
<path fill="none" stroke="#191970" d="M405.0444,-246.4639C447.9802,-234.4776 507.3441,-217.9052 547.3913,-206.7254"/>
<polygon fill="#191970" stroke="#191970" points="548.4443,-210.0653 557.1349,-204.0053 546.562,-203.3231 548.4443,-210.0653"/>
</g>
<!-- Node22&#45;&gt;Node5 -->
<g id="edge46" class="edge">
<title>Node22&#45;&gt;Node5</title>
<path fill="none" stroke="#191970" d="M338.0553,-246.3646C307.6228,-209.417 238.5182,-113.445 288.1837,-56 302.4393,-39.5114 418.742,-25.8764 505.9102,-17.8394"/>
<polygon fill="#191970" stroke="#191970" points="506.4771,-21.3024 516.1191,-16.9113 505.8432,-14.3312 506.4771,-21.3024"/>
</g>
<!-- Node22&#45;&gt;Node6 -->
<g id="edge47" class="edge">
<title>Node22&#45;&gt;Node6</title>
<path fill="none" stroke="#191970" d="M317.9017,-246.3827C298.8077,-237.0519 274.8077,-224.1769 255.1837,-210 227.9233,-190.3063 200.4198,-162.6111 183.8376,-144.8577"/>
<polygon fill="#191970" stroke="#191970" points="185.9709,-142.0073 176.6235,-137.0197 180.8204,-146.7478 185.9709,-142.0073"/>
</g>
<!-- Node22&#45;&gt;Node7 -->
<g id="edge49" class="edge">
<title>Node22&#45;&gt;Node7</title>
<path fill="none" stroke="#191970" d="M273.5087,-252.0925C201.684,-239.386 96.7345,-210.0093 33.1837,-143 5.8116,-114.1384 -12.2346,-87.4002 12.1837,-56 26.6934,-37.3414 83.3871,-25.0152 129.5074,-17.8606"/>
<polygon fill="#191970" stroke="#191970" points="130.0968,-21.3115 139.4681,-16.3688 129.0599,-14.3887 130.0968,-21.3115"/>
</g>
<!-- Node23 -->
<g id="node24" class="node">
<title>Node23</title>
<g id="a_node24"><a xlink:href="_factory_8_h.html" target="_top" xlink:title="amr&#45;wind/core/Factory.H">
<polygon fill="#ffffff" stroke="#000000" points="1625.1837,-118 1625.1837,-137 1759.1837,-137 1759.1837,-118 1625.1837,-118"/>
<text text-anchor="middle" x="1692.1837" y="-125" font-family="Helvetica,sans-Serif" font-size="10.00" fill="#000000">amr&#45;wind/core/Factory.H</text>
</a>
</g>
</g>
<!-- Node22&#45;&gt;Node23 -->
<g id="edge40" class="edge">
<title>Node22&#45;&gt;Node23</title>
<path fill="none" stroke="#191970" d="M429.0417,-261.1437C684.0518,-259.58 1484.0665,-251.393 1592.1837,-210 1594.5869,-209.0799 1644.6228,-167.3442 1672.9861,-143.5976"/>
<polygon fill="#191970" stroke="#191970" points="1675.2673,-146.2525 1680.6853,-137.1478 1670.772,-140.8866 1675.2673,-146.2525"/>
</g>
<!-- Node23&#45;&gt;Node4 -->
<g id="edge42" class="edge">
<title>Node23&#45;&gt;Node4</title>
<path fill="none" stroke="#191970" d="M1646.5688,-117.9581C1594.6405,-107.0956 1509.8021,-89.3488 1453.9772,-77.6711"/>
<polygon fill="#191970" stroke="#191970" points="1454.4104,-74.186 1443.9056,-75.5643 1452.9771,-81.0377 1454.4104,-74.186"/>
</g>
<!-- Node23&#45;&gt;Node10 -->
<g id="edge41" class="edge">
<title>Node23&#45;&gt;Node10</title>
<path fill="none" stroke="#191970" d="M1672.8087,-117.8906C1652.3342,-107.7359 1619.8395,-91.6196 1596.4952,-80.0416"/>
<polygon fill="#191970" stroke="#191970" points="1597.9365,-76.8496 1587.4226,-75.5419 1594.8262,-83.1207 1597.9365,-76.8496"/>
</g>
<!-- Node24 -->
<g id="node25" class="node">
<title>Node24</title>
<polygon fill="#ffffff" stroke="#bfbfbf" points="1802.1837,-56.5 1802.1837,-75.5 1862.1837,-75.5 1862.1837,-56.5 1802.1837,-56.5"/>
<text text-anchor="middle" x="1832.1837" y="-63.5" font-family="Helvetica,sans-Serif" font-size="10.00" fill="#000000">iostream</text>
</g>
<!-- Node23&#45;&gt;Node24 -->
<g id="edge43" class="edge">
<title>Node23&#45;&gt;Node24</title>
<path fill="none" stroke="#191970" d="M1714.0587,-117.8906C1737.4832,-107.6005 1774.8433,-91.1888 1801.2678,-79.5809"/>
<polygon fill="#191970" stroke="#191970" points="1802.7144,-82.7683 1810.4623,-75.5419 1799.899,-76.3594 1802.7144,-82.7683"/>
</g>
<!-- Node25 -->
<g id="node26" class="node">
<title>Node25</title>
<polygon fill="#ffffff" stroke="#bfbfbf" points="1615.6837,-56.5 1615.6837,-75.5 1704.6837,-75.5 1704.6837,-56.5 1615.6837,-56.5"/>
<text text-anchor="middle" x="1660.1837" y="-63.5" font-family="Helvetica,sans-Serif" font-size="10.00" fill="#000000">AMReX_Print.H</text>
</g>
<!-- Node23&#45;&gt;Node25 -->
<g id="edge44" class="edge">
<title>Node23&#45;&gt;Node25</title>
<path fill="none" stroke="#191970" d="M1687.1837,-117.8906C1682.6079,-109.0965 1675.7056,-95.8312 1670.0254,-84.9145"/>
<polygon fill="#191970" stroke="#191970" points="1672.9749,-83.0003 1665.2542,-75.7449 1666.7652,-86.2314 1672.9749,-83.0003"/>
</g>
<!-- Node26 -->
<g id="node27" class="node">
<title>Node26</title>
<polygon fill="#ffffff" stroke="#bfbfbf" points="1722.6837,-56.5 1722.6837,-75.5 1783.6837,-75.5 1783.6837,-56.5 1722.6837,-56.5"/>
<text text-anchor="middle" x="1753.1837" y="-63.5" font-family="Helvetica,sans-Serif" font-size="10.00" fill="#000000">AMReX.H</text>
</g>
<!-- Node23&#45;&gt;Node26 -->
<g id="edge45" class="edge">
<title>Node23&#45;&gt;Node26</title>
<path fill="none" stroke="#191970" d="M1701.7149,-117.8906C1710.9716,-108.5581 1725.2227,-94.1902 1736.384,-82.9374"/>
<polygon fill="#191970" stroke="#191970" points="1738.9608,-85.3095 1743.518,-75.7449 1733.9909,-80.38 1738.9608,-85.3095"/>
</g>
<!-- Node27&#45;&gt;Node2 -->
<g id="edge56" class="edge">
<title>Node27&#45;&gt;Node2</title>
<path fill="none" stroke="#191970" d="M1557.9348,-257.7542C1386.4392,-246.5333 876.3062,-213.1555 674.601,-199.958"/>
<polygon fill="#191970" stroke="#191970" points="674.5702,-196.4486 664.363,-199.2881 674.1131,-203.4336 674.5702,-196.4486"/>
</g>
<!-- Node27&#45;&gt;Node21 -->
<g id="edge51" class="edge">
<title>Node27&#45;&gt;Node21</title>
<path fill="none" stroke="#191970" d="M1574.9538,-251.9479C1538.4517,-242.7922 1483.4316,-227.7638 1437.1837,-210 1384.7825,-189.8727 1326.4828,-159.7943 1293.58,-142.0593"/>
<polygon fill="#191970" stroke="#191970" points="1295.0672,-138.8842 1284.6088,-137.1895 1291.7277,-145.0363 1295.0672,-138.8842"/>
</g>
<!-- Node28 -->
<g id="node29" class="node">
<title>Node28</title>
<g id="a_node29"><a xlink:href="_sim_time_8_h.html" target="_top" xlink:title="amr&#45;wind/core/SimTime.H">
<polygon fill="#ffffff" stroke="#000000" points="2233.6837,-185 2233.6837,-204 2376.6837,-204 2376.6837,-185 2233.6837,-185"/>
<text text-anchor="middle" x="2305.1837" y="-192" font-family="Helvetica,sans-Serif" font-size="10.00" fill="#000000">amr&#45;wind/core/SimTime.H</text>
</a>
</g>
</g>
<!-- Node27&#45;&gt;Node28 -->
<g id="edge52" class="edge">
<title>Node27&#45;&gt;Node28</title>
<path fill="none" stroke="#191970" d="M1672.2363,-255.9601C1794.377,-244.1001 2081.5455,-216.2156 2223.2114,-202.4596"/>
<polygon fill="#191970" stroke="#191970" points="2223.9538,-205.9041 2233.5687,-201.4539 2223.2772,-198.9369 2223.9538,-205.9041"/>
</g>
<!-- Node32 -->
<g id="node33" class="node">
<title>Node32</title>
<g id="a_node33"><a xlink:href="_p_d_e_base_8_h.html" target="_top" xlink:title="amr&#45;wind/equation_systems\l/PDEBase.H">
<polygon fill="#ffffff" stroke="#000000" points="1639.6837,-179.5 1639.6837,-209.5 1794.6837,-209.5 1794.6837,-179.5 1639.6837,-179.5"/>
<text text-anchor="start" x="1647.6837" y="-197.5" font-family="Helvetica,sans-Serif" font-size="10.00" fill="#000000">amr&#45;wind/equation_systems</text>
<text text-anchor="middle" x="1717.1837" y="-186.5" font-family="Helvetica,sans-Serif" font-size="10.00" fill="#000000">/PDEBase.H</text>
</a>
</g>
</g>
<!-- Node27&#45;&gt;Node32 -->
<g id="edge57" class="edge">
<title>Node27&#45;&gt;Node32</title>
<path fill="none" stroke="#191970" d="M1629.7978,-251.9005C1644.3495,-242.3421 1667.1475,-227.3669 1685.8089,-215.1089"/>
<polygon fill="#191970" stroke="#191970" points="1687.8781,-217.9373 1694.3147,-209.5218 1684.035,-212.0866 1687.8781,-217.9373"/>
</g>
<!-- Node36 -->
<g id="node37" class="node">
<title>Node36</title>
<g id="a_node37"><a xlink:href="_physics_8_h.html" target="_top" xlink:title="amr&#45;wind/core/Physics.H">
<polygon fill="#ffffff" stroke="#000000" points="1445.6837,-185 1445.6837,-204 1582.6837,-204 1582.6837,-185 1445.6837,-185"/>
<text text-anchor="middle" x="1514.1837" y="-192" font-family="Helvetica,sans-Serif" font-size="10.00" fill="#000000">amr&#45;wind/core/Physics.H</text>
</a>
</g>
</g>
<!-- Node27&#45;&gt;Node36 -->
<g id="edge69" class="edge">
<title>Node27&#45;&gt;Node36</title>
<path fill="none" stroke="#191970" d="M1600.7128,-251.9005C1584.0628,-240.8554 1556.5097,-222.5776 1536.9723,-209.6172"/>
<polygon fill="#191970" stroke="#191970" points="1538.8957,-206.693 1528.6277,-204.0817 1535.0261,-212.5263 1538.8957,-206.693"/>
</g>
<!-- Node29 -->
<g id="node30" class="node">
<title>Node29</title>
<polygon fill="#ffffff" stroke="#bfbfbf" points="2450.6837,-118 2450.6837,-137 2541.6837,-137 2541.6837,-118 2450.6837,-118"/>
<text text-anchor="middle" x="2496.1837" y="-125" font-family="Helvetica,sans-Serif" font-size="10.00" fill="#000000">AMReX_REAL.H</text>
</g>
<!-- Node28&#45;&gt;Node29 -->
<g id="edge53" class="edge">
<title>Node28&#45;&gt;Node29</title>
<path fill="none" stroke="#191970" d="M2332.5493,-184.9005C2365.8799,-173.2086 2422.3146,-153.4122 2459.4159,-140.3976"/>
<polygon fill="#191970" stroke="#191970" points="2460.5911,-143.6945 2468.8688,-137.0817 2458.274,-137.0891 2460.5911,-143.6945"/>
</g>
<!-- Node30 -->
<g id="node31" class="node">
<title>Node30</title>
<polygon fill="#ffffff" stroke="#bfbfbf" points="2168.1837,-118 2168.1837,-137 2300.1837,-137 2300.1837,-118 2168.1837,-118"/>
<text text-anchor="middle" x="2234.1837" y="-125" font-family="Helvetica,sans-Serif" font-size="10.00" fill="#000000">AMReX_GpuQualifiers.H</text>
</g>
<!-- Node28&#45;&gt;Node30 -->
<g id="edge54" class="edge">
<title>Node28&#45;&gt;Node30</title>
<path fill="none" stroke="#191970" d="M2295.0111,-184.9005C2283.7284,-174.2535 2265.3236,-156.8856 2251.7095,-144.0385"/>
<polygon fill="#191970" stroke="#191970" points="2254.0125,-141.3994 2244.3374,-137.0817 2249.2082,-146.4905 2254.0125,-141.3994"/>
</g>
<!-- Node31 -->
<g id="node32" class="node">
<title>Node31</title>
<polygon fill="#ffffff" stroke="#bfbfbf" points="2318.1837,-118 2318.1837,-137 2432.1837,-137 2432.1837,-118 2318.1837,-118"/>
<text text-anchor="middle" x="2375.1837" y="-125" font-family="Helvetica,sans-Serif" font-size="10.00" fill="#000000">AMReX_Extension.H</text>
</g>
<!-- Node28&#45;&gt;Node31 -->
<g id="edge55" class="edge">
<title>Node28&#45;&gt;Node31</title>
<path fill="none" stroke="#191970" d="M2315.213,-184.9005C2326.3368,-174.2535 2344.4823,-156.8856 2357.9047,-144.0385"/>
<polygon fill="#191970" stroke="#191970" points="2360.3689,-146.5247 2365.173,-137.0817 2355.5287,-141.4678 2360.3689,-146.5247"/>
</g>
<!-- Node32&#45;&gt;Node3 -->
<g id="edge58" class="edge">
<title>Node32&#45;&gt;Node3</title>
<path fill="none" stroke="#191970" d="M1794.7554,-182.8836C1837.8095,-174.8352 1891.6925,-162.0736 1937.1837,-143 1960.9494,-133.0355 1963.4599,-124.1543 1986.1837,-112 2024.776,-91.3581 2097.1608,-87.8878 2067.1837,-56 2042.4546,-29.6947 1495.3538,-14.2932 1355.5037,-10.777"/>
<polygon fill="#191970" stroke="#191970" points="1355.5031,-7.276 1345.4192,-10.5264 1355.3292,-14.2739 1355.5031,-7.276"/>
</g>
<!-- Node32&#45;&gt;Node5 -->
<g id="edge67" class="edge">
<title>Node32&#45;&gt;Node5</title>
<path fill="none" stroke="#191970" d="M1639.5804,-184.1437C1623.9084,-182.259 1607.5331,-180.4376 1592.1837,-179 1340.7766,-155.4529 1274.1436,-185.1775 1025.1837,-143 915.9944,-124.5017 890.6479,-109.7903 785.1837,-76 733.1058,-59.3144 673.7088,-37.1785 637.3323,-23.2601"/>
<polygon fill="#191970" stroke="#191970" points="638.2979,-19.8818 627.7079,-19.5637 635.7882,-26.4164 638.2979,-19.8818"/>
</g>
<!-- Node32&#45;&gt;Node14 -->
<g id="edge68" class="edge">
<title>Node32&#45;&gt;Node14</title>
<path fill="none" stroke="#191970" d="M1794.9575,-181.696C1829.837,-173.8293 1870.5936,-161.5841 1904.1837,-143 1932.151,-127.5268 1958.2743,-100.9155 1973.7419,-83.3876"/>
<polygon fill="#191970" stroke="#191970" points="1976.5721,-85.4646 1980.4405,-75.6012 1971.2655,-80.8993 1976.5721,-85.4646"/>
</g>
<!-- Node32&#45;&gt;Node23 -->
<g id="edge59" class="edge">
<title>Node32&#45;&gt;Node23</title>
<path fill="none" stroke="#191970" d="M1711.5108,-179.2967C1707.8804,-169.5672 1703.1417,-156.8675 1699.2652,-146.4784"/>
<polygon fill="#191970" stroke="#191970" points="1702.5241,-145.2004 1695.749,-137.055 1695.9658,-147.6476 1702.5241,-145.2004"/>
</g>
<!-- Node33 -->
<g id="node34" class="node">
<title>Node33</title>
<g id="a_node34"><a xlink:href="_coll_mgr_8_h.html" target="_top" xlink:title="amr&#45;wind/core/CollMgr.H">
<polygon fill="#ffffff" stroke="#000000" points="1471.1837,-118 1471.1837,-137 1607.1837,-137 1607.1837,-118 1471.1837,-118"/>
<text text-anchor="middle" x="1539.1837" y="-125" font-family="Helvetica,sans-Serif" font-size="10.00" fill="#000000">amr&#45;wind/core/CollMgr.H</text>
</a>
</g>
</g>
<!-- Node32&#45;&gt;Node33 -->
<g id="edge60" class="edge">
<title>Node32&#45;&gt;Node33</title>
<path fill="none" stroke="#191970" d="M1677.237,-179.4639C1646.2025,-167.7824 1603.5956,-151.7449 1573.9557,-140.5884"/>
<polygon fill="#191970" stroke="#191970" points="1575.0285,-137.2525 1564.4365,-137.0053 1572.5625,-143.8037 1575.0285,-137.2525"/>
</g>
<!-- Node34 -->
<g id="node35" class="node">
<title>Node34</title>
<g id="a_node35"><a xlink:href="_p_d_e_fields_8_h.html" target="_top" xlink:title="amr&#45;wind/equation_systems\l/PDEFields.H">
<polygon fill="#ffffff" stroke="#000000" points="1994.6837,-112.5 1994.6837,-142.5 2149.6837,-142.5 2149.6837,-112.5 1994.6837,-112.5"/>
<text text-anchor="start" x="2002.6837" y="-130.5" font-family="Helvetica,sans-Serif" font-size="10.00" fill="#000000">amr&#45;wind/equation_systems</text>
<text text-anchor="middle" x="2072.1837" y="-119.5" font-family="Helvetica,sans-Serif" font-size="10.00" fill="#000000">/PDEFields.H</text>
</a>
</g>
</g>
<!-- Node32&#45;&gt;Node34 -->
<g id="edge65" class="edge">
<title>Node32&#45;&gt;Node34</title>
<path fill="none" stroke="#191970" d="M1795.0899,-179.7966C1851.0425,-169.2365 1926.5166,-154.9921 1984.5665,-144.0362"/>
<polygon fill="#191970" stroke="#191970" points="1985.2818,-147.4631 1994.4592,-142.1691 1983.9835,-140.5845 1985.2818,-147.4631"/>
</g>
<!-- Node33&#45;&gt;Node3 -->
<g id="edge61" class="edge">
<title>Node33&#45;&gt;Node3</title>
<path fill="none" stroke="#191970" d="M1534.6595,-117.5409C1527.0886,-102.0081 1510.3688,-72.1263 1487.1837,-56 1447.1431,-28.1499 1390.6204,-17.0919 1355.4751,-12.7488"/>
<polygon fill="#191970" stroke="#191970" points="1355.6244,-9.2436 1345.2962,-11.6054 1354.8429,-16.1999 1355.6244,-9.2436"/>
</g>
<!-- Node33&#45;&gt;Node4 -->
<g id="edge63" class="edge">
<title>Node33&#45;&gt;Node4</title>
<path fill="none" stroke="#191970" d="M1517.1524,-117.8906C1493.5605,-107.6005 1455.9336,-91.1888 1429.3204,-79.5809"/>
<polygon fill="#191970" stroke="#191970" points="1430.6256,-76.3318 1420.0602,-75.5419 1427.827,-82.748 1430.6256,-76.3318"/>
</g>
<!-- Node33&#45;&gt;Node10 -->
<g id="edge62" class="edge">
<title>Node33&#45;&gt;Node10</title>
<path fill="none" stroke="#191970" d="M1543.7149,-117.8906C1547.8617,-109.0965 1554.1169,-95.8312 1559.2646,-84.9145"/>
<polygon fill="#191970" stroke="#191970" points="1562.4891,-86.2825 1563.5885,-75.7449 1556.1577,-83.2969 1562.4891,-86.2825"/>
</g>
<!-- Node33&#45;&gt;Node16 -->
<g id="edge64" class="edge">
<title>Node33&#45;&gt;Node16</title>
<path fill="none" stroke="#191970" d="M1529.3946,-117.9417C1510.9492,-100.1633 1471.3593,-63.1608 1454.1837,-56 1374.6581,-22.8444 1121.8488,-13.5041 1006.5315,-10.9394"/>
<polygon fill="#191970" stroke="#191970" points="1006.5469,-7.439 996.4746,-10.7252 1006.3978,-14.4374 1006.5469,-7.439"/>
</g>
<!-- Node35 -->
<g id="node36" class="node">
<title>Node35</title>
<polygon fill="#ffffff" stroke="#bfbfbf" points="2114.6837,-56.5 2114.6837,-75.5 2163.6837,-75.5 2163.6837,-56.5 2114.6837,-56.5"/>
<text text-anchor="middle" x="2139.1837" y="-63.5" font-family="Helvetica,sans-Serif" font-size="10.00" fill="#000000">iosfwd</text>
</g>
<!-- Node34&#45;&gt;Node35 -->
<g id="edge66" class="edge">
<title>Node34&#45;&gt;Node35</title>
<path fill="none" stroke="#191970" d="M2088.7455,-112.2977C2098.5302,-103.3163 2110.931,-91.9334 2120.988,-82.702"/>
<polygon fill="#191970" stroke="#191970" points="2123.4559,-85.1876 2128.4561,-75.8469 2118.7223,-80.0307 2123.4559,-85.1876"/>
</g>
<!-- Node36&#45;&gt;Node7 -->
<g id="edge72" class="edge">
<title>Node36&#45;&gt;Node7</title>
<path fill="none" stroke="#191970" d="M1445.3399,-193.844C1212.7986,-191.2941 465.3364,-180.2562 364.1837,-143 297.4069,-118.405 235.927,-57.5118 208.3926,-27.4125"/>
<polygon fill="#191970" stroke="#191970" points="210.8367,-24.8958 201.5505,-19.7952 205.6291,-29.5736 210.8367,-24.8958"/>
</g>
<!-- Node36&#45;&gt;Node23 -->
<g id="edge70" class="edge">
<title>Node36&#45;&gt;Node23</title>
<path fill="none" stroke="#191970" d="M1539.6867,-184.9005C1570.4844,-173.3082 1622.4487,-153.7486 1657.0318,-140.7313"/>
<polygon fill="#191970" stroke="#191970" points="1658.6019,-143.8801 1666.7279,-137.0817 1656.136,-137.3288 1658.6019,-143.8801"/>
</g>
<!-- Node36&#45;&gt;Node33 -->
<g id="edge71" class="edge">
<title>Node36&#45;&gt;Node33</title>
<path fill="none" stroke="#191970" d="M1517.7656,-184.9005C1521.4785,-174.95 1527.3817,-159.1292 1532.0513,-146.6147"/>
<polygon fill="#191970" stroke="#191970" points="1535.3916,-147.6743 1535.6084,-137.0817 1528.8333,-145.2271 1535.3916,-147.6743"/>
</g>
<!-- Node37 -->
<g id="node38" class="node">
<title>Node37</title>
<polygon fill="#ffffff" stroke="#bfbfbf" points="1339.6837,-118 1339.6837,-137 1452.6837,-137 1452.6837,-118 1339.6837,-118"/>
<text text-anchor="middle" x="1396.1837" y="-125" font-family="Helvetica,sans-Serif" font-size="10.00" fill="#000000">AMReX_Geometry.H</text>
</g>
<!-- Node36&#45;&gt;Node37 -->
<g id="edge73" class="edge">
<title>Node36&#45;&gt;Node37</title>
<path fill="none" stroke="#191970" d="M1497.2772,-184.9005C1477.5617,-173.7062 1444.7615,-155.0823 1421.8878,-142.0947"/>
<polygon fill="#191970" stroke="#191970" points="1423.483,-138.9757 1413.0588,-137.0817 1420.0267,-145.0629 1423.483,-138.9757"/>
</g>
<!-- Node38&#45;&gt;Node13 -->
<g id="edge75" class="edge">
<title>Node38&#45;&gt;Node13</title>
<path fill="none" stroke="#191970" d="M2577.8275,-246.2296C2601.2703,-225.6649 2640.2549,-186.5838 2655.1837,-143 2659.6483,-129.9657 2662.2363,-123.8359 2655.1837,-112 2646.2927,-97.0789 2630.694,-86.7035 2615.266,-79.6373"/>
<polygon fill="#191970" stroke="#191970" points="2616.3195,-76.2841 2605.7434,-75.6541 2613.6183,-82.742 2616.3195,-76.2841"/>
</g>
<!-- Node39&#45;&gt;Node13 -->
<g id="edge79" class="edge">
<title>Node39&#45;&gt;Node13</title>
<path fill="none" stroke="#191970" d="M2546.387,-179.2548C2551.2785,-155.9744 2560.6106,-111.5607 2566.0209,-85.8117"/>
<polygon fill="#191970" stroke="#191970" points="2569.5069,-86.2418 2568.138,-75.7358 2562.6565,-84.8024 2569.5069,-86.2418"/>
</g>
<!-- Node39&#45;&gt;Node29 -->
<g id="edge78" class="edge">
<title>Node39&#45;&gt;Node29</title>
<path fill="none" stroke="#191970" d="M2532.5186,-179.2967C2525.4802,-169.2631 2516.2259,-156.0709 2508.8185,-145.5113"/>
<polygon fill="#191970" stroke="#191970" points="2511.4946,-143.2316 2502.8864,-137.055 2505.764,-147.2516 2511.4946,-143.2316"/>
</g>
<!-- Node40 -->
<g id="node41" class="node">
<title>Node40</title>
<polygon fill="#ffffff" stroke="#bfbfbf" points="2598.6837,-118 2598.6837,-137 2645.6837,-137 2645.6837,-118 2598.6837,-118"/>
<text text-anchor="middle" x="2622.1837" y="-125" font-family="Helvetica,sans-Serif" font-size="10.00" fill="#000000">cmath</text>
</g>
<!-- Node39&#45;&gt;Node40 -->
<g id="edge77" class="edge">
<title>Node39&#45;&gt;Node40</title>
<path fill="none" stroke="#191970" d="M2561.11,-179.2967C2573.6576,-168.6551 2590.3948,-154.4602 2603.1745,-143.6217"/>
<polygon fill="#191970" stroke="#191970" points="2605.5546,-146.1924 2610.9174,-137.055 2601.027,-140.8538 2605.5546,-146.1924"/>
</g>
</g>
</svg>
