<?xml version="1.0" encoding="UTF-8" standalone="no"?>
<!DOCTYPE svg PUBLIC "-//W3C//DTD SVG 1.1//EN"
 "http://www.w3.org/Graphics/SVG/1.1/DTD/svg11.dtd">
<!-- Generated by graphviz version 2.40.1 (20161225.0304)
 -->
<!-- Title: CylinderRefiner.H Pages: 1 -->
<!--zoomable 341 -->
<svg id="main" version="1.1" xmlns="http://www.w3.org/2000/svg" xmlns:xlink="http://www.w3.org/1999/xlink" xml:space="preserve" onload="init(evt)">
<style type="text/css"><![CDATA[
.edge:hover path { stroke: red; }
.edge:hover polygon { stroke: red; fill: red; }
]]></style>
<script type="text/javascript"><![CDATA[
var edges = document.getElementsByTagName('g');
if (edges && edges.length) {
  for (var i=0;i<edges.length;i++) {
    if (edges[i].id.substr(0,4)=='edge') {
      edges[i].setAttribute('class','edge');
    }
  }
}
]]></script>
        <defs>
                <circle id="rim" cx="0" cy="0" r="7"/>
                <circle id="rim2" cx="0" cy="0" r="3.5"/>
                <g id="zoomPlus">
                        <use xlink:href="#rim" fill="#404040">
                                <set attributeName="fill" to="#808080" begin="zoomplus.mouseover" end="zoomplus.mouseout"/>
                        </use>
                        <path d="M-4,0h8M0,-4v8" fill="none" stroke="white" stroke-width="1.5" pointer-events="none"/>
                </g>
                <g id="zoomMin">
                        <use xlink:href="#rim" fill="#404040">
                                <set attributeName="fill" to="#808080" begin="zoomminus.mouseover" end="zoomminus.mouseout"/>
                        </use>
                        <path d="M-4,0h8" fill="none" stroke="white" stroke-width="1.5" pointer-events="none"/>
                </g>
                <g id="dirArrow">
                        <path fill="none" stroke="white" stroke-width="1.5" d="M0,-3.0v7 M-2.5,-0.5L0,-3.0L2.5,-0.5"/>
                </g>
               <g id="resetDef">
                       <use xlink:href="#rim2" fill="#404040">
                               <set attributeName="fill" to="#808080" begin="reset.mouseover" end="reset.mouseout"/>
                       </use>
               </g>
        </defs>

<script type="text/javascript">
var viewWidth = 1013;
var viewHeight = 341;
var sectionId = 'dynsection-0';
</script>
<script xlink:href="svgpan.js"/>
<svg id="graph" class="graph">
<g id="viewport">
<title>CylinderRefiner.H</title>
<polygon fill="#ffffff" stroke="transparent" points="-4,4 -4,-337 1008.5,-337 1008.5,4 -4,4"/>
<!-- Node0 -->
<g id="node1" class="node">
<title>Node0</title>
<polygon fill="#bfbfbf" stroke="#000000" points="429,-313.5 429,-332.5 530,-332.5 530,-313.5 429,-313.5"/>
<text text-anchor="middle" x="479.5" y="-320.5" font-family="Helvetica,sans-Serif" font-size="10.00" fill="#000000">CylinderRefiner.H</text>
</g>
<!-- Node1 -->
<g id="node2" class="node">
<title>Node1</title>
<g id="a_node2"><a xlink:href="_geometry_refinement_8_h.html" target="_top" xlink:title="amr&#45;wind/utilities\l/tagging/GeometryRefinement.H">
<polygon fill="#ffffff" stroke="#000000" points="306.5,-246.5 306.5,-276.5 480.5,-276.5 480.5,-246.5 306.5,-246.5"/>
<text text-anchor="start" x="314.5" y="-264.5" font-family="Helvetica,sans-Serif" font-size="10.00" fill="#000000">amr&#45;wind/utilities</text>
<text text-anchor="middle" x="393.5" y="-253.5" font-family="Helvetica,sans-Serif" font-size="10.00" fill="#000000">/tagging/GeometryRefinement.H</text>
</a>
</g>
</g>
<!-- Node0&#45;&gt;Node1 -->
<g id="edge1" class="edge">
<title>Node0&#45;&gt;Node1</title>
<path fill="none" stroke="#191970" d="M466.0625,-313.3906C454.5312,-305.1444 437.5024,-292.9669 422.8389,-282.4807"/>
<polygon fill="#191970" stroke="#191970" points="424.708,-279.5145 414.538,-276.5446 420.6362,-285.2084 424.708,-279.5145"/>
</g>
<!-- Node11 -->
<g id="node12" class="node">
<title>Node11</title>
<g id="a_node12"><a xlink:href="vector__space_8_h.html" target="_top" xlink:title="amr&#45;wind/core/vs/vector\l_space.H">
<polygon fill="#ffffff" stroke="#000000" points="512.5,-246.5 512.5,-276.5 646.5,-276.5 646.5,-246.5 512.5,-246.5"/>
<text text-anchor="start" x="520.5" y="-264.5" font-family="Helvetica,sans-Serif" font-size="10.00" fill="#000000">amr&#45;wind/core/vs/vector</text>
<text text-anchor="middle" x="579.5" y="-253.5" font-family="Helvetica,sans-Serif" font-size="10.00" fill="#000000">_space.H</text>
</a>
</g>
</g>
<!-- Node0&#45;&gt;Node11 -->
<g id="edge11" class="edge">
<title>Node0&#45;&gt;Node11</title>
<path fill="none" stroke="#191970" d="M495.125,-313.3906C508.7841,-304.9903 529.0768,-292.5103 546.3382,-281.8945"/>
<polygon fill="#191970" stroke="#191970" points="548.3527,-284.7646 555.0372,-276.5446 544.6857,-278.8019 548.3527,-284.7646"/>
</g>
<!-- Node2 -->
<g id="node3" class="node">
<title>Node2</title>
<g id="a_node3"><a xlink:href="_refinement_criteria_8_h.html" target="_top" xlink:title="amr&#45;wind/utilities\l/tagging/RefinementCriteria.H">
<polygon fill="#ffffff" stroke="#000000" points="227,-179.5 227,-209.5 388,-209.5 388,-179.5 227,-179.5"/>
<text text-anchor="start" x="235" y="-197.5" font-family="Helvetica,sans-Serif" font-size="10.00" fill="#000000">amr&#45;wind/utilities</text>
<text text-anchor="middle" x="307.5" y="-186.5" font-family="Helvetica,sans-Serif" font-size="10.00" fill="#000000">/tagging/RefinementCriteria.H</text>
</a>
</g>
</g>
<!-- Node1&#45;&gt;Node2 -->
<g id="edge2" class="edge">
<title>Node1&#45;&gt;Node2</title>
<path fill="none" stroke="#191970" d="M373.9853,-246.2967C362.4398,-237.302 347.636,-225.7687 334.9294,-215.8694"/>
<polygon fill="#191970" stroke="#191970" points="336.9771,-213.028 326.9375,-209.6432 332.6751,-218.55 336.9771,-213.028"/>
</g>
<!-- Node3 -->
<g id="node4" class="node">
<title>Node3</title>
<polygon fill="#ffffff" stroke="#bfbfbf" points="323,-123.5 323,-142.5 432,-142.5 432,-123.5 323,-123.5"/>
<text text-anchor="middle" x="377.5" y="-130.5" font-family="Helvetica,sans-Serif" font-size="10.00" fill="#000000">AMReX_AmrCore.H</text>
</g>
<!-- Node2&#45;&gt;Node3 -->
<g id="edge3" class="edge">
<title>Node2&#45;&gt;Node3</title>
<path fill="none" stroke="#191970" d="M324.8034,-179.2977C335.0262,-170.3163 347.9823,-158.9334 358.4896,-149.702"/>
<polygon fill="#191970" stroke="#191970" points="361.0897,-152.0766 366.2921,-142.8469 356.4695,-146.8178 361.0897,-152.0766"/>
</g>
<!-- Node4 -->
<g id="node5" class="node">
<title>Node4</title>
<polygon fill="#ffffff" stroke="#bfbfbf" points="51,-123.5 51,-142.5 152,-142.5 152,-123.5 51,-123.5"/>
<text text-anchor="middle" x="101.5" y="-130.5" font-family="Helvetica,sans-Serif" font-size="10.00" fill="#000000">AMReX_TagBox.H</text>
</g>
<!-- Node2&#45;&gt;Node4 -->
<g id="edge4" class="edge">
<title>Node2&#45;&gt;Node4</title>
<path fill="none" stroke="#191970" d="M257.1067,-179.4554C222.1321,-169.0139 176.0954,-155.27 143.1873,-145.4455"/>
<polygon fill="#191970" stroke="#191970" points="144.006,-142.0373 133.4227,-142.5303 142.0035,-148.7448 144.006,-142.0373"/>
</g>
<!-- Node5 -->
<g id="node6" class="node">
<title>Node5</title>
<g id="a_node6"><a xlink:href="_factory_8_h.html" target="_top" xlink:title="amr&#45;wind/core/Factory.H">
<polygon fill="#ffffff" stroke="#000000" points="170.5,-123.5 170.5,-142.5 304.5,-142.5 304.5,-123.5 170.5,-123.5"/>
<text text-anchor="middle" x="237.5" y="-130.5" font-family="Helvetica,sans-Serif" font-size="10.00" fill="#000000">amr&#45;wind/core/Factory.H</text>
</a>
</g>
</g>
<!-- Node2&#45;&gt;Node5 -->
<g id="edge5" class="edge">
<title>Node2&#45;&gt;Node5</title>
<path fill="none" stroke="#191970" d="M290.1966,-179.2977C279.9738,-170.3163 267.0177,-158.9334 256.5104,-149.702"/>
<polygon fill="#191970" stroke="#191970" points="258.5305,-146.8178 248.7079,-142.8469 253.9103,-152.0766 258.5305,-146.8178"/>
</g>
<!-- Node6 -->
<g id="node7" class="node">
<title>Node6</title>
<polygon fill="#ffffff" stroke="#bfbfbf" points="376.5,-62 376.5,-81 434.5,-81 434.5,-62 376.5,-62"/>
<text text-anchor="middle" x="405.5" y="-69" font-family="Helvetica,sans-Serif" font-size="10.00" fill="#000000">memory</text>
</g>
<!-- Node5&#45;&gt;Node6 -->
<g id="edge6" class="edge">
<title>Node5&#45;&gt;Node6</title>
<path fill="none" stroke="#191970" d="M265.2849,-123.4145C291.4809,-114.3011 331.7908,-100.081 366.5,-87 368.3408,-86.3062 370.2272,-85.5864 372.129,-84.8537"/>
<polygon fill="#191970" stroke="#191970" points="373.5857,-88.0423 381.6274,-81.1443 371.0393,-81.5219 373.5857,-88.0423"/>
</g>
<!-- Node7 -->
<g id="node8" class="node">
<title>Node7</title>
<polygon fill="#ffffff" stroke="#bfbfbf" points="0,-62 0,-81 93,-81 93,-62 0,-62"/>
<text text-anchor="middle" x="46.5" y="-69" font-family="Helvetica,sans-Serif" font-size="10.00" fill="#000000">unordered_map</text>
</g>
<!-- Node5&#45;&gt;Node7 -->
<g id="edge7" class="edge">
<title>Node5&#45;&gt;Node7</title>
<path fill="none" stroke="#191970" d="M207.6563,-123.3906C174.8575,-112.8298 122.0328,-95.8208 85.8636,-84.1747"/>
<polygon fill="#191970" stroke="#191970" points="86.7257,-80.7753 76.1342,-81.0419 84.5802,-87.4385 86.7257,-80.7753"/>
</g>
<!-- Node8 -->
<g id="node9" class="node">
<title>Node8</title>
<polygon fill="#ffffff" stroke="#bfbfbf" points="111.5,-62 111.5,-81 171.5,-81 171.5,-62 111.5,-62"/>
<text text-anchor="middle" x="141.5" y="-69" font-family="Helvetica,sans-Serif" font-size="10.00" fill="#000000">iostream</text>
</g>
<!-- Node5&#45;&gt;Node8 -->
<g id="edge8" class="edge">
<title>Node5&#45;&gt;Node8</title>
<path fill="none" stroke="#191970" d="M222.5,-123.3906C207.1419,-113.5519 183.0479,-98.1167 165.1255,-86.6351"/>
<polygon fill="#191970" stroke="#191970" points="166.703,-83.4891 156.3947,-81.0419 162.927,-89.3833 166.703,-83.4891"/>
</g>
<!-- Node9 -->
<g id="node10" class="node">
<title>Node9</title>
<polygon fill="#ffffff" stroke="#bfbfbf" points="190,-62 190,-81 279,-81 279,-62 190,-62"/>
<text text-anchor="middle" x="234.5" y="-69" font-family="Helvetica,sans-Serif" font-size="10.00" fill="#000000">AMReX_Print.H</text>
</g>
<!-- Node5&#45;&gt;Node9 -->
<g id="edge9" class="edge">
<title>Node5&#45;&gt;Node9</title>
<path fill="none" stroke="#191970" d="M237.0313,-123.3906C236.6154,-114.8657 235.9946,-102.1392 235.4719,-91.4235"/>
<polygon fill="#191970" stroke="#191970" points="238.9585,-91.0624 234.9754,-81.2449 231.9668,-91.4035 238.9585,-91.0624"/>
</g>
<!-- Node10 -->
<g id="node11" class="node">
<title>Node10</title>
<polygon fill="#ffffff" stroke="#bfbfbf" points="297,-62 297,-81 358,-81 358,-62 297,-62"/>
<text text-anchor="middle" x="327.5" y="-69" font-family="Helvetica,sans-Serif" font-size="10.00" fill="#000000">AMReX.H</text>
</g>
<!-- Node5&#45;&gt;Node10 -->
<g id="edge10" class="edge">
<title>Node5&#45;&gt;Node10</title>
<path fill="none" stroke="#191970" d="M251.5625,-123.3906C265.8286,-113.6421 288.135,-98.3994 304.8872,-86.9521"/>
<polygon fill="#191970" stroke="#191970" points="307.2545,-89.5736 313.5362,-81.0419 303.3051,-83.7941 307.2545,-89.5736"/>
</g>
<!-- Node12 -->
<g id="node13" class="node">
<title>Node12</title>
<g id="a_node13"><a xlink:href="vector_8_h.html" target="_top" xlink:title="amr&#45;wind/core/vs/vector.H">
<polygon fill="#ffffff" stroke="#000000" points="709.5,-123.5 709.5,-142.5 853.5,-142.5 853.5,-123.5 709.5,-123.5"/>
<text text-anchor="middle" x="781.5" y="-130.5" font-family="Helvetica,sans-Serif" font-size="10.00" fill="#000000">amr&#45;wind/core/vs/vector.H</text>
</a>
</g>
</g>
<!-- Node11&#45;&gt;Node12 -->
<g id="edge12" class="edge">
<title>Node11&#45;&gt;Node12</title>
<path fill="none" stroke="#191970" d="M603.2484,-246.4042C619.3935,-236.1406 641.2368,-222.253 660.5,-210 694.2196,-188.5515 733.2182,-163.7318 757.6231,-148.1984"/>
<polygon fill="#191970" stroke="#191970" points="759.6638,-151.0484 766.2205,-142.7261 755.905,-145.1431 759.6638,-151.0484"/>
</g>
<!-- Node20 -->
<g id="node21" class="node">
<title>Node20</title>
<g id="a_node21"><a xlink:href="tensor_8_h.html" target="_top" xlink:title="amr&#45;wind/core/vs/tensor.H">
<polygon fill="#ffffff" stroke="#000000" points="507.5,-185 507.5,-204 651.5,-204 651.5,-185 507.5,-185"/>
<text text-anchor="middle" x="579.5" y="-192" font-family="Helvetica,sans-Serif" font-size="10.00" fill="#000000">amr&#45;wind/core/vs/tensor.H</text>
</a>
</g>
</g>
<!-- Node11&#45;&gt;Node20 -->
<g id="edge21" class="edge">
<title>Node11&#45;&gt;Node20</title>
<path fill="none" stroke="#191970" d="M579.5,-246.2967C579.5,-236.7699 579.5,-224.3954 579.5,-214.1306"/>
<polygon fill="#191970" stroke="#191970" points="583.0001,-214.0549 579.5,-204.055 576.0001,-214.055 583.0001,-214.0549"/>
</g>
<!-- Node13 -->
<g id="node14" class="node">
<title>Node13</title>
<polygon fill="#ffffff" stroke="#bfbfbf" points="443.5,-.5 443.5,-19.5 529.5,-19.5 529.5,-.5 443.5,-.5"/>
<text text-anchor="middle" x="486.5" y="-7.5" font-family="Helvetica,sans-Serif" font-size="10.00" fill="#000000">AMReX_Gpu.H</text>
</g>
<!-- Node12&#45;&gt;Node13 -->
<g id="edge13" class="edge">
<title>Node12&#45;&gt;Node13</title>
<path fill="none" stroke="#191970" d="M709.3966,-123.9135C637.064,-114.2331 534.2978,-98.7201 519.5,-87 501.6553,-72.8667 493.2954,-47.233 489.4928,-29.4442"/>
<polygon fill="#191970" stroke="#191970" points="492.9248,-28.7549 487.67,-19.555 486.0407,-30.0238 492.9248,-28.7549"/>
</g>
<!-- Node14 -->
<g id="node15" class="node">
<title>Node14</title>
<g id="a_node15"><a xlink:href="vstraits_8_h.html" target="_top" xlink:title="amr&#45;wind/core/vs/vstraits.H">
<polygon fill="#ffffff" stroke="#000000" points="687,-62 687,-81 838,-81 838,-62 687,-62"/>
<text text-anchor="middle" x="762.5" y="-69" font-family="Helvetica,sans-Serif" font-size="10.00" fill="#000000">amr&#45;wind/core/vs/vstraits.H</text>
</a>
</g>
</g>
<!-- Node12&#45;&gt;Node14 -->
<g id="edge14" class="edge">
<title>Node12&#45;&gt;Node14</title>
<path fill="none" stroke="#191970" d="M778.5313,-123.3906C775.8698,-114.776 771.8829,-101.8708 768.5509,-91.0858"/>
<polygon fill="#191970" stroke="#191970" points="771.8065,-89.7661 765.5106,-81.2449 765.1184,-91.8324 771.8065,-89.7661"/>
</g>
<!-- Node17 -->
<g id="node18" class="node">
<title>Node17</title>
<g id="a_node18"><a xlink:href="vector_i_8_h.html" target="_top" xlink:title="amr&#45;wind/core/vs/vectorI.H">
<polygon fill="#ffffff" stroke="#000000" points="856.5,-62 856.5,-81 1004.5,-81 1004.5,-62 856.5,-62"/>
<text text-anchor="middle" x="930.5" y="-69" font-family="Helvetica,sans-Serif" font-size="10.00" fill="#000000">amr&#45;wind/core/vs/vectorI.H</text>
</a>
</g>
</g>
<!-- Node12&#45;&gt;Node17 -->
<g id="edge17" class="edge">
<title>Node12&#45;&gt;Node17</title>
<path fill="none" stroke="#191970" d="M799.7188,-123.3906C822.8424,-113.0103 862.8821,-96.4004 892.6651,-84.7766"/>
<polygon fill="#191970" stroke="#191970" points="894.266,-87.9103 902.3329,-81.0419 891.7435,-81.3805 894.266,-87.9103"/>
</g>
<!-- Node15 -->
<g id="node16" class="node">
<title>Node15</title>
<polygon fill="#ffffff" stroke="#bfbfbf" points="740.5,-.5 740.5,-19.5 784.5,-19.5 784.5,-.5 740.5,-.5"/>
<text text-anchor="middle" x="762.5" y="-7.5" font-family="Helvetica,sans-Serif" font-size="10.00" fill="#000000">limits</text>
</g>
<!-- Node14&#45;&gt;Node15 -->
<g id="edge15" class="edge">
<title>Node14&#45;&gt;Node15</title>
<path fill="none" stroke="#191970" d="M762.5,-61.8906C762.5,-53.3657 762.5,-40.6392 762.5,-29.9235"/>
<polygon fill="#191970" stroke="#191970" points="766.0001,-29.7448 762.5,-19.7449 759.0001,-29.7449 766.0001,-29.7448"/>
</g>
<!-- Node16 -->
<g id="node17" class="node">
<title>Node16</title>
<polygon fill="#ffffff" stroke="#bfbfbf" points="548,-.5 548,-19.5 639,-19.5 639,-.5 548,-.5"/>
<text text-anchor="middle" x="593.5" y="-7.5" font-family="Helvetica,sans-Serif" font-size="10.00" fill="#000000">AMReX_REAL.H</text>
</g>
<!-- Node14&#45;&gt;Node16 -->
<g id="edge16" class="edge">
<title>Node14&#45;&gt;Node16</title>
<path fill="none" stroke="#191970" d="M736.0938,-61.8906C707.3209,-51.42 661.1304,-34.6111 629.1534,-22.9745"/>
<polygon fill="#191970" stroke="#191970" points="630.3149,-19.6726 619.7208,-19.5419 627.921,-26.2506 630.3149,-19.6726"/>
</g>
<!-- Node17&#45;&gt;Node12 -->
<g id="edge20" class="edge">
<title>Node17&#45;&gt;Node12</title>
<path fill="none" stroke="#191970" d="M912.4315,-81.0419C889.3814,-91.3952 849.3563,-108.0023 819.5289,-119.6477"/>
<polygon fill="#191970" stroke="#191970" points="817.9098,-116.5211 809.8438,-123.3906 820.4331,-123.0505 817.9098,-116.5211"/>
</g>
<!-- Node18 -->
<g id="node19" class="node">
<title>Node18</title>
<polygon fill="#ffffff" stroke="#bfbfbf" points="902,-.5 902,-19.5 959,-19.5 959,-.5 902,-.5"/>
<text text-anchor="middle" x="930.5" y="-7.5" font-family="Helvetica,sans-Serif" font-size="10.00" fill="#000000">ostream</text>
</g>
<!-- Node17&#45;&gt;Node18 -->
<g id="edge18" class="edge">
<title>Node17&#45;&gt;Node18</title>
<path fill="none" stroke="#191970" d="M930.5,-61.8906C930.5,-53.3657 930.5,-40.6392 930.5,-29.9235"/>
<polygon fill="#191970" stroke="#191970" points="934.0001,-29.7448 930.5,-19.7449 927.0001,-29.7449 934.0001,-29.7448"/>
</g>
<!-- Node19 -->
<g id="node20" class="node">
<title>Node19</title>
<polygon fill="#ffffff" stroke="#bfbfbf" points="657,-.5 657,-19.5 704,-19.5 704,-.5 657,-.5"/>
<text text-anchor="middle" x="680.5" y="-7.5" font-family="Helvetica,sans-Serif" font-size="10.00" fill="#000000">cmath</text>
</g>
<!-- Node17&#45;&gt;Node19 -->
<g id="edge19" class="edge">
<title>Node17&#45;&gt;Node19</title>
<path fill="none" stroke="#191970" d="M891.7118,-61.9581C843.0046,-49.9761 760.2474,-29.6179 714.1111,-18.2683"/>
<polygon fill="#191970" stroke="#191970" points="714.8487,-14.8455 704.3021,-15.8553 713.1765,-21.6429 714.8487,-14.8455"/>
</g>
<!-- Node20&#45;&gt;Node12 -->
<g id="edge24" class="edge">
<title>Node20&#45;&gt;Node12</title>
<path fill="none" stroke="#191970" d="M611.0625,-184.8906C645.8985,-174.2846 702.095,-157.1753 740.3588,-145.5257"/>
<polygon fill="#191970" stroke="#191970" points="741.6121,-148.8028 750.1591,-142.5419 739.5733,-142.1063 741.6121,-148.8028"/>
</g>
<!-- Node20&#45;&gt;Node13 -->
<g id="edge22" class="edge">
<title>Node20&#45;&gt;Node13</title>
<path fill="none" stroke="#191970" d="M551.4033,-184.864C532.4817,-176.7981 508.8131,-163.2989 496.5,-143 475.0735,-107.6771 478.6559,-56.988 482.795,-29.509"/>
<polygon fill="#191970" stroke="#191970" points="486.2587,-30.017 484.4736,-19.5737 479.3565,-28.8508 486.2587,-30.017"/>
</g>
<!-- Node20&#45;&gt;Node14 -->
<g id="edge23" class="edge">
<title>Node20&#45;&gt;Node14</title>
<path fill="none" stroke="#191970" d="M595.6082,-184.9326C612.4763,-174.8148 639.6421,-158.2396 662.5,-143 690.3433,-124.4366 721.5933,-101.7903 741.6318,-87.0265"/>
<polygon fill="#191970" stroke="#191970" points="743.7838,-89.7882 749.7439,-81.0287 739.6222,-84.1596 743.7838,-89.7882"/>
</g>
<!-- Node21 -->
<g id="node22" class="node">
<title>Node21</title>
<g id="a_node22"><a xlink:href="tensor_i_8_h.html" target="_top" xlink:title="amr&#45;wind/core/vs/tensorI.H">
<polygon fill="#ffffff" stroke="#000000" points="505.5,-123.5 505.5,-142.5 653.5,-142.5 653.5,-123.5 505.5,-123.5"/>
<text text-anchor="middle" x="579.5" y="-130.5" font-family="Helvetica,sans-Serif" font-size="10.00" fill="#000000">amr&#45;wind/core/vs/tensorI.H</text>
</a>
</g>
</g>
<!-- Node20&#45;&gt;Node21 -->
<g id="edge25" class="edge">
<title>Node20&#45;&gt;Node21</title>
<path fill="none" stroke="#191970" d="M574.4375,-184.8906C572.7741,-176.3657 572.3404,-163.6392 573.1365,-152.9235"/>
<polygon fill="#191970" stroke="#191970" points="576.6414,-153.1023 574.4112,-142.7449 569.6956,-152.2324 576.6414,-153.1023"/>
</g>
<!-- Node21&#45;&gt;Node19 -->
<g id="edge26" class="edge">
<title>Node21&#45;&gt;Node19</title>
<path fill="none" stroke="#191970" d="M595.5568,-123.4291C608.6048,-115.0555 626.856,-101.9204 639.5,-87 654.2789,-69.5603 665.8832,-45.9182 672.9189,-29.45"/>
<polygon fill="#191970" stroke="#191970" points="676.3194,-30.3818 676.8701,-19.8013 669.8415,-27.7291 676.3194,-30.3818"/>
</g>
<!-- Node21&#45;&gt;Node20 -->
<g id="edge27" class="edge">
<title>Node21&#45;&gt;Node20</title>
<path fill="none" stroke="#191970" d="M584.5888,-142.7449C586.2392,-151.314 586.6598,-164.0519 585.8508,-174.7462"/>
<polygon fill="#191970" stroke="#191970" points="582.3503,-174.5293 584.5625,-184.8906 589.2945,-175.4113 582.3503,-174.5293"/>
</g>
<!-- Node22 -->
<g id="node23" class="node">
<title>Node22</title>
<g id="a_node23"><a xlink:href="trig__ops_8_h.html" target="_top" xlink:title="Trigonometric utilities. ">
<polygon fill="#ffffff" stroke="#000000" points="528.5,-56.5 528.5,-86.5 630.5,-86.5 630.5,-56.5 528.5,-56.5"/>
<text text-anchor="start" x="536.5" y="-74.5" font-family="Helvetica,sans-Serif" font-size="10.00" fill="#000000">amr&#45;wind/utilities</text>
<text text-anchor="middle" x="579.5" y="-63.5" font-family="Helvetica,sans-Serif" font-size="10.00" fill="#000000">/trig_ops.H</text>
</a>
</g>
</g>
<!-- Node21&#45;&gt;Node22 -->
<g id="edge28" class="edge">
<title>Node21&#45;&gt;Node22</title>
<path fill="none" stroke="#191970" d="M579.5,-123.3906C579.5,-116.2234 579.5,-106.0862 579.5,-96.671"/>
<polygon fill="#191970" stroke="#191970" points="583.0001,-96.5446 579.5,-86.5446 576.0001,-96.5446 583.0001,-96.5446"/>
</g>
<!-- Node22&#45;&gt;Node13 -->
<g id="edge31" class="edge">
<title>Node22&#45;&gt;Node13</title>
<path fill="none" stroke="#191970" d="M556.5112,-56.2977C542.3034,-46.9022 524.1215,-34.8787 509.8475,-25.4395"/>
<polygon fill="#191970" stroke="#191970" points="511.3845,-22.2598 501.1128,-19.6633 507.5233,-28.0986 511.3845,-22.2598"/>
</g>
<!-- Node22&#45;&gt;Node16 -->
<g id="edge30" class="edge">
<title>Node22&#45;&gt;Node16</title>
<path fill="none" stroke="#191970" d="M582.9607,-56.2977C584.7826,-48.2945 587.0385,-38.3843 588.9952,-29.7889"/>
<polygon fill="#191970" stroke="#191970" points="592.4514,-30.3744 591.2584,-19.8469 585.626,-28.8206 592.4514,-30.3744"/>
</g>
<!-- Node22&#45;&gt;Node19 -->
<g id="edge29" class="edge">
<title>Node22&#45;&gt;Node19</title>
<path fill="none" stroke="#191970" d="M604.2074,-56.4554C620.0247,-46.8241 640.4567,-34.3828 656.1949,-24.7996"/>
<polygon fill="#191970" stroke="#191970" points="658.1277,-27.7206 664.8486,-19.5303 654.4871,-21.7418 658.1277,-27.7206"/>
</g>
</g>
</svg>
        <g id="navigator" transform="translate(0 0)" fill="#404254">
                <rect fill="#f2f5e9" fill-opacity="0.5" stroke="#606060" stroke-width=".5" x="0" y="0" width="60" height="60"/>
                <use id="zoomplus" xlink:href="#zoomPlus" x="17" y="9" onmousedown="handleZoom(evt,'in')"/>
                <use id="zoomminus" xlink:href="#zoomMin" x="42" y="9" onmousedown="handleZoom(evt,'out')"/>
                <use id="reset" xlink:href="#resetDef" x="30" y="36" onmousedown="handleReset()"/>
                <g id="arrowUp" xlink:href="#dirArrow" transform="translate(30 24)" onmousedown="handlePan(0,-1)">
                  <use xlink:href="#rim" fill="#404040">
                        <set attributeName="fill" to="#808080" begin="arrowUp.mouseover" end="arrowUp.mouseout"/>
                  </use>
                  <path fill="none" stroke="white" stroke-width="1.5" d="M0,-3.0v7 M-2.5,-0.5L0,-3.0L2.5,-0.5"/>
                </g>
                <g id="arrowRight" xlink:href="#dirArrow" transform="rotate(90) translate(36 -43)" onmousedown="handlePan(1,0)">
                  <use xlink:href="#rim" fill="#404040">
                        <set attributeName="fill" to="#808080" begin="arrowRight.mouseover" end="arrowRight.mouseout"/>
                  </use>
                  <path fill="none" stroke="white" stroke-width="1.5" d="M0,-3.0v7 M-2.5,-0.5L0,-3.0L2.5,-0.5"/>
                </g>
                <g id="arrowDown" xlink:href="#dirArrow" transform="rotate(180) translate(-30 -48)" onmousedown="handlePan(0,1)">
                  <use xlink:href="#rim" fill="#404040">
                        <set attributeName="fill" to="#808080" begin="arrowDown.mouseover" end="arrowDown.mouseout"/>
                  </use>
                  <path fill="none" stroke="white" stroke-width="1.5" d="M0,-3.0v7 M-2.5,-0.5L0,-3.0L2.5,-0.5"/>
                </g>
                <g id="arrowLeft" xlink:href="#dirArrow" transform="rotate(270) translate(-36 17)" onmousedown="handlePan(-1,0)">
                  <use xlink:href="#rim" fill="#404040">
                        <set attributeName="fill" to="#808080" begin="arrowLeft.mouseover" end="arrowLeft.mouseout"/>
                  </use>
                  <path fill="none" stroke="white" stroke-width="1.5" d="M0,-3.0v7 M-2.5,-0.5L0,-3.0L2.5,-0.5"/>
                </g>
        </g>
        <svg viewBox="0 0 15 15" width="100%" height="30px" preserveAspectRatio="xMaxYMin meet">
         <g id="arrow_out" transform="scale(0.3 0.3)">
          <a xlink:href="_cylinder_refiner_8_h__incl_org.svg" target="_base">
           <rect id="button" ry="5" rx="5" y="6" x="6" height="38" width="38"
                fill="#f2f5e9" fill-opacity="0.5" stroke="#606060" stroke-width="1.0"/>
           <path id="arrow"
             d="M 11.500037,31.436501 C 11.940474,20.09759 22.043105,11.32322 32.158766,21.979434 L 37.068811,17.246167 C 37.068811,17.246167 37.088388,32 37.088388,32 L 22.160133,31.978069 C 22.160133,31.978069 26.997745,27.140456 26.997745,27.140456 C 18.528582,18.264221 13.291696,25.230495 11.500037,31.436501 z"
             style="fill:#404040;"/>
          </a>
         </g>
        </svg>
</svg>
