<?xml version="1.0" encoding="UTF-8" standalone="no"?>
<!DOCTYPE svg PUBLIC "-//W3C//DTD SVG 1.1//EN"
 "http://www.w3.org/Graphics/SVG/1.1/DTD/svg11.dtd">
<!-- Generated by graphviz version 2.40.1 (20161225.0304)
 -->
<!-- Title: DirectionSelector.H Pages: 1 -->
<!--zoomable 319 -->
<svg id="main" version="1.1" xmlns="http://www.w3.org/2000/svg" xmlns:xlink="http://www.w3.org/1999/xlink" xml:space="preserve" onload="init(evt)">
<style type="text/css"><![CDATA[
.edge:hover path { stroke: red; }
.edge:hover polygon { stroke: red; fill: red; }
]]></style>
<script type="text/javascript"><![CDATA[
var edges = document.getElementsByTagName('g');
if (edges && edges.length) {
  for (var i=0;i<edges.length;i++) {
    if (edges[i].id.substr(0,4)=='edge') {
      edges[i].setAttribute('class','edge');
    }
  }
}
]]></script>
        <defs>
                <circle id="rim" cx="0" cy="0" r="7"/>
                <circle id="rim2" cx="0" cy="0" r="3.5"/>
                <g id="zoomPlus">
                        <use xlink:href="#rim" fill="#404040">
                                <set attributeName="fill" to="#808080" begin="zoomplus.mouseover" end="zoomplus.mouseout"/>
                        </use>
                        <path d="M-4,0h8M0,-4v8" fill="none" stroke="white" stroke-width="1.5" pointer-events="none"/>
                </g>
                <g id="zoomMin">
                        <use xlink:href="#rim" fill="#404040">
                                <set attributeName="fill" to="#808080" begin="zoomminus.mouseover" end="zoomminus.mouseout"/>
                        </use>
                        <path d="M-4,0h8" fill="none" stroke="white" stroke-width="1.5" pointer-events="none"/>
                </g>
                <g id="dirArrow">
                        <path fill="none" stroke="white" stroke-width="1.5" d="M0,-3.0v7 M-2.5,-0.5L0,-3.0L2.5,-0.5"/>
                </g>
               <g id="resetDef">
                       <use xlink:href="#rim2" fill="#404040">
                               <set attributeName="fill" to="#808080" begin="reset.mouseover" end="reset.mouseout"/>
                       </use>
               </g>
        </defs>

<script type="text/javascript">
var viewWidth = 1231;
var viewHeight = 319;
var sectionId = 'dynsection-1';
</script>
<script xlink:href="svgpan.js"/>
<svg id="graph" class="graph">
<g id="viewport">
<title>DirectionSelector.H</title>
<polygon fill="#ffffff" stroke="transparent" points="-4,4 -4,-315 1226.5,-315 1226.5,4 -4,4"/>
<!-- Node3 -->
<g id="node1" class="node">
<title>Node3</title>
<polygon fill="#bfbfbf" stroke="#000000" points="955,-291.5 955,-310.5 1065,-310.5 1065,-291.5 955,-291.5"/>
<text text-anchor="middle" x="1010" y="-298.5" font-family="Helvetica,sans-Serif" font-size="10.00" fill="#000000">DirectionSelector.H</text>
</g>
<!-- Node4 -->
<g id="node2" class="node">
<title>Node4</title>
<g id="a_node2"><a xlink:href="_field_plane_averaging_8_h.html" target="_top" xlink:title="FieldPlaneAveraging.H">
<polygon fill="#ffffff" stroke="#000000" points="432.5,-235.5 432.5,-254.5 557.5,-254.5 557.5,-235.5 432.5,-235.5"/>
<text text-anchor="middle" x="495" y="-242.5" font-family="Helvetica,sans-Serif" font-size="10.00" fill="#000000">FieldPlaneAveraging.H</text>
</a>
</g>
</g>
<!-- Node3&#45;&gt;Node4 -->
<g id="edge1" class="edge">
<title>Node3&#45;&gt;Node4</title>
<path fill="none" stroke="#191970" d="M944.9392,-293.9254C845.2483,-283.0853 655.9522,-262.5016 557.6985,-251.8177"/>
<polygon fill="#191970" stroke="#191970" points="944.5662,-297.4054 954.886,-295.007 945.323,-290.4464 944.5662,-297.4054"/>
</g>
<!-- Node15 -->
<g id="node13" class="node">
<title>Node15</title>
<g id="a_node13"><a xlink:href="_a_b_l_stats_8cpp.html" target="_top" xlink:title="ABLStats.cpp">
<polygon fill="#ffffff" stroke="#000000" points="776,-67.5 776,-86.5 856,-86.5 856,-67.5 776,-67.5"/>
<text text-anchor="middle" x="816" y="-74.5" font-family="Helvetica,sans-Serif" font-size="10.00" fill="#000000">ABLStats.cpp</text>
</a>
</g>
</g>
<!-- Node3&#45;&gt;Node15 -->
<g id="edge39" class="edge">
<title>Node3&#45;&gt;Node15</title>
<path fill="none" stroke="#191970" d="M1014.2624,-281.2654C1020.8171,-245.156 1028.8717,-168.0313 990,-123 972.6963,-102.9543 902.0268,-89.2876 856.2453,-82.3405"/>
<polygon fill="#191970" stroke="#191970" points="1010.7539,-280.9665 1012.2484,-291.4554 1017.621,-282.3238 1010.7539,-280.9665"/>
</g>
<!-- Node17 -->
<g id="node15" class="node">
<title>Node17</title>
<g id="a_node15"><a xlink:href="_second_moment_averaging_8_h.html" target="_top" xlink:title="SecondMomentAveraging.H">
<polygon fill="#ffffff" stroke="#000000" points="824.5,-179.5 824.5,-198.5 975.5,-198.5 975.5,-179.5 824.5,-179.5"/>
<text text-anchor="middle" x="900" y="-186.5" font-family="Helvetica,sans-Serif" font-size="10.00" fill="#000000">SecondMomentAveraging.H</text>
</a>
</g>
</g>
<!-- Node3&#45;&gt;Node17 -->
<g id="edge31" class="edge">
<title>Node3&#45;&gt;Node17</title>
<path fill="none" stroke="#191970" d="M993.4545,-284.1536C970.0378,-260.3113 928.0064,-217.5156 909.3548,-198.5249"/>
<polygon fill="#191970" stroke="#191970" points="991.1173,-286.7689 1000.6215,-291.4509 996.1114,-281.8639 991.1173,-286.7689"/>
</g>
<!-- Node19 -->
<g id="node17" class="node">
<title>Node19</title>
<g id="a_node17"><a xlink:href="_third_moment_averaging_8_h.html" target="_top" xlink:title="ThirdMomentAveraging.H">
<polygon fill="#ffffff" stroke="#000000" points="561,-179.5 561,-198.5 701,-198.5 701,-179.5 561,-179.5"/>
<text text-anchor="middle" x="631" y="-186.5" font-family="Helvetica,sans-Serif" font-size="10.00" fill="#000000">ThirdMomentAveraging.H</text>
</a>
</g>
</g>
<!-- Node3&#45;&gt;Node19 -->
<g id="edge32" class="edge">
<title>Node3&#45;&gt;Node19</title>
<path fill="none" stroke="#191970" d="M967.92,-288.5647C891.5441,-265.9945 731.6858,-218.7541 663.2315,-198.5249"/>
<polygon fill="#191970" stroke="#191970" points="967.1047,-291.9734 977.6867,-291.4509 969.0886,-285.2604 967.1047,-291.9734"/>
</g>
<!-- Node23 -->
<g id="node21" class="node">
<title>Node23</title>
<g id="a_node21"><a xlink:href="_plane_averaging_8_h.html" target="_top" xlink:title="PlaneAveraging.H">
<polygon fill="#ffffff" stroke="#000000" points="1035.5,-67.5 1035.5,-86.5 1138.5,-86.5 1138.5,-67.5 1035.5,-67.5"/>
<text text-anchor="middle" x="1087" y="-74.5" font-family="Helvetica,sans-Serif" font-size="10.00" fill="#000000">PlaneAveraging.H</text>
</a>
</g>
</g>
<!-- Node3&#45;&gt;Node23 -->
<g id="edge33" class="edge">
<title>Node3&#45;&gt;Node23</title>
<path fill="none" stroke="#191970" d="M1033.7348,-285.3193C1043.7649,-277.4318 1054.5876,-266.9939 1061,-255 1091.9219,-197.1626 1089.6083,-114.4363 1087.7784,-86.5739"/>
<polygon fill="#191970" stroke="#191970" points="1031.5726,-282.5651 1025.6103,-291.3231 1035.7328,-288.1948 1031.5726,-282.5651"/>
</g>
<!-- Node26 -->
<g id="node24" class="node">
<title>Node26</title>
<g id="a_node24"><a xlink:href="_channel_flow_8cpp.html" target="_top" xlink:title="ChannelFlow.cpp">
<polygon fill="#ffffff" stroke="#000000" points="1113,-235.5 1113,-254.5 1211,-254.5 1211,-235.5 1113,-235.5"/>
<text text-anchor="middle" x="1162" y="-242.5" font-family="Helvetica,sans-Serif" font-size="10.00" fill="#000000">ChannelFlow.cpp</text>
</a>
</g>
</g>
<!-- Node3&#45;&gt;Node26 -->
<g id="edge38" class="edge">
<title>Node3&#45;&gt;Node26</title>
<path fill="none" stroke="#191970" d="M1045.859,-287.7888C1073.6123,-277.5639 1111.3819,-263.6488 1136.2112,-254.5011"/>
<polygon fill="#191970" stroke="#191970" points="1044.3032,-284.6319 1036.1297,-291.3733 1046.7232,-291.2003 1044.3032,-284.6319"/>
</g>
<!-- Node5 -->
<g id="node3" class="node">
<title>Node5</title>
<g id="a_node3"><a xlink:href="_a_b_l_wall_function_8_h.html" target="_top" xlink:title="ABLWallFunction.H">
<polygon fill="#ffffff" stroke="#000000" points="283.5,-179.5 283.5,-198.5 390.5,-198.5 390.5,-179.5 283.5,-179.5"/>
<text text-anchor="middle" x="337" y="-186.5" font-family="Helvetica,sans-Serif" font-size="10.00" fill="#000000">ABLWallFunction.H</text>
</a>
</g>
</g>
<!-- Node4&#45;&gt;Node5 -->
<g id="edge2" class="edge">
<title>Node4&#45;&gt;Node5</title>
<path fill="none" stroke="#191970" d="M458.1045,-231.9231C429.2213,-221.686 389.7294,-207.6889 363.8067,-198.5011"/>
<polygon fill="#191970" stroke="#191970" points="457.2441,-235.3314 467.8388,-235.3733 459.5826,-228.7336 457.2441,-235.3314"/>
</g>
<!-- Node6 -->
<g id="node4" class="node">
<title>Node6</title>
<g id="a_node4"><a xlink:href="_a_b_l_8_h.html" target="_top" xlink:title="ABL.H">
<polygon fill="#ffffff" stroke="#000000" points="344,-67.5 344,-86.5 390,-86.5 390,-67.5 344,-67.5"/>
<text text-anchor="middle" x="367" y="-74.5" font-family="Helvetica,sans-Serif" font-size="10.00" fill="#000000">ABL.H</text>
</a>
</g>
</g>
<!-- Node4&#45;&gt;Node6 -->
<g id="edge16" class="edge">
<title>Node4&#45;&gt;Node6</title>
<path fill="none" stroke="#191970" d="M481.3614,-227.0993C454.4612,-191.7928 395.3672,-114.232 374.4879,-86.8279"/>
<polygon fill="#191970" stroke="#191970" points="478.9069,-229.6531 487.7514,-235.4862 484.475,-225.4107 478.9069,-229.6531"/>
</g>
<!-- Node12 -->
<g id="node10" class="node">
<title>Node12</title>
<g id="a_node10"><a xlink:href="_a_b_l_8cpp.html" target="_top" xlink:title="ABL.cpp">
<polygon fill="#ffffff" stroke="#000000" points="676,-6 676,-25 732,-25 732,-6 676,-6"/>
<text text-anchor="middle" x="704" y="-13" font-family="Helvetica,sans-Serif" font-size="10.00" fill="#000000">ABL.cpp</text>
</a>
</g>
</g>
<!-- Node4&#45;&gt;Node12 -->
<g id="edge30" class="edge">
<title>Node4&#45;&gt;Node12</title>
<path fill="none" stroke="#191970" d="M493.297,-225.3863C492.0737,-199.566 493.5312,-153.8439 515,-123 536.2418,-92.4823 636.7128,-45.2741 681.8954,-25.135"/>
<polygon fill="#191970" stroke="#191970" points="489.8088,-225.6813 493.96,-235.429 496.7935,-225.2201 489.8088,-225.6813"/>
</g>
<!-- Node14 -->
<g id="node12" class="node">
<title>Node14</title>
<g id="a_node12"><a xlink:href="_a_b_l_stats_8_h.html" target="_top" xlink:title="ABLStats.H">
<polygon fill="#ffffff" stroke="#000000" points="523.5,-123.5 523.5,-142.5 594.5,-142.5 594.5,-123.5 523.5,-123.5"/>
<text text-anchor="middle" x="559" y="-130.5" font-family="Helvetica,sans-Serif" font-size="10.00" fill="#000000">ABLStats.H</text>
</a>
</g>
</g>
<!-- Node4&#45;&gt;Node14 -->
<g id="edge17" class="edge">
<title>Node4&#45;&gt;Node14</title>
<path fill="none" stroke="#191970" d="M505.5301,-226.5723C519.3075,-202.4618 542.9413,-161.1028 553.5572,-142.5249"/>
<polygon fill="#191970" stroke="#191970" points="502.3792,-225.032 500.4566,-235.4509 508.4569,-228.505 502.3792,-225.032"/>
</g>
<!-- Node4&#45;&gt;Node17 -->
<g id="edge18" class="edge">
<title>Node4&#45;&gt;Node17</title>
<path fill="none" stroke="#191970" d="M568.1086,-234.8912C642.8688,-224.5539 758.1152,-208.6186 831.252,-198.5059"/>
<polygon fill="#191970" stroke="#191970" points="567.2632,-231.4747 557.8369,-236.3114 568.2221,-238.4087 567.2632,-231.4747"/>
</g>
<!-- Node4&#45;&gt;Node19 -->
<g id="edge22" class="edge">
<title>Node4&#45;&gt;Node19</title>
<path fill="none" stroke="#191970" d="M527.7399,-231.5189C552.5083,-221.3201 585.905,-207.5685 607.9258,-198.5011"/>
<polygon fill="#191970" stroke="#191970" points="526.2934,-228.3293 518.3792,-235.3733 528.9587,-234.8021 526.2934,-228.3293"/>
</g>
<!-- Node21 -->
<g id="node19" class="node">
<title>Node21</title>
<g id="a_node19"><a xlink:href="_a_b_l_mean_boussinesq_8_h.html" target="_top" xlink:title="ABLMeanBoussinesq.H">
<polygon fill="#ffffff" stroke="#000000" points="408,-67.5 408,-86.5 536,-86.5 536,-67.5 408,-67.5"/>
<text text-anchor="middle" x="472" y="-74.5" font-family="Helvetica,sans-Serif" font-size="10.00" fill="#000000">ABLMeanBoussinesq.H</text>
</a>
</g>
</g>
<!-- Node4&#45;&gt;Node21 -->
<g id="edge26" class="edge">
<title>Node4&#45;&gt;Node21</title>
<path fill="none" stroke="#191970" d="M488.0657,-225.645C485.4284,-217.5174 482.6615,-207.901 481,-199 473.2838,-157.6625 472.1198,-107.2879 471.9884,-86.5837"/>
<polygon fill="#191970" stroke="#191970" points="484.8133,-226.9517 491.3541,-235.2865 491.4386,-224.692 484.8133,-226.9517"/>
</g>
<!-- Node22 -->
<g id="node20" class="node">
<title>Node22</title>
<g id="a_node20"><a xlink:href="_field_plane_averaging_8cpp.html" target="_top" xlink:title="FieldPlaneAveraging.cpp">
<polygon fill="#ffffff" stroke="#000000" points="130.5,-179.5 130.5,-198.5 265.5,-198.5 265.5,-179.5 130.5,-179.5"/>
<text text-anchor="middle" x="198" y="-186.5" font-family="Helvetica,sans-Serif" font-size="10.00" fill="#000000">FieldPlaneAveraging.cpp</text>
</a>
</g>
</g>
<!-- Node4&#45;&gt;Node22 -->
<g id="edge29" class="edge">
<title>Node4&#45;&gt;Node22</title>
<path fill="none" stroke="#191970" d="M434.3557,-233.5654C379.58,-223.2373 299.9028,-208.214 248.5095,-198.5237"/>
<polygon fill="#191970" stroke="#191970" points="433.806,-237.0233 444.2813,-235.4369 435.103,-230.1445 433.806,-237.0233"/>
</g>
<!-- Node5&#45;&gt;Node6 -->
<g id="edge3" class="edge">
<title>Node5&#45;&gt;Node6</title>
<path fill="none" stroke="#191970" d="M342.1968,-169.5987C348.6885,-145.363 359.5388,-104.8551 364.4487,-86.5249"/>
<polygon fill="#191970" stroke="#191970" points="338.7644,-168.8859 339.5578,-179.4509 345.526,-170.6971 338.7644,-168.8859"/>
</g>
<!-- Node13 -->
<g id="node11" class="node">
<title>Node13</title>
<g id="a_node11"><a xlink:href="_a_b_l_wall_function_8cpp.html" target="_top" xlink:title="ABLWallFunction.cpp">
<polygon fill="#ffffff" stroke="#000000" points="0,-6 0,-25 116,-25 116,-6 0,-6"/>
<text text-anchor="middle" x="58" y="-13" font-family="Helvetica,sans-Serif" font-size="10.00" fill="#000000">ABLWallFunction.cpp</text>
</a>
</g>
</g>
<!-- Node5&#45;&gt;Node13 -->
<g id="edge15" class="edge">
<title>Node5&#45;&gt;Node13</title>
<path fill="none" stroke="#191970" d="M286.9142,-176.6409C261.1129,-169.0673 229.7505,-157.9297 204,-143 144.9011,-108.7354 87.7246,-48.6404 66.5831,-25.2259"/>
<polygon fill="#191970" stroke="#191970" points="286.2931,-180.1029 296.8689,-179.4691 288.2061,-173.3694 286.2931,-180.1029"/>
</g>
<!-- Node5&#45;&gt;Node14 -->
<g id="edge11" class="edge">
<title>Node5&#45;&gt;Node14</title>
<path fill="none" stroke="#191970" d="M384.8266,-176.9356C426.4692,-166.4312 485.8947,-151.441 523.4473,-141.9682"/>
<polygon fill="#191970" stroke="#191970" points="383.7511,-173.5972 374.9109,-179.4369 385.4633,-180.3846 383.7511,-173.5972"/>
</g>
<!-- Node16 -->
<g id="node14" class="node">
<title>Node16</title>
<g id="a_node14"><a xlink:href="_boussinesq_bubble_8cpp.html" target="_top" xlink:title="BoussinesqBubble.cpp">
<polygon fill="#ffffff" stroke="#000000" points="213,-123.5 213,-142.5 339,-142.5 339,-123.5 213,-123.5"/>
<text text-anchor="middle" x="276" y="-130.5" font-family="Helvetica,sans-Serif" font-size="10.00" fill="#000000">BoussinesqBubble.cpp</text>
</a>
</g>
</g>
<!-- Node5&#45;&gt;Node16 -->
<g id="edge14" class="edge">
<title>Node5&#45;&gt;Node16</title>
<path fill="none" stroke="#191970" d="M318.8751,-172.3607C308.322,-162.6727 295.3888,-150.7995 286.5036,-142.6427"/>
<polygon fill="#191970" stroke="#191970" points="316.6411,-175.0611 326.3746,-179.2455 321.375,-169.9045 316.6411,-175.0611"/>
</g>
<!-- Node7 -->
<g id="node5" class="node">
<title>Node7</title>
<g id="a_node5"><a xlink:href="incflo__set__velocity__bcs_8cpp.html" target="_top" xlink:title="incflo_set_velocity\l_bcs.cpp">
<polygon fill="#ffffff" stroke="#000000" points="134.5,-.5 134.5,-30.5 241.5,-30.5 241.5,-.5 134.5,-.5"/>
<text text-anchor="start" x="142.5" y="-18.5" font-family="Helvetica,sans-Serif" font-size="10.00" fill="#000000">incflo_set_velocity</text>
<text text-anchor="middle" x="188" y="-7.5" font-family="Helvetica,sans-Serif" font-size="10.00" fill="#000000">_bcs.cpp</text>
</a>
</g>
</g>
<!-- Node6&#45;&gt;Node7 -->
<g id="edge4" class="edge">
<title>Node6&#45;&gt;Node7</title>
<path fill="none" stroke="#191970" d="M334.3967,-65.7983C305.658,-55.9244 263.5486,-41.4566 231.8608,-30.5695"/>
<polygon fill="#191970" stroke="#191970" points="333.3707,-69.1465 343.9653,-69.0859 335.6452,-62.5264 333.3707,-69.1465"/>
</g>
<!-- Node8 -->
<g id="node6" class="node">
<title>Node8</title>
<g id="a_node6"><a xlink:href="_a_b_l_forcing_8cpp.html" target="_top" xlink:title="ABLForcing.cpp">
<polygon fill="#ffffff" stroke="#000000" points="566.5,-6 566.5,-25 657.5,-25 657.5,-6 566.5,-6"/>
<text text-anchor="middle" x="612" y="-13" font-family="Helvetica,sans-Serif" font-size="10.00" fill="#000000">ABLForcing.cpp</text>
</a>
</g>
</g>
<!-- Node6&#45;&gt;Node8 -->
<g id="edge5" class="edge">
<title>Node6&#45;&gt;Node8</title>
<path fill="none" stroke="#191970" d="M399.8619,-66.9305C470.6828,-48.215 490.8324,-48.2288 558,-31 565.0858,-29.1825 572.6546,-27.0995 579.8152,-25.0627"/>
<polygon fill="#191970" stroke="#191970" points="398.7626,-63.6015 390.0075,-69.5679 400.5724,-70.3635 398.7626,-63.6015"/>
</g>
<!-- Node9 -->
<g id="node7" class="node">
<title>Node9</title>
<g id="a_node7"><a xlink:href="_a_b_l_mean_boussinesq_8cpp.html" target="_top" xlink:title="ABLMeanBoussinesq.cpp">
<polygon fill="#ffffff" stroke="#000000" points="411.5,-6 411.5,-25 548.5,-25 548.5,-6 411.5,-6"/>
<text text-anchor="middle" x="480" y="-13" font-family="Helvetica,sans-Serif" font-size="10.00" fill="#000000">ABLMeanBoussinesq.cpp</text>
</a>
</g>
</g>
<!-- Node6&#45;&gt;Node9 -->
<g id="edge6" class="edge">
<title>Node6&#45;&gt;Node9</title>
<path fill="none" stroke="#191970" d="M393.5119,-62.571C414.7775,-50.9972 444.0236,-35.0801 462.4677,-25.0419"/>
<polygon fill="#191970" stroke="#191970" points="391.7665,-59.536 384.6563,-67.3906 395.1128,-65.6844 391.7665,-59.536"/>
</g>
<!-- Node10 -->
<g id="node8" class="node">
<title>Node10</title>
<g id="a_node8"><a xlink:href="incflo_8cpp.html" target="_top" xlink:title="incflo.cpp">
<polygon fill="#ffffff" stroke="#000000" points="259.5,-6 259.5,-25 322.5,-25 322.5,-6 259.5,-6"/>
<text text-anchor="middle" x="291" y="-13" font-family="Helvetica,sans-Serif" font-size="10.00" fill="#000000">incflo.cpp</text>
</a>
</g>
</g>
<!-- Node6&#45;&gt;Node10 -->
<g id="edge7" class="edge">
<title>Node6&#45;&gt;Node10</title>
<path fill="none" stroke="#191970" d="M347.066,-60.8692C333.0875,-49.5576 314.8581,-34.8062 303.0424,-25.2449"/>
<polygon fill="#191970" stroke="#191970" points="345.1496,-63.8209 355.125,-67.3906 349.553,-58.3793 345.1496,-63.8209"/>
</g>
<!-- Node11 -->
<g id="node9" class="node">
<title>Node11</title>
<g id="a_node9"><a xlink:href="init_8cpp.html" target="_top" xlink:title="init.cpp">
<polygon fill="#ffffff" stroke="#000000" points="340.5,-6 340.5,-25 393.5,-25 393.5,-6 340.5,-6"/>
<text text-anchor="middle" x="367" y="-13" font-family="Helvetica,sans-Serif" font-size="10.00" fill="#000000">init.cpp</text>
</a>
</g>
</g>
<!-- Node6&#45;&gt;Node11 -->
<g id="edge8" class="edge">
<title>Node6&#45;&gt;Node11</title>
<path fill="none" stroke="#191970" d="M367,-57.2462C367,-46.5519 367,-33.814 367,-25.2449"/>
<polygon fill="#191970" stroke="#191970" points="363.5001,-57.3906 367,-67.3906 370.5001,-57.3907 363.5001,-57.3906"/>
</g>
<!-- Node6&#45;&gt;Node12 -->
<g id="edge9" class="edge">
<title>Node6&#45;&gt;Node12</title>
<path fill="none" stroke="#191970" d="M400.0777,-67.0876C518.2168,-42.0806 554.0761,-61.66 667,-31 672.6458,-29.4671 678.5702,-27.2714 683.9824,-25.0128"/>
<polygon fill="#191970" stroke="#191970" points="399.3209,-63.6703 390.2954,-69.2192 400.8114,-70.5098 399.3209,-63.6703"/>
</g>
<!-- Node6&#45;&gt;Node13 -->
<g id="edge10" class="edge">
<title>Node6&#45;&gt;Node13</title>
<path fill="none" stroke="#191970" d="M334.0655,-71.1656C287.4239,-62.8063 199.5041,-46.6926 125,-31 116.2379,-29.1545 106.8592,-27.0599 97.9772,-25.0207"/>
<polygon fill="#191970" stroke="#191970" points="333.4564,-74.6121 343.9161,-72.9257 334.6877,-67.7213 333.4564,-74.6121"/>
</g>
<!-- Node14&#45;&gt;Node6 -->
<g id="edge12" class="edge">
<title>Node14&#45;&gt;Node6</title>
<path fill="none" stroke="#191970" d="M514.9254,-120.6223C482.7452,-111.5135 438.095,-98.7268 399,-87 396.1009,-86.1304 393.0593,-85.2015 390.0527,-84.2732"/>
<polygon fill="#191970" stroke="#191970" points="514.3375,-124.0931 524.9125,-123.4444 516.2411,-117.3569 514.3375,-124.0931"/>
</g>
<!-- Node14&#45;&gt;Node15 -->
<g id="edge13" class="edge">
<title>Node14&#45;&gt;Node15</title>
<path fill="none" stroke="#191970" d="M604.6743,-123.0476C653.313,-112.4493 729.539,-95.8397 775.9231,-85.7327"/>
<polygon fill="#191970" stroke="#191970" points="603.7603,-119.6646 594.7347,-125.2134 605.2507,-126.5041 603.7603,-119.6646"/>
</g>
<!-- Node17&#45;&gt;Node12 -->
<g id="edge21" class="edge">
<title>Node17&#45;&gt;Node12</title>
<path fill="none" stroke="#191970" d="M943.979,-176.1075C973.8666,-164.9157 1005.3989,-146.7723 990,-123 960.8009,-77.9233 798.8438,-36.896 732.4261,-21.7166"/>
<polygon fill="#191970" stroke="#191970" points="942.6565,-172.8627 934.3946,-179.4952 944.9894,-179.4625 942.6565,-172.8627"/>
</g>
<!-- Node17&#45;&gt;Node14 -->
<g id="edge19" class="edge">
<title>Node17&#45;&gt;Node14</title>
<path fill="none" stroke="#191970" d="M831.4928,-177.7496C759.9149,-165.9948 650.4185,-148.013 594.5186,-138.833"/>
<polygon fill="#191970" stroke="#191970" points="831.3324,-181.27 841.7675,-179.4369 832.4669,-174.3625 831.3324,-181.27"/>
</g>
<!-- Node18 -->
<g id="node16" class="node">
<title>Node18</title>
<g id="a_node16"><a xlink:href="_second_moment_averaging_8cpp.html" target="_top" xlink:title="SecondMomentAveraging.cpp">
<polygon fill="#ffffff" stroke="#000000" points="819.5,-123.5 819.5,-142.5 980.5,-142.5 980.5,-123.5 819.5,-123.5"/>
<text text-anchor="middle" x="900" y="-130.5" font-family="Helvetica,sans-Serif" font-size="10.00" fill="#000000">SecondMomentAveraging.cpp</text>
</a>
</g>
</g>
<!-- Node17&#45;&gt;Node18 -->
<g id="edge20" class="edge">
<title>Node17&#45;&gt;Node18</title>
<path fill="none" stroke="#191970" d="M900,-169.1575C900,-160.155 900,-149.9199 900,-142.6427"/>
<polygon fill="#191970" stroke="#191970" points="896.5001,-169.2455 900,-179.2455 903.5001,-169.2456 896.5001,-169.2455"/>
</g>
<!-- Node19&#45;&gt;Node12 -->
<g id="edge25" class="edge">
<title>Node19&#45;&gt;Node12</title>
<path fill="none" stroke="#191970" d="M632.4247,-169.3322C633.8376,-155.9601 636.611,-138.036 642,-123 655.8839,-84.2624 683.5631,-43.4881 696.7238,-25.2797"/>
<polygon fill="#191970" stroke="#191970" points="628.9353,-169.0588 631.5304,-179.3309 635.9075,-169.6825 628.9353,-169.0588"/>
</g>
<!-- Node19&#45;&gt;Node14 -->
<g id="edge23" class="edge">
<title>Node19&#45;&gt;Node14</title>
<path fill="none" stroke="#191970" d="M610.336,-172.928C597.7511,-163.1397 582.0908,-150.9595 571.3977,-142.6427"/>
<polygon fill="#191970" stroke="#191970" points="608.4162,-175.8688 618.4586,-179.2455 612.7138,-170.3434 608.4162,-175.8688"/>
</g>
<!-- Node20 -->
<g id="node18" class="node">
<title>Node20</title>
<g id="a_node18"><a xlink:href="_third_moment_averaging_8cpp.html" target="_top" xlink:title="ThirdMomentAveraging.cpp">
<polygon fill="#ffffff" stroke="#000000" points="651,-123.5 651,-142.5 801,-142.5 801,-123.5 651,-123.5"/>
<text text-anchor="middle" x="726" y="-130.5" font-family="Helvetica,sans-Serif" font-size="10.00" fill="#000000">ThirdMomentAveraging.cpp</text>
</a>
</g>
</g>
<!-- Node19&#45;&gt;Node20 -->
<g id="edge24" class="edge">
<title>Node19&#45;&gt;Node20</title>
<path fill="none" stroke="#191970" d="M656.3676,-174.0465C673.271,-164.0824 694.9904,-151.2794 709.6419,-142.6427"/>
<polygon fill="#191970" stroke="#191970" points="654.3851,-171.1522 647.5477,-179.2455 657.9398,-177.1825 654.3851,-171.1522"/>
</g>
<!-- Node21&#45;&gt;Node9 -->
<g id="edge27" class="edge">
<title>Node21&#45;&gt;Node9</title>
<path fill="none" stroke="#191970" d="M474.5696,-57.2462C475.9607,-46.5519 477.6177,-33.814 478.7324,-25.2449"/>
<polygon fill="#191970" stroke="#191970" points="471.0693,-57.0227 473.25,-67.3906 478.0108,-57.9257 471.0693,-57.0227"/>
</g>
<!-- Node21&#45;&gt;Node12 -->
<g id="edge28" class="edge">
<title>Node21&#45;&gt;Node12</title>
<path fill="none" stroke="#191970" d="M532.8267,-65.3511C571.6561,-57.255 622.816,-45.3575 667,-31 672.1664,-29.3212 677.6194,-27.2265 682.7047,-25.1251"/>
<polygon fill="#191970" stroke="#191970" points="531.8156,-61.9858 522.7263,-67.4296 533.2266,-68.8421 531.8156,-61.9858"/>
</g>
<!-- Node23&#45;&gt;Node8 -->
<g id="edge34" class="edge">
<title>Node23&#45;&gt;Node8</title>
<path fill="none" stroke="#191970" d="M1024.9939,-73.4303C942.6217,-67.9559 792.849,-55.4502 667,-31 658.9171,-29.4296 650.2939,-27.2482 642.3306,-25.0171"/>
<polygon fill="#191970" stroke="#191970" points="1024.9796,-76.9367 1035.1861,-74.0945 1025.4349,-69.9515 1024.9796,-76.9367"/>
</g>
<!-- Node23&#45;&gt;Node12 -->
<g id="edge37" class="edge">
<title>Node23&#45;&gt;Node12</title>
<path fill="none" stroke="#191970" d="M1025.4185,-67.1116C941.3545,-53.6131 794.0878,-29.9658 732.4232,-20.064"/>
<polygon fill="#191970" stroke="#191970" points="1024.9185,-70.5761 1035.3469,-68.7058 1026.0283,-63.6646 1024.9185,-70.5761"/>
</g>
<!-- Node24 -->
<g id="node22" class="node">
<title>Node24</title>
<g id="a_node22"><a xlink:href="_geostrophic_forcing_8cpp.html" target="_top" xlink:title="GeostrophicForcing.cpp">
<polygon fill="#ffffff" stroke="#000000" points="1091.5,-6 1091.5,-25 1222.5,-25 1222.5,-6 1091.5,-6"/>
<text text-anchor="middle" x="1157" y="-13" font-family="Helvetica,sans-Serif" font-size="10.00" fill="#000000">GeostrophicForcing.cpp</text>
</a>
</g>
</g>
<!-- Node23&#45;&gt;Node24 -->
<g id="edge35" class="edge">
<title>Node23&#45;&gt;Node24</title>
<path fill="none" stroke="#191970" d="M1105.7257,-60.5482C1118.5515,-49.2798 1135.1281,-34.716 1145.9083,-25.2449"/>
<polygon fill="#191970" stroke="#191970" points="1103.1399,-58.161 1097.9375,-67.3906 1107.7601,-63.4197 1103.1399,-58.161"/>
</g>
<!-- Node25 -->
<g id="node23" class="node">
<title>Node25</title>
<g id="a_node23"><a xlink:href="_plane_averaging_8cpp.html" target="_top" xlink:title="PlaneAveraging.cpp">
<polygon fill="#ffffff" stroke="#000000" points="960.5,-6 960.5,-25 1073.5,-25 1073.5,-6 960.5,-6"/>
<text text-anchor="middle" x="1017" y="-13" font-family="Helvetica,sans-Serif" font-size="10.00" fill="#000000">PlaneAveraging.cpp</text>
</a>
</g>
</g>
<!-- Node23&#45;&gt;Node25 -->
<g id="edge36" class="edge">
<title>Node23&#45;&gt;Node25</title>
<path fill="none" stroke="#191970" d="M1068.2743,-60.5482C1055.4485,-49.2798 1038.8719,-34.716 1028.0917,-25.2449"/>
<polygon fill="#191970" stroke="#191970" points="1066.2399,-63.4197 1076.0625,-67.3906 1070.8601,-58.161 1066.2399,-63.4197"/>
</g>
</g>
</svg>
        <g id="navigator" transform="translate(0 0)" fill="#404254">
                <rect fill="#f2f5e9" fill-opacity="0.5" stroke="#606060" stroke-width=".5" x="0" y="0" width="60" height="60"/>
                <use id="zoomplus" xlink:href="#zoomPlus" x="17" y="9" onmousedown="handleZoom(evt,'in')"/>
                <use id="zoomminus" xlink:href="#zoomMin" x="42" y="9" onmousedown="handleZoom(evt,'out')"/>
                <use id="reset" xlink:href="#resetDef" x="30" y="36" onmousedown="handleReset()"/>
                <g id="arrowUp" xlink:href="#dirArrow" transform="translate(30 24)" onmousedown="handlePan(0,-1)">
                  <use xlink:href="#rim" fill="#404040">
                        <set attributeName="fill" to="#808080" begin="arrowUp.mouseover" end="arrowUp.mouseout"/>
                  </use>
                  <path fill="none" stroke="white" stroke-width="1.5" d="M0,-3.0v7 M-2.5,-0.5L0,-3.0L2.5,-0.5"/>
                </g>
                <g id="arrowRight" xlink:href="#dirArrow" transform="rotate(90) translate(36 -43)" onmousedown="handlePan(1,0)">
                  <use xlink:href="#rim" fill="#404040">
                        <set attributeName="fill" to="#808080" begin="arrowRight.mouseover" end="arrowRight.mouseout"/>
                  </use>
                  <path fill="none" stroke="white" stroke-width="1.5" d="M0,-3.0v7 M-2.5,-0.5L0,-3.0L2.5,-0.5"/>
                </g>
                <g id="arrowDown" xlink:href="#dirArrow" transform="rotate(180) translate(-30 -48)" onmousedown="handlePan(0,1)">
                  <use xlink:href="#rim" fill="#404040">
                        <set attributeName="fill" to="#808080" begin="arrowDown.mouseover" end="arrowDown.mouseout"/>
                  </use>
                  <path fill="none" stroke="white" stroke-width="1.5" d="M0,-3.0v7 M-2.5,-0.5L0,-3.0L2.5,-0.5"/>
                </g>
                <g id="arrowLeft" xlink:href="#dirArrow" transform="rotate(270) translate(-36 17)" onmousedown="handlePan(-1,0)">
                  <use xlink:href="#rim" fill="#404040">
                        <set attributeName="fill" to="#808080" begin="arrowLeft.mouseover" end="arrowLeft.mouseout"/>
                  </use>
                  <path fill="none" stroke="white" stroke-width="1.5" d="M0,-3.0v7 M-2.5,-0.5L0,-3.0L2.5,-0.5"/>
                </g>
        </g>
        <svg viewBox="0 0 15 15" width="100%" height="30px" preserveAspectRatio="xMaxYMin meet">
         <g id="arrow_out" transform="scale(0.3 0.3)">
          <a xlink:href="_direction_selector_8_h__dep__incl_org.svg" target="_base">
           <rect id="button" ry="5" rx="5" y="6" x="6" height="38" width="38"
                fill="#f2f5e9" fill-opacity="0.5" stroke="#606060" stroke-width="1.0"/>
           <path id="arrow"
             d="M 11.500037,31.436501 C 11.940474,20.09759 22.043105,11.32322 32.158766,21.979434 L 37.068811,17.246167 C 37.068811,17.246167 37.088388,32 37.088388,32 L 22.160133,31.978069 C 22.160133,31.978069 26.997745,27.140456 26.997745,27.140456 C 18.528582,18.264221 13.291696,25.230495 11.500037,31.436501 z"
             style="fill:#404040;"/>
          </a>
         </g>
        </svg>
</svg>
