<?xml version="1.0" encoding="UTF-8" standalone="no"?>
<!DOCTYPE svg PUBLIC "-//W3C//DTD SVG 1.1//EN"
 "http://www.w3.org/Graphics/SVG/1.1/DTD/svg11.dtd">
<!-- Generated by graphviz version 2.40.1 (20161225.0304)
 -->
<!-- Title: DirectionSelector.H Pages: 1 -->
<svg width="198pt" height="84pt"
 viewBox="0.00 0.00 197.50 84.00" xmlns="http://www.w3.org/2000/svg" xmlns:xlink="http://www.w3.org/1999/xlink">
<g id="graph0" class="graph" transform="scale(1 1) rotate(0) translate(4 80)">
<title>DirectionSelector.H</title>
<polygon fill="#ffffff" stroke="transparent" points="-4,4 -4,-80 193.5,-80 193.5,4 -4,4"/>
<!-- Node0 -->
<g id="node1" class="node">
<title>Node0</title>
<polygon fill="#bfbfbf" stroke="#000000" points="39.5,-56.5 39.5,-75.5 149.5,-75.5 149.5,-56.5 39.5,-56.5"/>
<text text-anchor="middle" x="94.5" y="-63.5" font-family="Helvetica,sans-Serif" font-size="10.00" fill="#000000">DirectionSelector.H</text>
</g>
<!-- Node1 -->
<g id="node2" class="node">
<title>Node1</title>
<polygon fill="#ffffff" stroke="#bfbfbf" points="0,-.5 0,-19.5 85,-19.5 85,-.5 0,-.5"/>
<text text-anchor="middle" x="42.5" y="-7.5" font-family="Helvetica,sans-Serif" font-size="10.00" fill="#000000">AMReX_Box.H</text>
</g>
<!-- Node0&#45;&gt;Node1 -->
<g id="edge1" class="edge">
<title>Node0&#45;&gt;Node1</title>
<path fill="none" stroke="#191970" d="M85.4423,-56.2455C77.9858,-48.2155 67.2366,-36.6394 58.3583,-27.0781"/>
<polygon fill="#191970" stroke="#191970" points="60.8232,-24.589 51.4539,-19.6427 55.6937,-29.3522 60.8232,-24.589"/>
</g>
<!-- Node2 -->
<g id="node3" class="node">
<title>Node2</title>
<polygon fill="#ffffff" stroke="#bfbfbf" points="103.5,-.5 103.5,-19.5 189.5,-19.5 189.5,-.5 103.5,-.5"/>
<text text-anchor="middle" x="146.5" y="-7.5" font-family="Helvetica,sans-Serif" font-size="10.00" fill="#000000">AMReX_Gpu.H</text>
</g>
<!-- Node0&#45;&gt;Node2 -->
<g id="edge2" class="edge">
<title>Node0&#45;&gt;Node2</title>
<path fill="none" stroke="#191970" d="M103.5577,-56.2455C111.0142,-48.2155 121.7634,-36.6394 130.6417,-27.0781"/>
<polygon fill="#191970" stroke="#191970" points="133.3063,-29.3522 137.5461,-19.6427 128.1768,-24.589 133.3063,-29.3522"/>
</g>
</g>
</svg>
