<?xml version="1.0" encoding="UTF-8" standalone="no"?>
<!DOCTYPE svg PUBLIC "-//W3C//DTD SVG 1.1//EN"
 "http://www.w3.org/Graphics/SVG/1.1/DTD/svg11.dtd">
<!-- Generated by graphviz version 2.40.1 (20161225.0304)
 -->
<!-- Title: ExtSolver.H Pages: 1 -->
<svg width="247pt" height="252pt"
 viewBox="0.00 0.00 246.50 252.00" xmlns="http://www.w3.org/2000/svg" xmlns:xlink="http://www.w3.org/1999/xlink">
<g id="graph0" class="graph" transform="scale(1 1) rotate(0) translate(4 248)">
<title>ExtSolver.H</title>
<polygon fill="#ffffff" stroke="transparent" points="-4,4 -4,-248 242.5,-248 242.5,4 -4,4"/>
<!-- Node10 -->
<g id="node1" class="node">
<title>Node10</title>
<polygon fill="#bfbfbf" stroke="#000000" points="92,-224.5 92,-243.5 165,-243.5 165,-224.5 92,-224.5"/>
<text text-anchor="middle" x="128.5" y="-231.5" font-family="Helvetica,sans-Serif" font-size="10.00" fill="#000000">ExtSolver.H</text>
</g>
<!-- Node11 -->
<g id="node2" class="node">
<title>Node11</title>
<g id="a_node2"><a xlink:href="_c_f_d_sim_8cpp.html" target="_top" xlink:title="CFDSim.cpp">
<polygon fill="#ffffff" stroke="#000000" points="0,-168.5 0,-187.5 75,-187.5 75,-168.5 0,-168.5"/>
<text text-anchor="middle" x="37.5" y="-175.5" font-family="Helvetica,sans-Serif" font-size="10.00" fill="#000000">CFDSim.cpp</text>
</a>
</g>
</g>
<!-- Node10&#45;&gt;Node11 -->
<g id="edge1" class="edge">
<title>Node10&#45;&gt;Node11</title>
<path fill="none" stroke="#191970" d="M103.7496,-218.769C87.6242,-208.8456 67.074,-196.1994 53.1693,-187.6427"/>
<polygon fill="#191970" stroke="#191970" points="102.2981,-221.9853 112.649,-224.2455 105.9668,-216.0237 102.2981,-221.9853"/>
</g>
<!-- Node12 -->
<g id="node3" class="node">
<title>Node12</title>
<g id="a_node3"><a xlink:href="_fast_iface_8_h.html" target="_top" xlink:title="FastIface.H">
<polygon fill="#ffffff" stroke="#000000" points="93,-168.5 93,-187.5 164,-187.5 164,-168.5 93,-168.5"/>
<text text-anchor="middle" x="128.5" y="-175.5" font-family="Helvetica,sans-Serif" font-size="10.00" fill="#000000">FastIface.H</text>
</a>
</g>
</g>
<!-- Node10&#45;&gt;Node12 -->
<g id="edge2" class="edge">
<title>Node10&#45;&gt;Node12</title>
<path fill="none" stroke="#191970" d="M128.5,-214.1575C128.5,-205.155 128.5,-194.9199 128.5,-187.6427"/>
<polygon fill="#191970" stroke="#191970" points="125.0001,-214.2455 128.5,-224.2455 132.0001,-214.2456 125.0001,-214.2455"/>
</g>
<!-- Node14 -->
<g id="node5" class="node">
<title>Node14</title>
<g id="a_node5"><a xlink:href="_turbine_fast_8_h.html" target="_top" xlink:title="TurbineFast.H">
<polygon fill="#ffffff" stroke="#000000" points="151.5,-112.5 151.5,-131.5 233.5,-131.5 233.5,-112.5 151.5,-112.5"/>
<text text-anchor="middle" x="192.5" y="-119.5" font-family="Helvetica,sans-Serif" font-size="10.00" fill="#000000">TurbineFast.H</text>
</a>
</g>
</g>
<!-- Node10&#45;&gt;Node14 -->
<g id="edge8" class="edge">
<title>Node10&#45;&gt;Node14</title>
<path fill="none" stroke="#191970" d="M148.5674,-217.5791C157.3233,-209.4843 167.0432,-199.0872 173.5,-188 184.181,-169.6593 189.1945,-144.9153 191.258,-131.5396"/>
<polygon fill="#191970" stroke="#191970" points="146.1071,-215.0821 140.9187,-224.3196 150.7352,-220.3339 146.1071,-215.0821"/>
</g>
<!-- Node13 -->
<g id="node4" class="node">
<title>Node13</title>
<g id="a_node4"><a xlink:href="_fast_iface_8cpp.html" target="_top" xlink:title="FastIface.cpp">
<polygon fill="#ffffff" stroke="#000000" points="53.5,-112.5 53.5,-131.5 133.5,-131.5 133.5,-112.5 53.5,-112.5"/>
<text text-anchor="middle" x="93.5" y="-119.5" font-family="Helvetica,sans-Serif" font-size="10.00" fill="#000000">FastIface.cpp</text>
</a>
</g>
</g>
<!-- Node12&#45;&gt;Node13 -->
<g id="edge3" class="edge">
<title>Node12&#45;&gt;Node13</title>
<path fill="none" stroke="#191970" d="M117.0185,-159.6296C111.1804,-150.2887 104.3248,-139.3197 99.5267,-131.6427"/>
<polygon fill="#191970" stroke="#191970" points="114.1354,-161.6206 122.4035,-168.2455 120.0714,-157.9105 114.1354,-161.6206"/>
</g>
<!-- Node12&#45;&gt;Node14 -->
<g id="edge4" class="edge">
<title>Node12&#45;&gt;Node14</title>
<path fill="none" stroke="#191970" d="M147.1914,-161.645C158.3219,-151.9058 172.0663,-139.8795 181.4798,-131.6427"/>
<polygon fill="#191970" stroke="#191970" points="144.869,-159.0264 139.6479,-168.2455 149.4785,-164.2945 144.869,-159.0264"/>
</g>
<!-- Node15 -->
<g id="node6" class="node">
<title>Node15</title>
<g id="a_node6"><a xlink:href="turbine__fast__ops_8_h.html" target="_top" xlink:title="turbine_fast_ops.H">
<polygon fill="#ffffff" stroke="#000000" points="97.5,-56.5 97.5,-75.5 205.5,-75.5 205.5,-56.5 97.5,-56.5"/>
<text text-anchor="middle" x="151.5" y="-63.5" font-family="Helvetica,sans-Serif" font-size="10.00" fill="#000000">turbine_fast_ops.H</text>
</a>
</g>
</g>
<!-- Node14&#45;&gt;Node15 -->
<g id="edge5" class="edge">
<title>Node14&#45;&gt;Node15</title>
<path fill="none" stroke="#191970" d="M179.2636,-103.9209C172.3789,-94.5176 164.2391,-83.3997 158.5598,-75.6427"/>
<polygon fill="#191970" stroke="#191970" points="176.6269,-106.2445 185.3583,-112.2455 182.2749,-102.1093 176.6269,-106.2445"/>
</g>
<!-- Node16 -->
<g id="node7" class="node">
<title>Node16</title>
<g id="a_node7"><a xlink:href="_turbine_fast_8cpp.html" target="_top" xlink:title="TurbineFast.cpp">
<polygon fill="#ffffff" stroke="#000000" points="146.5,-.5 146.5,-19.5 238.5,-19.5 238.5,-.5 146.5,-.5"/>
<text text-anchor="middle" x="192.5" y="-7.5" font-family="Helvetica,sans-Serif" font-size="10.00" fill="#000000">TurbineFast.cpp</text>
</a>
</g>
</g>
<!-- Node14&#45;&gt;Node16 -->
<g id="edge7" class="edge">
<title>Node14&#45;&gt;Node16</title>
<path fill="none" stroke="#191970" d="M203.7633,-103.3325C208.022,-95.2328 212.356,-85.452 214.5,-76 219.1489,-55.5047 207.3147,-32.3798 199.2565,-19.6683"/>
<polygon fill="#191970" stroke="#191970" points="200.6039,-101.8105 198.7583,-112.2433 206.7071,-105.2385 200.6039,-101.8105"/>
</g>
<!-- Node15&#45;&gt;Node16 -->
<g id="edge6" class="edge">
<title>Node15&#45;&gt;Node16</title>
<path fill="none" stroke="#191970" d="M164.7364,-47.9209C171.6211,-38.5176 179.7609,-27.3997 185.4402,-19.6427"/>
<polygon fill="#191970" stroke="#191970" points="161.7251,-46.1093 158.6417,-56.2455 167.3731,-50.2445 161.7251,-46.1093"/>
</g>
</g>
</svg>
