<?xml version="1.0" encoding="UTF-8" standalone="no"?>
<!DOCTYPE svg PUBLIC "-//W3C//DTD SVG 1.1//EN"
 "http://www.w3.org/Graphics/SVG/1.1/DTD/svg11.dtd">
<!-- Generated by graphviz version 2.40.1 (20161225.0304)
 -->
<!-- Title: Factory.H Pages: 1 -->
<svg width="443pt" height="84pt"
 viewBox="0.00 0.00 442.50 84.00" xmlns="http://www.w3.org/2000/svg" xmlns:xlink="http://www.w3.org/1999/xlink">
<g id="graph0" class="graph" transform="scale(1 1) rotate(0) translate(4 80)">
<title>Factory.H</title>
<polygon fill="#ffffff" stroke="transparent" points="-4,4 -4,-80 438.5,-80 438.5,4 -4,4"/>
<!-- Node0 -->
<g id="node1" class="node">
<title>Node0</title>
<polygon fill="#bfbfbf" stroke="#000000" points="187.5,-56.5 187.5,-75.5 248.5,-75.5 248.5,-56.5 187.5,-56.5"/>
<text text-anchor="middle" x="218" y="-63.5" font-family="Helvetica,sans-Serif" font-size="10.00" fill="#000000">Factory.H</text>
</g>
<!-- Node1 -->
<g id="node2" class="node">
<title>Node1</title>
<polygon fill="#ffffff" stroke="#bfbfbf" points="0,-.5 0,-19.5 58,-19.5 58,-.5 0,-.5"/>
<text text-anchor="middle" x="29" y="-7.5" font-family="Helvetica,sans-Serif" font-size="10.00" fill="#000000">memory</text>
</g>
<!-- Node0&#45;&gt;Node1 -->
<g id="edge1" class="edge">
<title>Node0&#45;&gt;Node1</title>
<path fill="none" stroke="#191970" d="M187.2132,-56.878C154.7491,-47.259 103.5073,-32.0762 68.1821,-21.6095"/>
<polygon fill="#191970" stroke="#191970" points="68.8019,-18.1428 58.2196,-18.6577 66.8132,-24.8544 68.8019,-18.1428"/>
</g>
<!-- Node2 -->
<g id="node3" class="node">
<title>Node2</title>
<polygon fill="#ffffff" stroke="#bfbfbf" points="76.5,-.5 76.5,-19.5 169.5,-19.5 169.5,-.5 76.5,-.5"/>
<text text-anchor="middle" x="123" y="-7.5" font-family="Helvetica,sans-Serif" font-size="10.00" fill="#000000">unordered_map</text>
</g>
<!-- Node0&#45;&gt;Node2 -->
<g id="edge2" class="edge">
<title>Node0&#45;&gt;Node2</title>
<path fill="none" stroke="#191970" d="M201.4523,-56.2455C186.7401,-47.5731 165.0112,-34.7645 148.1495,-24.825"/>
<polygon fill="#191970" stroke="#191970" points="149.7502,-21.7057 139.3581,-19.6427 146.1954,-27.736 149.7502,-21.7057"/>
</g>
<!-- Node3 -->
<g id="node4" class="node">
<title>Node3</title>
<polygon fill="#ffffff" stroke="#bfbfbf" points="188,-.5 188,-19.5 248,-19.5 248,-.5 188,-.5"/>
<text text-anchor="middle" x="218" y="-7.5" font-family="Helvetica,sans-Serif" font-size="10.00" fill="#000000">iostream</text>
</g>
<!-- Node0&#45;&gt;Node3 -->
<g id="edge3" class="edge">
<title>Node0&#45;&gt;Node3</title>
<path fill="none" stroke="#191970" d="M218,-56.2455C218,-48.9382 218,-38.6944 218,-29.7046"/>
<polygon fill="#191970" stroke="#191970" points="221.5001,-29.6426 218,-19.6427 214.5001,-29.6427 221.5001,-29.6426"/>
</g>
<!-- Node4 -->
<g id="node5" class="node">
<title>Node4</title>
<polygon fill="#ffffff" stroke="#bfbfbf" points="266.5,-.5 266.5,-19.5 355.5,-19.5 355.5,-.5 266.5,-.5"/>
<text text-anchor="middle" x="311" y="-7.5" font-family="Helvetica,sans-Serif" font-size="10.00" fill="#000000">AMReX_Print.H</text>
</g>
<!-- Node0&#45;&gt;Node4 -->
<g id="edge4" class="edge">
<title>Node0&#45;&gt;Node4</title>
<path fill="none" stroke="#191970" d="M234.1994,-56.2455C248.6018,-47.5731 269.8732,-34.7645 286.3799,-24.825"/>
<polygon fill="#191970" stroke="#191970" points="288.225,-27.7996 294.9863,-19.6427 284.614,-21.8028 288.225,-27.7996"/>
</g>
<!-- Node5 -->
<g id="node6" class="node">
<title>Node5</title>
<polygon fill="#ffffff" stroke="#bfbfbf" points="373.5,-.5 373.5,-19.5 434.5,-19.5 434.5,-.5 373.5,-.5"/>
<text text-anchor="middle" x="404" y="-7.5" font-family="Helvetica,sans-Serif" font-size="10.00" fill="#000000">AMReX.H</text>
</g>
<!-- Node0&#45;&gt;Node5 -->
<g id="edge5" class="edge">
<title>Node0&#45;&gt;Node5</title>
<path fill="none" stroke="#191970" d="M248.7141,-56.7527C280.0807,-47.309 328.9419,-32.5981 363.4661,-22.2038"/>
<polygon fill="#191970" stroke="#191970" points="364.6739,-25.4954 373.2403,-19.261 362.6558,-18.7926 364.6739,-25.4954"/>
</g>
</g>
</svg>
