<?xml version="1.0" encoding="UTF-8" standalone="no"?>
<!DOCTYPE svg PUBLIC "-//W3C//DTD SVG 1.1//EN"
 "http://www.w3.org/Graphics/SVG/1.1/DTD/svg11.dtd">
<!-- Generated by graphviz version 2.40.1 (20161225.0304)
 -->
<!-- Title: FieldPlaneAveraging.H Pages: 1 -->
<!--zoomable 341 -->
<svg id="main" version="1.1" xmlns="http://www.w3.org/2000/svg" xmlns:xlink="http://www.w3.org/1999/xlink" xml:space="preserve" onload="init(evt)">
<style type="text/css"><![CDATA[
.edge:hover path { stroke: red; }
.edge:hover polygon { stroke: red; fill: red; }
]]></style>
<script type="text/javascript"><![CDATA[
var edges = document.getElementsByTagName('g');
if (edges && edges.length) {
  for (var i=0;i<edges.length;i++) {
    if (edges[i].id.substr(0,4)=='edge') {
      edges[i].setAttribute('class','edge');
    }
  }
}
]]></script>
        <defs>
                <circle id="rim" cx="0" cy="0" r="7"/>
                <circle id="rim2" cx="0" cy="0" r="3.5"/>
                <g id="zoomPlus">
                        <use xlink:href="#rim" fill="#404040">
                                <set attributeName="fill" to="#808080" begin="zoomplus.mouseover" end="zoomplus.mouseout"/>
                        </use>
                        <path d="M-4,0h8M0,-4v8" fill="none" stroke="white" stroke-width="1.5" pointer-events="none"/>
                </g>
                <g id="zoomMin">
                        <use xlink:href="#rim" fill="#404040">
                                <set attributeName="fill" to="#808080" begin="zoomminus.mouseover" end="zoomminus.mouseout"/>
                        </use>
                        <path d="M-4,0h8" fill="none" stroke="white" stroke-width="1.5" pointer-events="none"/>
                </g>
                <g id="dirArrow">
                        <path fill="none" stroke="white" stroke-width="1.5" d="M0,-3.0v7 M-2.5,-0.5L0,-3.0L2.5,-0.5"/>
                </g>
               <g id="resetDef">
                       <use xlink:href="#rim2" fill="#404040">
                               <set attributeName="fill" to="#808080" begin="reset.mouseover" end="reset.mouseout"/>
                       </use>
               </g>
        </defs>

<script type="text/javascript">
var viewWidth = 2659;
var viewHeight = 341;
var sectionId = 'dynsection-0';
</script>
<script xlink:href="svgpan.js"/>
<svg id="graph" class="graph">
<g id="viewport">
<title>FieldPlaneAveraging.H</title>
<polygon fill="#ffffff" stroke="transparent" points="-4,4 -4,-337 2655,-337 2655,4 -4,4"/>
<!-- Node0 -->
<g id="node1" class="node">
<title>Node0</title>
<polygon fill="#bfbfbf" stroke="#000000" points="479,-313.5 479,-332.5 604,-332.5 604,-313.5 479,-313.5"/>
<text text-anchor="middle" x="541.5" y="-320.5" font-family="Helvetica,sans-Serif" font-size="10.00" fill="#000000">FieldPlaneAveraging.H</text>
</g>
<!-- Node1 -->
<g id="node2" class="node">
<title>Node1</title>
<g id="a_node2"><a xlink:href="_direction_selector_8_h.html" target="_top" xlink:title="amr&#45;wind/utilities\l/DirectionSelector.H">
<polygon fill="#ffffff" stroke="#000000" points="345,-246.5 345,-276.5 458,-276.5 458,-246.5 345,-246.5"/>
<text text-anchor="start" x="353" y="-264.5" font-family="Helvetica,sans-Serif" font-size="10.00" fill="#000000">amr&#45;wind/utilities</text>
<text text-anchor="middle" x="401.5" y="-253.5" font-family="Helvetica,sans-Serif" font-size="10.00" fill="#000000">/DirectionSelector.H</text>
</a>
</g>
</g>
<!-- Node0&#45;&gt;Node1 -->
<g id="edge1" class="edge">
<title>Node0&#45;&gt;Node1</title>
<path fill="none" stroke="#191970" d="M519.625,-313.3906C499.7128,-304.6435 469.7309,-291.4728 444.9562,-280.5897"/>
<polygon fill="#191970" stroke="#191970" points="446.3111,-277.3621 435.7479,-276.5446 443.4957,-283.771 446.3111,-277.3621"/>
</g>
<!-- Node4 -->
<g id="node5" class="node">
<title>Node4</title>
<g id="a_node5"><a xlink:href="_c_f_d_sim_8_h.html" target="_top" xlink:title="amr&#45;wind/CFDSim.H">
<polygon fill="#ffffff" stroke="#000000" points="562.5,-252 562.5,-271 676.5,-271 676.5,-252 562.5,-252"/>
<text text-anchor="middle" x="619.5" y="-259" font-family="Helvetica,sans-Serif" font-size="10.00" fill="#000000">amr&#45;wind/CFDSim.H</text>
</a>
</g>
</g>
<!-- Node0&#45;&gt;Node4 -->
<g id="edge4" class="edge">
<title>Node0&#45;&gt;Node4</title>
<path fill="none" stroke="#191970" d="M553.6875,-313.3906C565.937,-303.7324 585.0263,-288.6812 599.4977,-277.271"/>
<polygon fill="#191970" stroke="#191970" points="601.7124,-279.9819 607.3981,-271.0419 597.3783,-274.485 601.7124,-279.9819"/>
</g>
<!-- Node6 -->
<g id="node7" class="node">
<title>Node6</title>
<g id="a_node7"><a xlink:href="_sim_time_8_h.html" target="_top" xlink:title="amr&#45;wind/core/SimTime.H">
<polygon fill="#ffffff" stroke="#000000" points="127,-190.5 127,-209.5 270,-209.5 270,-190.5 127,-190.5"/>
<text text-anchor="middle" x="198.5" y="-197.5" font-family="Helvetica,sans-Serif" font-size="10.00" fill="#000000">amr&#45;wind/core/SimTime.H</text>
</a>
</g>
</g>
<!-- Node0&#45;&gt;Node6 -->
<g id="edge70" class="edge">
<title>Node0&#45;&gt;Node6</title>
<path fill="none" stroke="#191970" d="M478.8207,-313.9064C437.2683,-306.6978 382.0382,-294.8297 335.5,-277 292.6529,-260.5844 246.9784,-232.5073 220.6817,-215.1742"/>
<polygon fill="#191970" stroke="#191970" points="222.485,-212.1698 212.2248,-209.528 218.5982,-217.9915 222.485,-212.1698"/>
</g>
<!-- Node17 -->
<g id="node18" class="node">
<title>Node17</title>
<g id="a_node18"><a xlink:href="_field_8_h.html" target="_top" xlink:title="amr&#45;wind/core/Field.H">
<polygon fill="#ffffff" stroke="#000000" points="1473.5,-129 1473.5,-148 1595.5,-148 1595.5,-129 1473.5,-129"/>
<text text-anchor="middle" x="1534.5" y="-136" font-family="Helvetica,sans-Serif" font-size="10.00" fill="#000000">amr&#45;wind/core/Field.H</text>
</a>
</g>
</g>
<!-- Node0&#45;&gt;Node17 -->
<g id="edge69" class="edge">
<title>Node0&#45;&gt;Node17</title>
<path fill="none" stroke="#191970" d="M592.797,-313.469C760.4985,-282.31 1292.1223,-183.5339 1473.316,-149.868"/>
<polygon fill="#191970" stroke="#191970" points="1474.0198,-153.2972 1483.2121,-148.0293 1472.741,-146.415 1474.0198,-153.2972"/>
</g>
<!-- Node2 -->
<g id="node3" class="node">
<title>Node2</title>
<polygon fill="#ffffff" stroke="#bfbfbf" points="288,-190.5 288,-209.5 373,-209.5 373,-190.5 288,-190.5"/>
<text text-anchor="middle" x="330.5" y="-197.5" font-family="Helvetica,sans-Serif" font-size="10.00" fill="#000000">AMReX_Box.H</text>
</g>
<!-- Node1&#45;&gt;Node2 -->
<g id="edge2" class="edge">
<title>Node1&#45;&gt;Node2</title>
<path fill="none" stroke="#191970" d="M383.9494,-246.2977C373.4779,-237.2274 360.1789,-225.7077 349.4662,-216.4285"/>
<polygon fill="#191970" stroke="#191970" points="351.7182,-213.7487 341.868,-209.8469 347.1351,-219.0398 351.7182,-213.7487"/>
</g>
<!-- Node3 -->
<g id="node4" class="node">
<title>Node3</title>
<polygon fill="#ffffff" stroke="#bfbfbf" points="513.5,-62 513.5,-81 599.5,-81 599.5,-62 513.5,-62"/>
<text text-anchor="middle" x="556.5" y="-69" font-family="Helvetica,sans-Serif" font-size="10.00" fill="#000000">AMReX_Gpu.H</text>
</g>
<!-- Node1&#45;&gt;Node3 -->
<g id="edge3" class="edge">
<title>Node1&#45;&gt;Node3</title>
<path fill="none" stroke="#191970" d="M398.9672,-246.2606C395.258,-218.5106 391.6201,-159.261 420.5,-123 440.5499,-97.8258 474.3522,-84.9529 503.2403,-78.3726"/>
<polygon fill="#191970" stroke="#191970" points="504.1444,-81.7596 513.2228,-76.2976 502.7197,-74.906 504.1444,-81.7596"/>
</g>
<!-- Node5 -->
<g id="node6" class="node">
<title>Node5</title>
<polygon fill="#ffffff" stroke="#bfbfbf" points="430,-129 430,-148 539,-148 539,-129 430,-129"/>
<text text-anchor="middle" x="484.5" y="-136" font-family="Helvetica,sans-Serif" font-size="10.00" fill="#000000">AMReX_AmrCore.H</text>
</g>
<!-- Node4&#45;&gt;Node5 -->
<g id="edge5" class="edge">
<title>Node4&#45;&gt;Node5</title>
<path fill="none" stroke="#191970" d="M608.9068,-251.8484C585.9379,-230.9212 531.3215,-181.1596 502.7034,-155.0854"/>
<polygon fill="#191970" stroke="#191970" points="504.7932,-152.2545 495.044,-148.1068 500.0788,-157.4289 504.7932,-152.2545"/>
</g>
<!-- Node4&#45;&gt;Node6 -->
<g id="edge6" class="edge">
<title>Node4&#45;&gt;Node6</title>
<path fill="none" stroke="#191970" d="M562.2839,-253.1418C487.502,-242.2176 356.3474,-223.0585 273.6288,-210.9749"/>
<polygon fill="#191970" stroke="#191970" points="273.9398,-207.4832 263.5389,-209.5009 272.9279,-214.4097 273.9398,-207.4832"/>
</g>
<!-- Node10 -->
<g id="node11" class="node">
<title>Node10</title>
<g id="a_node11"><a xlink:href="_field_repo_8_h.html" target="_top" xlink:title="amr&#45;wind/core/FieldRepo.H">
<polygon fill="#ffffff" stroke="#000000" points="624.5,-190.5 624.5,-209.5 770.5,-209.5 770.5,-190.5 624.5,-190.5"/>
<text text-anchor="middle" x="697.5" y="-197.5" font-family="Helvetica,sans-Serif" font-size="10.00" fill="#000000">amr&#45;wind/core/FieldRepo.H</text>
</a>
</g>
</g>
<!-- Node4&#45;&gt;Node10 -->
<g id="edge10" class="edge">
<title>Node4&#45;&gt;Node10</title>
<path fill="none" stroke="#191970" d="M631.6875,-251.8906C643.937,-242.2324 663.0263,-227.1812 677.4977,-215.771"/>
<polygon fill="#191970" stroke="#191970" points="679.7124,-218.4819 685.3981,-209.5419 675.3783,-212.985 679.7124,-218.4819"/>
</g>
<!-- Node28 -->
<g id="node29" class="node">
<title>Node28</title>
<g id="a_node29"><a xlink:href="_p_d_e_base_8_h.html" target="_top" xlink:title="amr&#45;wind/equation_systems\l/PDEBase.H">
<polygon fill="#ffffff" stroke="#000000" points="1838,-123.5 1838,-153.5 1993,-153.5 1993,-123.5 1838,-123.5"/>
<text text-anchor="start" x="1846" y="-141.5" font-family="Helvetica,sans-Serif" font-size="10.00" fill="#000000">amr&#45;wind/equation_systems</text>
<text text-anchor="middle" x="1915.5" y="-130.5" font-family="Helvetica,sans-Serif" font-size="10.00" fill="#000000">/PDEBase.H</text>
</a>
</g>
</g>
<!-- Node4&#45;&gt;Node28 -->
<g id="edge47" class="edge">
<title>Node4&#45;&gt;Node28</title>
<path fill="none" stroke="#191970" d="M676.8597,-256.0561C882.0886,-236.5784 1580.7675,-170.2686 1827.9608,-146.8081"/>
<polygon fill="#191970" stroke="#191970" points="1828.3528,-150.2867 1837.9774,-145.8575 1827.6914,-143.318 1828.3528,-150.2867"/>
</g>
<!-- Node36 -->
<g id="node37" class="node">
<title>Node36</title>
<g id="a_node37"><a xlink:href="_physics_8_h.html" target="_top" xlink:title="amr&#45;wind/core/Physics.H">
<polygon fill="#ffffff" stroke="#000000" points="2385,-129 2385,-148 2522,-148 2522,-129 2385,-129"/>
<text text-anchor="middle" x="2453.5" y="-136" font-family="Helvetica,sans-Serif" font-size="10.00" fill="#000000">amr&#45;wind/core/Physics.H</text>
</a>
</g>
</g>
<!-- Node4&#45;&gt;Node36 -->
<g id="edge64" class="edge">
<title>Node4&#45;&gt;Node36</title>
<path fill="none" stroke="#191970" d="M676.7975,-260.5466C896.7974,-256.3439 1708.1605,-235.8599 2370.5,-154 2379.4744,-152.8908 2388.9431,-151.4162 2398.1468,-149.8167"/>
<polygon fill="#191970" stroke="#191970" points="2398.7726,-153.2604 2407.9939,-148.0433 2397.5319,-146.3712 2398.7726,-153.2604"/>
</g>
<!-- Node7 -->
<g id="node8" class="node">
<title>Node7</title>
<polygon fill="#ffffff" stroke="#bfbfbf" points="0,-129 0,-148 91,-148 91,-129 0,-129"/>
<text text-anchor="middle" x="45.5" y="-136" font-family="Helvetica,sans-Serif" font-size="10.00" fill="#000000">AMReX_REAL.H</text>
</g>
<!-- Node6&#45;&gt;Node7 -->
<g id="edge7" class="edge">
<title>Node6&#45;&gt;Node7</title>
<path fill="none" stroke="#191970" d="M174.5938,-190.3906C148.7695,-180.0103 107.4473,-163.4004 78.5295,-151.7766"/>
<polygon fill="#191970" stroke="#191970" points="79.8222,-148.5241 69.2384,-148.0419 77.2115,-155.019 79.8222,-148.5241"/>
</g>
<!-- Node8 -->
<g id="node9" class="node">
<title>Node8</title>
<polygon fill="#ffffff" stroke="#bfbfbf" points="109.5,-129 109.5,-148 241.5,-148 241.5,-129 109.5,-129"/>
<text text-anchor="middle" x="175.5" y="-136" font-family="Helvetica,sans-Serif" font-size="10.00" fill="#000000">AMReX_GpuQualifiers.H</text>
</g>
<!-- Node6&#45;&gt;Node8 -->
<g id="edge8" class="edge">
<title>Node6&#45;&gt;Node8</title>
<path fill="none" stroke="#191970" d="M194.9063,-190.3906C191.6509,-181.6862 186.7575,-168.6015 182.699,-157.7494"/>
<polygon fill="#191970" stroke="#191970" points="185.9256,-156.3852 179.1444,-148.2449 179.3691,-158.8373 185.9256,-156.3852"/>
</g>
<!-- Node9 -->
<g id="node10" class="node">
<title>Node9</title>
<polygon fill="#ffffff" stroke="#bfbfbf" points="259.5,-129 259.5,-148 373.5,-148 373.5,-129 259.5,-129"/>
<text text-anchor="middle" x="316.5" y="-136" font-family="Helvetica,sans-Serif" font-size="10.00" fill="#000000">AMReX_Extension.H</text>
</g>
<!-- Node6&#45;&gt;Node9 -->
<g id="edge9" class="edge">
<title>Node6&#45;&gt;Node9</title>
<path fill="none" stroke="#191970" d="M216.9375,-190.3906C236.3347,-180.2811 267.069,-164.2628 289.2617,-152.6962"/>
<polygon fill="#191970" stroke="#191970" points="290.9418,-155.7675 298.192,-148.0419 287.7064,-149.56 290.9418,-155.7675"/>
</g>
<!-- Node10&#45;&gt;Node5 -->
<g id="edge44" class="edge">
<title>Node10&#45;&gt;Node5</title>
<path fill="none" stroke="#191970" d="M664.2188,-190.3906C627.3295,-179.7395 567.7243,-162.5296 527.3675,-150.8772"/>
<polygon fill="#191970" stroke="#191970" points="528.126,-147.4533 517.5475,-148.0419 526.1842,-154.1786 528.126,-147.4533"/>
</g>
<!-- Node11 -->
<g id="node12" class="node">
<title>Node11</title>
<polygon fill="#ffffff" stroke="#bfbfbf" points="1423.5,-.5 1423.5,-19.5 1467.5,-19.5 1467.5,-.5 1423.5,-.5"/>
<text text-anchor="middle" x="1445.5" y="-7.5" font-family="Helvetica,sans-Serif" font-size="10.00" fill="#000000">string</text>
</g>
<!-- Node10&#45;&gt;Node11 -->
<g id="edge11" class="edge">
<title>Node10&#45;&gt;Node11</title>
<path fill="none" stroke="#191970" d="M770.529,-198.0394C933.3029,-192.2007 1319.0555,-169.7634 1414.5,-87 1431.2906,-72.4403 1439.1014,-47.4788 1442.6582,-29.9318"/>
<polygon fill="#191970" stroke="#191970" points="1446.18,-30.1052 1444.4328,-19.6554 1439.2821,-28.914 1446.18,-30.1052"/>
</g>
<!-- Node12 -->
<g id="node13" class="node">
<title>Node12</title>
<polygon fill="#ffffff" stroke="#bfbfbf" points="2273,-.5 2273,-19.5 2366,-19.5 2366,-.5 2273,-.5"/>
<text text-anchor="middle" x="2319.5" y="-7.5" font-family="Helvetica,sans-Serif" font-size="10.00" fill="#000000">unordered_map</text>
</g>
<!-- Node10&#45;&gt;Node12 -->
<g id="edge12" class="edge">
<title>Node10&#45;&gt;Node12</title>
<path fill="none" stroke="#191970" d="M770.6524,-199.0698C1008.9326,-195.7809 1761.2737,-183.2861 2002.5,-154 2146.747,-136.4877 2230.884,-199.7847 2322.5,-87 2335.5624,-70.9194 2331.7236,-46.1173 2326.6515,-29.0297"/>
<polygon fill="#191970" stroke="#191970" points="2329.9665,-27.9066 2323.474,-19.5341 2323.3283,-30.1279 2329.9665,-27.9066"/>
</g>
<!-- Node13 -->
<g id="node14" class="node">
<title>Node13</title>
<g id="a_node14"><a xlink:href="_field_desc_types_8_h.html" target="_top" xlink:title="amr&#45;wind/core/FieldDescTypes.H">
<polygon fill="#ffffff" stroke="#000000" points="744.5,-.5 744.5,-19.5 918.5,-19.5 918.5,-.5 744.5,-.5"/>
<text text-anchor="middle" x="831.5" y="-7.5" font-family="Helvetica,sans-Serif" font-size="10.00" fill="#000000">amr&#45;wind/core/FieldDescTypes.H</text>
</a>
</g>
</g>
<!-- Node10&#45;&gt;Node13 -->
<g id="edge13" class="edge">
<title>Node10&#45;&gt;Node13</title>
<path fill="none" stroke="#191970" d="M683.2545,-190.3559C652.963,-169.8516 584.7956,-123.7261 583.5,-123 549.8407,-104.1363 525.3738,-119.4511 504.5,-87 497.0464,-75.4124 495.4616,-66.3988 504.5,-56 519.5438,-38.6919 643.5201,-25.05 734.385,-17.2526"/>
<polygon fill="#191970" stroke="#191970" points="734.7875,-20.7312 744.4568,-16.4005 734.1973,-13.7561 734.7875,-20.7312"/>
</g>
<!-- Node14 -->
<g id="node15" class="node">
<title>Node14</title>
<g id="a_node15"><a xlink:href="_field_utils_8_h.html" target="_top" xlink:title="amr&#45;wind/core/FieldUtils.H">
<polygon fill="#ffffff" stroke="#000000" points="312,-62 312,-81 457,-81 457,-62 312,-62"/>
<text text-anchor="middle" x="384.5" y="-69" font-family="Helvetica,sans-Serif" font-size="10.00" fill="#000000">amr&#45;wind/core/FieldUtils.H</text>
</a>
</g>
</g>
<!-- Node10&#45;&gt;Node14 -->
<g id="edge14" class="edge">
<title>Node10&#45;&gt;Node14</title>
<path fill="none" stroke="#191970" d="M671.5251,-190.4486C649.621,-181.9928 617.7385,-168.732 591.5,-154 570.6412,-142.2885 568.9362,-133.6178 547.5,-123 512.0719,-105.4517 469.3758,-92.2209 436.5699,-83.5662"/>
<polygon fill="#191970" stroke="#191970" points="437.2825,-80.1355 426.7253,-81.0274 435.5345,-86.9137 437.2825,-80.1355"/>
</g>
<!-- Node15 -->
<g id="node16" class="node">
<title>Node15</title>
<polygon fill="#ffffff" stroke="#bfbfbf" points="1019,-.5 1019,-19.5 1126,-19.5 1126,-.5 1019,-.5"/>
<text text-anchor="middle" x="1072.5" y="-7.5" font-family="Helvetica,sans-Serif" font-size="10.00" fill="#000000">AMReX_MultiFab.H</text>
</g>
<!-- Node10&#45;&gt;Node15 -->
<g id="edge45" class="edge">
<title>Node10&#45;&gt;Node15</title>
<path fill="none" stroke="#191970" d="M688.2464,-190.3187C665.2659,-165.1234 610.0001,-96.6533 646.5,-56 658.4396,-42.7017 892.5737,-23.4428 1008.5348,-14.6693"/>
<polygon fill="#191970" stroke="#191970" points="1008.993,-18.1449 1018.702,-13.9041 1008.4675,-11.1646 1008.993,-18.1449"/>
</g>
<!-- Node10&#45;&gt;Node17 -->
<g id="edge18" class="edge">
<title>Node10&#45;&gt;Node17</title>
<path fill="none" stroke="#191970" d="M770.5946,-199.07C906.7203,-196.5669 1208.0739,-187.3941 1459.5,-154 1467.3773,-152.9538 1475.6642,-151.5512 1483.7403,-150.0158"/>
<polygon fill="#191970" stroke="#191970" points="1484.6834,-153.3969 1493.8104,-148.0166 1483.3202,-146.5309 1484.6834,-153.3969"/>
</g>
<!-- Node24 -->
<g id="node25" class="node">
<title>Node24</title>
<g id="a_node25"><a xlink:href="_int_field_8_h.html" target="_top" xlink:title="amr&#45;wind/core/IntField.H">
<polygon fill="#ffffff" stroke="#000000" points="726,-129 726,-148 861,-148 861,-129 726,-129"/>
<text text-anchor="middle" x="793.5" y="-136" font-family="Helvetica,sans-Serif" font-size="10.00" fill="#000000">amr&#45;wind/core/IntField.H</text>
</a>
</g>
</g>
<!-- Node10&#45;&gt;Node24 -->
<g id="edge33" class="edge">
<title>Node10&#45;&gt;Node24</title>
<path fill="none" stroke="#191970" d="M712.5,-190.3906C727.8581,-180.5519 751.9521,-165.1167 769.8745,-153.6351"/>
<polygon fill="#191970" stroke="#191970" points="772.073,-156.3833 778.6053,-148.0419 768.297,-150.4891 772.073,-156.3833"/>
</g>
<!-- Node25 -->
<g id="node26" class="node">
<title>Node25</title>
<polygon fill="#ffffff" stroke="#bfbfbf" points="655.5,-62 655.5,-81 765.5,-81 765.5,-62 655.5,-62"/>
<text text-anchor="middle" x="710.5" y="-69" font-family="Helvetica,sans-Serif" font-size="10.00" fill="#000000">AMReX_iMultiFab.H</text>
</g>
<!-- Node10&#45;&gt;Node25 -->
<g id="edge46" class="edge">
<title>Node10&#45;&gt;Node25</title>
<path fill="none" stroke="#191970" d="M698.4771,-190.3416C700.5946,-169.4114 705.6436,-119.504 708.4791,-91.4762"/>
<polygon fill="#191970" stroke="#191970" points="711.9872,-91.572 709.5115,-81.2705 705.0227,-90.8674 711.9872,-91.572"/>
</g>
<!-- Node26 -->
<g id="node27" class="node">
<title>Node26</title>
<g id="a_node27"><a xlink:href="_scratch_field_8_h.html" target="_top" xlink:title="amr&#45;wind/core/ScratchField.H">
<polygon fill="#ffffff" stroke="#000000" points="974.5,-129 974.5,-148 1132.5,-148 1132.5,-129 974.5,-129"/>
<text text-anchor="middle" x="1053.5" y="-136" font-family="Helvetica,sans-Serif" font-size="10.00" fill="#000000">amr&#45;wind/core/ScratchField.H</text>
</a>
</g>
</g>
<!-- Node10&#45;&gt;Node26 -->
<g id="edge37" class="edge">
<title>Node10&#45;&gt;Node26</title>
<path fill="none" stroke="#191970" d="M752.7344,-190.4581C816.3586,-179.4668 920.7833,-161.4272 988.3287,-149.7585"/>
<polygon fill="#191970" stroke="#191970" points="989.1707,-153.165 998.4289,-148.0137 987.9791,-146.2672 989.1707,-153.165"/>
</g>
<!-- Node14&#45;&gt;Node13 -->
<g id="edge15" class="edge">
<title>Node14&#45;&gt;Node13</title>
<path fill="none" stroke="#191970" d="M435.4944,-61.9817C447.2987,-59.8988 459.8223,-57.7852 471.5,-56 561.6222,-42.2226 664.8754,-29.3241 737.6252,-20.7124"/>
<polygon fill="#191970" stroke="#191970" points="738.1623,-24.1734 747.6835,-19.5261 737.3423,-17.2216 738.1623,-24.1734"/>
</g>
<!-- Node14&#45;&gt;Node15 -->
<g id="edge16" class="edge">
<title>Node14&#45;&gt;Node15</title>
<path fill="none" stroke="#191970" d="M453.9171,-61.9624C470.4746,-59.8457 488.1002,-57.7222 504.5,-56 600.7775,-45.8893 881.789,-24.355 1008.8296,-14.7713"/>
<polygon fill="#191970" stroke="#191970" points="1009.0967,-18.2612 1018.8054,-14.0195 1008.5706,-11.281 1009.0967,-18.2612"/>
</g>
<!-- Node16 -->
<g id="node17" class="node">
<title>Node16</title>
<polygon fill="#ffffff" stroke="#bfbfbf" points="323.5,-.5 323.5,-19.5 445.5,-19.5 445.5,-.5 323.5,-.5"/>
<text text-anchor="middle" x="384.5" y="-7.5" font-family="Helvetica,sans-Serif" font-size="10.00" fill="#000000">AMReX_Interpolater.H</text>
</g>
<!-- Node14&#45;&gt;Node16 -->
<g id="edge17" class="edge">
<title>Node14&#45;&gt;Node16</title>
<path fill="none" stroke="#191970" d="M384.5,-61.8906C384.5,-53.3657 384.5,-40.6392 384.5,-29.9235"/>
<polygon fill="#191970" stroke="#191970" points="388.0001,-29.7448 384.5,-19.7449 381.0001,-29.7449 388.0001,-29.7448"/>
</g>
<!-- Node17&#45;&gt;Node3 -->
<g id="edge25" class="edge">
<title>Node17&#45;&gt;Node3</title>
<path fill="none" stroke="#191970" d="M1473.4663,-135.8586C1300.1737,-128.216 807.3024,-105.4504 646.5,-87 634.5632,-85.6304 621.8069,-83.7134 609.7623,-81.6931"/>
<polygon fill="#191970" stroke="#191970" points="610.2955,-78.2335 599.8459,-79.9815 609.1049,-85.1315 610.2955,-78.2335"/>
</g>
<!-- Node17&#45;&gt;Node11 -->
<g id="edge19" class="edge">
<title>Node17&#45;&gt;Node11</title>
<path fill="none" stroke="#191970" d="M1527.8105,-128.8416C1512.992,-107.4463 1477.2017,-55.7715 1458.0644,-28.1407"/>
<polygon fill="#191970" stroke="#191970" points="1460.8382,-25.9984 1452.2671,-19.7705 1455.0836,-29.9841 1460.8382,-25.9984"/>
</g>
<!-- Node17&#45;&gt;Node12 -->
<g id="edge21" class="edge">
<title>Node17&#45;&gt;Node12</title>
<path fill="none" stroke="#191970" d="M1595.6181,-135.3493C1774.7876,-125.9901 2287.0257,-98.3033 2300.5,-87 2316.9327,-73.215 2320.4019,-47.695 2320.5997,-29.8259"/>
<polygon fill="#191970" stroke="#191970" points="2324.0944,-29.5452 2320.3738,-19.6252 2317.0961,-29.7002 2324.0944,-29.5452"/>
</g>
<!-- Node17&#45;&gt;Node13 -->
<g id="edge27" class="edge">
<title>Node17&#45;&gt;Node13</title>
<path fill="none" stroke="#191970" d="M1473.2782,-134.2026C1389.6063,-127.6375 1235.1215,-113.0437 1105.5,-87 1056.1213,-77.0788 1044.9801,-69.6517 996.5,-56 955.6423,-44.4947 909.0522,-31.5192 875.8233,-22.2895"/>
<polygon fill="#191970" stroke="#191970" points="876.5329,-18.8541 865.961,-19.5511 874.6601,-25.599 876.5329,-18.8541"/>
</g>
<!-- Node17&#45;&gt;Node15 -->
<g id="edge23" class="edge">
<title>Node17&#45;&gt;Node15</title>
<path fill="none" stroke="#191970" d="M1473.2862,-135.1532C1379.2228,-129.209 1204.1704,-114.7405 1148.5,-87 1121.2997,-73.4461 1098.1236,-46.2674 1084.75,-28.1002"/>
<polygon fill="#191970" stroke="#191970" points="1087.3202,-25.6738 1078.6806,-19.5412 1081.6101,-29.723 1087.3202,-25.6738"/>
</g>
<!-- Node18 -->
<g id="node19" class="node">
<title>Node18</title>
<polygon fill="#ffffff" stroke="#bfbfbf" points="2194.5,-.5 2194.5,-19.5 2252.5,-19.5 2252.5,-.5 2194.5,-.5"/>
<text text-anchor="middle" x="2223.5" y="-7.5" font-family="Helvetica,sans-Serif" font-size="10.00" fill="#000000">memory</text>
</g>
<!-- Node17&#45;&gt;Node18 -->
<g id="edge20" class="edge">
<title>Node17&#45;&gt;Node18</title>
<path fill="none" stroke="#191970" d="M1581.8398,-128.9258C1616.131,-120.7952 1662.8787,-107.1907 1700.5,-87 1719.7049,-76.6931 1718.336,-64.275 1738.5,-56 1759.0374,-47.5717 2072.1742,-22.0225 2184.1012,-13.1084"/>
<polygon fill="#191970" stroke="#191970" points="2184.5969,-16.5802 2194.2882,-12.2989 2184.0423,-9.6022 2184.5969,-16.5802"/>
</g>
<!-- Node19 -->
<g id="node20" class="node">
<title>Node19</title>
<polygon fill="#ffffff" stroke="#bfbfbf" points="1511.5,-62 1511.5,-81 1575.5,-81 1575.5,-62 1511.5,-62"/>
<text text-anchor="middle" x="1543.5" y="-69" font-family="Helvetica,sans-Serif" font-size="10.00" fill="#000000">algorithm</text>
</g>
<!-- Node17&#45;&gt;Node19 -->
<g id="edge22" class="edge">
<title>Node17&#45;&gt;Node19</title>
<path fill="none" stroke="#191970" d="M1535.7895,-128.9005C1537.0994,-119.149 1539.1666,-103.7597 1540.831,-91.3695"/>
<polygon fill="#191970" stroke="#191970" points="1544.3503,-91.4586 1542.2129,-81.0817 1537.4127,-90.5266 1544.3503,-91.4586"/>
</g>
<!-- Node20 -->
<g id="node21" class="node">
<title>Node20</title>
<polygon fill="#ffffff" stroke="#bfbfbf" points="1594,-62 1594,-81 1691,-81 1691,-62 1594,-62"/>
<text text-anchor="middle" x="1642.5" y="-69" font-family="Helvetica,sans-Serif" font-size="10.00" fill="#000000">AMReX_BCRec.H</text>
</g>
<!-- Node17&#45;&gt;Node20 -->
<g id="edge24" class="edge">
<title>Node17&#45;&gt;Node20</title>
<path fill="none" stroke="#191970" d="M1549.9738,-128.9005C1567.858,-117.8057 1597.5062,-99.4128 1618.4138,-86.4424"/>
<polygon fill="#191970" stroke="#191970" points="1620.4024,-89.3275 1627.0549,-81.0817 1616.7122,-83.3792 1620.4024,-89.3275"/>
</g>
<!-- Node21 -->
<g id="node22" class="node">
<title>Node21</title>
<g id="a_node22"><a xlink:href="incflo__enums_8_h.html" target="_top" xlink:title="amr&#45;wind/incflo_enums.H">
<polygon fill="#ffffff" stroke="#000000" points="1747.5,-62 1747.5,-81 1887.5,-81 1887.5,-62 1747.5,-62"/>
<text text-anchor="middle" x="1817.5" y="-69" font-family="Helvetica,sans-Serif" font-size="10.00" fill="#000000">amr&#45;wind/incflo_enums.H</text>
</a>
</g>
</g>
<!-- Node17&#45;&gt;Node21 -->
<g id="edge26" class="edge">
<title>Node17&#45;&gt;Node21</title>
<path fill="none" stroke="#191970" d="M1574.7465,-128.9717C1625.3143,-116.9998 1712.1124,-96.4504 1767.0607,-83.4415"/>
<polygon fill="#191970" stroke="#191970" points="1768.0095,-86.8137 1776.9342,-81.1039 1766.3968,-80.002 1768.0095,-86.8137"/>
</g>
<!-- Node22 -->
<g id="node23" class="node">
<title>Node22</title>
<g id="a_node23"><a xlink:href="_view_field_8_h.html" target="_top" xlink:title="amr&#45;wind/core/ViewField.H">
<polygon fill="#ffffff" stroke="#000000" points="1157.5,-62 1157.5,-81 1303.5,-81 1303.5,-62 1157.5,-62"/>
<text text-anchor="middle" x="1230.5" y="-69" font-family="Helvetica,sans-Serif" font-size="10.00" fill="#000000">amr&#45;wind/core/ViewField.H</text>
</a>
</g>
</g>
<!-- Node17&#45;&gt;Node22 -->
<g id="edge28" class="edge">
<title>Node17&#45;&gt;Node22</title>
<path fill="none" stroke="#191970" d="M1491.2671,-128.9717C1436.7214,-116.9501 1342.9335,-96.2797 1283.9492,-83.2799"/>
<polygon fill="#191970" stroke="#191970" points="1284.595,-79.8383 1274.076,-81.1039 1283.0883,-86.6743 1284.595,-79.8383"/>
</g>
<!-- Node22&#45;&gt;Node11 -->
<g id="edge29" class="edge">
<title>Node22&#45;&gt;Node11</title>
<path fill="none" stroke="#191970" d="M1264.0938,-61.8906C1304.9445,-50.2054 1373.3926,-30.6261 1413.5064,-19.1516"/>
<polygon fill="#191970" stroke="#191970" points="1414.6492,-22.4652 1423.301,-16.3499 1412.724,-15.7351 1414.6492,-22.4652"/>
</g>
<!-- Node22&#45;&gt;Node13 -->
<g id="edge30" class="edge">
<title>Node22&#45;&gt;Node13</title>
<path fill="none" stroke="#191970" d="M1178.5584,-61.9837C1167.0269,-59.9443 1154.8571,-57.8485 1143.5,-56 1064.2815,-43.1063 973.4854,-29.896 910.3455,-20.9594"/>
<polygon fill="#191970" stroke="#191970" points="910.4556,-17.4403 900.0644,-19.5074 909.4767,-24.3715 910.4556,-17.4403"/>
</g>
<!-- Node22&#45;&gt;Node15 -->
<g id="edge31" class="edge">
<title>Node22&#45;&gt;Node15</title>
<path fill="none" stroke="#191970" d="M1205.8125,-61.8906C1179.1443,-51.5103 1136.4718,-34.9004 1106.6089,-23.2766"/>
<polygon fill="#191970" stroke="#191970" points="1107.6027,-19.9076 1097.0141,-19.5419 1105.0635,-26.4309 1107.6027,-19.9076"/>
</g>
<!-- Node23 -->
<g id="node24" class="node">
<title>Node23</title>
<polygon fill="#ffffff" stroke="#bfbfbf" points="1283.5,-.5 1283.5,-19.5 1379.5,-19.5 1379.5,-.5 1283.5,-.5"/>
<text text-anchor="middle" x="1331.5" y="-7.5" font-family="Helvetica,sans-Serif" font-size="10.00" fill="#000000">AMReX_Vector.H</text>
</g>
<!-- Node22&#45;&gt;Node23 -->
<g id="edge32" class="edge">
<title>Node22&#45;&gt;Node23</title>
<path fill="none" stroke="#191970" d="M1246.2813,-61.8906C1262.5875,-51.9616 1288.254,-36.333 1307.1614,-24.8201"/>
<polygon fill="#191970" stroke="#191970" points="1309.1087,-27.7322 1315.8296,-19.5419 1305.4681,-21.7533 1309.1087,-27.7322"/>
</g>
<!-- Node24&#45;&gt;Node11 -->
<g id="edge34" class="edge">
<title>Node24&#45;&gt;Node11</title>
<path fill="none" stroke="#191970" d="M861.0149,-132.1738C999.1192,-119.183 1301.869,-90.4271 1312.5,-87 1355.4713,-73.1474 1399.746,-43.9642 1424.8253,-25.7705"/>
<polygon fill="#191970" stroke="#191970" points="1427.1956,-28.371 1433.1586,-19.6135 1423.0358,-22.741 1427.1956,-28.371"/>
</g>
<!-- Node24&#45;&gt;Node13 -->
<g id="edge35" class="edge">
<title>Node24&#45;&gt;Node13</title>
<path fill="none" stroke="#191970" d="M796.2695,-128.8358C800.6976,-113.4169 809.6708,-82.3063 817.5,-56 820.116,-47.2102 823.065,-37.4931 825.5794,-29.2634"/>
<polygon fill="#191970" stroke="#191970" points="828.9863,-30.0911 828.5699,-19.5045 822.2935,-28.0401 828.9863,-30.0911"/>
</g>
<!-- Node24&#45;&gt;Node25 -->
<g id="edge36" class="edge">
<title>Node24&#45;&gt;Node25</title>
<path fill="none" stroke="#191970" d="M781.6081,-128.9005C768.2952,-118.1539 746.5001,-100.5603 730.5432,-87.6794"/>
<polygon fill="#191970" stroke="#191970" points="732.3494,-84.6395 722.3698,-81.0817 727.9526,-90.0863 732.3494,-84.6395"/>
</g>
<!-- Node26&#45;&gt;Node11 -->
<g id="edge38" class="edge">
<title>Node26&#45;&gt;Node11</title>
<path fill="none" stroke="#191970" d="M1132.8672,-132.7081C1216.583,-125.4503 1342.0146,-110.9657 1383.5,-87 1407.1992,-73.3092 1425.431,-46.7964 1435.8107,-28.7483"/>
<polygon fill="#191970" stroke="#191970" points="1439.0177,-30.1792 1440.7543,-19.7277 1432.8791,-26.815 1439.0177,-30.1792"/>
</g>
<!-- Node26&#45;&gt;Node13 -->
<g id="edge39" class="edge">
<title>Node26&#45;&gt;Node13</title>
<path fill="none" stroke="#191970" d="M985.9808,-128.9711C934.5679,-120.3659 869.4952,-106.1197 850.5,-87 835.5341,-71.936 831.7044,-47.0779 831.0249,-29.6927"/>
<polygon fill="#191970" stroke="#191970" points="834.5236,-29.4985 830.9478,-19.5253 827.5238,-29.5516 834.5236,-29.4985"/>
</g>
<!-- Node26&#45;&gt;Node15 -->
<g id="edge41" class="edge">
<title>Node26&#45;&gt;Node15</title>
<path fill="none" stroke="#191970" d="M1054.9281,-128.8416C1058.0228,-107.9114 1065.4021,-58.004 1069.5463,-29.9762"/>
<polygon fill="#191970" stroke="#191970" points="1073.0549,-30.1749 1071.0553,-19.7705 1066.1302,-29.1509 1073.0549,-30.1749"/>
</g>
<!-- Node26&#45;&gt;Node22 -->
<g id="edge40" class="edge">
<title>Node26&#45;&gt;Node22</title>
<path fill="none" stroke="#191970" d="M1078.8598,-128.9005C1109.4844,-117.3082 1161.1568,-97.7486 1195.5456,-84.7313"/>
<polygon fill="#191970" stroke="#191970" points="1197.0739,-87.8952 1205.1873,-81.0817 1194.5958,-81.3486 1197.0739,-87.8952"/>
</g>
<!-- Node26&#45;&gt;Node23 -->
<g id="edge42" class="edge">
<title>Node26&#45;&gt;Node23</title>
<path fill="none" stroke="#191970" d="M1132.5778,-132.0329C1199.008,-124.98 1287.0582,-111.3064 1312.5,-87 1327.8537,-72.3315 1331.6039,-47.3923 1332.159,-29.8802"/>
<polygon fill="#191970" stroke="#191970" points="1335.659,-29.625 1332.1523,-19.6274 1328.659,-29.6297 1335.659,-29.625"/>
</g>
<!-- Node27 -->
<g id="node28" class="node">
<title>Node27</title>
<polygon fill="#ffffff" stroke="#bfbfbf" points="859.5,-62 859.5,-81 987.5,-81 987.5,-62 859.5,-62"/>
<text text-anchor="middle" x="923.5" y="-69" font-family="Helvetica,sans-Serif" font-size="10.00" fill="#000000">AMReX_PhysBCFunct.H</text>
</g>
<!-- Node26&#45;&gt;Node27 -->
<g id="edge43" class="edge">
<title>Node26&#45;&gt;Node27</title>
<path fill="none" stroke="#191970" d="M1034.8742,-128.9005C1012.9607,-117.6067 976.3744,-98.7506 951.1487,-85.7497"/>
<polygon fill="#191970" stroke="#191970" points="952.5836,-82.5518 942.0913,-81.0817 949.3768,-88.774 952.5836,-82.5518"/>
</g>
<!-- Node28&#45;&gt;Node11 -->
<g id="edge48" class="edge">
<title>Node28&#45;&gt;Node11</title>
<path fill="none" stroke="#191970" d="M1916.8157,-123.4124C1917.5396,-104.5857 1915.5653,-72.8244 1896.5,-56 1865.1803,-28.3615 1575.6616,-14.929 1477.7125,-11.1479"/>
<polygon fill="#191970" stroke="#191970" points="1477.6533,-7.6432 1467.5282,-10.7631 1477.3889,-14.6382 1477.6533,-7.6432"/>
</g>
<!-- Node28&#45;&gt;Node13 -->
<g id="edge62" class="edge">
<title>Node28&#45;&gt;Node13</title>
<path fill="none" stroke="#191970" d="M1837.9962,-134.5746C1656.5674,-125.2023 1214.5885,-101.2416 1148.5,-87 1110.0058,-78.7048 1103.3899,-66.7224 1065.5,-56 1012.4259,-40.9806 951.2191,-29.1357 904.7182,-21.2289"/>
<polygon fill="#191970" stroke="#191970" points="905.1701,-17.7558 894.7286,-19.5523 904.0114,-24.6593 905.1701,-17.7558"/>
</g>
<!-- Node28&#45;&gt;Node21 -->
<g id="edge63" class="edge">
<title>Node28&#45;&gt;Node21</title>
<path fill="none" stroke="#191970" d="M1893.2623,-123.2967C1877.2522,-112.351 1855.7437,-97.6462 1839.7344,-86.701"/>
<polygon fill="#191970" stroke="#191970" points="1841.7064,-83.8095 1831.4759,-81.055 1837.7557,-89.5881 1841.7064,-83.8095"/>
</g>
<!-- Node29 -->
<g id="node30" class="node">
<title>Node29</title>
<g id="a_node30"><a xlink:href="_factory_8_h.html" target="_top" xlink:title="amr&#45;wind/core/Factory.H">
<polygon fill="#ffffff" stroke="#000000" points="2385.5,-62 2385.5,-81 2519.5,-81 2519.5,-62 2385.5,-62"/>
<text text-anchor="middle" x="2452.5" y="-69" font-family="Helvetica,sans-Serif" font-size="10.00" fill="#000000">amr&#45;wind/core/Factory.H</text>
</a>
</g>
</g>
<!-- Node28&#45;&gt;Node29 -->
<g id="edge49" class="edge">
<title>Node28&#45;&gt;Node29</title>
<path fill="none" stroke="#191970" d="M1993.3296,-129.0745C2077.2903,-118.8683 2214.9004,-102.0298 2333.5,-87 2347.0551,-85.2822 2361.4749,-83.4273 2375.4267,-81.6183"/>
<polygon fill="#191970" stroke="#191970" points="2376.0182,-85.0709 2385.484,-80.3117 2375.1164,-78.1292 2376.0182,-85.0709"/>
</g>
<!-- Node33 -->
<g id="node34" class="node">
<title>Node33</title>
<g id="a_node34"><a xlink:href="_coll_mgr_8_h.html" target="_top" xlink:title="amr&#45;wind/core/CollMgr.H">
<polygon fill="#ffffff" stroke="#000000" points="2155.5,-62 2155.5,-81 2291.5,-81 2291.5,-62 2155.5,-62"/>
<text text-anchor="middle" x="2223.5" y="-69" font-family="Helvetica,sans-Serif" font-size="10.00" fill="#000000">amr&#45;wind/core/CollMgr.H</text>
</a>
</g>
</g>
<!-- Node28&#45;&gt;Node33 -->
<g id="edge55" class="edge">
<title>Node28&#45;&gt;Node33</title>
<path fill="none" stroke="#191970" d="M1984.6212,-123.4639C2040.6561,-111.2745 2118.4944,-94.3421 2169.8915,-83.1616"/>
<polygon fill="#191970" stroke="#191970" points="2170.7766,-86.551 2179.8041,-81.0053 2169.2886,-79.711 2170.7766,-86.551"/>
</g>
<!-- Node34 -->
<g id="node35" class="node">
<title>Node34</title>
<g id="a_node35"><a xlink:href="_p_d_e_fields_8_h.html" target="_top" xlink:title="amr&#45;wind/equation_systems\l/PDEFields.H">
<polygon fill="#ffffff" stroke="#000000" points="1982,-56.5 1982,-86.5 2137,-86.5 2137,-56.5 1982,-56.5"/>
<text text-anchor="start" x="1990" y="-74.5" font-family="Helvetica,sans-Serif" font-size="10.00" fill="#000000">amr&#45;wind/equation_systems</text>
<text text-anchor="middle" x="2059.5" y="-63.5" font-family="Helvetica,sans-Serif" font-size="10.00" fill="#000000">/PDEFields.H</text>
</a>
</g>
</g>
<!-- Node28&#45;&gt;Node34 -->
<g id="edge60" class="edge">
<title>Node28&#45;&gt;Node34</title>
<path fill="none" stroke="#191970" d="M1947.8164,-123.4639C1968.4225,-113.8763 1995.3351,-101.3545 2017.5783,-91.0052"/>
<polygon fill="#191970" stroke="#191970" points="2019.2031,-94.1096 2026.7932,-86.7177 2016.2501,-87.763 2019.2031,-94.1096"/>
</g>
<!-- Node29&#45;&gt;Node12 -->
<g id="edge51" class="edge">
<title>Node29&#45;&gt;Node12</title>
<path fill="none" stroke="#191970" d="M2431.7188,-61.8906C2409.6606,-51.6908 2374.595,-35.4763 2349.5331,-23.8875"/>
<polygon fill="#191970" stroke="#191970" points="2350.6809,-20.5622 2340.1353,-19.5419 2347.7429,-26.9158 2350.6809,-20.5622"/>
</g>
<!-- Node29&#45;&gt;Node18 -->
<g id="edge50" class="edge">
<title>Node29&#45;&gt;Node18</title>
<path fill="none" stroke="#191970" d="M2416.7188,-61.8906C2374.7941,-50.6314 2305.5792,-32.0431 2262.367,-20.4381"/>
<polygon fill="#191970" stroke="#191970" points="2263.0686,-17.0025 2252.503,-17.789 2261.253,-23.763 2263.0686,-17.0025"/>
</g>
<!-- Node30 -->
<g id="node31" class="node">
<title>Node30</title>
<polygon fill="#ffffff" stroke="#bfbfbf" points="2463.5,-.5 2463.5,-19.5 2523.5,-19.5 2523.5,-.5 2463.5,-.5"/>
<text text-anchor="middle" x="2493.5" y="-7.5" font-family="Helvetica,sans-Serif" font-size="10.00" fill="#000000">iostream</text>
</g>
<!-- Node29&#45;&gt;Node30 -->
<g id="edge52" class="edge">
<title>Node29&#45;&gt;Node30</title>
<path fill="none" stroke="#191970" d="M2458.9063,-61.8906C2464.8886,-52.917 2473.9747,-39.2879 2481.3339,-28.2491"/>
<polygon fill="#191970" stroke="#191970" points="2484.3686,-30.0068 2487.0034,-19.7449 2478.5442,-26.1239 2484.3686,-30.0068"/>
</g>
<!-- Node31 -->
<g id="node32" class="node">
<title>Node31</title>
<polygon fill="#ffffff" stroke="#bfbfbf" points="2542,-.5 2542,-19.5 2631,-19.5 2631,-.5 2542,-.5"/>
<text text-anchor="middle" x="2586.5" y="-7.5" font-family="Helvetica,sans-Serif" font-size="10.00" fill="#000000">AMReX_Print.H</text>
</g>
<!-- Node29&#45;&gt;Node31 -->
<g id="edge53" class="edge">
<title>Node29&#45;&gt;Node31</title>
<path fill="none" stroke="#191970" d="M2473.4375,-61.8906C2495.7598,-51.6457 2531.3037,-35.3326 2556.5757,-23.7339"/>
<polygon fill="#191970" stroke="#191970" points="2558.081,-26.8942 2565.7095,-19.5419 2555.1611,-20.5322 2558.081,-26.8942"/>
</g>
<!-- Node32 -->
<g id="node33" class="node">
<title>Node32</title>
<polygon fill="#ffffff" stroke="#bfbfbf" points="2384,-.5 2384,-19.5 2445,-19.5 2445,-.5 2384,-.5"/>
<text text-anchor="middle" x="2414.5" y="-7.5" font-family="Helvetica,sans-Serif" font-size="10.00" fill="#000000">AMReX.H</text>
</g>
<!-- Node29&#45;&gt;Node32 -->
<g id="edge54" class="edge">
<title>Node29&#45;&gt;Node32</title>
<path fill="none" stroke="#191970" d="M2446.5625,-61.8906C2441.0733,-53.0068 2432.7647,-39.5601 2425.981,-28.5811"/>
<polygon fill="#191970" stroke="#191970" points="2428.7551,-26.4122 2420.5212,-19.7449 2422.8002,-30.0917 2428.7551,-26.4122"/>
</g>
<!-- Node33&#45;&gt;Node11 -->
<g id="edge56" class="edge">
<title>Node33&#45;&gt;Node11</title>
<path fill="none" stroke="#191970" d="M2181.3074,-61.9543C2170.0481,-59.696 2157.8546,-57.5086 2146.5,-56 1890.1609,-21.9431 1577.5821,-12.7458 1477.7569,-10.5909"/>
<polygon fill="#191970" stroke="#191970" points="1477.7756,-7.0907 1467.7052,-10.3826 1477.6305,-14.0891 1477.7756,-7.0907"/>
</g>
<!-- Node33&#45;&gt;Node12 -->
<g id="edge58" class="edge">
<title>Node33&#45;&gt;Node12</title>
<path fill="none" stroke="#191970" d="M2238.5,-61.8906C2253.8581,-52.0519 2277.9521,-36.6167 2295.8745,-25.1351"/>
<polygon fill="#191970" stroke="#191970" points="2298.073,-27.8833 2304.6053,-19.5419 2294.297,-21.9891 2298.073,-27.8833"/>
</g>
<!-- Node33&#45;&gt;Node18 -->
<g id="edge57" class="edge">
<title>Node33&#45;&gt;Node18</title>
<path fill="none" stroke="#191970" d="M2223.5,-61.8906C2223.5,-53.3657 2223.5,-40.6392 2223.5,-29.9235"/>
<polygon fill="#191970" stroke="#191970" points="2227.0001,-29.7448 2223.5,-19.7449 2220.0001,-29.7449 2227.0001,-29.7448"/>
</g>
<!-- Node33&#45;&gt;Node23 -->
<g id="edge59" class="edge">
<title>Node33&#45;&gt;Node23</title>
<path fill="none" stroke="#191970" d="M2182.1262,-61.9896C2170.6455,-59.6739 2158.1373,-57.4492 2146.5,-56 1823.2701,-15.7481 1739.0637,-47.4984 1414.5,-20 1406.4803,-19.3205 1398.0405,-18.4662 1389.7388,-17.5447"/>
<polygon fill="#191970" stroke="#191970" points="1390.0526,-14.0578 1379.7187,-16.3945 1389.2543,-21.0121 1390.0526,-14.0578"/>
</g>
<!-- Node35 -->
<g id="node36" class="node">
<title>Node35</title>
<polygon fill="#ffffff" stroke="#bfbfbf" points="2035,-.5 2035,-19.5 2084,-19.5 2084,-.5 2035,-.5"/>
<text text-anchor="middle" x="2059.5" y="-7.5" font-family="Helvetica,sans-Serif" font-size="10.00" fill="#000000">iosfwd</text>
</g>
<!-- Node34&#45;&gt;Node35 -->
<g id="edge61" class="edge">
<title>Node34&#45;&gt;Node35</title>
<path fill="none" stroke="#191970" d="M2059.5,-56.2977C2059.5,-48.3834 2059.5,-38.6043 2059.5,-30.0759"/>
<polygon fill="#191970" stroke="#191970" points="2063.0001,-29.8469 2059.5,-19.8469 2056.0001,-29.847 2063.0001,-29.8469"/>
</g>
<!-- Node36&#45;&gt;Node15 -->
<g id="edge67" class="edge">
<title>Node36&#45;&gt;Node15</title>
<path fill="none" stroke="#191970" d="M2384.7103,-133.4672C2271.1954,-124.7683 2049.6289,-106.0188 1973.5,-87 1937.7084,-78.0584 1932.5084,-64.024 1896.5,-56 1877.9938,-51.8761 1326.4491,-23.1078 1136.2431,-13.2812"/>
<polygon fill="#191970" stroke="#191970" points="1136.2842,-9.7787 1126.117,-12.7583 1135.9232,-16.7694 1136.2842,-9.7787"/>
</g>
<!-- Node36&#45;&gt;Node29 -->
<g id="edge65" class="edge">
<title>Node36&#45;&gt;Node29</title>
<path fill="none" stroke="#191970" d="M2453.3567,-128.9005C2453.2112,-119.149 2452.9815,-103.7597 2452.7966,-91.3695"/>
<polygon fill="#191970" stroke="#191970" points="2456.292,-91.0283 2452.643,-81.0817 2449.2927,-91.1328 2456.292,-91.0283"/>
</g>
<!-- Node36&#45;&gt;Node33 -->
<g id="edge66" class="edge">
<title>Node36&#45;&gt;Node33</title>
<path fill="none" stroke="#191970" d="M2420.5466,-128.9005C2379.8979,-117.0594 2310.7127,-96.9054 2266.0758,-83.9025"/>
<polygon fill="#191970" stroke="#191970" points="2266.9721,-80.5182 2256.3923,-81.0817 2265.0143,-87.2389 2266.9721,-80.5182"/>
</g>
<!-- Node37 -->
<g id="node38" class="node">
<title>Node37</title>
<polygon fill="#ffffff" stroke="#bfbfbf" points="2538,-62 2538,-81 2651,-81 2651,-62 2538,-62"/>
<text text-anchor="middle" x="2594.5" y="-69" font-family="Helvetica,sans-Serif" font-size="10.00" fill="#000000">AMReX_Geometry.H</text>
</g>
<!-- Node36&#45;&gt;Node37 -->
<g id="edge68" class="edge">
<title>Node36&#45;&gt;Node37</title>
<path fill="none" stroke="#191970" d="M2473.7019,-128.9005C2497.679,-117.5072 2537.8521,-98.4178 2565.2321,-85.4075"/>
<polygon fill="#191970" stroke="#191970" points="2566.8056,-88.5348 2574.3356,-81.0817 2563.8013,-82.2123 2566.8056,-88.5348"/>
</g>
</g>
</svg>
        <g id="navigator" transform="translate(0 0)" fill="#404254">
                <rect fill="#f2f5e9" fill-opacity="0.5" stroke="#606060" stroke-width=".5" x="0" y="0" width="60" height="60"/>
                <use id="zoomplus" xlink:href="#zoomPlus" x="17" y="9" onmousedown="handleZoom(evt,'in')"/>
                <use id="zoomminus" xlink:href="#zoomMin" x="42" y="9" onmousedown="handleZoom(evt,'out')"/>
                <use id="reset" xlink:href="#resetDef" x="30" y="36" onmousedown="handleReset()"/>
                <g id="arrowUp" xlink:href="#dirArrow" transform="translate(30 24)" onmousedown="handlePan(0,-1)">
                  <use xlink:href="#rim" fill="#404040">
                        <set attributeName="fill" to="#808080" begin="arrowUp.mouseover" end="arrowUp.mouseout"/>
                  </use>
                  <path fill="none" stroke="white" stroke-width="1.5" d="M0,-3.0v7 M-2.5,-0.5L0,-3.0L2.5,-0.5"/>
                </g>
                <g id="arrowRight" xlink:href="#dirArrow" transform="rotate(90) translate(36 -43)" onmousedown="handlePan(1,0)">
                  <use xlink:href="#rim" fill="#404040">
                        <set attributeName="fill" to="#808080" begin="arrowRight.mouseover" end="arrowRight.mouseout"/>
                  </use>
                  <path fill="none" stroke="white" stroke-width="1.5" d="M0,-3.0v7 M-2.5,-0.5L0,-3.0L2.5,-0.5"/>
                </g>
                <g id="arrowDown" xlink:href="#dirArrow" transform="rotate(180) translate(-30 -48)" onmousedown="handlePan(0,1)">
                  <use xlink:href="#rim" fill="#404040">
                        <set attributeName="fill" to="#808080" begin="arrowDown.mouseover" end="arrowDown.mouseout"/>
                  </use>
                  <path fill="none" stroke="white" stroke-width="1.5" d="M0,-3.0v7 M-2.5,-0.5L0,-3.0L2.5,-0.5"/>
                </g>
                <g id="arrowLeft" xlink:href="#dirArrow" transform="rotate(270) translate(-36 17)" onmousedown="handlePan(-1,0)">
                  <use xlink:href="#rim" fill="#404040">
                        <set attributeName="fill" to="#808080" begin="arrowLeft.mouseover" end="arrowLeft.mouseout"/>
                  </use>
                  <path fill="none" stroke="white" stroke-width="1.5" d="M0,-3.0v7 M-2.5,-0.5L0,-3.0L2.5,-0.5"/>
                </g>
        </g>
        <svg viewBox="0 0 15 15" width="100%" height="30px" preserveAspectRatio="xMaxYMin meet">
         <g id="arrow_out" transform="scale(0.3 0.3)">
          <a xlink:href="_field_plane_averaging_8_h__incl_org.svg" target="_base">
           <rect id="button" ry="5" rx="5" y="6" x="6" height="38" width="38"
                fill="#f2f5e9" fill-opacity="0.5" stroke="#606060" stroke-width="1.0"/>
           <path id="arrow"
             d="M 11.500037,31.436501 C 11.940474,20.09759 22.043105,11.32322 32.158766,21.979434 L 37.068811,17.246167 C 37.068811,17.246167 37.088388,32 37.088388,32 L 22.160133,31.978069 C 22.160133,31.978069 26.997745,27.140456 26.997745,27.140456 C 18.528582,18.264221 13.291696,25.230495 11.500037,31.436501 z"
             style="fill:#404040;"/>
          </a>
         </g>
        </svg>
</svg>
