<?xml version="1.0" encoding="UTF-8" standalone="no"?>
<!DOCTYPE svg PUBLIC "-//W3C//DTD SVG 1.1//EN"
 "http://www.w3.org/Graphics/SVG/1.1/DTD/svg11.dtd">
<!-- Generated by graphviz version 2.40.1 (20161225.0304)
 -->
<!-- Title: FieldNorms.H Pages: 1 -->
<svg width="2395pt" height="330pt"
 viewBox="0.00 0.00 2395.00 330.00" xmlns="http://www.w3.org/2000/svg" xmlns:xlink="http://www.w3.org/1999/xlink">
<g id="graph0" class="graph" transform="scale(1 1) rotate(0) translate(4 326)">
<title>FieldNorms.H</title>
<polygon fill="#ffffff" stroke="transparent" points="-4,4 -4,-326 2391,-326 2391,4 -4,4"/>
<!-- Node0 -->
<g id="node1" class="node">
<title>Node0</title>
<polygon fill="#bfbfbf" stroke="#000000" points="570.5,-302.5 570.5,-321.5 652.5,-321.5 652.5,-302.5 570.5,-302.5"/>
<text text-anchor="middle" x="611.5" y="-309.5" font-family="Helvetica,sans-Serif" font-size="10.00" fill="#000000">FieldNorms.H</text>
</g>
<!-- Node1 -->
<g id="node2" class="node">
<title>Node1</title>
<g id="a_node2"><a xlink:href="_c_f_d_sim_8_h.html" target="_top" xlink:title="amr&#45;wind/CFDSim.H">
<polygon fill="#ffffff" stroke="#000000" points="731.5,-246.5 731.5,-265.5 845.5,-265.5 845.5,-246.5 731.5,-246.5"/>
<text text-anchor="middle" x="788.5" y="-253.5" font-family="Helvetica,sans-Serif" font-size="10.00" fill="#000000">amr&#45;wind/CFDSim.H</text>
</a>
</g>
</g>
<!-- Node0&#45;&gt;Node1 -->
<g id="edge1" class="edge">
<title>Node0&#45;&gt;Node1</title>
<path fill="none" stroke="#191970" d="M641.9274,-302.3733C671.4872,-293.021 716.5226,-278.7725 748.8695,-268.5385"/>
<polygon fill="#191970" stroke="#191970" points="749.9913,-271.8546 758.4697,-265.5011 747.8797,-265.1807 749.9913,-271.8546"/>
</g>
<!-- Node36 -->
<g id="node37" class="node">
<title>Node36</title>
<g id="a_node37"><a xlink:href="_post_processing_8_h.html" target="_top" xlink:title="amr&#45;wind/utilities\l/PostProcessing.H">
<polygon fill="#ffffff" stroke="#000000" points="287.5,-179.5 287.5,-209.5 391.5,-209.5 391.5,-179.5 287.5,-179.5"/>
<text text-anchor="start" x="295.5" y="-197.5" font-family="Helvetica,sans-Serif" font-size="10.00" fill="#000000">amr&#45;wind/utilities</text>
<text text-anchor="middle" x="339.5" y="-186.5" font-family="Helvetica,sans-Serif" font-size="10.00" fill="#000000">/PostProcessing.H</text>
</a>
</g>
</g>
<!-- Node0&#45;&gt;Node36 -->
<g id="edge66" class="edge">
<title>Node0&#45;&gt;Node36</title>
<path fill="none" stroke="#191970" d="M589.2411,-302.3845C544.4113,-283.0187 442.5199,-239.0031 383.6727,-213.5819"/>
<polygon fill="#191970" stroke="#191970" points="384.8301,-210.2694 374.262,-209.5167 382.0541,-216.6954 384.8301,-210.2694"/>
</g>
<!-- Node2 -->
<g id="node3" class="node">
<title>Node2</title>
<polygon fill="#ffffff" stroke="#bfbfbf" points="1204,-118 1204,-137 1313,-137 1313,-118 1204,-118"/>
<text text-anchor="middle" x="1258.5" y="-125" font-family="Helvetica,sans-Serif" font-size="10.00" fill="#000000">AMReX_AmrCore.H</text>
</g>
<!-- Node1&#45;&gt;Node2 -->
<g id="edge2" class="edge">
<title>Node1&#45;&gt;Node2</title>
<path fill="none" stroke="#191970" d="M845.5619,-247.7031C894.7626,-239.9347 967.463,-226.9821 1029.5,-210 1101.307,-190.3435 1182.7354,-158.6696 1226.5346,-140.8281"/>
<polygon fill="#191970" stroke="#191970" points="1227.8802,-144.0592 1235.8061,-137.0285 1225.2258,-137.582 1227.8802,-144.0592"/>
</g>
<!-- Node3 -->
<g id="node4" class="node">
<title>Node3</title>
<g id="a_node4"><a xlink:href="_sim_time_8_h.html" target="_top" xlink:title="amr&#45;wind/core/SimTime.H">
<polygon fill="#ffffff" stroke="#000000" points="877,-185 877,-204 1020,-204 1020,-185 877,-185"/>
<text text-anchor="middle" x="948.5" y="-192" font-family="Helvetica,sans-Serif" font-size="10.00" fill="#000000">amr&#45;wind/core/SimTime.H</text>
</a>
</g>
</g>
<!-- Node1&#45;&gt;Node3 -->
<g id="edge3" class="edge">
<title>Node1&#45;&gt;Node3</title>
<path fill="none" stroke="#191970" d="M813.5,-246.3906C840.5058,-236.0103 883.7185,-219.4004 913.9594,-207.7766"/>
<polygon fill="#191970" stroke="#191970" points="915.5971,-210.8968 923.6756,-204.0419 913.0856,-204.3628 915.5971,-210.8968"/>
</g>
<!-- Node7 -->
<g id="node8" class="node">
<title>Node7</title>
<g id="a_node8"><a xlink:href="_field_repo_8_h.html" target="_top" xlink:title="amr&#45;wind/core/FieldRepo.H">
<polygon fill="#ffffff" stroke="#000000" points="1484.5,-185 1484.5,-204 1630.5,-204 1630.5,-185 1484.5,-185"/>
<text text-anchor="middle" x="1557.5" y="-192" font-family="Helvetica,sans-Serif" font-size="10.00" fill="#000000">amr&#45;wind/core/FieldRepo.H</text>
</a>
</g>
</g>
<!-- Node1&#45;&gt;Node7 -->
<g id="edge7" class="edge">
<title>Node1&#45;&gt;Node7</title>
<path fill="none" stroke="#191970" d="M845.6717,-251.4277C980.1248,-240.675 1316.8558,-213.7453 1474.1288,-201.1675"/>
<polygon fill="#191970" stroke="#191970" points="1474.5354,-204.6463 1484.2245,-200.3601 1473.9773,-197.6686 1474.5354,-204.6463"/>
</g>
<!-- Node26 -->
<g id="node27" class="node">
<title>Node26</title>
<g id="a_node27"><a xlink:href="_p_d_e_base_8_h.html" target="_top" xlink:title="amr&#45;wind/equation_systems\l/PDEBase.H">
<polygon fill="#ffffff" stroke="#000000" points="410,-179.5 410,-209.5 565,-209.5 565,-179.5 410,-179.5"/>
<text text-anchor="start" x="418" y="-197.5" font-family="Helvetica,sans-Serif" font-size="10.00" fill="#000000">amr&#45;wind/equation_systems</text>
<text text-anchor="middle" x="487.5" y="-186.5" font-family="Helvetica,sans-Serif" font-size="10.00" fill="#000000">/PDEBase.H</text>
</a>
</g>
</g>
<!-- Node1&#45;&gt;Node26 -->
<g id="edge44" class="edge">
<title>Node1&#45;&gt;Node26</title>
<path fill="none" stroke="#191970" d="M741.799,-246.4581C696.3293,-237.1678 626.2134,-222.8418 571.1135,-211.5838"/>
<polygon fill="#191970" stroke="#191970" points="571.5074,-208.0921 561.0092,-209.5193 570.1061,-214.9504 571.5074,-208.0921"/>
</g>
<!-- Node34 -->
<g id="node35" class="node">
<title>Node34</title>
<g id="a_node35"><a xlink:href="_physics_8_h.html" target="_top" xlink:title="amr&#45;wind/core/Physics.H">
<polygon fill="#ffffff" stroke="#000000" points="631,-185 631,-204 768,-204 768,-185 631,-185"/>
<text text-anchor="middle" x="699.5" y="-192" font-family="Helvetica,sans-Serif" font-size="10.00" fill="#000000">amr&#45;wind/core/Physics.H</text>
</a>
</g>
</g>
<!-- Node1&#45;&gt;Node34 -->
<g id="edge61" class="edge">
<title>Node1&#45;&gt;Node34</title>
<path fill="none" stroke="#191970" d="M774.5938,-246.3906C760.4862,-236.6421 738.4276,-221.3994 721.8615,-209.9521"/>
<polygon fill="#191970" stroke="#191970" points="723.5253,-206.8474 713.3086,-204.0419 719.5458,-212.6063 723.5253,-206.8474"/>
</g>
<!-- Node4 -->
<g id="node5" class="node">
<title>Node4</title>
<polygon fill="#ffffff" stroke="#bfbfbf" points="1095,-118 1095,-137 1186,-137 1186,-118 1095,-118"/>
<text text-anchor="middle" x="1140.5" y="-125" font-family="Helvetica,sans-Serif" font-size="10.00" fill="#000000">AMReX_REAL.H</text>
</g>
<!-- Node3&#45;&gt;Node4 -->
<g id="edge4" class="edge">
<title>Node3&#45;&gt;Node4</title>
<path fill="none" stroke="#191970" d="M976.0089,-184.9005C1009.514,-173.2086 1066.2442,-153.4122 1103.5397,-140.3976"/>
<polygon fill="#191970" stroke="#191970" points="1104.7536,-143.681 1113.0421,-137.0817 1102.4473,-137.0719 1104.7536,-143.681"/>
</g>
<!-- Node5 -->
<g id="node6" class="node">
<title>Node5</title>
<polygon fill="#ffffff" stroke="#bfbfbf" points="812.5,-118 812.5,-137 944.5,-137 944.5,-118 812.5,-118"/>
<text text-anchor="middle" x="878.5" y="-125" font-family="Helvetica,sans-Serif" font-size="10.00" fill="#000000">AMReX_GpuQualifiers.H</text>
</g>
<!-- Node3&#45;&gt;Node5 -->
<g id="edge5" class="edge">
<title>Node3&#45;&gt;Node5</title>
<path fill="none" stroke="#191970" d="M938.4707,-184.9005C927.3469,-174.2535 909.2013,-156.8856 895.779,-144.0385"/>
<polygon fill="#191970" stroke="#191970" points="898.155,-141.4678 888.5107,-137.0817 893.3148,-146.5247 898.155,-141.4678"/>
</g>
<!-- Node6 -->
<g id="node7" class="node">
<title>Node6</title>
<polygon fill="#ffffff" stroke="#bfbfbf" points="962.5,-118 962.5,-137 1076.5,-137 1076.5,-118 962.5,-118"/>
<text text-anchor="middle" x="1019.5" y="-125" font-family="Helvetica,sans-Serif" font-size="10.00" fill="#000000">AMReX_Extension.H</text>
</g>
<!-- Node3&#45;&gt;Node6 -->
<g id="edge6" class="edge">
<title>Node3&#45;&gt;Node6</title>
<path fill="none" stroke="#191970" d="M958.6726,-184.9005C969.9553,-174.2535 988.3601,-156.8856 1001.9742,-144.0385"/>
<polygon fill="#191970" stroke="#191970" points="1004.4754,-146.4905 1009.3463,-137.0817 999.6712,-141.3994 1004.4754,-146.4905"/>
</g>
<!-- Node7&#45;&gt;Node2 -->
<g id="edge41" class="edge">
<title>Node7&#45;&gt;Node2</title>
<path fill="none" stroke="#191970" d="M1514.6842,-184.9222C1468.4934,-174.5874 1392.7814,-157.641 1327.5,-143 1322.109,-141.7909 1316.4812,-140.528 1310.8664,-139.2675"/>
<polygon fill="#191970" stroke="#191970" points="1311.3519,-135.7894 1300.828,-137.0133 1309.8182,-142.6193 1311.3519,-135.7894"/>
</g>
<!-- Node8 -->
<g id="node9" class="node">
<title>Node8</title>
<polygon fill="#ffffff" stroke="#bfbfbf" points="1071.5,-.5 1071.5,-19.5 1115.5,-19.5 1115.5,-.5 1071.5,-.5"/>
<text text-anchor="middle" x="1093.5" y="-7.5" font-family="Helvetica,sans-Serif" font-size="10.00" fill="#000000">string</text>
</g>
<!-- Node7&#45;&gt;Node8 -->
<g id="edge8" class="edge">
<title>Node7&#45;&gt;Node8</title>
<path fill="none" stroke="#191970" d="M1515.4688,-184.988C1482.5025,-176.5724 1436.07,-162.5744 1398.5,-143 1378.2403,-132.4445 1378.6143,-120.7215 1357.5,-112 1302.9787,-89.4794 1133.616,-120.1553 1094.5,-76 1083.6003,-63.6961 1084.6009,-44.46 1087.5882,-29.9227"/>
<polygon fill="#191970" stroke="#191970" points="1091.0603,-30.4653 1090.0955,-19.9145 1084.2702,-28.7641 1091.0603,-30.4653"/>
</g>
<!-- Node9 -->
<g id="node10" class="node">
<title>Node9</title>
<polygon fill="#ffffff" stroke="#bfbfbf" points="565,-56.5 565,-75.5 658,-75.5 658,-56.5 565,-56.5"/>
<text text-anchor="middle" x="611.5" y="-63.5" font-family="Helvetica,sans-Serif" font-size="10.00" fill="#000000">unordered_map</text>
</g>
<!-- Node7&#45;&gt;Node9 -->
<g id="edge9" class="edge">
<title>Node7&#45;&gt;Node9</title>
<path fill="none" stroke="#191970" d="M1500.9986,-184.956C1461.7139,-176.9926 1408.8333,-163.578 1365.5,-143 1344.218,-132.8937 1344.6745,-119.9594 1322.5,-112 1291.9014,-101.0168 831.9458,-77.0448 668.5552,-68.829"/>
<polygon fill="#191970" stroke="#191970" points="668.3923,-65.3165 658.2295,-68.3109 668.0415,-72.3077 668.3923,-65.3165"/>
</g>
<!-- Node10 -->
<g id="node11" class="node">
<title>Node10</title>
<g id="a_node11"><a xlink:href="_field_desc_types_8_h.html" target="_top" xlink:title="amr&#45;wind/core/FieldDescTypes.H">
<polygon fill="#ffffff" stroke="#000000" points="1815.5,-.5 1815.5,-19.5 1989.5,-19.5 1989.5,-.5 1815.5,-.5"/>
<text text-anchor="middle" x="1902.5" y="-7.5" font-family="Helvetica,sans-Serif" font-size="10.00" fill="#000000">amr&#45;wind/core/FieldDescTypes.H</text>
</a>
</g>
</g>
<!-- Node7&#45;&gt;Node10 -->
<g id="edge10" class="edge">
<title>Node7&#45;&gt;Node10</title>
<path fill="none" stroke="#191970" d="M1630.8842,-189.6923C1739.1687,-181.9776 1936.1986,-165.3962 2003.5,-143 2059.6267,-124.3224 2089.0244,-127.286 2118.5,-76 2122.9293,-68.2933 2124.0926,-62.9091 2118.5,-56 2103.1216,-37.0017 2049.4826,-25.5172 1999.5087,-18.7745"/>
<polygon fill="#191970" stroke="#191970" points="1999.9419,-15.3015 1989.5753,-17.4884 1999.043,-22.2435 1999.9419,-15.3015"/>
</g>
<!-- Node11 -->
<g id="node12" class="node">
<title>Node11</title>
<g id="a_node12"><a xlink:href="_field_utils_8_h.html" target="_top" xlink:title="amr&#45;wind/core/FieldUtils.H">
<polygon fill="#ffffff" stroke="#000000" points="2242,-56.5 2242,-75.5 2387,-75.5 2387,-56.5 2242,-56.5"/>
<text text-anchor="middle" x="2314.5" y="-63.5" font-family="Helvetica,sans-Serif" font-size="10.00" fill="#000000">amr&#45;wind/core/FieldUtils.H</text>
</a>
</g>
</g>
<!-- Node7&#45;&gt;Node11 -->
<g id="edge11" class="edge">
<title>Node7&#45;&gt;Node11</title>
<path fill="none" stroke="#191970" d="M1630.7251,-191.5034C1793.1694,-184.4784 2173.6528,-165.8047 2227.5,-143 2257.9646,-130.098 2285.1059,-102.1192 2300.6762,-83.68"/>
<polygon fill="#191970" stroke="#191970" points="2303.5516,-85.6925 2307.1705,-75.7349 2298.1318,-81.2624 2303.5516,-85.6925"/>
</g>
<!-- Node12 -->
<g id="node13" class="node">
<title>Node12</title>
<polygon fill="#ffffff" stroke="#bfbfbf" points="2034,-.5 2034,-19.5 2141,-19.5 2141,-.5 2034,-.5"/>
<text text-anchor="middle" x="2087.5" y="-7.5" font-family="Helvetica,sans-Serif" font-size="10.00" fill="#000000">AMReX_MultiFab.H</text>
</g>
<!-- Node7&#45;&gt;Node12 -->
<g id="edge42" class="edge">
<title>Node7&#45;&gt;Node12</title>
<path fill="none" stroke="#191970" d="M1630.7692,-192.4894C1750.8583,-188.2797 1983.7112,-176.0205 2058.5,-143 2099.389,-124.9468 2115.2401,-116.7971 2133.5,-76 2141.7805,-57.4993 2125.8897,-38.7641 2110.5716,-26.0058"/>
<polygon fill="#191970" stroke="#191970" points="2112.3244,-22.9359 2102.2776,-19.5723 2108.034,-28.467 2112.3244,-22.9359"/>
</g>
<!-- Node14 -->
<g id="node15" class="node">
<title>Node14</title>
<g id="a_node15"><a xlink:href="_field_8_h.html" target="_top" xlink:title="amr&#45;wind/core/Field.H">
<polygon fill="#ffffff" stroke="#000000" points="1407.5,-118 1407.5,-137 1529.5,-137 1529.5,-118 1407.5,-118"/>
<text text-anchor="middle" x="1468.5" y="-125" font-family="Helvetica,sans-Serif" font-size="10.00" fill="#000000">amr&#45;wind/core/Field.H</text>
</a>
</g>
</g>
<!-- Node7&#45;&gt;Node14 -->
<g id="edge15" class="edge">
<title>Node7&#45;&gt;Node14</title>
<path fill="none" stroke="#191970" d="M1544.7485,-184.9005C1530.341,-174.0544 1506.669,-156.2339 1489.5184,-143.3229"/>
<polygon fill="#191970" stroke="#191970" points="1491.3221,-140.2998 1481.2279,-137.0817 1487.1121,-145.8923 1491.3221,-140.2998"/>
</g>
<!-- Node22 -->
<g id="node23" class="node">
<title>Node22</title>
<g id="a_node23"><a xlink:href="_int_field_8_h.html" target="_top" xlink:title="amr&#45;wind/core/IntField.H">
<polygon fill="#ffffff" stroke="#000000" points="1586,-118 1586,-137 1721,-137 1721,-118 1586,-118"/>
<text text-anchor="middle" x="1653.5" y="-125" font-family="Helvetica,sans-Serif" font-size="10.00" fill="#000000">amr&#45;wind/core/IntField.H</text>
</a>
</g>
</g>
<!-- Node7&#45;&gt;Node22 -->
<g id="edge30" class="edge">
<title>Node7&#45;&gt;Node22</title>
<path fill="none" stroke="#191970" d="M1571.2545,-184.9005C1586.9377,-173.9549 1612.7983,-155.9064 1631.3358,-142.9688"/>
<polygon fill="#191970" stroke="#191970" points="1633.5738,-145.675 1639.7711,-137.0817 1629.5676,-139.9347 1633.5738,-145.675"/>
</g>
<!-- Node23 -->
<g id="node24" class="node">
<title>Node23</title>
<polygon fill="#ffffff" stroke="#bfbfbf" points="1499.5,-56.5 1499.5,-75.5 1609.5,-75.5 1609.5,-56.5 1499.5,-56.5"/>
<text text-anchor="middle" x="1554.5" y="-63.5" font-family="Helvetica,sans-Serif" font-size="10.00" fill="#000000">AMReX_iMultiFab.H</text>
</g>
<!-- Node7&#45;&gt;Node23 -->
<g id="edge43" class="edge">
<title>Node7&#45;&gt;Node23</title>
<path fill="none" stroke="#191970" d="M1557.2745,-184.8416C1556.7859,-163.9114 1555.6207,-114.004 1554.9664,-85.9762"/>
<polygon fill="#191970" stroke="#191970" points="1558.4606,-85.686 1554.7281,-75.7705 1551.4626,-85.8495 1558.4606,-85.686"/>
</g>
<!-- Node24 -->
<g id="node25" class="node">
<title>Node24</title>
<g id="a_node25"><a xlink:href="_scratch_field_8_h.html" target="_top" xlink:title="amr&#45;wind/core/ScratchField.H">
<polygon fill="#ffffff" stroke="#000000" points="1836.5,-118 1836.5,-137 1994.5,-137 1994.5,-118 1836.5,-118"/>
<text text-anchor="middle" x="1915.5" y="-125" font-family="Helvetica,sans-Serif" font-size="10.00" fill="#000000">amr&#45;wind/core/ScratchField.H</text>
</a>
</g>
</g>
<!-- Node7&#45;&gt;Node24 -->
<g id="edge34" class="edge">
<title>Node7&#45;&gt;Node24</title>
<path fill="none" stroke="#191970" d="M1608.4125,-184.9717C1673.27,-172.8335 1785.2411,-151.8781 1854.5656,-138.9039"/>
<polygon fill="#191970" stroke="#191970" points="1855.2882,-142.3295 1864.4737,-137.0496 1854.0004,-135.449 1855.2882,-142.3295"/>
</g>
<!-- Node11&#45;&gt;Node10 -->
<g id="edge12" class="edge">
<title>Node11&#45;&gt;Node10</title>
<path fill="none" stroke="#191970" d="M2244.1428,-56.4369C2171.5583,-46.571 2058.5286,-31.2078 1982.5673,-20.8829"/>
<polygon fill="#191970" stroke="#191970" points="1982.9473,-17.4025 1972.567,-19.5237 1982.0045,-24.3387 1982.9473,-17.4025"/>
</g>
<!-- Node11&#45;&gt;Node12 -->
<g id="edge13" class="edge">
<title>Node11&#45;&gt;Node12</title>
<path fill="none" stroke="#191970" d="M2275.7352,-56.4369C2237.1308,-46.9133 2177.7616,-32.2672 2136.0428,-21.9753"/>
<polygon fill="#191970" stroke="#191970" points="2136.6521,-18.5208 2126.1049,-19.5237 2134.9755,-25.317 2136.6521,-18.5208"/>
</g>
<!-- Node13 -->
<g id="node14" class="node">
<title>Node13</title>
<polygon fill="#ffffff" stroke="#bfbfbf" points="2253.5,-.5 2253.5,-19.5 2375.5,-19.5 2375.5,-.5 2253.5,-.5"/>
<text text-anchor="middle" x="2314.5" y="-7.5" font-family="Helvetica,sans-Serif" font-size="10.00" fill="#000000">AMReX_Interpolater.H</text>
</g>
<!-- Node11&#45;&gt;Node13 -->
<g id="edge14" class="edge">
<title>Node11&#45;&gt;Node13</title>
<path fill="none" stroke="#191970" d="M2314.5,-56.2455C2314.5,-48.9382 2314.5,-38.6944 2314.5,-29.7046"/>
<polygon fill="#191970" stroke="#191970" points="2318.0001,-29.6426 2314.5,-19.6427 2311.0001,-29.6427 2318.0001,-29.6426"/>
</g>
<!-- Node14&#45;&gt;Node8 -->
<g id="edge16" class="edge">
<title>Node14&#45;&gt;Node8</title>
<path fill="none" stroke="#191970" d="M1424.9808,-117.9196C1414.6873,-115.8164 1403.729,-113.7097 1393.5,-112 1331.4065,-101.6217 1160.2853,-116.9863 1112.5,-76 1099.3739,-64.7415 1095.0222,-45.0565 1093.716,-30.1062"/>
<polygon fill="#191970" stroke="#191970" points="1097.1972,-29.6328 1093.2159,-19.8145 1090.2055,-29.9726 1097.1972,-29.6328"/>
</g>
<!-- Node14&#45;&gt;Node9 -->
<g id="edge18" class="edge">
<title>Node14&#45;&gt;Node9</title>
<path fill="none" stroke="#191970" d="M1407.314,-118.2596C1390.5461,-115.9587 1372.3475,-113.6739 1355.5,-112 1222.272,-98.7627 818.3859,-76.8737 668.3858,-68.9655"/>
<polygon fill="#191970" stroke="#191970" points="668.2019,-65.4511 658.0318,-68.4206 667.834,-72.4414 668.2019,-65.4511"/>
</g>
<!-- Node14&#45;&gt;Node10 -->
<g id="edge24" class="edge">
<title>Node14&#45;&gt;Node10</title>
<path fill="none" stroke="#191970" d="M1462.7057,-117.7858C1454.4754,-102.5886 1442.0205,-73.1584 1457.5,-56 1482.134,-28.6943 1736.3675,-24.4464 1805.0959,-19.9051"/>
<polygon fill="#191970" stroke="#191970" points="1805.6919,-23.3686 1815.3795,-19.0789 1805.1313,-16.3911 1805.6919,-23.3686"/>
</g>
<!-- Node14&#45;&gt;Node12 -->
<g id="edge20" class="edge">
<title>Node14&#45;&gt;Node12</title>
<path fill="none" stroke="#191970" d="M1468.2932,-117.7571C1468.544,-101.9638 1471.5883,-71.0298 1490.5,-56 1534.7998,-20.7934 1942.1498,-25.1602 1998.5,-20 2006.7355,-19.2458 2015.3906,-18.3734 2023.9356,-17.4644"/>
<polygon fill="#191970" stroke="#191970" points="2024.32,-20.9433 2033.8843,-16.3854 2023.5651,-13.9841 2024.32,-20.9433"/>
</g>
<!-- Node15 -->
<g id="node16" class="node">
<title>Node15</title>
<polygon fill="#ffffff" stroke="#bfbfbf" points="412.5,-56.5 412.5,-75.5 470.5,-75.5 470.5,-56.5 412.5,-56.5"/>
<text text-anchor="middle" x="441.5" y="-63.5" font-family="Helvetica,sans-Serif" font-size="10.00" fill="#000000">memory</text>
</g>
<!-- Node14&#45;&gt;Node15 -->
<g id="edge17" class="edge">
<title>Node14&#45;&gt;Node15</title>
<path fill="none" stroke="#191970" d="M1407.4826,-120.2124C1381.3446,-117.3007 1350.457,-114.1382 1322.5,-112 982.2296,-85.9749 895.9939,-98.9152 555.5,-76 530.5155,-74.3185 502.4993,-71.8688 480.4928,-69.8149"/>
<polygon fill="#191970" stroke="#191970" points="480.8102,-66.3294 470.5254,-68.8734 480.1519,-73.2983 480.8102,-66.3294"/>
</g>
<!-- Node16 -->
<g id="node17" class="node">
<title>Node16</title>
<polygon fill="#ffffff" stroke="#bfbfbf" points="1121.5,-56.5 1121.5,-75.5 1185.5,-75.5 1185.5,-56.5 1121.5,-56.5"/>
<text text-anchor="middle" x="1153.5" y="-63.5" font-family="Helvetica,sans-Serif" font-size="10.00" fill="#000000">algorithm</text>
</g>
<!-- Node14&#45;&gt;Node16 -->
<g id="edge19" class="edge">
<title>Node14&#45;&gt;Node16</title>
<path fill="none" stroke="#191970" d="M1423.3226,-117.981C1413.5001,-115.9623 1403.1586,-113.8758 1393.5,-112 1305.6979,-94.9476 1283.037,-94.3651 1195.5,-76 1195.3991,-75.9788 1195.2981,-75.9576 1195.197,-75.9363"/>
<polygon fill="#191970" stroke="#191970" points="1196.0815,-72.5472 1185.5636,-73.8221 1194.5809,-79.3845 1196.0815,-72.5472"/>
</g>
<!-- Node17 -->
<g id="node18" class="node">
<title>Node17</title>
<polygon fill="#ffffff" stroke="#bfbfbf" points="1204,-56.5 1204,-75.5 1301,-75.5 1301,-56.5 1204,-56.5"/>
<text text-anchor="middle" x="1252.5" y="-63.5" font-family="Helvetica,sans-Serif" font-size="10.00" fill="#000000">AMReX_BCRec.H</text>
</g>
<!-- Node14&#45;&gt;Node17 -->
<g id="edge21" class="edge">
<title>Node14&#45;&gt;Node17</title>
<path fill="none" stroke="#191970" d="M1434.75,-117.8906C1397.2619,-107.2169 1336.6403,-89.9566 1295.7114,-78.3033"/>
<polygon fill="#191970" stroke="#191970" points="1296.5892,-74.9141 1286.013,-75.5419 1294.6723,-81.6466 1296.5892,-74.9141"/>
</g>
<!-- Node18 -->
<g id="node19" class="node">
<title>Node18</title>
<polygon fill="#ffffff" stroke="#bfbfbf" points="1319.5,-56.5 1319.5,-75.5 1405.5,-75.5 1405.5,-56.5 1319.5,-56.5"/>
<text text-anchor="middle" x="1362.5" y="-63.5" font-family="Helvetica,sans-Serif" font-size="10.00" fill="#000000">AMReX_Gpu.H</text>
</g>
<!-- Node14&#45;&gt;Node18 -->
<g id="edge22" class="edge">
<title>Node14&#45;&gt;Node18</title>
<path fill="none" stroke="#191970" d="M1451.9375,-117.8906C1434.7463,-107.9165 1407.6418,-92.1908 1387.7734,-80.6633"/>
<polygon fill="#191970" stroke="#191970" points="1389.3523,-77.533 1378.9462,-75.5419 1385.8394,-83.5877 1389.3523,-77.533"/>
</g>
<!-- Node19 -->
<g id="node20" class="node">
<title>Node19</title>
<g id="a_node20"><a xlink:href="incflo__enums_8_h.html" target="_top" xlink:title="amr&#45;wind/incflo_enums.H">
<polygon fill="#ffffff" stroke="#000000" points="851.5,-56.5 851.5,-75.5 991.5,-75.5 991.5,-56.5 851.5,-56.5"/>
<text text-anchor="middle" x="921.5" y="-63.5" font-family="Helvetica,sans-Serif" font-size="10.00" fill="#000000">amr&#45;wind/incflo_enums.H</text>
</a>
</g>
</g>
<!-- Node14&#45;&gt;Node19 -->
<g id="edge23" class="edge">
<title>Node14&#45;&gt;Node19</title>
<path fill="none" stroke="#191970" d="M1407.2598,-118.7505C1390.4918,-116.4501 1372.3068,-114.0429 1355.5,-112 1232.3224,-97.0277 1089.1352,-82.3867 1001.947,-73.7803"/>
<polygon fill="#191970" stroke="#191970" points="1002.1537,-70.2838 991.8588,-72.7867 1001.4675,-77.2501 1002.1537,-70.2838"/>
</g>
<!-- Node20 -->
<g id="node21" class="node">
<title>Node20</title>
<g id="a_node21"><a xlink:href="_view_field_8_h.html" target="_top" xlink:title="amr&#45;wind/core/ViewField.H">
<polygon fill="#ffffff" stroke="#000000" points="1703.5,-56.5 1703.5,-75.5 1849.5,-75.5 1849.5,-56.5 1703.5,-56.5"/>
<text text-anchor="middle" x="1776.5" y="-63.5" font-family="Helvetica,sans-Serif" font-size="10.00" fill="#000000">amr&#45;wind/core/ViewField.H</text>
</a>
</g>
</g>
<!-- Node14&#45;&gt;Node20 -->
<g id="edge25" class="edge">
<title>Node14&#45;&gt;Node20</title>
<path fill="none" stroke="#191970" d="M1516.2871,-117.9581C1570.9937,-107.0345 1660.566,-89.1492 1719.0323,-77.4749"/>
<polygon fill="#191970" stroke="#191970" points="1719.7332,-80.9041 1728.8543,-75.5137 1718.3625,-74.0396 1719.7332,-80.9041"/>
</g>
<!-- Node20&#45;&gt;Node8 -->
<g id="edge26" class="edge">
<title>Node20&#45;&gt;Node8</title>
<path fill="none" stroke="#191970" d="M1703.4196,-57.3992C1698.7111,-56.9071 1694.0402,-56.436 1689.5,-56 1474.5817,-35.3618 1215.3621,-17.8879 1125.784,-12.0653"/>
<polygon fill="#191970" stroke="#191970" points="1125.9204,-8.5669 1115.7151,-11.4135 1125.4681,-15.5523 1125.9204,-8.5669"/>
</g>
<!-- Node20&#45;&gt;Node10 -->
<g id="edge27" class="edge">
<title>Node20&#45;&gt;Node10</title>
<path fill="none" stroke="#191970" d="M1798.1602,-56.3733C1818.4772,-47.3435 1849.064,-33.7494 1871.875,-23.6111"/>
<polygon fill="#191970" stroke="#191970" points="1873.4059,-26.7609 1881.1225,-19.5011 1870.5628,-20.3642 1873.4059,-26.7609"/>
</g>
<!-- Node20&#45;&gt;Node12 -->
<g id="edge28" class="edge">
<title>Node20&#45;&gt;Node12</title>
<path fill="none" stroke="#191970" d="M1829.6094,-56.4369C1883.6174,-46.712 1967.2896,-31.6456 2024.5864,-21.3285"/>
<polygon fill="#191970" stroke="#191970" points="2025.3882,-24.7405 2034.6096,-19.5237 2024.1476,-17.8513 2025.3882,-24.7405"/>
</g>
<!-- Node21 -->
<g id="node22" class="node">
<title>Node21</title>
<polygon fill="#ffffff" stroke="#bfbfbf" points="1701.5,-.5 1701.5,-19.5 1797.5,-19.5 1797.5,-.5 1701.5,-.5"/>
<text text-anchor="middle" x="1749.5" y="-7.5" font-family="Helvetica,sans-Serif" font-size="10.00" fill="#000000">AMReX_Vector.H</text>
</g>
<!-- Node20&#45;&gt;Node21 -->
<g id="edge29" class="edge">
<title>Node20&#45;&gt;Node21</title>
<path fill="none" stroke="#191970" d="M1771.797,-56.2455C1768.1576,-48.6973 1763.0076,-38.0158 1758.5738,-28.8197"/>
<polygon fill="#191970" stroke="#191970" points="1761.6449,-27.1303 1754.1491,-19.6427 1755.3395,-30.1704 1761.6449,-27.1303"/>
</g>
<!-- Node22&#45;&gt;Node8 -->
<g id="edge31" class="edge">
<title>Node22&#45;&gt;Node8</title>
<path fill="none" stroke="#191970" d="M1651.8868,-117.9045C1648.6622,-102.0349 1639.8088,-70.6246 1618.5,-56 1577.8857,-28.1256 1234.0804,-14.5961 1125.93,-11.0026"/>
<polygon fill="#191970" stroke="#191970" points="1125.7516,-7.495 1115.6429,-10.6673 1125.5235,-14.4913 1125.7516,-7.495"/>
</g>
<!-- Node22&#45;&gt;Node10 -->
<g id="edge32" class="edge">
<title>Node22&#45;&gt;Node10</title>
<path fill="none" stroke="#191970" d="M1710.2109,-117.9847C1762.2757,-108.4135 1834.8127,-92.7132 1858.5,-76 1875.1393,-64.2597 1887.2368,-44.0608 1894.4877,-29.0927"/>
<polygon fill="#191970" stroke="#191970" points="1897.7891,-30.287 1898.7295,-19.734 1891.4134,-27.3972 1897.7891,-30.287"/>
</g>
<!-- Node22&#45;&gt;Node23 -->
<g id="edge33" class="edge">
<title>Node22&#45;&gt;Node23</title>
<path fill="none" stroke="#191970" d="M1638.0313,-117.8906C1622.0479,-107.9616 1596.8897,-92.333 1578.3567,-80.8201"/>
<polygon fill="#191970" stroke="#191970" points="1580.2015,-77.8457 1569.8601,-75.5419 1576.5076,-83.7918 1580.2015,-77.8457"/>
</g>
<!-- Node24&#45;&gt;Node8 -->
<g id="edge35" class="edge">
<title>Node24&#45;&gt;Node8</title>
<path fill="none" stroke="#191970" d="M1866.7534,-117.9803C1821.663,-108.7419 1752.9821,-93.5682 1694.5,-76 1669.9889,-68.6368 1665.4802,-61.5678 1640.5,-56 1541.3286,-33.8961 1227.8683,-16.7006 1125.8977,-11.5719"/>
<polygon fill="#191970" stroke="#191970" points="1125.7758,-8.0616 1115.6141,-11.0597 1125.4275,-15.053 1125.7758,-8.0616"/>
</g>
<!-- Node24&#45;&gt;Node10 -->
<g id="edge36" class="edge">
<title>Node24&#45;&gt;Node10</title>
<path fill="none" stroke="#191970" d="M1920.2517,-117.6828C1926.3301,-103.8071 1935.4053,-77.7268 1929.5,-56 1926.7824,-46.0015 1921.2825,-35.9556 1915.9516,-27.8139"/>
<polygon fill="#191970" stroke="#191970" points="1918.761,-25.7239 1910.1619,-19.5346 1913.0245,-29.7354 1918.761,-25.7239"/>
</g>
<!-- Node24&#45;&gt;Node12 -->
<g id="edge38" class="edge">
<title>Node24&#45;&gt;Node12</title>
<path fill="none" stroke="#191970" d="M1991.5222,-117.9936C2042.3505,-109.8962 2102.7042,-96.3035 2118.5,-76 2130.0665,-61.1327 2117.7143,-41.251 2105.3407,-27.2068"/>
<polygon fill="#191970" stroke="#191970" points="2107.6484,-24.5532 2098.2334,-19.6943 2102.5634,-29.364 2107.6484,-24.5532"/>
</g>
<!-- Node24&#45;&gt;Node20 -->
<g id="edge37" class="edge">
<title>Node24&#45;&gt;Node20</title>
<path fill="none" stroke="#191970" d="M1893.7813,-117.8906C1870.626,-107.6457 1833.7559,-91.3326 1807.5409,-79.7339"/>
<polygon fill="#191970" stroke="#191970" points="1808.6273,-76.3874 1798.0662,-75.5419 1805.795,-82.7888 1808.6273,-76.3874"/>
</g>
<!-- Node24&#45;&gt;Node21 -->
<g id="edge39" class="edge">
<title>Node24&#45;&gt;Node21</title>
<path fill="none" stroke="#191970" d="M1910.0341,-117.901C1901.0408,-102.8616 1881.7791,-73.6438 1858.5,-56 1839.1401,-41.3267 1814.4039,-30.3932 1793.3912,-22.8758"/>
<polygon fill="#191970" stroke="#191970" points="1794.3187,-19.4938 1783.724,-19.56 1792.0475,-26.1152 1794.3187,-19.4938"/>
</g>
<!-- Node25 -->
<g id="node26" class="node">
<title>Node25</title>
<polygon fill="#ffffff" stroke="#bfbfbf" points="1981.5,-56.5 1981.5,-75.5 2109.5,-75.5 2109.5,-56.5 1981.5,-56.5"/>
<text text-anchor="middle" x="2045.5" y="-63.5" font-family="Helvetica,sans-Serif" font-size="10.00" fill="#000000">AMReX_PhysBCFunct.H</text>
</g>
<!-- Node24&#45;&gt;Node25 -->
<g id="edge40" class="edge">
<title>Node24&#45;&gt;Node25</title>
<path fill="none" stroke="#191970" d="M1935.8125,-117.8906C1957.3731,-107.6908 1991.6478,-91.4763 2016.1444,-79.8875"/>
<polygon fill="#191970" stroke="#191970" points="2017.7874,-82.9822 2025.3301,-75.5419 2014.7939,-76.6545 2017.7874,-82.9822"/>
</g>
<!-- Node26&#45;&gt;Node8 -->
<g id="edge45" class="edge">
<title>Node26&#45;&gt;Node8</title>
<path fill="none" stroke="#191970" d="M445.6687,-179.3747C429.4941,-171.2357 412.6924,-159.4184 403.5,-143 384.6103,-109.2615 377.0835,-84.2362 403.5,-56 426.2369,-31.6968 927.3758,-14.9803 1061.0019,-10.944"/>
<polygon fill="#191970" stroke="#191970" points="1061.4905,-14.4311 1071.3814,-10.6338 1061.2813,-7.4342 1061.4905,-14.4311"/>
</g>
<!-- Node26&#45;&gt;Node10 -->
<g id="edge59" class="edge">
<title>Node26&#45;&gt;Node10</title>
<path fill="none" stroke="#191970" d="M509.4544,-179.3721C523.5114,-169.4388 541.9621,-155.9348 557.5,-143 572.9656,-130.1254 572.8568,-121.6776 590.5,-112 678.9617,-63.4771 710.6297,-70.3481 810.5,-56 1245.6356,6.5146 1362.8584,-50.0938 1805.224,-20.0353"/>
<polygon fill="#191970" stroke="#191970" points="1805.6664,-23.5132 1815.4015,-19.3324 1805.1841,-16.5298 1805.6664,-23.5132"/>
</g>
<!-- Node26&#45;&gt;Node19 -->
<g id="edge60" class="edge">
<title>Node26&#45;&gt;Node19</title>
<path fill="none" stroke="#191970" d="M521.1625,-179.3528C541.6463,-169.7261 568.0923,-156.5583 590.5,-143 610.6571,-130.8035 611.7229,-120.99 633.5,-112 670.0982,-96.8915 769.4659,-83.0751 841.2506,-74.6107"/>
<polygon fill="#191970" stroke="#191970" points="841.6598,-78.0868 851.1872,-73.4523 840.8492,-71.1339 841.6598,-78.0868"/>
</g>
<!-- Node27 -->
<g id="node28" class="node">
<title>Node27</title>
<g id="a_node28"><a xlink:href="_factory_8_h.html" target="_top" xlink:title="amr&#45;wind/core/Factory.H">
<polygon fill="#ffffff" stroke="#000000" points="184.5,-118 184.5,-137 318.5,-137 318.5,-118 184.5,-118"/>
<text text-anchor="middle" x="251.5" y="-125" font-family="Helvetica,sans-Serif" font-size="10.00" fill="#000000">amr&#45;wind/core/Factory.H</text>
</a>
</g>
</g>
<!-- Node26&#45;&gt;Node27 -->
<g id="edge46" class="edge">
<title>Node26&#45;&gt;Node27</title>
<path fill="none" stroke="#191970" d="M434.537,-179.4639C392.4062,-167.503 334.1895,-150.9754 294.813,-139.7965"/>
<polygon fill="#191970" stroke="#191970" points="295.557,-136.3695 284.9813,-137.0053 293.6453,-143.1034 295.557,-136.3695"/>
</g>
<!-- Node31 -->
<g id="node32" class="node">
<title>Node31</title>
<g id="a_node32"><a xlink:href="_coll_mgr_8_h.html" target="_top" xlink:title="amr&#45;wind/core/CollMgr.H">
<polygon fill="#ffffff" stroke="#000000" points="412.5,-118 412.5,-137 548.5,-137 548.5,-118 412.5,-118"/>
<text text-anchor="middle" x="480.5" y="-125" font-family="Helvetica,sans-Serif" font-size="10.00" fill="#000000">amr&#45;wind/core/CollMgr.H</text>
</a>
</g>
</g>
<!-- Node26&#45;&gt;Node31 -->
<g id="edge52" class="edge">
<title>Node26&#45;&gt;Node31</title>
<path fill="none" stroke="#191970" d="M485.9116,-179.2967C484.9163,-169.7699 483.6234,-157.3954 482.551,-147.1306"/>
<polygon fill="#191970" stroke="#191970" points="486.0185,-146.6371 481.4983,-137.055 479.0564,-147.3646 486.0185,-146.6371"/>
</g>
<!-- Node32 -->
<g id="node33" class="node">
<title>Node32</title>
<g id="a_node33"><a xlink:href="_p_d_e_fields_8_h.html" target="_top" xlink:title="amr&#45;wind/equation_systems\l/PDEFields.H">
<polygon fill="#ffffff" stroke="#000000" points="0,-112.5 0,-142.5 155,-142.5 155,-112.5 0,-112.5"/>
<text text-anchor="start" x="8" y="-130.5" font-family="Helvetica,sans-Serif" font-size="10.00" fill="#000000">amr&#45;wind/equation_systems</text>
<text text-anchor="middle" x="77.5" y="-119.5" font-family="Helvetica,sans-Serif" font-size="10.00" fill="#000000">/PDEFields.H</text>
</a>
</g>
</g>
<!-- Node26&#45;&gt;Node32 -->
<g id="edge57" class="edge">
<title>Node26&#45;&gt;Node32</title>
<path fill="none" stroke="#191970" d="M409.724,-180.5711C406.6095,-180.0362 403.5256,-179.5107 400.5,-179 377.6536,-175.1438 252.6529,-155.2721 165.0386,-141.3733"/>
<polygon fill="#191970" stroke="#191970" points="165.5082,-137.9041 155.0834,-139.7942 164.4115,-144.8176 165.5082,-137.9041"/>
</g>
<!-- Node27&#45;&gt;Node9 -->
<g id="edge48" class="edge">
<title>Node27&#45;&gt;Node9</title>
<path fill="none" stroke="#191970" d="M307.355,-117.9581C374.6997,-106.4534 487.2483,-87.2263 554.9169,-75.6663"/>
<polygon fill="#191970" stroke="#191970" points="555.7033,-79.0827 564.9711,-73.9487 554.5245,-72.1827 555.7033,-79.0827"/>
</g>
<!-- Node27&#45;&gt;Node15 -->
<g id="edge47" class="edge">
<title>Node27&#45;&gt;Node15</title>
<path fill="none" stroke="#191970" d="M281.1875,-117.8906C313.91,-107.2989 366.6701,-90.2213 402.6577,-78.5727"/>
<polygon fill="#191970" stroke="#191970" points="403.8965,-81.8505 412.3326,-75.441 401.7408,-75.1907 403.8965,-81.8505"/>
</g>
<!-- Node28 -->
<g id="node29" class="node">
<title>Node28</title>
<polygon fill="#ffffff" stroke="#bfbfbf" points="188.5,-56.5 188.5,-75.5 248.5,-75.5 248.5,-56.5 188.5,-56.5"/>
<text text-anchor="middle" x="218.5" y="-63.5" font-family="Helvetica,sans-Serif" font-size="10.00" fill="#000000">iostream</text>
</g>
<!-- Node27&#45;&gt;Node28 -->
<g id="edge49" class="edge">
<title>Node27&#45;&gt;Node28</title>
<path fill="none" stroke="#191970" d="M246.3438,-117.8906C241.5768,-109.0068 234.3615,-95.5601 228.4703,-84.5811"/>
<polygon fill="#191970" stroke="#191970" points="231.5412,-82.9016 223.7289,-75.7449 225.3731,-86.2114 231.5412,-82.9016"/>
</g>
<!-- Node29 -->
<g id="node30" class="node">
<title>Node29</title>
<polygon fill="#ffffff" stroke="#bfbfbf" points="267,-56.5 267,-75.5 356,-75.5 356,-56.5 267,-56.5"/>
<text text-anchor="middle" x="311.5" y="-63.5" font-family="Helvetica,sans-Serif" font-size="10.00" fill="#000000">AMReX_Print.H</text>
</g>
<!-- Node27&#45;&gt;Node29 -->
<g id="edge50" class="edge">
<title>Node27&#45;&gt;Node29</title>
<path fill="none" stroke="#191970" d="M260.875,-117.8906C269.9799,-108.5581 283.9974,-94.1902 294.9757,-82.9374"/>
<polygon fill="#191970" stroke="#191970" points="297.5148,-85.3468 301.9928,-75.7449 292.5043,-80.4586 297.5148,-85.3468"/>
</g>
<!-- Node30 -->
<g id="node31" class="node">
<title>Node30</title>
<polygon fill="#ffffff" stroke="#bfbfbf" points="109,-56.5 109,-75.5 170,-75.5 170,-56.5 109,-56.5"/>
<text text-anchor="middle" x="139.5" y="-63.5" font-family="Helvetica,sans-Serif" font-size="10.00" fill="#000000">AMReX.H</text>
</g>
<!-- Node27&#45;&gt;Node30 -->
<g id="edge51" class="edge">
<title>Node27&#45;&gt;Node30</title>
<path fill="none" stroke="#191970" d="M234,-117.8906C215.7535,-107.8713 186.9376,-92.0483 165.9194,-80.5071"/>
<polygon fill="#191970" stroke="#191970" points="167.3272,-77.2872 156.8771,-75.5419 163.958,-83.423 167.3272,-77.2872"/>
</g>
<!-- Node31&#45;&gt;Node8 -->
<g id="edge53" class="edge">
<title>Node31&#45;&gt;Node8</title>
<path fill="none" stroke="#191970" d="M483.0378,-117.834C487.7942,-101.8604 499.6914,-70.301 522.5,-56 568.2112,-27.3391 946.7032,-14.2154 1060.9641,-10.882"/>
<polygon fill="#191970" stroke="#191970" points="1061.2809,-14.3744 1071.1767,-10.5897 1061.0806,-7.3773 1061.2809,-14.3744"/>
</g>
<!-- Node31&#45;&gt;Node9 -->
<g id="edge55" class="edge">
<title>Node31&#45;&gt;Node9</title>
<path fill="none" stroke="#191970" d="M500.9688,-117.8906C522.6952,-107.6908 557.2335,-91.4763 581.9185,-79.8875"/>
<polygon fill="#191970" stroke="#191970" points="583.6103,-82.9598 591.175,-75.5419 580.6355,-76.6234 583.6103,-82.9598"/>
</g>
<!-- Node31&#45;&gt;Node15 -->
<g id="edge54" class="edge">
<title>Node31&#45;&gt;Node15</title>
<path fill="none" stroke="#191970" d="M474.4063,-117.8906C468.7157,-108.917 460.0728,-95.2879 453.0726,-84.2491"/>
<polygon fill="#191970" stroke="#191970" points="455.9909,-82.3155 447.6797,-75.7449 450.0793,-86.0644 455.9909,-82.3155"/>
</g>
<!-- Node31&#45;&gt;Node21 -->
<g id="edge56" class="edge">
<title>Node31&#45;&gt;Node21</title>
<path fill="none" stroke="#191970" d="M486.9703,-117.8335C498.5032,-101.5573 524.3492,-69.1707 555.5,-56 608.2484,-33.6978 1458.6543,-15.6397 1691.1524,-11.1018"/>
<polygon fill="#191970" stroke="#191970" points="1691.4993,-14.5959 1701.4295,-10.9022 1691.3633,-7.5972 1691.4993,-14.5959"/>
</g>
<!-- Node33 -->
<g id="node34" class="node">
<title>Node33</title>
<polygon fill="#ffffff" stroke="#bfbfbf" points="42,-56.5 42,-75.5 91,-75.5 91,-56.5 42,-56.5"/>
<text text-anchor="middle" x="66.5" y="-63.5" font-family="Helvetica,sans-Serif" font-size="10.00" fill="#000000">iosfwd</text>
</g>
<!-- Node32&#45;&gt;Node33 -->
<g id="edge58" class="edge">
<title>Node32&#45;&gt;Node33</title>
<path fill="none" stroke="#191970" d="M74.7809,-112.2977C73.3494,-104.2945 71.5769,-94.3843 70.0395,-85.7889"/>
<polygon fill="#191970" stroke="#191970" points="73.4673,-85.0744 68.2612,-75.8469 66.5767,-86.307 73.4673,-85.0744"/>
</g>
<!-- Node34&#45;&gt;Node12 -->
<g id="edge64" class="edge">
<title>Node34&#45;&gt;Node12</title>
<path fill="none" stroke="#191970" d="M712.9886,-184.8646C726.5266,-174.9564 747.723,-158.7856 764.5,-143 802.3217,-107.4133 795.416,-77.9086 842.5,-56 959.0112,-1.7864 1870.3217,-29.1818 1998.5,-20 2006.7488,-19.4091 2015.4117,-18.6321 2023.9607,-17.7718"/>
<polygon fill="#191970" stroke="#191970" points="2024.3312,-21.2522 2033.9124,-16.7298 2023.6022,-14.2903 2024.3312,-21.2522"/>
</g>
<!-- Node34&#45;&gt;Node27 -->
<g id="edge62" class="edge">
<title>Node34&#45;&gt;Node27</title>
<path fill="none" stroke="#191970" d="M635.7883,-184.9717C553.8774,-172.7216 411.9164,-151.4908 325.3669,-138.5471"/>
<polygon fill="#191970" stroke="#191970" points="325.7619,-135.0673 315.3542,-137.0496 324.7265,-141.9903 325.7619,-135.0673"/>
</g>
<!-- Node34&#45;&gt;Node31 -->
<g id="edge63" class="edge">
<title>Node34&#45;&gt;Node31</title>
<path fill="none" stroke="#191970" d="M668.1226,-184.9005C629.5806,-173.1091 564.0947,-153.0746 521.5765,-140.0668"/>
<polygon fill="#191970" stroke="#191970" points="522.4056,-136.6604 511.8192,-137.0817 520.3577,-143.3541 522.4056,-136.6604"/>
</g>
<!-- Node35 -->
<g id="node36" class="node">
<title>Node35</title>
<polygon fill="#ffffff" stroke="#bfbfbf" points="643,-118 643,-137 756,-137 756,-118 643,-118"/>
<text text-anchor="middle" x="699.5" y="-125" font-family="Helvetica,sans-Serif" font-size="10.00" fill="#000000">AMReX_Geometry.H</text>
</g>
<!-- Node34&#45;&gt;Node35 -->
<g id="edge65" class="edge">
<title>Node34&#45;&gt;Node35</title>
<path fill="none" stroke="#191970" d="M699.5,-184.9005C699.5,-175.149 699.5,-159.7597 699.5,-147.3695"/>
<polygon fill="#191970" stroke="#191970" points="703.0001,-147.0816 699.5,-137.0817 696.0001,-147.0817 703.0001,-147.0816"/>
</g>
<!-- Node36&#45;&gt;Node15 -->
<g id="edge67" class="edge">
<title>Node36&#45;&gt;Node15</title>
<path fill="none" stroke="#191970" d="M350.9252,-179.4886C363.6232,-162.8718 384.8065,-135.349 403.5,-112 411.0746,-102.539 419.6629,-92.1176 426.7561,-83.5898"/>
<polygon fill="#191970" stroke="#191970" points="429.5378,-85.7192 433.2581,-75.799 424.1635,-81.2339 429.5378,-85.7192"/>
</g>
<!-- Node36&#45;&gt;Node27 -->
<g id="edge68" class="edge">
<title>Node36&#45;&gt;Node27</title>
<path fill="none" stroke="#191970" d="M319.5314,-179.2967C305.4213,-168.5537 286.5549,-154.1895 272.2692,-143.3129"/>
<polygon fill="#191970" stroke="#191970" points="274.1264,-140.328 264.0498,-137.055 269.886,-145.8975 274.1264,-140.328"/>
</g>
</g>
</svg>
