<?xml version="1.0" encoding="UTF-8" standalone="no"?>
<!DOCTYPE svg PUBLIC "-//W3C//DTD SVG 1.1//EN"
 "http://www.w3.org/Graphics/SVG/1.1/DTD/svg11.dtd">
<!-- Generated by graphviz version 2.40.1 (20161225.0304)
 -->
<!-- Title: FieldPlaneAveraging.cpp Pages: 1 -->
<svg width="2348pt" height="408pt"
 viewBox="0.00 0.00 2347.50 408.00" xmlns="http://www.w3.org/2000/svg" xmlns:xlink="http://www.w3.org/1999/xlink">
<g id="graph0" class="graph" transform="scale(1 1) rotate(0) translate(4 404)">
<title>FieldPlaneAveraging.cpp</title>
<polygon fill="#ffffff" stroke="transparent" points="-4,4 -4,-404 2343.5,-404 2343.5,4 -4,4"/>
<!-- Node0 -->
<g id="node1" class="node">
<title>Node0</title>
<polygon fill="#bfbfbf" stroke="#000000" points="1077,-380.5 1077,-399.5 1212,-399.5 1212,-380.5 1077,-380.5"/>
<text text-anchor="middle" x="1144.5" y="-387.5" font-family="Helvetica,sans-Serif" font-size="10.00" fill="#000000">FieldPlaneAveraging.cpp</text>
</g>
<!-- Node1 -->
<g id="node2" class="node">
<title>Node1</title>
<g id="a_node2"><a xlink:href="_field_plane_averaging_8_h.html" target="_top" xlink:title="amr&#45;wind/utilities\l/FieldPlaneAveraging.H">
<polygon fill="#ffffff" stroke="#000000" points="549.5,-313.5 549.5,-343.5 677.5,-343.5 677.5,-313.5 549.5,-313.5"/>
<text text-anchor="start" x="557.5" y="-331.5" font-family="Helvetica,sans-Serif" font-size="10.00" fill="#000000">amr&#45;wind/utilities</text>
<text text-anchor="middle" x="613.5" y="-320.5" font-family="Helvetica,sans-Serif" font-size="10.00" fill="#000000">/FieldPlaneAveraging.H</text>
</a>
</g>
</g>
<!-- Node0&#45;&gt;Node1 -->
<g id="edge1" class="edge">
<title>Node0&#45;&gt;Node1</title>
<path fill="none" stroke="#191970" d="M1076.979,-382.1798C977.2271,-370.6266 791.1538,-349.0757 687.7003,-337.0938"/>
<polygon fill="#191970" stroke="#191970" points="687.9828,-333.6032 677.6465,-335.9294 687.1774,-340.5567 687.9828,-333.6032"/>
</g>
<!-- Node20 -->
<g id="node21" class="node">
<title>Node20</title>
<polygon fill="#ffffff" stroke="#bfbfbf" points="1647.5,-62 1647.5,-81 1711.5,-81 1711.5,-62 1647.5,-62"/>
<text text-anchor="middle" x="1679.5" y="-69" font-family="Helvetica,sans-Serif" font-size="10.00" fill="#000000">algorithm</text>
</g>
<!-- Node0&#45;&gt;Node20 -->
<g id="edge72" class="edge">
<title>Node0&#45;&gt;Node20</title>
<path fill="none" stroke="#191970" d="M1212.033,-384.6897C1387.7229,-369.9741 1845.5,-325.4912 1845.5,-261.5 1845.5,-261.5 1845.5,-261.5 1845.5,-200 1845.5,-165.4776 1754.5905,-111.6779 1707.3234,-86.0386"/>
<polygon fill="#191970" stroke="#191970" points="1708.6864,-82.798 1698.2196,-81.1559 1705.3779,-88.9668 1708.6864,-82.798"/>
</g>
<!-- Node39 -->
<g id="node40" class="node">
<title>Node39</title>
<g id="a_node40"><a xlink:href="incflo_8_h.html" target="_top" xlink:title="amr&#45;wind/incflo.H">
<polygon fill="#ffffff" stroke="#000000" points="1093.5,-319 1093.5,-338 1195.5,-338 1195.5,-319 1093.5,-319"/>
<text text-anchor="middle" x="1144.5" y="-326" font-family="Helvetica,sans-Serif" font-size="10.00" fill="#000000">amr&#45;wind/incflo.H</text>
</a>
</g>
</g>
<!-- Node0&#45;&gt;Node39 -->
<g id="edge73" class="edge">
<title>Node0&#45;&gt;Node39</title>
<path fill="none" stroke="#191970" d="M1144.5,-380.3906C1144.5,-371.8657 1144.5,-359.1392 1144.5,-348.4235"/>
<polygon fill="#191970" stroke="#191970" points="1148.0001,-348.2448 1144.5,-338.2449 1141.0001,-348.2449 1148.0001,-348.2448"/>
</g>
<!-- Node2 -->
<g id="node3" class="node">
<title>Node2</title>
<g id="a_node3"><a xlink:href="_direction_selector_8_h.html" target="_top" xlink:title="amr&#45;wind/utilities\l/DirectionSelector.H">
<polygon fill="#ffffff" stroke="#000000" points="211,-246.5 211,-276.5 324,-276.5 324,-246.5 211,-246.5"/>
<text text-anchor="start" x="219" y="-264.5" font-family="Helvetica,sans-Serif" font-size="10.00" fill="#000000">amr&#45;wind/utilities</text>
<text text-anchor="middle" x="267.5" y="-253.5" font-family="Helvetica,sans-Serif" font-size="10.00" fill="#000000">/DirectionSelector.H</text>
</a>
</g>
</g>
<!-- Node1&#45;&gt;Node2 -->
<g id="edge2" class="edge">
<title>Node1&#45;&gt;Node2</title>
<path fill="none" stroke="#191970" d="M549.2309,-316.0548C488.0471,-304.2071 396.3501,-286.4507 334.3317,-274.4414"/>
<polygon fill="#191970" stroke="#191970" points="334.7433,-270.9562 324.2603,-272.4912 333.4125,-277.8285 334.7433,-270.9562"/>
</g>
<!-- Node5 -->
<g id="node6" class="node">
<title>Node5</title>
<g id="a_node6"><a xlink:href="_c_f_d_sim_8_h.html" target="_top" xlink:title="amr&#45;wind/CFDSim.H">
<polygon fill="#ffffff" stroke="#000000" points="556.5,-252 556.5,-271 670.5,-271 670.5,-252 556.5,-252"/>
<text text-anchor="middle" x="613.5" y="-259" font-family="Helvetica,sans-Serif" font-size="10.00" fill="#000000">amr&#45;wind/CFDSim.H</text>
</a>
</g>
</g>
<!-- Node1&#45;&gt;Node5 -->
<g id="edge5" class="edge">
<title>Node1&#45;&gt;Node5</title>
<path fill="none" stroke="#191970" d="M613.5,-313.2967C613.5,-303.7699 613.5,-291.3954 613.5,-281.1306"/>
<polygon fill="#191970" stroke="#191970" points="617.0001,-281.0549 613.5,-271.055 610.0001,-281.055 617.0001,-281.0549"/>
</g>
<!-- Node7 -->
<g id="node8" class="node">
<title>Node7</title>
<g id="a_node8"><a xlink:href="_sim_time_8_h.html" target="_top" xlink:title="amr&#45;wind/core/SimTime.H">
<polygon fill="#ffffff" stroke="#000000" points="457,-190.5 457,-209.5 600,-209.5 600,-190.5 457,-190.5"/>
<text text-anchor="middle" x="528.5" y="-197.5" font-family="Helvetica,sans-Serif" font-size="10.00" fill="#000000">amr&#45;wind/core/SimTime.H</text>
</a>
</g>
</g>
<!-- Node1&#45;&gt;Node7 -->
<g id="edge71" class="edge">
<title>Node1&#45;&gt;Node7</title>
<path fill="none" stroke="#191970" d="M560.518,-313.4668C542.7282,-305.6136 524.8044,-293.9756 514.5,-277 503.757,-259.3019 510.7627,-235.3925 518.1946,-218.936"/>
<polygon fill="#191970" stroke="#191970" points="521.4293,-220.2905 522.7222,-209.7749 515.1538,-217.1891 521.4293,-220.2905"/>
</g>
<!-- Node18 -->
<g id="node19" class="node">
<title>Node18</title>
<g id="a_node19"><a xlink:href="_field_8_h.html" target="_top" xlink:title="amr&#45;wind/core/Field.H">
<polygon fill="#ffffff" stroke="#000000" points="1128.5,-129 1128.5,-148 1250.5,-148 1250.5,-129 1128.5,-129"/>
<text text-anchor="middle" x="1189.5" y="-136" font-family="Helvetica,sans-Serif" font-size="10.00" fill="#000000">amr&#45;wind/core/Field.H</text>
</a>
</g>
</g>
<!-- Node1&#45;&gt;Node18 -->
<g id="edge70" class="edge">
<title>Node1&#45;&gt;Node18</title>
<path fill="none" stroke="#191970" d="M633.2256,-313.2872C646.3881,-303.0921 664.0494,-289.3279 679.5,-277 696.5372,-263.4061 697.9131,-255.5611 717.5,-246 754.7435,-227.82 1014.8147,-173.8343 1132.2199,-150.0136"/>
<polygon fill="#191970" stroke="#191970" points="1133.007,-153.4253 1142.1129,-148.0093 1131.617,-146.5647 1133.007,-153.4253"/>
</g>
<!-- Node3 -->
<g id="node4" class="node">
<title>Node3</title>
<polygon fill="#ffffff" stroke="#bfbfbf" points="225,-190.5 225,-209.5 310,-209.5 310,-190.5 225,-190.5"/>
<text text-anchor="middle" x="267.5" y="-197.5" font-family="Helvetica,sans-Serif" font-size="10.00" fill="#000000">AMReX_Box.H</text>
</g>
<!-- Node2&#45;&gt;Node3 -->
<g id="edge3" class="edge">
<title>Node2&#45;&gt;Node3</title>
<path fill="none" stroke="#191970" d="M267.5,-246.2977C267.5,-238.3834 267.5,-228.6043 267.5,-220.0759"/>
<polygon fill="#191970" stroke="#191970" points="271.0001,-219.8469 267.5,-209.8469 264.0001,-219.847 271.0001,-219.8469"/>
</g>
<!-- Node4 -->
<g id="node5" class="node">
<title>Node4</title>
<polygon fill="#ffffff" stroke="#bfbfbf" points="457.5,-62 457.5,-81 543.5,-81 543.5,-62 457.5,-62"/>
<text text-anchor="middle" x="500.5" y="-69" font-family="Helvetica,sans-Serif" font-size="10.00" fill="#000000">AMReX_Gpu.H</text>
</g>
<!-- Node2&#45;&gt;Node4 -->
<g id="edge4" class="edge">
<title>Node2&#45;&gt;Node4</title>
<path fill="none" stroke="#191970" d="M246.73,-246.3975C212.3511,-219.6254 150.6984,-162.9105 185.5,-123 224.1243,-78.7056 390.0284,-99.2817 447.5,-87 451.8902,-86.0618 456.4477,-84.9482 460.9643,-83.7548"/>
<polygon fill="#191970" stroke="#191970" points="462.006,-87.0981 470.7061,-81.0517 460.1343,-80.3529 462.006,-87.0981"/>
</g>
<!-- Node6 -->
<g id="node7" class="node">
<title>Node6</title>
<polygon fill="#ffffff" stroke="#bfbfbf" points="963,-129 963,-148 1072,-148 1072,-129 963,-129"/>
<text text-anchor="middle" x="1017.5" y="-136" font-family="Helvetica,sans-Serif" font-size="10.00" fill="#000000">AMReX_AmrCore.H</text>
</g>
<!-- Node5&#45;&gt;Node6 -->
<g id="edge6" class="edge">
<title>Node5&#45;&gt;Node6</title>
<path fill="none" stroke="#191970" d="M644.865,-251.9507C717.1365,-229.9473 895.3727,-175.6823 976.3186,-151.0379"/>
<polygon fill="#191970" stroke="#191970" points="977.6079,-154.3041 986.1549,-148.0432 975.5691,-147.6075 977.6079,-154.3041"/>
</g>
<!-- Node5&#45;&gt;Node7 -->
<g id="edge7" class="edge">
<title>Node5&#45;&gt;Node7</title>
<path fill="none" stroke="#191970" d="M600.2188,-251.8906C586.7452,-242.1421 565.678,-226.8994 549.8565,-215.4521"/>
<polygon fill="#191970" stroke="#191970" points="551.8414,-212.5682 541.688,-209.5419 547.7381,-218.2394 551.8414,-212.5682"/>
</g>
<!-- Node11 -->
<g id="node12" class="node">
<title>Node11</title>
<g id="a_node12"><a xlink:href="_field_repo_8_h.html" target="_top" xlink:title="amr&#45;wind/core/FieldRepo.H">
<polygon fill="#ffffff" stroke="#000000" points="1366.5,-190.5 1366.5,-209.5 1512.5,-209.5 1512.5,-190.5 1366.5,-190.5"/>
<text text-anchor="middle" x="1439.5" y="-197.5" font-family="Helvetica,sans-Serif" font-size="10.00" fill="#000000">amr&#45;wind/core/FieldRepo.H</text>
</a>
</g>
</g>
<!-- Node5&#45;&gt;Node11 -->
<g id="edge11" class="edge">
<title>Node5&#45;&gt;Node11</title>
<path fill="none" stroke="#191970" d="M670.6062,-252.104C685.8126,-249.8445 702.2515,-247.6191 717.5,-246 948.0223,-221.5222 1221.4355,-208.4293 1356.0712,-203.0284"/>
<polygon fill="#191970" stroke="#191970" points="1356.4548,-206.5161 1366.308,-202.6219 1356.177,-199.5216 1356.4548,-206.5161"/>
</g>
<!-- Node29 -->
<g id="node30" class="node">
<title>Node29</title>
<g id="a_node30"><a xlink:href="_p_d_e_base_8_h.html" target="_top" xlink:title="amr&#45;wind/equation_systems\l/PDEBase.H">
<polygon fill="#ffffff" stroke="#000000" points="743,-123.5 743,-153.5 898,-153.5 898,-123.5 743,-123.5"/>
<text text-anchor="start" x="751" y="-141.5" font-family="Helvetica,sans-Serif" font-size="10.00" fill="#000000">amr&#45;wind/equation_systems</text>
<text text-anchor="middle" x="820.5" y="-130.5" font-family="Helvetica,sans-Serif" font-size="10.00" fill="#000000">/PDEBase.H</text>
</a>
</g>
</g>
<!-- Node5&#45;&gt;Node29 -->
<g id="edge48" class="edge">
<title>Node5&#45;&gt;Node29</title>
<path fill="none" stroke="#191970" d="M629.7429,-251.8484C663.3586,-231.8739 741.1827,-185.6305 786.3556,-158.7887"/>
<polygon fill="#191970" stroke="#191970" points="788.3929,-161.6494 795.2019,-153.5322 784.8171,-155.6316 788.3929,-161.6494"/>
</g>
<!-- Node37 -->
<g id="node38" class="node">
<title>Node37</title>
<g id="a_node38"><a xlink:href="_physics_8_h.html" target="_top" xlink:title="amr&#45;wind/core/Physics.H">
<polygon fill="#ffffff" stroke="#000000" points="195,-129 195,-148 332,-148 332,-129 195,-129"/>
<text text-anchor="middle" x="263.5" y="-136" font-family="Helvetica,sans-Serif" font-size="10.00" fill="#000000">amr&#45;wind/core/Physics.H</text>
</a>
</g>
</g>
<!-- Node5&#45;&gt;Node37 -->
<g id="edge65" class="edge">
<title>Node5&#45;&gt;Node37</title>
<path fill="none" stroke="#191970" d="M580.2072,-251.9154C546.5316,-242.0466 493.0838,-225.9059 447.5,-210 393.965,-191.3197 332.7757,-166.9213 296.1853,-151.9979"/>
<polygon fill="#191970" stroke="#191970" points="297.1247,-148.6006 286.5441,-148.0526 294.4736,-155.0792 297.1247,-148.6006"/>
</g>
<!-- Node8 -->
<g id="node9" class="node">
<title>Node8</title>
<polygon fill="#ffffff" stroke="#bfbfbf" points="483,-129 483,-148 574,-148 574,-129 483,-129"/>
<text text-anchor="middle" x="528.5" y="-136" font-family="Helvetica,sans-Serif" font-size="10.00" fill="#000000">AMReX_REAL.H</text>
</g>
<!-- Node7&#45;&gt;Node8 -->
<g id="edge8" class="edge">
<title>Node7&#45;&gt;Node8</title>
<path fill="none" stroke="#191970" d="M528.5,-190.3906C528.5,-181.8657 528.5,-169.1392 528.5,-158.4235"/>
<polygon fill="#191970" stroke="#191970" points="532.0001,-158.2448 528.5,-148.2449 525.0001,-158.2449 532.0001,-158.2448"/>
</g>
<!-- Node9 -->
<g id="node10" class="node">
<title>Node9</title>
<polygon fill="#ffffff" stroke="#bfbfbf" points="592.5,-129 592.5,-148 724.5,-148 724.5,-129 592.5,-129"/>
<text text-anchor="middle" x="658.5" y="-136" font-family="Helvetica,sans-Serif" font-size="10.00" fill="#000000">AMReX_GpuQualifiers.H</text>
</g>
<!-- Node7&#45;&gt;Node9 -->
<g id="edge9" class="edge">
<title>Node7&#45;&gt;Node9</title>
<path fill="none" stroke="#191970" d="M548.8125,-190.3906C570.3731,-180.1908 604.6478,-163.9763 629.1444,-152.3875"/>
<polygon fill="#191970" stroke="#191970" points="630.7874,-155.4822 638.3301,-148.0419 627.7939,-149.1545 630.7874,-155.4822"/>
</g>
<!-- Node10 -->
<g id="node11" class="node">
<title>Node10</title>
<polygon fill="#ffffff" stroke="#bfbfbf" points="350.5,-129 350.5,-148 464.5,-148 464.5,-129 350.5,-129"/>
<text text-anchor="middle" x="407.5" y="-136" font-family="Helvetica,sans-Serif" font-size="10.00" fill="#000000">AMReX_Extension.H</text>
</g>
<!-- Node7&#45;&gt;Node10 -->
<g id="edge10" class="edge">
<title>Node7&#45;&gt;Node10</title>
<path fill="none" stroke="#191970" d="M509.5938,-190.3906C489.7034,-180.2811 458.1877,-164.2628 435.4308,-152.6962"/>
<polygon fill="#191970" stroke="#191970" points="436.774,-149.4528 426.2735,-148.0419 433.6022,-155.693 436.774,-149.4528"/>
</g>
<!-- Node11&#45;&gt;Node6 -->
<g id="edge45" class="edge">
<title>Node11&#45;&gt;Node6</title>
<path fill="none" stroke="#191970" d="M1372.0543,-190.4652C1307.2779,-181.2697 1206.6711,-166.8885 1119.5,-154 1107.4566,-152.2194 1094.6182,-150.2916 1082.2558,-148.4204"/>
<polygon fill="#191970" stroke="#191970" points="1082.4232,-144.9058 1072.0113,-146.8664 1081.3733,-151.8267 1082.4232,-144.9058"/>
</g>
<!-- Node12 -->
<g id="node13" class="node">
<title>Node12</title>
<polygon fill="#ffffff" stroke="#bfbfbf" points="1338.5,-.5 1338.5,-19.5 1382.5,-19.5 1382.5,-.5 1338.5,-.5"/>
<text text-anchor="middle" x="1360.5" y="-7.5" font-family="Helvetica,sans-Serif" font-size="10.00" fill="#000000">string</text>
</g>
<!-- Node11&#45;&gt;Node12 -->
<g id="edge12" class="edge">
<title>Node11&#45;&gt;Node12</title>
<path fill="none" stroke="#191970" d="M1426.4468,-190.4747C1415.7975,-182.0347 1401.1476,-168.7826 1392.5,-154 1369.2116,-114.1896 1362.8528,-59.1262 1361.1293,-29.9726"/>
<polygon fill="#191970" stroke="#191970" points="1364.6185,-29.6559 1360.6593,-19.8287 1357.626,-29.98 1364.6185,-29.6559"/>
</g>
<!-- Node13 -->
<g id="node14" class="node">
<title>Node13</title>
<polygon fill="#ffffff" stroke="#bfbfbf" points="805,-.5 805,-19.5 898,-19.5 898,-.5 805,-.5"/>
<text text-anchor="middle" x="851.5" y="-7.5" font-family="Helvetica,sans-Serif" font-size="10.00" fill="#000000">unordered_map</text>
</g>
<!-- Node11&#45;&gt;Node13 -->
<g id="edge13" class="edge">
<title>Node11&#45;&gt;Node13</title>
<path fill="none" stroke="#191970" d="M1425.7157,-190.3373C1387.3368,-163.9561 1275.1794,-90.3828 1170.5,-56 1081.6886,-26.8292 972.9388,-16.1413 908.096,-12.2359"/>
<polygon fill="#191970" stroke="#191970" points="908.2587,-8.7396 898.0759,-11.6656 907.8608,-15.7283 908.2587,-8.7396"/>
</g>
<!-- Node14 -->
<g id="node15" class="node">
<title>Node14</title>
<g id="a_node15"><a xlink:href="_field_desc_types_8_h.html" target="_top" xlink:title="amr&#45;wind/core/FieldDescTypes.H">
<polygon fill="#ffffff" stroke="#000000" points="1798.5,-.5 1798.5,-19.5 1972.5,-19.5 1972.5,-.5 1798.5,-.5"/>
<text text-anchor="middle" x="1885.5" y="-7.5" font-family="Helvetica,sans-Serif" font-size="10.00" fill="#000000">amr&#45;wind/core/FieldDescTypes.H</text>
</a>
</g>
</g>
<!-- Node11&#45;&gt;Node14 -->
<g id="edge14" class="edge">
<title>Node11&#45;&gt;Node14</title>
<path fill="none" stroke="#191970" d="M1512.5864,-196.8094C1664.4656,-189.8246 2001.5658,-172.333 2018.5,-154 2041.1366,-129.4936 2003.0977,-67.9075 1991.5,-56 1976.4127,-40.5097 1955.2384,-29.9088 1935.7776,-22.826"/>
<polygon fill="#191970" stroke="#191970" points="1936.6928,-19.4403 1926.0983,-19.5308 1934.4368,-26.0669 1936.6928,-19.4403"/>
</g>
<!-- Node15 -->
<g id="node16" class="node">
<title>Node15</title>
<g id="a_node16"><a xlink:href="_field_utils_8_h.html" target="_top" xlink:title="amr&#45;wind/core/FieldUtils.H">
<polygon fill="#ffffff" stroke="#000000" points="2066,-62 2066,-81 2211,-81 2211,-62 2066,-62"/>
<text text-anchor="middle" x="2138.5" y="-69" font-family="Helvetica,sans-Serif" font-size="10.00" fill="#000000">amr&#45;wind/core/FieldUtils.H</text>
</a>
</g>
</g>
<!-- Node11&#45;&gt;Node15 -->
<g id="edge15" class="edge">
<title>Node11&#45;&gt;Node15</title>
<path fill="none" stroke="#191970" d="M1512.6569,-197.2523C1664.4042,-191.1556 2003.3371,-175.3317 2051.5,-154 2083.3537,-139.8918 2110.7429,-108.9682 2125.8902,-89.2466"/>
<polygon fill="#191970" stroke="#191970" points="2128.8073,-91.1889 2131.9603,-81.0741 2123.1878,-87.015 2128.8073,-91.1889"/>
</g>
<!-- Node16 -->
<g id="node17" class="node">
<title>Node16</title>
<polygon fill="#ffffff" stroke="#bfbfbf" points="1478,-.5 1478,-19.5 1585,-19.5 1585,-.5 1478,-.5"/>
<text text-anchor="middle" x="1531.5" y="-7.5" font-family="Helvetica,sans-Serif" font-size="10.00" fill="#000000">AMReX_MultiFab.H</text>
</g>
<!-- Node11&#45;&gt;Node16 -->
<g id="edge46" class="edge">
<title>Node11&#45;&gt;Node16</title>
<path fill="none" stroke="#191970" d="M1512.5172,-191.3588C1622.7998,-176.6374 1823.5828,-142.752 1866.5,-87 1874.9043,-76.0823 1875.5555,-66.3839 1866.5,-56 1848.9741,-35.9031 1687.5837,-21.1622 1595.3645,-14.2976"/>
<polygon fill="#191970" stroke="#191970" points="1595.5255,-10.8001 1585.2962,-13.559 1595.0133,-17.7814 1595.5255,-10.8001"/>
</g>
<!-- Node11&#45;&gt;Node18 -->
<g id="edge19" class="edge">
<title>Node11&#45;&gt;Node18</title>
<path fill="none" stroke="#191970" d="M1400.7118,-190.4581C1356.9216,-179.6857 1285.6091,-162.1428 1238.1304,-150.4631"/>
<polygon fill="#191970" stroke="#191970" points="1238.9258,-147.0545 1228.3792,-148.0643 1237.2536,-153.8518 1238.9258,-147.0545"/>
</g>
<!-- Node25 -->
<g id="node26" class="node">
<title>Node25</title>
<g id="a_node26"><a xlink:href="_int_field_8_h.html" target="_top" xlink:title="amr&#45;wind/core/IntField.H">
<polygon fill="#ffffff" stroke="#000000" points="1874,-129 1874,-148 2009,-148 2009,-129 1874,-129"/>
<text text-anchor="middle" x="1941.5" y="-136" font-family="Helvetica,sans-Serif" font-size="10.00" fill="#000000">amr&#45;wind/core/IntField.H</text>
</a>
</g>
</g>
<!-- Node11&#45;&gt;Node25 -->
<g id="edge34" class="edge">
<title>Node11&#45;&gt;Node25</title>
<path fill="none" stroke="#191970" d="M1512.7549,-191.3686C1589.6697,-182.2615 1714.1192,-167.4001 1821.5,-154 1835.1704,-152.2941 1849.712,-150.4449 1863.7813,-148.638"/>
<polygon fill="#191970" stroke="#191970" points="1864.452,-152.0806 1873.9232,-147.3323 1863.5582,-145.1379 1864.452,-152.0806"/>
</g>
<!-- Node26 -->
<g id="node27" class="node">
<title>Node26</title>
<polygon fill="#ffffff" stroke="#bfbfbf" points="2229.5,-62 2229.5,-81 2339.5,-81 2339.5,-62 2229.5,-62"/>
<text text-anchor="middle" x="2284.5" y="-69" font-family="Helvetica,sans-Serif" font-size="10.00" fill="#000000">AMReX_iMultiFab.H</text>
</g>
<!-- Node11&#45;&gt;Node26 -->
<g id="edge47" class="edge">
<title>Node11&#45;&gt;Node26</title>
<path fill="none" stroke="#191970" d="M1512.6021,-197.7728C1658.1389,-192.8515 1979.3269,-179.4202 2086.5,-154 2150.6956,-138.7736 2220.8686,-105.109 2257.9991,-85.8197"/>
<polygon fill="#191970" stroke="#191970" points="2259.9118,-88.7684 2267.1338,-81.0163 2256.6539,-82.5727 2259.9118,-88.7684"/>
</g>
<!-- Node27 -->
<g id="node28" class="node">
<title>Node27</title>
<g id="a_node28"><a xlink:href="_scratch_field_8_h.html" target="_top" xlink:title="amr&#45;wind/core/ScratchField.H">
<polygon fill="#ffffff" stroke="#000000" points="1401.5,-129 1401.5,-148 1559.5,-148 1559.5,-129 1401.5,-129"/>
<text text-anchor="middle" x="1480.5" y="-136" font-family="Helvetica,sans-Serif" font-size="10.00" fill="#000000">amr&#45;wind/core/ScratchField.H</text>
</a>
</g>
</g>
<!-- Node11&#45;&gt;Node27 -->
<g id="edge38" class="edge">
<title>Node11&#45;&gt;Node27</title>
<path fill="none" stroke="#191970" d="M1445.9063,-190.3906C1451.8886,-181.417 1460.9747,-167.7879 1468.3339,-156.7491"/>
<polygon fill="#191970" stroke="#191970" points="1471.3686,-158.5068 1474.0034,-148.2449 1465.5442,-154.6239 1471.3686,-158.5068"/>
</g>
<!-- Node15&#45;&gt;Node14 -->
<g id="edge16" class="edge">
<title>Node15&#45;&gt;Node14</title>
<path fill="none" stroke="#191970" d="M2099.2463,-61.9581C2054.9306,-51.1857 1982.7624,-33.6428 1934.714,-21.9631"/>
<polygon fill="#191970" stroke="#191970" points="1935.3895,-18.5254 1924.8457,-19.5643 1933.736,-25.3274 1935.3895,-18.5254"/>
</g>
<!-- Node15&#45;&gt;Node16 -->
<g id="edge17" class="edge">
<title>Node15&#45;&gt;Node16</title>
<path fill="none" stroke="#191970" d="M2065.8845,-64.1427C1946.1109,-52.0075 1709.0959,-27.9937 1595.3436,-16.4685"/>
<polygon fill="#191970" stroke="#191970" points="1595.3597,-12.9523 1585.0578,-15.4264 1594.654,-19.9166 1595.3597,-12.9523"/>
</g>
<!-- Node17 -->
<g id="node18" class="node">
<title>Node17</title>
<polygon fill="#ffffff" stroke="#bfbfbf" points="2077.5,-.5 2077.5,-19.5 2199.5,-19.5 2199.5,-.5 2077.5,-.5"/>
<text text-anchor="middle" x="2138.5" y="-7.5" font-family="Helvetica,sans-Serif" font-size="10.00" fill="#000000">AMReX_Interpolater.H</text>
</g>
<!-- Node15&#45;&gt;Node17 -->
<g id="edge18" class="edge">
<title>Node15&#45;&gt;Node17</title>
<path fill="none" stroke="#191970" d="M2138.5,-61.8906C2138.5,-53.3657 2138.5,-40.6392 2138.5,-29.9235"/>
<polygon fill="#191970" stroke="#191970" points="2142.0001,-29.7448 2138.5,-19.7449 2135.0001,-29.7449 2142.0001,-29.7448"/>
</g>
<!-- Node18&#45;&gt;Node4 -->
<g id="edge26" class="edge">
<title>Node18&#45;&gt;Node4</title>
<path fill="none" stroke="#191970" d="M1128.7677,-128.9802C1113.375,-126.7887 1096.8519,-124.6267 1081.5,-123 849.3618,-98.4018 787.6882,-125.8152 557.5,-87 552.1278,-86.0941 546.5306,-84.8967 541.0331,-83.5678"/>
<polygon fill="#191970" stroke="#191970" points="541.8722,-80.1698 531.3155,-81.0683 540.1284,-86.9491 541.8722,-80.1698"/>
</g>
<!-- Node18&#45;&gt;Node12 -->
<g id="edge20" class="edge">
<title>Node18&#45;&gt;Node12</title>
<path fill="none" stroke="#191970" d="M1194.5325,-128.7869C1203.7346,-111.8745 1224.8078,-76.8374 1251.5,-56 1264.0451,-46.2066 1301.3444,-31.4135 1328.8311,-21.2626"/>
<polygon fill="#191970" stroke="#191970" points="1330.2567,-24.4682 1338.4497,-17.7507 1327.8558,-17.8928 1330.2567,-24.4682"/>
</g>
<!-- Node18&#45;&gt;Node13 -->
<g id="edge22" class="edge">
<title>Node18&#45;&gt;Node13</title>
<path fill="none" stroke="#191970" d="M1156.5758,-128.9532C1128.6529,-120.1408 1088.0647,-105.6135 1055.5,-87 1036.2766,-76.0122 1036.2236,-66.0623 1016.5,-56 982.4105,-38.6088 940.8993,-27.0783 908.0421,-19.911"/>
<polygon fill="#191970" stroke="#191970" points="908.6475,-16.4618 898.1407,-17.8251 907.2044,-23.3115 908.6475,-16.4618"/>
</g>
<!-- Node18&#45;&gt;Node14 -->
<g id="edge28" class="edge">
<title>Node18&#45;&gt;Node14</title>
<path fill="none" stroke="#191970" d="M1250.5049,-134.773C1325.1409,-129.1457 1454.8528,-115.8957 1562.5,-87 1597.7324,-77.5426 1603.4992,-66.2814 1638.5,-56 1692.3215,-40.1902 1754.4008,-28.656 1802.859,-21.0916"/>
<polygon fill="#191970" stroke="#191970" points="1803.6315,-24.5141 1812.9848,-19.5375 1802.5696,-17.5951 1803.6315,-24.5141"/>
</g>
<!-- Node18&#45;&gt;Node16 -->
<g id="edge24" class="edge">
<title>Node18&#45;&gt;Node16</title>
<path fill="none" stroke="#191970" d="M1212.8812,-128.8903C1251.3848,-113.1512 1330.6365,-81.1167 1398.5,-56 1430.1956,-44.2692 1466.4704,-31.7851 1493.1215,-22.7867"/>
<polygon fill="#191970" stroke="#191970" points="1494.4738,-26.0246 1502.835,-19.5176 1492.2409,-19.3903 1494.4738,-26.0246"/>
</g>
<!-- Node19 -->
<g id="node20" class="node">
<title>Node19</title>
<polygon fill="#ffffff" stroke="#bfbfbf" points="542.5,-.5 542.5,-19.5 600.5,-19.5 600.5,-.5 542.5,-.5"/>
<text text-anchor="middle" x="571.5" y="-7.5" font-family="Helvetica,sans-Serif" font-size="10.00" fill="#000000">memory</text>
</g>
<!-- Node18&#45;&gt;Node19 -->
<g id="edge21" class="edge">
<title>Node18&#45;&gt;Node19</title>
<path fill="none" stroke="#191970" d="M1128.479,-128.989C1113.1672,-126.8101 1096.7539,-124.6518 1081.5,-123 1027.1159,-117.1109 632.302,-122.2832 590.5,-87 574.1092,-73.1652 570.6309,-47.6561 570.4196,-29.8031"/>
<polygon fill="#191970" stroke="#191970" points="573.9228,-29.6851 570.6366,-19.6128 566.9244,-29.536 573.9228,-29.6851"/>
</g>
<!-- Node18&#45;&gt;Node20 -->
<g id="edge23" class="edge">
<title>Node18&#45;&gt;Node20</title>
<path fill="none" stroke="#191970" d="M1250.5265,-133.0176C1354.5859,-123.4022 1562.0339,-102.9993 1633.5,-87 1636.9771,-86.2216 1640.5604,-85.2775 1644.1201,-84.2436"/>
<polygon fill="#191970" stroke="#191970" points="1645.4842,-87.4841 1653.9812,-81.1556 1643.3922,-80.804 1645.4842,-87.4841"/>
</g>
<!-- Node21 -->
<g id="node22" class="node">
<title>Node21</title>
<polygon fill="#ffffff" stroke="#bfbfbf" points="1064,-62 1064,-81 1161,-81 1161,-62 1064,-62"/>
<text text-anchor="middle" x="1112.5" y="-69" font-family="Helvetica,sans-Serif" font-size="10.00" fill="#000000">AMReX_BCRec.H</text>
</g>
<!-- Node18&#45;&gt;Node21 -->
<g id="edge25" class="edge">
<title>Node18&#45;&gt;Node21</title>
<path fill="none" stroke="#191970" d="M1178.4678,-128.9005C1166.1172,-118.1539 1145.8977,-100.5603 1131.0943,-87.6794"/>
<polygon fill="#191970" stroke="#191970" points="1133.3532,-85.0055 1123.5118,-81.0817 1128.7582,-90.2863 1133.3532,-85.0055"/>
</g>
<!-- Node22 -->
<g id="node23" class="node">
<title>Node22</title>
<g id="a_node23"><a xlink:href="incflo__enums_8_h.html" target="_top" xlink:title="amr&#45;wind/incflo_enums.H">
<polygon fill="#ffffff" stroke="#000000" points="867.5,-62 867.5,-81 1007.5,-81 1007.5,-62 867.5,-62"/>
<text text-anchor="middle" x="937.5" y="-69" font-family="Helvetica,sans-Serif" font-size="10.00" fill="#000000">amr&#45;wind/incflo_enums.H</text>
</a>
</g>
</g>
<!-- Node18&#45;&gt;Node22 -->
<g id="edge27" class="edge">
<title>Node18&#45;&gt;Node22</title>
<path fill="none" stroke="#191970" d="M1153.6622,-128.9717C1108.9138,-117.0743 1032.3043,-96.7059 983.3311,-83.6852"/>
<polygon fill="#191970" stroke="#191970" points="984.1858,-80.291 973.6222,-81.1039 982.3871,-87.056 984.1858,-80.291"/>
</g>
<!-- Node23 -->
<g id="node24" class="node">
<title>Node23</title>
<g id="a_node24"><a xlink:href="_view_field_8_h.html" target="_top" xlink:title="amr&#45;wind/core/ViewField.H">
<polygon fill="#ffffff" stroke="#000000" points="1407.5,-62 1407.5,-81 1553.5,-81 1553.5,-62 1407.5,-62"/>
<text text-anchor="middle" x="1480.5" y="-69" font-family="Helvetica,sans-Serif" font-size="10.00" fill="#000000">amr&#45;wind/core/ViewField.H</text>
</a>
</g>
</g>
<!-- Node18&#45;&gt;Node23 -->
<g id="edge29" class="edge">
<title>Node18&#45;&gt;Node23</title>
<path fill="none" stroke="#191970" d="M1230.8842,-128.9717C1282.9894,-116.975 1372.5037,-96.3651 1428.9861,-83.3606"/>
<polygon fill="#191970" stroke="#191970" points="1429.8277,-86.7585 1438.7875,-81.1039 1428.2571,-79.9369 1429.8277,-86.7585"/>
</g>
<!-- Node23&#45;&gt;Node12 -->
<g id="edge30" class="edge">
<title>Node23&#45;&gt;Node12</title>
<path fill="none" stroke="#191970" d="M1461.75,-61.8906C1442.024,-51.7811 1410.7688,-35.7628 1388.2,-24.1962"/>
<polygon fill="#191970" stroke="#191970" points="1389.614,-20.9881 1379.1183,-19.5419 1386.4213,-27.2176 1389.614,-20.9881"/>
</g>
<!-- Node23&#45;&gt;Node14 -->
<g id="edge31" class="edge">
<title>Node23&#45;&gt;Node14</title>
<path fill="none" stroke="#191970" d="M1543.3369,-61.9581C1616.1643,-50.8991 1735.9816,-32.7047 1812.7738,-21.0436"/>
<polygon fill="#191970" stroke="#191970" points="1813.4878,-24.4754 1822.8489,-19.5137 1812.4368,-17.5547 1813.4878,-24.4754"/>
</g>
<!-- Node23&#45;&gt;Node16 -->
<g id="edge32" class="edge">
<title>Node23&#45;&gt;Node16</title>
<path fill="none" stroke="#191970" d="M1488.4688,-61.8906C1496.0591,-52.7376 1507.6661,-38.7409 1516.9132,-27.59"/>
<polygon fill="#191970" stroke="#191970" points="1519.7297,-29.6766 1523.4189,-19.7449 1514.3413,-25.2083 1519.7297,-29.6766"/>
</g>
<!-- Node24 -->
<g id="node25" class="node">
<title>Node24</title>
<polygon fill="#ffffff" stroke="#bfbfbf" points="1224.5,-.5 1224.5,-19.5 1320.5,-19.5 1320.5,-.5 1224.5,-.5"/>
<text text-anchor="middle" x="1272.5" y="-7.5" font-family="Helvetica,sans-Serif" font-size="10.00" fill="#000000">AMReX_Vector.H</text>
</g>
<!-- Node23&#45;&gt;Node24 -->
<g id="edge33" class="edge">
<title>Node23&#45;&gt;Node24</title>
<path fill="none" stroke="#191970" d="M1448,-61.8906C1412.053,-51.2621 1354.0173,-34.1025 1314.612,-22.4514"/>
<polygon fill="#191970" stroke="#191970" points="1315.3538,-19.021 1304.7718,-19.5419 1313.369,-25.7337 1315.3538,-19.021"/>
</g>
<!-- Node25&#45;&gt;Node12 -->
<g id="edge35" class="edge">
<title>Node25&#45;&gt;Node12</title>
<path fill="none" stroke="#191970" d="M1936.186,-128.9937C1925.5903,-111.0821 1899.947,-72.6425 1866.5,-56 1787.1912,-16.5378 1557.718,-28.0465 1469.5,-20 1443.6414,-17.6414 1414.3338,-14.9517 1392.6259,-12.9563"/>
<polygon fill="#191970" stroke="#191970" points="1392.9067,-9.4674 1382.6282,-12.037 1392.2657,-16.438 1392.9067,-9.4674"/>
</g>
<!-- Node25&#45;&gt;Node14 -->
<g id="edge36" class="edge">
<title>Node25&#45;&gt;Node14</title>
<path fill="none" stroke="#191970" d="M1951.1097,-128.8811C1965.7766,-112.9921 1990.54,-80.5777 1975.5,-56 1966.1591,-40.7354 1949.9772,-30.3326 1933.8874,-23.3404"/>
<polygon fill="#191970" stroke="#191970" points="1935.0629,-20.0414 1924.477,-19.6067 1932.4813,-26.548 1935.0629,-20.0414"/>
</g>
<!-- Node25&#45;&gt;Node26 -->
<g id="edge37" class="edge">
<title>Node25&#45;&gt;Node26</title>
<path fill="none" stroke="#191970" d="M1998.3229,-128.9557C2054.8291,-119.2427 2143.905,-103.3315 2220.5,-87 2225.811,-85.8676 2231.3544,-84.6218 2236.8613,-83.3437"/>
<polygon fill="#191970" stroke="#191970" points="2237.7482,-86.7306 2246.6759,-81.0256 2236.1392,-79.918 2237.7482,-86.7306"/>
</g>
<!-- Node27&#45;&gt;Node12 -->
<g id="edge39" class="edge">
<title>Node27&#45;&gt;Node12</title>
<path fill="none" stroke="#191970" d="M1458.6562,-128.9515C1440.6439,-120.1832 1415.3953,-105.7194 1398.5,-87 1383.2604,-70.115 1372.6881,-46.0048 1366.633,-29.28"/>
<polygon fill="#191970" stroke="#191970" points="1369.841,-27.8427 1363.3027,-19.506 1363.2151,-30.1005 1369.841,-27.8427"/>
</g>
<!-- Node27&#45;&gt;Node14 -->
<g id="edge40" class="edge">
<title>Node27&#45;&gt;Node14</title>
<path fill="none" stroke="#191970" d="M1559.9264,-132.6628C1666.2324,-124.1344 1844.0963,-107.08 1866.5,-87 1882.3879,-72.76 1886.0034,-47.548 1886.3823,-29.8635"/>
<polygon fill="#191970" stroke="#191970" points="1889.881,-29.7161 1886.2707,-19.7554 1882.8814,-29.7934 1889.881,-29.7161"/>
</g>
<!-- Node27&#45;&gt;Node16 -->
<g id="edge42" class="edge">
<title>Node27&#45;&gt;Node16</title>
<path fill="none" stroke="#191970" d="M1509.1436,-128.876C1527.9914,-120.8759 1551.1947,-107.4503 1562.5,-87 1573.2065,-67.6328 1559.9138,-43.7941 1547.5614,-27.8172"/>
<polygon fill="#191970" stroke="#191970" points="1550.0245,-25.3036 1540.9541,-19.8283 1544.6303,-29.7649 1550.0245,-25.3036"/>
</g>
<!-- Node27&#45;&gt;Node23 -->
<g id="edge41" class="edge">
<title>Node27&#45;&gt;Node23</title>
<path fill="none" stroke="#191970" d="M1480.5,-128.9005C1480.5,-119.149 1480.5,-103.7597 1480.5,-91.3695"/>
<polygon fill="#191970" stroke="#191970" points="1484.0001,-91.0816 1480.5,-81.0817 1477.0001,-91.0817 1484.0001,-91.0816"/>
</g>
<!-- Node27&#45;&gt;Node24 -->
<g id="edge43" class="edge">
<title>Node27&#45;&gt;Node24</title>
<path fill="none" stroke="#191970" d="M1457.494,-128.8772C1435.5556,-119.3439 1401.894,-103.7745 1374.5,-87 1343.8702,-68.244 1311.1933,-42.4205 1291.3049,-25.9667"/>
<polygon fill="#191970" stroke="#191970" points="1293.526,-23.2617 1283.6076,-19.5367 1289.0383,-28.6339 1293.526,-23.2617"/>
</g>
<!-- Node28 -->
<g id="node29" class="node">
<title>Node28</title>
<polygon fill="#ffffff" stroke="#bfbfbf" points="1729.5,-62 1729.5,-81 1857.5,-81 1857.5,-62 1729.5,-62"/>
<text text-anchor="middle" x="1793.5" y="-69" font-family="Helvetica,sans-Serif" font-size="10.00" fill="#000000">AMReX_PhysBCFunct.H</text>
</g>
<!-- Node27&#45;&gt;Node28 -->
<g id="edge44" class="edge">
<title>Node27&#45;&gt;Node28</title>
<path fill="none" stroke="#191970" d="M1525.0129,-128.9717C1581.3693,-116.9082 1678.4123,-96.1354 1739.1029,-83.1441"/>
<polygon fill="#191970" stroke="#191970" points="1739.8417,-86.5653 1748.8876,-81.0496 1738.3765,-79.7204 1739.8417,-86.5653"/>
</g>
<!-- Node29&#45;&gt;Node12 -->
<g id="edge49" class="edge">
<title>Node29&#45;&gt;Node12</title>
<path fill="none" stroke="#191970" d="M816.1553,-123.349C811.852,-104.7561 808.1424,-73.5456 825.5,-56 863.2878,-17.8028 1239.8856,-29.5407 1328.219,-19.3714"/>
<polygon fill="#191970" stroke="#191970" points="1328.9439,-22.802 1338.3169,-17.8626 1327.9095,-15.8788 1328.9439,-22.802"/>
</g>
<!-- Node29&#45;&gt;Node14 -->
<g id="edge63" class="edge">
<title>Node29&#45;&gt;Node14</title>
<path fill="none" stroke="#191970" d="M822.6902,-123.2416C826.358,-103.9211 835.7302,-71.3103 858.5,-56 868.0811,-49.5577 1533.6809,-23.4566 1788.1006,-13.7018"/>
<polygon fill="#191970" stroke="#191970" points="1788.582,-17.1861 1798.4406,-13.3057 1788.3139,-10.1912 1788.582,-17.1861"/>
</g>
<!-- Node29&#45;&gt;Node22 -->
<g id="edge64" class="edge">
<title>Node29&#45;&gt;Node22</title>
<path fill="none" stroke="#191970" d="M846.7571,-123.4639C866.2113,-112.3234 892.5839,-97.2212 911.8839,-86.1691"/>
<polygon fill="#191970" stroke="#191970" points="913.7904,-89.1106 920.729,-81.1039 910.3118,-83.0361 913.7904,-89.1106"/>
</g>
<!-- Node30 -->
<g id="node31" class="node">
<title>Node30</title>
<g id="a_node31"><a xlink:href="_factory_8_h.html" target="_top" xlink:title="amr&#45;wind/core/Factory.H">
<polygon fill="#ffffff" stroke="#000000" points="131.5,-62 131.5,-81 265.5,-81 265.5,-62 131.5,-62"/>
<text text-anchor="middle" x="198.5" y="-69" font-family="Helvetica,sans-Serif" font-size="10.00" fill="#000000">amr&#45;wind/core/Factory.H</text>
</a>
</g>
</g>
<!-- Node29&#45;&gt;Node30 -->
<g id="edge50" class="edge">
<title>Node29&#45;&gt;Node30</title>
<path fill="none" stroke="#191970" d="M742.7698,-124.2622C739.6426,-123.8128 736.5436,-123.3895 733.5,-123 530.5291,-97.0232 477.1321,-115.4994 274.5,-87 266.7179,-85.9055 258.5343,-84.5045 250.5366,-82.9936"/>
<polygon fill="#191970" stroke="#191970" points="251.0366,-79.525 240.55,-81.0359 249.6899,-86.3943 251.0366,-79.525"/>
</g>
<!-- Node34 -->
<g id="node35" class="node">
<title>Node34</title>
<g id="a_node35"><a xlink:href="_coll_mgr_8_h.html" target="_top" xlink:title="amr&#45;wind/core/CollMgr.H">
<polygon fill="#ffffff" stroke="#000000" points="599.5,-62 599.5,-81 735.5,-81 735.5,-62 599.5,-62"/>
<text text-anchor="middle" x="667.5" y="-69" font-family="Helvetica,sans-Serif" font-size="10.00" fill="#000000">amr&#45;wind/core/CollMgr.H</text>
</a>
</g>
</g>
<!-- Node29&#45;&gt;Node34 -->
<g id="edge56" class="edge">
<title>Node29&#45;&gt;Node34</title>
<path fill="none" stroke="#191970" d="M786.1638,-123.4639C759.9142,-111.969 724.0326,-96.2561 698.6175,-85.1266"/>
<polygon fill="#191970" stroke="#191970" points="699.9955,-81.9092 689.4313,-81.1039 697.1876,-88.3214 699.9955,-81.9092"/>
</g>
<!-- Node35 -->
<g id="node36" class="node">
<title>Node35</title>
<g id="a_node36"><a xlink:href="_p_d_e_fields_8_h.html" target="_top" xlink:title="amr&#45;wind/equation_systems\l/PDEFields.H">
<polygon fill="#ffffff" stroke="#000000" points="284,-56.5 284,-86.5 439,-86.5 439,-56.5 284,-56.5"/>
<text text-anchor="start" x="292" y="-74.5" font-family="Helvetica,sans-Serif" font-size="10.00" fill="#000000">amr&#45;wind/equation_systems</text>
<text text-anchor="middle" x="361.5" y="-63.5" font-family="Helvetica,sans-Serif" font-size="10.00" fill="#000000">/PDEFields.H</text>
</a>
</g>
</g>
<!-- Node29&#45;&gt;Node35 -->
<g id="edge61" class="edge">
<title>Node29&#45;&gt;Node35</title>
<path fill="none" stroke="#191970" d="M742.7441,-124.4457C739.624,-123.9455 736.5335,-123.4615 733.5,-123 610.484,-104.2845 576.4345,-106.0948 449.3787,-87.0833"/>
<polygon fill="#191970" stroke="#191970" points="449.6665,-83.5872 439.2559,-85.5543 448.621,-90.5086 449.6665,-83.5872"/>
</g>
<!-- Node30&#45;&gt;Node13 -->
<g id="edge52" class="edge">
<title>Node30&#45;&gt;Node13</title>
<path fill="none" stroke="#191970" d="M240.5514,-61.9739C251.5534,-59.7428 263.4331,-57.5638 274.5,-56 464.0124,-29.2218 690.9112,-16.8272 794.6705,-12.2359"/>
<polygon fill="#191970" stroke="#191970" points="795.0802,-15.7215 804.9187,-11.7902 794.776,-8.7281 795.0802,-15.7215"/>
</g>
<!-- Node30&#45;&gt;Node19 -->
<g id="edge51" class="edge">
<title>Node30&#45;&gt;Node19</title>
<path fill="none" stroke="#191970" d="M243.4417,-61.9662C253.6358,-59.9062 264.4265,-57.8063 274.5,-56 366.6047,-39.4847 475.4176,-23.5339 532.3285,-15.4617"/>
<polygon fill="#191970" stroke="#191970" points="532.9234,-18.9125 542.3353,-14.0477 531.9439,-11.9813 532.9234,-18.9125"/>
</g>
<!-- Node31 -->
<g id="node32" class="node">
<title>Node31</title>
<polygon fill="#ffffff" stroke="#bfbfbf" points="74.5,-.5 74.5,-19.5 134.5,-19.5 134.5,-.5 74.5,-.5"/>
<text text-anchor="middle" x="104.5" y="-7.5" font-family="Helvetica,sans-Serif" font-size="10.00" fill="#000000">iostream</text>
</g>
<!-- Node30&#45;&gt;Node31 -->
<g id="edge53" class="edge">
<title>Node30&#45;&gt;Node31</title>
<path fill="none" stroke="#191970" d="M183.8125,-61.8906C168.7744,-52.0519 145.1824,-36.6167 127.6333,-25.1351"/>
<polygon fill="#191970" stroke="#191970" points="129.3687,-22.088 119.0844,-19.5419 125.5363,-27.9457 129.3687,-22.088"/>
</g>
<!-- Node32 -->
<g id="node33" class="node">
<title>Node32</title>
<polygon fill="#ffffff" stroke="#bfbfbf" points="153,-.5 153,-19.5 242,-19.5 242,-.5 153,-.5"/>
<text text-anchor="middle" x="197.5" y="-7.5" font-family="Helvetica,sans-Serif" font-size="10.00" fill="#000000">AMReX_Print.H</text>
</g>
<!-- Node30&#45;&gt;Node32 -->
<g id="edge54" class="edge">
<title>Node30&#45;&gt;Node32</title>
<path fill="none" stroke="#191970" d="M198.3438,-61.8906C198.2051,-53.3657 197.9982,-40.6392 197.824,-29.9235"/>
<polygon fill="#191970" stroke="#191970" points="201.3207,-29.6866 197.6585,-19.7449 194.3216,-29.8005 201.3207,-29.6866"/>
</g>
<!-- Node33 -->
<g id="node34" class="node">
<title>Node33</title>
<polygon fill="#ffffff" stroke="#bfbfbf" points="260,-.5 260,-19.5 321,-19.5 321,-.5 260,-.5"/>
<text text-anchor="middle" x="290.5" y="-7.5" font-family="Helvetica,sans-Serif" font-size="10.00" fill="#000000">AMReX.H</text>
</g>
<!-- Node30&#45;&gt;Node33 -->
<g id="edge55" class="edge">
<title>Node30&#45;&gt;Node33</title>
<path fill="none" stroke="#191970" d="M212.875,-61.8906C227.5931,-52.0519 250.6832,-36.6167 267.8589,-25.1351"/>
<polygon fill="#191970" stroke="#191970" points="269.8575,-28.0091 276.2259,-19.5419 265.9673,-22.1896 269.8575,-28.0091"/>
</g>
<!-- Node34&#45;&gt;Node12 -->
<g id="edge57" class="edge">
<title>Node34&#45;&gt;Node12</title>
<path fill="none" stroke="#191970" d="M712.454,-61.9564C724.4442,-59.698 737.424,-57.5101 749.5,-56 1002.5243,-24.3592 1073.9234,-66.9136 1328.4131,-19.7524"/>
<polygon fill="#191970" stroke="#191970" points="1329.1414,-23.1769 1338.3218,-17.8883 1327.8471,-16.2976 1329.1414,-23.1769"/>
</g>
<!-- Node34&#45;&gt;Node13 -->
<g id="edge59" class="edge">
<title>Node34&#45;&gt;Node13</title>
<path fill="none" stroke="#191970" d="M696.25,-61.8906C727.7117,-51.3749 778.3008,-34.466 813.1314,-22.8243"/>
<polygon fill="#191970" stroke="#191970" points="814.5772,-26.0315 822.9519,-19.5419 812.3581,-19.3925 814.5772,-26.0315"/>
</g>
<!-- Node34&#45;&gt;Node19 -->
<g id="edge58" class="edge">
<title>Node34&#45;&gt;Node19</title>
<path fill="none" stroke="#191970" d="M652.5,-61.8906C637.1419,-52.0519 613.0479,-36.6167 595.1255,-25.1351"/>
<polygon fill="#191970" stroke="#191970" points="596.703,-21.9891 586.3947,-19.5419 592.927,-27.8833 596.703,-21.9891"/>
</g>
<!-- Node34&#45;&gt;Node24 -->
<g id="edge60" class="edge">
<title>Node34&#45;&gt;Node24</title>
<path fill="none" stroke="#191970" d="M713.77,-61.9246C725.3971,-59.7473 737.875,-57.6059 749.5,-56 917.4187,-32.8032 1117.3749,-19.0333 1214.2028,-13.2357"/>
<polygon fill="#191970" stroke="#191970" points="1214.5943,-16.7187 1224.3699,-12.6336 1214.1804,-9.731 1214.5943,-16.7187"/>
</g>
<!-- Node36 -->
<g id="node37" class="node">
<title>Node36</title>
<polygon fill="#ffffff" stroke="#bfbfbf" points="339,-.5 339,-19.5 388,-19.5 388,-.5 339,-.5"/>
<text text-anchor="middle" x="363.5" y="-7.5" font-family="Helvetica,sans-Serif" font-size="10.00" fill="#000000">iosfwd</text>
</g>
<!-- Node35&#45;&gt;Node36 -->
<g id="edge62" class="edge">
<title>Node35&#45;&gt;Node36</title>
<path fill="none" stroke="#191970" d="M361.9944,-56.2977C362.2518,-48.3834 362.5698,-38.6043 362.8471,-30.0759"/>
<polygon fill="#191970" stroke="#191970" points="366.3528,-29.9554 363.1798,-19.8469 359.3565,-29.7279 366.3528,-29.9554"/>
</g>
<!-- Node37&#45;&gt;Node16 -->
<g id="edge68" class="edge">
<title>Node37&#45;&gt;Node16</title>
<path fill="none" stroke="#191970" d="M307.0872,-128.9824C318.2636,-126.7779 330.2937,-124.6093 341.5,-123 519.4984,-97.4389 568.9135,-125.8095 744.5,-87 784.1721,-78.2314 790.7213,-64.2719 830.5,-56 1075.1134,-5.1333 1142.2261,-36.9005 1391.5,-20 1416.4954,-18.3053 1443.9948,-16.3589 1467.9553,-14.6364"/>
<polygon fill="#191970" stroke="#191970" points="1468.2673,-18.123 1477.9898,-13.9132 1467.7641,-11.1412 1468.2673,-18.123"/>
</g>
<!-- Node37&#45;&gt;Node30 -->
<g id="edge66" class="edge">
<title>Node37&#45;&gt;Node30</title>
<path fill="none" stroke="#191970" d="M254.1871,-128.9005C243.9544,-118.353 227.3228,-101.2096 214.8954,-88.3998"/>
<polygon fill="#191970" stroke="#191970" points="217.2709,-85.822 207.7956,-81.0817 212.2467,-90.6962 217.2709,-85.822"/>
</g>
<!-- Node37&#45;&gt;Node34 -->
<g id="edge67" class="edge">
<title>Node37&#45;&gt;Node34</title>
<path fill="none" stroke="#191970" d="M310.0505,-128.9371C320.3901,-126.9002 331.3059,-124.8174 341.5,-123 427.3485,-107.6954 526.3376,-92.3868 592.5039,-82.4878"/>
<polygon fill="#191970" stroke="#191970" points="593.0542,-85.9445 602.4281,-81.0068 592.021,-79.0212 593.0542,-85.9445"/>
</g>
<!-- Node38 -->
<g id="node39" class="node">
<title>Node38</title>
<polygon fill="#ffffff" stroke="#bfbfbf" points="0,-62 0,-81 113,-81 113,-62 0,-62"/>
<text text-anchor="middle" x="56.5" y="-69" font-family="Helvetica,sans-Serif" font-size="10.00" fill="#000000">AMReX_Geometry.H</text>
</g>
<!-- Node37&#45;&gt;Node38 -->
<g id="edge69" class="edge">
<title>Node37&#45;&gt;Node38</title>
<path fill="none" stroke="#191970" d="M233.8419,-128.9005C197.5655,-117.1589 136.0361,-97.2436 95.8356,-84.2318"/>
<polygon fill="#191970" stroke="#191970" points="96.6949,-80.8312 86.103,-81.0817 94.5393,-87.4911 96.6949,-80.8312"/>
</g>
<!-- Node39&#45;&gt;Node5 -->
<g id="edge80" class="edge">
<title>Node39&#45;&gt;Node5</title>
<path fill="none" stroke="#191970" d="M1093.1732,-322.7782C1012.9293,-313.7272 852.9198,-295.2542 717.5,-277 705.6275,-275.3996 693.0078,-273.6012 680.804,-271.8114"/>
<polygon fill="#191970" stroke="#191970" points="681.0805,-268.3143 670.6762,-270.3146 680.057,-275.2391 681.0805,-268.3143"/>
</g>
<!-- Node39&#45;&gt;Node6 -->
<g id="edge74" class="edge">
<title>Node39&#45;&gt;Node6</title>
<path fill="none" stroke="#191970" d="M1195.7807,-319.049C1245.6564,-307.4162 1310.3955,-284.3417 1284.5,-246 1281.0358,-240.8708 1122.9258,-179.2598 1051.6797,-151.6899"/>
<polygon fill="#191970" stroke="#191970" points="1052.8175,-148.3774 1042.2282,-148.0351 1050.2927,-154.9063 1052.8175,-148.3774"/>
</g>
<!-- Node39&#45;&gt;Node7 -->
<g id="edge81" class="edge">
<title>Node39&#45;&gt;Node7</title>
<path fill="none" stroke="#191970" d="M1093.248,-327.4435C956.1458,-324.1531 588.5642,-312.1152 547.5,-277 531.1985,-263.0601 527.7008,-237.5738 527.4606,-219.7548"/>
<polygon fill="#191970" stroke="#191970" points="530.9632,-219.6529 527.6589,-209.5866 523.9645,-219.5164 530.9632,-219.6529"/>
</g>
<!-- Node39&#45;&gt;Node11 -->
<g id="edge82" class="edge">
<title>Node39&#45;&gt;Node11</title>
<path fill="none" stroke="#191970" d="M1195.6462,-323.2794C1240.04,-317.0997 1304.9471,-304.0079 1355.5,-277 1383.6914,-261.9388 1409.7559,-235.2195 1425.1497,-217.5558"/>
<polygon fill="#191970" stroke="#191970" points="1428.0117,-219.5925 1431.812,-209.7027 1422.6738,-215.064 1428.0117,-219.5925"/>
</g>
<!-- Node39&#45;&gt;Node22 -->
<g id="edge79" class="edge">
<title>Node39&#45;&gt;Node22</title>
<path fill="none" stroke="#191970" d="M1195.6813,-321.6861C1250.9074,-311.9573 1327.5612,-290.1427 1300.5,-246 1253.3366,-169.0661 1195.141,-203.2102 1119.5,-154 1101.2302,-142.1141 1100.4808,-133.714 1081.5,-123 1050.9927,-105.7797 1013.6802,-92.6297 984.6814,-83.9288"/>
<polygon fill="#191970" stroke="#191970" points="985.3761,-80.4854 974.7957,-81.0373 983.411,-87.2039 985.3761,-80.4854"/>
</g>
<!-- Node39&#45;&gt;Node26 -->
<g id="edge77" class="edge">
<title>Node39&#45;&gt;Node26</title>
<path fill="none" stroke="#191970" d="M1195.5803,-326.0339C1345.6969,-317.4425 1796.7669,-281.9708 2144.5,-154 2189.933,-137.28 2237.3626,-105.906 2263.6978,-87.0364"/>
<polygon fill="#191970" stroke="#191970" points="2265.7565,-89.867 2271.7869,-81.1558 2261.6403,-84.2051 2265.7565,-89.867"/>
</g>
<!-- Node40 -->
<g id="node41" class="node">
<title>Node40</title>
<polygon fill="#ffffff" stroke="#bfbfbf" points="726.5,-252 726.5,-271 850.5,-271 850.5,-252 726.5,-252"/>
<text text-anchor="middle" x="788.5" y="-259" font-family="Helvetica,sans-Serif" font-size="10.00" fill="#000000">AMReX_MultiFabUtil.H</text>
</g>
<!-- Node39&#45;&gt;Node40 -->
<g id="edge75" class="edge">
<title>Node39&#45;&gt;Node40</title>
<path fill="none" stroke="#191970" d="M1093.4266,-319.8442C1036.3122,-310.0313 941.1071,-293.2756 859.5,-277 853.4101,-275.7855 847.0375,-274.465 840.716,-273.1242"/>
<polygon fill="#191970" stroke="#191970" points="841.3837,-269.6879 830.8721,-271.0129 839.9157,-276.5322 841.3837,-269.6879"/>
</g>
<!-- Node41 -->
<g id="node42" class="node">
<title>Node41</title>
<polygon fill="#ffffff" stroke="#bfbfbf" points="869,-252 869,-271 986,-271 986,-252 869,-252"/>
<text text-anchor="middle" x="927.5" y="-259" font-family="Helvetica,sans-Serif" font-size="10.00" fill="#000000">AMReX_ParmParse.H</text>
</g>
<!-- Node39&#45;&gt;Node41 -->
<g id="edge76" class="edge">
<title>Node39&#45;&gt;Node41</title>
<path fill="none" stroke="#191970" d="M1113.4092,-318.9005C1075.2192,-307.1091 1010.3313,-287.0746 968.2014,-274.0668"/>
<polygon fill="#191970" stroke="#191970" points="969.1206,-270.6876 958.5331,-271.0817 967.0555,-277.3761 969.1206,-270.6876"/>
</g>
<!-- Node42 -->
<g id="node43" class="node">
<title>Node42</title>
<polygon fill="#ffffff" stroke="#bfbfbf" points="1004,-252 1004,-271 1141,-271 1141,-252 1004,-252"/>
<text text-anchor="middle" x="1072.5" y="-259" font-family="Helvetica,sans-Serif" font-size="10.00" fill="#000000">AMReX_NodalProjector.H</text>
</g>
<!-- Node39&#45;&gt;Node42 -->
<g id="edge78" class="edge">
<title>Node39&#45;&gt;Node42</title>
<path fill="none" stroke="#191970" d="M1134.1842,-318.9005C1122.7425,-308.2535 1104.0785,-290.8856 1090.2727,-278.0385"/>
<polygon fill="#191970" stroke="#191970" points="1092.5017,-275.3317 1082.7967,-271.0817 1087.7331,-280.4562 1092.5017,-275.3317"/>
</g>
<!-- Node43 -->
<g id="node44" class="node">
<title>Node43</title>
<g id="a_node44"><a xlink:href="incflo__prob___i_8_h.html" target="_top" xlink:title="amr&#45;wind/prob/incflo\l_prob_I.H">
<polygon fill="#ffffff" stroke="#000000" points="1159.5,-246.5 1159.5,-276.5 1275.5,-276.5 1275.5,-246.5 1159.5,-246.5"/>
<text text-anchor="start" x="1167.5" y="-264.5" font-family="Helvetica,sans-Serif" font-size="10.00" fill="#000000">amr&#45;wind/prob/incflo</text>
<text text-anchor="middle" x="1217.5" y="-253.5" font-family="Helvetica,sans-Serif" font-size="10.00" fill="#000000">_prob_I.H</text>
</a>
</g>
</g>
<!-- Node39&#45;&gt;Node43 -->
<g id="edge83" class="edge">
<title>Node39&#45;&gt;Node43</title>
<path fill="none" stroke="#191970" d="M1154.9591,-318.9005C1164.9494,-309.7313 1180.3707,-295.5776 1193.3997,-283.6195"/>
<polygon fill="#191970" stroke="#191970" points="1196.1323,-285.8622 1201.133,-276.5218 1191.399,-280.705 1196.1323,-285.8622"/>
</g>
</g>
</svg>
