<?xml version="1.0" encoding="UTF-8" standalone="no"?>
<!DOCTYPE svg PUBLIC "-//W3C//DTD SVG 1.1//EN"
 "http://www.w3.org/Graphics/SVG/1.1/DTD/svg11.dtd">
<!-- Generated by graphviz version 2.40.1 (20161225.0304)
 -->
<!-- Title: FieldFillPatchOps.H Pages: 1 -->
<svg width="1570pt" height="196pt"
 viewBox="0.00 0.00 1570.00 196.00" xmlns="http://www.w3.org/2000/svg" xmlns:xlink="http://www.w3.org/1999/xlink">
<g id="graph0" class="graph" transform="scale(1 1) rotate(0) translate(4 192)">
<title>FieldFillPatchOps.H</title>
<polygon fill="#ffffff" stroke="transparent" points="-4,4 -4,-192 1566,-192 1566,4 -4,4"/>
<!-- Node0 -->
<g id="node1" class="node">
<title>Node0</title>
<polygon fill="#bfbfbf" stroke="#000000" points="921.5,-168.5 921.5,-187.5 1029.5,-187.5 1029.5,-168.5 921.5,-168.5"/>
<text text-anchor="middle" x="975.5" y="-175.5" font-family="Helvetica,sans-Serif" font-size="10.00" fill="#000000">FieldFillPatchOps.H</text>
</g>
<!-- Node1 -->
<g id="node2" class="node">
<title>Node1</title>
<g id="a_node2"><a xlink:href="_field_8_h.html" target="_top" xlink:title="amr&#45;wind/core/Field.H">
<polygon fill="#ffffff" stroke="#000000" points="690.5,-112.5 690.5,-131.5 812.5,-131.5 812.5,-112.5 690.5,-112.5"/>
<text text-anchor="middle" x="751.5" y="-119.5" font-family="Helvetica,sans-Serif" font-size="10.00" fill="#000000">amr&#45;wind/core/Field.H</text>
</a>
</g>
</g>
<!-- Node0&#45;&gt;Node1 -->
<g id="edge1" class="edge">
<title>Node0&#45;&gt;Node1</title>
<path fill="none" stroke="#191970" d="M937.2475,-168.4369C899.1533,-158.9133 840.5687,-144.2672 799.4013,-133.9753"/>
<polygon fill="#191970" stroke="#191970" points="800.145,-130.5536 789.5947,-131.5237 798.4472,-137.3446 800.145,-130.5536"/>
</g>
<!-- Node6 -->
<g id="node7" class="node">
<title>Node6</title>
<polygon fill="#ffffff" stroke="#bfbfbf" points="174,-.5 174,-19.5 281,-19.5 281,-.5 174,-.5"/>
<text text-anchor="middle" x="227.5" y="-7.5" font-family="Helvetica,sans-Serif" font-size="10.00" fill="#000000">AMReX_MultiFab.H</text>
</g>
<!-- Node0&#45;&gt;Node6 -->
<g id="edge26" class="edge">
<title>Node0&#45;&gt;Node6</title>
<path fill="none" stroke="#191970" d="M921.2484,-176.2052C794.4974,-171.6251 481.9978,-157.9897 380.5,-132 321.9194,-116.9997 299.0406,-118.9766 256.5,-76 243.8708,-63.2414 236.2897,-44.0601 232.0646,-29.659"/>
<polygon fill="#191970" stroke="#191970" points="235.3902,-28.5431 229.4598,-19.7636 228.6208,-30.3251 235.3902,-28.5431"/>
</g>
<!-- Node10 -->
<g id="node11" class="node">
<title>Node10</title>
<g id="a_node11"><a xlink:href="_field_desc_types_8_h.html" target="_top" xlink:title="amr&#45;wind/core/FieldDescTypes.H">
<polygon fill="#ffffff" stroke="#000000" points="355.5,-.5 355.5,-19.5 529.5,-19.5 529.5,-.5 355.5,-.5"/>
<text text-anchor="middle" x="442.5" y="-7.5" font-family="Helvetica,sans-Serif" font-size="10.00" fill="#000000">amr&#45;wind/core/FieldDescTypes.H</text>
</a>
</g>
</g>
<!-- Node0&#45;&gt;Node10 -->
<g id="edge20" class="edge">
<title>Node0&#45;&gt;Node10</title>
<path fill="none" stroke="#191970" d="M921.3325,-174.2162C763.3114,-162.6328 311.3019,-125.4202 268.5,-76 239.6272,-42.6627 291.0174,-26.1123 345.2844,-17.9251"/>
<polygon fill="#191970" stroke="#191970" points="346.0199,-21.3561 355.432,-16.4916 345.0407,-14.4249 346.0199,-21.3561"/>
</g>
<!-- Node13 -->
<g id="node14" class="node">
<title>Node13</title>
<g id="a_node14"><a xlink:href="_sim_time_8_h.html" target="_top" xlink:title="amr&#45;wind/core/SimTime.H">
<polygon fill="#ffffff" stroke="#000000" points="1004,-112.5 1004,-131.5 1147,-131.5 1147,-112.5 1004,-112.5"/>
<text text-anchor="middle" x="1075.5" y="-119.5" font-family="Helvetica,sans-Serif" font-size="10.00" fill="#000000">amr&#45;wind/core/SimTime.H</text>
</a>
</g>
</g>
<!-- Node0&#45;&gt;Node13 -->
<g id="edge16" class="edge">
<title>Node0&#45;&gt;Node13</title>
<path fill="none" stroke="#191970" d="M992.9187,-168.2455C1008.5485,-159.4928 1031.7019,-146.527 1049.5185,-136.5496"/>
<polygon fill="#191970" stroke="#191970" points="1051.266,-139.5825 1058.2809,-131.6427 1047.8457,-133.475 1051.266,-139.5825"/>
</g>
<!-- Node14 -->
<g id="node15" class="node">
<title>Node14</title>
<polygon fill="#ffffff" stroke="#bfbfbf" points="1165,-56.5 1165,-75.5 1256,-75.5 1256,-56.5 1165,-56.5"/>
<text text-anchor="middle" x="1210.5" y="-63.5" font-family="Helvetica,sans-Serif" font-size="10.00" fill="#000000">AMReX_REAL.H</text>
</g>
<!-- Node0&#45;&gt;Node14 -->
<g id="edge27" class="edge">
<title>Node0&#45;&gt;Node14</title>
<path fill="none" stroke="#191970" d="M975.3653,-168.3526C975.7184,-153.9118 978.6239,-126.7949 994.5,-112 1000.4285,-106.4752 1092.7565,-88.1809 1154.7647,-76.3957"/>
<polygon fill="#191970" stroke="#191970" points="1155.6447,-79.7914 1164.8186,-74.4913 1154.3419,-72.9136 1155.6447,-79.7914"/>
</g>
<!-- Node17 -->
<g id="node18" class="node">
<title>Node17</title>
<g id="a_node18"><a xlink:href="_field_utils_8_h.html" target="_top" xlink:title="amr&#45;wind/core/FieldUtils.H">
<polygon fill="#ffffff" stroke="#000000" points="0,-56.5 0,-75.5 145,-75.5 145,-56.5 0,-56.5"/>
<text text-anchor="middle" x="72.5" y="-63.5" font-family="Helvetica,sans-Serif" font-size="10.00" fill="#000000">amr&#45;wind/core/FieldUtils.H</text>
</a>
</g>
</g>
<!-- Node0&#45;&gt;Node17 -->
<g id="edge21" class="edge">
<title>Node0&#45;&gt;Node17</title>
<path fill="none" stroke="#191970" d="M921.3742,-176.7803C750.6512,-172.6796 230.5739,-158.158 159.5,-132 131.3666,-121.6458 104.7953,-98.9021 88.5899,-83.0247"/>
<polygon fill="#191970" stroke="#191970" points="91.0277,-80.5123 81.5058,-75.8663 86.0521,-85.4361 91.0277,-80.5123"/>
</g>
<!-- Node19 -->
<g id="node20" class="node">
<title>Node19</title>
<polygon fill="#ffffff" stroke="#bfbfbf" points="1165,-112.5 1165,-131.5 1274,-131.5 1274,-112.5 1165,-112.5"/>
<text text-anchor="middle" x="1219.5" y="-119.5" font-family="Helvetica,sans-Serif" font-size="10.00" fill="#000000">AMReX_AmrCore.H</text>
</g>
<!-- Node0&#45;&gt;Node19 -->
<g id="edge25" class="edge">
<title>Node0&#45;&gt;Node19</title>
<path fill="none" stroke="#191970" d="M1017.1679,-168.4369C1058.9266,-158.8529 1123.2891,-144.0812 1168.1728,-133.78"/>
<polygon fill="#191970" stroke="#191970" points="1169.0404,-137.172 1178.004,-131.5237 1167.4745,-130.3494 1169.0404,-137.172"/>
</g>
<!-- Node20 -->
<g id="node21" class="node">
<title>Node20</title>
<polygon fill="#ffffff" stroke="#bfbfbf" points="1292.5,-112.5 1292.5,-131.5 1420.5,-131.5 1420.5,-112.5 1292.5,-112.5"/>
<text text-anchor="middle" x="1356.5" y="-119.5" font-family="Helvetica,sans-Serif" font-size="10.00" fill="#000000">AMReX_PhysBCFunct.H</text>
</g>
<!-- Node0&#45;&gt;Node20 -->
<g id="edge28" class="edge">
<title>Node0&#45;&gt;Node20</title>
<path fill="none" stroke="#191970" d="M1029.6834,-170.036C1095.8079,-160.317 1207.9482,-143.8344 1282.1187,-132.9327"/>
<polygon fill="#191970" stroke="#191970" points="1282.939,-136.3498 1292.3237,-131.4327 1281.921,-129.4242 1282.939,-136.3498"/>
</g>
<!-- Node21 -->
<g id="node22" class="node">
<title>Node21</title>
<polygon fill="#ffffff" stroke="#bfbfbf" points="1439,-112.5 1439,-131.5 1562,-131.5 1562,-112.5 1439,-112.5"/>
<text text-anchor="middle" x="1500.5" y="-119.5" font-family="Helvetica,sans-Serif" font-size="10.00" fill="#000000">AMReX_FillPatchUtil.H</text>
</g>
<!-- Node0&#45;&gt;Node21 -->
<g id="edge29" class="edge">
<title>Node0&#45;&gt;Node21</title>
<path fill="none" stroke="#191970" d="M1029.7365,-173.1931C1113.0425,-165.6581 1277.7632,-150.1607 1428.5733,-132.0702"/>
<polygon fill="#191970" stroke="#191970" points="1429.4367,-135.4915 1438.9456,-130.8191 1428.5984,-128.5418 1429.4367,-135.4915"/>
</g>
<!-- Node2 -->
<g id="node3" class="node">
<title>Node2</title>
<polygon fill="#ffffff" stroke="#bfbfbf" points="722.5,-.5 722.5,-19.5 766.5,-19.5 766.5,-.5 722.5,-.5"/>
<text text-anchor="middle" x="744.5" y="-7.5" font-family="Helvetica,sans-Serif" font-size="10.00" fill="#000000">string</text>
</g>
<!-- Node1&#45;&gt;Node2 -->
<g id="edge2" class="edge">
<title>Node1&#45;&gt;Node2</title>
<path fill="none" stroke="#191970" d="M750.9032,-112.4509C749.7615,-94.184 747.2472,-53.9553 745.7311,-29.6976"/>
<polygon fill="#191970" stroke="#191970" points="749.2124,-29.2871 745.0953,-19.5249 742.226,-29.7238 749.2124,-29.2871"/>
</g>
<!-- Node3 -->
<g id="node4" class="node">
<title>Node3</title>
<polygon fill="#ffffff" stroke="#bfbfbf" points="779.5,-56.5 779.5,-75.5 837.5,-75.5 837.5,-56.5 779.5,-56.5"/>
<text text-anchor="middle" x="808.5" y="-63.5" font-family="Helvetica,sans-Serif" font-size="10.00" fill="#000000">memory</text>
</g>
<!-- Node1&#45;&gt;Node3 -->
<g id="edge3" class="edge">
<title>Node1&#45;&gt;Node3</title>
<path fill="none" stroke="#191970" d="M761.4286,-112.2455C769.6838,-104.1352 781.6209,-92.4075 791.4082,-82.7919"/>
<polygon fill="#191970" stroke="#191970" points="794.0046,-85.1476 798.6851,-75.6427 789.0989,-80.1542 794.0046,-85.1476"/>
</g>
<!-- Node4 -->
<g id="node5" class="node">
<title>Node4</title>
<polygon fill="#ffffff" stroke="#bfbfbf" points="856,-56.5 856,-75.5 949,-75.5 949,-56.5 856,-56.5"/>
<text text-anchor="middle" x="902.5" y="-63.5" font-family="Helvetica,sans-Serif" font-size="10.00" fill="#000000">unordered_map</text>
</g>
<!-- Node1&#45;&gt;Node4 -->
<g id="edge4" class="edge">
<title>Node1&#45;&gt;Node4</title>
<path fill="none" stroke="#191970" d="M777.4578,-112.3733C802.2407,-103.1822 839.7746,-89.2624 867.254,-79.0713"/>
<polygon fill="#191970" stroke="#191970" points="868.7219,-82.26 876.8809,-75.5011 866.2879,-75.6968 868.7219,-82.26"/>
</g>
<!-- Node5 -->
<g id="node6" class="node">
<title>Node5</title>
<polygon fill="#ffffff" stroke="#bfbfbf" points="967.5,-56.5 967.5,-75.5 1031.5,-75.5 1031.5,-56.5 967.5,-56.5"/>
<text text-anchor="middle" x="999.5" y="-63.5" font-family="Helvetica,sans-Serif" font-size="10.00" fill="#000000">algorithm</text>
</g>
<!-- Node1&#45;&gt;Node5 -->
<g id="edge5" class="edge">
<title>Node1&#45;&gt;Node5</title>
<path fill="none" stroke="#191970" d="M794.9435,-112.4848C836.6617,-103.3035 901.4401,-88.9322 957.5,-76 957.6004,-75.9768 957.701,-75.9536 957.8017,-75.9304"/>
<polygon fill="#191970" stroke="#191970" points="958.4636,-79.37 967.4073,-73.6901 956.8737,-72.553 958.4636,-79.37"/>
</g>
<!-- Node1&#45;&gt;Node6 -->
<g id="edge6" class="edge">
<title>Node1&#45;&gt;Node6</title>
<path fill="none" stroke="#191970" d="M690.122,-119.1877C568.0697,-113.1583 303.5805,-97.7471 268.5,-76 251.3599,-65.3745 240.2563,-44.6507 233.9843,-29.2469"/>
<polygon fill="#191970" stroke="#191970" points="237.1696,-27.7714 230.3991,-19.6221 230.6099,-30.2148 237.1696,-27.7714"/>
</g>
<!-- Node7 -->
<g id="node8" class="node">
<title>Node7</title>
<polygon fill="#ffffff" stroke="#bfbfbf" points="1050,-56.5 1050,-75.5 1147,-75.5 1147,-56.5 1050,-56.5"/>
<text text-anchor="middle" x="1098.5" y="-63.5" font-family="Helvetica,sans-Serif" font-size="10.00" fill="#000000">AMReX_BCRec.H</text>
</g>
<!-- Node1&#45;&gt;Node7 -->
<g id="edge7" class="edge">
<title>Node1&#45;&gt;Node7</title>
<path fill="none" stroke="#191970" d="M812.7079,-112.4919C869.0017,-103.6939 955.0727,-90.1082 1039.7267,-76.1121"/>
<polygon fill="#191970" stroke="#191970" points="1040.4799,-79.5352 1049.7735,-74.448 1039.3359,-72.6292 1040.4799,-79.5352"/>
</g>
<!-- Node8 -->
<g id="node9" class="node">
<title>Node8</title>
<polygon fill="#ffffff" stroke="#bfbfbf" points="277.5,-56.5 277.5,-75.5 363.5,-75.5 363.5,-56.5 277.5,-56.5"/>
<text text-anchor="middle" x="320.5" y="-63.5" font-family="Helvetica,sans-Serif" font-size="10.00" fill="#000000">AMReX_Gpu.H</text>
</g>
<!-- Node1&#45;&gt;Node8 -->
<g id="edge8" class="edge">
<title>Node1&#45;&gt;Node8</title>
<path fill="none" stroke="#191970" d="M690.2732,-115.8867C617.2462,-108.3002 491.2731,-94.2827 373.5017,-76.0705"/>
<polygon fill="#191970" stroke="#191970" points="374.01,-72.6075 363.59,-74.5246 372.9312,-79.5239 374.01,-72.6075"/>
</g>
<!-- Node9 -->
<g id="node10" class="node">
<title>Node9</title>
<g id="a_node10"><a xlink:href="incflo__enums_8_h.html" target="_top" xlink:title="amr&#45;wind/incflo_enums.H">
<polygon fill="#ffffff" stroke="#000000" points="381.5,-56.5 381.5,-75.5 521.5,-75.5 521.5,-56.5 381.5,-56.5"/>
<text text-anchor="middle" x="451.5" y="-63.5" font-family="Helvetica,sans-Serif" font-size="10.00" fill="#000000">amr&#45;wind/incflo_enums.H</text>
</a>
</g>
</g>
<!-- Node1&#45;&gt;Node9 -->
<g id="edge9" class="edge">
<title>Node1&#45;&gt;Node9</title>
<path fill="none" stroke="#191970" d="M700.269,-112.4369C648.2792,-102.7321 567.7927,-87.708 512.5319,-77.3926"/>
<polygon fill="#191970" stroke="#191970" points="512.9921,-73.9182 502.5197,-75.5237 511.7076,-80.7993 512.9921,-73.9182"/>
</g>
<!-- Node1&#45;&gt;Node10 -->
<g id="edge10" class="edge">
<title>Node1&#45;&gt;Node10</title>
<path fill="none" stroke="#191970" d="M700.009,-112.483C662.7748,-104.7821 611.6415,-92.5037 568.5,-76 550.6745,-69.1809 547.4014,-64.8651 530.5,-56 510.2766,-45.3924 487.4197,-33.4458 470.0698,-24.3861"/>
<polygon fill="#191970" stroke="#191970" points="471.5337,-21.2022 461.0492,-19.6769 468.2941,-27.4075 471.5337,-21.2022"/>
</g>
<!-- Node11 -->
<g id="node12" class="node">
<title>Node11</title>
<g id="a_node12"><a xlink:href="_view_field_8_h.html" target="_top" xlink:title="amr&#45;wind/core/ViewField.H">
<polygon fill="#ffffff" stroke="#000000" points="577.5,-56.5 577.5,-75.5 723.5,-75.5 723.5,-56.5 577.5,-56.5"/>
<text text-anchor="middle" x="650.5" y="-63.5" font-family="Helvetica,sans-Serif" font-size="10.00" fill="#000000">amr&#45;wind/core/ViewField.H</text>
</a>
</g>
</g>
<!-- Node1&#45;&gt;Node11 -->
<g id="edge11" class="edge">
<title>Node1&#45;&gt;Node11</title>
<path fill="none" stroke="#191970" d="M733.9071,-112.2455C718.121,-103.4928 694.7361,-90.527 676.7413,-80.5496"/>
<polygon fill="#191970" stroke="#191970" points="678.3341,-77.4308 667.8913,-75.6427 674.9397,-83.5528 678.3341,-77.4308"/>
</g>
<!-- Node11&#45;&gt;Node2 -->
<g id="edge12" class="edge">
<title>Node11&#45;&gt;Node2</title>
<path fill="none" stroke="#191970" d="M666.8736,-56.2455C681.4308,-47.5731 702.931,-34.7645 719.6152,-24.825"/>
<polygon fill="#191970" stroke="#191970" points="721.5144,-27.7676 728.3141,-19.6427 717.9317,-21.7539 721.5144,-27.7676"/>
</g>
<!-- Node11&#45;&gt;Node6 -->
<g id="edge14" class="edge">
<title>Node11&#45;&gt;Node6</title>
<path fill="none" stroke="#191970" d="M578.2643,-56.4369C497.6447,-45.7638 368.4269,-28.657 291.3701,-18.4556"/>
<polygon fill="#191970" stroke="#191970" points="291.6885,-14.9673 281.3156,-17.1245 290.7697,-21.9068 291.6885,-14.9673"/>
</g>
<!-- Node11&#45;&gt;Node10 -->
<g id="edge13" class="edge">
<title>Node11&#45;&gt;Node10</title>
<path fill="none" stroke="#191970" d="M614.7435,-56.3733C579.5574,-46.9001 525.7119,-32.4032 487.6044,-22.1435"/>
<polygon fill="#191970" stroke="#191970" points="488.356,-18.7213 477.7899,-19.5011 486.5361,-25.4806 488.356,-18.7213"/>
</g>
<!-- Node12 -->
<g id="node13" class="node">
<title>Node12</title>
<polygon fill="#ffffff" stroke="#bfbfbf" points="602.5,-.5 602.5,-19.5 698.5,-19.5 698.5,-.5 602.5,-.5"/>
<text text-anchor="middle" x="650.5" y="-7.5" font-family="Helvetica,sans-Serif" font-size="10.00" fill="#000000">AMReX_Vector.H</text>
</g>
<!-- Node11&#45;&gt;Node12 -->
<g id="edge15" class="edge">
<title>Node11&#45;&gt;Node12</title>
<path fill="none" stroke="#191970" d="M650.5,-56.2455C650.5,-48.9382 650.5,-38.6944 650.5,-29.7046"/>
<polygon fill="#191970" stroke="#191970" points="654.0001,-29.6426 650.5,-19.6427 647.0001,-29.6427 654.0001,-29.6426"/>
</g>
<!-- Node13&#45;&gt;Node14 -->
<g id="edge17" class="edge">
<title>Node13&#45;&gt;Node14</title>
<path fill="none" stroke="#191970" d="M1098.7073,-112.3733C1120.6699,-103.2629 1153.8332,-89.5062 1178.3401,-79.3404"/>
<polygon fill="#191970" stroke="#191970" points="1179.6997,-82.5657 1187.5955,-75.5011 1177.0176,-76.0999 1179.6997,-82.5657"/>
</g>
<!-- Node15 -->
<g id="node16" class="node">
<title>Node15</title>
<polygon fill="#ffffff" stroke="#bfbfbf" points="1274.5,-56.5 1274.5,-75.5 1406.5,-75.5 1406.5,-56.5 1274.5,-56.5"/>
<text text-anchor="middle" x="1340.5" y="-63.5" font-family="Helvetica,sans-Serif" font-size="10.00" fill="#000000">AMReX_GpuQualifiers.H</text>
</g>
<!-- Node13&#45;&gt;Node15 -->
<g id="edge18" class="edge">
<title>Node13&#45;&gt;Node15</title>
<path fill="none" stroke="#191970" d="M1120.754,-112.4369C1166.2973,-102.8127 1236.5965,-87.957 1285.3686,-77.6504"/>
<polygon fill="#191970" stroke="#191970" points="1286.3724,-81.0157 1295.4326,-75.5237 1284.925,-74.1669 1286.3724,-81.0157"/>
</g>
<!-- Node16 -->
<g id="node17" class="node">
<title>Node16</title>
<polygon fill="#ffffff" stroke="#bfbfbf" points="1424.5,-56.5 1424.5,-75.5 1538.5,-75.5 1538.5,-56.5 1424.5,-56.5"/>
<text text-anchor="middle" x="1481.5" y="-63.5" font-family="Helvetica,sans-Serif" font-size="10.00" fill="#000000">AMReX_Extension.H</text>
</g>
<!-- Node13&#45;&gt;Node16 -->
<g id="edge19" class="edge">
<title>Node13&#45;&gt;Node16</title>
<path fill="none" stroke="#191970" d="M1147.1827,-112.6382C1213.7376,-103.8692 1315.8717,-90.2177 1414.1594,-76.1759"/>
<polygon fill="#191970" stroke="#191970" points="1414.8679,-79.6102 1424.2708,-74.728 1413.8756,-72.6809 1414.8679,-79.6102"/>
</g>
<!-- Node17&#45;&gt;Node6 -->
<g id="edge23" class="edge">
<title>Node17&#45;&gt;Node6</title>
<path fill="none" stroke="#191970" d="M99.1454,-56.3733C124.6964,-47.1419 163.4512,-33.1402 191.6909,-22.9375"/>
<polygon fill="#191970" stroke="#191970" points="192.9865,-26.1909 201.2022,-19.5011 190.6079,-19.6074 192.9865,-26.1909"/>
</g>
<!-- Node17&#45;&gt;Node10 -->
<g id="edge22" class="edge">
<title>Node17&#45;&gt;Node10</title>
<path fill="none" stroke="#191970" d="M135.6849,-56.4369C200.4708,-46.6314 301.1356,-31.3957 369.3382,-21.0731"/>
<polygon fill="#191970" stroke="#191970" points="370.2121,-24.4808 379.5757,-19.5237 369.1646,-17.5596 370.2121,-24.4808"/>
</g>
<!-- Node18 -->
<g id="node19" class="node">
<title>Node18</title>
<polygon fill="#ffffff" stroke="#bfbfbf" points="11.5,-.5 11.5,-19.5 133.5,-19.5 133.5,-.5 11.5,-.5"/>
<text text-anchor="middle" x="72.5" y="-7.5" font-family="Helvetica,sans-Serif" font-size="10.00" fill="#000000">AMReX_Interpolater.H</text>
</g>
<!-- Node17&#45;&gt;Node18 -->
<g id="edge24" class="edge">
<title>Node17&#45;&gt;Node18</title>
<path fill="none" stroke="#191970" d="M72.5,-56.2455C72.5,-48.9382 72.5,-38.6944 72.5,-29.7046"/>
<polygon fill="#191970" stroke="#191970" points="76.0001,-29.6426 72.5,-19.6427 69.0001,-29.6427 76.0001,-29.6426"/>
</g>
</g>
</svg>
