<?xml version="1.0" encoding="UTF-8" standalone="no"?>
<!DOCTYPE svg PUBLIC "-//W3C//DTD SVG 1.1//EN"
 "http://www.w3.org/Graphics/SVG/1.1/DTD/svg11.dtd">
<!-- Generated by graphviz version 2.40.1 (20161225.0304)
 -->
<!-- Title: FieldBCOps.H Pages: 1 -->
<!--zoomable 196 -->
<svg id="main" version="1.1" xmlns="http://www.w3.org/2000/svg" xmlns:xlink="http://www.w3.org/1999/xlink" xml:space="preserve" onload="init(evt)">
<style type="text/css"><![CDATA[
.edge:hover path { stroke: red; }
.edge:hover polygon { stroke: red; fill: red; }
]]></style>
<script type="text/javascript"><![CDATA[
var edges = document.getElementsByTagName('g');
if (edges && edges.length) {
  for (var i=0;i<edges.length;i++) {
    if (edges[i].id.substr(0,4)=='edge') {
      edges[i].setAttribute('class','edge');
    }
  }
}
]]></script>
        <defs>
                <circle id="rim" cx="0" cy="0" r="7"/>
                <circle id="rim2" cx="0" cy="0" r="3.5"/>
                <g id="zoomPlus">
                        <use xlink:href="#rim" fill="#404040">
                                <set attributeName="fill" to="#808080" begin="zoomplus.mouseover" end="zoomplus.mouseout"/>
                        </use>
                        <path d="M-4,0h8M0,-4v8" fill="none" stroke="white" stroke-width="1.5" pointer-events="none"/>
                </g>
                <g id="zoomMin">
                        <use xlink:href="#rim" fill="#404040">
                                <set attributeName="fill" to="#808080" begin="zoomminus.mouseover" end="zoomminus.mouseout"/>
                        </use>
                        <path d="M-4,0h8" fill="none" stroke="white" stroke-width="1.5" pointer-events="none"/>
                </g>
                <g id="dirArrow">
                        <path fill="none" stroke="white" stroke-width="1.5" d="M0,-3.0v7 M-2.5,-0.5L0,-3.0L2.5,-0.5"/>
                </g>
               <g id="resetDef">
                       <use xlink:href="#rim2" fill="#404040">
                               <set attributeName="fill" to="#808080" begin="reset.mouseover" end="reset.mouseout"/>
                       </use>
               </g>
        </defs>

<script type="text/javascript">
var viewWidth = 1366;
var viewHeight = 196;
var sectionId = 'dynsection-0';
</script>
<script xlink:href="svgpan.js"/>
<svg id="graph" class="graph">
<g id="viewport">
<title>FieldBCOps.H</title>
<polygon fill="#ffffff" stroke="transparent" points="-4,4 -4,-192 1361.5,-192 1361.5,4 -4,4"/>
<!-- Node0 -->
<g id="node1" class="node">
<title>Node0</title>
<polygon fill="#bfbfbf" stroke="#000000" points="937.5,-168.5 937.5,-187.5 1019.5,-187.5 1019.5,-168.5 937.5,-168.5"/>
<text text-anchor="middle" x="978.5" y="-175.5" font-family="Helvetica,sans-Serif" font-size="10.00" fill="#000000">FieldBCOps.H</text>
</g>
<!-- Node1 -->
<g id="node2" class="node">
<title>Node1</title>
<g id="a_node2"><a xlink:href="_field_desc_types_8_h.html" target="_top" xlink:title="amr&#45;wind/core/FieldDescTypes.H">
<polygon fill="#ffffff" stroke="#000000" points="754.5,-.5 754.5,-19.5 928.5,-19.5 928.5,-.5 754.5,-.5"/>
<text text-anchor="middle" x="841.5" y="-7.5" font-family="Helvetica,sans-Serif" font-size="10.00" fill="#000000">amr&#45;wind/core/FieldDescTypes.H</text>
</a>
</g>
</g>
<!-- Node0&#45;&gt;Node1 -->
<g id="edge1" class="edge">
<title>Node0&#45;&gt;Node1</title>
<path fill="none" stroke="#191970" d="M973.3009,-168.1549C968.4061,-158.858 960.8924,-144.5139 954.5,-132 937.3206,-98.3691 942.0239,-83.8335 916.5,-56 904.3898,-42.7939 887.6304,-32.032 873.0252,-24.2471"/>
<polygon fill="#191970" stroke="#191970" points="874.31,-20.9741 863.8092,-19.5655 871.1396,-27.215 874.31,-20.9741"/>
</g>
<!-- Node2 -->
<g id="node3" class="node">
<title>Node2</title>
<g id="a_node3"><a xlink:href="_field_8_h.html" target="_top" xlink:title="amr&#45;wind/core/Field.H">
<polygon fill="#ffffff" stroke="#000000" points="517.5,-112.5 517.5,-131.5 639.5,-131.5 639.5,-112.5 517.5,-112.5"/>
<text text-anchor="middle" x="578.5" y="-119.5" font-family="Helvetica,sans-Serif" font-size="10.00" fill="#000000">amr&#45;wind/core/Field.H</text>
</a>
</g>
</g>
<!-- Node0&#45;&gt;Node2 -->
<g id="edge2" class="edge">
<title>Node0&#45;&gt;Node2</title>
<path fill="none" stroke="#191970" d="M937.1996,-172.2179C869.2985,-162.7118 733.2852,-143.6699 649.6402,-131.9596"/>
<polygon fill="#191970" stroke="#191970" points="650.096,-128.4894 639.7072,-130.569 649.1254,-135.4218 650.096,-128.4894"/>
</g>
<!-- Node9 -->
<g id="node10" class="node">
<title>Node9</title>
<polygon fill="#ffffff" stroke="#bfbfbf" points="821.5,-56.5 821.5,-75.5 907.5,-75.5 907.5,-56.5 821.5,-56.5"/>
<text text-anchor="middle" x="864.5" y="-63.5" font-family="Helvetica,sans-Serif" font-size="10.00" fill="#000000">AMReX_Gpu.H</text>
</g>
<!-- Node0&#45;&gt;Node9 -->
<g id="edge17" class="edge">
<title>Node0&#45;&gt;Node9</title>
<path fill="none" stroke="#191970" d="M965.2681,-168.3955C953.3441,-159.4955 935.5764,-145.6146 921.5,-132 905.7882,-116.8036 889.669,-97.756 878.5991,-84.0343"/>
<polygon fill="#191970" stroke="#191970" points="881.075,-81.5247 872.1088,-75.8803 875.5981,-85.8841 881.075,-81.5247"/>
</g>
<!-- Node13 -->
<g id="node14" class="node">
<title>Node13</title>
<polygon fill="#ffffff" stroke="#bfbfbf" points="963.5,-112.5 963.5,-131.5 1079.5,-131.5 1079.5,-112.5 963.5,-112.5"/>
<text text-anchor="middle" x="1021.5" y="-119.5" font-family="Helvetica,sans-Serif" font-size="10.00" fill="#000000">AMReX_FArrayBox.H</text>
</g>
<!-- Node0&#45;&gt;Node13 -->
<g id="edge18" class="edge">
<title>Node0&#45;&gt;Node13</title>
<path fill="none" stroke="#191970" d="M985.99,-168.2455C992.0326,-160.3761 1000.6903,-149.101 1007.9441,-139.6542"/>
<polygon fill="#191970" stroke="#191970" points="1010.7815,-141.7058 1014.0958,-131.6427 1005.2295,-137.4426 1010.7815,-141.7058"/>
</g>
<!-- Node14 -->
<g id="node15" class="node">
<title>Node14</title>
<polygon fill="#ffffff" stroke="#bfbfbf" points="1098,-112.5 1098,-131.5 1211,-131.5 1211,-112.5 1098,-112.5"/>
<text text-anchor="middle" x="1154.5" y="-119.5" font-family="Helvetica,sans-Serif" font-size="10.00" fill="#000000">AMReX_Geometry.H</text>
</g>
<!-- Node0&#45;&gt;Node14 -->
<g id="edge19" class="edge">
<title>Node0&#45;&gt;Node14</title>
<path fill="none" stroke="#191970" d="M1008.7555,-168.3733C1038.1483,-159.021 1082.9292,-144.7725 1115.0934,-134.5385"/>
<polygon fill="#191970" stroke="#191970" points="1116.1713,-137.8685 1124.6393,-131.5011 1114.0488,-131.198 1116.1713,-137.8685"/>
</g>
<!-- Node15 -->
<g id="node16" class="node">
<title>Node15</title>
<polygon fill="#ffffff" stroke="#bfbfbf" points="1229.5,-112.5 1229.5,-131.5 1357.5,-131.5 1357.5,-112.5 1229.5,-112.5"/>
<text text-anchor="middle" x="1293.5" y="-119.5" font-family="Helvetica,sans-Serif" font-size="10.00" fill="#000000">AMReX_PhysBCFunct.H</text>
</g>
<!-- Node0&#45;&gt;Node15 -->
<g id="edge20" class="edge">
<title>Node0&#45;&gt;Node15</title>
<path fill="none" stroke="#191970" d="M1019.6807,-170.679C1073.1544,-161.1726 1167.0455,-144.4808 1229.7568,-133.3321"/>
<polygon fill="#191970" stroke="#191970" points="1230.695,-136.7203 1239.928,-131.5239 1229.4697,-129.8284 1230.695,-136.7203"/>
</g>
<!-- Node2&#45;&gt;Node1 -->
<g id="edge11" class="edge">
<title>Node2&#45;&gt;Node1</title>
<path fill="none" stroke="#191970" d="M639.8894,-116.2913C680.1649,-110.5118 732.88,-98.9646 774.5,-76 796.2499,-63.9991 815.8118,-42.9518 828.1044,-27.8492"/>
<polygon fill="#191970" stroke="#191970" points="831.0365,-29.7826 834.4637,-19.7574 825.5327,-25.4572 831.0365,-29.7826"/>
</g>
<!-- Node3 -->
<g id="node4" class="node">
<title>Node3</title>
<polygon fill="#ffffff" stroke="#bfbfbf" points="452.5,-.5 452.5,-19.5 496.5,-19.5 496.5,-.5 452.5,-.5"/>
<text text-anchor="middle" x="474.5" y="-7.5" font-family="Helvetica,sans-Serif" font-size="10.00" fill="#000000">string</text>
</g>
<!-- Node2&#45;&gt;Node3 -->
<g id="edge3" class="edge">
<title>Node2&#45;&gt;Node3</title>
<path fill="none" stroke="#191970" d="M550.6609,-112.4333C532.9008,-105.0249 510.6421,-93.1119 496.5,-76 485.5717,-62.7767 479.9977,-43.9105 477.2007,-29.7332"/>
<polygon fill="#191970" stroke="#191970" points="480.6024,-28.8532 475.5037,-19.5659 473.6979,-30.0057 480.6024,-28.8532"/>
</g>
<!-- Node4 -->
<g id="node5" class="node">
<title>Node4</title>
<polygon fill="#ffffff" stroke="#bfbfbf" points="707.5,-56.5 707.5,-75.5 765.5,-75.5 765.5,-56.5 707.5,-56.5"/>
<text text-anchor="middle" x="736.5" y="-63.5" font-family="Helvetica,sans-Serif" font-size="10.00" fill="#000000">memory</text>
</g>
<!-- Node2&#45;&gt;Node4 -->
<g id="edge4" class="edge">
<title>Node2&#45;&gt;Node4</title>
<path fill="none" stroke="#191970" d="M605.6612,-112.3733C631.7067,-103.1419 671.2116,-89.1402 699.9979,-78.9375"/>
<polygon fill="#191970" stroke="#191970" points="701.437,-82.1408 709.6933,-75.5011 699.0985,-75.5429 701.437,-82.1408"/>
</g>
<!-- Node5 -->
<g id="node6" class="node">
<title>Node5</title>
<polygon fill="#ffffff" stroke="#bfbfbf" points="0,-56.5 0,-75.5 93,-75.5 93,-56.5 0,-56.5"/>
<text text-anchor="middle" x="46.5" y="-63.5" font-family="Helvetica,sans-Serif" font-size="10.00" fill="#000000">unordered_map</text>
</g>
<!-- Node2&#45;&gt;Node5 -->
<g id="edge5" class="edge">
<title>Node2&#45;&gt;Node5</title>
<path fill="none" stroke="#191970" d="M517.4544,-117.6789C428.6564,-111.0442 258.4759,-97.0154 103.3983,-76.0228"/>
<polygon fill="#191970" stroke="#191970" points="103.5883,-72.5163 93.2064,-74.63 102.6404,-79.4518 103.5883,-72.5163"/>
</g>
<!-- Node6 -->
<g id="node7" class="node">
<title>Node6</title>
<polygon fill="#ffffff" stroke="#bfbfbf" points="111.5,-56.5 111.5,-75.5 175.5,-75.5 175.5,-56.5 111.5,-56.5"/>
<text text-anchor="middle" x="143.5" y="-63.5" font-family="Helvetica,sans-Serif" font-size="10.00" fill="#000000">algorithm</text>
</g>
<!-- Node2&#45;&gt;Node6 -->
<g id="edge6" class="edge">
<title>Node2&#45;&gt;Node6</title>
<path fill="none" stroke="#191970" d="M517.4118,-117.2142C441.7186,-110.7616 308.6731,-97.714 185.623,-76.0189"/>
<polygon fill="#191970" stroke="#191970" points="186.109,-72.5504 175.6493,-74.2373 184.8779,-79.4413 186.109,-72.5504"/>
</g>
<!-- Node7 -->
<g id="node8" class="node">
<title>Node7</title>
<polygon fill="#ffffff" stroke="#bfbfbf" points="629,-.5 629,-19.5 736,-19.5 736,-.5 629,-.5"/>
<text text-anchor="middle" x="682.5" y="-7.5" font-family="Helvetica,sans-Serif" font-size="10.00" fill="#000000">AMReX_MultiFab.H</text>
</g>
<!-- Node2&#45;&gt;Node7 -->
<g id="edge7" class="edge">
<title>Node2&#45;&gt;Node7</title>
<path fill="none" stroke="#191970" d="M606.3391,-112.4333C624.0992,-105.0249 646.3579,-93.1119 660.5,-76 671.4283,-62.7767 677.0023,-43.9105 679.7993,-29.7332"/>
<polygon fill="#191970" stroke="#191970" points="683.3021,-30.0057 681.4963,-19.5659 676.3976,-28.8532 683.3021,-30.0057"/>
</g>
<!-- Node8 -->
<g id="node9" class="node">
<title>Node8</title>
<polygon fill="#ffffff" stroke="#bfbfbf" points="194,-56.5 194,-75.5 291,-75.5 291,-56.5 194,-56.5"/>
<text text-anchor="middle" x="242.5" y="-63.5" font-family="Helvetica,sans-Serif" font-size="10.00" fill="#000000">AMReX_BCRec.H</text>
</g>
<!-- Node2&#45;&gt;Node8 -->
<g id="edge8" class="edge">
<title>Node2&#45;&gt;Node8</title>
<path fill="none" stroke="#191970" d="M520.1759,-112.4668C466.1095,-103.6028 383.145,-89.9336 301.2145,-76.1123"/>
<polygon fill="#191970" stroke="#191970" points="301.6734,-72.6403 291.2302,-74.4263 300.5078,-79.5426 301.6734,-72.6403"/>
</g>
<!-- Node2&#45;&gt;Node9 -->
<g id="edge9" class="edge">
<title>Node2&#45;&gt;Node9</title>
<path fill="none" stroke="#191970" d="M627.3402,-112.4369C678.5996,-102.4001 758.9165,-86.6737 811.637,-76.3508"/>
<polygon fill="#191970" stroke="#191970" points="812.3302,-79.7816 821.4713,-74.4252 810.9851,-72.9121 812.3302,-79.7816"/>
</g>
<!-- Node10 -->
<g id="node11" class="node">
<title>Node10</title>
<g id="a_node11"><a xlink:href="incflo__enums_8_h.html" target="_top" xlink:title="amr&#45;wind/incflo_enums.H">
<polygon fill="#ffffff" stroke="#000000" points="309.5,-56.5 309.5,-75.5 449.5,-75.5 449.5,-56.5 309.5,-56.5"/>
<text text-anchor="middle" x="379.5" y="-63.5" font-family="Helvetica,sans-Serif" font-size="10.00" fill="#000000">amr&#45;wind/incflo_enums.H</text>
</a>
</g>
</g>
<!-- Node2&#45;&gt;Node10 -->
<g id="edge10" class="edge">
<title>Node2&#45;&gt;Node10</title>
<path fill="none" stroke="#191970" d="M544.2907,-112.3733C510.7703,-102.9404 459.5495,-88.5265 423.119,-78.2747"/>
<polygon fill="#191970" stroke="#191970" points="423.8372,-74.8409 413.2629,-75.5011 421.9409,-81.5792 423.8372,-74.8409"/>
</g>
<!-- Node11 -->
<g id="node12" class="node">
<title>Node11</title>
<g id="a_node12"><a xlink:href="_view_field_8_h.html" target="_top" xlink:title="amr&#45;wind/core/ViewField.H">
<polygon fill="#ffffff" stroke="#000000" points="505.5,-56.5 505.5,-75.5 651.5,-75.5 651.5,-56.5 505.5,-56.5"/>
<text text-anchor="middle" x="578.5" y="-63.5" font-family="Helvetica,sans-Serif" font-size="10.00" fill="#000000">amr&#45;wind/core/ViewField.H</text>
</a>
</g>
</g>
<!-- Node2&#45;&gt;Node11 -->
<g id="edge12" class="edge">
<title>Node2&#45;&gt;Node11</title>
<path fill="none" stroke="#191970" d="M578.5,-112.2455C578.5,-104.9382 578.5,-94.6944 578.5,-85.7046"/>
<polygon fill="#191970" stroke="#191970" points="582.0001,-85.6426 578.5,-75.6427 575.0001,-85.6427 582.0001,-85.6426"/>
</g>
<!-- Node11&#45;&gt;Node1 -->
<g id="edge14" class="edge">
<title>Node11&#45;&gt;Node1</title>
<path fill="none" stroke="#191970" d="M623.4125,-56.4369C668.612,-46.8127 738.3807,-31.957 786.7847,-21.6504"/>
<polygon fill="#191970" stroke="#191970" points="787.721,-25.0296 796.7728,-19.5237 786.2631,-18.1831 787.721,-25.0296"/>
</g>
<!-- Node11&#45;&gt;Node3 -->
<g id="edge13" class="edge">
<title>Node11&#45;&gt;Node3</title>
<path fill="none" stroke="#191970" d="M560.3846,-56.2455C544.055,-47.4527 519.829,-34.4079 501.2661,-24.4125"/>
<polygon fill="#191970" stroke="#191970" points="502.8719,-21.3021 492.4078,-19.6427 499.5532,-27.4654 502.8719,-21.3021"/>
</g>
<!-- Node11&#45;&gt;Node7 -->
<g id="edge15" class="edge">
<title>Node11&#45;&gt;Node7</title>
<path fill="none" stroke="#191970" d="M596.6154,-56.2455C612.945,-47.4527 637.171,-34.4079 655.7339,-24.4125"/>
<polygon fill="#191970" stroke="#191970" points="657.4468,-27.4654 664.5922,-19.6427 654.1281,-21.3021 657.4468,-27.4654"/>
</g>
<!-- Node12 -->
<g id="node13" class="node">
<title>Node12</title>
<polygon fill="#ffffff" stroke="#bfbfbf" points="514.5,-.5 514.5,-19.5 610.5,-19.5 610.5,-.5 514.5,-.5"/>
<text text-anchor="middle" x="562.5" y="-7.5" font-family="Helvetica,sans-Serif" font-size="10.00" fill="#000000">AMReX_Vector.H</text>
</g>
<!-- Node11&#45;&gt;Node12 -->
<g id="edge16" class="edge">
<title>Node11&#45;&gt;Node12</title>
<path fill="none" stroke="#191970" d="M575.713,-56.2455C573.6023,-48.8579 570.634,-38.4689 568.0453,-29.4087"/>
<polygon fill="#191970" stroke="#191970" points="571.3677,-28.2964 565.255,-19.6427 564.637,-30.2195 571.3677,-28.2964"/>
</g>
</g>
</svg>
        <g id="navigator" transform="translate(0 0)" fill="#404254">
                <rect fill="#f2f5e9" fill-opacity="0.5" stroke="#606060" stroke-width=".5" x="0" y="0" width="60" height="60"/>
                <use id="zoomplus" xlink:href="#zoomPlus" x="17" y="9" onmousedown="handleZoom(evt,'in')"/>
                <use id="zoomminus" xlink:href="#zoomMin" x="42" y="9" onmousedown="handleZoom(evt,'out')"/>
                <use id="reset" xlink:href="#resetDef" x="30" y="36" onmousedown="handleReset()"/>
                <g id="arrowUp" xlink:href="#dirArrow" transform="translate(30 24)" onmousedown="handlePan(0,-1)">
                  <use xlink:href="#rim" fill="#404040">
                        <set attributeName="fill" to="#808080" begin="arrowUp.mouseover" end="arrowUp.mouseout"/>
                  </use>
                  <path fill="none" stroke="white" stroke-width="1.5" d="M0,-3.0v7 M-2.5,-0.5L0,-3.0L2.5,-0.5"/>
                </g>
                <g id="arrowRight" xlink:href="#dirArrow" transform="rotate(90) translate(36 -43)" onmousedown="handlePan(1,0)">
                  <use xlink:href="#rim" fill="#404040">
                        <set attributeName="fill" to="#808080" begin="arrowRight.mouseover" end="arrowRight.mouseout"/>
                  </use>
                  <path fill="none" stroke="white" stroke-width="1.5" d="M0,-3.0v7 M-2.5,-0.5L0,-3.0L2.5,-0.5"/>
                </g>
                <g id="arrowDown" xlink:href="#dirArrow" transform="rotate(180) translate(-30 -48)" onmousedown="handlePan(0,1)">
                  <use xlink:href="#rim" fill="#404040">
                        <set attributeName="fill" to="#808080" begin="arrowDown.mouseover" end="arrowDown.mouseout"/>
                  </use>
                  <path fill="none" stroke="white" stroke-width="1.5" d="M0,-3.0v7 M-2.5,-0.5L0,-3.0L2.5,-0.5"/>
                </g>
                <g id="arrowLeft" xlink:href="#dirArrow" transform="rotate(270) translate(-36 17)" onmousedown="handlePan(-1,0)">
                  <use xlink:href="#rim" fill="#404040">
                        <set attributeName="fill" to="#808080" begin="arrowLeft.mouseover" end="arrowLeft.mouseout"/>
                  </use>
                  <path fill="none" stroke="white" stroke-width="1.5" d="M0,-3.0v7 M-2.5,-0.5L0,-3.0L2.5,-0.5"/>
                </g>
        </g>
        <svg viewBox="0 0 15 15" width="100%" height="30px" preserveAspectRatio="xMaxYMin meet">
         <g id="arrow_out" transform="scale(0.3 0.3)">
          <a xlink:href="_field_b_c_ops_8_h__incl_org.svg" target="_base">
           <rect id="button" ry="5" rx="5" y="6" x="6" height="38" width="38"
                fill="#f2f5e9" fill-opacity="0.5" stroke="#606060" stroke-width="1.0"/>
           <path id="arrow"
             d="M 11.500037,31.436501 C 11.940474,20.09759 22.043105,11.32322 32.158766,21.979434 L 37.068811,17.246167 C 37.068811,17.246167 37.088388,32 37.088388,32 L 22.160133,31.978069 C 22.160133,31.978069 26.997745,27.140456 26.997745,27.140456 C 18.528582,18.264221 13.291696,25.230495 11.500037,31.436501 z"
             style="fill:#404040;"/>
          </a>
         </g>
        </svg>
</svg>
