<?xml version="1.0" encoding="UTF-8" standalone="no"?>
<!DOCTYPE svg PUBLIC "-//W3C//DTD SVG 1.1//EN"
 "http://www.w3.org/Graphics/SVG/1.1/DTD/svg11.dtd">
<!-- Generated by graphviz version 2.40.1 (20161225.0304)
 -->
<!-- Title: Field.cpp Pages: 1 -->
<svg width="2335pt" height="263pt"
 viewBox="0.00 0.00 2334.83 263.00" xmlns="http://www.w3.org/2000/svg" xmlns:xlink="http://www.w3.org/1999/xlink">
<g id="graph0" class="graph" transform="scale(1 1) rotate(0) translate(4 259)">
<title>Field.cpp</title>
<polygon fill="#ffffff" stroke="transparent" points="-4,4 -4,-259 2330.8278,-259 2330.8278,4 -4,4"/>
<!-- Node0 -->
<g id="node1" class="node">
<title>Node0</title>
<polygon fill="#bfbfbf" stroke="#000000" points="1530.3278,-235.5 1530.3278,-254.5 1589.3278,-254.5 1589.3278,-235.5 1530.3278,-235.5"/>
<text text-anchor="middle" x="1559.8278" y="-242.5" font-family="Helvetica,sans-Serif" font-size="10.00" fill="#000000">Field.cpp</text>
</g>
<!-- Node1 -->
<g id="node2" class="node">
<title>Node1</title>
<g id="a_node2"><a xlink:href="_field_8_h.html" target="_top" xlink:title="amr&#45;wind/core/Field.H">
<polygon fill="#ffffff" stroke="#000000" points="1446.8278,-112.5 1446.8278,-131.5 1568.8278,-131.5 1568.8278,-112.5 1446.8278,-112.5"/>
<text text-anchor="middle" x="1507.8278" y="-119.5" font-family="Helvetica,sans-Serif" font-size="10.00" fill="#000000">amr&#45;wind/core/Field.H</text>
</a>
</g>
</g>
<!-- Node0&#45;&gt;Node1 -->
<g id="edge1" class="edge">
<title>Node0&#45;&gt;Node1</title>
<path fill="none" stroke="#191970" d="M1551.3049,-235.4575C1543.821,-226.5992 1533.1666,-212.7448 1526.8278,-199 1518.3364,-180.5877 1513.3271,-157.8798 1510.6036,-141.9104"/>
<polygon fill="#191970" stroke="#191970" points="1514.0005,-140.9755 1509.0074,-131.631 1507.0834,-142.0497 1514.0005,-140.9755"/>
</g>
<!-- Node13 -->
<g id="node14" class="node">
<title>Node13</title>
<g id="a_node14"><a xlink:href="_field_repo_8_h.html" target="_top" xlink:title="amr&#45;wind/core/FieldRepo.H">
<polygon fill="#ffffff" stroke="#000000" points="647.8278,-174 647.8278,-193 793.8278,-193 793.8278,-174 647.8278,-174"/>
<text text-anchor="middle" x="720.8278" y="-181" font-family="Helvetica,sans-Serif" font-size="10.00" fill="#000000">amr&#45;wind/core/FieldRepo.H</text>
</a>
</g>
</g>
<!-- Node0&#45;&gt;Node13 -->
<g id="edge16" class="edge">
<title>Node0&#45;&gt;Node13</title>
<path fill="none" stroke="#191970" d="M1529.9673,-242.8112C1413.3636,-234.264 986.2038,-202.9525 804.0355,-189.5993"/>
<polygon fill="#191970" stroke="#191970" points="804.1992,-186.102 793.97,-188.8614 803.6874,-193.0832 804.1992,-186.102"/>
</g>
<!-- Node21 -->
<g id="node22" class="node">
<title>Node21</title>
<g id="a_node22"><a xlink:href="_field_fill_patch_ops_8_h.html" target="_top" xlink:title="amr&#45;wind/core/FieldFillPatch\lOps.H">
<polygon fill="#ffffff" stroke="#000000" points="1535.8278,-168.5 1535.8278,-198.5 1687.8278,-198.5 1687.8278,-168.5 1535.8278,-168.5"/>
<text text-anchor="start" x="1543.8278" y="-186.5" font-family="Helvetica,sans-Serif" font-size="10.00" fill="#000000">amr&#45;wind/core/FieldFillPatch</text>
<text text-anchor="middle" x="1611.8278" y="-175.5" font-family="Helvetica,sans-Serif" font-size="10.00" fill="#000000">Ops.H</text>
</a>
</g>
</g>
<!-- Node0&#45;&gt;Node21 -->
<g id="edge39" class="edge">
<title>Node0&#45;&gt;Node21</title>
<path fill="none" stroke="#191970" d="M1567.9528,-235.3906C1574.5342,-227.6068 1584.0773,-216.3202 1592.5838,-206.2597"/>
<polygon fill="#191970" stroke="#191970" points="1595.3231,-208.4407 1599.1071,-198.5446 1589.9778,-203.921 1595.3231,-208.4407"/>
</g>
<!-- Node22 -->
<g id="node23" class="node">
<title>Node22</title>
<g id="a_node23"><a xlink:href="_sim_time_8_h.html" target="_top" xlink:title="amr&#45;wind/core/SimTime.H">
<polygon fill="#ffffff" stroke="#000000" points="2092.3278,-112.5 2092.3278,-131.5 2235.3278,-131.5 2235.3278,-112.5 2092.3278,-112.5"/>
<text text-anchor="middle" x="2163.8278" y="-119.5" font-family="Helvetica,sans-Serif" font-size="10.00" fill="#000000">amr&#45;wind/core/SimTime.H</text>
</a>
</g>
</g>
<!-- Node0&#45;&gt;Node22 -->
<g id="edge59" class="edge">
<title>Node0&#45;&gt;Node22</title>
<path fill="none" stroke="#191970" d="M1589.3704,-244.0854C1656.2427,-241.4789 1823.9547,-231.9204 1959.8278,-199 2023.9305,-183.4687 2095.2732,-153.4107 2134.307,-135.7943"/>
<polygon fill="#191970" stroke="#191970" points="2135.8625,-138.9318 2143.5107,-131.6 2132.9597,-132.562 2135.8625,-138.9318"/>
</g>
<!-- Node27 -->
<g id="node28" class="node">
<title>Node27</title>
<g id="a_node28"><a xlink:href="_field_b_c_ops_8_h.html" target="_top" xlink:title="amr&#45;wind/core/FieldBCOps.H">
<polygon fill="#ffffff" stroke="#000000" points="1218.3278,-174 1218.3278,-193 1373.3278,-193 1373.3278,-174 1218.3278,-174"/>
<text text-anchor="middle" x="1295.8278" y="-181" font-family="Helvetica,sans-Serif" font-size="10.00" fill="#000000">amr&#45;wind/core/FieldBCOps.H</text>
</a>
</g>
</g>
<!-- Node0&#45;&gt;Node27 -->
<g id="edge52" class="edge">
<title>Node0&#45;&gt;Node27</title>
<path fill="none" stroke="#191970" d="M1530.3121,-238.1242C1485.852,-227.767 1401.1133,-208.0268 1346.6041,-195.3286"/>
<polygon fill="#191970" stroke="#191970" points="1347.3276,-191.9035 1336.7943,-193.0433 1345.7394,-198.7209 1347.3276,-191.9035"/>
</g>
<!-- Node30 -->
<g id="node31" class="node">
<title>Node30</title>
<g id="a_node31"><a xlink:href="_b_c_interface_8_h.html" target="_top" xlink:title="amr&#45;wind/boundary_conditions\l/BCInterface.H">
<polygon fill="#ffffff" stroke="#000000" points="1784.3278,-168.5 1784.3278,-198.5 1951.3278,-198.5 1951.3278,-168.5 1784.3278,-168.5"/>
<text text-anchor="start" x="1792.3278" y="-186.5" font-family="Helvetica,sans-Serif" font-size="10.00" fill="#000000">amr&#45;wind/boundary_conditions</text>
<text text-anchor="middle" x="1867.8278" y="-175.5" font-family="Helvetica,sans-Serif" font-size="10.00" fill="#000000">/BCInterface.H</text>
</a>
</g>
</g>
<!-- Node0&#45;&gt;Node30 -->
<g id="edge60" class="edge">
<title>Node0&#45;&gt;Node30</title>
<path fill="none" stroke="#191970" d="M1589.3601,-239.1031C1633.3795,-230.3135 1717.924,-213.4321 1782.3598,-200.5658"/>
<polygon fill="#191970" stroke="#191970" points="1783.3984,-203.9276 1792.5194,-198.5372 1782.0276,-197.0631 1783.3984,-203.9276"/>
</g>
<!-- Node2 -->
<g id="node3" class="node">
<title>Node2</title>
<polygon fill="#ffffff" stroke="#bfbfbf" points="204.8278,-.5 204.8278,-19.5 248.8278,-19.5 248.8278,-.5 204.8278,-.5"/>
<text text-anchor="middle" x="226.8278" y="-7.5" font-family="Helvetica,sans-Serif" font-size="10.00" fill="#000000">string</text>
</g>
<!-- Node1&#45;&gt;Node2 -->
<g id="edge2" class="edge">
<title>Node1&#45;&gt;Node2</title>
<path fill="none" stroke="#191970" d="M1446.7046,-117.385C1420.3038,-115.51 1389.0563,-113.4488 1360.8278,-112 1245.4659,-106.0792 431.4444,-112.4365 321.8278,-76 313.645,-73.28 273.6819,-44.5028 248.2643,-25.8561"/>
<polygon fill="#191970" stroke="#191970" points="250.085,-22.8505 239.9563,-19.7424 245.9361,-28.4884 250.085,-22.8505"/>
</g>
<!-- Node3 -->
<g id="node4" class="node">
<title>Node3</title>
<polygon fill="#ffffff" stroke="#bfbfbf" points="1300.8278,-56.5 1300.8278,-75.5 1358.8278,-75.5 1358.8278,-56.5 1300.8278,-56.5"/>
<text text-anchor="middle" x="1329.8278" y="-63.5" font-family="Helvetica,sans-Serif" font-size="10.00" fill="#000000">memory</text>
</g>
<!-- Node1&#45;&gt;Node3 -->
<g id="edge3" class="edge">
<title>Node1&#45;&gt;Node3</title>
<path fill="none" stroke="#191970" d="M1477.2285,-112.3733C1447.1413,-102.9076 1401.1116,-88.4264 1368.5049,-78.1681"/>
<polygon fill="#191970" stroke="#191970" points="1369.4385,-74.7927 1358.8491,-75.1303 1367.3377,-81.4701 1369.4385,-74.7927"/>
</g>
<!-- Node4 -->
<g id="node5" class="node">
<title>Node4</title>
<polygon fill="#ffffff" stroke="#bfbfbf" points="1047.3278,-56.5 1047.3278,-75.5 1140.3278,-75.5 1140.3278,-56.5 1047.3278,-56.5"/>
<text text-anchor="middle" x="1093.8278" y="-63.5" font-family="Helvetica,sans-Serif" font-size="10.00" fill="#000000">unordered_map</text>
</g>
<!-- Node1&#45;&gt;Node4 -->
<g id="edge4" class="edge">
<title>Node1&#45;&gt;Node4</title>
<path fill="none" stroke="#191970" d="M1446.5714,-115.0531C1377.2743,-106.9867 1260.8036,-92.8042 1150.5175,-76.044"/>
<polygon fill="#191970" stroke="#191970" points="1150.9645,-72.5718 1140.5502,-74.5196 1149.9061,-79.4913 1150.9645,-72.5718"/>
</g>
<!-- Node5 -->
<g id="node6" class="node">
<title>Node5</title>
<polygon fill="#ffffff" stroke="#bfbfbf" points="1376.8278,-56.5 1376.8278,-75.5 1440.8278,-75.5 1440.8278,-56.5 1376.8278,-56.5"/>
<text text-anchor="middle" x="1408.8278" y="-63.5" font-family="Helvetica,sans-Serif" font-size="10.00" fill="#000000">algorithm</text>
</g>
<!-- Node1&#45;&gt;Node5 -->
<g id="edge5" class="edge">
<title>Node1&#45;&gt;Node5</title>
<path fill="none" stroke="#191970" d="M1490.5833,-112.2455C1475.2517,-103.5731 1452.6079,-90.7645 1435.0362,-80.825"/>
<polygon fill="#191970" stroke="#191970" points="1436.3019,-77.5198 1425.8746,-75.6427 1432.8554,-83.6126 1436.3019,-77.5198"/>
</g>
<!-- Node6 -->
<g id="node7" class="node">
<title>Node6</title>
<polygon fill="#ffffff" stroke="#bfbfbf" points="762.3278,-.5 762.3278,-19.5 869.3278,-19.5 869.3278,-.5 762.3278,-.5"/>
<text text-anchor="middle" x="815.8278" y="-7.5" font-family="Helvetica,sans-Serif" font-size="10.00" fill="#000000">AMReX_MultiFab.H</text>
</g>
<!-- Node1&#45;&gt;Node6 -->
<g id="edge6" class="edge">
<title>Node1&#45;&gt;Node6</title>
<path fill="none" stroke="#191970" d="M1526.3962,-112.3791C1549.2959,-99.3271 1583.083,-75.4108 1564.8278,-56 1541.5008,-31.1965 1056.6491,-16.2241 879.7228,-11.5694"/>
<polygon fill="#191970" stroke="#191970" points="879.61,-8.0654 869.5222,-11.3035 879.4276,-15.063 879.61,-8.0654"/>
</g>
<!-- Node7 -->
<g id="node8" class="node">
<title>Node7</title>
<polygon fill="#ffffff" stroke="#bfbfbf" points="1459.3278,-56.5 1459.3278,-75.5 1556.3278,-75.5 1556.3278,-56.5 1459.3278,-56.5"/>
<text text-anchor="middle" x="1507.8278" y="-63.5" font-family="Helvetica,sans-Serif" font-size="10.00" fill="#000000">AMReX_BCRec.H</text>
</g>
<!-- Node1&#45;&gt;Node7 -->
<g id="edge7" class="edge">
<title>Node1&#45;&gt;Node7</title>
<path fill="none" stroke="#191970" d="M1507.8278,-112.2455C1507.8278,-104.9382 1507.8278,-94.6944 1507.8278,-85.7046"/>
<polygon fill="#191970" stroke="#191970" points="1511.3279,-85.6426 1507.8278,-75.6427 1504.3279,-85.6427 1511.3279,-85.6426"/>
</g>
<!-- Node8 -->
<g id="node9" class="node">
<title>Node8</title>
<polygon fill="#ffffff" stroke="#bfbfbf" points="1158.8278,-56.5 1158.8278,-75.5 1244.8278,-75.5 1244.8278,-56.5 1158.8278,-56.5"/>
<text text-anchor="middle" x="1201.8278" y="-63.5" font-family="Helvetica,sans-Serif" font-size="10.00" fill="#000000">AMReX_Gpu.H</text>
</g>
<!-- Node1&#45;&gt;Node8 -->
<g id="edge8" class="edge">
<title>Node1&#45;&gt;Node8</title>
<path fill="none" stroke="#191970" d="M1455.5722,-112.4369C1399.65,-102.2028 1311.4039,-86.0531 1255.0954,-75.7483"/>
<polygon fill="#191970" stroke="#191970" points="1255.4347,-72.2524 1244.968,-73.8949 1254.1745,-79.138 1255.4347,-72.2524"/>
</g>
<!-- Node9 -->
<g id="node10" class="node">
<title>Node9</title>
<g id="a_node10"><a xlink:href="incflo__enums_8_h.html" target="_top" xlink:title="amr&#45;wind/incflo_enums.H">
<polygon fill="#ffffff" stroke="#000000" points="1650.8278,-56.5 1650.8278,-75.5 1790.8278,-75.5 1790.8278,-56.5 1650.8278,-56.5"/>
<text text-anchor="middle" x="1720.8278" y="-63.5" font-family="Helvetica,sans-Serif" font-size="10.00" fill="#000000">amr&#45;wind/incflo_enums.H</text>
</a>
</g>
</g>
<!-- Node1&#45;&gt;Node9 -->
<g id="edge9" class="edge">
<title>Node1&#45;&gt;Node9</title>
<path fill="none" stroke="#191970" d="M1544.4438,-112.3733C1580.4757,-102.9001 1635.6156,-88.4032 1674.6391,-78.1435"/>
<polygon fill="#191970" stroke="#191970" points="1675.9082,-81.4289 1684.6896,-75.5011 1674.1283,-74.6589 1675.9082,-81.4289"/>
</g>
<!-- Node10 -->
<g id="node11" class="node">
<title>Node10</title>
<g id="a_node11"><a xlink:href="_field_desc_types_8_h.html" target="_top" xlink:title="amr&#45;wind/core/FieldDescTypes.H">
<polygon fill="#ffffff" stroke="#000000" points="512.8278,-.5 512.8278,-19.5 686.8278,-19.5 686.8278,-.5 512.8278,-.5"/>
<text text-anchor="middle" x="599.8278" y="-7.5" font-family="Helvetica,sans-Serif" font-size="10.00" fill="#000000">amr&#45;wind/core/FieldDescTypes.H</text>
</a>
</g>
</g>
<!-- Node1&#45;&gt;Node10 -->
<g id="edge10" class="edge">
<title>Node1&#45;&gt;Node10</title>
<path fill="none" stroke="#191970" d="M1446.5315,-113.5504C1402.5983,-106.3934 1342.4832,-94.3274 1291.8278,-76 1273.881,-69.5068 1272.1837,-61.2257 1253.8278,-56 1247.2134,-54.117 877.544,-28.8396 696.9891,-16.5792"/>
<polygon fill="#191970" stroke="#191970" points="697.1693,-13.0835 686.9552,-15.898 696.6952,-20.0674 697.1693,-13.0835"/>
</g>
<!-- Node11 -->
<g id="node12" class="node">
<title>Node11</title>
<g id="a_node12"><a xlink:href="_view_field_8_h.html" target="_top" xlink:title="amr&#45;wind/core/ViewField.H">
<polygon fill="#ffffff" stroke="#000000" points="330.8278,-56.5 330.8278,-75.5 476.8278,-75.5 476.8278,-56.5 330.8278,-56.5"/>
<text text-anchor="middle" x="403.8278" y="-63.5" font-family="Helvetica,sans-Serif" font-size="10.00" fill="#000000">amr&#45;wind/core/ViewField.H</text>
</a>
</g>
</g>
<!-- Node1&#45;&gt;Node11 -->
<g id="edge11" class="edge">
<title>Node1&#45;&gt;Node11</title>
<path fill="none" stroke="#191970" d="M1446.6946,-117.5682C1420.292,-115.7249 1389.046,-113.6378 1360.8278,-112 1191.9968,-102.2008 687.5933,-78.9469 487.2207,-69.7947"/>
<polygon fill="#191970" stroke="#191970" points="487.1974,-66.29 477.0482,-69.3302 486.8781,-73.2828 487.1974,-66.29"/>
</g>
<!-- Node11&#45;&gt;Node2 -->
<g id="edge12" class="edge">
<title>Node11&#45;&gt;Node2</title>
<path fill="none" stroke="#191970" d="M373.4004,-56.3733C341.4707,-46.2712 291.4845,-30.4564 258.9374,-20.159"/>
<polygon fill="#191970" stroke="#191970" points="259.618,-16.7034 249.028,-17.0238 257.5064,-23.3773 259.618,-16.7034"/>
</g>
<!-- Node11&#45;&gt;Node6 -->
<g id="edge14" class="edge">
<title>Node11&#45;&gt;Node6</title>
<path fill="none" stroke="#191970" d="M474.185,-56.4369C552.1089,-45.8453 676.6474,-28.9177 751.8914,-18.6904"/>
<polygon fill="#191970" stroke="#191970" points="752.7341,-22.1081 762.1715,-17.2931 751.7912,-15.1719 752.7341,-22.1081"/>
</g>
<!-- Node11&#45;&gt;Node10 -->
<g id="edge13" class="edge">
<title>Node11&#45;&gt;Node10</title>
<path fill="none" stroke="#191970" d="M437.5214,-56.3733C470.5365,-46.9404 520.985,-32.5265 556.8663,-22.2747"/>
<polygon fill="#191970" stroke="#191970" points="557.9201,-25.6137 566.5738,-19.5011 555.997,-18.8831 557.9201,-25.6137"/>
</g>
<!-- Node12 -->
<g id="node13" class="node">
<title>Node12</title>
<polygon fill="#ffffff" stroke="#bfbfbf" points="311.8278,-.5 311.8278,-19.5 407.8278,-19.5 407.8278,-.5 311.8278,-.5"/>
<text text-anchor="middle" x="359.8278" y="-7.5" font-family="Helvetica,sans-Serif" font-size="10.00" fill="#000000">AMReX_Vector.H</text>
</g>
<!-- Node11&#45;&gt;Node12 -->
<g id="edge15" class="edge">
<title>Node11&#45;&gt;Node12</title>
<path fill="none" stroke="#191970" d="M396.1635,-56.2455C389.9804,-48.3761 381.1214,-37.101 373.6989,-27.6542"/>
<polygon fill="#191970" stroke="#191970" points="376.3345,-25.3435 367.4041,-19.6427 370.8303,-29.6683 376.3345,-25.3435"/>
</g>
<!-- Node13&#45;&gt;Node1 -->
<g id="edge24" class="edge">
<title>Node13&#45;&gt;Node1</title>
<path fill="none" stroke="#191970" d="M794.1601,-177.7695C944.8015,-165.9976 1287.4237,-139.2234 1436.4167,-127.5804"/>
<polygon fill="#191970" stroke="#191970" points="1437.1074,-131.0372 1446.8043,-126.7687 1436.562,-124.0585 1437.1074,-131.0372"/>
</g>
<!-- Node13&#45;&gt;Node2 -->
<g id="edge17" class="edge">
<title>Node13&#45;&gt;Node2</title>
<path fill="none" stroke="#191970" d="M647.5989,-182.4418C502.7528,-179.5584 184.8529,-169.08 82.8278,-132 42.3786,-117.2992 23.5899,-114.2322 3.8278,-76 -.2539,-68.1036 -1.7869,-62.8911 3.8278,-56 27.5201,-26.9217 138.6268,-15.6768 194.5304,-11.8047"/>
<polygon fill="#191970" stroke="#191970" points="194.863,-15.2905 204.6132,-11.1451 194.406,-8.3055 194.863,-15.2905"/>
</g>
<!-- Node13&#45;&gt;Node4 -->
<g id="edge18" class="edge">
<title>Node13&#45;&gt;Node4</title>
<path fill="none" stroke="#191970" d="M751.036,-173.984C818.0098,-152.8864 978.9551,-102.1864 1054.0228,-78.5391"/>
<polygon fill="#191970" stroke="#191970" points="1055.112,-81.8656 1063.5983,-75.5227 1053.0087,-75.189 1055.112,-81.8656"/>
</g>
<!-- Node13&#45;&gt;Node6 -->
<g id="edge37" class="edge">
<title>Node13&#45;&gt;Node6</title>
<path fill="none" stroke="#191970" d="M747.2396,-173.8897C765.7225,-165.7085 789.2711,-152.0567 801.8278,-132 821.5373,-100.5181 820.9044,-55.3829 818.4886,-29.7582"/>
<polygon fill="#191970" stroke="#191970" points="821.9609,-29.3147 817.3592,-19.7714 815.0052,-30.1014 821.9609,-29.3147"/>
</g>
<!-- Node13&#45;&gt;Node10 -->
<g id="edge19" class="edge">
<title>Node13&#45;&gt;Node10</title>
<path fill="none" stroke="#191970" d="M697.3042,-173.9214C679.0405,-165.3901 654.2995,-151.2695 638.8278,-132 614.4521,-101.641 605.1762,-55.7406 601.7477,-29.759"/>
<polygon fill="#191970" stroke="#191970" points="605.2043,-29.1804 600.5798,-19.6481 598.2505,-29.9837 605.2043,-29.1804"/>
</g>
<!-- Node14 -->
<g id="node15" class="node">
<title>Node14</title>
<g id="a_node15"><a xlink:href="_field_utils_8_h.html" target="_top" xlink:title="amr&#45;wind/core/FieldUtils.H">
<polygon fill="#ffffff" stroke="#000000" points="648.3278,-112.5 648.3278,-131.5 793.3278,-131.5 793.3278,-112.5 648.3278,-112.5"/>
<text text-anchor="middle" x="720.8278" y="-119.5" font-family="Helvetica,sans-Serif" font-size="10.00" fill="#000000">amr&#45;wind/core/FieldUtils.H</text>
</a>
</g>
</g>
<!-- Node13&#45;&gt;Node14 -->
<g id="edge20" class="edge">
<title>Node13&#45;&gt;Node14</title>
<path fill="none" stroke="#191970" d="M720.8278,-173.8906C720.8278,-165.3657 720.8278,-152.6392 720.8278,-141.9235"/>
<polygon fill="#191970" stroke="#191970" points="724.3279,-141.7448 720.8278,-131.7449 717.3279,-141.7449 724.3279,-141.7448"/>
</g>
<!-- Node16 -->
<g id="node17" class="node">
<title>Node16</title>
<g id="a_node17"><a xlink:href="_int_field_8_h.html" target="_top" xlink:title="amr&#45;wind/core/IntField.H">
<polygon fill="#ffffff" stroke="#000000" points="114.3278,-112.5 114.3278,-131.5 249.3278,-131.5 249.3278,-112.5 114.3278,-112.5"/>
<text text-anchor="middle" x="181.8278" y="-119.5" font-family="Helvetica,sans-Serif" font-size="10.00" fill="#000000">amr&#45;wind/core/IntField.H</text>
</a>
</g>
</g>
<!-- Node13&#45;&gt;Node16 -->
<g id="edge25" class="edge">
<title>Node13&#45;&gt;Node16</title>
<path fill="none" stroke="#191970" d="M647.5749,-175.1418C546.0394,-163.5566 363.3323,-142.7097 259.5006,-130.8625"/>
<polygon fill="#191970" stroke="#191970" points="259.7285,-127.3659 249.3962,-129.7096 258.9349,-134.3207 259.7285,-127.3659"/>
</g>
<!-- Node17 -->
<g id="node18" class="node">
<title>Node17</title>
<polygon fill="#ffffff" stroke="#bfbfbf" points="12.8278,-56.5 12.8278,-75.5 122.8278,-75.5 122.8278,-56.5 12.8278,-56.5"/>
<text text-anchor="middle" x="67.8278" y="-63.5" font-family="Helvetica,sans-Serif" font-size="10.00" fill="#000000">AMReX_iMultiFab.H</text>
</g>
<!-- Node13&#45;&gt;Node17 -->
<g id="edge38" class="edge">
<title>Node13&#45;&gt;Node17</title>
<path fill="none" stroke="#191970" d="M647.7573,-181.2131C494.4359,-175.8681 149.561,-160.7755 104.8278,-132 88.3114,-121.3756 78.4673,-100.6517 73.1351,-85.2475"/>
<polygon fill="#191970" stroke="#191970" points="76.4528,-84.1296 70.1379,-75.6224 69.7694,-86.2108 76.4528,-84.1296"/>
</g>
<!-- Node18 -->
<g id="node19" class="node">
<title>Node18</title>
<g id="a_node19"><a xlink:href="_scratch_field_8_h.html" target="_top" xlink:title="amr&#45;wind/core/ScratchField.H">
<polygon fill="#ffffff" stroke="#000000" points="394.8278,-112.5 394.8278,-131.5 552.8278,-131.5 552.8278,-112.5 394.8278,-112.5"/>
<text text-anchor="middle" x="473.8278" y="-119.5" font-family="Helvetica,sans-Serif" font-size="10.00" fill="#000000">amr&#45;wind/core/ScratchField.H</text>
</a>
</g>
</g>
<!-- Node13&#45;&gt;Node18 -->
<g id="edge29" class="edge">
<title>Node13&#45;&gt;Node18</title>
<path fill="none" stroke="#191970" d="M682.505,-173.9581C639.3308,-163.2082 569.0782,-145.7162 522.1693,-134.0365"/>
<polygon fill="#191970" stroke="#191970" points="522.7898,-130.5842 512.2404,-131.5643 521.0985,-137.3768 522.7898,-130.5842"/>
</g>
<!-- Node20 -->
<g id="node21" class="node">
<title>Node20</title>
<polygon fill="#ffffff" stroke="#bfbfbf" points="977.3278,-112.5 977.3278,-131.5 1086.3278,-131.5 1086.3278,-112.5 977.3278,-112.5"/>
<text text-anchor="middle" x="1031.8278" y="-119.5" font-family="Helvetica,sans-Serif" font-size="10.00" fill="#000000">AMReX_AmrCore.H</text>
</g>
<!-- Node13&#45;&gt;Node20 -->
<g id="edge36" class="edge">
<title>Node13&#45;&gt;Node20</title>
<path fill="none" stroke="#191970" d="M769.0803,-173.9581C824.3197,-163.0345 914.7645,-145.1492 973.8003,-133.4749"/>
<polygon fill="#191970" stroke="#191970" points="974.5869,-136.8872 983.7179,-131.5137 973.2289,-130.0202 974.5869,-136.8872"/>
</g>
<!-- Node14&#45;&gt;Node6 -->
<g id="edge22" class="edge">
<title>Node14&#45;&gt;Node6</title>
<path fill="none" stroke="#191970" d="M735.679,-112.33C747.9968,-103.8018 765.4364,-90.5014 777.8278,-76 790.1306,-61.6022 800.5622,-42.6545 807.3652,-28.7555"/>
<polygon fill="#191970" stroke="#191970" points="810.5526,-30.2021 811.6523,-19.6644 804.2213,-27.2163 810.5526,-30.2021"/>
</g>
<!-- Node14&#45;&gt;Node10 -->
<g id="edge21" class="edge">
<title>Node14&#45;&gt;Node10</title>
<path fill="none" stroke="#191970" d="M695.6531,-112.3543C677.8841,-104.591 654.387,-92.291 637.8278,-76 624.1759,-62.5692 613.8076,-43.2083 607.3775,-28.9274"/>
<polygon fill="#191970" stroke="#191970" points="610.5375,-27.4144 603.4008,-19.5838 604.0966,-30.1558 610.5375,-27.4144"/>
</g>
<!-- Node15 -->
<g id="node16" class="node">
<title>Node15</title>
<polygon fill="#ffffff" stroke="#bfbfbf" points="646.8278,-56.5 646.8278,-75.5 768.8278,-75.5 768.8278,-56.5 646.8278,-56.5"/>
<text text-anchor="middle" x="707.8278" y="-63.5" font-family="Helvetica,sans-Serif" font-size="10.00" fill="#000000">AMReX_Interpolater.H</text>
</g>
<!-- Node14&#45;&gt;Node15 -->
<g id="edge23" class="edge">
<title>Node14&#45;&gt;Node15</title>
<path fill="none" stroke="#191970" d="M718.5633,-112.2455C716.8483,-104.8579 714.4366,-94.4689 712.3333,-85.4087"/>
<polygon fill="#191970" stroke="#191970" points="715.737,-84.5922 710.0662,-75.6427 708.9183,-86.1751 715.737,-84.5922"/>
</g>
<!-- Node16&#45;&gt;Node2 -->
<g id="edge26" class="edge">
<title>Node16&#45;&gt;Node2</title>
<path fill="none" stroke="#191970" d="M177.7638,-112.1094C172.9302,-98.7516 166.4979,-74.4901 174.8278,-56 180.3974,-43.6369 191.114,-33.2563 201.3784,-25.5033"/>
<polygon fill="#191970" stroke="#191970" points="203.5896,-28.2277 209.7711,-19.623 199.5728,-22.4948 203.5896,-28.2277"/>
</g>
<!-- Node16&#45;&gt;Node10 -->
<g id="edge27" class="edge">
<title>Node16&#45;&gt;Node10</title>
<path fill="none" stroke="#191970" d="M198.4554,-112.2932C224.0756,-97.7748 275.1395,-70.5579 321.8278,-56 380.5224,-37.6984 448.5883,-26.2799 502.6782,-19.3971"/>
<polygon fill="#191970" stroke="#191970" points="503.1173,-22.8695 512.6099,-18.1641 502.2548,-15.9229 503.1173,-22.8695"/>
</g>
<!-- Node16&#45;&gt;Node17 -->
<g id="edge28" class="edge">
<title>Node16&#45;&gt;Node17</title>
<path fill="none" stroke="#191970" d="M162.2305,-112.3733C144.0946,-103.4644 116.9143,-90.1127 96.3691,-80.0203"/>
<polygon fill="#191970" stroke="#191970" points="97.6881,-76.7688 87.1693,-75.5011 94.6017,-83.0517 97.6881,-76.7688"/>
</g>
<!-- Node18&#45;&gt;Node2 -->
<g id="edge30" class="edge">
<title>Node18&#45;&gt;Node2</title>
<path fill="none" stroke="#191970" d="M423.0412,-112.4366C390.6694,-105.1393 348.4546,-93.3492 313.8278,-76 287.7021,-62.9102 261.4983,-41.6575 244.7811,-26.8165"/>
<polygon fill="#191970" stroke="#191970" points="246.7128,-23.8433 236.9544,-19.7172 242.0098,-29.0282 246.7128,-23.8433"/>
</g>
<!-- Node18&#45;&gt;Node6 -->
<g id="edge33" class="edge">
<title>Node18&#45;&gt;Node6</title>
<path fill="none" stroke="#191970" d="M494.9901,-112.4524C525.9212,-98.7353 585.4946,-73.2121 637.8278,-56 679.084,-42.431 726.7703,-30.2909 762.3959,-21.894"/>
<polygon fill="#191970" stroke="#191970" points="763.6324,-25.1996 772.5757,-19.519 762.042,-18.3827 763.6324,-25.1996"/>
</g>
<!-- Node18&#45;&gt;Node10 -->
<g id="edge31" class="edge">
<title>Node18&#45;&gt;Node10</title>
<path fill="none" stroke="#191970" d="M480.5019,-112.2584C490.1329,-98.6426 508.9639,-73.6153 528.8278,-56 542.3492,-44.0092 559.2753,-32.918 573.2093,-24.6318"/>
<polygon fill="#191970" stroke="#191970" points="574.9733,-27.6548 581.868,-19.6104 571.4616,-21.5994 574.9733,-27.6548"/>
</g>
<!-- Node18&#45;&gt;Node11 -->
<g id="edge32" class="edge">
<title>Node18&#45;&gt;Node11</title>
<path fill="none" stroke="#191970" d="M461.6347,-112.2455C451.1957,-103.8943 435.9623,-91.7076 423.7538,-81.9408"/>
<polygon fill="#191970" stroke="#191970" points="425.8763,-79.1566 415.8811,-75.6427 421.5034,-84.6227 425.8763,-79.1566"/>
</g>
<!-- Node18&#45;&gt;Node12 -->
<g id="edge34" class="edge">
<title>Node18&#45;&gt;Node12</title>
<path fill="none" stroke="#191970" d="M418.7968,-112.4434C380.2732,-104.5027 333.6582,-91.9406 321.8278,-76 310.0599,-60.1437 324.9545,-40.3263 339.4081,-26.5656"/>
<polygon fill="#191970" stroke="#191970" points="342.0807,-28.8722 347.2204,-19.6076 337.425,-23.6449 342.0807,-28.8722"/>
</g>
<!-- Node19 -->
<g id="node20" class="node">
<title>Node19</title>
<polygon fill="#ffffff" stroke="#bfbfbf" points="900.8278,-56.5 900.8278,-75.5 1028.8278,-75.5 1028.8278,-56.5 900.8278,-56.5"/>
<text text-anchor="middle" x="964.8278" y="-63.5" font-family="Helvetica,sans-Serif" font-size="10.00" fill="#000000">AMReX_PhysBCFunct.H</text>
</g>
<!-- Node18&#45;&gt;Node19 -->
<g id="edge35" class="edge">
<title>Node18&#45;&gt;Node19</title>
<path fill="none" stroke="#191970" d="M552.9881,-112.9715C646.1941,-102.3411 799.7925,-84.8228 890.7394,-74.45"/>
<polygon fill="#191970" stroke="#191970" points="891.158,-77.925 900.6969,-73.3143 890.3647,-70.9701 891.158,-77.925"/>
</g>
<!-- Node21&#45;&gt;Node1 -->
<g id="edge40" class="edge">
<title>Node21&#45;&gt;Node1</title>
<path fill="none" stroke="#191970" d="M1586.3865,-168.4554C1570.0993,-158.8241 1549.0605,-146.3828 1532.8548,-136.7996"/>
<polygon fill="#191970" stroke="#191970" points="1534.3332,-133.6078 1523.9441,-131.5303 1530.7702,-139.6331 1534.3332,-133.6078"/>
</g>
<!-- Node21&#45;&gt;Node6 -->
<g id="edge48" class="edge">
<title>Node21&#45;&gt;Node6</title>
<path fill="none" stroke="#191970" d="M1688.0739,-171.926C1716.8895,-164.4377 1748.3554,-152.1456 1771.8278,-132 1799.1437,-108.5555 1824.6802,-82.0414 1799.8278,-56 1768.0263,-22.6772 1092.6608,-12.8611 879.616,-10.5882"/>
<polygon fill="#191970" stroke="#191970" points="879.5618,-7.0875 869.5257,-10.4825 879.4884,-14.0871 879.5618,-7.0875"/>
</g>
<!-- Node21&#45;&gt;Node10 -->
<g id="edge45" class="edge">
<title>Node21&#45;&gt;Node10</title>
<path fill="none" stroke="#191970" d="M1611.3132,-168.156C1609.4668,-140.4722 1601.2116,-82.5818 1564.8278,-56 1528.3666,-29.3617 797.9154,-22.4727 752.8278,-20 734.8868,-19.0161 715.7699,-17.8558 697.3444,-16.6806"/>
<polygon fill="#191970" stroke="#191970" points="697.3953,-13.1767 687.1911,-16.0272 696.9456,-20.1623 697.3953,-13.1767"/>
</g>
<!-- Node21&#45;&gt;Node14 -->
<g id="edge46" class="edge">
<title>Node21&#45;&gt;Node14</title>
<path fill="none" stroke="#191970" d="M1535.4764,-178.23C1369.1446,-166.7491 975.2403,-139.5605 803.3972,-127.6992"/>
<polygon fill="#191970" stroke="#191970" points="803.6129,-124.2059 793.3956,-127.0089 803.1308,-131.1893 803.6129,-124.2059"/>
</g>
<!-- Node21&#45;&gt;Node19 -->
<g id="edge50" class="edge">
<title>Node21&#45;&gt;Node19</title>
<path fill="none" stroke="#191970" d="M1560.7781,-168.4651C1493.276,-148.6612 1380.5281,-115.8757 1360.8278,-112 1222.2834,-84.7436 1182.9271,-93.3872 1038.9991,-76.1043"/>
<polygon fill="#191970" stroke="#191970" points="1039.2607,-72.6103 1028.9099,-74.8712 1038.4114,-79.5586 1039.2607,-72.6103"/>
</g>
<!-- Node21&#45;&gt;Node20 -->
<g id="edge47" class="edge">
<title>Node21&#45;&gt;Node20</title>
<path fill="none" stroke="#191970" d="M1535.6142,-177.2258C1436.866,-168.7981 1259.1344,-152.616 1096.7882,-132.0616"/>
<polygon fill="#191970" stroke="#191970" points="1096.9743,-128.5571 1086.6121,-130.7648 1096.0894,-135.5009 1096.9743,-128.5571"/>
</g>
<!-- Node21&#45;&gt;Node22 -->
<g id="edge41" class="edge">
<title>Node21&#45;&gt;Node22</title>
<path fill="none" stroke="#191970" d="M1687.8956,-175.571C1779.1207,-165.9785 1936.9483,-149.1175 2082.3062,-132.1653"/>
<polygon fill="#191970" stroke="#191970" points="2082.7791,-135.6339 2092.3051,-130.9967 2081.9664,-128.6813 2082.7791,-135.6339"/>
</g>
<!-- Node23 -->
<g id="node24" class="node">
<title>Node23</title>
<polygon fill="#ffffff" stroke="#bfbfbf" points="1883.3278,-56.5 1883.3278,-75.5 1974.3278,-75.5 1974.3278,-56.5 1883.3278,-56.5"/>
<text text-anchor="middle" x="1928.8278" y="-63.5" font-family="Helvetica,sans-Serif" font-size="10.00" fill="#000000">AMReX_REAL.H</text>
</g>
<!-- Node21&#45;&gt;Node23 -->
<g id="edge49" class="edge">
<title>Node21&#45;&gt;Node23</title>
<path fill="none" stroke="#191970" d="M1684.5168,-168.4481C1721.4987,-159.7323 1766.7702,-147.4184 1805.8278,-132 1841.8463,-117.7812 1880.8213,-95.5992 1905.0294,-80.9344"/>
<polygon fill="#191970" stroke="#191970" points="1907.1517,-83.7387 1913.8477,-75.528 1903.493,-77.7709 1907.1517,-83.7387"/>
</g>
<!-- Node26 -->
<g id="node27" class="node">
<title>Node26</title>
<polygon fill="#ffffff" stroke="#bfbfbf" points="1640.3278,-112.5 1640.3278,-131.5 1763.3278,-131.5 1763.3278,-112.5 1640.3278,-112.5"/>
<text text-anchor="middle" x="1701.8278" y="-119.5" font-family="Helvetica,sans-Serif" font-size="10.00" fill="#000000">AMReX_FillPatchUtil.H</text>
</g>
<!-- Node21&#45;&gt;Node26 -->
<g id="edge51" class="edge">
<title>Node21&#45;&gt;Node26</title>
<path fill="none" stroke="#191970" d="M1634.075,-168.2977C1647.8245,-158.9022 1665.4198,-146.8787 1679.2334,-137.4395"/>
<polygon fill="#191970" stroke="#191970" points="1681.4046,-140.195 1687.6864,-131.6633 1677.4552,-134.4155 1681.4046,-140.195"/>
</g>
<!-- Node22&#45;&gt;Node23 -->
<g id="edge42" class="edge">
<title>Node22&#45;&gt;Node23</title>
<path fill="none" stroke="#191970" d="M2123.6968,-112.4369C2083.5629,-102.8731 2021.7502,-88.1432 1978.5345,-77.845"/>
<polygon fill="#191970" stroke="#191970" points="1979.3321,-74.4372 1968.7932,-75.5237 1977.7094,-81.2465 1979.3321,-74.4372"/>
</g>
<!-- Node24 -->
<g id="node25" class="node">
<title>Node24</title>
<polygon fill="#ffffff" stroke="#bfbfbf" points="2062.8278,-56.5 2062.8278,-75.5 2194.8278,-75.5 2194.8278,-56.5 2062.8278,-56.5"/>
<text text-anchor="middle" x="2128.8278" y="-63.5" font-family="Helvetica,sans-Serif" font-size="10.00" fill="#000000">AMReX_GpuQualifiers.H</text>
</g>
<!-- Node22&#45;&gt;Node24 -->
<g id="edge43" class="edge">
<title>Node22&#45;&gt;Node24</title>
<path fill="none" stroke="#191970" d="M2157.7312,-112.2455C2152.9132,-104.5367 2146.0526,-93.5598 2140.2245,-84.2348"/>
<polygon fill="#191970" stroke="#191970" points="2143.1225,-82.2677 2134.8544,-75.6427 2137.1865,-85.9777 2143.1225,-82.2677"/>
</g>
<!-- Node25 -->
<g id="node26" class="node">
<title>Node25</title>
<polygon fill="#ffffff" stroke="#bfbfbf" points="2212.8278,-56.5 2212.8278,-75.5 2326.8278,-75.5 2326.8278,-56.5 2212.8278,-56.5"/>
<text text-anchor="middle" x="2269.8278" y="-63.5" font-family="Helvetica,sans-Serif" font-size="10.00" fill="#000000">AMReX_Extension.H</text>
</g>
<!-- Node22&#45;&gt;Node25 -->
<g id="edge44" class="edge">
<title>Node22&#45;&gt;Node25</title>
<path fill="none" stroke="#191970" d="M2182.2915,-112.2455C2198.9352,-103.4527 2223.6271,-90.4079 2242.5469,-80.4125"/>
<polygon fill="#191970" stroke="#191970" points="2244.3686,-83.4086 2251.5756,-75.6427 2241.0987,-77.2193 2244.3686,-83.4086"/>
</g>
<!-- Node27&#45;&gt;Node1 -->
<g id="edge54" class="edge">
<title>Node27&#45;&gt;Node1</title>
<path fill="none" stroke="#191970" d="M1328.9528,-173.8906C1365.6689,-163.2395 1424.9941,-146.0296 1465.1615,-134.3772"/>
<polygon fill="#191970" stroke="#191970" points="1466.3065,-137.6895 1474.9354,-131.5419 1464.3562,-130.9666 1466.3065,-137.6895"/>
</g>
<!-- Node27&#45;&gt;Node8 -->
<g id="edge55" class="edge">
<title>Node27&#45;&gt;Node8</title>
<path fill="none" stroke="#191970" d="M1316.101,-173.8312C1341.1933,-160.5457 1378.5688,-135.6013 1360.8278,-112 1354.1799,-103.1563 1297.989,-88.3057 1254.2689,-77.876"/>
<polygon fill="#191970" stroke="#191970" points="1254.8452,-74.4159 1244.3085,-75.5241 1253.2366,-81.2286 1254.8452,-74.4159"/>
</g>
<!-- Node27&#45;&gt;Node10 -->
<g id="edge53" class="edge">
<title>Node27&#45;&gt;Node10</title>
<path fill="none" stroke="#191970" d="M1218.0101,-177.3597C1148.316,-170.5355 1043.8337,-157.0144 955.8278,-132 873.0848,-108.4816 859.2563,-83.729 777.8278,-56 737.1283,-42.1406 689.9768,-30.1303 654.4317,-21.8606"/>
<polygon fill="#191970" stroke="#191970" points="654.7921,-18.3522 644.2621,-19.5227 653.2238,-25.1742 654.7921,-18.3522"/>
</g>
<!-- Node27&#45;&gt;Node19 -->
<g id="edge58" class="edge">
<title>Node27&#45;&gt;Node19</title>
<path fill="none" stroke="#191970" d="M1217.9998,-176.4291C1126.3287,-167.3171 984.3372,-150.4392 967.8278,-132 956.8531,-119.7426 957.2349,-100.501 959.6924,-85.9497"/>
<polygon fill="#191970" stroke="#191970" points="963.1665,-86.4391 961.8226,-75.9299 956.3195,-84.9834 963.1665,-86.4391"/>
</g>
<!-- Node28 -->
<g id="node29" class="node">
<title>Node28</title>
<polygon fill="#ffffff" stroke="#bfbfbf" points="1104.8278,-112.5 1104.8278,-131.5 1220.8278,-131.5 1220.8278,-112.5 1104.8278,-112.5"/>
<text text-anchor="middle" x="1162.8278" y="-119.5" font-family="Helvetica,sans-Serif" font-size="10.00" fill="#000000">AMReX_FArrayBox.H</text>
</g>
<!-- Node27&#45;&gt;Node28 -->
<g id="edge56" class="edge">
<title>Node27&#45;&gt;Node28</title>
<path fill="none" stroke="#191970" d="M1275.0465,-173.8906C1252.9884,-163.6908 1217.9228,-147.4763 1192.8608,-135.8875"/>
<polygon fill="#191970" stroke="#191970" points="1194.0087,-132.5622 1183.4631,-131.5419 1191.0707,-138.9158 1194.0087,-132.5622"/>
</g>
<!-- Node29 -->
<g id="node30" class="node">
<title>Node29</title>
<polygon fill="#ffffff" stroke="#bfbfbf" points="1239.3278,-112.5 1239.3278,-131.5 1352.3278,-131.5 1352.3278,-112.5 1239.3278,-112.5"/>
<text text-anchor="middle" x="1295.8278" y="-119.5" font-family="Helvetica,sans-Serif" font-size="10.00" fill="#000000">AMReX_Geometry.H</text>
</g>
<!-- Node27&#45;&gt;Node29 -->
<g id="edge57" class="edge">
<title>Node27&#45;&gt;Node29</title>
<path fill="none" stroke="#191970" d="M1295.8278,-173.8906C1295.8278,-165.3657 1295.8278,-152.6392 1295.8278,-141.9235"/>
<polygon fill="#191970" stroke="#191970" points="1299.3279,-141.7448 1295.8278,-131.7449 1292.3279,-141.7449 1299.3279,-141.7448"/>
</g>
<!-- Node30&#45;&gt;Node1 -->
<g id="edge61" class="edge">
<title>Node30&#45;&gt;Node1</title>
<path fill="none" stroke="#191970" d="M1783.8781,-169.1586C1719.7517,-158.2037 1632.6239,-143.3193 1573.5293,-133.224"/>
<polygon fill="#191970" stroke="#191970" points="1574.0112,-129.7557 1563.5645,-131.5217 1572.8323,-136.6557 1574.0112,-129.7557"/>
</g>
<!-- Node30&#45;&gt;Node9 -->
<g id="edge62" class="edge">
<title>Node30&#45;&gt;Node9</title>
<path fill="none" stroke="#191970" d="M1848.911,-168.3795C1821.0825,-146.1356 1769.3383,-104.7754 1740.8769,-82.0256"/>
<polygon fill="#191970" stroke="#191970" points="1742.8404,-79.1144 1732.8437,-75.6046 1738.4697,-84.5823 1742.8404,-79.1144"/>
</g>
<!-- Node31 -->
<g id="node32" class="node">
<title>Node31</title>
<polygon fill="#ffffff" stroke="#bfbfbf" points="1896.3278,-112.5 1896.3278,-131.5 2011.3278,-131.5 2011.3278,-112.5 1896.3278,-112.5"/>
<text text-anchor="middle" x="1953.8278" y="-119.5" font-family="Helvetica,sans-Serif" font-size="10.00" fill="#000000">AMReX_BC_TYPES.H</text>
</g>
<!-- Node30&#45;&gt;Node31 -->
<g id="edge63" class="edge">
<title>Node30&#45;&gt;Node31</title>
<path fill="none" stroke="#191970" d="M1889.0862,-168.2977C1902.0995,-158.9917 1918.7181,-147.1075 1931.8595,-137.7099"/>
<polygon fill="#191970" stroke="#191970" points="1934.2166,-140.3271 1940.3149,-131.6633 1930.1448,-134.6332 1934.2166,-140.3271"/>
</g>
<!-- Node32 -->
<g id="node33" class="node">
<title>Node32</title>
<polygon fill="#ffffff" stroke="#bfbfbf" points="2029.3278,-112.5 2029.3278,-131.5 2074.3278,-131.5 2074.3278,-112.5 2029.3278,-112.5"/>
<text text-anchor="middle" x="2051.8278" y="-119.5" font-family="Helvetica,sans-Serif" font-size="10.00" fill="#000000">utility</text>
</g>
<!-- Node30&#45;&gt;Node32 -->
<g id="edge64" class="edge">
<title>Node30&#45;&gt;Node32</title>
<path fill="none" stroke="#191970" d="M1912.8392,-168.4554C1945.7685,-157.4491 1989.6763,-142.7735 2019.2561,-132.8867"/>
<polygon fill="#191970" stroke="#191970" points="2020.705,-136.0928 2029.0798,-129.6033 2018.486,-129.4539 2020.705,-136.0928"/>
</g>
</g>
</svg>
