<?xml version="1.0" encoding="UTF-8" standalone="no"?>
<!DOCTYPE svg PUBLIC "-//W3C//DTD SVG 1.1//EN"
 "http://www.w3.org/Graphics/SVG/1.1/DTD/svg11.dtd">
<!-- Generated by graphviz version 2.40.1 (20161225.0304)
 -->
<!-- Title: Field.H Pages: 1 -->
<svg width="984pt" height="140pt"
 viewBox="0.00 0.00 984.00 140.00" xmlns="http://www.w3.org/2000/svg" xmlns:xlink="http://www.w3.org/1999/xlink">
<g id="graph0" class="graph" transform="scale(1 1) rotate(0) translate(4 136)">
<title>Field.H</title>
<polygon fill="#ffffff" stroke="transparent" points="-4,4 -4,-136 980,-136 980,4 -4,4"/>
<!-- Node0 -->
<g id="node1" class="node">
<title>Node0</title>
<polygon fill="#bfbfbf" stroke="#000000" points="397,-112.5 397,-131.5 447,-131.5 447,-112.5 397,-112.5"/>
<text text-anchor="middle" x="422" y="-119.5" font-family="Helvetica,sans-Serif" font-size="10.00" fill="#000000">Field.H</text>
</g>
<!-- Node1 -->
<g id="node2" class="node">
<title>Node1</title>
<polygon fill="#ffffff" stroke="#bfbfbf" points="0,-.5 0,-19.5 44,-19.5 44,-.5 0,-.5"/>
<text text-anchor="middle" x="22" y="-7.5" font-family="Helvetica,sans-Serif" font-size="10.00" fill="#000000">string</text>
</g>
<!-- Node0&#45;&gt;Node1 -->
<g id="edge1" class="edge">
<title>Node0&#45;&gt;Node1</title>
<path fill="none" stroke="#191970" d="M396.6704,-119.644C333.2151,-113.5072 168.8862,-96.1026 118,-76 88.417,-64.3132 58.9516,-42.0777 40.6235,-26.6644"/>
<polygon fill="#191970" stroke="#191970" points="42.4288,-23.5998 32.5691,-19.7221 37.8586,-28.902 42.4288,-23.5998"/>
</g>
<!-- Node2 -->
<g id="node3" class="node">
<title>Node2</title>
<polygon fill="#ffffff" stroke="#bfbfbf" points="346,-56.5 346,-75.5 404,-75.5 404,-56.5 346,-56.5"/>
<text text-anchor="middle" x="375" y="-63.5" font-family="Helvetica,sans-Serif" font-size="10.00" fill="#000000">memory</text>
</g>
<!-- Node0&#45;&gt;Node2 -->
<g id="edge2" class="edge">
<title>Node0&#45;&gt;Node2</title>
<path fill="none" stroke="#191970" d="M413.8132,-112.2455C407.1411,-104.2958 397.5521,-92.8706 389.5747,-83.3656"/>
<polygon fill="#191970" stroke="#191970" points="392.2026,-81.0524 383.093,-75.6427 386.8408,-85.5525 392.2026,-81.0524"/>
</g>
<!-- Node3 -->
<g id="node4" class="node">
<title>Node3</title>
<polygon fill="#ffffff" stroke="#bfbfbf" points="422.5,-56.5 422.5,-75.5 515.5,-75.5 515.5,-56.5 422.5,-56.5"/>
<text text-anchor="middle" x="469" y="-63.5" font-family="Helvetica,sans-Serif" font-size="10.00" fill="#000000">unordered_map</text>
</g>
<!-- Node0&#45;&gt;Node3 -->
<g id="edge3" class="edge">
<title>Node0&#45;&gt;Node3</title>
<path fill="none" stroke="#191970" d="M430.1868,-112.2455C436.8589,-104.2958 446.4479,-92.8706 454.4253,-83.3656"/>
<polygon fill="#191970" stroke="#191970" points="457.1592,-85.5525 460.907,-75.6427 451.7974,-81.0524 457.1592,-85.5525"/>
</g>
<!-- Node4 -->
<g id="node5" class="node">
<title>Node4</title>
<polygon fill="#ffffff" stroke="#bfbfbf" points="534,-56.5 534,-75.5 598,-75.5 598,-56.5 534,-56.5"/>
<text text-anchor="middle" x="566" y="-63.5" font-family="Helvetica,sans-Serif" font-size="10.00" fill="#000000">algorithm</text>
</g>
<!-- Node0&#45;&gt;Node4 -->
<g id="edge4" class="edge">
<title>Node0&#45;&gt;Node4</title>
<path fill="none" stroke="#191970" d="M446.7545,-112.3733C470.2849,-103.2226 505.8687,-89.3844 532.0426,-79.2057"/>
<polygon fill="#191970" stroke="#191970" points="533.5171,-82.3877 541.5685,-75.5011 530.9799,-75.8636 533.5171,-82.3877"/>
</g>
<!-- Node5 -->
<g id="node6" class="node">
<title>Node5</title>
<polygon fill="#ffffff" stroke="#bfbfbf" points="62.5,-.5 62.5,-19.5 169.5,-19.5 169.5,-.5 62.5,-.5"/>
<text text-anchor="middle" x="116" y="-7.5" font-family="Helvetica,sans-Serif" font-size="10.00" fill="#000000">AMReX_MultiFab.H</text>
</g>
<!-- Node0&#45;&gt;Node5 -->
<g id="edge5" class="edge">
<title>Node0&#45;&gt;Node5</title>
<path fill="none" stroke="#191970" d="M396.9777,-121.333C334.4685,-119.1595 173.7252,-110.2888 135,-76 122.0528,-64.5361 117.6774,-44.8784 116.3169,-29.9904"/>
<polygon fill="#191970" stroke="#191970" points="119.7985,-29.5498 115.7722,-19.7499 112.8084,-29.9217 119.7985,-29.5498"/>
</g>
<!-- Node6 -->
<g id="node7" class="node">
<title>Node6</title>
<polygon fill="#ffffff" stroke="#bfbfbf" points="616.5,-56.5 616.5,-75.5 713.5,-75.5 713.5,-56.5 616.5,-56.5"/>
<text text-anchor="middle" x="665" y="-63.5" font-family="Helvetica,sans-Serif" font-size="10.00" fill="#000000">AMReX_BCRec.H</text>
</g>
<!-- Node0&#45;&gt;Node6 -->
<g id="edge6" class="edge">
<title>Node0&#45;&gt;Node6</title>
<path fill="none" stroke="#191970" d="M447.09,-116.2179C486.197,-107.2056 562.4946,-89.6226 613.6156,-77.8417"/>
<polygon fill="#191970" stroke="#191970" points="614.5271,-81.2234 623.4857,-75.5671 612.9551,-74.4022 614.5271,-81.2234"/>
</g>
<!-- Node7 -->
<g id="node8" class="node">
<title>Node7</title>
<polygon fill="#ffffff" stroke="#bfbfbf" points="732,-56.5 732,-75.5 818,-75.5 818,-56.5 732,-56.5"/>
<text text-anchor="middle" x="775" y="-63.5" font-family="Helvetica,sans-Serif" font-size="10.00" fill="#000000">AMReX_Gpu.H</text>
</g>
<!-- Node0&#45;&gt;Node7 -->
<g id="edge7" class="edge">
<title>Node0&#45;&gt;Node7</title>
<path fill="none" stroke="#191970" d="M447.0264,-118.5065C497.1334,-111.4411 613.5612,-94.6697 721.7837,-76.1601"/>
<polygon fill="#191970" stroke="#191970" points="722.6308,-79.5658 731.893,-74.4217 721.4445,-72.6671 722.6308,-79.5658"/>
</g>
<!-- Node8 -->
<g id="node9" class="node">
<title>Node8</title>
<g id="a_node9"><a xlink:href="incflo__enums_8_h.html" target="_top" xlink:title="amr&#45;wind/incflo_enums.H">
<polygon fill="#ffffff" stroke="#000000" points="836,-56.5 836,-75.5 976,-75.5 976,-56.5 836,-56.5"/>
<text text-anchor="middle" x="906" y="-63.5" font-family="Helvetica,sans-Serif" font-size="10.00" fill="#000000">amr&#45;wind/incflo_enums.H</text>
</a>
</g>
</g>
<!-- Node0&#45;&gt;Node8 -->
<g id="edge8" class="edge">
<title>Node0&#45;&gt;Node8</title>
<path fill="none" stroke="#191970" d="M447.1322,-119.2588C509.3206,-112.4517 675.6214,-94.1021 825.4913,-76.1695"/>
<polygon fill="#191970" stroke="#191970" points="826.2823,-79.5998 835.7945,-74.9342 825.4489,-72.6496 826.2823,-79.5998"/>
</g>
<!-- Node9 -->
<g id="node10" class="node">
<title>Node9</title>
<g id="a_node10"><a xlink:href="_field_desc_types_8_h.html" target="_top" xlink:title="amr&#45;wind/core/FieldDescTypes.H">
<polygon fill="#ffffff" stroke="#000000" points="302,-.5 302,-19.5 476,-19.5 476,-.5 302,-.5"/>
<text text-anchor="middle" x="389" y="-7.5" font-family="Helvetica,sans-Serif" font-size="10.00" fill="#000000">amr&#45;wind/core/FieldDescTypes.H</text>
</a>
</g>
</g>
<!-- Node0&#45;&gt;Node9 -->
<g id="edge9" class="edge">
<title>Node0&#45;&gt;Node9</title>
<path fill="none" stroke="#191970" d="M396.9757,-115.9922C376.8517,-109.6982 349.8836,-97.6215 337,-76 325.9627,-57.477 345.007,-38.3408 363.0747,-25.4749"/>
<polygon fill="#191970" stroke="#191970" points="365.359,-28.1581 371.7298,-19.6927 361.4704,-22.3375 365.359,-28.1581"/>
</g>
<!-- Node10 -->
<g id="node11" class="node">
<title>Node10</title>
<g id="a_node11"><a xlink:href="_view_field_8_h.html" target="_top" xlink:title="amr&#45;wind/core/ViewField.H">
<polygon fill="#ffffff" stroke="#000000" points="144,-56.5 144,-75.5 290,-75.5 290,-56.5 144,-56.5"/>
<text text-anchor="middle" x="217" y="-63.5" font-family="Helvetica,sans-Serif" font-size="10.00" fill="#000000">amr&#45;wind/core/ViewField.H</text>
</a>
</g>
</g>
<!-- Node0&#45;&gt;Node10 -->
<g id="edge10" class="edge">
<title>Node0&#45;&gt;Node10</title>
<path fill="none" stroke="#191970" d="M396.863,-115.1333C363.2805,-105.9596 303.2097,-89.55 261.7896,-78.2352"/>
<polygon fill="#191970" stroke="#191970" points="262.5186,-74.8062 251.9497,-75.5472 260.6739,-81.5588 262.5186,-74.8062"/>
</g>
<!-- Node10&#45;&gt;Node1 -->
<g id="edge11" class="edge">
<title>Node10&#45;&gt;Node1</title>
<path fill="none" stroke="#191970" d="M182.2601,-56.4976C149.2047,-47.3847 98.1091,-33.1133 54,-20 53.8989,-19.9699 53.7976,-19.9398 53.6961,-19.9096"/>
<polygon fill="#191970" stroke="#191970" points="54.595,-16.5248 44.0093,-16.9662 52.5598,-23.2224 54.595,-16.5248"/>
</g>
<!-- Node10&#45;&gt;Node5 -->
<g id="edge13" class="edge">
<title>Node10&#45;&gt;Node5</title>
<path fill="none" stroke="#191970" d="M199.4071,-56.2455C183.621,-47.4928 160.2361,-34.527 142.2413,-24.5496"/>
<polygon fill="#191970" stroke="#191970" points="143.8341,-21.4308 133.3913,-19.6427 140.4397,-27.5528 143.8341,-21.4308"/>
</g>
<!-- Node10&#45;&gt;Node9 -->
<g id="edge12" class="edge">
<title>Node10&#45;&gt;Node9</title>
<path fill="none" stroke="#191970" d="M246.5679,-56.3733C275.1688,-47.0613 318.6788,-32.8953 350.0819,-22.671"/>
<polygon fill="#191970" stroke="#191970" points="351.3928,-25.9251 359.818,-19.5011 349.2257,-19.269 351.3928,-25.9251"/>
</g>
<!-- Node11 -->
<g id="node12" class="node">
<title>Node11</title>
<polygon fill="#ffffff" stroke="#bfbfbf" points="188,-.5 188,-19.5 284,-19.5 284,-.5 188,-.5"/>
<text text-anchor="middle" x="236" y="-7.5" font-family="Helvetica,sans-Serif" font-size="10.00" fill="#000000">AMReX_Vector.H</text>
</g>
<!-- Node10&#45;&gt;Node11 -->
<g id="edge14" class="edge">
<title>Node10&#45;&gt;Node11</title>
<path fill="none" stroke="#191970" d="M220.3095,-56.2455C222.8433,-48.7776 226.4177,-38.2427 229.515,-29.1137"/>
<polygon fill="#191970" stroke="#191970" points="232.8298,-30.237 232.7284,-19.6427 226.2009,-27.9879 232.8298,-30.237"/>
</g>
</g>
</svg>
