<?xml version="1.0" encoding="UTF-8" standalone="no"?>
<!DOCTYPE svg PUBLIC "-//W3C//DTD SVG 1.1//EN"
 "http://www.w3.org/Graphics/SVG/1.1/DTD/svg11.dtd">
<!-- Generated by graphviz version 2.40.1 (20161225.0304)
 -->
<!-- Title: FixedGradientBC.cpp Pages: 1 -->
<!--zoomable 319 -->
<svg id="main" version="1.1" xmlns="http://www.w3.org/2000/svg" xmlns:xlink="http://www.w3.org/1999/xlink" xml:space="preserve" onload="init(evt)">
<style type="text/css"><![CDATA[
.edge:hover path { stroke: red; }
.edge:hover polygon { stroke: red; fill: red; }
]]></style>
<script type="text/javascript"><![CDATA[
var edges = document.getElementsByTagName('g');
if (edges && edges.length) {
  for (var i=0;i<edges.length;i++) {
    if (edges[i].id.substr(0,4)=='edge') {
      edges[i].setAttribute('class','edge');
    }
  }
}
]]></script>
        <defs>
                <circle id="rim" cx="0" cy="0" r="7"/>
                <circle id="rim2" cx="0" cy="0" r="3.5"/>
                <g id="zoomPlus">
                        <use xlink:href="#rim" fill="#404040">
                                <set attributeName="fill" to="#808080" begin="zoomplus.mouseover" end="zoomplus.mouseout"/>
                        </use>
                        <path d="M-4,0h8M0,-4v8" fill="none" stroke="white" stroke-width="1.5" pointer-events="none"/>
                </g>
                <g id="zoomMin">
                        <use xlink:href="#rim" fill="#404040">
                                <set attributeName="fill" to="#808080" begin="zoomminus.mouseover" end="zoomminus.mouseout"/>
                        </use>
                        <path d="M-4,0h8" fill="none" stroke="white" stroke-width="1.5" pointer-events="none"/>
                </g>
                <g id="dirArrow">
                        <path fill="none" stroke="white" stroke-width="1.5" d="M0,-3.0v7 M-2.5,-0.5L0,-3.0L2.5,-0.5"/>
                </g>
               <g id="resetDef">
                       <use xlink:href="#rim2" fill="#404040">
                               <set attributeName="fill" to="#808080" begin="reset.mouseover" end="reset.mouseout"/>
                       </use>
               </g>
        </defs>

<script type="text/javascript">
var viewWidth = 1974;
var viewHeight = 319;
var sectionId = 'dynsection-0';
</script>
<script xlink:href="svgpan.js"/>
<svg id="graph" class="graph">
<g id="viewport">
<title>FixedGradientBC.cpp</title>
<polygon fill="#ffffff" stroke="transparent" points="-4,4 -4,-315 1970.2694,-315 1970.2694,4 -4,4"/>
<!-- Node0 -->
<g id="node1" class="node">
<title>Node0</title>
<polygon fill="#bfbfbf" stroke="#000000" points="1560.7694,-291.5 1560.7694,-310.5 1678.7694,-310.5 1678.7694,-291.5 1560.7694,-291.5"/>
<text text-anchor="middle" x="1619.7694" y="-298.5" font-family="Helvetica,sans-Serif" font-size="10.00" fill="#000000">FixedGradientBC.cpp</text>
</g>
<!-- Node1 -->
<g id="node2" class="node">
<title>Node1</title>
<g id="a_node2"><a xlink:href="_fixed_gradient_b_c_8_h.html" target="_top" xlink:title="amr&#45;wind/boundary_conditions\l/FixedGradientBC.H">
<polygon fill="#ffffff" stroke="#000000" points="1536.2694,-224.5 1536.2694,-254.5 1703.2694,-254.5 1703.2694,-224.5 1536.2694,-224.5"/>
<text text-anchor="start" x="1544.2694" y="-242.5" font-family="Helvetica,sans-Serif" font-size="10.00" fill="#000000">amr&#45;wind/boundary_conditions</text>
<text text-anchor="middle" x="1619.7694" y="-231.5" font-family="Helvetica,sans-Serif" font-size="10.00" fill="#000000">/FixedGradientBC.H</text>
</a>
</g>
</g>
<!-- Node0&#45;&gt;Node1 -->
<g id="edge1" class="edge">
<title>Node0&#45;&gt;Node1</title>
<path fill="none" stroke="#191970" d="M1619.7694,-291.3906C1619.7694,-284.2234 1619.7694,-274.0862 1619.7694,-264.671"/>
<polygon fill="#191970" stroke="#191970" points="1623.2695,-264.5446 1619.7694,-254.5446 1616.2695,-264.5446 1623.2695,-264.5446"/>
</g>
<!-- Node2 -->
<g id="node3" class="node">
<title>Node2</title>
<g id="a_node3"><a xlink:href="_field_b_c_ops_8_h.html" target="_top" xlink:title="amr&#45;wind/core/FieldBCOps.H">
<polygon fill="#ffffff" stroke="#000000" points="1542.2694,-168.5 1542.2694,-187.5 1697.2694,-187.5 1697.2694,-168.5 1542.2694,-168.5"/>
<text text-anchor="middle" x="1619.7694" y="-175.5" font-family="Helvetica,sans-Serif" font-size="10.00" fill="#000000">amr&#45;wind/core/FieldBCOps.H</text>
</a>
</g>
</g>
<!-- Node1&#45;&gt;Node2 -->
<g id="edge2" class="edge">
<title>Node1&#45;&gt;Node2</title>
<path fill="none" stroke="#191970" d="M1619.7694,-224.2977C1619.7694,-216.3834 1619.7694,-206.6043 1619.7694,-198.0759"/>
<polygon fill="#191970" stroke="#191970" points="1623.2695,-197.8469 1619.7694,-187.8469 1616.2695,-197.847 1623.2695,-197.8469"/>
</g>
<!-- Node18 -->
<g id="node19" class="node">
<title>Node18</title>
<g id="a_node19"><a xlink:href="_field_repo_8_h.html" target="_top" xlink:title="amr&#45;wind/core/FieldRepo.H">
<polygon fill="#ffffff" stroke="#000000" points="577.7694,-168.5 577.7694,-187.5 723.7694,-187.5 723.7694,-168.5 577.7694,-168.5"/>
<text text-anchor="middle" x="650.7694" y="-175.5" font-family="Helvetica,sans-Serif" font-size="10.00" fill="#000000">amr&#45;wind/core/FieldRepo.H</text>
</a>
</g>
</g>
<!-- Node1&#45;&gt;Node18 -->
<g id="edge23" class="edge">
<title>Node1&#45;&gt;Node18</title>
<path fill="none" stroke="#191970" d="M1535.8936,-234.1766C1352.3549,-222.5279 916.938,-194.8931 733.9954,-183.2821"/>
<polygon fill="#191970" stroke="#191970" points="734.0953,-179.7815 723.8937,-182.641 733.6519,-186.7675 734.0953,-179.7815"/>
</g>
<!-- Node25 -->
<g id="node26" class="node">
<title>Node25</title>
<polygon fill="#ffffff" stroke="#bfbfbf" points="1715.2694,-168.5 1715.2694,-187.5 1836.2694,-187.5 1836.2694,-168.5 1715.2694,-168.5"/>
<text text-anchor="middle" x="1775.7694" y="-175.5" font-family="Helvetica,sans-Serif" font-size="10.00" fill="#000000">AMReX_Orientation.H</text>
</g>
<!-- Node1&#45;&gt;Node25 -->
<g id="edge46" class="edge">
<title>Node1&#45;&gt;Node25</title>
<path fill="none" stroke="#191970" d="M1657.9313,-224.4554C1683.7319,-214.284 1717.482,-200.9787 1742.2472,-191.2155"/>
<polygon fill="#191970" stroke="#191970" points="1743.5754,-194.4541 1751.5949,-187.5303 1741.0081,-187.9419 1743.5754,-194.4541"/>
</g>
<!-- Node3 -->
<g id="node4" class="node">
<title>Node3</title>
<g id="a_node4"><a xlink:href="_field_desc_types_8_h.html" target="_top" xlink:title="amr&#45;wind/core/FieldDescTypes.H">
<polygon fill="#ffffff" stroke="#000000" points="699.7694,-.5 699.7694,-19.5 873.7694,-19.5 873.7694,-.5 699.7694,-.5"/>
<text text-anchor="middle" x="786.7694" y="-7.5" font-family="Helvetica,sans-Serif" font-size="10.00" fill="#000000">amr&#45;wind/core/FieldDescTypes.H</text>
</a>
</g>
</g>
<!-- Node2&#45;&gt;Node3 -->
<g id="edge3" class="edge">
<title>Node2&#45;&gt;Node3</title>
<path fill="none" stroke="#191970" d="M1630.3564,-168.1682C1653.4214,-145.6145 1703.6728,-89.5246 1671.7694,-56 1643.9304,-26.7464 986.0886,-22.2674 945.7694,-20 925.8072,-18.8774 904.4409,-17.5914 884.0551,-16.3239"/>
<polygon fill="#191970" stroke="#191970" points="884.0169,-12.8147 873.818,-15.6839 883.5801,-19.8011 884.0169,-12.8147"/>
</g>
<!-- Node4 -->
<g id="node5" class="node">
<title>Node4</title>
<g id="a_node5"><a xlink:href="_field_8_h.html" target="_top" xlink:title="amr&#45;wind/core/Field.H">
<polygon fill="#ffffff" stroke="#000000" points="1114.7694,-112.5 1114.7694,-131.5 1236.7694,-131.5 1236.7694,-112.5 1114.7694,-112.5"/>
<text text-anchor="middle" x="1175.7694" y="-119.5" font-family="Helvetica,sans-Serif" font-size="10.00" fill="#000000">amr&#45;wind/core/Field.H</text>
</a>
</g>
</g>
<!-- Node2&#45;&gt;Node4 -->
<g id="edge4" class="edge">
<title>Node2&#45;&gt;Node4</title>
<path fill="none" stroke="#191970" d="M1544.1993,-168.4686C1461.1118,-157.9891 1328.6273,-141.2794 1247.2179,-131.0115"/>
<polygon fill="#191970" stroke="#191970" points="1247.4198,-127.5093 1237.0604,-129.7304 1246.5438,-134.4543 1247.4198,-127.5093"/>
</g>
<!-- Node11 -->
<g id="node12" class="node">
<title>Node11</title>
<polygon fill="#ffffff" stroke="#bfbfbf" points="1576.7694,-56.5 1576.7694,-75.5 1662.7694,-75.5 1662.7694,-56.5 1576.7694,-56.5"/>
<text text-anchor="middle" x="1619.7694" y="-63.5" font-family="Helvetica,sans-Serif" font-size="10.00" fill="#000000">AMReX_Gpu.H</text>
</g>
<!-- Node2&#45;&gt;Node11 -->
<g id="edge19" class="edge">
<title>Node2&#45;&gt;Node11</title>
<path fill="none" stroke="#191970" d="M1619.7694,-168.4509C1619.7694,-150.184 1619.7694,-109.9553 1619.7694,-85.6976"/>
<polygon fill="#191970" stroke="#191970" points="1623.2695,-85.5249 1619.7694,-75.5249 1616.2695,-85.5249 1623.2695,-85.5249"/>
</g>
<!-- Node15 -->
<g id="node16" class="node">
<title>Node15</title>
<polygon fill="#ffffff" stroke="#bfbfbf" points="1718.7694,-112.5 1718.7694,-131.5 1834.7694,-131.5 1834.7694,-112.5 1718.7694,-112.5"/>
<text text-anchor="middle" x="1776.7694" y="-119.5" font-family="Helvetica,sans-Serif" font-size="10.00" fill="#000000">AMReX_FArrayBox.H</text>
</g>
<!-- Node2&#45;&gt;Node15 -->
<g id="edge20" class="edge">
<title>Node2&#45;&gt;Node15</title>
<path fill="none" stroke="#191970" d="M1646.7586,-168.3733C1672.6393,-159.1419 1711.8942,-145.1402 1740.4983,-134.9375"/>
<polygon fill="#191970" stroke="#191970" points="1741.8894,-138.1573 1750.1323,-131.5011 1739.5376,-131.5642 1741.8894,-138.1573"/>
</g>
<!-- Node16 -->
<g id="node17" class="node">
<title>Node16</title>
<polygon fill="#ffffff" stroke="#bfbfbf" points="1853.2694,-112.5 1853.2694,-131.5 1966.2694,-131.5 1966.2694,-112.5 1853.2694,-112.5"/>
<text text-anchor="middle" x="1909.7694" y="-119.5" font-family="Helvetica,sans-Serif" font-size="10.00" fill="#000000">AMReX_Geometry.H</text>
</g>
<!-- Node2&#45;&gt;Node16 -->
<g id="edge21" class="edge">
<title>Node2&#45;&gt;Node16</title>
<path fill="none" stroke="#191970" d="M1669.2926,-168.4369C1719.4452,-158.7522 1797.0304,-143.7703 1850.439,-133.4569"/>
<polygon fill="#191970" stroke="#191970" points="1851.2954,-136.8563 1860.4504,-131.5237 1849.9681,-129.9832 1851.2954,-136.8563"/>
</g>
<!-- Node17 -->
<g id="node18" class="node">
<title>Node17</title>
<polygon fill="#ffffff" stroke="#bfbfbf" points="292.7694,-56.5 292.7694,-75.5 420.7694,-75.5 420.7694,-56.5 292.7694,-56.5"/>
<text text-anchor="middle" x="356.7694" y="-63.5" font-family="Helvetica,sans-Serif" font-size="10.00" fill="#000000">AMReX_PhysBCFunct.H</text>
</g>
<!-- Node2&#45;&gt;Node17 -->
<g id="edge22" class="edge">
<title>Node2&#45;&gt;Node17</title>
<path fill="none" stroke="#191970" d="M1542.0833,-172.95C1353.0149,-160.3172 853.7338,-124.9009 430.9995,-76.5828"/>
<polygon fill="#191970" stroke="#191970" points="431.3619,-73.1015 421.0281,-75.439 430.5641,-80.0559 431.3619,-73.1015"/>
</g>
<!-- Node4&#45;&gt;Node3 -->
<g id="edge13" class="edge">
<title>Node4&#45;&gt;Node3</title>
<path fill="none" stroke="#191970" d="M1237.0427,-119.9615C1348.9049,-115.1453 1571.0954,-99.952 1529.7694,-56 1485.2356,-8.6364 1010.6558,-24.0404 945.7694,-20 925.8143,-18.7574 904.4511,-17.4193 884.0661,-16.1385"/>
<polygon fill="#191970" stroke="#191970" points="884.0291,-12.6294 873.8292,-15.4951 883.5899,-19.6156 884.0291,-12.6294"/>
</g>
<!-- Node5 -->
<g id="node6" class="node">
<title>Node5</title>
<polygon fill="#ffffff" stroke="#bfbfbf" points="166.7694,-.5 166.7694,-19.5 210.7694,-19.5 210.7694,-.5 166.7694,-.5"/>
<text text-anchor="middle" x="188.7694" y="-7.5" font-family="Helvetica,sans-Serif" font-size="10.00" fill="#000000">string</text>
</g>
<!-- Node4&#45;&gt;Node5 -->
<g id="edge5" class="edge">
<title>Node4&#45;&gt;Node5</title>
<path fill="none" stroke="#191970" d="M1114.6267,-119.4896C954.1637,-112.6946 529.1233,-93.2897 467.7694,-76 449.3996,-70.8233 447.784,-62.3024 429.7694,-56 357.5927,-30.7491 268.1343,-18.2922 221.1229,-13.1027"/>
<polygon fill="#191970" stroke="#191970" points="221.252,-9.5968 210.938,-12.0197 220.5118,-16.5576 221.252,-9.5968"/>
</g>
<!-- Node6 -->
<g id="node7" class="node">
<title>Node6</title>
<polygon fill="#ffffff" stroke="#bfbfbf" points="1106.7694,-56.5 1106.7694,-75.5 1164.7694,-75.5 1164.7694,-56.5 1106.7694,-56.5"/>
<text text-anchor="middle" x="1135.7694" y="-63.5" font-family="Helvetica,sans-Serif" font-size="10.00" fill="#000000">memory</text>
</g>
<!-- Node4&#45;&gt;Node6 -->
<g id="edge6" class="edge">
<title>Node4&#45;&gt;Node6</title>
<path fill="none" stroke="#191970" d="M1168.8019,-112.2455C1163.2382,-104.4564 1155.2913,-93.3308 1148.5865,-83.9439"/>
<polygon fill="#191970" stroke="#191970" points="1151.3175,-81.7457 1142.657,-75.6427 1145.6213,-85.8144 1151.3175,-81.7457"/>
</g>
<!-- Node7 -->
<g id="node8" class="node">
<title>Node7</title>
<polygon fill="#ffffff" stroke="#bfbfbf" points="793.2694,-56.5 793.2694,-75.5 886.2694,-75.5 886.2694,-56.5 793.2694,-56.5"/>
<text text-anchor="middle" x="839.7694" y="-63.5" font-family="Helvetica,sans-Serif" font-size="10.00" fill="#000000">unordered_map</text>
</g>
<!-- Node4&#45;&gt;Node7 -->
<g id="edge7" class="edge">
<title>Node4&#45;&gt;Node7</title>
<path fill="none" stroke="#191970" d="M1118.3907,-112.4369C1056.3374,-102.0947 958.0376,-85.7114 896.3121,-75.4238"/>
<polygon fill="#191970" stroke="#191970" points="896.7953,-71.9561 886.356,-73.7644 895.6445,-78.8609 896.7953,-71.9561"/>
</g>
<!-- Node8 -->
<g id="node9" class="node">
<title>Node8</title>
<polygon fill="#ffffff" stroke="#bfbfbf" points="1182.7694,-56.5 1182.7694,-75.5 1246.7694,-75.5 1246.7694,-56.5 1182.7694,-56.5"/>
<text text-anchor="middle" x="1214.7694" y="-63.5" font-family="Helvetica,sans-Serif" font-size="10.00" fill="#000000">algorithm</text>
</g>
<!-- Node4&#45;&gt;Node8 -->
<g id="edge8" class="edge">
<title>Node4&#45;&gt;Node8</title>
<path fill="none" stroke="#191970" d="M1182.5627,-112.2455C1187.9872,-104.4564 1195.7354,-93.3308 1202.2727,-83.9439"/>
<polygon fill="#191970" stroke="#191970" points="1205.2111,-85.849 1208.0539,-75.6427 1199.4668,-81.8485 1205.2111,-85.849"/>
</g>
<!-- Node9 -->
<g id="node10" class="node">
<title>Node9</title>
<polygon fill="#ffffff" stroke="#bfbfbf" points="574.2694,-.5 574.2694,-19.5 681.2694,-19.5 681.2694,-.5 574.2694,-.5"/>
<text text-anchor="middle" x="627.7694" y="-7.5" font-family="Helvetica,sans-Serif" font-size="10.00" fill="#000000">AMReX_MultiFab.H</text>
</g>
<!-- Node4&#45;&gt;Node9 -->
<g id="edge9" class="edge">
<title>Node4&#45;&gt;Node9</title>
<path fill="none" stroke="#191970" d="M1114.608,-115.2913C1064.9191,-108.6814 993.5296,-96.5259 933.7694,-76 915.3461,-69.6722 913.2464,-62.1689 894.7694,-56 885.1487,-52.788 767.2571,-33.0176 691.3791,-20.4629"/>
<polygon fill="#191970" stroke="#191970" points="691.8634,-16.9955 681.4265,-18.8176 690.7217,-23.9018 691.8634,-16.9955"/>
</g>
<!-- Node10 -->
<g id="node11" class="node">
<title>Node10</title>
<polygon fill="#ffffff" stroke="#bfbfbf" points="1265.2694,-56.5 1265.2694,-75.5 1362.2694,-75.5 1362.2694,-56.5 1265.2694,-56.5"/>
<text text-anchor="middle" x="1313.7694" y="-63.5" font-family="Helvetica,sans-Serif" font-size="10.00" fill="#000000">AMReX_BCRec.H</text>
</g>
<!-- Node4&#45;&gt;Node10 -->
<g id="edge10" class="edge">
<title>Node4&#45;&gt;Node10</title>
<path fill="none" stroke="#191970" d="M1199.4924,-112.3733C1221.943,-103.2629 1255.8433,-89.5062 1280.8948,-79.3404"/>
<polygon fill="#191970" stroke="#191970" points="1282.4058,-82.5045 1290.3559,-75.5011 1279.7737,-76.0182 1282.4058,-82.5045"/>
</g>
<!-- Node4&#45;&gt;Node11 -->
<g id="edge11" class="edge">
<title>Node4&#45;&gt;Node11</title>
<path fill="none" stroke="#191970" d="M1236.9031,-115.7906C1313.2974,-107.7881 1447.966,-92.8802 1562.7694,-76 1564.0274,-75.815 1565.3004,-75.6239 1566.5837,-75.4277"/>
<polygon fill="#191970" stroke="#191970" points="1567.2246,-78.8698 1576.55,-73.8413 1566.1241,-71.9568 1567.2246,-78.8698"/>
</g>
<!-- Node12 -->
<g id="node13" class="node">
<title>Node12</title>
<g id="a_node13"><a xlink:href="incflo__enums_8_h.html" target="_top" xlink:title="amr&#45;wind/incflo_enums.H">
<polygon fill="#ffffff" stroke="#000000" points="1380.7694,-56.5 1380.7694,-75.5 1520.7694,-75.5 1520.7694,-56.5 1380.7694,-56.5"/>
<text text-anchor="middle" x="1450.7694" y="-63.5" font-family="Helvetica,sans-Serif" font-size="10.00" fill="#000000">amr&#45;wind/incflo_enums.H</text>
</a>
</g>
</g>
<!-- Node4&#45;&gt;Node12 -->
<g id="edge12" class="edge">
<title>Node4&#45;&gt;Node12</title>
<path fill="none" stroke="#191970" d="M1222.7311,-112.4369C1270.1907,-102.7724 1343.5559,-87.8326 1394.1917,-77.5213"/>
<polygon fill="#191970" stroke="#191970" points="1394.9009,-80.9488 1404.0013,-75.5237 1393.504,-74.0895 1394.9009,-80.9488"/>
</g>
<!-- Node13 -->
<g id="node14" class="node">
<title>Node13</title>
<g id="a_node14"><a xlink:href="_view_field_8_h.html" target="_top" xlink:title="amr&#45;wind/core/ViewField.H">
<polygon fill="#ffffff" stroke="#000000" points="476.7694,-56.5 476.7694,-75.5 622.7694,-75.5 622.7694,-56.5 476.7694,-56.5"/>
<text text-anchor="middle" x="549.7694" y="-63.5" font-family="Helvetica,sans-Serif" font-size="10.00" fill="#000000">amr&#45;wind/core/ViewField.H</text>
</a>
</g>
</g>
<!-- Node4&#45;&gt;Node13 -->
<g id="edge14" class="edge">
<title>Node4&#45;&gt;Node13</title>
<path fill="none" stroke="#191970" d="M1114.6061,-116.5285C1001.8292,-106.4399 761.0038,-84.8964 633.2954,-73.472"/>
<polygon fill="#191970" stroke="#191970" points="633.4457,-69.9715 623.1736,-72.5665 632.8219,-76.9437 633.4457,-69.9715"/>
</g>
<!-- Node13&#45;&gt;Node3 -->
<g id="edge16" class="edge">
<title>Node13&#45;&gt;Node3</title>
<path fill="none" stroke="#191970" d="M590.2418,-56.4369C630.7173,-46.8731 693.0561,-32.1432 736.6396,-21.845"/>
<polygon fill="#191970" stroke="#191970" points="737.5367,-25.2295 746.4638,-19.5237 735.927,-18.4171 737.5367,-25.2295"/>
</g>
<!-- Node13&#45;&gt;Node5 -->
<g id="edge15" class="edge">
<title>Node13&#45;&gt;Node5</title>
<path fill="none" stroke="#191970" d="M488.1214,-56.4369C410.8026,-44.4428 281.1068,-24.3238 221.0686,-15.0104"/>
<polygon fill="#191970" stroke="#191970" points="221.4524,-11.5282 211.034,-13.4538 220.3793,-18.4454 221.4524,-11.5282"/>
</g>
<!-- Node13&#45;&gt;Node9 -->
<g id="edge17" class="edge">
<title>Node13&#45;&gt;Node9</title>
<path fill="none" stroke="#191970" d="M563.3559,-56.2455C575.0998,-47.814 592.2893,-35.4729 605.9576,-25.6598"/>
<polygon fill="#191970" stroke="#191970" points="608.2565,-28.3179 614.3385,-19.6427 604.174,-22.6316 608.2565,-28.3179"/>
</g>
<!-- Node14 -->
<g id="node15" class="node">
<title>Node14</title>
<polygon fill="#ffffff" stroke="#bfbfbf" points="355.7694,-.5 355.7694,-19.5 451.7694,-19.5 451.7694,-.5 355.7694,-.5"/>
<text text-anchor="middle" x="403.7694" y="-7.5" font-family="Helvetica,sans-Serif" font-size="10.00" fill="#000000">AMReX_Vector.H</text>
</g>
<!-- Node13&#45;&gt;Node14 -->
<g id="edge18" class="edge">
<title>Node13&#45;&gt;Node14</title>
<path fill="none" stroke="#191970" d="M524.6711,-56.3733C500.8139,-47.2226 464.7359,-33.3844 438.1984,-23.2057"/>
<polygon fill="#191970" stroke="#191970" points="439.1304,-19.8145 428.5402,-19.5011 436.6235,-26.3503 439.1304,-19.8145"/>
</g>
<!-- Node18&#45;&gt;Node3 -->
<g id="edge26" class="edge">
<title>Node18&#45;&gt;Node3</title>
<path fill="none" stroke="#191970" d="M658.5713,-168.4542C673.3036,-150.4197 706.2128,-110.0893 733.7694,-76 746.9557,-59.6876 761.9139,-41.048 772.5688,-27.7473"/>
<polygon fill="#191970" stroke="#191970" points="775.3692,-29.8496 778.8874,-19.856 769.905,-25.4744 775.3692,-29.8496"/>
</g>
<!-- Node18&#45;&gt;Node4 -->
<g id="edge31" class="edge">
<title>Node18&#45;&gt;Node4</title>
<path fill="none" stroke="#191970" d="M724.0446,-170.184C824.7754,-159.4394 1004.847,-140.2317 1104.5077,-129.6012"/>
<polygon fill="#191970" stroke="#191970" points="1104.9124,-133.078 1114.4847,-128.537 1104.1699,-126.1175 1104.9124,-133.078"/>
</g>
<!-- Node18&#45;&gt;Node5 -->
<g id="edge24" class="edge">
<title>Node18&#45;&gt;Node5</title>
<path fill="none" stroke="#191970" d="M577.7569,-176.7512C445.9294,-173.7249 173.6106,-163.7264 84.7694,-132 43.5528,-117.281 24.0939,-114.7604 3.7694,-76 -.3585,-68.1277 -1.7054,-63.0028 3.7694,-56 22.3888,-32.184 108.6429,-18.9337 156.5208,-13.2975"/>
<polygon fill="#191970" stroke="#191970" points="157.1364,-16.7503 166.6795,-12.1481 156.3494,-9.7947 157.1364,-16.7503"/>
</g>
<!-- Node18&#45;&gt;Node7 -->
<g id="edge25" class="edge">
<title>Node18&#45;&gt;Node7</title>
<path fill="none" stroke="#191970" d="M692.5914,-168.4371C718.8054,-161.1661 752.4851,-149.4044 778.7694,-132 798.1614,-119.1594 815.6521,-98.8954 826.881,-84.2064"/>
<polygon fill="#191970" stroke="#191970" points="829.8937,-86.0189 833.0243,-75.8972 824.265,-81.8574 829.8937,-86.0189"/>
</g>
<!-- Node18&#45;&gt;Node9 -->
<g id="edge44" class="edge">
<title>Node18&#45;&gt;Node9</title>
<path fill="none" stroke="#191970" d="M649.4669,-168.4862C645.8311,-141.9293 635.5134,-66.5651 630.5301,-30.1655"/>
<polygon fill="#191970" stroke="#191970" points="633.939,-29.2607 629.1149,-19.8279 627.0037,-30.2102 633.939,-29.2607"/>
</g>
<!-- Node19 -->
<g id="node20" class="node">
<title>Node19</title>
<g id="a_node20"><a xlink:href="_field_utils_8_h.html" target="_top" xlink:title="amr&#45;wind/core/FieldUtils.H">
<polygon fill="#ffffff" stroke="#000000" points="943.2694,-56.5 943.2694,-75.5 1088.2694,-75.5 1088.2694,-56.5 943.2694,-56.5"/>
<text text-anchor="middle" x="1015.7694" y="-63.5" font-family="Helvetica,sans-Serif" font-size="10.00" fill="#000000">amr&#45;wind/core/FieldUtils.H</text>
</a>
</g>
</g>
<!-- Node18&#45;&gt;Node19 -->
<g id="edge27" class="edge">
<title>Node18&#45;&gt;Node19</title>
<path fill="none" stroke="#191970" d="M683.2532,-168.4292C714.4454,-159.2078 762.8754,-144.8085 804.7694,-132 864.5756,-113.7151 933.7276,-91.9694 976.1012,-78.5755"/>
<polygon fill="#191970" stroke="#191970" points="977.2785,-81.8741 985.7574,-75.5213 975.1675,-75.2 977.2785,-81.8741"/>
</g>
<!-- Node21 -->
<g id="node22" class="node">
<title>Node21</title>
<g id="a_node22"><a xlink:href="_int_field_8_h.html" target="_top" xlink:title="amr&#45;wind/core/IntField.H">
<polygon fill="#ffffff" stroke="#000000" points="117.2694,-112.5 117.2694,-131.5 252.2694,-131.5 252.2694,-112.5 117.2694,-112.5"/>
<text text-anchor="middle" x="184.7694" y="-119.5" font-family="Helvetica,sans-Serif" font-size="10.00" fill="#000000">amr&#45;wind/core/IntField.H</text>
</a>
</g>
</g>
<!-- Node18&#45;&gt;Node21 -->
<g id="edge32" class="edge">
<title>Node18&#45;&gt;Node21</title>
<path fill="none" stroke="#191970" d="M577.7007,-169.2192C491.9563,-158.9152 350.3707,-141.9006 262.6139,-131.3547"/>
<polygon fill="#191970" stroke="#191970" points="262.7962,-127.8515 252.45,-130.1333 261.9609,-134.8015 262.7962,-127.8515"/>
</g>
<!-- Node22 -->
<g id="node23" class="node">
<title>Node22</title>
<polygon fill="#ffffff" stroke="#bfbfbf" points="12.7694,-56.5 12.7694,-75.5 122.7694,-75.5 122.7694,-56.5 12.7694,-56.5"/>
<text text-anchor="middle" x="67.7694" y="-63.5" font-family="Helvetica,sans-Serif" font-size="10.00" fill="#000000">AMReX_iMultiFab.H</text>
</g>
<!-- Node18&#45;&gt;Node22 -->
<g id="edge45" class="edge">
<title>Node18&#45;&gt;Node22</title>
<path fill="none" stroke="#191970" d="M577.5091,-175.4687C438.4902,-170.1327 146.7618,-156.1875 107.7694,-132 90.7476,-121.4412 79.9652,-100.7062 73.9399,-85.2815"/>
<polygon fill="#191970" stroke="#191970" points="77.1598,-83.8899 70.5103,-75.6416 70.5647,-86.2363 77.1598,-83.8899"/>
</g>
<!-- Node23 -->
<g id="node24" class="node">
<title>Node23</title>
<g id="a_node24"><a xlink:href="_scratch_field_8_h.html" target="_top" xlink:title="amr&#45;wind/core/ScratchField.H">
<polygon fill="#ffffff" stroke="#000000" points="277.7694,-112.5 277.7694,-131.5 435.7694,-131.5 435.7694,-112.5 277.7694,-112.5"/>
<text text-anchor="middle" x="356.7694" y="-119.5" font-family="Helvetica,sans-Serif" font-size="10.00" fill="#000000">amr&#45;wind/core/ScratchField.H</text>
</a>
</g>
</g>
<!-- Node18&#45;&gt;Node23 -->
<g id="edge36" class="edge">
<title>Node18&#45;&gt;Node23</title>
<path fill="none" stroke="#191970" d="M600.563,-168.4369C549.7187,-158.7522 471.0634,-143.7703 416.9181,-133.4569"/>
<polygon fill="#191970" stroke="#191970" points="417.247,-129.9567 406.7686,-131.5237 415.9371,-136.8331 417.247,-129.9567"/>
</g>
<!-- Node24 -->
<g id="node25" class="node">
<title>Node24</title>
<polygon fill="#ffffff" stroke="#bfbfbf" points="513.2694,-112.5 513.2694,-131.5 622.2694,-131.5 622.2694,-112.5 513.2694,-112.5"/>
<text text-anchor="middle" x="567.7694" y="-119.5" font-family="Helvetica,sans-Serif" font-size="10.00" fill="#000000">AMReX_AmrCore.H</text>
</g>
<!-- Node18&#45;&gt;Node24 -->
<g id="edge43" class="edge">
<title>Node18&#45;&gt;Node24</title>
<path fill="none" stroke="#191970" d="M636.3119,-168.2455C623.6961,-159.7337 605.1749,-147.2375 590.5648,-137.3801"/>
<polygon fill="#191970" stroke="#191970" points="592.3084,-134.3343 582.0612,-131.6427 588.3933,-140.1371 592.3084,-134.3343"/>
</g>
<!-- Node19&#45;&gt;Node3 -->
<g id="edge28" class="edge">
<title>Node19&#45;&gt;Node3</title>
<path fill="none" stroke="#191970" d="M976.6631,-56.4369C937.6362,-46.8932 877.5729,-32.2052 835.4732,-21.9101"/>
<polygon fill="#191970" stroke="#191970" points="836.2596,-18.4993 825.7144,-19.5237 834.5967,-25.299 836.2596,-18.4993"/>
</g>
<!-- Node19&#45;&gt;Node9 -->
<g id="edge29" class="edge">
<title>Node19&#45;&gt;Node9</title>
<path fill="none" stroke="#191970" d="M945.9826,-56.468C882.3868,-47.7025 785.5761,-34.1622 691.3668,-20.0699"/>
<polygon fill="#191970" stroke="#191970" points="691.7846,-16.5935 681.3761,-18.5718 690.7466,-23.5161 691.7846,-16.5935"/>
</g>
<!-- Node20 -->
<g id="node21" class="node">
<title>Node20</title>
<polygon fill="#ffffff" stroke="#bfbfbf" points="954.7694,-.5 954.7694,-19.5 1076.7694,-19.5 1076.7694,-.5 954.7694,-.5"/>
<text text-anchor="middle" x="1015.7694" y="-7.5" font-family="Helvetica,sans-Serif" font-size="10.00" fill="#000000">AMReX_Interpolater.H</text>
</g>
<!-- Node19&#45;&gt;Node20 -->
<g id="edge30" class="edge">
<title>Node19&#45;&gt;Node20</title>
<path fill="none" stroke="#191970" d="M1015.7694,-56.2455C1015.7694,-48.9382 1015.7694,-38.6944 1015.7694,-29.7046"/>
<polygon fill="#191970" stroke="#191970" points="1019.2695,-29.6426 1015.7694,-19.6427 1012.2695,-29.6427 1019.2695,-29.6426"/>
</g>
<!-- Node21&#45;&gt;Node3 -->
<g id="edge34" class="edge">
<title>Node21&#45;&gt;Node3</title>
<path fill="none" stroke="#191970" d="M252.6084,-113.8081C258.0747,-113.1833 263.5135,-112.5734 268.7694,-112 429.9378,-94.4165 474.7129,-116.2206 631.7694,-76 678.8116,-63.953 730.032,-39.7708 760.2237,-24.2616"/>
<polygon fill="#191970" stroke="#191970" points="762.0032,-27.2811 769.2553,-19.5573 758.7694,-21.0728 762.0032,-27.2811"/>
</g>
<!-- Node21&#45;&gt;Node5 -->
<g id="edge33" class="edge">
<title>Node21&#45;&gt;Node5</title>
<path fill="none" stroke="#191970" d="M181.4351,-112.1625C177.4878,-99.2679 171.8014,-75.9454 174.7694,-56 176.1021,-47.0439 178.8188,-37.419 181.5075,-29.3"/>
<polygon fill="#191970" stroke="#191970" points="184.876,-30.272 184.907,-19.6772 178.2758,-27.9402 184.876,-30.272"/>
</g>
<!-- Node21&#45;&gt;Node22 -->
<g id="edge35" class="edge">
<title>Node21&#45;&gt;Node22</title>
<path fill="none" stroke="#191970" d="M164.6564,-112.3733C145.959,-103.4241 117.895,-89.9917 96.776,-79.8835"/>
<polygon fill="#191970" stroke="#191970" points="98.151,-76.6614 87.6199,-75.5011 95.1289,-82.9755 98.151,-76.6614"/>
</g>
<!-- Node23&#45;&gt;Node3 -->
<g id="edge38" class="edge">
<title>Node23&#45;&gt;Node3</title>
<path fill="none" stroke="#191970" d="M435.8545,-116.3471C522.712,-109.2866 656.0762,-95.6904 702.7694,-76 729.5457,-64.7084 755.0125,-42.5143 770.7419,-26.9937"/>
<polygon fill="#191970" stroke="#191970" points="773.518,-29.1625 778.0351,-19.5788 768.5275,-24.2539 773.518,-29.1625"/>
</g>
<!-- Node23&#45;&gt;Node5 -->
<g id="edge37" class="edge">
<title>Node23&#45;&gt;Node5</title>
<path fill="none" stroke="#191970" d="M319.6176,-112.4625C295.8041,-105.1222 265.0994,-93.2747 241.7694,-76 224.3306,-63.0875 209.3767,-43.1137 199.8426,-28.5199"/>
<polygon fill="#191970" stroke="#191970" points="202.6707,-26.4421 194.3884,-19.8349 196.7427,-30.1649 202.6707,-26.4421"/>
</g>
<!-- Node23&#45;&gt;Node9 -->
<g id="edge40" class="edge">
<title>Node23&#45;&gt;Node9</title>
<path fill="none" stroke="#191970" d="M332.0972,-112.4882C304.0218,-100.3058 264.4156,-78.114 283.7694,-56 301.9078,-35.2746 469.6102,-20.6894 563.9839,-14.0455"/>
<polygon fill="#191970" stroke="#191970" points="564.2633,-17.5346 573.9971,-13.351 563.7789,-10.5514 564.2633,-17.5346"/>
</g>
<!-- Node23&#45;&gt;Node13 -->
<g id="edge39" class="edge">
<title>Node23&#45;&gt;Node13</title>
<path fill="none" stroke="#191970" d="M389.9473,-112.3733C422.3181,-102.9807 471.7091,-88.6496 507.0118,-78.4064"/>
<polygon fill="#191970" stroke="#191970" points="508.3959,-81.6492 517.0244,-75.5011 506.4452,-74.9264 508.3959,-81.6492"/>
</g>
<!-- Node23&#45;&gt;Node14 -->
<g id="edge41" class="edge">
<title>Node23&#45;&gt;Node14</title>
<path fill="none" stroke="#191970" d="M313.0758,-112.4731C275.4992,-102.1849 230.3316,-83.4862 250.7694,-56 262.3918,-40.3693 307.3136,-28.0437 345.4984,-20.1015"/>
<polygon fill="#191970" stroke="#191970" points="346.4331,-23.4837 355.5452,-18.0781 345.051,-16.6214 346.4331,-23.4837"/>
</g>
<!-- Node23&#45;&gt;Node17 -->
<g id="edge42" class="edge">
<title>Node23&#45;&gt;Node17</title>
<path fill="none" stroke="#191970" d="M356.7694,-112.2455C356.7694,-104.9382 356.7694,-94.6944 356.7694,-85.7046"/>
<polygon fill="#191970" stroke="#191970" points="360.2695,-85.6426 356.7694,-75.6427 353.2695,-85.6427 360.2695,-85.6426"/>
</g>
</g>
</svg>
        <g id="navigator" transform="translate(0 0)" fill="#404254">
                <rect fill="#f2f5e9" fill-opacity="0.5" stroke="#606060" stroke-width=".5" x="0" y="0" width="60" height="60"/>
                <use id="zoomplus" xlink:href="#zoomPlus" x="17" y="9" onmousedown="handleZoom(evt,'in')"/>
                <use id="zoomminus" xlink:href="#zoomMin" x="42" y="9" onmousedown="handleZoom(evt,'out')"/>
                <use id="reset" xlink:href="#resetDef" x="30" y="36" onmousedown="handleReset()"/>
                <g id="arrowUp" xlink:href="#dirArrow" transform="translate(30 24)" onmousedown="handlePan(0,-1)">
                  <use xlink:href="#rim" fill="#404040">
                        <set attributeName="fill" to="#808080" begin="arrowUp.mouseover" end="arrowUp.mouseout"/>
                  </use>
                  <path fill="none" stroke="white" stroke-width="1.5" d="M0,-3.0v7 M-2.5,-0.5L0,-3.0L2.5,-0.5"/>
                </g>
                <g id="arrowRight" xlink:href="#dirArrow" transform="rotate(90) translate(36 -43)" onmousedown="handlePan(1,0)">
                  <use xlink:href="#rim" fill="#404040">
                        <set attributeName="fill" to="#808080" begin="arrowRight.mouseover" end="arrowRight.mouseout"/>
                  </use>
                  <path fill="none" stroke="white" stroke-width="1.5" d="M0,-3.0v7 M-2.5,-0.5L0,-3.0L2.5,-0.5"/>
                </g>
                <g id="arrowDown" xlink:href="#dirArrow" transform="rotate(180) translate(-30 -48)" onmousedown="handlePan(0,1)">
                  <use xlink:href="#rim" fill="#404040">
                        <set attributeName="fill" to="#808080" begin="arrowDown.mouseover" end="arrowDown.mouseout"/>
                  </use>
                  <path fill="none" stroke="white" stroke-width="1.5" d="M0,-3.0v7 M-2.5,-0.5L0,-3.0L2.5,-0.5"/>
                </g>
                <g id="arrowLeft" xlink:href="#dirArrow" transform="rotate(270) translate(-36 17)" onmousedown="handlePan(-1,0)">
                  <use xlink:href="#rim" fill="#404040">
                        <set attributeName="fill" to="#808080" begin="arrowLeft.mouseover" end="arrowLeft.mouseout"/>
                  </use>
                  <path fill="none" stroke="white" stroke-width="1.5" d="M0,-3.0v7 M-2.5,-0.5L0,-3.0L2.5,-0.5"/>
                </g>
        </g>
        <svg viewBox="0 0 15 15" width="100%" height="30px" preserveAspectRatio="xMaxYMin meet">
         <g id="arrow_out" transform="scale(0.3 0.3)">
          <a xlink:href="_fixed_gradient_b_c_8cpp__incl_org.svg" target="_base">
           <rect id="button" ry="5" rx="5" y="6" x="6" height="38" width="38"
                fill="#f2f5e9" fill-opacity="0.5" stroke="#606060" stroke-width="1.0"/>
           <path id="arrow"
             d="M 11.500037,31.436501 C 11.940474,20.09759 22.043105,11.32322 32.158766,21.979434 L 37.068811,17.246167 C 37.068811,17.246167 37.088388,32 37.088388,32 L 22.160133,31.978069 C 22.160133,31.978069 26.997745,27.140456 26.997745,27.140456 C 18.528582,18.264221 13.291696,25.230495 11.500037,31.436501 z"
             style="fill:#404040;"/>
          </a>
         </g>
        </svg>
</svg>
