<?xml version="1.0" encoding="UTF-8" standalone="no"?>
<!DOCTYPE svg PUBLIC "-//W3C//DTD SVG 1.1//EN"
 "http://www.w3.org/Graphics/SVG/1.1/DTD/svg11.dtd">
<!-- Generated by graphviz version 2.40.1 (20161225.0304)
 -->
<!-- Title: FixedWing.H Pages: 1 -->
<svg width="142pt" height="140pt"
 viewBox="0.00 0.00 141.50 140.00" xmlns="http://www.w3.org/2000/svg" xmlns:xlink="http://www.w3.org/1999/xlink">
<g id="graph0" class="graph" transform="scale(1 1) rotate(0) translate(4 136)">
<title>FixedWing.H</title>
<polygon fill="#ffffff" stroke="transparent" points="-4,4 -4,-136 137.5,-136 137.5,4 -4,4"/>
<!-- Node25 -->
<g id="node1" class="node">
<title>Node25</title>
<polygon fill="#bfbfbf" stroke="#000000" points="51.5,-112.5 51.5,-131.5 128.5,-131.5 128.5,-112.5 51.5,-112.5"/>
<text text-anchor="middle" x="90" y="-119.5" font-family="Helvetica,sans-Serif" font-size="10.00" fill="#000000">FixedWing.H</text>
</g>
<!-- Node26 -->
<g id="node2" class="node">
<title>Node26</title>
<g id="a_node2"><a xlink:href="fixed__wing__ops_8_h.html" target="_top" xlink:title="fixed_wing_ops.H">
<polygon fill="#ffffff" stroke="#000000" points="0,-56.5 0,-75.5 102,-75.5 102,-56.5 0,-56.5"/>
<text text-anchor="middle" x="51" y="-63.5" font-family="Helvetica,sans-Serif" font-size="10.00" fill="#000000">fixed_wing_ops.H</text>
</a>
</g>
</g>
<!-- Node25&#45;&gt;Node26 -->
<g id="edge1" class="edge">
<title>Node25&#45;&gt;Node26</title>
<path fill="none" stroke="#191970" d="M77.4092,-103.9209C70.8605,-94.5176 63.1176,-83.3997 57.7154,-75.6427"/>
<polygon fill="#191970" stroke="#191970" points="74.6196,-106.0397 83.2067,-112.2455 80.3639,-102.0392 74.6196,-106.0397"/>
</g>
<!-- Node27 -->
<g id="node3" class="node">
<title>Node27</title>
<g id="a_node3"><a xlink:href="_fixed_wing_8cpp.html" target="_top" xlink:title="FixedWing.cpp">
<polygon fill="#ffffff" stroke="#000000" points="46.5,-.5 46.5,-19.5 133.5,-19.5 133.5,-.5 46.5,-.5"/>
<text text-anchor="middle" x="90" y="-7.5" font-family="Helvetica,sans-Serif" font-size="10.00" fill="#000000">FixedWing.cpp</text>
</a>
</g>
</g>
<!-- Node25&#45;&gt;Node27 -->
<g id="edge3" class="edge">
<title>Node25&#45;&gt;Node27</title>
<path fill="none" stroke="#191970" d="M101.425,-103.3805C108.0874,-90.2971 114.5429,-72.2918 111,-56 108.1271,-42.7892 101.1112,-28.8263 95.9765,-19.7968"/>
<polygon fill="#191970" stroke="#191970" points="98.2567,-101.8761 96.452,-112.3161 104.3733,-105.2802 98.2567,-101.8761"/>
</g>
<!-- Node26&#45;&gt;Node27 -->
<g id="edge2" class="edge">
<title>Node26&#45;&gt;Node27</title>
<path fill="none" stroke="#191970" d="M63.5908,-47.9209C70.1395,-38.5176 77.8824,-27.3997 83.2846,-19.6427"/>
<polygon fill="#191970" stroke="#191970" points="60.6361,-46.0392 57.7933,-56.2455 66.3804,-50.0397 60.6361,-46.0392"/>
</g>
</g>
</svg>
