<?xml version="1.0" encoding="UTF-8" standalone="no"?>
<!DOCTYPE svg PUBLIC "-//W3C//DTD SVG 1.1//EN"
 "http://www.w3.org/Graphics/SVG/1.1/DTD/svg11.dtd">
<!-- Generated by graphviz version 2.40.1 (20161225.0304)
 -->
<!-- Title: FlatPlate.H Pages: 1 -->
<!--zoomable 464 -->
<svg id="main" version="1.1" xmlns="http://www.w3.org/2000/svg" xmlns:xlink="http://www.w3.org/1999/xlink" xml:space="preserve" onload="init(evt)">
<style type="text/css"><![CDATA[
.edge:hover path { stroke: red; }
.edge:hover polygon { stroke: red; fill: red; }
]]></style>
<script type="text/javascript"><![CDATA[
var edges = document.getElementsByTagName('g');
if (edges && edges.length) {
  for (var i=0;i<edges.length;i++) {
    if (edges[i].id.substr(0,4)=='edge') {
      edges[i].setAttribute('class','edge');
    }
  }
}
]]></script>
        <defs>
                <circle id="rim" cx="0" cy="0" r="7"/>
                <circle id="rim2" cx="0" cy="0" r="3.5"/>
                <g id="zoomPlus">
                        <use xlink:href="#rim" fill="#404040">
                                <set attributeName="fill" to="#808080" begin="zoomplus.mouseover" end="zoomplus.mouseout"/>
                        </use>
                        <path d="M-4,0h8M0,-4v8" fill="none" stroke="white" stroke-width="1.5" pointer-events="none"/>
                </g>
                <g id="zoomMin">
                        <use xlink:href="#rim" fill="#404040">
                                <set attributeName="fill" to="#808080" begin="zoomminus.mouseover" end="zoomminus.mouseout"/>
                        </use>
                        <path d="M-4,0h8" fill="none" stroke="white" stroke-width="1.5" pointer-events="none"/>
                </g>
                <g id="dirArrow">
                        <path fill="none" stroke="white" stroke-width="1.5" d="M0,-3.0v7 M-2.5,-0.5L0,-3.0L2.5,-0.5"/>
                </g>
               <g id="resetDef">
                       <use xlink:href="#rim2" fill="#404040">
                               <set attributeName="fill" to="#808080" begin="reset.mouseover" end="reset.mouseout"/>
                       </use>
               </g>
        </defs>

<script type="text/javascript">
var viewWidth = 988;
var viewHeight = 464;
var sectionId = 'dynsection-0';
</script>
<script xlink:href="svgpan.js"/>
<svg id="graph" class="graph">
<g id="viewport">
<title>FlatPlate.H</title>
<polygon fill="#ffffff" stroke="transparent" points="-4,4 -4,-460 984,-460 984,4 -4,4"/>
<!-- Node0 -->
<g id="node1" class="node">
<title>Node0</title>
<polygon fill="#bfbfbf" stroke="#000000" points="629,-436.5 629,-455.5 699,-455.5 699,-436.5 629,-436.5"/>
<text text-anchor="middle" x="664" y="-443.5" font-family="Helvetica,sans-Serif" font-size="10.00" fill="#000000">FlatPlate.H</text>
</g>
<!-- Node1 -->
<g id="node2" class="node">
<title>Node1</title>
<g id="a_node2"><a xlink:href="_actuator_wing_8_h.html" target="_top" xlink:title="amr&#45;wind/wind_energy\l/actuator/wing/ActuatorWing.H">
<polygon fill="#ffffff" stroke="#000000" points="492,-369.5 492,-399.5 658,-399.5 658,-369.5 492,-369.5"/>
<text text-anchor="start" x="500" y="-387.5" font-family="Helvetica,sans-Serif" font-size="10.00" fill="#000000">amr&#45;wind/wind_energy</text>
<text text-anchor="middle" x="575" y="-376.5" font-family="Helvetica,sans-Serif" font-size="10.00" fill="#000000">/actuator/wing/ActuatorWing.H</text>
</a>
</g>
</g>
<!-- Node0&#45;&gt;Node1 -->
<g id="edge1" class="edge">
<title>Node0&#45;&gt;Node1</title>
<path fill="none" stroke="#191970" d="M650.0938,-436.3906C638.1602,-428.1444 620.5374,-415.9669 605.3623,-405.4807"/>
<polygon fill="#191970" stroke="#191970" points="606.9885,-402.3501 596.7718,-399.5446 603.0091,-408.1089 606.9885,-402.3501"/>
</g>
<!-- Node21 -->
<g id="node22" class="node">
<title>Node21</title>
<g id="a_node22"><a xlink:href="_airfoil_table_8_h.html" target="_top" xlink:title="amr&#45;wind/wind_energy\l/actuator/aero/AirfoilTable.H">
<polygon fill="#ffffff" stroke="#000000" points="688.5,-369.5 688.5,-399.5 841.5,-399.5 841.5,-369.5 688.5,-369.5"/>
<text text-anchor="start" x="696.5" y="-387.5" font-family="Helvetica,sans-Serif" font-size="10.00" fill="#000000">amr&#45;wind/wind_energy</text>
<text text-anchor="middle" x="765" y="-376.5" font-family="Helvetica,sans-Serif" font-size="10.00" fill="#000000">/actuator/aero/AirfoilTable.H</text>
</a>
</g>
</g>
<!-- Node0&#45;&gt;Node21 -->
<g id="edge33" class="edge">
<title>Node0&#45;&gt;Node21</title>
<path fill="none" stroke="#191970" d="M679.7813,-436.3906C693.5769,-427.9903 714.0726,-415.5103 731.5066,-404.8945"/>
<polygon fill="#191970" stroke="#191970" points="733.5717,-407.7349 740.2926,-399.5446 729.9311,-401.756 733.5717,-407.7349"/>
</g>
<!-- Node2 -->
<g id="node3" class="node">
<title>Node2</title>
<g id="a_node3"><a xlink:href="actuator__types_8_h.html" target="_top" xlink:title="amr&#45;wind/wind_energy\l/actuator/actuator_types.H">
<polygon fill="#ffffff" stroke="#000000" points="478,-302.5 478,-332.5 624,-332.5 624,-302.5 478,-302.5"/>
<text text-anchor="start" x="486" y="-320.5" font-family="Helvetica,sans-Serif" font-size="10.00" fill="#000000">amr&#45;wind/wind_energy</text>
<text text-anchor="middle" x="551" y="-309.5" font-family="Helvetica,sans-Serif" font-size="10.00" fill="#000000">/actuator/actuator_types.H</text>
</a>
</g>
</g>
<!-- Node1&#45;&gt;Node2 -->
<g id="edge2" class="edge">
<title>Node1&#45;&gt;Node2</title>
<path fill="none" stroke="#191970" d="M569.554,-369.2967C566.7003,-361.3299 563.1332,-351.3718 559.8912,-342.3213"/>
<polygon fill="#191970" stroke="#191970" points="563.0917,-340.8771 556.4244,-332.6432 556.5018,-343.2377 563.0917,-340.8771"/>
</g>
<!-- Node7 -->
<g id="node8" class="node">
<title>Node7</title>
<g id="a_node8"><a xlink:href="vector__space_8_h.html" target="_top" xlink:title="amr&#45;wind/core/vs/vector\l_space.H">
<polygon fill="#ffffff" stroke="#000000" points="279,-235.5 279,-265.5 413,-265.5 413,-235.5 279,-235.5"/>
<text text-anchor="start" x="287" y="-253.5" font-family="Helvetica,sans-Serif" font-size="10.00" fill="#000000">amr&#45;wind/core/vs/vector</text>
<text text-anchor="middle" x="346" y="-242.5" font-family="Helvetica,sans-Serif" font-size="10.00" fill="#000000">_space.H</text>
</a>
</g>
</g>
<!-- Node1&#45;&gt;Node7 -->
<g id="edge31" class="edge">
<title>Node1&#45;&gt;Node7</title>
<path fill="none" stroke="#191970" d="M540.9654,-369.4272C519.8668,-359.727 492.4165,-346.4552 469,-333 435.6952,-313.8629 399.3758,-288.9674 374.9011,-271.5506"/>
<polygon fill="#191970" stroke="#191970" points="376.9308,-268.6993 366.7624,-265.7237 372.8558,-274.3909 376.9308,-268.6993"/>
</g>
<!-- Node20 -->
<g id="node21" class="node">
<title>Node20</title>
<polygon fill="#ffffff" stroke="#bfbfbf" points="860,-241 860,-260 904,-260 904,-241 860,-241"/>
<text text-anchor="middle" x="882" y="-248" font-family="Helvetica,sans-Serif" font-size="10.00" fill="#000000">string</text>
</g>
<!-- Node1&#45;&gt;Node20 -->
<g id="edge32" class="edge">
<title>Node1&#45;&gt;Node20</title>
<path fill="none" stroke="#191970" d="M592.4429,-369.1413C618.8775,-345.919 666.5044,-304.31 671,-302 672.011,-301.4805 791.3222,-272.4979 850.0616,-258.2457"/>
<polygon fill="#191970" stroke="#191970" points="851.0553,-261.6062 859.9482,-255.8472 849.4049,-254.8036 851.0553,-261.6062"/>
</g>
<!-- Node3 -->
<g id="node4" class="node">
<title>Node3</title>
<g id="a_node4"><a xlink:href="_slice_8_h.html" target="_top" xlink:title="amr&#45;wind/core/Slice.H">
<polygon fill="#ffffff" stroke="#000000" points="605.5,-241 605.5,-260 728.5,-260 728.5,-241 605.5,-241"/>
<text text-anchor="middle" x="667" y="-248" font-family="Helvetica,sans-Serif" font-size="10.00" fill="#000000">amr&#45;wind/core/Slice.H</text>
</a>
</g>
</g>
<!-- Node2&#45;&gt;Node3 -->
<g id="edge3" class="edge">
<title>Node2&#45;&gt;Node3</title>
<path fill="none" stroke="#191970" d="M577.0327,-302.4639C596.3206,-291.3234 622.4678,-276.2212 641.6028,-265.1691"/>
<polygon fill="#191970" stroke="#191970" points="643.4635,-268.1363 650.3723,-260.1039 639.9624,-262.0747 643.4635,-268.1363"/>
</g>
<!-- Node6 -->
<g id="node7" class="node">
<title>Node6</title>
<polygon fill="#ffffff" stroke="#bfbfbf" points="499,-.5 499,-19.5 585,-19.5 585,-.5 499,-.5"/>
<text text-anchor="middle" x="542" y="-7.5" font-family="Helvetica,sans-Serif" font-size="10.00" fill="#000000">AMReX_Gpu.H</text>
</g>
<!-- Node2&#45;&gt;Node6 -->
<g id="edge28" class="edge">
<title>Node2&#45;&gt;Node6</title>
<path fill="none" stroke="#191970" d="M621.621,-302.3951C665.6797,-292.1275 717.5834,-278.2389 737,-266 775.3762,-241.8103 804,-234.3638 804,-189 804,-189 804,-189 804,-133 804,-86.3526 666.1912,-42.6708 590.4653,-22.1889"/>
<polygon fill="#191970" stroke="#191970" points="591.2233,-18.7688 580.659,-19.5723 589.4186,-25.5322 591.2233,-18.7688"/>
</g>
<!-- Node2&#45;&gt;Node7 -->
<g id="edge7" class="edge">
<title>Node2&#45;&gt;Node7</title>
<path fill="none" stroke="#191970" d="M504.994,-302.4639C474.5043,-292.499 434.3159,-279.3642 401.9729,-268.7936"/>
<polygon fill="#191970" stroke="#191970" points="402.7992,-265.3815 392.2067,-265.6017 400.6246,-272.0352 402.7992,-265.3815"/>
</g>
<!-- Node18 -->
<g id="node19" class="node">
<title>Node18</title>
<polygon fill="#ffffff" stroke="#bfbfbf" points="431,-241 431,-260 537,-260 537,-241 431,-241"/>
<text text-anchor="middle" x="484" y="-248" font-family="Helvetica,sans-Serif" font-size="10.00" fill="#000000">AMReX_RealBox.H</text>
</g>
<!-- Node2&#45;&gt;Node18 -->
<g id="edge29" class="edge">
<title>Node2&#45;&gt;Node18</title>
<path fill="none" stroke="#191970" d="M535.7967,-302.2967C525.3578,-291.8578 511.4997,-277.9997 500.7446,-267.2446"/>
<polygon fill="#191970" stroke="#191970" points="503.101,-264.6512 493.555,-260.055 498.1512,-269.601 503.101,-264.6512"/>
</g>
<!-- Node19 -->
<g id="node20" class="node">
<title>Node19</title>
<polygon fill="#ffffff" stroke="#bfbfbf" points="555,-241 555,-260 587,-260 587,-241 555,-241"/>
<text text-anchor="middle" x="571" y="-248" font-family="Helvetica,sans-Serif" font-size="10.00" fill="#000000">set</text>
</g>
<!-- Node2&#45;&gt;Node19 -->
<g id="edge30" class="edge">
<title>Node2&#45;&gt;Node19</title>
<path fill="none" stroke="#191970" d="M555.5383,-302.2967C558.4124,-292.6685 562.1547,-280.1318 565.2377,-269.8038"/>
<polygon fill="#191970" stroke="#191970" points="568.6411,-270.6383 568.1478,-260.055 561.9336,-268.636 568.6411,-270.6383"/>
</g>
<!-- Node4 -->
<g id="node5" class="node">
<title>Node4</title>
<polygon fill="#ffffff" stroke="#bfbfbf" points="722.5,-179.5 722.5,-198.5 775.5,-198.5 775.5,-179.5 722.5,-179.5"/>
<text text-anchor="middle" x="749" y="-186.5" font-family="Helvetica,sans-Serif" font-size="10.00" fill="#000000">iterator</text>
</g>
<!-- Node3&#45;&gt;Node4 -->
<g id="edge4" class="edge">
<title>Node3&#45;&gt;Node4</title>
<path fill="none" stroke="#191970" d="M679.8125,-240.8906C692.6901,-231.2324 712.7584,-216.1812 727.972,-204.771"/>
<polygon fill="#191970" stroke="#191970" points="730.3775,-207.3419 736.2775,-198.5419 726.1774,-201.7419 730.3775,-207.3419"/>
</g>
<!-- Node5 -->
<g id="node6" class="node">
<title>Node5</title>
<polygon fill="#ffffff" stroke="#bfbfbf" points="608,-179.5 608,-198.5 704,-198.5 704,-179.5 608,-179.5"/>
<text text-anchor="middle" x="656" y="-186.5" font-family="Helvetica,sans-Serif" font-size="10.00" fill="#000000">AMReX_Vector.H</text>
</g>
<!-- Node3&#45;&gt;Node5 -->
<g id="edge5" class="edge">
<title>Node3&#45;&gt;Node5</title>
<path fill="none" stroke="#191970" d="M665.2813,-240.8906C663.7565,-232.3657 661.4802,-219.6392 659.5636,-208.9235"/>
<polygon fill="#191970" stroke="#191970" points="662.9491,-207.9724 657.743,-198.7449 656.0584,-209.2049 662.9491,-207.9724"/>
</g>
<!-- Node3&#45;&gt;Node6 -->
<g id="edge6" class="edge">
<title>Node3&#45;&gt;Node6</title>
<path fill="none" stroke="#191970" d="M648.5099,-240.8805C633.1331,-231.9766 611.7693,-217.3575 599,-199 561.5623,-145.1784 548.2474,-66.2583 543.9084,-29.8029"/>
<polygon fill="#191970" stroke="#191970" points="547.3537,-29.1088 542.7958,-19.5445 540.3945,-29.8636 547.3537,-29.1088"/>
</g>
<!-- Node8 -->
<g id="node9" class="node">
<title>Node8</title>
<g id="a_node9"><a xlink:href="vector_8_h.html" target="_top" xlink:title="amr&#45;wind/core/vs/vector.H">
<polygon fill="#ffffff" stroke="#000000" points="129,-123.5 129,-142.5 273,-142.5 273,-123.5 129,-123.5"/>
<text text-anchor="middle" x="201" y="-130.5" font-family="Helvetica,sans-Serif" font-size="10.00" fill="#000000">amr&#45;wind/core/vs/vector.H</text>
</a>
</g>
</g>
<!-- Node7&#45;&gt;Node8 -->
<g id="edge8" class="edge">
<title>Node7&#45;&gt;Node8</title>
<path fill="none" stroke="#191970" d="M327.3406,-235.3795C299.8908,-213.1356 248.8505,-171.7754 220.7763,-149.0256"/>
<polygon fill="#191970" stroke="#191970" points="222.8254,-146.1812 212.8525,-142.6046 218.4183,-151.6198 222.8254,-146.1812"/>
</g>
<!-- Node15 -->
<g id="node16" class="node">
<title>Node15</title>
<g id="a_node16"><a xlink:href="tensor_8_h.html" target="_top" xlink:title="amr&#45;wind/core/vs/tensor.H">
<polygon fill="#ffffff" stroke="#000000" points="319,-179.5 319,-198.5 463,-198.5 463,-179.5 319,-179.5"/>
<text text-anchor="middle" x="391" y="-186.5" font-family="Helvetica,sans-Serif" font-size="10.00" fill="#000000">amr&#45;wind/core/vs/tensor.H</text>
</a>
</g>
</g>
<!-- Node7&#45;&gt;Node15 -->
<g id="edge17" class="edge">
<title>Node7&#45;&gt;Node15</title>
<path fill="none" stroke="#191970" d="M357.1236,-235.2977C363.3701,-226.7609 371.204,-216.0545 377.7647,-207.0883"/>
<polygon fill="#191970" stroke="#191970" points="380.7144,-208.984 383.7949,-198.8469 375.0652,-204.8505 380.7144,-208.984"/>
</g>
<!-- Node8&#45;&gt;Node6 -->
<g id="edge9" class="edge">
<title>Node8&#45;&gt;Node6</title>
<path fill="none" stroke="#191970" d="M273.1096,-127.5219C345.2506,-120.9553 450.3401,-108.1106 485,-87 507.6523,-73.203 524.2013,-46.7163 533.4608,-28.703"/>
<polygon fill="#191970" stroke="#191970" points="536.6128,-30.2245 537.8476,-19.7018 530.3203,-27.1578 536.6128,-30.2245"/>
</g>
<!-- Node9 -->
<g id="node10" class="node">
<title>Node9</title>
<g id="a_node10"><a xlink:href="vstraits_8_h.html" target="_top" xlink:title="amr&#45;wind/core/vs/vstraits.H">
<polygon fill="#ffffff" stroke="#000000" points="166.5,-62 166.5,-81 317.5,-81 317.5,-62 166.5,-62"/>
<text text-anchor="middle" x="242" y="-69" font-family="Helvetica,sans-Serif" font-size="10.00" fill="#000000">amr&#45;wind/core/vs/vstraits.H</text>
</a>
</g>
</g>
<!-- Node8&#45;&gt;Node9 -->
<g id="edge10" class="edge">
<title>Node8&#45;&gt;Node9</title>
<path fill="none" stroke="#191970" d="M207.4063,-123.3906C213.3886,-114.417 222.4747,-100.7879 229.8339,-89.7491"/>
<polygon fill="#191970" stroke="#191970" points="232.8686,-91.5068 235.5034,-81.2449 227.0442,-87.6239 232.8686,-91.5068"/>
</g>
<!-- Node12 -->
<g id="node13" class="node">
<title>Node12</title>
<g id="a_node13"><a xlink:href="vector_i_8_h.html" target="_top" xlink:title="amr&#45;wind/core/vs/vectorI.H">
<polygon fill="#ffffff" stroke="#000000" points="0,-62 0,-81 148,-81 148,-62 0,-62"/>
<text text-anchor="middle" x="74" y="-69" font-family="Helvetica,sans-Serif" font-size="10.00" fill="#000000">amr&#45;wind/core/vs/vectorI.H</text>
</a>
</g>
</g>
<!-- Node8&#45;&gt;Node12 -->
<g id="edge13" class="edge">
<title>Node8&#45;&gt;Node12</title>
<path fill="none" stroke="#191970" d="M176.0938,-123.3906C153.2445,-113.2811 119.9229,-97.2628 97.5237,-85.6962"/>
<polygon fill="#191970" stroke="#191970" points="99.1363,-82.5899 88.6551,-81.0419 95.8833,-88.7881 99.1363,-82.5899"/>
</g>
<!-- Node10 -->
<g id="node11" class="node">
<title>Node10</title>
<polygon fill="#ffffff" stroke="#bfbfbf" points="220,-.5 220,-19.5 264,-19.5 264,-.5 220,-.5"/>
<text text-anchor="middle" x="242" y="-7.5" font-family="Helvetica,sans-Serif" font-size="10.00" fill="#000000">limits</text>
</g>
<!-- Node9&#45;&gt;Node10 -->
<g id="edge11" class="edge">
<title>Node9&#45;&gt;Node10</title>
<path fill="none" stroke="#191970" d="M242,-61.8906C242,-53.3657 242,-40.6392 242,-29.9235"/>
<polygon fill="#191970" stroke="#191970" points="245.5001,-29.7448 242,-19.7449 238.5001,-29.7449 245.5001,-29.7448"/>
</g>
<!-- Node11 -->
<g id="node12" class="node">
<title>Node11</title>
<polygon fill="#ffffff" stroke="#bfbfbf" points="379.5,-.5 379.5,-19.5 470.5,-19.5 470.5,-.5 379.5,-.5"/>
<text text-anchor="middle" x="425" y="-7.5" font-family="Helvetica,sans-Serif" font-size="10.00" fill="#000000">AMReX_REAL.H</text>
</g>
<!-- Node9&#45;&gt;Node11 -->
<g id="edge12" class="edge">
<title>Node9&#45;&gt;Node11</title>
<path fill="none" stroke="#191970" d="M270.5938,-61.8906C301.8845,-51.3749 352.1986,-34.466 386.84,-22.8243"/>
<polygon fill="#191970" stroke="#191970" points="388.243,-26.0452 396.607,-19.5419 386.013,-19.4099 388.243,-26.0452"/>
</g>
<!-- Node12&#45;&gt;Node8 -->
<g id="edge16" class="edge">
<title>Node12&#45;&gt;Node8</title>
<path fill="none" stroke="#191970" d="M98.7537,-81.0419C121.5562,-91.1251 154.8787,-107.1401 177.3265,-118.7264"/>
<polygon fill="#191970" stroke="#191970" points="175.7372,-121.845 186.2188,-123.3906 178.9888,-115.646 175.7372,-121.845"/>
</g>
<!-- Node13 -->
<g id="node14" class="node">
<title>Node13</title>
<polygon fill="#ffffff" stroke="#bfbfbf" points="45.5,-.5 45.5,-19.5 102.5,-19.5 102.5,-.5 45.5,-.5"/>
<text text-anchor="middle" x="74" y="-7.5" font-family="Helvetica,sans-Serif" font-size="10.00" fill="#000000">ostream</text>
</g>
<!-- Node12&#45;&gt;Node13 -->
<g id="edge14" class="edge">
<title>Node12&#45;&gt;Node13</title>
<path fill="none" stroke="#191970" d="M74,-61.8906C74,-53.3657 74,-40.6392 74,-29.9235"/>
<polygon fill="#191970" stroke="#191970" points="77.5001,-29.7448 74,-19.7449 70.5001,-29.7449 77.5001,-29.7448"/>
</g>
<!-- Node14 -->
<g id="node15" class="node">
<title>Node14</title>
<polygon fill="#ffffff" stroke="#bfbfbf" points="314.5,-.5 314.5,-19.5 361.5,-19.5 361.5,-.5 314.5,-.5"/>
<text text-anchor="middle" x="338" y="-7.5" font-family="Helvetica,sans-Serif" font-size="10.00" fill="#000000">cmath</text>
</g>
<!-- Node12&#45;&gt;Node14 -->
<g id="edge15" class="edge">
<title>Node12&#45;&gt;Node14</title>
<path fill="none" stroke="#191970" d="M114.9603,-61.9581C167.0429,-49.8252 255.9937,-29.1037 304.3289,-17.8438"/>
<polygon fill="#191970" stroke="#191970" points="305.337,-21.2028 314.2821,-15.5252 303.7488,-14.3853 305.337,-21.2028"/>
</g>
<!-- Node15&#45;&gt;Node6 -->
<g id="edge18" class="edge">
<title>Node15&#45;&gt;Node6</title>
<path fill="none" stroke="#191970" d="M422.727,-179.45C442.8243,-172.1045 468.2736,-160.256 486,-143 518.3308,-111.5273 532.8871,-58.5144 538.6768,-29.8439"/>
<polygon fill="#191970" stroke="#191970" points="542.1535,-30.2918 540.5401,-19.8205 535.2714,-29.0124 542.1535,-30.2918"/>
</g>
<!-- Node15&#45;&gt;Node8 -->
<g id="edge20" class="edge">
<title>Node15&#45;&gt;Node8</title>
<path fill="none" stroke="#191970" d="M358.3378,-179.3733C326.4702,-169.9807 277.8469,-155.6496 243.093,-145.4064"/>
<polygon fill="#191970" stroke="#191970" points="243.8175,-141.9711 233.236,-142.5011 241.8385,-148.6855 243.8175,-141.9711"/>
</g>
<!-- Node15&#45;&gt;Node9 -->
<g id="edge19" class="edge">
<title>Node15&#45;&gt;Node9</title>
<path fill="none" stroke="#191970" d="M374.4,-179.33C359.6634,-170.495 337.7742,-156.7496 320,-143 297.7281,-125.771 274.1634,-103.5406 258.8387,-88.4748"/>
<polygon fill="#191970" stroke="#191970" points="261.1888,-85.876 251.6265,-81.3138 256.2567,-90.8434 261.1888,-85.876"/>
</g>
<!-- Node16 -->
<g id="node17" class="node">
<title>Node16</title>
<g id="a_node17"><a xlink:href="tensor_i_8_h.html" target="_top" xlink:title="amr&#45;wind/core/vs/tensorI.H">
<polygon fill="#ffffff" stroke="#000000" points="329,-123.5 329,-142.5 477,-142.5 477,-123.5 329,-123.5"/>
<text text-anchor="middle" x="403" y="-130.5" font-family="Helvetica,sans-Serif" font-size="10.00" fill="#000000">amr&#45;wind/core/vs/tensorI.H</text>
</a>
</g>
</g>
<!-- Node15&#45;&gt;Node16 -->
<g id="edge21" class="edge">
<title>Node15&#45;&gt;Node16</title>
<path fill="none" stroke="#191970" d="M387.8234,-179.2455C387.9816,-171.7776 389.8486,-161.2427 392.4659,-152.1137"/>
<polygon fill="#191970" stroke="#191970" points="395.7806,-153.2371 395.6886,-142.6427 389.1538,-150.9822 395.7806,-153.2371"/>
</g>
<!-- Node16&#45;&gt;Node14 -->
<g id="edge22" class="edge">
<title>Node16&#45;&gt;Node14</title>
<path fill="none" stroke="#191970" d="M393.113,-123.1819C384.6846,-114.3576 372.7393,-100.7118 365,-87 354.6467,-68.657 347.2118,-45.6463 342.7979,-29.5779"/>
<polygon fill="#191970" stroke="#191970" points="346.134,-28.5001 340.2259,-19.7055 339.3601,-30.2649 346.134,-28.5001"/>
</g>
<!-- Node16&#45;&gt;Node15 -->
<g id="edge23" class="edge">
<title>Node16&#45;&gt;Node15</title>
<path fill="none" stroke="#191970" d="M406.1789,-142.6427C406.0377,-150.0798 404.1831,-160.6064 401.5733,-169.7493"/>
<polygon fill="#191970" stroke="#191970" points="398.25,-168.6512 398.3571,-179.2455 404.88,-170.8968 398.25,-168.6512"/>
</g>
<!-- Node17 -->
<g id="node18" class="node">
<title>Node17</title>
<g id="a_node18"><a xlink:href="trig__ops_8_h.html" target="_top" xlink:title="Trigonometric utilities. ">
<polygon fill="#ffffff" stroke="#000000" points="374,-56.5 374,-86.5 476,-86.5 476,-56.5 374,-56.5"/>
<text text-anchor="start" x="382" y="-74.5" font-family="Helvetica,sans-Serif" font-size="10.00" fill="#000000">amr&#45;wind/utilities</text>
<text text-anchor="middle" x="425" y="-63.5" font-family="Helvetica,sans-Serif" font-size="10.00" fill="#000000">/trig_ops.H</text>
</a>
</g>
</g>
<!-- Node16&#45;&gt;Node17 -->
<g id="edge24" class="edge">
<title>Node16&#45;&gt;Node17</title>
<path fill="none" stroke="#191970" d="M406.4375,-123.3906C409.0565,-116.0692 412.7842,-105.6488 416.2126,-96.0647"/>
<polygon fill="#191970" stroke="#191970" points="419.5454,-97.1392 419.6182,-86.5446 412.9544,-94.7814 419.5454,-97.1392"/>
</g>
<!-- Node17&#45;&gt;Node6 -->
<g id="edge27" class="edge">
<title>Node17&#45;&gt;Node6</title>
<path fill="none" stroke="#191970" d="M453.6214,-56.4554C472.287,-46.644 496.4999,-33.9167 514.8612,-24.2653"/>
<polygon fill="#191970" stroke="#191970" points="516.646,-27.2812 523.8692,-19.5303 513.389,-21.0851 516.646,-27.2812"/>
</g>
<!-- Node17&#45;&gt;Node11 -->
<g id="edge26" class="edge">
<title>Node17&#45;&gt;Node11</title>
<path fill="none" stroke="#191970" d="M425,-56.2977C425,-48.3834 425,-38.6043 425,-30.0759"/>
<polygon fill="#191970" stroke="#191970" points="428.5001,-29.8469 425,-19.8469 421.5001,-29.847 428.5001,-29.8469"/>
</g>
<!-- Node17&#45;&gt;Node14 -->
<g id="edge25" class="edge">
<title>Node17&#45;&gt;Node14</title>
<path fill="none" stroke="#191970" d="M403.4944,-56.2977C390.2032,-46.9022 373.1943,-34.8787 359.8412,-25.4395"/>
<polygon fill="#191970" stroke="#191970" points="361.8561,-22.5776 351.67,-19.6633 357.8154,-28.2937 361.8561,-22.5776"/>
</g>
<!-- Node21&#45;&gt;Node2 -->
<g id="edge34" class="edge">
<title>Node21&#45;&gt;Node2</title>
<path fill="none" stroke="#191970" d="M716.9742,-369.4639C685.0088,-359.456 642.8314,-346.2509 608.9941,-335.657"/>
<polygon fill="#191970" stroke="#191970" points="609.8242,-332.2495 599.2352,-332.6017 607.7327,-338.9297 609.8242,-332.2495"/>
</g>
<!-- Node22 -->
<g id="node23" class="node">
<title>Node22</title>
<polygon fill="#ffffff" stroke="#bfbfbf" points="680.5,-308 680.5,-327 729.5,-327 729.5,-308 680.5,-308"/>
<text text-anchor="middle" x="705" y="-315" font-family="Helvetica,sans-Serif" font-size="10.00" fill="#000000">iosfwd</text>
</g>
<!-- Node21&#45;&gt;Node22 -->
<g id="edge35" class="edge">
<title>Node21&#45;&gt;Node22</title>
<path fill="none" stroke="#191970" d="M751.3851,-369.2967C742.1276,-358.9591 729.8673,-345.2684 720.2765,-334.5588"/>
<polygon fill="#191970" stroke="#191970" points="722.8353,-332.1696 713.5567,-327.055 717.6206,-336.8394 722.8353,-332.1696"/>
</g>
<!-- Node23 -->
<g id="node24" class="node">
<title>Node23</title>
<polygon fill="#ffffff" stroke="#bfbfbf" points="748,-308 748,-327 806,-327 806,-308 748,-308"/>
<text text-anchor="middle" x="777" y="-315" font-family="Helvetica,sans-Serif" font-size="10.00" fill="#000000">memory</text>
</g>
<!-- Node21&#45;&gt;Node23 -->
<g id="edge36" class="edge">
<title>Node21&#45;&gt;Node23</title>
<path fill="none" stroke="#191970" d="M767.723,-369.2967C769.4293,-359.7699 771.6456,-347.3954 773.4841,-337.1306"/>
<polygon fill="#191970" stroke="#191970" points="776.9708,-337.5154 775.2887,-327.055 770.0804,-336.2813 776.9708,-337.5154"/>
</g>
<!-- Node24 -->
<g id="node25" class="node">
<title>Node24</title>
<g id="a_node25"><a xlink:href="_airfoil_table_i_8_h.html" target="_top" xlink:title="amr&#45;wind/wind_energy\l/actuator/aero/AirfoilTableI.H">
<polygon fill="#ffffff" stroke="#000000" points="824,-302.5 824,-332.5 980,-332.5 980,-302.5 824,-302.5"/>
<text text-anchor="start" x="832" y="-320.5" font-family="Helvetica,sans-Serif" font-size="10.00" fill="#000000">amr&#45;wind/wind_energy</text>
<text text-anchor="middle" x="902" y="-309.5" font-family="Helvetica,sans-Serif" font-size="10.00" fill="#000000">/actuator/aero/AirfoilTableI.H</text>
</a>
</g>
</g>
<!-- Node21&#45;&gt;Node24 -->
<g id="edge37" class="edge">
<title>Node21&#45;&gt;Node24</title>
<path fill="none" stroke="#191970" d="M790.0049,-369.4639C808.503,-359.8426 834.0697,-347.2663 856.1521,-336.896"/>
<polygon fill="#191970" stroke="#191970" points="857.7847,-339.9967 865.3719,-332.6017 854.8292,-333.6512 857.7847,-339.9967"/>
</g>
<!-- Node24&#45;&gt;Node20 -->
<g id="edge39" class="edge">
<title>Node24&#45;&gt;Node20</title>
<path fill="none" stroke="#191970" d="M897.4617,-302.2967C894.5876,-292.6685 890.8453,-280.1318 887.7623,-269.8038"/>
<polygon fill="#191970" stroke="#191970" points="891.0664,-268.636 884.8522,-260.055 884.3589,-270.6383 891.0664,-268.636"/>
</g>
<!-- Node24&#45;&gt;Node21 -->
<g id="edge38" class="edge">
<title>Node24&#45;&gt;Node21</title>
<path fill="none" stroke="#191970" d="M876.6457,-332.7177C858.1245,-342.3421 832.65,-354.8685 810.6644,-365.1902"/>
<polygon fill="#191970" stroke="#191970" points="809.074,-362.0698 801.486,-369.4639 812.0289,-368.4156 809.074,-362.0698"/>
</g>
</g>
</svg>
        <g id="navigator" transform="translate(0 0)" fill="#404254">
                <rect fill="#f2f5e9" fill-opacity="0.5" stroke="#606060" stroke-width=".5" x="0" y="0" width="60" height="60"/>
                <use id="zoomplus" xlink:href="#zoomPlus" x="17" y="9" onmousedown="handleZoom(evt,'in')"/>
                <use id="zoomminus" xlink:href="#zoomMin" x="42" y="9" onmousedown="handleZoom(evt,'out')"/>
                <use id="reset" xlink:href="#resetDef" x="30" y="36" onmousedown="handleReset()"/>
                <g id="arrowUp" xlink:href="#dirArrow" transform="translate(30 24)" onmousedown="handlePan(0,-1)">
                  <use xlink:href="#rim" fill="#404040">
                        <set attributeName="fill" to="#808080" begin="arrowUp.mouseover" end="arrowUp.mouseout"/>
                  </use>
                  <path fill="none" stroke="white" stroke-width="1.5" d="M0,-3.0v7 M-2.5,-0.5L0,-3.0L2.5,-0.5"/>
                </g>
                <g id="arrowRight" xlink:href="#dirArrow" transform="rotate(90) translate(36 -43)" onmousedown="handlePan(1,0)">
                  <use xlink:href="#rim" fill="#404040">
                        <set attributeName="fill" to="#808080" begin="arrowRight.mouseover" end="arrowRight.mouseout"/>
                  </use>
                  <path fill="none" stroke="white" stroke-width="1.5" d="M0,-3.0v7 M-2.5,-0.5L0,-3.0L2.5,-0.5"/>
                </g>
                <g id="arrowDown" xlink:href="#dirArrow" transform="rotate(180) translate(-30 -48)" onmousedown="handlePan(0,1)">
                  <use xlink:href="#rim" fill="#404040">
                        <set attributeName="fill" to="#808080" begin="arrowDown.mouseover" end="arrowDown.mouseout"/>
                  </use>
                  <path fill="none" stroke="white" stroke-width="1.5" d="M0,-3.0v7 M-2.5,-0.5L0,-3.0L2.5,-0.5"/>
                </g>
                <g id="arrowLeft" xlink:href="#dirArrow" transform="rotate(270) translate(-36 17)" onmousedown="handlePan(-1,0)">
                  <use xlink:href="#rim" fill="#404040">
                        <set attributeName="fill" to="#808080" begin="arrowLeft.mouseover" end="arrowLeft.mouseout"/>
                  </use>
                  <path fill="none" stroke="white" stroke-width="1.5" d="M0,-3.0v7 M-2.5,-0.5L0,-3.0L2.5,-0.5"/>
                </g>
        </g>
        <svg viewBox="0 0 15 15" width="100%" height="30px" preserveAspectRatio="xMaxYMin meet">
         <g id="arrow_out" transform="scale(0.3 0.3)">
          <a xlink:href="_flat_plate_8_h__incl_org.svg" target="_base">
           <rect id="button" ry="5" rx="5" y="6" x="6" height="38" width="38"
                fill="#f2f5e9" fill-opacity="0.5" stroke="#606060" stroke-width="1.0"/>
           <path id="arrow"
             d="M 11.500037,31.436501 C 11.940474,20.09759 22.043105,11.32322 32.158766,21.979434 L 37.068811,17.246167 C 37.068811,17.246167 37.088388,32 37.088388,32 L 22.160133,31.978069 C 22.160133,31.978069 26.997745,27.140456 26.997745,27.140456 C 18.528582,18.264221 13.291696,25.230495 11.500037,31.436501 z"
             style="fill:#404040;"/>
          </a>
         </g>
        </svg>
</svg>
