<?xml version="1.0" encoding="UTF-8" standalone="no"?>
<!DOCTYPE svg PUBLIC "-//W3C//DTD SVG 1.1//EN"
 "http://www.w3.org/Graphics/SVG/1.1/DTD/svg11.dtd">
<!-- Generated by graphviz version 2.40.1 (20161225.0304)
 -->
<!-- Title: GeostrophicForcing.H Pages: 1 -->
<!--zoomable 319 -->
<svg id="main" version="1.1" xmlns="http://www.w3.org/2000/svg" xmlns:xlink="http://www.w3.org/1999/xlink" xml:space="preserve" onload="init(evt)">
<style type="text/css"><![CDATA[
.edge:hover path { stroke: red; }
.edge:hover polygon { stroke: red; fill: red; }
]]></style>
<script type="text/javascript"><![CDATA[
var edges = document.getElementsByTagName('g');
if (edges && edges.length) {
  for (var i=0;i<edges.length;i++) {
    if (edges[i].id.substr(0,4)=='edge') {
      edges[i].setAttribute('class','edge');
    }
  }
}
]]></script>
        <defs>
                <circle id="rim" cx="0" cy="0" r="7"/>
                <circle id="rim2" cx="0" cy="0" r="3.5"/>
                <g id="zoomPlus">
                        <use xlink:href="#rim" fill="#404040">
                                <set attributeName="fill" to="#808080" begin="zoomplus.mouseover" end="zoomplus.mouseout"/>
                        </use>
                        <path d="M-4,0h8M0,-4v8" fill="none" stroke="white" stroke-width="1.5" pointer-events="none"/>
                </g>
                <g id="zoomMin">
                        <use xlink:href="#rim" fill="#404040">
                                <set attributeName="fill" to="#808080" begin="zoomminus.mouseover" end="zoomminus.mouseout"/>
                        </use>
                        <path d="M-4,0h8" fill="none" stroke="white" stroke-width="1.5" pointer-events="none"/>
                </g>
                <g id="dirArrow">
                        <path fill="none" stroke="white" stroke-width="1.5" d="M0,-3.0v7 M-2.5,-0.5L0,-3.0L2.5,-0.5"/>
                </g>
               <g id="resetDef">
                       <use xlink:href="#rim2" fill="#404040">
                               <set attributeName="fill" to="#808080" begin="reset.mouseover" end="reset.mouseout"/>
                       </use>
               </g>
        </defs>

<script type="text/javascript">
var viewWidth = 2044;
var viewHeight = 319;
var sectionId = 'dynsection-0';
</script>
<script xlink:href="svgpan.js"/>
<svg id="graph" class="graph">
<g id="viewport">
<title>GeostrophicForcing.H</title>
<polygon fill="#ffffff" stroke="transparent" points="-4,4 -4,-315 2039.5824,-315 2039.5824,4 -4,4"/>
<!-- Node0 -->
<g id="node1" class="node">
<title>Node0</title>
<polygon fill="#bfbfbf" stroke="#000000" points="683,-291.5 683,-310.5 804,-310.5 804,-291.5 683,-291.5"/>
<text text-anchor="middle" x="743.5" y="-298.5" font-family="Helvetica,sans-Serif" font-size="10.00" fill="#000000">GeostrophicForcing.H</text>
</g>
<!-- Node1 -->
<g id="node2" class="node">
<title>Node1</title>
<g id="a_node2"><a xlink:href="_momentum_source_8_h.html" target="_top" xlink:title="amr&#45;wind/equation_systems\l/icns/MomentumSource.H">
<polygon fill="#ffffff" stroke="#000000" points="527,-224.5 527,-254.5 682,-254.5 682,-224.5 527,-224.5"/>
<text text-anchor="start" x="535" y="-242.5" font-family="Helvetica,sans-Serif" font-size="10.00" fill="#000000">amr&#45;wind/equation_systems</text>
<text text-anchor="middle" x="604.5" y="-231.5" font-family="Helvetica,sans-Serif" font-size="10.00" fill="#000000">/icns/MomentumSource.H</text>
</a>
</g>
</g>
<!-- Node0&#45;&gt;Node1 -->
<g id="edge1" class="edge">
<title>Node0&#45;&gt;Node1</title>
<path fill="none" stroke="#191970" d="M721.7813,-291.3906C702.0984,-282.682 672.5056,-269.5888 647.9712,-258.7336"/>
<polygon fill="#191970" stroke="#191970" points="649.0643,-255.3901 638.5032,-254.5446 646.232,-261.7915 649.0643,-255.3901"/>
</g>
<!-- Node26 -->
<g id="node27" class="node">
<title>Node26</title>
<g id="a_node27"><a xlink:href="_sim_time_8_h.html" target="_top" xlink:title="amr&#45;wind/core/SimTime.H">
<polygon fill="#ffffff" stroke="#000000" points="1138,-230 1138,-249 1281,-249 1281,-230 1138,-230"/>
<text text-anchor="middle" x="1209.5" y="-237" font-family="Helvetica,sans-Serif" font-size="10.00" fill="#000000">amr&#45;wind/core/SimTime.H</text>
</a>
</g>
</g>
<!-- Node0&#45;&gt;Node26 -->
<g id="edge48" class="edge">
<title>Node0&#45;&gt;Node26</title>
<path fill="none" stroke="#191970" d="M804.4214,-292.9599C887.1738,-282.0388 1035.3563,-262.4825 1127.7219,-250.2926"/>
<polygon fill="#191970" stroke="#191970" points="1128.4118,-253.732 1137.8678,-248.9536 1127.4958,-246.7922 1128.4118,-253.732"/>
</g>
<!-- Node2 -->
<g id="node3" class="node">
<title>Node2</title>
<g id="a_node3"><a xlink:href="_factory_8_h.html" target="_top" xlink:title="amr&#45;wind/core/Factory.H">
<polygon fill="#ffffff" stroke="#000000" points="113.5,-112.5 113.5,-131.5 247.5,-131.5 247.5,-112.5 113.5,-112.5"/>
<text text-anchor="middle" x="180.5" y="-119.5" font-family="Helvetica,sans-Serif" font-size="10.00" fill="#000000">amr&#45;wind/core/Factory.H</text>
</a>
</g>
</g>
<!-- Node1&#45;&gt;Node2 -->
<g id="edge2" class="edge">
<title>Node1&#45;&gt;Node2</title>
<path fill="none" stroke="#191970" d="M526.7876,-232.6417C440.6251,-224.1967 307.6911,-208.427 261.5,-188 235.5058,-176.5047 210.9876,-154.3562 195.8764,-138.9017"/>
<polygon fill="#191970" stroke="#191970" points="198.2961,-136.3668 188.8738,-131.5221 193.2183,-141.1852 198.2961,-136.3668"/>
</g>
<!-- Node8 -->
<g id="node9" class="node">
<title>Node8</title>
<g id="a_node9"><a xlink:href="_field_desc_types_8_h.html" target="_top" xlink:title="amr&#45;wind/core/FieldDescTypes.H">
<polygon fill="#ffffff" stroke="#000000" points="1242.5,-.5 1242.5,-19.5 1416.5,-19.5 1416.5,-.5 1242.5,-.5"/>
<text text-anchor="middle" x="1329.5" y="-7.5" font-family="Helvetica,sans-Serif" font-size="10.00" fill="#000000">amr&#45;wind/core/FieldDescTypes.H</text>
</a>
</g>
</g>
<!-- Node1&#45;&gt;Node8 -->
<g id="edge8" class="edge">
<title>Node1&#45;&gt;Node8</title>
<path fill="none" stroke="#191970" d="M615.7956,-224.394C644.1356,-187.8211 722.4635,-94.6861 812.5,-56 885.6028,-24.5898 1103.8625,-14.6252 1232.2307,-11.4656"/>
<polygon fill="#191970" stroke="#191970" points="1232.543,-14.9593 1242.4574,-11.2236 1232.3774,-7.9612 1232.543,-14.9593"/>
</g>
<!-- Node9 -->
<g id="node10" class="node">
<title>Node9</title>
<g id="a_node10"><a xlink:href="_field_utils_8_h.html" target="_top" xlink:title="amr&#45;wind/core/FieldUtils.H">
<polygon fill="#ffffff" stroke="#000000" points="350,-112.5 350,-131.5 495,-131.5 495,-112.5 350,-112.5"/>
<text text-anchor="middle" x="422.5" y="-119.5" font-family="Helvetica,sans-Serif" font-size="10.00" fill="#000000">amr&#45;wind/core/FieldUtils.H</text>
</a>
</g>
</g>
<!-- Node1&#45;&gt;Node9 -->
<g id="edge9" class="edge">
<title>Node1&#45;&gt;Node9</title>
<path fill="none" stroke="#191970" d="M581.0793,-224.3795C546.1794,-201.848 480.8989,-159.7026 445.9703,-137.1525"/>
<polygon fill="#191970" stroke="#191970" points="447.6766,-134.0881 437.3769,-131.6046 443.8798,-139.969 447.6766,-134.0881"/>
</g>
<!-- Node10 -->
<g id="node11" class="node">
<title>Node10</title>
<polygon fill="#ffffff" stroke="#bfbfbf" points="589,-.5 589,-19.5 696,-19.5 696,-.5 589,-.5"/>
<text text-anchor="middle" x="642.5" y="-7.5" font-family="Helvetica,sans-Serif" font-size="10.00" fill="#000000">AMReX_MultiFab.H</text>
</g>
<!-- Node1&#45;&gt;Node10 -->
<g id="edge47" class="edge">
<title>Node1&#45;&gt;Node10</title>
<path fill="none" stroke="#191970" d="M526.7287,-224.6554C411.9794,-199.4745 218.6475,-142.5388 294.5,-56 312.9099,-34.9964 483.405,-20.4855 578.7299,-13.939"/>
<polygon fill="#191970" stroke="#191970" points="579.0986,-17.4222 588.8396,-13.2552 578.6262,-10.4381 579.0986,-17.4222"/>
</g>
<!-- Node12 -->
<g id="node13" class="node">
<title>Node12</title>
<g id="a_node13"><a xlink:href="_field_repo_8_h.html" target="_top" xlink:title="amr&#45;wind/core/FieldRepo.H">
<polygon fill="#ffffff" stroke="#000000" points="909.5,-168.5 909.5,-187.5 1055.5,-187.5 1055.5,-168.5 909.5,-168.5"/>
<text text-anchor="middle" x="982.5" y="-175.5" font-family="Helvetica,sans-Serif" font-size="10.00" fill="#000000">amr&#45;wind/core/FieldRepo.H</text>
</a>
</g>
</g>
<!-- Node1&#45;&gt;Node12 -->
<g id="edge13" class="edge">
<title>Node1&#45;&gt;Node12</title>
<path fill="none" stroke="#191970" d="M682.3635,-226.8317C750.4724,-215.7505 848.4451,-199.8105 913.7156,-189.1911"/>
<polygon fill="#191970" stroke="#191970" points="914.5926,-192.5945 923.9008,-187.534 913.4685,-185.6854 914.5926,-192.5945"/>
</g>
<!-- Node3 -->
<g id="node4" class="node">
<title>Node3</title>
<polygon fill="#ffffff" stroke="#bfbfbf" points="669.5,-56.5 669.5,-75.5 727.5,-75.5 727.5,-56.5 669.5,-56.5"/>
<text text-anchor="middle" x="698.5" y="-63.5" font-family="Helvetica,sans-Serif" font-size="10.00" fill="#000000">memory</text>
</g>
<!-- Node2&#45;&gt;Node3 -->
<g id="edge3" class="edge">
<title>Node2&#45;&gt;Node3</title>
<path fill="none" stroke="#191970" d="M247.5622,-116.8548C356.0131,-108.3246 566.2426,-90.868 659.2631,-75.7209"/>
<polygon fill="#191970" stroke="#191970" points="659.9471,-79.1549 669.2187,-74.0277 658.7734,-72.254 659.9471,-79.1549"/>
</g>
<!-- Node4 -->
<g id="node5" class="node">
<title>Node4</title>
<polygon fill="#ffffff" stroke="#bfbfbf" points="558,-56.5 558,-75.5 651,-75.5 651,-56.5 558,-56.5"/>
<text text-anchor="middle" x="604.5" y="-63.5" font-family="Helvetica,sans-Serif" font-size="10.00" fill="#000000">unordered_map</text>
</g>
<!-- Node2&#45;&gt;Node4 -->
<g id="edge4" class="edge">
<title>Node2&#45;&gt;Node4</title>
<path fill="none" stroke="#191970" d="M247.6841,-113.1266C330.5934,-102.1763 470.1067,-83.7501 547.8457,-73.4826"/>
<polygon fill="#191970" stroke="#191970" points="548.4768,-76.9298 557.9323,-72.1504 547.5601,-69.99 548.4768,-76.9298"/>
</g>
<!-- Node5 -->
<g id="node6" class="node">
<title>Node5</title>
<polygon fill="#ffffff" stroke="#bfbfbf" points="79.5,-56.5 79.5,-75.5 139.5,-75.5 139.5,-56.5 79.5,-56.5"/>
<text text-anchor="middle" x="109.5" y="-63.5" font-family="Helvetica,sans-Serif" font-size="10.00" fill="#000000">iostream</text>
</g>
<!-- Node2&#45;&gt;Node5 -->
<g id="edge5" class="edge">
<title>Node2&#45;&gt;Node5</title>
<path fill="none" stroke="#191970" d="M168.1327,-112.2455C157.5446,-103.8943 142.0936,-91.7076 129.7107,-81.9408"/>
<polygon fill="#191970" stroke="#191970" points="131.7447,-79.0875 121.7255,-75.6427 127.4097,-84.5837 131.7447,-79.0875"/>
</g>
<!-- Node6 -->
<g id="node7" class="node">
<title>Node6</title>
<polygon fill="#ffffff" stroke="#bfbfbf" points="158,-56.5 158,-75.5 247,-75.5 247,-56.5 158,-56.5"/>
<text text-anchor="middle" x="202.5" y="-63.5" font-family="Helvetica,sans-Serif" font-size="10.00" fill="#000000">AMReX_Print.H</text>
</g>
<!-- Node2&#45;&gt;Node6 -->
<g id="edge6" class="edge">
<title>Node2&#45;&gt;Node6</title>
<path fill="none" stroke="#191970" d="M184.3321,-112.2455C187.2659,-104.7776 191.4047,-94.2427 194.991,-85.1137"/>
<polygon fill="#191970" stroke="#191970" points="198.3129,-86.23 198.7118,-75.6427 191.7976,-83.6704 198.3129,-86.23"/>
</g>
<!-- Node7 -->
<g id="node8" class="node">
<title>Node7</title>
<polygon fill="#ffffff" stroke="#bfbfbf" points="0,-56.5 0,-75.5 61,-75.5 61,-56.5 0,-56.5"/>
<text text-anchor="middle" x="30.5" y="-63.5" font-family="Helvetica,sans-Serif" font-size="10.00" fill="#000000">AMReX.H</text>
</g>
<!-- Node2&#45;&gt;Node7 -->
<g id="edge7" class="edge">
<title>Node2&#45;&gt;Node7</title>
<path fill="none" stroke="#191970" d="M154.7141,-112.3733C130.0953,-103.1822 92.81,-89.2624 65.5125,-79.0713"/>
<polygon fill="#191970" stroke="#191970" points="66.542,-75.7198 55.9494,-75.5011 64.0937,-82.2777 66.542,-75.7198"/>
</g>
<!-- Node9&#45;&gt;Node8 -->
<g id="edge10" class="edge">
<title>Node9&#45;&gt;Node8</title>
<path fill="none" stroke="#191970" d="M436.0414,-112.4046C458.2808,-97.2429 504.4788,-68.2151 548.5,-56 612.7094,-38.1831 1037.4023,-20.6515 1232.1858,-13.4372"/>
<polygon fill="#191970" stroke="#191970" points="1232.553,-16.9261 1242.4172,-13.0599 1232.295,-9.9308 1232.553,-16.9261"/>
</g>
<!-- Node9&#45;&gt;Node10 -->
<g id="edge11" class="edge">
<title>Node9&#45;&gt;Node10</title>
<path fill="none" stroke="#191970" d="M427.9158,-112.3387C436.5223,-97.8798 454.7041,-70.7395 477.5,-56 507.8082,-36.4032 546.4637,-25.0487 578.74,-18.5259"/>
<polygon fill="#191970" stroke="#191970" points="579.8093,-21.8851 588.9765,-16.5735 578.4978,-15.0091 579.8093,-21.8851"/>
</g>
<!-- Node11 -->
<g id="node12" class="node">
<title>Node11</title>
<polygon fill="#ffffff" stroke="#bfbfbf" points="303.5,-56.5 303.5,-75.5 425.5,-75.5 425.5,-56.5 303.5,-56.5"/>
<text text-anchor="middle" x="364.5" y="-63.5" font-family="Helvetica,sans-Serif" font-size="10.00" fill="#000000">AMReX_Interpolater.H</text>
</g>
<!-- Node9&#45;&gt;Node11 -->
<g id="edge12" class="edge">
<title>Node9&#45;&gt;Node11</title>
<path fill="none" stroke="#191970" d="M412.3972,-112.2455C403.9972,-104.1352 391.8506,-92.4075 381.8916,-82.7919"/>
<polygon fill="#191970" stroke="#191970" points="384.1122,-80.0707 374.4871,-75.6427 379.25,-85.1066 384.1122,-80.0707"/>
</g>
<!-- Node12&#45;&gt;Node4 -->
<g id="edge15" class="edge">
<title>Node12&#45;&gt;Node4</title>
<path fill="none" stroke="#191970" d="M950.2719,-168.4509C881.9257,-148.2002 722.4862,-100.9589 646.3781,-78.4083"/>
<polygon fill="#191970" stroke="#191970" points="647.2288,-75.01 636.6465,-75.5249 645.2401,-81.7216 647.2288,-75.01"/>
</g>
<!-- Node12&#45;&gt;Node8 -->
<g id="edge16" class="edge">
<title>Node12&#45;&gt;Node8</title>
<path fill="none" stroke="#191970" d="M1025.7006,-168.4449C1101.937,-150.8775 1256.2015,-111.9484 1297.5,-76 1311.5668,-63.7555 1320.0118,-43.9203 1324.6635,-29.1869"/>
<polygon fill="#191970" stroke="#191970" points="1328.0374,-30.1178 1327.4063,-19.5417 1321.3044,-28.203 1328.0374,-30.1178"/>
</g>
<!-- Node12&#45;&gt;Node9 -->
<g id="edge17" class="edge">
<title>Node12&#45;&gt;Node9</title>
<path fill="none" stroke="#191970" d="M909.1283,-171.2655C816.1079,-162.6353 650.8226,-146.9928 509.5,-132 508.0354,-131.8446 506.557,-131.6867 505.068,-131.5266"/>
<polygon fill="#191970" stroke="#191970" points="505.4405,-128.0466 495.1204,-130.4433 504.6827,-135.0054 505.4405,-128.0466"/>
</g>
<!-- Node12&#45;&gt;Node10 -->
<g id="edge45" class="edge">
<title>Node12&#45;&gt;Node10</title>
<path fill="none" stroke="#191970" d="M909.1839,-171.6803C797.2704,-160.3306 592.1717,-132.244 548.5,-76 530.3796,-52.663 564.7257,-34.2304 596.8739,-22.8429"/>
<polygon fill="#191970" stroke="#191970" points="598.3538,-26.0381 606.7199,-19.5374 596.1259,-19.4021 598.3538,-26.0381"/>
</g>
<!-- Node13 -->
<g id="node14" class="node">
<title>Node13</title>
<polygon fill="#ffffff" stroke="#bfbfbf" points="1827.5,-.5 1827.5,-19.5 1871.5,-19.5 1871.5,-.5 1827.5,-.5"/>
<text text-anchor="middle" x="1849.5" y="-7.5" font-family="Helvetica,sans-Serif" font-size="10.00" fill="#000000">string</text>
</g>
<!-- Node12&#45;&gt;Node13 -->
<g id="edge14" class="edge">
<title>Node12&#45;&gt;Node13</title>
<path fill="none" stroke="#191970" d="M1055.7898,-168.7899C1058.7299,-168.5067 1061.6419,-168.2417 1064.5,-168 1401.0112,-139.5398 1489.8463,-184.2012 1823.5,-132 1918.0856,-117.2018 1973.2649,-151.9875 2031.5,-76 2036.907,-68.9447 2036.9613,-63.0133 2031.5,-56 2013.2566,-32.572 1928.7743,-19.1899 1881.5927,-13.4223"/>
<polygon fill="#191970" stroke="#191970" points="1881.913,-9.9359 1871.5725,-12.2433 1881.095,-16.888 1881.913,-9.9359"/>
</g>
<!-- Node14 -->
<g id="node15" class="node">
<title>Node14</title>
<g id="a_node15"><a xlink:href="_field_8_h.html" target="_top" xlink:title="amr&#45;wind/core/Field.H">
<polygon fill="#ffffff" stroke="#000000" points="988.5,-112.5 988.5,-131.5 1110.5,-131.5 1110.5,-112.5 988.5,-112.5"/>
<text text-anchor="middle" x="1049.5" y="-119.5" font-family="Helvetica,sans-Serif" font-size="10.00" fill="#000000">amr&#45;wind/core/Field.H</text>
</a>
</g>
</g>
<!-- Node12&#45;&gt;Node14 -->
<g id="edge18" class="edge">
<title>Node12&#45;&gt;Node14</title>
<path fill="none" stroke="#191970" d="M994.1705,-168.2455C1004.0661,-159.9746 1018.4627,-147.9416 1030.0901,-138.2232"/>
<polygon fill="#191970" stroke="#191970" points="1032.535,-140.7413 1037.9632,-131.6427 1028.0458,-135.3703 1032.535,-140.7413"/>
</g>
<!-- Node21 -->
<g id="node22" class="node">
<title>Node21</title>
<g id="a_node22"><a xlink:href="_int_field_8_h.html" target="_top" xlink:title="amr&#45;wind/core/IntField.H">
<polygon fill="#ffffff" stroke="#000000" points="1454,-112.5 1454,-131.5 1589,-131.5 1589,-112.5 1454,-112.5"/>
<text text-anchor="middle" x="1521.5" y="-119.5" font-family="Helvetica,sans-Serif" font-size="10.00" fill="#000000">amr&#45;wind/core/IntField.H</text>
</a>
</g>
</g>
<!-- Node12&#45;&gt;Node21 -->
<g id="edge33" class="edge">
<title>Node12&#45;&gt;Node21</title>
<path fill="none" stroke="#191970" d="M1055.8087,-168.9824C1058.7435,-168.646 1061.6493,-168.3173 1064.5,-168 1197.6066,-153.1864 1352.7642,-138.0106 1443.746,-129.3241"/>
<polygon fill="#191970" stroke="#191970" points="1444.0802,-132.8082 1453.7029,-128.3749 1443.4158,-125.8398 1444.0802,-132.8082"/>
</g>
<!-- Node22 -->
<g id="node23" class="node">
<title>Node22</title>
<polygon fill="#ffffff" stroke="#bfbfbf" points="1357.5,-56.5 1357.5,-75.5 1467.5,-75.5 1467.5,-56.5 1357.5,-56.5"/>
<text text-anchor="middle" x="1412.5" y="-63.5" font-family="Helvetica,sans-Serif" font-size="10.00" fill="#000000">AMReX_iMultiFab.H</text>
</g>
<!-- Node12&#45;&gt;Node22 -->
<g id="edge46" class="edge">
<title>Node12&#45;&gt;Node22</title>
<path fill="none" stroke="#191970" d="M1055.603,-168.9721C1160.1575,-156.02 1340.2654,-133.5424 1343.5,-132 1366.5146,-121.0254 1386.7823,-99.4127 1399.2957,-83.9072"/>
<polygon fill="#191970" stroke="#191970" points="1402.3675,-85.6573 1405.7295,-75.61 1396.8357,-81.3678 1402.3675,-85.6573"/>
</g>
<!-- Node23 -->
<g id="node24" class="node">
<title>Node23</title>
<g id="a_node24"><a xlink:href="_scratch_field_8_h.html" target="_top" xlink:title="amr&#45;wind/core/ScratchField.H">
<polygon fill="#ffffff" stroke="#000000" points="1656.5,-112.5 1656.5,-131.5 1814.5,-131.5 1814.5,-112.5 1656.5,-112.5"/>
<text text-anchor="middle" x="1735.5" y="-119.5" font-family="Helvetica,sans-Serif" font-size="10.00" fill="#000000">amr&#45;wind/core/ScratchField.H</text>
</a>
</g>
</g>
<!-- Node12&#45;&gt;Node23 -->
<g id="edge37" class="edge">
<title>Node12&#45;&gt;Node23</title>
<path fill="none" stroke="#191970" d="M1055.7963,-168.8624C1058.7346,-168.5592 1061.6444,-168.2702 1064.5,-168 1301.3145,-145.5941 1361.212,-148.6585 1598.5,-132 1613.8191,-130.9245 1630.0998,-129.7574 1645.8891,-128.6127"/>
<polygon fill="#191970" stroke="#191970" points="1646.4589,-132.0807 1656.1789,-127.865 1645.9515,-125.0991 1646.4589,-132.0807"/>
</g>
<!-- Node25 -->
<g id="node26" class="node">
<title>Node25</title>
<polygon fill="#ffffff" stroke="#bfbfbf" points="861,-112.5 861,-131.5 970,-131.5 970,-112.5 861,-112.5"/>
<text text-anchor="middle" x="915.5" y="-119.5" font-family="Helvetica,sans-Serif" font-size="10.00" fill="#000000">AMReX_AmrCore.H</text>
</g>
<!-- Node12&#45;&gt;Node25 -->
<g id="edge44" class="edge">
<title>Node12&#45;&gt;Node25</title>
<path fill="none" stroke="#191970" d="M970.8295,-168.2455C960.9339,-159.9746 946.5373,-147.9416 934.9099,-138.2232"/>
<polygon fill="#191970" stroke="#191970" points="936.9542,-135.3703 927.0368,-131.6427 932.465,-140.7413 936.9542,-135.3703"/>
</g>
<!-- Node14&#45;&gt;Node3 -->
<g id="edge20" class="edge">
<title>Node14&#45;&gt;Node3</title>
<path fill="none" stroke="#191970" d="M989.5598,-112.4369C917.5588,-100.9495 798.8437,-82.0093 737.6568,-72.2472"/>
<polygon fill="#191970" stroke="#191970" points="738.0619,-68.7677 727.6353,-70.6484 736.959,-75.6803 738.0619,-68.7677"/>
</g>
<!-- Node14&#45;&gt;Node4 -->
<g id="edge21" class="edge">
<title>Node14&#45;&gt;Node4</title>
<path fill="none" stroke="#191970" d="M988.3233,-113.2759C985.0016,-112.8359 981.7107,-112.4078 978.5,-112 840.5666,-94.4821 802.926,-96.4134 661.1545,-76.0144"/>
<polygon fill="#191970" stroke="#191970" points="661.6135,-72.5444 651.2146,-74.5724 660.6085,-79.4719 661.6135,-72.5444"/>
</g>
<!-- Node14&#45;&gt;Node8 -->
<g id="edge27" class="edge">
<title>Node14&#45;&gt;Node8</title>
<path fill="none" stroke="#191970" d="M1110.6792,-113.8896C1166.9366,-105.6287 1245.5701,-91.8124 1272.5,-76 1292.1775,-64.446 1308.4424,-43.6197 1318.4922,-28.4441"/>
<polygon fill="#191970" stroke="#191970" points="1321.5348,-30.1812 1323.9215,-19.8587 1315.6185,-26.4398 1321.5348,-30.1812"/>
</g>
<!-- Node14&#45;&gt;Node10 -->
<g id="edge23" class="edge">
<title>Node14&#45;&gt;Node10</title>
<path fill="none" stroke="#191970" d="M988.3967,-113.2198C940.1115,-105.5463 871.2936,-92.9711 812.5,-76 762.3895,-61.5354 706.3745,-38.3561 672.8051,-23.668"/>
<polygon fill="#191970" stroke="#191970" points="674.1093,-20.4179 663.5474,-19.5831 671.2834,-26.8222 674.1093,-20.4179"/>
</g>
<!-- Node14&#45;&gt;Node13 -->
<g id="edge19" class="edge">
<title>Node14&#45;&gt;Node13</title>
<path fill="none" stroke="#191970" d="M1110.6453,-120.824C1253.0445,-117.5954 1603.2801,-106.695 1716.5,-76 1757.4919,-64.8867 1800.8118,-40.7389 1826.4825,-24.9386"/>
<polygon fill="#191970" stroke="#191970" points="1828.49,-27.811 1835.1046,-19.5347 1824.7725,-21.8797 1828.49,-27.811"/>
</g>
<!-- Node15 -->
<g id="node16" class="node">
<title>Node15</title>
<polygon fill="#ffffff" stroke="#bfbfbf" points="821.5,-56.5 821.5,-75.5 885.5,-75.5 885.5,-56.5 821.5,-56.5"/>
<text text-anchor="middle" x="853.5" y="-63.5" font-family="Helvetica,sans-Serif" font-size="10.00" fill="#000000">algorithm</text>
</g>
<!-- Node14&#45;&gt;Node15 -->
<g id="edge22" class="edge">
<title>Node14&#45;&gt;Node15</title>
<path fill="none" stroke="#191970" d="M1015.8064,-112.3733C982.4912,-102.8546 931.424,-88.264 895.4865,-77.9961"/>
<polygon fill="#191970" stroke="#191970" points="896.3556,-74.6045 885.7788,-75.2225 894.4325,-81.3351 896.3556,-74.6045"/>
</g>
<!-- Node16 -->
<g id="node17" class="node">
<title>Node16</title>
<polygon fill="#ffffff" stroke="#bfbfbf" points="904,-56.5 904,-75.5 1001,-75.5 1001,-56.5 904,-56.5"/>
<text text-anchor="middle" x="952.5" y="-63.5" font-family="Helvetica,sans-Serif" font-size="10.00" fill="#000000">AMReX_BCRec.H</text>
</g>
<!-- Node14&#45;&gt;Node16 -->
<g id="edge24" class="edge">
<title>Node14&#45;&gt;Node16</title>
<path fill="none" stroke="#191970" d="M1032.6039,-112.2455C1017.582,-103.5731 995.3957,-90.7645 978.179,-80.825"/>
<polygon fill="#191970" stroke="#191970" points="979.6128,-77.6114 969.2025,-75.6427 976.1129,-83.6737 979.6128,-77.6114"/>
</g>
<!-- Node17 -->
<g id="node18" class="node">
<title>Node17</title>
<polygon fill="#ffffff" stroke="#bfbfbf" points="1019.5,-56.5 1019.5,-75.5 1105.5,-75.5 1105.5,-56.5 1019.5,-56.5"/>
<text text-anchor="middle" x="1062.5" y="-63.5" font-family="Helvetica,sans-Serif" font-size="10.00" fill="#000000">AMReX_Gpu.H</text>
</g>
<!-- Node14&#45;&gt;Node17 -->
<g id="edge25" class="edge">
<title>Node14&#45;&gt;Node17</title>
<path fill="none" stroke="#191970" d="M1051.7644,-112.2455C1053.4794,-104.8579 1055.8912,-94.4689 1057.9944,-85.4087"/>
<polygon fill="#191970" stroke="#191970" points="1061.4095,-86.1751 1060.2615,-75.6427 1054.5908,-84.5922 1061.4095,-86.1751"/>
</g>
<!-- Node18 -->
<g id="node19" class="node">
<title>Node18</title>
<g id="a_node19"><a xlink:href="incflo__enums_8_h.html" target="_top" xlink:title="amr&#45;wind/incflo_enums.H">
<polygon fill="#ffffff" stroke="#000000" points="1123.5,-56.5 1123.5,-75.5 1263.5,-75.5 1263.5,-56.5 1123.5,-56.5"/>
<text text-anchor="middle" x="1193.5" y="-63.5" font-family="Helvetica,sans-Serif" font-size="10.00" fill="#000000">amr&#45;wind/incflo_enums.H</text>
</a>
</g>
</g>
<!-- Node14&#45;&gt;Node18 -->
<g id="edge26" class="edge">
<title>Node14&#45;&gt;Node18</title>
<path fill="none" stroke="#191970" d="M1074.2545,-112.3733C1097.7849,-103.2226 1133.3687,-89.3844 1159.5426,-79.2057"/>
<polygon fill="#191970" stroke="#191970" points="1161.0171,-82.3877 1169.0685,-75.5011 1158.4799,-75.8636 1161.0171,-82.3877"/>
</g>
<!-- Node19 -->
<g id="node20" class="node">
<title>Node19</title>
<g id="a_node20"><a xlink:href="_view_field_8_h.html" target="_top" xlink:title="amr&#45;wind/core/ViewField.H">
<polygon fill="#ffffff" stroke="#000000" points="1561.5,-56.5 1561.5,-75.5 1707.5,-75.5 1707.5,-56.5 1561.5,-56.5"/>
<text text-anchor="middle" x="1634.5" y="-63.5" font-family="Helvetica,sans-Serif" font-size="10.00" fill="#000000">amr&#45;wind/core/ViewField.H</text>
</a>
</g>
</g>
<!-- Node14&#45;&gt;Node19 -->
<g id="edge28" class="edge">
<title>Node14&#45;&gt;Node19</title>
<path fill="none" stroke="#191970" d="M1110.7244,-116.1392C1216.206,-106.0418 1432.3083,-85.3551 1551.3171,-73.9628"/>
<polygon fill="#191970" stroke="#191970" points="1551.8494,-77.4279 1561.4704,-72.9909 1551.1823,-70.4598 1551.8494,-77.4279"/>
</g>
<!-- Node19&#45;&gt;Node8 -->
<g id="edge30" class="edge">
<title>Node19&#45;&gt;Node8</title>
<path fill="none" stroke="#191970" d="M1582.4152,-56.4369C1529.5588,-46.7321 1447.7309,-31.708 1391.5491,-21.3926"/>
<polygon fill="#191970" stroke="#191970" points="1391.8377,-17.8872 1381.37,-19.5237 1390.5735,-24.7721 1391.8377,-17.8872"/>
</g>
<!-- Node19&#45;&gt;Node10 -->
<g id="edge31" class="edge">
<title>Node19&#45;&gt;Node10</title>
<path fill="none" stroke="#191970" d="M1561.4864,-59.8278C1544.4331,-58.4781 1526.3351,-57.1198 1509.5,-56 1209.4406,-36.0412 850.4982,-19.2532 706.6913,-12.8157"/>
<polygon fill="#191970" stroke="#191970" points="706.4497,-9.3016 696.3035,-12.352 706.1375,-16.2946 706.4497,-9.3016"/>
</g>
<!-- Node19&#45;&gt;Node13 -->
<g id="edge29" class="edge">
<title>Node19&#45;&gt;Node13</title>
<path fill="none" stroke="#191970" d="M1671.4598,-56.3733C1712.6795,-45.637 1778.6726,-28.4481 1817.6818,-18.2875"/>
<polygon fill="#191970" stroke="#191970" points="1818.6613,-21.6493 1827.4562,-15.7416 1816.8969,-14.8753 1818.6613,-21.6493"/>
</g>
<!-- Node20 -->
<g id="node21" class="node">
<title>Node20</title>
<polygon fill="#ffffff" stroke="#bfbfbf" points="1649.5,-.5 1649.5,-19.5 1745.5,-19.5 1745.5,-.5 1649.5,-.5"/>
<text text-anchor="middle" x="1697.5" y="-7.5" font-family="Helvetica,sans-Serif" font-size="10.00" fill="#000000">AMReX_Vector.H</text>
</g>
<!-- Node19&#45;&gt;Node20 -->
<g id="edge32" class="edge">
<title>Node19&#45;&gt;Node20</title>
<path fill="none" stroke="#191970" d="M1645.4738,-56.2455C1654.6882,-48.0549 1668.0532,-36.1749 1678.9297,-26.5069"/>
<polygon fill="#191970" stroke="#191970" points="1681.5032,-28.9023 1686.652,-19.6427 1676.8526,-23.6704 1681.5032,-28.9023"/>
</g>
<!-- Node21&#45;&gt;Node8 -->
<g id="edge35" class="edge">
<title>Node21&#45;&gt;Node8</title>
<path fill="none" stroke="#191970" d="M1517.4766,-112.4113C1510.9676,-98.0473 1496.7778,-71.0293 1476.5,-56 1454.3068,-39.5511 1426.0881,-28.887 1400.3207,-22.0175"/>
<polygon fill="#191970" stroke="#191970" points="1401.1346,-18.6132 1390.5828,-19.5663 1399.4259,-25.4015 1401.1346,-18.6132"/>
</g>
<!-- Node21&#45;&gt;Node13 -->
<g id="edge34" class="edge">
<title>Node21&#45;&gt;Node13</title>
<path fill="none" stroke="#191970" d="M1589.2348,-115.2281C1656.4341,-107.6376 1754.076,-93.9974 1787.5,-76 1808.5594,-64.6604 1826.4855,-43.4884 1837.5645,-28.1758"/>
<polygon fill="#191970" stroke="#191970" points="1840.443,-30.1669 1843.2684,-19.9557 1834.6919,-26.1762 1840.443,-30.1669"/>
</g>
<!-- Node21&#45;&gt;Node22 -->
<g id="edge36" class="edge">
<title>Node21&#45;&gt;Node22</title>
<path fill="none" stroke="#191970" d="M1502.5136,-112.2455C1485.3208,-103.4125 1459.7762,-90.2887 1440.2868,-80.2758"/>
<polygon fill="#191970" stroke="#191970" points="1441.763,-77.0993 1431.2688,-75.6427 1438.5641,-83.3257 1441.763,-77.0993"/>
</g>
<!-- Node23&#45;&gt;Node8 -->
<g id="edge39" class="edge">
<title>Node23&#45;&gt;Node8</title>
<path fill="none" stroke="#191970" d="M1735.8002,-112.1666C1735.6632,-97.483 1733.0362,-70.0532 1716.5,-56 1694.8047,-37.5624 1534.3356,-23.4841 1426.9597,-16.0034"/>
<polygon fill="#191970" stroke="#191970" points="1426.9574,-12.495 1416.7407,-15.3001 1426.4767,-19.4785 1426.9574,-12.495"/>
</g>
<!-- Node23&#45;&gt;Node10 -->
<g id="edge41" class="edge">
<title>Node23&#45;&gt;Node10</title>
<path fill="none" stroke="#191970" d="M1696.9112,-112.4316C1659.8539,-103.2119 1602.3101,-88.8138 1552.5,-76 1518.6736,-67.298 1511.0025,-61.434 1476.5,-56 1328.2993,-32.6591 874.8159,-16.9978 706.3731,-11.8504"/>
<polygon fill="#191970" stroke="#191970" points="706.2748,-8.3459 696.1733,-11.541 706.0625,-15.3427 706.2748,-8.3459"/>
</g>
<!-- Node23&#45;&gt;Node13 -->
<g id="edge38" class="edge">
<title>Node23&#45;&gt;Node13</title>
<path fill="none" stroke="#191970" d="M1814.8022,-114.1589C1892.6572,-105.6421 2001.5958,-91.206 2014.5,-76 2052.9319,-30.7128 1940.247,-16.2141 1881.9969,-11.8082"/>
<polygon fill="#191970" stroke="#191970" points="1882.0216,-8.3015 1871.8025,-11.0979 1881.535,-15.2846 1882.0216,-8.3015"/>
</g>
<!-- Node23&#45;&gt;Node19 -->
<g id="edge40" class="edge">
<title>Node23&#45;&gt;Node19</title>
<path fill="none" stroke="#191970" d="M1717.9071,-112.2455C1702.121,-103.4928 1678.7361,-90.527 1660.7413,-80.5496"/>
<polygon fill="#191970" stroke="#191970" points="1662.3341,-77.4308 1651.8913,-75.6427 1658.9397,-83.5528 1662.3341,-77.4308"/>
</g>
<!-- Node23&#45;&gt;Node20 -->
<g id="edge42" class="edge">
<title>Node23&#45;&gt;Node20</title>
<path fill="none" stroke="#191970" d="M1741.2278,-112.199C1748.1751,-98.9428 1757.9677,-74.7961 1749.5,-56 1743.9303,-43.6369 1733.2137,-33.2563 1722.9494,-25.5033"/>
<polygon fill="#191970" stroke="#191970" points="1724.7549,-22.4948 1714.5567,-19.623 1720.7382,-28.2277 1724.7549,-22.4948"/>
</g>
<!-- Node24 -->
<g id="node25" class="node">
<title>Node24</title>
<polygon fill="#ffffff" stroke="#bfbfbf" points="1877.5,-56.5 1877.5,-75.5 2005.5,-75.5 2005.5,-56.5 1877.5,-56.5"/>
<text text-anchor="middle" x="1941.5" y="-63.5" font-family="Helvetica,sans-Serif" font-size="10.00" fill="#000000">AMReX_PhysBCFunct.H</text>
</g>
<!-- Node23&#45;&gt;Node24 -->
<g id="edge43" class="edge">
<title>Node23&#45;&gt;Node24</title>
<path fill="none" stroke="#191970" d="M1770.9127,-112.3733C1805.7605,-102.9001 1859.0882,-88.4032 1896.8293,-78.1435"/>
<polygon fill="#191970" stroke="#191970" points="1897.8178,-81.5019 1906.5494,-75.5011 1895.9815,-74.747 1897.8178,-81.5019"/>
</g>
<!-- Node27 -->
<g id="node28" class="node">
<title>Node27</title>
<polygon fill="#ffffff" stroke="#bfbfbf" points="1356,-168.5 1356,-187.5 1447,-187.5 1447,-168.5 1356,-168.5"/>
<text text-anchor="middle" x="1401.5" y="-175.5" font-family="Helvetica,sans-Serif" font-size="10.00" fill="#000000">AMReX_REAL.H</text>
</g>
<!-- Node26&#45;&gt;Node27 -->
<g id="edge49" class="edge">
<title>Node26&#45;&gt;Node27</title>
<path fill="none" stroke="#191970" d="M1239.5,-229.8906C1272.4705,-219.3298 1325.5717,-202.3208 1361.9303,-190.6747"/>
<polygon fill="#191970" stroke="#191970" points="1363.255,-193.9256 1371.7107,-187.5419 1361.1196,-187.2592 1363.255,-193.9256"/>
</g>
<!-- Node28 -->
<g id="node29" class="node">
<title>Node28</title>
<polygon fill="#ffffff" stroke="#bfbfbf" points="1073.5,-168.5 1073.5,-187.5 1205.5,-187.5 1205.5,-168.5 1073.5,-168.5"/>
<text text-anchor="middle" x="1139.5" y="-175.5" font-family="Helvetica,sans-Serif" font-size="10.00" fill="#000000">AMReX_GpuQualifiers.H</text>
</g>
<!-- Node26&#45;&gt;Node28 -->
<g id="edge50" class="edge">
<title>Node26&#45;&gt;Node28</title>
<path fill="none" stroke="#191970" d="M1198.5625,-229.8906C1187.838,-220.4683 1171.2713,-205.9134 1158.4099,-194.6137"/>
<polygon fill="#191970" stroke="#191970" points="1160.4143,-191.7158 1150.5917,-187.7449 1155.7941,-196.9745 1160.4143,-191.7158"/>
</g>
<!-- Node29 -->
<g id="node30" class="node">
<title>Node29</title>
<polygon fill="#ffffff" stroke="#bfbfbf" points="1223.5,-168.5 1223.5,-187.5 1337.5,-187.5 1337.5,-168.5 1223.5,-168.5"/>
<text text-anchor="middle" x="1280.5" y="-175.5" font-family="Helvetica,sans-Serif" font-size="10.00" fill="#000000">AMReX_Extension.H</text>
</g>
<!-- Node26&#45;&gt;Node29 -->
<g id="edge51" class="edge">
<title>Node26&#45;&gt;Node29</title>
<path fill="none" stroke="#191970" d="M1220.5938,-229.8906C1231.4715,-220.4683 1248.2748,-205.9134 1261.32,-194.6137"/>
<polygon fill="#191970" stroke="#191970" points="1263.9827,-196.9377 1269.2498,-187.7449 1259.3996,-191.6466 1263.9827,-196.9377"/>
</g>
</g>
</svg>
        <g id="navigator" transform="translate(0 0)" fill="#404254">
                <rect fill="#f2f5e9" fill-opacity="0.5" stroke="#606060" stroke-width=".5" x="0" y="0" width="60" height="60"/>
                <use id="zoomplus" xlink:href="#zoomPlus" x="17" y="9" onmousedown="handleZoom(evt,'in')"/>
                <use id="zoomminus" xlink:href="#zoomMin" x="42" y="9" onmousedown="handleZoom(evt,'out')"/>
                <use id="reset" xlink:href="#resetDef" x="30" y="36" onmousedown="handleReset()"/>
                <g id="arrowUp" xlink:href="#dirArrow" transform="translate(30 24)" onmousedown="handlePan(0,-1)">
                  <use xlink:href="#rim" fill="#404040">
                        <set attributeName="fill" to="#808080" begin="arrowUp.mouseover" end="arrowUp.mouseout"/>
                  </use>
                  <path fill="none" stroke="white" stroke-width="1.5" d="M0,-3.0v7 M-2.5,-0.5L0,-3.0L2.5,-0.5"/>
                </g>
                <g id="arrowRight" xlink:href="#dirArrow" transform="rotate(90) translate(36 -43)" onmousedown="handlePan(1,0)">
                  <use xlink:href="#rim" fill="#404040">
                        <set attributeName="fill" to="#808080" begin="arrowRight.mouseover" end="arrowRight.mouseout"/>
                  </use>
                  <path fill="none" stroke="white" stroke-width="1.5" d="M0,-3.0v7 M-2.5,-0.5L0,-3.0L2.5,-0.5"/>
                </g>
                <g id="arrowDown" xlink:href="#dirArrow" transform="rotate(180) translate(-30 -48)" onmousedown="handlePan(0,1)">
                  <use xlink:href="#rim" fill="#404040">
                        <set attributeName="fill" to="#808080" begin="arrowDown.mouseover" end="arrowDown.mouseout"/>
                  </use>
                  <path fill="none" stroke="white" stroke-width="1.5" d="M0,-3.0v7 M-2.5,-0.5L0,-3.0L2.5,-0.5"/>
                </g>
                <g id="arrowLeft" xlink:href="#dirArrow" transform="rotate(270) translate(-36 17)" onmousedown="handlePan(-1,0)">
                  <use xlink:href="#rim" fill="#404040">
                        <set attributeName="fill" to="#808080" begin="arrowLeft.mouseover" end="arrowLeft.mouseout"/>
                  </use>
                  <path fill="none" stroke="white" stroke-width="1.5" d="M0,-3.0v7 M-2.5,-0.5L0,-3.0L2.5,-0.5"/>
                </g>
        </g>
        <svg viewBox="0 0 15 15" width="100%" height="30px" preserveAspectRatio="xMaxYMin meet">
         <g id="arrow_out" transform="scale(0.3 0.3)">
          <a xlink:href="_geostrophic_forcing_8_h__incl_org.svg" target="_base">
           <rect id="button" ry="5" rx="5" y="6" x="6" height="38" width="38"
                fill="#f2f5e9" fill-opacity="0.5" stroke="#606060" stroke-width="1.0"/>
           <path id="arrow"
             d="M 11.500037,31.436501 C 11.940474,20.09759 22.043105,11.32322 32.158766,21.979434 L 37.068811,17.246167 C 37.068811,17.246167 37.088388,32 37.088388,32 L 22.160133,31.978069 C 22.160133,31.978069 26.997745,27.140456 26.997745,27.140456 C 18.528582,18.264221 13.291696,25.230495 11.500037,31.436501 z"
             style="fill:#404040;"/>
          </a>
         </g>
        </svg>
</svg>
