<?xml version="1.0" encoding="UTF-8" standalone="no"?>
<!DOCTYPE svg PUBLIC "-//W3C//DTD SVG 1.1//EN"
 "http://www.w3.org/Graphics/SVG/1.1/DTD/svg11.dtd">
<!-- Generated by graphviz version 2.40.1 (20161225.0304)
 -->
<!-- Title: GeometryRefinement.H Pages: 1 -->
<svg width="377pt" height="140pt"
 viewBox="0.00 0.00 377.00 140.00" xmlns="http://www.w3.org/2000/svg" xmlns:xlink="http://www.w3.org/1999/xlink">
<g id="graph0" class="graph" transform="scale(1 1) rotate(0) translate(4 136)">
<title>GeometryRefinement.H</title>
<polygon fill="#ffffff" stroke="transparent" points="-4,4 -4,-136 373,-136 373,4 -4,4"/>
<!-- Node10 -->
<g id="node1" class="node">
<title>Node10</title>
<polygon fill="#bfbfbf" stroke="#000000" points="94,-112.5 94,-131.5 225,-131.5 225,-112.5 94,-112.5"/>
<text text-anchor="middle" x="159.5" y="-119.5" font-family="Helvetica,sans-Serif" font-size="10.00" fill="#000000">GeometryRefinement.H</text>
</g>
<!-- Node11 -->
<g id="node2" class="node">
<title>Node11</title>
<g id="a_node2"><a xlink:href="_box_refiner_8_h.html" target="_top" xlink:title="BoxRefiner.H">
<polygon fill="#ffffff" stroke="#000000" points="10,-56.5 10,-75.5 89,-75.5 89,-56.5 10,-56.5"/>
<text text-anchor="middle" x="49.5" y="-63.5" font-family="Helvetica,sans-Serif" font-size="10.00" fill="#000000">BoxRefiner.H</text>
</a>
</g>
</g>
<!-- Node10&#45;&gt;Node11 -->
<g id="edge1" class="edge">
<title>Node10&#45;&gt;Node11</title>
<path fill="none" stroke="#191970" d="M131.2086,-107.5971C111.4889,-97.558 85.72,-84.4393 68.441,-75.6427"/>
<polygon fill="#191970" stroke="#191970" points="129.8399,-110.8277 140.3395,-112.2455 133.0157,-104.5896 129.8399,-110.8277"/>
</g>
<!-- Node13 -->
<g id="node4" class="node">
<title>Node13</title>
<g id="a_node4"><a xlink:href="_cylinder_refiner_8_h.html" target="_top" xlink:title="CylinderRefiner.H">
<polygon fill="#ffffff" stroke="#000000" points="109,-56.5 109,-75.5 210,-75.5 210,-56.5 109,-56.5"/>
<text text-anchor="middle" x="159.5" y="-63.5" font-family="Helvetica,sans-Serif" font-size="10.00" fill="#000000">CylinderRefiner.H</text>
</a>
</g>
</g>
<!-- Node10&#45;&gt;Node13 -->
<g id="edge3" class="edge">
<title>Node10&#45;&gt;Node13</title>
<path fill="none" stroke="#191970" d="M159.5,-102.1575C159.5,-93.155 159.5,-82.9199 159.5,-75.6427"/>
<polygon fill="#191970" stroke="#191970" points="156.0001,-102.2455 159.5,-112.2455 163.0001,-102.2456 156.0001,-102.2455"/>
</g>
<!-- Node15 -->
<g id="node6" class="node">
<title>Node15</title>
<g id="a_node6"><a xlink:href="_geometry_refinement_8cpp.html" target="_top" xlink:title="GeometryRefinement.cpp">
<polygon fill="#ffffff" stroke="#000000" points="228,-56.5 228,-75.5 369,-75.5 369,-56.5 228,-56.5"/>
<text text-anchor="middle" x="298.5" y="-63.5" font-family="Helvetica,sans-Serif" font-size="10.00" fill="#000000">GeometryRefinement.cpp</text>
</a>
</g>
</g>
<!-- Node10&#45;&gt;Node15 -->
<g id="edge5" class="edge">
<title>Node10&#45;&gt;Node15</title>
<path fill="none" stroke="#191970" d="M192.9621,-108.5189C218.2769,-98.3201 252.4103,-84.5685 274.9169,-75.5011"/>
<polygon fill="#191970" stroke="#191970" points="191.3626,-105.3899 183.395,-112.3733 193.9784,-111.8827 191.3626,-105.3899"/>
</g>
<!-- Node12 -->
<g id="node3" class="node">
<title>Node12</title>
<g id="a_node3"><a xlink:href="_box_refiner_8cpp.html" target="_top" xlink:title="BoxRefiner.cpp">
<polygon fill="#ffffff" stroke="#000000" points="0,-.5 0,-19.5 89,-19.5 89,-.5 0,-.5"/>
<text text-anchor="middle" x="44.5" y="-7.5" font-family="Helvetica,sans-Serif" font-size="10.00" fill="#000000">BoxRefiner.cpp</text>
</a>
</g>
</g>
<!-- Node11&#45;&gt;Node12 -->
<g id="edge2" class="edge">
<title>Node11&#45;&gt;Node12</title>
<path fill="none" stroke="#191970" d="M47.7283,-46.1575C46.9246,-37.155 46.0107,-26.9199 45.361,-19.6427"/>
<polygon fill="#191970" stroke="#191970" points="44.2535,-46.5965 48.6291,-56.2455 51.2258,-45.9739 44.2535,-46.5965"/>
</g>
<!-- Node14 -->
<g id="node5" class="node">
<title>Node14</title>
<g id="a_node5"><a xlink:href="_cylinder_refiner_8cpp.html" target="_top" xlink:title="CylinderRefiner.cpp">
<polygon fill="#ffffff" stroke="#000000" points="107.5,-.5 107.5,-19.5 217.5,-19.5 217.5,-.5 107.5,-.5"/>
<text text-anchor="middle" x="162.5" y="-7.5" font-family="Helvetica,sans-Serif" font-size="10.00" fill="#000000">CylinderRefiner.cpp</text>
</a>
</g>
</g>
<!-- Node13&#45;&gt;Node14 -->
<g id="edge4" class="edge">
<title>Node13&#45;&gt;Node14</title>
<path fill="none" stroke="#191970" d="M160.563,-46.1575C161.0453,-37.155 161.5936,-26.9199 161.9834,-19.6427"/>
<polygon fill="#191970" stroke="#191970" points="157.0626,-46.0726 160.0226,-56.2455 164.0526,-46.4471 157.0626,-46.0726"/>
</g>
</g>
</svg>
