<?xml version="1.0" encoding="UTF-8" standalone="no"?>
<!DOCTYPE svg PUBLIC "-//W3C//DTD SVG 1.1//EN"
 "http://www.w3.org/Graphics/SVG/1.1/DTD/svg11.dtd">
<!-- Generated by graphviz version 2.40.1 (20161225.0304)
 -->
<!-- Title: GravityForcing.cpp Pages: 1 -->
<!--zoomable 408 -->
<svg id="main" version="1.1" xmlns="http://www.w3.org/2000/svg" xmlns:xlink="http://www.w3.org/1999/xlink" xml:space="preserve" onload="init(evt)">
<style type="text/css"><![CDATA[
.edge:hover path { stroke: red; }
.edge:hover polygon { stroke: red; fill: red; }
]]></style>
<script type="text/javascript"><![CDATA[
var edges = document.getElementsByTagName('g');
if (edges && edges.length) {
  for (var i=0;i<edges.length;i++) {
    if (edges[i].id.substr(0,4)=='edge') {
      edges[i].setAttribute('class','edge');
    }
  }
}
]]></script>
        <defs>
                <circle id="rim" cx="0" cy="0" r="7"/>
                <circle id="rim2" cx="0" cy="0" r="3.5"/>
                <g id="zoomPlus">
                        <use xlink:href="#rim" fill="#404040">
                                <set attributeName="fill" to="#808080" begin="zoomplus.mouseover" end="zoomplus.mouseout"/>
                        </use>
                        <path d="M-4,0h8M0,-4v8" fill="none" stroke="white" stroke-width="1.5" pointer-events="none"/>
                </g>
                <g id="zoomMin">
                        <use xlink:href="#rim" fill="#404040">
                                <set attributeName="fill" to="#808080" begin="zoomminus.mouseover" end="zoomminus.mouseout"/>
                        </use>
                        <path d="M-4,0h8" fill="none" stroke="white" stroke-width="1.5" pointer-events="none"/>
                </g>
                <g id="dirArrow">
                        <path fill="none" stroke="white" stroke-width="1.5" d="M0,-3.0v7 M-2.5,-0.5L0,-3.0L2.5,-0.5"/>
                </g>
               <g id="resetDef">
                       <use xlink:href="#rim2" fill="#404040">
                               <set attributeName="fill" to="#808080" begin="reset.mouseover" end="reset.mouseout"/>
                       </use>
               </g>
        </defs>

<script type="text/javascript">
var viewWidth = 2830;
var viewHeight = 408;
var sectionId = 'dynsection-0';
</script>
<script xlink:href="svgpan.js"/>
<svg id="graph" class="graph">
<g id="viewport">
<title>GravityForcing.cpp</title>
<polygon fill="#ffffff" stroke="transparent" points="-4,4 -4,-404 2826.3306,-404 2826.3306,4 -4,4"/>
<!-- Node0 -->
<g id="node1" class="node">
<title>Node0</title>
<polygon fill="#bfbfbf" stroke="#000000" points="512.8306,-380.5 512.8306,-399.5 620.8306,-399.5 620.8306,-380.5 512.8306,-380.5"/>
<text text-anchor="middle" x="566.8306" y="-387.5" font-family="Helvetica,sans-Serif" font-size="10.00" fill="#000000">GravityForcing.cpp</text>
</g>
<!-- Node1 -->
<g id="node2" class="node">
<title>Node1</title>
<g id="a_node2"><a xlink:href="_gravity_forcing_8_h.html" target="_top" xlink:title="amr&#45;wind/equation_systems\l/icns/source_terms/GravityForcing.H">
<polygon fill="#ffffff" stroke="#000000" points="408.3306,-313.5 408.3306,-343.5 601.3306,-343.5 601.3306,-313.5 408.3306,-313.5"/>
<text text-anchor="start" x="416.3306" y="-331.5" font-family="Helvetica,sans-Serif" font-size="10.00" fill="#000000">amr&#45;wind/equation_systems</text>
<text text-anchor="middle" x="504.8306" y="-320.5" font-family="Helvetica,sans-Serif" font-size="10.00" fill="#000000">/icns/source_terms/GravityForcing.H</text>
</a>
</g>
</g>
<!-- Node0&#45;&gt;Node1 -->
<g id="edge1" class="edge">
<title>Node0&#45;&gt;Node1</title>
<path fill="none" stroke="#191970" d="M557.1431,-380.3906C549.1407,-372.4527 537.4657,-360.8718 527.1744,-350.6635"/>
<polygon fill="#191970" stroke="#191970" points="529.5621,-348.1021 519.9976,-343.5446 524.6324,-353.0719 529.5621,-348.1021"/>
</g>
<!-- Node6 -->
<g id="node7" class="node">
<title>Node6</title>
<g id="a_node7"><a xlink:href="_field_utils_8_h.html" target="_top" xlink:title="amr&#45;wind/core/FieldUtils.H">
<polygon fill="#ffffff" stroke="#000000" points="37.3306,-118 37.3306,-137 182.3306,-137 182.3306,-118 37.3306,-118"/>
<text text-anchor="middle" x="109.8306" y="-125" font-family="Helvetica,sans-Serif" font-size="10.00" fill="#000000">amr&#45;wind/core/FieldUtils.H</text>
</a>
</g>
</g>
<!-- Node0&#45;&gt;Node6 -->
<g id="edge74" class="edge">
<title>Node0&#45;&gt;Node6</title>
<path fill="none" stroke="#191970" d="M514.0822,-380.4763C480.1225,-373.1685 435.6167,-361.352 398.8306,-344 283.2421,-289.4766 168.4792,-184.498 126.527,-143.9984"/>
<polygon fill="#191970" stroke="#191970" points="128.9485,-141.4711 119.3423,-137.0021 124.0649,-146.4862 128.9485,-141.4711"/>
</g>
<!-- Node27 -->
<g id="node28" class="node">
<title>Node27</title>
<g id="a_node28"><a xlink:href="_c_f_d_sim_8_h.html" target="_top" xlink:title="amr&#45;wind/CFDSim.H">
<polygon fill="#ffffff" stroke="#000000" points="1427.8306,-252 1427.8306,-271 1541.8306,-271 1541.8306,-252 1427.8306,-252"/>
<text text-anchor="middle" x="1484.8306" y="-259" font-family="Helvetica,sans-Serif" font-size="10.00" fill="#000000">amr&#45;wind/CFDSim.H</text>
</a>
</g>
</g>
<!-- Node0&#45;&gt;Node27 -->
<g id="edge50" class="edge">
<title>Node0&#45;&gt;Node27</title>
<path fill="none" stroke="#191970" d="M575.722,-380.2533C593.2778,-361.2731 632.2149,-320.5468 649.8306,-313 719.562,-283.1262 1231.621,-267.7121 1417.584,-263.0534"/>
<polygon fill="#191970" stroke="#191970" points="1417.8662,-266.5475 1427.7764,-262.8006 1417.6926,-259.5497 1417.8662,-266.5475"/>
</g>
<!-- Node38 -->
<g id="node39" class="node">
<title>Node38</title>
<polygon fill="#ffffff" stroke="#bfbfbf" points="658.3306,-319 658.3306,-338 775.3306,-338 775.3306,-319 658.3306,-319"/>
<text text-anchor="middle" x="716.8306" y="-326" font-family="Helvetica,sans-Serif" font-size="10.00" fill="#000000">AMReX_ParmParse.H</text>
</g>
<!-- Node0&#45;&gt;Node38 -->
<g id="edge75" class="edge">
<title>Node0&#45;&gt;Node38</title>
<path fill="none" stroke="#191970" d="M590.2681,-380.3906C615.476,-370.0554 655.746,-353.5447 684.0783,-341.9284"/>
<polygon fill="#191970" stroke="#191970" points="685.633,-345.0739 693.5577,-338.0419 682.9774,-338.5971 685.633,-345.0739"/>
</g>
<!-- Node2 -->
<g id="node3" class="node">
<title>Node2</title>
<g id="a_node3"><a xlink:href="_field_repo_8_h.html" target="_top" xlink:title="amr&#45;wind/core/FieldRepo.H">
<polygon fill="#ffffff" stroke="#000000" points="517.8306,-185 517.8306,-204 663.8306,-204 663.8306,-185 517.8306,-185"/>
<text text-anchor="middle" x="590.8306" y="-192" font-family="Helvetica,sans-Serif" font-size="10.00" fill="#000000">amr&#45;wind/core/FieldRepo.H</text>
</a>
</g>
</g>
<!-- Node1&#45;&gt;Node2 -->
<g id="edge2" class="edge">
<title>Node1&#45;&gt;Node2</title>
<path fill="none" stroke="#191970" d="M514.5288,-313.389C530.4129,-288.6393 561.9183,-239.5495 579.0578,-212.8438"/>
<polygon fill="#191970" stroke="#191970" points="582.2111,-214.4105 584.6668,-204.1042 576.32,-210.6296 582.2111,-214.4105"/>
</g>
<!-- Node22 -->
<g id="node23" class="node">
<title>Node22</title>
<g id="a_node23"><a xlink:href="_momentum_source_8_h.html" target="_top" xlink:title="amr&#45;wind/equation_systems\l/icns/MomentumSource.H">
<polygon fill="#ffffff" stroke="#000000" points="313.3306,-246.5 313.3306,-276.5 468.3306,-276.5 468.3306,-246.5 313.3306,-246.5"/>
<text text-anchor="start" x="321.3306" y="-264.5" font-family="Helvetica,sans-Serif" font-size="10.00" fill="#000000">amr&#45;wind/equation_systems</text>
<text text-anchor="middle" x="390.8306" y="-253.5" font-family="Helvetica,sans-Serif" font-size="10.00" fill="#000000">/icns/MomentumSource.H</text>
</a>
</g>
</g>
<!-- Node1&#45;&gt;Node22 -->
<g id="edge39" class="edge">
<title>Node1&#45;&gt;Node22</title>
<path fill="none" stroke="#191970" d="M479.2468,-313.4639C463.3706,-304.1332 442.7657,-292.0232 425.4415,-281.8415"/>
<polygon fill="#191970" stroke="#191970" points="427.1182,-278.7672 416.7235,-276.7177 423.5714,-284.8021 427.1182,-278.7672"/>
</g>
<!-- Node3 -->
<g id="node4" class="node">
<title>Node3</title>
<polygon fill="#ffffff" stroke="#bfbfbf" points="1460.8306,-.5 1460.8306,-19.5 1504.8306,-19.5 1504.8306,-.5 1460.8306,-.5"/>
<text text-anchor="middle" x="1482.8306" y="-7.5" font-family="Helvetica,sans-Serif" font-size="10.00" fill="#000000">string</text>
</g>
<!-- Node2&#45;&gt;Node3 -->
<g id="edge3" class="edge">
<title>Node2&#45;&gt;Node3</title>
<path fill="none" stroke="#191970" d="M664.1573,-193.4866C903.9022,-189.8812 1663.0358,-176.0796 1905.8306,-143 2034.3307,-125.4925 2109.3416,-177.6872 2189.8306,-76 2195.3474,-69.0303 2195.9086,-62.4862 2189.8306,-56 2166.4671,-31.067 1650.8827,-14.7574 1515.2703,-10.8885"/>
<polygon fill="#191970" stroke="#191970" points="1515.2008,-7.3853 1505.106,-10.6016 1515.0032,-14.3825 1515.2008,-7.3853"/>
</g>
<!-- Node4 -->
<g id="node5" class="node">
<title>Node4</title>
<polygon fill="#ffffff" stroke="#bfbfbf" points="1511.3306,-56.5 1511.3306,-75.5 1604.3306,-75.5 1604.3306,-56.5 1511.3306,-56.5"/>
<text text-anchor="middle" x="1557.8306" y="-63.5" font-family="Helvetica,sans-Serif" font-size="10.00" fill="#000000">unordered_map</text>
</g>
<!-- Node2&#45;&gt;Node4 -->
<g id="edge4" class="edge">
<title>Node2&#45;&gt;Node4</title>
<path fill="none" stroke="#191970" d="M664.0921,-191.654C833.9124,-184.7066 1244.4504,-165.7716 1302.8306,-143 1323.459,-134.9538 1321.8043,-121.4456 1341.8306,-112 1369.5217,-98.9393 1446.7286,-84.2716 1500.8926,-75.0851"/>
<polygon fill="#191970" stroke="#191970" points="1501.7757,-78.4859 1511.0585,-73.3791 1500.6172,-71.5825 1501.7757,-78.4859"/>
</g>
<!-- Node5 -->
<g id="node6" class="node">
<title>Node5</title>
<g id="a_node6"><a xlink:href="_field_desc_types_8_h.html" target="_top" xlink:title="amr&#45;wind/core/FieldDescTypes.H">
<polygon fill="#ffffff" stroke="#000000" points="644.8306,-.5 644.8306,-19.5 818.8306,-19.5 818.8306,-.5 644.8306,-.5"/>
<text text-anchor="middle" x="731.8306" y="-7.5" font-family="Helvetica,sans-Serif" font-size="10.00" fill="#000000">amr&#45;wind/core/FieldDescTypes.H</text>
</a>
</g>
</g>
<!-- Node2&#45;&gt;Node5 -->
<g id="edge5" class="edge">
<title>Node2&#45;&gt;Node5</title>
<path fill="none" stroke="#191970" d="M559.9315,-184.8988C498.4226,-164.2748 370.647,-112.9667 419.8306,-56 433.8991,-39.7053 548.4376,-26.0704 634.6894,-17.9771"/>
<polygon fill="#191970" stroke="#191970" points="635.1586,-21.4488 644.7935,-17.0421 634.5135,-14.4786 635.1586,-21.4488"/>
</g>
<!-- Node2&#45;&gt;Node6 -->
<g id="edge6" class="edge">
<title>Node2&#45;&gt;Node6</title>
<path fill="none" stroke="#191970" d="M517.7074,-185.9701C438.4953,-176.4902 308.471,-160.2318 196.8306,-143 188.5482,-141.7216 179.8391,-140.283 171.2627,-138.8109"/>
<polygon fill="#191970" stroke="#191970" points="171.7412,-135.3416 161.2891,-137.0748 170.5408,-142.2379 171.7412,-135.3416"/>
</g>
<!-- Node7 -->
<g id="node8" class="node">
<title>Node7</title>
<polygon fill="#ffffff" stroke="#bfbfbf" points="195.3306,-.5 195.3306,-19.5 302.3306,-19.5 302.3306,-.5 195.3306,-.5"/>
<text text-anchor="middle" x="248.8306" y="-7.5" font-family="Helvetica,sans-Serif" font-size="10.00" fill="#000000">AMReX_MultiFab.H</text>
</g>
<!-- Node2&#45;&gt;Node7 -->
<g id="edge37" class="edge">
<title>Node2&#45;&gt;Node7</title>
<path fill="none" stroke="#191970" d="M538.775,-184.9647C448.7827,-167.2907 270.3188,-126.5963 234.8306,-76 225.103,-62.1311 230.8347,-42.8679 237.6631,-28.7318"/>
<polygon fill="#191970" stroke="#191970" points="240.7601,-30.3625 242.3892,-19.8936 234.5872,-27.0616 240.7601,-30.3625"/>
</g>
<!-- Node9 -->
<g id="node10" class="node">
<title>Node9</title>
<g id="a_node10"><a xlink:href="_field_8_h.html" target="_top" xlink:title="amr&#45;wind/core/Field.H">
<polygon fill="#ffffff" stroke="#000000" points="1171.8306,-118 1171.8306,-137 1293.8306,-137 1293.8306,-118 1171.8306,-118"/>
<text text-anchor="middle" x="1232.8306" y="-125" font-family="Helvetica,sans-Serif" font-size="10.00" fill="#000000">amr&#45;wind/core/Field.H</text>
</a>
</g>
</g>
<!-- Node2&#45;&gt;Node9 -->
<g id="edge10" class="edge">
<title>Node2&#45;&gt;Node9</title>
<path fill="none" stroke="#191970" d="M663.8512,-186.8795C788.0396,-173.919 1038.8414,-147.745 1161.7188,-134.9213"/>
<polygon fill="#191970" stroke="#191970" points="1162.1904,-138.3912 1171.773,-133.8721 1161.4637,-131.429 1162.1904,-138.3912"/>
</g>
<!-- Node17 -->
<g id="node18" class="node">
<title>Node17</title>
<g id="a_node18"><a xlink:href="_int_field_8_h.html" target="_top" xlink:title="amr&#45;wind/core/IntField.H">
<polygon fill="#ffffff" stroke="#000000" points="688.3306,-118 688.3306,-137 823.3306,-137 823.3306,-118 688.3306,-118"/>
<text text-anchor="middle" x="755.8306" y="-125" font-family="Helvetica,sans-Serif" font-size="10.00" fill="#000000">amr&#45;wind/core/IntField.H</text>
</a>
</g>
</g>
<!-- Node2&#45;&gt;Node17 -->
<g id="edge25" class="edge">
<title>Node2&#45;&gt;Node17</title>
<path fill="none" stroke="#191970" d="M614.4711,-184.9005C642.897,-173.3579 690.7756,-153.9163 722.8324,-140.8993"/>
<polygon fill="#191970" stroke="#191970" points="724.2856,-144.0868 732.234,-137.0817 721.6519,-137.6011 724.2856,-144.0868"/>
</g>
<!-- Node18 -->
<g id="node19" class="node">
<title>Node18</title>
<polygon fill="#ffffff" stroke="#bfbfbf" points="428.8306,-56.5 428.8306,-75.5 538.8306,-75.5 538.8306,-56.5 428.8306,-56.5"/>
<text text-anchor="middle" x="483.8306" y="-63.5" font-family="Helvetica,sans-Serif" font-size="10.00" fill="#000000">AMReX_iMultiFab.H</text>
</g>
<!-- Node2&#45;&gt;Node18 -->
<g id="edge38" class="edge">
<title>Node2&#45;&gt;Node18</title>
<path fill="none" stroke="#191970" d="M562.9704,-184.9378C543.3048,-176.7805 517.8746,-163.1376 502.8306,-143 490.377,-126.3297 486.0056,-102.5076 484.514,-85.787"/>
<polygon fill="#191970" stroke="#191970" points="487.9897,-85.2851 483.8775,-75.5209 481.0031,-85.7183 487.9897,-85.2851"/>
</g>
<!-- Node19 -->
<g id="node20" class="node">
<title>Node19</title>
<g id="a_node20"><a xlink:href="_scratch_field_8_h.html" target="_top" xlink:title="amr&#45;wind/core/ScratchField.H">
<polygon fill="#ffffff" stroke="#000000" points="511.8306,-118 511.8306,-137 669.8306,-137 669.8306,-118 511.8306,-118"/>
<text text-anchor="middle" x="590.8306" y="-125" font-family="Helvetica,sans-Serif" font-size="10.00" fill="#000000">amr&#45;wind/core/ScratchField.H</text>
</a>
</g>
</g>
<!-- Node2&#45;&gt;Node19 -->
<g id="edge29" class="edge">
<title>Node2&#45;&gt;Node19</title>
<path fill="none" stroke="#191970" d="M590.8306,-184.9005C590.8306,-175.149 590.8306,-159.7597 590.8306,-147.3695"/>
<polygon fill="#191970" stroke="#191970" points="594.3307,-147.0816 590.8306,-137.0817 587.3307,-147.0817 594.3307,-147.0816"/>
</g>
<!-- Node21 -->
<g id="node22" class="node">
<title>Node21</title>
<polygon fill="#ffffff" stroke="#bfbfbf" points="1350.3306,-118 1350.3306,-137 1459.3306,-137 1459.3306,-118 1350.3306,-118"/>
<text text-anchor="middle" x="1404.8306" y="-125" font-family="Helvetica,sans-Serif" font-size="10.00" fill="#000000">AMReX_AmrCore.H</text>
</g>
<!-- Node2&#45;&gt;Node21 -->
<g id="edge36" class="edge">
<title>Node2&#45;&gt;Node21</title>
<path fill="none" stroke="#191970" d="M663.926,-193.1259C797.8469,-189.7933 1091.2807,-178.7088 1335.8306,-143 1342.6872,-141.9988 1349.8741,-140.6857 1356.9124,-139.247"/>
<polygon fill="#191970" stroke="#191970" points="1358.0184,-142.5895 1367.0624,-137.0707 1356.5509,-135.745 1358.0184,-142.5895"/>
</g>
<!-- Node6&#45;&gt;Node5 -->
<g id="edge7" class="edge">
<title>Node6&#45;&gt;Node5</title>
<path fill="none" stroke="#191970" d="M136.3288,-117.9419C180.0193,-102.5543 270.1745,-72.3633 348.8306,-56 444.9947,-35.9944 556.6826,-23.8132 634.5433,-17.0575"/>
<polygon fill="#191970" stroke="#191970" points="635.1556,-20.518 644.8216,-16.1801 634.5601,-13.5434 635.1556,-20.518"/>
</g>
<!-- Node6&#45;&gt;Node7 -->
<g id="edge8" class="edge">
<title>Node6&#45;&gt;Node7</title>
<path fill="none" stroke="#191970" d="M121.2056,-117.8845C144.9289,-97.8306 199.921,-51.3445 229.3767,-26.4449"/>
<polygon fill="#191970" stroke="#191970" points="231.921,-28.8771 237.2985,-19.7484 227.402,-23.5312 231.921,-28.8771"/>
</g>
<!-- Node8 -->
<g id="node9" class="node">
<title>Node8</title>
<polygon fill="#ffffff" stroke="#bfbfbf" points="22.8306,-56.5 22.8306,-75.5 144.8306,-75.5 144.8306,-56.5 22.8306,-56.5"/>
<text text-anchor="middle" x="83.8306" y="-63.5" font-family="Helvetica,sans-Serif" font-size="10.00" fill="#000000">AMReX_Interpolater.H</text>
</g>
<!-- Node6&#45;&gt;Node8 -->
<g id="edge9" class="edge">
<title>Node6&#45;&gt;Node8</title>
<path fill="none" stroke="#191970" d="M105.7681,-117.8906C102.0882,-109.1862 96.5565,-96.1015 91.9686,-85.2494"/>
<polygon fill="#191970" stroke="#191970" points="95.0682,-83.5927 87.9504,-75.7449 88.6207,-86.3185 95.0682,-83.5927"/>
</g>
<!-- Node9&#45;&gt;Node3 -->
<g id="edge11" class="edge">
<title>Node9&#45;&gt;Node3</title>
<path fill="none" stroke="#191970" d="M1278.1776,-117.9962C1344.4734,-104.0171 1460.4172,-79.2115 1463.8306,-76 1476.4256,-64.1502 1480.8479,-44.5439 1482.3152,-29.7729"/>
<polygon fill="#191970" stroke="#191970" points="1485.8185,-29.827 1482.9477,-19.6285 1478.8321,-29.3913 1485.8185,-29.827"/>
</g>
<!-- Node9&#45;&gt;Node4 -->
<g id="edge13" class="edge">
<title>Node9&#45;&gt;Node4</title>
<path fill="none" stroke="#191970" d="M1278.011,-117.9964C1287.8334,-115.9768 1298.1741,-113.886 1307.8306,-112 1374.0831,-99.0603 1450.4166,-85.161 1501.1311,-76.0686"/>
<polygon fill="#191970" stroke="#191970" points="1502.0096,-79.467 1511.2364,-74.2597 1500.7761,-72.5766 1502.0096,-79.467"/>
</g>
<!-- Node9&#45;&gt;Node5 -->
<g id="edge19" class="edge">
<title>Node9&#45;&gt;Node5</title>
<path fill="none" stroke="#191970" d="M1212.5236,-117.9083C1178.9945,-102.473 1109.6119,-72.2156 1047.8306,-56 975.6799,-37.0627 892.0787,-25.3246 828.995,-18.4494"/>
<polygon fill="#191970" stroke="#191970" points="829.3667,-14.9693 819.0516,-17.3874 828.6233,-21.9297 829.3667,-14.9693"/>
</g>
<!-- Node9&#45;&gt;Node7 -->
<g id="edge15" class="edge">
<title>Node9&#45;&gt;Node7</title>
<path fill="none" stroke="#191970" d="M1171.4693,-118.7733C1071.5131,-104.6899 867.2605,-76.4625 693.8306,-56 558.3753,-40.018 399.3557,-24.3165 312.8425,-16.0313"/>
<polygon fill="#191970" stroke="#191970" points="312.9456,-12.5253 302.658,-15.0581 312.2797,-19.4935 312.9456,-12.5253"/>
</g>
<!-- Node10 -->
<g id="node11" class="node">
<title>Node10</title>
<polygon fill="#ffffff" stroke="#bfbfbf" points="1660.8306,-56.5 1660.8306,-75.5 1718.8306,-75.5 1718.8306,-56.5 1660.8306,-56.5"/>
<text text-anchor="middle" x="1689.8306" y="-63.5" font-family="Helvetica,sans-Serif" font-size="10.00" fill="#000000">memory</text>
</g>
<!-- Node9&#45;&gt;Node10 -->
<g id="edge12" class="edge">
<title>Node9&#45;&gt;Node10</title>
<path fill="none" stroke="#191970" d="M1293.9241,-118.7045C1309.5388,-116.4862 1326.3026,-114.1303 1341.8306,-112 1371.9332,-107.8702 1566.3315,-82.258 1650.7737,-71.1406"/>
<polygon fill="#191970" stroke="#191970" points="1651.2884,-74.6032 1660.746,-69.8278 1650.3747,-67.663 1651.2884,-74.6032"/>
</g>
<!-- Node11 -->
<g id="node12" class="node">
<title>Node11</title>
<polygon fill="#ffffff" stroke="#bfbfbf" points="1390.8306,-56.5 1390.8306,-75.5 1454.8306,-75.5 1454.8306,-56.5 1390.8306,-56.5"/>
<text text-anchor="middle" x="1422.8306" y="-63.5" font-family="Helvetica,sans-Serif" font-size="10.00" fill="#000000">algorithm</text>
</g>
<!-- Node9&#45;&gt;Node11 -->
<g id="edge14" class="edge">
<title>Node9&#45;&gt;Node11</title>
<path fill="none" stroke="#191970" d="M1262.5181,-117.8906C1295.1452,-107.3298 1347.6933,-90.3208 1383.6731,-78.6747"/>
<polygon fill="#191970" stroke="#191970" points="1384.9155,-81.9514 1393.3516,-75.5419 1382.7597,-75.2916 1384.9155,-81.9514"/>
</g>
<!-- Node12 -->
<g id="node13" class="node">
<title>Node12</title>
<polygon fill="#ffffff" stroke="#bfbfbf" points="1171.3306,-56.5 1171.3306,-75.5 1268.3306,-75.5 1268.3306,-56.5 1171.3306,-56.5"/>
<text text-anchor="middle" x="1219.8306" y="-63.5" font-family="Helvetica,sans-Serif" font-size="10.00" fill="#000000">AMReX_BCRec.H</text>
</g>
<!-- Node9&#45;&gt;Node12 -->
<g id="edge16" class="edge">
<title>Node9&#45;&gt;Node12</title>
<path fill="none" stroke="#191970" d="M1230.7994,-117.8906C1228.9784,-109.276 1226.2505,-96.3708 1223.9707,-85.5858"/>
<polygon fill="#191970" stroke="#191970" points="1227.3831,-84.8048 1221.8905,-75.7449 1220.5344,-86.2525 1227.3831,-84.8048"/>
</g>
<!-- Node13 -->
<g id="node14" class="node">
<title>Node13</title>
<polygon fill="#ffffff" stroke="#bfbfbf" points="1286.8306,-56.5 1286.8306,-75.5 1372.8306,-75.5 1372.8306,-56.5 1286.8306,-56.5"/>
<text text-anchor="middle" x="1329.8306" y="-63.5" font-family="Helvetica,sans-Serif" font-size="10.00" fill="#000000">AMReX_Gpu.H</text>
</g>
<!-- Node9&#45;&gt;Node13 -->
<g id="edge17" class="edge">
<title>Node9&#45;&gt;Node13</title>
<path fill="none" stroke="#191970" d="M1247.9869,-117.8906C1263.5049,-108.0519 1287.8499,-92.6167 1305.9591,-81.1351"/>
<polygon fill="#191970" stroke="#191970" points="1308.2094,-83.8526 1314.7808,-75.5419 1304.4611,-77.9407 1308.2094,-83.8526"/>
</g>
<!-- Node14 -->
<g id="node15" class="node">
<title>Node14</title>
<g id="a_node15"><a xlink:href="incflo__enums_8_h.html" target="_top" xlink:title="amr&#45;wind/incflo_enums.H">
<polygon fill="#ffffff" stroke="#000000" points="1774.8306,-56.5 1774.8306,-75.5 1914.8306,-75.5 1914.8306,-56.5 1774.8306,-56.5"/>
<text text-anchor="middle" x="1844.8306" y="-63.5" font-family="Helvetica,sans-Serif" font-size="10.00" fill="#000000">amr&#45;wind/incflo_enums.H</text>
</a>
</g>
</g>
<!-- Node9&#45;&gt;Node14 -->
<g id="edge18" class="edge">
<title>Node9&#45;&gt;Node14</title>
<path fill="none" stroke="#191970" d="M1293.8691,-118.2711C1309.4849,-116.0611 1326.2629,-113.8176 1341.8306,-112 1421.3852,-102.7118 1643.527,-83.2564 1764.2533,-72.8735"/>
<polygon fill="#191970" stroke="#191970" points="1764.8812,-76.3326 1774.5448,-71.9893 1764.2819,-69.3583 1764.8812,-76.3326"/>
</g>
<!-- Node15 -->
<g id="node16" class="node">
<title>Node15</title>
<g id="a_node16"><a xlink:href="_view_field_8_h.html" target="_top" xlink:title="amr&#45;wind/core/ViewField.H">
<polygon fill="#ffffff" stroke="#000000" points="892.8306,-56.5 892.8306,-75.5 1038.8306,-75.5 1038.8306,-56.5 892.8306,-56.5"/>
<text text-anchor="middle" x="965.8306" y="-63.5" font-family="Helvetica,sans-Serif" font-size="10.00" fill="#000000">amr&#45;wind/core/ViewField.H</text>
</a>
</g>
</g>
<!-- Node9&#45;&gt;Node15 -->
<g id="edge20" class="edge">
<title>Node9&#45;&gt;Node15</title>
<path fill="none" stroke="#191970" d="M1191.4049,-117.9581C1144.4412,-107.1406 1067.8373,-89.4959 1017.1328,-77.8168"/>
<polygon fill="#191970" stroke="#191970" points="1017.8841,-74.3983 1007.3536,-75.5643 1016.3128,-81.2196 1017.8841,-74.3983"/>
</g>
<!-- Node15&#45;&gt;Node3 -->
<g id="edge21" class="edge">
<title>Node15&#45;&gt;Node3</title>
<path fill="none" stroke="#191970" d="M1038.9273,-57.5559C1043.6318,-57.0254 1048.2974,-56.503 1052.8306,-56 1201.173,-39.5402 1378.425,-20.905 1450.2343,-13.3986"/>
<polygon fill="#191970" stroke="#191970" points="1450.8592,-16.8524 1460.4414,-12.3323 1450.1319,-9.8903 1450.8592,-16.8524"/>
</g>
<!-- Node15&#45;&gt;Node5 -->
<g id="edge22" class="edge">
<title>Node15&#45;&gt;Node5</title>
<path fill="none" stroke="#191970" d="M925.8705,-56.4369C885.9915,-46.8932 824.6168,-32.2052 781.5979,-21.9101"/>
<polygon fill="#191970" stroke="#191970" points="782.166,-18.4473 771.626,-19.5237 780.5367,-25.2551 782.166,-18.4473"/>
</g>
<!-- Node15&#45;&gt;Node7 -->
<g id="edge23" class="edge">
<title>Node15&#45;&gt;Node7</title>
<path fill="none" stroke="#191970" d="M892.8022,-60.2962C752.0986,-49.3068 445.6058,-25.3688 312.573,-14.9785"/>
<polygon fill="#191970" stroke="#191970" points="312.777,-11.4838 302.5348,-14.1945 312.2319,-18.4626 312.777,-11.4838"/>
</g>
<!-- Node16 -->
<g id="node17" class="node">
<title>Node16</title>
<polygon fill="#ffffff" stroke="#bfbfbf" points="917.8306,-.5 917.8306,-19.5 1013.8306,-19.5 1013.8306,-.5 917.8306,-.5"/>
<text text-anchor="middle" x="965.8306" y="-7.5" font-family="Helvetica,sans-Serif" font-size="10.00" fill="#000000">AMReX_Vector.H</text>
</g>
<!-- Node15&#45;&gt;Node16 -->
<g id="edge24" class="edge">
<title>Node15&#45;&gt;Node16</title>
<path fill="none" stroke="#191970" d="M965.8306,-56.2455C965.8306,-48.9382 965.8306,-38.6944 965.8306,-29.7046"/>
<polygon fill="#191970" stroke="#191970" points="969.3307,-29.6426 965.8306,-19.6427 962.3307,-29.6427 969.3307,-29.6426"/>
</g>
<!-- Node17&#45;&gt;Node3 -->
<g id="edge26" class="edge">
<title>Node17&#45;&gt;Node3</title>
<path fill="none" stroke="#191970" d="M823.3423,-118.4503C889.2778,-109.2244 992.336,-93.7724 1080.8306,-76 1117.6091,-68.6138 1126,-63.1215 1162.8306,-56 1267.3629,-35.7878 1392.6816,-20.2726 1450.5865,-13.5914"/>
<polygon fill="#191970" stroke="#191970" points="1451.0561,-17.0606 1460.5939,-12.4476 1450.2611,-10.1059 1451.0561,-17.0606"/>
</g>
<!-- Node17&#45;&gt;Node5 -->
<g id="edge27" class="edge">
<title>Node17&#45;&gt;Node5</title>
<path fill="none" stroke="#191970" d="M753.8666,-117.8845C749.9463,-98.6913 741.0806,-55.286 735.868,-29.7663"/>
<polygon fill="#191970" stroke="#191970" points="739.2523,-28.8456 733.8218,-19.7484 732.3939,-30.2465 739.2523,-28.8456"/>
</g>
<!-- Node17&#45;&gt;Node18 -->
<g id="edge28" class="edge">
<title>Node17&#45;&gt;Node18</title>
<path fill="none" stroke="#191970" d="M713.6291,-117.9581C665.786,-107.1406 587.7476,-89.4959 536.0935,-77.8168"/>
<polygon fill="#191970" stroke="#191970" points="536.6569,-74.3559 526.1312,-75.5643 535.1131,-81.1835 536.6569,-74.3559"/>
</g>
<!-- Node19&#45;&gt;Node3 -->
<g id="edge30" class="edge">
<title>Node19&#45;&gt;Node3</title>
<path fill="none" stroke="#191970" d="M641.5589,-117.989C654.0438,-115.8352 667.3976,-113.6884 679.8306,-112 842.6723,-89.8865 891.8984,-127.8803 1047.8306,-76 1064.1036,-70.5858 1064.6027,-61.5476 1080.8306,-56 1149.2858,-32.5984 1367.8183,-17.0758 1450.6167,-11.9025"/>
<polygon fill="#191970" stroke="#191970" points="1450.932,-15.3898 1460.6981,-11.2821 1450.5019,-8.403 1450.932,-15.3898"/>
</g>
<!-- Node19&#45;&gt;Node5 -->
<g id="edge31" class="edge">
<title>Node19&#45;&gt;Node5</title>
<path fill="none" stroke="#191970" d="M620.6969,-117.894C642.9128,-109.5765 672.8843,-95.7504 693.8306,-76 707.7644,-62.8618 718.0956,-43.4624 724.4403,-29.0929"/>
<polygon fill="#191970" stroke="#191970" points="727.7464,-30.2576 728.3502,-19.68 721.2819,-27.5723 727.7464,-30.2576"/>
</g>
<!-- Node19&#45;&gt;Node7 -->
<g id="edge33" class="edge">
<title>Node19&#45;&gt;Node7</title>
<path fill="none" stroke="#191970" d="M556.5211,-117.9954C521.8203,-108.1889 466.7543,-92.0956 419.8306,-76 371.0656,-59.2728 315.5379,-37.2846 281.337,-23.3933"/>
<polygon fill="#191970" stroke="#191970" points="282.4406,-20.0636 271.8592,-19.5291 279.7977,-26.5455 282.4406,-20.0636"/>
</g>
<!-- Node19&#45;&gt;Node15 -->
<g id="edge32" class="edge">
<title>Node19&#45;&gt;Node15</title>
<path fill="none" stroke="#191970" d="M644.9364,-117.9617C656.4497,-115.9643 668.5386,-113.8913 679.8306,-112 753.175,-99.7155 837.212,-86.2748 895.1179,-77.1123"/>
<polygon fill="#191970" stroke="#191970" points="895.9267,-80.528 905.2575,-75.5093 894.8336,-73.6138 895.9267,-80.528"/>
</g>
<!-- Node19&#45;&gt;Node16 -->
<g id="edge34" class="edge">
<title>Node19&#45;&gt;Node16</title>
<path fill="none" stroke="#191970" d="M621.2008,-117.984C688.5338,-96.8864 850.342,-46.1864 925.8122,-22.5391"/>
<polygon fill="#191970" stroke="#191970" points="926.9431,-25.8526 935.4391,-19.5227 924.8501,-19.1729 926.9431,-25.8526"/>
</g>
<!-- Node20 -->
<g id="node21" class="node">
<title>Node20</title>
<polygon fill="#ffffff" stroke="#bfbfbf" points="556.8306,-56.5 556.8306,-75.5 684.8306,-75.5 684.8306,-56.5 556.8306,-56.5"/>
<text text-anchor="middle" x="620.8306" y="-63.5" font-family="Helvetica,sans-Serif" font-size="10.00" fill="#000000">AMReX_PhysBCFunct.H</text>
</g>
<!-- Node19&#45;&gt;Node20 -->
<g id="edge35" class="edge">
<title>Node19&#45;&gt;Node20</title>
<path fill="none" stroke="#191970" d="M595.5181,-117.8906C599.808,-109.0965 606.2788,-95.8312 611.6041,-84.9145"/>
<polygon fill="#191970" stroke="#191970" points="614.8385,-86.2671 616.0771,-75.7449 608.5471,-83.1981 614.8385,-86.2671"/>
</g>
<!-- Node22&#45;&gt;Node2 -->
<g id="edge48" class="edge">
<title>Node22&#45;&gt;Node2</title>
<path fill="none" stroke="#191970" d="M435.7146,-246.4639C470.888,-234.6808 519.2913,-218.4657 552.6264,-207.2984"/>
<polygon fill="#191970" stroke="#191970" points="554.0864,-210.5006 562.4567,-204.0053 551.8628,-203.8631 554.0864,-210.5006"/>
</g>
<!-- Node22&#45;&gt;Node5 -->
<g id="edge46" class="edge">
<title>Node22&#45;&gt;Node5</title>
<path fill="none" stroke="#191970" d="M386.3422,-246.3843C376.1587,-208.6358 355.8731,-109.4389 405.8306,-56 421.3973,-39.3485 544.1449,-25.5879 634.4548,-17.5808"/>
<polygon fill="#191970" stroke="#191970" points="634.8103,-21.0632 644.4672,-16.7048 634.2001,-14.0898 634.8103,-21.0632"/>
</g>
<!-- Node22&#45;&gt;Node6 -->
<g id="edge47" class="edge">
<title>Node22&#45;&gt;Node6</title>
<path fill="none" stroke="#191970" d="M359.1426,-246.389C304.2829,-220.2281 192.3951,-166.8724 139.1945,-141.5027"/>
<polygon fill="#191970" stroke="#191970" points="140.5035,-138.2494 129.9707,-137.1042 137.4904,-144.5677 140.5035,-138.2494"/>
</g>
<!-- Node22&#45;&gt;Node7 -->
<g id="edge49" class="edge">
<title>Node22&#45;&gt;Node7</title>
<path fill="none" stroke="#191970" d="M316.3202,-246.4905C221.7237,-225.9206 66.1723,-186.5287 27.8306,-143 1.9439,-113.6112 -11.0609,-86.2364 13.8306,-56 35.168,-30.081 123.1185,-18.5571 185.1376,-13.5811"/>
<polygon fill="#191970" stroke="#191970" points="185.534,-17.0611 195.2384,-12.8096 185.0008,-10.0814 185.534,-17.0611"/>
</g>
<!-- Node23 -->
<g id="node24" class="node">
<title>Node23</title>
<g id="a_node24"><a xlink:href="_factory_8_h.html" target="_top" xlink:title="amr&#45;wind/core/Factory.H">
<polygon fill="#ffffff" stroke="#000000" points="1762.8306,-118 1762.8306,-137 1896.8306,-137 1896.8306,-118 1762.8306,-118"/>
<text text-anchor="middle" x="1829.8306" y="-125" font-family="Helvetica,sans-Serif" font-size="10.00" fill="#000000">amr&#45;wind/core/Factory.H</text>
</a>
</g>
</g>
<!-- Node22&#45;&gt;Node23 -->
<g id="edge40" class="edge">
<title>Node22&#45;&gt;Node23</title>
<path fill="none" stroke="#191970" d="M468.3401,-259.6672C719.3874,-253.5316 1500.4333,-232.8097 1611.8306,-210 1682.8488,-195.4583 1761.2224,-160.8707 1801.8824,-141.4124"/>
<polygon fill="#191970" stroke="#191970" points="1803.4347,-144.5495 1810.9109,-137.0424 1800.385,-138.2487 1803.4347,-144.5495"/>
</g>
<!-- Node23&#45;&gt;Node4 -->
<g id="edge42" class="edge">
<title>Node23&#45;&gt;Node4</title>
<path fill="none" stroke="#191970" d="M1787.6291,-117.9581C1739.786,-107.1406 1661.7476,-89.4959 1610.0935,-77.8168"/>
<polygon fill="#191970" stroke="#191970" points="1610.6569,-74.3559 1600.1312,-75.5643 1609.1131,-81.1835 1610.6569,-74.3559"/>
</g>
<!-- Node23&#45;&gt;Node10 -->
<g id="edge41" class="edge">
<title>Node23&#45;&gt;Node10</title>
<path fill="none" stroke="#191970" d="M1807.9556,-117.8906C1784.5311,-107.6005 1747.171,-91.1888 1720.7465,-79.5809"/>
<polygon fill="#191970" stroke="#191970" points="1722.1153,-76.3594 1711.552,-75.5419 1719.2999,-82.7683 1722.1153,-76.3594"/>
</g>
<!-- Node24 -->
<g id="node25" class="node">
<title>Node24</title>
<polygon fill="#ffffff" stroke="#bfbfbf" points="2012.8306,-56.5 2012.8306,-75.5 2072.8306,-75.5 2072.8306,-56.5 2012.8306,-56.5"/>
<text text-anchor="middle" x="2042.8306" y="-63.5" font-family="Helvetica,sans-Serif" font-size="10.00" fill="#000000">iostream</text>
</g>
<!-- Node23&#45;&gt;Node24 -->
<g id="edge43" class="edge">
<title>Node23&#45;&gt;Node24</title>
<path fill="none" stroke="#191970" d="M1863.1119,-117.8906C1900.8641,-106.9903 1962.4073,-89.2208 2002.7631,-77.5688"/>
<polygon fill="#191970" stroke="#191970" points="2003.9025,-80.8829 2012.5391,-74.7461 2001.9607,-74.1576 2003.9025,-80.8829"/>
</g>
<!-- Node25 -->
<g id="node26" class="node">
<title>Node25</title>
<polygon fill="#ffffff" stroke="#bfbfbf" points="2091.3306,-56.5 2091.3306,-75.5 2180.3306,-75.5 2180.3306,-56.5 2091.3306,-56.5"/>
<text text-anchor="middle" x="2135.8306" y="-63.5" font-family="Helvetica,sans-Serif" font-size="10.00" fill="#000000">AMReX_Print.H</text>
</g>
<!-- Node23&#45;&gt;Node25 -->
<g id="edge44" class="edge">
<title>Node23&#45;&gt;Node25</title>
<path fill="none" stroke="#191970" d="M1877.3074,-117.9581C1932.4175,-106.8821 2023.1407,-88.6485 2081.1504,-76.9897"/>
<polygon fill="#191970" stroke="#191970" points="2082.1165,-80.3656 2091.2308,-74.9637 2080.7371,-73.5028 2082.1165,-80.3656"/>
</g>
<!-- Node26 -->
<g id="node27" class="node">
<title>Node26</title>
<polygon fill="#ffffff" stroke="#bfbfbf" points="1933.3306,-56.5 1933.3306,-75.5 1994.3306,-75.5 1994.3306,-56.5 1933.3306,-56.5"/>
<text text-anchor="middle" x="1963.8306" y="-63.5" font-family="Helvetica,sans-Serif" font-size="10.00" fill="#000000">AMReX.H</text>
</g>
<!-- Node23&#45;&gt;Node26 -->
<g id="edge45" class="edge">
<title>Node23&#45;&gt;Node26</title>
<path fill="none" stroke="#191970" d="M1850.7681,-117.8906C1873.0905,-107.6457 1908.6343,-91.3326 1933.9063,-79.7339"/>
<polygon fill="#191970" stroke="#191970" points="1935.4116,-82.8942 1943.0402,-75.5419 1932.4917,-76.5322 1935.4116,-82.8942"/>
</g>
<!-- Node27&#45;&gt;Node2 -->
<g id="edge56" class="edge">
<title>Node27&#45;&gt;Node2</title>
<path fill="none" stroke="#191970" d="M1427.547,-257.2069C1274.2507,-245.7183 854.1161,-214.2317 674.29,-200.7548"/>
<polygon fill="#191970" stroke="#191970" points="674.3264,-197.2478 664.0927,-199.9906 673.8032,-204.2282 674.3264,-197.2478"/>
</g>
<!-- Node27&#45;&gt;Node21 -->
<g id="edge51" class="edge">
<title>Node27&#45;&gt;Node21</title>
<path fill="none" stroke="#191970" d="M1479.0772,-251.8631C1465.8158,-229.6501 1432.9227,-174.5541 1415.7152,-145.7316"/>
<polygon fill="#191970" stroke="#191970" points="1418.6632,-143.8417 1410.5319,-137.0496 1412.6529,-147.43 1418.6632,-143.8417"/>
</g>
<!-- Node28 -->
<g id="node29" class="node">
<title>Node28</title>
<g id="a_node29"><a xlink:href="_sim_time_8_h.html" target="_top" xlink:title="amr&#45;wind/core/SimTime.H">
<polygon fill="#ffffff" stroke="#000000" points="2513.3306,-185 2513.3306,-204 2656.3306,-204 2656.3306,-185 2513.3306,-185"/>
<text text-anchor="middle" x="2584.8306" y="-192" font-family="Helvetica,sans-Serif" font-size="10.00" fill="#000000">amr&#45;wind/core/SimTime.H</text>
</a>
</g>
</g>
<!-- Node27&#45;&gt;Node28 -->
<g id="edge52" class="edge">
<title>Node27&#45;&gt;Node28</title>
<path fill="none" stroke="#191970" d="M1542.0383,-258.0155C1724.0569,-246.9289 2290.2731,-212.4412 2502.9726,-199.4859"/>
<polygon fill="#191970" stroke="#191970" points="2503.3664,-202.9685 2513.1351,-198.8669 2502.9408,-195.9814 2503.3664,-202.9685"/>
</g>
<!-- Node32 -->
<g id="node33" class="node">
<title>Node32</title>
<g id="a_node33"><a xlink:href="_p_d_e_base_8_h.html" target="_top" xlink:title="amr&#45;wind/equation_systems\l/PDEBase.H">
<polygon fill="#ffffff" stroke="#000000" points="1752.3306,-179.5 1752.3306,-209.5 1907.3306,-209.5 1907.3306,-179.5 1752.3306,-179.5"/>
<text text-anchor="start" x="1760.3306" y="-197.5" font-family="Helvetica,sans-Serif" font-size="10.00" fill="#000000">amr&#45;wind/equation_systems</text>
<text text-anchor="middle" x="1829.8306" y="-186.5" font-family="Helvetica,sans-Serif" font-size="10.00" fill="#000000">/PDEBase.H</text>
</a>
</g>
</g>
<!-- Node27&#45;&gt;Node32 -->
<g id="edge57" class="edge">
<title>Node27&#45;&gt;Node32</title>
<path fill="none" stroke="#191970" d="M1533.8943,-251.9717C1588.0406,-241.4563 1676.2609,-224.3237 1742.3168,-211.4954"/>
<polygon fill="#191970" stroke="#191970" points="1743.1575,-214.8976 1752.3068,-209.5553 1741.823,-208.026 1743.1575,-214.8976"/>
</g>
<!-- Node36 -->
<g id="node37" class="node">
<title>Node36</title>
<g id="a_node37"><a xlink:href="_physics_8_h.html" target="_top" xlink:title="amr&#45;wind/core/Physics.H">
<polygon fill="#ffffff" stroke="#000000" points="1465.3306,-185 1465.3306,-204 1602.3306,-204 1602.3306,-185 1465.3306,-185"/>
<text text-anchor="middle" x="1533.8306" y="-192" font-family="Helvetica,sans-Serif" font-size="10.00" fill="#000000">amr&#45;wind/core/Physics.H</text>
</a>
</g>
</g>
<!-- Node27&#45;&gt;Node36 -->
<g id="edge69" class="edge">
<title>Node27&#45;&gt;Node36</title>
<path fill="none" stroke="#191970" d="M1491.8512,-251.9005C1499.3467,-241.6515 1511.3969,-225.1747 1520.6682,-212.4976"/>
<polygon fill="#191970" stroke="#191970" points="1523.745,-214.2195 1526.8232,-204.0817 1518.0948,-210.0873 1523.745,-214.2195"/>
</g>
<!-- Node29 -->
<g id="node30" class="node">
<title>Node29</title>
<polygon fill="#ffffff" stroke="#bfbfbf" points="2731.3306,-118 2731.3306,-137 2822.3306,-137 2822.3306,-118 2731.3306,-118"/>
<text text-anchor="middle" x="2776.8306" y="-125" font-family="Helvetica,sans-Serif" font-size="10.00" fill="#000000">AMReX_REAL.H</text>
</g>
<!-- Node28&#45;&gt;Node29 -->
<g id="edge53" class="edge">
<title>Node28&#45;&gt;Node29</title>
<path fill="none" stroke="#191970" d="M2612.3396,-184.9005C2645.8447,-173.2086 2702.5748,-153.4122 2739.8704,-140.3976"/>
<polygon fill="#191970" stroke="#191970" points="2741.0843,-143.681 2749.3728,-137.0817 2738.7779,-137.0719 2741.0843,-143.681"/>
</g>
<!-- Node30 -->
<g id="node31" class="node">
<title>Node30</title>
<polygon fill="#ffffff" stroke="#bfbfbf" points="2448.8306,-118 2448.8306,-137 2580.8306,-137 2580.8306,-118 2448.8306,-118"/>
<text text-anchor="middle" x="2514.8306" y="-125" font-family="Helvetica,sans-Serif" font-size="10.00" fill="#000000">AMReX_GpuQualifiers.H</text>
</g>
<!-- Node28&#45;&gt;Node30 -->
<g id="edge54" class="edge">
<title>Node28&#45;&gt;Node30</title>
<path fill="none" stroke="#191970" d="M2574.8014,-184.9005C2563.6775,-174.2535 2545.532,-156.8856 2532.1096,-144.0385"/>
<polygon fill="#191970" stroke="#191970" points="2534.4857,-141.4678 2524.8413,-137.0817 2529.6454,-146.5247 2534.4857,-141.4678"/>
</g>
<!-- Node31 -->
<g id="node32" class="node">
<title>Node31</title>
<polygon fill="#ffffff" stroke="#bfbfbf" points="2598.8306,-118 2598.8306,-137 2712.8306,-137 2712.8306,-118 2598.8306,-118"/>
<text text-anchor="middle" x="2655.8306" y="-125" font-family="Helvetica,sans-Serif" font-size="10.00" fill="#000000">AMReX_Extension.H</text>
</g>
<!-- Node28&#45;&gt;Node31 -->
<g id="edge55" class="edge">
<title>Node28&#45;&gt;Node31</title>
<path fill="none" stroke="#191970" d="M2595.0032,-184.9005C2606.2859,-174.2535 2624.6907,-156.8856 2638.3048,-144.0385"/>
<polygon fill="#191970" stroke="#191970" points="2640.8061,-146.4905 2645.677,-137.0817 2636.0018,-141.3994 2640.8061,-146.4905"/>
</g>
<!-- Node32&#45;&gt;Node3 -->
<g id="edge58" class="edge">
<title>Node32&#45;&gt;Node3</title>
<path fill="none" stroke="#191970" d="M1907.4341,-191.9223C2047.2237,-184.7263 2318.3217,-157.6112 2222.8306,-56 2198.2383,-29.8315 1654.0761,-14.3283 1514.9771,-10.7838"/>
<polygon fill="#191970" stroke="#191970" points="1515.0318,-7.2841 1504.9468,-10.5311 1514.8554,-14.2819 1515.0318,-7.2841"/>
</g>
<!-- Node32&#45;&gt;Node5 -->
<g id="edge67" class="edge">
<title>Node32&#45;&gt;Node5</title>
<path fill="none" stroke="#191970" d="M1752.1607,-188.8342C1582.4833,-176.4114 1191.5122,-147.5218 1162.8306,-143 1036.8612,-123.1401 1004.775,-116.4375 883.8306,-76 839.5146,-61.183 790.246,-38.6 760.1483,-24.0698"/>
<polygon fill="#191970" stroke="#191970" points="761.6036,-20.8856 751.0805,-19.6552 758.5395,-27.1794 761.6036,-20.8856"/>
</g>
<!-- Node32&#45;&gt;Node14 -->
<g id="edge68" class="edge">
<title>Node32&#45;&gt;Node14</title>
<path fill="none" stroke="#191970" d="M1866.1823,-179.3589C1881.3155,-171.0205 1897.3176,-159.0521 1905.8306,-143 1912.2859,-130.828 1911.9761,-124.3313 1905.8306,-112 1899.2303,-98.756 1886.798,-88.3192 1874.8702,-80.7581"/>
<polygon fill="#191970" stroke="#191970" points="1876.3505,-77.5691 1865.9522,-75.5378 1872.8142,-83.6102 1876.3505,-77.5691"/>
</g>
<!-- Node32&#45;&gt;Node23 -->
<g id="edge59" class="edge">
<title>Node32&#45;&gt;Node23</title>
<path fill="none" stroke="#191970" d="M1829.8306,-179.2967C1829.8306,-169.7699 1829.8306,-157.3954 1829.8306,-147.1306"/>
<polygon fill="#191970" stroke="#191970" points="1833.3307,-147.0549 1829.8306,-137.055 1826.3307,-147.055 1833.3307,-147.0549"/>
</g>
<!-- Node33 -->
<g id="node34" class="node">
<title>Node33</title>
<g id="a_node34"><a xlink:href="_coll_mgr_8_h.html" target="_top" xlink:title="amr&#45;wind/core/CollMgr.H">
<polygon fill="#ffffff" stroke="#000000" points="1608.8306,-118 1608.8306,-137 1744.8306,-137 1744.8306,-118 1608.8306,-118"/>
<text text-anchor="middle" x="1676.8306" y="-125" font-family="Helvetica,sans-Serif" font-size="10.00" fill="#000000">amr&#45;wind/core/CollMgr.H</text>
</a>
</g>
</g>
<!-- Node32&#45;&gt;Node33 -->
<g id="edge60" class="edge">
<title>Node32&#45;&gt;Node33</title>
<path fill="none" stroke="#191970" d="M1795.4945,-179.4639C1769.2448,-167.969 1733.3633,-152.2561 1707.9482,-141.1266"/>
<polygon fill="#191970" stroke="#191970" points="1709.3262,-137.9092 1698.762,-137.1039 1706.5182,-144.3214 1709.3262,-137.9092"/>
</g>
<!-- Node34 -->
<g id="node35" class="node">
<title>Node34</title>
<g id="a_node35"><a xlink:href="_p_d_e_fields_8_h.html" target="_top" xlink:title="amr&#45;wind/equation_systems\l/PDEFields.H">
<polygon fill="#ffffff" stroke="#000000" points="2275.3306,-112.5 2275.3306,-142.5 2430.3306,-142.5 2430.3306,-112.5 2275.3306,-112.5"/>
<text text-anchor="start" x="2283.3306" y="-130.5" font-family="Helvetica,sans-Serif" font-size="10.00" fill="#000000">amr&#45;wind/equation_systems</text>
<text text-anchor="middle" x="2352.8306" y="-119.5" font-family="Helvetica,sans-Serif" font-size="10.00" fill="#000000">/PDEFields.H</text>
</a>
</g>
</g>
<!-- Node32&#45;&gt;Node34 -->
<g id="edge65" class="edge">
<title>Node32&#45;&gt;Node34</title>
<path fill="none" stroke="#191970" d="M1907.447,-186.3599C1993.8516,-177.0344 2137.5701,-160.7371 2260.8306,-143 2262.1383,-142.8118 2263.456,-142.6199 2264.7817,-142.4247"/>
<polygon fill="#191970" stroke="#191970" points="2265.7069,-145.8247 2275.0719,-140.8702 2264.6612,-138.9033 2265.7069,-145.8247"/>
</g>
<!-- Node33&#45;&gt;Node3 -->
<g id="edge61" class="edge">
<title>Node33&#45;&gt;Node3</title>
<path fill="none" stroke="#191970" d="M1692.2801,-117.9213C1713.0225,-103.8895 1745.3556,-77.1216 1727.8306,-56 1701.1746,-23.8734 1575.5616,-14.0441 1515.2735,-11.1507"/>
<polygon fill="#191970" stroke="#191970" points="1515.3018,-7.6486 1505.1562,-10.7012 1514.991,-14.6417 1515.3018,-7.6486"/>
</g>
<!-- Node33&#45;&gt;Node4 -->
<g id="edge63" class="edge">
<title>Node33&#45;&gt;Node4</title>
<path fill="none" stroke="#191970" d="M1658.2369,-117.8906C1638.6753,-107.7811 1607.6806,-91.7628 1585.2998,-80.1962"/>
<polygon fill="#191970" stroke="#191970" points="1586.7845,-77.0238 1576.2938,-75.5419 1583.5707,-83.2425 1586.7845,-77.0238"/>
</g>
<!-- Node33&#45;&gt;Node10 -->
<g id="edge62" class="edge">
<title>Node33&#45;&gt;Node10</title>
<path fill="none" stroke="#191970" d="M1678.8619,-117.8906C1680.6829,-109.276 1683.4108,-96.3708 1685.6906,-85.5858"/>
<polygon fill="#191970" stroke="#191970" points="1689.1269,-86.2525 1687.7708,-75.7449 1682.2782,-84.8048 1689.1269,-86.2525"/>
</g>
<!-- Node33&#45;&gt;Node16 -->
<g id="edge64" class="edge">
<title>Node33&#45;&gt;Node16</title>
<path fill="none" stroke="#191970" d="M1671.7571,-117.9666C1662.6153,-101.8915 1641.7052,-69.7997 1613.8306,-56 1561.7632,-30.2233 1173.697,-16.1402 1024.2563,-11.6261"/>
<polygon fill="#191970" stroke="#191970" points="1024.0168,-8.1175 1013.9169,-11.3176 1023.808,-15.1144 1024.0168,-8.1175"/>
</g>
<!-- Node35 -->
<g id="node36" class="node">
<title>Node35</title>
<polygon fill="#ffffff" stroke="#bfbfbf" points="2328.3306,-56.5 2328.3306,-75.5 2377.3306,-75.5 2377.3306,-56.5 2328.3306,-56.5"/>
<text text-anchor="middle" x="2352.8306" y="-63.5" font-family="Helvetica,sans-Serif" font-size="10.00" fill="#000000">iosfwd</text>
</g>
<!-- Node34&#45;&gt;Node35 -->
<g id="edge66" class="edge">
<title>Node34&#45;&gt;Node35</title>
<path fill="none" stroke="#191970" d="M2352.8306,-112.2977C2352.8306,-104.3834 2352.8306,-94.6043 2352.8306,-86.0759"/>
<polygon fill="#191970" stroke="#191970" points="2356.3307,-85.8469 2352.8306,-75.8469 2349.3307,-85.847 2356.3307,-85.8469"/>
</g>
<!-- Node36&#45;&gt;Node7 -->
<g id="edge72" class="edge">
<title>Node36&#45;&gt;Node7</title>
<path fill="none" stroke="#191970" d="M1465.305,-192.6557C1249.9323,-186.6397 595.4703,-166.6087 502.8306,-143 409.3601,-119.1796 311.8578,-55.2142 269.9848,-25.5287"/>
<polygon fill="#191970" stroke="#191970" points="271.855,-22.5629 261.6895,-19.5773 267.7744,-28.2505 271.855,-22.5629"/>
</g>
<!-- Node36&#45;&gt;Node23 -->
<g id="edge70" class="edge">
<title>Node36&#45;&gt;Node23</title>
<path fill="none" stroke="#191970" d="M1575.9259,-184.9717C1628.9264,-172.975 1719.9788,-152.3651 1777.4316,-139.3606"/>
<polygon fill="#191970" stroke="#191970" points="1778.4208,-142.7253 1787.4014,-137.1039 1776.8754,-135.898 1778.4208,-142.7253"/>
</g>
<!-- Node36&#45;&gt;Node33 -->
<g id="edge71" class="edge">
<title>Node36&#45;&gt;Node33</title>
<path fill="none" stroke="#191970" d="M1554.3191,-184.9005C1578.6363,-173.5072 1619.3792,-154.4178 1647.1476,-141.4075"/>
<polygon fill="#191970" stroke="#191970" points="1648.8099,-144.4938 1656.3802,-137.0817 1645.8399,-138.1551 1648.8099,-144.4938"/>
</g>
<!-- Node37 -->
<g id="node38" class="node">
<title>Node37</title>
<polygon fill="#ffffff" stroke="#bfbfbf" points="1477.3306,-118 1477.3306,-137 1590.3306,-137 1590.3306,-118 1477.3306,-118"/>
<text text-anchor="middle" x="1533.8306" y="-125" font-family="Helvetica,sans-Serif" font-size="10.00" fill="#000000">AMReX_Geometry.H</text>
</g>
<!-- Node36&#45;&gt;Node37 -->
<g id="edge73" class="edge">
<title>Node36&#45;&gt;Node37</title>
<path fill="none" stroke="#191970" d="M1533.8306,-184.9005C1533.8306,-175.149 1533.8306,-159.7597 1533.8306,-147.3695"/>
<polygon fill="#191970" stroke="#191970" points="1537.3307,-147.0816 1533.8306,-137.0817 1530.3307,-147.0817 1537.3307,-147.0816"/>
</g>
</g>
</svg>
        <g id="navigator" transform="translate(0 0)" fill="#404254">
                <rect fill="#f2f5e9" fill-opacity="0.5" stroke="#606060" stroke-width=".5" x="0" y="0" width="60" height="60"/>
                <use id="zoomplus" xlink:href="#zoomPlus" x="17" y="9" onmousedown="handleZoom(evt,'in')"/>
                <use id="zoomminus" xlink:href="#zoomMin" x="42" y="9" onmousedown="handleZoom(evt,'out')"/>
                <use id="reset" xlink:href="#resetDef" x="30" y="36" onmousedown="handleReset()"/>
                <g id="arrowUp" xlink:href="#dirArrow" transform="translate(30 24)" onmousedown="handlePan(0,-1)">
                  <use xlink:href="#rim" fill="#404040">
                        <set attributeName="fill" to="#808080" begin="arrowUp.mouseover" end="arrowUp.mouseout"/>
                  </use>
                  <path fill="none" stroke="white" stroke-width="1.5" d="M0,-3.0v7 M-2.5,-0.5L0,-3.0L2.5,-0.5"/>
                </g>
                <g id="arrowRight" xlink:href="#dirArrow" transform="rotate(90) translate(36 -43)" onmousedown="handlePan(1,0)">
                  <use xlink:href="#rim" fill="#404040">
                        <set attributeName="fill" to="#808080" begin="arrowRight.mouseover" end="arrowRight.mouseout"/>
                  </use>
                  <path fill="none" stroke="white" stroke-width="1.5" d="M0,-3.0v7 M-2.5,-0.5L0,-3.0L2.5,-0.5"/>
                </g>
                <g id="arrowDown" xlink:href="#dirArrow" transform="rotate(180) translate(-30 -48)" onmousedown="handlePan(0,1)">
                  <use xlink:href="#rim" fill="#404040">
                        <set attributeName="fill" to="#808080" begin="arrowDown.mouseover" end="arrowDown.mouseout"/>
                  </use>
                  <path fill="none" stroke="white" stroke-width="1.5" d="M0,-3.0v7 M-2.5,-0.5L0,-3.0L2.5,-0.5"/>
                </g>
                <g id="arrowLeft" xlink:href="#dirArrow" transform="rotate(270) translate(-36 17)" onmousedown="handlePan(-1,0)">
                  <use xlink:href="#rim" fill="#404040">
                        <set attributeName="fill" to="#808080" begin="arrowLeft.mouseover" end="arrowLeft.mouseout"/>
                  </use>
                  <path fill="none" stroke="white" stroke-width="1.5" d="M0,-3.0v7 M-2.5,-0.5L0,-3.0L2.5,-0.5"/>
                </g>
        </g>
        <svg viewBox="0 0 15 15" width="100%" height="30px" preserveAspectRatio="xMaxYMin meet">
         <g id="arrow_out" transform="scale(0.3 0.3)">
          <a xlink:href="_gravity_forcing_8cpp__incl_org.svg" target="_base">
           <rect id="button" ry="5" rx="5" y="6" x="6" height="38" width="38"
                fill="#f2f5e9" fill-opacity="0.5" stroke="#606060" stroke-width="1.0"/>
           <path id="arrow"
             d="M 11.500037,31.436501 C 11.940474,20.09759 22.043105,11.32322 32.158766,21.979434 L 37.068811,17.246167 C 37.068811,17.246167 37.088388,32 37.088388,32 L 22.160133,31.978069 C 22.160133,31.978069 26.997745,27.140456 26.997745,27.140456 C 18.528582,18.264221 13.291696,25.230495 11.500037,31.436501 z"
             style="fill:#404040;"/>
          </a>
         </g>
        </svg>
</svg>
