<?xml version="1.0" encoding="UTF-8" standalone="no"?>
<!DOCTYPE svg PUBLIC "-//W3C//DTD SVG 1.1//EN"
 "http://www.w3.org/Graphics/SVG/1.1/DTD/svg11.dtd">
<!-- Generated by graphviz version 2.40.1 (20161225.0304)
 -->
<!-- Title: IOManager.H Pages: 1 -->
<svg width="638pt" height="84pt"
 viewBox="0.00 0.00 638.00 84.00" xmlns="http://www.w3.org/2000/svg" xmlns:xlink="http://www.w3.org/1999/xlink">
<g id="graph0" class="graph" transform="scale(1 1) rotate(0) translate(4 80)">
<title>IOManager.H</title>
<polygon fill="#ffffff" stroke="transparent" points="-4,4 -4,-80 634,-80 634,4 -4,4"/>
<!-- Node0 -->
<g id="node1" class="node">
<title>Node0</title>
<polygon fill="#bfbfbf" stroke="#000000" points="191.5,-56.5 191.5,-75.5 270.5,-75.5 270.5,-56.5 191.5,-56.5"/>
<text text-anchor="middle" x="231" y="-63.5" font-family="Helvetica,sans-Serif" font-size="10.00" fill="#000000">IOManager.H</text>
</g>
<!-- Node1 -->
<g id="node2" class="node">
<title>Node1</title>
<polygon fill="#ffffff" stroke="#bfbfbf" points="0,-.5 0,-19.5 44,-19.5 44,-.5 0,-.5"/>
<text text-anchor="middle" x="22" y="-7.5" font-family="Helvetica,sans-Serif" font-size="10.00" fill="#000000">string</text>
</g>
<!-- Node0&#45;&gt;Node1 -->
<g id="edge1" class="edge">
<title>Node0&#45;&gt;Node1</title>
<path fill="none" stroke="#191970" d="M191.2263,-56.4364C157.1521,-48.0838 106.5667,-35.308 54.1146,-20.2133"/>
<polygon fill="#191970" stroke="#191970" points="54.8816,-16.7916 44.3025,-17.3684 52.9323,-23.5148 54.8816,-16.7916"/>
</g>
<!-- Node2 -->
<g id="node3" class="node">
<title>Node2</title>
<polygon fill="#ffffff" stroke="#bfbfbf" points="62.5,-.5 62.5,-19.5 155.5,-19.5 155.5,-.5 62.5,-.5"/>
<text text-anchor="middle" x="109" y="-7.5" font-family="Helvetica,sans-Serif" font-size="10.00" fill="#000000">unordered_map</text>
</g>
<!-- Node0&#45;&gt;Node2 -->
<g id="edge2" class="edge">
<title>Node0&#45;&gt;Node2</title>
<path fill="none" stroke="#191970" d="M210.0275,-56.3733C190.4433,-47.3838 161.0039,-33.8706 138.949,-23.7471"/>
<polygon fill="#191970" stroke="#191970" points="140.2473,-20.4919 129.6989,-19.5011 137.3271,-26.8538 140.2473,-20.4919"/>
</g>
<!-- Node3 -->
<g id="node4" class="node">
<title>Node3</title>
<polygon fill="#ffffff" stroke="#bfbfbf" points="174,-.5 174,-19.5 206,-19.5 206,-.5 174,-.5"/>
<text text-anchor="middle" x="190" y="-7.5" font-family="Helvetica,sans-Serif" font-size="10.00" fill="#000000">set</text>
</g>
<!-- Node0&#45;&gt;Node3 -->
<g id="edge3" class="edge">
<title>Node0&#45;&gt;Node3</title>
<path fill="none" stroke="#191970" d="M223.8583,-56.2455C218.1556,-48.4564 210.01,-37.3308 203.1375,-27.9439"/>
<polygon fill="#191970" stroke="#191970" points="205.7913,-25.6437 197.0598,-19.6427 200.1432,-29.7789 205.7913,-25.6437"/>
</g>
<!-- Node4 -->
<g id="node5" class="node">
<title>Node4</title>
<polygon fill="#ffffff" stroke="#bfbfbf" points="224,-.5 224,-19.5 320,-19.5 320,-.5 224,-.5"/>
<text text-anchor="middle" x="272" y="-7.5" font-family="Helvetica,sans-Serif" font-size="10.00" fill="#000000">AMReX_Vector.H</text>
</g>
<!-- Node0&#45;&gt;Node4 -->
<g id="edge4" class="edge">
<title>Node0&#45;&gt;Node4</title>
<path fill="none" stroke="#191970" d="M238.1417,-56.2455C243.8444,-48.4564 251.99,-37.3308 258.8625,-27.9439"/>
<polygon fill="#191970" stroke="#191970" points="261.8568,-29.7789 264.9402,-19.6427 256.2087,-25.6437 261.8568,-29.7789"/>
</g>
<!-- Node5 -->
<g id="node6" class="node">
<title>Node5</title>
<polygon fill="#ffffff" stroke="#bfbfbf" points="338,-.5 338,-19.5 448,-19.5 448,-.5 338,-.5"/>
<text text-anchor="middle" x="393" y="-7.5" font-family="Helvetica,sans-Serif" font-size="10.00" fill="#000000">AMReX_BoxArray.H</text>
</g>
<!-- Node0&#45;&gt;Node5 -->
<g id="edge5" class="edge">
<title>Node0&#45;&gt;Node5</title>
<path fill="none" stroke="#191970" d="M258.8488,-56.3733C285.6703,-47.1016 326.4127,-33.0178 355.9598,-22.804"/>
<polygon fill="#191970" stroke="#191970" points="357.2069,-26.0762 365.5146,-19.5011 354.9198,-19.4603 357.2069,-26.0762"/>
</g>
<!-- Node6 -->
<g id="node7" class="node">
<title>Node6</title>
<polygon fill="#ffffff" stroke="#bfbfbf" points="466,-.5 466,-19.5 630,-19.5 630,-.5 466,-.5"/>
<text text-anchor="middle" x="548" y="-7.5" font-family="Helvetica,sans-Serif" font-size="10.00" fill="#000000">AMReX_DistributionMapping.H</text>
</g>
<!-- Node0&#45;&gt;Node6 -->
<g id="edge6" class="edge">
<title>Node0&#45;&gt;Node6</title>
<path fill="none" stroke="#191970" d="M270.5073,-59.0208C324.072,-49.5583 420.3647,-32.5476 484.2361,-21.2643"/>
<polygon fill="#191970" stroke="#191970" points="484.9586,-24.6909 494.1972,-19.5046 483.7408,-17.7977 484.9586,-24.6909"/>
</g>
</g>
</svg>
