<?xml version="1.0" encoding="UTF-8" standalone="no"?>
<!DOCTYPE svg PUBLIC "-//W3C//DTD SVG 1.1//EN"
 "http://www.w3.org/Graphics/SVG/1.1/DTD/svg11.dtd">
<!-- Generated by graphviz version 2.40.1 (20161225.0304)
 -->
<!-- Title: IntField.cpp Pages: 1 -->
<svg width="1658pt" height="252pt"
 viewBox="0.00 0.00 1657.81 252.00" xmlns="http://www.w3.org/2000/svg" xmlns:xlink="http://www.w3.org/1999/xlink">
<g id="graph0" class="graph" transform="scale(1 1) rotate(0) translate(4 248)">
<title>IntField.cpp</title>
<polygon fill="#ffffff" stroke="transparent" points="-4,4 -4,-248 1653.8127,-248 1653.8127,4 -4,4"/>
<!-- Node0 -->
<g id="node1" class="node">
<title>Node0</title>
<polygon fill="#bfbfbf" stroke="#000000" points="148.3127,-224.5 148.3127,-243.5 220.3127,-243.5 220.3127,-224.5 148.3127,-224.5"/>
<text text-anchor="middle" x="184.3127" y="-231.5" font-family="Helvetica,sans-Serif" font-size="10.00" fill="#000000">IntField.cpp</text>
</g>
<!-- Node1 -->
<g id="node2" class="node">
<title>Node1</title>
<g id="a_node2"><a xlink:href="_int_field_8_h.html" target="_top" xlink:title="amr&#45;wind/core/IntField.H">
<polygon fill="#ffffff" stroke="#000000" points="12.8127,-112.5 12.8127,-131.5 147.8127,-131.5 147.8127,-112.5 12.8127,-112.5"/>
<text text-anchor="middle" x="80.3127" y="-119.5" font-family="Helvetica,sans-Serif" font-size="10.00" fill="#000000">amr&#45;wind/core/IntField.H</text>
</a>
</g>
</g>
<!-- Node0&#45;&gt;Node1 -->
<g id="edge1" class="edge">
<title>Node0&#45;&gt;Node1</title>
<path fill="none" stroke="#191970" d="M175.4457,-224.4509C157.8695,-205.5227 118.3971,-163.014 96.2171,-139.1279"/>
<polygon fill="#191970" stroke="#191970" points="98.5265,-136.4713 89.1572,-131.5249 93.397,-141.2344 98.5265,-136.4713"/>
</g>
<!-- Node5 -->
<g id="node6" class="node">
<title>Node5</title>
<g id="a_node6"><a xlink:href="_field_repo_8_h.html" target="_top" xlink:title="amr&#45;wind/core/FieldRepo.H">
<polygon fill="#ffffff" stroke="#000000" points="216.3127,-168.5 216.3127,-187.5 362.3127,-187.5 362.3127,-168.5 216.3127,-168.5"/>
<text text-anchor="middle" x="289.3127" y="-175.5" font-family="Helvetica,sans-Serif" font-size="10.00" fill="#000000">amr&#45;wind/core/FieldRepo.H</text>
</a>
</g>
</g>
<!-- Node0&#45;&gt;Node5 -->
<g id="edge5" class="edge">
<title>Node0&#45;&gt;Node5</title>
<path fill="none" stroke="#191970" d="M202.6023,-224.2455C219.0889,-215.4527 243.5478,-202.4079 262.2892,-192.4125"/>
<polygon fill="#191970" stroke="#191970" points="264.0562,-195.4368 271.2326,-187.6427 260.762,-189.2604 264.0562,-195.4368"/>
</g>
<!-- Node2 -->
<g id="node3" class="node">
<title>Node2</title>
<polygon fill="#ffffff" stroke="#bfbfbf" points="342.3127,-.5 342.3127,-19.5 386.3127,-19.5 386.3127,-.5 342.3127,-.5"/>
<text text-anchor="middle" x="364.3127" y="-7.5" font-family="Helvetica,sans-Serif" font-size="10.00" fill="#000000">string</text>
</g>
<!-- Node1&#45;&gt;Node2 -->
<g id="edge2" class="edge">
<title>Node1&#45;&gt;Node2</title>
<path fill="none" stroke="#191970" d="M65.2381,-112.3512C46.2862,-99.0603 18.0836,-74.6482 34.3127,-56 53.7165,-33.7038 252.4853,-17.6882 331.8459,-12.1366"/>
<polygon fill="#191970" stroke="#191970" points="332.4842,-15.6011 342.2204,-11.4231 332.0038,-8.6176 332.4842,-15.6011"/>
</g>
<!-- Node3 -->
<g id="node4" class="node">
<title>Node3</title>
<g id="a_node4"><a xlink:href="_field_desc_types_8_h.html" target="_top" xlink:title="amr&#45;wind/core/FieldDescTypes.H">
<polygon fill="#ffffff" stroke="#000000" points="920.3127,-.5 920.3127,-19.5 1094.3127,-19.5 1094.3127,-.5 920.3127,-.5"/>
<text text-anchor="middle" x="1007.3127" y="-7.5" font-family="Helvetica,sans-Serif" font-size="10.00" fill="#000000">amr&#45;wind/core/FieldDescTypes.H</text>
</a>
</g>
</g>
<!-- Node1&#45;&gt;Node3 -->
<g id="edge3" class="edge">
<title>Node1&#45;&gt;Node3</title>
<path fill="none" stroke="#191970" d="M73.7228,-112.0282C65.1324,-97.6682 52.8162,-71.2232 67.3127,-56 96.0229,-25.8504 675.0112,-14.5492 909.7364,-11.1957"/>
<polygon fill="#191970" stroke="#191970" points="910.024,-14.6921 919.9737,-11.0514 909.9253,-7.6928 910.024,-14.6921"/>
</g>
<!-- Node4 -->
<g id="node5" class="node">
<title>Node4</title>
<polygon fill="#ffffff" stroke="#bfbfbf" points="76.3127,-56.5 76.3127,-75.5 186.3127,-75.5 186.3127,-56.5 76.3127,-56.5"/>
<text text-anchor="middle" x="131.3127" y="-63.5" font-family="Helvetica,sans-Serif" font-size="10.00" fill="#000000">AMReX_iMultiFab.H</text>
</g>
<!-- Node1&#45;&gt;Node4 -->
<g id="edge4" class="edge">
<title>Node1&#45;&gt;Node4</title>
<path fill="none" stroke="#191970" d="M89.1962,-112.2455C96.5092,-104.2155 107.0518,-92.6394 115.7594,-83.0781"/>
<polygon fill="#191970" stroke="#191970" points="118.3853,-85.3928 122.5309,-75.6427 113.2099,-80.6795 118.3853,-85.3928"/>
</g>
<!-- Node5&#45;&gt;Node1 -->
<g id="edge28" class="edge">
<title>Node5&#45;&gt;Node1</title>
<path fill="none" stroke="#191970" d="M253.3843,-168.3733C218.029,-158.9001 163.9246,-144.4032 125.6339,-134.1435"/>
<polygon fill="#191970" stroke="#191970" points="126.3374,-130.7086 115.7722,-131.5011 124.5256,-137.4701 126.3374,-130.7086"/>
</g>
<!-- Node5&#45;&gt;Node2 -->
<g id="edge6" class="edge">
<title>Node5&#45;&gt;Node2</title>
<path fill="none" stroke="#191970" d="M216.0179,-171.1298C135.9003,-162.8641 17.0112,-148.0778 3.3127,-132 -2.4521,-125.2339 1.5916,-120.7207 3.3127,-112 8.5224,-85.6028 5.0268,-72.4579 26.3127,-56 50.3008,-37.4527 252.2369,-19.1404 332.0446,-12.5579"/>
<polygon fill="#191970" stroke="#191970" points="332.3463,-16.045 342.0285,-11.7433 331.777,-9.0682 332.3463,-16.045"/>
</g>
<!-- Node5&#45;&gt;Node3 -->
<g id="edge8" class="edge">
<title>Node5&#45;&gt;Node3</title>
<path fill="none" stroke="#191970" d="M278.2202,-168.2467C254.0309,-145.8582 201.1868,-90.0919 233.3127,-56 256.1793,-31.734 707.3818,-17.4733 910.1198,-12.2676"/>
<polygon fill="#191970" stroke="#191970" points="910.2642,-15.7652 920.1718,-12.0117 910.086,-8.7675 910.2642,-15.7652"/>
</g>
<!-- Node5&#45;&gt;Node4 -->
<g id="edge38" class="edge">
<title>Node5&#45;&gt;Node4</title>
<path fill="none" stroke="#191970" d="M266.343,-168.334C247.7349,-159.9964 221.2618,-146.9593 200.3127,-132 180.2392,-117.666 160.1898,-97.6977 146.9182,-83.4873"/>
<polygon fill="#191970" stroke="#191970" points="149.2753,-80.8791 139.9383,-75.872 144.1149,-85.6089 149.2753,-80.8791"/>
</g>
<!-- Node6 -->
<g id="node7" class="node">
<title>Node6</title>
<polygon fill="#ffffff" stroke="#bfbfbf" points="242.8127,-56.5 242.8127,-75.5 335.8127,-75.5 335.8127,-56.5 242.8127,-56.5"/>
<text text-anchor="middle" x="289.3127" y="-63.5" font-family="Helvetica,sans-Serif" font-size="10.00" fill="#000000">unordered_map</text>
</g>
<!-- Node5&#45;&gt;Node6 -->
<g id="edge7" class="edge">
<title>Node5&#45;&gt;Node6</title>
<path fill="none" stroke="#191970" d="M289.3127,-168.4509C289.3127,-150.184 289.3127,-109.9553 289.3127,-85.6976"/>
<polygon fill="#191970" stroke="#191970" points="292.8128,-85.5249 289.3127,-75.5249 285.8128,-85.5249 292.8128,-85.5249"/>
</g>
<!-- Node7 -->
<g id="node8" class="node">
<title>Node7</title>
<g id="a_node8"><a xlink:href="_field_utils_8_h.html" target="_top" xlink:title="amr&#45;wind/core/FieldUtils.H">
<polygon fill="#ffffff" stroke="#000000" points="1504.8127,-56.5 1504.8127,-75.5 1649.8127,-75.5 1649.8127,-56.5 1504.8127,-56.5"/>
<text text-anchor="middle" x="1577.3127" y="-63.5" font-family="Helvetica,sans-Serif" font-size="10.00" fill="#000000">amr&#45;wind/core/FieldUtils.H</text>
</a>
</g>
</g>
<!-- Node5&#45;&gt;Node7 -->
<g id="edge9" class="edge">
<title>Node5&#45;&gt;Node7</title>
<path fill="none" stroke="#191970" d="M362.456,-177.7521C606.6714,-176.5726 1384.531,-169.8526 1490.3127,-132 1518.5383,-121.8998 1545.0879,-99.0964 1561.2632,-83.1361"/>
<polygon fill="#191970" stroke="#191970" points="1563.8236,-85.5241 1568.3323,-75.9364 1558.8288,-80.6198 1563.8236,-85.5241"/>
</g>
<!-- Node8 -->
<g id="node9" class="node">
<title>Node8</title>
<polygon fill="#ffffff" stroke="#bfbfbf" points="1384.8127,-.5 1384.8127,-19.5 1491.8127,-19.5 1491.8127,-.5 1384.8127,-.5"/>
<text text-anchor="middle" x="1438.3127" y="-7.5" font-family="Helvetica,sans-Serif" font-size="10.00" fill="#000000">AMReX_MultiFab.H</text>
</g>
<!-- Node5&#45;&gt;Node8 -->
<g id="edge37" class="edge">
<title>Node5&#45;&gt;Node8</title>
<path fill="none" stroke="#191970" d="M362.4261,-177.3076C588.8078,-174.8246 1268.6261,-164.7004 1362.3127,-132 1402.2646,-118.0551 1420.1108,-113.7081 1439.3127,-76 1446.6164,-61.6571 1445.6048,-43.1858 1443.2037,-29.4335"/>
<polygon fill="#191970" stroke="#191970" points="1446.6134,-28.64 1441.1125,-19.5851 1439.766,-30.0941 1446.6134,-28.64"/>
</g>
<!-- Node10 -->
<g id="node11" class="node">
<title>Node10</title>
<g id="a_node11"><a xlink:href="_field_8_h.html" target="_top" xlink:title="amr&#45;wind/core/Field.H">
<polygon fill="#ffffff" stroke="#000000" points="621.3127,-112.5 621.3127,-131.5 743.3127,-131.5 743.3127,-112.5 621.3127,-112.5"/>
<text text-anchor="middle" x="682.3127" y="-119.5" font-family="Helvetica,sans-Serif" font-size="10.00" fill="#000000">amr&#45;wind/core/Field.H</text>
</a>
</g>
</g>
<!-- Node5&#45;&gt;Node10 -->
<g id="edge13" class="edge">
<title>Node5&#45;&gt;Node10</title>
<path fill="none" stroke="#191970" d="M356.4252,-168.4369C427.4055,-158.3227 538.9329,-142.4307 611.342,-132.1129"/>
<polygon fill="#191970" stroke="#191970" points="611.8851,-135.5709 621.2913,-130.6951 610.8976,-128.6409 611.8851,-135.5709"/>
</g>
<!-- Node18 -->
<g id="node19" class="node">
<title>Node18</title>
<g id="a_node19"><a xlink:href="_scratch_field_8_h.html" target="_top" xlink:title="amr&#45;wind/core/ScratchField.H">
<polygon fill="#ffffff" stroke="#000000" points="1067.3127,-112.5 1067.3127,-131.5 1225.3127,-131.5 1225.3127,-112.5 1067.3127,-112.5"/>
<text text-anchor="middle" x="1146.3127" y="-119.5" font-family="Helvetica,sans-Serif" font-size="10.00" fill="#000000">amr&#45;wind/core/ScratchField.H</text>
</a>
</g>
</g>
<!-- Node5&#45;&gt;Node18 -->
<g id="edge29" class="edge">
<title>Node5&#45;&gt;Node18</title>
<path fill="none" stroke="#191970" d="M362.38,-173.2255C519.0666,-162.9869 886.9234,-138.9496 1057.0828,-127.8307"/>
<polygon fill="#191970" stroke="#191970" points="1057.5097,-131.3103 1067.2601,-127.1656 1057.0532,-124.3252 1057.5097,-131.3103"/>
</g>
<!-- Node20 -->
<g id="node21" class="node">
<title>Node20</title>
<polygon fill="#ffffff" stroke="#bfbfbf" points="1243.8127,-112.5 1243.8127,-131.5 1352.8127,-131.5 1352.8127,-112.5 1243.8127,-112.5"/>
<text text-anchor="middle" x="1298.3127" y="-119.5" font-family="Helvetica,sans-Serif" font-size="10.00" fill="#000000">AMReX_AmrCore.H</text>
</g>
<!-- Node5&#45;&gt;Node20 -->
<g id="edge36" class="edge">
<title>Node5&#45;&gt;Node20</title>
<path fill="none" stroke="#191970" d="M362.4292,-177.0865C519.7914,-174.5465 902.408,-165.2911 1233.2828,-131.9916"/>
<polygon fill="#191970" stroke="#191970" points="1233.9544,-135.4415 1243.5495,-130.9489 1233.247,-128.4773 1233.9544,-135.4415"/>
</g>
<!-- Node7&#45;&gt;Node3 -->
<g id="edge10" class="edge">
<title>Node7&#45;&gt;Node3</title>
<path fill="none" stroke="#191970" d="M1504.5428,-58.8507C1402.8672,-48.8615 1218.0518,-30.7042 1104.6333,-19.5613"/>
<polygon fill="#191970" stroke="#191970" points="1104.8577,-16.0666 1094.5633,-18.572 1104.1732,-23.0331 1104.8577,-16.0666"/>
</g>
<!-- Node7&#45;&gt;Node8 -->
<g id="edge11" class="edge">
<title>Node7&#45;&gt;Node8</title>
<path fill="none" stroke="#191970" d="M1553.4177,-56.3733C1530.8044,-47.2629 1496.6585,-33.5062 1471.4254,-23.3404"/>
<polygon fill="#191970" stroke="#191970" points="1472.4793,-19.9917 1461.8958,-19.5011 1469.8634,-26.4845 1472.4793,-19.9917"/>
</g>
<!-- Node9 -->
<g id="node10" class="node">
<title>Node9</title>
<polygon fill="#ffffff" stroke="#bfbfbf" points="1516.3127,-.5 1516.3127,-19.5 1638.3127,-19.5 1638.3127,-.5 1516.3127,-.5"/>
<text text-anchor="middle" x="1577.3127" y="-7.5" font-family="Helvetica,sans-Serif" font-size="10.00" fill="#000000">AMReX_Interpolater.H</text>
</g>
<!-- Node7&#45;&gt;Node9 -->
<g id="edge12" class="edge">
<title>Node7&#45;&gt;Node9</title>
<path fill="none" stroke="#191970" d="M1577.3127,-56.2455C1577.3127,-48.9382 1577.3127,-38.6944 1577.3127,-29.7046"/>
<polygon fill="#191970" stroke="#191970" points="1580.8128,-29.6426 1577.3127,-19.6427 1573.8128,-29.6427 1580.8128,-29.6426"/>
</g>
<!-- Node10&#45;&gt;Node2 -->
<g id="edge14" class="edge">
<title>Node10&#45;&gt;Node2</title>
<path fill="none" stroke="#191970" d="M621.1553,-120.1856C544.1434,-116.6465 417.7159,-106.2699 383.3127,-76 370.3296,-64.5768 365.9589,-44.9137 364.6093,-30.0134"/>
<polygon fill="#191970" stroke="#191970" points="368.0908,-29.5663 364.0735,-19.7627 361.1004,-29.9318 368.0908,-29.5663"/>
</g>
<!-- Node10&#45;&gt;Node3 -->
<g id="edge22" class="edge">
<title>Node10&#45;&gt;Node3</title>
<path fill="none" stroke="#191970" d="M743.4904,-117.7271C792.7339,-112.5246 862.8028,-101.0736 919.3127,-76 946.765,-63.8193 973.6985,-41.6967 990.3904,-26.444"/>
<polygon fill="#191970" stroke="#191970" points="992.8118,-28.9716 997.7193,-19.5819 988.0274,-23.8618 992.8118,-28.9716"/>
</g>
<!-- Node10&#45;&gt;Node6 -->
<g id="edge16" class="edge">
<title>Node10&#45;&gt;Node6</title>
<path fill="none" stroke="#191970" d="M621.0565,-113.9758C554.3854,-105.1342 444.6707,-90.2689 350.3127,-76 348.8537,-75.7794 347.3754,-75.5536 345.8842,-75.3238"/>
<polygon fill="#191970" stroke="#191970" points="346.3418,-71.8529 335.9206,-73.7628 345.2582,-78.7686 346.3418,-71.8529"/>
</g>
<!-- Node10&#45;&gt;Node8 -->
<g id="edge18" class="edge">
<title>Node10&#45;&gt;Node8</title>
<path fill="none" stroke="#191970" d="M743.6498,-118.7627C834.794,-113.3485 1011.1629,-100.5493 1159.3127,-76 1243.6779,-62.0202 1340.4668,-37.0781 1395.0057,-22.1843"/>
<polygon fill="#191970" stroke="#191970" points="1395.9695,-25.5493 1404.6851,-19.5251 1394.1151,-18.7993 1395.9695,-25.5493"/>
</g>
<!-- Node11 -->
<g id="node12" class="node">
<title>Node11</title>
<polygon fill="#ffffff" stroke="#bfbfbf" points="770.3127,-56.5 770.3127,-75.5 828.3127,-75.5 828.3127,-56.5 770.3127,-56.5"/>
<text text-anchor="middle" x="799.3127" y="-63.5" font-family="Helvetica,sans-Serif" font-size="10.00" fill="#000000">memory</text>
</g>
<!-- Node10&#45;&gt;Node11 -->
<g id="edge15" class="edge">
<title>Node10&#45;&gt;Node11</title>
<path fill="none" stroke="#191970" d="M702.4257,-112.3733C721.123,-103.4241 749.1871,-89.9917 770.3061,-79.8835"/>
<polygon fill="#191970" stroke="#191970" points="771.9531,-82.9755 779.4621,-75.5011 768.931,-76.6614 771.9531,-82.9755"/>
</g>
<!-- Node12 -->
<g id="node13" class="node">
<title>Node12</title>
<polygon fill="#ffffff" stroke="#bfbfbf" points="846.3127,-56.5 846.3127,-75.5 910.3127,-75.5 910.3127,-56.5 846.3127,-56.5"/>
<text text-anchor="middle" x="878.3127" y="-63.5" font-family="Helvetica,sans-Serif" font-size="10.00" fill="#000000">algorithm</text>
</g>
<!-- Node10&#45;&gt;Node12 -->
<g id="edge17" class="edge">
<title>Node10&#45;&gt;Node12</title>
<path fill="none" stroke="#191970" d="M716.0063,-112.3733C749.3215,-102.8546 800.3886,-88.264 836.3262,-77.9961"/>
<polygon fill="#191970" stroke="#191970" points="837.3802,-81.3351 846.0339,-75.2225 835.4571,-74.6045 837.3802,-81.3351"/>
</g>
<!-- Node13 -->
<g id="node14" class="node">
<title>Node13</title>
<polygon fill="#ffffff" stroke="#bfbfbf" points="392.8127,-56.5 392.8127,-75.5 489.8127,-75.5 489.8127,-56.5 392.8127,-56.5"/>
<text text-anchor="middle" x="441.3127" y="-63.5" font-family="Helvetica,sans-Serif" font-size="10.00" fill="#000000">AMReX_BCRec.H</text>
</g>
<!-- Node10&#45;&gt;Node13 -->
<g id="edge19" class="edge">
<title>Node10&#45;&gt;Node13</title>
<path fill="none" stroke="#191970" d="M641.1571,-112.4369C599.9985,-102.8731 536.6076,-88.1432 492.2885,-77.845"/>
<polygon fill="#191970" stroke="#191970" points="492.8312,-74.3779 482.2985,-75.5237 491.2468,-81.1963 492.8312,-74.3779"/>
</g>
<!-- Node14 -->
<g id="node15" class="node">
<title>Node14</title>
<polygon fill="#ffffff" stroke="#bfbfbf" points="508.3127,-56.5 508.3127,-75.5 594.3127,-75.5 594.3127,-56.5 508.3127,-56.5"/>
<text text-anchor="middle" x="551.3127" y="-63.5" font-family="Helvetica,sans-Serif" font-size="10.00" fill="#000000">AMReX_Gpu.H</text>
</g>
<!-- Node10&#45;&gt;Node14 -->
<g id="edge20" class="edge">
<title>Node10&#45;&gt;Node14</title>
<path fill="none" stroke="#191970" d="M659.793,-112.3733C638.5755,-103.3032 606.585,-89.6279 582.8358,-79.4755"/>
<polygon fill="#191970" stroke="#191970" points="584.1094,-76.2136 573.5385,-75.5011 581.3578,-82.6502 584.1094,-76.2136"/>
</g>
<!-- Node15 -->
<g id="node16" class="node">
<title>Node15</title>
<g id="a_node16"><a xlink:href="incflo__enums_8_h.html" target="_top" xlink:title="amr&#45;wind/incflo_enums.H">
<polygon fill="#ffffff" stroke="#000000" points="612.3127,-56.5 612.3127,-75.5 752.3127,-75.5 752.3127,-56.5 612.3127,-56.5"/>
<text text-anchor="middle" x="682.3127" y="-63.5" font-family="Helvetica,sans-Serif" font-size="10.00" fill="#000000">amr&#45;wind/incflo_enums.H</text>
</a>
</g>
</g>
<!-- Node10&#45;&gt;Node15 -->
<g id="edge21" class="edge">
<title>Node10&#45;&gt;Node15</title>
<path fill="none" stroke="#191970" d="M682.3127,-112.2455C682.3127,-104.9382 682.3127,-94.6944 682.3127,-85.7046"/>
<polygon fill="#191970" stroke="#191970" points="685.8128,-85.6426 682.3127,-75.6427 678.8128,-85.6427 685.8128,-85.6426"/>
</g>
<!-- Node16 -->
<g id="node17" class="node">
<title>Node16</title>
<g id="a_node17"><a xlink:href="_view_field_8_h.html" target="_top" xlink:title="amr&#45;wind/core/ViewField.H">
<polygon fill="#ffffff" stroke="#000000" points="1004.3127,-56.5 1004.3127,-75.5 1150.3127,-75.5 1150.3127,-56.5 1004.3127,-56.5"/>
<text text-anchor="middle" x="1077.3127" y="-63.5" font-family="Helvetica,sans-Serif" font-size="10.00" fill="#000000">amr&#45;wind/core/ViewField.H</text>
</a>
</g>
</g>
<!-- Node10&#45;&gt;Node16 -->
<g id="edge23" class="edge">
<title>Node10&#45;&gt;Node16</title>
<path fill="none" stroke="#191970" d="M743.598,-113.3114C812.6196,-103.5261 924.9167,-87.6055 999.9329,-76.9703"/>
<polygon fill="#191970" stroke="#191970" points="1000.8525,-80.375 1010.2622,-75.5059 999.8699,-73.4443 1000.8525,-80.375"/>
</g>
<!-- Node16&#45;&gt;Node2 -->
<g id="edge24" class="edge">
<title>Node16&#45;&gt;Node2</title>
<path fill="none" stroke="#191970" d="M1004.2767,-60.1354C987.2243,-58.7722 969.1324,-57.3307 952.3127,-56 740.4109,-39.2353 485.5245,-19.4117 396.7057,-12.514"/>
<polygon fill="#191970" stroke="#191970" points="396.7149,-9.0043 386.4739,-11.7196 396.1729,-15.9833 396.7149,-9.0043"/>
</g>
<!-- Node16&#45;&gt;Node3 -->
<g id="edge25" class="edge">
<title>Node16&#45;&gt;Node3</title>
<path fill="none" stroke="#191970" d="M1065.1196,-56.2455C1054.6806,-47.8943 1039.4472,-35.7076 1027.2387,-25.9408"/>
<polygon fill="#191970" stroke="#191970" points="1029.3612,-23.1566 1019.366,-19.6427 1024.9883,-28.6227 1029.3612,-23.1566"/>
</g>
<!-- Node16&#45;&gt;Node8 -->
<g id="edge26" class="edge">
<title>Node16&#45;&gt;Node8</title>
<path fill="none" stroke="#191970" d="M1138.9606,-56.4369C1204.6608,-46.2452 1308.1794,-30.1869 1374.6431,-19.8767"/>
<polygon fill="#191970" stroke="#191970" points="1375.2305,-23.3276 1384.5757,-18.3359 1374.1574,-16.4103 1375.2305,-23.3276"/>
</g>
<!-- Node17 -->
<g id="node18" class="node">
<title>Node17</title>
<polygon fill="#ffffff" stroke="#bfbfbf" points="1144.3127,-.5 1144.3127,-19.5 1240.3127,-19.5 1240.3127,-.5 1144.3127,-.5"/>
<text text-anchor="middle" x="1192.3127" y="-7.5" font-family="Helvetica,sans-Serif" font-size="10.00" fill="#000000">AMReX_Vector.H</text>
</g>
<!-- Node16&#45;&gt;Node17 -->
<g id="edge27" class="edge">
<title>Node16&#45;&gt;Node17</title>
<path fill="none" stroke="#191970" d="M1097.0819,-56.3733C1115.4596,-47.4241 1143.0439,-33.9917 1163.8019,-23.8835"/>
<polygon fill="#191970" stroke="#191970" points="1165.3431,-27.026 1172.8014,-19.5011 1162.2784,-20.7325 1165.3431,-27.026"/>
</g>
<!-- Node18&#45;&gt;Node2 -->
<g id="edge30" class="edge">
<title>Node18&#45;&gt;Node2</title>
<path fill="none" stroke="#191970" d="M1114.9264,-112.495C1057.3013,-95.1 938.7348,-59.5909 919.3127,-56 723.0611,-19.7159 482.4515,-12.038 396.6163,-10.425"/>
<polygon fill="#191970" stroke="#191970" points="396.5268,-6.923 386.4677,-10.2495 396.4057,-13.922 396.5268,-6.923"/>
</g>
<!-- Node18&#45;&gt;Node3 -->
<g id="edge31" class="edge">
<title>Node18&#45;&gt;Node3</title>
<path fill="none" stroke="#191970" d="M1152.3821,-112.4663C1160.3241,-98.6521 1171.8406,-72.8804 1159.3127,-56 1148.4989,-41.4293 1108.6223,-29.6813 1072.4276,-21.7054"/>
<polygon fill="#191970" stroke="#191970" points="1072.8535,-18.2176 1062.3436,-19.5566 1071.3945,-25.0639 1072.8535,-18.2176"/>
</g>
<!-- Node18&#45;&gt;Node8 -->
<g id="edge33" class="edge">
<title>Node18&#45;&gt;Node8</title>
<path fill="none" stroke="#191970" d="M1225.584,-112.9764C1300.9468,-103.7091 1404.9025,-88.8625 1419.3127,-76 1432.2138,-64.4844 1436.5954,-44.8336 1437.9698,-29.9613"/>
<polygon fill="#191970" stroke="#191970" points="1441.4778,-29.909 1438.526,-19.7336 1434.4881,-29.5288 1441.4778,-29.909"/>
</g>
<!-- Node18&#45;&gt;Node16 -->
<g id="edge32" class="edge">
<title>Node18&#45;&gt;Node16</title>
<path fill="none" stroke="#191970" d="M1134.2938,-112.2455C1124.1028,-103.9746 1109.2765,-91.9416 1097.302,-82.2232"/>
<polygon fill="#191970" stroke="#191970" points="1099.164,-79.2268 1089.1938,-75.6427 1094.7528,-84.662 1099.164,-79.2268"/>
</g>
<!-- Node18&#45;&gt;Node17 -->
<g id="edge34" class="edge">
<title>Node18&#45;&gt;Node17</title>
<path fill="none" stroke="#191970" d="M1181.0354,-112.4044C1199.1178,-105.4487 1219.6335,-94.0236 1230.3127,-76 1240.2644,-59.204 1226.0944,-39.8266 1212.3179,-26.4332"/>
<polygon fill="#191970" stroke="#191970" points="1214.617,-23.7931 1204.8605,-19.6624 1209.9116,-28.9757 1214.617,-23.7931"/>
</g>
<!-- Node19 -->
<g id="node20" class="node">
<title>Node19</title>
<polygon fill="#ffffff" stroke="#bfbfbf" points="1282.3127,-56.5 1282.3127,-75.5 1410.3127,-75.5 1410.3127,-56.5 1282.3127,-56.5"/>
<text text-anchor="middle" x="1346.3127" y="-63.5" font-family="Helvetica,sans-Serif" font-size="10.00" fill="#000000">AMReX_PhysBCFunct.H</text>
</g>
<!-- Node18&#45;&gt;Node19 -->
<g id="edge35" class="edge">
<title>Node18&#45;&gt;Node19</title>
<path fill="none" stroke="#191970" d="M1180.6939,-112.3733C1214.3828,-102.9404 1265.8609,-88.5265 1302.4745,-78.2747"/>
<polygon fill="#191970" stroke="#191970" points="1303.6942,-81.5679 1312.3801,-75.5011 1301.8067,-74.8271 1303.6942,-81.5679"/>
</g>
</g>
</svg>
