<?xml version="1.0" encoding="UTF-8" standalone="no"?>
<!DOCTYPE svg PUBLIC "-//W3C//DTD SVG 1.1//EN"
 "http://www.w3.org/Graphics/SVG/1.1/DTD/svg11.dtd">
<!-- Generated by graphviz version 2.40.1 (20161225.0304)
 -->
<!-- Title: KOmegaSSTI.H Pages: 1 -->
<svg width="248pt" height="84pt"
 viewBox="0.00 0.00 247.50 84.00" xmlns="http://www.w3.org/2000/svg" xmlns:xlink="http://www.w3.org/1999/xlink">
<g id="graph0" class="graph" transform="scale(1 1) rotate(0) translate(4 80)">
<title>KOmegaSSTI.H</title>
<polygon fill="#ffffff" stroke="transparent" points="-4,4 -4,-80 243.5,-80 243.5,4 -4,4"/>
<!-- Node73 -->
<g id="node1" class="node">
<title>Node73</title>
<polygon fill="#bfbfbf" stroke="#000000" points="67,-56.5 67,-75.5 156,-75.5 156,-56.5 67,-56.5"/>
<text text-anchor="middle" x="111.5" y="-63.5" font-family="Helvetica,sans-Serif" font-size="10.00" fill="#000000">KOmegaSSTI.H</text>
</g>
<!-- Node74 -->
<g id="node2" class="node">
<title>Node74</title>
<g id="a_node2"><a xlink:href="_k_omega_s_s_t_8cpp.html" target="_top" xlink:title="KOmegaSST.cpp">
<polygon fill="#ffffff" stroke="#000000" points="0,-.5 0,-19.5 95,-19.5 95,-.5 0,-.5"/>
<text text-anchor="middle" x="47.5" y="-7.5" font-family="Helvetica,sans-Serif" font-size="10.00" fill="#000000">KOmegaSST.cpp</text>
</a>
</g>
</g>
<!-- Node73&#45;&gt;Node74 -->
<g id="edge1" class="edge">
<title>Node73&#45;&gt;Node74</title>
<path fill="none" stroke="#191970" d="M92.8086,-49.645C81.6781,-39.9058 67.9337,-27.8795 58.5202,-19.6427"/>
<polygon fill="#191970" stroke="#191970" points="90.5215,-52.2945 100.3521,-56.2455 95.131,-47.0264 90.5215,-52.2945"/>
</g>
<!-- Node75 -->
<g id="node3" class="node">
<title>Node75</title>
<g id="a_node3"><a xlink:href="_k_omega_s_s_t_i_d_d_e_s_8cpp.html" target="_top" xlink:title="KOmegaSSTIDDES.cpp">
<polygon fill="#ffffff" stroke="#000000" points="113.5,-.5 113.5,-19.5 239.5,-19.5 239.5,-.5 113.5,-.5"/>
<text text-anchor="middle" x="176.5" y="-7.5" font-family="Helvetica,sans-Serif" font-size="10.00" fill="#000000">KOmegaSSTIDDES.cpp</text>
</a>
</g>
</g>
<!-- Node73&#45;&gt;Node75 -->
<g id="edge2" class="edge">
<title>Node73&#45;&gt;Node75</title>
<path fill="none" stroke="#191970" d="M130.4835,-49.645C141.7879,-39.9058 155.747,-27.8795 165.3076,-19.6427"/>
<polygon fill="#191970" stroke="#191970" points="128.1138,-47.0668 122.8221,-56.2455 132.6827,-52.3701 128.1138,-47.0668"/>
</g>
</g>
</svg>
