<?xml version="1.0" encoding="UTF-8" standalone="no"?>
<!DOCTYPE svg PUBLIC "-//W3C//DTD SVG 1.1//EN"
 "http://www.w3.org/Graphics/SVG/1.1/DTD/svg11.dtd">
<!-- Generated by graphviz version 2.40.1 (20161225.0304)
 -->
<!-- Title: LaminarModel.H Pages: 1 -->
<svg width="238pt" height="84pt"
 viewBox="0.00 0.00 237.50 84.00" xmlns="http://www.w3.org/2000/svg" xmlns:xlink="http://www.w3.org/1999/xlink">
<g id="graph0" class="graph" transform="scale(1 1) rotate(0) translate(4 80)">
<title>LaminarModel.H</title>
<polygon fill="#ffffff" stroke="transparent" points="-4,4 -4,-80 233.5,-80 233.5,4 -4,4"/>
<!-- Node38 -->
<g id="node1" class="node">
<title>Node38</title>
<polygon fill="#bfbfbf" stroke="#000000" points="67,-56.5 67,-75.5 163,-75.5 163,-56.5 67,-56.5"/>
<text text-anchor="middle" x="115" y="-63.5" font-family="Helvetica,sans-Serif" font-size="10.00" fill="#000000">LaminarModel.H</text>
</g>
<!-- Node39 -->
<g id="node2" class="node">
<title>Node39</title>
<g id="a_node2"><a xlink:href="_laminar_model_8cpp.html" target="_top" xlink:title="LaminarModel.cpp">
<polygon fill="#ffffff" stroke="#000000" points="0,-.5 0,-19.5 106,-19.5 106,-.5 0,-.5"/>
<text text-anchor="middle" x="53" y="-7.5" font-family="Helvetica,sans-Serif" font-size="10.00" fill="#000000">LaminarModel.cpp</text>
</a>
</g>
</g>
<!-- Node38&#45;&gt;Node39 -->
<g id="edge1" class="edge">
<title>Node38&#45;&gt;Node39</title>
<path fill="none" stroke="#191970" d="M96.5779,-49.3607C85.8519,-39.6727 72.7066,-27.7995 63.6758,-19.6427"/>
<polygon fill="#191970" stroke="#191970" points="94.4334,-52.14 104.2004,-56.2455 99.1254,-46.9453 94.4334,-52.14"/>
</g>
<!-- Node40 -->
<g id="node3" class="node">
<title>Node40</title>
<g id="a_node3"><a xlink:href="turbulence__utils_8_h.html" target="_top" xlink:title="turbulence_utils.H">
<polygon fill="#ffffff" stroke="#000000" points="124.5,-.5 124.5,-19.5 229.5,-19.5 229.5,-.5 124.5,-.5"/>
<text text-anchor="middle" x="177" y="-7.5" font-family="Helvetica,sans-Serif" font-size="10.00" fill="#000000">turbulence_utils.H</text>
</a>
</g>
</g>
<!-- Node38&#45;&gt;Node40 -->
<g id="edge2" class="edge">
<title>Node38&#45;&gt;Node40</title>
<path fill="none" stroke="#191970" d="M133.4221,-49.3607C144.1481,-39.6727 157.2934,-27.7995 166.3242,-19.6427"/>
<polygon fill="#191970" stroke="#191970" points="130.8746,-46.9453 125.7996,-56.2455 135.5666,-52.14 130.8746,-46.9453"/>
</g>
</g>
</svg>
