<?xml version="1.0" encoding="UTF-8" standalone="no"?>
<!DOCTYPE svg PUBLIC "-//W3C//DTD SVG 1.1//EN"
 "http://www.w3.org/Graphics/SVG/1.1/DTD/svg11.dtd">
<!-- Generated by graphviz version 2.40.1 (20161225.0304)
 -->
<!-- Title: LinearProfile.cpp Pages: 1 -->
<svg width="1824pt" height="263pt"
 viewBox="0.00 0.00 1823.50 263.00" xmlns="http://www.w3.org/2000/svg" xmlns:xlink="http://www.w3.org/1999/xlink">
<g id="graph0" class="graph" transform="scale(1 1) rotate(0) translate(4 259)">
<title>LinearProfile.cpp</title>
<polygon fill="#ffffff" stroke="transparent" points="-4,4 -4,-259 1819.5,-259 1819.5,4 -4,4"/>
<!-- Node0 -->
<g id="node1" class="node">
<title>Node0</title>
<polygon fill="#bfbfbf" stroke="#000000" points="828,-235.5 828,-254.5 926,-254.5 926,-235.5 828,-235.5"/>
<text text-anchor="middle" x="877" y="-242.5" font-family="Helvetica,sans-Serif" font-size="10.00" fill="#000000">LinearProfile.cpp</text>
</g>
<!-- Node1 -->
<g id="node2" class="node">
<title>Node1</title>
<g id="a_node2"><a xlink:href="_linear_profile_8_h.html" target="_top" xlink:title="amr&#45;wind/physics/udfs\l/LinearProfile.H">
<polygon fill="#ffffff" stroke="#000000" points="403,-168.5 403,-198.5 529,-198.5 529,-168.5 403,-168.5"/>
<text text-anchor="start" x="411" y="-186.5" font-family="Helvetica,sans-Serif" font-size="10.00" fill="#000000">amr&#45;wind/physics/udfs</text>
<text text-anchor="middle" x="466" y="-175.5" font-family="Helvetica,sans-Serif" font-size="10.00" fill="#000000">/LinearProfile.H</text>
</a>
</g>
</g>
<!-- Node0&#45;&gt;Node1 -->
<g id="edge1" class="edge">
<title>Node0&#45;&gt;Node1</title>
<path fill="none" stroke="#191970" d="M827.832,-237.6427C756.1701,-226.9196 622.5238,-206.9214 539.2495,-194.4607"/>
<polygon fill="#191970" stroke="#191970" points="539.7593,-190.9981 529.3514,-192.9796 538.7233,-197.921 539.7593,-190.9981"/>
</g>
<!-- Node4 -->
<g id="node5" class="node">
<title>Node4</title>
<g id="a_node5"><a xlink:href="_field_8_h.html" target="_top" xlink:title="amr&#45;wind/core/Field.H">
<polygon fill="#ffffff" stroke="#000000" points="495,-112.5 495,-131.5 617,-131.5 617,-112.5 495,-112.5"/>
<text text-anchor="middle" x="556" y="-119.5" font-family="Helvetica,sans-Serif" font-size="10.00" fill="#000000">amr&#45;wind/core/Field.H</text>
</a>
</g>
</g>
<!-- Node0&#45;&gt;Node4 -->
<g id="edge4" class="edge">
<title>Node0&#45;&gt;Node4</title>
<path fill="none" stroke="#191970" d="M852.0788,-235.4507C795.193,-213.6534 655.6824,-160.1961 590.5483,-135.2381"/>
<polygon fill="#191970" stroke="#191970" points="591.717,-131.9378 581.1267,-131.628 589.2123,-138.4744 591.717,-131.9378"/>
</g>
<!-- Node15 -->
<g id="node16" class="node">
<title>Node15</title>
<g id="a_node16"><a xlink:href="_field_repo_8_h.html" target="_top" xlink:title="amr&#45;wind/core/FieldRepo.H">
<polygon fill="#ffffff" stroke="#000000" points="1059,-174 1059,-193 1205,-193 1205,-174 1059,-174"/>
<text text-anchor="middle" x="1132" y="-181" font-family="Helvetica,sans-Serif" font-size="10.00" fill="#000000">amr&#45;wind/core/FieldRepo.H</text>
</a>
</g>
</g>
<!-- Node0&#45;&gt;Node15 -->
<g id="edge19" class="edge">
<title>Node0&#45;&gt;Node15</title>
<path fill="none" stroke="#191970" d="M916.564,-235.4581C961.23,-224.6857 1033.9687,-207.1428 1082.397,-195.4631"/>
<polygon fill="#191970" stroke="#191970" points="1083.4426,-198.8113 1092.3432,-193.0643 1081.8013,-192.0065 1083.4426,-198.8113"/>
</g>
<!-- Node23 -->
<g id="node24" class="node">
<title>Node23</title>
<polygon fill="#ffffff" stroke="#bfbfbf" points="1223.5,-174 1223.5,-193 1340.5,-193 1340.5,-174 1223.5,-174"/>
<text text-anchor="middle" x="1282" y="-181" font-family="Helvetica,sans-Serif" font-size="10.00" fill="#000000">AMReX_ParmParse.H</text>
</g>
<!-- Node0&#45;&gt;Node23 -->
<g id="edge42" class="edge">
<title>Node0&#45;&gt;Node23</title>
<path fill="none" stroke="#191970" d="M926.0472,-239.6834C991.8389,-232.2377 1112.1856,-217.5151 1214,-199 1220.1761,-197.8769 1226.6396,-196.5729 1233.0207,-195.2075"/>
<polygon fill="#191970" stroke="#191970" points="1233.9126,-198.5951 1242.9272,-193.0284 1232.4087,-191.7585 1233.9126,-198.5951"/>
</g>
<!-- Node2 -->
<g id="node3" class="node">
<title>Node2</title>
<polygon fill="#ffffff" stroke="#bfbfbf" points="324.5,-112.5 324.5,-131.5 437.5,-131.5 437.5,-112.5 324.5,-112.5"/>
<text text-anchor="middle" x="381" y="-119.5" font-family="Helvetica,sans-Serif" font-size="10.00" fill="#000000">AMReX_Geometry.H</text>
</g>
<!-- Node1&#45;&gt;Node2 -->
<g id="edge2" class="edge">
<title>Node1&#45;&gt;Node2</title>
<path fill="none" stroke="#191970" d="M444.9888,-168.2977C432.2066,-159.0495 415.9054,-147.2551 402.9552,-137.8853"/>
<polygon fill="#191970" stroke="#191970" points="404.763,-134.8732 394.6096,-131.8469 400.6597,-140.5445 404.763,-134.8732"/>
</g>
<!-- Node3 -->
<g id="node4" class="node">
<title>Node3</title>
<polygon fill="#ffffff" stroke="#bfbfbf" points="0,-56.5 0,-75.5 86,-75.5 86,-56.5 0,-56.5"/>
<text text-anchor="middle" x="43" y="-63.5" font-family="Helvetica,sans-Serif" font-size="10.00" fill="#000000">AMReX_Gpu.H</text>
</g>
<!-- Node1&#45;&gt;Node3 -->
<g id="edge3" class="edge">
<title>Node1&#45;&gt;Node3</title>
<path fill="none" stroke="#191970" d="M466.3897,-168.314C465.915,-151.7572 462.3635,-125.7863 446,-112 388.261,-63.3546 188.2054,-85.5951 96.22,-75.8605"/>
<polygon fill="#191970" stroke="#191970" points="96.4389,-72.3606 86.0806,-74.5866 95.5663,-79.306 96.4389,-72.3606"/>
</g>
<!-- Node4&#45;&gt;Node3 -->
<g id="edge11" class="edge">
<title>Node4&#45;&gt;Node3</title>
<path fill="none" stroke="#191970" d="M494.6342,-113.7243C489.6857,-113.1183 484.7609,-112.5356 480,-112 312.472,-93.1527 266.8621,-99.981 96.1608,-76.0458"/>
<polygon fill="#191970" stroke="#191970" points="96.4685,-72.5545 86.0763,-74.6166 95.4862,-79.4852 96.4685,-72.5545"/>
</g>
<!-- Node5 -->
<g id="node6" class="node">
<title>Node5</title>
<polygon fill="#ffffff" stroke="#bfbfbf" points="990,-.5 990,-19.5 1034,-19.5 1034,-.5 990,-.5"/>
<text text-anchor="middle" x="1012" y="-7.5" font-family="Helvetica,sans-Serif" font-size="10.00" fill="#000000">string</text>
</g>
<!-- Node4&#45;&gt;Node5 -->
<g id="edge5" class="edge">
<title>Node4&#45;&gt;Node5</title>
<path fill="none" stroke="#191970" d="M559.7514,-112.3604C566.1315,-97.4103 580.6209,-69.0038 603,-56 671.7508,-16.0513 880.3042,-31.3818 959,-20 965.6898,-19.0324 972.8211,-17.8154 979.6129,-16.5665"/>
<polygon fill="#191970" stroke="#191970" points="980.7251,-19.9177 989.894,-14.6091 979.4159,-13.0413 980.7251,-19.9177"/>
</g>
<!-- Node6 -->
<g id="node7" class="node">
<title>Node6</title>
<polygon fill="#ffffff" stroke="#bfbfbf" points="498,-56.5 498,-75.5 556,-75.5 556,-56.5 498,-56.5"/>
<text text-anchor="middle" x="527" y="-63.5" font-family="Helvetica,sans-Serif" font-size="10.00" fill="#000000">memory</text>
</g>
<!-- Node4&#45;&gt;Node6 -->
<g id="edge6" class="edge">
<title>Node4&#45;&gt;Node6</title>
<path fill="none" stroke="#191970" d="M550.9486,-112.2455C546.9981,-104.617 541.3903,-93.7881 536.5942,-84.5267"/>
<polygon fill="#191970" stroke="#191970" points="539.7001,-82.9131 531.9935,-75.6427 533.4841,-86.1321 539.7001,-82.9131"/>
</g>
<!-- Node7 -->
<g id="node8" class="node">
<title>Node7</title>
<polygon fill="#ffffff" stroke="#bfbfbf" points="612.5,-56.5 612.5,-75.5 705.5,-75.5 705.5,-56.5 612.5,-56.5"/>
<text text-anchor="middle" x="659" y="-63.5" font-family="Helvetica,sans-Serif" font-size="10.00" fill="#000000">unordered_map</text>
</g>
<!-- Node4&#45;&gt;Node7 -->
<g id="edge7" class="edge">
<title>Node4&#45;&gt;Node7</title>
<path fill="none" stroke="#191970" d="M573.9412,-112.2455C590.04,-103.4928 613.8879,-90.527 632.2391,-80.5496"/>
<polygon fill="#191970" stroke="#191970" points="634.1507,-83.4942 641.2644,-75.6427 630.8071,-77.3444 634.1507,-83.4942"/>
</g>
<!-- Node8 -->
<g id="node9" class="node">
<title>Node8</title>
<polygon fill="#ffffff" stroke="#bfbfbf" points="104,-56.5 104,-75.5 168,-75.5 168,-56.5 104,-56.5"/>
<text text-anchor="middle" x="136" y="-63.5" font-family="Helvetica,sans-Serif" font-size="10.00" fill="#000000">algorithm</text>
</g>
<!-- Node4&#45;&gt;Node8 -->
<g id="edge8" class="edge">
<title>Node4&#45;&gt;Node8</title>
<path fill="none" stroke="#191970" d="M494.6186,-113.8562C489.6736,-113.2206 484.7538,-112.5951 480,-112 348.7218,-95.5652 312.2207,-99.8823 178.3841,-76.0722"/>
<polygon fill="#191970" stroke="#191970" points="178.6122,-72.5571 168.1504,-74.231 177.3726,-79.4465 178.6122,-72.5571"/>
</g>
<!-- Node9 -->
<g id="node10" class="node">
<title>Node9</title>
<polygon fill="#ffffff" stroke="#bfbfbf" points="718.5,-.5 718.5,-19.5 825.5,-19.5 825.5,-.5 718.5,-.5"/>
<text text-anchor="middle" x="772" y="-7.5" font-family="Helvetica,sans-Serif" font-size="10.00" fill="#000000">AMReX_MultiFab.H</text>
</g>
<!-- Node4&#45;&gt;Node9 -->
<g id="edge9" class="edge">
<title>Node4&#45;&gt;Node9</title>
<path fill="none" stroke="#191970" d="M494.863,-113.5247C431.8632,-104.1674 341.3998,-88.7411 331,-76 325.3792,-69.1138 325.0496,-62.6034 331,-56 355.7604,-28.5225 591.9192,-16.3753 708.0932,-12.0273"/>
<polygon fill="#191970" stroke="#191970" points="708.4096,-15.5181 718.2749,-11.6547 708.1536,-8.5228 708.4096,-15.5181"/>
</g>
<!-- Node10 -->
<g id="node11" class="node">
<title>Node10</title>
<polygon fill="#ffffff" stroke="#bfbfbf" points="186.5,-56.5 186.5,-75.5 283.5,-75.5 283.5,-56.5 186.5,-56.5"/>
<text text-anchor="middle" x="235" y="-63.5" font-family="Helvetica,sans-Serif" font-size="10.00" fill="#000000">AMReX_BCRec.H</text>
</g>
<!-- Node4&#45;&gt;Node10 -->
<g id="edge10" class="edge">
<title>Node4&#45;&gt;Node10</title>
<path fill="none" stroke="#191970" d="M501.1829,-112.4369C443.3763,-102.3522 352.6445,-86.5237 293.4883,-76.2036"/>
<polygon fill="#191970" stroke="#191970" points="294.0038,-72.7407 283.5511,-74.47 292.8007,-79.6366 294.0038,-72.7407"/>
</g>
<!-- Node11 -->
<g id="node12" class="node">
<title>Node11</title>
<g id="a_node12"><a xlink:href="incflo__enums_8_h.html" target="_top" xlink:title="amr&#45;wind/incflo_enums.H">
<polygon fill="#ffffff" stroke="#000000" points="340,-56.5 340,-75.5 480,-75.5 480,-56.5 340,-56.5"/>
<text text-anchor="middle" x="410" y="-63.5" font-family="Helvetica,sans-Serif" font-size="10.00" fill="#000000">amr&#45;wind/incflo_enums.H</text>
</a>
</g>
</g>
<!-- Node4&#45;&gt;Node11 -->
<g id="edge12" class="edge">
<title>Node4&#45;&gt;Node11</title>
<path fill="none" stroke="#191970" d="M530.9017,-112.3733C507.0445,-103.2226 470.9665,-89.3844 444.429,-79.2057"/>
<polygon fill="#191970" stroke="#191970" points="445.361,-75.8145 434.7708,-75.5011 442.8541,-82.3503 445.361,-75.8145"/>
</g>
<!-- Node12 -->
<g id="node13" class="node">
<title>Node12</title>
<g id="a_node13"><a xlink:href="_field_desc_types_8_h.html" target="_top" xlink:title="amr&#45;wind/core/FieldDescTypes.H">
<polygon fill="#ffffff" stroke="#000000" points="1204,-.5 1204,-19.5 1378,-19.5 1378,-.5 1204,-.5"/>
<text text-anchor="middle" x="1291" y="-7.5" font-family="Helvetica,sans-Serif" font-size="10.00" fill="#000000">amr&#45;wind/core/FieldDescTypes.H</text>
</a>
</g>
</g>
<!-- Node4&#45;&gt;Node12 -->
<g id="edge13" class="edge">
<title>Node4&#45;&gt;Node12</title>
<path fill="none" stroke="#191970" d="M617.2166,-118.5099C702.1205,-113.0001 860.1799,-100.3202 993,-76 1027.3566,-69.7091 1034.9985,-63.9906 1069,-56 1123.6803,-43.1497 1186.3841,-30.3317 1231.174,-21.5032"/>
<polygon fill="#191970" stroke="#191970" points="1231.8797,-24.9316 1241.0179,-19.5703 1230.5308,-18.0627 1231.8797,-24.9316"/>
</g>
<!-- Node13 -->
<g id="node14" class="node">
<title>Node13</title>
<g id="a_node14"><a xlink:href="_view_field_8_h.html" target="_top" xlink:title="amr&#45;wind/core/ViewField.H">
<polygon fill="#ffffff" stroke="#000000" points="838,-56.5 838,-75.5 984,-75.5 984,-56.5 838,-56.5"/>
<text text-anchor="middle" x="911" y="-63.5" font-family="Helvetica,sans-Serif" font-size="10.00" fill="#000000">amr&#45;wind/core/ViewField.H</text>
</a>
</g>
</g>
<!-- Node4&#45;&gt;Node13 -->
<g id="edge14" class="edge">
<title>Node4&#45;&gt;Node13</title>
<path fill="none" stroke="#191970" d="M616.6233,-112.4369C678.6552,-102.6516 774.9701,-87.4582 840.4007,-77.1368"/>
<polygon fill="#191970" stroke="#191970" points="841.2943,-80.5392 850.6267,-75.5237 840.2035,-73.6247 841.2943,-80.5392"/>
</g>
<!-- Node13&#45;&gt;Node5 -->
<g id="edge15" class="edge">
<title>Node13&#45;&gt;Node5</title>
<path fill="none" stroke="#191970" d="M928.5929,-56.2455C944.379,-47.4928 967.7639,-34.527 985.7587,-24.5496"/>
<polygon fill="#191970" stroke="#191970" points="987.5603,-27.5528 994.6087,-19.6427 984.1659,-21.4308 987.5603,-27.5528"/>
</g>
<!-- Node13&#45;&gt;Node9 -->
<g id="edge17" class="edge">
<title>Node13&#45;&gt;Node9</title>
<path fill="none" stroke="#191970" d="M887.105,-56.3733C864.4918,-47.2629 830.3458,-33.5062 805.1127,-23.3404"/>
<polygon fill="#191970" stroke="#191970" points="806.1666,-19.9917 795.5831,-19.5011 803.5507,-26.4845 806.1666,-19.9917"/>
</g>
<!-- Node13&#45;&gt;Node12 -->
<g id="edge16" class="edge">
<title>Node13&#45;&gt;Node12</title>
<path fill="none" stroke="#191970" d="M975.8926,-56.4369C1042.5661,-46.6113 1146.2397,-31.3331 1216.2919,-21.0096"/>
<polygon fill="#191970" stroke="#191970" points="1216.9922,-24.4443 1226.3751,-19.5237 1215.9716,-17.5191 1216.9922,-24.4443"/>
</g>
<!-- Node14 -->
<g id="node15" class="node">
<title>Node14</title>
<polygon fill="#ffffff" stroke="#bfbfbf" points="854,-.5 854,-19.5 950,-19.5 950,-.5 854,-.5"/>
<text text-anchor="middle" x="902" y="-7.5" font-family="Helvetica,sans-Serif" font-size="10.00" fill="#000000">AMReX_Vector.H</text>
</g>
<!-- Node13&#45;&gt;Node14 -->
<g id="edge18" class="edge">
<title>Node13&#45;&gt;Node14</title>
<path fill="none" stroke="#191970" d="M909.4323,-56.2455C908.2579,-48.9382 906.6116,-38.6944 905.1668,-29.7046"/>
<polygon fill="#191970" stroke="#191970" points="908.5922,-28.9606 903.5497,-19.6427 901.6809,-30.0714 908.5922,-28.9606"/>
</g>
<!-- Node15&#45;&gt;Node4 -->
<g id="edge27" class="edge">
<title>Node15&#45;&gt;Node4</title>
<path fill="none" stroke="#191970" d="M1058.7569,-175.6798C947.5416,-163.8052 737.4081,-141.3691 627.336,-129.6166"/>
<polygon fill="#191970" stroke="#191970" points="627.6409,-126.1293 617.3258,-128.5478 626.8977,-133.0898 627.6409,-126.1293"/>
</g>
<!-- Node15&#45;&gt;Node5 -->
<g id="edge20" class="edge">
<title>Node15&#45;&gt;Node5</title>
<path fill="none" stroke="#191970" d="M1146.9101,-173.7911C1178.7643,-151.8774 1247.968,-97.2744 1215,-56 1193.9535,-29.6508 1095.6928,-17.2714 1043.9939,-12.4977"/>
<polygon fill="#191970" stroke="#191970" points="1044.2811,-9.0095 1034.0122,-11.6173 1043.666,-15.9824 1044.2811,-9.0095"/>
</g>
<!-- Node15&#45;&gt;Node7 -->
<g id="edge21" class="edge">
<title>Node15&#45;&gt;Node7</title>
<path fill="none" stroke="#191970" d="M1058.6052,-180.3489C956.4502,-174.9501 777.4666,-161.5209 720,-132 698.8524,-121.1364 681.2684,-99.8226 670.498,-84.3476"/>
<polygon fill="#191970" stroke="#191970" points="673.147,-82.0095 664.7014,-75.6124 667.3144,-85.88 673.147,-82.0095"/>
</g>
<!-- Node15&#45;&gt;Node9 -->
<g id="edge40" class="edge">
<title>Node15&#45;&gt;Node9</title>
<path fill="none" stroke="#191970" d="M1083.1402,-173.9372C999.8695,-156.6866 835.6029,-118.207 796,-76 784.0335,-63.2466 777.9422,-44.0648 774.899,-29.662"/>
<polygon fill="#191970" stroke="#191970" points="778.334,-28.9879 773.1193,-19.7653 771.4446,-30.2269 778.334,-28.9879"/>
</g>
<!-- Node15&#45;&gt;Node12 -->
<g id="edge22" class="edge">
<title>Node15&#45;&gt;Node12</title>
<path fill="none" stroke="#191970" d="M1180.6452,-173.9938C1191.907,-171.9104 1203.8561,-169.7935 1215,-168 1314.4824,-151.9894 1599.3926,-157.2406 1659,-76 1664.2583,-68.8333 1664.8827,-62.6638 1659,-56 1641.2936,-35.9425 1491.4453,-22.5389 1388.513,-15.6043"/>
<polygon fill="#191970" stroke="#191970" points="1388.6026,-12.1026 1378.3928,-14.933 1388.1393,-19.0873 1388.6026,-12.1026"/>
</g>
<!-- Node16 -->
<g id="node17" class="node">
<title>Node16</title>
<g id="a_node17"><a xlink:href="_field_utils_8_h.html" target="_top" xlink:title="amr&#45;wind/core/FieldUtils.H">
<polygon fill="#ffffff" stroke="#000000" points="1504.5,-56.5 1504.5,-75.5 1649.5,-75.5 1649.5,-56.5 1504.5,-56.5"/>
<text text-anchor="middle" x="1577" y="-63.5" font-family="Helvetica,sans-Serif" font-size="10.00" fill="#000000">amr&#45;wind/core/FieldUtils.H</text>
</a>
</g>
</g>
<!-- Node15&#45;&gt;Node16 -->
<g id="edge23" class="edge">
<title>Node15&#45;&gt;Node16</title>
<path fill="none" stroke="#191970" d="M1181.9944,-173.9293C1192.8649,-171.9139 1204.31,-169.8417 1215,-168 1316.0992,-150.582 1345.2119,-163.0151 1443,-132 1483.2883,-119.2219 1526.5915,-95.9624 1552.7405,-80.747"/>
<polygon fill="#191970" stroke="#191970" points="1554.729,-83.6375 1561.5609,-75.5396 1551.1702,-77.6096 1554.729,-83.6375"/>
</g>
<!-- Node18 -->
<g id="node19" class="node">
<title>Node18</title>
<g id="a_node19"><a xlink:href="_int_field_8_h.html" target="_top" xlink:title="amr&#45;wind/core/IntField.H">
<polygon fill="#ffffff" stroke="#000000" points="1280.5,-112.5 1280.5,-131.5 1415.5,-131.5 1415.5,-112.5 1280.5,-112.5"/>
<text text-anchor="middle" x="1348" y="-119.5" font-family="Helvetica,sans-Serif" font-size="10.00" fill="#000000">amr&#45;wind/core/IntField.H</text>
</a>
</g>
</g>
<!-- Node15&#45;&gt;Node18 -->
<g id="edge28" class="edge">
<title>Node15&#45;&gt;Node18</title>
<path fill="none" stroke="#191970" d="M1165.75,-173.8906C1203.2381,-163.2169 1263.8597,-145.9566 1304.7886,-134.3033"/>
<polygon fill="#191970" stroke="#191970" points="1305.8277,-137.6466 1314.487,-131.5419 1303.9108,-130.9141 1305.8277,-137.6466"/>
</g>
<!-- Node19 -->
<g id="node20" class="node">
<title>Node19</title>
<polygon fill="#ffffff" stroke="#bfbfbf" points="1376,-56.5 1376,-75.5 1486,-75.5 1486,-56.5 1376,-56.5"/>
<text text-anchor="middle" x="1431" y="-63.5" font-family="Helvetica,sans-Serif" font-size="10.00" fill="#000000">AMReX_iMultiFab.H</text>
</g>
<!-- Node15&#45;&gt;Node19 -->
<g id="edge41" class="edge">
<title>Node15&#45;&gt;Node19</title>
<path fill="none" stroke="#191970" d="M1182.4541,-173.954C1193.1915,-171.9572 1204.4666,-169.8863 1215,-168 1261.606,-159.6539 1392.8706,-166.7776 1425,-132 1436.3234,-119.7433 1436.7425,-100.1912 1434.9781,-85.5436"/>
<polygon fill="#191970" stroke="#191970" points="1438.405,-84.8104 1433.3478,-75.5005 1431.4955,-85.9322 1438.405,-84.8104"/>
</g>
<!-- Node20 -->
<g id="node21" class="node">
<title>Node20</title>
<g id="a_node21"><a xlink:href="_scratch_field_8_h.html" target="_top" xlink:title="amr&#45;wind/core/ScratchField.H">
<polygon fill="#ffffff" stroke="#000000" points="933,-112.5 933,-131.5 1091,-131.5 1091,-112.5 933,-112.5"/>
<text text-anchor="middle" x="1012" y="-119.5" font-family="Helvetica,sans-Serif" font-size="10.00" fill="#000000">amr&#45;wind/core/ScratchField.H</text>
</a>
</g>
</g>
<!-- Node15&#45;&gt;Node20 -->
<g id="edge32" class="edge">
<title>Node15&#45;&gt;Node20</title>
<path fill="none" stroke="#191970" d="M1113.25,-173.8906C1093.524,-163.7811 1062.2688,-147.7628 1039.7,-136.1962"/>
<polygon fill="#191970" stroke="#191970" points="1041.114,-132.9881 1030.6183,-131.5419 1037.9213,-139.2176 1041.114,-132.9881"/>
</g>
<!-- Node22 -->
<g id="node23" class="node">
<title>Node22</title>
<polygon fill="#ffffff" stroke="#bfbfbf" points="1706.5,-112.5 1706.5,-131.5 1815.5,-131.5 1815.5,-112.5 1706.5,-112.5"/>
<text text-anchor="middle" x="1761" y="-119.5" font-family="Helvetica,sans-Serif" font-size="10.00" fill="#000000">AMReX_AmrCore.H</text>
</g>
<!-- Node15&#45;&gt;Node22 -->
<g id="edge39" class="edge">
<title>Node15&#45;&gt;Node22</title>
<path fill="none" stroke="#191970" d="M1177.9547,-173.9919C1189.9697,-171.7606 1202.9358,-169.5769 1215,-168 1425.8096,-140.4447 1480.6733,-155.2604 1692,-132 1693.4664,-131.8386 1694.9495,-131.6699 1696.4445,-131.495"/>
<polygon fill="#191970" stroke="#191970" points="1696.9356,-134.961 1706.4309,-130.2612 1696.0772,-128.0138 1696.9356,-134.961"/>
</g>
<!-- Node16&#45;&gt;Node9 -->
<g id="edge25" class="edge">
<title>Node16&#45;&gt;Node9</title>
<path fill="none" stroke="#191970" d="M1504.1488,-56.8626C1501.0596,-56.5551 1498,-56.2657 1495,-56 1206.7966,-30.4737 1133.0068,-47.6564 845,-20 841.9778,-19.7098 838.8885,-19.3874 835.7706,-19.0414"/>
<polygon fill="#191970" stroke="#191970" points="836.1021,-15.5564 825.7621,-17.8659 835.2856,-22.5086 836.1021,-15.5564"/>
</g>
<!-- Node16&#45;&gt;Node12 -->
<g id="edge24" class="edge">
<title>Node16&#45;&gt;Node12</title>
<path fill="none" stroke="#191970" d="M1528.1598,-56.4369C1478.699,-46.7522 1402.184,-31.7703 1349.512,-21.4569"/>
<polygon fill="#191970" stroke="#191970" points="1350.125,-18.0105 1339.6387,-19.5237 1348.7798,-24.8801 1350.125,-18.0105"/>
</g>
<!-- Node17 -->
<g id="node18" class="node">
<title>Node17</title>
<polygon fill="#ffffff" stroke="#bfbfbf" points="1516,-.5 1516,-19.5 1638,-19.5 1638,-.5 1516,-.5"/>
<text text-anchor="middle" x="1577" y="-7.5" font-family="Helvetica,sans-Serif" font-size="10.00" fill="#000000">AMReX_Interpolater.H</text>
</g>
<!-- Node16&#45;&gt;Node17 -->
<g id="edge26" class="edge">
<title>Node16&#45;&gt;Node17</title>
<path fill="none" stroke="#191970" d="M1577,-56.2455C1577,-48.9382 1577,-38.6944 1577,-29.7046"/>
<polygon fill="#191970" stroke="#191970" points="1580.5001,-29.6426 1577,-19.6427 1573.5001,-29.6427 1580.5001,-29.6426"/>
</g>
<!-- Node18&#45;&gt;Node5 -->
<g id="edge29" class="edge">
<title>Node18&#45;&gt;Node5</title>
<path fill="none" stroke="#191970" d="M1341.7767,-112.0288C1331.9204,-97.1651 1311.2257,-69.5033 1286,-56 1244.5939,-33.8354 1107.6353,-18.774 1044.4532,-12.8344"/>
<polygon fill="#191970" stroke="#191970" points="1044.5401,-9.3277 1034.2612,-11.8956 1043.898,-16.2982 1044.5401,-9.3277"/>
</g>
<!-- Node18&#45;&gt;Node12 -->
<g id="edge30" class="edge">
<title>Node18&#45;&gt;Node12</title>
<path fill="none" stroke="#191970" d="M1345.3675,-112.2525C1341.6027,-99.0569 1334.0144,-74.9785 1324,-56 1318.8126,-46.1692 1311.7681,-36.0468 1305.5197,-27.8091"/>
<polygon fill="#191970" stroke="#191970" points="1308.0997,-25.4269 1299.1776,-19.7131 1302.5891,-29.7436 1308.0997,-25.4269"/>
</g>
<!-- Node18&#45;&gt;Node19 -->
<g id="edge31" class="edge">
<title>Node18&#45;&gt;Node19</title>
<path fill="none" stroke="#191970" d="M1362.4575,-112.2455C1375.0732,-103.7337 1393.5944,-91.2375 1408.2045,-81.3801"/>
<polygon fill="#191970" stroke="#191970" points="1410.3761,-84.1371 1416.7082,-75.6427 1406.4609,-78.3343 1410.3761,-84.1371"/>
</g>
<!-- Node20&#45;&gt;Node5 -->
<g id="edge33" class="edge">
<title>Node20&#45;&gt;Node5</title>
<path fill="none" stroke="#191970" d="M1012,-112.4509C1012,-94.184 1012,-53.9553 1012,-29.6976"/>
<polygon fill="#191970" stroke="#191970" points="1015.5001,-29.5249 1012,-19.5249 1008.5001,-29.5249 1015.5001,-29.5249"/>
</g>
<!-- Node20&#45;&gt;Node9 -->
<g id="edge36" class="edge">
<title>Node20&#45;&gt;Node9</title>
<path fill="none" stroke="#191970" d="M953.7501,-112.4721C905.903,-103.8338 842.6222,-90.2979 821,-76 803.228,-64.2481 789.5194,-43.756 781.1793,-28.7151"/>
<polygon fill="#191970" stroke="#191970" points="784.2294,-26.9951 776.4851,-19.7649 778.0303,-30.2465 784.2294,-26.9951"/>
</g>
<!-- Node20&#45;&gt;Node12 -->
<g id="edge34" class="edge">
<title>Node20&#45;&gt;Node12</title>
<path fill="none" stroke="#191970" d="M1091.2296,-113.2768C1130.0788,-106.7418 1176.6402,-95.4355 1215,-76 1238.9383,-63.8713 1261.5043,-42.5451 1275.7308,-27.4199"/>
<polygon fill="#191970" stroke="#191970" points="1278.5735,-29.4973 1282.7321,-19.7528 1273.4044,-24.7771 1278.5735,-29.4973"/>
</g>
<!-- Node20&#45;&gt;Node13 -->
<g id="edge35" class="edge">
<title>Node20&#45;&gt;Node13</title>
<path fill="none" stroke="#191970" d="M994.4071,-112.2455C978.621,-103.4928 955.2361,-90.527 937.2413,-80.5496"/>
<polygon fill="#191970" stroke="#191970" points="938.8341,-77.4308 928.3913,-75.6427 935.4397,-83.5528 938.8341,-77.4308"/>
</g>
<!-- Node20&#45;&gt;Node14 -->
<g id="edge37" class="edge">
<title>Node20&#45;&gt;Node14</title>
<path fill="none" stroke="#191970" d="M936.6181,-112.4907C892.3732,-105.1887 842.5467,-93.3733 829,-76 813.0933,-55.6001 841.5367,-36.2443 867.4342,-23.8332"/>
<polygon fill="#191970" stroke="#191970" points="869.1195,-26.9118 876.7733,-19.5859 866.2215,-20.5398 869.1195,-26.9118"/>
</g>
<!-- Node21 -->
<g id="node22" class="node">
<title>Node21</title>
<polygon fill="#ffffff" stroke="#bfbfbf" points="1078,-56.5 1078,-75.5 1206,-75.5 1206,-56.5 1078,-56.5"/>
<text text-anchor="middle" x="1142" y="-63.5" font-family="Helvetica,sans-Serif" font-size="10.00" fill="#000000">AMReX_PhysBCFunct.H</text>
</g>
<!-- Node20&#45;&gt;Node21 -->
<g id="edge38" class="edge">
<title>Node20&#45;&gt;Node21</title>
<path fill="none" stroke="#191970" d="M1034.3478,-112.3733C1055.4033,-103.3032 1087.1495,-89.6279 1110.7175,-79.4755"/>
<polygon fill="#191970" stroke="#191970" points="1112.1444,-82.6719 1119.9438,-75.5011 1109.375,-76.243 1112.1444,-82.6719"/>
</g>
</g>
</svg>
