<?xml version="1.0" encoding="UTF-8" standalone="no"?>
<!DOCTYPE svg PUBLIC "-//W3C//DTD SVG 1.1//EN"
 "http://www.w3.org/Graphics/SVG/1.1/DTD/svg11.dtd">
<!-- Generated by graphviz version 2.40.1 (20161225.0304)
 -->
<!-- Title: MLMGOptions.H Pages: 1 -->
<svg width="1878pt" height="319pt"
 viewBox="0.00 0.00 1877.50 319.00" xmlns="http://www.w3.org/2000/svg" xmlns:xlink="http://www.w3.org/1999/xlink">
<g id="graph0" class="graph" transform="scale(1 1) rotate(0) translate(4 315)">
<title>MLMGOptions.H</title>
<polygon fill="#ffffff" stroke="transparent" points="-4,4 -4,-315 1873.5,-315 1873.5,4 -4,4"/>
<!-- Node5 -->
<g id="node1" class="node">
<title>Node5</title>
<polygon fill="#bfbfbf" stroke="#000000" points="1601.5,-291.5 1601.5,-310.5 1695.5,-310.5 1695.5,-291.5 1601.5,-291.5"/>
<text text-anchor="middle" x="1648.5" y="-298.5" font-family="Helvetica,sans-Serif" font-size="10.00" fill="#000000">MLMGOptions.H</text>
</g>
<!-- Node6 -->
<g id="node2" class="node">
<title>Node6</title>
<g id="a_node2"><a xlink:href="_m_l_m_g_options_8cpp.html" target="_top" xlink:title="MLMGOptions.cpp">
<polygon fill="#ffffff" stroke="#000000" points="1385.5,-230 1385.5,-249 1489.5,-249 1489.5,-230 1385.5,-230"/>
<text text-anchor="middle" x="1437.5" y="-237" font-family="Helvetica,sans-Serif" font-size="10.00" fill="#000000">MLMGOptions.cpp</text>
</a>
</g>
</g>
<!-- Node5&#45;&gt;Node6 -->
<g id="edge1" class="edge">
<title>Node5&#45;&gt;Node6</title>
<path fill="none" stroke="#191970" d="M1605.7812,-288.5488C1565.7228,-276.873 1506.6848,-259.6652 1470.2372,-249.0419"/>
<polygon fill="#191970" stroke="#191970" points="1604.9513,-291.9525 1615.5313,-291.3906 1606.9101,-285.2321 1604.9513,-291.9525"/>
</g>
<!-- Node7 -->
<g id="node3" class="node">
<title>Node7</title>
<g id="a_node3"><a xlink:href="_diffusion_ops_8_h.html" target="_top" xlink:title="DiffusionOps.H">
<polygon fill="#ffffff" stroke="#000000" points="1508,-230 1508,-249 1597,-249 1597,-230 1508,-230"/>
<text text-anchor="middle" x="1552.5" y="-237" font-family="Helvetica,sans-Serif" font-size="10.00" fill="#000000">DiffusionOps.H</text>
</a>
</g>
</g>
<!-- Node5&#45;&gt;Node7 -->
<g id="edge2" class="edge">
<title>Node5&#45;&gt;Node7</title>
<path fill="none" stroke="#191970" d="M1624.7514,-285.786C1606.8007,-274.2864 1582.7127,-258.855 1567.3947,-249.0419"/>
<polygon fill="#191970" stroke="#191970" points="1623.1917,-288.9434 1633.5,-291.3906 1626.9677,-283.0492 1623.1917,-288.9434"/>
</g>
<!-- Node16 -->
<g id="node12" class="node">
<title>Node16</title>
<g id="a_node12"><a xlink:href="icns__advection_8cpp.html" target="_top" xlink:title="icns_advection.cpp">
<polygon fill="#ffffff" stroke="#000000" points="1599.5,-.5 1599.5,-19.5 1709.5,-19.5 1709.5,-.5 1599.5,-.5"/>
<text text-anchor="middle" x="1654.5" y="-7.5" font-family="Helvetica,sans-Serif" font-size="10.00" fill="#000000">icns_advection.cpp</text>
</a>
</g>
</g>
<!-- Node5&#45;&gt;Node16 -->
<g id="edge52" class="edge">
<title>Node5&#45;&gt;Node16</title>
<path fill="none" stroke="#191970" d="M1663.0914,-283.1374C1680.2727,-260.2448 1706.5,-218.6429 1706.5,-178 1706.5,-178 1706.5,-178 1706.5,-122 1706.5,-91.4754 1700.8129,-83.4685 1687.5,-56 1680.8986,-42.3794 1670.2976,-28.4997 1662.8978,-19.6016"/>
<polygon fill="#191970" stroke="#191970" points="1660.1834,-281.1755 1656.81,-291.2189 1665.7103,-285.4713 1660.1834,-281.1755"/>
</g>
<!-- Node40 -->
<g id="node36" class="node">
<title>Node40</title>
<g id="a_node36"><a xlink:href="incflo__apply__nodal__projection_8cpp.html" target="_top" xlink:title="incflo_apply_nodal\l_projection.cpp">
<polygon fill="#ffffff" stroke="#000000" points="1735,-224.5 1735,-254.5 1842,-254.5 1842,-224.5 1735,-224.5"/>
<text text-anchor="start" x="1743" y="-242.5" font-family="Helvetica,sans-Serif" font-size="10.00" fill="#000000">incflo_apply_nodal</text>
<text text-anchor="middle" x="1788.5" y="-231.5" font-family="Helvetica,sans-Serif" font-size="10.00" fill="#000000">_projection.cpp</text>
</a>
</g>
</g>
<!-- Node5&#45;&gt;Node40 -->
<g id="edge53" class="edge">
<title>Node5&#45;&gt;Node40</title>
<path fill="none" stroke="#191970" d="M1679.6507,-287.316C1701.771,-277.5988 1731.466,-264.5542 1754.2521,-254.5446"/>
<polygon fill="#191970" stroke="#191970" points="1678.1229,-284.1642 1670.375,-291.3906 1680.9383,-290.5731 1678.1229,-284.1642"/>
</g>
<!-- Node8 -->
<g id="node4" class="node">
<title>Node8</title>
<g id="a_node4"><a xlink:href="_p_d_e_8_h.html" target="_top" xlink:title="PDE.H">
<polygon fill="#ffffff" stroke="#000000" points="878,-168.5 878,-187.5 925,-187.5 925,-168.5 878,-168.5"/>
<text text-anchor="middle" x="901.5" y="-175.5" font-family="Helvetica,sans-Serif" font-size="10.00" fill="#000000">PDE.H</text>
</a>
</g>
</g>
<!-- Node7&#45;&gt;Node8 -->
<g id="edge3" class="edge">
<title>Node7&#45;&gt;Node8</title>
<path fill="none" stroke="#191970" d="M1513.3368,-227.2571C1508.3777,-226.0036 1503.3445,-224.8726 1498.5,-224 1385.3232,-203.6144 1021.8502,-184.1063 925.2583,-179.1858"/>
<polygon fill="#191970" stroke="#191970" points="1512.7609,-230.727 1523.3278,-229.9588 1514.5882,-223.9697 1512.7609,-230.727"/>
</g>
<!-- Node14 -->
<g id="node10" class="node">
<title>Node14</title>
<g id="a_node10"><a xlink:href="icns__ops_8_h.html" target="_top" xlink:title="icns_ops.H">
<polygon fill="#ffffff" stroke="#000000" points="1112,-56.5 1112,-75.5 1181,-75.5 1181,-56.5 1112,-56.5"/>
<text text-anchor="middle" x="1146.5" y="-63.5" font-family="Helvetica,sans-Serif" font-size="10.00" fill="#000000">icns_ops.H</text>
</a>
</g>
</g>
<!-- Node7&#45;&gt;Node14 -->
<g id="edge50" class="edge">
<title>Node7&#45;&gt;Node14</title>
<path fill="none" stroke="#191970" d="M1512.8718,-226.8499C1456.6182,-208.4146 1350.8491,-171.9794 1264.5,-132 1226.372,-114.3468 1183.8726,-89.1127 1161.756,-75.5298"/>
<polygon fill="#191970" stroke="#191970" points="1511.8616,-230.2018 1522.454,-229.9727 1514.0307,-223.5463 1511.8616,-230.2018"/>
</g>
<!-- Node17 -->
<g id="node13" class="node">
<title>Node17</title>
<g id="a_node13"><a xlink:href="icns__diffusion_8_h.html" target="_top" xlink:title="icns_diffusion.H">
<polygon fill="#ffffff" stroke="#000000" points="1466.5,-56.5 1466.5,-75.5 1560.5,-75.5 1560.5,-56.5 1466.5,-56.5"/>
<text text-anchor="middle" x="1513.5" y="-63.5" font-family="Helvetica,sans-Serif" font-size="10.00" fill="#000000">icns_diffusion.H</text>
</a>
</g>
</g>
<!-- Node7&#45;&gt;Node17 -->
<g id="edge51" class="edge">
<title>Node7&#45;&gt;Node17</title>
<path fill="none" stroke="#191970" d="M1544.4825,-220.4524C1540.6999,-210.8584 1536.3924,-198.9626 1533.5,-188 1522.6584,-146.9089 1516.6233,-96.3995 1514.4451,-75.6217"/>
<polygon fill="#191970" stroke="#191970" points="1541.2779,-221.8634 1548.2892,-229.8065 1547.7616,-219.2248 1541.2779,-221.8634"/>
</g>
<!-- Node39 -->
<g id="node35" class="node">
<title>Node39</title>
<g id="a_node35"><a xlink:href="_diffusion_ops_8cpp.html" target="_top" xlink:title="DiffusionOps.cpp">
<polygon fill="#ffffff" stroke="#000000" points="1542,-168.5 1542,-187.5 1641,-187.5 1641,-168.5 1542,-168.5"/>
<text text-anchor="middle" x="1591.5" y="-175.5" font-family="Helvetica,sans-Serif" font-size="10.00" fill="#000000">DiffusionOps.cpp</text>
</a>
</g>
</g>
<!-- Node7&#45;&gt;Node39 -->
<g id="edge49" class="edge">
<title>Node7&#45;&gt;Node39</title>
<path fill="none" stroke="#191970" d="M1563.9673,-221.4169C1570.9509,-210.4043 1579.6002,-196.765 1585.3203,-187.7449"/>
<polygon fill="#191970" stroke="#191970" points="1560.9934,-219.5711 1558.5938,-229.8906 1566.905,-223.3199 1560.9934,-219.5711"/>
</g>
<!-- Node9 -->
<g id="node5" class="node">
<title>Node9</title>
<g id="a_node5"><a xlink:href="density_8_h.html" target="_top" xlink:title="density.H">
<polygon fill="#ffffff" stroke="#000000" points="1734.5,-112.5 1734.5,-131.5 1796.5,-131.5 1796.5,-112.5 1734.5,-112.5"/>
<text text-anchor="middle" x="1765.5" y="-119.5" font-family="Helvetica,sans-Serif" font-size="10.00" fill="#000000">density.H</text>
</a>
</g>
</g>
<!-- Node8&#45;&gt;Node9 -->
<g id="edge4" class="edge">
<title>Node8&#45;&gt;Node9</title>
<path fill="none" stroke="#191970" d="M935.0837,-175.8233C1073.6362,-166.843 1599.8467,-132.7368 1734.1482,-124.0321"/>
<polygon fill="#191970" stroke="#191970" points="934.8107,-172.3335 925.058,-176.4731 935.2635,-179.3189 934.8107,-172.3335"/>
</g>
<!-- Node12 -->
<g id="node8" class="node">
<title>Node12</title>
<g id="a_node8"><a xlink:href="icns_8_h.html" target="_top" xlink:title="icns.H">
<polygon fill="#ffffff" stroke="#000000" points="1273,-112.5 1273,-131.5 1320,-131.5 1320,-112.5 1273,-112.5"/>
<text text-anchor="middle" x="1296.5" y="-119.5" font-family="Helvetica,sans-Serif" font-size="10.00" fill="#000000">icns.H</text>
</a>
</g>
</g>
<!-- Node8&#45;&gt;Node12 -->
<g id="edge8" class="edge">
<title>Node8&#45;&gt;Node12</title>
<path fill="none" stroke="#191970" d="M935.2752,-173.2116C1013.4288,-162.1316 1205.1927,-134.9448 1272.5977,-125.3887"/>
<polygon fill="#191970" stroke="#191970" points="934.4358,-169.7955 925.0261,-174.6646 935.4184,-176.7262 934.4358,-169.7955"/>
</g>
<!-- Node20 -->
<g id="node16" class="node">
<title>Node20</title>
<g id="a_node16"><a xlink:href="levelset_8_h.html" target="_top" xlink:title="levelset.H">
<polygon fill="#ffffff" stroke="#000000" points="84.5,-112.5 84.5,-131.5 150.5,-131.5 150.5,-112.5 84.5,-112.5"/>
<text text-anchor="middle" x="117.5" y="-119.5" font-family="Helvetica,sans-Serif" font-size="10.00" fill="#000000">levelset.H</text>
</a>
</g>
</g>
<!-- Node8&#45;&gt;Node20 -->
<g id="edge20" class="edge">
<title>Node8&#45;&gt;Node20</title>
<path fill="none" stroke="#191970" d="M867.5119,-175.5723C738.3325,-166.3452 278.7103,-133.515 150.7677,-124.3763"/>
<polygon fill="#191970" stroke="#191970" points="867.3844,-179.072 877.6084,-176.2935 867.8832,-172.0898 867.3844,-179.072"/>
</g>
<!-- Node23 -->
<g id="node19" class="node">
<title>Node23</title>
<g id="a_node19"><a xlink:href="_s_d_r_8_h.html" target="_top" xlink:title="SDR.H">
<polygon fill="#ffffff" stroke="#000000" points="310,-112.5 310,-131.5 357,-131.5 357,-112.5 310,-112.5"/>
<text text-anchor="middle" x="333.5" y="-119.5" font-family="Helvetica,sans-Serif" font-size="10.00" fill="#000000">SDR.H</text>
</a>
</g>
</g>
<!-- Node8&#45;&gt;Node23 -->
<g id="edge24" class="edge">
<title>Node8&#45;&gt;Node23</title>
<path fill="none" stroke="#191970" d="M867.8283,-174.6803C763.418,-164.3863 446.7696,-133.1674 357.2842,-124.3449"/>
<polygon fill="#191970" stroke="#191970" points="867.5217,-178.1669 877.8169,-175.665 868.2086,-171.2007 867.5217,-178.1669"/>
</g>
<!-- Node29 -->
<g id="node25" class="node">
<title>Node29</title>
<g id="a_node25"><a xlink:href="temperature_8_h.html" target="_top" xlink:title="temperature.H">
<polygon fill="#ffffff" stroke="#000000" points="952.5,-112.5 952.5,-131.5 1040.5,-131.5 1040.5,-112.5 952.5,-112.5"/>
<text text-anchor="middle" x="996.5" y="-119.5" font-family="Helvetica,sans-Serif" font-size="10.00" fill="#000000">temperature.H</text>
</a>
</g>
</g>
<!-- Node8&#45;&gt;Node29 -->
<g id="edge33" class="edge">
<title>Node8&#45;&gt;Node29</title>
<path fill="none" stroke="#191970" d="M926.8676,-163.0465C943.771,-153.0824 965.4904,-140.2794 980.1419,-131.6427"/>
<polygon fill="#191970" stroke="#191970" points="924.8851,-160.1522 918.0477,-168.2455 928.4398,-166.1825 924.8851,-160.1522"/>
</g>
<!-- Node31 -->
<g id="node27" class="node">
<title>Node31</title>
<g id="a_node27"><a xlink:href="_t_k_e_8_h.html" target="_top" xlink:title="TKE.H">
<polygon fill="#ffffff" stroke="#000000" points="537.5,-112.5 537.5,-131.5 583.5,-131.5 583.5,-112.5 537.5,-112.5"/>
<text text-anchor="middle" x="560.5" y="-119.5" font-family="Helvetica,sans-Serif" font-size="10.00" fill="#000000">TKE.H</text>
</a>
</g>
</g>
<!-- Node8&#45;&gt;Node31 -->
<g id="edge35" class="edge">
<title>Node8&#45;&gt;Node31</title>
<path fill="none" stroke="#191970" d="M867.8713,-172.4774C798.8128,-161.1364 642.559,-135.476 583.6008,-125.7937"/>
<polygon fill="#191970" stroke="#191970" points="867.3572,-175.9398 877.7923,-174.1066 868.4917,-169.0323 867.3572,-175.9398"/>
</g>
<!-- Node35 -->
<g id="node31" class="node">
<title>Node35</title>
<g id="a_node31"><a xlink:href="vof_8_h.html" target="_top" xlink:title="vof.H">
<polygon fill="#ffffff" stroke="#000000" points="856.5,-112.5 856.5,-131.5 898.5,-131.5 898.5,-112.5 856.5,-112.5"/>
<text text-anchor="middle" x="877.5" y="-119.5" font-family="Helvetica,sans-Serif" font-size="10.00" fill="#000000">vof.H</text>
</a>
</g>
</g>
<!-- Node8&#45;&gt;Node35 -->
<g id="edge43" class="edge">
<title>Node8&#45;&gt;Node35</title>
<path fill="none" stroke="#191970" d="M893.3759,-159.0437C889.4285,-149.8331 884.8542,-139.1598 881.6326,-131.6427"/>
<polygon fill="#191970" stroke="#191970" points="890.1633,-160.4328 897.3195,-168.2455 896.5973,-157.6753 890.1633,-160.4328"/>
</g>
<!-- Node10 -->
<g id="node6" class="node">
<title>Node10</title>
<g id="a_node6"><a xlink:href="density_8cpp.html" target="_top" xlink:title="density.cpp">
<polygon fill="#ffffff" stroke="#000000" points="1755,-.5 1755,-19.5 1826,-19.5 1826,-.5 1755,-.5"/>
<text text-anchor="middle" x="1790.5" y="-7.5" font-family="Helvetica,sans-Serif" font-size="10.00" fill="#000000">density.cpp</text>
</a>
</g>
</g>
<!-- Node9&#45;&gt;Node10 -->
<g id="edge5" class="edge">
<title>Node9&#45;&gt;Node10</title>
<path fill="none" stroke="#191970" d="M1767.1596,-102.2081C1768.5206,-88.9983 1770.8326,-71.3088 1774.5,-56 1777.573,-43.1725 1782.8422,-28.897 1786.4898,-19.7015"/>
<polygon fill="#191970" stroke="#191970" points="1763.6444,-102.2088 1766.1982,-112.4912 1770.614,-102.8605 1763.6444,-102.2088"/>
</g>
<!-- Node11 -->
<g id="node7" class="node">
<title>Node11</title>
<g id="a_node7"><a xlink:href="density__ops_8_h.html" target="_top" xlink:title="density_ops.H">
<polygon fill="#ffffff" stroke="#000000" points="1783.5,-56.5 1783.5,-75.5 1869.5,-75.5 1869.5,-56.5 1783.5,-56.5"/>
<text text-anchor="middle" x="1826.5" y="-63.5" font-family="Helvetica,sans-Serif" font-size="10.00" fill="#000000">density_ops.H</text>
</a>
</g>
</g>
<!-- Node9&#45;&gt;Node11 -->
<g id="edge6" class="edge">
<title>Node9&#45;&gt;Node11</title>
<path fill="none" stroke="#191970" d="M1783.6249,-105.3607C1794.178,-95.6727 1807.1112,-83.7995 1815.9964,-75.6427"/>
<polygon fill="#191970" stroke="#191970" points="1781.125,-102.9045 1776.1254,-112.2455 1785.8589,-108.0611 1781.125,-102.9045"/>
</g>
<!-- Node11&#45;&gt;Node10 -->
<g id="edge7" class="edge">
<title>Node11&#45;&gt;Node10</title>
<path fill="none" stroke="#191970" d="M1814.6904,-47.6296C1808.6856,-38.2887 1801.6341,-27.3197 1796.6989,-19.6427"/>
<polygon fill="#191970" stroke="#191970" points="1811.8775,-49.7264 1820.2293,-56.2455 1817.7658,-45.9411 1811.8775,-49.7264"/>
</g>
<!-- Node13 -->
<g id="node9" class="node">
<title>Node13</title>
<g id="a_node9"><a xlink:href="icns_8cpp.html" target="_top" xlink:title="icns.cpp">
<polygon fill="#ffffff" stroke="#000000" points="1382.5,-.5 1382.5,-19.5 1438.5,-19.5 1438.5,-.5 1382.5,-.5"/>
<text text-anchor="middle" x="1410.5" y="-7.5" font-family="Helvetica,sans-Serif" font-size="10.00" fill="#000000">icns.cpp</text>
</a>
</g>
</g>
<!-- Node12&#45;&gt;Node13 -->
<g id="edge9" class="edge">
<title>Node12&#45;&gt;Node13</title>
<path fill="none" stroke="#191970" d="M1264.5922,-107.7796C1240.6124,-95.09 1214.3019,-75.5437 1229.5,-56 1248.1097,-32.0692 1336.1106,-18.5549 1382.1966,-13.0084"/>
<polygon fill="#191970" stroke="#191970" points="1263.0701,-110.9317 1273.5772,-112.2929 1266.2123,-104.6765 1263.0701,-110.9317"/>
</g>
<!-- Node12&#45;&gt;Node14 -->
<g id="edge10" class="edge">
<title>Node12&#45;&gt;Node14</title>
<path fill="none" stroke="#191970" d="M1263.1493,-109.5491C1235.6764,-99.2925 1197.2861,-84.9601 1172.166,-75.582"/>
<polygon fill="#191970" stroke="#191970" points="1262.1395,-112.908 1272.7321,-113.1266 1264.5878,-106.3501 1262.1395,-112.908"/>
</g>
<!-- Node15 -->
<g id="node11" class="node">
<title>Node15</title>
<g id="a_node11"><a xlink:href="icns__advection_8_h.html" target="_top" xlink:title="icns_advection.H">
<polygon fill="#ffffff" stroke="#000000" points="1578.5,-56.5 1578.5,-75.5 1678.5,-75.5 1678.5,-56.5 1578.5,-56.5"/>
<text text-anchor="middle" x="1628.5" y="-63.5" font-family="Helvetica,sans-Serif" font-size="10.00" fill="#000000">icns_advection.H</text>
</a>
</g>
</g>
<!-- Node12&#45;&gt;Node15 -->
<g id="edge12" class="edge">
<title>Node12&#45;&gt;Node15</title>
<path fill="none" stroke="#191970" d="M1330.1551,-116.3399C1381.6921,-107.6701 1483.2637,-90.5735 1569.5,-76 1572.3683,-75.5153 1575.315,-75.017 1578.2885,-74.5138"/>
<polygon fill="#191970" stroke="#191970" points="1329.518,-112.8978 1320.2372,-118.0083 1330.6792,-119.8009 1329.518,-112.8978"/>
</g>
<!-- Node12&#45;&gt;Node17 -->
<g id="edge15" class="edge">
<title>Node12&#45;&gt;Node17</title>
<path fill="none" stroke="#191970" d="M1329.852,-113.393C1369.4736,-103.1681 1435.3718,-86.1621 1476.5208,-75.543"/>
<polygon fill="#191970" stroke="#191970" points="1328.9441,-110.0126 1320.1359,-115.9004 1330.6933,-116.7905 1328.9441,-110.0126"/>
</g>
<!-- Node18 -->
<g id="node14" class="node">
<title>Node18</title>
<g id="a_node14"><a xlink:href="icns__bcop_8_h.html" target="_top" xlink:title="icns_bcop.H">
<polygon fill="#ffffff" stroke="#000000" points="1373,-56.5 1373,-75.5 1448,-75.5 1448,-56.5 1373,-56.5"/>
<text text-anchor="middle" x="1410.5" y="-63.5" font-family="Helvetica,sans-Serif" font-size="10.00" fill="#000000">icns_bcop.H</text>
</a>
</g>
</g>
<!-- Node12&#45;&gt;Node18 -->
<g id="edge17" class="edge">
<title>Node12&#45;&gt;Node18</title>
<path fill="none" stroke="#191970" d="M1325.3321,-107.8368C1345.9395,-97.7139 1373.1082,-84.3679 1391.1584,-75.5011"/>
<polygon fill="#191970" stroke="#191970" points="1323.5297,-104.8227 1316.0973,-112.3733 1326.616,-111.1056 1323.5297,-104.8227"/>
</g>
<!-- Node19 -->
<g id="node15" class="node">
<title>Node19</title>
<g id="a_node15"><a xlink:href="_power_law_profile_8cpp.html" target="_top" xlink:title="PowerLawProfile.cpp">
<polygon fill="#ffffff" stroke="#000000" points="1238,-56.5 1238,-75.5 1355,-75.5 1355,-56.5 1238,-56.5"/>
<text text-anchor="middle" x="1296.5" y="-63.5" font-family="Helvetica,sans-Serif" font-size="10.00" fill="#000000">PowerLawProfile.cpp</text>
</a>
</g>
</g>
<!-- Node12&#45;&gt;Node19 -->
<g id="edge19" class="edge">
<title>Node12&#45;&gt;Node19</title>
<path fill="none" stroke="#191970" d="M1296.5,-102.1575C1296.5,-93.155 1296.5,-82.9199 1296.5,-75.6427"/>
<polygon fill="#191970" stroke="#191970" points="1293.0001,-102.2455 1296.5,-112.2455 1300.0001,-102.2456 1293.0001,-102.2455"/>
</g>
<!-- Node14&#45;&gt;Node13 -->
<g id="edge11" class="edge">
<title>Node14&#45;&gt;Node13</title>
<path fill="none" stroke="#191970" d="M1191.1057,-56.5382C1245.7553,-44.9459 1336.6984,-25.6549 1382.4271,-15.9549"/>
<polygon fill="#191970" stroke="#191970" points="1190.0694,-53.18 1181.0134,-58.679 1191.522,-60.0277 1190.0694,-53.18"/>
</g>
<!-- Node15&#45;&gt;Node13 -->
<g id="edge13" class="edge">
<title>Node15&#45;&gt;Node13</title>
<path fill="none" stroke="#191970" d="M1581.2563,-53.864C1537.8426,-42.7119 1474.9219,-26.5487 1438.8224,-17.2755"/>
<polygon fill="#191970" stroke="#191970" points="1580.4681,-57.2751 1591.0245,-56.3733 1582.2098,-50.4952 1580.4681,-57.2751"/>
</g>
<!-- Node15&#45;&gt;Node16 -->
<g id="edge14" class="edge">
<title>Node15&#45;&gt;Node16</title>
<path fill="none" stroke="#191970" d="M1637.3011,-47.0437C1641.5775,-37.8331 1646.533,-27.1598 1650.023,-19.6427"/>
<polygon fill="#191970" stroke="#191970" points="1634.0655,-45.7015 1633.0289,-56.2455 1640.4146,-48.6494 1634.0655,-45.7015"/>
</g>
<!-- Node17&#45;&gt;Node13 -->
<g id="edge16" class="edge">
<title>Node17&#45;&gt;Node13</title>
<path fill="none" stroke="#191970" d="M1486.7568,-51.46C1468.325,-41.4388 1444.3416,-28.3993 1428.2356,-19.6427"/>
<polygon fill="#191970" stroke="#191970" points="1485.1015,-54.5438 1495.5588,-56.2455 1488.4451,-48.394 1485.1015,-54.5438"/>
</g>
<!-- Node18&#45;&gt;Node13 -->
<g id="edge18" class="edge">
<title>Node18&#45;&gt;Node13</title>
<path fill="none" stroke="#191970" d="M1410.5,-46.1575C1410.5,-37.155 1410.5,-26.9199 1410.5,-19.6427"/>
<polygon fill="#191970" stroke="#191970" points="1407.0001,-46.2455 1410.5,-56.2455 1414.0001,-46.2456 1407.0001,-46.2455"/>
</g>
<!-- Node21 -->
<g id="node17" class="node">
<title>Node21</title>
<g id="a_node17"><a xlink:href="levelset_8cpp.html" target="_top" xlink:title="levelset.cpp">
<polygon fill="#ffffff" stroke="#000000" points="49.5,-.5 49.5,-19.5 125.5,-19.5 125.5,-.5 49.5,-.5"/>
<text text-anchor="middle" x="87.5" y="-7.5" font-family="Helvetica,sans-Serif" font-size="10.00" fill="#000000">levelset.cpp</text>
</a>
</g>
</g>
<!-- Node20&#45;&gt;Node21 -->
<g id="edge21" class="edge">
<title>Node20&#45;&gt;Node21</title>
<path fill="none" stroke="#191970" d="M112.3032,-102.5987C105.8115,-78.363 94.9612,-37.8551 90.0513,-19.5249"/>
<polygon fill="#191970" stroke="#191970" points="108.974,-103.6971 114.9422,-112.4509 115.7356,-101.8859 108.974,-103.6971"/>
</g>
<!-- Node22 -->
<g id="node18" class="node">
<title>Node22</title>
<g id="a_node18"><a xlink:href="levelset__ops_8_h.html" target="_top" xlink:title="levelset_ops.H">
<polygon fill="#ffffff" stroke="#000000" points="0,-56.5 0,-75.5 89,-75.5 89,-56.5 0,-56.5"/>
<text text-anchor="middle" x="44.5" y="-63.5" font-family="Helvetica,sans-Serif" font-size="10.00" fill="#000000">levelset_ops.H</text>
</a>
</g>
</g>
<!-- Node20&#45;&gt;Node22 -->
<g id="edge22" class="edge">
<title>Node20&#45;&gt;Node22</title>
<path fill="none" stroke="#191970" d="M96.549,-105.928C83.7893,-96.1397 67.9115,-83.9595 57.0699,-75.6427"/>
<polygon fill="#191970" stroke="#191970" points="94.7197,-108.9359 104.7844,-112.2455 98.9804,-103.3819 94.7197,-108.9359"/>
</g>
<!-- Node22&#45;&gt;Node21 -->
<g id="edge23" class="edge">
<title>Node22&#45;&gt;Node21</title>
<path fill="none" stroke="#191970" d="M58.1592,-48.2112C65.4263,-38.7472 74.0781,-27.4797 80.0958,-19.6427"/>
<polygon fill="#191970" stroke="#191970" points="55.3043,-46.1824 51.99,-56.2455 60.8564,-50.4456 55.3043,-46.1824"/>
</g>
<!-- Node24 -->
<g id="node20" class="node">
<title>Node24</title>
<g id="a_node20"><a xlink:href="_s_d_r_8cpp.html" target="_top" xlink:title="SDR.cpp">
<polygon fill="#ffffff" stroke="#000000" points="157,-.5 157,-19.5 214,-19.5 214,-.5 157,-.5"/>
<text text-anchor="middle" x="185.5" y="-7.5" font-family="Helvetica,sans-Serif" font-size="10.00" fill="#000000">SDR.cpp</text>
</a>
</g>
</g>
<!-- Node23&#45;&gt;Node24 -->
<g id="edge25" class="edge">
<title>Node23&#45;&gt;Node24</title>
<path fill="none" stroke="#191970" d="M299.8041,-117.0439C257.761,-110.091 189.5423,-96.011 174.5,-76 161.9361,-59.2861 172.4784,-33.4467 179.8452,-19.5777"/>
<polygon fill="#191970" stroke="#191970" points="299.4532,-120.5322 309.8808,-118.6573 300.5599,-113.6202 299.4532,-120.5322"/>
</g>
<!-- Node25 -->
<g id="node21" class="node">
<title>Node25</title>
<g id="a_node21"><a xlink:href="sdr__ops_8_h.html" target="_top" xlink:title="sdr_ops.H">
<polygon fill="#ffffff" stroke="#000000" points="184,-56.5 184,-75.5 249,-75.5 249,-56.5 184,-56.5"/>
<text text-anchor="middle" x="216.5" y="-63.5" font-family="Helvetica,sans-Serif" font-size="10.00" fill="#000000">sdr_ops.H</text>
</a>
</g>
</g>
<!-- Node23&#45;&gt;Node25 -->
<g id="edge26" class="edge">
<title>Node23&#45;&gt;Node25</title>
<path fill="none" stroke="#191970" d="M304.1958,-107.9741C283.012,-97.8348 254.9597,-84.408 236.3506,-75.5011"/>
<polygon fill="#191970" stroke="#191970" points="302.8559,-111.2129 313.387,-112.3733 305.878,-104.8989 302.8559,-111.2129"/>
</g>
<!-- Node26 -->
<g id="node22" class="node">
<title>Node26</title>
<g id="a_node22"><a xlink:href="_k_omega_s_s_t_i_8_h.html" target="_top" xlink:title="KOmegaSSTI.H">
<polygon fill="#ffffff" stroke="#000000" points="344,-56.5 344,-75.5 433,-75.5 433,-56.5 344,-56.5"/>
<text text-anchor="middle" x="388.5" y="-63.5" font-family="Helvetica,sans-Serif" font-size="10.00" fill="#000000">KOmegaSSTI.H</text>
</a>
</g>
</g>
<!-- Node23&#45;&gt;Node26 -->
<g id="edge28" class="edge">
<title>Node23&#45;&gt;Node26</title>
<path fill="none" stroke="#191970" d="M350.1226,-105.0751C359.5855,-95.4402 371.0969,-83.7196 379.0295,-75.6427"/>
<polygon fill="#191970" stroke="#191970" points="347.5903,-102.6585 343.0803,-112.2455 352.5845,-107.5635 347.5903,-102.6585"/>
</g>
<!-- Node27 -->
<g id="node23" class="node">
<title>Node27</title>
<g id="a_node23"><a xlink:href="_k_omega_s_s_t_8cpp.html" target="_top" xlink:title="KOmegaSST.cpp">
<polygon fill="#ffffff" stroke="#000000" points="268,-.5 268,-19.5 363,-19.5 363,-.5 268,-.5"/>
<text text-anchor="middle" x="315.5" y="-7.5" font-family="Helvetica,sans-Serif" font-size="10.00" fill="#000000">KOmegaSST.cpp</text>
</a>
</g>
</g>
<!-- Node23&#45;&gt;Node27 -->
<g id="edge31" class="edge">
<title>Node23&#45;&gt;Node27</title>
<path fill="none" stroke="#191970" d="M317.5471,-104.4974C311.2494,-96.4331 304.7496,-86.3617 301.5,-76 295.331,-56.3293 304.2615,-32.5105 310.4456,-19.5447"/>
<polygon fill="#191970" stroke="#191970" points="315.0381,-106.953 324.1382,-112.3788 320.4079,-102.4624 315.0381,-106.953"/>
</g>
<!-- Node28 -->
<g id="node24" class="node">
<title>Node28</title>
<g id="a_node24"><a xlink:href="_k_omega_s_s_t_i_d_d_e_s_8cpp.html" target="_top" xlink:title="KOmegaSSTIDDES.cpp">
<polygon fill="#ffffff" stroke="#000000" points="398.5,-.5 398.5,-19.5 524.5,-19.5 524.5,-.5 398.5,-.5"/>
<text text-anchor="middle" x="461.5" y="-7.5" font-family="Helvetica,sans-Serif" font-size="10.00" fill="#000000">KOmegaSSTIDDES.cpp</text>
</a>
</g>
</g>
<!-- Node23&#45;&gt;Node28 -->
<g id="edge32" class="edge">
<title>Node23&#45;&gt;Node28</title>
<path fill="none" stroke="#191970" d="M366.8647,-115.6559C390.7858,-109.4427 422.0905,-97.6368 441.5,-76 455.8909,-59.9577 459.9323,-33.8455 461.0635,-19.7553"/>
<polygon fill="#191970" stroke="#191970" points="366.0314,-112.2565 357.1211,-117.9887 367.6613,-119.0641 366.0314,-112.2565"/>
</g>
<!-- Node25&#45;&gt;Node24 -->
<g id="edge27" class="edge">
<title>Node25&#45;&gt;Node24</title>
<path fill="none" stroke="#191970" d="M206.1688,-47.3372C201.0335,-38.0605 195.0434,-27.2398 190.8379,-19.6427"/>
<polygon fill="#191970" stroke="#191970" points="203.1949,-49.1917 211.1002,-56.2455 209.3191,-45.8015 203.1949,-49.1917"/>
</g>
<!-- Node26&#45;&gt;Node27 -->
<g id="edge29" class="edge">
<title>Node26&#45;&gt;Node27</title>
<path fill="none" stroke="#191970" d="M367.549,-49.928C354.7893,-40.1397 338.9115,-27.9595 328.0699,-19.6427"/>
<polygon fill="#191970" stroke="#191970" points="365.7197,-52.9359 375.7844,-56.2455 369.9804,-47.3819 365.7197,-52.9359"/>
</g>
<!-- Node26&#45;&gt;Node28 -->
<g id="edge30" class="edge">
<title>Node26&#45;&gt;Node28</title>
<path fill="none" stroke="#191970" d="M409.451,-49.928C422.2107,-40.1397 438.0885,-27.9595 448.9301,-19.6427"/>
<polygon fill="#191970" stroke="#191970" points="407.0196,-47.3819 401.2156,-56.2455 411.2803,-52.9359 407.0196,-47.3819"/>
</g>
<!-- Node30 -->
<g id="node26" class="node">
<title>Node30</title>
<g id="a_node26"><a xlink:href="temperature_8cpp.html" target="_top" xlink:title="temperature.cpp">
<polygon fill="#ffffff" stroke="#000000" points="995.5,-56.5 995.5,-75.5 1093.5,-75.5 1093.5,-56.5 995.5,-56.5"/>
<text text-anchor="middle" x="1044.5" y="-63.5" font-family="Helvetica,sans-Serif" font-size="10.00" fill="#000000">temperature.cpp</text>
</a>
</g>
</g>
<!-- Node29&#45;&gt;Node30 -->
<g id="edge34" class="edge">
<title>Node29&#45;&gt;Node30</title>
<path fill="none" stroke="#191970" d="M1011.4997,-104.5004C1019.6622,-94.9775 1029.4489,-83.5596 1036.2349,-75.6427"/>
<polygon fill="#191970" stroke="#191970" points="1008.7115,-102.3752 1004.861,-112.2455 1014.0263,-106.9307 1008.7115,-102.3752"/>
</g>
<!-- Node31&#45;&gt;Node26 -->
<g id="edge40" class="edge">
<title>Node31&#45;&gt;Node26</title>
<path fill="none" stroke="#191970" d="M527.6111,-111.292C495.9196,-100.9738 448.4145,-85.507 417.938,-75.5845"/>
<polygon fill="#191970" stroke="#191970" points="526.711,-114.6797 537.3033,-114.4476 528.8782,-108.0236 526.711,-114.6797"/>
</g>
<!-- Node31&#45;&gt;Node27 -->
<g id="edge41" class="edge">
<title>Node31&#45;&gt;Node27</title>
<path fill="none" stroke="#191970" d="M527.3076,-119.4213C471.4907,-114.423 362.2039,-101.5845 334.5,-76 318.5573,-61.2769 315.6799,-34.1297 315.3486,-19.6654"/>
<polygon fill="#191970" stroke="#191970" points="527.1334,-122.9192 537.3972,-120.2913 527.7349,-115.945 527.1334,-122.9192"/>
</g>
<!-- Node31&#45;&gt;Node28 -->
<g id="edge42" class="edge">
<title>Node31&#45;&gt;Node28</title>
<path fill="none" stroke="#191970" d="M544.4745,-104.6758C536.5942,-96.0993 526.9889,-85.5592 518.5,-76 501.0076,-56.3022 480.9613,-32.8907 469.9139,-19.9138"/>
<polygon fill="#191970" stroke="#191970" points="542.0582,-107.2186 551.4085,-112.2008 547.206,-102.4751 542.0582,-107.2186"/>
</g>
<!-- Node32 -->
<g id="node28" class="node">
<title>Node32</title>
<g id="a_node28"><a xlink:href="_t_k_e_8cpp.html" target="_top" xlink:title="TKE.cpp">
<polygon fill="#ffffff" stroke="#000000" points="568.5,-.5 568.5,-19.5 624.5,-19.5 624.5,-.5 568.5,-.5"/>
<text text-anchor="middle" x="596.5" y="-7.5" font-family="Helvetica,sans-Serif" font-size="10.00" fill="#000000">TKE.cpp</text>
</a>
</g>
</g>
<!-- Node31&#45;&gt;Node32 -->
<g id="edge36" class="edge">
<title>Node31&#45;&gt;Node32</title>
<path fill="none" stroke="#191970" d="M580.9912,-105.1249C589.0029,-97.2186 597.2725,-87.0966 601.5,-76 608.7001,-57.1006 603.6368,-32.9926 599.7691,-19.7707"/>
<polygon fill="#191970" stroke="#191970" points="578.2297,-102.9084 573.2248,-112.2466 582.9607,-108.0677 578.2297,-102.9084"/>
</g>
<!-- Node33 -->
<g id="node29" class="node">
<title>Node33</title>
<g id="a_node29"><a xlink:href="tke__ops_8_h.html" target="_top" xlink:title="tke_ops.H">
<polygon fill="#ffffff" stroke="#000000" points="528,-56.5 528,-75.5 593,-75.5 593,-56.5 528,-56.5"/>
<text text-anchor="middle" x="560.5" y="-63.5" font-family="Helvetica,sans-Serif" font-size="10.00" fill="#000000">tke_ops.H</text>
</a>
</g>
</g>
<!-- Node31&#45;&gt;Node33 -->
<g id="edge37" class="edge">
<title>Node31&#45;&gt;Node33</title>
<path fill="none" stroke="#191970" d="M560.5,-102.1575C560.5,-93.155 560.5,-82.9199 560.5,-75.6427"/>
<polygon fill="#191970" stroke="#191970" points="557.0001,-102.2455 560.5,-112.2455 564.0001,-102.2456 557.0001,-102.2455"/>
</g>
<!-- Node34 -->
<g id="node30" class="node">
<title>Node34</title>
<g id="a_node30"><a xlink:href="_one_eq_ksgs_8cpp.html" target="_top" xlink:title="OneEqKsgs.cpp">
<polygon fill="#ffffff" stroke="#000000" points="649.5,-56.5 649.5,-75.5 741.5,-75.5 741.5,-56.5 649.5,-56.5"/>
<text text-anchor="middle" x="695.5" y="-63.5" font-family="Helvetica,sans-Serif" font-size="10.00" fill="#000000">OneEqKsgs.cpp</text>
</a>
</g>
</g>
<!-- Node31&#45;&gt;Node34 -->
<g id="edge39" class="edge">
<title>Node31&#45;&gt;Node34</title>
<path fill="none" stroke="#191970" d="M592.9991,-108.5189C617.5854,-98.3201 650.7366,-84.5685 672.5955,-75.5011"/>
<polygon fill="#191970" stroke="#191970" points="591.6031,-105.3087 583.7073,-112.3733 594.2852,-111.7745 591.6031,-105.3087"/>
</g>
<!-- Node33&#45;&gt;Node32 -->
<g id="edge38" class="edge">
<title>Node33&#45;&gt;Node32</title>
<path fill="none" stroke="#191970" d="M572.3096,-47.6296C578.3144,-38.2887 585.3659,-27.3197 590.3011,-19.6427"/>
<polygon fill="#191970" stroke="#191970" points="569.2342,-45.9411 566.7707,-56.2455 575.1225,-49.7264 569.2342,-45.9411"/>
</g>
<!-- Node36 -->
<g id="node32" class="node">
<title>Node36</title>
<g id="a_node32"><a xlink:href="vof_8cpp.html" target="_top" xlink:title="vof.cpp">
<polygon fill="#ffffff" stroke="#000000" points="827.5,-.5 827.5,-19.5 879.5,-19.5 879.5,-.5 827.5,-.5"/>
<text text-anchor="middle" x="853.5" y="-7.5" font-family="Helvetica,sans-Serif" font-size="10.00" fill="#000000">vof.cpp</text>
</a>
</g>
</g>
<!-- Node35&#45;&gt;Node36 -->
<g id="edge44" class="edge">
<title>Node35&#45;&gt;Node36</title>
<path fill="none" stroke="#191970" d="M873.3426,-102.5987C868.1492,-78.363 859.4689,-37.8551 855.541,-19.5249"/>
<polygon fill="#191970" stroke="#191970" points="869.9361,-103.4063 875.4538,-112.4509 876.7807,-101.9395 869.9361,-103.4063"/>
</g>
<!-- Node37 -->
<g id="node33" class="node">
<title>Node37</title>
<g id="a_node33"><a xlink:href="vof__advection_8_h.html" target="_top" xlink:title="vof_advection.H">
<polygon fill="#ffffff" stroke="#000000" points="881.5,-56.5 881.5,-75.5 977.5,-75.5 977.5,-56.5 881.5,-56.5"/>
<text text-anchor="middle" x="929.5" y="-63.5" font-family="Helvetica,sans-Serif" font-size="10.00" fill="#000000">vof_advection.H</text>
</a>
</g>
</g>
<!-- Node35&#45;&gt;Node37 -->
<g id="edge45" class="edge">
<title>Node35&#45;&gt;Node37</title>
<path fill="none" stroke="#191970" d="M893.4822,-104.7884C902.3778,-95.2085 913.1204,-83.6396 920.5461,-75.6427"/>
<polygon fill="#191970" stroke="#191970" points="890.7975,-102.536 886.5577,-112.2455 895.927,-107.2992 890.7975,-102.536"/>
</g>
<!-- Node38 -->
<g id="node34" class="node">
<title>Node38</title>
<g id="a_node34"><a xlink:href="vof__ops_8_h.html" target="_top" xlink:title="vof_ops.H">
<polygon fill="#ffffff" stroke="#000000" points="760,-56.5 760,-75.5 825,-75.5 825,-56.5 760,-56.5"/>
<text text-anchor="middle" x="792.5" y="-63.5" font-family="Helvetica,sans-Serif" font-size="10.00" fill="#000000">vof_ops.H</text>
</a>
</g>
</g>
<!-- Node35&#45;&gt;Node38 -->
<g id="edge47" class="edge">
<title>Node35&#45;&gt;Node38</title>
<path fill="none" stroke="#191970" d="M853.9581,-106.49C838.961,-96.6096 820.0027,-84.1194 807.1362,-75.6427"/>
<polygon fill="#191970" stroke="#191970" points="852.4179,-109.6666 862.6941,-112.2455 856.2691,-103.8212 852.4179,-109.6666"/>
</g>
<!-- Node37&#45;&gt;Node36 -->
<g id="edge46" class="edge">
<title>Node37&#45;&gt;Node36</title>
<path fill="none" stroke="#191970" d="M908.0703,-50.2097C894.7223,-40.3743 877.9821,-28.0394 866.5865,-19.6427"/>
<polygon fill="#191970" stroke="#191970" points="906.135,-53.1312 916.2618,-56.2455 910.2874,-47.4958 906.135,-53.1312"/>
</g>
<!-- Node38&#45;&gt;Node36 -->
<g id="edge48" class="edge">
<title>Node38&#45;&gt;Node36</title>
<path fill="none" stroke="#191970" d="M810.6249,-49.3607C821.178,-39.6727 834.1112,-27.7995 842.9964,-19.6427"/>
<polygon fill="#191970" stroke="#191970" points="808.125,-46.9045 803.1254,-56.2455 812.8589,-52.0611 808.125,-46.9045"/>
</g>
</g>
</svg>
