<?xml version="1.0" encoding="UTF-8" standalone="no"?>
<!DOCTYPE svg PUBLIC "-//W3C//DTD SVG 1.1//EN"
 "http://www.w3.org/Graphics/SVG/1.1/DTD/svg11.dtd">
<!-- Generated by graphviz version 2.40.1 (20161225.0304)
 -->
<!-- Title: MOData.H Pages: 1 -->
<svg width="269pt" height="151pt"
 viewBox="0.00 0.00 268.50 151.00" xmlns="http://www.w3.org/2000/svg" xmlns:xlink="http://www.w3.org/1999/xlink">
<g id="graph0" class="graph" transform="scale(1 1) rotate(0) translate(4 147)">
<title>MOData.H</title>
<polygon fill="#ffffff" stroke="transparent" points="-4,4 -4,-147 264.5,-147 264.5,4 -4,4"/>
<!-- Node0 -->
<g id="node1" class="node">
<title>Node0</title>
<polygon fill="#bfbfbf" stroke="#000000" points="77.5,-123.5 77.5,-142.5 143.5,-142.5 143.5,-123.5 77.5,-123.5"/>
<text text-anchor="middle" x="110.5" y="-130.5" font-family="Helvetica,sans-Serif" font-size="10.00" fill="#000000">MOData.H</text>
</g>
<!-- Node1 -->
<g id="node2" class="node">
<title>Node1</title>
<g id="a_node2"><a xlink:href="trig__ops_8_h.html" target="_top" xlink:title="Trigonometric utilities. ">
<polygon fill="#ffffff" stroke="#000000" points="59.5,-56.5 59.5,-86.5 161.5,-86.5 161.5,-56.5 59.5,-56.5"/>
<text text-anchor="start" x="67.5" y="-74.5" font-family="Helvetica,sans-Serif" font-size="10.00" fill="#000000">amr&#45;wind/utilities</text>
<text text-anchor="middle" x="110.5" y="-63.5" font-family="Helvetica,sans-Serif" font-size="10.00" fill="#000000">/trig_ops.H</text>
</a>
</g>
</g>
<!-- Node0&#45;&gt;Node1 -->
<g id="edge1" class="edge">
<title>Node0&#45;&gt;Node1</title>
<path fill="none" stroke="#191970" d="M110.5,-123.3906C110.5,-116.2234 110.5,-106.0862 110.5,-96.671"/>
<polygon fill="#191970" stroke="#191970" points="114.0001,-96.5446 110.5,-86.5446 107.0001,-96.5446 114.0001,-96.5446"/>
</g>
<!-- Node2 -->
<g id="node3" class="node">
<title>Node2</title>
<polygon fill="#ffffff" stroke="#bfbfbf" points="0,-.5 0,-19.5 47,-19.5 47,-.5 0,-.5"/>
<text text-anchor="middle" x="23.5" y="-7.5" font-family="Helvetica,sans-Serif" font-size="10.00" fill="#000000">cmath</text>
</g>
<!-- Node1&#45;&gt;Node2 -->
<g id="edge2" class="edge">
<title>Node1&#45;&gt;Node2</title>
<path fill="none" stroke="#191970" d="M88.9944,-56.2977C75.7032,-46.9022 58.6943,-34.8787 45.3412,-25.4395"/>
<polygon fill="#191970" stroke="#191970" points="47.3561,-22.5776 37.17,-19.6633 43.3154,-28.2937 47.3561,-22.5776"/>
</g>
<!-- Node3 -->
<g id="node4" class="node">
<title>Node3</title>
<polygon fill="#ffffff" stroke="#bfbfbf" points="65,-.5 65,-19.5 156,-19.5 156,-.5 65,-.5"/>
<text text-anchor="middle" x="110.5" y="-7.5" font-family="Helvetica,sans-Serif" font-size="10.00" fill="#000000">AMReX_REAL.H</text>
</g>
<!-- Node1&#45;&gt;Node3 -->
<g id="edge3" class="edge">
<title>Node1&#45;&gt;Node3</title>
<path fill="none" stroke="#191970" d="M110.5,-56.2977C110.5,-48.3834 110.5,-38.6043 110.5,-30.0759"/>
<polygon fill="#191970" stroke="#191970" points="114.0001,-29.8469 110.5,-19.8469 107.0001,-29.847 114.0001,-29.8469"/>
</g>
<!-- Node4 -->
<g id="node5" class="node">
<title>Node4</title>
<polygon fill="#ffffff" stroke="#bfbfbf" points="174.5,-.5 174.5,-19.5 260.5,-19.5 260.5,-.5 174.5,-.5"/>
<text text-anchor="middle" x="217.5" y="-7.5" font-family="Helvetica,sans-Serif" font-size="10.00" fill="#000000">AMReX_Gpu.H</text>
</g>
<!-- Node1&#45;&gt;Node4 -->
<g id="edge4" class="edge">
<title>Node1&#45;&gt;Node4</title>
<path fill="none" stroke="#191970" d="M136.6751,-56.4554C153.5887,-46.734 175.4829,-34.15 192.2172,-24.5317"/>
<polygon fill="#191970" stroke="#191970" points="193.993,-27.548 200.9188,-19.5303 190.5047,-21.4791 193.993,-27.548"/>
</g>
</g>
</svg>
