<?xml version="1.0" encoding="UTF-8" standalone="no"?>
<!DOCTYPE svg PUBLIC "-//W3C//DTD SVG 1.1//EN"
 "http://www.w3.org/Graphics/SVG/1.1/DTD/svg11.dtd">
<!-- Generated by graphviz version 2.40.1 (20161225.0304)
 -->
<!-- Title: MOL.H Pages: 1 -->
<svg width="1784pt" height="252pt"
 viewBox="0.00 0.00 1784.00 252.00" xmlns="http://www.w3.org/2000/svg" xmlns:xlink="http://www.w3.org/1999/xlink">
<g id="graph0" class="graph" transform="scale(1 1) rotate(0) translate(4 248)">
<title>MOL.H</title>
<polygon fill="#ffffff" stroke="transparent" points="-4,4 -4,-248 1780,-248 1780,4 -4,4"/>
<!-- Node0 -->
<g id="node1" class="node">
<title>Node0</title>
<polygon fill="#bfbfbf" stroke="#000000" points="1042.5,-224.5 1042.5,-243.5 1090.5,-243.5 1090.5,-224.5 1042.5,-224.5"/>
<text text-anchor="middle" x="1066.5" y="-231.5" font-family="Helvetica,sans-Serif" font-size="10.00" fill="#000000">MOL.H</text>
</g>
<!-- Node1 -->
<g id="node2" class="node">
<title>Node1</title>
<g id="a_node2"><a xlink:href="_field_repo_8_h.html" target="_top" xlink:title="amr&#45;wind/core/FieldRepo.H">
<polygon fill="#ffffff" stroke="#000000" points="993.5,-168.5 993.5,-187.5 1139.5,-187.5 1139.5,-168.5 993.5,-168.5"/>
<text text-anchor="middle" x="1066.5" y="-175.5" font-family="Helvetica,sans-Serif" font-size="10.00" fill="#000000">amr&#45;wind/core/FieldRepo.H</text>
</a>
</g>
</g>
<!-- Node0&#45;&gt;Node1 -->
<g id="edge1" class="edge">
<title>Node0&#45;&gt;Node1</title>
<path fill="none" stroke="#191970" d="M1066.5,-224.2455C1066.5,-216.9382 1066.5,-206.6944 1066.5,-197.7046"/>
<polygon fill="#191970" stroke="#191970" points="1070.0001,-197.6426 1066.5,-187.6427 1063.0001,-197.6427 1070.0001,-197.6426"/>
</g>
<!-- Node2 -->
<g id="node3" class="node">
<title>Node2</title>
<polygon fill="#ffffff" stroke="#bfbfbf" points="1190.5,-.5 1190.5,-19.5 1234.5,-19.5 1234.5,-.5 1190.5,-.5"/>
<text text-anchor="middle" x="1212.5" y="-7.5" font-family="Helvetica,sans-Serif" font-size="10.00" fill="#000000">string</text>
</g>
<!-- Node1&#45;&gt;Node2 -->
<g id="edge2" class="edge">
<title>Node1&#45;&gt;Node2</title>
<path fill="none" stroke="#191970" d="M1139.6843,-173.4037C1246.0398,-166.1986 1437.8857,-151.0758 1504.5,-132 1559.1523,-116.3496 1589.3595,-124.2012 1619.5,-76 1624.2128,-68.4633 1625.4219,-62.629 1619.5,-56 1594.6358,-28.1673 1336.8393,-15.0484 1244.8732,-11.2286"/>
<polygon fill="#191970" stroke="#191970" points="1244.8876,-7.7264 1234.754,-10.8182 1244.604,-14.7206 1244.8876,-7.7264"/>
</g>
<!-- Node3 -->
<g id="node4" class="node">
<title>Node3</title>
<polygon fill="#ffffff" stroke="#bfbfbf" points="202,-56.5 202,-75.5 295,-75.5 295,-56.5 202,-56.5"/>
<text text-anchor="middle" x="248.5" y="-63.5" font-family="Helvetica,sans-Serif" font-size="10.00" fill="#000000">unordered_map</text>
</g>
<!-- Node1&#45;&gt;Node3 -->
<g id="edge3" class="edge">
<title>Node1&#45;&gt;Node3</title>
<path fill="none" stroke="#191970" d="M993.4234,-169.6582C917.05,-160.8164 793.7664,-146.1954 687.5,-132 519.8021,-109.5984 475.3826,-104.0829 305.3356,-76.2676"/>
<polygon fill="#191970" stroke="#191970" points="305.7228,-72.7844 295.2885,-74.6222 304.5914,-79.6924 305.7228,-72.7844"/>
</g>
<!-- Node4 -->
<g id="node5" class="node">
<title>Node4</title>
<g id="a_node5"><a xlink:href="_field_desc_types_8_h.html" target="_top" xlink:title="amr&#45;wind/core/FieldDescTypes.H">
<polygon fill="#ffffff" stroke="#000000" points="519.5,-.5 519.5,-19.5 693.5,-19.5 693.5,-.5 519.5,-.5"/>
<text text-anchor="middle" x="606.5" y="-7.5" font-family="Helvetica,sans-Serif" font-size="10.00" fill="#000000">amr&#45;wind/core/FieldDescTypes.H</text>
</a>
</g>
</g>
<!-- Node1&#45;&gt;Node4 -->
<g id="edge4" class="edge">
<title>Node1&#45;&gt;Node4</title>
<path fill="none" stroke="#191970" d="M993.4488,-175.0642C792.715,-166.2375 244.1607,-136.7223 192.5,-76 186.7401,-69.2298 186.5718,-62.6234 192.5,-56 213.2458,-32.8215 393.1156,-20.0205 508.8442,-14.1177"/>
<polygon fill="#191970" stroke="#191970" points="509.3289,-17.5979 519.1413,-13.602 508.9787,-10.6067 509.3289,-17.5979"/>
</g>
<!-- Node5 -->
<g id="node6" class="node">
<title>Node5</title>
<g id="a_node6"><a xlink:href="_field_utils_8_h.html" target="_top" xlink:title="amr&#45;wind/core/FieldUtils.H">
<polygon fill="#ffffff" stroke="#000000" points="0,-56.5 0,-75.5 145,-75.5 145,-56.5 0,-56.5"/>
<text text-anchor="middle" x="72.5" y="-63.5" font-family="Helvetica,sans-Serif" font-size="10.00" fill="#000000">amr&#45;wind/core/FieldUtils.H</text>
</a>
</g>
</g>
<!-- Node1&#45;&gt;Node5 -->
<g id="edge5" class="edge">
<title>Node1&#45;&gt;Node5</title>
<path fill="none" stroke="#191970" d="M993.4739,-176.7663C791.7857,-173.0123 236.8452,-160.2187 159.5,-132 131.3375,-121.7252 104.773,-98.9628 88.5772,-83.0595"/>
<polygon fill="#191970" stroke="#191970" points="91.0139,-80.5459 81.4978,-75.8882 86.0323,-85.4636 91.0139,-80.5459"/>
</g>
<!-- Node6 -->
<g id="node7" class="node">
<title>Node6</title>
<polygon fill="#ffffff" stroke="#bfbfbf" points="881,-.5 881,-19.5 988,-19.5 988,-.5 881,-.5"/>
<text text-anchor="middle" x="934.5" y="-7.5" font-family="Helvetica,sans-Serif" font-size="10.00" fill="#000000">AMReX_MultiFab.H</text>
</g>
<!-- Node1&#45;&gt;Node6 -->
<g id="edge36" class="edge">
<title>Node1&#45;&gt;Node6</title>
<path fill="none" stroke="#191970" d="M1056.9173,-168.4425C1047.9584,-159.3488 1034.3683,-145.1421 1023.5,-132 994.2945,-96.6843 963.4788,-52.7174 946.8679,-28.3781"/>
<polygon fill="#191970" stroke="#191970" points="949.5514,-26.0994 941.0408,-19.7891 943.7588,-30.0294 949.5514,-26.0994"/>
</g>
<!-- Node8 -->
<g id="node9" class="node">
<title>Node8</title>
<g id="a_node9"><a xlink:href="_field_8_h.html" target="_top" xlink:title="amr&#45;wind/core/Field.H">
<polygon fill="#ffffff" stroke="#000000" points="696.5,-112.5 696.5,-131.5 818.5,-131.5 818.5,-112.5 696.5,-112.5"/>
<text text-anchor="middle" x="757.5" y="-119.5" font-family="Helvetica,sans-Serif" font-size="10.00" fill="#000000">amr&#45;wind/core/Field.H</text>
</a>
</g>
</g>
<!-- Node1&#45;&gt;Node8 -->
<g id="edge9" class="edge">
<title>Node1&#45;&gt;Node8</title>
<path fill="none" stroke="#191970" d="M1013.7321,-168.4369C960.0715,-158.712 876.9373,-143.6456 820.009,-133.3285"/>
<polygon fill="#191970" stroke="#191970" points="820.5141,-129.8631 810.0503,-131.5237 819.2658,-136.7509 820.5141,-129.8631"/>
</g>
<!-- Node16 -->
<g id="node17" class="node">
<title>Node16</title>
<g id="a_node17"><a xlink:href="_int_field_8_h.html" target="_top" xlink:title="amr&#45;wind/core/IntField.H">
<polygon fill="#ffffff" stroke="#000000" points="1033,-112.5 1033,-131.5 1168,-131.5 1168,-112.5 1033,-112.5"/>
<text text-anchor="middle" x="1100.5" y="-119.5" font-family="Helvetica,sans-Serif" font-size="10.00" fill="#000000">amr&#45;wind/core/IntField.H</text>
</a>
</g>
</g>
<!-- Node1&#45;&gt;Node16 -->
<g id="edge24" class="edge">
<title>Node1&#45;&gt;Node16</title>
<path fill="none" stroke="#191970" d="M1072.4223,-168.2455C1077.1027,-160.5367 1083.7673,-149.5598 1089.4289,-140.2348"/>
<polygon fill="#191970" stroke="#191970" points="1092.4475,-142.007 1094.6455,-131.6427 1086.4639,-138.3741 1092.4475,-142.007"/>
</g>
<!-- Node17 -->
<g id="node18" class="node">
<title>Node17</title>
<polygon fill="#ffffff" stroke="#bfbfbf" points="1240.5,-56.5 1240.5,-75.5 1350.5,-75.5 1350.5,-56.5 1240.5,-56.5"/>
<text text-anchor="middle" x="1295.5" y="-63.5" font-family="Helvetica,sans-Serif" font-size="10.00" fill="#000000">AMReX_iMultiFab.H</text>
</g>
<!-- Node1&#45;&gt;Node17 -->
<g id="edge37" class="edge">
<title>Node1&#45;&gt;Node17</title>
<path fill="none" stroke="#191970" d="M1091.7504,-168.3597C1114.2745,-159.5443 1147.9992,-145.8108 1176.5,-132 1209.908,-115.8113 1247.1401,-94.6288 1270.9138,-80.6829"/>
<polygon fill="#191970" stroke="#191970" points="1272.7954,-83.6366 1279.6294,-75.5404 1269.2382,-77.6078 1272.7954,-83.6366"/>
</g>
<!-- Node18 -->
<g id="node19" class="node">
<title>Node18</title>
<g id="a_node19"><a xlink:href="_scratch_field_8_h.html" target="_top" xlink:title="amr&#45;wind/core/ScratchField.H">
<polygon fill="#ffffff" stroke="#000000" points="1337.5,-112.5 1337.5,-131.5 1495.5,-131.5 1495.5,-112.5 1337.5,-112.5"/>
<text text-anchor="middle" x="1416.5" y="-119.5" font-family="Helvetica,sans-Serif" font-size="10.00" fill="#000000">amr&#45;wind/core/ScratchField.H</text>
</a>
</g>
</g>
<!-- Node1&#45;&gt;Node18 -->
<g id="edge28" class="edge">
<title>Node1&#45;&gt;Node18</title>
<path fill="none" stroke="#191970" d="M1126.2695,-168.4369C1187.4277,-158.6516 1282.386,-143.4582 1346.895,-133.1368"/>
<polygon fill="#191970" stroke="#191970" points="1347.6556,-136.5597 1356.9771,-131.5237 1346.5497,-129.6476 1347.6556,-136.5597"/>
</g>
<!-- Node20 -->
<g id="node21" class="node">
<title>Node20</title>
<polygon fill="#ffffff" stroke="#bfbfbf" points="1667,-112.5 1667,-131.5 1776,-131.5 1776,-112.5 1667,-112.5"/>
<text text-anchor="middle" x="1721.5" y="-119.5" font-family="Helvetica,sans-Serif" font-size="10.00" fill="#000000">AMReX_AmrCore.H</text>
</g>
<!-- Node1&#45;&gt;Node20 -->
<g id="edge35" class="edge">
<title>Node1&#45;&gt;Node20</title>
<path fill="none" stroke="#191970" d="M1139.7315,-173.7992C1250.8036,-167.078 1468.4235,-152.5413 1652.5,-132 1653.9661,-131.8364 1655.449,-131.6657 1656.9438,-131.489"/>
<polygon fill="#191970" stroke="#191970" points="1657.4382,-134.9545 1666.9292,-130.2459 1656.5734,-128.0081 1657.4382,-134.9545"/>
</g>
<!-- Node5&#45;&gt;Node4 -->
<g id="edge6" class="edge">
<title>Node5&#45;&gt;Node4</title>
<path fill="none" stroke="#191970" d="M145.1236,-57.5871C149.9882,-57.0437 154.8146,-56.5103 159.5,-56 279.8524,-42.891 418.547,-28.7719 509.1221,-19.6843"/>
<polygon fill="#191970" stroke="#191970" points="509.501,-23.1639 519.102,-18.6838 508.8027,-16.1988 509.501,-23.1639"/>
</g>
<!-- Node5&#45;&gt;Node6 -->
<g id="edge7" class="edge">
<title>Node5&#45;&gt;Node6</title>
<path fill="none" stroke="#191970" d="M145.1393,-59.6972C160.7578,-58.4119 177.1748,-57.1135 192.5,-56 443.4798,-37.7649 742.5537,-20.6239 870.8872,-13.4874"/>
<polygon fill="#191970" stroke="#191970" points="871.1428,-16.9787 880.9334,-12.9298 870.7548,-9.9895 871.1428,-16.9787"/>
</g>
<!-- Node7 -->
<g id="node8" class="node">
<title>Node7</title>
<polygon fill="#ffffff" stroke="#bfbfbf" points="11.5,-.5 11.5,-19.5 133.5,-19.5 133.5,-.5 11.5,-.5"/>
<text text-anchor="middle" x="72.5" y="-7.5" font-family="Helvetica,sans-Serif" font-size="10.00" fill="#000000">AMReX_Interpolater.H</text>
</g>
<!-- Node5&#45;&gt;Node7 -->
<g id="edge8" class="edge">
<title>Node5&#45;&gt;Node7</title>
<path fill="none" stroke="#191970" d="M72.5,-56.2455C72.5,-48.9382 72.5,-38.6944 72.5,-29.7046"/>
<polygon fill="#191970" stroke="#191970" points="76.0001,-29.6426 72.5,-19.6427 69.0001,-29.6427 76.0001,-29.6426"/>
</g>
<!-- Node8&#45;&gt;Node2 -->
<g id="edge10" class="edge">
<title>Node8&#45;&gt;Node2</title>
<path fill="none" stroke="#191970" d="M818.8458,-120.3071C915.6143,-116.7451 1098.5555,-106.1364 1155.5,-76 1175.8902,-65.209 1192.2013,-43.8814 1202.0654,-28.3833"/>
<polygon fill="#191970" stroke="#191970" points="1205.1765,-30.0021 1207.3528,-19.6332 1199.1854,-26.3818 1205.1765,-30.0021"/>
</g>
<!-- Node8&#45;&gt;Node3 -->
<g id="edge12" class="edge">
<title>Node8&#45;&gt;Node3</title>
<path fill="none" stroke="#191970" d="M696.3658,-117.3466C610.9661,-110.5045 450.9156,-96.4414 305.2819,-76.1695"/>
<polygon fill="#191970" stroke="#191970" points="305.6569,-72.6878 295.2672,-74.7623 304.6828,-79.6197 305.6569,-72.6878"/>
</g>
<!-- Node8&#45;&gt;Node4 -->
<g id="edge18" class="edge">
<title>Node8&#45;&gt;Node4</title>
<path fill="none" stroke="#191970" d="M696.224,-116.8428C613.0185,-109.2102 472.8365,-93.8673 457.5,-76 433.1649,-47.6491 473.5873,-30.985 518.4316,-21.4947"/>
<polygon fill="#191970" stroke="#191970" points="519.2265,-24.9052 528.3505,-19.5198 517.8595,-18.04 519.2265,-24.9052"/>
</g>
<!-- Node8&#45;&gt;Node6 -->
<g id="edge14" class="edge">
<title>Node8&#45;&gt;Node6</title>
<path fill="none" stroke="#191970" d="M796.0627,-112.4866C820.8276,-105.1561 852.8505,-93.3106 877.5,-76 895.9688,-63.0299 912.2553,-42.7872 922.6391,-28.1387"/>
<polygon fill="#191970" stroke="#191970" points="925.5484,-30.0848 928.3085,-19.8558 919.7719,-26.131 925.5484,-30.0848"/>
</g>
<!-- Node9 -->
<g id="node10" class="node">
<title>Node9</title>
<polygon fill="#ffffff" stroke="#bfbfbf" points="728.5,-56.5 728.5,-75.5 786.5,-75.5 786.5,-56.5 728.5,-56.5"/>
<text text-anchor="middle" x="757.5" y="-63.5" font-family="Helvetica,sans-Serif" font-size="10.00" fill="#000000">memory</text>
</g>
<!-- Node8&#45;&gt;Node9 -->
<g id="edge11" class="edge">
<title>Node8&#45;&gt;Node9</title>
<path fill="none" stroke="#191970" d="M757.5,-112.2455C757.5,-104.9382 757.5,-94.6944 757.5,-85.7046"/>
<polygon fill="#191970" stroke="#191970" points="761.0001,-85.6426 757.5,-75.6427 754.0001,-85.6427 761.0001,-85.6426"/>
</g>
<!-- Node10 -->
<g id="node11" class="node">
<title>Node10</title>
<polygon fill="#ffffff" stroke="#bfbfbf" points="804.5,-56.5 804.5,-75.5 868.5,-75.5 868.5,-56.5 804.5,-56.5"/>
<text text-anchor="middle" x="836.5" y="-63.5" font-family="Helvetica,sans-Serif" font-size="10.00" fill="#000000">algorithm</text>
</g>
<!-- Node8&#45;&gt;Node10 -->
<g id="edge13" class="edge">
<title>Node8&#45;&gt;Node10</title>
<path fill="none" stroke="#191970" d="M771.2607,-112.2455C783.1552,-103.814 800.565,-91.4729 814.4085,-81.6598"/>
<polygon fill="#191970" stroke="#191970" points="816.7628,-84.2811 822.8969,-75.6427 812.7146,-78.5704 816.7628,-84.2811"/>
</g>
<!-- Node11 -->
<g id="node12" class="node">
<title>Node11</title>
<polygon fill="#ffffff" stroke="#bfbfbf" points="313,-56.5 313,-75.5 410,-75.5 410,-56.5 313,-56.5"/>
<text text-anchor="middle" x="361.5" y="-63.5" font-family="Helvetica,sans-Serif" font-size="10.00" fill="#000000">AMReX_BCRec.H</text>
</g>
<!-- Node8&#45;&gt;Node11 -->
<g id="edge15" class="edge">
<title>Node8&#45;&gt;Node11</title>
<path fill="none" stroke="#191970" d="M696.3778,-113.9323C629.547,-105.0236 519.3201,-90.0731 424.5,-76 423.206,-75.8079 421.8973,-75.6123 420.578,-75.4139"/>
<polygon fill="#191970" stroke="#191970" points="420.7376,-71.8978 410.3241,-73.8493 419.6817,-78.8177 420.7376,-71.8978"/>
</g>
<!-- Node12 -->
<g id="node13" class="node">
<title>Node12</title>
<polygon fill="#ffffff" stroke="#bfbfbf" points="466.5,-56.5 466.5,-75.5 552.5,-75.5 552.5,-56.5 466.5,-56.5"/>
<text text-anchor="middle" x="509.5" y="-63.5" font-family="Helvetica,sans-Serif" font-size="10.00" fill="#000000">AMReX_Gpu.H</text>
</g>
<!-- Node8&#45;&gt;Node12 -->
<g id="edge16" class="edge">
<title>Node8&#45;&gt;Node12</title>
<path fill="none" stroke="#191970" d="M715.1491,-112.4369C672.7058,-102.8529 607.2881,-88.0812 561.6687,-77.78"/>
<polygon fill="#191970" stroke="#191970" points="562.2016,-74.3123 551.6763,-75.5237 560.6597,-81.1404 562.2016,-74.3123"/>
</g>
<!-- Node13 -->
<g id="node14" class="node">
<title>Node13</title>
<g id="a_node14"><a xlink:href="incflo__enums_8_h.html" target="_top" xlink:title="amr&#45;wind/incflo_enums.H">
<polygon fill="#ffffff" stroke="#000000" points="570.5,-56.5 570.5,-75.5 710.5,-75.5 710.5,-56.5 570.5,-56.5"/>
<text text-anchor="middle" x="640.5" y="-63.5" font-family="Helvetica,sans-Serif" font-size="10.00" fill="#000000">amr&#45;wind/incflo_enums.H</text>
</a>
</g>
</g>
<!-- Node8&#45;&gt;Node13 -->
<g id="edge17" class="edge">
<title>Node8&#45;&gt;Node13</title>
<path fill="none" stroke="#191970" d="M737.387,-112.3733C718.6897,-103.4241 690.6256,-89.9917 669.5066,-79.8835"/>
<polygon fill="#191970" stroke="#191970" points="670.8817,-76.6614 660.3506,-75.5011 667.8595,-82.9755 670.8817,-76.6614"/>
</g>
<!-- Node14 -->
<g id="node15" class="node">
<title>Node14</title>
<g id="a_node15"><a xlink:href="_view_field_8_h.html" target="_top" xlink:title="amr&#45;wind/core/ViewField.H">
<polygon fill="#ffffff" stroke="#000000" points="1000.5,-56.5 1000.5,-75.5 1146.5,-75.5 1146.5,-56.5 1000.5,-56.5"/>
<text text-anchor="middle" x="1073.5" y="-63.5" font-family="Helvetica,sans-Serif" font-size="10.00" fill="#000000">amr&#45;wind/core/ViewField.H</text>
</a>
</g>
</g>
<!-- Node8&#45;&gt;Node14 -->
<g id="edge19" class="edge">
<title>Node8&#45;&gt;Node14</title>
<path fill="none" stroke="#191970" d="M811.4633,-112.4369C866.3395,-102.712 951.357,-87.6456 1009.575,-77.3285"/>
<polygon fill="#191970" stroke="#191970" points="1010.5235,-80.715 1019.7593,-75.5237 1009.3019,-73.8224 1010.5235,-80.715"/>
</g>
<!-- Node14&#45;&gt;Node2 -->
<g id="edge20" class="edge">
<title>Node14&#45;&gt;Node2</title>
<path fill="none" stroke="#191970" d="M1097.395,-56.3733C1120.4194,-47.0972 1155.3996,-33.0045 1180.7546,-22.7895"/>
<polygon fill="#191970" stroke="#191970" points="1182.3249,-25.9303 1190.2925,-18.9469 1179.709,-19.4374 1182.3249,-25.9303"/>
</g>
<!-- Node14&#45;&gt;Node4 -->
<g id="edge21" class="edge">
<title>Node14&#45;&gt;Node4</title>
<path fill="none" stroke="#191970" d="M1000.2746,-57.2192C917.9665,-47.3493 784.3135,-31.3224 695.9065,-20.7211"/>
<polygon fill="#191970" stroke="#191970" points="696.2378,-17.2359 685.8922,-19.5203 695.4043,-24.1861 696.2378,-17.2359"/>
</g>
<!-- Node14&#45;&gt;Node6 -->
<g id="edge22" class="edge">
<title>Node14&#45;&gt;Node6</title>
<path fill="none" stroke="#191970" d="M1049.605,-56.3733C1026.9918,-47.2629 992.8458,-33.5062 967.6127,-23.3404"/>
<polygon fill="#191970" stroke="#191970" points="968.6666,-19.9917 958.0831,-19.5011 966.0507,-26.4845 968.6666,-19.9917"/>
</g>
<!-- Node15 -->
<g id="node16" class="node">
<title>Node15</title>
<polygon fill="#ffffff" stroke="#bfbfbf" points="1440.5,-.5 1440.5,-19.5 1536.5,-19.5 1536.5,-.5 1440.5,-.5"/>
<text text-anchor="middle" x="1488.5" y="-7.5" font-family="Helvetica,sans-Serif" font-size="10.00" fill="#000000">AMReX_Vector.H</text>
</g>
<!-- Node14&#45;&gt;Node15 -->
<g id="edge23" class="edge">
<title>Node14&#45;&gt;Node15</title>
<path fill="none" stroke="#191970" d="M1144.3695,-56.4369C1224.9613,-45.5618 1355.0538,-28.0072 1430.0743,-17.884"/>
<polygon fill="#191970" stroke="#191970" points="1430.8415,-21.3122 1440.2836,-16.5063 1429.9053,-14.3751 1430.8415,-21.3122"/>
</g>
<!-- Node16&#45;&gt;Node2 -->
<g id="edge25" class="edge">
<title>Node16&#45;&gt;Node2</title>
<path fill="none" stroke="#191970" d="M1131.0428,-112.4597C1149.8884,-105.1716 1173.2861,-93.383 1188.5,-76 1199.9049,-62.969 1206.0423,-44.0818 1209.2464,-29.8476"/>
<polygon fill="#191970" stroke="#191970" points="1212.76,-30.1144 1211.2319,-19.6304 1205.8885,-28.7791 1212.76,-30.1144"/>
</g>
<!-- Node16&#45;&gt;Node4 -->
<g id="edge26" class="edge">
<title>Node16&#45;&gt;Node4</title>
<path fill="none" stroke="#191970" d="M1072.2764,-112.4615C1030.2355,-98.5248 948.4923,-72.4685 877.5,-56 813.715,-41.2034 740.4541,-29.0536 686.1987,-20.964"/>
<polygon fill="#191970" stroke="#191970" points="686.6999,-17.5001 676.2957,-19.501 685.6768,-24.425 686.6999,-17.5001"/>
</g>
<!-- Node16&#45;&gt;Node17 -->
<g id="edge27" class="edge">
<title>Node16&#45;&gt;Node17</title>
<path fill="none" stroke="#191970" d="M1134.0217,-112.3733C1166.8683,-102.9404 1217.0595,-88.5265 1252.7578,-78.2747"/>
<polygon fill="#191970" stroke="#191970" points="1253.7703,-81.6255 1262.4157,-75.5011 1251.8381,-74.8974 1253.7703,-81.6255"/>
</g>
<!-- Node18&#45;&gt;Node2 -->
<g id="edge29" class="edge">
<title>Node18&#45;&gt;Node2</title>
<path fill="none" stroke="#191970" d="M1422.9805,-112.3328C1431.464,-98.3523 1443.7807,-72.3754 1430.5,-56 1407.4867,-27.624 1299.7321,-16.0783 1244.8311,-11.9755"/>
<polygon fill="#191970" stroke="#191970" points="1244.8185,-8.4659 1234.5964,-11.2514 1244.3244,-15.4485 1244.8185,-8.4659"/>
</g>
<!-- Node18&#45;&gt;Node4 -->
<g id="edge30" class="edge">
<title>Node18&#45;&gt;Node4</title>
<path fill="none" stroke="#191970" d="M1411.4342,-112.2077C1402.9893,-97.0485 1384.4653,-68.3605 1359.5,-56 1330.6038,-41.6933 900.4827,-22.1734 703.5953,-13.9296"/>
<polygon fill="#191970" stroke="#191970" points="703.6776,-10.4301 693.5403,-13.51 703.3856,-17.424 703.6776,-10.4301"/>
</g>
<!-- Node18&#45;&gt;Node6 -->
<g id="edge32" class="edge">
<title>Node18&#45;&gt;Node6</title>
<path fill="none" stroke="#191970" d="M1416.0339,-112.059C1414.7566,-97.2348 1410.0156,-69.6238 1392.5,-56 1362.0451,-32.3119 1116.8964,-18.1853 998.3069,-12.6749"/>
<polygon fill="#191970" stroke="#191970" points="998.4185,-9.1764 988.2688,-12.215 998.0981,-16.1691 998.4185,-9.1764"/>
</g>
<!-- Node18&#45;&gt;Node14 -->
<g id="edge31" class="edge">
<title>Node18&#45;&gt;Node14</title>
<path fill="none" stroke="#191970" d="M1357.9259,-112.4369C1297.9909,-102.6516 1204.9317,-87.4582 1141.7129,-77.1368"/>
<polygon fill="#191970" stroke="#191970" points="1142.2658,-73.6808 1131.8325,-75.5237 1141.1378,-80.5893 1142.2658,-73.6808"/>
</g>
<!-- Node18&#45;&gt;Node15 -->
<g id="edge33" class="edge">
<title>Node18&#45;&gt;Node15</title>
<path fill="none" stroke="#191970" d="M1495.6683,-114.1811C1545.7456,-107.413 1603.8822,-95.5528 1619.5,-76 1643.8577,-45.5052 1592.1035,-27.8686 1546.6371,-18.6239"/>
<polygon fill="#191970" stroke="#191970" points="1547.2443,-15.1766 1536.7629,-16.7227 1545.9207,-22.0503 1547.2443,-15.1766"/>
</g>
<!-- Node19 -->
<g id="node20" class="node">
<title>Node19</title>
<polygon fill="#ffffff" stroke="#bfbfbf" points="1482.5,-56.5 1482.5,-75.5 1610.5,-75.5 1610.5,-56.5 1482.5,-56.5"/>
<text text-anchor="middle" x="1546.5" y="-63.5" font-family="Helvetica,sans-Serif" font-size="10.00" fill="#000000">AMReX_PhysBCFunct.H</text>
</g>
<!-- Node18&#45;&gt;Node19 -->
<g id="edge34" class="edge">
<title>Node18&#45;&gt;Node19</title>
<path fill="none" stroke="#191970" d="M1438.8478,-112.3733C1459.9033,-103.3032 1491.6495,-89.6279 1515.2175,-79.4755"/>
<polygon fill="#191970" stroke="#191970" points="1516.6444,-82.6719 1524.4438,-75.5011 1513.875,-76.243 1516.6444,-82.6719"/>
</g>
</g>
</svg>
