<?xml version="1.0" encoding="UTF-8" standalone="no"?>
<!DOCTYPE svg PUBLIC "-//W3C//DTD SVG 1.1//EN"
 "http://www.w3.org/Graphics/SVG/1.1/DTD/svg11.dtd">
<!-- Generated by graphviz version 2.40.1 (20161225.0304)
 -->
<!-- Title: MOData.H Pages: 1 -->
<svg width="822pt" height="263pt"
 viewBox="0.00 0.00 821.50 263.00" xmlns="http://www.w3.org/2000/svg" xmlns:xlink="http://www.w3.org/1999/xlink">
<g id="graph0" class="graph" transform="scale(1 1) rotate(0) translate(4 259)">
<title>MOData.H</title>
<polygon fill="#ffffff" stroke="transparent" points="-4,4 -4,-259 817.5,-259 817.5,4 -4,4"/>
<!-- Node5 -->
<g id="node1" class="node">
<title>Node5</title>
<polygon fill="#bfbfbf" stroke="#000000" points="676.5,-235.5 676.5,-254.5 742.5,-254.5 742.5,-235.5 676.5,-235.5"/>
<text text-anchor="middle" x="709.5" y="-242.5" font-family="Helvetica,sans-Serif" font-size="10.00" fill="#000000">MOData.H</text>
</g>
<!-- Node6 -->
<g id="node2" class="node">
<title>Node6</title>
<g id="a_node2"><a xlink:href="_a_b_l_wall_function_8_h.html" target="_top" xlink:title="ABLWallFunction.H">
<polygon fill="#ffffff" stroke="#000000" points="534,-179.5 534,-198.5 641,-198.5 641,-179.5 534,-179.5"/>
<text text-anchor="middle" x="587.5" y="-186.5" font-family="Helvetica,sans-Serif" font-size="10.00" fill="#000000">ABLWallFunction.H</text>
</a>
</g>
</g>
<!-- Node5&#45;&gt;Node6 -->
<g id="edge1" class="edge">
<title>Node5&#45;&gt;Node6</title>
<path fill="none" stroke="#191970" d="M679.2416,-231.1109C657.1181,-220.9559 627.6906,-207.4482 608.1989,-198.5011"/>
<polygon fill="#191970" stroke="#191970" points="677.979,-234.3824 688.5275,-235.3733 680.8993,-228.0206 677.979,-234.3824"/>
</g>
<!-- Node18 -->
<g id="node14" class="node">
<title>Node18</title>
<g id="a_node14"><a xlink:href="_shear_stress_8_h.html" target="_top" xlink:title="ShearStress.H">
<polygon fill="#ffffff" stroke="#000000" points="707,-123.5 707,-142.5 792,-142.5 792,-123.5 707,-123.5"/>
<text text-anchor="middle" x="749.5" y="-130.5" font-family="Helvetica,sans-Serif" font-size="10.00" fill="#000000">ShearStress.H</text>
</a>
</g>
</g>
<!-- Node5&#45;&gt;Node18 -->
<g id="edge15" class="edge">
<title>Node5&#45;&gt;Node18</title>
<path fill="none" stroke="#191970" d="M714.2882,-225.5514C717.7532,-212.2757 722.8123,-194.3769 728.5,-179 733.2511,-166.1554 740.0099,-151.8836 744.5652,-142.6937"/>
<polygon fill="#191970" stroke="#191970" points="710.8414,-224.905 711.7738,-235.4587 717.6263,-226.627 710.8414,-224.905"/>
</g>
<!-- Node19 -->
<g id="node15" class="node">
<title>Node19</title>
<g id="a_node15"><a xlink:href="_m_o_data_8cpp.html" target="_top" xlink:title="MOData.cpp">
<polygon fill="#ffffff" stroke="#000000" points="737.5,-179.5 737.5,-198.5 813.5,-198.5 813.5,-179.5 737.5,-179.5"/>
<text text-anchor="middle" x="775.5" y="-186.5" font-family="Helvetica,sans-Serif" font-size="10.00" fill="#000000">MOData.cpp</text>
</a>
</g>
</g>
<!-- Node5&#45;&gt;Node19 -->
<g id="edge17" class="edge">
<title>Node5&#45;&gt;Node19</title>
<path fill="none" stroke="#191970" d="M728.7755,-228.645C740.2538,-218.9058 754.4277,-206.8795 764.1354,-198.6427"/>
<polygon fill="#191970" stroke="#191970" points="726.357,-226.1069 720.9963,-235.2455 730.8859,-231.4445 726.357,-226.1069"/>
</g>
<!-- Node7 -->
<g id="node3" class="node">
<title>Node7</title>
<g id="a_node3"><a xlink:href="_a_b_l_8_h.html" target="_top" xlink:title="ABL.H">
<polygon fill="#ffffff" stroke="#000000" points="392.5,-67.5 392.5,-86.5 438.5,-86.5 438.5,-67.5 392.5,-67.5"/>
<text text-anchor="middle" x="415.5" y="-74.5" font-family="Helvetica,sans-Serif" font-size="10.00" fill="#000000">ABL.H</text>
</a>
</g>
</g>
<!-- Node6&#45;&gt;Node7 -->
<g id="edge2" class="edge">
<title>Node6&#45;&gt;Node7</title>
<path fill="none" stroke="#191970" d="M523.4885,-177.9301C484.4897,-169.863 439.6958,-157.7803 426.5,-143 412.5744,-127.4024 412.7935,-101.1095 414.1508,-86.8728"/>
<polygon fill="#191970" stroke="#191970" points="523.2847,-181.459 533.778,-179.9957 524.6624,-174.5959 523.2847,-181.459"/>
</g>
<!-- Node14 -->
<g id="node10" class="node">
<title>Node14</title>
<g id="a_node10"><a xlink:href="_a_b_l_wall_function_8cpp.html" target="_top" xlink:title="ABLWallFunction.cpp">
<polygon fill="#ffffff" stroke="#000000" points="620.5,-6 620.5,-25 736.5,-25 736.5,-6 620.5,-6"/>
<text text-anchor="middle" x="678.5" y="-13" font-family="Helvetica,sans-Serif" font-size="10.00" fill="#000000">ABLWallFunction.cpp</text>
</a>
</g>
</g>
<!-- Node6&#45;&gt;Node14 -->
<g id="edge14" class="edge">
<title>Node6&#45;&gt;Node14</title>
<path fill="none" stroke="#191970" d="M621.8938,-174.8053C635.7357,-167.3586 650.5191,-156.8553 659.5,-143 684.0891,-105.0649 681.7033,-47.6121 679.6027,-25.0621"/>
<polygon fill="#191970" stroke="#191970" points="619.9258,-171.8759 612.5442,-179.476 623.0542,-178.138 619.9258,-171.8759"/>
</g>
<!-- Node15 -->
<g id="node11" class="node">
<title>Node15</title>
<g id="a_node11"><a xlink:href="_a_b_l_stats_8_h.html" target="_top" xlink:title="ABLStats.H">
<polygon fill="#ffffff" stroke="#000000" points="435,-123.5 435,-142.5 506,-142.5 506,-123.5 435,-123.5"/>
<text text-anchor="middle" x="470.5" y="-130.5" font-family="Helvetica,sans-Serif" font-size="10.00" fill="#000000">ABLStats.H</text>
</a>
</g>
</g>
<!-- Node6&#45;&gt;Node15 -->
<g id="edge10" class="edge">
<title>Node6&#45;&gt;Node15</title>
<path fill="none" stroke="#191970" d="M558.1958,-174.9741C537.012,-164.8348 508.9597,-151.408 490.3506,-142.5011"/>
<polygon fill="#191970" stroke="#191970" points="556.8559,-178.2129 567.387,-179.3733 559.878,-171.8989 556.8559,-178.2129"/>
</g>
<!-- Node17 -->
<g id="node13" class="node">
<title>Node17</title>
<g id="a_node13"><a xlink:href="_boussinesq_bubble_8cpp.html" target="_top" xlink:title="BoussinesqBubble.cpp">
<polygon fill="#ffffff" stroke="#000000" points="524.5,-123.5 524.5,-142.5 650.5,-142.5 650.5,-123.5 524.5,-123.5"/>
<text text-anchor="middle" x="587.5" y="-130.5" font-family="Helvetica,sans-Serif" font-size="10.00" fill="#000000">BoussinesqBubble.cpp</text>
</a>
</g>
</g>
<!-- Node6&#45;&gt;Node17 -->
<g id="edge13" class="edge">
<title>Node6&#45;&gt;Node17</title>
<path fill="none" stroke="#191970" d="M587.5,-169.1575C587.5,-160.155 587.5,-149.9199 587.5,-142.6427"/>
<polygon fill="#191970" stroke="#191970" points="584.0001,-169.2455 587.5,-179.2455 591.0001,-169.2456 584.0001,-169.2455"/>
</g>
<!-- Node8 -->
<g id="node4" class="node">
<title>Node8</title>
<g id="a_node4"><a xlink:href="incflo__set__velocity__bcs_8cpp.html" target="_top" xlink:title="incflo_set_velocity\l_bcs.cpp">
<polygon fill="#ffffff" stroke="#000000" points="0,-.5 0,-30.5 107,-30.5 107,-.5 0,-.5"/>
<text text-anchor="start" x="8" y="-18.5" font-family="Helvetica,sans-Serif" font-size="10.00" fill="#000000">incflo_set_velocity</text>
<text text-anchor="middle" x="53.5" y="-7.5" font-family="Helvetica,sans-Serif" font-size="10.00" fill="#000000">_bcs.cpp</text>
</a>
</g>
</g>
<!-- Node7&#45;&gt;Node8 -->
<g id="edge3" class="edge">
<title>Node7&#45;&gt;Node8</title>
<path fill="none" stroke="#191970" d="M382.4575,-72.9539C327.0071,-65.9362 211.8302,-50.3831 115.5,-31 112.7807,-30.4528 110.0013,-29.8647 107.1993,-29.2489"/>
<polygon fill="#191970" stroke="#191970" points="382.0554,-76.4308 392.4134,-74.2031 382.927,-69.4853 382.0554,-76.4308"/>
</g>
<!-- Node9 -->
<g id="node5" class="node">
<title>Node9</title>
<g id="a_node5"><a xlink:href="_a_b_l_forcing_8cpp.html" target="_top" xlink:title="ABLForcing.cpp">
<polygon fill="#ffffff" stroke="#000000" points="125,-6 125,-25 216,-25 216,-6 125,-6"/>
<text text-anchor="middle" x="170.5" y="-13" font-family="Helvetica,sans-Serif" font-size="10.00" fill="#000000">ABLForcing.cpp</text>
</a>
</g>
</g>
<!-- Node7&#45;&gt;Node9 -->
<g id="edge4" class="edge">
<title>Node7&#45;&gt;Node9</title>
<path fill="none" stroke="#191970" d="M382.4534,-69.4978C344.2867,-60.7274 279.6661,-45.5531 224.5,-31 217.5211,-29.1589 210.0648,-27.0871 202.9902,-25.0717"/>
<polygon fill="#191970" stroke="#191970" points="381.9581,-72.9749 392.4871,-71.7958 383.5209,-66.1515 381.9581,-72.9749"/>
</g>
<!-- Node10 -->
<g id="node6" class="node">
<title>Node10</title>
<g id="a_node6"><a xlink:href="_a_b_l_mean_boussinesq_8cpp.html" target="_top" xlink:title="ABLMeanBoussinesq.cpp">
<polygon fill="#ffffff" stroke="#000000" points="234,-6 234,-25 371,-25 371,-6 234,-6"/>
<text text-anchor="middle" x="302.5" y="-13" font-family="Helvetica,sans-Serif" font-size="10.00" fill="#000000">ABLMeanBoussinesq.cpp</text>
</a>
</g>
</g>
<!-- Node7&#45;&gt;Node10 -->
<g id="edge5" class="edge">
<title>Node7&#45;&gt;Node10</title>
<path fill="none" stroke="#191970" d="M388.9881,-62.571C367.7225,-50.9972 338.4764,-35.0801 320.0323,-25.0419"/>
<polygon fill="#191970" stroke="#191970" points="387.3872,-65.6844 397.8438,-67.3906 390.7335,-59.536 387.3872,-65.6844"/>
</g>
<!-- Node11 -->
<g id="node7" class="node">
<title>Node11</title>
<g id="a_node7"><a xlink:href="incflo_8cpp.html" target="_top" xlink:title="incflo.cpp">
<polygon fill="#ffffff" stroke="#000000" points="389,-6 389,-25 452,-25 452,-6 389,-6"/>
<text text-anchor="middle" x="420.5" y="-13" font-family="Helvetica,sans-Serif" font-size="10.00" fill="#000000">incflo.cpp</text>
</a>
</g>
</g>
<!-- Node7&#45;&gt;Node11 -->
<g id="edge6" class="edge">
<title>Node7&#45;&gt;Node11</title>
<path fill="none" stroke="#191970" d="M417.106,-57.2462C417.9755,-46.5519 419.0111,-33.814 419.7077,-25.2449"/>
<polygon fill="#191970" stroke="#191970" points="413.6032,-57.1399 416.2813,-67.3906 420.5802,-57.7072 413.6032,-57.1399"/>
</g>
<!-- Node12 -->
<g id="node8" class="node">
<title>Node12</title>
<g id="a_node8"><a xlink:href="init_8cpp.html" target="_top" xlink:title="init.cpp">
<polygon fill="#ffffff" stroke="#000000" points="470,-6 470,-25 523,-25 523,-6 470,-6"/>
<text text-anchor="middle" x="496.5" y="-13" font-family="Helvetica,sans-Serif" font-size="10.00" fill="#000000">init.cpp</text>
</a>
</g>
</g>
<!-- Node7&#45;&gt;Node12 -->
<g id="edge7" class="edge">
<title>Node7&#45;&gt;Node12</title>
<path fill="none" stroke="#191970" d="M436.3768,-61.1491C451.4271,-49.722 471.2452,-34.6749 483.9326,-25.0419"/>
<polygon fill="#191970" stroke="#191970" points="434.0042,-58.5559 428.1563,-67.3906 438.2372,-64.1311 434.0042,-58.5559"/>
</g>
<!-- Node13 -->
<g id="node9" class="node">
<title>Node13</title>
<g id="a_node9"><a xlink:href="_a_b_l_8cpp.html" target="_top" xlink:title="ABL.cpp">
<polygon fill="#ffffff" stroke="#000000" points="541.5,-6 541.5,-25 597.5,-25 597.5,-6 541.5,-6"/>
<text text-anchor="middle" x="569.5" y="-13" font-family="Helvetica,sans-Serif" font-size="10.00" fill="#000000">ABL.cpp</text>
</a>
</g>
</g>
<!-- Node7&#45;&gt;Node13 -->
<g id="edge8" class="edge">
<title>Node7&#45;&gt;Node13</title>
<path fill="none" stroke="#191970" d="M448.3582,-64.305C471.8506,-55.174 504.1878,-42.4943 532.5,-31 537.1461,-29.1137 542.1056,-27.0624 546.8346,-25.0881"/>
<polygon fill="#191970" stroke="#191970" points="446.9256,-61.1066 438.869,-67.9872 449.4579,-67.6325 446.9256,-61.1066"/>
</g>
<!-- Node7&#45;&gt;Node14 -->
<g id="edge9" class="edge">
<title>Node7&#45;&gt;Node14</title>
<path fill="none" stroke="#191970" d="M448.5761,-66.9652C485.9718,-57.6927 578.9435,-37.2531 634.7489,-25.0471"/>
<polygon fill="#191970" stroke="#191970" points="447.3162,-63.6754 438.505,-69.5587 449.0619,-70.4542 447.3162,-63.6754"/>
</g>
<!-- Node15&#45;&gt;Node7 -->
<g id="edge11" class="edge">
<title>Node15&#45;&gt;Node7</title>
<path fill="none" stroke="#191970" d="M453.8774,-116.0751C444.4145,-106.4402 432.9031,-94.7196 424.9705,-86.6427"/>
<polygon fill="#191970" stroke="#191970" points="451.4155,-118.5635 460.9197,-123.2455 456.4097,-113.6585 451.4155,-118.5635"/>
</g>
<!-- Node16 -->
<g id="node12" class="node">
<title>Node16</title>
<g id="a_node12"><a xlink:href="_a_b_l_stats_8cpp.html" target="_top" xlink:title="ABLStats.cpp">
<polygon fill="#ffffff" stroke="#000000" points="456.5,-67.5 456.5,-86.5 536.5,-86.5 536.5,-67.5 456.5,-67.5"/>
<text text-anchor="middle" x="496.5" y="-74.5" font-family="Helvetica,sans-Serif" font-size="10.00" fill="#000000">ABLStats.cpp</text>
</a>
</g>
</g>
<!-- Node15&#45;&gt;Node16 -->
<g id="edge12" class="edge">
<title>Node15&#45;&gt;Node16</title>
<path fill="none" stroke="#191970" d="M479.3011,-114.0437C483.5775,-104.8331 488.533,-94.1598 492.023,-86.6427"/>
<polygon fill="#191970" stroke="#191970" points="476.0655,-112.7015 475.0289,-123.2455 482.4146,-115.6494 476.0655,-112.7015"/>
</g>
<!-- Node18&#45;&gt;Node14 -->
<g id="edge16" class="edge">
<title>Node18&#45;&gt;Node14</title>
<path fill="none" stroke="#191970" d="M738.4788,-114.7608C723.2377,-89.5378 696.2645,-44.899 684.3905,-25.2484"/>
<polygon fill="#191970" stroke="#191970" points="735.5224,-116.6358 743.6898,-123.3845 741.5136,-113.0155 735.5224,-116.6358"/>
</g>
</g>
</svg>
