<?xml version="1.0" encoding="UTF-8" standalone="no"?>
<!DOCTYPE svg PUBLIC "-//W3C//DTD SVG 1.1//EN"
 "http://www.w3.org/Graphics/SVG/1.1/DTD/svg11.dtd">
<!-- Generated by graphviz version 2.40.1 (20161225.0304)
 -->
<!-- Title: PDEOps.H Pages: 1 -->
<svg width="1790pt" height="364pt"
 viewBox="0.00 0.00 1790.46 364.00" xmlns="http://www.w3.org/2000/svg" xmlns:xlink="http://www.w3.org/1999/xlink">
<g id="graph0" class="graph" transform="scale(1 1) rotate(0) translate(4 360)">
<title>PDEOps.H</title>
<polygon fill="#ffffff" stroke="transparent" points="-4,4 -4,-360 1786.4633,-360 1786.4633,4 -4,4"/>
<!-- Node47 -->
<g id="node1" class="node">
<title>Node47</title>
<polygon fill="#bfbfbf" stroke="#000000" points="870.9633,-336.5 870.9633,-355.5 935.9633,-355.5 935.9633,-336.5 870.9633,-336.5"/>
<text text-anchor="middle" x="903.4633" y="-343.5" font-family="Helvetica,sans-Serif" font-size="10.00" fill="#000000">PDEOps.H</text>
</g>
<!-- Node48 -->
<g id="node2" class="node">
<title>Node48</title>
<g id="a_node2"><a xlink:href="_adv_op___godunov_8_h.html" target="_top" xlink:title="AdvOp_Godunov.H">
<polygon fill="#ffffff" stroke="#000000" points="301.9633,-112.5 301.9633,-131.5 408.9633,-131.5 408.9633,-112.5 301.9633,-112.5"/>
<text text-anchor="middle" x="355.4633" y="-119.5" font-family="Helvetica,sans-Serif" font-size="10.00" fill="#000000">AdvOp_Godunov.H</text>
</a>
</g>
</g>
<!-- Node47&#45;&gt;Node48 -->
<g id="edge1" class="edge">
<title>Node47&#45;&gt;Node48</title>
<path fill="none" stroke="#191970" d="M860.6063,-337.204C824.5308,-329.2323 771.8656,-316.2569 727.4633,-300 585.2687,-247.9385 424.1162,-160.4048 372.3871,-131.5463"/>
<polygon fill="#191970" stroke="#191970" points="860.2653,-340.7116 870.7807,-339.4167 861.753,-333.8715 860.2653,-340.7116"/>
</g>
<!-- Node50 -->
<g id="node4" class="node">
<title>Node50</title>
<g id="a_node4"><a xlink:href="icns__ops_8_h.html" target="_top" xlink:title="icns_ops.H">
<polygon fill="#ffffff" stroke="#000000" points="1334.9633,-56.5 1334.9633,-75.5 1403.9633,-75.5 1403.9633,-56.5 1334.9633,-56.5"/>
<text text-anchor="middle" x="1369.4633" y="-63.5" font-family="Helvetica,sans-Serif" font-size="10.00" fill="#000000">icns_ops.H</text>
</a>
</g>
</g>
<!-- Node47&#45;&gt;Node50 -->
<g id="edge81" class="edge">
<title>Node47&#45;&gt;Node50</title>
<path fill="none" stroke="#191970" d="M946.53,-345.5947C1067.2473,-344.0096 1406.8815,-336.3518 1511.4633,-300 1553.4965,-285.3896 1573.5744,-283.2925 1594.4633,-244 1619.3053,-197.2717 1447.874,-105.4724 1388.8969,-75.6242"/>
<polygon fill="#191970" stroke="#191970" points="946.1665,-342.0988 936.2105,-345.7222 946.253,-349.0983 946.1665,-342.0988"/>
</g>
<!-- Node59 -->
<g id="node13" class="node">
<title>Node59</title>
<g id="a_node13"><a xlink:href="_adv_op___m_o_l_8_h.html" target="_top" xlink:title="AdvOp_MOL.H">
<polygon fill="#ffffff" stroke="#000000" points="427.4633,-112.5 427.4633,-131.5 513.4633,-131.5 513.4633,-112.5 427.4633,-112.5"/>
<text text-anchor="middle" x="470.4633" y="-119.5" font-family="Helvetica,sans-Serif" font-size="10.00" fill="#000000">AdvOp_MOL.H</text>
</a>
</g>
</g>
<!-- Node47&#45;&gt;Node59 -->
<g id="edge13" class="edge">
<title>Node47&#45;&gt;Node59</title>
<path fill="none" stroke="#191970" d="M860.9488,-333.8716C834.1592,-325.6311 799.148,-313.7516 769.4633,-300 653.8023,-246.4191 525.6796,-160.2411 484.2103,-131.5997"/>
<polygon fill="#191970" stroke="#191970" points="860.2002,-337.3017 870.7853,-336.848 862.2276,-330.6017 860.2002,-337.3017"/>
</g>
<!-- Node60 -->
<g id="node14" class="node">
<title>Node60</title>
<g id="a_node14"><a xlink:href="_b_c_ops_8_h.html" target="_top" xlink:title="BCOps.H">
<polygon fill="#ffffff" stroke="#000000" points="531.9633,-112.5 531.9633,-131.5 590.9633,-131.5 590.9633,-112.5 531.9633,-112.5"/>
<text text-anchor="middle" x="561.4633" y="-119.5" font-family="Helvetica,sans-Serif" font-size="10.00" fill="#000000">BCOps.H</text>
</a>
</g>
</g>
<!-- Node47&#45;&gt;Node60 -->
<g id="edge22" class="edge">
<title>Node47&#45;&gt;Node60</title>
<path fill="none" stroke="#191970" d="M873.1865,-332.0488C820.7678,-307.1544 710.9146,-251.6776 629.4633,-188 606.3926,-169.9636 582.5293,-145.1007 570.1294,-131.6243"/>
<polygon fill="#191970" stroke="#191970" points="871.748,-335.24 882.286,-336.3363 874.7317,-328.9077 871.748,-335.24"/>
</g>
<!-- Node63 -->
<g id="node17" class="node">
<title>Node63</title>
<g id="a_node17"><a xlink:href="_comp_r_h_s_ops_8_h.html" target="_top" xlink:title="CompRHSOps.H">
<polygon fill="#ffffff" stroke="#000000" points="817.9633,-280.5 817.9633,-299.5 912.9633,-299.5 912.9633,-280.5 817.9633,-280.5"/>
<text text-anchor="middle" x="865.4633" y="-287.5" font-family="Helvetica,sans-Serif" font-size="10.00" fill="#000000">CompRHSOps.H</text>
</a>
</g>
</g>
<!-- Node47&#45;&gt;Node63 -->
<g id="edge32" class="edge">
<title>Node47&#45;&gt;Node63</title>
<path fill="none" stroke="#191970" d="M891.1954,-327.9209C884.8145,-318.5176 877.2703,-307.3997 872.0066,-299.6427"/>
<polygon fill="#191970" stroke="#191970" points="888.333,-329.936 896.8442,-336.2455 894.1253,-326.0055 888.333,-329.936"/>
</g>
<!-- Node64 -->
<g id="node18" class="node">
<title>Node64</title>
<g id="a_node18"><a xlink:href="_p_d_e_8_h.html" target="_top" xlink:title="PDE.H">
<polygon fill="#ffffff" stroke="#000000" points="879.9633,-224.5 879.9633,-243.5 926.9633,-243.5 926.9633,-224.5 879.9633,-224.5"/>
<text text-anchor="middle" x="903.4633" y="-231.5" font-family="Helvetica,sans-Serif" font-size="10.00" fill="#000000">PDE.H</text>
</a>
</g>
</g>
<!-- Node47&#45;&gt;Node64 -->
<g id="edge75" class="edge">
<title>Node47&#45;&gt;Node64</title>
<path fill="none" stroke="#191970" d="M913.0579,-327.4785C916.7834,-319.2885 920.5985,-309.3997 922.4633,-300 926.5007,-279.6494 916.2723,-256.4726 909.3054,-243.7128"/>
<polygon fill="#191970" stroke="#191970" points="909.9076,-325.9536 908.6951,-336.4788 916.2066,-329.007 909.9076,-325.9536"/>
</g>
<!-- Node68 -->
<g id="node22" class="node">
<title>Node68</title>
<g id="a_node22"><a xlink:href="icns__diffusion_8_h.html" target="_top" xlink:title="icns_diffusion.H">
<polygon fill="#ffffff" stroke="#000000" points="1688.4633,-56.5 1688.4633,-75.5 1782.4633,-75.5 1782.4633,-56.5 1688.4633,-56.5"/>
<text text-anchor="middle" x="1735.4633" y="-63.5" font-family="Helvetica,sans-Serif" font-size="10.00" fill="#000000">icns_diffusion.H</text>
</a>
</g>
</g>
<!-- Node47&#45;&gt;Node68 -->
<g id="edge82" class="edge">
<title>Node47&#45;&gt;Node68</title>
<path fill="none" stroke="#191970" d="M946.3696,-344.6893C1071.5763,-340.5896 1434.9152,-326.6642 1550.4633,-300 1627.0213,-282.3333 1714.4633,-312.5699 1714.4633,-234 1714.4633,-234 1714.4633,-234 1714.4633,-178 1714.4633,-139.6204 1726.5232,-95.0906 1732.3647,-75.7725"/>
<polygon fill="#191970" stroke="#191970" points="945.9226,-341.2018 936.0408,-345.0228 946.1486,-348.1982 945.9226,-341.2018"/>
</g>
<!-- Node84 -->
<g id="node38" class="node">
<title>Node84</title>
<g id="a_node38"><a xlink:href="_diffusion_ops_8_h.html" target="_top" xlink:title="DiffusionOps.H">
<polygon fill="#ffffff" stroke="#000000" points="1412.9633,-280.5 1412.9633,-299.5 1501.9633,-299.5 1501.9633,-280.5 1412.9633,-280.5"/>
<text text-anchor="middle" x="1457.4633" y="-287.5" font-family="Helvetica,sans-Serif" font-size="10.00" fill="#000000">DiffusionOps.H</text>
</a>
</g>
</g>
<!-- Node47&#45;&gt;Node84 -->
<g id="edge76" class="edge">
<title>Node47&#45;&gt;Node84</title>
<path fill="none" stroke="#191970" d="M946.0341,-341.6968C1048.4494,-331.3444 1307.8471,-305.1237 1412.5809,-294.5369"/>
<polygon fill="#191970" stroke="#191970" points="945.6475,-338.218 936.0503,-342.706 946.3516,-345.1825 945.6475,-338.218"/>
</g>
<!-- Node49 -->
<g id="node3" class="node">
<title>Node49</title>
<g id="a_node3"><a xlink:href="density_8cpp.html" target="_top" xlink:title="density.cpp">
<polygon fill="#ffffff" stroke="#000000" points="120.9633,-56.5 120.9633,-75.5 191.9633,-75.5 191.9633,-56.5 120.9633,-56.5"/>
<text text-anchor="middle" x="156.4633" y="-63.5" font-family="Helvetica,sans-Serif" font-size="10.00" fill="#000000">density.cpp</text>
</a>
</g>
</g>
<!-- Node48&#45;&gt;Node49 -->
<g id="edge2" class="edge">
<title>Node48&#45;&gt;Node49</title>
<path fill="none" stroke="#191970" d="M311.3572,-109.5882C274.7957,-99.2996 223.5885,-84.8895 190.2262,-75.5011"/>
<polygon fill="#191970" stroke="#191970" points="310.6798,-113.0335 321.254,-112.3733 312.576,-106.2952 310.6798,-113.0335"/>
</g>
<!-- Node48&#45;&gt;Node50 -->
<g id="edge3" class="edge">
<title>Node48&#45;&gt;Node50</title>
<path fill="none" stroke="#191970" d="M419.194,-112.0639C821.7078,-73.2414 928.8416,-128.4882 1325.4633,-76 1328.4144,-75.6095 1331.4589,-75.1145 1334.504,-74.5548"/>
<polygon fill="#191970" stroke="#191970" points="418.6359,-108.6017 409.0241,-113.0587 419.3174,-115.5685 418.6359,-108.6017"/>
</g>
<!-- Node52 -->
<g id="node6" class="node">
<title>Node52</title>
<g id="a_node6"><a xlink:href="icns__advection_8_h.html" target="_top" xlink:title="icns_advection.H">
<polygon fill="#ffffff" stroke="#000000" points="420.4633,-56.5 420.4633,-75.5 520.4633,-75.5 520.4633,-56.5 420.4633,-56.5"/>
<text text-anchor="middle" x="470.4633" y="-63.5" font-family="Helvetica,sans-Serif" font-size="10.00" fill="#000000">icns_advection.H</text>
</a>
</g>
</g>
<!-- Node48&#45;&gt;Node52 -->
<g id="edge5" class="edge">
<title>Node48&#45;&gt;Node52</title>
<path fill="none" stroke="#191970" d="M384.2666,-107.9741C405.0883,-97.8348 432.6611,-84.408 450.9521,-75.5011"/>
<polygon fill="#191970" stroke="#191970" points="382.6909,-104.8484 375.2325,-112.3733 385.7556,-111.1419 382.6909,-104.8484"/>
</g>
<!-- Node54 -->
<g id="node8" class="node">
<title>Node54</title>
<g id="a_node8"><a xlink:href="levelset_8cpp.html" target="_top" xlink:title="levelset.cpp">
<polygon fill="#ffffff" stroke="#000000" points="210.4633,-56.5 210.4633,-75.5 286.4633,-75.5 286.4633,-56.5 210.4633,-56.5"/>
<text text-anchor="middle" x="248.4633" y="-63.5" font-family="Helvetica,sans-Serif" font-size="10.00" fill="#000000">levelset.cpp</text>
</a>
</g>
</g>
<!-- Node48&#45;&gt;Node54 -->
<g id="edge8" class="edge">
<title>Node48&#45;&gt;Node54</title>
<path fill="none" stroke="#191970" d="M327.9435,-107.5971C308.7616,-97.558 283.6955,-84.4393 266.8877,-75.6427"/>
<polygon fill="#191970" stroke="#191970" points="326.3424,-110.7095 336.8254,-112.2455 329.5884,-104.5075 326.3424,-110.7095"/>
</g>
<!-- Node55 -->
<g id="node9" class="node">
<title>Node55</title>
<g id="a_node9"><a xlink:href="_s_d_r_8cpp.html" target="_top" xlink:title="SDR.cpp">
<polygon fill="#ffffff" stroke="#000000" points="790.9633,-56.5 790.9633,-75.5 847.9633,-75.5 847.9633,-56.5 790.9633,-56.5"/>
<text text-anchor="middle" x="819.4633" y="-63.5" font-family="Helvetica,sans-Serif" font-size="10.00" fill="#000000">SDR.cpp</text>
</a>
</g>
</g>
<!-- Node48&#45;&gt;Node55 -->
<g id="edge9" class="edge">
<title>Node48&#45;&gt;Node55</title>
<path fill="none" stroke="#191970" d="M419.3619,-111.9666C581.0573,-91.8166 625.1749,-104.131 781.4633,-76 784.5517,-75.4441 787.7572,-74.7651 790.9379,-74.0252"/>
<polygon fill="#191970" stroke="#191970" points="418.5285,-108.5442 409.0488,-113.2756 419.41,-115.4885 418.5285,-108.5442"/>
</g>
<!-- Node56 -->
<g id="node10" class="node">
<title>Node56</title>
<g id="a_node10"><a xlink:href="temperature_8cpp.html" target="_top" xlink:title="temperature.cpp">
<polygon fill="#ffffff" stroke="#000000" points="304.4633,-56.5 304.4633,-75.5 402.4633,-75.5 402.4633,-56.5 304.4633,-56.5"/>
<text text-anchor="middle" x="353.4633" y="-63.5" font-family="Helvetica,sans-Serif" font-size="10.00" fill="#000000">temperature.cpp</text>
</a>
</g>
</g>
<!-- Node48&#45;&gt;Node56 -->
<g id="edge10" class="edge">
<title>Node48&#45;&gt;Node56</title>
<path fill="none" stroke="#191970" d="M354.7547,-102.1575C354.4332,-93.155 354.0676,-82.9199 353.8077,-75.6427"/>
<polygon fill="#191970" stroke="#191970" points="351.2602,-102.3769 355.115,-112.2455 358.2557,-102.127 351.2602,-102.3769"/>
</g>
<!-- Node57 -->
<g id="node11" class="node">
<title>Node57</title>
<g id="a_node11"><a xlink:href="_t_k_e_8cpp.html" target="_top" xlink:title="TKE.cpp">
<polygon fill="#ffffff" stroke="#000000" points="716.4633,-56.5 716.4633,-75.5 772.4633,-75.5 772.4633,-56.5 716.4633,-56.5"/>
<text text-anchor="middle" x="744.4633" y="-63.5" font-family="Helvetica,sans-Serif" font-size="10.00" fill="#000000">TKE.cpp</text>
</a>
</g>
</g>
<!-- Node48&#45;&gt;Node57 -->
<g id="edge11" class="edge">
<title>Node48&#45;&gt;Node57</title>
<path fill="none" stroke="#191970" d="M419.3421,-111.9313C548.3999,-94.1913 583.6778,-100.3134 707.4633,-76 710.3362,-75.4357 713.3146,-74.77 716.2773,-74.0544"/>
<polygon fill="#191970" stroke="#191970" points="418.4809,-108.5175 409.0612,-113.3673 419.4493,-115.4502 418.4809,-108.5175"/>
</g>
<!-- Node58 -->
<g id="node12" class="node">
<title>Node58</title>
<g id="a_node12"><a xlink:href="vof_8cpp.html" target="_top" xlink:title="vof.cpp">
<polygon fill="#ffffff" stroke="#000000" points="646.4633,-56.5 646.4633,-75.5 698.4633,-75.5 698.4633,-56.5 646.4633,-56.5"/>
<text text-anchor="middle" x="672.4633" y="-63.5" font-family="Helvetica,sans-Serif" font-size="10.00" fill="#000000">vof.cpp</text>
</a>
</g>
</g>
<!-- Node48&#45;&gt;Node58 -->
<g id="edge12" class="edge">
<title>Node48&#45;&gt;Node58</title>
<path fill="none" stroke="#191970" d="M419.0929,-111.8131C498.9619,-98.9978 626.8728,-78.3682 637.4633,-76 640.3003,-75.3656 643.2477,-74.6363 646.1744,-73.8667"/>
<polygon fill="#191970" stroke="#191970" points="418.4409,-108.3728 409.1215,-113.4125 419.5496,-115.2845 418.4409,-108.3728"/>
</g>
<!-- Node51 -->
<g id="node5" class="node">
<title>Node51</title>
<g id="a_node5"><a xlink:href="icns_8cpp.html" target="_top" xlink:title="icns.cpp">
<polygon fill="#ffffff" stroke="#000000" points="1431.4633,-.5 1431.4633,-19.5 1487.4633,-19.5 1487.4633,-.5 1431.4633,-.5"/>
<text text-anchor="middle" x="1459.4633" y="-7.5" font-family="Helvetica,sans-Serif" font-size="10.00" fill="#000000">icns.cpp</text>
</a>
</g>
</g>
<!-- Node50&#45;&gt;Node51 -->
<g id="edge4" class="edge">
<title>Node50&#45;&gt;Node51</title>
<path fill="none" stroke="#191970" d="M1393.9418,-50.769C1409.89,-40.8456 1430.2143,-28.1994 1443.9662,-19.6427"/>
<polygon fill="#191970" stroke="#191970" points="1391.7816,-47.9908 1385.1401,-56.2455 1395.4798,-53.9342 1391.7816,-47.9908"/>
</g>
<!-- Node52&#45;&gt;Node51 -->
<g id="edge6" class="edge">
<title>Node52&#45;&gt;Node51</title>
<path fill="none" stroke="#191970" d="M530.7452,-55.986C891.835,-17.2301 1318.747,-11.1434 1431.2142,-10.1784"/>
<polygon fill="#191970" stroke="#191970" points="530.1835,-52.5263 520.6188,-57.0834 530.9378,-59.4856 530.1835,-52.5263"/>
</g>
<!-- Node53 -->
<g id="node7" class="node">
<title>Node53</title>
<g id="a_node7"><a xlink:href="icns__advection_8cpp.html" target="_top" xlink:title="icns_advection.cpp">
<polygon fill="#ffffff" stroke="#000000" points="415.4633,-.5 415.4633,-19.5 525.4633,-19.5 525.4633,-.5 415.4633,-.5"/>
<text text-anchor="middle" x="470.4633" y="-7.5" font-family="Helvetica,sans-Serif" font-size="10.00" fill="#000000">icns_advection.cpp</text>
</a>
</g>
</g>
<!-- Node52&#45;&gt;Node53 -->
<g id="edge7" class="edge">
<title>Node52&#45;&gt;Node53</title>
<path fill="none" stroke="#191970" d="M470.4633,-46.1575C470.4633,-37.155 470.4633,-26.9199 470.4633,-19.6427"/>
<polygon fill="#191970" stroke="#191970" points="466.9634,-46.2455 470.4633,-56.2455 473.9634,-46.2456 466.9634,-46.2455"/>
</g>
<!-- Node59&#45;&gt;Node49 -->
<g id="edge14" class="edge">
<title>Node59&#45;&gt;Node49</title>
<path fill="none" stroke="#191970" d="M417.7662,-112.0538C417.6651,-112.0359 417.5642,-112.0179 417.4633,-112 321.6395,-94.9767 297.0008,-94.5629 201.4633,-76 198.478,-75.4199 195.3874,-74.7918 192.2886,-74.1425"/>
<polygon fill="#191970" stroke="#191970" points="416.9157,-115.4567 427.3788,-113.7913 418.1608,-108.5684 416.9157,-115.4567"/>
</g>
<!-- Node59&#45;&gt;Node50 -->
<g id="edge15" class="edge">
<title>Node59&#45;&gt;Node50</title>
<path fill="none" stroke="#191970" d="M523.1578,-112.0357C523.2598,-112.0237 523.3616,-112.0118 523.4633,-112 877.8823,-70.8197 971.8665,-123.7278 1325.4633,-76 1328.4134,-75.6018 1331.4571,-75.1015 1334.5017,-74.5381"/>
<polygon fill="#191970" stroke="#191970" points="522.919,-108.5358 513.4839,-113.3553 523.8652,-115.4715 522.919,-108.5358"/>
</g>
<!-- Node59&#45;&gt;Node52 -->
<g id="edge16" class="edge">
<title>Node59&#45;&gt;Node52</title>
<path fill="none" stroke="#191970" d="M470.4633,-102.1575C470.4633,-93.155 470.4633,-82.9199 470.4633,-75.6427"/>
<polygon fill="#191970" stroke="#191970" points="466.9634,-102.2455 470.4633,-112.2455 473.9634,-102.2456 466.9634,-102.2455"/>
</g>
<!-- Node59&#45;&gt;Node54 -->
<g id="edge17" class="edge">
<title>Node59&#45;&gt;Node54</title>
<path fill="none" stroke="#191970" d="M422.8205,-109.982C381.973,-99.6781 323.9158,-85.0331 286.2179,-75.5237"/>
<polygon fill="#191970" stroke="#191970" points="422.0001,-113.3846 432.5524,-112.4369 423.7122,-106.5972 422.0001,-113.3846"/>
</g>
<!-- Node59&#45;&gt;Node55 -->
<g id="edge18" class="edge">
<title>Node59&#45;&gt;Node55</title>
<path fill="none" stroke="#191970" d="M523.1598,-112.0498C523.2611,-112.0332 523.3623,-112.0166 523.4633,-112 637.7144,-93.2616 667.9474,-98.7724 781.4633,-76 784.5401,-75.3828 787.738,-74.6645 790.9143,-73.9014"/>
<polygon fill="#191970" stroke="#191970" points="522.7988,-108.5607 513.5315,-113.6956 523.9783,-115.4606 522.7988,-108.5607"/>
</g>
<!-- Node59&#45;&gt;Node56 -->
<g id="edge19" class="edge">
<title>Node59&#45;&gt;Node56</title>
<path fill="none" stroke="#191970" d="M441.1591,-107.9741C419.9753,-97.8348 391.923,-84.408 373.3139,-75.5011"/>
<polygon fill="#191970" stroke="#191970" points="439.8192,-111.2129 450.3503,-112.3733 442.8413,-104.8989 439.8192,-111.2129"/>
</g>
<!-- Node59&#45;&gt;Node57 -->
<g id="edge20" class="edge">
<title>Node59&#45;&gt;Node57</title>
<path fill="none" stroke="#191970" d="M523.4842,-111.9194C587.785,-99.6612 689.8046,-80.0944 707.4633,-76 710.3155,-75.3387 713.2802,-74.6093 716.2346,-73.8548"/>
<polygon fill="#191970" stroke="#191970" points="522.675,-108.5105 513.5068,-113.8205 523.9852,-115.3868 522.675,-108.5105"/>
</g>
<!-- Node59&#45;&gt;Node58 -->
<g id="edge21" class="edge">
<title>Node59&#45;&gt;Node58</title>
<path fill="none" stroke="#191970" d="M515.3383,-109.7636C548.9773,-100.5609 596.135,-87.5957 637.4633,-76 640.2622,-75.2147 643.1854,-74.3887 646.0977,-73.5621"/>
<polygon fill="#191970" stroke="#191970" points="514.0771,-106.4799 505.3541,-112.4932 515.9231,-113.2321 514.0771,-106.4799"/>
</g>
<!-- Node60&#45;&gt;Node49 -->
<g id="edge23" class="edge">
<title>Node60&#45;&gt;Node49</title>
<path fill="none" stroke="#191970" d="M521.7744,-112.1131C379.4888,-86.6963 339.8898,-99.075 201.4633,-76 198.4636,-75.5 195.3628,-74.928 192.2572,-74.3166"/>
<polygon fill="#191970" stroke="#191970" points="521.2826,-115.581 531.7474,-113.9259 522.5345,-108.6938 521.2826,-115.581"/>
</g>
<!-- Node60&#45;&gt;Node54 -->
<g id="edge26" class="edge">
<title>Node60&#45;&gt;Node54</title>
<path fill="none" stroke="#191970" d="M521.7119,-112.0073C420.704,-91.4791 392.7602,-94.0531 295.4633,-76 292.5925,-75.4673 289.6281,-74.8934 286.6495,-74.2994"/>
<polygon fill="#191970" stroke="#191970" points="521.2194,-115.4792 531.7197,-114.0674 522.6309,-108.623 521.2194,-115.4792"/>
</g>
<!-- Node60&#45;&gt;Node55 -->
<g id="edge27" class="edge">
<title>Node60&#45;&gt;Node55</title>
<path fill="none" stroke="#191970" d="M601.1404,-114.3396C645.2976,-105.6666 718.7048,-90.8086 781.4633,-76 784.5175,-75.2793 787.701,-74.4948 790.8688,-73.6926"/>
<polygon fill="#191970" stroke="#191970" points="600.2467,-110.948 591.1048,-116.303 601.5908,-117.8178 600.2467,-110.948"/>
</g>
<!-- Node60&#45;&gt;Node56 -->
<g id="edge28" class="edge">
<title>Node60&#45;&gt;Node56</title>
<path fill="none" stroke="#191970" d="M521.853,-111.3357C483.4294,-100.9909 425.6726,-85.4409 388.7771,-75.5076"/>
<polygon fill="#191970" stroke="#191970" points="521.0959,-114.7564 531.662,-113.9766 522.9158,-107.9971 521.0959,-114.7564"/>
</g>
<!-- Node60&#45;&gt;Node57 -->
<g id="edge29" class="edge">
<title>Node60&#45;&gt;Node57</title>
<path fill="none" stroke="#191970" d="M601.0805,-109.8767C635.7762,-99.2594 685.3374,-84.0932 716.1713,-74.6577"/>
<polygon fill="#191970" stroke="#191970" points="599.8108,-106.605 591.2727,-112.878 601.8592,-113.2986 599.8108,-106.605"/>
</g>
<!-- Node60&#45;&gt;Node58 -->
<g id="edge30" class="edge">
<title>Node60&#45;&gt;Node58</title>
<path fill="none" stroke="#191970" d="M589.5367,-107.8368C609.6018,-97.7139 636.0555,-84.3679 653.6307,-75.5011"/>
<polygon fill="#191970" stroke="#191970" points="587.8965,-104.7441 580.5449,-112.3733 591.0496,-110.9938 587.8965,-104.7441"/>
</g>
<!-- Node61 -->
<g id="node15" class="node">
<title>Node61</title>
<g id="a_node15"><a xlink:href="icns__bcop_8_h.html" target="_top" xlink:title="icns_bcop.H">
<polygon fill="#ffffff" stroke="#000000" points="1421.9633,-56.5 1421.9633,-75.5 1496.9633,-75.5 1496.9633,-56.5 1421.9633,-56.5"/>
<text text-anchor="middle" x="1459.4633" y="-63.5" font-family="Helvetica,sans-Serif" font-size="10.00" fill="#000000">icns_bcop.H</text>
</a>
</g>
</g>
<!-- Node60&#45;&gt;Node61 -->
<g id="edge24" class="edge">
<title>Node60&#45;&gt;Node61</title>
<path fill="none" stroke="#191970" d="M601.1639,-116.2062C613.1296,-114.6324 626.3117,-113.0695 638.4633,-112 981.9515,-81.77 1071.5678,-120.7818 1413.4633,-76 1416.2185,-75.6391 1419.0532,-75.1977 1421.8978,-74.7035"/>
<polygon fill="#191970" stroke="#191970" points="600.4582,-112.7698 591.0183,-117.58 601.3975,-119.7065 600.4582,-112.7698"/>
</g>
<!-- Node62 -->
<g id="node16" class="node">
<title>Node62</title>
<g id="a_node16"><a xlink:href="_multi_phase_8cpp.html" target="_top" xlink:title="MultiPhase.cpp">
<polygon fill="#ffffff" stroke="#000000" points="538.4633,-56.5 538.4633,-75.5 628.4633,-75.5 628.4633,-56.5 538.4633,-56.5"/>
<text text-anchor="middle" x="583.4633" y="-63.5" font-family="Helvetica,sans-Serif" font-size="10.00" fill="#000000">MultiPhase.cpp</text>
</a>
</g>
</g>
<!-- Node60&#45;&gt;Node62 -->
<g id="edge31" class="edge">
<title>Node60&#45;&gt;Node62</title>
<path fill="none" stroke="#191970" d="M569.0261,-102.7493C572.618,-93.6064 576.7534,-83.0798 579.6751,-75.6427"/>
<polygon fill="#191970" stroke="#191970" points="565.6944,-101.6582 565.2954,-112.2455 572.2097,-104.2178 565.6944,-101.6582"/>
</g>
<!-- Node61&#45;&gt;Node51 -->
<g id="edge25" class="edge">
<title>Node61&#45;&gt;Node51</title>
<path fill="none" stroke="#191970" d="M1459.4633,-46.1575C1459.4633,-37.155 1459.4633,-26.9199 1459.4633,-19.6427"/>
<polygon fill="#191970" stroke="#191970" points="1455.9634,-46.2455 1459.4633,-56.2455 1462.9634,-46.2456 1455.9634,-46.2455"/>
</g>
<!-- Node63&#45;&gt;Node64 -->
<g id="edge33" class="edge">
<title>Node63&#45;&gt;Node64</title>
<path fill="none" stroke="#191970" d="M877.7313,-271.9209C884.1121,-262.5176 891.6564,-251.3997 896.9201,-243.6427"/>
<polygon fill="#191970" stroke="#191970" points="874.8013,-270.0055 872.0824,-280.2455 880.5937,-273.936 874.8013,-270.0055"/>
</g>
<!-- Node65 -->
<g id="node19" class="node">
<title>Node65</title>
<g id="a_node19"><a xlink:href="density_8_h.html" target="_top" xlink:title="density.H">
<polygon fill="#ffffff" stroke="#000000" points="25.4633,-168.5 25.4633,-187.5 87.4633,-187.5 87.4633,-168.5 25.4633,-168.5"/>
<text text-anchor="middle" x="56.4633" y="-175.5" font-family="Helvetica,sans-Serif" font-size="10.00" fill="#000000">density.H</text>
</a>
</g>
</g>
<!-- Node64&#45;&gt;Node65 -->
<g id="edge34" class="edge">
<title>Node64&#45;&gt;Node65</title>
<path fill="none" stroke="#191970" d="M869.9498,-232.3624C764.9317,-227.1382 432.9009,-209.9182 158.4633,-188 134.6961,-186.1018 107.8635,-183.4509 87.6865,-181.3554"/>
<polygon fill="#191970" stroke="#191970" points="869.7941,-235.8589 879.955,-232.8579 870.1404,-228.8675 869.7941,-235.8589"/>
</g>
<!-- Node67 -->
<g id="node21" class="node">
<title>Node67</title>
<g id="a_node21"><a xlink:href="icns_8_h.html" target="_top" xlink:title="icns.H">
<polygon fill="#ffffff" stroke="#000000" points="1537.9633,-112.5 1537.9633,-131.5 1584.9633,-131.5 1584.9633,-112.5 1537.9633,-112.5"/>
<text text-anchor="middle" x="1561.4633" y="-119.5" font-family="Helvetica,sans-Serif" font-size="10.00" fill="#000000">icns.H</text>
</a>
</g>
</g>
<!-- Node64&#45;&gt;Node67 -->
<g id="edge38" class="edge">
<title>Node64&#45;&gt;Node67</title>
<path fill="none" stroke="#191970" d="M937.2629,-230.7654C1001.485,-224.3849 1145.4557,-208.9573 1265.4633,-188 1367.6392,-170.1567 1487.8448,-140.6916 1537.8249,-128.0578"/>
<polygon fill="#191970" stroke="#191970" points="936.9055,-227.2835 927.2964,-231.7463 937.5912,-234.2499 936.9055,-227.2835"/>
</g>
<!-- Node70 -->
<g id="node24" class="node">
<title>Node70</title>
<g id="a_node24"><a xlink:href="levelset_8_h.html" target="_top" xlink:title="levelset.H">
<polygon fill="#ffffff" stroke="#000000" points="167.4633,-168.5 167.4633,-187.5 233.4633,-187.5 233.4633,-168.5 167.4633,-168.5"/>
<text text-anchor="middle" x="200.4633" y="-175.5" font-family="Helvetica,sans-Serif" font-size="10.00" fill="#000000">levelset.H</text>
</a>
</g>
</g>
<!-- Node64&#45;&gt;Node70 -->
<g id="edge46" class="edge">
<title>Node64&#45;&gt;Node70</title>
<path fill="none" stroke="#191970" d="M869.6729,-231.3083C750.6337,-221.8258 351.5702,-190.037 233.5856,-180.6385"/>
<polygon fill="#191970" stroke="#191970" points="869.4241,-234.7995 879.6704,-232.1047 869.98,-227.8216 869.4241,-234.7995"/>
</g>
<!-- Node72 -->
<g id="node26" class="node">
<title>Node72</title>
<g id="a_node26"><a xlink:href="_s_d_r_8_h.html" target="_top" xlink:title="SDR.H">
<polygon fill="#ffffff" stroke="#000000" points="1208.9633,-168.5 1208.9633,-187.5 1255.9633,-187.5 1255.9633,-168.5 1208.9633,-168.5"/>
<text text-anchor="middle" x="1232.4633" y="-175.5" font-family="Helvetica,sans-Serif" font-size="10.00" fill="#000000">SDR.H</text>
</a>
</g>
</g>
<!-- Node64&#45;&gt;Node72 -->
<g id="edge50" class="edge">
<title>Node64&#45;&gt;Node72</title>
<path fill="none" stroke="#191970" d="M937.0935,-228.2757C1003.683,-216.9413 1150.8582,-191.8902 1208.5748,-182.0661"/>
<polygon fill="#191970" stroke="#191970" points="936.3951,-224.8442 927.1242,-229.9726 937.5697,-231.7449 936.3951,-224.8442"/>
</g>
<!-- Node77 -->
<g id="node31" class="node">
<title>Node77</title>
<g id="a_node31"><a xlink:href="temperature_8_h.html" target="_top" xlink:title="temperature.H">
<polygon fill="#ffffff" stroke="#000000" points="638.4633,-168.5 638.4633,-187.5 726.4633,-187.5 726.4633,-168.5 638.4633,-168.5"/>
<text text-anchor="middle" x="682.4633" y="-175.5" font-family="Helvetica,sans-Serif" font-size="10.00" fill="#000000">temperature.H</text>
</a>
</g>
</g>
<!-- Node64&#45;&gt;Node77 -->
<g id="edge59" class="edge">
<title>Node64&#45;&gt;Node77</title>
<path fill="none" stroke="#191970" d="M869.9522,-225.5085C829.7042,-215.3099 762.3666,-198.247 720.2897,-187.585"/>
<polygon fill="#191970" stroke="#191970" points="869.2591,-228.9434 879.8125,-228.007 870.9786,-222.1579 869.2591,-228.9434"/>
</g>
<!-- Node78 -->
<g id="node32" class="node">
<title>Node78</title>
<g id="a_node32"><a xlink:href="_t_k_e_8_h.html" target="_top" xlink:title="TKE.H">
<polygon fill="#ffffff" stroke="#000000" points="989.4633,-168.5 989.4633,-187.5 1035.4633,-187.5 1035.4633,-168.5 989.4633,-168.5"/>
<text text-anchor="middle" x="1012.4633" y="-175.5" font-family="Helvetica,sans-Serif" font-size="10.00" fill="#000000">TKE.H</text>
</a>
</g>
</g>
<!-- Node64&#45;&gt;Node78 -->
<g id="edge61" class="edge">
<title>Node64&#45;&gt;Node78</title>
<path fill="none" stroke="#191970" d="M931.4976,-219.5971C951.038,-209.558 976.5726,-196.4393 993.6946,-187.6427"/>
<polygon fill="#191970" stroke="#191970" points="929.745,-216.5625 922.4497,-224.2455 932.9439,-222.7889 929.745,-216.5625"/>
</g>
<!-- Node81 -->
<g id="node35" class="node">
<title>Node81</title>
<g id="a_node35"><a xlink:href="vof_8_h.html" target="_top" xlink:title="vof.H">
<polygon fill="#ffffff" stroke="#000000" points="763.4633,-168.5 763.4633,-187.5 805.4633,-187.5 805.4633,-168.5 763.4633,-168.5"/>
<text text-anchor="middle" x="784.4633" y="-175.5" font-family="Helvetica,sans-Serif" font-size="10.00" fill="#000000">vof.H</text>
</a>
</g>
</g>
<!-- Node64&#45;&gt;Node81 -->
<g id="edge69" class="edge">
<title>Node64&#45;&gt;Node81</title>
<path fill="none" stroke="#191970" d="M873.9489,-220.1109C852.3695,-209.9559 823.6657,-196.4482 804.6532,-187.5011"/>
<polygon fill="#191970" stroke="#191970" points="872.468,-223.2821 883.0065,-224.3733 875.4486,-216.9484 872.468,-223.2821"/>
</g>
<!-- Node65&#45;&gt;Node49 -->
<g id="edge35" class="edge">
<title>Node65&#45;&gt;Node49</title>
<path fill="none" stroke="#191970" d="M30.7293,-162.6969C11.7568,-149.4435 -8.6545,-129.6752 4.4633,-112 18.3888,-93.2366 80.509,-79.1541 120.8988,-71.7797"/>
<polygon fill="#191970" stroke="#191970" points="28.9447,-165.7125 39.2195,-168.2969 32.799,-159.8691 28.9447,-165.7125"/>
</g>
<!-- Node66 -->
<g id="node20" class="node">
<title>Node66</title>
<g id="a_node20"><a xlink:href="density__ops_8_h.html" target="_top" xlink:title="density_ops.H">
<polygon fill="#ffffff" stroke="#000000" points="13.4633,-112.5 13.4633,-131.5 99.4633,-131.5 99.4633,-112.5 13.4633,-112.5"/>
<text text-anchor="middle" x="56.4633" y="-119.5" font-family="Helvetica,sans-Serif" font-size="10.00" fill="#000000">density_ops.H</text>
</a>
</g>
</g>
<!-- Node65&#45;&gt;Node66 -->
<g id="edge36" class="edge">
<title>Node65&#45;&gt;Node66</title>
<path fill="none" stroke="#191970" d="M56.4633,-158.1575C56.4633,-149.155 56.4633,-138.9199 56.4633,-131.6427"/>
<polygon fill="#191970" stroke="#191970" points="52.9634,-158.2455 56.4633,-168.2455 59.9634,-158.2456 52.9634,-158.2455"/>
</g>
<!-- Node66&#45;&gt;Node49 -->
<g id="edge37" class="edge">
<title>Node66&#45;&gt;Node49</title>
<path fill="none" stroke="#191970" d="M82.6731,-107.3225C100.5351,-97.3198 123.6788,-84.3593 139.2443,-75.6427"/>
<polygon fill="#191970" stroke="#191970" points="80.8969,-104.3057 73.882,-112.2455 84.3172,-110.4132 80.8969,-104.3057"/>
</g>
<!-- Node67&#45;&gt;Node50 -->
<g id="edge40" class="edge">
<title>Node67&#45;&gt;Node50</title>
<path fill="none" stroke="#191970" d="M1528.0788,-112.2629C1492.7315,-101.9532 1437.2949,-85.7842 1402.1967,-75.5472"/>
<polygon fill="#191970" stroke="#191970" points="1527.3403,-115.6932 1537.9204,-115.1333 1529.3004,-108.9732 1527.3403,-115.6932"/>
</g>
<!-- Node67&#45;&gt;Node51 -->
<g id="edge39" class="edge">
<title>Node67&#45;&gt;Node51</title>
<path fill="none" stroke="#191970" d="M1594.7792,-110.488C1623.9217,-98.5833 1659.0551,-78.5913 1641.4633,-56 1622.6912,-31.893 1533.7849,-18.4227 1487.5502,-12.9399"/>
<polygon fill="#191970" stroke="#191970" points="1593.2631,-107.3221 1585.2105,-114.2073 1595.7992,-113.8466 1593.2631,-107.3221"/>
</g>
<!-- Node67&#45;&gt;Node52 -->
<g id="edge41" class="edge">
<title>Node67&#45;&gt;Node52</title>
<path fill="none" stroke="#191970" d="M1527.5663,-120.5031C1350.0945,-112.6645 535.819,-76.6776 529.4633,-76 526.5708,-75.6916 523.6051,-75.331 520.617,-74.9334"/>
<polygon fill="#191970" stroke="#191970" points="1527.4884,-124.003 1537.6332,-120.9478 1527.7974,-117.0098 1527.4884,-124.003"/>
</g>
<!-- Node67&#45;&gt;Node61 -->
<g id="edge44" class="edge">
<title>Node67&#45;&gt;Node61</title>
<path fill="none" stroke="#191970" d="M1534.7294,-107.3225C1516.5102,-97.3198 1492.9035,-84.3593 1477.0268,-75.6427"/>
<polygon fill="#191970" stroke="#191970" points="1533.2461,-110.5009 1543.6963,-112.2455 1536.6149,-104.3649 1533.2461,-110.5009"/>
</g>
<!-- Node67&#45;&gt;Node68 -->
<g id="edge42" class="edge">
<title>Node67&#45;&gt;Node68</title>
<path fill="none" stroke="#191970" d="M1595.12,-111.168C1627.2257,-100.8351 1675.1157,-85.4222 1705.818,-75.541"/>
<polygon fill="#191970" stroke="#191970" points="1593.7393,-107.9355 1585.2924,-114.3309 1595.8839,-114.5989 1593.7393,-107.9355"/>
</g>
<!-- Node69 -->
<g id="node23" class="node">
<title>Node69</title>
<g id="a_node23"><a xlink:href="_power_law_profile_8cpp.html" target="_top" xlink:title="PowerLawProfile.cpp">
<polygon fill="#ffffff" stroke="#000000" points="1514.9633,-56.5 1514.9633,-75.5 1631.9633,-75.5 1631.9633,-56.5 1514.9633,-56.5"/>
<text text-anchor="middle" x="1573.4633" y="-63.5" font-family="Helvetica,sans-Serif" font-size="10.00" fill="#000000">PowerLawProfile.cpp</text>
</a>
</g>
</g>
<!-- Node67&#45;&gt;Node69 -->
<g id="edge45" class="edge">
<title>Node67&#45;&gt;Node69</title>
<path fill="none" stroke="#191970" d="M1565.6518,-102.4538C1567.5961,-93.3803 1569.8205,-82.9998 1571.397,-75.6427"/>
<polygon fill="#191970" stroke="#191970" points="1562.2266,-101.7341 1563.5536,-112.2455 1569.0712,-103.2009 1562.2266,-101.7341"/>
</g>
<!-- Node68&#45;&gt;Node51 -->
<g id="edge43" class="edge">
<title>Node68&#45;&gt;Node51</title>
<path fill="none" stroke="#191970" d="M1678.1964,-54.3806C1620.0763,-42.5881 1532.489,-24.8168 1487.8308,-15.7557"/>
<polygon fill="#191970" stroke="#191970" points="1677.8345,-57.8784 1688.3308,-56.4369 1679.2265,-51.0182 1677.8345,-57.8784"/>
</g>
<!-- Node70&#45;&gt;Node54 -->
<g id="edge47" class="edge">
<title>Node70&#45;&gt;Node54</title>
<path fill="none" stroke="#191970" d="M174.1667,-163.0244C155.03,-150.1128 134.4111,-130.6564 146.4633,-112 154.738,-99.191 191.2269,-84.7918 218.2113,-75.5705"/>
<polygon fill="#191970" stroke="#191970" points="172.4154,-166.0584 182.7322,-168.4698 176.171,-160.1511 172.4154,-166.0584"/>
</g>
<!-- Node71 -->
<g id="node25" class="node">
<title>Node71</title>
<g id="a_node25"><a xlink:href="levelset__ops_8_h.html" target="_top" xlink:title="levelset_ops.H">
<polygon fill="#ffffff" stroke="#000000" points="155.9633,-112.5 155.9633,-131.5 244.9633,-131.5 244.9633,-112.5 155.9633,-112.5"/>
<text text-anchor="middle" x="200.4633" y="-119.5" font-family="Helvetica,sans-Serif" font-size="10.00" fill="#000000">levelset_ops.H</text>
</a>
</g>
</g>
<!-- Node70&#45;&gt;Node71 -->
<g id="edge48" class="edge">
<title>Node70&#45;&gt;Node71</title>
<path fill="none" stroke="#191970" d="M200.4633,-158.1575C200.4633,-149.155 200.4633,-138.9199 200.4633,-131.6427"/>
<polygon fill="#191970" stroke="#191970" points="196.9634,-158.2455 200.4633,-168.2455 203.9634,-158.2456 196.9634,-158.2455"/>
</g>
<!-- Node71&#45;&gt;Node54 -->
<g id="edge49" class="edge">
<title>Node71&#45;&gt;Node54</title>
<path fill="none" stroke="#191970" d="M215.463,-104.5004C223.6255,-94.9775 233.4122,-83.5596 240.1982,-75.6427"/>
<polygon fill="#191970" stroke="#191970" points="212.6748,-102.3752 208.8243,-112.2455 217.9896,-106.9307 212.6748,-102.3752"/>
</g>
<!-- Node72&#45;&gt;Node55 -->
<g id="edge51" class="edge">
<title>Node72&#45;&gt;Node55</title>
<path fill="none" stroke="#191970" d="M1202.9685,-164.1403C1170.4301,-149.3417 1116.2071,-126.1196 1067.4633,-112 989.6508,-89.46 894.7881,-75.4747 848.1543,-69.451"/>
<polygon fill="#191970" stroke="#191970" points="1201.7921,-167.4514 1212.3404,-168.4431 1204.7129,-161.0898 1201.7921,-167.4514"/>
</g>
<!-- Node73 -->
<g id="node27" class="node">
<title>Node73</title>
<g id="a_node27"><a xlink:href="sdr__ops_8_h.html" target="_top" xlink:title="sdr_ops.H">
<polygon fill="#ffffff" stroke="#000000" points="1152.9633,-112.5 1152.9633,-131.5 1217.9633,-131.5 1217.9633,-112.5 1152.9633,-112.5"/>
<text text-anchor="middle" x="1185.4633" y="-119.5" font-family="Helvetica,sans-Serif" font-size="10.00" fill="#000000">sdr_ops.H</text>
</a>
</g>
</g>
<!-- Node72&#45;&gt;Node73 -->
<g id="edge52" class="edge">
<title>Node72&#45;&gt;Node73</title>
<path fill="none" stroke="#191970" d="M1217.7761,-160.5004C1209.7837,-150.9775 1200.2009,-139.5596 1193.5563,-131.6427"/>
<polygon fill="#191970" stroke="#191970" points="1215.1669,-162.8358 1224.2766,-168.2455 1220.5287,-158.3357 1215.1669,-162.8358"/>
</g>
<!-- Node74 -->
<g id="node28" class="node">
<title>Node74</title>
<g id="a_node28"><a xlink:href="_k_omega_s_s_t_i_8_h.html" target="_top" xlink:title="KOmegaSSTI.H">
<polygon fill="#ffffff" stroke="#000000" points="1235.9633,-112.5 1235.9633,-131.5 1324.9633,-131.5 1324.9633,-112.5 1235.9633,-112.5"/>
<text text-anchor="middle" x="1280.4633" y="-119.5" font-family="Helvetica,sans-Serif" font-size="10.00" fill="#000000">KOmegaSSTI.H</text>
</a>
</g>
</g>
<!-- Node72&#45;&gt;Node74 -->
<g id="edge54" class="edge">
<title>Node72&#45;&gt;Node74</title>
<path fill="none" stroke="#191970" d="M1247.463,-160.5004C1255.6255,-150.9775 1265.4122,-139.5596 1272.1982,-131.6427"/>
<polygon fill="#191970" stroke="#191970" points="1244.6748,-158.3752 1240.8243,-168.2455 1249.9896,-162.9307 1244.6748,-158.3752"/>
</g>
<!-- Node75 -->
<g id="node29" class="node">
<title>Node75</title>
<g id="a_node29"><a xlink:href="_k_omega_s_s_t_8cpp.html" target="_top" xlink:title="KOmegaSST.cpp">
<polygon fill="#ffffff" stroke="#000000" points="1076.9633,-56.5 1076.9633,-75.5 1171.9633,-75.5 1171.9633,-56.5 1076.9633,-56.5"/>
<text text-anchor="middle" x="1124.4633" y="-63.5" font-family="Helvetica,sans-Serif" font-size="10.00" fill="#000000">KOmegaSST.cpp</text>
</a>
</g>
</g>
<!-- Node72&#45;&gt;Node75 -->
<g id="edge57" class="edge">
<title>Node72&#45;&gt;Node75</title>
<path fill="none" stroke="#191970" d="M1266.2557,-170.2844C1304.0115,-160.0917 1357.0651,-140.0885 1334.4633,-112 1329.3304,-105.621 1232.5406,-86.3694 1172.1764,-74.8927"/>
<polygon fill="#191970" stroke="#191970" points="1264.9018,-167.0186 1256.0878,-172.8977 1266.6443,-173.7982 1264.9018,-167.0186"/>
</g>
<!-- Node76 -->
<g id="node30" class="node">
<title>Node76</title>
<g id="a_node30"><a xlink:href="_k_omega_s_s_t_i_d_d_e_s_8cpp.html" target="_top" xlink:title="KOmegaSSTIDDES.cpp">
<polygon fill="#ffffff" stroke="#000000" points="1190.4633,-56.5 1190.4633,-75.5 1316.4633,-75.5 1316.4633,-56.5 1190.4633,-56.5"/>
<text text-anchor="middle" x="1253.4633" y="-63.5" font-family="Helvetica,sans-Serif" font-size="10.00" fill="#000000">KOmegaSSTIDDES.cpp</text>
</a>
</g>
</g>
<!-- Node72&#45;&gt;Node76 -->
<g id="edge58" class="edge">
<title>Node72&#45;&gt;Node76</title>
<path fill="none" stroke="#191970" d="M1266.0667,-173.9113C1311.443,-167.6206 1388.5923,-153.9432 1405.4633,-132 1410.8813,-124.9532 1410.7608,-119.1379 1405.4633,-112 1393.6329,-96.0594 1347.0179,-83.4973 1308.4943,-75.5566"/>
<polygon fill="#191970" stroke="#191970" points="1265.5321,-170.4516 1256.0849,-175.2473 1266.4608,-177.3897 1265.5321,-170.4516"/>
</g>
<!-- Node73&#45;&gt;Node55 -->
<g id="edge53" class="edge">
<title>Node73&#45;&gt;Node55</title>
<path fill="none" stroke="#191970" d="M1142.5472,-115.4336C1067.0195,-103.8775 912.2876,-80.2026 848.2233,-70.4004"/>
<polygon fill="#191970" stroke="#191970" points="1142.2468,-118.9283 1152.6612,-116.9811 1143.3056,-112.0088 1142.2468,-118.9283"/>
</g>
<!-- Node74&#45;&gt;Node75 -->
<g id="edge55" class="edge">
<title>Node74&#45;&gt;Node75</title>
<path fill="none" stroke="#191970" d="M1244.0349,-108.9231C1215.5173,-98.686 1176.5252,-84.6889 1150.9307,-75.5011"/>
<polygon fill="#191970" stroke="#191970" points="1243.0515,-112.2887 1253.646,-112.3733 1245.4166,-105.7004 1243.0515,-112.2887"/>
</g>
<!-- Node74&#45;&gt;Node76 -->
<g id="edge56" class="edge">
<title>Node74&#45;&gt;Node76</title>
<path fill="none" stroke="#191970" d="M1271.3237,-103.0437C1266.8829,-93.8331 1261.7368,-83.1598 1258.1125,-75.6427"/>
<polygon fill="#191970" stroke="#191970" points="1268.2645,-104.7579 1275.7603,-112.2455 1274.5699,-101.7178 1268.2645,-104.7579"/>
</g>
<!-- Node77&#45;&gt;Node56 -->
<g id="edge60" class="edge">
<title>Node77&#45;&gt;Node56</title>
<path fill="none" stroke="#191970" d="M628.1544,-175.5291C526.2001,-170.3309 314.3874,-156.662 292.4633,-132 274.3219,-111.593 309.4885,-88.2444 333.5586,-75.5121"/>
<polygon fill="#191970" stroke="#191970" points="628.0955,-179.0304 638.258,-176.0348 628.4455,-172.0392 628.0955,-179.0304"/>
</g>
<!-- Node78&#45;&gt;Node57 -->
<g id="edge62" class="edge">
<title>Node78&#45;&gt;Node57</title>
<path fill="none" stroke="#191970" d="M993.9269,-161.7565C976.0068,-146.835 947.5184,-125.1078 919.4633,-112 862.4257,-85.3511 843.3493,-92.0109 782.4633,-76 779.2965,-75.1672 775.9813,-74.2952 772.6847,-73.4279"/>
<polygon fill="#191970" stroke="#191970" points="991.9394,-164.6606 1001.8268,-168.4673 996.4714,-159.3256 991.9394,-164.6606"/>
</g>
<!-- Node78&#45;&gt;Node74 -->
<g id="edge66" class="edge">
<title>Node78&#45;&gt;Node74</title>
<path fill="none" stroke="#191970" d="M1045.6372,-171.0681C1093.556,-161.0553 1182.2585,-142.5204 1235.863,-131.3195"/>
<polygon fill="#191970" stroke="#191970" points="1044.8504,-167.6569 1035.7777,-173.1283 1046.2822,-174.5089 1044.8504,-167.6569"/>
</g>
<!-- Node78&#45;&gt;Node75 -->
<g id="edge67" class="edge">
<title>Node78&#45;&gt;Node75</title>
<path fill="none" stroke="#191970" d="M1033.1261,-162.0387C1043.7448,-153.5128 1056.6831,-142.6109 1067.4633,-132 1086.4538,-113.3079 1106.2738,-89.1221 1116.8067,-75.8314"/>
<polygon fill="#191970" stroke="#191970" points="1030.8632,-159.3661 1025.193,-168.3159 1035.2068,-164.8555 1030.8632,-159.3661"/>
</g>
<!-- Node78&#45;&gt;Node76 -->
<g id="edge68" class="edge">
<title>Node78&#45;&gt;Node76</title>
<path fill="none" stroke="#191970" d="M1045.792,-175.6814C1124.3015,-169.882 1315.6903,-153.6454 1334.4633,-132 1354.6086,-108.7723 1312.5677,-87.3695 1281.8572,-75.5578"/>
<polygon fill="#191970" stroke="#191970" points="1045.2128,-172.2142 1035.4929,-176.43 1045.7203,-179.1958 1045.2128,-172.2142"/>
</g>
<!-- Node79 -->
<g id="node33" class="node">
<title>Node79</title>
<g id="a_node33"><a xlink:href="tke__ops_8_h.html" target="_top" xlink:title="tke_ops.H">
<polygon fill="#ffffff" stroke="#000000" points="844.9633,-112.5 844.9633,-131.5 909.9633,-131.5 909.9633,-112.5 844.9633,-112.5"/>
<text text-anchor="middle" x="877.4633" y="-119.5" font-family="Helvetica,sans-Serif" font-size="10.00" fill="#000000">tke_ops.H</text>
</a>
</g>
</g>
<!-- Node78&#45;&gt;Node79 -->
<g id="edge63" class="edge">
<title>Node78&#45;&gt;Node79</title>
<path fill="none" stroke="#191970" d="M979.9642,-164.5189C955.3779,-154.3201 922.2267,-140.5685 900.3678,-131.5011"/>
<polygon fill="#191970" stroke="#191970" points="978.6781,-167.7745 989.256,-168.3733 981.3602,-161.3087 978.6781,-167.7745"/>
</g>
<!-- Node80 -->
<g id="node34" class="node">
<title>Node80</title>
<g id="a_node34"><a xlink:href="_one_eq_ksgs_8cpp.html" target="_top" xlink:title="OneEqKsgs.cpp">
<polygon fill="#ffffff" stroke="#000000" points="966.4633,-112.5 966.4633,-131.5 1058.4633,-131.5 1058.4633,-112.5 966.4633,-112.5"/>
<text text-anchor="middle" x="1012.4633" y="-119.5" font-family="Helvetica,sans-Serif" font-size="10.00" fill="#000000">OneEqKsgs.cpp</text>
</a>
</g>
</g>
<!-- Node78&#45;&gt;Node80 -->
<g id="edge65" class="edge">
<title>Node78&#45;&gt;Node80</title>
<path fill="none" stroke="#191970" d="M1012.4633,-158.1575C1012.4633,-149.155 1012.4633,-138.9199 1012.4633,-131.6427"/>
<polygon fill="#191970" stroke="#191970" points="1008.9634,-158.2455 1012.4633,-168.2455 1015.9634,-158.2456 1008.9634,-158.2455"/>
</g>
<!-- Node79&#45;&gt;Node57 -->
<g id="edge64" class="edge">
<title>Node79&#45;&gt;Node57</title>
<path fill="none" stroke="#191970" d="M845.1236,-108.3833C820.9348,-98.1985 788.4683,-84.5284 767.0285,-75.5011"/>
<polygon fill="#191970" stroke="#191970" points="844.0252,-111.7184 854.5998,-112.3733 846.7417,-105.2669 844.0252,-111.7184"/>
</g>
<!-- Node81&#45;&gt;Node58 -->
<g id="edge70" class="edge">
<title>Node81&#45;&gt;Node58</title>
<path fill="none" stroke="#191970" d="M753.6385,-170.3523C712.8999,-159.9383 645.436,-141.5075 638.4633,-132 625.0474,-113.707 646.1487,-89.3715 660.6471,-75.9483"/>
<polygon fill="#191970" stroke="#191970" points="752.8136,-173.7539 763.3669,-172.8169 754.5327,-166.9682 752.8136,-173.7539"/>
</g>
<!-- Node82 -->
<g id="node36" class="node">
<title>Node82</title>
<g id="a_node36"><a xlink:href="vof__advection_8_h.html" target="_top" xlink:title="vof_advection.H">
<polygon fill="#ffffff" stroke="#000000" points="647.4633,-112.5 647.4633,-131.5 743.4633,-131.5 743.4633,-112.5 647.4633,-112.5"/>
<text text-anchor="middle" x="695.4633" y="-119.5" font-family="Helvetica,sans-Serif" font-size="10.00" fill="#000000">vof_advection.H</text>
</a>
</g>
</g>
<!-- Node81&#45;&gt;Node82 -->
<g id="edge71" class="edge">
<title>Node81&#45;&gt;Node82</title>
<path fill="none" stroke="#191970" d="M760.2569,-162.769C744.4859,-152.8456 724.3873,-140.1994 710.7883,-131.6427"/>
<polygon fill="#191970" stroke="#191970" points="758.6328,-165.8823 768.9607,-168.2455 762.3608,-159.9575 758.6328,-165.8823"/>
</g>
<!-- Node83 -->
<g id="node37" class="node">
<title>Node83</title>
<g id="a_node37"><a xlink:href="vof__ops_8_h.html" target="_top" xlink:title="vof_ops.H">
<polygon fill="#ffffff" stroke="#000000" points="761.9633,-112.5 761.9633,-131.5 826.9633,-131.5 826.9633,-112.5 761.9633,-112.5"/>
<text text-anchor="middle" x="794.4633" y="-119.5" font-family="Helvetica,sans-Serif" font-size="10.00" fill="#000000">vof_ops.H</text>
</a>
</g>
</g>
<!-- Node81&#45;&gt;Node83 -->
<g id="edge73" class="edge">
<title>Node81&#45;&gt;Node83</title>
<path fill="none" stroke="#191970" d="M788.0066,-158.1575C789.6142,-149.155 791.4419,-138.9199 792.7414,-131.6427"/>
<polygon fill="#191970" stroke="#191970" points="784.5177,-157.786 786.2052,-168.2455 791.4087,-159.0166 784.5177,-157.786"/>
</g>
<!-- Node82&#45;&gt;Node58 -->
<g id="edge72" class="edge">
<title>Node82&#45;&gt;Node58</title>
<path fill="none" stroke="#191970" d="M687.5568,-102.7493C683.8017,-93.6064 679.4783,-83.0798 676.4237,-75.6427"/>
<polygon fill="#191970" stroke="#191970" points="684.4202,-104.3251 691.457,-112.2455 690.8954,-101.6656 684.4202,-104.3251"/>
</g>
<!-- Node83&#45;&gt;Node58 -->
<g id="edge74" class="edge">
<title>Node83&#45;&gt;Node58</title>
<path fill="none" stroke="#191970" d="M764.2049,-108.1109C742.0814,-97.9559 712.654,-84.4482 693.1622,-75.5011"/>
<polygon fill="#191970" stroke="#191970" points="762.9424,-111.3824 773.4908,-112.3733 765.8626,-105.0206 762.9424,-111.3824"/>
</g>
<!-- Node84&#45;&gt;Node50 -->
<g id="edge79" class="edge">
<title>Node84&#45;&gt;Node50</title>
<path fill="none" stroke="#191970" d="M1457.4688,-270.2331C1456.6472,-235.7899 1451.1778,-163.5321 1421.4633,-112 1412.6729,-96.7552 1396.9957,-83.9372 1385.1461,-75.7364"/>
<polygon fill="#191970" stroke="#191970" points="1453.9709,-270.4249 1457.5976,-280.3796 1460.9703,-270.336 1453.9709,-270.4249"/>
</g>
<!-- Node84&#45;&gt;Node64 -->
<g id="edge77" class="edge">
<title>Node84&#45;&gt;Node64</title>
<path fill="none" stroke="#191970" d="M1402.3139,-284.4253C1283.935,-272.4592 1009.562,-244.7248 927.2344,-236.4029"/>
<polygon fill="#191970" stroke="#191970" points="1402.2951,-287.9412 1412.5965,-285.4647 1402.9992,-280.9767 1402.2951,-287.9412"/>
</g>
<!-- Node84&#45;&gt;Node68 -->
<g id="edge80" class="edge">
<title>Node84&#45;&gt;Node68</title>
<path fill="none" stroke="#191970" d="M1512.0094,-279.3706C1538.573,-272.3585 1569.9784,-261.2007 1594.4633,-244 1603.2942,-237.7963 1700.2036,-111.9416 1728.032,-75.6913"/>
<polygon fill="#191970" stroke="#191970" points="1510.938,-276.0308 1502.0903,-281.859 1512.6414,-282.8204 1510.938,-276.0308"/>
</g>
<!-- Node85 -->
<g id="node39" class="node">
<title>Node85</title>
<g id="a_node39"><a xlink:href="_diffusion_ops_8cpp.html" target="_top" xlink:title="DiffusionOps.cpp">
<polygon fill="#ffffff" stroke="#000000" points="1485.9633,-224.5 1485.9633,-243.5 1584.9633,-243.5 1584.9633,-224.5 1485.9633,-224.5"/>
<text text-anchor="middle" x="1535.4633" y="-231.5" font-family="Helvetica,sans-Serif" font-size="10.00" fill="#000000">DiffusionOps.cpp</text>
</a>
</g>
</g>
<!-- Node84&#45;&gt;Node85 -->
<g id="edge78" class="edge">
<title>Node84&#45;&gt;Node85</title>
<path fill="none" stroke="#191970" d="M1479.4569,-274.2097C1493.1563,-264.3743 1510.337,-252.0394 1522.0325,-243.6427"/>
<polygon fill="#191970" stroke="#191970" points="1477.1319,-271.5703 1471.0499,-280.2455 1481.2144,-277.2566 1477.1319,-271.5703"/>
</g>
</g>
</svg>
