<?xml version="1.0" encoding="UTF-8" standalone="no"?>
<!DOCTYPE svg PUBLIC "-//W3C//DTD SVG 1.1//EN"
 "http://www.w3.org/Graphics/SVG/1.1/DTD/svg11.dtd">
<!-- Generated by graphviz version 2.40.1 (20161225.0304)
 -->
<!-- Title: PDE.H Pages: 1 -->
<!--zoomable 196 -->
<svg id="main" version="1.1" xmlns="http://www.w3.org/2000/svg" xmlns:xlink="http://www.w3.org/1999/xlink" xml:space="preserve" onload="init(evt)">
<style type="text/css"><![CDATA[
.edge:hover path { stroke: red; }
.edge:hover polygon { stroke: red; fill: red; }
]]></style>
<script type="text/javascript"><![CDATA[
var edges = document.getElementsByTagName('g');
if (edges && edges.length) {
  for (var i=0;i<edges.length;i++) {
    if (edges[i].id.substr(0,4)=='edge') {
      edges[i].setAttribute('class','edge');
    }
  }
}
]]></script>
        <defs>
                <circle id="rim" cx="0" cy="0" r="7"/>
                <circle id="rim2" cx="0" cy="0" r="3.5"/>
                <g id="zoomPlus">
                        <use xlink:href="#rim" fill="#404040">
                                <set attributeName="fill" to="#808080" begin="zoomplus.mouseover" end="zoomplus.mouseout"/>
                        </use>
                        <path d="M-4,0h8M0,-4v8" fill="none" stroke="white" stroke-width="1.5" pointer-events="none"/>
                </g>
                <g id="zoomMin">
                        <use xlink:href="#rim" fill="#404040">
                                <set attributeName="fill" to="#808080" begin="zoomminus.mouseover" end="zoomminus.mouseout"/>
                        </use>
                        <path d="M-4,0h8" fill="none" stroke="white" stroke-width="1.5" pointer-events="none"/>
                </g>
                <g id="dirArrow">
                        <path fill="none" stroke="white" stroke-width="1.5" d="M0,-3.0v7 M-2.5,-0.5L0,-3.0L2.5,-0.5"/>
                </g>
               <g id="resetDef">
                       <use xlink:href="#rim2" fill="#404040">
                               <set attributeName="fill" to="#808080" begin="reset.mouseover" end="reset.mouseout"/>
                       </use>
               </g>
        </defs>

<script type="text/javascript">
var viewWidth = 1818;
var viewHeight = 196;
var sectionId = 'dynsection-1';
</script>
<script xlink:href="svgpan.js"/>
<svg id="graph" class="graph">
<g id="viewport">
<title>PDE.H</title>
<polygon fill="#ffffff" stroke="transparent" points="-4,4 -4,-192 1814,-192 1814,4 -4,4"/>
<!-- Node58 -->
<g id="node1" class="node">
<title>Node58</title>
<polygon fill="#bfbfbf" stroke="#000000" points="971,-168.5 971,-187.5 1018,-187.5 1018,-168.5 971,-168.5"/>
<text text-anchor="middle" x="994.5" y="-175.5" font-family="Helvetica,sans-Serif" font-size="10.00" fill="#000000">PDE.H</text>
</g>
<!-- Node59 -->
<g id="node2" class="node">
<title>Node59</title>
<g id="a_node2"><a xlink:href="density_8_h.html" target="_top" xlink:title="density.H">
<polygon fill="#ffffff" stroke="#000000" points="39.5,-112.5 39.5,-131.5 101.5,-131.5 101.5,-112.5 39.5,-112.5"/>
<text text-anchor="middle" x="70.5" y="-119.5" font-family="Helvetica,sans-Serif" font-size="10.00" fill="#000000">density.H</text>
</a>
</g>
</g>
<!-- Node58&#45;&gt;Node59 -->
<g id="edge1" class="edge">
<title>Node58&#45;&gt;Node59</title>
<path fill="none" stroke="#191970" d="M960.6025,-175.9456C814.835,-167.1112 242.3518,-132.4153 101.7923,-123.8965"/>
<polygon fill="#191970" stroke="#191970" points="960.5374,-179.448 970.7309,-176.5594 960.961,-172.4608 960.5374,-179.448"/>
</g>
<!-- Node62 -->
<g id="node5" class="node">
<title>Node62</title>
<g id="a_node5"><a xlink:href="icns_8_h.html" target="_top" xlink:title="icns.H">
<polygon fill="#ffffff" stroke="#000000" points="384,-112.5 384,-131.5 431,-131.5 431,-112.5 384,-112.5"/>
<text text-anchor="middle" x="407.5" y="-119.5" font-family="Helvetica,sans-Serif" font-size="10.00" fill="#000000">icns.H</text>
</a>
</g>
</g>
<!-- Node58&#45;&gt;Node62 -->
<g id="edge5" class="edge">
<title>Node58&#45;&gt;Node62</title>
<path fill="none" stroke="#191970" d="M960.5028,-174.7567C853.0909,-164.5095 522.7164,-132.9917 431.211,-124.262"/>
<polygon fill="#191970" stroke="#191970" points="960.4747,-178.2698 970.7619,-175.7354 961.1395,-171.3014 960.4747,-178.2698"/>
</g>
<!-- Node70 -->
<g id="node13" class="node">
<title>Node70</title>
<g id="a_node13"><a xlink:href="levelset_8_h.html" target="_top" xlink:title="levelset.H">
<polygon fill="#ffffff" stroke="#000000" points="767.5,-112.5 767.5,-131.5 833.5,-131.5 833.5,-112.5 767.5,-112.5"/>
<text text-anchor="middle" x="800.5" y="-119.5" font-family="Helvetica,sans-Serif" font-size="10.00" fill="#000000">levelset.H</text>
</a>
</g>
</g>
<!-- Node58&#45;&gt;Node70 -->
<g id="edge17" class="edge">
<title>Node58&#45;&gt;Node70</title>
<path fill="none" stroke="#191970" d="M960.7677,-168.2629C925.0522,-157.9532 869.0382,-141.7842 833.5743,-131.5472"/>
<polygon fill="#191970" stroke="#191970" points="960.1334,-171.7226 970.7118,-171.1333 962.0748,-164.9972 960.1334,-171.7226"/>
</g>
<!-- Node73 -->
<g id="node16" class="node">
<title>Node73</title>
<g id="a_node16"><a xlink:href="_s_d_r_8_h.html" target="_top" xlink:title="SDR.H">
<polygon fill="#ffffff" stroke="#000000" points="971,-112.5 971,-131.5 1018,-131.5 1018,-112.5 971,-112.5"/>
<text text-anchor="middle" x="994.5" y="-119.5" font-family="Helvetica,sans-Serif" font-size="10.00" fill="#000000">SDR.H</text>
</a>
</g>
</g>
<!-- Node58&#45;&gt;Node73 -->
<g id="edge21" class="edge">
<title>Node58&#45;&gt;Node73</title>
<path fill="none" stroke="#191970" d="M994.5,-158.1575C994.5,-149.155 994.5,-138.9199 994.5,-131.6427"/>
<polygon fill="#191970" stroke="#191970" points="991.0001,-158.2455 994.5,-168.2455 998.0001,-158.2456 991.0001,-158.2455"/>
</g>
<!-- Node79 -->
<g id="node22" class="node">
<title>Node79</title>
<g id="a_node22"><a xlink:href="temperature_8_h.html" target="_top" xlink:title="temperature.H">
<polygon fill="#ffffff" stroke="#000000" points="1404.5,-112.5 1404.5,-131.5 1492.5,-131.5 1492.5,-112.5 1404.5,-112.5"/>
<text text-anchor="middle" x="1448.5" y="-119.5" font-family="Helvetica,sans-Serif" font-size="10.00" fill="#000000">temperature.H</text>
</a>
</g>
</g>
<!-- Node58&#45;&gt;Node79 -->
<g id="edge30" class="edge">
<title>Node58&#45;&gt;Node79</title>
<path fill="none" stroke="#191970" d="M1028.4096,-173.8173C1109.4032,-163.8269 1314.0841,-138.5799 1404.4551,-127.4329"/>
<polygon fill="#191970" stroke="#191970" points="1027.7661,-170.3701 1018.2698,-175.068 1028.6231,-177.3174 1027.7661,-170.3701"/>
</g>
<!-- Node81 -->
<g id="node24" class="node">
<title>Node81</title>
<g id="a_node24"><a xlink:href="_t_k_e_8_h.html" target="_top" xlink:title="TKE.H">
<polygon fill="#ffffff" stroke="#000000" points="1193.5,-112.5 1193.5,-131.5 1239.5,-131.5 1239.5,-112.5 1193.5,-112.5"/>
<text text-anchor="middle" x="1216.5" y="-119.5" font-family="Helvetica,sans-Serif" font-size="10.00" fill="#000000">TKE.H</text>
</a>
</g>
</g>
<!-- Node58&#45;&gt;Node81 -->
<g id="edge32" class="edge">
<title>Node58&#45;&gt;Node81</title>
<path fill="none" stroke="#191970" d="M1027.9566,-169.5605C1073.4761,-158.0781 1153.7629,-137.8256 1193.2466,-127.8657"/>
<polygon fill="#191970" stroke="#191970" points="1027.0981,-166.1673 1018.2579,-172.007 1028.8102,-172.9547 1027.0981,-166.1673"/>
</g>
<!-- Node85 -->
<g id="node28" class="node">
<title>Node85</title>
<g id="a_node28"><a xlink:href="vof_8_h.html" target="_top" xlink:title="vof.H">
<polygon fill="#ffffff" stroke="#000000" points="1619.5,-112.5 1619.5,-131.5 1661.5,-131.5 1661.5,-112.5 1619.5,-112.5"/>
<text text-anchor="middle" x="1640.5" y="-119.5" font-family="Helvetica,sans-Serif" font-size="10.00" fill="#000000">vof.H</text>
</a>
</g>
</g>
<!-- Node58&#45;&gt;Node85 -->
<g id="edge40" class="edge">
<title>Node58&#45;&gt;Node85</title>
<path fill="none" stroke="#191970" d="M1028.3461,-175.066C1144.4934,-164.9975 1524.8877,-132.0221 1619.1976,-123.8466"/>
<polygon fill="#191970" stroke="#191970" points="1027.918,-171.5899 1018.2576,-175.9405 1028.5226,-178.5637 1027.918,-171.5899"/>
</g>
<!-- Node60 -->
<g id="node3" class="node">
<title>Node60</title>
<g id="a_node3"><a xlink:href="density_8cpp.html" target="_top" xlink:title="density.cpp">
<polygon fill="#ffffff" stroke="#000000" points="0,-.5 0,-19.5 71,-19.5 71,-.5 0,-.5"/>
<text text-anchor="middle" x="35.5" y="-7.5" font-family="Helvetica,sans-Serif" font-size="10.00" fill="#000000">density.cpp</text>
</a>
</g>
</g>
<!-- Node59&#45;&gt;Node60 -->
<g id="edge2" class="edge">
<title>Node59&#45;&gt;Node60</title>
<path fill="none" stroke="#191970" d="M45.0506,-106.4967C34.7863,-98.7437 24.0697,-88.3631 18.5,-76 9.9462,-57.0129 21.1891,-32.9378 29.0511,-19.745"/>
<polygon fill="#191970" stroke="#191970" points="43.2451,-109.5052 53.4433,-112.377 47.2618,-103.7723 43.2451,-109.5052"/>
</g>
<!-- Node61 -->
<g id="node4" class="node">
<title>Node61</title>
<g id="a_node4"><a xlink:href="density__ops_8_h.html" target="_top" xlink:title="density_ops.H">
<polygon fill="#ffffff" stroke="#000000" points="27.5,-56.5 27.5,-75.5 113.5,-75.5 113.5,-56.5 27.5,-56.5"/>
<text text-anchor="middle" x="70.5" y="-63.5" font-family="Helvetica,sans-Serif" font-size="10.00" fill="#000000">density_ops.H</text>
</a>
</g>
</g>
<!-- Node59&#45;&gt;Node61 -->
<g id="edge3" class="edge">
<title>Node59&#45;&gt;Node61</title>
<path fill="none" stroke="#191970" d="M70.5,-102.1575C70.5,-93.155 70.5,-82.9199 70.5,-75.6427"/>
<polygon fill="#191970" stroke="#191970" points="67.0001,-102.2455 70.5,-112.2455 74.0001,-102.2456 67.0001,-102.2455"/>
</g>
<!-- Node61&#45;&gt;Node60 -->
<g id="edge4" class="edge">
<title>Node61&#45;&gt;Node60</title>
<path fill="none" stroke="#191970" d="M59.0185,-47.6296C53.1804,-38.2887 46.3248,-27.3197 41.5267,-19.6427"/>
<polygon fill="#191970" stroke="#191970" points="56.1354,-49.6206 64.4035,-56.2455 62.0714,-45.9105 56.1354,-49.6206"/>
</g>
<!-- Node63 -->
<g id="node6" class="node">
<title>Node63</title>
<g id="a_node6"><a xlink:href="icns_8cpp.html" target="_top" xlink:title="icns.cpp">
<polygon fill="#ffffff" stroke="#000000" points="276.5,-.5 276.5,-19.5 332.5,-19.5 332.5,-.5 276.5,-.5"/>
<text text-anchor="middle" x="304.5" y="-7.5" font-family="Helvetica,sans-Serif" font-size="10.00" fill="#000000">icns.cpp</text>
</a>
</g>
</g>
<!-- Node62&#45;&gt;Node63 -->
<g id="edge6" class="edge">
<title>Node62&#45;&gt;Node63</title>
<path fill="none" stroke="#191970" d="M373.4473,-120.8287C312.1679,-117.9274 187.1928,-108.1229 160.5,-76 126.5785,-35.1779 225.6502,-18.3951 276.4664,-12.6072"/>
<polygon fill="#191970" stroke="#191970" points="373.6179,-124.3394 383.7613,-121.28 373.9239,-117.3461 373.6179,-124.3394"/>
</g>
<!-- Node64 -->
<g id="node7" class="node">
<title>Node64</title>
<g id="a_node7"><a xlink:href="icns__ops_8_h.html" target="_top" xlink:title="icns_ops.H">
<polygon fill="#ffffff" stroke="#000000" points="170,-56.5 170,-75.5 239,-75.5 239,-56.5 170,-56.5"/>
<text text-anchor="middle" x="204.5" y="-63.5" font-family="Helvetica,sans-Serif" font-size="10.00" fill="#000000">icns_ops.H</text>
</a>
</g>
</g>
<!-- Node62&#45;&gt;Node64 -->
<g id="edge7" class="edge">
<title>Node62&#45;&gt;Node64</title>
<path fill="none" stroke="#191970" d="M373.9486,-112.7445C336.7111,-102.472 276.9085,-85.9748 239.2104,-75.5753"/>
<polygon fill="#191970" stroke="#191970" points="373.2453,-116.1811 383.816,-115.4665 375.1069,-109.4332 373.2453,-116.1811"/>
</g>
<!-- Node65 -->
<g id="node8" class="node">
<title>Node65</title>
<g id="a_node8"><a xlink:href="icns__advection_8_h.html" target="_top" xlink:title="icns_advection.H">
<polygon fill="#ffffff" stroke="#000000" points="463.5,-56.5 463.5,-75.5 563.5,-75.5 563.5,-56.5 463.5,-56.5"/>
<text text-anchor="middle" x="513.5" y="-63.5" font-family="Helvetica,sans-Serif" font-size="10.00" fill="#000000">icns_advection.H</text>
</a>
</g>
</g>
<!-- Node62&#45;&gt;Node65 -->
<g id="edge9" class="edge">
<title>Node62&#45;&gt;Node65</title>
<path fill="none" stroke="#191970" d="M435.0222,-107.46C453.9908,-97.4388 478.6727,-84.3993 495.2478,-75.6427"/>
<polygon fill="#191970" stroke="#191970" points="433.1708,-104.4796 425.9638,-112.2455 436.4407,-110.669 433.1708,-104.4796"/>
</g>
<!-- Node67 -->
<g id="node10" class="node">
<title>Node67</title>
<g id="a_node10"><a xlink:href="icns__diffusion_8_h.html" target="_top" xlink:title="icns_diffusion.H">
<polygon fill="#ffffff" stroke="#000000" points="257.5,-56.5 257.5,-75.5 351.5,-75.5 351.5,-56.5 257.5,-56.5"/>
<text text-anchor="middle" x="304.5" y="-63.5" font-family="Helvetica,sans-Serif" font-size="10.00" fill="#000000">icns_diffusion.H</text>
</a>
</g>
</g>
<!-- Node62&#45;&gt;Node67 -->
<g id="edge12" class="edge">
<title>Node62&#45;&gt;Node67</title>
<path fill="none" stroke="#191970" d="M380.7568,-107.46C362.325,-97.4388 338.3416,-84.3993 322.2356,-75.6427"/>
<polygon fill="#191970" stroke="#191970" points="379.1015,-110.5438 389.5588,-112.2455 382.4451,-104.394 379.1015,-110.5438"/>
</g>
<!-- Node68 -->
<g id="node11" class="node">
<title>Node68</title>
<g id="a_node11"><a xlink:href="icns__bcop_8_h.html" target="_top" xlink:title="icns_bcop.H">
<polygon fill="#ffffff" stroke="#000000" points="370,-56.5 370,-75.5 445,-75.5 445,-56.5 370,-56.5"/>
<text text-anchor="middle" x="407.5" y="-63.5" font-family="Helvetica,sans-Serif" font-size="10.00" fill="#000000">icns_bcop.H</text>
</a>
</g>
</g>
<!-- Node62&#45;&gt;Node68 -->
<g id="edge14" class="edge">
<title>Node62&#45;&gt;Node68</title>
<path fill="none" stroke="#191970" d="M407.5,-102.1575C407.5,-93.155 407.5,-82.9199 407.5,-75.6427"/>
<polygon fill="#191970" stroke="#191970" points="404.0001,-102.2455 407.5,-112.2455 411.0001,-102.2456 404.0001,-102.2455"/>
</g>
<!-- Node69 -->
<g id="node12" class="node">
<title>Node69</title>
<g id="a_node12"><a xlink:href="_power_law_profile_8cpp.html" target="_top" xlink:title="PowerLawProfile.cpp">
<polygon fill="#ffffff" stroke="#000000" points="582,-56.5 582,-75.5 699,-75.5 699,-56.5 582,-56.5"/>
<text text-anchor="middle" x="640.5" y="-63.5" font-family="Helvetica,sans-Serif" font-size="10.00" fill="#000000">PowerLawProfile.cpp</text>
</a>
</g>
</g>
<!-- Node62&#45;&gt;Node69 -->
<g id="edge16" class="edge">
<title>Node62&#45;&gt;Node69</title>
<path fill="none" stroke="#191970" d="M440.9305,-113.9652C483.2183,-103.8016 555.9385,-86.3238 600.9448,-75.5068"/>
<polygon fill="#191970" stroke="#191970" points="440.0287,-110.5822 431.1235,-116.3222 441.6646,-117.3884 440.0287,-110.5822"/>
</g>
<!-- Node64&#45;&gt;Node63 -->
<g id="edge8" class="edge">
<title>Node64&#45;&gt;Node63</title>
<path fill="none" stroke="#191970" d="M230.7098,-51.3225C248.5717,-41.3198 271.7155,-28.3593 287.2809,-19.6427"/>
<polygon fill="#191970" stroke="#191970" points="228.9336,-48.3057 221.9187,-56.2455 232.3539,-54.4132 228.9336,-48.3057"/>
</g>
<!-- Node65&#45;&gt;Node63 -->
<g id="edge10" class="edge">
<title>Node65&#45;&gt;Node63</title>
<path fill="none" stroke="#191970" d="M467.767,-53.7462C426.5417,-42.7002 367.2363,-26.8097 332.6053,-17.5306"/>
<polygon fill="#191970" stroke="#191970" points="467.0065,-57.1658 477.5716,-56.3733 468.8182,-50.4043 467.0065,-57.1658"/>
</g>
<!-- Node66 -->
<g id="node9" class="node">
<title>Node66</title>
<g id="a_node9"><a xlink:href="icns__advection_8cpp.html" target="_top" xlink:title="icns_advection.cpp">
<polygon fill="#ffffff" stroke="#000000" points="458.5,-.5 458.5,-19.5 568.5,-19.5 568.5,-.5 458.5,-.5"/>
<text text-anchor="middle" x="513.5" y="-7.5" font-family="Helvetica,sans-Serif" font-size="10.00" fill="#000000">icns_advection.cpp</text>
</a>
</g>
</g>
<!-- Node65&#45;&gt;Node66 -->
<g id="edge11" class="edge">
<title>Node65&#45;&gt;Node66</title>
<path fill="none" stroke="#191970" d="M513.5,-46.1575C513.5,-37.155 513.5,-26.9199 513.5,-19.6427"/>
<polygon fill="#191970" stroke="#191970" points="510.0001,-46.2455 513.5,-56.2455 517.0001,-46.2456 510.0001,-46.2455"/>
</g>
<!-- Node67&#45;&gt;Node63 -->
<g id="edge13" class="edge">
<title>Node67&#45;&gt;Node63</title>
<path fill="none" stroke="#191970" d="M304.5,-46.1575C304.5,-37.155 304.5,-26.9199 304.5,-19.6427"/>
<polygon fill="#191970" stroke="#191970" points="301.0001,-46.2455 304.5,-56.2455 308.0001,-46.2456 301.0001,-46.2455"/>
</g>
<!-- Node68&#45;&gt;Node63 -->
<g id="edge15" class="edge">
<title>Node68&#45;&gt;Node63</title>
<path fill="none" stroke="#191970" d="M380.7568,-51.46C362.325,-41.4388 338.3416,-28.3993 322.2356,-19.6427"/>
<polygon fill="#191970" stroke="#191970" points="379.1015,-54.5438 389.5588,-56.2455 382.4451,-48.394 379.1015,-54.5438"/>
</g>
<!-- Node71 -->
<g id="node14" class="node">
<title>Node71</title>
<g id="a_node14"><a xlink:href="levelset_8cpp.html" target="_top" xlink:title="levelset.cpp">
<polygon fill="#ffffff" stroke="#000000" points="725.5,-.5 725.5,-19.5 801.5,-19.5 801.5,-.5 725.5,-.5"/>
<text text-anchor="middle" x="763.5" y="-7.5" font-family="Helvetica,sans-Serif" font-size="10.00" fill="#000000">levelset.cpp</text>
</a>
</g>
</g>
<!-- Node70&#45;&gt;Node71 -->
<g id="edge18" class="edge">
<title>Node70&#45;&gt;Node71</title>
<path fill="none" stroke="#191970" d="M774.1905,-106.7686C763.5069,-99.0472 752.3259,-88.616 746.5,-76 737.7693,-57.0936 749.0784,-32.9882 756.9993,-19.7686"/>
<polygon fill="#191970" stroke="#191970" points="772.2858,-109.7054 782.5401,-112.3701 776.1856,-103.8924 772.2858,-109.7054"/>
</g>
<!-- Node72 -->
<g id="node15" class="node">
<title>Node72</title>
<g id="a_node15"><a xlink:href="levelset__ops_8_h.html" target="_top" xlink:title="levelset_ops.H">
<polygon fill="#ffffff" stroke="#000000" points="756,-56.5 756,-75.5 845,-75.5 845,-56.5 756,-56.5"/>
<text text-anchor="middle" x="800.5" y="-63.5" font-family="Helvetica,sans-Serif" font-size="10.00" fill="#000000">levelset_ops.H</text>
</a>
</g>
</g>
<!-- Node70&#45;&gt;Node72 -->
<g id="edge19" class="edge">
<title>Node70&#45;&gt;Node72</title>
<path fill="none" stroke="#191970" d="M800.5,-102.1575C800.5,-93.155 800.5,-82.9199 800.5,-75.6427"/>
<polygon fill="#191970" stroke="#191970" points="797.0001,-102.2455 800.5,-112.2455 804.0001,-102.2456 797.0001,-102.2455"/>
</g>
<!-- Node72&#45;&gt;Node71 -->
<g id="edge20" class="edge">
<title>Node72&#45;&gt;Node71</title>
<path fill="none" stroke="#191970" d="M788.3624,-47.6296C782.1907,-38.2887 774.9434,-27.3197 769.8711,-19.6427"/>
<polygon fill="#191970" stroke="#191970" points="785.6223,-49.8316 794.0551,-56.2455 791.4627,-45.9728 785.6223,-49.8316"/>
</g>
<!-- Node74 -->
<g id="node17" class="node">
<title>Node74</title>
<g id="a_node17"><a xlink:href="_s_d_r_8cpp.html" target="_top" xlink:title="SDR.cpp">
<polygon fill="#ffffff" stroke="#000000" points="870,-.5 870,-19.5 927,-19.5 927,-.5 870,-.5"/>
<text text-anchor="middle" x="898.5" y="-7.5" font-family="Helvetica,sans-Serif" font-size="10.00" fill="#000000">SDR.cpp</text>
</a>
</g>
</g>
<!-- Node73&#45;&gt;Node74 -->
<g id="edge22" class="edge">
<title>Node73&#45;&gt;Node74</title>
<path fill="none" stroke="#191970" d="M979.7928,-104.8416C959.3053,-80.9396 922.8712,-38.433 906.6642,-19.5249"/>
<polygon fill="#191970" stroke="#191970" points="977.1497,-107.1361 986.3151,-112.4509 982.4646,-102.5806 977.1497,-107.1361"/>
</g>
<!-- Node75 -->
<g id="node18" class="node">
<title>Node75</title>
<g id="a_node18"><a xlink:href="sdr__ops_8_h.html" target="_top" xlink:title="sdr_ops.H">
<polygon fill="#ffffff" stroke="#000000" points="863,-56.5 863,-75.5 928,-75.5 928,-56.5 863,-56.5"/>
<text text-anchor="middle" x="895.5" y="-63.5" font-family="Helvetica,sans-Serif" font-size="10.00" fill="#000000">sdr_ops.H</text>
</a>
</g>
</g>
<!-- Node73&#45;&gt;Node75 -->
<g id="edge23" class="edge">
<title>Node73&#45;&gt;Node75</title>
<path fill="none" stroke="#191970" d="M968.0643,-107.0465C950.4492,-97.0824 927.8153,-84.2794 912.5469,-75.6427"/>
<polygon fill="#191970" stroke="#191970" points="966.8283,-110.3684 977.2555,-112.2455 970.2747,-104.2756 966.8283,-110.3684"/>
</g>
<!-- Node76 -->
<g id="node19" class="node">
<title>Node76</title>
<g id="a_node19"><a xlink:href="_k_omega_s_s_t_i_8_h.html" target="_top" xlink:title="KOmegaSSTI.H">
<polygon fill="#ffffff" stroke="#000000" points="1023,-56.5 1023,-75.5 1112,-75.5 1112,-56.5 1023,-56.5"/>
<text text-anchor="middle" x="1067.5" y="-63.5" font-family="Helvetica,sans-Serif" font-size="10.00" fill="#000000">KOmegaSSTI.H</text>
</a>
</g>
</g>
<!-- Node73&#45;&gt;Node76 -->
<g id="edge25" class="edge">
<title>Node73&#45;&gt;Node76</title>
<path fill="none" stroke="#191970" d="M1015.451,-105.928C1028.2107,-96.1397 1044.0885,-83.9595 1054.9301,-75.6427"/>
<polygon fill="#191970" stroke="#191970" points="1013.0196,-103.3819 1007.2156,-112.2455 1017.2803,-108.9359 1013.0196,-103.3819"/>
</g>
<!-- Node77 -->
<g id="node20" class="node">
<title>Node77</title>
<g id="a_node20"><a xlink:href="_k_omega_s_s_t_8cpp.html" target="_top" xlink:title="KOmegaSST.cpp">
<polygon fill="#ffffff" stroke="#000000" points="1103,-.5 1103,-19.5 1198,-19.5 1198,-.5 1103,-.5"/>
<text text-anchor="middle" x="1150.5" y="-7.5" font-family="Helvetica,sans-Serif" font-size="10.00" fill="#000000">KOmegaSST.cpp</text>
</a>
</g>
</g>
<!-- Node73&#45;&gt;Node77 -->
<g id="edge28" class="edge">
<title>Node73&#45;&gt;Node77</title>
<path fill="none" stroke="#191970" d="M1028.3169,-117.0635C1056.0936,-111.4268 1094.8974,-99.7133 1120.5,-76 1137.1215,-60.605 1145.2006,-34.2298 1148.5326,-19.9264"/>
<polygon fill="#191970" stroke="#191970" points="1027.4505,-113.6647 1018.2616,-118.9387 1028.7338,-120.546 1027.4505,-113.6647"/>
</g>
<!-- Node78 -->
<g id="node21" class="node">
<title>Node78</title>
<g id="a_node21"><a xlink:href="_k_omega_s_s_t_i_d_d_e_s_8cpp.html" target="_top" xlink:title="KOmegaSSTIDDES.cpp">
<polygon fill="#ffffff" stroke="#000000" points="958.5,-.5 958.5,-19.5 1084.5,-19.5 1084.5,-.5 958.5,-.5"/>
<text text-anchor="middle" x="1021.5" y="-7.5" font-family="Helvetica,sans-Serif" font-size="10.00" fill="#000000">KOmegaSSTIDDES.cpp</text>
</a>
</g>
</g>
<!-- Node73&#45;&gt;Node78 -->
<g id="edge29" class="edge">
<title>Node73&#45;&gt;Node78</title>
<path fill="none" stroke="#191970" d="M999.1771,-102.5987C1005.0196,-78.363 1014.7849,-37.8551 1019.2038,-19.5249"/>
<polygon fill="#191970" stroke="#191970" points="995.7431,-101.9092 996.802,-112.4509 1002.5482,-103.5497 995.7431,-101.9092"/>
</g>
<!-- Node75&#45;&gt;Node74 -->
<g id="edge24" class="edge">
<title>Node75&#45;&gt;Node74</title>
<path fill="none" stroke="#191970" d="M896.563,-46.1575C897.0453,-37.155 897.5936,-26.9199 897.9834,-19.6427"/>
<polygon fill="#191970" stroke="#191970" points="893.0626,-46.0726 896.0226,-56.2455 900.0526,-46.4471 893.0626,-46.0726"/>
</g>
<!-- Node76&#45;&gt;Node77 -->
<g id="edge26" class="edge">
<title>Node76&#45;&gt;Node77</title>
<path fill="none" stroke="#191970" d="M1090.488,-50.49C1105.1322,-40.6096 1123.6444,-28.1194 1136.2082,-19.6427"/>
<polygon fill="#191970" stroke="#191970" points="1088.2896,-47.7511 1081.9575,-56.2455 1092.2047,-53.5539 1088.2896,-47.7511"/>
</g>
<!-- Node76&#45;&gt;Node78 -->
<g id="edge27" class="edge">
<title>Node76&#45;&gt;Node78</title>
<path fill="none" stroke="#191970" d="M1053.1253,-48.5004C1045.3029,-38.9775 1035.924,-27.5596 1029.4208,-19.6427"/>
<polygon fill="#191970" stroke="#191970" points="1050.4354,-50.7399 1059.4874,-56.2455 1055.8445,-46.2967 1050.4354,-50.7399"/>
</g>
<!-- Node80 -->
<g id="node23" class="node">
<title>Node80</title>
<g id="a_node23"><a xlink:href="temperature_8cpp.html" target="_top" xlink:title="temperature.cpp">
<polygon fill="#ffffff" stroke="#000000" points="1476.5,-56.5 1476.5,-75.5 1574.5,-75.5 1574.5,-56.5 1476.5,-56.5"/>
<text text-anchor="middle" x="1525.5" y="-63.5" font-family="Helvetica,sans-Serif" font-size="10.00" fill="#000000">temperature.cpp</text>
</a>
</g>
</g>
<!-- Node79&#45;&gt;Node80 -->
<g id="edge31" class="edge">
<title>Node79&#45;&gt;Node80</title>
<path fill="none" stroke="#191970" d="M1470.2116,-106.2097C1483.7353,-96.3743 1500.6958,-84.0394 1512.2413,-75.6427"/>
<polygon fill="#191970" stroke="#191970" points="1467.9411,-103.5332 1461.9124,-112.2455 1472.0584,-109.1944 1467.9411,-103.5332"/>
</g>
<!-- Node81&#45;&gt;Node76 -->
<g id="edge37" class="edge">
<title>Node81&#45;&gt;Node76</title>
<path fill="none" stroke="#191970" d="M1183.6846,-109.6667C1156.3252,-99.384 1117.9055,-84.9443 1092.8602,-75.5314"/>
<polygon fill="#191970" stroke="#191970" points="1182.6267,-113.0081 1193.2188,-113.25 1185.0894,-106.4556 1182.6267,-113.0081"/>
</g>
<!-- Node81&#45;&gt;Node77 -->
<g id="edge38" class="edge">
<title>Node81&#45;&gt;Node77</title>
<path fill="none" stroke="#191970" d="M1211.5322,-102.2914C1207.5867,-88.6769 1201.2689,-70.4847 1192.5,-56 1183.9873,-41.9385 1170.7768,-28.3582 1161.4482,-19.6449"/>
<polygon fill="#191970" stroke="#191970" points="1208.1896,-103.338 1214.1894,-112.0704 1214.9447,-101.5025 1208.1896,-103.338"/>
</g>
<!-- Node81&#45;&gt;Node78 -->
<g id="edge39" class="edge">
<title>Node81&#45;&gt;Node78</title>
<path fill="none" stroke="#191970" d="M1195.6827,-106.1772C1176.6693,-92.0966 1147.4924,-71.4057 1120.5,-56 1095.4807,-41.7205 1065.2705,-28.1811 1044.8538,-19.537"/>
<polygon fill="#191970" stroke="#191970" points="1193.7976,-109.1379 1203.9025,-112.3225 1197.9891,-103.5315 1193.7976,-109.1379"/>
</g>
<!-- Node82 -->
<g id="node25" class="node">
<title>Node82</title>
<g id="a_node25"><a xlink:href="_t_k_e_8cpp.html" target="_top" xlink:title="TKE.cpp">
<polygon fill="#ffffff" stroke="#000000" points="1311.5,-.5 1311.5,-19.5 1367.5,-19.5 1367.5,-.5 1311.5,-.5"/>
<text text-anchor="middle" x="1339.5" y="-7.5" font-family="Helvetica,sans-Serif" font-size="10.00" fill="#000000">TKE.cpp</text>
</a>
</g>
</g>
<!-- Node81&#45;&gt;Node82 -->
<g id="edge33" class="edge">
<title>Node81&#45;&gt;Node82</title>
<path fill="none" stroke="#191970" d="M1229.93,-104.1168C1240.8468,-90.1893 1257.0792,-70.801 1273.5,-56 1289.2691,-41.7864 1309.58,-28.2346 1323.4801,-19.5696"/>
<polygon fill="#191970" stroke="#191970" points="1226.8985,-102.3174 1223.5751,-112.3775 1232.4467,-106.5856 1226.8985,-102.3174"/>
</g>
<!-- Node83 -->
<g id="node26" class="node">
<title>Node83</title>
<g id="a_node26"><a xlink:href="tke__ops_8_h.html" target="_top" xlink:title="tke_ops.H">
<polygon fill="#ffffff" stroke="#000000" points="1393,-56.5 1393,-75.5 1458,-75.5 1458,-56.5 1393,-56.5"/>
<text text-anchor="middle" x="1425.5" y="-63.5" font-family="Helvetica,sans-Serif" font-size="10.00" fill="#000000">tke_ops.H</text>
</a>
</g>
</g>
<!-- Node81&#45;&gt;Node83 -->
<g id="edge34" class="edge">
<title>Node81&#45;&gt;Node83</title>
<path fill="none" stroke="#191970" d="M1249.5391,-113.1474C1288.819,-102.6227 1353.9528,-85.1705 1392.9961,-74.7092"/>
<polygon fill="#191970" stroke="#191970" points="1248.4186,-109.8241 1239.6652,-115.7931 1250.2304,-116.5856 1248.4186,-109.8241"/>
</g>
<!-- Node84 -->
<g id="node27" class="node">
<title>Node84</title>
<g id="a_node27"><a xlink:href="_one_eq_ksgs_8cpp.html" target="_top" xlink:title="OneEqKsgs.cpp">
<polygon fill="#ffffff" stroke="#000000" points="1282.5,-56.5 1282.5,-75.5 1374.5,-75.5 1374.5,-56.5 1282.5,-56.5"/>
<text text-anchor="middle" x="1328.5" y="-63.5" font-family="Helvetica,sans-Serif" font-size="10.00" fill="#000000">OneEqKsgs.cpp</text>
</a>
</g>
</g>
<!-- Node81&#45;&gt;Node84 -->
<g id="edge36" class="edge">
<title>Node81&#45;&gt;Node84</title>
<path fill="none" stroke="#191970" d="M1244.8263,-107.8368C1265.0721,-97.7139 1291.7642,-84.3679 1309.4978,-75.5011"/>
<polygon fill="#191970" stroke="#191970" points="1243.1325,-104.7706 1235.7535,-112.3733 1246.263,-111.0316 1243.1325,-104.7706"/>
</g>
<!-- Node83&#45;&gt;Node82 -->
<g id="edge35" class="edge">
<title>Node83&#45;&gt;Node82</title>
<path fill="none" stroke="#191970" d="M1402.1095,-50.769C1386.8701,-40.8456 1367.4491,-28.1994 1354.3084,-19.6427"/>
<polygon fill="#191970" stroke="#191970" points="1400.2301,-53.7218 1410.5199,-56.2455 1404.0498,-47.8558 1400.2301,-53.7218"/>
</g>
<!-- Node86 -->
<g id="node29" class="node">
<title>Node86</title>
<g id="a_node29"><a xlink:href="vof_8cpp.html" target="_top" xlink:title="vof.cpp">
<polygon fill="#ffffff" stroke="#000000" points="1652.5,-.5 1652.5,-19.5 1704.5,-19.5 1704.5,-.5 1652.5,-.5"/>
<text text-anchor="middle" x="1678.5" y="-7.5" font-family="Helvetica,sans-Serif" font-size="10.00" fill="#000000">vof.cpp</text>
</a>
</g>
</g>
<!-- Node85&#45;&gt;Node86 -->
<g id="edge41" class="edge">
<title>Node85&#45;&gt;Node86</title>
<path fill="none" stroke="#191970" d="M1628.15,-103.3728C1620.8075,-89.8137 1614.2172,-71.2358 1621.5,-56 1629.2875,-39.7083 1645.9734,-27.337 1659.29,-19.5495"/>
<polygon fill="#191970" stroke="#191970" points="1625.3114,-105.4462 1633.4418,-112.2394 1631.3223,-101.8587 1625.3114,-105.4462"/>
</g>
<!-- Node87 -->
<g id="node30" class="node">
<title>Node87</title>
<g id="a_node30"><a xlink:href="vof__advection_8_h.html" target="_top" xlink:title="vof_advection.H">
<polygon fill="#ffffff" stroke="#000000" points="1630.5,-56.5 1630.5,-75.5 1726.5,-75.5 1726.5,-56.5 1630.5,-56.5"/>
<text text-anchor="middle" x="1678.5" y="-63.5" font-family="Helvetica,sans-Serif" font-size="10.00" fill="#000000">vof_advection.H</text>
</a>
</g>
</g>
<!-- Node85&#45;&gt;Node87 -->
<g id="edge42" class="edge">
<title>Node85&#45;&gt;Node87</title>
<path fill="none" stroke="#191970" d="M1652.7679,-103.9209C1659.1488,-94.5176 1666.6931,-83.3997 1671.9568,-75.6427"/>
<polygon fill="#191970" stroke="#191970" points="1649.838,-102.0055 1647.1191,-112.2455 1655.6303,-105.936 1649.838,-102.0055"/>
</g>
<!-- Node88 -->
<g id="node31" class="node">
<title>Node88</title>
<g id="a_node31"><a xlink:href="vof__ops_8_h.html" target="_top" xlink:title="vof_ops.H">
<polygon fill="#ffffff" stroke="#000000" points="1745,-56.5 1745,-75.5 1810,-75.5 1810,-56.5 1745,-56.5"/>
<text text-anchor="middle" x="1777.5" y="-63.5" font-family="Helvetica,sans-Serif" font-size="10.00" fill="#000000">vof_ops.H</text>
</a>
</g>
</g>
<!-- Node85&#45;&gt;Node88 -->
<g id="edge44" class="edge">
<title>Node85&#45;&gt;Node88</title>
<path fill="none" stroke="#191970" d="M1670.9917,-109.5362C1696.0016,-99.3132 1730.9021,-85.0473 1753.8392,-75.6716"/>
<polygon fill="#191970" stroke="#191970" points="1669.5382,-106.3492 1661.606,-113.3727 1672.1869,-112.8288 1669.5382,-106.3492"/>
</g>
<!-- Node87&#45;&gt;Node86 -->
<g id="edge43" class="edge">
<title>Node87&#45;&gt;Node86</title>
<path fill="none" stroke="#191970" d="M1678.5,-46.1575C1678.5,-37.155 1678.5,-26.9199 1678.5,-19.6427"/>
<polygon fill="#191970" stroke="#191970" points="1675.0001,-46.2455 1678.5,-56.2455 1682.0001,-46.2456 1675.0001,-46.2455"/>
</g>
<!-- Node88&#45;&gt;Node86 -->
<g id="edge45" class="edge">
<title>Node88&#45;&gt;Node86</title>
<path fill="none" stroke="#191970" d="M1751.0643,-51.0465C1733.4492,-41.0824 1710.8153,-28.2794 1695.5469,-19.6427"/>
<polygon fill="#191970" stroke="#191970" points="1749.8283,-54.3684 1760.2555,-56.2455 1753.2747,-48.2756 1749.8283,-54.3684"/>
</g>
</g>
</svg>
        <g id="navigator" transform="translate(0 0)" fill="#404254">
                <rect fill="#f2f5e9" fill-opacity="0.5" stroke="#606060" stroke-width=".5" x="0" y="0" width="60" height="60"/>
                <use id="zoomplus" xlink:href="#zoomPlus" x="17" y="9" onmousedown="handleZoom(evt,'in')"/>
                <use id="zoomminus" xlink:href="#zoomMin" x="42" y="9" onmousedown="handleZoom(evt,'out')"/>
                <use id="reset" xlink:href="#resetDef" x="30" y="36" onmousedown="handleReset()"/>
                <g id="arrowUp" xlink:href="#dirArrow" transform="translate(30 24)" onmousedown="handlePan(0,-1)">
                  <use xlink:href="#rim" fill="#404040">
                        <set attributeName="fill" to="#808080" begin="arrowUp.mouseover" end="arrowUp.mouseout"/>
                  </use>
                  <path fill="none" stroke="white" stroke-width="1.5" d="M0,-3.0v7 M-2.5,-0.5L0,-3.0L2.5,-0.5"/>
                </g>
                <g id="arrowRight" xlink:href="#dirArrow" transform="rotate(90) translate(36 -43)" onmousedown="handlePan(1,0)">
                  <use xlink:href="#rim" fill="#404040">
                        <set attributeName="fill" to="#808080" begin="arrowRight.mouseover" end="arrowRight.mouseout"/>
                  </use>
                  <path fill="none" stroke="white" stroke-width="1.5" d="M0,-3.0v7 M-2.5,-0.5L0,-3.0L2.5,-0.5"/>
                </g>
                <g id="arrowDown" xlink:href="#dirArrow" transform="rotate(180) translate(-30 -48)" onmousedown="handlePan(0,1)">
                  <use xlink:href="#rim" fill="#404040">
                        <set attributeName="fill" to="#808080" begin="arrowDown.mouseover" end="arrowDown.mouseout"/>
                  </use>
                  <path fill="none" stroke="white" stroke-width="1.5" d="M0,-3.0v7 M-2.5,-0.5L0,-3.0L2.5,-0.5"/>
                </g>
                <g id="arrowLeft" xlink:href="#dirArrow" transform="rotate(270) translate(-36 17)" onmousedown="handlePan(-1,0)">
                  <use xlink:href="#rim" fill="#404040">
                        <set attributeName="fill" to="#808080" begin="arrowLeft.mouseover" end="arrowLeft.mouseout"/>
                  </use>
                  <path fill="none" stroke="white" stroke-width="1.5" d="M0,-3.0v7 M-2.5,-0.5L0,-3.0L2.5,-0.5"/>
                </g>
        </g>
        <svg viewBox="0 0 15 15" width="100%" height="30px" preserveAspectRatio="xMaxYMin meet">
         <g id="arrow_out" transform="scale(0.3 0.3)">
          <a xlink:href="_p_d_e_8_h__dep__incl_org.svg" target="_base">
           <rect id="button" ry="5" rx="5" y="6" x="6" height="38" width="38"
                fill="#f2f5e9" fill-opacity="0.5" stroke="#606060" stroke-width="1.0"/>
           <path id="arrow"
             d="M 11.500037,31.436501 C 11.940474,20.09759 22.043105,11.32322 32.158766,21.979434 L 37.068811,17.246167 C 37.068811,17.246167 37.088388,32 37.088388,32 L 22.160133,31.978069 C 22.160133,31.978069 26.997745,27.140456 26.997745,27.140456 C 18.528582,18.264221 13.291696,25.230495 11.500037,31.436501 z"
             style="fill:#404040;"/>
          </a>
         </g>
        </svg>
</svg>
