<?xml version="1.0" encoding="UTF-8" standalone="no"?>
<!DOCTYPE svg PUBLIC "-//W3C//DTD SVG 1.1//EN"
 "http://www.w3.org/Graphics/SVG/1.1/DTD/svg11.dtd">
<!-- Generated by graphviz version 2.40.1 (20161225.0304)
 -->
<!-- Title: PDEBase.H Pages: 1 -->
<svg width="975pt" height="151pt"
 viewBox="0.00 0.00 975.00 151.00" xmlns="http://www.w3.org/2000/svg" xmlns:xlink="http://www.w3.org/1999/xlink">
<g id="graph0" class="graph" transform="scale(1 1) rotate(0) translate(4 147)">
<title>PDEBase.H</title>
<polygon fill="#ffffff" stroke="transparent" points="-4,4 -4,-147 971,-147 971,4 -4,4"/>
<!-- Node0 -->
<g id="node1" class="node">
<title>Node0</title>
<polygon fill="#bfbfbf" stroke="#000000" points="421.5,-123.5 421.5,-142.5 492.5,-142.5 492.5,-123.5 421.5,-123.5"/>
<text text-anchor="middle" x="457" y="-130.5" font-family="Helvetica,sans-Serif" font-size="10.00" fill="#000000">PDEBase.H</text>
</g>
<!-- Node1 -->
<g id="node2" class="node">
<title>Node1</title>
<polygon fill="#ffffff" stroke="#bfbfbf" points="0,-.5 0,-19.5 44,-19.5 44,-.5 0,-.5"/>
<text text-anchor="middle" x="22" y="-7.5" font-family="Helvetica,sans-Serif" font-size="10.00" fill="#000000">string</text>
</g>
<!-- Node0&#45;&gt;Node1 -->
<g id="edge1" class="edge">
<title>Node0&#45;&gt;Node1</title>
<path fill="none" stroke="#191970" d="M421.305,-130.2073C347.5316,-124.0798 180.7473,-108.287 128,-87 93.1177,-72.9227 59.0681,-44.9002 39.3321,-26.8242"/>
<polygon fill="#191970" stroke="#191970" points="41.4796,-24.04 31.7895,-19.756 36.6931,-29.1478 41.4796,-24.04"/>
</g>
<!-- Node2 -->
<g id="node3" class="node">
<title>Node2</title>
<g id="a_node3"><a xlink:href="_factory_8_h.html" target="_top" xlink:title="amr&#45;wind/core/Factory.H">
<polygon fill="#ffffff" stroke="#000000" points="309,-62 309,-81 443,-81 443,-62 309,-62"/>
<text text-anchor="middle" x="376" y="-69" font-family="Helvetica,sans-Serif" font-size="10.00" fill="#000000">amr&#45;wind/core/Factory.H</text>
</a>
</g>
</g>
<!-- Node0&#45;&gt;Node2 -->
<g id="edge2" class="edge">
<title>Node0&#45;&gt;Node2</title>
<path fill="none" stroke="#191970" d="M444.3438,-123.3906C431.6232,-113.7324 411.7996,-98.6812 396.7716,-87.271"/>
<polygon fill="#191970" stroke="#191970" points="398.6484,-84.3015 388.5674,-81.0419 394.4154,-89.8766 398.6484,-84.3015"/>
</g>
<!-- Node8 -->
<g id="node9" class="node">
<title>Node8</title>
<g id="a_node9"><a xlink:href="_coll_mgr_8_h.html" target="_top" xlink:title="amr&#45;wind/core/CollMgr.H">
<polygon fill="#ffffff" stroke="#000000" points="137,-62 137,-81 273,-81 273,-62 137,-62"/>
<text text-anchor="middle" x="205" y="-69" font-family="Helvetica,sans-Serif" font-size="10.00" fill="#000000">amr&#45;wind/core/CollMgr.H</text>
</a>
</g>
</g>
<!-- Node0&#45;&gt;Node8 -->
<g id="edge8" class="edge">
<title>Node0&#45;&gt;Node8</title>
<path fill="none" stroke="#191970" d="M421.429,-124.319C377.6391,-113.6322 303.0501,-95.4289 253.8956,-83.4329"/>
<polygon fill="#191970" stroke="#191970" points="254.6616,-80.0171 244.1168,-81.0464 253.0019,-86.8175 254.6616,-80.0171"/>
</g>
<!-- Node10 -->
<g id="node11" class="node">
<title>Node10</title>
<g id="a_node11"><a xlink:href="_p_d_e_fields_8_h.html" target="_top" xlink:title="amr&#45;wind/equation_systems\l/PDEFields.H">
<polygon fill="#ffffff" stroke="#000000" points="461.5,-56.5 461.5,-86.5 616.5,-86.5 616.5,-56.5 461.5,-56.5"/>
<text text-anchor="start" x="469.5" y="-74.5" font-family="Helvetica,sans-Serif" font-size="10.00" fill="#000000">amr&#45;wind/equation_systems</text>
<text text-anchor="middle" x="539" y="-63.5" font-family="Helvetica,sans-Serif" font-size="10.00" fill="#000000">/PDEFields.H</text>
</a>
</g>
</g>
<!-- Node0&#45;&gt;Node10 -->
<g id="edge13" class="edge">
<title>Node0&#45;&gt;Node10</title>
<path fill="none" stroke="#191970" d="M469.8125,-123.3906C480.7047,-115.2215 496.7412,-103.1941 510.6331,-92.7752"/>
<polygon fill="#191970" stroke="#191970" points="513.0405,-95.3446 518.9405,-86.5446 508.8405,-89.7446 513.0405,-95.3446"/>
</g>
<!-- Node12 -->
<g id="node13" class="node">
<title>Node12</title>
<g id="a_node13"><a xlink:href="_field_desc_types_8_h.html" target="_top" xlink:title="amr&#45;wind/core/FieldDescTypes.H">
<polygon fill="#ffffff" stroke="#000000" points="635,-62 635,-81 809,-81 809,-62 635,-62"/>
<text text-anchor="middle" x="722" y="-69" font-family="Helvetica,sans-Serif" font-size="10.00" fill="#000000">amr&#45;wind/core/FieldDescTypes.H</text>
</a>
</g>
</g>
<!-- Node0&#45;&gt;Node12 -->
<g id="edge15" class="edge">
<title>Node0&#45;&gt;Node12</title>
<path fill="none" stroke="#191970" d="M492.7391,-124.7058C538.6612,-114.0484 618.679,-95.4783 670.9911,-83.3379"/>
<polygon fill="#191970" stroke="#191970" points="671.7939,-86.7447 680.7438,-81.0746 670.2114,-79.9259 671.7939,-86.7447"/>
</g>
<!-- Node13 -->
<g id="node14" class="node">
<title>Node13</title>
<g id="a_node14"><a xlink:href="incflo__enums_8_h.html" target="_top" xlink:title="amr&#45;wind/incflo_enums.H">
<polygon fill="#ffffff" stroke="#000000" points="827,-62 827,-81 967,-81 967,-62 827,-62"/>
<text text-anchor="middle" x="897" y="-69" font-family="Helvetica,sans-Serif" font-size="10.00" fill="#000000">amr&#45;wind/incflo_enums.H</text>
</a>
</g>
</g>
<!-- Node0&#45;&gt;Node13 -->
<g id="edge16" class="edge">
<title>Node0&#45;&gt;Node13</title>
<path fill="none" stroke="#191970" d="M492.7253,-129.2509C557.6696,-122.2571 699.3393,-106.1788 818,-87 825.4831,-85.7905 833.3412,-84.3979 841.0796,-82.9539"/>
<polygon fill="#191970" stroke="#191970" points="841.9735,-86.3466 851.1419,-81.0372 840.6636,-79.4703 841.9735,-86.3466"/>
</g>
<!-- Node3 -->
<g id="node4" class="node">
<title>Node3</title>
<polygon fill="#ffffff" stroke="#bfbfbf" points="176,-.5 176,-19.5 234,-19.5 234,-.5 176,-.5"/>
<text text-anchor="middle" x="205" y="-7.5" font-family="Helvetica,sans-Serif" font-size="10.00" fill="#000000">memory</text>
</g>
<!-- Node2&#45;&gt;Node3 -->
<g id="edge3" class="edge">
<title>Node2&#45;&gt;Node3</title>
<path fill="none" stroke="#191970" d="M349.2813,-61.8906C320.1679,-51.42 273.4308,-34.6111 241.0753,-22.9745"/>
<polygon fill="#191970" stroke="#191970" points="242.1256,-19.6328 231.5311,-19.5419 239.7565,-26.2197 242.1256,-19.6328"/>
</g>
<!-- Node4 -->
<g id="node5" class="node">
<title>Node4</title>
<polygon fill="#ffffff" stroke="#bfbfbf" points="252.5,-.5 252.5,-19.5 345.5,-19.5 345.5,-.5 252.5,-.5"/>
<text text-anchor="middle" x="299" y="-7.5" font-family="Helvetica,sans-Serif" font-size="10.00" fill="#000000">unordered_map</text>
</g>
<!-- Node2&#45;&gt;Node4 -->
<g id="edge4" class="edge">
<title>Node2&#45;&gt;Node4</title>
<path fill="none" stroke="#191970" d="M363.9688,-61.8906C351.9893,-52.3227 333.3834,-37.4621 319.1475,-26.0919"/>
<polygon fill="#191970" stroke="#191970" points="320.9447,-23.0479 310.9468,-19.5419 316.5761,-28.5175 320.9447,-23.0479"/>
</g>
<!-- Node5 -->
<g id="node6" class="node">
<title>Node5</title>
<polygon fill="#ffffff" stroke="#bfbfbf" points="364,-.5 364,-19.5 424,-19.5 424,-.5 364,-.5"/>
<text text-anchor="middle" x="394" y="-7.5" font-family="Helvetica,sans-Serif" font-size="10.00" fill="#000000">iostream</text>
</g>
<!-- Node2&#45;&gt;Node5 -->
<g id="edge5" class="edge">
<title>Node2&#45;&gt;Node5</title>
<path fill="none" stroke="#191970" d="M378.8125,-61.8906C381.3339,-53.276 385.111,-40.3708 388.2676,-29.5858"/>
<polygon fill="#191970" stroke="#191970" points="391.6979,-30.3254 391.1478,-19.7449 384.9797,-28.3591 391.6979,-30.3254"/>
</g>
<!-- Node6 -->
<g id="node7" class="node">
<title>Node6</title>
<polygon fill="#ffffff" stroke="#bfbfbf" points="442.5,-.5 442.5,-19.5 531.5,-19.5 531.5,-.5 442.5,-.5"/>
<text text-anchor="middle" x="487" y="-7.5" font-family="Helvetica,sans-Serif" font-size="10.00" fill="#000000">AMReX_Print.H</text>
</g>
<!-- Node2&#45;&gt;Node6 -->
<g id="edge6" class="edge">
<title>Node2&#45;&gt;Node6</title>
<path fill="none" stroke="#191970" d="M393.3438,-61.8906C411.4273,-51.8713 439.9859,-36.0483 460.8165,-24.5071"/>
<polygon fill="#191970" stroke="#191970" points="462.7271,-27.4498 469.778,-19.5419 459.3346,-21.3268 462.7271,-27.4498"/>
</g>
<!-- Node7 -->
<g id="node8" class="node">
<title>Node7</title>
<polygon fill="#ffffff" stroke="#bfbfbf" points="549.5,-.5 549.5,-19.5 610.5,-19.5 610.5,-.5 549.5,-.5"/>
<text text-anchor="middle" x="580" y="-7.5" font-family="Helvetica,sans-Serif" font-size="10.00" fill="#000000">AMReX.H</text>
</g>
<!-- Node2&#45;&gt;Node7 -->
<g id="edge7" class="edge">
<title>Node2&#45;&gt;Node7</title>
<path fill="none" stroke="#191970" d="M407.875,-61.8906C443.3645,-51.1916 500.8061,-33.8746 539.4642,-22.2204"/>
<polygon fill="#191970" stroke="#191970" points="540.7847,-25.4779 549.3488,-19.2404 538.7641,-18.7759 540.7847,-25.4779"/>
</g>
<!-- Node8&#45;&gt;Node1 -->
<g id="edge9" class="edge">
<title>Node8&#45;&gt;Node1</title>
<path fill="none" stroke="#191970" d="M176.4063,-61.8906C143.1027,-50.6984 88.2495,-32.2642 53.6787,-20.6461"/>
<polygon fill="#191970" stroke="#191970" points="54.6681,-17.2863 44.0741,-17.4183 52.4381,-23.9216 54.6681,-17.2863"/>
</g>
<!-- Node8&#45;&gt;Node3 -->
<g id="edge10" class="edge">
<title>Node8&#45;&gt;Node3</title>
<path fill="none" stroke="#191970" d="M205,-61.8906C205,-53.3657 205,-40.6392 205,-29.9235"/>
<polygon fill="#191970" stroke="#191970" points="208.5001,-29.7448 205,-19.7449 201.5001,-29.7449 208.5001,-29.7448"/>
</g>
<!-- Node8&#45;&gt;Node4 -->
<g id="edge11" class="edge">
<title>Node8&#45;&gt;Node4</title>
<path fill="none" stroke="#191970" d="M219.6875,-61.8906C234.7256,-52.0519 258.3176,-36.6167 275.8667,-25.1351"/>
<polygon fill="#191970" stroke="#191970" points="277.9637,-27.9457 284.4156,-19.5419 274.1313,-22.088 277.9637,-27.9457"/>
</g>
<!-- Node9 -->
<g id="node10" class="node">
<title>Node9</title>
<polygon fill="#ffffff" stroke="#bfbfbf" points="62,-.5 62,-19.5 158,-19.5 158,-.5 62,-.5"/>
<text text-anchor="middle" x="110" y="-7.5" font-family="Helvetica,sans-Serif" font-size="10.00" fill="#000000">AMReX_Vector.H</text>
</g>
<!-- Node8&#45;&gt;Node9 -->
<g id="edge12" class="edge">
<title>Node8&#45;&gt;Node9</title>
<path fill="none" stroke="#191970" d="M190.1563,-61.8906C174.9582,-52.0519 151.1152,-36.6167 133.3794,-25.1351"/>
<polygon fill="#191970" stroke="#191970" points="135.0361,-22.0382 124.7395,-19.5419 131.232,-27.9144 135.0361,-22.0382"/>
</g>
<!-- Node11 -->
<g id="node12" class="node">
<title>Node11</title>
<polygon fill="#ffffff" stroke="#bfbfbf" points="628.5,-.5 628.5,-19.5 677.5,-19.5 677.5,-.5 628.5,-.5"/>
<text text-anchor="middle" x="653" y="-7.5" font-family="Helvetica,sans-Serif" font-size="10.00" fill="#000000">iosfwd</text>
</g>
<!-- Node10&#45;&gt;Node11 -->
<g id="edge14" class="edge">
<title>Node10&#45;&gt;Node11</title>
<path fill="none" stroke="#191970" d="M566.8875,-56.4554C584.9076,-46.734 608.2341,-34.15 626.0632,-24.5317"/>
<polygon fill="#191970" stroke="#191970" points="628.1948,-27.3586 635.334,-19.5303 624.8713,-21.1979 628.1948,-27.3586"/>
</g>
</g>
</svg>
