<?xml version="1.0" encoding="UTF-8" standalone="no"?>
<!DOCTYPE svg PUBLIC "-//W3C//DTD SVG 1.1//EN"
 "http://www.w3.org/Graphics/SVG/1.1/DTD/svg11.dtd">
<!-- Generated by graphviz version 2.40.1 (20161225.0304)
 -->
<!-- Title: PlaneSampler.H Pages: 1 -->
<svg width="740pt" height="218pt"
 viewBox="0.00 0.00 739.50 218.00" xmlns="http://www.w3.org/2000/svg" xmlns:xlink="http://www.w3.org/1999/xlink">
<g id="graph0" class="graph" transform="scale(1 1) rotate(0) translate(4 214)">
<title>PlaneSampler.H</title>
<polygon fill="#ffffff" stroke="transparent" points="-4,4 -4,-214 735.5,-214 735.5,4 -4,4"/>
<!-- Node0 -->
<g id="node1" class="node">
<title>Node0</title>
<polygon fill="#bfbfbf" stroke="#000000" points="290,-190.5 290,-209.5 384,-209.5 384,-190.5 290,-190.5"/>
<text text-anchor="middle" x="337" y="-197.5" font-family="Helvetica,sans-Serif" font-size="10.00" fill="#000000">PlaneSampler.H</text>
</g>
<!-- Node1 -->
<g id="node2" class="node">
<title>Node1</title>
<g id="a_node2"><a xlink:href="_sampler_base_8_h.html" target="_top" xlink:title="amr&#45;wind/utilities\l/sampling/SamplerBase.H">
<polygon fill="#ffffff" stroke="#000000" points="265.5,-123.5 265.5,-153.5 408.5,-153.5 408.5,-123.5 265.5,-123.5"/>
<text text-anchor="start" x="273.5" y="-141.5" font-family="Helvetica,sans-Serif" font-size="10.00" fill="#000000">amr&#45;wind/utilities</text>
<text text-anchor="middle" x="337" y="-130.5" font-family="Helvetica,sans-Serif" font-size="10.00" fill="#000000">/sampling/SamplerBase.H</text>
</a>
</g>
</g>
<!-- Node0&#45;&gt;Node1 -->
<g id="edge1" class="edge">
<title>Node0&#45;&gt;Node1</title>
<path fill="none" stroke="#191970" d="M337,-190.3906C337,-183.2234 337,-173.0862 337,-163.671"/>
<polygon fill="#191970" stroke="#191970" points="340.5001,-163.5446 337,-153.5446 333.5001,-163.5446 340.5001,-163.5446"/>
</g>
<!-- Node2 -->
<g id="node3" class="node">
<title>Node2</title>
<g id="a_node3"><a xlink:href="_factory_8_h.html" target="_top" xlink:title="amr&#45;wind/core/Factory.H">
<polygon fill="#ffffff" stroke="#000000" points="179,-62 179,-81 313,-81 313,-62 179,-62"/>
<text text-anchor="middle" x="246" y="-69" font-family="Helvetica,sans-Serif" font-size="10.00" fill="#000000">amr&#45;wind/core/Factory.H</text>
</a>
</g>
</g>
<!-- Node1&#45;&gt;Node2 -->
<g id="edge2" class="edge">
<title>Node1&#45;&gt;Node2</title>
<path fill="none" stroke="#191970" d="M316.3507,-123.2967C301.6219,-112.4524 281.8814,-97.9182 267.0604,-87.006"/>
<polygon fill="#191970" stroke="#191970" points="269.1056,-84.1655 258.9776,-81.055 264.9553,-89.8025 269.1056,-84.1655"/>
</g>
<!-- Node8 -->
<g id="node9" class="node">
<title>Node8</title>
<g id="a_node9"><a xlink:href="nc__interface_8_h.html" target="_top" xlink:title="Interface to NetCDF library. ">
<polygon fill="#ffffff" stroke="#000000" points="443.5,-56.5 443.5,-86.5 568.5,-86.5 568.5,-56.5 443.5,-56.5"/>
<text text-anchor="start" x="451.5" y="-74.5" font-family="Helvetica,sans-Serif" font-size="10.00" fill="#000000">amr&#45;wind/utilities</text>
<text text-anchor="middle" x="506" y="-63.5" font-family="Helvetica,sans-Serif" font-size="10.00" fill="#000000">/ncutils/nc_interface.H</text>
</a>
</g>
</g>
<!-- Node1&#45;&gt;Node8 -->
<g id="edge8" class="edge">
<title>Node1&#45;&gt;Node8</title>
<path fill="none" stroke="#191970" d="M374.9269,-123.4639C399.6289,-113.6708 432.0531,-100.8162 458.4717,-90.3426"/>
<polygon fill="#191970" stroke="#191970" points="459.9015,-93.5408 467.9077,-86.6017 457.3216,-87.0335 459.9015,-93.5408"/>
</g>
<!-- Node3 -->
<g id="node4" class="node">
<title>Node3</title>
<polygon fill="#ffffff" stroke="#bfbfbf" points="0,-.5 0,-19.5 58,-19.5 58,-.5 0,-.5"/>
<text text-anchor="middle" x="29" y="-7.5" font-family="Helvetica,sans-Serif" font-size="10.00" fill="#000000">memory</text>
</g>
<!-- Node2&#45;&gt;Node3 -->
<g id="edge3" class="edge">
<title>Node2&#45;&gt;Node3</title>
<path fill="none" stroke="#191970" d="M212.0938,-61.8906C173.0005,-50.8112 108.8663,-32.6349 67.8107,-20.9993"/>
<polygon fill="#191970" stroke="#191970" points="68.7284,-17.6216 58.1529,-18.2622 66.8196,-24.3564 68.7284,-17.6216"/>
</g>
<!-- Node4 -->
<g id="node5" class="node">
<title>Node4</title>
<polygon fill="#ffffff" stroke="#bfbfbf" points="340.5,-.5 340.5,-19.5 433.5,-19.5 433.5,-.5 340.5,-.5"/>
<text text-anchor="middle" x="387" y="-7.5" font-family="Helvetica,sans-Serif" font-size="10.00" fill="#000000">unordered_map</text>
</g>
<!-- Node2&#45;&gt;Node4 -->
<g id="edge4" class="edge">
<title>Node2&#45;&gt;Node4</title>
<path fill="none" stroke="#191970" d="M268.0313,-61.8906C291.6231,-51.6005 329.2501,-35.1888 355.8633,-23.5809"/>
<polygon fill="#191970" stroke="#191970" points="357.3567,-26.748 365.1235,-19.5419 354.5581,-20.3318 357.3567,-26.748"/>
</g>
<!-- Node5 -->
<g id="node6" class="node">
<title>Node5</title>
<polygon fill="#ffffff" stroke="#bfbfbf" points="76,-.5 76,-19.5 136,-19.5 136,-.5 76,-.5"/>
<text text-anchor="middle" x="106" y="-7.5" font-family="Helvetica,sans-Serif" font-size="10.00" fill="#000000">iostream</text>
</g>
<!-- Node2&#45;&gt;Node5 -->
<g id="edge5" class="edge">
<title>Node2&#45;&gt;Node5</title>
<path fill="none" stroke="#191970" d="M224.125,-61.8906C200.7004,-51.6005 163.3404,-35.1888 136.9159,-23.5809"/>
<polygon fill="#191970" stroke="#191970" points="138.2846,-20.3594 127.7214,-19.5419 135.4693,-26.7683 138.2846,-20.3594"/>
</g>
<!-- Node6 -->
<g id="node7" class="node">
<title>Node6</title>
<polygon fill="#ffffff" stroke="#bfbfbf" points="154.5,-.5 154.5,-19.5 243.5,-19.5 243.5,-.5 154.5,-.5"/>
<text text-anchor="middle" x="199" y="-7.5" font-family="Helvetica,sans-Serif" font-size="10.00" fill="#000000">AMReX_Print.H</text>
</g>
<!-- Node2&#45;&gt;Node6 -->
<g id="edge6" class="edge">
<title>Node2&#45;&gt;Node6</title>
<path fill="none" stroke="#191970" d="M238.6563,-61.8906C231.7298,-52.8273 221.174,-39.0149 212.694,-27.9188"/>
<polygon fill="#191970" stroke="#191970" points="215.3003,-25.565 206.4473,-19.7449 209.7385,-29.8155 215.3003,-25.565"/>
</g>
<!-- Node7 -->
<g id="node8" class="node">
<title>Node7</title>
<polygon fill="#ffffff" stroke="#bfbfbf" points="261.5,-.5 261.5,-19.5 322.5,-19.5 322.5,-.5 261.5,-.5"/>
<text text-anchor="middle" x="292" y="-7.5" font-family="Helvetica,sans-Serif" font-size="10.00" fill="#000000">AMReX.H</text>
</g>
<!-- Node2&#45;&gt;Node7 -->
<g id="edge7" class="edge">
<title>Node2&#45;&gt;Node7</title>
<path fill="none" stroke="#191970" d="M253.1875,-61.8906C259.9666,-52.8273 270.2978,-39.0149 278.5973,-27.9188"/>
<polygon fill="#191970" stroke="#191970" points="281.5243,-29.849 284.7112,-19.7449 275.9188,-25.6563 281.5243,-29.849"/>
</g>
<!-- Node8&#45;&gt;Node4 -->
<g id="edge10" class="edge">
<title>Node8&#45;&gt;Node4</title>
<path fill="none" stroke="#191970" d="M476.8893,-56.4554C457.8176,-46.599 433.0518,-33.7999 414.3461,-24.1327"/>
<polygon fill="#191970" stroke="#191970" points="415.9315,-21.0122 405.4408,-19.5303 412.7176,-27.2309 415.9315,-21.0122"/>
</g>
<!-- Node9 -->
<g id="node10" class="node">
<title>Node9</title>
<polygon fill="#ffffff" stroke="#bfbfbf" points="452,-.5 452,-19.5 496,-19.5 496,-.5 452,-.5"/>
<text text-anchor="middle" x="474" y="-7.5" font-family="Helvetica,sans-Serif" font-size="10.00" fill="#000000">string</text>
</g>
<!-- Node8&#45;&gt;Node9 -->
<g id="edge9" class="edge">
<title>Node8&#45;&gt;Node9</title>
<path fill="none" stroke="#191970" d="M498.0899,-56.2977C493.7868,-48.0277 488.4242,-37.7215 483.8518,-28.9339"/>
<polygon fill="#191970" stroke="#191970" points="486.8443,-27.1024 479.1236,-19.8469 480.6346,-30.3335 486.8443,-27.1024"/>
</g>
<!-- Node10 -->
<g id="node11" class="node">
<title>Node10</title>
<polygon fill="#ffffff" stroke="#bfbfbf" points="514.5,-.5 514.5,-19.5 561.5,-19.5 561.5,-.5 514.5,-.5"/>
<text text-anchor="middle" x="538" y="-7.5" font-family="Helvetica,sans-Serif" font-size="10.00" fill="#000000">vector</text>
</g>
<!-- Node8&#45;&gt;Node10 -->
<g id="edge11" class="edge">
<title>Node8&#45;&gt;Node10</title>
<path fill="none" stroke="#191970" d="M513.9101,-56.2977C518.2132,-48.0277 523.5758,-37.7215 528.1482,-28.9339"/>
<polygon fill="#191970" stroke="#191970" points="531.3654,-30.3335 532.8764,-19.8469 525.1557,-27.1024 531.3654,-30.3335"/>
</g>
<!-- Node11 -->
<g id="node12" class="node">
<title>Node11</title>
<polygon fill="#ffffff" stroke="#bfbfbf" points="580,-.5 580,-19.5 636,-19.5 636,-.5 580,-.5"/>
<text text-anchor="middle" x="608" y="-7.5" font-family="Helvetica,sans-Serif" font-size="10.00" fill="#000000">netcdf.h</text>
</g>
<!-- Node8&#45;&gt;Node11 -->
<g id="edge12" class="edge">
<title>Node8&#45;&gt;Node11</title>
<path fill="none" stroke="#191970" d="M530.952,-56.4554C546.9259,-46.8241 567.5602,-34.3828 583.4543,-24.7996"/>
<polygon fill="#191970" stroke="#191970" points="585.437,-27.6912 592.1936,-19.5303 581.8226,-21.6965 585.437,-27.6912"/>
</g>
<!-- Node12 -->
<g id="node13" class="node">
<title>Node12</title>
<polygon fill="#ffffff" stroke="#bfbfbf" points="654.5,-.5 654.5,-19.5 731.5,-19.5 731.5,-.5 654.5,-.5"/>
<text text-anchor="middle" x="693" y="-7.5" font-family="Helvetica,sans-Serif" font-size="10.00" fill="#000000">netcdf_par.h</text>
</g>
<!-- Node8&#45;&gt;Node12 -->
<g id="edge13" class="edge">
<title>Node8&#45;&gt;Node12</title>
<path fill="none" stroke="#191970" d="M551.7453,-56.4554C583.2205,-46.104 624.5649,-32.5067 654.3824,-22.7004"/>
<polygon fill="#191970" stroke="#191970" points="655.6157,-25.9793 664.0216,-19.5303 653.4287,-19.3297 655.6157,-25.9793"/>
</g>
</g>
</svg>
