<?xml version="1.0" encoding="UTF-8" standalone="no"?>
<!DOCTYPE svg PUBLIC "-//W3C//DTD SVG 1.1//EN"
 "http://www.w3.org/Graphics/SVG/1.1/DTD/svg11.dtd">
<!-- Generated by graphviz version 2.40.1 (20161225.0304)
 -->
<!-- Title: PostProcessing.H Pages: 1 -->
<svg width="443pt" height="140pt"
 viewBox="0.00 0.00 442.50 140.00" xmlns="http://www.w3.org/2000/svg" xmlns:xlink="http://www.w3.org/1999/xlink">
<g id="graph0" class="graph" transform="scale(1 1) rotate(0) translate(4 136)">
<title>PostProcessing.H</title>
<polygon fill="#ffffff" stroke="transparent" points="-4,4 -4,-136 438.5,-136 438.5,4 -4,4"/>
<!-- Node0 -->
<g id="node1" class="node">
<title>Node0</title>
<polygon fill="#bfbfbf" stroke="#000000" points="72.5,-112.5 72.5,-131.5 173.5,-131.5 173.5,-112.5 72.5,-112.5"/>
<text text-anchor="middle" x="123" y="-119.5" font-family="Helvetica,sans-Serif" font-size="10.00" fill="#000000">PostProcessing.H</text>
</g>
<!-- Node1 -->
<g id="node2" class="node">
<title>Node1</title>
<polygon fill="#ffffff" stroke="#bfbfbf" points="0,-.5 0,-19.5 58,-19.5 58,-.5 0,-.5"/>
<text text-anchor="middle" x="29" y="-7.5" font-family="Helvetica,sans-Serif" font-size="10.00" fill="#000000">memory</text>
</g>
<!-- Node0&#45;&gt;Node1 -->
<g id="edge1" class="edge">
<title>Node0&#45;&gt;Node1</title>
<path fill="none" stroke="#191970" d="M114.9856,-112.4509C99.1688,-93.6054 63.7337,-51.3849 43.6387,-27.4419"/>
<polygon fill="#191970" stroke="#191970" points="46.1038,-24.9346 36.9941,-19.5249 40.7419,-29.4347 46.1038,-24.9346"/>
</g>
<!-- Node2 -->
<g id="node3" class="node">
<title>Node2</title>
<g id="a_node3"><a xlink:href="_factory_8_h.html" target="_top" xlink:title="amr&#45;wind/core/Factory.H">
<polygon fill="#ffffff" stroke="#000000" points="127,-56.5 127,-75.5 261,-75.5 261,-56.5 127,-56.5"/>
<text text-anchor="middle" x="194" y="-63.5" font-family="Helvetica,sans-Serif" font-size="10.00" fill="#000000">amr&#45;wind/core/Factory.H</text>
</a>
</g>
</g>
<!-- Node0&#45;&gt;Node2 -->
<g id="edge2" class="edge">
<title>Node0&#45;&gt;Node2</title>
<path fill="none" stroke="#191970" d="M135.3673,-112.2455C145.9554,-103.8943 161.4064,-91.7076 173.7893,-81.9408"/>
<polygon fill="#191970" stroke="#191970" points="176.0903,-84.5837 181.7745,-75.6427 171.7553,-79.0875 176.0903,-84.5837"/>
</g>
<!-- Node2&#45;&gt;Node1 -->
<g id="edge3" class="edge">
<title>Node2&#45;&gt;Node1</title>
<path fill="none" stroke="#191970" d="M165.6355,-56.3733C138.3173,-47.1016 96.8204,-33.0178 66.7262,-22.804"/>
<polygon fill="#191970" stroke="#191970" points="67.5887,-19.4008 56.9944,-19.5011 65.339,-26.0294 67.5887,-19.4008"/>
</g>
<!-- Node3 -->
<g id="node4" class="node">
<title>Node3</title>
<polygon fill="#ffffff" stroke="#bfbfbf" points="76.5,-.5 76.5,-19.5 169.5,-19.5 169.5,-.5 76.5,-.5"/>
<text text-anchor="middle" x="123" y="-7.5" font-family="Helvetica,sans-Serif" font-size="10.00" fill="#000000">unordered_map</text>
</g>
<!-- Node2&#45;&gt;Node3 -->
<g id="edge4" class="edge">
<title>Node2&#45;&gt;Node3</title>
<path fill="none" stroke="#191970" d="M181.6327,-56.2455C171.0446,-47.8943 155.5936,-35.7076 143.2107,-25.9408"/>
<polygon fill="#191970" stroke="#191970" points="145.2447,-23.0875 135.2255,-19.6427 140.9097,-28.5837 145.2447,-23.0875"/>
</g>
<!-- Node4 -->
<g id="node5" class="node">
<title>Node4</title>
<polygon fill="#ffffff" stroke="#bfbfbf" points="188,-.5 188,-19.5 248,-19.5 248,-.5 188,-.5"/>
<text text-anchor="middle" x="218" y="-7.5" font-family="Helvetica,sans-Serif" font-size="10.00" fill="#000000">iostream</text>
</g>
<!-- Node2&#45;&gt;Node4 -->
<g id="edge5" class="edge">
<title>Node2&#45;&gt;Node4</title>
<path fill="none" stroke="#191970" d="M198.1805,-56.2455C201.381,-48.7776 205.896,-38.2427 209.8084,-29.1137"/>
<polygon fill="#191970" stroke="#191970" points="213.1452,-30.2129 213.8674,-19.6427 206.7112,-27.4554 213.1452,-30.2129"/>
</g>
<!-- Node5 -->
<g id="node6" class="node">
<title>Node5</title>
<polygon fill="#ffffff" stroke="#bfbfbf" points="266.5,-.5 266.5,-19.5 355.5,-19.5 355.5,-.5 266.5,-.5"/>
<text text-anchor="middle" x="311" y="-7.5" font-family="Helvetica,sans-Serif" font-size="10.00" fill="#000000">AMReX_Print.H</text>
</g>
<!-- Node2&#45;&gt;Node5 -->
<g id="edge6" class="edge">
<title>Node2&#45;&gt;Node5</title>
<path fill="none" stroke="#191970" d="M214.113,-56.3733C232.8103,-47.4241 260.8744,-33.9917 281.9934,-23.8835"/>
<polygon fill="#191970" stroke="#191970" points="283.6405,-26.9755 291.1494,-19.5011 280.6183,-20.6614 283.6405,-26.9755"/>
</g>
<!-- Node6 -->
<g id="node7" class="node">
<title>Node6</title>
<polygon fill="#ffffff" stroke="#bfbfbf" points="373.5,-.5 373.5,-19.5 434.5,-19.5 434.5,-.5 373.5,-.5"/>
<text text-anchor="middle" x="404" y="-7.5" font-family="Helvetica,sans-Serif" font-size="10.00" fill="#000000">AMReX.H</text>
</g>
<!-- Node2&#45;&gt;Node6 -->
<g id="edge7" class="edge">
<title>Node2&#45;&gt;Node6</title>
<path fill="none" stroke="#191970" d="M230.1003,-56.3733C267.2395,-46.4695 324.969,-31.0749 363.6066,-20.7716"/>
<polygon fill="#191970" stroke="#191970" points="364.7186,-24.0974 373.4791,-18.1389 362.9149,-17.3338 364.7186,-24.0974"/>
</g>
</g>
</svg>
