<?xml version="1.0" encoding="UTF-8" standalone="no"?>
<!DOCTYPE svg PUBLIC "-//W3C//DTD SVG 1.1//EN"
 "http://www.w3.org/Graphics/SVG/1.1/DTD/svg11.dtd">
<!-- Generated by graphviz version 2.40.1 (20161225.0304)
 -->
<!-- Title: PostProcessing.cpp Pages: 1 -->
<svg width="2555pt" height="341pt"
 viewBox="0.00 0.00 2554.76 341.00" xmlns="http://www.w3.org/2000/svg" xmlns:xlink="http://www.w3.org/1999/xlink">
<g id="graph0" class="graph" transform="scale(1 1) rotate(0) translate(4 337)">
<title>PostProcessing.cpp</title>
<polygon fill="#ffffff" stroke="transparent" points="-4,4 -4,-337 2550.7594,-337 2550.7594,4 -4,4"/>
<!-- Node0 -->
<g id="node1" class="node">
<title>Node0</title>
<polygon fill="#bfbfbf" stroke="#000000" points="2291.5,-313.5 2291.5,-332.5 2401.5,-332.5 2401.5,-313.5 2291.5,-313.5"/>
<text text-anchor="middle" x="2346.5" y="-320.5" font-family="Helvetica,sans-Serif" font-size="10.00" fill="#000000">PostProcessing.cpp</text>
</g>
<!-- Node1 -->
<g id="node2" class="node">
<title>Node1</title>
<g id="a_node2"><a xlink:href="_post_processing_8_h.html" target="_top" xlink:title="amr&#45;wind/utilities\l/PostProcessing.H">
<polygon fill="#ffffff" stroke="#000000" points="2312.5,-123.5 2312.5,-153.5 2416.5,-153.5 2416.5,-123.5 2312.5,-123.5"/>
<text text-anchor="start" x="2320.5" y="-141.5" font-family="Helvetica,sans-Serif" font-size="10.00" fill="#000000">amr&#45;wind/utilities</text>
<text text-anchor="middle" x="2364.5" y="-130.5" font-family="Helvetica,sans-Serif" font-size="10.00" fill="#000000">/PostProcessing.H</text>
</a>
</g>
</g>
<!-- Node0&#45;&gt;Node1 -->
<g id="edge1" class="edge">
<title>Node0&#45;&gt;Node1</title>
<path fill="none" stroke="#191970" d="M2342.4167,-313.4068C2333.5526,-291.1858 2314.4342,-234.6725 2328.5,-190 2331.6611,-179.9605 2337.5531,-170.1732 2343.6685,-161.874"/>
<polygon fill="#191970" stroke="#191970" points="2346.5777,-163.837 2350.0171,-153.816 2341.0792,-159.5049 2346.5777,-163.837"/>
</g>
<!-- Node8 -->
<g id="node9" class="node">
<title>Node8</title>
<g id="a_node9"><a xlink:href="_c_f_d_sim_8_h.html" target="_top" xlink:title="amr&#45;wind/CFDSim.H">
<polygon fill="#ffffff" stroke="#000000" points="1696.5,-257.5 1696.5,-276.5 1810.5,-276.5 1810.5,-257.5 1696.5,-257.5"/>
<text text-anchor="middle" x="1753.5" y="-264.5" font-family="Helvetica,sans-Serif" font-size="10.00" fill="#000000">amr&#45;wind/CFDSim.H</text>
</a>
</g>
</g>
<!-- Node0&#45;&gt;Node8 -->
<g id="edge9" class="edge">
<title>Node0&#45;&gt;Node8</title>
<path fill="none" stroke="#191970" d="M2291.2445,-317.7819C2182.0064,-307.466 1938.7891,-284.4978 1820.5794,-273.3347"/>
<polygon fill="#191970" stroke="#191970" points="1820.8533,-269.845 1810.5685,-272.3893 1820.1951,-276.814 1820.8533,-269.845"/>
</g>
<!-- Node37 -->
<g id="node38" class="node">
<title>Node37</title>
<g id="a_node38"><a xlink:href="_time_averaging_8_h.html" target="_top" xlink:title="amr&#45;wind/utilities\l/averaging/TimeAveraging.H">
<polygon fill="#ffffff" stroke="#000000" points="2337,-190.5 2337,-220.5 2492,-220.5 2492,-190.5 2337,-190.5"/>
<text text-anchor="start" x="2345" y="-208.5" font-family="Helvetica,sans-Serif" font-size="10.00" fill="#000000">amr&#45;wind/utilities</text>
<text text-anchor="middle" x="2414.5" y="-197.5" font-family="Helvetica,sans-Serif" font-size="10.00" fill="#000000">/averaging/TimeAveraging.H</text>
</a>
</g>
</g>
<!-- Node0&#45;&gt;Node37 -->
<g id="edge69" class="edge">
<title>Node0&#45;&gt;Node37</title>
<path fill="none" stroke="#191970" d="M2347.978,-313.4967C2350.3527,-300.1641 2355.8693,-275.471 2366.5,-257 2372.5682,-246.4565 2381.1735,-236.3267 2389.4259,-227.8827"/>
<polygon fill="#191970" stroke="#191970" points="2392.1272,-230.1361 2396.8225,-220.6384 2387.2292,-225.1351 2392.1272,-230.1361"/>
</g>
<!-- Node39 -->
<g id="node40" class="node">
<title>Node39</title>
<polygon fill="#ffffff" stroke="#bfbfbf" points="2375,-257.5 2375,-276.5 2492,-276.5 2492,-257.5 2375,-257.5"/>
<text text-anchor="middle" x="2433.5" y="-264.5" font-family="Helvetica,sans-Serif" font-size="10.00" fill="#000000">AMReX_ParmParse.H</text>
</g>
<!-- Node0&#45;&gt;Node39 -->
<g id="edge76" class="edge">
<title>Node0&#45;&gt;Node39</title>
<path fill="none" stroke="#191970" d="M2361.6542,-313.2455C2375.0027,-304.6534 2394.6586,-292.0014 2410.0383,-282.1018"/>
<polygon fill="#191970" stroke="#191970" points="2412.0051,-284.9982 2418.5194,-276.6427 2408.2164,-279.1121 2412.0051,-284.9982"/>
</g>
<!-- Node40 -->
<g id="node41" class="node">
<title>Node40</title>
<polygon fill="#ffffff" stroke="#bfbfbf" points="2510.5,-257.5 2510.5,-276.5 2542.5,-276.5 2542.5,-257.5 2510.5,-257.5"/>
<text text-anchor="middle" x="2526.5" y="-264.5" font-family="Helvetica,sans-Serif" font-size="10.00" fill="#000000">set</text>
</g>
<!-- Node0&#45;&gt;Node40 -->
<g id="edge77" class="edge">
<title>Node0&#45;&gt;Node40</title>
<path fill="none" stroke="#191970" d="M2381.8829,-313.4998C2411.4545,-305.3387 2454.8839,-292.8418 2500.9003,-276.997"/>
<polygon fill="#191970" stroke="#191970" points="2502.1506,-280.2679 2510.4441,-273.6749 2499.8493,-273.6569 2502.1506,-280.2679"/>
</g>
<!-- Node2 -->
<g id="node3" class="node">
<title>Node2</title>
<polygon fill="#ffffff" stroke="#bfbfbf" points="2223.5,-.5 2223.5,-19.5 2281.5,-19.5 2281.5,-.5 2223.5,-.5"/>
<text text-anchor="middle" x="2252.5" y="-7.5" font-family="Helvetica,sans-Serif" font-size="10.00" fill="#000000">memory</text>
</g>
<!-- Node1&#45;&gt;Node2 -->
<g id="edge2" class="edge">
<title>Node1&#45;&gt;Node2</title>
<path fill="none" stroke="#191970" d="M2346.8765,-123.4768C2335.6826,-113.5851 2321.1599,-100.0883 2309.5,-87 2292.5753,-68.0019 2275.5241,-44.2136 2264.541,-28.1439"/>
<polygon fill="#191970" stroke="#191970" points="2267.3171,-26.0005 2258.8224,-19.6687 2261.5145,-29.9159 2267.3171,-26.0005"/>
</g>
<!-- Node3 -->
<g id="node4" class="node">
<title>Node3</title>
<g id="a_node4"><a xlink:href="_factory_8_h.html" target="_top" xlink:title="amr&#45;wind/core/Factory.H">
<polygon fill="#ffffff" stroke="#000000" points="2318.5,-62 2318.5,-81 2452.5,-81 2452.5,-62 2318.5,-62"/>
<text text-anchor="middle" x="2385.5" y="-69" font-family="Helvetica,sans-Serif" font-size="10.00" fill="#000000">amr&#45;wind/core/Factory.H</text>
</a>
</g>
</g>
<!-- Node1&#45;&gt;Node3 -->
<g id="edge3" class="edge">
<title>Node1&#45;&gt;Node3</title>
<path fill="none" stroke="#191970" d="M2369.2652,-123.2967C2372.283,-113.6685 2376.2124,-101.1318 2379.4496,-90.8038"/>
<polygon fill="#191970" stroke="#191970" points="2382.854,-91.6441 2382.5052,-81.055 2376.1744,-89.5504 2382.854,-91.6441"/>
</g>
<!-- Node3&#45;&gt;Node2 -->
<g id="edge4" class="edge">
<title>Node3&#45;&gt;Node2</title>
<path fill="none" stroke="#191970" d="M2364.7188,-61.8906C2342.6606,-51.6908 2307.595,-35.4763 2282.5331,-23.8875"/>
<polygon fill="#191970" stroke="#191970" points="2283.6809,-20.5622 2273.1353,-19.5419 2280.7429,-26.9158 2283.6809,-20.5622"/>
</g>
<!-- Node4 -->
<g id="node5" class="node">
<title>Node4</title>
<polygon fill="#ffffff" stroke="#bfbfbf" points="1700,-.5 1700,-19.5 1793,-19.5 1793,-.5 1700,-.5"/>
<text text-anchor="middle" x="1746.5" y="-7.5" font-family="Helvetica,sans-Serif" font-size="10.00" fill="#000000">unordered_map</text>
</g>
<!-- Node3&#45;&gt;Node4 -->
<g id="edge5" class="edge">
<title>Node3&#45;&gt;Node4</title>
<path fill="none" stroke="#191970" d="M2318.2194,-62.244C2301.3491,-60.0588 2283.2758,-57.8338 2266.5,-56 2098.2976,-37.6139 1898.8642,-21.5797 1803.2124,-14.2459"/>
<polygon fill="#191970" stroke="#191970" points="1803.414,-10.7512 1793.1764,-13.4792 1802.8807,-17.7308 1803.414,-10.7512"/>
</g>
<!-- Node5 -->
<g id="node6" class="node">
<title>Node5</title>
<polygon fill="#ffffff" stroke="#bfbfbf" points="2299.5,-.5 2299.5,-19.5 2359.5,-19.5 2359.5,-.5 2299.5,-.5"/>
<text text-anchor="middle" x="2329.5" y="-7.5" font-family="Helvetica,sans-Serif" font-size="10.00" fill="#000000">iostream</text>
</g>
<!-- Node3&#45;&gt;Node5 -->
<g id="edge6" class="edge">
<title>Node3&#45;&gt;Node5</title>
<path fill="none" stroke="#191970" d="M2376.75,-61.8906C2368.3338,-52.6478 2355.4203,-38.466 2345.219,-27.2628"/>
<polygon fill="#191970" stroke="#191970" points="2347.694,-24.7824 2338.3734,-19.7449 2342.5182,-29.4953 2347.694,-24.7824"/>
</g>
<!-- Node6 -->
<g id="node7" class="node">
<title>Node6</title>
<polygon fill="#ffffff" stroke="#bfbfbf" points="2378,-.5 2378,-19.5 2467,-19.5 2467,-.5 2378,-.5"/>
<text text-anchor="middle" x="2422.5" y="-7.5" font-family="Helvetica,sans-Serif" font-size="10.00" fill="#000000">AMReX_Print.H</text>
</g>
<!-- Node3&#45;&gt;Node6 -->
<g id="edge7" class="edge">
<title>Node3&#45;&gt;Node6</title>
<path fill="none" stroke="#191970" d="M2391.2813,-61.8906C2396.626,-53.0068 2404.7159,-39.5601 2411.3211,-28.5811"/>
<polygon fill="#191970" stroke="#191970" points="2414.4811,-30.118 2416.6372,-19.7449 2408.4829,-26.5093 2414.4811,-30.118"/>
</g>
<!-- Node7 -->
<g id="node8" class="node">
<title>Node7</title>
<polygon fill="#ffffff" stroke="#bfbfbf" points="2485,-.5 2485,-19.5 2546,-19.5 2546,-.5 2485,-.5"/>
<text text-anchor="middle" x="2515.5" y="-7.5" font-family="Helvetica,sans-Serif" font-size="10.00" fill="#000000">AMReX.H</text>
</g>
<!-- Node3&#45;&gt;Node7 -->
<g id="edge8" class="edge">
<title>Node3&#45;&gt;Node7</title>
<path fill="none" stroke="#191970" d="M2405.8125,-61.8906C2427.3731,-51.6908 2461.6478,-35.4763 2486.1444,-23.8875"/>
<polygon fill="#191970" stroke="#191970" points="2487.7874,-26.9822 2495.3301,-19.5419 2484.7939,-20.6545 2487.7874,-26.9822"/>
</g>
<!-- Node9 -->
<g id="node10" class="node">
<title>Node9</title>
<polygon fill="#ffffff" stroke="#bfbfbf" points="1363,-129 1363,-148 1472,-148 1472,-129 1363,-129"/>
<text text-anchor="middle" x="1417.5" y="-136" font-family="Helvetica,sans-Serif" font-size="10.00" fill="#000000">AMReX_AmrCore.H</text>
</g>
<!-- Node8&#45;&gt;Node9 -->
<g id="edge10" class="edge">
<title>Node8&#45;&gt;Node9</title>
<path fill="none" stroke="#191970" d="M1728.5199,-257.4466C1669.2319,-234.7725 1519.9261,-177.6719 1452.0481,-151.7126"/>
<polygon fill="#191970" stroke="#191970" points="1453.2351,-148.4194 1442.6445,-148.1163 1450.7345,-154.9575 1453.2351,-148.4194"/>
</g>
<!-- Node10 -->
<g id="node11" class="node">
<title>Node10</title>
<g id="a_node11"><a xlink:href="_sim_time_8_h.html" target="_top" xlink:title="amr&#45;wind/core/SimTime.H">
<polygon fill="#ffffff" stroke="#000000" points="1732,-196 1732,-215 1875,-215 1875,-196 1732,-196"/>
<text text-anchor="middle" x="1803.5" y="-203" font-family="Helvetica,sans-Serif" font-size="10.00" fill="#000000">amr&#45;wind/core/SimTime.H</text>
</a>
</g>
</g>
<!-- Node8&#45;&gt;Node10 -->
<g id="edge11" class="edge">
<title>Node8&#45;&gt;Node10</title>
<path fill="none" stroke="#191970" d="M1761.3125,-257.3906C1768.754,-248.2376 1780.1334,-234.2409 1789.1992,-223.09"/>
<polygon fill="#191970" stroke="#191970" points="1791.9847,-225.212 1795.5774,-215.2449 1786.5533,-220.7962 1791.9847,-225.212"/>
</g>
<!-- Node14 -->
<g id="node15" class="node">
<title>Node14</title>
<g id="a_node15"><a xlink:href="_field_repo_8_h.html" target="_top" xlink:title="amr&#45;wind/core/FieldRepo.H">
<polygon fill="#ffffff" stroke="#000000" points="653.5,-196 653.5,-215 799.5,-215 799.5,-196 653.5,-196"/>
<text text-anchor="middle" x="726.5" y="-203" font-family="Helvetica,sans-Serif" font-size="10.00" fill="#000000">amr&#45;wind/core/FieldRepo.H</text>
</a>
</g>
</g>
<!-- Node8&#45;&gt;Node14 -->
<g id="edge15" class="edge">
<title>Node8&#45;&gt;Node14</title>
<path fill="none" stroke="#191970" d="M1696.4528,-263.5838C1524.7407,-253.3012 1012.1349,-222.6047 809.8845,-210.4933"/>
<polygon fill="#191970" stroke="#191970" points="809.8112,-206.9828 799.6198,-209.8786 809.3927,-213.9702 809.8112,-206.9828"/>
</g>
<!-- Node31 -->
<g id="node32" class="node">
<title>Node31</title>
<g id="a_node32"><a xlink:href="_p_d_e_base_8_h.html" target="_top" xlink:title="amr&#45;wind/equation_systems\l/PDEBase.H">
<polygon fill="#ffffff" stroke="#000000" points="1490,-123.5 1490,-153.5 1645,-153.5 1645,-123.5 1490,-123.5"/>
<text text-anchor="start" x="1498" y="-141.5" font-family="Helvetica,sans-Serif" font-size="10.00" fill="#000000">amr&#45;wind/equation_systems</text>
<text text-anchor="middle" x="1567.5" y="-130.5" font-family="Helvetica,sans-Serif" font-size="10.00" fill="#000000">/PDEBase.H</text>
</a>
</g>
</g>
<!-- Node8&#45;&gt;Node31 -->
<g id="edge52" class="edge">
<title>Node8&#45;&gt;Node31</title>
<path fill="none" stroke="#191970" d="M1739.5198,-257.3416C1709.61,-236.6782 1638.8189,-187.7714 1597.9815,-159.5584"/>
<polygon fill="#191970" stroke="#191970" points="1599.7208,-156.5061 1589.5039,-153.7016 1595.742,-162.2653 1599.7208,-156.5061"/>
</g>
<!-- Node35 -->
<g id="node36" class="node">
<title>Node35</title>
<g id="a_node36"><a xlink:href="_physics_8_h.html" target="_top" xlink:title="amr&#45;wind/core/Physics.H">
<polygon fill="#ffffff" stroke="#000000" points="2055,-129 2055,-148 2192,-148 2192,-129 2055,-129"/>
<text text-anchor="middle" x="2123.5" y="-136" font-family="Helvetica,sans-Serif" font-size="10.00" fill="#000000">amr&#45;wind/core/Physics.H</text>
</a>
</g>
</g>
<!-- Node8&#45;&gt;Node35 -->
<g id="edge64" class="edge">
<title>Node8&#45;&gt;Node35</title>
<path fill="none" stroke="#191970" d="M1781.0079,-257.4466C1846.509,-234.6982 2011.787,-177.2976 2086.1873,-151.4586"/>
<polygon fill="#191970" stroke="#191970" points="2087.7643,-154.6161 2096.0625,-148.029 2085.4677,-148.0035 2087.7643,-154.6161"/>
</g>
<!-- Node11 -->
<g id="node12" class="node">
<title>Node11</title>
<polygon fill="#ffffff" stroke="#bfbfbf" points="1663,-129 1663,-148 1754,-148 1754,-129 1663,-129"/>
<text text-anchor="middle" x="1708.5" y="-136" font-family="Helvetica,sans-Serif" font-size="10.00" fill="#000000">AMReX_REAL.H</text>
</g>
<!-- Node10&#45;&gt;Node11 -->
<g id="edge12" class="edge">
<title>Node10&#45;&gt;Node11</title>
<path fill="none" stroke="#191970" d="M1789.8888,-195.9005C1774.3689,-184.9549 1748.7777,-166.9064 1730.4333,-153.9688"/>
<polygon fill="#191970" stroke="#191970" points="1732.2752,-150.9849 1722.0859,-148.0817 1728.2408,-156.7054 1732.2752,-150.9849"/>
</g>
<!-- Node12 -->
<g id="node13" class="node">
<title>Node12</title>
<polygon fill="#ffffff" stroke="#bfbfbf" points="1772.5,-129 1772.5,-148 1904.5,-148 1904.5,-129 1772.5,-129"/>
<text text-anchor="middle" x="1838.5" y="-136" font-family="Helvetica,sans-Serif" font-size="10.00" fill="#000000">AMReX_GpuQualifiers.H</text>
</g>
<!-- Node10&#45;&gt;Node12 -->
<g id="edge13" class="edge">
<title>Node10&#45;&gt;Node12</title>
<path fill="none" stroke="#191970" d="M1808.5146,-195.9005C1813.7647,-185.8505 1822.1429,-169.8122 1828.7103,-157.2403"/>
<polygon fill="#191970" stroke="#191970" points="1831.9666,-158.5657 1833.4947,-148.0817 1825.7622,-155.3246 1831.9666,-158.5657"/>
</g>
<!-- Node13 -->
<g id="node14" class="node">
<title>Node13</title>
<polygon fill="#ffffff" stroke="#bfbfbf" points="1922.5,-129 1922.5,-148 2036.5,-148 2036.5,-129 1922.5,-129"/>
<text text-anchor="middle" x="1979.5" y="-136" font-family="Helvetica,sans-Serif" font-size="10.00" fill="#000000">AMReX_Extension.H</text>
</g>
<!-- Node10&#45;&gt;Node13 -->
<g id="edge14" class="edge">
<title>Node10&#45;&gt;Node13</title>
<path fill="none" stroke="#191970" d="M1828.7165,-195.9005C1859.1681,-184.3082 1910.5485,-164.7486 1944.743,-151.7313"/>
<polygon fill="#191970" stroke="#191970" points="1946.2298,-154.9105 1954.3303,-148.0817 1943.7393,-148.3685 1946.2298,-154.9105"/>
</g>
<!-- Node14&#45;&gt;Node4 -->
<g id="edge17" class="edge">
<title>Node14&#45;&gt;Node4</title>
<path fill="none" stroke="#191970" d="M799.7062,-200.744C896.4883,-193.8007 1072.1102,-178.9279 1220.5,-154 1280.3568,-143.9447 1293.9174,-134.57 1353.5,-123 1455.5006,-103.1931 1485.2088,-117.622 1584.5,-87 1635.199,-71.3641 1690.169,-42.4351 1721.2691,-24.8324"/>
<polygon fill="#191970" stroke="#191970" points="1723.1859,-27.768 1730.1234,-19.7604 1719.7065,-21.694 1723.1859,-27.768"/>
</g>
<!-- Node14&#45;&gt;Node9 -->
<g id="edge49" class="edge">
<title>Node14&#45;&gt;Node9</title>
<path fill="none" stroke="#191970" d="M799.6594,-202.7243C916.3152,-197.5626 1151.418,-184.1468 1348.5,-154 1355.268,-152.9647 1362.3616,-151.645 1369.3177,-150.2138"/>
<polygon fill="#191970" stroke="#191970" points="1370.3151,-153.5795 1379.357,-148.0575 1368.845,-146.7356 1370.3151,-153.5795"/>
</g>
<!-- Node15 -->
<g id="node16" class="node">
<title>Node15</title>
<polygon fill="#ffffff" stroke="#bfbfbf" points="1139.5,-.5 1139.5,-19.5 1183.5,-19.5 1183.5,-.5 1139.5,-.5"/>
<text text-anchor="middle" x="1161.5" y="-7.5" font-family="Helvetica,sans-Serif" font-size="10.00" fill="#000000">string</text>
</g>
<!-- Node14&#45;&gt;Node15 -->
<g id="edge16" class="edge">
<title>Node14&#45;&gt;Node15</title>
<path fill="none" stroke="#191970" d="M743.5706,-195.9675C796.2078,-166.6615 955.7462,-78.515 1010.5,-56 1050.4638,-39.5667 1098.4817,-25.9262 1129.4717,-17.8722"/>
<polygon fill="#191970" stroke="#191970" points="1130.4722,-21.229 1139.2923,-15.3591 1128.7367,-14.4476 1130.4722,-21.229"/>
</g>
<!-- Node16 -->
<g id="node17" class="node">
<title>Node16</title>
<g id="a_node17"><a xlink:href="_field_desc_types_8_h.html" target="_top" xlink:title="amr&#45;wind/core/FieldDescTypes.H">
<polygon fill="#ffffff" stroke="#000000" points="467.5,-.5 467.5,-19.5 641.5,-19.5 641.5,-.5 467.5,-.5"/>
<text text-anchor="middle" x="554.5" y="-7.5" font-family="Helvetica,sans-Serif" font-size="10.00" fill="#000000">amr&#45;wind/core/FieldDescTypes.H</text>
</a>
</g>
</g>
<!-- Node14&#45;&gt;Node16 -->
<g id="edge18" class="edge">
<title>Node14&#45;&gt;Node16</title>
<path fill="none" stroke="#191970" d="M653.4618,-203.7538C515.0667,-199.6865 225.6917,-187.2616 195.5,-154 170.9978,-127.0064 213.1077,-65.3109 225.5,-56 261.1126,-29.2427 373.5344,-18.0279 457.1056,-13.341"/>
<polygon fill="#191970" stroke="#191970" points="457.3494,-16.833 467.1471,-12.8012 456.9736,-9.8431 457.3494,-16.833"/>
</g>
<!-- Node17 -->
<g id="node18" class="node">
<title>Node17</title>
<g id="a_node18"><a xlink:href="_field_utils_8_h.html" target="_top" xlink:title="amr&#45;wind/core/FieldUtils.H">
<polygon fill="#ffffff" stroke="#000000" points="0,-62 0,-81 145,-81 145,-62 0,-62"/>
<text text-anchor="middle" x="72.5" y="-69" font-family="Helvetica,sans-Serif" font-size="10.00" fill="#000000">amr&#45;wind/core/FieldUtils.H</text>
</a>
</g>
</g>
<!-- Node14&#45;&gt;Node17 -->
<g id="edge19" class="edge">
<title>Node14&#45;&gt;Node17</title>
<path fill="none" stroke="#191970" d="M653.2917,-201.5347C510.1906,-193.3935 203.461,-173.8811 159.5,-154 127.757,-139.6444 100.3337,-108.797 85.1497,-89.1576"/>
<polygon fill="#191970" stroke="#191970" points="87.8561,-86.9325 79.0629,-81.0223 82.2512,-91.126 87.8561,-86.9325"/>
</g>
<!-- Node18 -->
<g id="node19" class="node">
<title>Node18</title>
<polygon fill="#ffffff" stroke="#bfbfbf" points="660,-.5 660,-19.5 767,-19.5 767,-.5 660,-.5"/>
<text text-anchor="middle" x="713.5" y="-7.5" font-family="Helvetica,sans-Serif" font-size="10.00" fill="#000000">AMReX_MultiFab.H</text>
</g>
<!-- Node14&#45;&gt;Node18 -->
<g id="edge50" class="edge">
<title>Node14&#45;&gt;Node18</title>
<path fill="none" stroke="#191970" d="M656.2774,-195.9879C549.6714,-178.7482 366.2344,-136.4425 434.5,-56 435.3767,-54.967 567.8647,-33.4606 649.9304,-20.2248"/>
<polygon fill="#191970" stroke="#191970" points="650.6073,-23.661 659.9227,-18.6139 649.4931,-16.7502 650.6073,-23.661"/>
</g>
<!-- Node20 -->
<g id="node21" class="node">
<title>Node20</title>
<g id="a_node21"><a xlink:href="_field_8_h.html" target="_top" xlink:title="amr&#45;wind/core/Field.H">
<polygon fill="#ffffff" stroke="#000000" points="1089.5,-129 1089.5,-148 1211.5,-148 1211.5,-129 1089.5,-129"/>
<text text-anchor="middle" x="1150.5" y="-136" font-family="Helvetica,sans-Serif" font-size="10.00" fill="#000000">amr&#45;wind/core/Field.H</text>
</a>
</g>
</g>
<!-- Node14&#45;&gt;Node20 -->
<g id="edge23" class="edge">
<title>Node14&#45;&gt;Node20</title>
<path fill="none" stroke="#191970" d="M786.7986,-195.9717C864.164,-183.7465 998.132,-162.577 1080.0906,-149.626"/>
<polygon fill="#191970" stroke="#191970" points="1080.7354,-153.0676 1090.0666,-148.0496 1079.6428,-146.1534 1080.7354,-153.0676"/>
</g>
<!-- Node27 -->
<g id="node28" class="node">
<title>Node27</title>
<g id="a_node28"><a xlink:href="_int_field_8_h.html" target="_top" xlink:title="amr&#45;wind/core/IntField.H">
<polygon fill="#ffffff" stroke="#000000" points="205,-129 205,-148 340,-148 340,-129 205,-129"/>
<text text-anchor="middle" x="272.5" y="-136" font-family="Helvetica,sans-Serif" font-size="10.00" fill="#000000">amr&#45;wind/core/IntField.H</text>
</a>
</g>
</g>
<!-- Node14&#45;&gt;Node27 -->
<g id="edge38" class="edge">
<title>Node14&#45;&gt;Node27</title>
<path fill="none" stroke="#191970" d="M653.2023,-196.1859C578.6459,-186.4968 459.8391,-170.4651 357.5,-154 349.4981,-152.7126 341.0875,-151.2781 332.7972,-149.8161"/>
<polygon fill="#191970" stroke="#191970" points="333.2397,-146.3398 322.7801,-148.027 332.0089,-153.2308 333.2397,-146.3398"/>
</g>
<!-- Node28 -->
<g id="node29" class="node">
<title>Node28</title>
<polygon fill="#ffffff" stroke="#bfbfbf" points="277.5,-62 277.5,-81 387.5,-81 387.5,-62 277.5,-62"/>
<text text-anchor="middle" x="332.5" y="-69" font-family="Helvetica,sans-Serif" font-size="10.00" fill="#000000">AMReX_iMultiFab.H</text>
</g>
<!-- Node14&#45;&gt;Node28 -->
<g id="edge51" class="edge">
<title>Node14&#45;&gt;Node28</title>
<path fill="none" stroke="#191970" d="M653.2248,-199.8821C570.9225,-192.5369 443.3703,-177.7356 401.5,-154 374.8199,-138.8755 353.9717,-109.1974 342.4549,-89.8671"/>
<polygon fill="#191970" stroke="#191970" points="345.4325,-88.0232 337.4336,-81.0757 339.3541,-91.495 345.4325,-88.0232"/>
</g>
<!-- Node29 -->
<g id="node30" class="node">
<title>Node29</title>
<g id="a_node30"><a xlink:href="_scratch_field_8_h.html" target="_top" xlink:title="amr&#45;wind/core/ScratchField.H">
<polygon fill="#ffffff" stroke="#000000" points="647.5,-129 647.5,-148 805.5,-148 805.5,-129 647.5,-129"/>
<text text-anchor="middle" x="726.5" y="-136" font-family="Helvetica,sans-Serif" font-size="10.00" fill="#000000">amr&#45;wind/core/ScratchField.H</text>
</a>
</g>
</g>
<!-- Node14&#45;&gt;Node29 -->
<g id="edge42" class="edge">
<title>Node14&#45;&gt;Node29</title>
<path fill="none" stroke="#191970" d="M726.5,-195.9005C726.5,-186.149 726.5,-170.7597 726.5,-158.3695"/>
<polygon fill="#191970" stroke="#191970" points="730.0001,-158.0816 726.5,-148.0817 723.0001,-158.0817 730.0001,-158.0816"/>
</g>
<!-- Node17&#45;&gt;Node16 -->
<g id="edge20" class="edge">
<title>Node17&#45;&gt;Node16</title>
<path fill="none" stroke="#191970" d="M123.0205,-61.9671C134.9595,-59.862 147.6608,-57.7424 159.5,-56 260.7014,-41.1061 377.0712,-28.0438 457.1525,-19.682"/>
<polygon fill="#191970" stroke="#191970" points="457.64,-23.1502 467.2245,-18.6351 456.9163,-16.1878 457.64,-23.1502"/>
</g>
<!-- Node17&#45;&gt;Node18 -->
<g id="edge21" class="edge">
<title>Node17&#45;&gt;Node18</title>
<path fill="none" stroke="#191970" d="M145.1097,-64.4657C173.3246,-61.7662 205.9166,-58.6897 235.5,-56 416.6357,-39.5315 465.0484,-42.4165 649.867,-19.9974"/>
<polygon fill="#191970" stroke="#191970" points="650.4183,-23.4562 659.9202,-18.7695 649.5696,-16.5078 650.4183,-23.4562"/>
</g>
<!-- Node19 -->
<g id="node20" class="node">
<title>Node19</title>
<polygon fill="#ffffff" stroke="#bfbfbf" points="11.5,-.5 11.5,-19.5 133.5,-19.5 133.5,-.5 11.5,-.5"/>
<text text-anchor="middle" x="72.5" y="-7.5" font-family="Helvetica,sans-Serif" font-size="10.00" fill="#000000">AMReX_Interpolater.H</text>
</g>
<!-- Node17&#45;&gt;Node19 -->
<g id="edge22" class="edge">
<title>Node17&#45;&gt;Node19</title>
<path fill="none" stroke="#191970" d="M72.5,-61.8906C72.5,-53.3657 72.5,-40.6392 72.5,-29.9235"/>
<polygon fill="#191970" stroke="#191970" points="76.0001,-29.7448 72.5,-19.7449 69.0001,-29.7449 76.0001,-29.7448"/>
</g>
<!-- Node20&#45;&gt;Node2 -->
<g id="edge25" class="edge">
<title>Node20&#45;&gt;Node2</title>
<path fill="none" stroke="#191970" d="M1211.6404,-130.1891C1258.0856,-122.5499 1322.8925,-109.0057 1376.5,-87 1400.6881,-77.0708 1401.5624,-63.8595 1426.5,-56 1464.3703,-44.0645 2053.3231,-18.4182 2212.8898,-11.6601"/>
<polygon fill="#191970" stroke="#191970" points="2213.3536,-15.1438 2223.1969,-11.2246 2213.058,-8.15 2213.3536,-15.1438"/>
</g>
<!-- Node20&#45;&gt;Node4 -->
<g id="edge26" class="edge">
<title>Node20&#45;&gt;Node4</title>
<path fill="none" stroke="#191970" d="M1191.5719,-128.9749C1228.5051,-119.8882 1283.9465,-104.9479 1330.5,-87 1359.6172,-75.7744 1363.6276,-65.026 1393.5,-56 1447.5788,-39.66 1604.4442,-23.1985 1689.7098,-15.1222"/>
<polygon fill="#191970" stroke="#191970" points="1690.1128,-18.5998 1699.7414,-14.1794 1689.4578,-11.6305 1690.1128,-18.5998"/>
</g>
<!-- Node20&#45;&gt;Node15 -->
<g id="edge24" class="edge">
<title>Node20&#45;&gt;Node15</title>
<path fill="none" stroke="#191970" d="M1202.0138,-128.9594C1244.2704,-119.9619 1299.2153,-105.1631 1312.5,-87 1345.3989,-42.0201 1246.9933,-21.4513 1193.5441,-13.7917"/>
<polygon fill="#191970" stroke="#191970" points="1193.8859,-10.3061 1183.5059,-12.4285 1192.9439,-17.2424 1193.8859,-10.3061"/>
</g>
<!-- Node20&#45;&gt;Node16 -->
<g id="edge32" class="edge">
<title>Node20&#45;&gt;Node16</title>
<path fill="none" stroke="#191970" d="M1089.186,-134.0192C985.8203,-126.0103 781.4128,-108.0884 712.5,-87 683.7982,-78.2168 679.4238,-69.2682 652.5,-56 630.0012,-44.9125 604.3277,-32.8841 584.9036,-23.9089"/>
<polygon fill="#191970" stroke="#191970" points="586.1862,-20.6462 575.6392,-19.6405 583.257,-27.0039 586.1862,-20.6462"/>
</g>
<!-- Node20&#45;&gt;Node18 -->
<g id="edge28" class="edge">
<title>Node20&#45;&gt;Node18</title>
<path fill="none" stroke="#191970" d="M1089.2533,-134.7641C979.5965,-127.525 758.6845,-110.2324 732.5,-87 716.4558,-72.7647 712.9023,-47.3424 712.579,-29.6189"/>
<polygon fill="#191970" stroke="#191970" points="716.08,-29.5618 712.723,-19.5129 709.0808,-29.462 716.08,-29.5618"/>
</g>
<!-- Node21 -->
<g id="node22" class="node">
<title>Node21</title>
<polygon fill="#ffffff" stroke="#bfbfbf" points="1019.5,-62 1019.5,-81 1083.5,-81 1083.5,-62 1019.5,-62"/>
<text text-anchor="middle" x="1051.5" y="-69" font-family="Helvetica,sans-Serif" font-size="10.00" fill="#000000">algorithm</text>
</g>
<!-- Node20&#45;&gt;Node21 -->
<g id="edge27" class="edge">
<title>Node20&#45;&gt;Node21</title>
<path fill="none" stroke="#191970" d="M1136.3157,-128.9005C1120.0689,-117.9052 1093.2309,-99.7422 1074.0966,-86.7927"/>
<polygon fill="#191970" stroke="#191970" points="1075.9014,-83.7879 1065.658,-81.0817 1071.978,-89.5851 1075.9014,-83.7879"/>
</g>
<!-- Node22 -->
<g id="node23" class="node">
<title>Node22</title>
<polygon fill="#ffffff" stroke="#bfbfbf" points="1102,-62 1102,-81 1199,-81 1199,-62 1102,-62"/>
<text text-anchor="middle" x="1150.5" y="-69" font-family="Helvetica,sans-Serif" font-size="10.00" fill="#000000">AMReX_BCRec.H</text>
</g>
<!-- Node20&#45;&gt;Node22 -->
<g id="edge29" class="edge">
<title>Node20&#45;&gt;Node22</title>
<path fill="none" stroke="#191970" d="M1150.5,-128.9005C1150.5,-119.149 1150.5,-103.7597 1150.5,-91.3695"/>
<polygon fill="#191970" stroke="#191970" points="1154.0001,-91.0816 1150.5,-81.0817 1147.0001,-91.0817 1154.0001,-91.0816"/>
</g>
<!-- Node23 -->
<g id="node24" class="node">
<title>Node23</title>
<polygon fill="#ffffff" stroke="#bfbfbf" points="1217.5,-62 1217.5,-81 1303.5,-81 1303.5,-62 1217.5,-62"/>
<text text-anchor="middle" x="1260.5" y="-69" font-family="Helvetica,sans-Serif" font-size="10.00" fill="#000000">AMReX_Gpu.H</text>
</g>
<!-- Node20&#45;&gt;Node23 -->
<g id="edge30" class="edge">
<title>Node20&#45;&gt;Node23</title>
<path fill="none" stroke="#191970" d="M1166.2603,-128.9005C1184.4757,-117.8057 1214.673,-99.4128 1235.9677,-86.4424"/>
<polygon fill="#191970" stroke="#191970" points="1238.0491,-89.2728 1244.7689,-81.0817 1234.4077,-83.2945 1238.0491,-89.2728"/>
</g>
<!-- Node24 -->
<g id="node25" class="node">
<title>Node24</title>
<g id="a_node25"><a xlink:href="incflo__enums_8_h.html" target="_top" xlink:title="amr&#45;wind/incflo_enums.H">
<polygon fill="#ffffff" stroke="#000000" points="1435.5,-62 1435.5,-81 1575.5,-81 1575.5,-62 1435.5,-62"/>
<text text-anchor="middle" x="1505.5" y="-69" font-family="Helvetica,sans-Serif" font-size="10.00" fill="#000000">amr&#45;wind/incflo_enums.H</text>
</a>
</g>
</g>
<!-- Node20&#45;&gt;Node24 -->
<g id="edge31" class="edge">
<title>Node20&#45;&gt;Node24</title>
<path fill="none" stroke="#191970" d="M1200.9858,-128.9717C1265.1681,-116.8584 1375.8778,-95.9639 1444.6531,-82.9838"/>
<polygon fill="#191970" stroke="#191970" points="1445.7239,-86.3436 1454.9012,-81.0496 1444.4256,-79.465 1445.7239,-86.3436"/>
</g>
<!-- Node25 -->
<g id="node26" class="node">
<title>Node25</title>
<g id="a_node26"><a xlink:href="_view_field_8_h.html" target="_top" xlink:title="amr&#45;wind/core/ViewField.H">
<polygon fill="#ffffff" stroke="#000000" points="741.5,-62 741.5,-81 887.5,-81 887.5,-62 741.5,-62"/>
<text text-anchor="middle" x="814.5" y="-69" font-family="Helvetica,sans-Serif" font-size="10.00" fill="#000000">amr&#45;wind/core/ViewField.H</text>
</a>
</g>
</g>
<!-- Node20&#45;&gt;Node25 -->
<g id="edge33" class="edge">
<title>Node20&#45;&gt;Node25</title>
<path fill="none" stroke="#191970" d="M1102.7162,-128.9717C1042.0938,-116.8833 937.6148,-96.0497 872.4918,-83.0638"/>
<polygon fill="#191970" stroke="#191970" points="872.882,-79.5728 862.3907,-81.0496 871.5131,-86.4377 872.882,-79.5728"/>
</g>
<!-- Node25&#45;&gt;Node15 -->
<g id="edge34" class="edge">
<title>Node25&#45;&gt;Node15</title>
<path fill="none" stroke="#191970" d="M867.8696,-61.9812C878.9837,-60.0019 890.6238,-57.931 901.5,-56 983.4951,-41.4424 1080.051,-24.3807 1129.2088,-15.7002"/>
<polygon fill="#191970" stroke="#191970" points="1130.0006,-19.1146 1139.2397,-13.9291 1128.7834,-12.2213 1130.0006,-19.1146"/>
</g>
<!-- Node25&#45;&gt;Node16 -->
<g id="edge35" class="edge">
<title>Node25&#45;&gt;Node16</title>
<path fill="none" stroke="#191970" d="M774.1603,-61.9581C728.5232,-51.1632 654.143,-33.5694 604.766,-21.8899"/>
<polygon fill="#191970" stroke="#191970" points="605.4715,-18.4602 594.9344,-19.5643 603.8602,-25.2722 605.4715,-18.4602"/>
</g>
<!-- Node25&#45;&gt;Node18 -->
<g id="edge36" class="edge">
<title>Node25&#45;&gt;Node18</title>
<path fill="none" stroke="#191970" d="M798.7188,-61.8906C782.4125,-51.9616 756.746,-36.333 737.8386,-24.8201"/>
<polygon fill="#191970" stroke="#191970" points="739.5319,-21.7533 729.1704,-19.5419 735.8913,-27.7322 739.5319,-21.7533"/>
</g>
<!-- Node26 -->
<g id="node27" class="node">
<title>Node26</title>
<polygon fill="#ffffff" stroke="#bfbfbf" points="1512.5,-.5 1512.5,-19.5 1608.5,-19.5 1608.5,-.5 1512.5,-.5"/>
<text text-anchor="middle" x="1560.5" y="-7.5" font-family="Helvetica,sans-Serif" font-size="10.00" fill="#000000">AMReX_Vector.H</text>
</g>
<!-- Node25&#45;&gt;Node26 -->
<g id="edge37" class="edge">
<title>Node25&#45;&gt;Node26</title>
<path fill="none" stroke="#191970" d="M886.1517,-61.9978C903.5897,-59.8559 922.1998,-57.7123 939.5,-56 1145.8561,-35.5757 1391.6109,-19.9334 1501.8754,-13.3734"/>
<polygon fill="#191970" stroke="#191970" points="1502.3417,-16.852 1512.1173,-12.7671 1501.9279,-9.8643 1502.3417,-16.852"/>
</g>
<!-- Node27&#45;&gt;Node15 -->
<g id="edge39" class="edge">
<title>Node27&#45;&gt;Node15</title>
<path fill="none" stroke="#191970" d="M268.098,-128.8159C261.0285,-111.6306 249.7366,-75.7548 268.5,-56 283.6375,-40.0626 971.3088,-16.309 1129.3551,-11.0538"/>
<polygon fill="#191970" stroke="#191970" points="1129.5173,-14.5505 1139.396,-10.7212 1129.2855,-7.5543 1129.5173,-14.5505"/>
</g>
<!-- Node27&#45;&gt;Node16 -->
<g id="edge40" class="edge">
<title>Node27&#45;&gt;Node16</title>
<path fill="none" stroke="#191970" d="M261.9654,-128.8513C245.19,-112.3434 216.1789,-78.307 235.5,-56 250.0066,-39.2515 368.6845,-25.6185 457.0718,-17.6575"/>
<polygon fill="#191970" stroke="#191970" points="457.4973,-21.1336 467.1484,-16.7625 456.8779,-14.1611 457.4973,-21.1336"/>
</g>
<!-- Node27&#45;&gt;Node28 -->
<g id="edge41" class="edge">
<title>Node27&#45;&gt;Node28</title>
<path fill="none" stroke="#191970" d="M281.0965,-128.9005C290.453,-118.4525 305.6052,-101.5325 317.0401,-88.7635"/>
<polygon fill="#191970" stroke="#191970" points="319.8555,-90.8661 323.9194,-81.0817 314.6408,-86.1963 319.8555,-90.8661"/>
</g>
<!-- Node29&#45;&gt;Node15 -->
<g id="edge43" class="edge">
<title>Node29&#45;&gt;Node15</title>
<path fill="none" stroke="#191970" d="M772.4247,-128.9462C807.544,-120.6201 856.5585,-106.7588 896.5,-87 917.6171,-76.5535 917.9351,-65.4877 939.5,-56 1003.2376,-27.9578 1084.9026,-16.7053 1129.2775,-12.4291"/>
<polygon fill="#191970" stroke="#191970" points="1129.8184,-15.8946 1139.4625,-11.5081 1129.1879,-8.923 1129.8184,-15.8946"/>
</g>
<!-- Node29&#45;&gt;Node16 -->
<g id="edge44" class="edge">
<title>Node29&#45;&gt;Node16</title>
<path fill="none" stroke="#191970" d="M713.572,-128.8416C684.1869,-106.8881 612.1299,-53.0549 575.9543,-26.0283"/>
<polygon fill="#191970" stroke="#191970" points="577.684,-22.9517 567.578,-19.7705 573.4944,-28.5595 577.684,-22.9517"/>
</g>
<!-- Node29&#45;&gt;Node18 -->
<g id="edge46" class="edge">
<title>Node29&#45;&gt;Node18</title>
<path fill="none" stroke="#191970" d="M719.5863,-128.8217C712.9434,-118.8801 703.362,-102.6839 699.5,-87 694.696,-67.4907 700.1132,-44.8278 705.5463,-29.1642"/>
<polygon fill="#191970" stroke="#191970" points="708.9139,-30.1545 709.1848,-19.5631 702.3681,-27.6738 708.9139,-30.1545"/>
</g>
<!-- Node29&#45;&gt;Node25 -->
<g id="edge45" class="edge">
<title>Node29&#45;&gt;Node25</title>
<path fill="none" stroke="#191970" d="M739.1083,-128.9005C753.3539,-118.0544 776.7599,-100.2339 793.7177,-87.3229"/>
<polygon fill="#191970" stroke="#191970" points="796.0789,-89.9241 801.9151,-81.0817 791.8385,-84.3547 796.0789,-89.9241"/>
</g>
<!-- Node29&#45;&gt;Node26 -->
<g id="edge47" class="edge">
<title>Node29&#45;&gt;Node26</title>
<path fill="none" stroke="#191970" d="M771.9963,-128.9579C814.0666,-119.704 878.1122,-104.5201 932.5,-87 968.0074,-75.5619 974.1855,-64.5361 1010.5,-56 1102.6084,-34.3491 1379.9341,-18.7269 1501.8829,-12.7171"/>
<polygon fill="#191970" stroke="#191970" points="1502.324,-16.1998 1512.1414,-12.2162 1501.9826,-9.2082 1502.324,-16.1998"/>
</g>
<!-- Node30 -->
<g id="node31" class="node">
<title>Node30</title>
<polygon fill="#ffffff" stroke="#bfbfbf" points="443.5,-62 443.5,-81 571.5,-81 571.5,-62 443.5,-62"/>
<text text-anchor="middle" x="507.5" y="-69" font-family="Helvetica,sans-Serif" font-size="10.00" fill="#000000">AMReX_PhysBCFunct.H</text>
</g>
<!-- Node29&#45;&gt;Node30 -->
<g id="edge48" class="edge">
<title>Node29&#45;&gt;Node30</title>
<path fill="none" stroke="#191970" d="M695.1226,-128.9005C656.5806,-117.1091 591.0947,-97.0746 548.5765,-84.0668"/>
<polygon fill="#191970" stroke="#191970" points="549.4056,-80.6604 538.8192,-81.0817 547.3577,-87.3541 549.4056,-80.6604"/>
</g>
<!-- Node31&#45;&gt;Node3 -->
<g id="edge54" class="edge">
<title>Node31&#45;&gt;Node3</title>
<path fill="none" stroke="#191970" d="M1645.2244,-124.2163C1648.3533,-123.7796 1651.4542,-123.3715 1654.5,-123 1893.7033,-93.8225 1955.1819,-104.7972 2195.5,-87 2232.5994,-84.2525 2273.7498,-80.9295 2308.2415,-78.0661"/>
<polygon fill="#191970" stroke="#191970" points="2308.5758,-81.5504 2318.2508,-77.2325 2307.9948,-74.5746 2308.5758,-81.5504"/>
</g>
<!-- Node31&#45;&gt;Node15 -->
<g id="edge53" class="edge">
<title>Node31&#45;&gt;Node15</title>
<path fill="none" stroke="#191970" d="M1587.8523,-123.3549C1608.9405,-105.8781 1636.3709,-76.8703 1617.5,-56 1589.1166,-24.6093 1292.9776,-13.6235 1193.7207,-10.8074"/>
<polygon fill="#191970" stroke="#191970" points="1193.7698,-7.3075 1183.6774,-10.5315 1193.5775,-14.3049 1193.7698,-7.3075"/>
</g>
<!-- Node31&#45;&gt;Node16 -->
<g id="edge62" class="edge">
<title>Node31&#45;&gt;Node16</title>
<path fill="none" stroke="#191970" d="M1577.6124,-123.214C1588.4288,-104.7763 1601.8386,-74.0198 1584.5,-56 1549.8671,-20.0065 765.5774,-23.3644 651.8643,-19.7841"/>
<polygon fill="#191970" stroke="#191970" points="651.7461,-16.2753 641.5991,-19.3233 651.4321,-23.2683 651.7461,-16.2753"/>
</g>
<!-- Node31&#45;&gt;Node24 -->
<g id="edge63" class="edge">
<title>Node31&#45;&gt;Node24</title>
<path fill="none" stroke="#191970" d="M1553.4312,-123.2967C1543.8651,-112.9591 1531.1962,-99.2684 1521.2857,-88.5588"/>
<polygon fill="#191970" stroke="#191970" points="1523.7027,-86.0175 1514.3419,-81.055 1518.565,-90.7718 1523.7027,-86.0175"/>
</g>
<!-- Node32 -->
<g id="node33" class="node">
<title>Node32</title>
<g id="a_node33"><a xlink:href="_coll_mgr_8_h.html" target="_top" xlink:title="amr&#45;wind/core/CollMgr.H">
<polygon fill="#ffffff" stroke="#000000" points="1745.5,-62 1745.5,-81 1881.5,-81 1881.5,-62 1745.5,-62"/>
<text text-anchor="middle" x="1813.5" y="-69" font-family="Helvetica,sans-Serif" font-size="10.00" fill="#000000">amr&#45;wind/core/CollMgr.H</text>
</a>
</g>
</g>
<!-- Node31&#45;&gt;Node32 -->
<g id="edge55" class="edge">
<title>Node31&#45;&gt;Node32</title>
<path fill="none" stroke="#191970" d="M1622.7072,-123.4639C1666.8096,-111.4522 1727.8223,-94.835 1768.8735,-83.6544"/>
<polygon fill="#191970" stroke="#191970" points="1769.8712,-87.0102 1778.6,-81.0053 1768.0317,-80.2562 1769.8712,-87.0102"/>
</g>
<!-- Node33 -->
<g id="node34" class="node">
<title>Node33</title>
<g id="a_node34"><a xlink:href="_p_d_e_fields_8_h.html" target="_top" xlink:title="amr&#45;wind/equation_systems\l/PDEFields.H">
<polygon fill="#ffffff" stroke="#000000" points="1900,-56.5 1900,-86.5 2055,-86.5 2055,-56.5 1900,-56.5"/>
<text text-anchor="start" x="1908" y="-74.5" font-family="Helvetica,sans-Serif" font-size="10.00" fill="#000000">amr&#45;wind/equation_systems</text>
<text text-anchor="middle" x="1977.5" y="-63.5" font-family="Helvetica,sans-Serif" font-size="10.00" fill="#000000">/PDEFields.H</text>
</a>
</g>
</g>
<!-- Node31&#45;&gt;Node33 -->
<g id="edge60" class="edge">
<title>Node31&#45;&gt;Node33</title>
<path fill="none" stroke="#191970" d="M1645.2716,-124.5451C1648.3874,-124.0174 1651.4727,-123.5005 1654.5,-123 1756.0122,-106.2175 1784.1344,-104.405 1889.6184,-87.1199"/>
<polygon fill="#191970" stroke="#191970" points="1890.4301,-90.5335 1899.7284,-85.4549 1889.2925,-83.6266 1890.4301,-90.5335"/>
</g>
<!-- Node32&#45;&gt;Node2 -->
<g id="edge57" class="edge">
<title>Node32&#45;&gt;Node2</title>
<path fill="none" stroke="#191970" d="M1858.7732,-61.9508C1869.478,-59.8463 1880.871,-57.7311 1891.5,-56 2008.1084,-37.0081 2146.9787,-21.2177 2213.3706,-14.0851"/>
<polygon fill="#191970" stroke="#191970" points="2213.8173,-17.5574 2223.3892,-13.0155 2213.0742,-10.597 2213.8173,-17.5574"/>
</g>
<!-- Node32&#45;&gt;Node4 -->
<g id="edge58" class="edge">
<title>Node32&#45;&gt;Node4</title>
<path fill="none" stroke="#191970" d="M1803.0313,-61.8906C1792.7663,-52.4683 1776.9097,-37.9134 1764.5994,-26.6137"/>
<polygon fill="#191970" stroke="#191970" points="1766.8501,-23.9287 1757.1163,-19.7449 1762.1166,-29.0856 1766.8501,-23.9287"/>
</g>
<!-- Node32&#45;&gt;Node15 -->
<g id="edge56" class="edge">
<title>Node32&#45;&gt;Node15</title>
<path fill="none" stroke="#191970" d="M1767.6683,-61.9465C1755.919,-59.7427 1743.2743,-57.5834 1731.5,-56 1527.7139,-28.5957 1280.5843,-15.4249 1193.6274,-11.3938"/>
<polygon fill="#191970" stroke="#191970" points="1193.7465,-7.8957 1183.5975,-10.9367 1193.4278,-14.8884 1193.7465,-7.8957"/>
</g>
<!-- Node32&#45;&gt;Node26 -->
<g id="edge59" class="edge">
<title>Node32&#45;&gt;Node26</title>
<path fill="none" stroke="#191970" d="M1774.2463,-61.9581C1729.9306,-51.1857 1657.7624,-33.6428 1609.714,-21.9631"/>
<polygon fill="#191970" stroke="#191970" points="1610.3895,-18.5254 1599.8457,-19.5643 1608.736,-25.3274 1610.3895,-18.5254"/>
</g>
<!-- Node34 -->
<g id="node35" class="node">
<title>Node34</title>
<polygon fill="#ffffff" stroke="#bfbfbf" points="1953,-.5 1953,-19.5 2002,-19.5 2002,-.5 1953,-.5"/>
<text text-anchor="middle" x="1977.5" y="-7.5" font-family="Helvetica,sans-Serif" font-size="10.00" fill="#000000">iosfwd</text>
</g>
<!-- Node33&#45;&gt;Node34 -->
<g id="edge61" class="edge">
<title>Node33&#45;&gt;Node34</title>
<path fill="none" stroke="#191970" d="M1977.5,-56.2977C1977.5,-48.3834 1977.5,-38.6043 1977.5,-30.0759"/>
<polygon fill="#191970" stroke="#191970" points="1981.0001,-29.8469 1977.5,-19.8469 1974.0001,-29.847 1981.0001,-29.8469"/>
</g>
<!-- Node35&#45;&gt;Node3 -->
<g id="edge65" class="edge">
<title>Node35&#45;&gt;Node3</title>
<path fill="none" stroke="#191970" d="M2160.76,-128.9717C2207.3812,-117.0495 2287.2664,-96.6208 2338.1688,-83.6038"/>
<polygon fill="#191970" stroke="#191970" points="2339.1233,-86.9724 2347.9444,-81.1039 2337.389,-80.1906 2339.1233,-86.9724"/>
</g>
<!-- Node35&#45;&gt;Node18 -->
<g id="edge67" class="edge">
<title>Node35&#45;&gt;Node18</title>
<path fill="none" stroke="#191970" d="M2078.6515,-128.9486C2067.8271,-126.8205 2056.2745,-124.6954 2045.5,-123 1908.9183,-101.5086 1872.7301,-110.6181 1736.5,-87 1676.27,-76.558 1663.0345,-64.501 1602.5,-56 1442.8781,-33.5838 953.1437,-17.157 777.2422,-11.8419"/>
<polygon fill="#191970" stroke="#191970" points="777.2095,-8.3395 767.1089,-11.5376 776.9992,-15.3363 777.2095,-8.3395"/>
</g>
<!-- Node35&#45;&gt;Node32 -->
<g id="edge66" class="edge">
<title>Node35&#45;&gt;Node32</title>
<path fill="none" stroke="#191970" d="M2079.4138,-128.9717C2023.7916,-116.9501 1928.1525,-96.2797 1868.0041,-83.2799"/>
<polygon fill="#191970" stroke="#191970" points="1868.4498,-79.7955 1857.936,-81.1039 1866.971,-86.6375 1868.4498,-79.7955"/>
</g>
<!-- Node36 -->
<g id="node37" class="node">
<title>Node36</title>
<polygon fill="#ffffff" stroke="#bfbfbf" points="2073,-62 2073,-81 2186,-81 2186,-62 2073,-62"/>
<text text-anchor="middle" x="2129.5" y="-69" font-family="Helvetica,sans-Serif" font-size="10.00" fill="#000000">AMReX_Geometry.H</text>
</g>
<!-- Node35&#45;&gt;Node36 -->
<g id="edge68" class="edge">
<title>Node35&#45;&gt;Node36</title>
<path fill="none" stroke="#191970" d="M2124.3597,-128.9005C2125.2329,-119.149 2126.6111,-103.7597 2127.7206,-91.3695"/>
<polygon fill="#191970" stroke="#191970" points="2131.2359,-91.354 2128.6419,-81.0817 2124.2639,-90.7296 2131.2359,-91.354"/>
</g>
<!-- Node37&#45;&gt;Node1 -->
<g id="edge71" class="edge">
<title>Node37&#45;&gt;Node1</title>
<path fill="none" stroke="#191970" d="M2403.1542,-190.2967C2396.8893,-181.9016 2388.9741,-171.2952 2381.9402,-161.8698"/>
<polygon fill="#191970" stroke="#191970" points="2384.5868,-159.5642 2375.8009,-153.6432 2378.9767,-163.7508 2384.5868,-159.5642"/>
</g>
<!-- Node37&#45;&gt;Node2 -->
<g id="edge73" class="edge">
<title>Node37&#45;&gt;Node2</title>
<path fill="none" stroke="#191970" d="M2427.6494,-190.2026C2451.0706,-161.0414 2494.5853,-96.7758 2461.5,-56 2414.5717,1.8366 2369.8953,-34.5991 2291.7254,-19.9626"/>
<polygon fill="#191970" stroke="#191970" points="2292.0178,-16.4467 2281.5088,-17.793 2290.5636,-23.294 2292.0178,-16.4467"/>
</g>
<!-- Node37&#45;&gt;Node3 -->
<g id="edge70" class="edge">
<title>Node37&#45;&gt;Node3</title>
<path fill="none" stroke="#191970" d="M2475.3752,-190.4577C2517.7991,-176.8992 2563.0655,-154.276 2540.5,-123 2528.7727,-106.7458 2482.7314,-92.7387 2443.8496,-83.4536"/>
<polygon fill="#191970" stroke="#191970" points="2444.1597,-79.9325 2433.6271,-81.0793 2442.576,-86.751 2444.1597,-79.9325"/>
</g>
<!-- Node37&#45;&gt;Node15 -->
<g id="edge74" class="edge">
<title>Node37&#45;&gt;Node15</title>
<path fill="none" stroke="#191970" d="M2351.2157,-190.4851C2325.5298,-182.4074 2296.547,-170.606 2273.5,-154 2250.9176,-137.7288 2220.2967,-68.6428 2195.5,-56 2172.6282,-44.3386 1366.1176,-16.8242 1193.7197,-11.0675"/>
<polygon fill="#191970" stroke="#191970" points="1193.6278,-7.5626 1183.5168,-10.7275 1193.3946,-14.5587 1193.6278,-7.5626"/>
</g>
<!-- Node37&#45;&gt;Node26 -->
<g id="edge72" class="edge">
<title>Node37&#45;&gt;Node26</title>
<path fill="none" stroke="#191970" d="M2369.5568,-190.4115C2348.1664,-181.8514 2323.0552,-169.6842 2303.5,-154 2260.7144,-119.6839 2276.835,-81.9215 2228.5,-56 2175.7996,-27.7374 1751.1475,-24.2759 1691.5,-20 1667.7263,-18.2958 1641.534,-16.3166 1618.8587,-14.571"/>
<polygon fill="#191970" stroke="#191970" points="1618.9489,-11.0677 1608.7091,-13.7872 1618.4099,-18.0469 1618.9489,-11.0677"/>
</g>
<!-- Node38 -->
<g id="node39" class="node">
<title>Node38</title>
<polygon fill="#ffffff" stroke="#bfbfbf" points="2493.5,-129 2493.5,-148 2531.5,-148 2531.5,-129 2493.5,-129"/>
<text text-anchor="middle" x="2512.5" y="-136" font-family="Helvetica,sans-Serif" font-size="10.00" fill="#000000">map</text>
</g>
<!-- Node37&#45;&gt;Node38 -->
<g id="edge75" class="edge">
<title>Node37&#45;&gt;Node38</title>
<path fill="none" stroke="#191970" d="M2436.7377,-190.2967C2452.7478,-179.351 2474.2563,-164.6462 2490.2656,-153.701"/>
<polygon fill="#191970" stroke="#191970" points="2492.2443,-156.5881 2498.5241,-148.055 2488.2936,-150.8095 2492.2443,-156.5881"/>
</g>
</g>
</svg>
