<?xml version="1.0" encoding="UTF-8" standalone="no"?>
<!DOCTYPE svg PUBLIC "-//W3C//DTD SVG 1.1//EN"
 "http://www.w3.org/Graphics/SVG/1.1/DTD/svg11.dtd">
<!-- Generated by graphviz version 2.40.1 (20161225.0304)
 -->
<!-- Title: PostProcessing.H Pages: 1 -->
<svg width="1282pt" height="207pt"
 viewBox="0.00 0.00 1282.00 207.00" xmlns="http://www.w3.org/2000/svg" xmlns:xlink="http://www.w3.org/1999/xlink">
<g id="graph0" class="graph" transform="scale(1 1) rotate(0) translate(4 203)">
<title>PostProcessing.H</title>
<polygon fill="#ffffff" stroke="transparent" points="-4,4 -4,-203 1278,-203 1278,4 -4,4"/>
<!-- Node7 -->
<g id="node1" class="node">
<title>Node7</title>
<polygon fill="#bfbfbf" stroke="#000000" points="822,-179.5 822,-198.5 923,-198.5 923,-179.5 822,-179.5"/>
<text text-anchor="middle" x="872.5" y="-186.5" font-family="Helvetica,sans-Serif" font-size="10.00" fill="#000000">PostProcessing.H</text>
</g>
<!-- Node8 -->
<g id="node2" class="node">
<title>Node8</title>
<g id="a_node2"><a xlink:href="_a_b_l_stats_8_h.html" target="_top" xlink:title="ABLStats.H">
<polygon fill="#ffffff" stroke="#000000" points="513,-123.5 513,-142.5 584,-142.5 584,-123.5 513,-123.5"/>
<text text-anchor="middle" x="548.5" y="-130.5" font-family="Helvetica,sans-Serif" font-size="10.00" fill="#000000">ABLStats.H</text>
</a>
</g>
</g>
<!-- Node7&#45;&gt;Node8 -->
<g id="edge1" class="edge">
<title>Node7&#45;&gt;Node8</title>
<path fill="none" stroke="#191970" d="M811.8725,-178.5212C744.8582,-166.9384 639.1509,-148.6681 584.2559,-139.18"/>
<polygon fill="#191970" stroke="#191970" points="811.425,-181.9956 821.875,-180.25 812.6172,-175.0979 811.425,-181.9956"/>
</g>
<!-- Node13 -->
<g id="node7" class="node">
<title>Node13</title>
<g id="a_node7"><a xlink:href="incflo_8cpp.html" target="_top" xlink:title="incflo.cpp">
<polygon fill="#ffffff" stroke="#000000" points="669,-6 669,-25 732,-25 732,-6 669,-6"/>
<text text-anchor="middle" x="700.5" y="-13" font-family="Helvetica,sans-Serif" font-size="10.00" fill="#000000">incflo.cpp</text>
</a>
</g>
</g>
<!-- Node7&#45;&gt;Node13 -->
<g id="edge12" class="edge">
<title>Node7&#45;&gt;Node13</title>
<path fill="none" stroke="#191970" d="M811.5985,-184.7044C753.5776,-179.1942 672.231,-167.2832 652.5,-143 622.3713,-105.9201 669.6752,-47.9729 690.9721,-25.1763"/>
<polygon fill="#191970" stroke="#191970" points="811.5032,-188.2101 821.7788,-185.629 812.1364,-181.2388 811.5032,-188.2101"/>
</g>
<!-- Node18 -->
<g id="node12" class="node">
<title>Node18</title>
<g id="a_node12"><a xlink:href="_c_f_d_sim_8cpp.html" target="_top" xlink:title="CFDSim.cpp">
<polygon fill="#ffffff" stroke="#000000" points="662,-123.5 662,-142.5 737,-142.5 737,-123.5 662,-123.5"/>
<text text-anchor="middle" x="699.5" y="-130.5" font-family="Helvetica,sans-Serif" font-size="10.00" fill="#000000">CFDSim.cpp</text>
</a>
</g>
</g>
<!-- Node7&#45;&gt;Node18 -->
<g id="edge11" class="edge">
<title>Node7&#45;&gt;Node18</title>
<path fill="none" stroke="#191970" d="M832.9277,-176.1905C801.2329,-165.9309 757.4832,-151.7691 728.8517,-142.5011"/>
<polygon fill="#191970" stroke="#191970" points="832.1684,-179.6234 842.7602,-179.3733 834.3242,-172.9636 832.1684,-179.6234"/>
</g>
<!-- Node19 -->
<g id="node13" class="node">
<title>Node19</title>
<g id="a_node13"><a xlink:href="incflo__advance_8cpp.html" target="_top" xlink:title="incflo_advance.cpp">
<polygon fill="#ffffff" stroke="#000000" points="755.5,-123.5 755.5,-142.5 865.5,-142.5 865.5,-123.5 755.5,-123.5"/>
<text text-anchor="middle" x="810.5" y="-130.5" font-family="Helvetica,sans-Serif" font-size="10.00" fill="#000000">incflo_advance.cpp</text>
</a>
</g>
</g>
<!-- Node7&#45;&gt;Node19 -->
<g id="edge13" class="edge">
<title>Node7&#45;&gt;Node19</title>
<path fill="none" stroke="#191970" d="M854.0779,-172.3607C843.3519,-162.6727 830.2066,-150.7995 821.1758,-142.6427"/>
<polygon fill="#191970" stroke="#191970" points="851.9334,-175.14 861.7004,-179.2455 856.6254,-169.9453 851.9334,-175.14"/>
</g>
<!-- Node20 -->
<g id="node14" class="node">
<title>Node20</title>
<g id="a_node14"><a xlink:href="_time_averaging_8_h.html" target="_top" xlink:title="TimeAveraging.H">
<polygon fill="#ffffff" stroke="#000000" points="884,-123.5 884,-142.5 985,-142.5 985,-123.5 884,-123.5"/>
<text text-anchor="middle" x="934.5" y="-130.5" font-family="Helvetica,sans-Serif" font-size="10.00" fill="#000000">TimeAveraging.H</text>
</a>
</g>
</g>
<!-- Node7&#45;&gt;Node20 -->
<g id="edge14" class="edge">
<title>Node7&#45;&gt;Node20</title>
<path fill="none" stroke="#191970" d="M890.9221,-172.3607C901.6481,-162.6727 914.7934,-150.7995 923.8242,-142.6427"/>
<polygon fill="#191970" stroke="#191970" points="888.3746,-169.9453 883.2996,-179.2455 893.0666,-175.14 888.3746,-169.9453"/>
</g>
<!-- Node24 -->
<g id="node18" class="node">
<title>Node24</title>
<g id="a_node18"><a xlink:href="_post_processing_8cpp.html" target="_top" xlink:title="PostProcessing.cpp">
<polygon fill="#ffffff" stroke="#000000" points="952.5,-67.5 952.5,-86.5 1062.5,-86.5 1062.5,-67.5 952.5,-67.5"/>
<text text-anchor="middle" x="1007.5" y="-74.5" font-family="Helvetica,sans-Serif" font-size="10.00" fill="#000000">PostProcessing.cpp</text>
</a>
</g>
</g>
<!-- Node7&#45;&gt;Node24 -->
<g id="edge20" class="edge">
<title>Node7&#45;&gt;Node24</title>
<path fill="none" stroke="#191970" d="M932.8571,-178.6504C954.8583,-171.9648 978.0907,-160.9908 993.5,-143 1007.2154,-126.9869 1008.5649,-100.8628 1008.1574,-86.763"/>
<polygon fill="#191970" stroke="#191970" points="931.891,-175.2861 923.1999,-181.3455 933.7727,-182.0285 931.891,-175.2861"/>
</g>
<!-- Node25 -->
<g id="node19" class="node">
<title>Node25</title>
<g id="a_node19"><a xlink:href="_field_norms_8_h.html" target="_top" xlink:title="FieldNorms.H">
<polygon fill="#ffffff" stroke="#000000" points="1063.5,-123.5 1063.5,-142.5 1145.5,-142.5 1145.5,-123.5 1063.5,-123.5"/>
<text text-anchor="middle" x="1104.5" y="-130.5" font-family="Helvetica,sans-Serif" font-size="10.00" fill="#000000">FieldNorms.H</text>
</a>
</g>
</g>
<!-- Node7&#45;&gt;Node25 -->
<g id="edge21" class="edge">
<title>Node7&#45;&gt;Node25</title>
<path fill="none" stroke="#191970" d="M922.0184,-177.0473C964.7197,-166.7401 1025.5655,-152.0532 1065.0448,-142.5237"/>
<polygon fill="#191970" stroke="#191970" points="921.0182,-173.6881 912.1186,-179.4369 922.6607,-180.4927 921.0182,-173.6881"/>
</g>
<!-- Node27 -->
<g id="node21" class="node">
<title>Node27</title>
<g id="a_node21"><a xlink:href="_sampling_8_h.html" target="_top" xlink:title="Sampling.H">
<polygon fill="#ffffff" stroke="#000000" points="1191,-123.5 1191,-142.5 1264,-142.5 1264,-123.5 1191,-123.5"/>
<text text-anchor="middle" x="1227.5" y="-130.5" font-family="Helvetica,sans-Serif" font-size="10.00" fill="#000000">Sampling.H</text>
</a>
</g>
</g>
<!-- Node7&#45;&gt;Node27 -->
<g id="edge23" class="edge">
<title>Node7&#45;&gt;Node27</title>
<path fill="none" stroke="#191970" d="M933.4737,-179.3816C1007.4876,-167.7062 1129.9321,-148.391 1190.7992,-138.7894"/>
<polygon fill="#191970" stroke="#191970" points="932.6953,-175.961 923.3628,-180.9766 933.7861,-182.8755 932.6953,-175.961"/>
</g>
<!-- Node9 -->
<g id="node3" class="node">
<title>Node9</title>
<g id="a_node3"><a xlink:href="_a_b_l_8_h.html" target="_top" xlink:title="ABL.H">
<polygon fill="#ffffff" stroke="#000000" points="410.5,-67.5 410.5,-86.5 456.5,-86.5 456.5,-67.5 410.5,-67.5"/>
<text text-anchor="middle" x="433.5" y="-74.5" font-family="Helvetica,sans-Serif" font-size="10.00" fill="#000000">ABL.H</text>
</a>
</g>
</g>
<!-- Node8&#45;&gt;Node9 -->
<g id="edge2" class="edge">
<title>Node8&#45;&gt;Node9</title>
<path fill="none" stroke="#191970" d="M519.6967,-118.9741C498.875,-108.8348 471.3022,-95.408 453.0112,-86.5011"/>
<polygon fill="#191970" stroke="#191970" points="518.2078,-122.1419 528.7308,-123.3733 521.2724,-115.8484 518.2078,-122.1419"/>
</g>
<!-- Node17 -->
<g id="node11" class="node">
<title>Node17</title>
<g id="a_node11"><a xlink:href="_a_b_l_stats_8cpp.html" target="_top" xlink:title="ABLStats.cpp">
<polygon fill="#ffffff" stroke="#000000" points="508.5,-67.5 508.5,-86.5 588.5,-86.5 588.5,-67.5 508.5,-67.5"/>
<text text-anchor="middle" x="548.5" y="-74.5" font-family="Helvetica,sans-Serif" font-size="10.00" fill="#000000">ABLStats.cpp</text>
</a>
</g>
</g>
<!-- Node8&#45;&gt;Node17 -->
<g id="edge10" class="edge">
<title>Node8&#45;&gt;Node17</title>
<path fill="none" stroke="#191970" d="M548.5,-113.1575C548.5,-104.155 548.5,-93.9199 548.5,-86.6427"/>
<polygon fill="#191970" stroke="#191970" points="545.0001,-113.2455 548.5,-123.2455 552.0001,-113.2456 545.0001,-113.2455"/>
</g>
<!-- Node10 -->
<g id="node4" class="node">
<title>Node10</title>
<g id="a_node4"><a xlink:href="incflo__set__velocity__bcs_8cpp.html" target="_top" xlink:title="incflo_set_velocity\l_bcs.cpp">
<polygon fill="#ffffff" stroke="#000000" points="0,-.5 0,-30.5 107,-30.5 107,-.5 0,-.5"/>
<text text-anchor="start" x="8" y="-18.5" font-family="Helvetica,sans-Serif" font-size="10.00" fill="#000000">incflo_set_velocity</text>
<text text-anchor="middle" x="53.5" y="-7.5" font-family="Helvetica,sans-Serif" font-size="10.00" fill="#000000">_bcs.cpp</text>
</a>
</g>
</g>
<!-- Node9&#45;&gt;Node10 -->
<g id="edge3" class="edge">
<title>Node9&#45;&gt;Node10</title>
<path fill="none" stroke="#191970" d="M400.15,-73.3039C342.0331,-66.612 218.5522,-51.2808 115.5,-31 112.7784,-30.4644 109.9971,-29.8856 107.1937,-29.2771"/>
<polygon fill="#191970" stroke="#191970" points="399.8892,-76.7967 410.2213,-74.4521 400.6822,-69.8418 399.8892,-76.7967"/>
</g>
<!-- Node11 -->
<g id="node5" class="node">
<title>Node11</title>
<g id="a_node5"><a xlink:href="_a_b_l_forcing_8cpp.html" target="_top" xlink:title="ABLForcing.cpp">
<polygon fill="#ffffff" stroke="#000000" points="125,-6 125,-25 216,-25 216,-6 125,-6"/>
<text text-anchor="middle" x="170.5" y="-13" font-family="Helvetica,sans-Serif" font-size="10.00" fill="#000000">ABLForcing.cpp</text>
</a>
</g>
</g>
<!-- Node9&#45;&gt;Node11 -->
<g id="edge4" class="edge">
<title>Node9&#45;&gt;Node11</title>
<path fill="none" stroke="#191970" d="M400.3859,-70.3825C359.0476,-61.9675 286.2557,-46.6427 224.5,-31 217.3142,-29.1798 209.6357,-27.0743 202.3904,-25.0133"/>
<polygon fill="#191970" stroke="#191970" points="399.6963,-73.8138 410.1922,-72.369 401.0862,-66.9531 399.6963,-73.8138"/>
</g>
<!-- Node12 -->
<g id="node6" class="node">
<title>Node12</title>
<g id="a_node6"><a xlink:href="_a_b_l_mean_boussinesq_8cpp.html" target="_top" xlink:title="ABLMeanBoussinesq.cpp">
<polygon fill="#ffffff" stroke="#000000" points="234,-6 234,-25 371,-25 371,-6 234,-6"/>
<text text-anchor="middle" x="302.5" y="-13" font-family="Helvetica,sans-Serif" font-size="10.00" fill="#000000">ABLMeanBoussinesq.cpp</text>
</a>
</g>
</g>
<!-- Node9&#45;&gt;Node12 -->
<g id="edge5" class="edge">
<title>Node9&#45;&gt;Node12</title>
<path fill="none" stroke="#191970" d="M403.7549,-63.0357C379.0264,-51.4265 344.4948,-35.2151 322.825,-25.0419"/>
<polygon fill="#191970" stroke="#191970" points="402.4917,-66.3092 413.0313,-67.3906 405.4665,-59.9727 402.4917,-66.3092"/>
</g>
<!-- Node9&#45;&gt;Node13 -->
<g id="edge6" class="edge">
<title>Node9&#45;&gt;Node13</title>
<path fill="none" stroke="#191970" d="M466.5087,-71.9904C510.8861,-64.869 592.012,-50.4883 659.5,-31 665.3488,-29.3111 671.546,-27.164 677.3027,-25.0102"/>
<polygon fill="#191970" stroke="#191970" points="465.9007,-68.5429 456.5702,-73.562 466.9941,-75.457 465.9007,-68.5429"/>
</g>
<!-- Node14 -->
<g id="node8" class="node">
<title>Node14</title>
<g id="a_node8"><a xlink:href="init_8cpp.html" target="_top" xlink:title="init.cpp">
<polygon fill="#ffffff" stroke="#000000" points="389,-6 389,-25 442,-25 442,-6 389,-6"/>
<text text-anchor="middle" x="415.5" y="-13" font-family="Helvetica,sans-Serif" font-size="10.00" fill="#000000">init.cpp</text>
</a>
</g>
</g>
<!-- Node9&#45;&gt;Node14 -->
<g id="edge7" class="edge">
<title>Node9&#45;&gt;Node14</title>
<path fill="none" stroke="#191970" d="M427.817,-57.5832C424.667,-46.8205 420.8866,-33.9042 418.3522,-25.2449"/>
<polygon fill="#191970" stroke="#191970" points="424.5194,-58.7764 430.6875,-67.3906 431.2375,-56.8101 424.5194,-58.7764"/>
</g>
<!-- Node15 -->
<g id="node9" class="node">
<title>Node15</title>
<g id="a_node9"><a xlink:href="_a_b_l_8cpp.html" target="_top" xlink:title="ABL.cpp">
<polygon fill="#ffffff" stroke="#000000" points="460.5,-6 460.5,-25 516.5,-25 516.5,-6 460.5,-6"/>
<text text-anchor="middle" x="488.5" y="-13" font-family="Helvetica,sans-Serif" font-size="10.00" fill="#000000">ABL.cpp</text>
</a>
</g>
</g>
<!-- Node9&#45;&gt;Node15 -->
<g id="edge8" class="edge">
<title>Node9&#45;&gt;Node15</title>
<path fill="none" stroke="#191970" d="M448.792,-59.9007C458.785,-48.7268 471.4763,-34.5356 479.7851,-25.2449"/>
<polygon fill="#191970" stroke="#191970" points="446.1511,-57.6034 442.0938,-67.3906 451.3689,-62.2698 446.1511,-57.6034"/>
</g>
<!-- Node16 -->
<g id="node10" class="node">
<title>Node16</title>
<g id="a_node10"><a xlink:href="_a_b_l_wall_function_8cpp.html" target="_top" xlink:title="ABLWallFunction.cpp">
<polygon fill="#ffffff" stroke="#000000" points="534.5,-6 534.5,-25 650.5,-25 650.5,-6 534.5,-6"/>
<text text-anchor="middle" x="592.5" y="-13" font-family="Helvetica,sans-Serif" font-size="10.00" fill="#000000">ABLWallFunction.cpp</text>
</a>
</g>
</g>
<!-- Node9&#45;&gt;Node16 -->
<g id="edge9" class="edge">
<title>Node9&#45;&gt;Node16</title>
<path fill="none" stroke="#191970" d="M466.2692,-64.3251C496.4248,-52.6612 540.4875,-35.618 567.7817,-25.0609"/>
<polygon fill="#191970" stroke="#191970" points="464.684,-61.1855 456.62,-68.0574 467.2092,-67.7142 464.684,-61.1855"/>
</g>
<!-- Node21 -->
<g id="node15" class="node">
<title>Node21</title>
<g id="a_node15"><a xlink:href="_re_averaging_8_h.html" target="_top" xlink:title="ReAveraging.H">
<polygon fill="#ffffff" stroke="#000000" points="808.5,-67.5 808.5,-86.5 896.5,-86.5 896.5,-67.5 808.5,-67.5"/>
<text text-anchor="middle" x="852.5" y="-74.5" font-family="Helvetica,sans-Serif" font-size="10.00" fill="#000000">ReAveraging.H</text>
</a>
</g>
</g>
<!-- Node20&#45;&gt;Node21 -->
<g id="edge15" class="edge">
<title>Node20&#45;&gt;Node21</title>
<path fill="none" stroke="#191970" d="M911.789,-117.49C897.3212,-107.6096 879.032,-95.1194 866.6196,-86.6427"/>
<polygon fill="#191970" stroke="#191970" points="909.9848,-120.4962 920.2167,-123.2455 913.9325,-114.7156 909.9848,-120.4962"/>
</g>
<!-- Node23 -->
<g id="node17" class="node">
<title>Node23</title>
<g id="a_node17"><a xlink:href="_time_averaging_8cpp.html" target="_top" xlink:title="TimeAveraging.cpp">
<polygon fill="#ffffff" stroke="#000000" points="869.5,-6 869.5,-25 979.5,-25 979.5,-6 869.5,-6"/>
<text text-anchor="middle" x="924.5" y="-13" font-family="Helvetica,sans-Serif" font-size="10.00" fill="#000000">TimeAveraging.cpp</text>
</a>
</g>
</g>
<!-- Node20&#45;&gt;Node23 -->
<g id="edge18" class="edge">
<title>Node20&#45;&gt;Node23</title>
<path fill="none" stroke="#191970" d="M932.8327,-113.4095C930.6679,-87.9723 926.9726,-44.5527 925.3296,-25.2484"/>
<polygon fill="#191970" stroke="#191970" points="929.3462,-113.7173 933.6817,-123.3845 936.321,-113.1237 929.3462,-113.7173"/>
</g>
<!-- Node20&#45;&gt;Node24 -->
<g id="edge19" class="edge">
<title>Node20&#45;&gt;Node24</title>
<path fill="none" stroke="#191970" d="M955.451,-116.928C968.2107,-107.1397 984.0885,-94.9595 994.9301,-86.6427"/>
<polygon fill="#191970" stroke="#191970" points="953.0196,-114.3819 947.2156,-123.2455 957.2803,-119.9359 953.0196,-114.3819"/>
</g>
<!-- Node22 -->
<g id="node16" class="node">
<title>Node22</title>
<g id="a_node16"><a xlink:href="_re_averaging_8cpp.html" target="_top" xlink:title="ReAveraging.cpp">
<polygon fill="#ffffff" stroke="#000000" points="753.5,-6 753.5,-25 851.5,-25 851.5,-6 753.5,-6"/>
<text text-anchor="middle" x="802.5" y="-13" font-family="Helvetica,sans-Serif" font-size="10.00" fill="#000000">ReAveraging.cpp</text>
</a>
</g>
</g>
<!-- Node21&#45;&gt;Node22 -->
<g id="edge16" class="edge">
<title>Node21&#45;&gt;Node22</title>
<path fill="none" stroke="#191970" d="M838.3329,-59.5744C829.29,-48.4517 817.9028,-34.4454 810.4226,-25.2449"/>
<polygon fill="#191970" stroke="#191970" points="835.6634,-61.8393 844.6875,-67.3906 841.0949,-57.4235 835.6634,-61.8393"/>
</g>
<!-- Node21&#45;&gt;Node23 -->
<g id="edge17" class="edge">
<title>Node21&#45;&gt;Node23</title>
<path fill="none" stroke="#191970" d="M871.3848,-60.8692C884.6277,-49.5576 901.8976,-34.8062 913.0914,-25.2449"/>
<polygon fill="#191970" stroke="#191970" points="869.0805,-58.2344 863.75,-67.3906 873.627,-63.557 869.0805,-58.2344"/>
</g>
<!-- Node26 -->
<g id="node20" class="node">
<title>Node26</title>
<g id="a_node20"><a xlink:href="_field_norms_8cpp.html" target="_top" xlink:title="FieldNorms.cpp">
<polygon fill="#ffffff" stroke="#000000" points="1080.5,-67.5 1080.5,-86.5 1172.5,-86.5 1172.5,-67.5 1080.5,-67.5"/>
<text text-anchor="middle" x="1126.5" y="-74.5" font-family="Helvetica,sans-Serif" font-size="10.00" fill="#000000">FieldNorms.cpp</text>
</a>
</g>
</g>
<!-- Node25&#45;&gt;Node26 -->
<g id="edge22" class="edge">
<title>Node25&#45;&gt;Node26</title>
<path fill="none" stroke="#191970" d="M1112.0628,-113.7493C1115.6546,-104.6064 1119.7901,-94.0798 1122.7118,-86.6427"/>
<polygon fill="#191970" stroke="#191970" points="1108.7311,-112.6582 1108.3321,-123.2455 1115.2463,-115.2178 1108.7311,-112.6582"/>
</g>
<!-- Node28 -->
<g id="node22" class="node">
<title>Node28</title>
<g id="a_node22"><a xlink:href="_sampling_8cpp.html" target="_top" xlink:title="Sampling.cpp">
<polygon fill="#ffffff" stroke="#000000" points="1191,-67.5 1191,-86.5 1274,-86.5 1274,-67.5 1191,-67.5"/>
<text text-anchor="middle" x="1232.5" y="-74.5" font-family="Helvetica,sans-Serif" font-size="10.00" fill="#000000">Sampling.cpp</text>
</a>
</g>
</g>
<!-- Node27&#45;&gt;Node28 -->
<g id="edge24" class="edge">
<title>Node27&#45;&gt;Node28</title>
<path fill="none" stroke="#191970" d="M1229.2717,-113.1575C1230.0754,-104.155 1230.9893,-93.9199 1231.639,-86.6427"/>
<polygon fill="#191970" stroke="#191970" points="1225.7742,-112.9739 1228.3709,-123.2455 1232.7465,-113.5965 1225.7742,-112.9739"/>
</g>
</g>
</svg>
