<?xml version="1.0" encoding="UTF-8" standalone="no"?>
<!DOCTYPE svg PUBLIC "-//W3C//DTD SVG 1.1//EN"
 "http://www.w3.org/Graphics/SVG/1.1/DTD/svg11.dtd">
<!-- Generated by graphviz version 2.40.1 (20161225.0304)
 -->
<!-- Title: RainDrop.cpp Pages: 1 -->
<!--zoomable 341 -->
<svg id="main" version="1.1" xmlns="http://www.w3.org/2000/svg" xmlns:xlink="http://www.w3.org/1999/xlink" xml:space="preserve" onload="init(evt)">
<style type="text/css"><![CDATA[
.edge:hover path { stroke: red; }
.edge:hover polygon { stroke: red; fill: red; }
]]></style>
<script type="text/javascript"><![CDATA[
var edges = document.getElementsByTagName('g');
if (edges && edges.length) {
  for (var i=0;i<edges.length;i++) {
    if (edges[i].id.substr(0,4)=='edge') {
      edges[i].setAttribute('class','edge');
    }
  }
}
]]></script>
        <defs>
                <circle id="rim" cx="0" cy="0" r="7"/>
                <circle id="rim2" cx="0" cy="0" r="3.5"/>
                <g id="zoomPlus">
                        <use xlink:href="#rim" fill="#404040">
                                <set attributeName="fill" to="#808080" begin="zoomplus.mouseover" end="zoomplus.mouseout"/>
                        </use>
                        <path d="M-4,0h8M0,-4v8" fill="none" stroke="white" stroke-width="1.5" pointer-events="none"/>
                </g>
                <g id="zoomMin">
                        <use xlink:href="#rim" fill="#404040">
                                <set attributeName="fill" to="#808080" begin="zoomminus.mouseover" end="zoomminus.mouseout"/>
                        </use>
                        <path d="M-4,0h8" fill="none" stroke="white" stroke-width="1.5" pointer-events="none"/>
                </g>
                <g id="dirArrow">
                        <path fill="none" stroke="white" stroke-width="1.5" d="M0,-3.0v7 M-2.5,-0.5L0,-3.0L2.5,-0.5"/>
                </g>
               <g id="resetDef">
                       <use xlink:href="#rim2" fill="#404040">
                               <set attributeName="fill" to="#808080" begin="reset.mouseover" end="reset.mouseout"/>
                       </use>
               </g>
        </defs>

<script type="text/javascript">
var viewWidth = 2722;
var viewHeight = 341;
var sectionId = 'dynsection-0';
</script>
<script xlink:href="svgpan.js"/>
<svg id="graph" class="graph">
<g id="viewport">
<title>RainDrop.cpp</title>
<polygon fill="#ffffff" stroke="transparent" points="-4,4 -4,-337 2717.5,-337 2717.5,4 -4,4"/>
<!-- Node0 -->
<g id="node1" class="node">
<title>Node0</title>
<polygon fill="#bfbfbf" stroke="#000000" points="1408.5,-313.5 1408.5,-332.5 1490.5,-332.5 1490.5,-313.5 1408.5,-313.5"/>
<text text-anchor="middle" x="1449.5" y="-320.5" font-family="Helvetica,sans-Serif" font-size="10.00" fill="#000000">RainDrop.cpp</text>
</g>
<!-- Node1 -->
<g id="node2" class="node">
<title>Node1</title>
<g id="a_node2"><a xlink:href="_rain_drop_8_h.html" target="_top" xlink:title="amr&#45;wind/physics/multiphase\l/RainDrop.H">
<polygon fill="#ffffff" stroke="#000000" points="1132.5,-190.5 1132.5,-220.5 1292.5,-220.5 1292.5,-190.5 1132.5,-190.5"/>
<text text-anchor="start" x="1140.5" y="-208.5" font-family="Helvetica,sans-Serif" font-size="10.00" fill="#000000">amr&#45;wind/physics/multiphase</text>
<text text-anchor="middle" x="1212.5" y="-197.5" font-family="Helvetica,sans-Serif" font-size="10.00" fill="#000000">/RainDrop.H</text>
</a>
</g>
</g>
<!-- Node0&#45;&gt;Node1 -->
<g id="edge1" class="edge">
<title>Node0&#45;&gt;Node1</title>
<path fill="none" stroke="#191970" d="M1430.1053,-313.3845C1391.2856,-294.1384 1303.3601,-250.5467 1251.9445,-225.0558"/>
<polygon fill="#191970" stroke="#191970" points="1253.303,-221.8228 1242.789,-220.5167 1250.1936,-228.0944 1253.303,-221.8228"/>
</g>
<!-- Node21 -->
<g id="node22" class="node">
<title>Node21</title>
<g id="a_node22"><a xlink:href="_c_f_d_sim_8_h.html" target="_top" xlink:title="amr&#45;wind/CFDSim.H">
<polygon fill="#ffffff" stroke="#000000" points="1392.5,-257.5 1392.5,-276.5 1506.5,-276.5 1506.5,-257.5 1392.5,-257.5"/>
<text text-anchor="middle" x="1449.5" y="-264.5" font-family="Helvetica,sans-Serif" font-size="10.00" fill="#000000">amr&#45;wind/CFDSim.H</text>
</a>
</g>
</g>
<!-- Node0&#45;&gt;Node21 -->
<g id="edge31" class="edge">
<title>Node0&#45;&gt;Node21</title>
<path fill="none" stroke="#191970" d="M1449.5,-313.2455C1449.5,-305.9382 1449.5,-295.6944 1449.5,-286.7046"/>
<polygon fill="#191970" stroke="#191970" points="1453.0001,-286.6426 1449.5,-276.6427 1446.0001,-286.6427 1453.0001,-286.6426"/>
</g>
<!-- Node37 -->
<g id="node38" class="node">
<title>Node37</title>
<polygon fill="#ffffff" stroke="#bfbfbf" points="1525,-257.5 1525,-276.5 1642,-276.5 1642,-257.5 1525,-257.5"/>
<text text-anchor="middle" x="1583.5" y="-264.5" font-family="Helvetica,sans-Serif" font-size="10.00" fill="#000000">AMReX_ParmParse.H</text>
</g>
<!-- Node0&#45;&gt;Node37 -->
<g id="edge69" class="edge">
<title>Node0&#45;&gt;Node37</title>
<path fill="none" stroke="#191970" d="M1472.5354,-313.3733C1494.2388,-304.3032 1526.9618,-290.6279 1551.255,-280.4755"/>
<polygon fill="#191970" stroke="#191970" points="1552.8881,-283.5865 1560.7652,-276.5011 1550.1889,-277.1278 1552.8881,-283.5865"/>
</g>
<!-- Node2 -->
<g id="node3" class="node">
<title>Node2</title>
<g id="a_node3"><a xlink:href="_physics_8_h.html" target="_top" xlink:title="amr&#45;wind/core/Physics.H">
<polygon fill="#ffffff" stroke="#000000" points="1144,-129 1144,-148 1281,-148 1281,-129 1144,-129"/>
<text text-anchor="middle" x="1212.5" y="-136" font-family="Helvetica,sans-Serif" font-size="10.00" fill="#000000">amr&#45;wind/core/Physics.H</text>
</a>
</g>
</g>
<!-- Node1&#45;&gt;Node2 -->
<g id="edge2" class="edge">
<title>Node1&#45;&gt;Node2</title>
<path fill="none" stroke="#191970" d="M1212.5,-190.2967C1212.5,-180.7699 1212.5,-168.3954 1212.5,-158.1306"/>
<polygon fill="#191970" stroke="#191970" points="1216.0001,-158.0549 1212.5,-148.055 1209.0001,-158.055 1216.0001,-158.0549"/>
</g>
<!-- Node14 -->
<g id="node15" class="node">
<title>Node14</title>
<g id="a_node15"><a xlink:href="_field_8_h.html" target="_top" xlink:title="amr&#45;wind/core/Field.H">
<polygon fill="#ffffff" stroke="#000000" points="986.5,-129 986.5,-148 1108.5,-148 1108.5,-129 986.5,-129"/>
<text text-anchor="middle" x="1047.5" y="-136" font-family="Helvetica,sans-Serif" font-size="10.00" fill="#000000">amr&#45;wind/core/Field.H</text>
</a>
</g>
</g>
<!-- Node1&#45;&gt;Node14 -->
<g id="edge16" class="edge">
<title>Node1&#45;&gt;Node14</title>
<path fill="none" stroke="#191970" d="M1175.4708,-190.4639C1147.0377,-178.9183 1108.1254,-163.1176 1080.6966,-151.9798"/>
<polygon fill="#191970" stroke="#191970" points="1081.7335,-148.6234 1071.1514,-148.1039 1079.0999,-155.1091 1081.7335,-148.6234"/>
</g>
<!-- Node3 -->
<g id="node4" class="node">
<title>Node3</title>
<g id="a_node4"><a xlink:href="_factory_8_h.html" target="_top" xlink:title="amr&#45;wind/core/Factory.H">
<polygon fill="#ffffff" stroke="#000000" points="331.5,-62 331.5,-81 465.5,-81 465.5,-62 331.5,-62"/>
<text text-anchor="middle" x="398.5" y="-69" font-family="Helvetica,sans-Serif" font-size="10.00" fill="#000000">amr&#45;wind/core/Factory.H</text>
</a>
</g>
</g>
<!-- Node2&#45;&gt;Node3 -->
<g id="edge3" class="edge">
<title>Node2&#45;&gt;Node3</title>
<path fill="none" stroke="#191970" d="M1159.8657,-128.9661C1146.114,-126.7352 1131.2825,-124.5581 1117.5,-123 866.5908,-94.6353 802.1483,-107.8119 550.5,-87 526.2124,-84.9914 499.7802,-82.4281 475.8711,-79.967"/>
<polygon fill="#191970" stroke="#191970" points="476.1004,-76.472 465.7924,-78.9204 475.3773,-83.4346 476.1004,-76.472"/>
</g>
<!-- Node9 -->
<g id="node10" class="node">
<title>Node9</title>
<g id="a_node10"><a xlink:href="_coll_mgr_8_h.html" target="_top" xlink:title="amr&#45;wind/core/CollMgr.H">
<polygon fill="#ffffff" stroke="#000000" points="795.5,-62 795.5,-81 931.5,-81 931.5,-62 795.5,-62"/>
<text text-anchor="middle" x="863.5" y="-69" font-family="Helvetica,sans-Serif" font-size="10.00" fill="#000000">amr&#45;wind/core/CollMgr.H</text>
</a>
</g>
</g>
<!-- Node2&#45;&gt;Node9 -->
<g id="edge9" class="edge">
<title>Node2&#45;&gt;Node9</title>
<path fill="none" stroke="#191970" d="M1162.8674,-128.9717C1099.77,-116.8584 990.9314,-95.9639 923.3185,-82.9838"/>
<polygon fill="#191970" stroke="#191970" points="923.7241,-79.4978 913.2436,-81.0496 922.4043,-86.3723 923.7241,-79.4978"/>
</g>
<!-- Node12 -->
<g id="node13" class="node">
<title>Node12</title>
<polygon fill="#ffffff" stroke="#bfbfbf" points="1986,-.5 1986,-19.5 2093,-19.5 2093,-.5 1986,-.5"/>
<text text-anchor="middle" x="2039.5" y="-7.5" font-family="Helvetica,sans-Serif" font-size="10.00" fill="#000000">AMReX_MultiFab.H</text>
</g>
<!-- Node2&#45;&gt;Node12 -->
<g id="edge14" class="edge">
<title>Node2&#45;&gt;Node12</title>
<path fill="none" stroke="#191970" d="M1281.1327,-133.707C1448.9677,-121.9217 1867.5176,-92.1156 1881.5,-87 1903.6255,-78.9052 1903.8535,-67.3483 1924.5,-56 1948.6303,-42.7369 1977.3935,-31.233 2000.1176,-23.0469"/>
<polygon fill="#191970" stroke="#191970" points="2001.5112,-26.2666 2009.7745,-19.6357 1999.1797,-19.6663 2001.5112,-26.2666"/>
</g>
<!-- Node13 -->
<g id="node14" class="node">
<title>Node13</title>
<polygon fill="#ffffff" stroke="#bfbfbf" points="1168,-62 1168,-81 1281,-81 1281,-62 1168,-62"/>
<text text-anchor="middle" x="1224.5" y="-69" font-family="Helvetica,sans-Serif" font-size="10.00" fill="#000000">AMReX_Geometry.H</text>
</g>
<!-- Node2&#45;&gt;Node13 -->
<g id="edge15" class="edge">
<title>Node2&#45;&gt;Node13</title>
<path fill="none" stroke="#191970" d="M1214.2193,-128.9005C1215.9837,-119.0495 1218.7785,-103.4451 1221.009,-90.9912"/>
<polygon fill="#191970" stroke="#191970" points="1224.466,-91.5421 1222.7839,-81.0817 1217.5756,-90.308 1224.466,-91.5421"/>
</g>
<!-- Node4 -->
<g id="node5" class="node">
<title>Node4</title>
<polygon fill="#ffffff" stroke="#bfbfbf" points="508.5,-.5 508.5,-19.5 566.5,-19.5 566.5,-.5 508.5,-.5"/>
<text text-anchor="middle" x="537.5" y="-7.5" font-family="Helvetica,sans-Serif" font-size="10.00" fill="#000000">memory</text>
</g>
<!-- Node3&#45;&gt;Node4 -->
<g id="edge4" class="edge">
<title>Node3&#45;&gt;Node4</title>
<path fill="none" stroke="#191970" d="M420.2188,-61.8906C443.374,-51.6457 480.2441,-35.3326 506.4591,-23.7339"/>
<polygon fill="#191970" stroke="#191970" points="508.205,-26.7888 515.9338,-19.5419 505.3727,-20.3874 508.205,-26.7888"/>
</g>
<!-- Node5 -->
<g id="node6" class="node">
<title>Node5</title>
<polygon fill="#ffffff" stroke="#bfbfbf" points="769,-.5 769,-19.5 862,-19.5 862,-.5 769,-.5"/>
<text text-anchor="middle" x="815.5" y="-7.5" font-family="Helvetica,sans-Serif" font-size="10.00" fill="#000000">unordered_map</text>
</g>
<!-- Node3&#45;&gt;Node5 -->
<g id="edge5" class="edge">
<title>Node3&#45;&gt;Node5</title>
<path fill="none" stroke="#191970" d="M463.1987,-61.9581C544.2047,-50.0112 681.6741,-29.7369 758.7597,-18.3682"/>
<polygon fill="#191970" stroke="#191970" points="759.3846,-21.814 768.7669,-16.8923 758.3632,-14.8889 759.3846,-21.814"/>
</g>
<!-- Node6 -->
<g id="node7" class="node">
<title>Node6</title>
<polygon fill="#ffffff" stroke="#bfbfbf" points="323.5,-.5 323.5,-19.5 383.5,-19.5 383.5,-.5 323.5,-.5"/>
<text text-anchor="middle" x="353.5" y="-7.5" font-family="Helvetica,sans-Serif" font-size="10.00" fill="#000000">iostream</text>
</g>
<!-- Node3&#45;&gt;Node6 -->
<g id="edge6" class="edge">
<title>Node3&#45;&gt;Node6</title>
<path fill="none" stroke="#191970" d="M391.4688,-61.8906C384.837,-52.8273 374.7304,-39.0149 366.6113,-27.9188"/>
<polygon fill="#191970" stroke="#191970" points="369.3601,-25.7484 360.6304,-19.7449 363.7109,-29.882 369.3601,-25.7484"/>
</g>
<!-- Node7 -->
<g id="node8" class="node">
<title>Node7</title>
<polygon fill="#ffffff" stroke="#bfbfbf" points="402,-.5 402,-19.5 491,-19.5 491,-.5 402,-.5"/>
<text text-anchor="middle" x="446.5" y="-7.5" font-family="Helvetica,sans-Serif" font-size="10.00" fill="#000000">AMReX_Print.H</text>
</g>
<!-- Node3&#45;&gt;Node7 -->
<g id="edge7" class="edge">
<title>Node3&#45;&gt;Node7</title>
<path fill="none" stroke="#191970" d="M406,-61.8906C413.0738,-52.8273 423.8542,-39.0149 432.5146,-27.9188"/>
<polygon fill="#191970" stroke="#191970" points="435.5006,-29.7815 438.8943,-19.7449 429.9824,-25.4746 435.5006,-29.7815"/>
</g>
<!-- Node8 -->
<g id="node9" class="node">
<title>Node8</title>
<polygon fill="#ffffff" stroke="#bfbfbf" points="244,-.5 244,-19.5 305,-19.5 305,-.5 244,-.5"/>
<text text-anchor="middle" x="274.5" y="-7.5" font-family="Helvetica,sans-Serif" font-size="10.00" fill="#000000">AMReX.H</text>
</g>
<!-- Node3&#45;&gt;Node8 -->
<g id="edge8" class="edge">
<title>Node3&#45;&gt;Node8</title>
<path fill="none" stroke="#191970" d="M379.125,-61.8906C358.6505,-51.7359 326.1558,-35.6196 302.8115,-24.0416"/>
<polygon fill="#191970" stroke="#191970" points="304.2528,-20.8496 293.7389,-19.5419 301.1425,-27.1207 304.2528,-20.8496"/>
</g>
<!-- Node9&#45;&gt;Node4 -->
<g id="edge11" class="edge">
<title>Node9&#45;&gt;Node4</title>
<path fill="none" stroke="#191970" d="M812.9202,-61.9581C747.7971,-49.6726 635.9949,-28.5811 576.8504,-17.4235"/>
<polygon fill="#191970" stroke="#191970" points="577.2635,-13.9397 566.788,-15.5252 575.9658,-20.8184 577.2635,-13.9397"/>
</g>
<!-- Node9&#45;&gt;Node5 -->
<g id="edge12" class="edge">
<title>Node9&#45;&gt;Node5</title>
<path fill="none" stroke="#191970" d="M856,-61.8906C848.9262,-52.8273 838.1458,-39.0149 829.4854,-27.9188"/>
<polygon fill="#191970" stroke="#191970" points="832.0176,-25.4746 823.1057,-19.7449 826.4994,-29.7815 832.0176,-25.4746"/>
</g>
<!-- Node10 -->
<g id="node11" class="node">
<title>Node10</title>
<polygon fill="#ffffff" stroke="#bfbfbf" points="1325.5,-.5 1325.5,-19.5 1369.5,-19.5 1369.5,-.5 1325.5,-.5"/>
<text text-anchor="middle" x="1347.5" y="-7.5" font-family="Helvetica,sans-Serif" font-size="10.00" fill="#000000">string</text>
</g>
<!-- Node9&#45;&gt;Node10 -->
<g id="edge10" class="edge">
<title>Node9&#45;&gt;Node10</title>
<path fill="none" stroke="#191970" d="M910.6636,-61.9763C922.0425,-59.8471 934.1835,-57.7147 945.5,-56 1082.2993,-35.2722 1246.5616,-19.2098 1315.0485,-12.9038"/>
<polygon fill="#191970" stroke="#191970" points="1315.5591,-16.3718 1325.1991,-11.9762 1314.922,-9.4008 1315.5591,-16.3718"/>
</g>
<!-- Node11 -->
<g id="node12" class="node">
<title>Node11</title>
<polygon fill="#ffffff" stroke="#bfbfbf" points="1541.5,-.5 1541.5,-19.5 1637.5,-19.5 1637.5,-.5 1541.5,-.5"/>
<text text-anchor="middle" x="1589.5" y="-7.5" font-family="Helvetica,sans-Serif" font-size="10.00" fill="#000000">AMReX_Vector.H</text>
</g>
<!-- Node9&#45;&gt;Node11 -->
<g id="edge13" class="edge">
<title>Node9&#45;&gt;Node11</title>
<path fill="none" stroke="#191970" d="M908.8923,-61.9519C920.7627,-59.7212 933.5748,-57.5477 945.5,-56 1057.8984,-41.4124 1394.6012,-21.166 1531.0806,-13.3048"/>
<polygon fill="#191970" stroke="#191970" points="1531.5493,-16.7837 1541.3321,-12.7159 1531.1478,-9.7952 1531.5493,-16.7837"/>
</g>
<!-- Node14&#45;&gt;Node4 -->
<g id="edge18" class="edge">
<title>Node14&#45;&gt;Node4</title>
<path fill="none" stroke="#191970" d="M986.3962,-136.2516C860.586,-131.044 581.7397,-116.3017 550.5,-87 535.1779,-72.6284 533.6415,-47.4441 534.8157,-29.802"/>
<polygon fill="#191970" stroke="#191970" points="538.3112,-30.0216 535.8295,-19.7216 531.3464,-29.3211 538.3112,-30.0216"/>
</g>
<!-- Node14&#45;&gt;Node5 -->
<g id="edge19" class="edge">
<title>Node14&#45;&gt;Node5</title>
<path fill="none" stroke="#191970" d="M986.4494,-135.1683C917.4025,-129.9741 811.3185,-117.1941 786.5,-87 772.133,-69.5211 786.6455,-44.195 799.801,-27.423"/>
<polygon fill="#191970" stroke="#191970" points="802.6769,-29.4394 806.3966,-19.519 797.3024,-24.9545 802.6769,-29.4394"/>
</g>
<!-- Node14&#45;&gt;Node10 -->
<g id="edge17" class="edge">
<title>Node14&#45;&gt;Node10</title>
<path fill="none" stroke="#191970" d="M1053.6733,-128.7923C1065.3851,-111.2383 1092.6222,-74.3418 1125.5,-56 1157.7249,-38.0224 1261.8354,-21.7029 1315.2436,-14.2565"/>
<polygon fill="#191970" stroke="#191970" points="1315.782,-17.7155 1325.2129,-12.8877 1314.8297,-10.7806 1315.782,-17.7155"/>
</g>
<!-- Node14&#45;&gt;Node12 -->
<g id="edge21" class="edge">
<title>Node14&#45;&gt;Node12</title>
<path fill="none" stroke="#191970" d="M1095.2116,-128.9371C1107.9328,-126.679 1121.6998,-124.4959 1134.5,-123 1416.5868,-90.0335 1492.5189,-134.6483 1772.5,-87 1778.1566,-86.0373 1922.9421,-43.9573 1996.886,-22.4216"/>
<polygon fill="#191970" stroke="#191970" points="1998.2057,-25.6827 2006.8278,-19.5255 1996.2479,-18.962 1998.2057,-25.6827"/>
</g>
<!-- Node15 -->
<g id="node16" class="node">
<title>Node15</title>
<polygon fill="#ffffff" stroke="#bfbfbf" points="559.5,-62 559.5,-81 623.5,-81 623.5,-62 559.5,-62"/>
<text text-anchor="middle" x="591.5" y="-69" font-family="Helvetica,sans-Serif" font-size="10.00" fill="#000000">algorithm</text>
</g>
<!-- Node14&#45;&gt;Node15 -->
<g id="edge20" class="edge">
<title>Node14&#45;&gt;Node15</title>
<path fill="none" stroke="#191970" d="M986.1934,-135.4565C904.4783,-130.3688 755.8362,-117.5033 632.5,-87 629.4943,-86.2566 626.4084,-85.358 623.3437,-84.3723"/>
<polygon fill="#191970" stroke="#191970" points="624.3454,-81.0147 613.7506,-81.0104 622.0302,-87.6208 624.3454,-81.0147"/>
</g>
<!-- Node16 -->
<g id="node17" class="node">
<title>Node16</title>
<polygon fill="#ffffff" stroke="#bfbfbf" points="642,-62 642,-81 739,-81 739,-62 642,-62"/>
<text text-anchor="middle" x="690.5" y="-69" font-family="Helvetica,sans-Serif" font-size="10.00" fill="#000000">AMReX_BCRec.H</text>
</g>
<!-- Node14&#45;&gt;Node16 -->
<g id="edge22" class="edge">
<title>Node14&#45;&gt;Node16</title>
<path fill="none" stroke="#191970" d="M986.4573,-129.0462C926.8328,-119.5206 833.6204,-103.8532 753.5,-87 748.1954,-85.8842 742.6589,-84.6401 737.165,-83.3555"/>
<polygon fill="#191970" stroke="#191970" points="737.921,-79.9377 727.3815,-81.0182 736.2945,-86.7461 737.921,-79.9377"/>
</g>
<!-- Node17 -->
<g id="node18" class="node">
<title>Node17</title>
<polygon fill="#ffffff" stroke="#bfbfbf" points="987.5,-62 987.5,-81 1073.5,-81 1073.5,-62 987.5,-62"/>
<text text-anchor="middle" x="1030.5" y="-69" font-family="Helvetica,sans-Serif" font-size="10.00" fill="#000000">AMReX_Gpu.H</text>
</g>
<!-- Node14&#45;&gt;Node17 -->
<g id="edge23" class="edge">
<title>Node14&#45;&gt;Node17</title>
<path fill="none" stroke="#191970" d="M1045.0643,-128.9005C1042.5648,-119.0495 1038.6055,-103.4451 1035.4455,-90.9912"/>
<polygon fill="#191970" stroke="#191970" points="1038.7831,-89.9137 1032.9312,-81.0817 1031.9981,-91.6353 1038.7831,-89.9137"/>
</g>
<!-- Node18 -->
<g id="node19" class="node">
<title>Node18</title>
<g id="a_node19"><a xlink:href="incflo__enums_8_h.html" target="_top" xlink:title="amr&#45;wind/incflo_enums.H">
<polygon fill="#ffffff" stroke="#000000" points="173.5,-62 173.5,-81 313.5,-81 313.5,-62 173.5,-62"/>
<text text-anchor="middle" x="243.5" y="-69" font-family="Helvetica,sans-Serif" font-size="10.00" fill="#000000">amr&#45;wind/incflo_enums.H</text>
</a>
</g>
</g>
<!-- Node14&#45;&gt;Node18 -->
<g id="edge24" class="edge">
<title>Node14&#45;&gt;Node18</title>
<path fill="none" stroke="#191970" d="M986.1355,-136.6842C860.8973,-132.4191 567.0354,-119.5492 322.5,-87 314.3247,-85.9118 305.721,-84.5018 297.3206,-82.9761"/>
<polygon fill="#191970" stroke="#191970" points="297.6927,-79.4846 287.2174,-81.0715 296.3959,-86.3635 297.6927,-79.4846"/>
</g>
<!-- Node19 -->
<g id="node20" class="node">
<title>Node19</title>
<g id="a_node20"><a xlink:href="_field_desc_types_8_h.html" target="_top" xlink:title="amr&#45;wind/core/FieldDescTypes.H">
<polygon fill="#ffffff" stroke="#000000" points="1704.5,-.5 1704.5,-19.5 1878.5,-19.5 1878.5,-.5 1704.5,-.5"/>
<text text-anchor="middle" x="1791.5" y="-7.5" font-family="Helvetica,sans-Serif" font-size="10.00" fill="#000000">amr&#45;wind/core/FieldDescTypes.H</text>
</a>
</g>
</g>
<!-- Node14&#45;&gt;Node19 -->
<g id="edge25" class="edge">
<title>Node14&#45;&gt;Node19</title>
<path fill="none" stroke="#191970" d="M1061.7044,-128.9137C1076.5703,-118.7806 1100.4874,-102.193 1120.5,-87 1137.86,-73.8208 1138.2461,-64.0525 1158.5,-56 1164.648,-53.5557 1518.1674,-28.8665 1694.1442,-16.702"/>
<polygon fill="#191970" stroke="#191970" points="1694.4533,-20.1891 1704.1882,-16.008 1693.9707,-13.2057 1694.4533,-20.1891"/>
</g>
<!-- Node20 -->
<g id="node21" class="node">
<title>Node20</title>
<g id="a_node21"><a xlink:href="_view_field_8_h.html" target="_top" xlink:title="amr&#45;wind/core/ViewField.H">
<polygon fill="#ffffff" stroke="#000000" points="1617.5,-62 1617.5,-81 1763.5,-81 1763.5,-62 1617.5,-62"/>
<text text-anchor="middle" x="1690.5" y="-69" font-family="Helvetica,sans-Serif" font-size="10.00" fill="#000000">amr&#45;wind/core/ViewField.H</text>
</a>
</g>
</g>
<!-- Node14&#45;&gt;Node20 -->
<g id="edge26" class="edge">
<title>Node14&#45;&gt;Node20</title>
<path fill="none" stroke="#191970" d="M1097.075,-128.9259C1109.2797,-126.774 1122.337,-124.6438 1134.5,-123 1223.564,-110.9629 1475.29,-89.3456 1607.3243,-78.3405"/>
<polygon fill="#191970" stroke="#191970" points="1607.7197,-81.8198 1617.3949,-77.5024 1607.139,-74.8439 1607.7197,-81.8198"/>
</g>
<!-- Node20&#45;&gt;Node10 -->
<g id="edge27" class="edge">
<title>Node20&#45;&gt;Node10</title>
<path fill="none" stroke="#191970" d="M1637.2826,-61.9581C1565.2133,-49.0361 1438.8094,-26.3718 1379.6903,-15.7717"/>
<polygon fill="#191970" stroke="#191970" points="1380.2563,-12.3175 1369.7955,-13.9976 1379.0208,-19.2076 1380.2563,-12.3175"/>
</g>
<!-- Node20&#45;&gt;Node11 -->
<g id="edge30" class="edge">
<title>Node20&#45;&gt;Node11</title>
<path fill="none" stroke="#191970" d="M1674.7188,-61.8906C1658.4125,-51.9616 1632.746,-36.333 1613.8386,-24.8201"/>
<polygon fill="#191970" stroke="#191970" points="1615.5319,-21.7533 1605.1704,-19.5419 1611.8913,-27.7322 1615.5319,-21.7533"/>
</g>
<!-- Node20&#45;&gt;Node12 -->
<g id="edge29" class="edge">
<title>Node20&#45;&gt;Node12</title>
<path fill="none" stroke="#191970" d="M1744.6483,-61.9581C1807.1126,-50.9508 1909.6919,-32.8745 1975.9,-21.2075"/>
<polygon fill="#191970" stroke="#191970" points="1976.5576,-24.6456 1985.7984,-19.4632 1975.3427,-17.7518 1976.5576,-24.6456"/>
</g>
<!-- Node20&#45;&gt;Node19 -->
<g id="edge28" class="edge">
<title>Node20&#45;&gt;Node19</title>
<path fill="none" stroke="#191970" d="M1706.2813,-61.8906C1722.5875,-51.9616 1748.254,-36.333 1767.1614,-24.8201"/>
<polygon fill="#191970" stroke="#191970" points="1769.1087,-27.7322 1775.8296,-19.5419 1765.4681,-21.7533 1769.1087,-27.7322"/>
</g>
<!-- Node21&#45;&gt;Node2 -->
<g id="edge68" class="edge">
<title>Node21&#45;&gt;Node2</title>
<path fill="none" stroke="#191970" d="M1431.6865,-257.3416C1390.4092,-234.9613 1288.0257,-179.4496 1239.2115,-152.9828"/>
<polygon fill="#191970" stroke="#191970" points="1240.6562,-149.7848 1230.1969,-148.0952 1237.3197,-155.9385 1240.6562,-149.7848"/>
</g>
<!-- Node22 -->
<g id="node23" class="node">
<title>Node22</title>
<polygon fill="#ffffff" stroke="#bfbfbf" points="2213,-129 2213,-148 2322,-148 2322,-129 2213,-129"/>
<text text-anchor="middle" x="2267.5" y="-136" font-family="Helvetica,sans-Serif" font-size="10.00" fill="#000000">AMReX_AmrCore.H</text>
</g>
<!-- Node21&#45;&gt;Node22 -->
<g id="edge32" class="edge">
<title>Node21&#45;&gt;Node22</title>
<path fill="none" stroke="#191970" d="M1506.7524,-258.3292C1681.3021,-231.8936 2194.9652,-154.098 2195.5,-154 2201.8554,-152.8357 2208.507,-151.5272 2215.0904,-150.1767"/>
<polygon fill="#191970" stroke="#191970" points="2216.256,-153.5087 2225.3272,-148.0346 2214.8223,-146.6571 2216.256,-153.5087"/>
</g>
<!-- Node23 -->
<g id="node24" class="node">
<title>Node23</title>
<g id="a_node24"><a xlink:href="_sim_time_8_h.html" target="_top" xlink:title="amr&#45;wind/core/SimTime.H">
<polygon fill="#ffffff" stroke="#000000" points="2379,-196 2379,-215 2522,-215 2522,-196 2379,-196"/>
<text text-anchor="middle" x="2450.5" y="-203" font-family="Helvetica,sans-Serif" font-size="10.00" fill="#000000">amr&#45;wind/core/SimTime.H</text>
</a>
</g>
</g>
<!-- Node21&#45;&gt;Node23 -->
<g id="edge33" class="edge">
<title>Node21&#45;&gt;Node23</title>
<path fill="none" stroke="#191970" d="M1506.6948,-257.993C1509.6694,-257.6314 1512.618,-257.297 1515.5,-257 1829.6094,-224.6277 2205.3244,-211.732 2368.3361,-207.3937"/>
<polygon fill="#191970" stroke="#191970" points="2368.8581,-210.8813 2378.7629,-207.1202 2368.6745,-203.8837 2368.8581,-210.8813"/>
</g>
<!-- Node27 -->
<g id="node28" class="node">
<title>Node27</title>
<g id="a_node28"><a xlink:href="_field_repo_8_h.html" target="_top" xlink:title="amr&#45;wind/core/FieldRepo.H">
<polygon fill="#ffffff" stroke="#000000" points="1453.5,-196 1453.5,-215 1599.5,-215 1599.5,-196 1453.5,-196"/>
<text text-anchor="middle" x="1526.5" y="-203" font-family="Helvetica,sans-Serif" font-size="10.00" fill="#000000">amr&#45;wind/core/FieldRepo.H</text>
</a>
</g>
</g>
<!-- Node21&#45;&gt;Node27 -->
<g id="edge37" class="edge">
<title>Node21&#45;&gt;Node27</title>
<path fill="none" stroke="#191970" d="M1461.5313,-257.3906C1473.5107,-247.8227 1492.1166,-232.9621 1506.3525,-221.5919"/>
<polygon fill="#191970" stroke="#191970" points="1508.9239,-224.0175 1514.5532,-215.0419 1504.5553,-218.5479 1508.9239,-224.0175"/>
</g>
<!-- Node34 -->
<g id="node35" class="node">
<title>Node34</title>
<g id="a_node35"><a xlink:href="_p_d_e_base_8_h.html" target="_top" xlink:title="amr&#45;wind/equation_systems\l/PDEBase.H">
<polygon fill="#ffffff" stroke="#000000" points="454,-123.5 454,-153.5 609,-153.5 609,-123.5 454,-123.5"/>
<text text-anchor="start" x="462" y="-141.5" font-family="Helvetica,sans-Serif" font-size="10.00" fill="#000000">amr&#45;wind/equation_systems</text>
<text text-anchor="middle" x="531.5" y="-130.5" font-family="Helvetica,sans-Serif" font-size="10.00" fill="#000000">/PDEBase.H</text>
</a>
</g>
</g>
<!-- Node21&#45;&gt;Node34 -->
<g id="edge60" class="edge">
<title>Node21&#45;&gt;Node34</title>
<path fill="none" stroke="#191970" d="M1392.4218,-259.0103C1237.0271,-237.2584 805.6006,-176.8681 619.1725,-150.7722"/>
<polygon fill="#191970" stroke="#191970" points="619.523,-147.2873 609.1343,-149.3671 618.5526,-154.2197 619.523,-147.2873"/>
</g>
<!-- Node24 -->
<g id="node25" class="node">
<title>Node24</title>
<polygon fill="#ffffff" stroke="#bfbfbf" points="2340,-129 2340,-148 2431,-148 2431,-129 2340,-129"/>
<text text-anchor="middle" x="2385.5" y="-136" font-family="Helvetica,sans-Serif" font-size="10.00" fill="#000000">AMReX_REAL.H</text>
</g>
<!-- Node23&#45;&gt;Node24 -->
<g id="edge34" class="edge">
<title>Node23&#45;&gt;Node24</title>
<path fill="none" stroke="#191970" d="M2441.1871,-195.9005C2430.9544,-185.353 2414.3228,-168.2096 2401.8954,-155.3998"/>
<polygon fill="#191970" stroke="#191970" points="2404.2709,-152.822 2394.7956,-148.0817 2399.2467,-157.6962 2404.2709,-152.822"/>
</g>
<!-- Node25 -->
<g id="node26" class="node">
<title>Node25</title>
<polygon fill="#ffffff" stroke="#bfbfbf" points="2449.5,-129 2449.5,-148 2581.5,-148 2581.5,-129 2449.5,-129"/>
<text text-anchor="middle" x="2515.5" y="-136" font-family="Helvetica,sans-Serif" font-size="10.00" fill="#000000">AMReX_GpuQualifiers.H</text>
</g>
<!-- Node23&#45;&gt;Node25 -->
<g id="edge35" class="edge">
<title>Node23&#45;&gt;Node25</title>
<path fill="none" stroke="#191970" d="M2459.8129,-195.9005C2470.0456,-185.353 2486.6772,-168.2096 2499.1046,-155.3998"/>
<polygon fill="#191970" stroke="#191970" points="2501.7533,-157.6962 2506.2044,-148.0817 2496.7291,-152.822 2501.7533,-157.6962"/>
</g>
<!-- Node26 -->
<g id="node27" class="node">
<title>Node26</title>
<polygon fill="#ffffff" stroke="#bfbfbf" points="2599.5,-129 2599.5,-148 2713.5,-148 2713.5,-129 2599.5,-129"/>
<text text-anchor="middle" x="2656.5" y="-136" font-family="Helvetica,sans-Serif" font-size="10.00" fill="#000000">AMReX_Extension.H</text>
</g>
<!-- Node23&#45;&gt;Node26 -->
<g id="edge36" class="edge">
<title>Node23&#45;&gt;Node26</title>
<path fill="none" stroke="#191970" d="M2480.0148,-195.9005C2516.1159,-184.1589 2577.3482,-164.2436 2617.3544,-151.2318"/>
<polygon fill="#191970" stroke="#191970" points="2618.6129,-154.5031 2627.04,-148.0817 2616.4478,-147.8463 2618.6129,-154.5031"/>
</g>
<!-- Node27&#45;&gt;Node5 -->
<g id="edge39" class="edge">
<title>Node27&#45;&gt;Node5</title>
<path fill="none" stroke="#191970" d="M1489.3932,-195.925C1460.924,-187.5506 1421.3965,-173.6366 1390.5,-154 1337.7125,-120.4504 1346.2604,-82.2747 1289.5,-56 1216.6335,-22.2697 981.472,-13.2429 872.2379,-10.8506"/>
<polygon fill="#191970" stroke="#191970" points="872.1403,-7.3479 862.0697,-10.6392 871.9947,-14.3464 872.1403,-7.3479"/>
</g>
<!-- Node27&#45;&gt;Node10 -->
<g id="edge38" class="edge">
<title>Node27&#45;&gt;Node10</title>
<path fill="none" stroke="#191970" d="M1503.3621,-195.9309C1467.1108,-179.5777 1397.8372,-142.5453 1366.5,-87 1356.3854,-69.0717 1351.6046,-45.8232 1349.3774,-29.5825"/>
<polygon fill="#191970" stroke="#191970" points="1352.849,-29.135 1348.2092,-19.6101 1345.8965,-29.9494 1352.849,-29.135"/>
</g>
<!-- Node27&#45;&gt;Node12 -->
<g id="edge58" class="edge">
<title>Node27&#45;&gt;Node12</title>
<path fill="none" stroke="#191970" d="M1599.752,-199.2227C1720.5968,-188.5829 1951.9721,-166.9077 1987.5,-154 2038.1298,-135.6057 2063.0278,-134.4647 2088.5,-87 2095.015,-74.8599 2093.9728,-68.6442 2088.5,-56 2083.2663,-43.9081 2073.1158,-33.5335 2063.4045,-25.7139"/>
<polygon fill="#191970" stroke="#191970" points="2065.2234,-22.7038 2055.118,-19.5209 2061.0329,-28.3109 2065.2234,-22.7038"/>
</g>
<!-- Node27&#45;&gt;Node14 -->
<g id="edge45" class="edge">
<title>Node27&#45;&gt;Node14</title>
<path fill="none" stroke="#191970" d="M1453.3882,-196.9073C1374.5458,-187.4048 1245.4079,-171.156 1134.5,-154 1126.2179,-152.7189 1117.5091,-151.2788 1108.9328,-149.8058"/>
<polygon fill="#191970" stroke="#191970" points="1109.4115,-146.3366 1098.9593,-148.0692 1108.2107,-153.2328 1109.4115,-146.3366"/>
</g>
<!-- Node27&#45;&gt;Node19 -->
<g id="edge40" class="edge">
<title>Node27&#45;&gt;Node19</title>
<path fill="none" stroke="#191970" d="M1599.6137,-200.6802C1734.162,-190.1157 2012.563,-159.7923 2070.5,-87 2079.0801,-76.22 2079.4148,-66.5049 2070.5,-56 2058.5683,-41.94 1964.5311,-28.5381 1888.879,-19.8652"/>
<polygon fill="#191970" stroke="#191970" points="1889.1395,-16.3725 1878.8094,-18.726 1888.3525,-23.3281 1889.1395,-16.3725"/>
</g>
<!-- Node27&#45;&gt;Node22 -->
<g id="edge57" class="edge">
<title>Node27&#45;&gt;Node22</title>
<path fill="none" stroke="#191970" d="M1599.9769,-203.3414C1723.9749,-198.924 1982.3985,-186.3796 2198.5,-154 2205.3527,-152.9732 2212.5375,-151.6458 2219.5749,-150.2003"/>
<polygon fill="#191970" stroke="#191970" points="2220.6828,-153.5422 2229.7241,-148.0191 2219.2119,-146.6984 2220.6828,-153.5422"/>
</g>
<!-- Node28 -->
<g id="node29" class="node">
<title>Node28</title>
<g id="a_node29"><a xlink:href="_field_utils_8_h.html" target="_top" xlink:title="amr&#45;wind/core/FieldUtils.H">
<polygon fill="#ffffff" stroke="#000000" points="2194,-62 2194,-81 2339,-81 2339,-62 2194,-62"/>
<text text-anchor="middle" x="2266.5" y="-69" font-family="Helvetica,sans-Serif" font-size="10.00" fill="#000000">amr&#45;wind/core/FieldUtils.H</text>
</a>
</g>
</g>
<!-- Node27&#45;&gt;Node28 -->
<g id="edge41" class="edge">
<title>Node27&#45;&gt;Node28</title>
<path fill="none" stroke="#191970" d="M1599.7687,-201.9115C1755.4887,-193.9438 2109.3664,-173.9041 2160.5,-154 2170.347,-150.167 2219.3857,-110.4064 2247.1839,-87.5136"/>
<polygon fill="#191970" stroke="#191970" points="2249.5792,-90.0748 2255.0621,-81.0089 2245.1225,-84.6769 2249.5792,-90.0748"/>
</g>
<!-- Node30 -->
<g id="node31" class="node">
<title>Node30</title>
<g id="a_node31"><a xlink:href="_int_field_8_h.html" target="_top" xlink:title="amr&#45;wind/core/IntField.H">
<polygon fill="#ffffff" stroke="#000000" points="1459,-129 1459,-148 1594,-148 1594,-129 1459,-129"/>
<text text-anchor="middle" x="1526.5" y="-136" font-family="Helvetica,sans-Serif" font-size="10.00" fill="#000000">amr&#45;wind/core/IntField.H</text>
</a>
</g>
</g>
<!-- Node27&#45;&gt;Node30 -->
<g id="edge46" class="edge">
<title>Node27&#45;&gt;Node30</title>
<path fill="none" stroke="#191970" d="M1526.5,-195.9005C1526.5,-186.149 1526.5,-170.7597 1526.5,-158.3695"/>
<polygon fill="#191970" stroke="#191970" points="1530.0001,-158.0816 1526.5,-148.0817 1523.0001,-158.0817 1530.0001,-158.0816"/>
</g>
<!-- Node31 -->
<g id="node32" class="node">
<title>Node31</title>
<polygon fill="#ffffff" stroke="#bfbfbf" points="1375.5,-62 1375.5,-81 1485.5,-81 1485.5,-62 1375.5,-62"/>
<text text-anchor="middle" x="1430.5" y="-69" font-family="Helvetica,sans-Serif" font-size="10.00" fill="#000000">AMReX_iMultiFab.H</text>
</g>
<!-- Node27&#45;&gt;Node31 -->
<g id="edge59" class="edge">
<title>Node27&#45;&gt;Node31</title>
<path fill="none" stroke="#191970" d="M1503.4521,-195.8517C1486.002,-187.361 1462.8321,-173.3283 1449.5,-154 1436.5686,-135.2525 1432.3305,-108.9746 1430.9996,-91.1509"/>
<polygon fill="#191970" stroke="#191970" points="1434.4897,-90.8661 1430.4886,-81.0558 1427.4987,-91.22 1434.4897,-90.8661"/>
</g>
<!-- Node32 -->
<g id="node33" class="node">
<title>Node32</title>
<g id="a_node33"><a xlink:href="_scratch_field_8_h.html" target="_top" xlink:title="amr&#45;wind/core/ScratchField.H">
<polygon fill="#ffffff" stroke="#000000" points="1612.5,-129 1612.5,-148 1770.5,-148 1770.5,-129 1612.5,-129"/>
<text text-anchor="middle" x="1691.5" y="-136" font-family="Helvetica,sans-Serif" font-size="10.00" fill="#000000">amr&#45;wind/core/ScratchField.H</text>
</a>
</g>
</g>
<!-- Node27&#45;&gt;Node32 -->
<g id="edge50" class="edge">
<title>Node27&#45;&gt;Node32</title>
<path fill="none" stroke="#191970" d="M1550.1405,-195.9005C1578.5664,-184.3579 1626.4449,-164.9163 1658.5017,-151.8993"/>
<polygon fill="#191970" stroke="#191970" points="1659.9549,-155.0868 1667.9034,-148.0817 1657.3213,-148.6011 1659.9549,-155.0868"/>
</g>
<!-- Node28&#45;&gt;Node12 -->
<g id="edge43" class="edge">
<title>Node28&#45;&gt;Node12</title>
<path fill="none" stroke="#191970" d="M2231.0313,-61.8906C2191.5507,-51.1944 2127.6557,-33.8836 2084.6395,-22.2294"/>
<polygon fill="#191970" stroke="#191970" points="2085.287,-18.7787 2074.7197,-19.5419 2083.4565,-25.5352 2085.287,-18.7787"/>
</g>
<!-- Node28&#45;&gt;Node19 -->
<g id="edge42" class="edge">
<title>Node28&#45;&gt;Node19</title>
<path fill="none" stroke="#191970" d="M2193.8407,-62.0925C2107.9206,-50.9681 1965.205,-32.4902 1874.8656,-20.7937"/>
<polygon fill="#191970" stroke="#191970" points="1875.2991,-17.3206 1864.9324,-19.5076 1874.4002,-24.2627 1875.2991,-17.3206"/>
</g>
<!-- Node29 -->
<g id="node30" class="node">
<title>Node29</title>
<polygon fill="#ffffff" stroke="#bfbfbf" points="2205.5,-.5 2205.5,-19.5 2327.5,-19.5 2327.5,-.5 2205.5,-.5"/>
<text text-anchor="middle" x="2266.5" y="-7.5" font-family="Helvetica,sans-Serif" font-size="10.00" fill="#000000">AMReX_Interpolater.H</text>
</g>
<!-- Node28&#45;&gt;Node29 -->
<g id="edge44" class="edge">
<title>Node28&#45;&gt;Node29</title>
<path fill="none" stroke="#191970" d="M2266.5,-61.8906C2266.5,-53.3657 2266.5,-40.6392 2266.5,-29.9235"/>
<polygon fill="#191970" stroke="#191970" points="2270.0001,-29.7448 2266.5,-19.7449 2263.0001,-29.7449 2270.0001,-29.7448"/>
</g>
<!-- Node30&#45;&gt;Node10 -->
<g id="edge47" class="edge">
<title>Node30&#45;&gt;Node10</title>
<path fill="none" stroke="#191970" d="M1525.4665,-128.8528C1523.1185,-111.7258 1515.8169,-75.9396 1494.5,-56 1477.7647,-40.346 1417.5515,-25.0347 1379.5763,-16.6235"/>
<polygon fill="#191970" stroke="#191970" points="1380.0244,-13.1393 1369.5097,-14.4395 1378.5402,-19.9802 1380.0244,-13.1393"/>
</g>
<!-- Node30&#45;&gt;Node19 -->
<g id="edge48" class="edge">
<title>Node30&#45;&gt;Node19</title>
<path fill="none" stroke="#191970" d="M1573.5029,-128.9837C1644.4005,-114.585 1770.6946,-88.7423 1772.5,-87 1787.7795,-72.2543 1791.545,-47.3309 1792.1239,-29.8436"/>
<polygon fill="#191970" stroke="#191970" points="1795.624,-29.6106 1792.1331,-19.6075 1788.624,-29.6043 1795.624,-29.6106"/>
</g>
<!-- Node30&#45;&gt;Node31 -->
<g id="edge49" class="edge">
<title>Node30&#45;&gt;Node31</title>
<path fill="none" stroke="#191970" d="M1512.7455,-128.9005C1497.0623,-117.9549 1471.2017,-99.9064 1452.6642,-86.9688"/>
<polygon fill="#191970" stroke="#191970" points="1454.4324,-83.9347 1444.2289,-81.0817 1450.4262,-89.675 1454.4324,-83.9347"/>
</g>
<!-- Node32&#45;&gt;Node10 -->
<g id="edge51" class="edge">
<title>Node32&#45;&gt;Node10</title>
<path fill="none" stroke="#191970" d="M1674.2754,-128.9835C1643.6743,-112.3752 1577.4929,-77.794 1518.5,-56 1471.3275,-38.5729 1414.6214,-24.6354 1379.8254,-16.8433"/>
<polygon fill="#191970" stroke="#191970" points="1380.2839,-13.3604 1369.7648,-14.6253 1378.7768,-20.1963 1380.2839,-13.3604"/>
</g>
<!-- Node32&#45;&gt;Node11 -->
<g id="edge55" class="edge">
<title>Node32&#45;&gt;Node11</title>
<path fill="none" stroke="#191970" d="M1665.987,-128.8942C1647.3275,-120.5768 1622.8609,-106.7508 1608.5,-87 1596.3945,-70.3511 1591.9481,-46.8877 1590.3437,-30.2468"/>
<polygon fill="#191970" stroke="#191970" points="1593.8153,-29.7159 1589.6278,-19.9838 1586.8322,-30.2031 1593.8153,-29.7159"/>
</g>
<!-- Node32&#45;&gt;Node12 -->
<g id="edge54" class="edge">
<title>Node32&#45;&gt;Node12</title>
<path fill="none" stroke="#191970" d="M1770.6429,-133.2362C1875.9174,-125.4154 2051.0902,-109.2257 2070.5,-87 2085.5141,-69.8078 2070.0823,-44.4136 2056.1318,-27.5481"/>
<polygon fill="#191970" stroke="#191970" points="2058.3715,-24.7947 2049.1406,-19.5945 2053.1139,-29.4161 2058.3715,-24.7947"/>
</g>
<!-- Node32&#45;&gt;Node19 -->
<g id="edge52" class="edge">
<title>Node32&#45;&gt;Node19</title>
<path fill="none" stroke="#191970" d="M1741.575,-128.9682C1765.217,-121.685 1791.3067,-108.9863 1805.5,-87 1816.7287,-69.606 1809.6305,-45.6387 1802.0442,-29.0855"/>
<polygon fill="#191970" stroke="#191970" points="1805.0295,-27.2309 1797.417,-19.862 1798.7727,-30.3698 1805.0295,-27.2309"/>
</g>
<!-- Node32&#45;&gt;Node20 -->
<g id="edge53" class="edge">
<title>Node32&#45;&gt;Node20</title>
<path fill="none" stroke="#191970" d="M1691.3567,-128.9005C1691.2112,-119.149 1690.9815,-103.7597 1690.7966,-91.3695"/>
<polygon fill="#191970" stroke="#191970" points="1694.292,-91.0283 1690.643,-81.0817 1687.2927,-91.1328 1694.292,-91.0283"/>
</g>
<!-- Node33 -->
<g id="node34" class="node">
<title>Node33</title>
<polygon fill="#ffffff" stroke="#bfbfbf" points="1933.5,-62 1933.5,-81 2061.5,-81 2061.5,-62 1933.5,-62"/>
<text text-anchor="middle" x="1997.5" y="-69" font-family="Helvetica,sans-Serif" font-size="10.00" fill="#000000">AMReX_PhysBCFunct.H</text>
</g>
<!-- Node32&#45;&gt;Node33 -->
<g id="edge56" class="edge">
<title>Node32&#45;&gt;Node33</title>
<path fill="none" stroke="#191970" d="M1735.0174,-128.9717C1789.9219,-116.9501 1884.3268,-96.2797 1943.6992,-83.2799"/>
<polygon fill="#191970" stroke="#191970" points="1944.6174,-86.6619 1953.6373,-81.1039 1943.1201,-79.8239 1944.6174,-86.6619"/>
</g>
<!-- Node34&#45;&gt;Node3 -->
<g id="edge62" class="edge">
<title>Node34&#45;&gt;Node3</title>
<path fill="none" stroke="#191970" d="M501.6522,-123.4639C479.236,-112.1715 448.7394,-96.8086 426.7262,-85.7192"/>
<polygon fill="#191970" stroke="#191970" points="428.07,-82.4772 417.5645,-81.1039 424.9207,-88.7287 428.07,-82.4772"/>
</g>
<!-- Node34&#45;&gt;Node9 -->
<g id="edge63" class="edge">
<title>Node34&#45;&gt;Node9</title>
<path fill="none" stroke="#191970" d="M606.0073,-123.4639C666.6602,-111.2237 751.0118,-94.2009 806.4052,-83.0221"/>
<polygon fill="#191970" stroke="#191970" points="807.2892,-86.4144 816.3992,-81.0053 805.9044,-79.5527 807.2892,-86.4144"/>
</g>
<!-- Node34&#45;&gt;Node10 -->
<g id="edge61" class="edge">
<title>Node34&#45;&gt;Node10</title>
<path fill="none" stroke="#191970" d="M530.0691,-123.2789C529.2235,-104.3112 531.0693,-72.401 550.5,-56 580.2064,-30.9255 1170.1385,-14.4669 1315.3952,-10.7842"/>
<polygon fill="#191970" stroke="#191970" points="1315.5402,-14.2817 1325.4491,-10.5317 1315.3644,-7.2839 1315.5402,-14.2817"/>
</g>
<!-- Node34&#45;&gt;Node18 -->
<g id="edge67" class="edge">
<title>Node34&#45;&gt;Node18</title>
<path fill="none" stroke="#191970" d="M466.8672,-123.4639C414.6892,-111.3253 342.2932,-94.4831 294.2295,-83.3016"/>
<polygon fill="#191970" stroke="#191970" points="294.8915,-79.8623 284.3585,-81.0053 293.3054,-86.6802 294.8915,-79.8623"/>
</g>
<!-- Node34&#45;&gt;Node19 -->
<g id="edge66" class="edge">
<title>Node34&#45;&gt;Node19</title>
<path fill="none" stroke="#191970" d="M609.4008,-133.8217C711.0022,-126.8431 882.6098,-111.8022 940.5,-87 960.5346,-78.4165 958.1717,-63.8628 978.5,-56 1117.1497,-2.3716 1498.1198,-29.1143 1646.5,-20 1661.892,-19.0545 1678.1985,-17.9906 1694.1057,-16.9186"/>
<polygon fill="#191970" stroke="#191970" points="1694.7477,-20.3832 1704.4878,-16.2142 1694.2737,-13.3993 1694.7477,-20.3832"/>
</g>
<!-- Node35 -->
<g id="node36" class="node">
<title>Node35</title>
<g id="a_node36"><a xlink:href="_p_d_e_fields_8_h.html" target="_top" xlink:title="amr&#45;wind/equation_systems\l/PDEFields.H">
<polygon fill="#ffffff" stroke="#000000" points="0,-56.5 0,-86.5 155,-86.5 155,-56.5 0,-56.5"/>
<text text-anchor="start" x="8" y="-74.5" font-family="Helvetica,sans-Serif" font-size="10.00" fill="#000000">amr&#45;wind/equation_systems</text>
<text text-anchor="middle" x="77.5" y="-63.5" font-family="Helvetica,sans-Serif" font-size="10.00" fill="#000000">/PDEFields.H</text>
</a>
</g>
</g>
<!-- Node34&#45;&gt;Node35 -->
<g id="edge64" class="edge">
<title>Node34&#45;&gt;Node35</title>
<path fill="none" stroke="#191970" d="M453.6952,-128.429C381.5736,-118.8994 271.0372,-103.8029 165.1648,-87.0726"/>
<polygon fill="#191970" stroke="#191970" points="165.6892,-83.6122 155.2642,-85.5011 164.5918,-90.5256 165.6892,-83.6122"/>
</g>
<!-- Node36 -->
<g id="node37" class="node">
<title>Node36</title>
<polygon fill="#ffffff" stroke="#bfbfbf" points="53,-.5 53,-19.5 102,-19.5 102,-.5 53,-.5"/>
<text text-anchor="middle" x="77.5" y="-7.5" font-family="Helvetica,sans-Serif" font-size="10.00" fill="#000000">iosfwd</text>
</g>
<!-- Node35&#45;&gt;Node36 -->
<g id="edge65" class="edge">
<title>Node35&#45;&gt;Node36</title>
<path fill="none" stroke="#191970" d="M77.5,-56.2977C77.5,-48.3834 77.5,-38.6043 77.5,-30.0759"/>
<polygon fill="#191970" stroke="#191970" points="81.0001,-29.8469 77.5,-19.8469 74.0001,-29.847 81.0001,-29.8469"/>
</g>
</g>
</svg>
        <g id="navigator" transform="translate(0 0)" fill="#404254">
                <rect fill="#f2f5e9" fill-opacity="0.5" stroke="#606060" stroke-width=".5" x="0" y="0" width="60" height="60"/>
                <use id="zoomplus" xlink:href="#zoomPlus" x="17" y="9" onmousedown="handleZoom(evt,'in')"/>
                <use id="zoomminus" xlink:href="#zoomMin" x="42" y="9" onmousedown="handleZoom(evt,'out')"/>
                <use id="reset" xlink:href="#resetDef" x="30" y="36" onmousedown="handleReset()"/>
                <g id="arrowUp" xlink:href="#dirArrow" transform="translate(30 24)" onmousedown="handlePan(0,-1)">
                  <use xlink:href="#rim" fill="#404040">
                        <set attributeName="fill" to="#808080" begin="arrowUp.mouseover" end="arrowUp.mouseout"/>
                  </use>
                  <path fill="none" stroke="white" stroke-width="1.5" d="M0,-3.0v7 M-2.5,-0.5L0,-3.0L2.5,-0.5"/>
                </g>
                <g id="arrowRight" xlink:href="#dirArrow" transform="rotate(90) translate(36 -43)" onmousedown="handlePan(1,0)">
                  <use xlink:href="#rim" fill="#404040">
                        <set attributeName="fill" to="#808080" begin="arrowRight.mouseover" end="arrowRight.mouseout"/>
                  </use>
                  <path fill="none" stroke="white" stroke-width="1.5" d="M0,-3.0v7 M-2.5,-0.5L0,-3.0L2.5,-0.5"/>
                </g>
                <g id="arrowDown" xlink:href="#dirArrow" transform="rotate(180) translate(-30 -48)" onmousedown="handlePan(0,1)">
                  <use xlink:href="#rim" fill="#404040">
                        <set attributeName="fill" to="#808080" begin="arrowDown.mouseover" end="arrowDown.mouseout"/>
                  </use>
                  <path fill="none" stroke="white" stroke-width="1.5" d="M0,-3.0v7 M-2.5,-0.5L0,-3.0L2.5,-0.5"/>
                </g>
                <g id="arrowLeft" xlink:href="#dirArrow" transform="rotate(270) translate(-36 17)" onmousedown="handlePan(-1,0)">
                  <use xlink:href="#rim" fill="#404040">
                        <set attributeName="fill" to="#808080" begin="arrowLeft.mouseover" end="arrowLeft.mouseout"/>
                  </use>
                  <path fill="none" stroke="white" stroke-width="1.5" d="M0,-3.0v7 M-2.5,-0.5L0,-3.0L2.5,-0.5"/>
                </g>
        </g>
        <svg viewBox="0 0 15 15" width="100%" height="30px" preserveAspectRatio="xMaxYMin meet">
         <g id="arrow_out" transform="scale(0.3 0.3)">
          <a xlink:href="_rain_drop_8cpp__incl_org.svg" target="_base">
           <rect id="button" ry="5" rx="5" y="6" x="6" height="38" width="38"
                fill="#f2f5e9" fill-opacity="0.5" stroke="#606060" stroke-width="1.0"/>
           <path id="arrow"
             d="M 11.500037,31.436501 C 11.940474,20.09759 22.043105,11.32322 32.158766,21.979434 L 37.068811,17.246167 C 37.068811,17.246167 37.088388,32 37.088388,32 L 22.160133,31.978069 C 22.160133,31.978069 26.997745,27.140456 26.997745,27.140456 C 18.528582,18.264221 13.291696,25.230495 11.500037,31.436501 z"
             style="fill:#404040;"/>
          </a>
         </g>
        </svg>
</svg>
