<?xml version="1.0" encoding="UTF-8" standalone="no"?>
<!DOCTYPE svg PUBLIC "-//W3C//DTD SVG 1.1//EN"
 "http://www.w3.org/Graphics/SVG/1.1/DTD/svg11.dtd">
<!-- Generated by graphviz version 2.40.1 (20161225.0304)
 -->
<!-- Title: RayleighTaylorFieldInit.H Pages: 1 -->
<svg width="778pt" height="84pt"
 viewBox="0.00 0.00 777.50 84.00" xmlns="http://www.w3.org/2000/svg" xmlns:xlink="http://www.w3.org/1999/xlink">
<g id="graph0" class="graph" transform="scale(1 1) rotate(0) translate(4 80)">
<title>RayleighTaylorFieldInit.H</title>
<polygon fill="#ffffff" stroke="transparent" points="-4,4 -4,-80 773.5,-80 773.5,4 -4,4"/>
<!-- Node0 -->
<g id="node1" class="node">
<title>Node0</title>
<polygon fill="#bfbfbf" stroke="#000000" points="317,-56.5 317,-75.5 454,-75.5 454,-56.5 317,-56.5"/>
<text text-anchor="middle" x="385.5" y="-63.5" font-family="Helvetica,sans-Serif" font-size="10.00" fill="#000000">RayleighTaylorFieldInit.H</text>
</g>
<!-- Node1 -->
<g id="node2" class="node">
<title>Node1</title>
<polygon fill="#ffffff" stroke="#bfbfbf" points="0,-.5 0,-19.5 91,-19.5 91,-.5 0,-.5"/>
<text text-anchor="middle" x="45.5" y="-7.5" font-family="Helvetica,sans-Serif" font-size="10.00" fill="#000000">AMReX_Array.H</text>
</g>
<!-- Node0&#45;&gt;Node1 -->
<g id="edge1" class="edge">
<title>Node0&#45;&gt;Node1</title>
<path fill="none" stroke="#191970" d="M324.2874,-56.4795C268.7341,-47.7574 184.2922,-34.2964 100.9933,-20.0585"/>
<polygon fill="#191970" stroke="#191970" points="101.5538,-16.6036 91.1062,-18.3639 100.3712,-23.503 101.5538,-16.6036"/>
</g>
<!-- Node2 -->
<g id="node3" class="node">
<title>Node2</title>
<polygon fill="#ffffff" stroke="#bfbfbf" points="109.5,-.5 109.5,-19.5 207.5,-19.5 207.5,-.5 109.5,-.5"/>
<text text-anchor="middle" x="158.5" y="-7.5" font-family="Helvetica,sans-Serif" font-size="10.00" fill="#000000">AMReX_Array4.H</text>
</g>
<!-- Node0&#45;&gt;Node2 -->
<g id="edge2" class="edge">
<title>Node0&#45;&gt;Node2</title>
<path fill="none" stroke="#191970" d="M346.7352,-56.4369C308.1308,-46.9133 248.7616,-32.2672 207.0428,-21.9753"/>
<polygon fill="#191970" stroke="#191970" points="207.6521,-18.5208 197.1049,-19.5237 205.9755,-25.317 207.6521,-18.5208"/>
</g>
<!-- Node3 -->
<g id="node4" class="node">
<title>Node3</title>
<polygon fill="#ffffff" stroke="#bfbfbf" points="226,-.5 226,-19.5 311,-19.5 311,-.5 226,-.5"/>
<text text-anchor="middle" x="268.5" y="-7.5" font-family="Helvetica,sans-Serif" font-size="10.00" fill="#000000">AMReX_Box.H</text>
</g>
<!-- Node0&#45;&gt;Node3 -->
<g id="edge3" class="edge">
<title>Node0&#45;&gt;Node3</title>
<path fill="none" stroke="#191970" d="M365.387,-56.3733C346.6897,-47.4241 318.6256,-33.9917 297.5066,-23.8835"/>
<polygon fill="#191970" stroke="#191970" points="298.8817,-20.6614 288.3506,-19.5011 295.8595,-26.9755 298.8817,-20.6614"/>
</g>
<!-- Node4 -->
<g id="node5" class="node">
<title>Node4</title>
<polygon fill="#ffffff" stroke="#bfbfbf" points="329,-.5 329,-19.5 442,-19.5 442,-.5 329,-.5"/>
<text text-anchor="middle" x="385.5" y="-7.5" font-family="Helvetica,sans-Serif" font-size="10.00" fill="#000000">AMReX_Geometry.H</text>
</g>
<!-- Node0&#45;&gt;Node4 -->
<g id="edge4" class="edge">
<title>Node0&#45;&gt;Node4</title>
<path fill="none" stroke="#191970" d="M385.5,-56.2455C385.5,-48.9382 385.5,-38.6944 385.5,-29.7046"/>
<polygon fill="#191970" stroke="#191970" points="389.0001,-29.6426 385.5,-19.6427 382.0001,-29.6427 389.0001,-29.6426"/>
</g>
<!-- Node5 -->
<g id="node6" class="node">
<title>Node5</title>
<polygon fill="#ffffff" stroke="#bfbfbf" points="460,-.5 460,-19.5 551,-19.5 551,-.5 460,-.5"/>
<text text-anchor="middle" x="505.5" y="-7.5" font-family="Helvetica,sans-Serif" font-size="10.00" fill="#000000">AMReX_REAL.H</text>
</g>
<!-- Node0&#45;&gt;Node5 -->
<g id="edge5" class="edge">
<title>Node0&#45;&gt;Node5</title>
<path fill="none" stroke="#191970" d="M406.1287,-56.3733C425.3919,-47.3838 454.3486,-33.8706 476.0419,-23.7471"/>
<polygon fill="#191970" stroke="#191970" points="477.5587,-26.9017 485.1405,-19.5011 474.5985,-20.5584 477.5587,-26.9017"/>
</g>
<!-- Node6 -->
<g id="node7" class="node">
<title>Node6</title>
<polygon fill="#ffffff" stroke="#bfbfbf" points="569.5,-.5 569.5,-19.5 665.5,-19.5 665.5,-.5 569.5,-.5"/>
<text text-anchor="middle" x="617.5" y="-7.5" font-family="Helvetica,sans-Serif" font-size="10.00" fill="#000000">AMReX_Vector.H</text>
</g>
<!-- Node0&#45;&gt;Node6 -->
<g id="edge6" class="edge">
<title>Node0&#45;&gt;Node6</title>
<path fill="none" stroke="#191970" d="M425.1186,-56.4369C464.6568,-46.8932 525.5069,-32.2052 568.1582,-21.9101"/>
<polygon fill="#191970" stroke="#191970" points="569.1452,-25.2724 578.0448,-19.5237 567.5027,-18.4679 569.1452,-25.2724"/>
</g>
<!-- Node7 -->
<g id="node8" class="node">
<title>Node7</title>
<polygon fill="#ffffff" stroke="#bfbfbf" points="683.5,-.5 683.5,-19.5 769.5,-19.5 769.5,-.5 683.5,-.5"/>
<text text-anchor="middle" x="726.5" y="-7.5" font-family="Helvetica,sans-Serif" font-size="10.00" fill="#000000">AMReX_Gpu.H</text>
</g>
<!-- Node0&#45;&gt;Node7 -->
<g id="edge7" class="edge">
<title>Node0&#45;&gt;Node7</title>
<path fill="none" stroke="#191970" d="M449.0234,-56.4894C505.4113,-47.9101 590.2983,-34.6612 673.5146,-20.1326"/>
<polygon fill="#191970" stroke="#191970" points="674.1442,-23.5757 683.3894,-18.4011 672.9352,-16.6809 674.1442,-23.5757"/>
</g>
</g>
</svg>
