<?xml version="1.0" encoding="UTF-8" standalone="no"?>
<!DOCTYPE svg PUBLIC "-//W3C//DTD SVG 1.1//EN"
 "http://www.w3.org/Graphics/SVG/1.1/DTD/svg11.dtd">
<!-- Generated by graphviz version 2.40.1 (20161225.0304)
 -->
<!-- Title: RayleighTaylor.H Pages: 1 -->
<svg width="1980pt" height="207pt"
 viewBox="0.00 0.00 1979.50 207.00" xmlns="http://www.w3.org/2000/svg" xmlns:xlink="http://www.w3.org/1999/xlink">
<g id="graph0" class="graph" transform="scale(1 1) rotate(0) translate(4 203)">
<title>RayleighTaylor.H</title>
<polygon fill="#ffffff" stroke="transparent" points="-4,4 -4,-203 1975.5,-203 1975.5,4 -4,4"/>
<!-- Node0 -->
<g id="node1" class="node">
<title>Node0</title>
<polygon fill="#bfbfbf" stroke="#000000" points="563.5,-179.5 563.5,-198.5 661.5,-198.5 661.5,-179.5 563.5,-179.5"/>
<text text-anchor="middle" x="612.5" y="-186.5" font-family="Helvetica,sans-Serif" font-size="10.00" fill="#000000">RayleighTaylor.H</text>
</g>
<!-- Node1 -->
<g id="node2" class="node">
<title>Node1</title>
<polygon fill="#ffffff" stroke="#bfbfbf" points="264.5,-.5 264.5,-19.5 322.5,-19.5 322.5,-.5 264.5,-.5"/>
<text text-anchor="middle" x="293.5" y="-7.5" font-family="Helvetica,sans-Serif" font-size="10.00" fill="#000000">memory</text>
</g>
<!-- Node0&#45;&gt;Node1 -->
<g id="edge1" class="edge">
<title>Node0&#45;&gt;Node1</title>
<path fill="none" stroke="#191970" d="M563.0752,-185.4946C513.8636,-180.6217 436.9972,-169.2169 375.5,-143 327.9721,-122.7384 304.2794,-121.8691 280.5,-76 272.8759,-61.2936 277.6915,-42.622 283.5023,-28.8942"/>
<polygon fill="#191970" stroke="#191970" points="286.8309,-30.0433 287.9503,-19.5077 280.5051,-27.0456 286.8309,-30.0433"/>
</g>
<!-- Node2 -->
<g id="node3" class="node">
<title>Node2</title>
<g id="a_node3"><a xlink:href="_physics_8_h.html" target="_top" xlink:title="amr&#45;wind/core/Physics.H">
<polygon fill="#ffffff" stroke="#000000" points="385,-118 385,-137 522,-137 522,-118 385,-118"/>
<text text-anchor="middle" x="453.5" y="-125" font-family="Helvetica,sans-Serif" font-size="10.00" fill="#000000">amr&#45;wind/core/Physics.H</text>
</a>
</g>
</g>
<!-- Node0&#45;&gt;Node2 -->
<g id="edge2" class="edge">
<title>Node0&#45;&gt;Node2</title>
<path fill="none" stroke="#191970" d="M587.6563,-179.3906C560.8193,-169.0103 517.8767,-152.4004 487.8247,-140.7766"/>
<polygon fill="#191970" stroke="#191970" points="488.7586,-137.3851 478.1693,-137.0419 486.2333,-143.9138 488.7586,-137.3851"/>
</g>
<!-- Node13 -->
<g id="node14" class="node">
<title>Node13</title>
<g id="a_node14"><a xlink:href="_rayleigh_taylor_field_init_8_h.html" target="_top" xlink:title="amr&#45;wind/physics/Rayleigh\lTaylorFieldInit.H">
<polygon fill="#ffffff" stroke="#000000" points="751.5,-112.5 751.5,-142.5 899.5,-142.5 899.5,-112.5 751.5,-112.5"/>
<text text-anchor="start" x="759.5" y="-130.5" font-family="Helvetica,sans-Serif" font-size="10.00" fill="#000000">amr&#45;wind/physics/Rayleigh</text>
<text text-anchor="middle" x="825.5" y="-119.5" font-family="Helvetica,sans-Serif" font-size="10.00" fill="#000000">TaylorFieldInit.H</text>
</a>
</g>
</g>
<!-- Node0&#45;&gt;Node13 -->
<g id="edge16" class="edge">
<title>Node0&#45;&gt;Node13</title>
<path fill="none" stroke="#191970" d="M645.7813,-179.3906C677.1439,-170.3352 724.9258,-156.539 763.3391,-145.4479"/>
<polygon fill="#191970" stroke="#191970" points="764.7577,-148.6813 773.3943,-142.5446 762.8159,-141.956 764.7577,-148.6813"/>
</g>
<!-- Node19 -->
<g id="node20" class="node">
<title>Node19</title>
<g id="a_node20"><a xlink:href="_field_8_h.html" target="_top" xlink:title="amr&#45;wind/core/Field.H">
<polygon fill="#ffffff" stroke="#000000" points="1339.5,-118 1339.5,-137 1461.5,-137 1461.5,-118 1339.5,-118"/>
<text text-anchor="middle" x="1400.5" y="-125" font-family="Helvetica,sans-Serif" font-size="10.00" fill="#000000">amr&#45;wind/core/Field.H</text>
</a>
</g>
</g>
<!-- Node0&#45;&gt;Node19 -->
<g id="edge24" class="edge">
<title>Node0&#45;&gt;Node19</title>
<path fill="none" stroke="#191970" d="M661.7929,-185.1529C796.5576,-174.6351 1171.5686,-145.3671 1329.2301,-133.0623"/>
<polygon fill="#191970" stroke="#191970" points="1329.5985,-136.5443 1339.2958,-132.2767 1329.0538,-129.5655 1329.5985,-136.5443"/>
</g>
<!-- Node3 -->
<g id="node4" class="node">
<title>Node3</title>
<g id="a_node4"><a xlink:href="_factory_8_h.html" target="_top" xlink:title="amr&#45;wind/core/Factory.H">
<polygon fill="#ffffff" stroke="#000000" points="99.5,-56.5 99.5,-75.5 233.5,-75.5 233.5,-56.5 99.5,-56.5"/>
<text text-anchor="middle" x="166.5" y="-63.5" font-family="Helvetica,sans-Serif" font-size="10.00" fill="#000000">amr&#45;wind/core/Factory.H</text>
</a>
</g>
</g>
<!-- Node2&#45;&gt;Node3 -->
<g id="edge3" class="edge">
<title>Node2&#45;&gt;Node3</title>
<path fill="none" stroke="#191970" d="M408.9711,-117.9581C358.2793,-107.0956 275.4609,-89.3488 220.9651,-77.6711"/>
<polygon fill="#191970" stroke="#191970" points="221.6447,-74.2373 211.1333,-75.5643 220.178,-81.082 221.6447,-74.2373"/>
</g>
<!-- Node8 -->
<g id="node9" class="node">
<title>Node8</title>
<g id="a_node9"><a xlink:href="_coll_mgr_8_h.html" target="_top" xlink:title="amr&#45;wind/core/CollMgr.H">
<polygon fill="#ffffff" stroke="#000000" points="289.5,-56.5 289.5,-75.5 425.5,-75.5 425.5,-56.5 289.5,-56.5"/>
<text text-anchor="middle" x="357.5" y="-63.5" font-family="Helvetica,sans-Serif" font-size="10.00" fill="#000000">amr&#45;wind/core/CollMgr.H</text>
</a>
</g>
</g>
<!-- Node2&#45;&gt;Node8 -->
<g id="edge9" class="edge">
<title>Node2&#45;&gt;Node8</title>
<path fill="none" stroke="#191970" d="M438.5,-117.8906C423.1419,-108.0519 399.0479,-92.6167 381.1255,-81.1351"/>
<polygon fill="#191970" stroke="#191970" points="382.703,-77.9891 372.3947,-75.5419 378.927,-83.8833 382.703,-77.9891"/>
</g>
<!-- Node11 -->
<g id="node12" class="node">
<title>Node11</title>
<polygon fill="#ffffff" stroke="#bfbfbf" points="1672,-.5 1672,-19.5 1779,-19.5 1779,-.5 1672,-.5"/>
<text text-anchor="middle" x="1725.5" y="-7.5" font-family="Helvetica,sans-Serif" font-size="10.00" fill="#000000">AMReX_MultiFab.H</text>
</g>
<!-- Node2&#45;&gt;Node11 -->
<g id="edge14" class="edge">
<title>Node2&#45;&gt;Node11</title>
<path fill="none" stroke="#191970" d="M452.796,-117.9705C452.2187,-102.1981 453.6837,-70.9273 472.5,-56 522.6463,-16.218 1528.5942,-25.5228 1661.6243,-19.6187"/>
<polygon fill="#191970" stroke="#191970" points="1662.1795,-23.091 1671.9425,-18.9759 1661.7442,-16.1046 1662.1795,-23.091"/>
</g>
<!-- Node12 -->
<g id="node13" class="node">
<title>Node12</title>
<polygon fill="#ffffff" stroke="#bfbfbf" points="482,-56.5 482,-75.5 595,-75.5 595,-56.5 482,-56.5"/>
<text text-anchor="middle" x="538.5" y="-63.5" font-family="Helvetica,sans-Serif" font-size="10.00" fill="#000000">AMReX_Geometry.H</text>
</g>
<!-- Node2&#45;&gt;Node12 -->
<g id="edge15" class="edge">
<title>Node2&#45;&gt;Node12</title>
<path fill="none" stroke="#191970" d="M466.7813,-117.8906C480.2548,-108.1421 501.322,-92.8994 517.1435,-81.4521"/>
<polygon fill="#191970" stroke="#191970" points="519.2619,-84.2394 525.312,-75.5419 515.1586,-78.5682 519.2619,-84.2394"/>
</g>
<!-- Node3&#45;&gt;Node1 -->
<g id="edge4" class="edge">
<title>Node3&#45;&gt;Node1</title>
<path fill="none" stroke="#191970" d="M188.3321,-56.3733C208.8103,-47.3435 239.6399,-33.7494 262.6319,-23.6111"/>
<polygon fill="#191970" stroke="#191970" points="264.215,-26.7383 271.9528,-19.5011 261.3907,-20.3333 264.215,-26.7383"/>
</g>
<!-- Node4 -->
<g id="node5" class="node">
<title>Node4</title>
<polygon fill="#ffffff" stroke="#bfbfbf" points="341,-.5 341,-19.5 434,-19.5 434,-.5 341,-.5"/>
<text text-anchor="middle" x="387.5" y="-7.5" font-family="Helvetica,sans-Serif" font-size="10.00" fill="#000000">unordered_map</text>
</g>
<!-- Node3&#45;&gt;Node4 -->
<g id="edge5" class="edge">
<title>Node3&#45;&gt;Node4</title>
<path fill="none" stroke="#191970" d="M204.2401,-56.4369C241.7448,-46.9335 299.3799,-32.3291 339.9824,-22.0407"/>
<polygon fill="#191970" stroke="#191970" points="341.0816,-25.3728 349.9155,-19.5237 339.3621,-18.5873 341.0816,-25.3728"/>
</g>
<!-- Node5 -->
<g id="node6" class="node">
<title>Node5</title>
<polygon fill="#ffffff" stroke="#bfbfbf" points="186.5,-.5 186.5,-19.5 246.5,-19.5 246.5,-.5 186.5,-.5"/>
<text text-anchor="middle" x="216.5" y="-7.5" font-family="Helvetica,sans-Serif" font-size="10.00" fill="#000000">iostream</text>
</g>
<!-- Node3&#45;&gt;Node5 -->
<g id="edge6" class="edge">
<title>Node3&#45;&gt;Node5</title>
<path fill="none" stroke="#191970" d="M175.2093,-56.2455C182.3073,-48.2958 192.5084,-36.8706 200.995,-27.3656"/>
<polygon fill="#191970" stroke="#191970" points="203.8411,-29.4331 207.8905,-19.6427 198.6195,-24.771 203.8411,-29.4331"/>
</g>
<!-- Node6 -->
<g id="node7" class="node">
<title>Node6</title>
<polygon fill="#ffffff" stroke="#bfbfbf" points="0,-.5 0,-19.5 89,-19.5 89,-.5 0,-.5"/>
<text text-anchor="middle" x="44.5" y="-7.5" font-family="Helvetica,sans-Serif" font-size="10.00" fill="#000000">AMReX_Print.H</text>
</g>
<!-- Node3&#45;&gt;Node6 -->
<g id="edge7" class="edge">
<title>Node3&#45;&gt;Node6</title>
<path fill="none" stroke="#191970" d="M145.5275,-56.3733C125.9433,-47.3838 96.5039,-33.8706 74.449,-23.7471"/>
<polygon fill="#191970" stroke="#191970" points="75.7473,-20.4919 65.1989,-19.5011 72.8271,-26.8538 75.7473,-20.4919"/>
</g>
<!-- Node7 -->
<g id="node8" class="node">
<title>Node7</title>
<polygon fill="#ffffff" stroke="#bfbfbf" points="107,-.5 107,-19.5 168,-19.5 168,-.5 107,-.5"/>
<text text-anchor="middle" x="137.5" y="-7.5" font-family="Helvetica,sans-Serif" font-size="10.00" fill="#000000">AMReX.H</text>
</g>
<!-- Node3&#45;&gt;Node7 -->
<g id="edge8" class="edge">
<title>Node3&#45;&gt;Node7</title>
<path fill="none" stroke="#191970" d="M161.4486,-56.2455C157.4981,-48.617 151.8903,-37.7881 147.0942,-28.5267"/>
<polygon fill="#191970" stroke="#191970" points="150.2001,-26.9131 142.4935,-19.6427 143.9841,-30.1321 150.2001,-26.9131"/>
</g>
<!-- Node8&#45;&gt;Node1 -->
<g id="edge11" class="edge">
<title>Node8&#45;&gt;Node1</title>
<path fill="none" stroke="#191970" d="M346.3521,-56.2455C336.9913,-48.0549 323.4142,-36.1749 312.3651,-26.5069"/>
<polygon fill="#191970" stroke="#191970" points="314.3508,-23.5937 304.5202,-19.6427 309.7412,-28.8618 314.3508,-23.5937"/>
</g>
<!-- Node8&#45;&gt;Node4 -->
<g id="edge12" class="edge">
<title>Node8&#45;&gt;Node4</title>
<path fill="none" stroke="#191970" d="M362.7256,-56.2455C366.8123,-48.617 372.6135,-37.7881 377.575,-28.5267"/>
<polygon fill="#191970" stroke="#191970" points="380.6972,-30.1103 382.3343,-19.6427 374.5268,-26.8047 380.6972,-30.1103"/>
</g>
<!-- Node9 -->
<g id="node10" class="node">
<title>Node9</title>
<polygon fill="#ffffff" stroke="#bfbfbf" points="1609.5,-.5 1609.5,-19.5 1653.5,-19.5 1653.5,-.5 1609.5,-.5"/>
<text text-anchor="middle" x="1631.5" y="-7.5" font-family="Helvetica,sans-Serif" font-size="10.00" fill="#000000">string</text>
</g>
<!-- Node8&#45;&gt;Node9 -->
<g id="edge10" class="edge">
<title>Node8&#45;&gt;Node9</title>
<path fill="none" stroke="#191970" d="M425.9138,-57.2274C430.5075,-56.7709 435.0683,-56.3551 439.5,-56 898.728,-19.2009 1459.9273,-11.6215 1599.1175,-10.267"/>
<polygon fill="#191970" stroke="#191970" points="1599.1607,-13.7668 1609.1275,-10.1734 1599.0952,-6.7671 1599.1607,-13.7668"/>
</g>
<!-- Node10 -->
<g id="node11" class="node">
<title>Node10</title>
<polygon fill="#ffffff" stroke="#bfbfbf" points="1013.5,-.5 1013.5,-19.5 1109.5,-19.5 1109.5,-.5 1013.5,-.5"/>
<text text-anchor="middle" x="1061.5" y="-7.5" font-family="Helvetica,sans-Serif" font-size="10.00" fill="#000000">AMReX_Vector.H</text>
</g>
<!-- Node8&#45;&gt;Node10 -->
<g id="edge13" class="edge">
<title>Node8&#45;&gt;Node10</title>
<path fill="none" stroke="#191970" d="M425.9299,-57.4082C430.5197,-56.9081 435.0753,-56.4332 439.5,-56 646.4693,-35.7383 892.9706,-19.988 1003.2024,-13.3839"/>
<polygon fill="#191970" stroke="#191970" points="1003.6648,-16.8626 1013.4387,-12.7735 1003.2481,-9.875 1003.6648,-16.8626"/>
</g>
<!-- Node13&#45;&gt;Node10 -->
<g id="edge22" class="edge">
<title>Node13&#45;&gt;Node10</title>
<path fill="none" stroke="#191970" d="M899.52,-117.8315C953.6366,-109.3297 1021.0107,-95.292 1041.5,-76 1054.1423,-64.0965 1058.8793,-44.4973 1060.6105,-29.7426"/>
<polygon fill="#191970" stroke="#191970" points="1064.1122,-29.8612 1061.4296,-19.6116 1057.135,-29.297 1064.1122,-29.8612"/>
</g>
<!-- Node13&#45;&gt;Node12 -->
<g id="edge20" class="edge">
<title>Node13&#45;&gt;Node12</title>
<path fill="none" stroke="#191970" d="M755.2919,-112.4554C705.1999,-101.7214 638.8206,-87.4973 592.7691,-77.6291"/>
<polygon fill="#191970" stroke="#191970" points="593.4862,-74.2034 582.9748,-75.5303 592.0195,-81.048 593.4862,-74.2034"/>
</g>
<!-- Node14 -->
<g id="node15" class="node">
<title>Node14</title>
<polygon fill="#ffffff" stroke="#bfbfbf" points="942,-56.5 942,-75.5 1033,-75.5 1033,-56.5 942,-56.5"/>
<text text-anchor="middle" x="987.5" y="-63.5" font-family="Helvetica,sans-Serif" font-size="10.00" fill="#000000">AMReX_Array.H</text>
</g>
<!-- Node13&#45;&gt;Node14 -->
<g id="edge17" class="edge">
<title>Node13&#45;&gt;Node14</title>
<path fill="none" stroke="#191970" d="M865.1297,-112.4554C892.0412,-102.239 927.2811,-88.8609 953.0294,-79.0861"/>
<polygon fill="#191970" stroke="#191970" points="954.289,-82.3517 962.3957,-75.5303 951.8045,-75.8074 954.289,-82.3517"/>
</g>
<!-- Node15 -->
<g id="node16" class="node">
<title>Node15</title>
<polygon fill="#ffffff" stroke="#bfbfbf" points="613.5,-56.5 613.5,-75.5 711.5,-75.5 711.5,-56.5 613.5,-56.5"/>
<text text-anchor="middle" x="662.5" y="-63.5" font-family="Helvetica,sans-Serif" font-size="10.00" fill="#000000">AMReX_Array4.H</text>
</g>
<!-- Node13&#45;&gt;Node15 -->
<g id="edge18" class="edge">
<title>Node13&#45;&gt;Node15</title>
<path fill="none" stroke="#191970" d="M785.6257,-112.4554C758.548,-102.239 723.0906,-88.8609 697.1834,-79.0861"/>
<polygon fill="#191970" stroke="#191970" points="698.351,-75.7858 687.7592,-75.5303 695.8799,-82.3352 698.351,-75.7858"/>
</g>
<!-- Node16 -->
<g id="node17" class="node">
<title>Node16</title>
<polygon fill="#ffffff" stroke="#bfbfbf" points="730,-56.5 730,-75.5 815,-75.5 815,-56.5 730,-56.5"/>
<text text-anchor="middle" x="772.5" y="-63.5" font-family="Helvetica,sans-Serif" font-size="10.00" fill="#000000">AMReX_Box.H</text>
</g>
<!-- Node13&#45;&gt;Node16 -->
<g id="edge19" class="edge">
<title>Node13&#45;&gt;Node16</title>
<path fill="none" stroke="#191970" d="M812.3989,-112.2977C804.8887,-103.5831 795.43,-92.6075 787.6073,-83.5302"/>
<polygon fill="#191970" stroke="#191970" points="790.1655,-81.1372 780.986,-75.8469 784.8629,-85.707 790.1655,-81.1372"/>
</g>
<!-- Node17 -->
<g id="node18" class="node">
<title>Node17</title>
<polygon fill="#ffffff" stroke="#bfbfbf" points="833,-56.5 833,-75.5 924,-75.5 924,-56.5 833,-56.5"/>
<text text-anchor="middle" x="878.5" y="-63.5" font-family="Helvetica,sans-Serif" font-size="10.00" fill="#000000">AMReX_REAL.H</text>
</g>
<!-- Node13&#45;&gt;Node17 -->
<g id="edge21" class="edge">
<title>Node13&#45;&gt;Node17</title>
<path fill="none" stroke="#191970" d="M838.6011,-112.2977C846.1113,-103.5831 855.57,-92.6075 863.3927,-83.5302"/>
<polygon fill="#191970" stroke="#191970" points="866.1371,-85.707 870.014,-75.8469 860.8345,-81.1372 866.1371,-85.707"/>
</g>
<!-- Node18 -->
<g id="node19" class="node">
<title>Node18</title>
<polygon fill="#ffffff" stroke="#bfbfbf" points="1089.5,-56.5 1089.5,-75.5 1175.5,-75.5 1175.5,-56.5 1089.5,-56.5"/>
<text text-anchor="middle" x="1132.5" y="-63.5" font-family="Helvetica,sans-Serif" font-size="10.00" fill="#000000">AMReX_Gpu.H</text>
</g>
<!-- Node13&#45;&gt;Node18 -->
<g id="edge23" class="edge">
<title>Node13&#45;&gt;Node18</title>
<path fill="none" stroke="#191970" d="M899.8161,-112.6126C955.2663,-101.5045 1029.7005,-86.5934 1079.2938,-76.6586"/>
<polygon fill="#191970" stroke="#191970" points="1080.058,-80.0751 1089.1757,-74.679 1078.683,-73.2115 1080.058,-80.0751"/>
</g>
<!-- Node19&#45;&gt;Node1 -->
<g id="edge26" class="edge">
<title>Node19&#45;&gt;Node1</title>
<path fill="none" stroke="#191970" d="M1353.4278,-117.9496C1315.738,-109.4343 1262.004,-95.3214 1217.5,-76 1201.7686,-69.1702 1200.9165,-60.9619 1184.5,-56 1005.905,-2.0193 535.081,-46.7664 332.8382,-19.812"/>
<polygon fill="#191970" stroke="#191970" points="333.2218,-16.3313 322.8279,-18.3847 332.2337,-23.2612 333.2218,-16.3313"/>
</g>
<!-- Node19&#45;&gt;Node4 -->
<g id="edge27" class="edge">
<title>Node19&#45;&gt;Node4</title>
<path fill="none" stroke="#191970" d="M1372.3453,-117.9146C1343.8848,-108.0452 1298.763,-91.904 1260.5,-76 1241.0371,-67.9103 1237.9459,-61.1197 1217.5,-56 1070.58,-19.2106 606.6352,-11.8256 444.2782,-10.3588"/>
<polygon fill="#191970" stroke="#191970" points="444.0566,-6.8569 434.0267,-10.2705 443.9962,-13.8566 444.0566,-6.8569"/>
</g>
<!-- Node19&#45;&gt;Node9 -->
<g id="edge25" class="edge">
<title>Node19&#45;&gt;Node9</title>
<path fill="none" stroke="#191970" d="M1461.5433,-120.1923C1517.5761,-112.2383 1595.0451,-97.6831 1616.5,-76 1628.4866,-63.8859 1631.706,-44.3148 1632.2448,-29.624"/>
<polygon fill="#191970" stroke="#191970" points="1635.7448,-29.542 1632.2351,-19.5454 1628.7448,-29.5488 1635.7448,-29.542"/>
</g>
<!-- Node19&#45;&gt;Node11 -->
<g id="edge29" class="edge">
<title>Node19&#45;&gt;Node11</title>
<path fill="none" stroke="#191970" d="M1461.8845,-124.3581C1572.3315,-118.0729 1795.2799,-102.2565 1818.5,-76 1838.3758,-53.5251 1802.132,-34.5312 1769.2445,-22.7727"/>
<polygon fill="#191970" stroke="#191970" points="1770.2552,-19.4195 1759.6607,-19.5057 1767.9965,-26.0451 1770.2552,-19.4195"/>
</g>
<!-- Node19&#45;&gt;Node18 -->
<g id="edge31" class="edge">
<title>Node19&#45;&gt;Node18</title>
<path fill="none" stroke="#191970" d="M1358.919,-117.9581C1311.7795,-107.1406 1234.8887,-89.4959 1183.9943,-77.8168"/>
<polygon fill="#191970" stroke="#191970" points="1184.708,-74.3897 1174.1785,-75.5643 1183.1423,-81.2123 1184.708,-74.3897"/>
</g>
<!-- Node20 -->
<g id="node21" class="node">
<title>Node20</title>
<polygon fill="#ffffff" stroke="#bfbfbf" points="1269.5,-56.5 1269.5,-75.5 1333.5,-75.5 1333.5,-56.5 1269.5,-56.5"/>
<text text-anchor="middle" x="1301.5" y="-63.5" font-family="Helvetica,sans-Serif" font-size="10.00" fill="#000000">algorithm</text>
</g>
<!-- Node19&#45;&gt;Node20 -->
<g id="edge28" class="edge">
<title>Node19&#45;&gt;Node20</title>
<path fill="none" stroke="#191970" d="M1385.0313,-117.8906C1369.0479,-107.9616 1343.8897,-92.333 1325.3567,-80.8201"/>
<polygon fill="#191970" stroke="#191970" points="1327.2015,-77.8457 1316.8601,-75.5419 1323.5076,-83.7918 1327.2015,-77.8457"/>
</g>
<!-- Node21 -->
<g id="node22" class="node">
<title>Node21</title>
<polygon fill="#ffffff" stroke="#bfbfbf" points="1352,-56.5 1352,-75.5 1449,-75.5 1449,-56.5 1352,-56.5"/>
<text text-anchor="middle" x="1400.5" y="-63.5" font-family="Helvetica,sans-Serif" font-size="10.00" fill="#000000">AMReX_BCRec.H</text>
</g>
<!-- Node19&#45;&gt;Node21 -->
<g id="edge30" class="edge">
<title>Node19&#45;&gt;Node21</title>
<path fill="none" stroke="#191970" d="M1400.5,-117.8906C1400.5,-109.3657 1400.5,-96.6392 1400.5,-85.9235"/>
<polygon fill="#191970" stroke="#191970" points="1404.0001,-85.7448 1400.5,-75.7449 1397.0001,-85.7449 1404.0001,-85.7448"/>
</g>
<!-- Node22 -->
<g id="node23" class="node">
<title>Node22</title>
<g id="a_node23"><a xlink:href="incflo__enums_8_h.html" target="_top" xlink:title="amr&#45;wind/incflo_enums.H">
<polygon fill="#ffffff" stroke="#000000" points="1467.5,-56.5 1467.5,-75.5 1607.5,-75.5 1607.5,-56.5 1467.5,-56.5"/>
<text text-anchor="middle" x="1537.5" y="-63.5" font-family="Helvetica,sans-Serif" font-size="10.00" fill="#000000">amr&#45;wind/incflo_enums.H</text>
</a>
</g>
</g>
<!-- Node19&#45;&gt;Node22 -->
<g id="edge32" class="edge">
<title>Node19&#45;&gt;Node22</title>
<path fill="none" stroke="#191970" d="M1421.9063,-117.8906C1444.7283,-107.6457 1481.0679,-91.3326 1506.9057,-79.7339"/>
<polygon fill="#191970" stroke="#191970" points="1508.5545,-82.8303 1516.2441,-75.5419 1505.6877,-76.4443 1508.5545,-82.8303"/>
</g>
<!-- Node23 -->
<g id="node24" class="node">
<title>Node23</title>
<g id="a_node24"><a xlink:href="_field_desc_types_8_h.html" target="_top" xlink:title="amr&#45;wind/core/FieldDescTypes.H">
<polygon fill="#ffffff" stroke="#000000" points="1797.5,-.5 1797.5,-19.5 1971.5,-19.5 1971.5,-.5 1797.5,-.5"/>
<text text-anchor="middle" x="1884.5" y="-7.5" font-family="Helvetica,sans-Serif" font-size="10.00" fill="#000000">amr&#45;wind/core/FieldDescTypes.H</text>
</a>
</g>
</g>
<!-- Node19&#45;&gt;Node23 -->
<g id="edge33" class="edge">
<title>Node19&#45;&gt;Node23</title>
<path fill="none" stroke="#191970" d="M1461.513,-126.1655C1565.8483,-122.9248 1773.313,-112.0201 1835.5,-76 1854.1393,-65.2037 1867.8329,-44.195 1875.9333,-28.7694"/>
<polygon fill="#191970" stroke="#191970" points="1879.1694,-30.1201 1880.4444,-19.6022 1872.8886,-27.0293 1879.1694,-30.1201"/>
</g>
<!-- Node24 -->
<g id="node25" class="node">
<title>Node24</title>
<g id="a_node25"><a xlink:href="_view_field_8_h.html" target="_top" xlink:title="amr&#45;wind/core/ViewField.H">
<polygon fill="#ffffff" stroke="#000000" points="1663.5,-56.5 1663.5,-75.5 1809.5,-75.5 1809.5,-56.5 1663.5,-56.5"/>
<text text-anchor="middle" x="1736.5" y="-63.5" font-family="Helvetica,sans-Serif" font-size="10.00" fill="#000000">amr&#45;wind/core/ViewField.H</text>
</a>
</g>
</g>
<!-- Node19&#45;&gt;Node24 -->
<g id="edge34" class="edge">
<title>Node19&#45;&gt;Node24</title>
<path fill="none" stroke="#191970" d="M1452.6313,-117.9581C1512.5579,-106.9894 1610.8347,-89.0012 1674.5969,-77.3305"/>
<polygon fill="#191970" stroke="#191970" points="1675.3164,-80.757 1684.5228,-75.5137 1674.0561,-73.8714 1675.3164,-80.757"/>
</g>
<!-- Node24&#45;&gt;Node9 -->
<g id="edge35" class="edge">
<title>Node24&#45;&gt;Node9</title>
<path fill="none" stroke="#191970" d="M1718.2104,-56.2455C1701.7238,-47.4527 1677.2648,-34.4079 1658.5235,-24.4125"/>
<polygon fill="#191970" stroke="#191970" points="1660.0506,-21.2604 1649.58,-19.6427 1656.7565,-27.4368 1660.0506,-21.2604"/>
</g>
<!-- Node24&#45;&gt;Node10 -->
<g id="edge38" class="edge">
<title>Node24&#45;&gt;Node10</title>
<path fill="none" stroke="#191970" d="M1663.204,-59.8868C1647.7781,-58.6016 1631.6044,-57.2553 1616.5,-56 1435.3171,-40.9422 1220.8571,-23.1863 1119.7635,-14.8204"/>
<polygon fill="#191970" stroke="#191970" points="1120.0094,-11.3289 1109.7548,-13.9922 1119.4321,-18.3051 1120.0094,-11.3289"/>
</g>
<!-- Node24&#45;&gt;Node11 -->
<g id="edge37" class="edge">
<title>Node24&#45;&gt;Node11</title>
<path fill="none" stroke="#191970" d="M1734.5839,-56.2455C1733.1486,-48.9382 1731.1364,-38.6944 1729.3705,-29.7046"/>
<polygon fill="#191970" stroke="#191970" points="1732.756,-28.7805 1727.3941,-19.6427 1725.8873,-30.1298 1732.756,-28.7805"/>
</g>
<!-- Node24&#45;&gt;Node23 -->
<g id="edge36" class="edge">
<title>Node24&#45;&gt;Node23</title>
<path fill="none" stroke="#191970" d="M1761.9421,-56.3733C1786.2326,-47.1822 1823.0208,-33.2624 1849.9543,-23.0713"/>
<polygon fill="#191970" stroke="#191970" points="1851.2757,-26.3136 1859.3899,-19.5011 1848.7984,-19.7666 1851.2757,-26.3136"/>
</g>
</g>
</svg>
