<?xml version="1.0" encoding="UTF-8" standalone="no"?>
<!DOCTYPE svg PUBLIC "-//W3C//DTD SVG 1.1//EN"
 "http://www.w3.org/Graphics/SVG/1.1/DTD/svg11.dtd">
<!-- Generated by graphviz version 2.40.1 (20161225.0304)
 -->
<!-- Title: RayleighTaylorFieldInit.H Pages: 1 -->
<svg width="310pt" height="140pt"
 viewBox="0.00 0.00 309.50 140.00" xmlns="http://www.w3.org/2000/svg" xmlns:xlink="http://www.w3.org/1999/xlink">
<g id="graph0" class="graph" transform="scale(1 1) rotate(0) translate(4 136)">
<title>RayleighTaylorFieldInit.H</title>
<polygon fill="#ffffff" stroke="transparent" points="-4,4 -4,-136 305.5,-136 305.5,4 -4,4"/>
<!-- Node8 -->
<g id="node1" class="node">
<title>Node8</title>
<polygon fill="#bfbfbf" stroke="#000000" points="57.5,-112.5 57.5,-131.5 194.5,-131.5 194.5,-112.5 57.5,-112.5"/>
<text text-anchor="middle" x="126" y="-119.5" font-family="Helvetica,sans-Serif" font-size="10.00" fill="#000000">RayleighTaylorFieldInit.H</text>
</g>
<!-- Node9 -->
<g id="node2" class="node">
<title>Node9</title>
<g id="a_node2"><a xlink:href="_rayleigh_taylor_8_h.html" target="_top" xlink:title="RayleighTaylor.H">
<polygon fill="#ffffff" stroke="#000000" points="0,-56.5 0,-75.5 98,-75.5 98,-56.5 0,-56.5"/>
<text text-anchor="middle" x="49" y="-63.5" font-family="Helvetica,sans-Serif" font-size="10.00" fill="#000000">RayleighTaylor.H</text>
</a>
</g>
</g>
<!-- Node8&#45;&gt;Node9 -->
<g id="edge1" class="edge">
<title>Node8&#45;&gt;Node9</title>
<path fill="none" stroke="#191970" d="M104.2884,-106.2097C90.7647,-96.3743 73.8042,-84.0394 62.2587,-75.6427"/>
<polygon fill="#191970" stroke="#191970" points="102.4416,-109.1944 112.5876,-112.2455 106.5589,-103.5332 102.4416,-109.1944"/>
</g>
<!-- Node10 -->
<g id="node3" class="node">
<title>Node10</title>
<g id="a_node3"><a xlink:href="_rayleigh_taylor_8cpp.html" target="_top" xlink:title="RayleighTaylor.cpp">
<polygon fill="#ffffff" stroke="#000000" points="33,-.5 33,-19.5 141,-19.5 141,-.5 33,-.5"/>
<text text-anchor="middle" x="87" y="-7.5" font-family="Helvetica,sans-Serif" font-size="10.00" fill="#000000">RayleighTaylor.cpp</text>
</a>
</g>
</g>
<!-- Node8&#45;&gt;Node10 -->
<g id="edge3" class="edge">
<title>Node8&#45;&gt;Node10</title>
<path fill="none" stroke="#191970" d="M121.122,-102.5841C117.6175,-89.3229 112.5481,-71.4278 107,-56 102.4029,-43.2165 95.9818,-28.9314 91.6667,-19.7217"/>
<polygon fill="#191970" stroke="#191970" points="117.7871,-103.6688 123.6738,-112.4778 124.5653,-101.9206 117.7871,-103.6688"/>
</g>
<!-- Node11 -->
<g id="node4" class="node">
<title>Node11</title>
<g id="a_node4"><a xlink:href="_rayleigh_taylor_field_init_8cpp.html" target="_top" xlink:title="RayleighTaylorFieldInit.cpp">
<polygon fill="#ffffff" stroke="#000000" points="154.5,-56.5 154.5,-75.5 301.5,-75.5 301.5,-56.5 154.5,-56.5"/>
<text text-anchor="middle" x="228" y="-63.5" font-family="Helvetica,sans-Serif" font-size="10.00" fill="#000000">RayleighTaylorFieldInit.cpp</text>
</a>
</g>
</g>
<!-- Node8&#45;&gt;Node11 -->
<g id="edge4" class="edge">
<title>Node8&#45;&gt;Node11</title>
<path fill="none" stroke="#191970" d="M152.734,-107.3225C170.9532,-97.3198 194.5598,-84.3593 210.4366,-75.6427"/>
<polygon fill="#191970" stroke="#191970" points="150.8484,-104.3649 143.767,-112.2455 154.2173,-110.5009 150.8484,-104.3649"/>
</g>
<!-- Node9&#45;&gt;Node10 -->
<g id="edge2" class="edge">
<title>Node9&#45;&gt;Node10</title>
<path fill="none" stroke="#191970" d="M61.2679,-47.9209C67.6488,-38.5176 75.1931,-27.3997 80.4568,-19.6427"/>
<polygon fill="#191970" stroke="#191970" points="58.338,-46.0055 55.6191,-56.2455 64.1303,-49.936 58.338,-46.0055"/>
</g>
</g>
</svg>
