<?xml version="1.0" encoding="UTF-8" standalone="no"?>
<!DOCTYPE svg PUBLIC "-//W3C//DTD SVG 1.1//EN"
 "http://www.w3.org/Graphics/SVG/1.1/DTD/svg11.dtd">
<!-- Generated by graphviz version 2.40.1 (20161225.0304)
 -->
<!-- Title: ReAveraging.H Pages: 1 -->
<svg width="443pt" height="274pt"
 viewBox="0.00 0.00 442.50 274.00" xmlns="http://www.w3.org/2000/svg" xmlns:xlink="http://www.w3.org/1999/xlink">
<g id="graph0" class="graph" transform="scale(1 1) rotate(0) translate(4 270)">
<title>ReAveraging.H</title>
<polygon fill="#ffffff" stroke="transparent" points="-4,4 -4,-270 438.5,-270 438.5,4 -4,4"/>
<!-- Node0 -->
<g id="node1" class="node">
<title>Node0</title>
<polygon fill="#bfbfbf" stroke="#000000" points="183,-246.5 183,-265.5 271,-265.5 271,-246.5 183,-246.5"/>
<text text-anchor="middle" x="227" y="-253.5" font-family="Helvetica,sans-Serif" font-size="10.00" fill="#000000">ReAveraging.H</text>
</g>
<!-- Node1 -->
<g id="node2" class="node">
<title>Node1</title>
<g id="a_node2"><a xlink:href="_time_averaging_8_h.html" target="_top" xlink:title="amr&#45;wind/utilities\l/averaging/TimeAveraging.H">
<polygon fill="#ffffff" stroke="#000000" points="149.5,-179.5 149.5,-209.5 304.5,-209.5 304.5,-179.5 149.5,-179.5"/>
<text text-anchor="start" x="157.5" y="-197.5" font-family="Helvetica,sans-Serif" font-size="10.00" fill="#000000">amr&#45;wind/utilities</text>
<text text-anchor="middle" x="227" y="-186.5" font-family="Helvetica,sans-Serif" font-size="10.00" fill="#000000">/averaging/TimeAveraging.H</text>
</a>
</g>
</g>
<!-- Node0&#45;&gt;Node1 -->
<g id="edge1" class="edge">
<title>Node0&#45;&gt;Node1</title>
<path fill="none" stroke="#191970" d="M227,-246.3906C227,-239.2234 227,-229.0862 227,-219.671"/>
<polygon fill="#191970" stroke="#191970" points="230.5001,-219.5446 227,-209.5446 223.5001,-219.5446 230.5001,-219.5446"/>
</g>
<!-- Node2 -->
<g id="node3" class="node">
<title>Node2</title>
<g id="a_node3"><a xlink:href="_factory_8_h.html" target="_top" xlink:title="amr&#45;wind/core/Factory.H">
<polygon fill="#ffffff" stroke="#000000" points="122,-56.5 122,-75.5 256,-75.5 256,-56.5 122,-56.5"/>
<text text-anchor="middle" x="189" y="-63.5" font-family="Helvetica,sans-Serif" font-size="10.00" fill="#000000">amr&#45;wind/core/Factory.H</text>
</a>
</g>
</g>
<!-- Node1&#45;&gt;Node2 -->
<g id="edge2" class="edge">
<title>Node1&#45;&gt;Node2</title>
<path fill="none" stroke="#191970" d="M220.8953,-179.3287C216.9262,-169.1511 211.8015,-155.3908 208,-143 202.0855,-123.7217 196.7199,-101.3005 193.2108,-85.6418"/>
<polygon fill="#191970" stroke="#191970" points="196.5643,-84.5942 191.0025,-75.5766 189.7269,-86.0944 196.5643,-84.5942"/>
</g>
<!-- Node3 -->
<g id="node4" class="node">
<title>Node3</title>
<polygon fill="#ffffff" stroke="#bfbfbf" points="0,-.5 0,-19.5 58,-19.5 58,-.5 0,-.5"/>
<text text-anchor="middle" x="29" y="-7.5" font-family="Helvetica,sans-Serif" font-size="10.00" fill="#000000">memory</text>
</g>
<!-- Node1&#45;&gt;Node3 -->
<g id="edge12" class="edge">
<title>Node1&#45;&gt;Node3</title>
<path fill="none" stroke="#191970" d="M149.1436,-180.7712C107.3915,-171.7862 61.7476,-158.7928 48,-143 20.4195,-111.3164 22.2412,-58.3894 25.7463,-29.7883"/>
<polygon fill="#191970" stroke="#191970" points="29.2251,-30.1838 27.1663,-19.791 22.2947,-29.1994 29.2251,-30.1838"/>
</g>
<!-- Node8 -->
<g id="node9" class="node">
<title>Node8</title>
<g id="a_node9"><a xlink:href="_post_processing_8_h.html" target="_top" xlink:title="amr&#45;wind/utilities\l/PostProcessing.H">
<polygon fill="#ffffff" stroke="#000000" points="57,-112.5 57,-142.5 161,-142.5 161,-112.5 57,-112.5"/>
<text text-anchor="start" x="65" y="-130.5" font-family="Helvetica,sans-Serif" font-size="10.00" fill="#000000">amr&#45;wind/utilities</text>
<text text-anchor="middle" x="109" y="-119.5" font-family="Helvetica,sans-Serif" font-size="10.00" fill="#000000">/PostProcessing.H</text>
</a>
</g>
</g>
<!-- Node1&#45;&gt;Node8 -->
<g id="edge8" class="edge">
<title>Node1&#45;&gt;Node8</title>
<path fill="none" stroke="#191970" d="M200.5185,-179.4639C184.0852,-170.1332 162.7573,-158.0232 144.8253,-147.8415"/>
<polygon fill="#191970" stroke="#191970" points="146.2256,-144.6117 135.8014,-142.7177 142.7692,-150.699 146.2256,-144.6117"/>
</g>
<!-- Node9 -->
<g id="node10" class="node">
<title>Node9</title>
<polygon fill="#ffffff" stroke="#bfbfbf" points="217,-118 217,-137 313,-137 313,-118 217,-118"/>
<text text-anchor="middle" x="265" y="-125" font-family="Helvetica,sans-Serif" font-size="10.00" fill="#000000">AMReX_Vector.H</text>
</g>
<!-- Node1&#45;&gt;Node9 -->
<g id="edge11" class="edge">
<title>Node1&#45;&gt;Node9</title>
<path fill="none" stroke="#191970" d="M235.6228,-179.2967C241.256,-169.3645 248.6447,-156.3371 254.6027,-145.8321"/>
<polygon fill="#191970" stroke="#191970" points="257.6917,-147.4801 259.5808,-137.055 251.6029,-144.0266 257.6917,-147.4801"/>
</g>
<!-- Node10 -->
<g id="node11" class="node">
<title>Node10</title>
<polygon fill="#ffffff" stroke="#bfbfbf" points="331,-118 331,-137 375,-137 375,-118 331,-118"/>
<text text-anchor="middle" x="353" y="-125" font-family="Helvetica,sans-Serif" font-size="10.00" fill="#000000">string</text>
</g>
<!-- Node1&#45;&gt;Node10 -->
<g id="edge13" class="edge">
<title>Node1&#45;&gt;Node10</title>
<path fill="none" stroke="#191970" d="M255.2769,-179.4639C276.418,-168.2222 305.1458,-152.9463 325.9784,-141.8686"/>
<polygon fill="#191970" stroke="#191970" points="327.7528,-144.8892 334.9389,-137.1039 324.4663,-138.7087 327.7528,-144.8892"/>
</g>
<!-- Node11 -->
<g id="node12" class="node">
<title>Node11</title>
<polygon fill="#ffffff" stroke="#bfbfbf" points="393,-118 393,-137 431,-137 431,-118 393,-118"/>
<text text-anchor="middle" x="412" y="-125" font-family="Helvetica,sans-Serif" font-size="10.00" fill="#000000">map</text>
</g>
<!-- Node1&#45;&gt;Node11 -->
<g id="edge14" class="edge">
<title>Node1&#45;&gt;Node11</title>
<path fill="none" stroke="#191970" d="M281.3454,-179.4341C312.013,-170.252 350.7383,-157.507 384,-143 384.9931,-142.5669 385.9974,-142.1098 387.0054,-141.6349"/>
<polygon fill="#191970" stroke="#191970" points="388.6662,-144.7167 395.9757,-137.0472 385.4788,-138.4845 388.6662,-144.7167"/>
</g>
<!-- Node2&#45;&gt;Node3 -->
<g id="edge3" class="edge">
<title>Node2&#45;&gt;Node3</title>
<path fill="none" stroke="#191970" d="M161.495,-56.3733C135.1198,-47.1419 95.1149,-33.1402 65.9642,-22.9375"/>
<polygon fill="#191970" stroke="#191970" points="66.7409,-19.5012 56.1461,-19.5011 64.4284,-26.1082 66.7409,-19.5012"/>
</g>
<!-- Node4 -->
<g id="node5" class="node">
<title>Node4</title>
<polygon fill="#ffffff" stroke="#bfbfbf" points="76.5,-.5 76.5,-19.5 169.5,-19.5 169.5,-.5 76.5,-.5"/>
<text text-anchor="middle" x="123" y="-7.5" font-family="Helvetica,sans-Serif" font-size="10.00" fill="#000000">unordered_map</text>
</g>
<!-- Node2&#45;&gt;Node4 -->
<g id="edge4" class="edge">
<title>Node2&#45;&gt;Node4</title>
<path fill="none" stroke="#191970" d="M177.5037,-56.2455C167.7558,-47.9746 153.5741,-35.9416 142.1202,-26.2232"/>
<polygon fill="#191970" stroke="#191970" points="144.2541,-23.4437 134.3646,-19.6427 139.7253,-28.7813 144.2541,-23.4437"/>
</g>
<!-- Node5 -->
<g id="node6" class="node">
<title>Node5</title>
<polygon fill="#ffffff" stroke="#bfbfbf" points="188,-.5 188,-19.5 248,-19.5 248,-.5 188,-.5"/>
<text text-anchor="middle" x="218" y="-7.5" font-family="Helvetica,sans-Serif" font-size="10.00" fill="#000000">iostream</text>
</g>
<!-- Node2&#45;&gt;Node5 -->
<g id="edge5" class="edge">
<title>Node2&#45;&gt;Node5</title>
<path fill="none" stroke="#191970" d="M194.0514,-56.2455C198.0019,-48.617 203.6097,-37.7881 208.4058,-28.5267"/>
<polygon fill="#191970" stroke="#191970" points="211.5159,-30.1321 213.0065,-19.6427 205.2999,-26.9131 211.5159,-30.1321"/>
</g>
<!-- Node6 -->
<g id="node7" class="node">
<title>Node6</title>
<polygon fill="#ffffff" stroke="#bfbfbf" points="266.5,-.5 266.5,-19.5 355.5,-19.5 355.5,-.5 266.5,-.5"/>
<text text-anchor="middle" x="311" y="-7.5" font-family="Helvetica,sans-Serif" font-size="10.00" fill="#000000">AMReX_Print.H</text>
</g>
<!-- Node2&#45;&gt;Node6 -->
<g id="edge6" class="edge">
<title>Node2&#45;&gt;Node6</title>
<path fill="none" stroke="#191970" d="M209.9725,-56.3733C229.5567,-47.3838 258.9961,-33.8706 281.051,-23.7471"/>
<polygon fill="#191970" stroke="#191970" points="282.6729,-26.8538 290.3011,-19.5011 279.7527,-20.4919 282.6729,-26.8538"/>
</g>
<!-- Node7 -->
<g id="node8" class="node">
<title>Node7</title>
<polygon fill="#ffffff" stroke="#bfbfbf" points="373.5,-.5 373.5,-19.5 434.5,-19.5 434.5,-.5 373.5,-.5"/>
<text text-anchor="middle" x="404" y="-7.5" font-family="Helvetica,sans-Serif" font-size="10.00" fill="#000000">AMReX.H</text>
</g>
<!-- Node2&#45;&gt;Node7 -->
<g id="edge7" class="edge">
<title>Node2&#45;&gt;Node7</title>
<path fill="none" stroke="#191970" d="M225.9598,-56.3733C264.2851,-46.3909 324.0269,-30.8302 363.5831,-20.5272"/>
<polygon fill="#191970" stroke="#191970" points="364.6318,-23.8709 373.4267,-17.9633 362.8674,-17.0969 364.6318,-23.8709"/>
</g>
<!-- Node8&#45;&gt;Node2 -->
<g id="edge10" class="edge">
<title>Node8&#45;&gt;Node2</title>
<path fill="none" stroke="#191970" d="M128.7753,-112.2977C140.6898,-103.1384 155.8532,-91.4816 167.9838,-82.1562"/>
<polygon fill="#191970" stroke="#191970" points="170.396,-84.7165 176.191,-75.8469 166.1297,-79.1668 170.396,-84.7165"/>
</g>
<!-- Node8&#45;&gt;Node3 -->
<g id="edge9" class="edge">
<title>Node8&#45;&gt;Node3</title>
<path fill="none" stroke="#191970" d="M98.5414,-112.1389C83.8004,-90.4881 56.9656,-51.0745 41.291,-28.0525"/>
<polygon fill="#191970" stroke="#191970" points="44.0296,-25.8557 35.5086,-19.5595 38.2434,-29.7953 44.0296,-25.8557"/>
</g>
</g>
</svg>
