<?xml version="1.0" encoding="UTF-8" standalone="no"?>
<!DOCTYPE svg PUBLIC "-//W3C//DTD SVG 1.1//EN"
 "http://www.w3.org/Graphics/SVG/1.1/DTD/svg11.dtd">
<!-- Generated by graphviz version 2.40.1 (20161225.0304)
 -->
<!-- Title: ReAveraging.cpp Pages: 1 -->
<svg width="2832pt" height="352pt"
 viewBox="0.00 0.00 2832.46 352.00" xmlns="http://www.w3.org/2000/svg" xmlns:xlink="http://www.w3.org/1999/xlink">
<g id="graph0" class="graph" transform="scale(1 1) rotate(0) translate(4 348)">
<title>ReAveraging.cpp</title>
<polygon fill="#ffffff" stroke="transparent" points="-4,4 -4,-348 2828.4596,-348 2828.4596,4 -4,4"/>
<!-- Node0 -->
<g id="node1" class="node">
<title>Node0</title>
<polygon fill="#bfbfbf" stroke="#000000" points="1234,-324.5 1234,-343.5 1332,-343.5 1332,-324.5 1234,-324.5"/>
<text text-anchor="middle" x="1283" y="-331.5" font-family="Helvetica,sans-Serif" font-size="10.00" fill="#000000">ReAveraging.cpp</text>
</g>
<!-- Node1 -->
<g id="node2" class="node">
<title>Node1</title>
<g id="a_node2"><a xlink:href="_re_averaging_8_h.html" target="_top" xlink:title="amr&#45;wind/utilities\l/averaging/ReAveraging.H">
<polygon fill="#ffffff" stroke="#000000" points="768.5,-257.5 768.5,-287.5 911.5,-287.5 911.5,-257.5 768.5,-257.5"/>
<text text-anchor="start" x="776.5" y="-275.5" font-family="Helvetica,sans-Serif" font-size="10.00" fill="#000000">amr&#45;wind/utilities</text>
<text text-anchor="middle" x="840" y="-264.5" font-family="Helvetica,sans-Serif" font-size="10.00" fill="#000000">/averaging/ReAveraging.H</text>
</a>
</g>
</g>
<!-- Node0&#45;&gt;Node1 -->
<g id="edge1" class="edge">
<title>Node0&#45;&gt;Node1</title>
<path fill="none" stroke="#191970" d="M1233.8986,-327.1834C1158.4444,-316.7084 1013.1393,-296.5363 921.6659,-283.8374"/>
<polygon fill="#191970" stroke="#191970" points="921.9984,-280.35 911.6121,-282.4416 921.0358,-287.2836 921.9984,-280.35"/>
</g>
<!-- Node13 -->
<g id="node14" class="node">
<title>Node13</title>
<g id="a_node14"><a xlink:href="_c_f_d_sim_8_h.html" target="_top" xlink:title="amr&#45;wind/CFDSim.H">
<polygon fill="#ffffff" stroke="#000000" points="1226,-263 1226,-282 1340,-282 1340,-263 1226,-263"/>
<text text-anchor="middle" x="1283" y="-270" font-family="Helvetica,sans-Serif" font-size="10.00" fill="#000000">amr&#45;wind/CFDSim.H</text>
</a>
</g>
</g>
<!-- Node0&#45;&gt;Node13 -->
<g id="edge16" class="edge">
<title>Node0&#45;&gt;Node13</title>
<path fill="none" stroke="#191970" d="M1283,-324.3906C1283,-315.8657 1283,-303.1392 1283,-292.4235"/>
<polygon fill="#191970" stroke="#191970" points="1286.5001,-292.2448 1283,-282.2449 1279.5001,-292.2449 1286.5001,-292.2448"/>
</g>
<!-- Node19 -->
<g id="node20" class="node">
<title>Node19</title>
<g id="a_node20"><a xlink:href="_field_repo_8_h.html" target="_top" xlink:title="amr&#45;wind/core/FieldRepo.H">
<polygon fill="#ffffff" stroke="#000000" points="1940,-196 1940,-215 2086,-215 2086,-196 1940,-196"/>
<text text-anchor="middle" x="2013" y="-203" font-family="Helvetica,sans-Serif" font-size="10.00" fill="#000000">amr&#45;wind/core/FieldRepo.H</text>
</a>
</g>
</g>
<!-- Node0&#45;&gt;Node19 -->
<g id="edge77" class="edge">
<title>Node0&#45;&gt;Node19</title>
<path fill="none" stroke="#191970" d="M1332.0309,-325.3692C1460.183,-302.8109 1805.1165,-242.0932 1948.8043,-216.8002"/>
<polygon fill="#191970" stroke="#191970" points="1949.5545,-220.222 1958.7963,-215.0413 1948.3409,-213.328 1949.5545,-220.222"/>
</g>
<!-- Node24 -->
<g id="node25" class="node">
<title>Node24</title>
<g id="a_node25"><a xlink:href="_field_8_h.html" target="_top" xlink:title="amr&#45;wind/core/Field.H">
<polygon fill="#ffffff" stroke="#000000" points="1596,-129 1596,-148 1718,-148 1718,-129 1596,-129"/>
<text text-anchor="middle" x="1657" y="-136" font-family="Helvetica,sans-Serif" font-size="10.00" fill="#000000">amr&#45;wind/core/Field.H</text>
</a>
</g>
</g>
<!-- Node0&#45;&gt;Node24 -->
<g id="edge76" class="edge">
<title>Node0&#45;&gt;Node24</title>
<path fill="none" stroke="#191970" d="M1301.292,-324.4383C1362.0654,-292.6704 1557.477,-190.5234 1629.7732,-152.7322"/>
<polygon fill="#191970" stroke="#191970" points="1631.5024,-155.7777 1638.7432,-148.0433 1628.2596,-149.5741 1631.5024,-155.7777"/>
</g>
<!-- Node40 -->
<g id="node41" class="node">
<title>Node40</title>
<g id="a_node41"><a xlink:href="_i_o_manager_8_h.html" target="_top" xlink:title="amr&#45;wind/utilities\l/IOManager.H">
<polygon fill="#ffffff" stroke="#000000" points="235,-56.5 235,-86.5 337,-86.5 337,-56.5 235,-56.5"/>
<text text-anchor="start" x="243" y="-74.5" font-family="Helvetica,sans-Serif" font-size="10.00" fill="#000000">amr&#45;wind/utilities</text>
<text text-anchor="middle" x="286" y="-63.5" font-family="Helvetica,sans-Serif" font-size="10.00" fill="#000000">/IOManager.H</text>
</a>
</g>
</g>
<!-- Node0&#45;&gt;Node40 -->
<g id="edge78" class="edge">
<title>Node0&#45;&gt;Node40</title>
<path fill="none" stroke="#191970" d="M1233.7645,-333.1273C1103.6999,-329.5838 741.4243,-311.6578 457,-221 383.9373,-197.7119 344.9084,-214.6638 298,-154 285.5357,-137.8807 283.1513,-114.5407 283.5298,-96.7965"/>
<polygon fill="#191970" stroke="#191970" points="287.0366,-96.7531 284.0571,-86.5859 280.0459,-96.392 287.0366,-96.7531"/>
</g>
<!-- Node2 -->
<g id="node3" class="node">
<title>Node2</title>
<g id="a_node3"><a xlink:href="_time_averaging_8_h.html" target="_top" xlink:title="amr&#45;wind/utilities\l/averaging/TimeAveraging.H">
<polygon fill="#ffffff" stroke="#000000" points="466.5,-190.5 466.5,-220.5 621.5,-220.5 621.5,-190.5 466.5,-190.5"/>
<text text-anchor="start" x="474.5" y="-208.5" font-family="Helvetica,sans-Serif" font-size="10.00" fill="#000000">amr&#45;wind/utilities</text>
<text text-anchor="middle" x="544" y="-197.5" font-family="Helvetica,sans-Serif" font-size="10.00" fill="#000000">/averaging/TimeAveraging.H</text>
</a>
</g>
</g>
<!-- Node1&#45;&gt;Node2 -->
<g id="edge2" class="edge">
<title>Node1&#45;&gt;Node2</title>
<path fill="none" stroke="#191970" d="M773.5718,-257.4639C728.1398,-247.1803 667.7938,-233.5209 620.3746,-222.7875"/>
<polygon fill="#191970" stroke="#191970" points="620.988,-219.3379 610.462,-220.5438 619.4426,-226.1652 620.988,-219.3379"/>
</g>
<!-- Node3 -->
<g id="node4" class="node">
<title>Node3</title>
<g id="a_node4"><a xlink:href="_factory_8_h.html" target="_top" xlink:title="amr&#45;wind/core/Factory.H">
<polygon fill="#ffffff" stroke="#000000" points="431,-62 431,-81 565,-81 565,-62 431,-62"/>
<text text-anchor="middle" x="498" y="-69" font-family="Helvetica,sans-Serif" font-size="10.00" fill="#000000">amr&#45;wind/core/Factory.H</text>
</a>
</g>
</g>
<!-- Node2&#45;&gt;Node3 -->
<g id="edge3" class="edge">
<title>Node2&#45;&gt;Node3</title>
<path fill="none" stroke="#191970" d="M541.6965,-190.2587C538.8797,-173.4407 533.4208,-145.7425 525,-123 520.741,-111.4975 514.4428,-99.3128 509.0005,-89.6844"/>
<polygon fill="#191970" stroke="#191970" points="512.0129,-87.9021 503.9507,-81.0281 505.9665,-91.4295 512.0129,-87.9021"/>
</g>
<!-- Node4 -->
<g id="node5" class="node">
<title>Node4</title>
<polygon fill="#ffffff" stroke="#bfbfbf" points="547,-.5 547,-19.5 605,-19.5 605,-.5 547,-.5"/>
<text text-anchor="middle" x="576" y="-7.5" font-family="Helvetica,sans-Serif" font-size="10.00" fill="#000000">memory</text>
</g>
<!-- Node2&#45;&gt;Node4 -->
<g id="edge13" class="edge">
<title>Node2&#45;&gt;Node4</title>
<path fill="none" stroke="#191970" d="M482.2077,-190.4418C448.9168,-180.9452 412.7083,-167.8816 403,-154 395.1038,-142.7094 401.9803,-136.74 403,-123 405.2283,-92.9749 393.1034,-78.5963 413,-56 415.1146,-53.5985 489.7545,-33.1847 537.2871,-20.3712"/>
<polygon fill="#191970" stroke="#191970" points="538.2361,-23.7404 546.9827,-17.7615 536.4167,-16.9809 538.2361,-23.7404"/>
</g>
<!-- Node9 -->
<g id="node10" class="node">
<title>Node9</title>
<g id="a_node10"><a xlink:href="_post_processing_8_h.html" target="_top" xlink:title="amr&#45;wind/utilities\l/PostProcessing.H">
<polygon fill="#ffffff" stroke="#000000" points="412,-123.5 412,-153.5 516,-153.5 516,-123.5 412,-123.5"/>
<text text-anchor="start" x="420" y="-141.5" font-family="Helvetica,sans-Serif" font-size="10.00" fill="#000000">amr&#45;wind/utilities</text>
<text text-anchor="middle" x="464" y="-130.5" font-family="Helvetica,sans-Serif" font-size="10.00" fill="#000000">/PostProcessing.H</text>
</a>
</g>
</g>
<!-- Node2&#45;&gt;Node9 -->
<g id="edge9" class="edge">
<title>Node2&#45;&gt;Node9</title>
<path fill="none" stroke="#191970" d="M525.8468,-190.2967C515.2091,-181.3876 501.5978,-169.9882 489.854,-160.1527"/>
<polygon fill="#191970" stroke="#191970" points="491.9952,-157.3806 482.0814,-153.6432 487.5007,-162.7472 491.9952,-157.3806"/>
</g>
<!-- Node10 -->
<g id="node11" class="node">
<title>Node10</title>
<polygon fill="#ffffff" stroke="#bfbfbf" points="849,-.5 849,-19.5 945,-19.5 945,-.5 849,-.5"/>
<text text-anchor="middle" x="897" y="-7.5" font-family="Helvetica,sans-Serif" font-size="10.00" fill="#000000">AMReX_Vector.H</text>
</g>
<!-- Node2&#45;&gt;Node10 -->
<g id="edge12" class="edge">
<title>Node2&#45;&gt;Node10</title>
<path fill="none" stroke="#191970" d="M546.6598,-190.2741C552.9023,-159.4534 571.5463,-89.7477 617,-56 697.2538,3.5855 740.4143,-36.4918 839,-20 839.1008,-19.9831 839.2017,-19.9663 839.3026,-19.9494"/>
<polygon fill="#191970" stroke="#191970" points="839.6207,-23.4452 848.8995,-18.3312 838.4567,-16.5427 839.6207,-23.4452"/>
</g>
<!-- Node11 -->
<g id="node12" class="node">
<title>Node11</title>
<polygon fill="#ffffff" stroke="#bfbfbf" points="1795,-.5 1795,-19.5 1839,-19.5 1839,-.5 1795,-.5"/>
<text text-anchor="middle" x="1817" y="-7.5" font-family="Helvetica,sans-Serif" font-size="10.00" fill="#000000">string</text>
</g>
<!-- Node2&#45;&gt;Node11 -->
<g id="edge14" class="edge">
<title>Node2&#45;&gt;Node11</title>
<path fill="none" stroke="#191970" d="M553.5781,-190.458C576.8935,-154.0754 635.7343,-63.7327 650,-56 701.2314,-28.2302 1601.7733,-13.237 1784.7275,-10.4703"/>
<polygon fill="#191970" stroke="#191970" points="1784.848,-13.969 1794.7944,-10.3195 1784.7431,-6.9698 1784.848,-13.969"/>
</g>
<!-- Node12 -->
<g id="node13" class="node">
<title>Node12</title>
<polygon fill="#ffffff" stroke="#bfbfbf" points="307,-129 307,-148 345,-148 345,-129 307,-129"/>
<text text-anchor="middle" x="326" y="-136" font-family="Helvetica,sans-Serif" font-size="10.00" fill="#000000">map</text>
</g>
<!-- Node2&#45;&gt;Node12 -->
<g id="edge15" class="edge">
<title>Node2&#45;&gt;Node12</title>
<path fill="none" stroke="#191970" d="M479.8003,-190.4519C443.8151,-181.3177 398.3837,-168.6136 359,-154 357.4089,-153.4096 355.789,-152.7728 354.164,-152.1059"/>
<polygon fill="#191970" stroke="#191970" points="355.5264,-148.8817 344.9628,-148.069 352.714,-155.2919 355.5264,-148.8817"/>
</g>
<!-- Node3&#45;&gt;Node4 -->
<g id="edge4" class="edge">
<title>Node3&#45;&gt;Node4</title>
<path fill="none" stroke="#191970" d="M510.1875,-61.8906C522.437,-52.2324 541.5263,-37.1812 555.9977,-25.771"/>
<polygon fill="#191970" stroke="#191970" points="558.2124,-28.4819 563.8981,-19.5419 553.8783,-22.985 558.2124,-28.4819"/>
</g>
<!-- Node5 -->
<g id="node6" class="node">
<title>Node5</title>
<polygon fill="#ffffff" stroke="#bfbfbf" points="737.5,-.5 737.5,-19.5 830.5,-19.5 830.5,-.5 737.5,-.5"/>
<text text-anchor="middle" x="784" y="-7.5" font-family="Helvetica,sans-Serif" font-size="10.00" fill="#000000">unordered_map</text>
</g>
<!-- Node3&#45;&gt;Node5 -->
<g id="edge5" class="edge">
<title>Node3&#45;&gt;Node5</title>
<path fill="none" stroke="#191970" d="M542.3737,-61.9581C592.8889,-51.0956 675.4188,-33.3488 729.7246,-21.6711"/>
<polygon fill="#191970" stroke="#191970" points="730.4815,-25.0884 739.5222,-19.5643 729.0098,-18.2449 730.4815,-25.0884"/>
</g>
<!-- Node6 -->
<g id="node7" class="node">
<title>Node6</title>
<polygon fill="#ffffff" stroke="#bfbfbf" points="623,-.5 623,-19.5 683,-19.5 683,-.5 623,-.5"/>
<text text-anchor="middle" x="653" y="-7.5" font-family="Helvetica,sans-Serif" font-size="10.00" fill="#000000">iostream</text>
</g>
<!-- Node3&#45;&gt;Node6 -->
<g id="edge6" class="edge">
<title>Node3&#45;&gt;Node6</title>
<path fill="none" stroke="#191970" d="M522.2188,-61.8906C548.3806,-51.5103 590.2429,-34.9004 619.5388,-23.2766"/>
<polygon fill="#191970" stroke="#191970" points="620.9471,-26.4833 628.9513,-19.5419 618.3654,-19.9767 620.9471,-26.4833"/>
</g>
<!-- Node7 -->
<g id="node8" class="node">
<title>Node7</title>
<polygon fill="#ffffff" stroke="#bfbfbf" points="360.5,-.5 360.5,-19.5 449.5,-19.5 449.5,-.5 360.5,-.5"/>
<text text-anchor="middle" x="405" y="-7.5" font-family="Helvetica,sans-Serif" font-size="10.00" fill="#000000">AMReX_Print.H</text>
</g>
<!-- Node3&#45;&gt;Node7 -->
<g id="edge7" class="edge">
<title>Node3&#45;&gt;Node7</title>
<path fill="none" stroke="#191970" d="M483.4688,-61.8906C468.5906,-52.0519 445.2496,-36.6167 427.8872,-25.1351"/>
<polygon fill="#191970" stroke="#191970" points="429.701,-22.1385 419.4292,-19.5419 425.8398,-27.9773 429.701,-22.1385"/>
</g>
<!-- Node8 -->
<g id="node9" class="node">
<title>Node8</title>
<polygon fill="#ffffff" stroke="#bfbfbf" points="467.5,-.5 467.5,-19.5 528.5,-19.5 528.5,-.5 467.5,-.5"/>
<text text-anchor="middle" x="498" y="-7.5" font-family="Helvetica,sans-Serif" font-size="10.00" fill="#000000">AMReX.H</text>
</g>
<!-- Node3&#45;&gt;Node8 -->
<g id="edge8" class="edge">
<title>Node3&#45;&gt;Node8</title>
<path fill="none" stroke="#191970" d="M498,-61.8906C498,-53.3657 498,-40.6392 498,-29.9235"/>
<polygon fill="#191970" stroke="#191970" points="501.5001,-29.7448 498,-19.7449 494.5001,-29.7449 501.5001,-29.7448"/>
</g>
<!-- Node9&#45;&gt;Node3 -->
<g id="edge11" class="edge">
<title>Node9&#45;&gt;Node3</title>
<path fill="none" stroke="#191970" d="M471.7151,-123.2967C476.7039,-113.4658 483.2315,-100.6026 488.5336,-90.1545"/>
<polygon fill="#191970" stroke="#191970" points="491.747,-91.5563 493.1512,-81.055 485.5047,-88.3886 491.747,-91.5563"/>
</g>
<!-- Node9&#45;&gt;Node4 -->
<g id="edge10" class="edge">
<title>Node9&#45;&gt;Node4</title>
<path fill="none" stroke="#191970" d="M446.4865,-123.3238C428.724,-106.0743 405.9653,-77.5244 422,-56 425.5548,-51.2282 492.7609,-32.3883 537.2056,-20.3493"/>
<polygon fill="#191970" stroke="#191970" points="538.119,-23.7281 546.8617,-17.7435 536.2951,-16.9698 538.119,-23.7281"/>
</g>
<!-- Node14 -->
<g id="node15" class="node">
<title>Node14</title>
<polygon fill="#ffffff" stroke="#bfbfbf" points="1412.5,-129 1412.5,-148 1521.5,-148 1521.5,-129 1412.5,-129"/>
<text text-anchor="middle" x="1467" y="-136" font-family="Helvetica,sans-Serif" font-size="10.00" fill="#000000">AMReX_AmrCore.H</text>
</g>
<!-- Node13&#45;&gt;Node14 -->
<g id="edge17" class="edge">
<title>Node13&#45;&gt;Node14</title>
<path fill="none" stroke="#191970" d="M1296.2328,-262.8631C1327.6625,-239.974 1407.0352,-182.17 1445.4767,-154.1746"/>
<polygon fill="#191970" stroke="#191970" points="1447.8639,-156.7659 1453.8871,-148.0496 1443.7431,-151.1074 1447.8639,-156.7659"/>
</g>
<!-- Node15 -->
<g id="node16" class="node">
<title>Node15</title>
<g id="a_node16"><a xlink:href="_sim_time_8_h.html" target="_top" xlink:title="amr&#45;wind/core/SimTime.H">
<polygon fill="#ffffff" stroke="#000000" points="854.5,-196 854.5,-215 997.5,-215 997.5,-196 854.5,-196"/>
<text text-anchor="middle" x="926" y="-203" font-family="Helvetica,sans-Serif" font-size="10.00" fill="#000000">amr&#45;wind/core/SimTime.H</text>
</a>
</g>
</g>
<!-- Node13&#45;&gt;Node15 -->
<g id="edge18" class="edge">
<title>Node13&#45;&gt;Node15</title>
<path fill="none" stroke="#191970" d="M1232.2297,-262.9717C1167.5534,-250.8335 1055.8951,-229.8781 986.7642,-216.9039"/>
<polygon fill="#191970" stroke="#191970" points="987.3578,-213.4543 976.8838,-215.0496 986.0666,-220.3342 987.3578,-213.4543"/>
</g>
<!-- Node13&#45;&gt;Node19 -->
<g id="edge22" class="edge">
<title>Node13&#45;&gt;Node19</title>
<path fill="none" stroke="#191970" d="M1340.2819,-267.2426C1468.6687,-255.4592 1779.912,-226.893 1929.7173,-213.1438"/>
<polygon fill="#191970" stroke="#191970" points="1930.1454,-216.6193 1939.7837,-212.2199 1929.5056,-209.6486 1930.1454,-216.6193"/>
</g>
<!-- Node34 -->
<g id="node35" class="node">
<title>Node34</title>
<g id="a_node35"><a xlink:href="_p_d_e_base_8_h.html" target="_top" xlink:title="amr&#45;wind/equation_systems\l/PDEBase.H">
<polygon fill="#ffffff" stroke="#000000" points="1205.5,-123.5 1205.5,-153.5 1360.5,-153.5 1360.5,-123.5 1205.5,-123.5"/>
<text text-anchor="start" x="1213.5" y="-141.5" font-family="Helvetica,sans-Serif" font-size="10.00" fill="#000000">amr&#45;wind/equation_systems</text>
<text text-anchor="middle" x="1283" y="-130.5" font-family="Helvetica,sans-Serif" font-size="10.00" fill="#000000">/PDEBase.H</text>
</a>
</g>
</g>
<!-- Node13&#45;&gt;Node34 -->
<g id="edge59" class="edge">
<title>Node13&#45;&gt;Node34</title>
<path fill="none" stroke="#191970" d="M1283,-262.8631C1283,-242.3397 1283,-193.7457 1283,-163.7388"/>
<polygon fill="#191970" stroke="#191970" points="1286.5001,-163.611 1283,-153.611 1279.5001,-163.6111 1286.5001,-163.611"/>
</g>
<!-- Node38 -->
<g id="node39" class="node">
<title>Node38</title>
<g id="a_node39"><a xlink:href="_physics_8_h.html" target="_top" xlink:title="amr&#45;wind/core/Physics.H">
<polygon fill="#ffffff" stroke="#000000" points="1050.5,-129 1050.5,-148 1187.5,-148 1187.5,-129 1050.5,-129"/>
<text text-anchor="middle" x="1119" y="-136" font-family="Helvetica,sans-Serif" font-size="10.00" fill="#000000">amr&#45;wind/core/Physics.H</text>
</a>
</g>
</g>
<!-- Node13&#45;&gt;Node38 -->
<g id="edge71" class="edge">
<title>Node13&#45;&gt;Node38</title>
<path fill="none" stroke="#191970" d="M1271.2055,-262.8631C1243.3103,-240.0706 1173.0431,-182.6572 1138.6195,-154.5306"/>
<polygon fill="#191970" stroke="#191970" points="1140.646,-151.6666 1130.6876,-148.0496 1136.2169,-157.0872 1140.646,-151.6666"/>
</g>
<!-- Node16 -->
<g id="node17" class="node">
<title>Node16</title>
<polygon fill="#ffffff" stroke="#bfbfbf" points="941.5,-129 941.5,-148 1032.5,-148 1032.5,-129 941.5,-129"/>
<text text-anchor="middle" x="987" y="-136" font-family="Helvetica,sans-Serif" font-size="10.00" fill="#000000">AMReX_REAL.H</text>
</g>
<!-- Node15&#45;&gt;Node16 -->
<g id="edge19" class="edge">
<title>Node15&#45;&gt;Node16</title>
<path fill="none" stroke="#191970" d="M934.7398,-195.9005C944.2522,-185.4525 959.657,-168.5325 971.2825,-155.7635"/>
<polygon fill="#191970" stroke="#191970" points="974.1322,-157.8324 978.2764,-148.0817 968.9561,-153.1198 974.1322,-157.8324"/>
</g>
<!-- Node17 -->
<g id="node18" class="node">
<title>Node17</title>
<polygon fill="#ffffff" stroke="#bfbfbf" points="659,-129 659,-148 791,-148 791,-129 659,-129"/>
<text text-anchor="middle" x="725" y="-136" font-family="Helvetica,sans-Serif" font-size="10.00" fill="#000000">AMReX_GpuQualifiers.H</text>
</g>
<!-- Node15&#45;&gt;Node17 -->
<g id="edge20" class="edge">
<title>Node15&#45;&gt;Node17</title>
<path fill="none" stroke="#191970" d="M897.2016,-195.9005C862.1259,-184.2086 802.7366,-164.4122 763.6928,-151.3976"/>
<polygon fill="#191970" stroke="#191970" points="764.3386,-147.9236 753.745,-148.0817 762.125,-154.5644 764.3386,-147.9236"/>
</g>
<!-- Node18 -->
<g id="node19" class="node">
<title>Node18</title>
<polygon fill="#ffffff" stroke="#bfbfbf" points="809,-129 809,-148 923,-148 923,-129 809,-129"/>
<text text-anchor="middle" x="866" y="-136" font-family="Helvetica,sans-Serif" font-size="10.00" fill="#000000">AMReX_Extension.H</text>
</g>
<!-- Node15&#45;&gt;Node18 -->
<g id="edge21" class="edge">
<title>Node15&#45;&gt;Node18</title>
<path fill="none" stroke="#191970" d="M917.4035,-195.9005C908.047,-185.4525 892.8948,-168.5325 881.4599,-155.7635"/>
<polygon fill="#191970" stroke="#191970" points="883.8592,-153.1963 874.5806,-148.0817 878.6445,-157.8661 883.8592,-153.1963"/>
</g>
<!-- Node19&#45;&gt;Node5 -->
<g id="edge24" class="edge">
<title>Node19&#45;&gt;Node5</title>
<path fill="none" stroke="#191970" d="M1990.9791,-195.9691C1950.0776,-177.7738 1860.416,-135.5492 1793,-87 1776.6705,-75.2404 1778.5609,-63.7739 1760,-56 1668.1295,-17.5217 979.444,-30.2887 840.7194,-19.7412"/>
<polygon fill="#191970" stroke="#191970" points="840.9568,-16.2484 830.6817,-18.8315 840.3249,-23.2199 840.9568,-16.2484"/>
</g>
<!-- Node19&#45;&gt;Node11 -->
<g id="edge23" class="edge">
<title>Node19&#45;&gt;Node11</title>
<path fill="none" stroke="#191970" d="M2003.2803,-195.8051C1971.9967,-164.6013 1873.6481,-66.5036 1833.9077,-26.8646"/>
<polygon fill="#191970" stroke="#191970" points="1836.3302,-24.3374 1826.7783,-19.7534 1831.3867,-29.2935 1836.3302,-24.3374"/>
</g>
<!-- Node19&#45;&gt;Node14 -->
<g id="edge56" class="edge">
<title>Node19&#45;&gt;Node14</title>
<path fill="none" stroke="#191970" d="M1939.8587,-196.8414C1854.9811,-186.7508 1710.8182,-169.4806 1587,-154 1569.0565,-151.7566 1549.6117,-149.2693 1531.7041,-146.9558"/>
<polygon fill="#191970" stroke="#191970" points="1532.0147,-143.4669 1521.6481,-145.6541 1531.116,-150.4089 1532.0147,-143.4669"/>
</g>
<!-- Node20 -->
<g id="node21" class="node">
<title>Node20</title>
<g id="a_node21"><a xlink:href="_field_desc_types_8_h.html" target="_top" xlink:title="amr&#45;wind/core/FieldDescTypes.H">
<polygon fill="#ffffff" stroke="#000000" points="2344,-.5 2344,-19.5 2518,-19.5 2518,-.5 2344,-.5"/>
<text text-anchor="middle" x="2431" y="-7.5" font-family="Helvetica,sans-Serif" font-size="10.00" fill="#000000">amr&#45;wind/core/FieldDescTypes.H</text>
</a>
</g>
</g>
<!-- Node19&#45;&gt;Node20 -->
<g id="edge25" class="edge">
<title>Node19&#45;&gt;Node20</title>
<path fill="none" stroke="#191970" d="M2086.2606,-201.9851C2227.963,-194.771 2534.721,-177.0164 2638,-154 2721.3183,-135.4319 2769.2926,-157.1021 2818,-87 2825.8615,-75.6853 2827.1494,-66.3013 2818,-56 2799.0386,-34.6513 2636.8158,-21.4562 2528.5073,-14.9442"/>
<polygon fill="#191970" stroke="#191970" points="2528.3899,-11.4313 2518.2007,-14.3349 2527.9767,-18.4191 2528.3899,-11.4313"/>
</g>
<!-- Node21 -->
<g id="node22" class="node">
<title>Node21</title>
<g id="a_node22"><a xlink:href="_field_utils_8_h.html" target="_top" xlink:title="amr&#45;wind/core/FieldUtils.H">
<polygon fill="#ffffff" stroke="#000000" points="2663.5,-62 2663.5,-81 2808.5,-81 2808.5,-62 2663.5,-62"/>
<text text-anchor="middle" x="2736" y="-69" font-family="Helvetica,sans-Serif" font-size="10.00" fill="#000000">amr&#45;wind/core/FieldUtils.H</text>
</a>
</g>
</g>
<!-- Node19&#45;&gt;Node21 -->
<g id="edge26" class="edge">
<title>Node19&#45;&gt;Node21</title>
<path fill="none" stroke="#191970" d="M2086.0049,-202.8654C2219.7215,-197.4014 2498.693,-182.8653 2591,-154 2638.6841,-139.0887 2687.9429,-106.814 2715.0035,-87.3463"/>
<polygon fill="#191970" stroke="#191970" points="2717.292,-90.0087 2723.2952,-81.2787 2713.1582,-84.3596 2717.292,-90.0087"/>
</g>
<!-- Node22 -->
<g id="node23" class="node">
<title>Node22</title>
<polygon fill="#ffffff" stroke="#bfbfbf" points="2079.5,-.5 2079.5,-19.5 2186.5,-19.5 2186.5,-.5 2079.5,-.5"/>
<text text-anchor="middle" x="2133" y="-7.5" font-family="Helvetica,sans-Serif" font-size="10.00" fill="#000000">AMReX_MultiFab.H</text>
</g>
<!-- Node19&#45;&gt;Node22 -->
<g id="edge57" class="edge">
<title>Node19&#45;&gt;Node22</title>
<path fill="none" stroke="#191970" d="M2067.9626,-195.9824C2160.333,-178.6896 2339.9798,-139.037 2374,-87 2381.5393,-75.468 2382.7817,-66.6164 2374,-56 2351.9147,-29.3005 2260.5645,-17.9584 2196.9076,-13.2374"/>
<polygon fill="#191970" stroke="#191970" points="2196.7714,-9.7192 2186.5505,-12.509 2196.2803,-16.702 2196.7714,-9.7192"/>
</g>
<!-- Node19&#45;&gt;Node24 -->
<g id="edge30" class="edge">
<title>Node19&#45;&gt;Node24</title>
<path fill="none" stroke="#191970" d="M1962.372,-195.9717C1897.8767,-183.8335 1786.5312,-162.8781 1717.594,-149.9039"/>
<polygon fill="#191970" stroke="#191970" points="1718.2161,-146.4596 1707.7413,-148.0496 1716.9214,-153.3389 1718.2161,-146.4596"/>
</g>
<!-- Node30 -->
<g id="node31" class="node">
<title>Node30</title>
<g id="a_node31"><a xlink:href="_int_field_8_h.html" target="_top" xlink:title="amr&#45;wind/core/IntField.H">
<polygon fill="#ffffff" stroke="#000000" points="2423.5,-129 2423.5,-148 2558.5,-148 2558.5,-129 2423.5,-129"/>
<text text-anchor="middle" x="2491" y="-136" font-family="Helvetica,sans-Serif" font-size="10.00" fill="#000000">amr&#45;wind/core/IntField.H</text>
</a>
</g>
</g>
<!-- Node19&#45;&gt;Node30 -->
<g id="edge45" class="edge">
<title>Node19&#45;&gt;Node30</title>
<path fill="none" stroke="#191970" d="M2086.1441,-197.1041C2165.374,-187.738 2295.4133,-171.5756 2407,-154 2415.0191,-152.7369 2423.4497,-151.3053 2431.7491,-149.8349"/>
<polygon fill="#191970" stroke="#191970" points="2432.5492,-153.2472 2441.7709,-148.0309 2431.309,-146.358 2432.5492,-153.2472"/>
</g>
<!-- Node31 -->
<g id="node32" class="node">
<title>Node31</title>
<polygon fill="#ffffff" stroke="#bfbfbf" points="2535,-62 2535,-81 2645,-81 2645,-62 2535,-62"/>
<text text-anchor="middle" x="2590" y="-69" font-family="Helvetica,sans-Serif" font-size="10.00" fill="#000000">AMReX_iMultiFab.H</text>
</g>
<!-- Node19&#45;&gt;Node31 -->
<g id="edge58" class="edge">
<title>Node19&#45;&gt;Node31</title>
<path fill="none" stroke="#191970" d="M2086.1055,-203.3157C2228.4165,-198.4054 2531.9373,-184.4592 2568,-154 2586.0813,-138.7282 2590.1661,-110.4147 2590.68,-91.2679"/>
<polygon fill="#191970" stroke="#191970" points="2594.1799,-91.2107 2590.6487,-81.2217 2587.1799,-91.2326 2594.1799,-91.2107"/>
</g>
<!-- Node32 -->
<g id="node33" class="node">
<title>Node32</title>
<g id="a_node33"><a xlink:href="_scratch_field_8_h.html" target="_top" xlink:title="amr&#45;wind/core/ScratchField.H">
<polygon fill="#ffffff" stroke="#000000" points="2054,-129 2054,-148 2212,-148 2212,-129 2054,-129"/>
<text text-anchor="middle" x="2133" y="-136" font-family="Helvetica,sans-Serif" font-size="10.00" fill="#000000">amr&#45;wind/core/ScratchField.H</text>
</a>
</g>
</g>
<!-- Node19&#45;&gt;Node32 -->
<g id="edge49" class="edge">
<title>Node19&#45;&gt;Node32</title>
<path fill="none" stroke="#191970" d="M2030.1931,-195.9005C2050.2427,-184.7062 2083.5988,-166.0823 2106.8602,-153.0947"/>
<polygon fill="#191970" stroke="#191970" points="2108.8138,-156.0126 2115.8388,-148.0817 2105.4013,-149.9007 2108.8138,-156.0126"/>
</g>
<!-- Node21&#45;&gt;Node20 -->
<g id="edge27" class="edge">
<title>Node21&#45;&gt;Node20</title>
<path fill="none" stroke="#191970" d="M2688.6784,-61.9581C2634.6166,-51.0571 2546.1712,-33.223 2488.2672,-21.5473"/>
<polygon fill="#191970" stroke="#191970" points="2488.6762,-18.0594 2478.1817,-19.5137 2487.2925,-24.9213 2488.6762,-18.0594"/>
</g>
<!-- Node21&#45;&gt;Node22 -->
<g id="edge28" class="edge">
<title>Node21&#45;&gt;Node22</title>
<path fill="none" stroke="#191970" d="M2689.7296,-61.9274C2678.1025,-59.75 2665.6248,-57.6079 2654,-56 2490.028,-33.3204 2295.3913,-19.615 2196.9117,-13.6034"/>
<polygon fill="#191970" stroke="#191970" points="2197.0161,-10.1034 2186.8232,-12.994 2196.594,-17.0907 2197.0161,-10.1034"/>
</g>
<!-- Node23 -->
<g id="node24" class="node">
<title>Node23</title>
<polygon fill="#ffffff" stroke="#bfbfbf" points="2675,-.5 2675,-19.5 2797,-19.5 2797,-.5 2675,-.5"/>
<text text-anchor="middle" x="2736" y="-7.5" font-family="Helvetica,sans-Serif" font-size="10.00" fill="#000000">AMReX_Interpolater.H</text>
</g>
<!-- Node21&#45;&gt;Node23 -->
<g id="edge29" class="edge">
<title>Node21&#45;&gt;Node23</title>
<path fill="none" stroke="#191970" d="M2736,-61.8906C2736,-53.3657 2736,-40.6392 2736,-29.9235"/>
<polygon fill="#191970" stroke="#191970" points="2739.5001,-29.7448 2736,-19.7449 2732.5001,-29.7449 2739.5001,-29.7448"/>
</g>
<!-- Node24&#45;&gt;Node4 -->
<g id="edge32" class="edge">
<title>Node24&#45;&gt;Node4</title>
<path fill="none" stroke="#191970" d="M1595.8296,-129.3366C1534.8245,-119.5163 1445.8782,-103.1509 1415,-87 1397.1688,-77.6733 1400.5307,-63.8456 1382,-56 1227.5855,9.3763 799.1784,-43.8297 615.4827,-19.8169"/>
<polygon fill="#191970" stroke="#191970" points="615.7236,-16.316 605.33,-18.3709 614.7365,-23.246 615.7236,-16.316"/>
</g>
<!-- Node24&#45;&gt;Node5 -->
<g id="edge33" class="edge">
<title>Node24&#45;&gt;Node5</title>
<path fill="none" stroke="#191970" d="M1596.6655,-128.9301C1556.1365,-121.0658 1502.2563,-107.7775 1458,-87 1436.6736,-76.9876 1437.1828,-63.9364 1415,-56 1297.3977,-13.9253 982.9733,-34.223 841.0186,-19.8915"/>
<polygon fill="#191970" stroke="#191970" points="841.0154,-16.3698 830.6911,-18.7489 840.2456,-23.3274 841.0154,-16.3698"/>
</g>
<!-- Node24&#45;&gt;Node11 -->
<g id="edge31" class="edge">
<title>Node24&#45;&gt;Node11</title>
<path fill="none" stroke="#191970" d="M1684.4302,-128.8969C1706.4571,-120.2695 1737.3424,-106.0302 1760,-87 1779.8025,-70.3678 1796.5771,-45.5348 1806.6969,-28.5981"/>
<polygon fill="#191970" stroke="#191970" points="1809.8885,-30.0701 1811.8589,-19.6601 1803.8268,-26.5693 1809.8885,-30.0701"/>
</g>
<!-- Node24&#45;&gt;Node20 -->
<g id="edge39" class="edge">
<title>Node24&#45;&gt;Node20</title>
<path fill="none" stroke="#191970" d="M1718.2463,-134.0445C1804.8722,-127.1575 1967.9121,-112.041 2105,-87 2160.4585,-76.8697 2173.1716,-69.1194 2228,-56 2278.6492,-43.8806 2336.6067,-30.8283 2377.5922,-21.7343"/>
<polygon fill="#191970" stroke="#191970" points="2378.3641,-25.1482 2387.3705,-19.5683 2376.8502,-18.3139 2378.3641,-25.1482"/>
</g>
<!-- Node24&#45;&gt;Node22 -->
<g id="edge35" class="edge">
<title>Node24&#45;&gt;Node22</title>
<path fill="none" stroke="#191970" d="M1718.1951,-136.8459C1819.4666,-133.1497 2016.6448,-121.6122 2076,-87 2099.0334,-73.5683 2115.5715,-46.7633 2124.7167,-28.6015"/>
<polygon fill="#191970" stroke="#191970" points="2127.892,-30.0741 2129.0311,-19.5407 2121.5719,-27.0647 2127.892,-30.0741"/>
</g>
<!-- Node25 -->
<g id="node26" class="node">
<title>Node25</title>
<polygon fill="#ffffff" stroke="#bfbfbf" points="1467,-62 1467,-81 1531,-81 1531,-62 1467,-62"/>
<text text-anchor="middle" x="1499" y="-69" font-family="Helvetica,sans-Serif" font-size="10.00" fill="#000000">algorithm</text>
</g>
<!-- Node24&#45;&gt;Node25 -->
<g id="edge34" class="edge">
<title>Node24&#45;&gt;Node25</title>
<path fill="none" stroke="#191970" d="M1634.3625,-128.9005C1607.2599,-117.4077 1561.6901,-98.0838 1530.9961,-85.068"/>
<polygon fill="#191970" stroke="#191970" points="1532.1684,-81.7635 1521.5956,-81.0817 1529.4356,-88.208 1532.1684,-81.7635"/>
</g>
<!-- Node26 -->
<g id="node27" class="node">
<title>Node26</title>
<polygon fill="#ffffff" stroke="#bfbfbf" points="1549.5,-62 1549.5,-81 1646.5,-81 1646.5,-62 1549.5,-62"/>
<text text-anchor="middle" x="1598" y="-69" font-family="Helvetica,sans-Serif" font-size="10.00" fill="#000000">AMReX_BCRec.H</text>
</g>
<!-- Node24&#45;&gt;Node26 -->
<g id="edge36" class="edge">
<title>Node24&#45;&gt;Node26</title>
<path fill="none" stroke="#191970" d="M1648.5467,-128.9005C1639.3462,-118.4525 1624.4465,-101.5325 1613.2022,-88.7635"/>
<polygon fill="#191970" stroke="#191970" points="1615.6731,-86.2735 1606.4376,-81.0817 1610.4197,-90.8997 1615.6731,-86.2735"/>
</g>
<!-- Node27 -->
<g id="node28" class="node">
<title>Node27</title>
<polygon fill="#ffffff" stroke="#bfbfbf" points="1665,-62 1665,-81 1751,-81 1751,-62 1665,-62"/>
<text text-anchor="middle" x="1708" y="-69" font-family="Helvetica,sans-Serif" font-size="10.00" fill="#000000">AMReX_Gpu.H</text>
</g>
<!-- Node24&#45;&gt;Node27 -->
<g id="edge37" class="edge">
<title>Node24&#45;&gt;Node27</title>
<path fill="none" stroke="#191970" d="M1664.3071,-128.9005C1672.1843,-118.552 1684.8946,-101.8542 1694.5806,-89.1295"/>
<polygon fill="#191970" stroke="#191970" points="1697.4346,-91.1586 1700.7065,-81.0817 1691.8646,-86.9188 1697.4346,-91.1586"/>
</g>
<!-- Node28 -->
<g id="node29" class="node">
<title>Node28</title>
<g id="a_node29"><a xlink:href="incflo__enums_8_h.html" target="_top" xlink:title="amr&#45;wind/incflo_enums.H">
<polygon fill="#ffffff" stroke="#000000" points="1233,-62 1233,-81 1373,-81 1373,-62 1233,-62"/>
<text text-anchor="middle" x="1303" y="-69" font-family="Helvetica,sans-Serif" font-size="10.00" fill="#000000">amr&#45;wind/incflo_enums.H</text>
</a>
</g>
</g>
<!-- Node24&#45;&gt;Node28 -->
<g id="edge38" class="edge">
<title>Node24&#45;&gt;Node28</title>
<path fill="none" stroke="#191970" d="M1606.6564,-128.9717C1542.6549,-116.8584 1432.2571,-95.9639 1363.6755,-82.9838"/>
<polygon fill="#191970" stroke="#191970" points="1363.9327,-79.4704 1353.4562,-81.0496 1362.6309,-86.3483 1363.9327,-79.4704"/>
</g>
<!-- Node29 -->
<g id="node30" class="node">
<title>Node29</title>
<g id="a_node30"><a xlink:href="_view_field_8_h.html" target="_top" xlink:title="amr&#45;wind/core/ViewField.H">
<polygon fill="#ffffff" stroke="#000000" points="1921,-62 1921,-81 2067,-81 2067,-62 1921,-62"/>
<text text-anchor="middle" x="1994" y="-69" font-family="Helvetica,sans-Serif" font-size="10.00" fill="#000000">amr&#45;wind/core/ViewField.H</text>
</a>
</g>
</g>
<!-- Node24&#45;&gt;Node29 -->
<g id="edge40" class="edge">
<title>Node24&#45;&gt;Node29</title>
<path fill="none" stroke="#191970" d="M1704.926,-128.9717C1765.7288,-116.8833 1870.5188,-96.0497 1935.8356,-83.0638"/>
<polygon fill="#191970" stroke="#191970" points="1936.8413,-86.4325 1945.9668,-81.0496 1935.4763,-79.5669 1936.8413,-86.4325"/>
</g>
<!-- Node29&#45;&gt;Node10 -->
<g id="edge44" class="edge">
<title>Node29&#45;&gt;Node10</title>
<path fill="none" stroke="#191970" d="M1925.661,-61.9924C1907.2933,-59.7198 1887.4158,-57.5159 1869,-56 1478.8811,-23.888 1379.3502,-49.1658 989,-20 978.0828,-19.1843 966.4592,-18.0943 955.2788,-16.9339"/>
<polygon fill="#191970" stroke="#191970" points="955.4838,-13.436 945.1687,-15.8543 954.7405,-20.3964 955.4838,-13.436"/>
</g>
<!-- Node29&#45;&gt;Node11 -->
<g id="edge41" class="edge">
<title>Node29&#45;&gt;Node11</title>
<path fill="none" stroke="#191970" d="M1966.3438,-61.8906C1934.5347,-50.8383 1882.4003,-32.7238 1848.9029,-21.0849"/>
<polygon fill="#191970" stroke="#191970" points="1849.7434,-17.6717 1839.1486,-17.6957 1847.4458,-24.284 1849.7434,-17.6717"/>
</g>
<!-- Node29&#45;&gt;Node20 -->
<g id="edge42" class="edge">
<title>Node29&#45;&gt;Node20</title>
<path fill="none" stroke="#191970" d="M2061.8018,-61.9581C2140.624,-50.8653 2270.4598,-32.5932 2353.2872,-20.9367"/>
<polygon fill="#191970" stroke="#191970" points="2353.9841,-24.3732 2363.3987,-19.5137 2353.0085,-17.4415 2353.9841,-24.3732"/>
</g>
<!-- Node29&#45;&gt;Node22 -->
<g id="edge43" class="edge">
<title>Node29&#45;&gt;Node22</title>
<path fill="none" stroke="#191970" d="M2015.7188,-61.8906C2038.874,-51.6457 2075.7441,-35.3326 2101.9591,-23.7339"/>
<polygon fill="#191970" stroke="#191970" points="2103.705,-26.7888 2111.4338,-19.5419 2100.8727,-20.3874 2103.705,-26.7888"/>
</g>
<!-- Node30&#45;&gt;Node11 -->
<g id="edge46" class="edge">
<title>Node30&#45;&gt;Node11</title>
<path fill="none" stroke="#191970" d="M2481.4223,-128.9444C2462.6921,-110.9485 2419.0891,-72.3709 2374,-56 2324.6815,-38.0935 1961.0738,-17.6075 1849.4774,-11.684"/>
<polygon fill="#191970" stroke="#191970" points="1849.3588,-8.1729 1839.1883,-11.1413 1848.99,-15.1632 1849.3588,-8.1729"/>
</g>
<!-- Node30&#45;&gt;Node20 -->
<g id="edge47" class="edge">
<title>Node30&#45;&gt;Node20</title>
<path fill="none" stroke="#191970" d="M2492.2342,-128.9751C2493.859,-112.9432 2495.2255,-79.972 2483,-56 2476.8395,-43.9204 2466.0513,-33.5741 2455.8925,-25.7706"/>
<polygon fill="#191970" stroke="#191970" points="2457.7865,-22.8218 2447.6224,-19.8314 2453.7033,-28.5075 2457.7865,-22.8218"/>
</g>
<!-- Node30&#45;&gt;Node31 -->
<g id="edge48" class="edge">
<title>Node30&#45;&gt;Node31</title>
<path fill="none" stroke="#191970" d="M2505.1843,-128.9005C2521.4311,-117.9052 2548.2691,-99.7422 2567.4034,-86.7927"/>
<polygon fill="#191970" stroke="#191970" points="2569.522,-89.5851 2575.842,-81.0817 2565.5986,-83.7879 2569.522,-89.5851"/>
</g>
<!-- Node32&#45;&gt;Node10 -->
<g id="edge54" class="edge">
<title>Node32&#45;&gt;Node10</title>
<path fill="none" stroke="#191970" d="M2090.5549,-128.9521C2046.0043,-118.8503 1973.9635,-102.2879 1912,-87 1858.9372,-73.9081 1847.042,-64.1562 1793,-56 1439.3141,-2.6204 1345.645,-47.3397 989,-20 978.0843,-19.1632 966.4615,-18.0634 955.2814,-16.8999"/>
<polygon fill="#191970" stroke="#191970" points="955.4867,-13.402 945.1713,-15.8191 954.7426,-20.3623 955.4867,-13.402"/>
</g>
<!-- Node32&#45;&gt;Node11 -->
<g id="edge50" class="edge">
<title>Node32&#45;&gt;Node11</title>
<path fill="none" stroke="#191970" d="M2129.3668,-128.9966C2122.124,-111.4388 2104.123,-74.0651 2076,-56 2038.8457,-32.1336 1910.0234,-18.0751 1849.2323,-12.626"/>
<polygon fill="#191970" stroke="#191970" points="1849.3192,-9.1203 1839.0527,-11.7373 1848.7104,-16.0938 1849.3192,-9.1203"/>
</g>
<!-- Node32&#45;&gt;Node20 -->
<g id="edge51" class="edge">
<title>Node32&#45;&gt;Node20</title>
<path fill="none" stroke="#191970" d="M2204.098,-128.9816C2264.7145,-119.8485 2346.3005,-104.8345 2374,-87 2396.1974,-72.7081 2412.7819,-46.5366 2422.1802,-28.7117"/>
<polygon fill="#191970" stroke="#191970" points="2425.4125,-30.0737 2426.7619,-19.5651 2419.1538,-26.9385 2425.4125,-30.0737"/>
</g>
<!-- Node32&#45;&gt;Node22 -->
<g id="edge53" class="edge">
<title>Node32&#45;&gt;Node22</title>
<path fill="none" stroke="#191970" d="M2136.4731,-128.7863C2139.935,-118.5493 2145.0138,-101.878 2147,-87 2148.8232,-73.3434 2149.0279,-69.6277 2147,-56 2145.6673,-47.0439 2142.9506,-37.419 2140.2619,-29.3"/>
<polygon fill="#191970" stroke="#191970" points="2143.4936,-27.9402 2136.8624,-19.6772 2136.8933,-30.272 2143.4936,-27.9402"/>
</g>
<!-- Node32&#45;&gt;Node29 -->
<g id="edge52" class="edge">
<title>Node32&#45;&gt;Node29</title>
<path fill="none" stroke="#191970" d="M2113.0847,-128.9005C2089.5509,-117.5569 2050.1899,-98.5844 2023.2071,-85.5783"/>
<polygon fill="#191970" stroke="#191970" points="2024.4063,-82.2709 2013.8784,-81.0817 2021.3668,-88.5766 2024.4063,-82.2709"/>
</g>
<!-- Node33 -->
<g id="node34" class="node">
<title>Node33</title>
<polygon fill="#ffffff" stroke="#bfbfbf" points="2237,-62 2237,-81 2365,-81 2365,-62 2237,-62"/>
<text text-anchor="middle" x="2301" y="-69" font-family="Helvetica,sans-Serif" font-size="10.00" fill="#000000">AMReX_PhysBCFunct.H</text>
</g>
<!-- Node32&#45;&gt;Node33 -->
<g id="edge55" class="edge">
<title>Node32&#45;&gt;Node33</title>
<path fill="none" stroke="#191970" d="M2157.0703,-128.9005C2186.013,-117.3579 2234.7621,-97.9163 2267.4017,-84.8993"/>
<polygon fill="#191970" stroke="#191970" points="2268.9823,-88.0371 2276.9743,-81.0817 2266.3892,-81.5351 2268.9823,-88.0371"/>
</g>
<!-- Node34&#45;&gt;Node3 -->
<g id="edge61" class="edge">
<title>Node34&#45;&gt;Node3</title>
<path fill="none" stroke="#191970" d="M1205.2759,-124.2139C1202.147,-123.7779 1199.0459,-123.3706 1196,-123 954.5868,-93.6273 892.3416,-107.339 650,-87 625.7149,-84.9618 599.2834,-82.3902 575.3741,-79.9305"/>
<polygon fill="#191970" stroke="#191970" points="575.6031,-76.4356 565.2953,-78.8851 574.8808,-83.3982 575.6031,-76.4356"/>
</g>
<!-- Node34&#45;&gt;Node11 -->
<g id="edge60" class="edge">
<title>Node34&#45;&gt;Node11</title>
<path fill="none" stroke="#191970" d="M1245.005,-123.4499C1210.2023,-107.5723 1167.4153,-81.3814 1191,-56 1211.4071,-34.0383 1659.402,-15.8394 1784.6998,-11.1653"/>
<polygon fill="#191970" stroke="#191970" points="1784.9507,-14.6585 1794.8146,-10.7913 1784.692,-7.6633 1784.9507,-14.6585"/>
</g>
<!-- Node34&#45;&gt;Node20 -->
<g id="edge69" class="edge">
<title>Node34&#45;&gt;Node20</title>
<path fill="none" stroke="#191970" d="M1259.1664,-123.197C1234.9197,-105.8312 1203.5949,-77.1749 1224,-56 1261.4962,-17.0894 2142.0057,-22.1487 2196,-20 2241.3298,-18.1961 2291.5725,-16.0746 2333.9275,-14.2509"/>
<polygon fill="#191970" stroke="#191970" points="2334.1156,-17.7462 2343.9554,-13.8184 2333.8139,-10.7527 2334.1156,-17.7462"/>
</g>
<!-- Node34&#45;&gt;Node28 -->
<g id="edge70" class="edge">
<title>Node34&#45;&gt;Node28</title>
<path fill="none" stroke="#191970" d="M1287.5383,-123.2967C1290.4124,-113.6685 1294.1547,-101.1318 1297.2377,-90.8038"/>
<polygon fill="#191970" stroke="#191970" points="1300.6411,-91.6383 1300.1478,-81.055 1293.9336,-89.636 1300.6411,-91.6383"/>
</g>
<!-- Node35 -->
<g id="node36" class="node">
<title>Node35</title>
<g id="a_node36"><a xlink:href="_coll_mgr_8_h.html" target="_top" xlink:title="amr&#45;wind/core/CollMgr.H">
<polygon fill="#ffffff" stroke="#000000" points="791,-62 791,-81 927,-81 927,-62 791,-62"/>
<text text-anchor="middle" x="859" y="-69" font-family="Helvetica,sans-Serif" font-size="10.00" fill="#000000">amr&#45;wind/core/CollMgr.H</text>
</a>
</g>
</g>
<!-- Node34&#45;&gt;Node35 -->
<g id="edge62" class="edge">
<title>Node34&#45;&gt;Node35</title>
<path fill="none" stroke="#191970" d="M1205.237,-124.4918C1202.1188,-123.9789 1199.0307,-123.4796 1196,-123 1080.7759,-104.7657 1051.0133,-106.5197 936,-87 928.8831,-85.7921 921.417,-84.421 914.0504,-83.0058"/>
<polygon fill="#191970" stroke="#191970" points="914.595,-79.5461 904.1089,-81.0599 913.2503,-86.4157 914.595,-79.5461"/>
</g>
<!-- Node36 -->
<g id="node37" class="node">
<title>Node36</title>
<g id="a_node37"><a xlink:href="_p_d_e_fields_8_h.html" target="_top" xlink:title="amr&#45;wind/equation_systems\l/PDEFields.H">
<polygon fill="#ffffff" stroke="#000000" points="945.5,-56.5 945.5,-86.5 1100.5,-86.5 1100.5,-56.5 945.5,-56.5"/>
<text text-anchor="start" x="953.5" y="-74.5" font-family="Helvetica,sans-Serif" font-size="10.00" fill="#000000">amr&#45;wind/equation_systems</text>
<text text-anchor="middle" x="1023" y="-63.5" font-family="Helvetica,sans-Serif" font-size="10.00" fill="#000000">/PDEFields.H</text>
</a>
</g>
</g>
<!-- Node34&#45;&gt;Node36 -->
<g id="edge67" class="edge">
<title>Node34&#45;&gt;Node36</title>
<path fill="none" stroke="#191970" d="M1224.6509,-123.4639C1185.1477,-113.2842 1132.8077,-99.7966 1091.3519,-89.1138"/>
<polygon fill="#191970" stroke="#191970" points="1092.1606,-85.7079 1081.6036,-86.6017 1090.4138,-92.4864 1092.1606,-85.7079"/>
</g>
<!-- Node35&#45;&gt;Node4 -->
<g id="edge64" class="edge">
<title>Node35&#45;&gt;Node4</title>
<path fill="none" stroke="#191970" d="M812.3115,-61.9771C756.1894,-50.4827 664.314,-31.504 614.884,-20.1057"/>
<polygon fill="#191970" stroke="#191970" points="615.5432,-16.6654 605.0086,-17.7939 613.9476,-23.4812 615.5432,-16.6654"/>
</g>
<!-- Node35&#45;&gt;Node5 -->
<g id="edge65" class="edge">
<title>Node35&#45;&gt;Node5</title>
<path fill="none" stroke="#191970" d="M847.2813,-61.8906C835.6812,-52.3786 817.7021,-37.6357 803.8679,-26.2917"/>
<polygon fill="#191970" stroke="#191970" points="805.836,-23.3792 795.884,-19.7449 801.3974,-28.7921 805.836,-23.3792"/>
</g>
<!-- Node35&#45;&gt;Node10 -->
<g id="edge66" class="edge">
<title>Node35&#45;&gt;Node10</title>
<path fill="none" stroke="#191970" d="M864.9375,-61.8906C870.4267,-53.0068 878.7353,-39.5601 885.519,-28.5811"/>
<polygon fill="#191970" stroke="#191970" points="888.6998,-30.0917 890.9788,-19.7449 882.7449,-26.4122 888.6998,-30.0917"/>
</g>
<!-- Node35&#45;&gt;Node11 -->
<g id="edge63" class="edge">
<title>Node35&#45;&gt;Node11</title>
<path fill="none" stroke="#191970" d="M900.7776,-61.9322C912.1482,-59.6455 924.5002,-57.4497 936,-56 1105.0332,-34.6906 1645.6353,-15.6779 1784.3273,-11.0637"/>
<polygon fill="#191970" stroke="#191970" points="1784.8167,-14.5495 1794.6955,-10.7207 1784.5852,-7.5533 1784.8167,-14.5495"/>
</g>
<!-- Node37 -->
<g id="node38" class="node">
<title>Node37</title>
<polygon fill="#ffffff" stroke="#bfbfbf" points="998.5,-.5 998.5,-19.5 1047.5,-19.5 1047.5,-.5 998.5,-.5"/>
<text text-anchor="middle" x="1023" y="-7.5" font-family="Helvetica,sans-Serif" font-size="10.00" fill="#000000">iosfwd</text>
</g>
<!-- Node36&#45;&gt;Node37 -->
<g id="edge68" class="edge">
<title>Node36&#45;&gt;Node37</title>
<path fill="none" stroke="#191970" d="M1023,-56.2977C1023,-48.3834 1023,-38.6043 1023,-30.0759"/>
<polygon fill="#191970" stroke="#191970" points="1026.5001,-29.8469 1023,-19.8469 1019.5001,-29.847 1026.5001,-29.8469"/>
</g>
<!-- Node38&#45;&gt;Node3 -->
<g id="edge72" class="edge">
<title>Node38&#45;&gt;Node3</title>
<path fill="none" stroke="#191970" d="M1075.0004,-128.9229C1063.9402,-126.7457 1052.0675,-124.6047 1041,-123 868.2931,-97.9591 823.6972,-103.8522 650,-87 625.7434,-84.6466 599.32,-81.986 575.4093,-79.5419"/>
<polygon fill="#191970" stroke="#191970" points="575.634,-76.0467 565.3293,-78.5091 574.9205,-83.0102 575.634,-76.0467"/>
</g>
<!-- Node38&#45;&gt;Node22 -->
<g id="edge74" class="edge">
<title>Node38&#45;&gt;Node22</title>
<path fill="none" stroke="#191970" d="M1123.9358,-128.8757C1133.8244,-110.7623 1157.9789,-71.9928 1191,-56 1210.7789,-46.4207 1860.2555,-20.5429 2069.0478,-12.452"/>
<polygon fill="#191970" stroke="#191970" points="2069.3831,-15.9417 2079.2403,-12.0576 2069.1124,-8.947 2069.3831,-15.9417"/>
</g>
<!-- Node38&#45;&gt;Node35 -->
<g id="edge73" class="edge">
<title>Node38&#45;&gt;Node35</title>
<path fill="none" stroke="#191970" d="M1082.0245,-128.9717C1035.7591,-117.0495 956.4838,-96.6208 905.9699,-83.6038"/>
<polygon fill="#191970" stroke="#191970" points="906.826,-80.2101 896.2689,-81.1039 905.0792,-86.9887 906.826,-80.2101"/>
</g>
<!-- Node39 -->
<g id="node40" class="node">
<title>Node39</title>
<polygon fill="#ffffff" stroke="#bfbfbf" points="659.5,-62 659.5,-81 772.5,-81 772.5,-62 659.5,-62"/>
<text text-anchor="middle" x="716" y="-69" font-family="Helvetica,sans-Serif" font-size="10.00" fill="#000000">AMReX_Geometry.H</text>
</g>
<!-- Node38&#45;&gt;Node39 -->
<g id="edge75" class="edge">
<title>Node38&#45;&gt;Node39</title>
<path fill="none" stroke="#191970" d="M1073.3002,-128.9573C1062.7162,-126.8755 1051.4828,-124.7686 1041,-123 926.4017,-103.666 896.2477,-108.3081 782,-87 776.1442,-85.9078 770.0243,-84.6417 763.9735,-83.3131"/>
<polygon fill="#191970" stroke="#191970" points="764.4404,-79.8304 753.9146,-81.0379 762.896,-86.6579 764.4404,-79.8304"/>
</g>
<!-- Node40&#45;&gt;Node5 -->
<g id="edge80" class="edge">
<title>Node40&#45;&gt;Node5</title>
<path fill="none" stroke="#191970" d="M337.419,-65.1501C431.2661,-53.5605 629.6198,-29.065 727.2646,-17.0065"/>
<polygon fill="#191970" stroke="#191970" points="727.7482,-20.4734 737.2438,-15.7741 726.8902,-13.5262 727.7482,-20.4734"/>
</g>
<!-- Node40&#45;&gt;Node10 -->
<g id="edge82" class="edge">
<title>Node40&#45;&gt;Node10</title>
<path fill="none" stroke="#191970" d="M337.3061,-65.317C362.7598,-62.3351 393.9798,-58.8057 422,-56 607.0971,-37.4659 654.5093,-43.8246 839,-20 839.1013,-19.9869 839.2028,-19.9738 839.3043,-19.9606"/>
<polygon fill="#191970" stroke="#191970" points="839.524,-23.4641 848.9406,-18.6084 838.5512,-16.5321 839.524,-23.4641"/>
</g>
<!-- Node40&#45;&gt;Node11 -->
<g id="edge79" class="edge">
<title>Node40&#45;&gt;Node11</title>
<path fill="none" stroke="#191970" d="M337.2501,-64.6717C362.6903,-61.5342 393.9152,-58.0601 422,-56 965.9931,-16.0964 1631.8732,-10.8015 1784.7063,-10.1047"/>
<polygon fill="#191970" stroke="#191970" points="1784.8298,-13.6043 1794.8149,-10.062 1784.8002,-6.6043 1784.8298,-13.6043"/>
</g>
<!-- Node41 -->
<g id="node42" class="node">
<title>Node41</title>
<polygon fill="#ffffff" stroke="#bfbfbf" points="182,-.5 182,-19.5 214,-19.5 214,-.5 182,-.5"/>
<text text-anchor="middle" x="198" y="-7.5" font-family="Helvetica,sans-Serif" font-size="10.00" fill="#000000">set</text>
</g>
<!-- Node40&#45;&gt;Node41 -->
<g id="edge81" class="edge">
<title>Node40&#45;&gt;Node41</title>
<path fill="none" stroke="#191970" d="M264.2472,-56.2977C250.8032,-46.9022 233.5989,-34.8787 220.0922,-25.4395"/>
<polygon fill="#191970" stroke="#191970" points="222.0288,-22.5228 211.8271,-19.6633 218.0189,-28.2605 222.0288,-22.5228"/>
</g>
<!-- Node42 -->
<g id="node43" class="node">
<title>Node42</title>
<polygon fill="#ffffff" stroke="#bfbfbf" points="232,-.5 232,-19.5 342,-19.5 342,-.5 232,-.5"/>
<text text-anchor="middle" x="287" y="-7.5" font-family="Helvetica,sans-Serif" font-size="10.00" fill="#000000">AMReX_BoxArray.H</text>
</g>
<!-- Node40&#45;&gt;Node42 -->
<g id="edge83" class="edge">
<title>Node40&#45;&gt;Node42</title>
<path fill="none" stroke="#191970" d="M286.2472,-56.2977C286.3759,-48.3834 286.5349,-38.6043 286.6736,-30.0759"/>
<polygon fill="#191970" stroke="#191970" points="290.1767,-29.9025 286.8399,-19.8469 283.1777,-29.7887 290.1767,-29.9025"/>
</g>
<!-- Node43 -->
<g id="node44" class="node">
<title>Node43</title>
<polygon fill="#ffffff" stroke="#bfbfbf" points="0,-.5 0,-19.5 164,-19.5 164,-.5 0,-.5"/>
<text text-anchor="middle" x="82" y="-7.5" font-family="Helvetica,sans-Serif" font-size="10.00" fill="#000000">AMReX_DistributionMapping.H</text>
</g>
<!-- Node40&#45;&gt;Node43 -->
<g id="edge84" class="edge">
<title>Node40&#45;&gt;Node43</title>
<path fill="none" stroke="#191970" d="M236.096,-56.4554C201.4609,-46.0139 155.8712,-32.27 123.2826,-22.4455"/>
<polygon fill="#191970" stroke="#191970" points="124.1974,-19.0657 113.6128,-19.5303 122.1769,-25.7678 124.1974,-19.0657"/>
</g>
</g>
</svg>
