<?xml version="1.0" encoding="UTF-8" standalone="no"?>
<!DOCTYPE svg PUBLIC "-//W3C//DTD SVG 1.1//EN"
 "http://www.w3.org/Graphics/SVG/1.1/DTD/svg11.dtd">
<!-- Generated by graphviz version 2.40.1 (20161225.0304)
 -->
<!-- Title: RefinementCriteria.cpp Pages: 1 -->
<svg width="2838pt" height="330pt"
 viewBox="0.00 0.00 2837.50 330.00" xmlns="http://www.w3.org/2000/svg" xmlns:xlink="http://www.w3.org/1999/xlink">
<g id="graph0" class="graph" transform="scale(1 1) rotate(0) translate(4 326)">
<title>RefinementCriteria.cpp</title>
<polygon fill="#ffffff" stroke="transparent" points="-4,4 -4,-326 2833.5,-326 2833.5,4 -4,4"/>
<!-- Node0 -->
<g id="node1" class="node">
<title>Node0</title>
<polygon fill="#bfbfbf" stroke="#000000" points="1990.5,-302.5 1990.5,-321.5 2118.5,-321.5 2118.5,-302.5 1990.5,-302.5"/>
<text text-anchor="middle" x="2054.5" y="-309.5" font-family="Helvetica,sans-Serif" font-size="10.00" fill="#000000">RefinementCriteria.cpp</text>
</g>
<!-- Node1 -->
<g id="node2" class="node">
<title>Node1</title>
<g id="a_node2"><a xlink:href="_refinement_criteria_8_h.html" target="_top" xlink:title="amr&#45;wind/utilities\l/tagging/RefinementCriteria.H">
<polygon fill="#ffffff" stroke="#000000" points="2072,-179.5 2072,-209.5 2233,-209.5 2233,-179.5 2072,-179.5"/>
<text text-anchor="start" x="2080" y="-197.5" font-family="Helvetica,sans-Serif" font-size="10.00" fill="#000000">amr&#45;wind/utilities</text>
<text text-anchor="middle" x="2152.5" y="-186.5" font-family="Helvetica,sans-Serif" font-size="10.00" fill="#000000">/tagging/RefinementCriteria.H</text>
</a>
</g>
</g>
<!-- Node0&#45;&gt;Node1 -->
<g id="edge1" class="edge">
<title>Node0&#45;&gt;Node1</title>
<path fill="none" stroke="#191970" d="M2055.3905,-302.1106C2057.0674,-288.3193 2061.7601,-263.0846 2074.5,-246 2083.879,-233.4224 2097.2998,-222.9993 2110.3715,-214.8973"/>
<polygon fill="#191970" stroke="#191970" points="2112.4514,-217.7353 2119.3113,-209.6612 2108.9136,-211.6951 2112.4514,-217.7353"/>
</g>
<!-- Node10 -->
<g id="node11" class="node">
<title>Node10</title>
<g id="a_node11"><a xlink:href="_c_f_d_sim_8_h.html" target="_top" xlink:title="amr&#45;wind/CFDSim.H">
<polygon fill="#ffffff" stroke="#000000" points="1690.5,-246.5 1690.5,-265.5 1804.5,-265.5 1804.5,-246.5 1690.5,-246.5"/>
<text text-anchor="middle" x="1747.5" y="-253.5" font-family="Helvetica,sans-Serif" font-size="10.00" fill="#000000">amr&#45;wind/CFDSim.H</text>
</a>
</g>
</g>
<!-- Node0&#45;&gt;Node10 -->
<g id="edge10" class="edge">
<title>Node0&#45;&gt;Node10</title>
<path fill="none" stroke="#191970" d="M2002.0736,-302.4369C1948.7603,-292.712 1866.1643,-277.6456 1809.6044,-267.3285"/>
<polygon fill="#191970" stroke="#191970" points="1810.1759,-263.8751 1799.7101,-265.5237 1808.9197,-270.7614 1810.1759,-263.8751"/>
</g>
<!-- Node38 -->
<g id="node39" class="node">
<title>Node38</title>
<polygon fill="#ffffff" stroke="#bfbfbf" points="2083,-246.5 2083,-265.5 2200,-265.5 2200,-246.5 2083,-246.5"/>
<text text-anchor="middle" x="2141.5" y="-253.5" font-family="Helvetica,sans-Serif" font-size="10.00" fill="#000000">AMReX_ParmParse.H</text>
</g>
<!-- Node0&#45;&gt;Node38 -->
<g id="edge70" class="edge">
<title>Node0&#45;&gt;Node38</title>
<path fill="none" stroke="#191970" d="M2069.6542,-302.2455C2083.0027,-293.6534 2102.6586,-281.0014 2118.0383,-271.1018"/>
<polygon fill="#191970" stroke="#191970" points="2120.0051,-273.9982 2126.5194,-265.6427 2116.2164,-268.1121 2120.0051,-273.9982"/>
</g>
<!-- Node2 -->
<g id="node3" class="node">
<title>Node2</title>
<polygon fill="#ffffff" stroke="#bfbfbf" points="2209,-118 2209,-137 2318,-137 2318,-118 2209,-118"/>
<text text-anchor="middle" x="2263.5" y="-125" font-family="Helvetica,sans-Serif" font-size="10.00" fill="#000000">AMReX_AmrCore.H</text>
</g>
<!-- Node1&#45;&gt;Node2 -->
<g id="edge2" class="edge">
<title>Node1&#45;&gt;Node2</title>
<path fill="none" stroke="#191970" d="M2177.4106,-179.4639C2195.7833,-168.3741 2220.66,-153.3584 2238.9474,-142.32"/>
<polygon fill="#191970" stroke="#191970" points="2240.8364,-145.268 2247.589,-137.1039 2237.219,-139.2751 2240.8364,-145.268"/>
</g>
<!-- Node3 -->
<g id="node4" class="node">
<title>Node3</title>
<polygon fill="#ffffff" stroke="#bfbfbf" points="2336,-118 2336,-137 2437,-137 2437,-118 2336,-118"/>
<text text-anchor="middle" x="2386.5" y="-125" font-family="Helvetica,sans-Serif" font-size="10.00" fill="#000000">AMReX_TagBox.H</text>
</g>
<!-- Node1&#45;&gt;Node3 -->
<g id="edge3" class="edge">
<title>Node1&#45;&gt;Node3</title>
<path fill="none" stroke="#191970" d="M2205.0142,-179.4639C2246.6992,-167.5284 2304.2662,-151.0456 2343.3051,-139.8678"/>
<polygon fill="#191970" stroke="#191970" points="2344.6522,-143.1228 2353.3024,-137.0053 2342.7253,-136.3932 2344.6522,-143.1228"/>
</g>
<!-- Node4 -->
<g id="node5" class="node">
<title>Node4</title>
<g id="a_node5"><a xlink:href="_factory_8_h.html" target="_top" xlink:title="amr&#45;wind/core/Factory.H">
<polygon fill="#ffffff" stroke="#000000" points="493.5,-118 493.5,-137 627.5,-137 627.5,-118 493.5,-118"/>
<text text-anchor="middle" x="560.5" y="-125" font-family="Helvetica,sans-Serif" font-size="10.00" fill="#000000">amr&#45;wind/core/Factory.H</text>
</a>
</g>
</g>
<!-- Node1&#45;&gt;Node4 -->
<g id="edge4" class="edge">
<title>Node1&#45;&gt;Node4</title>
<path fill="none" stroke="#191970" d="M2071.8811,-192.5517C1778.728,-185.3584 779.0737,-159.8405 636.5,-143 628.1376,-142.0123 619.326,-140.5823 610.7836,-138.985"/>
<polygon fill="#191970" stroke="#191970" points="611.409,-135.541 600.9221,-137.0496 610.0608,-142.41 611.409,-135.541"/>
</g>
<!-- Node5 -->
<g id="node6" class="node">
<title>Node5</title>
<polygon fill="#ffffff" stroke="#bfbfbf" points="552.5,-56.5 552.5,-75.5 610.5,-75.5 610.5,-56.5 552.5,-56.5"/>
<text text-anchor="middle" x="581.5" y="-63.5" font-family="Helvetica,sans-Serif" font-size="10.00" fill="#000000">memory</text>
</g>
<!-- Node4&#45;&gt;Node5 -->
<g id="edge5" class="edge">
<title>Node4&#45;&gt;Node5</title>
<path fill="none" stroke="#191970" d="M563.7813,-117.8906C566.7535,-109.1862 571.2214,-96.1015 574.927,-85.2494"/>
<polygon fill="#191970" stroke="#191970" points="578.2532,-86.3394 578.1725,-75.7449 571.6288,-84.0773 578.2532,-86.3394"/>
</g>
<!-- Node6 -->
<g id="node7" class="node">
<title>Node6</title>
<polygon fill="#ffffff" stroke="#bfbfbf" points="667,-56.5 667,-75.5 760,-75.5 760,-56.5 667,-56.5"/>
<text text-anchor="middle" x="713.5" y="-63.5" font-family="Helvetica,sans-Serif" font-size="10.00" fill="#000000">unordered_map</text>
</g>
<!-- Node4&#45;&gt;Node6 -->
<g id="edge6" class="edge">
<title>Node4&#45;&gt;Node6</title>
<path fill="none" stroke="#191970" d="M584.4063,-117.8906C610.2305,-107.5103 651.5527,-90.9004 680.4705,-79.2766"/>
<polygon fill="#191970" stroke="#191970" points="681.7885,-82.519 689.7616,-75.5419 679.1778,-76.0241 681.7885,-82.519"/>
</g>
<!-- Node7 -->
<g id="node8" class="node">
<title>Node7</title>
<polygon fill="#ffffff" stroke="#bfbfbf" points="474.5,-56.5 474.5,-75.5 534.5,-75.5 534.5,-56.5 474.5,-56.5"/>
<text text-anchor="middle" x="504.5" y="-63.5" font-family="Helvetica,sans-Serif" font-size="10.00" fill="#000000">iostream</text>
</g>
<!-- Node4&#45;&gt;Node7 -->
<g id="edge7" class="edge">
<title>Node4&#45;&gt;Node7</title>
<path fill="none" stroke="#191970" d="M551.75,-117.8906C543.3338,-108.6478 530.4203,-94.466 520.219,-83.2628"/>
<polygon fill="#191970" stroke="#191970" points="522.694,-80.7824 513.3734,-75.7449 517.5182,-85.4953 522.694,-80.7824"/>
</g>
<!-- Node8 -->
<g id="node9" class="node">
<title>Node8</title>
<polygon fill="#ffffff" stroke="#bfbfbf" points="288,-56.5 288,-75.5 377,-75.5 377,-56.5 288,-56.5"/>
<text text-anchor="middle" x="332.5" y="-63.5" font-family="Helvetica,sans-Serif" font-size="10.00" fill="#000000">AMReX_Print.H</text>
</g>
<!-- Node4&#45;&gt;Node8 -->
<g id="edge8" class="edge">
<title>Node4&#45;&gt;Node8</title>
<path fill="none" stroke="#191970" d="M524.875,-117.8906C485.1369,-107.1718 420.7732,-89.8105 377.5651,-78.1557"/>
<polygon fill="#191970" stroke="#191970" points="378.4413,-74.767 367.8748,-75.5419 376.6182,-81.5255 378.4413,-74.767"/>
</g>
<!-- Node9 -->
<g id="node10" class="node">
<title>Node9</title>
<polygon fill="#ffffff" stroke="#bfbfbf" points="395,-56.5 395,-75.5 456,-75.5 456,-56.5 395,-56.5"/>
<text text-anchor="middle" x="425.5" y="-63.5" font-family="Helvetica,sans-Serif" font-size="10.00" fill="#000000">AMReX.H</text>
</g>
<!-- Node4&#45;&gt;Node9 -->
<g id="edge9" class="edge">
<title>Node4&#45;&gt;Node9</title>
<path fill="none" stroke="#191970" d="M539.4063,-117.8906C516.9173,-107.6457 481.1082,-91.3326 455.6476,-79.7339"/>
<polygon fill="#191970" stroke="#191970" points="456.9968,-76.5025 446.4456,-75.5419 454.0948,-82.8727 456.9968,-76.5025"/>
</g>
<!-- Node10&#45;&gt;Node2 -->
<g id="edge11" class="edge">
<title>Node10&#45;&gt;Node2</title>
<path fill="none" stroke="#191970" d="M1785.8623,-246.4466C1878.3307,-223.4191 2113.383,-164.8838 2215.2255,-139.5219"/>
<polygon fill="#191970" stroke="#191970" points="2216.378,-142.8418 2225.2358,-137.029 2214.6864,-136.0493 2216.378,-142.8418"/>
</g>
<!-- Node11 -->
<g id="node12" class="node">
<title>Node11</title>
<g id="a_node12"><a xlink:href="_sim_time_8_h.html" target="_top" xlink:title="amr&#45;wind/core/SimTime.H">
<polygon fill="#ffffff" stroke="#000000" points="2501,-185 2501,-204 2644,-204 2644,-185 2501,-185"/>
<text text-anchor="middle" x="2572.5" y="-192" font-family="Helvetica,sans-Serif" font-size="10.00" fill="#000000">amr&#45;wind/core/SimTime.H</text>
</a>
</g>
</g>
<!-- Node10&#45;&gt;Node11 -->
<g id="edge12" class="edge">
<title>Node10&#45;&gt;Node11</title>
<path fill="none" stroke="#191970" d="M1804.5311,-251.7486C1947.8778,-241.0627 2323.6709,-213.0491 2490.584,-200.6065"/>
<polygon fill="#191970" stroke="#191970" points="2491.0772,-204.0795 2500.7893,-199.8457 2490.5568,-197.0989 2491.0772,-204.0795"/>
</g>
<!-- Node15 -->
<g id="node16" class="node">
<title>Node15</title>
<g id="a_node16"><a xlink:href="_field_repo_8_h.html" target="_top" xlink:title="amr&#45;wind/core/FieldRepo.H">
<polygon fill="#ffffff" stroke="#000000" points="1255.5,-185 1255.5,-204 1401.5,-204 1401.5,-185 1255.5,-185"/>
<text text-anchor="middle" x="1328.5" y="-192" font-family="Helvetica,sans-Serif" font-size="10.00" fill="#000000">amr&#45;wind/core/FieldRepo.H</text>
</a>
</g>
</g>
<!-- Node10&#45;&gt;Node15 -->
<g id="edge16" class="edge">
<title>Node10&#45;&gt;Node15</title>
<path fill="none" stroke="#191970" d="M1690.1184,-247.5776C1615.675,-236.651 1485.6337,-217.5638 1403.4587,-205.5023"/>
<polygon fill="#191970" stroke="#191970" points="1403.836,-202.0203 1393.4337,-204.0308 1402.8194,-208.946 1403.836,-202.0203"/>
</g>
<!-- Node32 -->
<g id="node33" class="node">
<title>Node32</title>
<g id="a_node33"><a xlink:href="_p_d_e_base_8_h.html" target="_top" xlink:title="amr&#45;wind/equation_systems\l/PDEBase.H">
<polygon fill="#ffffff" stroke="#000000" points="483,-179.5 483,-209.5 638,-209.5 638,-179.5 483,-179.5"/>
<text text-anchor="start" x="491" y="-197.5" font-family="Helvetica,sans-Serif" font-size="10.00" fill="#000000">amr&#45;wind/equation_systems</text>
<text text-anchor="middle" x="560.5" y="-186.5" font-family="Helvetica,sans-Serif" font-size="10.00" fill="#000000">/PDEBase.H</text>
</a>
</g>
</g>
<!-- Node10&#45;&gt;Node32 -->
<g id="edge53" class="edge">
<title>Node10&#45;&gt;Node32</title>
<path fill="none" stroke="#191970" d="M1690.291,-253.2825C1545.9291,-246.3927 1155.1592,-227.5413 829.5,-210 769.0675,-206.7449 701.0141,-202.8211 648.477,-199.7359"/>
<polygon fill="#191970" stroke="#191970" points="648.3716,-196.2238 638.1833,-199.1305 647.9605,-203.2117 648.3716,-196.2238"/>
</g>
<!-- Node36 -->
<g id="node37" class="node">
<title>Node36</title>
<g id="a_node37"><a xlink:href="_physics_8_h.html" target="_top" xlink:title="amr&#45;wind/core/Physics.H">
<polygon fill="#ffffff" stroke="#000000" points="838,-185 838,-204 975,-204 975,-185 838,-185"/>
<text text-anchor="middle" x="906.5" y="-192" font-family="Helvetica,sans-Serif" font-size="10.00" fill="#000000">amr&#45;wind/core/Physics.H</text>
</a>
</g>
</g>
<!-- Node10&#45;&gt;Node36 -->
<g id="edge65" class="edge">
<title>Node10&#45;&gt;Node36</title>
<path fill="none" stroke="#191970" d="M1690.3558,-251.8212C1543.6246,-241.0912 1153.3576,-212.552 985.2942,-200.262"/>
<polygon fill="#191970" stroke="#191970" points="985.5052,-196.7682 975.2766,-199.5294 984.9946,-203.7495 985.5052,-196.7682"/>
</g>
<!-- Node12 -->
<g id="node13" class="node">
<title>Node12</title>
<polygon fill="#ffffff" stroke="#bfbfbf" points="2588,-118 2588,-137 2679,-137 2679,-118 2588,-118"/>
<text text-anchor="middle" x="2633.5" y="-125" font-family="Helvetica,sans-Serif" font-size="10.00" fill="#000000">AMReX_REAL.H</text>
</g>
<!-- Node11&#45;&gt;Node12 -->
<g id="edge13" class="edge">
<title>Node11&#45;&gt;Node12</title>
<path fill="none" stroke="#191970" d="M2581.2398,-184.9005C2590.7522,-174.4525 2606.157,-157.5325 2617.7825,-144.7635"/>
<polygon fill="#191970" stroke="#191970" points="2620.6322,-146.8324 2624.7764,-137.0817 2615.4561,-142.1198 2620.6322,-146.8324"/>
</g>
<!-- Node13 -->
<g id="node14" class="node">
<title>Node13</title>
<polygon fill="#ffffff" stroke="#bfbfbf" points="2697.5,-118 2697.5,-137 2829.5,-137 2829.5,-118 2697.5,-118"/>
<text text-anchor="middle" x="2763.5" y="-125" font-family="Helvetica,sans-Serif" font-size="10.00" fill="#000000">AMReX_GpuQualifiers.H</text>
</g>
<!-- Node11&#45;&gt;Node13 -->
<g id="edge14" class="edge">
<title>Node11&#45;&gt;Node13</title>
<path fill="none" stroke="#191970" d="M2599.8656,-184.9005C2633.1962,-173.2086 2689.6309,-153.4122 2726.7323,-140.3976"/>
<polygon fill="#191970" stroke="#191970" points="2727.9074,-143.6945 2736.1851,-137.0817 2725.5903,-137.0891 2727.9074,-143.6945"/>
</g>
<!-- Node14 -->
<g id="node15" class="node">
<title>Node14</title>
<polygon fill="#ffffff" stroke="#bfbfbf" points="2455.5,-118 2455.5,-137 2569.5,-137 2569.5,-118 2455.5,-118"/>
<text text-anchor="middle" x="2512.5" y="-125" font-family="Helvetica,sans-Serif" font-size="10.00" fill="#000000">AMReX_Extension.H</text>
</g>
<!-- Node11&#45;&gt;Node14 -->
<g id="edge15" class="edge">
<title>Node11&#45;&gt;Node14</title>
<path fill="none" stroke="#191970" d="M2563.9035,-184.9005C2554.547,-174.4525 2539.3948,-157.5325 2527.9599,-144.7635"/>
<polygon fill="#191970" stroke="#191970" points="2530.3592,-142.1963 2521.0806,-137.0817 2525.1445,-146.8661 2530.3592,-142.1963"/>
</g>
<!-- Node15&#45;&gt;Node2 -->
<g id="edge50" class="edge">
<title>Node15&#45;&gt;Node2</title>
<path fill="none" stroke="#191970" d="M1401.686,-191.6721C1581.6566,-184.4722 2042.1955,-164.4917 2194.5,-143 2201.4429,-142.0203 2208.722,-140.7063 2215.8418,-139.256"/>
<polygon fill="#191970" stroke="#191970" points="2217.0572,-142.575 2226.1013,-137.0565 2215.5898,-135.7305 2217.0572,-142.575"/>
</g>
<!-- Node15&#45;&gt;Node6 -->
<g id="edge18" class="edge">
<title>Node15&#45;&gt;Node6</title>
<path fill="none" stroke="#191970" d="M1255.3801,-186.5299C1176.5921,-177.2343 1056.8095,-160.8484 1014.5,-143 993.1236,-133.9823 993.8164,-121.1587 972.5,-112 936.9525,-96.7269 835.0034,-81.5205 770.1213,-72.9829"/>
<polygon fill="#191970" stroke="#191970" points="770.4103,-69.4911 760.0422,-71.671 769.5067,-76.4326 770.4103,-69.4911"/>
</g>
<!-- Node16 -->
<g id="node17" class="node">
<title>Node16</title>
<polygon fill="#ffffff" stroke="#bfbfbf" points="766.5,-.5 766.5,-19.5 810.5,-19.5 810.5,-.5 766.5,-.5"/>
<text text-anchor="middle" x="788.5" y="-7.5" font-family="Helvetica,sans-Serif" font-size="10.00" fill="#000000">string</text>
</g>
<!-- Node15&#45;&gt;Node16 -->
<g id="edge17" class="edge">
<title>Node15&#45;&gt;Node16</title>
<path fill="none" stroke="#191970" d="M1255.4295,-191.1095C1064.2839,-182.089 559.0796,-157.2206 484.5,-143 390.3426,-125.0464 335.7745,-153.596 279.5,-76 274.2815,-68.8042 273.5041,-62.5622 279.5,-56 311.6863,-20.7738 649.1734,-12.2681 756.1576,-10.4497"/>
<polygon fill="#191970" stroke="#191970" points="756.4007,-13.9463 766.3429,-10.2852 756.2876,-6.9472 756.4007,-13.9463"/>
</g>
<!-- Node17 -->
<g id="node18" class="node">
<title>Node17</title>
<g id="a_node18"><a xlink:href="_field_desc_types_8_h.html" target="_top" xlink:title="amr&#45;wind/core/FieldDescTypes.H">
<polygon fill="#ffffff" stroke="#000000" points="1177.5,-.5 1177.5,-19.5 1351.5,-19.5 1351.5,-.5 1177.5,-.5"/>
<text text-anchor="middle" x="1264.5" y="-7.5" font-family="Helvetica,sans-Serif" font-size="10.00" fill="#000000">amr&#45;wind/core/FieldDescTypes.H</text>
</a>
</g>
</g>
<!-- Node15&#45;&gt;Node17 -->
<g id="edge19" class="edge">
<title>Node15&#45;&gt;Node17</title>
<path fill="none" stroke="#191970" d="M1306.0005,-184.8603C1289.5194,-176.4512 1268.3736,-162.522 1258.5,-143 1239.9794,-106.3812 1250.0331,-56.586 1257.9355,-29.5026"/>
<polygon fill="#191970" stroke="#191970" points="1261.3581,-30.2841 1260.9989,-19.6953 1254.6764,-28.1969 1261.3581,-30.2841"/>
</g>
<!-- Node18 -->
<g id="node19" class="node">
<title>Node18</title>
<g id="a_node19"><a xlink:href="_field_utils_8_h.html" target="_top" xlink:title="amr&#45;wind/core/FieldUtils.H">
<polygon fill="#ffffff" stroke="#000000" points="2133,-56.5 2133,-75.5 2278,-75.5 2278,-56.5 2133,-56.5"/>
<text text-anchor="middle" x="2205.5" y="-63.5" font-family="Helvetica,sans-Serif" font-size="10.00" fill="#000000">amr&#45;wind/core/FieldUtils.H</text>
</a>
</g>
</g>
<!-- Node15&#45;&gt;Node18 -->
<g id="edge20" class="edge">
<title>Node15&#45;&gt;Node18</title>
<path fill="none" stroke="#191970" d="M1401.6559,-192.4287C1584.8643,-186.86 2053.3994,-170.1258 2118.5,-143 2149.1997,-130.2082 2176.4447,-101.951 2191.9495,-83.4573"/>
<polygon fill="#191970" stroke="#191970" points="2194.8182,-85.4767 2198.3998,-75.5056 2189.3818,-81.0669 2194.8182,-85.4767"/>
</g>
<!-- Node19 -->
<g id="node20" class="node">
<title>Node19</title>
<polygon fill="#ffffff" stroke="#bfbfbf" points="2016,-.5 2016,-19.5 2123,-19.5 2123,-.5 2016,-.5"/>
<text text-anchor="middle" x="2069.5" y="-7.5" font-family="Helvetica,sans-Serif" font-size="10.00" fill="#000000">AMReX_MultiFab.H</text>
</g>
<!-- Node15&#45;&gt;Node19 -->
<g id="edge51" class="edge">
<title>Node15&#45;&gt;Node19</title>
<path fill="none" stroke="#191970" d="M1401.6698,-192.1339C1590.4865,-185.7176 2084.3128,-166.8556 2154.5,-143 2177.8422,-135.0663 2178.7783,-123.6607 2200.5,-112 2237.3696,-92.2075 2264.2452,-110.7897 2287.5,-76 2292.4397,-68.61 2293.0991,-62.9038 2287.5,-56 2282.5378,-49.8815 2195.5886,-32.9183 2133.0227,-21.393"/>
<polygon fill="#191970" stroke="#191970" points="2133.286,-17.8829 2122.8186,-19.5215 2132.0231,-24.7681 2133.286,-17.8829"/>
</g>
<!-- Node21 -->
<g id="node22" class="node">
<title>Node21</title>
<g id="a_node22"><a xlink:href="_field_8_h.html" target="_top" xlink:title="amr&#45;wind/core/Field.H">
<polygon fill="#ffffff" stroke="#000000" points="1267.5,-118 1267.5,-137 1389.5,-137 1389.5,-118 1267.5,-118"/>
<text text-anchor="middle" x="1328.5" y="-125" font-family="Helvetica,sans-Serif" font-size="10.00" fill="#000000">amr&#45;wind/core/Field.H</text>
</a>
</g>
</g>
<!-- Node15&#45;&gt;Node21 -->
<g id="edge24" class="edge">
<title>Node15&#45;&gt;Node21</title>
<path fill="none" stroke="#191970" d="M1328.5,-184.9005C1328.5,-175.149 1328.5,-159.7597 1328.5,-147.3695"/>
<polygon fill="#191970" stroke="#191970" points="1332.0001,-147.0816 1328.5,-137.0817 1325.0001,-147.0817 1332.0001,-147.0816"/>
</g>
<!-- Node28 -->
<g id="node29" class="node">
<title>Node28</title>
<g id="a_node29"><a xlink:href="_int_field_8_h.html" target="_top" xlink:title="amr&#45;wind/core/IntField.H">
<polygon fill="#ffffff" stroke="#000000" points="1023,-118 1023,-137 1158,-137 1158,-118 1023,-118"/>
<text text-anchor="middle" x="1090.5" y="-125" font-family="Helvetica,sans-Serif" font-size="10.00" fill="#000000">amr&#45;wind/core/IntField.H</text>
</a>
</g>
</g>
<!-- Node15&#45;&gt;Node28 -->
<g id="edge39" class="edge">
<title>Node15&#45;&gt;Node28</title>
<path fill="none" stroke="#191970" d="M1294.6532,-184.9717C1252.5673,-173.124 1180.641,-152.8758 1134.3656,-139.8487"/>
<polygon fill="#191970" stroke="#191970" points="1135.1897,-136.4447 1124.6154,-137.1039 1133.2928,-143.1828 1135.1897,-136.4447"/>
</g>
<!-- Node29 -->
<g id="node30" class="node">
<title>Node29</title>
<polygon fill="#ffffff" stroke="#bfbfbf" points="1050.5,-56.5 1050.5,-75.5 1160.5,-75.5 1160.5,-56.5 1050.5,-56.5"/>
<text text-anchor="middle" x="1105.5" y="-63.5" font-family="Helvetica,sans-Serif" font-size="10.00" fill="#000000">AMReX_iMultiFab.H</text>
</g>
<!-- Node15&#45;&gt;Node29 -->
<g id="edge52" class="edge">
<title>Node15&#45;&gt;Node29</title>
<path fill="none" stroke="#191970" d="M1302.8766,-184.8938C1278.8693,-175.486 1242.3165,-160.1035 1212.5,-143 1203.6844,-137.9432 1155.5897,-102.834 1126.9674,-81.8104"/>
<polygon fill="#191970" stroke="#191970" points="1128.9049,-78.8907 1118.7748,-75.787 1124.7583,-84.5305 1128.9049,-78.8907"/>
</g>
<!-- Node30 -->
<g id="node31" class="node">
<title>Node30</title>
<g id="a_node31"><a xlink:href="_scratch_field_8_h.html" target="_top" xlink:title="amr&#45;wind/core/ScratchField.H">
<polygon fill="#ffffff" stroke="#000000" points="1765.5,-118 1765.5,-137 1923.5,-137 1923.5,-118 1765.5,-118"/>
<text text-anchor="middle" x="1844.5" y="-125" font-family="Helvetica,sans-Serif" font-size="10.00" fill="#000000">amr&#45;wind/core/ScratchField.H</text>
</a>
</g>
</g>
<!-- Node15&#45;&gt;Node30 -->
<g id="edge43" class="edge">
<title>Node15&#45;&gt;Node30</title>
<path fill="none" stroke="#191970" d="M1401.6088,-185.0072C1496.4921,-172.6871 1661.6625,-151.2405 1761.2618,-138.3081"/>
<polygon fill="#191970" stroke="#191970" points="1761.82,-141.7651 1771.286,-137.0065 1760.9186,-134.8233 1761.82,-141.7651"/>
</g>
<!-- Node18&#45;&gt;Node17 -->
<g id="edge21" class="edge">
<title>Node18&#45;&gt;Node17</title>
<path fill="none" stroke="#191970" d="M2132.7444,-61.3261C2105.9485,-59.6229 2075.3459,-57.6991 2047.5,-56 1800.7817,-40.9454 1510.2756,-24.1129 1362.1183,-15.5926"/>
<polygon fill="#191970" stroke="#191970" points="1361.884,-12.0735 1351.6996,-14.9937 1361.4822,-19.0619 1361.884,-12.0735"/>
</g>
<!-- Node18&#45;&gt;Node19 -->
<g id="edge22" class="edge">
<title>Node18&#45;&gt;Node19</title>
<path fill="none" stroke="#191970" d="M2182.1208,-56.3733C2159.9955,-47.2629 2126.5866,-33.5062 2101.8981,-23.3404"/>
<polygon fill="#191970" stroke="#191970" points="2103.1536,-20.0723 2092.5742,-19.5011 2100.4883,-26.5451 2103.1536,-20.0723"/>
</g>
<!-- Node20 -->
<g id="node21" class="node">
<title>Node20</title>
<polygon fill="#ffffff" stroke="#bfbfbf" points="2144.5,-.5 2144.5,-19.5 2266.5,-19.5 2266.5,-.5 2144.5,-.5"/>
<text text-anchor="middle" x="2205.5" y="-7.5" font-family="Helvetica,sans-Serif" font-size="10.00" fill="#000000">AMReX_Interpolater.H</text>
</g>
<!-- Node18&#45;&gt;Node20 -->
<g id="edge23" class="edge">
<title>Node18&#45;&gt;Node20</title>
<path fill="none" stroke="#191970" d="M2205.5,-56.2455C2205.5,-48.9382 2205.5,-38.6944 2205.5,-29.7046"/>
<polygon fill="#191970" stroke="#191970" points="2209.0001,-29.6426 2205.5,-19.6427 2202.0001,-29.6427 2209.0001,-29.6426"/>
</g>
<!-- Node21&#45;&gt;Node5 -->
<g id="edge26" class="edge">
<title>Node21&#45;&gt;Node5</title>
<path fill="none" stroke="#191970" d="M1267.3715,-121.2469C1237.3066,-118.2653 1200.5203,-114.7567 1167.5,-112 941.4989,-93.1319 884.1571,-98.6135 658.5,-76 646.2584,-74.7732 632.9588,-73.1502 620.9114,-71.5694"/>
<polygon fill="#191970" stroke="#191970" points="621.0809,-68.0609 610.7047,-70.202 620.1514,-74.9989 621.0809,-68.0609"/>
</g>
<!-- Node21&#45;&gt;Node6 -->
<g id="edge27" class="edge">
<title>Node21&#45;&gt;Node6</title>
<path fill="none" stroke="#191970" d="M1267.283,-121.3783C1147.9874,-109.4487 885.9719,-83.2472 770.2992,-71.6799"/>
<polygon fill="#191970" stroke="#191970" points="770.5324,-68.1859 760.2337,-70.6734 769.8358,-75.1511 770.5324,-68.1859"/>
</g>
<!-- Node21&#45;&gt;Node16 -->
<g id="edge25" class="edge">
<title>Node21&#45;&gt;Node16</title>
<path fill="none" stroke="#191970" d="M1311.5023,-117.7706C1283.0953,-101.9969 1223.736,-71.0904 1169.5,-56 1043.9418,-21.0651 887.8143,-12.6607 821.1412,-10.6395"/>
<polygon fill="#191970" stroke="#191970" points="820.9507,-7.1331 810.8585,-10.3579 820.7589,-14.1305 820.9507,-7.1331"/>
</g>
<!-- Node21&#45;&gt;Node17 -->
<g id="edge33" class="edge">
<title>Node21&#45;&gt;Node17</title>
<path fill="none" stroke="#191970" d="M1318.0135,-117.8032C1308.0885,-108.0973 1293.4182,-92.3003 1284.5,-76 1276.5983,-61.5576 1271.415,-43.5894 1268.3095,-30.0493"/>
<polygon fill="#191970" stroke="#191970" points="1271.6568,-28.9585 1266.1755,-19.8917 1264.8064,-30.3977 1271.6568,-28.9585"/>
</g>
<!-- Node21&#45;&gt;Node19 -->
<g id="edge29" class="edge">
<title>Node21&#45;&gt;Node19</title>
<path fill="none" stroke="#191970" d="M1389.7064,-122.9475C1478.0028,-115.8565 1646.0534,-100.3995 1787.5,-76 1872.1629,-61.3957 1969.4358,-36.8848 2024.7702,-22.1974"/>
<polygon fill="#191970" stroke="#191970" points="2025.8422,-25.5339 2034.6018,-19.5739 2024.0374,-18.7705 2025.8422,-25.5339"/>
</g>
<!-- Node22 -->
<g id="node23" class="node">
<title>Node22</title>
<polygon fill="#ffffff" stroke="#bfbfbf" points="1512.5,-56.5 1512.5,-75.5 1576.5,-75.5 1576.5,-56.5 1512.5,-56.5"/>
<text text-anchor="middle" x="1544.5" y="-63.5" font-family="Helvetica,sans-Serif" font-size="10.00" fill="#000000">algorithm</text>
</g>
<!-- Node21&#45;&gt;Node22 -->
<g id="edge28" class="edge">
<title>Node21&#45;&gt;Node22</title>
<path fill="none" stroke="#191970" d="M1362.25,-117.8906C1400.1766,-107.0921 1461.7809,-89.552 1502.7165,-77.8967"/>
<polygon fill="#191970" stroke="#191970" points="1503.7366,-81.2454 1512.3959,-75.1408 1501.8196,-74.513 1503.7366,-81.2454"/>
</g>
<!-- Node23 -->
<g id="node24" class="node">
<title>Node23</title>
<polygon fill="#ffffff" stroke="#bfbfbf" points="1293,-56.5 1293,-75.5 1390,-75.5 1390,-56.5 1293,-56.5"/>
<text text-anchor="middle" x="1341.5" y="-63.5" font-family="Helvetica,sans-Serif" font-size="10.00" fill="#000000">AMReX_BCRec.H</text>
</g>
<!-- Node21&#45;&gt;Node23 -->
<g id="edge30" class="edge">
<title>Node21&#45;&gt;Node23</title>
<path fill="none" stroke="#191970" d="M1330.5313,-117.8906C1332.3522,-109.276 1335.0802,-96.3708 1337.3599,-85.5858"/>
<polygon fill="#191970" stroke="#191970" points="1340.7962,-86.2525 1339.4401,-75.7449 1333.9476,-84.8048 1340.7962,-86.2525"/>
</g>
<!-- Node24 -->
<g id="node25" class="node">
<title>Node24</title>
<polygon fill="#ffffff" stroke="#bfbfbf" points="1408.5,-56.5 1408.5,-75.5 1494.5,-75.5 1494.5,-56.5 1408.5,-56.5"/>
<text text-anchor="middle" x="1451.5" y="-63.5" font-family="Helvetica,sans-Serif" font-size="10.00" fill="#000000">AMReX_Gpu.H</text>
</g>
<!-- Node21&#45;&gt;Node24 -->
<g id="edge31" class="edge">
<title>Node21&#45;&gt;Node24</title>
<path fill="none" stroke="#191970" d="M1347.7188,-117.8906C1368.0281,-107.7359 1400.2607,-91.6196 1423.4168,-80.0416"/>
<polygon fill="#191970" stroke="#191970" points="1425.0372,-83.1446 1432.4162,-75.5419 1421.9067,-76.8836 1425.0372,-83.1446"/>
</g>
<!-- Node25 -->
<g id="node26" class="node">
<title>Node25</title>
<g id="a_node26"><a xlink:href="incflo__enums_8_h.html" target="_top" xlink:title="amr&#45;wind/incflo_enums.H">
<polygon fill="#ffffff" stroke="#000000" points="854.5,-56.5 854.5,-75.5 994.5,-75.5 994.5,-56.5 854.5,-56.5"/>
<text text-anchor="middle" x="924.5" y="-63.5" font-family="Helvetica,sans-Serif" font-size="10.00" fill="#000000">amr&#45;wind/incflo_enums.H</text>
</a>
</g>
</g>
<!-- Node21&#45;&gt;Node25 -->
<g id="edge32" class="edge">
<title>Node21&#45;&gt;Node25</title>
<path fill="none" stroke="#191970" d="M1267.1411,-118.1595C1194.6813,-107.1291 1074.2902,-88.8022 997.2137,-77.069"/>
<polygon fill="#191970" stroke="#191970" points="997.5151,-73.5747 987.1022,-75.5298 996.4616,-80.495 997.5151,-73.5747"/>
</g>
<!-- Node26 -->
<g id="node27" class="node">
<title>Node26</title>
<g id="a_node27"><a xlink:href="_view_field_8_h.html" target="_top" xlink:title="amr&#45;wind/core/ViewField.H">
<polygon fill="#ffffff" stroke="#000000" points="1632.5,-56.5 1632.5,-75.5 1778.5,-75.5 1778.5,-56.5 1632.5,-56.5"/>
<text text-anchor="middle" x="1705.5" y="-63.5" font-family="Helvetica,sans-Serif" font-size="10.00" fill="#000000">amr&#45;wind/core/ViewField.H</text>
</a>
</g>
</g>
<!-- Node21&#45;&gt;Node26 -->
<g id="edge34" class="edge">
<title>Node21&#45;&gt;Node26</title>
<path fill="none" stroke="#191970" d="M1386.9926,-117.9581C1454.5083,-106.9443 1565.4089,-88.8531 1636.9245,-77.1867"/>
<polygon fill="#191970" stroke="#191970" points="1637.8744,-80.5781 1647.1804,-75.5137 1636.7473,-73.6694 1637.8744,-80.5781"/>
</g>
<!-- Node26&#45;&gt;Node16 -->
<g id="edge35" class="edge">
<title>Node26&#45;&gt;Node16</title>
<path fill="none" stroke="#191970" d="M1632.43,-57.2841C1627.7189,-56.8202 1623.0447,-56.3868 1618.5,-56 1308.5113,-29.6177 932.0441,-15.049 820.869,-11.1054"/>
<polygon fill="#191970" stroke="#191970" points="820.7742,-7.6 810.6575,-10.7468 820.5284,-14.5957 820.7742,-7.6"/>
</g>
<!-- Node26&#45;&gt;Node17 -->
<g id="edge36" class="edge">
<title>Node26&#45;&gt;Node17</title>
<path fill="none" stroke="#191970" d="M1632.1828,-56.6899C1554.3595,-46.8076 1431.5196,-31.2088 1349.5108,-20.795"/>
<polygon fill="#191970" stroke="#191970" points="1349.8299,-17.3075 1339.4687,-19.5198 1348.9481,-24.2518 1349.8299,-17.3075"/>
</g>
<!-- Node26&#45;&gt;Node19 -->
<g id="edge37" class="edge">
<title>Node26&#45;&gt;Node19</title>
<path fill="none" stroke="#191970" d="M1767.6602,-56.4369C1834.0996,-46.2155 1938.8943,-30.0932 2005.8866,-19.7867"/>
<polygon fill="#191970" stroke="#191970" points="2006.543,-23.227 2015.8945,-18.247 2005.4785,-16.3084 2006.543,-23.227"/>
</g>
<!-- Node27 -->
<g id="node28" class="node">
<title>Node27</title>
<polygon fill="#ffffff" stroke="#bfbfbf" points="1657.5,-.5 1657.5,-19.5 1753.5,-19.5 1753.5,-.5 1657.5,-.5"/>
<text text-anchor="middle" x="1705.5" y="-7.5" font-family="Helvetica,sans-Serif" font-size="10.00" fill="#000000">AMReX_Vector.H</text>
</g>
<!-- Node26&#45;&gt;Node27 -->
<g id="edge38" class="edge">
<title>Node26&#45;&gt;Node27</title>
<path fill="none" stroke="#191970" d="M1705.5,-56.2455C1705.5,-48.9382 1705.5,-38.6944 1705.5,-29.7046"/>
<polygon fill="#191970" stroke="#191970" points="1709.0001,-29.6426 1705.5,-19.6427 1702.0001,-29.6427 1709.0001,-29.6426"/>
</g>
<!-- Node28&#45;&gt;Node16 -->
<g id="edge40" class="edge">
<title>Node28&#45;&gt;Node16</title>
<path fill="none" stroke="#191970" d="M1041.0569,-117.9477C971.9531,-104.4755 853.9355,-80.9745 845.5,-76 825.8442,-64.409 809.5756,-43.5893 799.5188,-28.4253"/>
<polygon fill="#191970" stroke="#191970" points="802.3931,-26.4222 794.085,-19.8475 796.4797,-30.1682 802.3931,-26.4222"/>
</g>
<!-- Node28&#45;&gt;Node17 -->
<g id="edge41" class="edge">
<title>Node28&#45;&gt;Node17</title>
<path fill="none" stroke="#191970" d="M1075.5845,-117.889C1055.5659,-103.8169 1024.3902,-76.9993 1041.5,-56 1057.7151,-36.0986 1114.8762,-24.5507 1167.2624,-18.0025"/>
<polygon fill="#191970" stroke="#191970" points="1167.8066,-21.4625 1177.3194,-16.7979 1166.974,-14.5122 1167.8066,-21.4625"/>
</g>
<!-- Node28&#45;&gt;Node29 -->
<g id="edge42" class="edge">
<title>Node28&#45;&gt;Node29</title>
<path fill="none" stroke="#191970" d="M1092.8438,-117.8906C1094.9449,-109.276 1098.0925,-96.3708 1100.723,-85.5858"/>
<polygon fill="#191970" stroke="#191970" points="1104.1539,-86.2894 1103.1232,-75.7449 1097.3532,-84.6307 1104.1539,-86.2894"/>
</g>
<!-- Node30&#45;&gt;Node16 -->
<g id="edge44" class="edge">
<title>Node30&#45;&gt;Node16</title>
<path fill="none" stroke="#191970" d="M1785.1358,-117.9282C1739.94,-109.6286 1676.6591,-95.8099 1623.5,-76 1605.6162,-69.3355 1603.8884,-61.1102 1585.5,-56 1510.9909,-35.2935 960.6248,-15.7285 820.7555,-11.053"/>
<polygon fill="#191970" stroke="#191970" points="820.7861,-7.5522 810.6754,-10.7181 820.5536,-14.5483 820.7861,-7.5522"/>
</g>
<!-- Node30&#45;&gt;Node17 -->
<g id="edge45" class="edge">
<title>Node30&#45;&gt;Node17</title>
<path fill="none" stroke="#191970" d="M1840.0097,-117.7778C1832.0133,-101.7213 1813.6547,-70.043 1787.5,-56 1751.045,-36.4266 1503.18,-21.4771 1362.1523,-14.4396"/>
<polygon fill="#191970" stroke="#191970" points="1361.931,-10.9244 1351.7703,-13.9261 1361.5852,-17.9159 1361.931,-10.9244"/>
</g>
<!-- Node30&#45;&gt;Node19 -->
<g id="edge47" class="edge">
<title>Node30&#45;&gt;Node19</title>
<path fill="none" stroke="#191970" d="M1909.3011,-117.9591C1960.8205,-109.1502 2027.4573,-94.6249 2047.5,-76 2060.332,-64.0757 2065.6856,-44.4793 2067.9158,-29.7309"/>
<polygon fill="#191970" stroke="#191970" points="2071.4147,-29.9405 2069.0845,-19.6051 2064.4609,-29.1378 2071.4147,-29.9405"/>
</g>
<!-- Node30&#45;&gt;Node26 -->
<g id="edge46" class="edge">
<title>Node30&#45;&gt;Node26</title>
<path fill="none" stroke="#191970" d="M1822.7813,-117.8906C1799.626,-107.6457 1762.7559,-91.3326 1736.5409,-79.7339"/>
<polygon fill="#191970" stroke="#191970" points="1737.6273,-76.3874 1727.0662,-75.5419 1734.795,-82.7888 1737.6273,-76.3874"/>
</g>
<!-- Node30&#45;&gt;Node27 -->
<g id="edge48" class="edge">
<title>Node30&#45;&gt;Node27</title>
<path fill="none" stroke="#191970" d="M1850.7764,-117.6617C1859.3653,-102.8185 1872.2364,-74.4737 1858.5,-56 1846.8775,-40.3693 1801.9557,-28.0437 1763.7709,-20.1015"/>
<polygon fill="#191970" stroke="#191970" points="1764.2183,-16.6214 1753.7241,-18.0781 1762.8362,-23.4837 1764.2183,-16.6214"/>
</g>
<!-- Node31 -->
<g id="node32" class="node">
<title>Node31</title>
<polygon fill="#ffffff" stroke="#bfbfbf" points="1910.5,-56.5 1910.5,-75.5 2038.5,-75.5 2038.5,-56.5 1910.5,-56.5"/>
<text text-anchor="middle" x="1974.5" y="-63.5" font-family="Helvetica,sans-Serif" font-size="10.00" fill="#000000">AMReX_PhysBCFunct.H</text>
</g>
<!-- Node30&#45;&gt;Node31 -->
<g id="edge49" class="edge">
<title>Node30&#45;&gt;Node31</title>
<path fill="none" stroke="#191970" d="M1864.8125,-117.8906C1886.3731,-107.6908 1920.6478,-91.4763 1945.1444,-79.8875"/>
<polygon fill="#191970" stroke="#191970" points="1946.7874,-82.9822 1954.3301,-75.5419 1943.7939,-76.6545 1946.7874,-82.9822"/>
</g>
<!-- Node32&#45;&gt;Node4 -->
<g id="edge55" class="edge">
<title>Node32&#45;&gt;Node4</title>
<path fill="none" stroke="#191970" d="M560.5,-179.2967C560.5,-169.7699 560.5,-157.3954 560.5,-147.1306"/>
<polygon fill="#191970" stroke="#191970" points="564.0001,-147.0549 560.5,-137.055 557.0001,-147.055 564.0001,-147.0549"/>
</g>
<!-- Node32&#45;&gt;Node16 -->
<g id="edge54" class="edge">
<title>Node32&#45;&gt;Node16</title>
<path fill="none" stroke="#191970" d="M482.5885,-188.487C384.1253,-180.0834 225.2482,-163.5254 207.5,-143 182.209,-113.7515 181.2597,-84.4 207.5,-56 226.2674,-35.688 636.8129,-16.5164 756.2065,-11.3546"/>
<polygon fill="#191970" stroke="#191970" points="756.3616,-14.8513 766.2024,-10.9259 756.0616,-7.8577 756.3616,-14.8513"/>
</g>
<!-- Node32&#45;&gt;Node17 -->
<g id="edge63" class="edge">
<title>Node32&#45;&gt;Node17</title>
<path fill="none" stroke="#191970" d="M482.5989,-183.7809C377.828,-166.4123 212.0025,-126.7233 279.5,-56 294.6933,-40.0807 921.2464,-20.0497 1167.0178,-12.7889"/>
<polygon fill="#191970" stroke="#191970" points="1167.477,-16.2769 1177.3696,-12.4839 1167.2708,-9.28 1167.477,-16.2769"/>
</g>
<!-- Node32&#45;&gt;Node25 -->
<g id="edge64" class="edge">
<title>Node32&#45;&gt;Node25</title>
<path fill="none" stroke="#191970" d="M638.0061,-183.6243C683.5235,-175.66 741.5429,-162.7373 790.5,-143 815.1015,-133.0818 818.5617,-125.3207 841.5,-112 860.0787,-101.211 881.2669,-89.4774 897.5851,-80.5612"/>
<polygon fill="#191970" stroke="#191970" points="899.466,-83.5223 906.5738,-75.6654 896.1177,-77.3749 899.466,-83.5223"/>
</g>
<!-- Node33 -->
<g id="node34" class="node">
<title>Node33</title>
<g id="a_node34"><a xlink:href="_coll_mgr_8_h.html" target="_top" xlink:title="amr&#45;wind/core/CollMgr.H">
<polygon fill="#ffffff" stroke="#000000" points="645.5,-118 645.5,-137 781.5,-137 781.5,-118 645.5,-118"/>
<text text-anchor="middle" x="713.5" y="-125" font-family="Helvetica,sans-Serif" font-size="10.00" fill="#000000">amr&#45;wind/core/CollMgr.H</text>
</a>
</g>
</g>
<!-- Node32&#45;&gt;Node33 -->
<g id="edge56" class="edge">
<title>Node32&#45;&gt;Node33</title>
<path fill="none" stroke="#191970" d="M594.8362,-179.4639C621.0858,-167.969 656.9674,-152.2561 682.3825,-141.1266"/>
<polygon fill="#191970" stroke="#191970" points="683.8124,-144.3214 691.5687,-137.1039 681.0045,-137.9092 683.8124,-144.3214"/>
</g>
<!-- Node34 -->
<g id="node35" class="node">
<title>Node34</title>
<g id="a_node35"><a xlink:href="_p_d_e_fields_8_h.html" target="_top" xlink:title="amr&#45;wind/equation_systems\l/PDEFields.H">
<polygon fill="#ffffff" stroke="#000000" points="0,-112.5 0,-142.5 155,-142.5 155,-112.5 0,-112.5"/>
<text text-anchor="start" x="8" y="-130.5" font-family="Helvetica,sans-Serif" font-size="10.00" fill="#000000">amr&#45;wind/equation_systems</text>
<text text-anchor="middle" x="77.5" y="-119.5" font-family="Helvetica,sans-Serif" font-size="10.00" fill="#000000">/PDEFields.H</text>
</a>
</g>
</g>
<!-- Node32&#45;&gt;Node34 -->
<g id="edge61" class="edge">
<title>Node32&#45;&gt;Node34</title>
<path fill="none" stroke="#191970" d="M482.8596,-185.1085C403.8794,-175.359 278.0057,-159.2809 169.5,-143 168.1935,-142.804 166.8769,-142.6047 165.5521,-142.4026"/>
<polygon fill="#191970" stroke="#191970" points="165.6874,-138.8817 155.2685,-140.8043 164.6123,-145.7986 165.6874,-138.8817"/>
</g>
<!-- Node33&#45;&gt;Node5 -->
<g id="edge58" class="edge">
<title>Node33&#45;&gt;Node5</title>
<path fill="none" stroke="#191970" d="M692.875,-117.8906C670.9827,-107.6908 636.1807,-91.4763 611.3073,-79.8875"/>
<polygon fill="#191970" stroke="#191970" points="612.5228,-76.5926 601.9802,-75.5419 609.5665,-82.9377 612.5228,-76.5926"/>
</g>
<!-- Node33&#45;&gt;Node6 -->
<g id="edge59" class="edge">
<title>Node33&#45;&gt;Node6</title>
<path fill="none" stroke="#191970" d="M713.5,-117.8906C713.5,-109.3657 713.5,-96.6392 713.5,-85.9235"/>
<polygon fill="#191970" stroke="#191970" points="717.0001,-85.7448 713.5,-75.7449 710.0001,-85.7449 717.0001,-85.7448"/>
</g>
<!-- Node33&#45;&gt;Node16 -->
<g id="edge57" class="edge">
<title>Node33&#45;&gt;Node16</title>
<path fill="none" stroke="#191970" d="M696.8122,-117.9714C675.2845,-104.4386 642.4085,-78.7631 658.5,-56 670.0221,-39.7008 721.6903,-25.1183 756.3163,-16.9315"/>
<polygon fill="#191970" stroke="#191970" points="757.4903,-20.2529 766.4518,-14.6013 755.9218,-13.4309 757.4903,-20.2529"/>
</g>
<!-- Node33&#45;&gt;Node27 -->
<g id="edge60" class="edge">
<title>Node33&#45;&gt;Node27</title>
<path fill="none" stroke="#191970" d="M726.5108,-117.8613C749.259,-101.6271 798.3424,-69.3019 845.5,-56 922.1252,-34.3861 1466.5502,-16.8956 1647.3214,-11.6287"/>
<polygon fill="#191970" stroke="#191970" points="1647.5375,-15.124 1657.4319,-11.3358 1647.3348,-8.1269 1647.5375,-15.124"/>
</g>
<!-- Node35 -->
<g id="node36" class="node">
<title>Node35</title>
<polygon fill="#ffffff" stroke="#bfbfbf" points="53,-56.5 53,-75.5 102,-75.5 102,-56.5 53,-56.5"/>
<text text-anchor="middle" x="77.5" y="-63.5" font-family="Helvetica,sans-Serif" font-size="10.00" fill="#000000">iosfwd</text>
</g>
<!-- Node34&#45;&gt;Node35 -->
<g id="edge62" class="edge">
<title>Node34&#45;&gt;Node35</title>
<path fill="none" stroke="#191970" d="M77.5,-112.2977C77.5,-104.3834 77.5,-94.6043 77.5,-86.0759"/>
<polygon fill="#191970" stroke="#191970" points="81.0001,-85.8469 77.5,-75.8469 74.0001,-85.847 81.0001,-85.8469"/>
</g>
<!-- Node36&#45;&gt;Node4 -->
<g id="edge66" class="edge">
<title>Node36&#45;&gt;Node4</title>
<path fill="none" stroke="#191970" d="M855.4545,-184.9636C801.1347,-174.7686 712.695,-158.036 636.5,-143 630.171,-141.7511 623.5492,-140.4268 616.966,-139.099"/>
<polygon fill="#191970" stroke="#191970" points="617.1959,-135.5746 606.7002,-137.0202 615.8066,-142.4354 617.1959,-135.5746"/>
</g>
<!-- Node36&#45;&gt;Node19 -->
<g id="edge68" class="edge">
<title>Node36&#45;&gt;Node19</title>
<path fill="none" stroke="#191970" d="M975.3322,-191.2311C1203.4444,-180.3743 1920.8924,-146.031 1932.5,-143 1997.3099,-126.0769 2031.3423,-132.3856 2067.5,-76 2076.1914,-62.4464 2075.9478,-43.8982 2073.9573,-29.9158"/>
<polygon fill="#191970" stroke="#191970" points="2077.3615,-29.0733 2072.1238,-19.8637 2070.4751,-30.3295 2077.3615,-29.0733"/>
</g>
<!-- Node36&#45;&gt;Node33 -->
<g id="edge67" class="edge">
<title>Node36&#45;&gt;Node33</title>
<path fill="none" stroke="#191970" d="M878.8478,-184.9005C845.1682,-173.2086 788.1426,-153.4122 750.6528,-140.3976"/>
<polygon fill="#191970" stroke="#191970" points="751.6957,-137.0548 741.1009,-137.0817 749.4,-143.6677 751.6957,-137.0548"/>
</g>
<!-- Node37 -->
<g id="node38" class="node">
<title>Node37</title>
<polygon fill="#ffffff" stroke="#bfbfbf" points="850,-118 850,-137 963,-137 963,-118 850,-118"/>
<text text-anchor="middle" x="906.5" y="-125" font-family="Helvetica,sans-Serif" font-size="10.00" fill="#000000">AMReX_Geometry.H</text>
</g>
<!-- Node36&#45;&gt;Node37 -->
<g id="edge69" class="edge">
<title>Node36&#45;&gt;Node37</title>
<path fill="none" stroke="#191970" d="M906.5,-184.9005C906.5,-175.149 906.5,-159.7597 906.5,-147.3695"/>
<polygon fill="#191970" stroke="#191970" points="910.0001,-147.0816 906.5,-137.0817 903.0001,-147.0817 910.0001,-147.0816"/>
</g>
</g>
</svg>
