<?xml version="1.0" encoding="UTF-8" standalone="no"?>
<!DOCTYPE svg PUBLIC "-//W3C//DTD SVG 1.1//EN"
 "http://www.w3.org/Graphics/SVG/1.1/DTD/svg11.dtd">
<!-- Generated by graphviz version 2.40.1 (20161225.0304)
 -->
<!-- Title: SDR.H Pages: 1 -->
<svg width="345pt" height="140pt"
 viewBox="0.00 0.00 344.50 140.00" xmlns="http://www.w3.org/2000/svg" xmlns:xlink="http://www.w3.org/1999/xlink">
<g id="graph0" class="graph" transform="scale(1 1) rotate(0) translate(4 136)">
<title>SDR.H</title>
<polygon fill="#ffffff" stroke="transparent" points="-4,4 -4,-136 340.5,-136 340.5,4 -4,4"/>
<!-- Node61 -->
<g id="node1" class="node">
<title>Node61</title>
<polygon fill="#bfbfbf" stroke="#000000" points="109,-112.5 109,-131.5 156,-131.5 156,-112.5 109,-112.5"/>
<text text-anchor="middle" x="132.5" y="-119.5" font-family="Helvetica,sans-Serif" font-size="10.00" fill="#000000">SDR.H</text>
</g>
<!-- Node62 -->
<g id="node2" class="node">
<title>Node62</title>
<g id="a_node2"><a xlink:href="_s_d_r_8cpp.html" target="_top" xlink:title="SDR.cpp">
<polygon fill="#ffffff" stroke="#000000" points="0,-.5 0,-19.5 57,-19.5 57,-.5 0,-.5"/>
<text text-anchor="middle" x="28.5" y="-7.5" font-family="Helvetica,sans-Serif" font-size="10.00" fill="#000000">SDR.cpp</text>
</a>
</g>
</g>
<!-- Node61&#45;&gt;Node62 -->
<g id="edge1" class="edge">
<title>Node61&#45;&gt;Node62</title>
<path fill="none" stroke="#191970" d="M98.5172,-116.5687C74.8206,-110.8284 44.8079,-99.2145 29.5,-76 18.2708,-58.9709 22.1738,-33.7145 25.5946,-19.9049"/>
<polygon fill="#191970" stroke="#191970" points="98.039,-120.0464 108.5542,-118.7497 99.5255,-113.206 98.039,-120.0464"/>
</g>
<!-- Node63 -->
<g id="node3" class="node">
<title>Node63</title>
<g id="a_node3"><a xlink:href="sdr__ops_8_h.html" target="_top" xlink:title="sdr_ops.H">
<polygon fill="#ffffff" stroke="#000000" points="39,-56.5 39,-75.5 104,-75.5 104,-56.5 39,-56.5"/>
<text text-anchor="middle" x="71.5" y="-63.5" font-family="Helvetica,sans-Serif" font-size="10.00" fill="#000000">sdr_ops.H</text>
</a>
</g>
</g>
<!-- Node61&#45;&gt;Node63 -->
<g id="edge2" class="edge">
<title>Node61&#45;&gt;Node63</title>
<path fill="none" stroke="#191970" d="M114.3751,-105.3607C103.822,-95.6727 90.8888,-83.7995 82.0036,-75.6427"/>
<polygon fill="#191970" stroke="#191970" points="112.1411,-108.0611 121.8746,-112.2455 116.875,-102.9045 112.1411,-108.0611"/>
</g>
<!-- Node64 -->
<g id="node4" class="node">
<title>Node64</title>
<g id="a_node4"><a xlink:href="_k_omega_s_s_t_i_8_h.html" target="_top" xlink:title="KOmegaSSTI.H">
<polygon fill="#ffffff" stroke="#000000" points="161,-56.5 161,-75.5 250,-75.5 250,-56.5 161,-56.5"/>
<text text-anchor="middle" x="205.5" y="-63.5" font-family="Helvetica,sans-Serif" font-size="10.00" fill="#000000">KOmegaSSTI.H</text>
</a>
</g>
</g>
<!-- Node61&#45;&gt;Node64 -->
<g id="edge4" class="edge">
<title>Node61&#45;&gt;Node64</title>
<path fill="none" stroke="#191970" d="M153.451,-105.928C166.2107,-96.1397 182.0885,-83.9595 192.9301,-75.6427"/>
<polygon fill="#191970" stroke="#191970" points="151.0196,-103.3819 145.2156,-112.2455 155.2803,-108.9359 151.0196,-103.3819"/>
</g>
<!-- Node65 -->
<g id="node5" class="node">
<title>Node65</title>
<g id="a_node5"><a xlink:href="_k_omega_s_s_t_8cpp.html" target="_top" xlink:title="KOmegaSST.cpp">
<polygon fill="#ffffff" stroke="#000000" points="89,-.5 89,-19.5 184,-19.5 184,-.5 89,-.5"/>
<text text-anchor="middle" x="136.5" y="-7.5" font-family="Helvetica,sans-Serif" font-size="10.00" fill="#000000">KOmegaSST.cpp</text>
</a>
</g>
</g>
<!-- Node61&#45;&gt;Node65 -->
<g id="edge7" class="edge">
<title>Node61&#45;&gt;Node65</title>
<path fill="none" stroke="#191970" d="M133.2046,-102.2702C134.0715,-77.9985 135.5081,-37.7725 136.1598,-19.5249"/>
<polygon fill="#191970" stroke="#191970" points="129.7003,-102.3324 132.841,-112.4509 136.6958,-102.5823 129.7003,-102.3324"/>
</g>
<!-- Node66 -->
<g id="node6" class="node">
<title>Node66</title>
<g id="a_node6"><a xlink:href="_k_omega_s_s_t_i_d_d_e_s_8cpp.html" target="_top" xlink:title="KOmegaSSTIDDES.cpp">
<polygon fill="#ffffff" stroke="#000000" points="210.5,-.5 210.5,-19.5 336.5,-19.5 336.5,-.5 210.5,-.5"/>
<text text-anchor="middle" x="273.5" y="-7.5" font-family="Helvetica,sans-Serif" font-size="10.00" fill="#000000">KOmegaSSTIDDES.cpp</text>
</a>
</g>
</g>
<!-- Node61&#45;&gt;Node66 -->
<g id="edge8" class="edge">
<title>Node61&#45;&gt;Node66</title>
<path fill="none" stroke="#191970" d="M166.3408,-118.7731C195.32,-114.172 235.9854,-103.0192 259.5,-76 273.3414,-60.0957 274.6397,-33.9274 274.1907,-19.7917"/>
<polygon fill="#191970" stroke="#191970" points="165.6632,-115.3338 156.2463,-120.1891 166.6356,-122.266 165.6632,-115.3338"/>
</g>
<!-- Node63&#45;&gt;Node62 -->
<g id="edge3" class="edge">
<title>Node63&#45;&gt;Node62</title>
<path fill="none" stroke="#191970" d="M57.8408,-48.2112C50.5737,-38.7472 41.9219,-27.4797 35.9042,-19.6427"/>
<polygon fill="#191970" stroke="#191970" points="55.1436,-50.4456 64.01,-56.2455 60.6957,-46.1824 55.1436,-50.4456"/>
</g>
<!-- Node64&#45;&gt;Node65 -->
<g id="edge5" class="edge">
<title>Node64&#45;&gt;Node65</title>
<path fill="none" stroke="#191970" d="M185.697,-49.928C173.6364,-40.1397 158.6286,-27.9595 148.3812,-19.6427"/>
<polygon fill="#191970" stroke="#191970" points="183.5109,-52.6614 193.4811,-56.2455 187.9221,-47.2262 183.5109,-52.6614"/>
</g>
<!-- Node64&#45;&gt;Node66 -->
<g id="edge6" class="edge">
<title>Node64&#45;&gt;Node66</title>
<path fill="none" stroke="#191970" d="M225.3596,-49.645C237.1858,-39.9058 251.7892,-27.8795 261.791,-19.6427"/>
<polygon fill="#191970" stroke="#191970" points="222.839,-47.1867 217.3447,-56.2455 227.289,-52.5902 222.839,-47.1867"/>
</g>
</g>
</svg>
