<?xml version="1.0" encoding="UTF-8" standalone="no"?>
<!DOCTYPE svg PUBLIC "-//W3C//DTD SVG 1.1//EN"
 "http://www.w3.org/Graphics/SVG/1.1/DTD/svg11.dtd">
<!-- Generated by graphviz version 2.40.1 (20161225.0304)
 -->
<!-- Title: SamplerBase.H Pages: 1 -->
<!--zoomable 207 -->
<svg id="main" version="1.1" xmlns="http://www.w3.org/2000/svg" xmlns:xlink="http://www.w3.org/1999/xlink" xml:space="preserve" onload="init(evt)">
<style type="text/css"><![CDATA[
.edge:hover path { stroke: red; }
.edge:hover polygon { stroke: red; fill: red; }
]]></style>
<script type="text/javascript"><![CDATA[
var edges = document.getElementsByTagName('g');
if (edges && edges.length) {
  for (var i=0;i<edges.length;i++) {
    if (edges[i].id.substr(0,4)=='edge') {
      edges[i].setAttribute('class','edge');
    }
  }
}
]]></script>
        <defs>
                <circle id="rim" cx="0" cy="0" r="7"/>
                <circle id="rim2" cx="0" cy="0" r="3.5"/>
                <g id="zoomPlus">
                        <use xlink:href="#rim" fill="#404040">
                                <set attributeName="fill" to="#808080" begin="zoomplus.mouseover" end="zoomplus.mouseout"/>
                        </use>
                        <path d="M-4,0h8M0,-4v8" fill="none" stroke="white" stroke-width="1.5" pointer-events="none"/>
                </g>
                <g id="zoomMin">
                        <use xlink:href="#rim" fill="#404040">
                                <set attributeName="fill" to="#808080" begin="zoomminus.mouseover" end="zoomminus.mouseout"/>
                        </use>
                        <path d="M-4,0h8" fill="none" stroke="white" stroke-width="1.5" pointer-events="none"/>
                </g>
                <g id="dirArrow">
                        <path fill="none" stroke="white" stroke-width="1.5" d="M0,-3.0v7 M-2.5,-0.5L0,-3.0L2.5,-0.5"/>
                </g>
               <g id="resetDef">
                       <use xlink:href="#rim2" fill="#404040">
                               <set attributeName="fill" to="#808080" begin="reset.mouseover" end="reset.mouseout"/>
                       </use>
               </g>
        </defs>

<script type="text/javascript">
var viewWidth = 1134;
var viewHeight = 207;
var sectionId = 'dynsection-1';
</script>
<script xlink:href="svgpan.js"/>
<svg id="graph" class="graph">
<g id="viewport">
<title>SamplerBase.H</title>
<polygon fill="#ffffff" stroke="transparent" points="-4,4 -4,-203 1130,-203 1130,4 -4,4"/>
<!-- Node12 -->
<g id="node1" class="node">
<title>Node12</title>
<polygon fill="#bfbfbf" stroke="#000000" points="737.5,-179.5 737.5,-198.5 829.5,-198.5 829.5,-179.5 737.5,-179.5"/>
<text text-anchor="middle" x="783.5" y="-186.5" font-family="Helvetica,sans-Serif" font-size="10.00" fill="#000000">SamplerBase.H</text>
</g>
<!-- Node13 -->
<g id="node2" class="node">
<title>Node13</title>
<g id="a_node2"><a xlink:href="_a_b_l_stats_8_h.html" target="_top" xlink:title="ABLStats.H">
<polygon fill="#ffffff" stroke="#000000" points="466,-123.5 466,-142.5 537,-142.5 537,-123.5 466,-123.5"/>
<text text-anchor="middle" x="501.5" y="-130.5" font-family="Helvetica,sans-Serif" font-size="10.00" fill="#000000">ABLStats.H</text>
</a>
</g>
</g>
<!-- Node12&#45;&gt;Node13 -->
<g id="edge1" class="edge">
<title>Node12&#45;&gt;Node13</title>
<path fill="none" stroke="#191970" d="M727.3734,-177.8543C670.7171,-166.6034 584.9433,-149.5703 537.0464,-140.0589"/>
<polygon fill="#191970" stroke="#191970" points="726.759,-181.3006 737.2492,-179.8154 728.1225,-174.4346 726.759,-181.3006"/>
</g>
<!-- Node23 -->
<g id="node12" class="node">
<title>Node23</title>
<g id="a_node12"><a xlink:href="_line_sampler_8_h.html" target="_top" xlink:title="LineSampler.H">
<polygon fill="#ffffff" stroke="#000000" points="570,-123.5 570,-142.5 657,-142.5 657,-123.5 570,-123.5"/>
<text text-anchor="middle" x="613.5" y="-130.5" font-family="Helvetica,sans-Serif" font-size="10.00" fill="#000000">LineSampler.H</text>
</a>
</g>
</g>
<!-- Node12&#45;&gt;Node23 -->
<g id="edge11" class="edge">
<title>Node12&#45;&gt;Node23</title>
<path fill="none" stroke="#191970" d="M744.614,-176.1905C713.4688,-165.9309 670.4777,-151.7691 642.3427,-142.5011"/>
<polygon fill="#191970" stroke="#191970" points="743.6829,-179.5687 754.276,-179.3733 745.8731,-172.9202 743.6829,-179.5687"/>
</g>
<!-- Node25 -->
<g id="node14" class="node">
<title>Node25</title>
<g id="a_node14"><a xlink:href="_plane_sampler_8_h.html" target="_top" xlink:title="PlaneSampler.H">
<polygon fill="#ffffff" stroke="#000000" points="680.5,-123.5 680.5,-142.5 774.5,-142.5 774.5,-123.5 680.5,-123.5"/>
<text text-anchor="middle" x="727.5" y="-130.5" font-family="Helvetica,sans-Serif" font-size="10.00" fill="#000000">PlaneSampler.H</text>
</a>
</g>
</g>
<!-- Node12&#45;&gt;Node25 -->
<g id="edge13" class="edge">
<title>Node12&#45;&gt;Node25</title>
<path fill="none" stroke="#191970" d="M766.5751,-172.0751C756.9402,-162.4402 745.2196,-150.7196 737.1427,-142.6427"/>
<polygon fill="#191970" stroke="#191970" points="764.1996,-174.6493 773.7455,-179.2455 769.1493,-169.6996 764.1996,-174.6493"/>
</g>
<!-- Node27 -->
<g id="node16" class="node">
<title>Node27</title>
<g id="a_node16"><a xlink:href="_probe_sampler_8_h.html" target="_top" xlink:title="ProbeSampler.H">
<polygon fill="#ffffff" stroke="#000000" points="793,-123.5 793,-142.5 888,-142.5 888,-123.5 793,-123.5"/>
<text text-anchor="middle" x="840.5" y="-130.5" font-family="Helvetica,sans-Serif" font-size="10.00" fill="#000000">ProbeSampler.H</text>
</a>
</g>
</g>
<!-- Node12&#45;&gt;Node27 -->
<g id="edge15" class="edge">
<title>Node12&#45;&gt;Node27</title>
<path fill="none" stroke="#191970" d="M800.7271,-172.0751C810.5341,-162.4402 822.464,-150.7196 830.6851,-142.6427"/>
<polygon fill="#191970" stroke="#191970" points="798.1091,-169.7406 793.4286,-179.2455 803.0149,-174.734 798.1091,-169.7406"/>
</g>
<!-- Node29 -->
<g id="node18" class="node">
<title>Node29</title>
<g id="a_node18"><a xlink:href="_sampling_8_h.html" target="_top" xlink:title="Sampling.H">
<polygon fill="#ffffff" stroke="#000000" points="906,-123.5 906,-142.5 979,-142.5 979,-123.5 906,-123.5"/>
<text text-anchor="middle" x="942.5" y="-130.5" font-family="Helvetica,sans-Serif" font-size="10.00" fill="#000000">Sampling.H</text>
</a>
</g>
</g>
<!-- Node12&#45;&gt;Node29 -->
<g id="edge17" class="edge">
<title>Node12&#45;&gt;Node29</title>
<path fill="none" stroke="#191970" d="M820.629,-175.9231C849.695,-165.686 889.4369,-151.6889 915.5236,-142.5011"/>
<polygon fill="#191970" stroke="#191970" points="819.1025,-172.75 810.8331,-179.3733 821.4279,-179.3524 819.1025,-172.75"/>
</g>
<!-- Node31 -->
<g id="node20" class="node">
<title>Node31</title>
<g id="a_node20"><a xlink:href="_sampling_container_8cpp.html" target="_top" xlink:title="SamplingContainer.cpp">
<polygon fill="#ffffff" stroke="#000000" points="997,-123.5 997,-142.5 1126,-142.5 1126,-123.5 997,-123.5"/>
<text text-anchor="middle" x="1061.5" y="-130.5" font-family="Helvetica,sans-Serif" font-size="10.00" fill="#000000">SamplingContainer.cpp</text>
</a>
</g>
</g>
<!-- Node12&#45;&gt;Node31 -->
<g id="edge19" class="edge">
<title>Node12&#45;&gt;Node31</title>
<path fill="none" stroke="#191970" d="M839.6462,-177.69C890.9417,-167.3571 965.9422,-152.2491 1014.2409,-142.5198"/>
<polygon fill="#191970" stroke="#191970" points="838.83,-174.284 829.7181,-179.6899 840.2124,-181.1462 838.83,-174.284"/>
</g>
<!-- Node14 -->
<g id="node3" class="node">
<title>Node14</title>
<g id="a_node3"><a xlink:href="_a_b_l_8_h.html" target="_top" xlink:title="ABL.H">
<polygon fill="#ffffff" stroke="#000000" points="397.5,-67.5 397.5,-86.5 443.5,-86.5 443.5,-67.5 397.5,-67.5"/>
<text text-anchor="middle" x="420.5" y="-74.5" font-family="Helvetica,sans-Serif" font-size="10.00" fill="#000000">ABL.H</text>
</a>
</g>
</g>
<!-- Node13&#45;&gt;Node14 -->
<g id="edge2" class="edge">
<title>Node13&#45;&gt;Node14</title>
<path fill="none" stroke="#191970" d="M479.066,-117.49C464.7746,-107.6096 446.7084,-95.1194 434.4474,-86.6427"/>
<polygon fill="#191970" stroke="#191970" points="477.1749,-120.4376 487.3909,-123.2455 481.1557,-114.6797 477.1749,-120.4376"/>
</g>
<!-- Node22 -->
<g id="node11" class="node">
<title>Node22</title>
<g id="a_node11"><a xlink:href="_a_b_l_stats_8cpp.html" target="_top" xlink:title="ABLStats.cpp">
<polygon fill="#ffffff" stroke="#000000" points="461.5,-67.5 461.5,-86.5 541.5,-86.5 541.5,-67.5 461.5,-67.5"/>
<text text-anchor="middle" x="501.5" y="-74.5" font-family="Helvetica,sans-Serif" font-size="10.00" fill="#000000">ABLStats.cpp</text>
</a>
</g>
</g>
<!-- Node13&#45;&gt;Node22 -->
<g id="edge10" class="edge">
<title>Node13&#45;&gt;Node22</title>
<path fill="none" stroke="#191970" d="M501.5,-113.1575C501.5,-104.155 501.5,-93.9199 501.5,-86.6427"/>
<polygon fill="#191970" stroke="#191970" points="498.0001,-113.2455 501.5,-123.2455 505.0001,-113.2456 498.0001,-113.2455"/>
</g>
<!-- Node15 -->
<g id="node4" class="node">
<title>Node15</title>
<g id="a_node4"><a xlink:href="incflo__set__velocity__bcs_8cpp.html" target="_top" xlink:title="incflo_set_velocity\l_bcs.cpp">
<polygon fill="#ffffff" stroke="#000000" points="0,-.5 0,-30.5 107,-30.5 107,-.5 0,-.5"/>
<text text-anchor="start" x="8" y="-18.5" font-family="Helvetica,sans-Serif" font-size="10.00" fill="#000000">incflo_set_velocity</text>
<text text-anchor="middle" x="53.5" y="-7.5" font-family="Helvetica,sans-Serif" font-size="10.00" fill="#000000">_bcs.cpp</text>
</a>
</g>
</g>
<!-- Node14&#45;&gt;Node15 -->
<g id="edge3" class="edge">
<title>Node14&#45;&gt;Node15</title>
<path fill="none" stroke="#191970" d="M387.3289,-73.0495C331.1155,-66.1202 213.6699,-50.6278 115.5,-31 112.78,-30.4562 110,-29.8708 107.1977,-29.257"/>
<polygon fill="#191970" stroke="#191970" points="387.0624,-76.5429 397.4131,-74.2814 387.9113,-69.5946 387.0624,-76.5429"/>
</g>
<!-- Node16 -->
<g id="node5" class="node">
<title>Node16</title>
<g id="a_node5"><a xlink:href="_a_b_l_forcing_8cpp.html" target="_top" xlink:title="ABLForcing.cpp">
<polygon fill="#ffffff" stroke="#000000" points="125,-6 125,-25 216,-25 216,-6 125,-6"/>
<text text-anchor="middle" x="170.5" y="-13" font-family="Helvetica,sans-Serif" font-size="10.00" fill="#000000">ABLForcing.cpp</text>
</a>
</g>
</g>
<!-- Node14&#45;&gt;Node16 -->
<g id="edge4" class="edge">
<title>Node14&#45;&gt;Node16</title>
<path fill="none" stroke="#191970" d="M387.2155,-69.7105C348.1233,-61.0284 281.3842,-45.8296 224.5,-31 217.4214,-29.1546 209.8556,-27.0602 202.6956,-25.0209"/>
<polygon fill="#191970" stroke="#191970" points="386.9573,-73.2379 397.4773,-71.9807 388.4694,-66.4032 386.9573,-73.2379"/>
</g>
<!-- Node17 -->
<g id="node6" class="node">
<title>Node17</title>
<g id="a_node6"><a xlink:href="_a_b_l_mean_boussinesq_8cpp.html" target="_top" xlink:title="ABLMeanBoussinesq.cpp">
<polygon fill="#ffffff" stroke="#000000" points="234,-6 234,-25 371,-25 371,-6 234,-6"/>
<text text-anchor="middle" x="302.5" y="-13" font-family="Helvetica,sans-Serif" font-size="10.00" fill="#000000">ABLMeanBoussinesq.cpp</text>
</a>
</g>
</g>
<!-- Node14&#45;&gt;Node17 -->
<g id="edge5" class="edge">
<title>Node14&#45;&gt;Node17</title>
<path fill="none" stroke="#191970" d="M393.1133,-62.7264C370.8826,-51.1401 340.1546,-35.1251 320.808,-25.0419"/>
<polygon fill="#191970" stroke="#191970" points="391.577,-65.8725 402.0625,-67.3906 394.8123,-59.665 391.577,-65.8725"/>
</g>
<!-- Node18 -->
<g id="node7" class="node">
<title>Node18</title>
<g id="a_node7"><a xlink:href="incflo_8cpp.html" target="_top" xlink:title="incflo.cpp">
<polygon fill="#ffffff" stroke="#000000" points="389,-6 389,-25 452,-25 452,-6 389,-6"/>
<text text-anchor="middle" x="420.5" y="-13" font-family="Helvetica,sans-Serif" font-size="10.00" fill="#000000">incflo.cpp</text>
</a>
</g>
</g>
<!-- Node14&#45;&gt;Node18 -->
<g id="edge6" class="edge">
<title>Node14&#45;&gt;Node18</title>
<path fill="none" stroke="#191970" d="M420.5,-57.2462C420.5,-46.5519 420.5,-33.814 420.5,-25.2449"/>
<polygon fill="#191970" stroke="#191970" points="417.0001,-57.3906 420.5,-67.3906 424.0001,-57.3907 417.0001,-57.3906"/>
</g>
<!-- Node19 -->
<g id="node8" class="node">
<title>Node19</title>
<g id="a_node8"><a xlink:href="init_8cpp.html" target="_top" xlink:title="init.cpp">
<polygon fill="#ffffff" stroke="#000000" points="470,-6 470,-25 523,-25 523,-6 470,-6"/>
<text text-anchor="middle" x="496.5" y="-13" font-family="Helvetica,sans-Serif" font-size="10.00" fill="#000000">init.cpp</text>
</a>
</g>
</g>
<!-- Node14&#45;&gt;Node19 -->
<g id="edge7" class="edge">
<title>Node14&#45;&gt;Node19</title>
<path fill="none" stroke="#191970" d="M440.434,-60.8692C454.4125,-49.5576 472.6419,-34.8062 484.4576,-25.2449"/>
<polygon fill="#191970" stroke="#191970" points="437.947,-58.3793 432.375,-67.3906 442.3504,-63.8209 437.947,-58.3793"/>
</g>
<!-- Node20 -->
<g id="node9" class="node">
<title>Node20</title>
<g id="a_node9"><a xlink:href="_a_b_l_8cpp.html" target="_top" xlink:title="ABL.cpp">
<polygon fill="#ffffff" stroke="#000000" points="541.5,-6 541.5,-25 597.5,-25 597.5,-6 541.5,-6"/>
<text text-anchor="middle" x="569.5" y="-13" font-family="Helvetica,sans-Serif" font-size="10.00" fill="#000000">ABL.cpp</text>
</a>
</g>
</g>
<!-- Node14&#45;&gt;Node20 -->
<g id="edge8" class="edge">
<title>Node14&#45;&gt;Node20</title>
<path fill="none" stroke="#191970" d="M453.2181,-63.4955C481.4132,-51.858 521.4078,-35.3501 546.3822,-25.0419"/>
<polygon fill="#191970" stroke="#191970" points="451.6894,-60.34 443.7813,-67.3906 454.3602,-66.8105 451.6894,-60.34"/>
</g>
<!-- Node21 -->
<g id="node10" class="node">
<title>Node21</title>
<g id="a_node10"><a xlink:href="_a_b_l_wall_function_8cpp.html" target="_top" xlink:title="ABLWallFunction.cpp">
<polygon fill="#ffffff" stroke="#000000" points="615.5,-6 615.5,-25 731.5,-25 731.5,-6 615.5,-6"/>
<text text-anchor="middle" x="673.5" y="-13" font-family="Helvetica,sans-Serif" font-size="10.00" fill="#000000">ABLWallFunction.cpp</text>
</a>
</g>
</g>
<!-- Node14&#45;&gt;Node21 -->
<g id="edge9" class="edge">
<title>Node14&#45;&gt;Node21</title>
<path fill="none" stroke="#191970" d="M453.3218,-67.0781C485.1453,-59.2395 577.8209,-37.7072 632.4372,-25.0286"/>
<polygon fill="#191970" stroke="#191970" points="452.334,-63.718 443.5122,-69.5854 454.0675,-70.5 452.334,-63.718"/>
</g>
<!-- Node24 -->
<g id="node13" class="node">
<title>Node24</title>
<g id="a_node13"><a xlink:href="_line_sampler_8cpp.html" target="_top" xlink:title="LineSampler.cpp">
<polygon fill="#ffffff" stroke="#000000" points="560,-67.5 560,-86.5 657,-86.5 657,-67.5 560,-67.5"/>
<text text-anchor="middle" x="608.5" y="-74.5" font-family="Helvetica,sans-Serif" font-size="10.00" fill="#000000">LineSampler.cpp</text>
</a>
</g>
</g>
<!-- Node23&#45;&gt;Node24 -->
<g id="edge12" class="edge">
<title>Node23&#45;&gt;Node24</title>
<path fill="none" stroke="#191970" d="M611.7283,-113.1575C610.9246,-104.155 610.0107,-93.9199 609.361,-86.6427"/>
<polygon fill="#191970" stroke="#191970" points="608.2535,-113.5965 612.6291,-123.2455 615.2258,-112.9739 608.2535,-113.5965"/>
</g>
<!-- Node26 -->
<g id="node15" class="node">
<title>Node26</title>
<g id="a_node15"><a xlink:href="_plane_sampler_8cpp.html" target="_top" xlink:title="PlaneSampler.cpp">
<polygon fill="#ffffff" stroke="#000000" points="675.5,-67.5 675.5,-86.5 779.5,-86.5 779.5,-67.5 675.5,-67.5"/>
<text text-anchor="middle" x="727.5" y="-74.5" font-family="Helvetica,sans-Serif" font-size="10.00" fill="#000000">PlaneSampler.cpp</text>
</a>
</g>
</g>
<!-- Node25&#45;&gt;Node26 -->
<g id="edge14" class="edge">
<title>Node25&#45;&gt;Node26</title>
<path fill="none" stroke="#191970" d="M727.5,-113.1575C727.5,-104.155 727.5,-93.9199 727.5,-86.6427"/>
<polygon fill="#191970" stroke="#191970" points="724.0001,-113.2455 727.5,-123.2455 731.0001,-113.2456 724.0001,-113.2455"/>
</g>
<!-- Node28 -->
<g id="node17" class="node">
<title>Node28</title>
<g id="a_node17"><a xlink:href="_probe_sampler_8cpp.html" target="_top" xlink:title="ProbeSampler.cpp">
<polygon fill="#ffffff" stroke="#000000" points="797.5,-67.5 797.5,-86.5 901.5,-86.5 901.5,-67.5 797.5,-67.5"/>
<text text-anchor="middle" x="849.5" y="-74.5" font-family="Helvetica,sans-Serif" font-size="10.00" fill="#000000">ProbeSampler.cpp</text>
</a>
</g>
</g>
<!-- Node27&#45;&gt;Node28 -->
<g id="edge16" class="edge">
<title>Node27&#45;&gt;Node28</title>
<path fill="none" stroke="#191970" d="M843.689,-113.1575C845.1358,-104.155 846.7807,-93.9199 847.9503,-86.6427"/>
<polygon fill="#191970" stroke="#191970" points="840.1989,-112.8168 842.0677,-123.2455 847.1102,-113.9276 840.1989,-112.8168"/>
</g>
<!-- Node30 -->
<g id="node19" class="node">
<title>Node30</title>
<g id="a_node19"><a xlink:href="_sampling_8cpp.html" target="_top" xlink:title="Sampling.cpp">
<polygon fill="#ffffff" stroke="#000000" points="920,-67.5 920,-86.5 1003,-86.5 1003,-67.5 920,-67.5"/>
<text text-anchor="middle" x="961.5" y="-74.5" font-family="Helvetica,sans-Serif" font-size="10.00" fill="#000000">Sampling.cpp</text>
</a>
</g>
</g>
<!-- Node29&#45;&gt;Node30 -->
<g id="edge18" class="edge">
<title>Node29&#45;&gt;Node30</title>
<path fill="none" stroke="#191970" d="M949.0315,-113.7493C952.1336,-104.6064 955.7051,-94.0798 958.2284,-86.6427"/>
<polygon fill="#191970" stroke="#191970" points="945.7082,-112.6512 945.8095,-123.2455 952.337,-114.9003 945.7082,-112.6512"/>
</g>
</g>
</svg>
        <g id="navigator" transform="translate(0 0)" fill="#404254">
                <rect fill="#f2f5e9" fill-opacity="0.5" stroke="#606060" stroke-width=".5" x="0" y="0" width="60" height="60"/>
                <use id="zoomplus" xlink:href="#zoomPlus" x="17" y="9" onmousedown="handleZoom(evt,'in')"/>
                <use id="zoomminus" xlink:href="#zoomMin" x="42" y="9" onmousedown="handleZoom(evt,'out')"/>
                <use id="reset" xlink:href="#resetDef" x="30" y="36" onmousedown="handleReset()"/>
                <g id="arrowUp" xlink:href="#dirArrow" transform="translate(30 24)" onmousedown="handlePan(0,-1)">
                  <use xlink:href="#rim" fill="#404040">
                        <set attributeName="fill" to="#808080" begin="arrowUp.mouseover" end="arrowUp.mouseout"/>
                  </use>
                  <path fill="none" stroke="white" stroke-width="1.5" d="M0,-3.0v7 M-2.5,-0.5L0,-3.0L2.5,-0.5"/>
                </g>
                <g id="arrowRight" xlink:href="#dirArrow" transform="rotate(90) translate(36 -43)" onmousedown="handlePan(1,0)">
                  <use xlink:href="#rim" fill="#404040">
                        <set attributeName="fill" to="#808080" begin="arrowRight.mouseover" end="arrowRight.mouseout"/>
                  </use>
                  <path fill="none" stroke="white" stroke-width="1.5" d="M0,-3.0v7 M-2.5,-0.5L0,-3.0L2.5,-0.5"/>
                </g>
                <g id="arrowDown" xlink:href="#dirArrow" transform="rotate(180) translate(-30 -48)" onmousedown="handlePan(0,1)">
                  <use xlink:href="#rim" fill="#404040">
                        <set attributeName="fill" to="#808080" begin="arrowDown.mouseover" end="arrowDown.mouseout"/>
                  </use>
                  <path fill="none" stroke="white" stroke-width="1.5" d="M0,-3.0v7 M-2.5,-0.5L0,-3.0L2.5,-0.5"/>
                </g>
                <g id="arrowLeft" xlink:href="#dirArrow" transform="rotate(270) translate(-36 17)" onmousedown="handlePan(-1,0)">
                  <use xlink:href="#rim" fill="#404040">
                        <set attributeName="fill" to="#808080" begin="arrowLeft.mouseover" end="arrowLeft.mouseout"/>
                  </use>
                  <path fill="none" stroke="white" stroke-width="1.5" d="M0,-3.0v7 M-2.5,-0.5L0,-3.0L2.5,-0.5"/>
                </g>
        </g>
        <svg viewBox="0 0 15 15" width="100%" height="30px" preserveAspectRatio="xMaxYMin meet">
         <g id="arrow_out" transform="scale(0.3 0.3)">
          <a xlink:href="_sampler_base_8_h__dep__incl_org.svg" target="_base">
           <rect id="button" ry="5" rx="5" y="6" x="6" height="38" width="38"
                fill="#f2f5e9" fill-opacity="0.5" stroke="#606060" stroke-width="1.0"/>
           <path id="arrow"
             d="M 11.500037,31.436501 C 11.940474,20.09759 22.043105,11.32322 32.158766,21.979434 L 37.068811,17.246167 C 37.068811,17.246167 37.088388,32 37.088388,32 L 22.160133,31.978069 C 22.160133,31.978069 26.997745,27.140456 26.997745,27.140456 C 18.528582,18.264221 13.291696,25.230495 11.500037,31.436501 z"
             style="fill:#404040;"/>
          </a>
         </g>
        </svg>
</svg>
