<?xml version="1.0" encoding="UTF-8" standalone="no"?>
<!DOCTYPE svg PUBLIC "-//W3C//DTD SVG 1.1//EN"
 "http://www.w3.org/Graphics/SVG/1.1/DTD/svg11.dtd">
<!-- Generated by graphviz version 2.40.1 (20161225.0304)
 -->
<!-- Title: SamplingContainer.cpp Pages: 1 -->
<svg width="1399pt" height="218pt"
 viewBox="0.00 0.00 1399.00 218.00" xmlns="http://www.w3.org/2000/svg" xmlns:xlink="http://www.w3.org/1999/xlink">
<g id="graph0" class="graph" transform="scale(1 1) rotate(0) translate(4 214)">
<title>SamplingContainer.cpp</title>
<polygon fill="#ffffff" stroke="transparent" points="-4,4 -4,-214 1395,-214 1395,4 -4,4"/>
<!-- Node0 -->
<g id="node1" class="node">
<title>Node0</title>
<polygon fill="#bfbfbf" stroke="#000000" points="412,-190.5 412,-209.5 541,-209.5 541,-190.5 412,-190.5"/>
<text text-anchor="middle" x="476.5" y="-197.5" font-family="Helvetica,sans-Serif" font-size="10.00" fill="#000000">SamplingContainer.cpp</text>
</g>
<!-- Node1 -->
<g id="node2" class="node">
<title>Node1</title>
<g id="a_node2"><a xlink:href="_sampling_container_8_h.html" target="_top" xlink:title="amr&#45;wind/utilities\l/sampling/SamplingContainer.H">
<polygon fill="#ffffff" stroke="#000000" points="216.5,-123.5 216.5,-153.5 386.5,-153.5 386.5,-123.5 216.5,-123.5"/>
<text text-anchor="start" x="224.5" y="-141.5" font-family="Helvetica,sans-Serif" font-size="10.00" fill="#000000">amr&#45;wind/utilities</text>
<text text-anchor="middle" x="301.5" y="-130.5" font-family="Helvetica,sans-Serif" font-size="10.00" fill="#000000">/sampling/SamplingContainer.H</text>
</a>
</g>
</g>
<!-- Node0&#45;&gt;Node1 -->
<g id="edge1" class="edge">
<title>Node0&#45;&gt;Node1</title>
<path fill="none" stroke="#191970" d="M449.1563,-190.3906C423.7178,-181.4508 385.1315,-167.8905 353.7835,-156.8739"/>
<polygon fill="#191970" stroke="#191970" points="354.9046,-153.5581 344.3098,-153.5446 352.5837,-160.1622 354.9046,-153.5581"/>
</g>
<!-- Node4 -->
<g id="node5" class="node">
<title>Node4</title>
<g id="a_node5"><a xlink:href="_sampler_base_8_h.html" target="_top" xlink:title="amr&#45;wind/utilities\l/sampling/SamplerBase.H">
<polygon fill="#ffffff" stroke="#000000" points="405,-123.5 405,-153.5 548,-153.5 548,-123.5 405,-123.5"/>
<text text-anchor="start" x="413" y="-141.5" font-family="Helvetica,sans-Serif" font-size="10.00" fill="#000000">amr&#45;wind/utilities</text>
<text text-anchor="middle" x="476.5" y="-130.5" font-family="Helvetica,sans-Serif" font-size="10.00" fill="#000000">/sampling/SamplerBase.H</text>
</a>
</g>
</g>
<!-- Node0&#45;&gt;Node4 -->
<g id="edge4" class="edge">
<title>Node0&#45;&gt;Node4</title>
<path fill="none" stroke="#191970" d="M476.5,-190.3906C476.5,-183.2234 476.5,-173.0862 476.5,-163.671"/>
<polygon fill="#191970" stroke="#191970" points="480.0001,-163.5446 476.5,-153.5446 473.0001,-163.5446 480.0001,-163.5446"/>
</g>
<!-- Node15 -->
<g id="node16" class="node">
<title>Node15</title>
<g id="a_node16"><a xlink:href="_field_8_h.html" target="_top" xlink:title="amr&#45;wind/core/Field.H">
<polygon fill="#ffffff" stroke="#000000" points="737.5,-129 737.5,-148 859.5,-148 859.5,-129 737.5,-129"/>
<text text-anchor="middle" x="798.5" y="-136" font-family="Helvetica,sans-Serif" font-size="10.00" fill="#000000">amr&#45;wind/core/Field.H</text>
</a>
</g>
</g>
<!-- Node0&#45;&gt;Node15 -->
<g id="edge17" class="edge">
<title>Node0&#45;&gt;Node15</title>
<path fill="none" stroke="#191970" d="M526.4592,-190.4581C583.7706,-179.512 677.6834,-161.5752 738.7986,-149.9026"/>
<polygon fill="#191970" stroke="#191970" points="739.5227,-153.3276 748.6885,-148.0137 738.2094,-146.4519 739.5227,-153.3276"/>
</g>
<!-- Node2 -->
<g id="node3" class="node">
<title>Node2</title>
<polygon fill="#ffffff" stroke="#bfbfbf" points="264.5,-.5 264.5,-19.5 322.5,-19.5 322.5,-.5 264.5,-.5"/>
<text text-anchor="middle" x="293.5" y="-7.5" font-family="Helvetica,sans-Serif" font-size="10.00" fill="#000000">memory</text>
</g>
<!-- Node1&#45;&gt;Node2 -->
<g id="edge2" class="edge">
<title>Node1&#45;&gt;Node2</title>
<path fill="none" stroke="#191970" d="M300.5509,-123.2548C299.1015,-99.9744 296.3365,-55.5607 294.7334,-29.8117"/>
<polygon fill="#191970" stroke="#191970" points="298.2208,-29.499 294.1061,-19.7358 291.2343,-29.934 298.2208,-29.499"/>
</g>
<!-- Node3 -->
<g id="node4" class="node">
<title>Node3</title>
<polygon fill="#ffffff" stroke="#bfbfbf" points="1.5,-62 1.5,-81 129.5,-81 129.5,-62 1.5,-62"/>
<text text-anchor="middle" x="65.5" y="-69" font-family="Helvetica,sans-Serif" font-size="10.00" fill="#000000">AMReX_AmrParticles.H</text>
</g>
<!-- Node1&#45;&gt;Node3 -->
<g id="edge3" class="edge">
<title>Node1&#45;&gt;Node3</title>
<path fill="none" stroke="#191970" d="M248.537,-123.4639C206.4062,-111.503 148.1895,-94.9754 108.813,-83.7965"/>
<polygon fill="#191970" stroke="#191970" points="109.557,-80.3695 98.9813,-81.0053 107.6453,-87.1034 109.557,-80.3695"/>
</g>
<!-- Node5 -->
<g id="node6" class="node">
<title>Node5</title>
<g id="a_node6"><a xlink:href="_factory_8_h.html" target="_top" xlink:title="amr&#45;wind/core/Factory.H">
<polygon fill="#ffffff" stroke="#000000" points="147.5,-62 147.5,-81 281.5,-81 281.5,-62 147.5,-62"/>
<text text-anchor="middle" x="214.5" y="-69" font-family="Helvetica,sans-Serif" font-size="10.00" fill="#000000">amr&#45;wind/core/Factory.H</text>
</a>
</g>
</g>
<!-- Node4&#45;&gt;Node5 -->
<g id="edge5" class="edge">
<title>Node4&#45;&gt;Node5</title>
<path fill="none" stroke="#191970" d="M417.7021,-123.4639C370.5326,-111.4015 305.2004,-94.6944 261.4756,-83.5128"/>
<polygon fill="#191970" stroke="#191970" points="262.2253,-80.092 251.6699,-81.0053 260.491,-86.8738 262.2253,-80.092"/>
</g>
<!-- Node10 -->
<g id="node11" class="node">
<title>Node10</title>
<g id="a_node11"><a xlink:href="nc__interface_8_h.html" target="_top" xlink:title="Interface to NetCDF library. ">
<polygon fill="#ffffff" stroke="#000000" points="414,-56.5 414,-86.5 539,-86.5 539,-56.5 414,-56.5"/>
<text text-anchor="start" x="422" y="-74.5" font-family="Helvetica,sans-Serif" font-size="10.00" fill="#000000">amr&#45;wind/utilities</text>
<text text-anchor="middle" x="476.5" y="-63.5" font-family="Helvetica,sans-Serif" font-size="10.00" fill="#000000">/ncutils/nc_interface.H</text>
</a>
</g>
</g>
<!-- Node4&#45;&gt;Node10 -->
<g id="edge11" class="edge">
<title>Node4&#45;&gt;Node10</title>
<path fill="none" stroke="#191970" d="M476.5,-123.2967C476.5,-115.5013 476.5,-105.7991 476.5,-96.9064"/>
<polygon fill="#191970" stroke="#191970" points="480.0001,-96.6431 476.5,-86.6432 473.0001,-96.6432 480.0001,-96.6431"/>
</g>
<!-- Node5&#45;&gt;Node2 -->
<g id="edge6" class="edge">
<title>Node5&#45;&gt;Node2</title>
<path fill="none" stroke="#191970" d="M226.8438,-61.8906C239.2503,-52.2324 258.5843,-37.1812 273.2413,-25.771"/>
<polygon fill="#191970" stroke="#191970" points="275.5021,-28.4466 281.2429,-19.5419 271.2021,-22.923 275.5021,-28.4466"/>
</g>
<!-- Node6 -->
<g id="node7" class="node">
<title>Node6</title>
<polygon fill="#ffffff" stroke="#bfbfbf" points="341,-.5 341,-19.5 434,-19.5 434,-.5 341,-.5"/>
<text text-anchor="middle" x="387.5" y="-7.5" font-family="Helvetica,sans-Serif" font-size="10.00" fill="#000000">unordered_map</text>
</g>
<!-- Node5&#45;&gt;Node6 -->
<g id="edge7" class="edge">
<title>Node5&#45;&gt;Node6</title>
<path fill="none" stroke="#191970" d="M241.5313,-61.8906C270.9851,-51.42 318.2689,-34.6111 351.0027,-22.9745"/>
<polygon fill="#191970" stroke="#191970" points="352.4086,-26.1893 360.6586,-19.5419 350.0639,-19.5937 352.4086,-26.1893"/>
</g>
<!-- Node7 -->
<g id="node8" class="node">
<title>Node7</title>
<polygon fill="#ffffff" stroke="#bfbfbf" points="186.5,-.5 186.5,-19.5 246.5,-19.5 246.5,-.5 186.5,-.5"/>
<text text-anchor="middle" x="216.5" y="-7.5" font-family="Helvetica,sans-Serif" font-size="10.00" fill="#000000">iostream</text>
</g>
<!-- Node5&#45;&gt;Node7 -->
<g id="edge8" class="edge">
<title>Node5&#45;&gt;Node7</title>
<path fill="none" stroke="#191970" d="M214.8125,-61.8906C215.0897,-53.3657 215.5036,-40.6392 215.8521,-29.9235"/>
<polygon fill="#191970" stroke="#191970" points="219.3561,-29.8534 216.1831,-19.7449 212.3598,-29.6258 219.3561,-29.8534"/>
</g>
<!-- Node8 -->
<g id="node9" class="node">
<title>Node8</title>
<polygon fill="#ffffff" stroke="#bfbfbf" points="0,-.5 0,-19.5 89,-19.5 89,-.5 0,-.5"/>
<text text-anchor="middle" x="44.5" y="-7.5" font-family="Helvetica,sans-Serif" font-size="10.00" fill="#000000">AMReX_Print.H</text>
</g>
<!-- Node5&#45;&gt;Node8 -->
<g id="edge9" class="edge">
<title>Node5&#45;&gt;Node8</title>
<path fill="none" stroke="#191970" d="M187.9375,-61.8906C158.9944,-51.42 112.5306,-34.6111 80.3644,-22.9745"/>
<polygon fill="#191970" stroke="#191970" points="81.4702,-19.6526 70.876,-19.5419 79.0889,-26.2351 81.4702,-19.6526"/>
</g>
<!-- Node9 -->
<g id="node10" class="node">
<title>Node9</title>
<polygon fill="#ffffff" stroke="#bfbfbf" points="107,-.5 107,-19.5 168,-19.5 168,-.5 107,-.5"/>
<text text-anchor="middle" x="137.5" y="-7.5" font-family="Helvetica,sans-Serif" font-size="10.00" fill="#000000">AMReX.H</text>
</g>
<!-- Node5&#45;&gt;Node9 -->
<g id="edge10" class="edge">
<title>Node5&#45;&gt;Node9</title>
<path fill="none" stroke="#191970" d="M202.4688,-61.8906C190.4893,-52.3227 171.8834,-37.4621 157.6475,-26.0919"/>
<polygon fill="#191970" stroke="#191970" points="159.4447,-23.0479 149.4468,-19.5419 155.0761,-28.5175 159.4447,-23.0479"/>
</g>
<!-- Node10&#45;&gt;Node6 -->
<g id="edge13" class="edge">
<title>Node10&#45;&gt;Node6</title>
<path fill="none" stroke="#191970" d="M454.5,-56.2977C440.9032,-46.9022 423.5034,-34.8787 409.8433,-25.4395"/>
<polygon fill="#191970" stroke="#191970" points="411.7009,-22.4688 401.4842,-19.6633 407.7215,-28.2276 411.7009,-22.4688"/>
</g>
<!-- Node11 -->
<g id="node12" class="node">
<title>Node11</title>
<polygon fill="#ffffff" stroke="#bfbfbf" points="915.5,-.5 915.5,-19.5 959.5,-19.5 959.5,-.5 915.5,-.5"/>
<text text-anchor="middle" x="937.5" y="-7.5" font-family="Helvetica,sans-Serif" font-size="10.00" fill="#000000">string</text>
</g>
<!-- Node10&#45;&gt;Node11 -->
<g id="edge12" class="edge">
<title>Node10&#45;&gt;Node11</title>
<path fill="none" stroke="#191970" d="M539.2618,-57.6241C542.3805,-57.0491 545.4729,-56.5037 548.5,-56 680.0391,-34.114 838.2928,-18.7678 905.1649,-12.7833"/>
<polygon fill="#191970" stroke="#191970" points="905.811,-16.2398 915.4632,-11.8713 905.1934,-9.2671 905.811,-16.2398"/>
</g>
<!-- Node12 -->
<g id="node13" class="node">
<title>Node12</title>
<polygon fill="#ffffff" stroke="#bfbfbf" points="452,-.5 452,-19.5 499,-19.5 499,-.5 452,-.5"/>
<text text-anchor="middle" x="475.5" y="-7.5" font-family="Helvetica,sans-Serif" font-size="10.00" fill="#000000">vector</text>
</g>
<!-- Node10&#45;&gt;Node12 -->
<g id="edge14" class="edge">
<title>Node10&#45;&gt;Node12</title>
<path fill="none" stroke="#191970" d="M476.2528,-56.2977C476.1241,-48.3834 475.9651,-38.6043 475.8264,-30.0759"/>
<polygon fill="#191970" stroke="#191970" points="479.3223,-29.7887 475.6601,-19.8469 472.3233,-29.9025 479.3223,-29.7887"/>
</g>
<!-- Node13 -->
<g id="node14" class="node">
<title>Node13</title>
<polygon fill="#ffffff" stroke="#bfbfbf" points="517.5,-.5 517.5,-19.5 573.5,-19.5 573.5,-.5 517.5,-.5"/>
<text text-anchor="middle" x="545.5" y="-7.5" font-family="Helvetica,sans-Serif" font-size="10.00" fill="#000000">netcdf.h</text>
</g>
<!-- Node10&#45;&gt;Node13 -->
<g id="edge15" class="edge">
<title>Node10&#45;&gt;Node13</title>
<path fill="none" stroke="#191970" d="M493.5562,-56.2977C503.6329,-47.3163 516.404,-35.9334 526.7611,-26.702"/>
<polygon fill="#191970" stroke="#191970" points="529.3159,-29.1135 534.4522,-19.8469 524.6583,-23.8879 529.3159,-29.1135"/>
</g>
<!-- Node14 -->
<g id="node15" class="node">
<title>Node14</title>
<polygon fill="#ffffff" stroke="#bfbfbf" points="592,-.5 592,-19.5 669,-19.5 669,-.5 592,-.5"/>
<text text-anchor="middle" x="630.5" y="-7.5" font-family="Helvetica,sans-Serif" font-size="10.00" fill="#000000">netcdf_par.h</text>
</g>
<!-- Node10&#45;&gt;Node14 -->
<g id="edge16" class="edge">
<title>Node10&#45;&gt;Node14</title>
<path fill="none" stroke="#191970" d="M514.1726,-56.4554C539.5298,-46.329 572.6652,-33.0964 597.0826,-23.3453"/>
<polygon fill="#191970" stroke="#191970" points="598.6467,-26.4895 606.6355,-19.5303 596.0505,-19.9887 598.6467,-26.4895"/>
</g>
<!-- Node15&#45;&gt;Node2 -->
<g id="edge19" class="edge">
<title>Node15&#45;&gt;Node2</title>
<path fill="none" stroke="#191970" d="M737.1349,-135.0451C638.1549,-128.7721 448.1196,-113.6322 386.5,-87 354.7967,-73.2977 325.3785,-45.3369 308.4367,-27.1476"/>
<polygon fill="#191970" stroke="#191970" points="310.8748,-24.6258 301.5672,-19.5643 305.6869,-29.3254 310.8748,-24.6258"/>
</g>
<!-- Node15&#45;&gt;Node6 -->
<g id="edge20" class="edge">
<title>Node15&#45;&gt;Node6</title>
<path fill="none" stroke="#191970" d="M737.2,-134.2784C632.8618,-126.5392 429.6358,-108.8498 405.5,-87 389.7297,-72.7233 386.4558,-47.5191 386.3283,-29.8464"/>
<polygon fill="#191970" stroke="#191970" points="389.8297,-29.8318 386.5853,-19.7459 382.8319,-29.6536 389.8297,-29.8318"/>
</g>
<!-- Node15&#45;&gt;Node11 -->
<g id="edge18" class="edge">
<title>Node15&#45;&gt;Node11</title>
<path fill="none" stroke="#191970" d="M859.7407,-131.8247C914.9722,-124.3926 990.2551,-110.2598 1008.5,-87 1017.0034,-76.1593 1015.0807,-68.1046 1008.5,-56 1000.0408,-40.4399 983.7975,-29.3323 968.9802,-21.935"/>
<polygon fill="#191970" stroke="#191970" points="970.0933,-18.5947 959.5453,-17.6001 967.1709,-24.9555 970.0933,-18.5947"/>
</g>
<!-- Node16 -->
<g id="node17" class="node">
<title>Node16</title>
<polygon fill="#ffffff" stroke="#bfbfbf" points="557.5,-62 557.5,-81 621.5,-81 621.5,-62 557.5,-62"/>
<text text-anchor="middle" x="589.5" y="-69" font-family="Helvetica,sans-Serif" font-size="10.00" fill="#000000">algorithm</text>
</g>
<!-- Node15&#45;&gt;Node16 -->
<g id="edge21" class="edge">
<title>Node15&#45;&gt;Node16</title>
<path fill="none" stroke="#191970" d="M765.6912,-128.9568C731.8933,-118.9917 677.77,-102.6594 631.5,-87 629.1165,-86.1933 626.6641,-85.3428 624.1984,-84.4724"/>
<polygon fill="#191970" stroke="#191970" points="625.3343,-81.1615 614.7399,-81.0676 622.9634,-87.7478 625.3343,-81.1615"/>
</g>
<!-- Node17 -->
<g id="node18" class="node">
<title>Node17</title>
<polygon fill="#ffffff" stroke="#bfbfbf" points="1284,-.5 1284,-19.5 1391,-19.5 1391,-.5 1284,-.5"/>
<text text-anchor="middle" x="1337.5" y="-7.5" font-family="Helvetica,sans-Serif" font-size="10.00" fill="#000000">AMReX_MultiFab.H</text>
</g>
<!-- Node15&#45;&gt;Node17 -->
<g id="edge22" class="edge">
<title>Node15&#45;&gt;Node17</title>
<path fill="none" stroke="#191970" d="M859.6913,-134.8316C961.6794,-128.1067 1161.7222,-112.1427 1227.5,-87 1263.862,-73.1011 1299.5915,-44.5706 1320.0413,-26.4114"/>
<polygon fill="#191970" stroke="#191970" points="1322.5345,-28.8751 1327.5854,-19.5617 1317.829,-23.6926 1322.5345,-28.8751"/>
</g>
<!-- Node18 -->
<g id="node19" class="node">
<title>Node18</title>
<polygon fill="#ffffff" stroke="#bfbfbf" points="640,-62 640,-81 737,-81 737,-62 640,-62"/>
<text text-anchor="middle" x="688.5" y="-69" font-family="Helvetica,sans-Serif" font-size="10.00" fill="#000000">AMReX_BCRec.H</text>
</g>
<!-- Node15&#45;&gt;Node18 -->
<g id="edge23" class="edge">
<title>Node15&#45;&gt;Node18</title>
<path fill="none" stroke="#191970" d="M782.7397,-128.9005C764.5243,-117.8057 734.327,-99.4128 713.0323,-86.4424"/>
<polygon fill="#191970" stroke="#191970" points="714.5923,-83.2945 704.2311,-81.0817 710.9509,-89.2728 714.5923,-83.2945"/>
</g>
<!-- Node19 -->
<g id="node20" class="node">
<title>Node19</title>
<polygon fill="#ffffff" stroke="#bfbfbf" points="755.5,-62 755.5,-81 841.5,-81 841.5,-62 755.5,-62"/>
<text text-anchor="middle" x="798.5" y="-69" font-family="Helvetica,sans-Serif" font-size="10.00" fill="#000000">AMReX_Gpu.H</text>
</g>
<!-- Node15&#45;&gt;Node19 -->
<g id="edge24" class="edge">
<title>Node15&#45;&gt;Node19</title>
<path fill="none" stroke="#191970" d="M798.5,-128.9005C798.5,-119.149 798.5,-103.7597 798.5,-91.3695"/>
<polygon fill="#191970" stroke="#191970" points="802.0001,-91.0816 798.5,-81.0817 795.0001,-91.0817 802.0001,-91.0816"/>
</g>
<!-- Node20 -->
<g id="node21" class="node">
<title>Node20</title>
<g id="a_node21"><a xlink:href="incflo__enums_8_h.html" target="_top" xlink:title="amr&#45;wind/incflo_enums.H">
<polygon fill="#ffffff" stroke="#000000" points="859.5,-62 859.5,-81 999.5,-81 999.5,-62 859.5,-62"/>
<text text-anchor="middle" x="929.5" y="-69" font-family="Helvetica,sans-Serif" font-size="10.00" fill="#000000">amr&#45;wind/incflo_enums.H</text>
</a>
</g>
</g>
<!-- Node15&#45;&gt;Node20 -->
<g id="edge25" class="edge">
<title>Node15&#45;&gt;Node20</title>
<path fill="none" stroke="#191970" d="M817.2691,-128.9005C839.3511,-117.6067 876.2189,-98.7506 901.6386,-85.7497"/>
<polygon fill="#191970" stroke="#191970" points="903.4563,-88.7513 910.7657,-81.0817 900.2688,-82.5191 903.4563,-88.7513"/>
</g>
<!-- Node21 -->
<g id="node22" class="node">
<title>Node21</title>
<g id="a_node22"><a xlink:href="_field_desc_types_8_h.html" target="_top" xlink:title="amr&#45;wind/core/FieldDescTypes.H">
<polygon fill="#ffffff" stroke="#000000" points="1091.5,-.5 1091.5,-19.5 1265.5,-19.5 1265.5,-.5 1091.5,-.5"/>
<text text-anchor="middle" x="1178.5" y="-7.5" font-family="Helvetica,sans-Serif" font-size="10.00" fill="#000000">amr&#45;wind/core/FieldDescTypes.H</text>
</a>
</g>
</g>
<!-- Node15&#45;&gt;Node21 -->
<g id="edge26" class="edge">
<title>Node15&#45;&gt;Node21</title>
<path fill="none" stroke="#191970" d="M859.8606,-135.2415C969.0187,-128.8132 1187.6907,-112.8379 1210.5,-87 1225.814,-69.6526 1209.5286,-43.9489 1195.1341,-27.0871"/>
<polygon fill="#191970" stroke="#191970" points="1197.6669,-24.6697 1188.3664,-19.5952 1192.4725,-29.362 1197.6669,-24.6697"/>
</g>
<!-- Node22 -->
<g id="node23" class="node">
<title>Node22</title>
<g id="a_node23"><a xlink:href="_view_field_8_h.html" target="_top" xlink:title="amr&#45;wind/core/ViewField.H">
<polygon fill="#ffffff" stroke="#000000" points="1055.5,-62 1055.5,-81 1201.5,-81 1201.5,-62 1055.5,-62"/>
<text text-anchor="middle" x="1128.5" y="-69" font-family="Helvetica,sans-Serif" font-size="10.00" fill="#000000">amr&#45;wind/core/ViewField.H</text>
</a>
</g>
</g>
<!-- Node15&#45;&gt;Node22 -->
<g id="edge27" class="edge">
<title>Node15&#45;&gt;Node22</title>
<path fill="none" stroke="#191970" d="M845.4305,-128.9717C904.9704,-116.8833 1007.5837,-96.0497 1071.5437,-83.0638"/>
<polygon fill="#191970" stroke="#191970" points="1072.3609,-86.4694 1081.4645,-81.0496 1070.9681,-79.6094 1072.3609,-86.4694"/>
</g>
<!-- Node22&#45;&gt;Node11 -->
<g id="edge28" class="edge">
<title>Node22&#45;&gt;Node11</title>
<path fill="none" stroke="#191970" d="M1098.7146,-61.9191C1068.4643,-52.1873 1020.0137,-36.5965 969.0553,-20.1777"/>
<polygon fill="#191970" stroke="#191970" points="970.1064,-16.8392 959.5149,-17.1035 967.9595,-23.5019 970.1064,-16.8392"/>
</g>
<!-- Node22&#45;&gt;Node17 -->
<g id="edge30" class="edge">
<title>Node22&#45;&gt;Node17</title>
<path fill="none" stroke="#191970" d="M1161.1563,-61.8906C1197.3528,-51.2395 1255.8386,-34.0296 1295.4375,-22.3772"/>
<polygon fill="#191970" stroke="#191970" points="1296.4678,-25.7225 1305.0731,-19.5419 1294.4917,-19.0072 1296.4678,-25.7225"/>
</g>
<!-- Node22&#45;&gt;Node21 -->
<g id="edge29" class="edge">
<title>Node22&#45;&gt;Node21</title>
<path fill="none" stroke="#191970" d="M1136.3125,-61.8906C1143.754,-52.7376 1155.1334,-38.7409 1164.1992,-27.59"/>
<polygon fill="#191970" stroke="#191970" points="1166.9847,-29.712 1170.5774,-19.7449 1161.5533,-25.2962 1166.9847,-29.712"/>
</g>
<!-- Node23 -->
<g id="node24" class="node">
<title>Node23</title>
<polygon fill="#ffffff" stroke="#bfbfbf" points="977.5,-.5 977.5,-19.5 1073.5,-19.5 1073.5,-.5 977.5,-.5"/>
<text text-anchor="middle" x="1025.5" y="-7.5" font-family="Helvetica,sans-Serif" font-size="10.00" fill="#000000">AMReX_Vector.H</text>
</g>
<!-- Node22&#45;&gt;Node23 -->
<g id="edge31" class="edge">
<title>Node22&#45;&gt;Node23</title>
<path fill="none" stroke="#191970" d="M1112.4063,-61.8906C1095.7772,-51.9616 1069.6024,-36.333 1050.3206,-24.8201"/>
<polygon fill="#191970" stroke="#191970" points="1051.861,-21.6634 1041.4807,-19.5419 1048.2724,-27.6736 1051.861,-21.6634"/>
</g>
</g>
</svg>
