<?xml version="1.0" encoding="UTF-8" standalone="no"?>
<!DOCTYPE svg PUBLIC "-//W3C//DTD SVG 1.1//EN"
 "http://www.w3.org/Graphics/SVG/1.1/DTD/svg11.dtd">
<!-- Generated by graphviz version 2.40.1 (20161225.0304)
 -->
<!-- Title: Sampling.H Pages: 1 -->
<svg width="2940pt" height="341pt"
 viewBox="0.00 0.00 2939.50 341.00" xmlns="http://www.w3.org/2000/svg" xmlns:xlink="http://www.w3.org/1999/xlink">
<g id="graph0" class="graph" transform="scale(1 1) rotate(0) translate(4 337)">
<title>Sampling.H</title>
<polygon fill="#ffffff" stroke="transparent" points="-4,4 -4,-337 2935.5,-337 2935.5,4 -4,4"/>
<!-- Node0 -->
<g id="node1" class="node">
<title>Node0</title>
<polygon fill="#bfbfbf" stroke="#000000" points="2400.5,-313.5 2400.5,-332.5 2473.5,-332.5 2473.5,-313.5 2400.5,-313.5"/>
<text text-anchor="middle" x="2437" y="-320.5" font-family="Helvetica,sans-Serif" font-size="10.00" fill="#000000">Sampling.H</text>
</g>
<!-- Node1 -->
<g id="node2" class="node">
<title>Node1</title>
<polygon fill="#ffffff" stroke="#bfbfbf" points="2539,-56.5 2539,-75.5 2597,-75.5 2597,-56.5 2539,-56.5"/>
<text text-anchor="middle" x="2568" y="-63.5" font-family="Helvetica,sans-Serif" font-size="10.00" fill="#000000">memory</text>
</g>
<!-- Node0&#45;&gt;Node1 -->
<g id="edge1" class="edge">
<title>Node0&#45;&gt;Node1</title>
<path fill="none" stroke="#191970" d="M2426.6547,-313.3796C2401.5736,-288.9012 2342.0105,-223.075 2376,-179 2414.4458,-129.1465 2461.174,-178.7425 2513,-143 2534.2534,-128.3423 2550.1397,-102.6626 2559.2389,-85.0175"/>
<polygon fill="#191970" stroke="#191970" points="2562.5466,-86.2211 2563.8014,-75.7009 2556.2599,-83.1425 2562.5466,-86.2211"/>
</g>
<!-- Node2 -->
<g id="node3" class="node">
<title>Node2</title>
<g id="a_node3"><a xlink:href="_c_f_d_sim_8_h.html" target="_top" xlink:title="amr&#45;wind/CFDSim.H">
<polygon fill="#ffffff" stroke="#000000" points="1321,-252 1321,-271 1435,-271 1435,-252 1321,-252"/>
<text text-anchor="middle" x="1378" y="-259" font-family="Helvetica,sans-Serif" font-size="10.00" fill="#000000">amr&#45;wind/CFDSim.H</text>
</a>
</g>
</g>
<!-- Node0&#45;&gt;Node2 -->
<g id="edge2" class="edge">
<title>Node0&#45;&gt;Node2</title>
<path fill="none" stroke="#191970" d="M2400.2393,-320.8652C2245.7472,-311.8933 1647.7416,-277.1649 1445.3764,-265.4128"/>
<polygon fill="#191970" stroke="#191970" points="1445.3701,-261.9066 1435.184,-264.8209 1444.9642,-268.8948 1445.3701,-261.9066"/>
</g>
<!-- Node36 -->
<g id="node37" class="node">
<title>Node36</title>
<g id="a_node37"><a xlink:href="_post_processing_8_h.html" target="_top" xlink:title="amr&#45;wind/utilities\l/PostProcessing.H">
<polygon fill="#ffffff" stroke="#000000" points="2385,-179.5 2385,-209.5 2489,-209.5 2489,-179.5 2385,-179.5"/>
<text text-anchor="start" x="2393" y="-197.5" font-family="Helvetica,sans-Serif" font-size="10.00" fill="#000000">amr&#45;wind/utilities</text>
<text text-anchor="middle" x="2437" y="-186.5" font-family="Helvetica,sans-Serif" font-size="10.00" fill="#000000">/PostProcessing.H</text>
</a>
</g>
</g>
<!-- Node0&#45;&gt;Node36 -->
<g id="edge67" class="edge">
<title>Node0&#45;&gt;Node36</title>
<path fill="none" stroke="#191970" d="M2437,-313.3416C2437,-293.6745 2437,-248.4221 2437,-219.7784"/>
<polygon fill="#191970" stroke="#191970" points="2440.5001,-219.7016 2437,-209.7016 2433.5001,-219.7016 2440.5001,-219.7016"/>
</g>
<!-- Node37 -->
<g id="node38" class="node">
<title>Node37</title>
<g id="a_node38"><a xlink:href="_sampler_base_8_h.html" target="_top" xlink:title="amr&#45;wind/utilities\l/sampling/SamplerBase.H">
<polygon fill="#ffffff" stroke="#000000" points="2507.5,-179.5 2507.5,-209.5 2650.5,-209.5 2650.5,-179.5 2507.5,-179.5"/>
<text text-anchor="start" x="2515.5" y="-197.5" font-family="Helvetica,sans-Serif" font-size="10.00" fill="#000000">amr&#45;wind/utilities</text>
<text text-anchor="middle" x="2579" y="-186.5" font-family="Helvetica,sans-Serif" font-size="10.00" fill="#000000">/sampling/SamplerBase.H</text>
</a>
</g>
</g>
<!-- Node0&#45;&gt;Node37 -->
<g id="edge70" class="edge">
<title>Node0&#45;&gt;Node37</title>
<path fill="none" stroke="#191970" d="M2447.6731,-313.3416C2470.268,-292.8948 2523.4226,-244.7936 2554.7413,-216.4524"/>
<polygon fill="#191970" stroke="#191970" points="2557.135,-219.0066 2562.2013,-209.7016 2552.4381,-213.8163 2557.135,-219.0066"/>
</g>
<!-- Node42 -->
<g id="node43" class="node">
<title>Node42</title>
<g id="a_node43"><a xlink:href="_sampling_container_8_h.html" target="_top" xlink:title="amr&#45;wind/utilities\l/sampling/SamplingContainer.H">
<polygon fill="#ffffff" stroke="#000000" points="2648,-246.5 2648,-276.5 2818,-276.5 2818,-246.5 2648,-246.5"/>
<text text-anchor="start" x="2656" y="-264.5" font-family="Helvetica,sans-Serif" font-size="10.00" fill="#000000">amr&#45;wind/utilities</text>
<text text-anchor="middle" x="2733" y="-253.5" font-family="Helvetica,sans-Serif" font-size="10.00" fill="#000000">/sampling/SamplingContainer.H</text>
</a>
</g>
</g>
<!-- Node0&#45;&gt;Node42 -->
<g id="edge78" class="edge">
<title>Node0&#45;&gt;Node42</title>
<path fill="none" stroke="#191970" d="M2473.5923,-315.3972C2517.5311,-306.268 2592.5653,-290.6782 2650.6651,-278.6068"/>
<polygon fill="#191970" stroke="#191970" points="2651.4903,-282.0101 2660.5692,-276.549 2650.0662,-275.1565 2651.4903,-282.0101"/>
</g>
<!-- Node3 -->
<g id="node4" class="node">
<title>Node3</title>
<polygon fill="#ffffff" stroke="#bfbfbf" points="391.5,-118 391.5,-137 500.5,-137 500.5,-118 391.5,-118"/>
<text text-anchor="middle" x="446" y="-125" font-family="Helvetica,sans-Serif" font-size="10.00" fill="#000000">AMReX_AmrCore.H</text>
</g>
<!-- Node2&#45;&gt;Node3 -->
<g id="edge3" class="edge">
<title>Node2&#45;&gt;Node3</title>
<path fill="none" stroke="#191970" d="M1320.8768,-258.5901C1183.0936,-251.3186 835.4315,-231.396 721,-210 632.807,-193.51 532.6796,-159.4223 481.0018,-140.6361"/>
<polygon fill="#191970" stroke="#191970" points="481.9239,-137.2465 471.3301,-137.0926 479.5157,-143.8192 481.9239,-137.2465"/>
</g>
<!-- Node4 -->
<g id="node5" class="node">
<title>Node4</title>
<g id="a_node5"><a xlink:href="_sim_time_8_h.html" target="_top" xlink:title="amr&#45;wind/core/SimTime.H">
<polygon fill="#ffffff" stroke="#000000" points="196.5,-185 196.5,-204 339.5,-204 339.5,-185 196.5,-185"/>
<text text-anchor="middle" x="268" y="-192" font-family="Helvetica,sans-Serif" font-size="10.00" fill="#000000">amr&#45;wind/core/SimTime.H</text>
</a>
</g>
</g>
<!-- Node2&#45;&gt;Node4 -->
<g id="edge4" class="edge">
<title>Node2&#45;&gt;Node4</title>
<path fill="none" stroke="#191970" d="M1320.659,-258.0389C1137.2088,-246.9658 564.1781,-212.3774 349.9233,-199.4449"/>
<polygon fill="#191970" stroke="#191970" points="349.8813,-195.9361 339.6886,-198.8271 349.4595,-202.9234 349.8813,-195.9361"/>
</g>
<!-- Node8 -->
<g id="node9" class="node">
<title>Node8</title>
<g id="a_node9"><a xlink:href="_field_repo_8_h.html" target="_top" xlink:title="amr&#45;wind/core/FieldRepo.H">
<polygon fill="#ffffff" stroke="#000000" points="730,-185 730,-204 876,-204 876,-185 730,-185"/>
<text text-anchor="middle" x="803" y="-192" font-family="Helvetica,sans-Serif" font-size="10.00" fill="#000000">amr&#45;wind/core/FieldRepo.H</text>
</a>
</g>
</g>
<!-- Node2&#45;&gt;Node8 -->
<g id="edge8" class="edge">
<title>Node2&#45;&gt;Node8</title>
<path fill="none" stroke="#191970" d="M1320.7646,-254.8308C1218.6384,-242.9309 1004.6414,-217.9956 886.2383,-204.1991"/>
<polygon fill="#191970" stroke="#191970" points="886.4721,-200.7027 876.1342,-203.0217 885.6619,-207.6557 886.4721,-200.7027"/>
</g>
<!-- Node26 -->
<g id="node27" class="node">
<title>Node26</title>
<g id="a_node27"><a xlink:href="_p_d_e_base_8_h.html" target="_top" xlink:title="amr&#45;wind/equation_systems\l/PDEBase.H">
<polygon fill="#ffffff" stroke="#000000" points="1872.5,-179.5 1872.5,-209.5 2027.5,-209.5 2027.5,-179.5 1872.5,-179.5"/>
<text text-anchor="start" x="1880.5" y="-197.5" font-family="Helvetica,sans-Serif" font-size="10.00" fill="#000000">amr&#45;wind/equation_systems</text>
<text text-anchor="middle" x="1950" y="-186.5" font-family="Helvetica,sans-Serif" font-size="10.00" fill="#000000">/PDEBase.H</text>
</a>
</g>
</g>
<!-- Node2&#45;&gt;Node26 -->
<g id="edge45" class="edge">
<title>Node2&#45;&gt;Node26</title>
<path fill="none" stroke="#191970" d="M1435.2004,-254.8C1535.4121,-243.0619 1743.323,-218.7087 1861.9774,-204.8103"/>
<polygon fill="#191970" stroke="#191970" points="1862.595,-208.262 1872.1198,-203.6223 1861.7805,-201.3096 1862.595,-208.262"/>
</g>
<!-- Node34 -->
<g id="node35" class="node">
<title>Node34</title>
<g id="a_node35"><a xlink:href="_physics_8_h.html" target="_top" xlink:title="amr&#45;wind/core/Physics.H">
<polygon fill="#ffffff" stroke="#000000" points="2083.5,-185 2083.5,-204 2220.5,-204 2220.5,-185 2083.5,-185"/>
<text text-anchor="middle" x="2152" y="-192" font-family="Helvetica,sans-Serif" font-size="10.00" fill="#000000">amr&#45;wind/core/Physics.H</text>
</a>
</g>
</g>
<!-- Node2&#45;&gt;Node34 -->
<g id="edge62" class="edge">
<title>Node2&#45;&gt;Node34</title>
<path fill="none" stroke="#191970" d="M1435.3063,-258.0737C1549.6872,-251.0011 1814.3697,-233.4626 2036,-210 2048.8002,-208.6449 2062.3689,-207.0113 2075.542,-205.32"/>
<polygon fill="#191970" stroke="#191970" points="2076.0556,-208.7827 2085.5191,-204.019 2075.1505,-201.8415 2076.0556,-208.7827"/>
</g>
<!-- Node5 -->
<g id="node6" class="node">
<title>Node5</title>
<polygon fill="#ffffff" stroke="#bfbfbf" points="282.5,-118 282.5,-137 373.5,-137 373.5,-118 282.5,-118"/>
<text text-anchor="middle" x="328" y="-125" font-family="Helvetica,sans-Serif" font-size="10.00" fill="#000000">AMReX_REAL.H</text>
</g>
<!-- Node4&#45;&gt;Node5 -->
<g id="edge5" class="edge">
<title>Node4&#45;&gt;Node5</title>
<path fill="none" stroke="#191970" d="M276.5965,-184.9005C285.953,-174.4525 301.1052,-157.5325 312.5401,-144.7635"/>
<polygon fill="#191970" stroke="#191970" points="315.3555,-146.8661 319.4194,-137.0817 310.1408,-142.1963 315.3555,-146.8661"/>
</g>
<!-- Node6 -->
<g id="node7" class="node">
<title>Node6</title>
<polygon fill="#ffffff" stroke="#bfbfbf" points="0,-118 0,-137 132,-137 132,-118 0,-118"/>
<text text-anchor="middle" x="66" y="-125" font-family="Helvetica,sans-Serif" font-size="10.00" fill="#000000">AMReX_GpuQualifiers.H</text>
</g>
<!-- Node4&#45;&gt;Node6 -->
<g id="edge6" class="edge">
<title>Node4&#45;&gt;Node6</title>
<path fill="none" stroke="#191970" d="M239.0583,-184.9005C203.6582,-173.1589 143.6149,-153.2436 104.3855,-140.2318"/>
<polygon fill="#191970" stroke="#191970" points="105.4814,-136.9079 94.888,-137.0817 103.2776,-143.5519 105.4814,-136.9079"/>
</g>
<!-- Node7 -->
<g id="node8" class="node">
<title>Node7</title>
<polygon fill="#ffffff" stroke="#bfbfbf" points="150,-118 150,-137 264,-137 264,-118 150,-118"/>
<text text-anchor="middle" x="207" y="-125" font-family="Helvetica,sans-Serif" font-size="10.00" fill="#000000">AMReX_Extension.H</text>
</g>
<!-- Node4&#45;&gt;Node7 -->
<g id="edge7" class="edge">
<title>Node4&#45;&gt;Node7</title>
<path fill="none" stroke="#191970" d="M259.2602,-184.9005C249.7478,-174.4525 234.343,-157.5325 222.7175,-144.7635"/>
<polygon fill="#191970" stroke="#191970" points="225.0439,-142.1198 215.7236,-137.0817 219.8678,-146.8324 225.0439,-142.1198"/>
</g>
<!-- Node8&#45;&gt;Node3 -->
<g id="edge42" class="edge">
<title>Node8&#45;&gt;Node3</title>
<path fill="none" stroke="#191970" d="M745.484,-184.9816C687.2493,-175.1643 594.6658,-159.0628 515,-143 509.2173,-141.8341 503.1747,-140.5598 497.1735,-139.2589"/>
<polygon fill="#191970" stroke="#191970" points="497.6844,-135.7877 487.1661,-137.059 496.1814,-142.6245 497.6844,-135.7877"/>
</g>
<!-- Node9 -->
<g id="node10" class="node">
<title>Node9</title>
<polygon fill="#ffffff" stroke="#bfbfbf" points="1833,-.5 1833,-19.5 1877,-19.5 1877,-.5 1833,-.5"/>
<text text-anchor="middle" x="1855" y="-7.5" font-family="Helvetica,sans-Serif" font-size="10.00" fill="#000000">string</text>
</g>
<!-- Node8&#45;&gt;Node9 -->
<g id="edge9" class="edge">
<title>Node8&#45;&gt;Node9</title>
<path fill="none" stroke="#191970" d="M876.3061,-191.6689C1053.7032,-184.5563 1502.4432,-164.9301 1651,-143 1666.9836,-140.6405 1923.9774,-88.6725 1934,-76 1951.9288,-53.3309 1915.68,-32.9645 1886.5483,-21.0378"/>
<polygon fill="#191970" stroke="#191970" points="1887.6185,-17.6985 1877.0302,-17.3255 1885.0749,-24.22 1887.6185,-17.6985"/>
</g>
<!-- Node10 -->
<g id="node11" class="node">
<title>Node10</title>
<polygon fill="#ffffff" stroke="#bfbfbf" points="2163.5,-56.5 2163.5,-75.5 2256.5,-75.5 2256.5,-56.5 2163.5,-56.5"/>
<text text-anchor="middle" x="2210" y="-63.5" font-family="Helvetica,sans-Serif" font-size="10.00" fill="#000000">unordered_map</text>
</g>
<!-- Node8&#45;&gt;Node10 -->
<g id="edge10" class="edge">
<title>Node8&#45;&gt;Node10</title>
<path fill="none" stroke="#191970" d="M876.1238,-193.1869C1094.4205,-188.9341 1731.7479,-173.9815 1820,-143 1842.2297,-135.1961 1841.1053,-120.6997 1863,-112 1914.5032,-91.5354 2068.7597,-76.8814 2153.2082,-70.1463"/>
<polygon fill="#191970" stroke="#191970" points="2153.7034,-73.6183 2163.3982,-69.3451 2153.1546,-66.6398 2153.7034,-73.6183"/>
</g>
<!-- Node11 -->
<g id="node12" class="node">
<title>Node11</title>
<g id="a_node12"><a xlink:href="_field_desc_types_8_h.html" target="_top" xlink:title="amr&#45;wind/core/FieldDescTypes.H">
<polygon fill="#ffffff" stroke="#000000" points="678,-.5 678,-19.5 852,-19.5 852,-.5 678,-.5"/>
<text text-anchor="middle" x="765" y="-7.5" font-family="Helvetica,sans-Serif" font-size="10.00" fill="#000000">amr&#45;wind/core/FieldDescTypes.H</text>
</a>
</g>
</g>
<!-- Node8&#45;&gt;Node11 -->
<g id="edge11" class="edge">
<title>Node8&#45;&gt;Node11</title>
<path fill="none" stroke="#191970" d="M729.5584,-186.7251C693.6221,-179.8984 651.4468,-167.0776 620,-143 592.4637,-121.9165 589.2208,-109.4327 580,-76 577.6367,-67.431 574.5252,-63.0028 580,-56 592.5967,-39.8876 636.1497,-28.6112 677.8329,-21.2567"/>
<polygon fill="#191970" stroke="#191970" points="678.5322,-24.6882 687.805,-19.5631 677.3601,-17.787 678.5322,-24.6882"/>
</g>
<!-- Node12 -->
<g id="node13" class="node">
<title>Node12</title>
<g id="a_node13"><a xlink:href="_field_utils_8_h.html" target="_top" xlink:title="amr&#45;wind/core/FieldUtils.H">
<polygon fill="#ffffff" stroke="#000000" points="387.5,-56.5 387.5,-75.5 532.5,-75.5 532.5,-56.5 387.5,-56.5"/>
<text text-anchor="middle" x="460" y="-63.5" font-family="Helvetica,sans-Serif" font-size="10.00" fill="#000000">amr&#45;wind/core/FieldUtils.H</text>
</a>
</g>
</g>
<!-- Node8&#45;&gt;Node12 -->
<g id="edge12" class="edge">
<title>Node8&#45;&gt;Node12</title>
<path fill="none" stroke="#191970" d="M729.9805,-188.8915C678.4588,-182.7237 608.9347,-169.8375 553,-143 536.5889,-135.126 499.6428,-102.4975 477.5767,-82.3255"/>
<polygon fill="#191970" stroke="#191970" points="479.9151,-79.7209 470.186,-75.5263 475.1758,-84.8726 479.9151,-79.7209"/>
</g>
<!-- Node13 -->
<g id="node14" class="node">
<title>Node13</title>
<polygon fill="#ffffff" stroke="#bfbfbf" points="1009.5,-.5 1009.5,-19.5 1116.5,-19.5 1116.5,-.5 1009.5,-.5"/>
<text text-anchor="middle" x="1063" y="-7.5" font-family="Helvetica,sans-Serif" font-size="10.00" fill="#000000">AMReX_MultiFab.H</text>
</g>
<!-- Node8&#45;&gt;Node13 -->
<g id="edge43" class="edge">
<title>Node8&#45;&gt;Node13</title>
<path fill="none" stroke="#191970" d="M803.9917,-184.6702C807.1098,-159.1867 819.0875,-90.5724 860,-56 880.8304,-38.3976 947.666,-25.561 999.0163,-17.9896"/>
<polygon fill="#191970" stroke="#191970" points="999.6615,-21.4329 1009.0617,-16.5456 998.6654,-14.5041 999.6615,-21.4329"/>
</g>
<!-- Node15 -->
<g id="node16" class="node">
<title>Node15</title>
<g id="a_node16"><a xlink:href="_field_8_h.html" target="_top" xlink:title="amr&#45;wind/core/Field.H">
<polygon fill="#ffffff" stroke="#000000" points="1520,-118 1520,-137 1642,-137 1642,-118 1520,-118"/>
<text text-anchor="middle" x="1581" y="-125" font-family="Helvetica,sans-Serif" font-size="10.00" fill="#000000">amr&#45;wind/core/Field.H</text>
</a>
</g>
</g>
<!-- Node8&#45;&gt;Node15 -->
<g id="edge16" class="edge">
<title>Node8&#45;&gt;Node15</title>
<path fill="none" stroke="#191970" d="M876.1924,-188.1968C1025.1532,-175.3686 1361.9168,-146.3671 1509.4692,-133.6601"/>
<polygon fill="#191970" stroke="#191970" points="1510.098,-137.119 1519.7608,-132.7738 1509.4973,-130.1448 1510.098,-137.119"/>
</g>
<!-- Node22 -->
<g id="node23" class="node">
<title>Node22</title>
<g id="a_node23"><a xlink:href="_int_field_8_h.html" target="_top" xlink:title="amr&#45;wind/core/IntField.H">
<polygon fill="#ffffff" stroke="#000000" points="639.5,-118 639.5,-137 774.5,-137 774.5,-118 639.5,-118"/>
<text text-anchor="middle" x="707" y="-125" font-family="Helvetica,sans-Serif" font-size="10.00" fill="#000000">amr&#45;wind/core/IntField.H</text>
</a>
</g>
</g>
<!-- Node8&#45;&gt;Node22 -->
<g id="edge31" class="edge">
<title>Node8&#45;&gt;Node22</title>
<path fill="none" stroke="#191970" d="M789.2455,-184.9005C773.5623,-173.9549 747.7017,-155.9064 729.1642,-142.9688"/>
<polygon fill="#191970" stroke="#191970" points="730.9324,-139.9347 720.7289,-137.0817 726.9262,-145.675 730.9324,-139.9347"/>
</g>
<!-- Node23 -->
<g id="node24" class="node">
<title>Node23</title>
<polygon fill="#ffffff" stroke="#bfbfbf" points="589,-56.5 589,-75.5 699,-75.5 699,-56.5 589,-56.5"/>
<text text-anchor="middle" x="644" y="-63.5" font-family="Helvetica,sans-Serif" font-size="10.00" fill="#000000">AMReX_iMultiFab.H</text>
</g>
<!-- Node8&#45;&gt;Node23 -->
<g id="edge44" class="edge">
<title>Node8&#45;&gt;Node23</title>
<path fill="none" stroke="#191970" d="M745.3593,-184.9267C700.6503,-176.1878 644.0028,-161.7786 630,-143 617.3713,-126.0642 625.2473,-101.2963 633.3792,-84.4576"/>
<polygon fill="#191970" stroke="#191970" points="636.4914,-86.0592 638.0436,-75.5786 630.2944,-82.8037 636.4914,-86.0592"/>
</g>
<!-- Node24 -->
<g id="node25" class="node">
<title>Node24</title>
<g id="a_node25"><a xlink:href="_scratch_field_8_h.html" target="_top" xlink:title="amr&#45;wind/core/ScratchField.H">
<polygon fill="#ffffff" stroke="#000000" points="915,-118 915,-137 1073,-137 1073,-118 915,-118"/>
<text text-anchor="middle" x="994" y="-125" font-family="Helvetica,sans-Serif" font-size="10.00" fill="#000000">amr&#45;wind/core/ScratchField.H</text>
</a>
</g>
</g>
<!-- Node8&#45;&gt;Node24 -->
<g id="edge35" class="edge">
<title>Node8&#45;&gt;Node24</title>
<path fill="none" stroke="#191970" d="M830.3656,-184.9005C863.6962,-173.2086 920.1309,-153.4122 957.2323,-140.3976"/>
<polygon fill="#191970" stroke="#191970" points="958.4074,-143.6945 966.6851,-137.0817 956.0903,-137.0891 958.4074,-143.6945"/>
</g>
<!-- Node12&#45;&gt;Node11 -->
<g id="edge13" class="edge">
<title>Node12&#45;&gt;Node11</title>
<path fill="none" stroke="#191970" d="M512.0848,-56.4369C564.9412,-46.7321 646.7691,-31.708 702.9509,-21.3926"/>
<polygon fill="#191970" stroke="#191970" points="703.9265,-24.7721 713.13,-19.5237 702.6623,-17.8872 703.9265,-24.7721"/>
</g>
<!-- Node12&#45;&gt;Node13 -->
<g id="edge14" class="edge">
<title>Node12&#45;&gt;Node13</title>
<path fill="none" stroke="#191970" d="M532.7359,-59.2451C651.6574,-48.201 885.7692,-26.4592 998.8585,-15.9568"/>
<polygon fill="#191970" stroke="#191970" points="999.4555,-19.4165 1009.0889,-15.0067 998.8081,-12.4465 999.4555,-19.4165"/>
</g>
<!-- Node14 -->
<g id="node15" class="node">
<title>Node14</title>
<polygon fill="#ffffff" stroke="#bfbfbf" points="399,-.5 399,-19.5 521,-19.5 521,-.5 399,-.5"/>
<text text-anchor="middle" x="460" y="-7.5" font-family="Helvetica,sans-Serif" font-size="10.00" fill="#000000">AMReX_Interpolater.H</text>
</g>
<!-- Node12&#45;&gt;Node14 -->
<g id="edge15" class="edge">
<title>Node12&#45;&gt;Node14</title>
<path fill="none" stroke="#191970" d="M460,-56.2455C460,-48.9382 460,-38.6944 460,-29.7046"/>
<polygon fill="#191970" stroke="#191970" points="463.5001,-29.6426 460,-19.6427 456.5001,-29.6427 463.5001,-29.6426"/>
</g>
<!-- Node15&#45;&gt;Node1 -->
<g id="edge18" class="edge">
<title>Node15&#45;&gt;Node1</title>
<path fill="none" stroke="#191970" d="M1642.0597,-124.1264C1699.1772,-120.9748 1786.8677,-116.1468 1863,-112 2156.1074,-96.0348 2234.9484,-121.432 2528.5778,-75.928"/>
<polygon fill="#191970" stroke="#191970" points="2529.3278,-79.3533 2538.6667,-74.3499 2528.246,-72.4374 2529.3278,-79.3533"/>
</g>
<!-- Node15&#45;&gt;Node9 -->
<g id="edge17" class="edge">
<title>Node15&#45;&gt;Node9</title>
<path fill="none" stroke="#191970" d="M1616.1015,-118C1648.1956,-108.8276 1696.6651,-93.7431 1737,-76 1755.2244,-67.9832 1801.1114,-41.6095 1829.9967,-24.728"/>
<polygon fill="#191970" stroke="#191970" points="1831.8626,-27.6912 1838.721,-19.6158 1828.3236,-21.6517 1831.8626,-27.6912"/>
</g>
<!-- Node15&#45;&gt;Node10 -->
<g id="edge19" class="edge">
<title>Node15&#45;&gt;Node10</title>
<path fill="none" stroke="#191970" d="M1642.1693,-121.5192C1763.8372,-109.6232 2034.6376,-83.1459 2152.8971,-71.5832"/>
<polygon fill="#191970" stroke="#191970" points="2153.5676,-75.0344 2163.1796,-70.5778 2152.8864,-68.0676 2153.5676,-75.0344"/>
</g>
<!-- Node15&#45;&gt;Node11 -->
<g id="edge25" class="edge">
<title>Node15&#45;&gt;Node11</title>
<path fill="none" stroke="#191970" d="M1519.7715,-122.1456C1430.9761,-114.0507 1261.3925,-97.3499 1118,-76 1089.4777,-71.7533 917.8156,-39.1741 824.8019,-21.4316"/>
<polygon fill="#191970" stroke="#191970" points="825.4372,-17.9898 814.9584,-19.5534 824.1251,-24.8657 825.4372,-17.9898"/>
</g>
<!-- Node15&#45;&gt;Node13 -->
<g id="edge21" class="edge">
<title>Node15&#45;&gt;Node13</title>
<path fill="none" stroke="#191970" d="M1519.8669,-123.6899C1419.0726,-116.8035 1222.7213,-100.6698 1158,-76 1128.3268,-64.6895 1099.0657,-42.1709 1081.0287,-26.6053"/>
<polygon fill="#191970" stroke="#191970" points="1082.9293,-23.6133 1073.1231,-19.6022 1078.2877,-28.8531 1082.9293,-23.6133"/>
</g>
<!-- Node16 -->
<g id="node17" class="node">
<title>Node16</title>
<polygon fill="#ffffff" stroke="#bfbfbf" points="1549,-56.5 1549,-75.5 1613,-75.5 1613,-56.5 1549,-56.5"/>
<text text-anchor="middle" x="1581" y="-63.5" font-family="Helvetica,sans-Serif" font-size="10.00" fill="#000000">algorithm</text>
</g>
<!-- Node15&#45;&gt;Node16 -->
<g id="edge20" class="edge">
<title>Node15&#45;&gt;Node16</title>
<path fill="none" stroke="#191970" d="M1581,-117.8906C1581,-109.3657 1581,-96.6392 1581,-85.9235"/>
<polygon fill="#191970" stroke="#191970" points="1584.5001,-85.7448 1581,-75.7449 1577.5001,-85.7449 1584.5001,-85.7448"/>
</g>
<!-- Node17 -->
<g id="node18" class="node">
<title>Node17</title>
<polygon fill="#ffffff" stroke="#bfbfbf" points="1631.5,-56.5 1631.5,-75.5 1728.5,-75.5 1728.5,-56.5 1631.5,-56.5"/>
<text text-anchor="middle" x="1680" y="-63.5" font-family="Helvetica,sans-Serif" font-size="10.00" fill="#000000">AMReX_BCRec.H</text>
</g>
<!-- Node15&#45;&gt;Node17 -->
<g id="edge22" class="edge">
<title>Node15&#45;&gt;Node17</title>
<path fill="none" stroke="#191970" d="M1596.4688,-117.8906C1612.4521,-107.9616 1637.6103,-92.333 1656.1433,-80.8201"/>
<polygon fill="#191970" stroke="#191970" points="1657.9924,-83.7918 1664.6399,-75.5419 1654.2985,-77.8457 1657.9924,-83.7918"/>
</g>
<!-- Node18 -->
<g id="node19" class="node">
<title>Node18</title>
<polygon fill="#ffffff" stroke="#bfbfbf" points="1445,-56.5 1445,-75.5 1531,-75.5 1531,-56.5 1445,-56.5"/>
<text text-anchor="middle" x="1488" y="-63.5" font-family="Helvetica,sans-Serif" font-size="10.00" fill="#000000">AMReX_Gpu.H</text>
</g>
<!-- Node15&#45;&gt;Node18 -->
<g id="edge23" class="edge">
<title>Node15&#45;&gt;Node18</title>
<path fill="none" stroke="#191970" d="M1566.4688,-117.8906C1551.5906,-108.0519 1528.2496,-92.6167 1510.8872,-81.1351"/>
<polygon fill="#191970" stroke="#191970" points="1512.701,-78.1385 1502.4292,-75.5419 1508.8398,-83.9773 1512.701,-78.1385"/>
</g>
<!-- Node19 -->
<g id="node20" class="node">
<title>Node19</title>
<g id="a_node20"><a xlink:href="incflo__enums_8_h.html" target="_top" xlink:title="amr&#45;wind/incflo_enums.H">
<polygon fill="#ffffff" stroke="#000000" points="1785,-56.5 1785,-75.5 1925,-75.5 1925,-56.5 1785,-56.5"/>
<text text-anchor="middle" x="1855" y="-63.5" font-family="Helvetica,sans-Serif" font-size="10.00" fill="#000000">amr&#45;wind/incflo_enums.H</text>
</a>
</g>
</g>
<!-- Node15&#45;&gt;Node19 -->
<g id="edge24" class="edge">
<title>Node15&#45;&gt;Node19</title>
<path fill="none" stroke="#191970" d="M1623.5119,-117.9581C1671.7068,-107.1406 1750.319,-89.4959 1802.3529,-77.8168"/>
<polygon fill="#191970" stroke="#191970" points="1803.3977,-81.1694 1812.3884,-75.5643 1801.8646,-74.3394 1803.3977,-81.1694"/>
</g>
<!-- Node20 -->
<g id="node21" class="node">
<title>Node20</title>
<g id="a_node21"><a xlink:href="_view_field_8_h.html" target="_top" xlink:title="amr&#45;wind/core/ViewField.H">
<polygon fill="#ffffff" stroke="#000000" points="1167,-56.5 1167,-75.5 1313,-75.5 1313,-56.5 1167,-56.5"/>
<text text-anchor="middle" x="1240" y="-63.5" font-family="Helvetica,sans-Serif" font-size="10.00" fill="#000000">amr&#45;wind/core/ViewField.H</text>
</a>
</g>
</g>
<!-- Node15&#45;&gt;Node20 -->
<g id="edge26" class="edge">
<title>Node15&#45;&gt;Node20</title>
<path fill="none" stroke="#191970" d="M1528.0929,-117.9581C1467.2746,-106.9894 1367.5353,-89.0012 1302.8243,-77.3305"/>
<polygon fill="#191970" stroke="#191970" points="1303.2131,-73.8442 1292.7506,-75.5137 1301.9706,-80.7331 1303.2131,-73.8442"/>
</g>
<!-- Node20&#45;&gt;Node9 -->
<g id="edge27" class="edge">
<title>Node20&#45;&gt;Node9</title>
<path fill="none" stroke="#191970" d="M1313.0856,-57.4516C1317.7928,-56.9467 1322.462,-56.4584 1327,-56 1514.686,-37.0414 1740.3866,-18.9467 1822.8451,-12.4911"/>
<polygon fill="#191970" stroke="#191970" points="1823.1502,-15.978 1832.8474,-11.7102 1822.6053,-8.9993 1823.1502,-15.978"/>
</g>
<!-- Node20&#45;&gt;Node11 -->
<g id="edge28" class="edge">
<title>Node20&#45;&gt;Node11</title>
<path fill="none" stroke="#191970" d="M1166.8222,-57.3727C1083.1691,-47.5105 946.1689,-31.3589 855.7813,-20.7026"/>
<polygon fill="#191970" stroke="#191970" points="856.159,-17.223 845.8179,-19.528 855.3393,-24.1749 856.159,-17.223"/>
</g>
<!-- Node20&#45;&gt;Node13 -->
<g id="edge29" class="edge">
<title>Node20&#45;&gt;Node13</title>
<path fill="none" stroke="#191970" d="M1209.5726,-56.3733C1180.0128,-47.021 1134.9774,-32.7725 1102.6305,-22.5385"/>
<polygon fill="#191970" stroke="#191970" points="1103.6203,-19.1807 1093.0303,-19.5011 1101.5087,-25.8546 1103.6203,-19.1807"/>
</g>
<!-- Node21 -->
<g id="node22" class="node">
<title>Node21</title>
<polygon fill="#ffffff" stroke="#bfbfbf" points="1331,-.5 1331,-19.5 1427,-19.5 1427,-.5 1331,-.5"/>
<text text-anchor="middle" x="1379" y="-7.5" font-family="Helvetica,sans-Serif" font-size="10.00" fill="#000000">AMReX_Vector.H</text>
</g>
<!-- Node20&#45;&gt;Node21 -->
<g id="edge30" class="edge">
<title>Node20&#45;&gt;Node21</title>
<path fill="none" stroke="#191970" d="M1263.895,-56.3733C1286.5082,-47.2629 1320.6542,-33.5062 1345.8873,-23.3404"/>
<polygon fill="#191970" stroke="#191970" points="1347.4493,-26.4845 1355.4169,-19.5011 1344.8334,-19.9917 1347.4493,-26.4845"/>
</g>
<!-- Node22&#45;&gt;Node9 -->
<g id="edge32" class="edge">
<title>Node22&#45;&gt;Node9</title>
<path fill="none" stroke="#191970" d="M774.6631,-122.2415C931.8006,-109.9756 1309.1034,-80.191 1322,-76 1338.3104,-70.6996 1338.7115,-61.3672 1355,-56 1442.4937,-27.1702 1726.3277,-14.5898 1822.666,-11.0787"/>
<polygon fill="#191970" stroke="#191970" points="1823.078,-14.5663 1832.9471,-10.7127 1822.8289,-7.5708 1823.078,-14.5663"/>
</g>
<!-- Node22&#45;&gt;Node11 -->
<g id="edge33" class="edge">
<title>Node22&#45;&gt;Node11</title>
<path fill="none" stroke="#191970" d="M711.7464,-117.8845C721.3479,-98.4331 743.2247,-54.1138 755.7466,-28.7462"/>
<polygon fill="#191970" stroke="#191970" points="758.9002,-30.2647 760.188,-19.7484 752.6232,-27.1662 758.9002,-30.2647"/>
</g>
<!-- Node22&#45;&gt;Node23 -->
<g id="edge34" class="edge">
<title>Node22&#45;&gt;Node23</title>
<path fill="none" stroke="#191970" d="M697.1563,-117.8906C687.5961,-108.5581 672.8777,-94.1902 661.3505,-82.9374"/>
<polygon fill="#191970" stroke="#191970" points="663.5832,-80.2257 653.9825,-75.7449 658.6934,-85.2348 663.5832,-80.2257"/>
</g>
<!-- Node24&#45;&gt;Node9 -->
<g id="edge36" class="edge">
<title>Node24&#45;&gt;Node9</title>
<path fill="none" stroke="#191970" d="M1072.5634,-117.9797C1144.7021,-108.7936 1254.4239,-93.7002 1349,-76 1387.9981,-68.7014 1396.8811,-62.6206 1436,-56 1579.0955,-31.7823 1751.9404,-17.4805 1822.5651,-12.2651"/>
<polygon fill="#191970" stroke="#191970" points="1822.896,-15.7504 1832.6156,-11.5336 1822.3879,-8.7688 1822.896,-15.7504"/>
</g>
<!-- Node24&#45;&gt;Node11 -->
<g id="edge37" class="edge">
<title>Node24&#45;&gt;Node11</title>
<path fill="none" stroke="#191970" d="M963.0161,-117.9542C935.25,-108.8539 893.808,-93.905 860,-76 832.4222,-61.3945 803.3215,-40.2027 784.7076,-25.8016"/>
<polygon fill="#191970" stroke="#191970" points="786.7297,-22.9395 776.7006,-19.5236 782.4105,-28.4481 786.7297,-22.9395"/>
</g>
<!-- Node24&#45;&gt;Node13 -->
<g id="edge39" class="edge">
<title>Node24&#45;&gt;Node13</title>
<path fill="none" stroke="#191970" d="M999.6466,-117.8845C1011.1196,-98.3471 1037.3255,-53.7211 1052.1887,-28.4106"/>
<polygon fill="#191970" stroke="#191970" points="1055.2297,-30.1438 1057.2754,-19.7484 1049.1935,-26.5992 1055.2297,-30.1438"/>
</g>
<!-- Node24&#45;&gt;Node20 -->
<g id="edge38" class="edge">
<title>Node24&#45;&gt;Node20</title>
<path fill="none" stroke="#191970" d="M1032.1676,-117.9581C1075.167,-107.2082 1145.1351,-89.7162 1191.8542,-78.0365"/>
<polygon fill="#191970" stroke="#191970" points="1192.8903,-81.3852 1201.7429,-75.5643 1191.1925,-74.5942 1192.8903,-81.3852"/>
</g>
<!-- Node24&#45;&gt;Node21 -->
<g id="edge40" class="edge">
<title>Node24&#45;&gt;Node21</title>
<path fill="none" stroke="#191970" d="M1073.1129,-121.3585C1156.188,-113.8127 1280.4295,-99.0943 1322,-76 1342.1666,-64.7966 1358.5203,-43.5475 1368.4554,-28.1806"/>
<polygon fill="#191970" stroke="#191970" points="1371.5279,-29.8659 1373.7887,-19.515 1365.5665,-26.1968 1371.5279,-29.8659"/>
</g>
<!-- Node25 -->
<g id="node26" class="node">
<title>Node25</title>
<polygon fill="#ffffff" stroke="#bfbfbf" points="869,-56.5 869,-75.5 997,-75.5 997,-56.5 869,-56.5"/>
<text text-anchor="middle" x="933" y="-63.5" font-family="Helvetica,sans-Serif" font-size="10.00" fill="#000000">AMReX_PhysBCFunct.H</text>
</g>
<!-- Node24&#45;&gt;Node25 -->
<g id="edge41" class="edge">
<title>Node24&#45;&gt;Node25</title>
<path fill="none" stroke="#191970" d="M984.4688,-117.8906C975.2121,-108.5581 960.961,-94.1902 949.7997,-82.9374"/>
<polygon fill="#191970" stroke="#191970" points="952.1928,-80.38 942.6656,-75.7449 947.2228,-85.3095 952.1928,-80.38"/>
</g>
<!-- Node26&#45;&gt;Node9 -->
<g id="edge46" class="edge">
<title>Node26&#45;&gt;Node9</title>
<path fill="none" stroke="#191970" d="M1992.439,-179.3949C2008.9331,-171.2593 2026.1908,-159.4391 2036,-143 2055.825,-109.7756 2062.8101,-86.4954 2039,-56 2020.5376,-32.3537 1935.1348,-19.0641 1887.4408,-13.3679"/>
<polygon fill="#191970" stroke="#191970" points="1887.6459,-9.8685 1877.3118,-12.2046 1886.8471,-16.8228 1887.6459,-9.8685"/>
</g>
<!-- Node26&#45;&gt;Node11 -->
<g id="edge60" class="edge">
<title>Node26&#45;&gt;Node11</title>
<path fill="none" stroke="#191970" d="M1872.4446,-193.4649C1645.8662,-190.0518 995.292,-177.3435 906,-143 846.796,-120.229 798.3319,-58.882 776.8907,-28.1142"/>
<polygon fill="#191970" stroke="#191970" points="779.637,-25.9284 771.1221,-19.6238 773.847,-29.8623 779.637,-25.9284"/>
</g>
<!-- Node26&#45;&gt;Node19 -->
<g id="edge61" class="edge">
<title>Node26&#45;&gt;Node19</title>
<path fill="none" stroke="#191970" d="M1908.0024,-179.4378C1891.2647,-171.2642 1873.5122,-159.4035 1863,-143 1852.1586,-126.083 1851.2513,-102.6646 1852.3728,-86.1076"/>
<polygon fill="#191970" stroke="#191970" points="1855.8805,-86.2 1853.3761,-75.9055 1848.9141,-85.5149 1855.8805,-86.2"/>
</g>
<!-- Node27 -->
<g id="node28" class="node">
<title>Node27</title>
<g id="a_node28"><a xlink:href="_factory_8_h.html" target="_top" xlink:title="amr&#45;wind/core/Factory.H">
<polygon fill="#ffffff" stroke="#000000" points="2370,-118 2370,-137 2504,-137 2504,-118 2370,-118"/>
<text text-anchor="middle" x="2437" y="-125" font-family="Helvetica,sans-Serif" font-size="10.00" fill="#000000">amr&#45;wind/core/Factory.H</text>
</a>
</g>
</g>
<!-- Node26&#45;&gt;Node27 -->
<g id="edge47" class="edge">
<title>Node26&#45;&gt;Node27</title>
<path fill="none" stroke="#191970" d="M2027.6063,-184.788C2145.3322,-170.0503 2355.9233,-143.6654 2360,-143 2367.2169,-141.822 2374.789,-140.4574 2382.2508,-139.0361"/>
<polygon fill="#191970" stroke="#191970" points="2383.1681,-142.4232 2392.3139,-137.0749 2381.829,-135.5525 2383.1681,-142.4232"/>
</g>
<!-- Node31 -->
<g id="node32" class="node">
<title>Node31</title>
<g id="a_node32"><a xlink:href="_coll_mgr_8_h.html" target="_top" xlink:title="amr&#45;wind/core/CollMgr.H">
<polygon fill="#ffffff" stroke="#000000" points="2084,-118 2084,-137 2220,-137 2220,-118 2084,-118"/>
<text text-anchor="middle" x="2152" y="-125" font-family="Helvetica,sans-Serif" font-size="10.00" fill="#000000">amr&#45;wind/core/CollMgr.H</text>
</a>
</g>
</g>
<!-- Node26&#45;&gt;Node31 -->
<g id="edge53" class="edge">
<title>Node26&#45;&gt;Node31</title>
<path fill="none" stroke="#191970" d="M1995.3327,-179.4639C2031.011,-167.63 2080.167,-151.3258 2113.8482,-140.1543"/>
<polygon fill="#191970" stroke="#191970" points="2114.9526,-143.4756 2123.3423,-137.0053 2112.7489,-136.8315 2114.9526,-143.4756"/>
</g>
<!-- Node32 -->
<g id="node33" class="node">
<title>Node32</title>
<g id="a_node33"><a xlink:href="_p_d_e_fields_8_h.html" target="_top" xlink:title="amr&#45;wind/equation_systems\l/PDEFields.H">
<polygon fill="#ffffff" stroke="#000000" points="1872.5,-112.5 1872.5,-142.5 2027.5,-142.5 2027.5,-112.5 1872.5,-112.5"/>
<text text-anchor="start" x="1880.5" y="-130.5" font-family="Helvetica,sans-Serif" font-size="10.00" fill="#000000">amr&#45;wind/equation_systems</text>
<text text-anchor="middle" x="1950" y="-119.5" font-family="Helvetica,sans-Serif" font-size="10.00" fill="#000000">/PDEFields.H</text>
</a>
</g>
</g>
<!-- Node26&#45;&gt;Node32 -->
<g id="edge58" class="edge">
<title>Node26&#45;&gt;Node32</title>
<path fill="none" stroke="#191970" d="M1950,-179.2967C1950,-171.5013 1950,-161.7991 1950,-152.9064"/>
<polygon fill="#191970" stroke="#191970" points="1953.5001,-152.6431 1950,-142.6432 1946.5001,-152.6432 1953.5001,-152.6431"/>
</g>
<!-- Node27&#45;&gt;Node1 -->
<g id="edge48" class="edge">
<title>Node27&#45;&gt;Node1</title>
<path fill="none" stroke="#191970" d="M2457.4688,-117.8906C2479.1952,-107.6908 2513.7335,-91.4763 2538.4185,-79.8875"/>
<polygon fill="#191970" stroke="#191970" points="2540.1103,-82.9598 2547.675,-75.5419 2537.1355,-76.6234 2540.1103,-82.9598"/>
</g>
<!-- Node27&#45;&gt;Node10 -->
<g id="edge49" class="edge">
<title>Node27&#45;&gt;Node10</title>
<path fill="none" stroke="#191970" d="M2401.5313,-117.8906C2362.0507,-107.1944 2298.1557,-89.8836 2255.1395,-78.2294"/>
<polygon fill="#191970" stroke="#191970" points="2255.787,-74.7787 2245.2197,-75.5419 2253.9565,-81.5352 2255.787,-74.7787"/>
</g>
<!-- Node28 -->
<g id="node29" class="node">
<title>Node28</title>
<polygon fill="#ffffff" stroke="#bfbfbf" points="2461,-56.5 2461,-75.5 2521,-75.5 2521,-56.5 2461,-56.5"/>
<text text-anchor="middle" x="2491" y="-63.5" font-family="Helvetica,sans-Serif" font-size="10.00" fill="#000000">iostream</text>
</g>
<!-- Node27&#45;&gt;Node28 -->
<g id="edge50" class="edge">
<title>Node27&#45;&gt;Node28</title>
<path fill="none" stroke="#191970" d="M2445.4375,-117.8906C2453.5531,-108.6478 2466.0055,-94.466 2475.8424,-83.2628"/>
<polygon fill="#191970" stroke="#191970" points="2478.4755,-85.5686 2482.4435,-75.7449 2473.2154,-80.95 2478.4755,-85.5686"/>
</g>
<!-- Node29 -->
<g id="node30" class="node">
<title>Node29</title>
<polygon fill="#ffffff" stroke="#bfbfbf" points="2274.5,-56.5 2274.5,-75.5 2363.5,-75.5 2363.5,-56.5 2274.5,-56.5"/>
<text text-anchor="middle" x="2319" y="-63.5" font-family="Helvetica,sans-Serif" font-size="10.00" fill="#000000">AMReX_Print.H</text>
</g>
<!-- Node27&#45;&gt;Node29 -->
<g id="edge51" class="edge">
<title>Node27&#45;&gt;Node29</title>
<path fill="none" stroke="#191970" d="M2418.5625,-117.8906C2399.1653,-107.7811 2368.431,-91.7628 2346.2383,-80.1962"/>
<polygon fill="#191970" stroke="#191970" points="2347.7936,-77.06 2337.308,-75.5419 2344.5582,-83.2675 2347.7936,-77.06"/>
</g>
<!-- Node30 -->
<g id="node31" class="node">
<title>Node30</title>
<polygon fill="#ffffff" stroke="#bfbfbf" points="2381.5,-56.5 2381.5,-75.5 2442.5,-75.5 2442.5,-56.5 2381.5,-56.5"/>
<text text-anchor="middle" x="2412" y="-63.5" font-family="Helvetica,sans-Serif" font-size="10.00" fill="#000000">AMReX.H</text>
</g>
<!-- Node27&#45;&gt;Node30 -->
<g id="edge52" class="edge">
<title>Node27&#45;&gt;Node30</title>
<path fill="none" stroke="#191970" d="M2433.0938,-117.8906C2429.5554,-109.1862 2424.2364,-96.1015 2419.825,-85.2494"/>
<polygon fill="#191970" stroke="#191970" points="2422.9695,-83.6907 2415.9613,-75.7449 2416.4848,-86.3268 2422.9695,-83.6907"/>
</g>
<!-- Node31&#45;&gt;Node1 -->
<g id="edge55" class="edge">
<title>Node31&#45;&gt;Node1</title>
<path fill="none" stroke="#191970" d="M2196.2727,-117.9608C2206.9583,-115.8323 2218.363,-113.7039 2229,-112 2358.7872,-91.2095 2395.8504,-100.7099 2528.4926,-76.072"/>
<polygon fill="#191970" stroke="#191970" points="2529.4564,-79.452 2538.6333,-74.1572 2528.1575,-72.5735 2529.4564,-79.452"/>
</g>
<!-- Node31&#45;&gt;Node9 -->
<g id="edge54" class="edge">
<title>Node31&#45;&gt;Node9</title>
<path fill="none" stroke="#191970" d="M2149.3596,-117.8251C2144.5406,-102.1298 2132.7544,-71.3334 2111,-56 2075.3978,-30.9061 1948.0752,-17.5101 1887.4879,-12.4318"/>
<polygon fill="#191970" stroke="#191970" points="1887.5813,-8.9279 1877.3306,-11.6063 1887.0142,-15.9049 1887.5813,-8.9279"/>
</g>
<!-- Node31&#45;&gt;Node10 -->
<g id="edge56" class="edge">
<title>Node31&#45;&gt;Node10</title>
<path fill="none" stroke="#191970" d="M2161.0625,-117.8906C2169.7793,-108.6478 2183.154,-94.466 2193.7196,-83.2628"/>
<polygon fill="#191970" stroke="#191970" points="2196.495,-85.4213 2200.8097,-75.7449 2191.4024,-80.6186 2196.495,-85.4213"/>
</g>
<!-- Node31&#45;&gt;Node21 -->
<g id="edge57" class="edge">
<title>Node31&#45;&gt;Node21</title>
<path fill="none" stroke="#191970" d="M2141.0953,-117.9242C2121.9737,-101.7851 2080.4722,-69.5994 2039,-56 1928.1293,-19.6438 1577.5505,-12.0213 1437.5654,-10.4236"/>
<polygon fill="#191970" stroke="#191970" points="1437.4959,-6.9227 1427.4587,-10.3146 1437.4204,-13.9223 1437.4959,-6.9227"/>
</g>
<!-- Node33 -->
<g id="node34" class="node">
<title>Node33</title>
<polygon fill="#ffffff" stroke="#bfbfbf" points="1981.5,-56.5 1981.5,-75.5 2030.5,-75.5 2030.5,-56.5 1981.5,-56.5"/>
<text text-anchor="middle" x="2006" y="-63.5" font-family="Helvetica,sans-Serif" font-size="10.00" fill="#000000">iosfwd</text>
</g>
<!-- Node32&#45;&gt;Node33 -->
<g id="edge59" class="edge">
<title>Node32&#45;&gt;Node33</title>
<path fill="none" stroke="#191970" d="M1963.8427,-112.2977C1971.859,-103.4941 1981.9762,-92.3833 1990.29,-83.2529"/>
<polygon fill="#191970" stroke="#191970" points="1992.8888,-85.5974 1997.0337,-75.8469 1987.7131,-80.8845 1992.8888,-85.5974"/>
</g>
<!-- Node34&#45;&gt;Node13 -->
<g id="edge65" class="edge">
<title>Node34&#45;&gt;Node13</title>
<path fill="none" stroke="#191970" d="M2086.4454,-184.9915C2069.9997,-182.8126 2052.3742,-180.6536 2036,-179 1831.7588,-158.3736 1295.8946,-178.4373 1118,-76 1098.5187,-64.782 1082.9123,-43.8961 1073.3707,-28.6146"/>
<polygon fill="#191970" stroke="#191970" points="1076.3476,-26.7726 1068.2331,-19.9604 1070.3284,-30.346 1076.3476,-26.7726"/>
</g>
<!-- Node34&#45;&gt;Node27 -->
<g id="edge63" class="edge">
<title>Node34&#45;&gt;Node27</title>
<path fill="none" stroke="#191970" d="M2192.5309,-184.9717C2243.4561,-172.9998 2330.8676,-152.4504 2386.2042,-139.4415"/>
<polygon fill="#191970" stroke="#191970" points="2387.2139,-142.7996 2396.1475,-137.1039 2385.6119,-135.9854 2387.2139,-142.7996"/>
</g>
<!-- Node34&#45;&gt;Node31 -->
<g id="edge64" class="edge">
<title>Node34&#45;&gt;Node31</title>
<path fill="none" stroke="#191970" d="M2152,-184.9005C2152,-175.149 2152,-159.7597 2152,-147.3695"/>
<polygon fill="#191970" stroke="#191970" points="2155.5001,-147.0816 2152,-137.0817 2148.5001,-147.0817 2155.5001,-147.0816"/>
</g>
<!-- Node35 -->
<g id="node36" class="node">
<title>Node35</title>
<polygon fill="#ffffff" stroke="#bfbfbf" points="2238.5,-118 2238.5,-137 2351.5,-137 2351.5,-118 2238.5,-118"/>
<text text-anchor="middle" x="2295" y="-125" font-family="Helvetica,sans-Serif" font-size="10.00" fill="#000000">AMReX_Geometry.H</text>
</g>
<!-- Node34&#45;&gt;Node35 -->
<g id="edge66" class="edge">
<title>Node34&#45;&gt;Node35</title>
<path fill="none" stroke="#191970" d="M2172.4884,-184.9005C2196.8056,-173.5072 2237.5486,-154.4178 2265.3169,-141.4075"/>
<polygon fill="#191970" stroke="#191970" points="2266.9792,-144.4938 2274.5496,-137.0817 2264.0093,-138.1551 2266.9792,-144.4938"/>
</g>
<!-- Node36&#45;&gt;Node1 -->
<g id="edge68" class="edge">
<title>Node36&#45;&gt;Node1</title>
<path fill="none" stroke="#191970" d="M2489.2216,-180.1526C2509.4854,-172.2002 2531.3039,-160.3119 2546,-143 2559.5974,-126.9823 2564.8077,-103.0422 2566.7946,-86.1155"/>
<polygon fill="#191970" stroke="#191970" points="2570.3211,-85.9713 2567.7187,-75.701 2563.3485,-85.3525 2570.3211,-85.9713"/>
</g>
<!-- Node36&#45;&gt;Node27 -->
<g id="edge69" class="edge">
<title>Node36&#45;&gt;Node27</title>
<path fill="none" stroke="#191970" d="M2437,-179.2967C2437,-169.7699 2437,-157.3954 2437,-147.1306"/>
<polygon fill="#191970" stroke="#191970" points="2440.5001,-147.0549 2437,-137.055 2433.5001,-147.055 2440.5001,-147.0549"/>
</g>
<!-- Node37&#45;&gt;Node27 -->
<g id="edge71" class="edge">
<title>Node37&#45;&gt;Node27</title>
<path fill="none" stroke="#191970" d="M2547.1324,-179.4639C2522.9847,-168.0702 2490.0543,-152.5327 2466.5061,-141.4219"/>
<polygon fill="#191970" stroke="#191970" points="2467.892,-138.2058 2457.3546,-137.1039 2464.9049,-144.5365 2467.892,-138.2058"/>
</g>
<!-- Node38 -->
<g id="node39" class="node">
<title>Node38</title>
<g id="a_node39"><a xlink:href="nc__interface_8_h.html" target="_top" xlink:title="Interface to NetCDF library. ">
<polygon fill="#ffffff" stroke="#000000" points="2793.5,-112.5 2793.5,-142.5 2918.5,-142.5 2918.5,-112.5 2793.5,-112.5"/>
<text text-anchor="start" x="2801.5" y="-130.5" font-family="Helvetica,sans-Serif" font-size="10.00" fill="#000000">amr&#45;wind/utilities</text>
<text text-anchor="middle" x="2856" y="-119.5" font-family="Helvetica,sans-Serif" font-size="10.00" fill="#000000">/ncutils/nc_interface.H</text>
</a>
</g>
</g>
<!-- Node37&#45;&gt;Node38 -->
<g id="edge72" class="edge">
<title>Node37&#45;&gt;Node38</title>
<path fill="none" stroke="#191970" d="M2641.1642,-179.4639C2683.428,-169.2412 2739.4834,-155.6827 2783.7374,-144.9787"/>
<polygon fill="#191970" stroke="#191970" points="2784.6678,-148.3546 2793.5647,-142.6017 2783.0221,-141.5508 2784.6678,-148.3546"/>
</g>
<!-- Node38&#45;&gt;Node9 -->
<g id="edge73" class="edge">
<title>Node38&#45;&gt;Node9</title>
<path fill="none" stroke="#191970" d="M2856.7602,-112.4672C2856.6922,-95.7925 2853.6929,-69.4695 2837,-56 2799.2272,-25.5209 2053.0354,-12.8853 1887.3876,-10.45"/>
<polygon fill="#191970" stroke="#191970" points="1887.3796,-6.9496 1877.3299,-10.3043 1887.2781,-13.9489 1887.3796,-6.9496"/>
</g>
<!-- Node38&#45;&gt;Node10 -->
<g id="edge74" class="edge">
<title>Node38&#45;&gt;Node10</title>
<path fill="none" stroke="#191970" d="M2793.2451,-123.954C2686.8682,-117.5212 2464.2028,-102.2352 2266.7394,-76.1382"/>
<polygon fill="#191970" stroke="#191970" points="2267.1359,-72.6602 2256.761,-74.8073 2266.2104,-79.5988 2267.1359,-72.6602"/>
</g>
<!-- Node39 -->
<g id="node40" class="node">
<title>Node39</title>
<polygon fill="#ffffff" stroke="#bfbfbf" points="2884.5,-56.5 2884.5,-75.5 2931.5,-75.5 2931.5,-56.5 2884.5,-56.5"/>
<text text-anchor="middle" x="2908" y="-63.5" font-family="Helvetica,sans-Serif" font-size="10.00" fill="#000000">vector</text>
</g>
<!-- Node38&#45;&gt;Node39 -->
<g id="edge75" class="edge">
<title>Node38&#45;&gt;Node39</title>
<path fill="none" stroke="#191970" d="M2868.8539,-112.2977C2876.2224,-103.5831 2885.5026,-92.6075 2893.1777,-83.5302"/>
<polygon fill="#191970" stroke="#191970" points="2895.8902,-85.743 2899.6741,-75.8469 2890.5448,-81.2233 2895.8902,-85.743"/>
</g>
<!-- Node40 -->
<g id="node41" class="node">
<title>Node40</title>
<polygon fill="#ffffff" stroke="#bfbfbf" points="2676,-56.5 2676,-75.5 2732,-75.5 2732,-56.5 2676,-56.5"/>
<text text-anchor="middle" x="2704" y="-63.5" font-family="Helvetica,sans-Serif" font-size="10.00" fill="#000000">netcdf.h</text>
</g>
<!-- Node38&#45;&gt;Node40 -->
<g id="edge76" class="edge">
<title>Node38&#45;&gt;Node40</title>
<path fill="none" stroke="#191970" d="M2818.8166,-112.4554C2793.7887,-102.329 2761.0837,-89.0964 2736.9834,-79.3453"/>
<polygon fill="#191970" stroke="#191970" points="2738.1373,-76.0366 2727.5546,-75.5303 2735.5118,-82.5256 2738.1373,-76.0366"/>
</g>
<!-- Node41 -->
<g id="node42" class="node">
<title>Node41</title>
<polygon fill="#ffffff" stroke="#bfbfbf" points="2750.5,-56.5 2750.5,-75.5 2827.5,-75.5 2827.5,-56.5 2750.5,-56.5"/>
<text text-anchor="middle" x="2789" y="-63.5" font-family="Helvetica,sans-Serif" font-size="10.00" fill="#000000">netcdf_par.h</text>
</g>
<!-- Node38&#45;&gt;Node41 -->
<g id="edge77" class="edge">
<title>Node38&#45;&gt;Node41</title>
<path fill="none" stroke="#191970" d="M2839.4382,-112.2977C2829.6535,-103.3163 2817.2526,-91.9334 2807.1957,-82.702"/>
<polygon fill="#191970" stroke="#191970" points="2809.4613,-80.0307 2799.7275,-75.8469 2804.7278,-85.1876 2809.4613,-80.0307"/>
</g>
<!-- Node42&#45;&gt;Node1 -->
<g id="edge79" class="edge">
<title>Node42&#45;&gt;Node1</title>
<path fill="none" stroke="#191970" d="M2767.1893,-246.4711C2781.9558,-238.045 2797.7206,-225.9734 2806,-210 2812.3403,-197.7678 2813.3624,-190.6457 2806,-179 2762.1422,-109.6267 2662.8393,-81.988 2607.3632,-71.661"/>
<polygon fill="#191970" stroke="#191970" points="2607.6652,-68.1604 2597.2098,-69.8735 2606.4515,-75.0544 2607.6652,-68.1604"/>
</g>
<!-- Node43 -->
<g id="node44" class="node">
<title>Node43</title>
<polygon fill="#ffffff" stroke="#bfbfbf" points="2669,-185 2669,-204 2797,-204 2797,-185 2669,-185"/>
<text text-anchor="middle" x="2733" y="-192" font-family="Helvetica,sans-Serif" font-size="10.00" fill="#000000">AMReX_AmrParticles.H</text>
</g>
<!-- Node42&#45;&gt;Node43 -->
<g id="edge80" class="edge">
<title>Node42&#45;&gt;Node43</title>
<path fill="none" stroke="#191970" d="M2733,-246.2967C2733,-236.7699 2733,-224.3954 2733,-214.1306"/>
<polygon fill="#191970" stroke="#191970" points="2736.5001,-214.0549 2733,-204.055 2729.5001,-214.055 2736.5001,-214.0549"/>
</g>
</g>
</svg>
