<?xml version="1.0" encoding="UTF-8" standalone="no"?>
<!DOCTYPE svg PUBLIC "-//W3C//DTD SVG 1.1//EN"
 "http://www.w3.org/Graphics/SVG/1.1/DTD/svg11.dtd">
<!-- Generated by graphviz version 2.40.1 (20161225.0304)
 -->
<!-- Title: SchemeTraits.H Pages: 1 -->
<!--zoomable 364 -->
<svg id="main" version="1.1" xmlns="http://www.w3.org/2000/svg" xmlns:xlink="http://www.w3.org/1999/xlink" xml:space="preserve" onload="init(evt)">
<style type="text/css"><![CDATA[
.edge:hover path { stroke: red; }
.edge:hover polygon { stroke: red; fill: red; }
]]></style>
<script type="text/javascript"><![CDATA[
var edges = document.getElementsByTagName('g');
if (edges && edges.length) {
  for (var i=0;i<edges.length;i++) {
    if (edges[i].id.substr(0,4)=='edge') {
      edges[i].setAttribute('class','edge');
    }
  }
}
]]></script>
        <defs>
                <circle id="rim" cx="0" cy="0" r="7"/>
                <circle id="rim2" cx="0" cy="0" r="3.5"/>
                <g id="zoomPlus">
                        <use xlink:href="#rim" fill="#404040">
                                <set attributeName="fill" to="#808080" begin="zoomplus.mouseover" end="zoomplus.mouseout"/>
                        </use>
                        <path d="M-4,0h8M0,-4v8" fill="none" stroke="white" stroke-width="1.5" pointer-events="none"/>
                </g>
                <g id="zoomMin">
                        <use xlink:href="#rim" fill="#404040">
                                <set attributeName="fill" to="#808080" begin="zoomminus.mouseover" end="zoomminus.mouseout"/>
                        </use>
                        <path d="M-4,0h8" fill="none" stroke="white" stroke-width="1.5" pointer-events="none"/>
                </g>
                <g id="dirArrow">
                        <path fill="none" stroke="white" stroke-width="1.5" d="M0,-3.0v7 M-2.5,-0.5L0,-3.0L2.5,-0.5"/>
                </g>
               <g id="resetDef">
                       <use xlink:href="#rim2" fill="#404040">
                               <set attributeName="fill" to="#808080" begin="reset.mouseover" end="reset.mouseout"/>
                       </use>
               </g>
        </defs>

<script type="text/javascript">
var viewWidth = 1794;
var viewHeight = 364;
var sectionId = 'dynsection-1';
</script>
<script xlink:href="svgpan.js"/>
<svg id="graph" class="graph">
<g id="viewport">
<title>SchemeTraits.H</title>
<polygon fill="#ffffff" stroke="transparent" points="-4,4 -4,-360 1789.5,-360 1789.5,4 -4,4"/>
<!-- Node2 -->
<g id="node1" class="node">
<title>Node2</title>
<polygon fill="#bfbfbf" stroke="#000000" points="707,-336.5 707,-355.5 799,-355.5 799,-336.5 707,-336.5"/>
<text text-anchor="middle" x="753" y="-343.5" font-family="Helvetica,sans-Serif" font-size="10.00" fill="#000000">SchemeTraits.H</text>
</g>
<!-- Node3 -->
<g id="node2" class="node">
<title>Node3</title>
<g id="a_node2"><a xlink:href="_adv_op___godunov_8_h.html" target="_top" xlink:title="AdvOp_Godunov.H">
<polygon fill="#ffffff" stroke="#000000" points="682.5,-112.5 682.5,-131.5 789.5,-131.5 789.5,-112.5 682.5,-112.5"/>
<text text-anchor="middle" x="736" y="-119.5" font-family="Helvetica,sans-Serif" font-size="10.00" fill="#000000">AdvOp_Godunov.H</text>
</a>
</g>
</g>
<!-- Node2&#45;&gt;Node3 -->
<g id="edge1" class="edge">
<title>Node2&#45;&gt;Node3</title>
<path fill="none" stroke="#191970" d="M743.4054,-327.4785C739.6799,-319.2885 735.8648,-309.3997 734,-300 721.4907,-236.9471 730.6293,-158.8473 734.4961,-131.7766"/>
<polygon fill="#191970" stroke="#191970" points="740.2567,-329.007 747.7682,-336.4788 746.5557,-325.9536 740.2567,-329.007"/>
</g>
<!-- Node14 -->
<g id="node13" class="node">
<title>Node14</title>
<g id="a_node13"><a xlink:href="_adv_op___m_o_l_8_h.html" target="_top" xlink:title="AdvOp_MOL.H">
<polygon fill="#ffffff" stroke="#000000" points="578,-112.5 578,-131.5 664,-131.5 664,-112.5 578,-112.5"/>
<text text-anchor="middle" x="621" y="-119.5" font-family="Helvetica,sans-Serif" font-size="10.00" fill="#000000">AdvOp_MOL.H</text>
</a>
</g>
</g>
<!-- Node2&#45;&gt;Node14 -->
<g id="edge13" class="edge">
<title>Node2&#45;&gt;Node14</title>
<path fill="none" stroke="#191970" d="M742.2501,-327.3056C737.5108,-318.9812 731.9137,-309.0362 727,-300 695.3757,-241.8439 694.252,-223.3897 658,-168 649.3566,-154.7937 637.7228,-140.8299 629.8243,-131.799"/>
<polygon fill="#191970" stroke="#191970" points="739.3238,-329.239 747.3271,-336.1815 745.4,-325.7634 739.3238,-329.239"/>
</g>
<!-- Node15 -->
<g id="node14" class="node">
<title>Node15</title>
<g id="a_node14"><a xlink:href="_comp_r_h_s_ops_8_h.html" target="_top" xlink:title="CompRHSOps.H">
<polygon fill="#ffffff" stroke="#000000" points="743.5,-280.5 743.5,-299.5 838.5,-299.5 838.5,-280.5 743.5,-280.5"/>
<text text-anchor="middle" x="791" y="-287.5" font-family="Helvetica,sans-Serif" font-size="10.00" fill="#000000">CompRHSOps.H</text>
</a>
</g>
</g>
<!-- Node2&#45;&gt;Node15 -->
<g id="edge22" class="edge">
<title>Node2&#45;&gt;Node15</title>
<path fill="none" stroke="#191970" d="M765.2679,-327.9209C771.6488,-318.5176 779.1931,-307.3997 784.4568,-299.6427"/>
<polygon fill="#191970" stroke="#191970" points="762.338,-326.0055 759.6191,-336.2455 768.1303,-329.936 762.338,-326.0055"/>
</g>
<!-- Node17 -->
<g id="node16" class="node">
<title>Node17</title>
<g id="a_node16"><a xlink:href="density_8_h.html" target="_top" xlink:title="density.H">
<polygon fill="#ffffff" stroke="#000000" points="481,-168.5 481,-187.5 543,-187.5 543,-168.5 481,-168.5"/>
<text text-anchor="middle" x="512" y="-175.5" font-family="Helvetica,sans-Serif" font-size="10.00" fill="#000000">density.H</text>
</a>
</g>
</g>
<!-- Node2&#45;&gt;Node17 -->
<g id="edge66" class="edge">
<title>Node2&#45;&gt;Node17</title>
<path fill="none" stroke="#191970" d="M713.5723,-332.9011C692.3758,-324.9664 666.2955,-313.7241 645,-300 592.0612,-265.8831 540.2623,-210.131 520.4485,-187.7498"/>
<polygon fill="#191970" stroke="#191970" points="712.6431,-336.2875 723.2372,-336.4188 715.0373,-329.7096 712.6431,-336.2875"/>
</g>
<!-- Node19 -->
<g id="node18" class="node">
<title>Node19</title>
<g id="a_node18"><a xlink:href="icns_8_h.html" target="_top" xlink:title="icns.H">
<polygon fill="#ffffff" stroke="#000000" points="268.5,-112.5 268.5,-131.5 315.5,-131.5 315.5,-112.5 268.5,-112.5"/>
<text text-anchor="middle" x="292" y="-119.5" font-family="Helvetica,sans-Serif" font-size="10.00" fill="#000000">icns.H</text>
</a>
</g>
</g>
<!-- Node2&#45;&gt;Node19 -->
<g id="edge72" class="edge">
<title>Node2&#45;&gt;Node19</title>
<path fill="none" stroke="#191970" d="M696.7089,-343.4648C594.957,-338.3241 384.6097,-324.9831 316,-300 274.1859,-284.7741 253.8889,-283.2925 233,-244 211.1328,-202.8672 258.3855,-152.3806 280.9194,-131.6153"/>
<polygon fill="#191970" stroke="#191970" points="696.6368,-346.9655 706.798,-343.9656 696.9839,-339.9741 696.6368,-346.9655"/>
</g>
<!-- Node23 -->
<g id="node22" class="node">
<title>Node23</title>
<g id="a_node22"><a xlink:href="levelset_8_h.html" target="_top" xlink:title="levelset.H">
<polygon fill="#ffffff" stroke="#000000" points="809,-168.5 809,-187.5 875,-187.5 875,-168.5 809,-168.5"/>
<text text-anchor="middle" x="842" y="-175.5" font-family="Helvetica,sans-Serif" font-size="10.00" fill="#000000">levelset.H</text>
</a>
</g>
</g>
<!-- Node2&#45;&gt;Node23 -->
<g id="edge73" class="edge">
<title>Node2&#45;&gt;Node23</title>
<path fill="none" stroke="#191970" d="M805.2563,-332.7611C821.8162,-325.8328 838.3181,-315.4452 848,-300 870.5263,-264.0644 854.1932,-209.8153 845.9695,-187.8009"/>
<polygon fill="#191970" stroke="#191970" points="803.6529,-329.6263 795.5505,-336.4528 806.1415,-336.169 803.6529,-329.6263"/>
</g>
<!-- Node25 -->
<g id="node24" class="node">
<title>Node25</title>
<g id="a_node24"><a xlink:href="_s_d_r_8_h.html" target="_top" xlink:title="SDR.H">
<polygon fill="#ffffff" stroke="#000000" points="1001.5,-168.5 1001.5,-187.5 1048.5,-187.5 1048.5,-168.5 1001.5,-168.5"/>
<text text-anchor="middle" x="1025" y="-175.5" font-family="Helvetica,sans-Serif" font-size="10.00" fill="#000000">SDR.H</text>
</a>
</g>
</g>
<!-- Node2&#45;&gt;Node25 -->
<g id="edge75" class="edge">
<title>Node2&#45;&gt;Node25</title>
<path fill="none" stroke="#191970" d="M798.3306,-333.2636C820.0988,-325.7745 845.7796,-314.8244 866,-300 901.3836,-274.0589 894.4138,-250.9951 929,-224 951.1446,-206.7157 980.8363,-193.7397 1001.306,-186.0493"/>
<polygon fill="#191970" stroke="#191970" points="797.0371,-330.0047 788.6379,-336.4625 799.231,-336.6521 797.0371,-330.0047"/>
</g>
<!-- Node30 -->
<g id="node29" class="node">
<title>Node30</title>
<g id="a_node29"><a xlink:href="temperature_8_h.html" target="_top" xlink:title="temperature.H">
<polygon fill="#ffffff" stroke="#000000" points="561,-168.5 561,-187.5 649,-187.5 649,-168.5 561,-168.5"/>
<text text-anchor="middle" x="605" y="-175.5" font-family="Helvetica,sans-Serif" font-size="10.00" fill="#000000">temperature.H</text>
</a>
</g>
</g>
<!-- Node2&#45;&gt;Node30 -->
<g id="edge76" class="edge">
<title>Node2&#45;&gt;Node30</title>
<path fill="none" stroke="#191970" d="M713.8535,-332.6307C696.5678,-325.1784 677.0323,-314.4412 663,-300 630.1496,-266.1925 613.1293,-210.264 607.3322,-187.7926"/>
<polygon fill="#191970" stroke="#191970" points="712.5949,-335.8973 723.176,-336.4356 715.2401,-329.4163 712.5949,-335.8973"/>
</g>
<!-- Node31 -->
<g id="node30" class="node">
<title>Node31</title>
<g id="a_node30"><a xlink:href="_t_k_e_8_h.html" target="_top" xlink:title="TKE.H">
<polygon fill="#ffffff" stroke="#000000" points="1204,-168.5 1204,-187.5 1250,-187.5 1250,-168.5 1204,-168.5"/>
<text text-anchor="middle" x="1227" y="-175.5" font-family="Helvetica,sans-Serif" font-size="10.00" fill="#000000">TKE.H</text>
</a>
</g>
</g>
<!-- Node2&#45;&gt;Node31 -->
<g id="edge77" class="edge">
<title>Node2&#45;&gt;Node31</title>
<path fill="none" stroke="#191970" d="M807.5711,-333.8188C833.7394,-326.4826 864.7962,-315.5012 890,-300 930.9578,-274.8096 924.2828,-246.0757 967,-224 1008.436,-202.5864 1148.2895,-186.1496 1203.9085,-180.3086"/>
<polygon fill="#191970" stroke="#191970" points="806.5468,-330.4699 797.8036,-336.4538 808.37,-337.2283 806.5468,-330.4699"/>
</g>
<!-- Node34 -->
<g id="node33" class="node">
<title>Node34</title>
<g id="a_node33"><a xlink:href="vof_8_h.html" target="_top" xlink:title="vof.H">
<polygon fill="#ffffff" stroke="#000000" points="1557,-168.5 1557,-187.5 1599,-187.5 1599,-168.5 1557,-168.5"/>
<text text-anchor="middle" x="1578" y="-175.5" font-family="Helvetica,sans-Serif" font-size="10.00" fill="#000000">vof.H</text>
</a>
</g>
</g>
<!-- Node2&#45;&gt;Node34 -->
<g id="edge78" class="edge">
<title>Node2&#45;&gt;Node34</title>
<path fill="none" stroke="#191970" d="M795.0519,-333.573C843.9898,-319.3892 927.3759,-296.0793 1000,-280 1215.89,-232.2011 1481.0842,-192.1471 1556.875,-181.0525"/>
<polygon fill="#191970" stroke="#191970" points="793.7718,-330.3003 785.1482,-336.4553 795.7279,-337.0214 793.7718,-330.3003"/>
</g>
<!-- Node37 -->
<g id="node36" class="node">
<title>Node37</title>
<g id="a_node36"><a xlink:href="_diffusion_ops_8_h.html" target="_top" xlink:title="DiffusionOps.H">
<polygon fill="#ffffff" stroke="#000000" points="325.5,-280.5 325.5,-299.5 414.5,-299.5 414.5,-280.5 325.5,-280.5"/>
<text text-anchor="middle" x="370" y="-287.5" font-family="Helvetica,sans-Serif" font-size="10.00" fill="#000000">DiffusionOps.H</text>
</a>
</g>
</g>
<!-- Node2&#45;&gt;Node37 -->
<g id="edge67" class="edge">
<title>Node2&#45;&gt;Node37</title>
<path fill="none" stroke="#191970" d="M696.8551,-337.7908C620.2756,-326.5938 484.6106,-306.7577 414.5832,-296.5187"/>
<polygon fill="#191970" stroke="#191970" points="696.4001,-341.2614 706.8013,-339.2451 697.4129,-334.3351 696.4001,-341.2614"/>
</g>
<!-- Node39 -->
<g id="node38" class="node">
<title>Node39</title>
<g id="a_node38"><a xlink:href="_p_d_e_base_8cpp.html" target="_top" xlink:title="PDEBase.cpp">
<polygon fill="#ffffff" stroke="#000000" points="1009,-280.5 1009,-299.5 1089,-299.5 1089,-280.5 1009,-280.5"/>
<text text-anchor="middle" x="1049" y="-287.5" font-family="Helvetica,sans-Serif" font-size="10.00" fill="#000000">PDEBase.cpp</text>
</a>
</g>
</g>
<!-- Node2&#45;&gt;Node39 -->
<g id="edge74" class="edge">
<title>Node2&#45;&gt;Node39</title>
<path fill="none" stroke="#191970" d="M809.3987,-335.33C867.7011,-324.2998 957.2591,-307.3564 1008.7721,-297.6107"/>
<polygon fill="#191970" stroke="#191970" points="808.4251,-331.952 799.25,-337.25 809.7264,-338.83 808.4251,-331.952"/>
</g>
<!-- Node4 -->
<g id="node3" class="node">
<title>Node4</title>
<g id="a_node3"><a xlink:href="density_8cpp.html" target="_top" xlink:title="density.cpp">
<polygon fill="#ffffff" stroke="#000000" points="585.5,-56.5 585.5,-75.5 656.5,-75.5 656.5,-56.5 585.5,-56.5"/>
<text text-anchor="middle" x="621" y="-63.5" font-family="Helvetica,sans-Serif" font-size="10.00" fill="#000000">density.cpp</text>
</a>
</g>
</g>
<!-- Node3&#45;&gt;Node4 -->
<g id="edge2" class="edge">
<title>Node3&#45;&gt;Node4</title>
<path fill="none" stroke="#191970" d="M707.1967,-107.9741C686.375,-97.8348 658.8022,-84.408 640.5112,-75.5011"/>
<polygon fill="#191970" stroke="#191970" points="705.7078,-111.1419 716.2308,-112.3733 708.7724,-104.8484 705.7078,-111.1419"/>
</g>
<!-- Node5 -->
<g id="node4" class="node">
<title>Node5</title>
<g id="a_node4"><a xlink:href="icns__ops_8_h.html" target="_top" xlink:title="icns_ops.H">
<polygon fill="#ffffff" stroke="#000000" points="379.5,-56.5 379.5,-75.5 448.5,-75.5 448.5,-56.5 379.5,-56.5"/>
<text text-anchor="middle" x="414" y="-63.5" font-family="Helvetica,sans-Serif" font-size="10.00" fill="#000000">icns_ops.H</text>
</a>
</g>
</g>
<!-- Node3&#45;&gt;Node5 -->
<g id="edge3" class="edge">
<title>Node3&#45;&gt;Node5</title>
<path fill="none" stroke="#191970" d="M672.5509,-111.706C597.0764,-99.4287 478.6453,-80.0504 458,-76 454.9251,-75.3967 451.737,-74.7379 448.5459,-74.0555"/>
<polygon fill="#191970" stroke="#191970" points="672.0123,-115.1643 682.4444,-113.3147 673.1358,-108.255 672.0123,-115.1643"/>
</g>
<!-- Node7 -->
<g id="node6" class="node">
<title>Node7</title>
<g id="a_node6"><a xlink:href="icns__advection_8_h.html" target="_top" xlink:title="icns_advection.H">
<polygon fill="#ffffff" stroke="#000000" points="467,-56.5 467,-75.5 567,-75.5 567,-56.5 467,-56.5"/>
<text text-anchor="middle" x="517" y="-63.5" font-family="Helvetica,sans-Serif" font-size="10.00" fill="#000000">icns_advection.H</text>
</a>
</g>
</g>
<!-- Node3&#45;&gt;Node7 -->
<g id="edge5" class="edge">
<title>Node3&#45;&gt;Node7</title>
<path fill="none" stroke="#191970" d="M688.4892,-109.8511C648.1898,-99.5462 591.1852,-84.9697 554.1562,-75.5011"/>
<polygon fill="#191970" stroke="#191970" points="687.7972,-113.2867 698.3526,-112.3733 689.5314,-106.5049 687.7972,-113.2867"/>
</g>
<!-- Node9 -->
<g id="node8" class="node">
<title>Node9</title>
<g id="a_node8"><a xlink:href="levelset_8cpp.html" target="_top" xlink:title="levelset.cpp">
<polygon fill="#ffffff" stroke="#000000" points="791,-56.5 791,-75.5 867,-75.5 867,-56.5 791,-56.5"/>
<text text-anchor="middle" x="829" y="-63.5" font-family="Helvetica,sans-Serif" font-size="10.00" fill="#000000">levelset.cpp</text>
</a>
</g>
</g>
<!-- Node3&#45;&gt;Node9 -->
<g id="edge8" class="edge">
<title>Node3&#45;&gt;Node9</title>
<path fill="none" stroke="#191970" d="M760.8335,-107.0465C777.3811,-97.0824 798.6432,-84.2794 812.9863,-75.6427"/>
<polygon fill="#191970" stroke="#191970" points="758.9607,-104.0886 752.1994,-112.2455 762.5717,-110.0854 758.9607,-104.0886"/>
</g>
<!-- Node10 -->
<g id="node9" class="node">
<title>Node10</title>
<g id="a_node9"><a xlink:href="_s_d_r_8cpp.html" target="_top" xlink:title="SDR.cpp">
<polygon fill="#ffffff" stroke="#000000" points="910.5,-56.5 910.5,-75.5 967.5,-75.5 967.5,-56.5 910.5,-56.5"/>
<text text-anchor="middle" x="939" y="-63.5" font-family="Helvetica,sans-Serif" font-size="10.00" fill="#000000">SDR.cpp</text>
</a>
</g>
</g>
<!-- Node3&#45;&gt;Node10 -->
<g id="edge9" class="edge">
<title>Node3&#45;&gt;Node10</title>
<path fill="none" stroke="#191970" d="M780.5587,-109.7079C820.1016,-98.7995 876.6897,-83.189 910.4495,-73.876"/>
<polygon fill="#191970" stroke="#191970" points="779.6061,-106.3399 770.8969,-112.3733 781.4677,-113.0879 779.6061,-106.3399"/>
</g>
<!-- Node11 -->
<g id="node10" class="node">
<title>Node11</title>
<g id="a_node10"><a xlink:href="temperature_8cpp.html" target="_top" xlink:title="temperature.cpp">
<polygon fill="#ffffff" stroke="#000000" points="675,-56.5 675,-75.5 773,-75.5 773,-56.5 675,-56.5"/>
<text text-anchor="middle" x="724" y="-63.5" font-family="Helvetica,sans-Serif" font-size="10.00" fill="#000000">temperature.cpp</text>
</a>
</g>
</g>
<!-- Node3&#45;&gt;Node11 -->
<g id="edge10" class="edge">
<title>Node3&#45;&gt;Node11</title>
<path fill="none" stroke="#191970" d="M731.8115,-102.4538C729.8672,-93.3803 727.6428,-82.9998 726.0663,-75.6427"/>
<polygon fill="#191970" stroke="#191970" points="728.3921,-103.2009 733.9098,-112.2455 735.2367,-101.7341 728.3921,-103.2009"/>
</g>
<!-- Node12 -->
<g id="node11" class="node">
<title>Node12</title>
<g id="a_node11"><a xlink:href="_t_k_e_8cpp.html" target="_top" xlink:title="TKE.cpp">
<polygon fill="#ffffff" stroke="#000000" points="1053,-56.5 1053,-75.5 1109,-75.5 1109,-56.5 1053,-56.5"/>
<text text-anchor="middle" x="1081" y="-63.5" font-family="Helvetica,sans-Serif" font-size="10.00" fill="#000000">TKE.cpp</text>
</a>
</g>
</g>
<!-- Node3&#45;&gt;Node12 -->
<g id="edge11" class="edge">
<title>Node3&#45;&gt;Node12</title>
<path fill="none" stroke="#191970" d="M799.861,-111.6342C875.3799,-99.376 997.7457,-79.5137 1052.6985,-70.5939"/>
<polygon fill="#191970" stroke="#191970" points="798.8377,-108.2544 789.5277,-113.3114 799.9593,-115.1639 798.8377,-108.2544"/>
</g>
<!-- Node13 -->
<g id="node12" class="node">
<title>Node13</title>
<g id="a_node12"><a xlink:href="vof_8cpp.html" target="_top" xlink:title="vof.cpp">
<polygon fill="#ffffff" stroke="#000000" points="1552,-56.5 1552,-75.5 1604,-75.5 1604,-56.5 1552,-56.5"/>
<text text-anchor="middle" x="1578" y="-63.5" font-family="Helvetica,sans-Serif" font-size="10.00" fill="#000000">vof.cpp</text>
</a>
</g>
</g>
<!-- Node3&#45;&gt;Node13 -->
<g id="edge12" class="edge">
<title>Node3&#45;&gt;Node13</title>
<path fill="none" stroke="#191970" d="M799.7187,-115.3719C812.3939,-114.161 825.6129,-112.9742 838,-112 1107.4199,-90.8116 1175.3571,-94.1318 1445,-76 1481.9652,-73.5143 1524.6771,-70.2295 1551.5127,-68.1154"/>
<polygon fill="#191970" stroke="#191970" points="799.3113,-111.8949 789.6962,-116.3446 799.9876,-118.8622 799.3113,-111.8949"/>
</g>
<!-- Node6 -->
<g id="node5" class="node">
<title>Node6</title>
<g id="a_node5"><a xlink:href="icns_8cpp.html" target="_top" xlink:title="icns.cpp">
<polygon fill="#ffffff" stroke="#000000" points="323,-.5 323,-19.5 379,-19.5 379,-.5 323,-.5"/>
<text text-anchor="middle" x="351" y="-7.5" font-family="Helvetica,sans-Serif" font-size="10.00" fill="#000000">icns.cpp</text>
</a>
</g>
</g>
<!-- Node5&#45;&gt;Node6 -->
<g id="edge4" class="edge">
<title>Node5&#45;&gt;Node6</title>
<path fill="none" stroke="#191970" d="M395.2808,-49.3607C384.3818,-39.6727 371.0245,-27.7995 361.848,-19.6427"/>
<polygon fill="#191970" stroke="#191970" points="393.2268,-52.2178 403.0262,-56.2455 397.8774,-46.9859 393.2268,-52.2178"/>
</g>
<!-- Node7&#45;&gt;Node6 -->
<g id="edge6" class="edge">
<title>Node7&#45;&gt;Node6</title>
<path fill="none" stroke="#191970" d="M478.6333,-53.057C448.2534,-42.8084 406.5181,-28.729 379.164,-19.5011"/>
<polygon fill="#191970" stroke="#191970" points="477.8694,-56.4931 488.4636,-56.3733 480.107,-49.8603 477.8694,-56.4931"/>
</g>
<!-- Node8 -->
<g id="node7" class="node">
<title>Node8</title>
<g id="a_node7"><a xlink:href="icns__advection_8cpp.html" target="_top" xlink:title="icns_advection.cpp">
<polygon fill="#ffffff" stroke="#000000" points="462,-.5 462,-19.5 572,-19.5 572,-.5 462,-.5"/>
<text text-anchor="middle" x="517" y="-7.5" font-family="Helvetica,sans-Serif" font-size="10.00" fill="#000000">icns_advection.cpp</text>
</a>
</g>
</g>
<!-- Node7&#45;&gt;Node8 -->
<g id="edge7" class="edge">
<title>Node7&#45;&gt;Node8</title>
<path fill="none" stroke="#191970" d="M517,-46.1575C517,-37.155 517,-26.9199 517,-19.6427"/>
<polygon fill="#191970" stroke="#191970" points="513.5001,-46.2455 517,-56.2455 520.5001,-46.2456 513.5001,-46.2455"/>
</g>
<!-- Node14&#45;&gt;Node4 -->
<g id="edge14" class="edge">
<title>Node14&#45;&gt;Node4</title>
<path fill="none" stroke="#191970" d="M621,-102.1575C621,-93.155 621,-82.9199 621,-75.6427"/>
<polygon fill="#191970" stroke="#191970" points="617.5001,-102.2455 621,-112.2455 624.5001,-102.2456 617.5001,-102.2455"/>
</g>
<!-- Node14&#45;&gt;Node5 -->
<g id="edge15" class="edge">
<title>Node14&#45;&gt;Node5</title>
<path fill="none" stroke="#191970" d="M575.5765,-109.7115C537.3903,-99.381 483.6087,-84.8313 448.7757,-75.4079"/>
<polygon fill="#191970" stroke="#191970" points="574.8484,-113.1403 585.4154,-112.3733 576.6765,-106.3832 574.8484,-113.1403"/>
</g>
<!-- Node14&#45;&gt;Node7 -->
<g id="edge16" class="edge">
<title>Node14&#45;&gt;Node7</title>
<path fill="none" stroke="#191970" d="M593.9971,-107.46C575.3864,-97.4388 551.1701,-84.3993 534.9078,-75.6427"/>
<polygon fill="#191970" stroke="#191970" points="592.4205,-110.5861 602.8846,-112.2455 595.7392,-104.4228 592.4205,-110.5861"/>
</g>
<!-- Node14&#45;&gt;Node9 -->
<g id="edge17" class="edge">
<title>Node14&#45;&gt;Node9</title>
<path fill="none" stroke="#191970" d="M666.6118,-109.7199C704.8582,-99.4228 758.69,-84.9296 793.7101,-75.5011"/>
<polygon fill="#191970" stroke="#191970" points="665.5027,-106.3938 656.7565,-112.3733 667.3226,-113.1531 665.5027,-106.3938"/>
</g>
<!-- Node14&#45;&gt;Node10 -->
<g id="edge18" class="edge">
<title>Node14&#45;&gt;Node10</title>
<path fill="none" stroke="#191970" d="M674.1718,-111.8105C766.3334,-95.0527 863.1247,-78.6812 910.2341,-70.7928"/>
<polygon fill="#191970" stroke="#191970" points="673.3285,-108.4065 664.1185,-113.6435 674.5842,-115.2929 673.3285,-108.4065"/>
</g>
<!-- Node14&#45;&gt;Node11 -->
<g id="edge19" class="edge">
<title>Node14&#45;&gt;Node11</title>
<path fill="none" stroke="#191970" d="M647.7432,-107.46C666.175,-97.4388 690.1584,-84.3993 706.2644,-75.6427"/>
<polygon fill="#191970" stroke="#191970" points="646.0549,-104.394 638.9412,-112.2455 649.3985,-110.5438 646.0549,-104.394"/>
</g>
<!-- Node14&#45;&gt;Node12 -->
<g id="edge20" class="edge">
<title>Node14&#45;&gt;Node12</title>
<path fill="none" stroke="#191970" d="M674.1468,-111.951C763.8377,-98.9794 976.0963,-76.7963 1052.8128,-68.889"/>
<polygon fill="#191970" stroke="#191970" points="673.4621,-108.5142 664.0856,-113.447 674.4917,-115.4381 673.4621,-108.5142"/>
</g>
<!-- Node14&#45;&gt;Node13 -->
<g id="edge21" class="edge">
<title>Node14&#45;&gt;Node13</title>
<path fill="none" stroke="#191970" d="M674.2361,-112.0227C1015.8279,-71.9548 1105.4993,-96.6748 1445,-76 1481.9802,-73.748 1524.6883,-70.4047 1551.519,-68.214"/>
<polygon fill="#191970" stroke="#191970" points="673.5753,-108.5764 664.0558,-113.2271 674.3978,-115.5279 673.5753,-108.5764"/>
</g>
<!-- Node16 -->
<g id="node15" class="node">
<title>Node16</title>
<g id="a_node15"><a xlink:href="_p_d_e_8_h.html" target="_top" xlink:title="PDE.H">
<polygon fill="#ffffff" stroke="#000000" points="767.5,-224.5 767.5,-243.5 814.5,-243.5 814.5,-224.5 767.5,-224.5"/>
<text text-anchor="middle" x="791" y="-231.5" font-family="Helvetica,sans-Serif" font-size="10.00" fill="#000000">PDE.H</text>
</a>
</g>
</g>
<!-- Node15&#45;&gt;Node16 -->
<g id="edge23" class="edge">
<title>Node15&#45;&gt;Node16</title>
<path fill="none" stroke="#191970" d="M791,-270.1575C791,-261.155 791,-250.9199 791,-243.6427"/>
<polygon fill="#191970" stroke="#191970" points="787.5001,-270.2455 791,-280.2455 794.5001,-270.2456 787.5001,-270.2455"/>
</g>
<!-- Node16&#45;&gt;Node17 -->
<g id="edge24" class="edge">
<title>Node16&#45;&gt;Node17</title>
<path fill="none" stroke="#191970" d="M757.0551,-228.0718C710.6118,-219.823 624.7262,-204.0769 552,-188 549.2042,-187.382 546.3056,-186.7129 543.4044,-186.0239"/>
<polygon fill="#191970" stroke="#191970" points="756.7087,-231.5647 767.1654,-229.8595 757.9276,-224.6717 756.7087,-231.5647"/>
</g>
<!-- Node16&#45;&gt;Node19 -->
<g id="edge28" class="edge">
<title>Node16&#45;&gt;Node19</title>
<path fill="none" stroke="#191970" d="M757.2869,-231.4608C698.5948,-226.5276 574.1465,-213.7919 472,-188 413.1043,-173.1289 346.7026,-145.9187 313.4284,-131.5199"/>
<polygon fill="#191970" stroke="#191970" points="757.2087,-234.966 767.4606,-232.2925 757.7791,-227.9892 757.2087,-234.966"/>
</g>
<!-- Node16&#45;&gt;Node23 -->
<g id="edge37" class="edge">
<title>Node16&#45;&gt;Node23</title>
<path fill="none" stroke="#191970" d="M806.6749,-216.7884C815.3994,-207.2085 825.9354,-195.6396 833.2183,-187.6427"/>
<polygon fill="#191970" stroke="#191970" points="804.0291,-214.4954 799.8835,-224.2455 809.2046,-219.2088 804.0291,-214.4954"/>
</g>
<!-- Node16&#45;&gt;Node25 -->
<g id="edge41" class="edge">
<title>Node16&#45;&gt;Node25</title>
<path fill="none" stroke="#191970" d="M824.6169,-225.9549C872.5584,-214.4818 959.3835,-193.7031 1001.2123,-183.6928"/>
<polygon fill="#191970" stroke="#191970" points="823.6357,-222.5908 814.7249,-228.3222 825.2649,-229.3986 823.6357,-222.5908"/>
</g>
<!-- Node16&#45;&gt;Node30 -->
<g id="edge50" class="edge">
<title>Node16&#45;&gt;Node30</title>
<path fill="none" stroke="#191970" d="M757.4439,-223.8971C723.172,-213.5787 670.3591,-197.678 636.755,-187.5606"/>
<polygon fill="#191970" stroke="#191970" points="756.8585,-227.376 767.443,-226.9076 758.8766,-220.6732 756.8585,-227.376"/>
</g>
<!-- Node16&#45;&gt;Node31 -->
<g id="edge52" class="edge">
<title>Node16&#45;&gt;Node31</title>
<path fill="none" stroke="#191970" d="M824.9121,-229.6443C910.1012,-218.7026 1131.4304,-190.275 1203.7583,-180.9852"/>
<polygon fill="#191970" stroke="#191970" points="824.2235,-226.2039 814.7509,-230.9494 825.1153,-233.1469 824.2235,-226.2039"/>
</g>
<!-- Node16&#45;&gt;Node34 -->
<g id="edge60" class="edge">
<title>Node16&#45;&gt;Node34</title>
<path fill="none" stroke="#191970" d="M824.5936,-231.6096C958.0276,-222.1149 1448.5713,-187.2097 1556.7843,-179.5096"/>
<polygon fill="#191970" stroke="#191970" points="824.2797,-228.123 814.5533,-232.324 824.7766,-235.1053 824.2797,-228.123"/>
</g>
<!-- Node17&#45;&gt;Node4 -->
<g id="edge25" class="edge">
<title>Node17&#45;&gt;Node4</title>
<path fill="none" stroke="#191970" d="M515.3095,-158.201C518.5414,-143.991 524.6891,-125.1127 536,-112 550.7956,-94.8476 573.6243,-82.9934 591.8991,-75.6194"/>
<polygon fill="#191970" stroke="#191970" points="511.7998,-157.9088 513.2996,-168.397 518.6676,-159.2627 511.7998,-157.9088"/>
</g>
<!-- Node18 -->
<g id="node17" class="node">
<title>Node18</title>
<g id="a_node17"><a xlink:href="density__ops_8_h.html" target="_top" xlink:title="density_ops.H">
<polygon fill="#ffffff" stroke="#000000" points="398,-112.5 398,-131.5 484,-131.5 484,-112.5 398,-112.5"/>
<text text-anchor="middle" x="441" y="-119.5" font-family="Helvetica,sans-Serif" font-size="10.00" fill="#000000">density_ops.H</text>
</a>
</g>
</g>
<!-- Node17&#45;&gt;Node18 -->
<g id="edge26" class="edge">
<title>Node17&#45;&gt;Node18</title>
<path fill="none" stroke="#191970" d="M491.623,-161.928C479.2129,-152.1397 463.77,-139.9595 453.2255,-131.6427"/>
<polygon fill="#191970" stroke="#191970" points="489.6136,-164.8007 499.6327,-168.2455 493.9486,-159.3046 489.6136,-164.8007"/>
</g>
<!-- Node18&#45;&gt;Node4 -->
<g id="edge27" class="edge">
<title>Node18&#45;&gt;Node4</title>
<path fill="none" stroke="#191970" d="M481.7459,-109.3235C514.7563,-99.0536 560.5417,-84.8093 590.4607,-75.5011"/>
<polygon fill="#191970" stroke="#191970" points="480.4519,-106.0605 471.9431,-112.3733 482.5314,-112.7445 480.4519,-106.0605"/>
</g>
<!-- Node19&#45;&gt;Node5 -->
<g id="edge30" class="edge">
<title>Node19&#45;&gt;Node5</title>
<path fill="none" stroke="#191970" d="M322.2584,-108.1109C344.3819,-97.9559 373.8094,-84.4482 393.3011,-75.5011"/>
<polygon fill="#191970" stroke="#191970" points="320.6007,-105.0206 312.9725,-112.3733 323.521,-111.3824 320.6007,-105.0206"/>
</g>
<!-- Node19&#45;&gt;Node6 -->
<g id="edge29" class="edge">
<title>Node19&#45;&gt;Node6</title>
<path fill="none" stroke="#191970" d="M309.4168,-104.9168C316.9327,-96.7504 325.2909,-86.482 331,-76 341.0791,-57.4946 346.7526,-33.2388 349.3142,-19.8861"/>
<polygon fill="#191970" stroke="#191970" points="306.7154,-102.6767 302.311,-112.3127 311.7632,-107.5265 306.7154,-102.6767"/>
</g>
<!-- Node19&#45;&gt;Node7 -->
<g id="edge31" class="edge">
<title>Node19&#45;&gt;Node7</title>
<path fill="none" stroke="#191970" d="M325.4265,-113.6805C366.3953,-103.4838 435.665,-86.2434 478.7283,-75.5254"/>
<polygon fill="#191970" stroke="#191970" points="324.5123,-110.3012 315.6537,-116.1129 326.203,-117.094 324.5123,-110.3012"/>
</g>
<!-- Node20 -->
<g id="node19" class="node">
<title>Node20</title>
<g id="a_node19"><a xlink:href="icns__diffusion_8_h.html" target="_top" xlink:title="icns_diffusion.H">
<polygon fill="#ffffff" stroke="#000000" points="0,-56.5 0,-75.5 94,-75.5 94,-56.5 0,-56.5"/>
<text text-anchor="middle" x="47" y="-63.5" font-family="Helvetica,sans-Serif" font-size="10.00" fill="#000000">icns_diffusion.H</text>
</a>
</g>
</g>
<!-- Node19&#45;&gt;Node20 -->
<g id="edge32" class="edge">
<title>Node19&#45;&gt;Node20</title>
<path fill="none" stroke="#191970" d="M258.1117,-114.2541C213.9555,-104.1613 136.7592,-86.5164 88.9549,-75.5897"/>
<polygon fill="#191970" stroke="#191970" points="257.5338,-117.7122 268.0623,-116.5285 259.0936,-110.8882 257.5338,-117.7122"/>
</g>
<!-- Node21 -->
<g id="node20" class="node">
<title>Node21</title>
<g id="a_node20"><a xlink:href="icns__bcop_8_h.html" target="_top" xlink:title="icns_bcop.H">
<polygon fill="#ffffff" stroke="#000000" points="112.5,-56.5 112.5,-75.5 187.5,-75.5 187.5,-56.5 112.5,-56.5"/>
<text text-anchor="middle" x="150" y="-63.5" font-family="Helvetica,sans-Serif" font-size="10.00" fill="#000000">icns_bcop.H</text>
</a>
</g>
</g>
<!-- Node19&#45;&gt;Node21 -->
<g id="edge34" class="edge">
<title>Node19&#45;&gt;Node21</title>
<path fill="none" stroke="#191970" d="M258.8249,-108.9169C232.9529,-98.7138 197.617,-84.7785 174.3211,-75.5914"/>
<polygon fill="#191970" stroke="#191970" points="257.6456,-112.2141 268.2324,-112.6269 260.2137,-105.7022 257.6456,-112.2141"/>
</g>
<!-- Node22 -->
<g id="node21" class="node">
<title>Node22</title>
<g id="a_node21"><a xlink:href="_power_law_profile_8cpp.html" target="_top" xlink:title="PowerLawProfile.cpp">
<polygon fill="#ffffff" stroke="#000000" points="205.5,-56.5 205.5,-75.5 322.5,-75.5 322.5,-56.5 205.5,-56.5"/>
<text text-anchor="middle" x="264" y="-63.5" font-family="Helvetica,sans-Serif" font-size="10.00" fill="#000000">PowerLawProfile.cpp</text>
</a>
</g>
</g>
<!-- Node19&#45;&gt;Node22 -->
<g id="edge36" class="edge">
<title>Node19&#45;&gt;Node22</title>
<path fill="none" stroke="#191970" d="M282.5219,-103.0437C277.9165,-93.8331 272.5799,-83.1598 268.8213,-75.6427"/>
<polygon fill="#191970" stroke="#191970" points="279.5201,-104.8665 287.1228,-112.2455 285.7811,-101.736 279.5201,-104.8665"/>
</g>
<!-- Node20&#45;&gt;Node6 -->
<g id="edge33" class="edge">
<title>Node20&#45;&gt;Node6</title>
<path fill="none" stroke="#191970" d="M104.283,-55.4479C169.4726,-43.4393 273.3077,-24.3117 322.8774,-15.1805"/>
<polygon fill="#191970" stroke="#191970" points="103.3669,-52.0577 94.1665,-57.3114 104.6351,-58.9418 103.3669,-52.0577"/>
</g>
<!-- Node21&#45;&gt;Node6 -->
<g id="edge35" class="edge">
<title>Node21&#45;&gt;Node6</title>
<path fill="none" stroke="#191970" d="M194.3688,-53.6385C233.5104,-42.7334 289.3744,-27.1693 322.7308,-17.876"/>
<polygon fill="#191970" stroke="#191970" points="193.2469,-50.3177 184.5531,-56.3733 195.1256,-57.0609 193.2469,-50.3177"/>
</g>
<!-- Node23&#45;&gt;Node9 -->
<g id="edge38" class="edge">
<title>Node23&#45;&gt;Node9</title>
<path fill="none" stroke="#191970" d="M839.7099,-158.2702C836.8927,-133.9985 832.2236,-93.7725 830.1056,-75.5249"/>
<polygon fill="#191970" stroke="#191970" points="836.2619,-158.9212 840.8916,-168.4509 843.2152,-158.1141 836.2619,-158.9212"/>
</g>
<!-- Node24 -->
<g id="node23" class="node">
<title>Node24</title>
<g id="a_node23"><a xlink:href="levelset__ops_8_h.html" target="_top" xlink:title="levelset_ops.H">
<polygon fill="#ffffff" stroke="#000000" points="846.5,-112.5 846.5,-131.5 935.5,-131.5 935.5,-112.5 846.5,-112.5"/>
<text text-anchor="middle" x="891" y="-119.5" font-family="Helvetica,sans-Serif" font-size="10.00" fill="#000000">levelset_ops.H</text>
</a>
</g>
</g>
<!-- Node23&#45;&gt;Node24 -->
<g id="edge39" class="edge">
<title>Node23&#45;&gt;Node24</title>
<path fill="none" stroke="#191970" d="M857.3122,-160.5004C865.6447,-150.9775 875.6353,-139.5596 882.5627,-131.6427"/>
<polygon fill="#191970" stroke="#191970" points="854.4862,-158.415 850.5351,-168.2455 859.7543,-163.0245 854.4862,-158.415"/>
</g>
<!-- Node24&#45;&gt;Node9 -->
<g id="edge40" class="edge">
<title>Node24&#45;&gt;Node9</title>
<path fill="none" stroke="#191970" d="M872.5779,-105.3607C861.8519,-95.6727 848.7066,-83.7995 839.6758,-75.6427"/>
<polygon fill="#191970" stroke="#191970" points="870.4334,-108.14 880.2004,-112.2455 875.1254,-102.9453 870.4334,-108.14"/>
</g>
<!-- Node25&#45;&gt;Node10 -->
<g id="edge42" class="edge">
<title>Node25&#45;&gt;Node10</title>
<path fill="none" stroke="#191970" d="M1008.9208,-161.0293C1001.1243,-152.5372 991.786,-141.9661 984,-132 968.9733,-112.7658 953.3388,-88.7833 945.0346,-75.6726"/>
<polygon fill="#191970" stroke="#191970" points="1006.4481,-163.5098 1015.8225,-168.4466 1011.5728,-158.7414 1006.4481,-163.5098"/>
</g>
<!-- Node26 -->
<g id="node25" class="node">
<title>Node26</title>
<g id="a_node25"><a xlink:href="sdr__ops_8_h.html" target="_top" xlink:title="sdr_ops.H">
<polygon fill="#ffffff" stroke="#000000" points="992.5,-112.5 992.5,-131.5 1057.5,-131.5 1057.5,-112.5 992.5,-112.5"/>
<text text-anchor="middle" x="1025" y="-119.5" font-family="Helvetica,sans-Serif" font-size="10.00" fill="#000000">sdr_ops.H</text>
</a>
</g>
</g>
<!-- Node25&#45;&gt;Node26 -->
<g id="edge43" class="edge">
<title>Node25&#45;&gt;Node26</title>
<path fill="none" stroke="#191970" d="M1025,-158.1575C1025,-149.155 1025,-138.9199 1025,-131.6427"/>
<polygon fill="#191970" stroke="#191970" points="1021.5001,-158.2455 1025,-168.2455 1028.5001,-158.2456 1021.5001,-158.2455"/>
</g>
<!-- Node27 -->
<g id="node26" class="node">
<title>Node27</title>
<g id="a_node26"><a xlink:href="_k_omega_s_s_t_i_8_h.html" target="_top" xlink:title="KOmegaSSTI.H">
<polygon fill="#ffffff" stroke="#000000" points="1312.5,-112.5 1312.5,-131.5 1401.5,-131.5 1401.5,-112.5 1312.5,-112.5"/>
<text text-anchor="middle" x="1357" y="-119.5" font-family="Helvetica,sans-Serif" font-size="10.00" fill="#000000">KOmegaSSTI.H</text>
</a>
</g>
</g>
<!-- Node25&#45;&gt;Node27 -->
<g id="edge45" class="edge">
<title>Node25&#45;&gt;Node27</title>
<path fill="none" stroke="#191970" d="M1058.6551,-172.3399C1110.1921,-163.6701 1211.7637,-146.5735 1298,-132 1302.6098,-131.221 1307.4219,-130.4068 1312.2229,-129.594"/>
<polygon fill="#191970" stroke="#191970" points="1058.018,-168.8978 1048.7372,-174.0083 1059.1792,-175.8009 1058.018,-168.8978"/>
</g>
<!-- Node28 -->
<g id="node27" class="node">
<title>Node28</title>
<g id="a_node27"><a xlink:href="_k_omega_s_s_t_8cpp.html" target="_top" xlink:title="KOmegaSST.cpp">
<polygon fill="#ffffff" stroke="#000000" points="1196.5,-56.5 1196.5,-75.5 1291.5,-75.5 1291.5,-56.5 1196.5,-56.5"/>
<text text-anchor="middle" x="1244" y="-63.5" font-family="Helvetica,sans-Serif" font-size="10.00" fill="#000000">KOmegaSST.cpp</text>
</a>
</g>
</g>
<!-- Node25&#45;&gt;Node28 -->
<g id="edge48" class="edge">
<title>Node25&#45;&gt;Node28</title>
<path fill="none" stroke="#191970" d="M1041.8895,-161.1202C1057.4087,-146.4123 1081.6356,-125.3968 1106,-112 1136.6495,-95.1473 1174.5276,-83.0656 1202.8417,-75.5254"/>
<polygon fill="#191970" stroke="#191970" points="1039.3645,-158.6931 1034.613,-168.1627 1044.2328,-163.723 1039.3645,-158.6931"/>
</g>
<!-- Node29 -->
<g id="node28" class="node">
<title>Node29</title>
<g id="a_node28"><a xlink:href="_k_omega_s_s_t_i_d_d_e_s_8cpp.html" target="_top" xlink:title="KOmegaSSTIDDES.cpp">
<polygon fill="#ffffff" stroke="#000000" points="1310,-56.5 1310,-75.5 1436,-75.5 1436,-56.5 1310,-56.5"/>
<text text-anchor="middle" x="1373" y="-63.5" font-family="Helvetica,sans-Serif" font-size="10.00" fill="#000000">KOmegaSSTIDDES.cpp</text>
</a>
</g>
</g>
<!-- Node25&#45;&gt;Node29 -->
<g id="edge49" class="edge">
<title>Node25&#45;&gt;Node29</title>
<path fill="none" stroke="#191970" d="M1058.1875,-169.4318C1091.4621,-160.6679 1144.0671,-146.3403 1189,-132 1246.5486,-113.6334 1313.0252,-88.8995 1348.1919,-75.5324"/>
<polygon fill="#191970" stroke="#191970" points="1057.2978,-166.0467 1048.5114,-171.9669 1059.072,-172.8182 1057.2978,-166.0467"/>
</g>
<!-- Node26&#45;&gt;Node10 -->
<g id="edge44" class="edge">
<title>Node26&#45;&gt;Node10</title>
<path fill="none" stroke="#191970" d="M1001.6095,-106.769C986.3701,-96.8456 966.9491,-84.1994 953.8084,-75.6427"/>
<polygon fill="#191970" stroke="#191970" points="999.7301,-109.7218 1010.0199,-112.2455 1003.5498,-103.8558 999.7301,-109.7218"/>
</g>
<!-- Node27&#45;&gt;Node28 -->
<g id="edge46" class="edge">
<title>Node27&#45;&gt;Node28</title>
<path fill="none" stroke="#191970" d="M1328.4208,-107.8368C1307.9942,-97.7139 1281.0638,-84.3679 1263.1719,-75.5011"/>
<polygon fill="#191970" stroke="#191970" points="1327.0604,-111.0688 1337.5746,-112.3733 1330.1687,-104.7968 1327.0604,-111.0688"/>
</g>
<!-- Node27&#45;&gt;Node29 -->
<g id="edge47" class="edge">
<title>Node27&#45;&gt;Node29</title>
<path fill="none" stroke="#191970" d="M1362.5846,-102.4538C1365.177,-93.3803 1368.1429,-82.9998 1370.245,-75.6427"/>
<polygon fill="#191970" stroke="#191970" points="1359.1689,-101.6688 1359.787,-112.2455 1365.8996,-103.5919 1359.1689,-101.6688"/>
</g>
<!-- Node30&#45;&gt;Node11 -->
<g id="edge51" class="edge">
<title>Node30&#45;&gt;Node11</title>
<path fill="none" stroke="#191970" d="M585.3894,-161.3121C571.537,-147.478 557.3412,-127.6214 569,-112 581.8016,-94.8473 634.355,-81.8068 674.7568,-74.066"/>
<polygon fill="#191970" stroke="#191970" points="583.1867,-164.044 592.8834,-168.3129 587.9653,-158.9288 583.1867,-164.044"/>
</g>
<!-- Node31&#45;&gt;Node12 -->
<g id="edge53" class="edge">
<title>Node31&#45;&gt;Node12</title>
<path fill="none" stroke="#191970" d="M1219.8325,-158.6634C1213.6072,-144.1633 1203.3279,-124.7072 1189,-112 1166.1291,-91.7161 1132.9812,-79.4095 1109.4517,-72.6958"/>
<polygon fill="#191970" stroke="#191970" points="1216.6778,-160.2001 1223.649,-168.1784 1223.1747,-157.5942 1216.6778,-160.2001"/>
</g>
<!-- Node31&#45;&gt;Node27 -->
<g id="edge57" class="edge">
<title>Node31&#45;&gt;Node27</title>
<path fill="none" stroke="#191970" d="M1258.6102,-164.3833C1282.2535,-154.1985 1313.9876,-140.5284 1334.9438,-131.5011"/>
<polygon fill="#191970" stroke="#191970" points="1257.1472,-161.2025 1249.3478,-168.3733 1259.9166,-167.6314 1257.1472,-161.2025"/>
</g>
<!-- Node31&#45;&gt;Node28 -->
<g id="edge58" class="edge">
<title>Node31&#45;&gt;Node28</title>
<path fill="none" stroke="#191970" d="M1229.9947,-158.2702C1233.6788,-133.9985 1239.7845,-93.7725 1242.5543,-75.5249"/>
<polygon fill="#191970" stroke="#191970" points="1226.4898,-158.0389 1228.4494,-168.4509 1233.4105,-159.0894 1226.4898,-158.0389"/>
</g>
<!-- Node31&#45;&gt;Node29 -->
<g id="edge59" class="edge">
<title>Node31&#45;&gt;Node29</title>
<path fill="none" stroke="#191970" d="M1260.467,-175.1922C1333.9433,-168.6894 1504.1924,-151.6419 1521,-132 1549.5345,-98.6538 1488.3346,-81.44 1436.1681,-73.0799"/>
<polygon fill="#191970" stroke="#191970" points="1260.0161,-171.7182 1250.3582,-176.0742 1260.6246,-178.6917 1260.0161,-171.7182"/>
</g>
<!-- Node32 -->
<g id="node31" class="node">
<title>Node32</title>
<g id="a_node31"><a xlink:href="tke__ops_8_h.html" target="_top" xlink:title="tke_ops.H">
<polygon fill="#ffffff" stroke="#000000" points="1114.5,-112.5 1114.5,-131.5 1179.5,-131.5 1179.5,-112.5 1114.5,-112.5"/>
<text text-anchor="middle" x="1147" y="-119.5" font-family="Helvetica,sans-Serif" font-size="10.00" fill="#000000">tke_ops.H</text>
</a>
</g>
</g>
<!-- Node31&#45;&gt;Node32 -->
<g id="edge54" class="edge">
<title>Node31&#45;&gt;Node32</title>
<path fill="none" stroke="#191970" d="M1204.8429,-162.49C1190.728,-152.6096 1172.8849,-140.1194 1160.7752,-131.6427"/>
<polygon fill="#191970" stroke="#191970" points="1202.8656,-165.3782 1213.0651,-168.2455 1206.8799,-159.6436 1202.8656,-165.3782"/>
</g>
<!-- Node33 -->
<g id="node32" class="node">
<title>Node33</title>
<g id="a_node32"><a xlink:href="_one_eq_ksgs_8cpp.html" target="_top" xlink:title="OneEqKsgs.cpp">
<polygon fill="#ffffff" stroke="#000000" points="1420,-112.5 1420,-131.5 1512,-131.5 1512,-112.5 1420,-112.5"/>
<text text-anchor="middle" x="1466" y="-119.5" font-family="Helvetica,sans-Serif" font-size="10.00" fill="#000000">OneEqKsgs.cpp</text>
</a>
</g>
</g>
<!-- Node31&#45;&gt;Node33 -->
<g id="edge56" class="edge">
<title>Node31&#45;&gt;Node33</title>
<path fill="none" stroke="#191970" d="M1260.3315,-170.1901C1303.4508,-160.0868 1378.5374,-142.4933 1425.0726,-131.5897"/>
<polygon fill="#191970" stroke="#191970" points="1259.2893,-166.8394 1250.3515,-172.5285 1260.8863,-173.6548 1259.2893,-166.8394"/>
</g>
<!-- Node32&#45;&gt;Node12 -->
<g id="edge55" class="edge">
<title>Node32&#45;&gt;Node12</title>
<path fill="none" stroke="#191970" d="M1127.7245,-105.645C1116.2462,-95.9058 1102.0723,-83.8795 1092.3646,-75.6427"/>
<polygon fill="#191970" stroke="#191970" points="1125.6141,-108.4445 1135.5037,-112.2455 1130.143,-103.1069 1125.6141,-108.4445"/>
</g>
<!-- Node34&#45;&gt;Node13 -->
<g id="edge61" class="edge">
<title>Node34&#45;&gt;Node13</title>
<path fill="none" stroke="#191970" d="M1578,-158.2702C1578,-133.9985 1578,-93.7725 1578,-75.5249"/>
<polygon fill="#191970" stroke="#191970" points="1574.5001,-158.4509 1578,-168.4509 1581.5001,-158.451 1574.5001,-158.4509"/>
</g>
<!-- Node35 -->
<g id="node34" class="node">
<title>Node35</title>
<g id="a_node34"><a xlink:href="vof__advection_8_h.html" target="_top" xlink:title="vof_advection.H">
<polygon fill="#ffffff" stroke="#000000" points="1606,-112.5 1606,-131.5 1702,-131.5 1702,-112.5 1606,-112.5"/>
<text text-anchor="middle" x="1654" y="-119.5" font-family="Helvetica,sans-Serif" font-size="10.00" fill="#000000">vof_advection.H</text>
</a>
</g>
</g>
<!-- Node34&#45;&gt;Node35 -->
<g id="edge62" class="edge">
<title>Node34&#45;&gt;Node35</title>
<path fill="none" stroke="#191970" d="M1599.4297,-162.2097C1612.7777,-152.3743 1629.5179,-140.0394 1640.9135,-131.6427"/>
<polygon fill="#191970" stroke="#191970" points="1597.2126,-159.4958 1591.2382,-168.2455 1601.365,-165.1312 1597.2126,-159.4958"/>
</g>
<!-- Node36 -->
<g id="node35" class="node">
<title>Node36</title>
<g id="a_node35"><a xlink:href="vof__ops_8_h.html" target="_top" xlink:title="vof_ops.H">
<polygon fill="#ffffff" stroke="#000000" points="1720.5,-112.5 1720.5,-131.5 1785.5,-131.5 1785.5,-112.5 1720.5,-112.5"/>
<text text-anchor="middle" x="1753" y="-119.5" font-family="Helvetica,sans-Serif" font-size="10.00" fill="#000000">vof_ops.H</text>
</a>
</g>
</g>
<!-- Node34&#45;&gt;Node36 -->
<g id="edge64" class="edge">
<title>Node34&#45;&gt;Node36</title>
<path fill="none" stroke="#191970" d="M1608.8856,-168.1166C1641.0774,-157.8152 1691.185,-141.7808 1723.0314,-131.5899"/>
<polygon fill="#191970" stroke="#191970" points="1607.5666,-164.8638 1599.1091,-171.2451 1609.7001,-171.5308 1607.5666,-164.8638"/>
</g>
<!-- Node35&#45;&gt;Node13 -->
<g id="edge63" class="edge">
<title>Node35&#45;&gt;Node13</title>
<path fill="none" stroke="#191970" d="M1632.5703,-106.2097C1619.2223,-96.3743 1602.4821,-84.0394 1591.0865,-75.6427"/>
<polygon fill="#191970" stroke="#191970" points="1630.635,-109.1312 1640.7618,-112.2455 1634.7874,-103.4958 1630.635,-109.1312"/>
</g>
<!-- Node36&#45;&gt;Node13 -->
<g id="edge65" class="edge">
<title>Node36&#45;&gt;Node13</title>
<path fill="none" stroke="#191970" d="M1713.0232,-109.2074C1679.6663,-98.5332 1633.0821,-83.6263 1604.2658,-74.4051"/>
<polygon fill="#191970" stroke="#191970" points="1712.3254,-112.6589 1722.9164,-112.3733 1714.4589,-105.9919 1712.3254,-112.6589"/>
</g>
<!-- Node37&#45;&gt;Node5 -->
<g id="edge70" class="edge">
<title>Node37&#45;&gt;Node5</title>
<path fill="none" stroke="#191970" d="M369.6285,-270.2466C369.5425,-236.856 371.7139,-167.4722 389,-112 393.1644,-98.6362 401.3654,-84.7044 407.2395,-75.724"/>
<polygon fill="#191970" stroke="#191970" points="366.1309,-270.5104 369.7321,-280.4744 373.1306,-270.4395 366.1309,-270.5104"/>
</g>
<!-- Node37&#45;&gt;Node16 -->
<g id="edge68" class="edge">
<title>Node37&#45;&gt;Node16</title>
<path fill="none" stroke="#191970" d="M424.6751,-282.7273C517.2923,-270.4077 701.3714,-245.9221 767.0367,-237.1875"/>
<polygon fill="#191970" stroke="#191970" points="424.107,-279.272 414.6558,-284.06 425.03,-286.2108 424.107,-279.272"/>
</g>
<!-- Node37&#45;&gt;Node20 -->
<g id="edge71" class="edge">
<title>Node37&#45;&gt;Node20</title>
<path fill="none" stroke="#191970" d="M316.1216,-277.8144C289.8564,-270.4369 258.5131,-259.4212 233,-244 151.9072,-194.9839 77.5672,-105.0799 54.4084,-75.6234"/>
<polygon fill="#191970" stroke="#191970" points="315.3495,-281.2313 325.9166,-280.4654 317.1782,-274.4744 315.3495,-281.2313"/>
</g>
<!-- Node38 -->
<g id="node37" class="node">
<title>Node38</title>
<g id="a_node37"><a xlink:href="_diffusion_ops_8cpp.html" target="_top" xlink:title="DiffusionOps.cpp">
<polygon fill="#ffffff" stroke="#000000" points="242.5,-224.5 242.5,-243.5 341.5,-243.5 341.5,-224.5 242.5,-224.5"/>
<text text-anchor="middle" x="292" y="-231.5" font-family="Helvetica,sans-Serif" font-size="10.00" fill="#000000">DiffusionOps.cpp</text>
</a>
</g>
</g>
<!-- Node37&#45;&gt;Node38 -->
<g id="edge69" class="edge">
<title>Node37&#45;&gt;Node38</title>
<path fill="none" stroke="#191970" d="M348.0064,-274.2097C334.3071,-264.3743 317.1264,-252.0394 305.4309,-243.6427"/>
<polygon fill="#191970" stroke="#191970" points="346.2489,-277.2566 356.4134,-280.2455 350.3314,-271.5703 346.2489,-277.2566"/>
</g>
</g>
</svg>
        <g id="navigator" transform="translate(0 0)" fill="#404254">
                <rect fill="#f2f5e9" fill-opacity="0.5" stroke="#606060" stroke-width=".5" x="0" y="0" width="60" height="60"/>
                <use id="zoomplus" xlink:href="#zoomPlus" x="17" y="9" onmousedown="handleZoom(evt,'in')"/>
                <use id="zoomminus" xlink:href="#zoomMin" x="42" y="9" onmousedown="handleZoom(evt,'out')"/>
                <use id="reset" xlink:href="#resetDef" x="30" y="36" onmousedown="handleReset()"/>
                <g id="arrowUp" xlink:href="#dirArrow" transform="translate(30 24)" onmousedown="handlePan(0,-1)">
                  <use xlink:href="#rim" fill="#404040">
                        <set attributeName="fill" to="#808080" begin="arrowUp.mouseover" end="arrowUp.mouseout"/>
                  </use>
                  <path fill="none" stroke="white" stroke-width="1.5" d="M0,-3.0v7 M-2.5,-0.5L0,-3.0L2.5,-0.5"/>
                </g>
                <g id="arrowRight" xlink:href="#dirArrow" transform="rotate(90) translate(36 -43)" onmousedown="handlePan(1,0)">
                  <use xlink:href="#rim" fill="#404040">
                        <set attributeName="fill" to="#808080" begin="arrowRight.mouseover" end="arrowRight.mouseout"/>
                  </use>
                  <path fill="none" stroke="white" stroke-width="1.5" d="M0,-3.0v7 M-2.5,-0.5L0,-3.0L2.5,-0.5"/>
                </g>
                <g id="arrowDown" xlink:href="#dirArrow" transform="rotate(180) translate(-30 -48)" onmousedown="handlePan(0,1)">
                  <use xlink:href="#rim" fill="#404040">
                        <set attributeName="fill" to="#808080" begin="arrowDown.mouseover" end="arrowDown.mouseout"/>
                  </use>
                  <path fill="none" stroke="white" stroke-width="1.5" d="M0,-3.0v7 M-2.5,-0.5L0,-3.0L2.5,-0.5"/>
                </g>
                <g id="arrowLeft" xlink:href="#dirArrow" transform="rotate(270) translate(-36 17)" onmousedown="handlePan(-1,0)">
                  <use xlink:href="#rim" fill="#404040">
                        <set attributeName="fill" to="#808080" begin="arrowLeft.mouseover" end="arrowLeft.mouseout"/>
                  </use>
                  <path fill="none" stroke="white" stroke-width="1.5" d="M0,-3.0v7 M-2.5,-0.5L0,-3.0L2.5,-0.5"/>
                </g>
        </g>
        <svg viewBox="0 0 15 15" width="100%" height="30px" preserveAspectRatio="xMaxYMin meet">
         <g id="arrow_out" transform="scale(0.3 0.3)">
          <a xlink:href="_scheme_traits_8_h__dep__incl_org.svg" target="_base">
           <rect id="button" ry="5" rx="5" y="6" x="6" height="38" width="38"
                fill="#f2f5e9" fill-opacity="0.5" stroke="#606060" stroke-width="1.0"/>
           <path id="arrow"
             d="M 11.500037,31.436501 C 11.940474,20.09759 22.043105,11.32322 32.158766,21.979434 L 37.068811,17.246167 C 37.068811,17.246167 37.088388,32 37.088388,32 L 22.160133,31.978069 C 22.160133,31.978069 26.997745,27.140456 26.997745,27.140456 C 18.528582,18.264221 13.291696,25.230495 11.500037,31.436501 z"
             style="fill:#404040;"/>
          </a>
         </g>
        </svg>
</svg>
