<?xml version="1.0" encoding="UTF-8" standalone="no"?>
<!DOCTYPE svg PUBLIC "-//W3C//DTD SVG 1.1//EN"
 "http://www.w3.org/Graphics/SVG/1.1/DTD/svg11.dtd">
<!-- Generated by graphviz version 2.40.1 (20161225.0304)
 -->
<!-- Title: ScratchField.cpp Pages: 1 -->
<!--zoomable 252 -->
<svg id="main" version="1.1" xmlns="http://www.w3.org/2000/svg" xmlns:xlink="http://www.w3.org/1999/xlink" xml:space="preserve" onload="init(evt)">
<style type="text/css"><![CDATA[
.edge:hover path { stroke: red; }
.edge:hover polygon { stroke: red; fill: red; }
]]></style>
<script type="text/javascript"><![CDATA[
var edges = document.getElementsByTagName('g');
if (edges && edges.length) {
  for (var i=0;i<edges.length;i++) {
    if (edges[i].id.substr(0,4)=='edge') {
      edges[i].setAttribute('class','edge');
    }
  }
}
]]></script>
        <defs>
                <circle id="rim" cx="0" cy="0" r="7"/>
                <circle id="rim2" cx="0" cy="0" r="3.5"/>
                <g id="zoomPlus">
                        <use xlink:href="#rim" fill="#404040">
                                <set attributeName="fill" to="#808080" begin="zoomplus.mouseover" end="zoomplus.mouseout"/>
                        </use>
                        <path d="M-4,0h8M0,-4v8" fill="none" stroke="white" stroke-width="1.5" pointer-events="none"/>
                </g>
                <g id="zoomMin">
                        <use xlink:href="#rim" fill="#404040">
                                <set attributeName="fill" to="#808080" begin="zoomminus.mouseover" end="zoomminus.mouseout"/>
                        </use>
                        <path d="M-4,0h8" fill="none" stroke="white" stroke-width="1.5" pointer-events="none"/>
                </g>
                <g id="dirArrow">
                        <path fill="none" stroke="white" stroke-width="1.5" d="M0,-3.0v7 M-2.5,-0.5L0,-3.0L2.5,-0.5"/>
                </g>
               <g id="resetDef">
                       <use xlink:href="#rim2" fill="#404040">
                               <set attributeName="fill" to="#808080" begin="reset.mouseover" end="reset.mouseout"/>
                       </use>
               </g>
        </defs>

<script type="text/javascript">
var viewWidth = 1642;
var viewHeight = 252;
var sectionId = 'dynsection-0';
</script>
<script xlink:href="svgpan.js"/>
<svg id="graph" class="graph">
<g id="viewport">
<title>ScratchField.cpp</title>
<polygon fill="#ffffff" stroke="transparent" points="-4,4 -4,-248 1638.4191,-248 1638.4191,4 -4,4"/>
<!-- Node0 -->
<g id="node1" class="node">
<title>Node0</title>
<polygon fill="#bfbfbf" stroke="#000000" points="1018.3943,-224.5 1018.3943,-243.5 1113.3943,-243.5 1113.3943,-224.5 1018.3943,-224.5"/>
<text text-anchor="middle" x="1065.8943" y="-231.5" font-family="Helvetica,sans-Serif" font-size="10.00" fill="#000000">ScratchField.cpp</text>
</g>
<!-- Node1 -->
<g id="node2" class="node">
<title>Node1</title>
<g id="a_node2"><a xlink:href="_scratch_field_8_h.html" target="_top" xlink:title="amr&#45;wind/core/ScratchField.H">
<polygon fill="#ffffff" stroke="#000000" points="458.8943,-112.5 458.8943,-131.5 616.8943,-131.5 616.8943,-112.5 458.8943,-112.5"/>
<text text-anchor="middle" x="537.8943" y="-119.5" font-family="Helvetica,sans-Serif" font-size="10.00" fill="#000000">amr&#45;wind/core/ScratchField.H</text>
</a>
</g>
</g>
<!-- Node0&#45;&gt;Node1 -->
<g id="edge1" class="edge">
<title>Node0&#45;&gt;Node1</title>
<path fill="none" stroke="#191970" d="M1020.8773,-224.4509C924.338,-203.9729 697.6847,-155.8949 592.8552,-133.6584"/>
<polygon fill="#191970" stroke="#191970" points="593.306,-130.1762 582.7973,-131.5249 591.8534,-137.0238 593.306,-130.1762"/>
</g>
<!-- Node5 -->
<g id="node6" class="node">
<title>Node5</title>
<polygon fill="#ffffff" stroke="#bfbfbf" points="130.3943,-.5 130.3943,-19.5 237.3943,-19.5 237.3943,-.5 130.3943,-.5"/>
<text text-anchor="middle" x="183.8943" y="-7.5" font-family="Helvetica,sans-Serif" font-size="10.00" fill="#000000">AMReX_MultiFab.H</text>
</g>
<!-- Node0&#45;&gt;Node5 -->
<g id="edge44" class="edge">
<title>Node0&#45;&gt;Node5</title>
<path fill="none" stroke="#191970" d="M1018.1493,-229.2904C935.8176,-221.1332 761.8222,-203.737 614.8943,-188 340.3842,-158.598 149.0382,-310.8478 3.8943,-76 -.7789,-68.4387 -1.5577,-63.0205 3.8943,-56 18.2704,-37.488 74.3381,-25.1692 120.1258,-17.9781"/>
<polygon fill="#191970" stroke="#191970" points="120.6563,-21.4378 130.0182,-16.4776 119.6064,-14.517 120.6563,-21.4378"/>
</g>
<!-- Node7 -->
<g id="node8" class="node">
<title>Node7</title>
<polygon fill="#ffffff" stroke="#bfbfbf" points="24.8943,-56.5 24.8943,-75.5 152.8943,-75.5 152.8943,-56.5 24.8943,-56.5"/>
<text text-anchor="middle" x="88.8943" y="-63.5" font-family="Helvetica,sans-Serif" font-size="10.00" fill="#000000">AMReX_PhysBCFunct.H</text>
</g>
<!-- Node0&#45;&gt;Node7 -->
<g id="edge42" class="edge">
<title>Node0&#45;&gt;Node7</title>
<path fill="none" stroke="#191970" d="M1018.2798,-227.7369C908.4265,-213.0698 628.8902,-174.5032 396.8943,-132 305.8743,-115.3245 200.6155,-91.8583 139.7072,-77.8639"/>
<polygon fill="#191970" stroke="#191970" points="140.1236,-74.3682 129.593,-75.5333 138.5518,-81.1894 140.1236,-74.3682"/>
</g>
<!-- Node8 -->
<g id="node9" class="node">
<title>Node8</title>
<g id="a_node9"><a xlink:href="_field_repo_8_h.html" target="_top" xlink:title="amr&#45;wind/core/FieldRepo.H">
<polygon fill="#ffffff" stroke="#000000" points="942.8943,-168.5 942.8943,-187.5 1088.8943,-187.5 1088.8943,-168.5 942.8943,-168.5"/>
<text text-anchor="middle" x="1015.8943" y="-175.5" font-family="Helvetica,sans-Serif" font-size="10.00" fill="#000000">amr&#45;wind/core/FieldRepo.H</text>
</a>
</g>
</g>
<!-- Node0&#45;&gt;Node8 -->
<g id="edge12" class="edge">
<title>Node0&#45;&gt;Node8</title>
<path fill="none" stroke="#191970" d="M1057.185,-224.2455C1050.087,-216.2958 1039.8859,-204.8706 1031.3993,-195.3656"/>
<polygon fill="#191970" stroke="#191970" points="1033.7748,-192.771 1024.5038,-187.6427 1028.5532,-197.4331 1033.7748,-192.771"/>
</g>
<!-- Node16 -->
<g id="node17" class="node">
<title>Node16</title>
<polygon fill="#ffffff" stroke="#bfbfbf" points="1346.8943,-56.5 1346.8943,-75.5 1432.8943,-75.5 1432.8943,-56.5 1346.8943,-56.5"/>
<text text-anchor="middle" x="1389.8943" y="-63.5" font-family="Helvetica,sans-Serif" font-size="10.00" fill="#000000">AMReX_Gpu.H</text>
</g>
<!-- Node0&#45;&gt;Node16 -->
<g id="edge39" class="edge">
<title>Node0&#45;&gt;Node16</title>
<path fill="none" stroke="#191970" d="M1075.523,-224.43C1089.8669,-210.5705 1118.1443,-184.7429 1145.8943,-168 1213.199,-127.3919 1299.6107,-95.4789 1349.4709,-78.7931"/>
<polygon fill="#191970" stroke="#191970" points="1350.8419,-82.0262 1359.2373,-75.5634 1348.6441,-75.3802 1350.8419,-82.0262"/>
</g>
<!-- Node21 -->
<g id="node22" class="node">
<title>Node21</title>
<polygon fill="#ffffff" stroke="#bfbfbf" points="1154.8943,-168.5 1154.8943,-187.5 1270.8943,-187.5 1270.8943,-168.5 1154.8943,-168.5"/>
<text text-anchor="middle" x="1212.8943" y="-175.5" font-family="Helvetica,sans-Serif" font-size="10.00" fill="#000000">AMReX_FArrayBox.H</text>
</g>
<!-- Node0&#45;&gt;Node21 -->
<g id="edge40" class="edge">
<title>Node0&#45;&gt;Node21</title>
<path fill="none" stroke="#191970" d="M1091.1645,-224.3733C1115.2909,-215.1822 1151.8305,-201.2624 1178.582,-191.0713"/>
<polygon fill="#191970" stroke="#191970" points="1179.855,-194.3318 1187.9539,-187.5011 1177.363,-187.7904 1179.855,-194.3318"/>
</g>
<!-- Node22 -->
<g id="node23" class="node">
<title>Node22</title>
<polygon fill="#ffffff" stroke="#bfbfbf" points="1289.3943,-168.5 1289.3943,-187.5 1402.3943,-187.5 1402.3943,-168.5 1289.3943,-168.5"/>
<text text-anchor="middle" x="1345.8943" y="-175.5" font-family="Helvetica,sans-Serif" font-size="10.00" fill="#000000">AMReX_Geometry.H</text>
</g>
<!-- Node0&#45;&gt;Node22 -->
<g id="edge41" class="edge">
<title>Node0&#45;&gt;Node22</title>
<path fill="none" stroke="#191970" d="M1113.7099,-224.4369C1162.0324,-214.7724 1236.7315,-199.8326 1288.2879,-189.5213"/>
<polygon fill="#191970" stroke="#191970" points="1289.1566,-192.9169 1298.2759,-187.5237 1287.7837,-186.0529 1289.1566,-192.9169"/>
</g>
<!-- Node23 -->
<g id="node24" class="node">
<title>Node23</title>
<polygon fill="#ffffff" stroke="#bfbfbf" points="1420.3943,-168.5 1420.3943,-187.5 1543.3943,-187.5 1543.3943,-168.5 1420.3943,-168.5"/>
<text text-anchor="middle" x="1481.8943" y="-175.5" font-family="Helvetica,sans-Serif" font-size="10.00" fill="#000000">AMReX_FillPatchUtil.H</text>
</g>
<!-- Node0&#45;&gt;Node23 -->
<g id="edge43" class="edge">
<title>Node0&#45;&gt;Node23</title>
<path fill="none" stroke="#191970" d="M1113.4864,-227.8215C1178.254,-219.3804 1298.0594,-203.6498 1409.9544,-188.2588"/>
<polygon fill="#191970" stroke="#191970" points="1410.6336,-191.6984 1420.0624,-186.8664 1409.6783,-184.7638 1410.6336,-191.6984"/>
</g>
<!-- Node2 -->
<g id="node3" class="node">
<title>Node2</title>
<polygon fill="#ffffff" stroke="#bfbfbf" points="1184.8943,-.5 1184.8943,-19.5 1228.8943,-19.5 1228.8943,-.5 1184.8943,-.5"/>
<text text-anchor="middle" x="1206.8943" y="-7.5" font-family="Helvetica,sans-Serif" font-size="10.00" fill="#000000">string</text>
</g>
<!-- Node1&#45;&gt;Node2 -->
<g id="edge2" class="edge">
<title>Node1&#45;&gt;Node2</title>
<path fill="none" stroke="#191970" d="M563.7785,-112.4353C604.3448,-97.8497 685.6349,-70.2441 756.8943,-56 911.399,-25.1159 1100.1253,-14.3868 1174.5329,-11.1905"/>
<polygon fill="#191970" stroke="#191970" points="1174.8168,-14.6818 1184.6638,-10.772 1174.5279,-7.6878 1174.8168,-14.6818"/>
</g>
<!-- Node3 -->
<g id="node4" class="node">
<title>Node3</title>
<g id="a_node4"><a xlink:href="_field_desc_types_8_h.html" target="_top" xlink:title="amr&#45;wind/core/FieldDescTypes.H">
<polygon fill="#ffffff" stroke="#000000" points="554.8943,-.5 554.8943,-19.5 728.8943,-19.5 728.8943,-.5 554.8943,-.5"/>
<text text-anchor="middle" x="641.8943" y="-7.5" font-family="Helvetica,sans-Serif" font-size="10.00" fill="#000000">amr&#45;wind/core/FieldDescTypes.H</text>
</a>
</g>
</g>
<!-- Node1&#45;&gt;Node3 -->
<g id="edge3" class="edge">
<title>Node1&#45;&gt;Node3</title>
<path fill="none" stroke="#191970" d="M555.7625,-112.4804C570.0459,-104.2276 589.9218,-91.2333 603.8943,-76 616.6956,-62.0436 627.0679,-43.0433 633.7219,-29.0124"/>
<polygon fill="#191970" stroke="#191970" points="636.9493,-30.3701 637.8914,-19.8172 630.574,-27.4792 636.9493,-30.3701"/>
</g>
<!-- Node4 -->
<g id="node5" class="node">
<title>Node4</title>
<g id="a_node5"><a xlink:href="_view_field_8_h.html" target="_top" xlink:title="amr&#45;wind/core/ViewField.H">
<polygon fill="#ffffff" stroke="#000000" points="448.8943,-56.5 448.8943,-75.5 594.8943,-75.5 594.8943,-56.5 448.8943,-56.5"/>
<text text-anchor="middle" x="521.8943" y="-63.5" font-family="Helvetica,sans-Serif" font-size="10.00" fill="#000000">amr&#45;wind/core/ViewField.H</text>
</a>
</g>
</g>
<!-- Node1&#45;&gt;Node4 -->
<g id="edge4" class="edge">
<title>Node1&#45;&gt;Node4</title>
<path fill="none" stroke="#191970" d="M535.1073,-112.2455C532.9966,-104.8579 530.0283,-94.4689 527.4396,-85.4087"/>
<polygon fill="#191970" stroke="#191970" points="530.762,-84.2964 524.6494,-75.6427 524.0313,-86.2195 530.762,-84.2964"/>
</g>
<!-- Node1&#45;&gt;Node5 -->
<g id="edge9" class="edge">
<title>Node1&#45;&gt;Node5</title>
<path fill="none" stroke="#191970" d="M458.8542,-115.506C366.5608,-107.2421 224.0046,-92.0966 204.8943,-76 191.5562,-64.7653 186.5909,-45.0772 184.7924,-30.1197"/>
<polygon fill="#191970" stroke="#191970" points="188.2537,-29.5026 183.9482,-19.822 181.2771,-30.0746 188.2537,-29.5026"/>
</g>
<!-- Node6 -->
<g id="node7" class="node">
<title>Node6</title>
<polygon fill="#ffffff" stroke="#bfbfbf" points="429.8943,-.5 429.8943,-19.5 525.8943,-19.5 525.8943,-.5 429.8943,-.5"/>
<text text-anchor="middle" x="477.8943" y="-7.5" font-family="Helvetica,sans-Serif" font-size="10.00" fill="#000000">AMReX_Vector.H</text>
</g>
<!-- Node1&#45;&gt;Node6 -->
<g id="edge10" class="edge">
<title>Node1&#45;&gt;Node6</title>
<path fill="none" stroke="#191970" d="M493.0227,-112.4588C473.1695,-105.7646 451.6861,-94.5612 439.8943,-76 429.3657,-59.4272 443.8385,-39.873 457.85,-26.373"/>
<polygon fill="#191970" stroke="#191970" points="460.335,-28.8452 465.425,-19.5532 455.6514,-23.643 460.335,-28.8452"/>
</g>
<!-- Node1&#45;&gt;Node7 -->
<g id="edge11" class="edge">
<title>Node1&#45;&gt;Node7</title>
<path fill="none" stroke="#191970" d="M460.4304,-112.4902C385.3678,-103.2528 268.3133,-88.7886 166.8943,-76 165.6371,-75.8415 164.3686,-75.6813 163.0912,-75.5198"/>
<polygon fill="#191970" stroke="#191970" points="163.5256,-72.0469 153.1647,-74.2613 162.645,-78.9914 163.5256,-72.0469"/>
</g>
<!-- Node4&#45;&gt;Node2 -->
<g id="edge5" class="edge">
<title>Node4&#45;&gt;Node2</title>
<path fill="none" stroke="#191970" d="M595.2013,-60.007C742.872,-47.9347 1070.9005,-21.1177 1174.7281,-12.6296"/>
<polygon fill="#191970" stroke="#191970" points="1175.2094,-16.1021 1184.891,-11.7988 1174.639,-9.1253 1175.2094,-16.1021"/>
</g>
<!-- Node4&#45;&gt;Node3 -->
<g id="edge6" class="edge">
<title>Node4&#45;&gt;Node3</title>
<path fill="none" stroke="#191970" d="M542.523,-56.3733C561.7862,-47.3838 590.7429,-33.8706 612.4362,-23.7471"/>
<polygon fill="#191970" stroke="#191970" points="613.953,-26.9017 621.5348,-19.5011 610.9928,-20.5584 613.953,-26.9017"/>
</g>
<!-- Node4&#45;&gt;Node5 -->
<g id="edge7" class="edge">
<title>Node4&#45;&gt;Node5</title>
<path fill="none" stroke="#191970" d="M464.1741,-56.4369C403.984,-46.4646 309.8931,-30.8755 247.5738,-20.5504"/>
<polygon fill="#191970" stroke="#191970" points="247.9102,-17.0585 237.4725,-18.8769 246.766,-23.9644 247.9102,-17.0585"/>
</g>
<!-- Node4&#45;&gt;Node6 -->
<g id="edge8" class="edge">
<title>Node4&#45;&gt;Node6</title>
<path fill="none" stroke="#191970" d="M514.2301,-56.2455C508.047,-48.3761 499.188,-37.101 491.7655,-27.6542"/>
<polygon fill="#191970" stroke="#191970" points="494.4011,-25.3435 485.4707,-19.6427 488.8968,-29.6683 494.4011,-25.3435"/>
</g>
<!-- Node8&#45;&gt;Node1 -->
<g id="edge35" class="edge">
<title>Node8&#45;&gt;Node1</title>
<path fill="none" stroke="#191970" d="M942.7761,-169.4338C857.9519,-159.4963 718.1191,-143.1142 627.0108,-132.4404"/>
<polygon fill="#191970" stroke="#191970" points="627.3148,-128.9522 616.9755,-131.2647 626.5003,-135.9046 627.3148,-128.9522"/>
</g>
<!-- Node8&#45;&gt;Node2 -->
<g id="edge13" class="edge">
<title>Node8&#45;&gt;Node2</title>
<path fill="none" stroke="#191970" d="M1088.9217,-172.3825C1248.4477,-160.1113 1613.8943,-132 1613.8943,-132 1637.9769,-108.2113 1641.4634,-81.2292 1618.8943,-56 1593.6805,-27.8144 1332.1574,-14.9035 1239.3445,-11.1846"/>
<polygon fill="#191970" stroke="#191970" points="1239.2677,-7.6791 1229.1386,-10.7858 1238.9943,-14.6737 1239.2677,-7.6791"/>
</g>
<!-- Node8&#45;&gt;Node3 -->
<g id="edge15" class="edge">
<title>Node8&#45;&gt;Node3</title>
<path fill="none" stroke="#191970" d="M951.0403,-168.4542C910.2093,-161.2152 856.9053,-149.4821 811.8943,-132 765.1324,-113.8378 754.413,-105.5767 713.8943,-76 693.5146,-61.1238 672.5015,-41.2435 658.4763,-27.2021"/>
<polygon fill="#191970" stroke="#191970" points="660.5929,-24.363 651.0837,-19.6913 655.6041,-29.2734 660.5929,-24.363"/>
</g>
<!-- Node8&#45;&gt;Node5 -->
<g id="edge37" class="edge">
<title>Node8&#45;&gt;Node5</title>
<path fill="none" stroke="#191970" d="M942.7841,-176.1994C722.4682,-170.0115 76.3535,-145.9952 15.8943,-76 -17.4598,-37.3851 59.5833,-21.1912 120.0801,-14.5187"/>
<polygon fill="#191970" stroke="#191970" points="120.8015,-17.9629 130.3888,-13.4537 120.0821,-10.9999 120.8015,-17.9629"/>
</g>
<!-- Node9 -->
<g id="node10" class="node">
<title>Node9</title>
<polygon fill="#ffffff" stroke="#bfbfbf" points="1235.3943,-56.5 1235.3943,-75.5 1328.3943,-75.5 1328.3943,-56.5 1235.3943,-56.5"/>
<text text-anchor="middle" x="1281.8943" y="-63.5" font-family="Helvetica,sans-Serif" font-size="10.00" fill="#000000">unordered_map</text>
</g>
<!-- Node8&#45;&gt;Node9 -->
<g id="edge14" class="edge">
<title>Node8&#45;&gt;Node9</title>
<path fill="none" stroke="#191970" d="M1028.7648,-168.4462C1048.2432,-154.3715 1086.777,-128.006 1122.8943,-112 1156.3201,-97.1867 1195.7946,-85.7355 1227.0491,-77.9635"/>
<polygon fill="#191970" stroke="#191970" points="1228.0004,-81.3342 1236.8898,-75.5698 1226.3458,-74.5326 1228.0004,-81.3342"/>
</g>
<!-- Node10 -->
<g id="node11" class="node">
<title>Node10</title>
<g id="a_node11"><a xlink:href="_field_utils_8_h.html" target="_top" xlink:title="amr&#45;wind/core/FieldUtils.H">
<polygon fill="#ffffff" stroke="#000000" points="247.3943,-56.5 247.3943,-75.5 392.3943,-75.5 392.3943,-56.5 247.3943,-56.5"/>
<text text-anchor="middle" x="319.8943" y="-63.5" font-family="Helvetica,sans-Serif" font-size="10.00" fill="#000000">amr&#45;wind/core/FieldUtils.H</text>
</a>
</g>
</g>
<!-- Node8&#45;&gt;Node10 -->
<g id="edge16" class="edge">
<title>Node8&#45;&gt;Node10</title>
<path fill="none" stroke="#191970" d="M942.7376,-175.5714C811.3247,-170.6264 540.5561,-157.623 449.8943,-132 409.9786,-120.7189 367.8951,-96.8356 342.7757,-81.107"/>
<polygon fill="#191970" stroke="#191970" points="344.638,-78.1435 334.3242,-75.7197 340.8754,-84.0463 344.638,-78.1435"/>
</g>
<!-- Node12 -->
<g id="node13" class="node">
<title>Node12</title>
<g id="a_node13"><a xlink:href="_field_8_h.html" target="_top" xlink:title="amr&#45;wind/core/Field.H">
<polygon fill="#ffffff" stroke="#000000" points="820.8943,-112.5 820.8943,-131.5 942.8943,-131.5 942.8943,-112.5 820.8943,-112.5"/>
<text text-anchor="middle" x="881.8943" y="-119.5" font-family="Helvetica,sans-Serif" font-size="10.00" fill="#000000">amr&#45;wind/core/Field.H</text>
</a>
</g>
</g>
<!-- Node8&#45;&gt;Node12 -->
<g id="edge20" class="edge">
<title>Node8&#45;&gt;Node12</title>
<path fill="none" stroke="#191970" d="M992.8589,-168.3733C971.1555,-159.3032 938.4325,-145.6279 914.1393,-135.4755"/>
<polygon fill="#191970" stroke="#191970" points="915.2054,-132.1278 904.6291,-131.5011 912.5062,-138.5865 915.2054,-132.1278"/>
</g>
<!-- Node18 -->
<g id="node19" class="node">
<title>Node18</title>
<g id="a_node19"><a xlink:href="_int_field_8_h.html" target="_top" xlink:title="amr&#45;wind/core/IntField.H">
<polygon fill="#ffffff" stroke="#000000" points="1469.3943,-112.5 1469.3943,-131.5 1604.3943,-131.5 1604.3943,-112.5 1469.3943,-112.5"/>
<text text-anchor="middle" x="1536.8943" y="-119.5" font-family="Helvetica,sans-Serif" font-size="10.00" fill="#000000">amr&#45;wind/core/IntField.H</text>
</a>
</g>
</g>
<!-- Node8&#45;&gt;Node18 -->
<g id="edge31" class="edge">
<title>Node8&#45;&gt;Node18</title>
<path fill="none" stroke="#191970" d="M1089.1606,-170.1249C1186.8448,-159.6253 1359.0098,-141.12 1458.9888,-130.3737"/>
<polygon fill="#191970" stroke="#191970" points="1459.4596,-133.8434 1469.0283,-129.2946 1458.7115,-126.8835 1459.4596,-133.8434"/>
</g>
<!-- Node19 -->
<g id="node20" class="node">
<title>Node19</title>
<polygon fill="#ffffff" stroke="#bfbfbf" points="1450.8943,-56.5 1450.8943,-75.5 1560.8943,-75.5 1560.8943,-56.5 1450.8943,-56.5"/>
<text text-anchor="middle" x="1505.8943" y="-63.5" font-family="Helvetica,sans-Serif" font-size="10.00" fill="#000000">AMReX_iMultiFab.H</text>
</g>
<!-- Node8&#45;&gt;Node19 -->
<g id="edge38" class="edge">
<title>Node8&#45;&gt;Node19</title>
<path fill="none" stroke="#191970" d="M1057.6714,-168.4509C1147.082,-148.0142 1356.7554,-100.0889 1454.2986,-77.7933"/>
<polygon fill="#191970" stroke="#191970" points="1455.2542,-81.1652 1464.2229,-75.5249 1453.6944,-74.3412 1455.2542,-81.1652"/>
</g>
<!-- Node20 -->
<g id="node21" class="node">
<title>Node20</title>
<polygon fill="#ffffff" stroke="#bfbfbf" points="961.3943,-112.5 961.3943,-131.5 1070.3943,-131.5 1070.3943,-112.5 961.3943,-112.5"/>
<text text-anchor="middle" x="1015.8943" y="-119.5" font-family="Helvetica,sans-Serif" font-size="10.00" fill="#000000">AMReX_AmrCore.H</text>
</g>
<!-- Node8&#45;&gt;Node20 -->
<g id="edge36" class="edge">
<title>Node8&#45;&gt;Node20</title>
<path fill="none" stroke="#191970" d="M1015.8943,-168.2455C1015.8943,-160.9382 1015.8943,-150.6944 1015.8943,-141.7046"/>
<polygon fill="#191970" stroke="#191970" points="1019.3944,-141.6426 1015.8943,-131.6427 1012.3944,-141.6427 1019.3944,-141.6426"/>
</g>
<!-- Node10&#45;&gt;Node3 -->
<g id="edge17" class="edge">
<title>Node10&#45;&gt;Node3</title>
<path fill="none" stroke="#191970" d="M374.8822,-56.4369C430.9162,-46.6918 517.7909,-31.5832 577.1236,-21.2645"/>
<polygon fill="#191970" stroke="#191970" points="577.8808,-24.6854 587.1332,-19.5237 576.6814,-17.7889 577.8808,-24.6854"/>
</g>
<!-- Node10&#45;&gt;Node5 -->
<g id="edge18" class="edge">
<title>Node10&#45;&gt;Node5</title>
<path fill="none" stroke="#191970" d="M296.5151,-56.3733C274.3898,-47.2629 240.9809,-33.5062 216.2924,-23.3404"/>
<polygon fill="#191970" stroke="#191970" points="217.5479,-20.0723 206.9685,-19.5011 214.8826,-26.5451 217.5479,-20.0723"/>
</g>
<!-- Node11 -->
<g id="node12" class="node">
<title>Node11</title>
<polygon fill="#ffffff" stroke="#bfbfbf" points="258.8943,-.5 258.8943,-19.5 380.8943,-19.5 380.8943,-.5 258.8943,-.5"/>
<text text-anchor="middle" x="319.8943" y="-7.5" font-family="Helvetica,sans-Serif" font-size="10.00" fill="#000000">AMReX_Interpolater.H</text>
</g>
<!-- Node10&#45;&gt;Node11 -->
<g id="edge19" class="edge">
<title>Node10&#45;&gt;Node11</title>
<path fill="none" stroke="#191970" d="M319.8943,-56.2455C319.8943,-48.9382 319.8943,-38.6944 319.8943,-29.7046"/>
<polygon fill="#191970" stroke="#191970" points="323.3944,-29.6426 319.8943,-19.6427 316.3944,-29.6427 323.3944,-29.6426"/>
</g>
<!-- Node12&#45;&gt;Node2 -->
<g id="edge21" class="edge">
<title>Node12&#45;&gt;Node2</title>
<path fill="none" stroke="#191970" d="M943.2421,-113.1962C1031.9039,-100.4144 1185.5969,-78.0144 1187.8943,-76 1200.897,-64.5991 1205.265,-44.9331 1206.6087,-30.026"/>
<polygon fill="#191970" stroke="#191970" points="1210.1179,-29.9373 1207.1396,-19.7697 1203.1272,-29.5754 1210.1179,-29.9373"/>
</g>
<!-- Node12&#45;&gt;Node3 -->
<g id="edge29" class="edge">
<title>Node12&#45;&gt;Node3</title>
<path fill="none" stroke="#191970" d="M851.5144,-112.4189C825.8371,-103.945 788.3236,-90.6743 756.8943,-76 724.0793,-60.6787 688.1652,-39.2626 665.3542,-25.0292"/>
<polygon fill="#191970" stroke="#191970" points="667.0416,-21.9556 656.7143,-19.5898 663.3121,-27.8795 667.0416,-21.9556"/>
</g>
<!-- Node12&#45;&gt;Node4 -->
<g id="edge30" class="edge">
<title>Node12&#45;&gt;Node4</title>
<path fill="none" stroke="#191970" d="M820.8252,-112.5004C757.8581,-102.7055 659.7452,-87.4435 593.2453,-77.099"/>
<polygon fill="#191970" stroke="#191970" points="593.6821,-73.625 583.263,-75.5462 592.6061,-80.5418 593.6821,-73.625"/>
</g>
<!-- Node12&#45;&gt;Node5 -->
<g id="edge25" class="edge">
<title>Node12&#45;&gt;Node5</title>
<path fill="none" stroke="#191970" d="M820.7233,-118.9412C664.9085,-110.9743 263.52,-89.282 237.8943,-76 217.8658,-65.6191 202.5487,-44.2134 193.4301,-28.5849"/>
<polygon fill="#191970" stroke="#191970" points="196.4555,-26.8231 188.5667,-19.7507 190.3233,-30.199 196.4555,-26.8231"/>
</g>
<!-- Node12&#45;&gt;Node9 -->
<g id="edge23" class="edge">
<title>Node12&#45;&gt;Node9</title>
<path fill="none" stroke="#191970" d="M943.0817,-113.3567C946.4006,-112.8958 949.688,-112.4411 952.8943,-112 1071.9536,-95.6192 1102.0273,-93.723 1220.8943,-76 1222.3538,-75.7824 1223.8324,-75.5593 1225.324,-75.332"/>
<polygon fill="#191970" stroke="#191970" points="1225.9458,-78.7774 1235.2894,-73.7827 1224.8704,-71.8605 1225.9458,-78.7774"/>
</g>
<!-- Node13 -->
<g id="node14" class="node">
<title>Node13</title>
<polygon fill="#ffffff" stroke="#bfbfbf" points="1038.8943,-56.5 1038.8943,-75.5 1096.8943,-75.5 1096.8943,-56.5 1038.8943,-56.5"/>
<text text-anchor="middle" x="1067.8943" y="-63.5" font-family="Helvetica,sans-Serif" font-size="10.00" fill="#000000">memory</text>
</g>
<!-- Node12&#45;&gt;Node13 -->
<g id="edge22" class="edge">
<title>Node12&#45;&gt;Node13</title>
<path fill="none" stroke="#191970" d="M913.8688,-112.3733C945.8219,-102.753 994.9828,-87.9519 1029.1375,-77.6687"/>
<polygon fill="#191970" stroke="#191970" points="1030.2159,-80.9993 1038.7823,-74.7649 1028.1978,-74.2965 1030.2159,-80.9993"/>
</g>
<!-- Node14 -->
<g id="node15" class="node">
<title>Node14</title>
<polygon fill="#ffffff" stroke="#bfbfbf" points="1114.8943,-56.5 1114.8943,-75.5 1178.8943,-75.5 1178.8943,-56.5 1114.8943,-56.5"/>
<text text-anchor="middle" x="1146.8943" y="-63.5" font-family="Helvetica,sans-Serif" font-size="10.00" fill="#000000">algorithm</text>
</g>
<!-- Node12&#45;&gt;Node14 -->
<g id="edge24" class="edge">
<title>Node12&#45;&gt;Node14</title>
<path fill="none" stroke="#191970" d="M930.9456,-112.4651C974.1823,-103.9392 1039.1285,-90.8392 1104.6064,-76.2334"/>
<polygon fill="#191970" stroke="#191970" points="1105.6994,-79.5753 1114.6915,-73.9725 1104.1681,-72.7448 1105.6994,-79.5753"/>
</g>
<!-- Node15 -->
<g id="node16" class="node">
<title>Node15</title>
<polygon fill="#ffffff" stroke="#bfbfbf" points="765.3943,-56.5 765.3943,-75.5 862.3943,-75.5 862.3943,-56.5 765.3943,-56.5"/>
<text text-anchor="middle" x="813.8943" y="-63.5" font-family="Helvetica,sans-Serif" font-size="10.00" fill="#000000">AMReX_BCRec.H</text>
</g>
<!-- Node12&#45;&gt;Node15 -->
<g id="edge26" class="edge">
<title>Node12&#45;&gt;Node15</title>
<path fill="none" stroke="#191970" d="M870.0496,-112.2455C860.0063,-103.9746 845.3948,-91.9416 833.5939,-82.2232"/>
<polygon fill="#191970" stroke="#191970" points="835.5476,-79.298 825.6033,-75.6427 831.0976,-84.7015 835.5476,-79.298"/>
</g>
<!-- Node12&#45;&gt;Node16 -->
<g id="edge27" class="edge">
<title>Node12&#45;&gt;Node16</title>
<path fill="none" stroke="#191970" d="M943.0618,-113.2001C946.3858,-112.7796 949.6798,-112.3765 952.8943,-112 1120.3348,-92.3909 1166.0289,-99.952 1336.7334,-76.0449"/>
<polygon fill="#191970" stroke="#191970" points="1337.4077,-79.4845 1346.818,-74.6166 1336.426,-72.5536 1337.4077,-79.4845"/>
</g>
<!-- Node17 -->
<g id="node18" class="node">
<title>Node17</title>
<g id="a_node18"><a xlink:href="incflo__enums_8_h.html" target="_top" xlink:title="amr&#45;wind/incflo_enums.H">
<polygon fill="#ffffff" stroke="#000000" points="880.8943,-56.5 880.8943,-75.5 1020.8943,-75.5 1020.8943,-56.5 880.8943,-56.5"/>
<text text-anchor="middle" x="950.8943" y="-63.5" font-family="Helvetica,sans-Serif" font-size="10.00" fill="#000000">amr&#45;wind/incflo_enums.H</text>
</a>
</g>
</g>
<!-- Node12&#45;&gt;Node17 -->
<g id="edge28" class="edge">
<title>Node12&#45;&gt;Node17</title>
<path fill="none" stroke="#191970" d="M893.9132,-112.2455C904.1041,-103.9746 918.9305,-91.9416 930.905,-82.2232"/>
<polygon fill="#191970" stroke="#191970" points="933.4541,-84.662 939.0131,-75.6427 929.0429,-79.2268 933.4541,-84.662"/>
</g>
<!-- Node18&#45;&gt;Node2 -->
<g id="edge32" class="edge">
<title>Node18&#45;&gt;Node2</title>
<path fill="none" stroke="#191970" d="M1559.0884,-112.2874C1584.843,-99.7162 1621.5385,-76.9353 1602.8943,-56 1578.8153,-28.962 1329.5401,-15.392 1239.2881,-11.3371"/>
<polygon fill="#191970" stroke="#191970" points="1239.2398,-7.8317 1229.0959,-10.8895 1238.9326,-14.8249 1239.2398,-7.8317"/>
</g>
<!-- Node18&#45;&gt;Node3 -->
<g id="edge33" class="edge">
<title>Node18&#45;&gt;Node3</title>
<path fill="none" stroke="#191970" d="M1548.0959,-112.4198C1563.0183,-98.5475 1585.791,-72.7042 1569.8943,-56 1541.5933,-26.2614 971.3378,-14.7298 739.0675,-11.255"/>
<polygon fill="#191970" stroke="#191970" points="738.9862,-7.7535 728.9356,-11.1053 738.8828,-14.7527 738.9862,-7.7535"/>
</g>
<!-- Node18&#45;&gt;Node19 -->
<g id="edge34" class="edge">
<title>Node18&#45;&gt;Node19</title>
<path fill="none" stroke="#191970" d="M1531.4945,-112.2455C1527.2716,-104.617 1521.277,-93.7881 1516.1502,-84.5267"/>
<polygon fill="#191970" stroke="#191970" points="1519.1376,-82.6965 1511.2322,-75.6427 1513.0133,-86.0867 1519.1376,-82.6965"/>
</g>
</g>
</svg>
        <g id="navigator" transform="translate(0 0)" fill="#404254">
                <rect fill="#f2f5e9" fill-opacity="0.5" stroke="#606060" stroke-width=".5" x="0" y="0" width="60" height="60"/>
                <use id="zoomplus" xlink:href="#zoomPlus" x="17" y="9" onmousedown="handleZoom(evt,'in')"/>
                <use id="zoomminus" xlink:href="#zoomMin" x="42" y="9" onmousedown="handleZoom(evt,'out')"/>
                <use id="reset" xlink:href="#resetDef" x="30" y="36" onmousedown="handleReset()"/>
                <g id="arrowUp" xlink:href="#dirArrow" transform="translate(30 24)" onmousedown="handlePan(0,-1)">
                  <use xlink:href="#rim" fill="#404040">
                        <set attributeName="fill" to="#808080" begin="arrowUp.mouseover" end="arrowUp.mouseout"/>
                  </use>
                  <path fill="none" stroke="white" stroke-width="1.5" d="M0,-3.0v7 M-2.5,-0.5L0,-3.0L2.5,-0.5"/>
                </g>
                <g id="arrowRight" xlink:href="#dirArrow" transform="rotate(90) translate(36 -43)" onmousedown="handlePan(1,0)">
                  <use xlink:href="#rim" fill="#404040">
                        <set attributeName="fill" to="#808080" begin="arrowRight.mouseover" end="arrowRight.mouseout"/>
                  </use>
                  <path fill="none" stroke="white" stroke-width="1.5" d="M0,-3.0v7 M-2.5,-0.5L0,-3.0L2.5,-0.5"/>
                </g>
                <g id="arrowDown" xlink:href="#dirArrow" transform="rotate(180) translate(-30 -48)" onmousedown="handlePan(0,1)">
                  <use xlink:href="#rim" fill="#404040">
                        <set attributeName="fill" to="#808080" begin="arrowDown.mouseover" end="arrowDown.mouseout"/>
                  </use>
                  <path fill="none" stroke="white" stroke-width="1.5" d="M0,-3.0v7 M-2.5,-0.5L0,-3.0L2.5,-0.5"/>
                </g>
                <g id="arrowLeft" xlink:href="#dirArrow" transform="rotate(270) translate(-36 17)" onmousedown="handlePan(-1,0)">
                  <use xlink:href="#rim" fill="#404040">
                        <set attributeName="fill" to="#808080" begin="arrowLeft.mouseover" end="arrowLeft.mouseout"/>
                  </use>
                  <path fill="none" stroke="white" stroke-width="1.5" d="M0,-3.0v7 M-2.5,-0.5L0,-3.0L2.5,-0.5"/>
                </g>
        </g>
        <svg viewBox="0 0 15 15" width="100%" height="30px" preserveAspectRatio="xMaxYMin meet">
         <g id="arrow_out" transform="scale(0.3 0.3)">
          <a xlink:href="_scratch_field_8cpp__incl_org.svg" target="_base">
           <rect id="button" ry="5" rx="5" y="6" x="6" height="38" width="38"
                fill="#f2f5e9" fill-opacity="0.5" stroke="#606060" stroke-width="1.0"/>
           <path id="arrow"
             d="M 11.500037,31.436501 C 11.940474,20.09759 22.043105,11.32322 32.158766,21.979434 L 37.068811,17.246167 C 37.068811,17.246167 37.088388,32 37.088388,32 L 22.160133,31.978069 C 22.160133,31.978069 26.997745,27.140456 26.997745,27.140456 C 18.528582,18.264221 13.291696,25.230495 11.500037,31.436501 z"
             style="fill:#404040;"/>
          </a>
         </g>
        </svg>
</svg>
