<?xml version="1.0" encoding="UTF-8" standalone="no"?>
<!DOCTYPE svg PUBLIC "-//W3C//DTD SVG 1.1//EN"
 "http://www.w3.org/Graphics/SVG/1.1/DTD/svg11.dtd">
<!-- Generated by graphviz version 2.40.1 (20161225.0304)
 -->
<!-- Title: SecondMomentAveraging.H Pages: 1 -->
<!--zoomable 408 -->
<svg id="main" version="1.1" xmlns="http://www.w3.org/2000/svg" xmlns:xlink="http://www.w3.org/1999/xlink" xml:space="preserve" onload="init(evt)">
<style type="text/css"><![CDATA[
.edge:hover path { stroke: red; }
.edge:hover polygon { stroke: red; fill: red; }
]]></style>
<script type="text/javascript"><![CDATA[
var edges = document.getElementsByTagName('g');
if (edges && edges.length) {
  for (var i=0;i<edges.length;i++) {
    if (edges[i].id.substr(0,4)=='edge') {
      edges[i].setAttribute('class','edge');
    }
  }
}
]]></script>
        <defs>
                <circle id="rim" cx="0" cy="0" r="7"/>
                <circle id="rim2" cx="0" cy="0" r="3.5"/>
                <g id="zoomPlus">
                        <use xlink:href="#rim" fill="#404040">
                                <set attributeName="fill" to="#808080" begin="zoomplus.mouseover" end="zoomplus.mouseout"/>
                        </use>
                        <path d="M-4,0h8M0,-4v8" fill="none" stroke="white" stroke-width="1.5" pointer-events="none"/>
                </g>
                <g id="zoomMin">
                        <use xlink:href="#rim" fill="#404040">
                                <set attributeName="fill" to="#808080" begin="zoomminus.mouseover" end="zoomminus.mouseout"/>
                        </use>
                        <path d="M-4,0h8" fill="none" stroke="white" stroke-width="1.5" pointer-events="none"/>
                </g>
                <g id="dirArrow">
                        <path fill="none" stroke="white" stroke-width="1.5" d="M0,-3.0v7 M-2.5,-0.5L0,-3.0L2.5,-0.5"/>
                </g>
               <g id="resetDef">
                       <use xlink:href="#rim2" fill="#404040">
                               <set attributeName="fill" to="#808080" begin="reset.mouseover" end="reset.mouseout"/>
                       </use>
               </g>
        </defs>

<script type="text/javascript">
var viewWidth = 2348;
var viewHeight = 408;
var sectionId = 'dynsection-0';
</script>
<script xlink:href="svgpan.js"/>
<svg id="graph" class="graph">
<g id="viewport">
<title>SecondMomentAveraging.H</title>
<polygon fill="#ffffff" stroke="transparent" points="-4,4 -4,-404 2344,-404 2344,4 -4,4"/>
<!-- Node0 -->
<g id="node1" class="node">
<title>Node0</title>
<polygon fill="#bfbfbf" stroke="#000000" points="782,-380.5 782,-399.5 933,-399.5 933,-380.5 782,-380.5"/>
<text text-anchor="middle" x="857.5" y="-387.5" font-family="Helvetica,sans-Serif" font-size="10.00" fill="#000000">SecondMomentAveraging.H</text>
</g>
<!-- Node1 -->
<g id="node2" class="node">
<title>Node1</title>
<polygon fill="#ffffff" stroke="#bfbfbf" points="883,-129 883,-148 992,-148 992,-129 883,-129"/>
<text text-anchor="middle" x="937.5" y="-136" font-family="Helvetica,sans-Serif" font-size="10.00" fill="#000000">AMReX_AmrCore.H</text>
</g>
<!-- Node0&#45;&gt;Node1 -->
<g id="edge1" class="edge">
<title>Node0&#45;&gt;Node1</title>
<path fill="none" stroke="#191970" d="M860.5384,-380.448C872.3443,-343.3332 915.308,-208.2662 931.3784,-157.7449"/>
<polygon fill="#191970" stroke="#191970" points="934.7626,-158.652 934.4586,-148.0615 928.0919,-156.5301 934.7626,-158.652"/>
</g>
<!-- Node2 -->
<g id="node3" class="node">
<title>Node2</title>
<g id="a_node3"><a xlink:href="_direction_selector_8_h.html" target="_top" xlink:title="amr&#45;wind/utilities\l/DirectionSelector.H">
<polygon fill="#ffffff" stroke="#000000" points="361,-246.5 361,-276.5 474,-276.5 474,-246.5 361,-246.5"/>
<text text-anchor="start" x="369" y="-264.5" font-family="Helvetica,sans-Serif" font-size="10.00" fill="#000000">amr&#45;wind/utilities</text>
<text text-anchor="middle" x="417.5" y="-253.5" font-family="Helvetica,sans-Serif" font-size="10.00" fill="#000000">/DirectionSelector.H</text>
</a>
</g>
</g>
<!-- Node0&#45;&gt;Node2 -->
<g id="edge2" class="edge">
<title>Node0&#45;&gt;Node2</title>
<path fill="none" stroke="#191970" d="M824.788,-380.4466C751.5007,-359.0434 573.1775,-306.9649 478.6541,-279.3598"/>
<polygon fill="#191970" stroke="#191970" points="479.5221,-275.9671 468.9419,-276.5234 477.5598,-282.6865 479.5221,-275.9671"/>
</g>
<!-- Node5 -->
<g id="node6" class="node">
<title>Node5</title>
<g id="a_node6"><a xlink:href="_field_8_h.html" target="_top" xlink:title="amr&#45;wind/core/Field.H">
<polygon fill="#ffffff" stroke="#000000" points="1096.5,-129 1096.5,-148 1218.5,-148 1218.5,-129 1096.5,-129"/>
<text text-anchor="middle" x="1157.5" y="-136" font-family="Helvetica,sans-Serif" font-size="10.00" fill="#000000">amr&#45;wind/core/Field.H</text>
</a>
</g>
</g>
<!-- Node0&#45;&gt;Node5 -->
<g id="edge5" class="edge">
<title>Node0&#45;&gt;Node5</title>
<path fill="none" stroke="#191970" d="M868.894,-380.448C914.0943,-342.5551 1081.0865,-202.56 1138.1991,-154.6806"/>
<polygon fill="#191970" stroke="#191970" points="1140.6798,-157.1682 1146.0946,-148.0615 1136.1827,-151.8038 1140.6798,-157.1682"/>
</g>
<!-- Node16 -->
<g id="node17" class="node">
<title>Node16</title>
<g id="a_node17"><a xlink:href="_field_plane_averaging_8_h.html" target="_top" xlink:title="amr&#45;wind/utilities\l/FieldPlaneAveraging.H">
<polygon fill="#ffffff" stroke="#000000" points="732.5,-313.5 732.5,-343.5 860.5,-343.5 860.5,-313.5 732.5,-313.5"/>
<text text-anchor="start" x="740.5" y="-331.5" font-family="Helvetica,sans-Serif" font-size="10.00" fill="#000000">amr&#45;wind/utilities</text>
<text text-anchor="middle" x="796.5" y="-320.5" font-family="Helvetica,sans-Serif" font-size="10.00" fill="#000000">/FieldPlaneAveraging.H</text>
</a>
</g>
</g>
<!-- Node0&#45;&gt;Node16 -->
<g id="edge20" class="edge">
<title>Node0&#45;&gt;Node16</title>
<path fill="none" stroke="#191970" d="M847.9688,-380.3906C840.0953,-372.4527 828.6087,-360.8718 818.4833,-350.6635"/>
<polygon fill="#191970" stroke="#191970" points="820.9494,-348.1797 811.4223,-343.5446 815.9795,-353.1093 820.9494,-348.1797"/>
</g>
<!-- Node3 -->
<g id="node4" class="node">
<title>Node3</title>
<polygon fill="#ffffff" stroke="#bfbfbf" points="331,-190.5 331,-209.5 416,-209.5 416,-190.5 331,-190.5"/>
<text text-anchor="middle" x="373.5" y="-197.5" font-family="Helvetica,sans-Serif" font-size="10.00" fill="#000000">AMReX_Box.H</text>
</g>
<!-- Node2&#45;&gt;Node3 -->
<g id="edge3" class="edge">
<title>Node2&#45;&gt;Node3</title>
<path fill="none" stroke="#191970" d="M406.6236,-246.2977C400.5159,-237.7609 392.8561,-227.0545 386.4412,-218.0883"/>
<polygon fill="#191970" stroke="#191970" points="389.2101,-215.9433 380.545,-209.8469 383.5171,-220.0163 389.2101,-215.9433"/>
</g>
<!-- Node4 -->
<g id="node5" class="node">
<title>Node4</title>
<polygon fill="#ffffff" stroke="#bfbfbf" points="518.5,-62 518.5,-81 604.5,-81 604.5,-62 518.5,-62"/>
<text text-anchor="middle" x="561.5" y="-69" font-family="Helvetica,sans-Serif" font-size="10.00" fill="#000000">AMReX_Gpu.H</text>
</g>
<!-- Node2&#45;&gt;Node4 -->
<g id="edge4" class="edge">
<title>Node2&#45;&gt;Node4</title>
<path fill="none" stroke="#191970" d="M360.8432,-253.2544C265.1443,-237.1094 87.991,-196.3435 153.5,-123 200.8753,-69.9589 401.0941,-97.0394 471.5,-87 483.3948,-85.3039 496.134,-83.2537 508.1752,-81.2077"/>
<polygon fill="#191970" stroke="#191970" points="508.832,-84.6462 518.0919,-79.4979 507.6426,-77.748 508.832,-84.6462"/>
</g>
<!-- Node5&#45;&gt;Node4 -->
<g id="edge12" class="edge">
<title>Node5&#45;&gt;Node4</title>
<path fill="none" stroke="#191970" d="M1096.1618,-132.3714C966.2107,-119.3716 673.2348,-89.9741 651.5,-87 639.5958,-85.3711 626.8528,-83.3483 614.8108,-81.3076"/>
<polygon fill="#191970" stroke="#191970" points="615.3436,-77.8479 604.8942,-79.5975 614.1539,-84.7461 615.3436,-77.8479"/>
</g>
<!-- Node6 -->
<g id="node7" class="node">
<title>Node6</title>
<polygon fill="#ffffff" stroke="#bfbfbf" points="1326.5,-.5 1326.5,-19.5 1370.5,-19.5 1370.5,-.5 1326.5,-.5"/>
<text text-anchor="middle" x="1348.5" y="-7.5" font-family="Helvetica,sans-Serif" font-size="10.00" fill="#000000">string</text>
</g>
<!-- Node5&#45;&gt;Node6 -->
<g id="edge6" class="edge">
<title>Node5&#45;&gt;Node6</title>
<path fill="none" stroke="#191970" d="M1176.0811,-128.9774C1194.7988,-119.1568 1224.2942,-103.0529 1248.5,-87 1277.7686,-67.5896 1309.5871,-42.3009 1329.2892,-26.1035"/>
<polygon fill="#191970" stroke="#191970" points="1331.7229,-28.6325 1337.1924,-19.5586 1327.2581,-23.2412 1331.7229,-28.6325"/>
</g>
<!-- Node7 -->
<g id="node8" class="node">
<title>Node7</title>
<polygon fill="#ffffff" stroke="#bfbfbf" points="383.5,-.5 383.5,-19.5 441.5,-19.5 441.5,-.5 383.5,-.5"/>
<text text-anchor="middle" x="412.5" y="-7.5" font-family="Helvetica,sans-Serif" font-size="10.00" fill="#000000">memory</text>
</g>
<!-- Node5&#45;&gt;Node7 -->
<g id="edge7" class="edge">
<title>Node5&#45;&gt;Node7</title>
<path fill="none" stroke="#191970" d="M1147.1872,-128.9841C1124.5393,-108.1831 1071.6613,-60.1808 1061.5,-56 1005.1806,-32.8275 583.173,-16.0521 451.5721,-11.3405"/>
<polygon fill="#191970" stroke="#191970" points="451.6501,-7.8412 441.5323,-10.9844 451.4019,-14.8368 451.6501,-7.8412"/>
</g>
<!-- Node8 -->
<g id="node9" class="node">
<title>Node8</title>
<polygon fill="#ffffff" stroke="#bfbfbf" points="824,-.5 824,-19.5 917,-19.5 917,-.5 824,-.5"/>
<text text-anchor="middle" x="870.5" y="-7.5" font-family="Helvetica,sans-Serif" font-size="10.00" fill="#000000">unordered_map</text>
</g>
<!-- Node5&#45;&gt;Node8 -->
<g id="edge8" class="edge">
<title>Node5&#45;&gt;Node8</title>
<path fill="none" stroke="#191970" d="M1172.9498,-128.8641C1196.6136,-112.9505 1236.9516,-80.5017 1215.5,-56 1196.8446,-34.6922 1020.4949,-19.9233 927.4187,-13.5433"/>
<polygon fill="#191970" stroke="#191970" points="927.528,-10.0429 917.3149,-12.8613 927.0565,-17.027 927.528,-10.0429"/>
</g>
<!-- Node9 -->
<g id="node10" class="node">
<title>Node9</title>
<polygon fill="#ffffff" stroke="#bfbfbf" points="988.5,-62 988.5,-81 1052.5,-81 1052.5,-62 988.5,-62"/>
<text text-anchor="middle" x="1020.5" y="-69" font-family="Helvetica,sans-Serif" font-size="10.00" fill="#000000">algorithm</text>
</g>
<!-- Node5&#45;&gt;Node9 -->
<g id="edge9" class="edge">
<title>Node5&#45;&gt;Node9</title>
<path fill="none" stroke="#191970" d="M1137.8712,-128.9005C1114.6761,-117.5569 1075.8815,-98.5844 1049.2869,-85.5783"/>
<polygon fill="#191970" stroke="#191970" points="1050.6133,-82.3308 1040.0923,-81.0817 1047.538,-88.6191 1050.6133,-82.3308"/>
</g>
<!-- Node10 -->
<g id="node11" class="node">
<title>Node10</title>
<polygon fill="#ffffff" stroke="#bfbfbf" points="1598,-.5 1598,-19.5 1705,-19.5 1705,-.5 1598,-.5"/>
<text text-anchor="middle" x="1651.5" y="-7.5" font-family="Helvetica,sans-Serif" font-size="10.00" fill="#000000">AMReX_MultiFab.H</text>
</g>
<!-- Node5&#45;&gt;Node10 -->
<g id="edge10" class="edge">
<title>Node5&#45;&gt;Node10</title>
<path fill="none" stroke="#191970" d="M1194.2267,-128.9466C1282.6632,-105.9424 1507.3289,-47.502 1604.9878,-22.0988"/>
<polygon fill="#191970" stroke="#191970" points="1606.0704,-25.4338 1614.8672,-19.529 1604.3082,-18.6592 1606.0704,-25.4338"/>
</g>
<!-- Node11 -->
<g id="node12" class="node">
<title>Node11</title>
<polygon fill="#ffffff" stroke="#bfbfbf" points="1109,-62 1109,-81 1206,-81 1206,-62 1109,-62"/>
<text text-anchor="middle" x="1157.5" y="-69" font-family="Helvetica,sans-Serif" font-size="10.00" fill="#000000">AMReX_BCRec.H</text>
</g>
<!-- Node5&#45;&gt;Node11 -->
<g id="edge11" class="edge">
<title>Node5&#45;&gt;Node11</title>
<path fill="none" stroke="#191970" d="M1157.5,-128.9005C1157.5,-119.149 1157.5,-103.7597 1157.5,-91.3695"/>
<polygon fill="#191970" stroke="#191970" points="1161.0001,-91.0816 1157.5,-81.0817 1154.0001,-91.0817 1161.0001,-91.0816"/>
</g>
<!-- Node12 -->
<g id="node13" class="node">
<title>Node12</title>
<g id="a_node13"><a xlink:href="incflo__enums_8_h.html" target="_top" xlink:title="amr&#45;wind/incflo_enums.H">
<polygon fill="#ffffff" stroke="#000000" points="792.5,-62 792.5,-81 932.5,-81 932.5,-62 792.5,-62"/>
<text text-anchor="middle" x="862.5" y="-69" font-family="Helvetica,sans-Serif" font-size="10.00" fill="#000000">amr&#45;wind/incflo_enums.H</text>
</a>
</g>
</g>
<!-- Node5&#45;&gt;Node12 -->
<g id="edge13" class="edge">
<title>Node5&#45;&gt;Node12</title>
<path fill="none" stroke="#191970" d="M1115.547,-128.9717C1062.7255,-116.975 971.9808,-96.3651 914.722,-83.3606"/>
<polygon fill="#191970" stroke="#191970" points="915.3128,-79.9057 904.7859,-81.1039 913.7624,-86.7319 915.3128,-79.9057"/>
</g>
<!-- Node13 -->
<g id="node14" class="node">
<title>Node13</title>
<g id="a_node14"><a xlink:href="_field_desc_types_8_h.html" target="_top" xlink:title="amr&#45;wind/core/FieldDescTypes.H">
<polygon fill="#ffffff" stroke="#000000" points="1723.5,-.5 1723.5,-19.5 1897.5,-19.5 1897.5,-.5 1723.5,-.5"/>
<text text-anchor="middle" x="1810.5" y="-7.5" font-family="Helvetica,sans-Serif" font-size="10.00" fill="#000000">amr&#45;wind/core/FieldDescTypes.H</text>
</a>
</g>
</g>
<!-- Node5&#45;&gt;Node13 -->
<g id="edge14" class="edge">
<title>Node5&#45;&gt;Node13</title>
<path fill="none" stroke="#191970" d="M1218.5352,-134.5863C1330.9862,-126.9579 1566.5947,-108.9129 1645.5,-87 1697.9462,-72.4351 1754.4871,-42.6282 1785.8878,-24.6723"/>
<polygon fill="#191970" stroke="#191970" points="1787.8969,-27.5533 1794.7933,-19.5103 1784.3864,-21.4971 1787.8969,-27.5533"/>
</g>
<!-- Node14 -->
<g id="node15" class="node">
<title>Node14</title>
<g id="a_node15"><a xlink:href="_view_field_8_h.html" target="_top" xlink:title="amr&#45;wind/core/ViewField.H">
<polygon fill="#ffffff" stroke="#000000" points="1490.5,-62 1490.5,-81 1636.5,-81 1636.5,-62 1490.5,-62"/>
<text text-anchor="middle" x="1563.5" y="-69" font-family="Helvetica,sans-Serif" font-size="10.00" fill="#000000">amr&#45;wind/core/ViewField.H</text>
</a>
</g>
</g>
<!-- Node5&#45;&gt;Node14 -->
<g id="edge15" class="edge">
<title>Node5&#45;&gt;Node14</title>
<path fill="none" stroke="#191970" d="M1215.2387,-128.9717C1289.0937,-116.7838 1416.818,-95.7062 1495.3598,-82.7448"/>
<polygon fill="#191970" stroke="#191970" points="1496.3355,-86.1312 1505.6321,-81.0496 1495.1957,-79.2246 1496.3355,-86.1312"/>
</g>
<!-- Node14&#45;&gt;Node6 -->
<g id="edge16" class="edge">
<title>Node14&#45;&gt;Node6</title>
<path fill="none" stroke="#191970" d="M1529.9063,-61.8906C1489.0555,-50.2054 1420.6074,-30.6261 1380.4936,-19.1516"/>
<polygon fill="#191970" stroke="#191970" points="1381.276,-15.7351 1370.699,-16.3499 1379.3508,-22.4652 1381.276,-15.7351"/>
</g>
<!-- Node14&#45;&gt;Node10 -->
<g id="edge18" class="edge">
<title>Node14&#45;&gt;Node10</title>
<path fill="none" stroke="#191970" d="M1577.25,-61.8906C1591.1991,-52.1421 1613.0098,-36.8994 1629.3897,-25.4521"/>
<polygon fill="#191970" stroke="#191970" points="1631.6548,-28.1392 1637.8466,-19.5419 1627.6449,-22.4015 1631.6548,-28.1392"/>
</g>
<!-- Node14&#45;&gt;Node13 -->
<g id="edge17" class="edge">
<title>Node14&#45;&gt;Node13</title>
<path fill="none" stroke="#191970" d="M1601.8227,-61.9581C1644.997,-51.2082 1715.2495,-33.7162 1762.1584,-22.0365"/>
<polygon fill="#191970" stroke="#191970" points="1763.2293,-25.3768 1772.0874,-19.5643 1761.538,-18.5842 1763.2293,-25.3768"/>
</g>
<!-- Node15 -->
<g id="node16" class="node">
<title>Node15</title>
<polygon fill="#ffffff" stroke="#bfbfbf" points="1483.5,-.5 1483.5,-19.5 1579.5,-19.5 1579.5,-.5 1483.5,-.5"/>
<text text-anchor="middle" x="1531.5" y="-7.5" font-family="Helvetica,sans-Serif" font-size="10.00" fill="#000000">AMReX_Vector.H</text>
</g>
<!-- Node14&#45;&gt;Node15 -->
<g id="edge19" class="edge">
<title>Node14&#45;&gt;Node15</title>
<path fill="none" stroke="#191970" d="M1558.5,-61.8906C1553.9242,-53.0965 1547.0219,-39.8312 1541.3417,-28.9145"/>
<polygon fill="#191970" stroke="#191970" points="1544.2912,-27.0003 1536.5705,-19.7449 1538.0815,-30.2314 1544.2912,-27.0003"/>
</g>
<!-- Node16&#45;&gt;Node2 -->
<g id="edge21" class="edge">
<title>Node16&#45;&gt;Node2</title>
<path fill="none" stroke="#191970" d="M732.2078,-317.1344C663.1645,-304.9288 553.9836,-285.6277 484.0718,-273.2686"/>
<polygon fill="#191970" stroke="#191970" points="484.508,-269.7915 474.0514,-271.4972 483.2894,-276.6847 484.508,-269.7915"/>
</g>
<!-- Node16&#45;&gt;Node5 -->
<g id="edge73" class="edge">
<title>Node16&#45;&gt;Node5</title>
<path fill="none" stroke="#191970" d="M824.4994,-313.3733C872.0505,-287.7314 971.6908,-234.2063 1056.5,-190 1081.0602,-177.1981 1109.1361,-162.9099 1129.4423,-152.6372"/>
<polygon fill="#191970" stroke="#191970" points="1131.1136,-155.7142 1138.4605,-148.0805 1127.9567,-149.4664 1131.1136,-155.7142"/>
</g>
<!-- Node17 -->
<g id="node18" class="node">
<title>Node17</title>
<g id="a_node18"><a xlink:href="_c_f_d_sim_8_h.html" target="_top" xlink:title="amr&#45;wind/CFDSim.H">
<polygon fill="#ffffff" stroke="#000000" points="739.5,-252 739.5,-271 853.5,-271 853.5,-252 739.5,-252"/>
<text text-anchor="middle" x="796.5" y="-259" font-family="Helvetica,sans-Serif" font-size="10.00" fill="#000000">amr&#45;wind/CFDSim.H</text>
</a>
</g>
</g>
<!-- Node16&#45;&gt;Node17 -->
<g id="edge22" class="edge">
<title>Node16&#45;&gt;Node17</title>
<path fill="none" stroke="#191970" d="M796.5,-313.2967C796.5,-303.7699 796.5,-291.3954 796.5,-281.1306"/>
<polygon fill="#191970" stroke="#191970" points="800.0001,-281.0549 796.5,-271.055 793.0001,-281.055 800.0001,-281.0549"/>
</g>
<!-- Node18 -->
<g id="node19" class="node">
<title>Node18</title>
<g id="a_node19"><a xlink:href="_sim_time_8_h.html" target="_top" xlink:title="amr&#45;wind/core/SimTime.H">
<polygon fill="#ffffff" stroke="#000000" points="434,-190.5 434,-209.5 577,-209.5 577,-190.5 434,-190.5"/>
<text text-anchor="middle" x="505.5" y="-197.5" font-family="Helvetica,sans-Serif" font-size="10.00" fill="#000000">amr&#45;wind/core/SimTime.H</text>
</a>
</g>
</g>
<!-- Node16&#45;&gt;Node18 -->
<g id="edge74" class="edge">
<title>Node16&#45;&gt;Node18</title>
<path fill="none" stroke="#191970" d="M762.2629,-313.3816C705.1451,-288.1594 591.285,-237.881 536.4397,-213.6624"/>
<polygon fill="#191970" stroke="#191970" points="537.7857,-210.4307 527.224,-209.5929 534.958,-216.8342 537.7857,-210.4307"/>
</g>
<!-- Node17&#45;&gt;Node1 -->
<g id="edge23" class="edge">
<title>Node17&#45;&gt;Node1</title>
<path fill="none" stroke="#191970" d="M805.9242,-251.9309C819.8664,-237.911 846.9867,-211.158 871.5,-190 886.1211,-177.3802 903.3475,-163.9847 916.5343,-154.0195"/>
<polygon fill="#191970" stroke="#191970" points="918.6485,-156.8089 924.5486,-148.0089 914.4485,-151.2088 918.6485,-156.8089"/>
</g>
<!-- Node17&#45;&gt;Node18 -->
<g id="edge24" class="edge">
<title>Node17&#45;&gt;Node18</title>
<path fill="none" stroke="#191970" d="M751.3505,-251.9581C699.9522,-241.0956 615.9795,-223.3488 560.7242,-211.6711"/>
<polygon fill="#191970" stroke="#191970" points="561.263,-208.2077 550.7554,-209.5643 559.8155,-215.0565 561.263,-208.2077"/>
</g>
<!-- Node22 -->
<g id="node23" class="node">
<title>Node22</title>
<g id="a_node23"><a xlink:href="_field_repo_8_h.html" target="_top" xlink:title="amr&#45;wind/core/FieldRepo.H">
<polygon fill="#ffffff" stroke="#000000" points="1648.5,-190.5 1648.5,-209.5 1794.5,-209.5 1794.5,-190.5 1648.5,-190.5"/>
<text text-anchor="middle" x="1721.5" y="-197.5" font-family="Helvetica,sans-Serif" font-size="10.00" fill="#000000">amr&#45;wind/core/FieldRepo.H</text>
</a>
</g>
</g>
<!-- Node17&#45;&gt;Node22 -->
<g id="edge28" class="edge">
<title>Node17&#45;&gt;Node22</title>
<path fill="none" stroke="#191970" d="M853.6648,-257.6993C1011.2928,-247.2192 1452.6864,-217.8725 1637.9604,-205.5543"/>
<polygon fill="#191970" stroke="#191970" points="1638.4444,-209.0299 1648.1902,-204.8741 1637.98,-202.0453 1638.4444,-209.0299"/>
</g>
<!-- Node29 -->
<g id="node30" class="node">
<title>Node29</title>
<g id="a_node30"><a xlink:href="_p_d_e_base_8_h.html" target="_top" xlink:title="amr&#45;wind/equation_systems\l/PDEBase.H">
<polygon fill="#ffffff" stroke="#000000" points="555,-123.5 555,-153.5 710,-153.5 710,-123.5 555,-123.5"/>
<text text-anchor="start" x="563" y="-141.5" font-family="Helvetica,sans-Serif" font-size="10.00" fill="#000000">amr&#45;wind/equation_systems</text>
<text text-anchor="middle" x="632.5" y="-130.5" font-family="Helvetica,sans-Serif" font-size="10.00" fill="#000000">/PDEBase.H</text>
</a>
</g>
</g>
<!-- Node17&#45;&gt;Node29 -->
<g id="edge51" class="edge">
<title>Node17&#45;&gt;Node29</title>
<path fill="none" stroke="#191970" d="M783.6312,-251.8484C757.2765,-232.0824 696.6241,-186.5931 660.6807,-159.6356"/>
<polygon fill="#191970" stroke="#191970" points="662.643,-156.7322 652.5429,-153.5322 658.443,-162.3323 662.643,-156.7322"/>
</g>
<!-- Node37 -->
<g id="node38" class="node">
<title>Node37</title>
<g id="a_node38"><a xlink:href="_physics_8_h.html" target="_top" xlink:title="amr&#45;wind/core/Physics.H">
<polygon fill="#ffffff" stroke="#000000" points="728,-129 728,-148 865,-148 865,-129 728,-129"/>
<text text-anchor="middle" x="796.5" y="-136" font-family="Helvetica,sans-Serif" font-size="10.00" fill="#000000">amr&#45;wind/core/Physics.H</text>
</a>
</g>
</g>
<!-- Node17&#45;&gt;Node37 -->
<g id="edge68" class="edge">
<title>Node17&#45;&gt;Node37</title>
<path fill="none" stroke="#191970" d="M796.5,-251.8484C796.5,-231.7295 796.5,-184.9608 796.5,-158.2098"/>
<polygon fill="#191970" stroke="#191970" points="800.0001,-158.1067 796.5,-148.1068 793.0001,-158.1068 800.0001,-158.1067"/>
</g>
<!-- Node19 -->
<g id="node20" class="node">
<title>Node19</title>
<polygon fill="#ffffff" stroke="#bfbfbf" points="163,-129 163,-148 254,-148 254,-129 163,-129"/>
<text text-anchor="middle" x="208.5" y="-136" font-family="Helvetica,sans-Serif" font-size="10.00" fill="#000000">AMReX_REAL.H</text>
</g>
<!-- Node18&#45;&gt;Node19 -->
<g id="edge25" class="edge">
<title>Node18&#45;&gt;Node19</title>
<path fill="none" stroke="#191970" d="M447.5044,-190.4341C398.2934,-181.9694 325.9414,-168.7038 263.5,-154 259.3176,-153.0151 254.976,-151.9198 250.6489,-150.7796"/>
<polygon fill="#191970" stroke="#191970" points="251.2277,-147.3102 240.6601,-148.0686 249.3942,-154.0658 251.2277,-147.3102"/>
</g>
<!-- Node20 -->
<g id="node21" class="node">
<title>Node20</title>
<polygon fill="#ffffff" stroke="#bfbfbf" points="272.5,-129 272.5,-148 404.5,-148 404.5,-129 272.5,-129"/>
<text text-anchor="middle" x="338.5" y="-136" font-family="Helvetica,sans-Serif" font-size="10.00" fill="#000000">AMReX_GpuQualifiers.H</text>
</g>
<!-- Node18&#45;&gt;Node20 -->
<g id="edge26" class="edge">
<title>Node18&#45;&gt;Node20</title>
<path fill="none" stroke="#191970" d="M479.4063,-190.3906C451.0964,-179.9652 405.7232,-163.2559 374.1408,-151.6252"/>
<polygon fill="#191970" stroke="#191970" points="375.004,-148.2133 364.4105,-148.0419 372.5849,-154.7821 375.004,-148.2133"/>
</g>
<!-- Node21 -->
<g id="node22" class="node">
<title>Node21</title>
<polygon fill="#ffffff" stroke="#bfbfbf" points="422.5,-129 422.5,-148 536.5,-148 536.5,-129 422.5,-129"/>
<text text-anchor="middle" x="479.5" y="-136" font-family="Helvetica,sans-Serif" font-size="10.00" fill="#000000">AMReX_Extension.H</text>
</g>
<!-- Node18&#45;&gt;Node21 -->
<g id="edge27" class="edge">
<title>Node18&#45;&gt;Node21</title>
<path fill="none" stroke="#191970" d="M501.4375,-190.3906C497.7576,-181.6862 492.2258,-168.6015 487.638,-157.7494"/>
<polygon fill="#191970" stroke="#191970" points="490.7375,-156.0927 483.6198,-148.2449 484.29,-158.8185 490.7375,-156.0927"/>
</g>
<!-- Node22&#45;&gt;Node1 -->
<g id="edge48" class="edge">
<title>Node22&#45;&gt;Node1</title>
<path fill="none" stroke="#191970" d="M1648.2233,-195.4129C1530.1071,-187.8547 1290.3295,-171.8335 1087.5,-154 1059.6416,-151.5506 1028.9152,-148.4466 1002.5647,-145.6607"/>
<polygon fill="#191970" stroke="#191970" points="1002.6337,-142.1484 992.3195,-144.5704 1001.8929,-149.109 1002.6337,-142.1484"/>
</g>
<!-- Node22&#45;&gt;Node5 -->
<g id="edge36" class="edge">
<title>Node22&#45;&gt;Node5</title>
<path fill="none" stroke="#191970" d="M1648.1653,-192.1354C1563.4505,-183.0336 1419.8832,-167.5564 1296.5,-154 1274.5176,-151.5847 1250.5832,-148.9262 1228.8681,-146.5031"/>
<polygon fill="#191970" stroke="#191970" points="1229.0611,-143.003 1218.7344,-145.3715 1228.2842,-149.9598 1229.0611,-143.003"/>
</g>
<!-- Node22&#45;&gt;Node6 -->
<g id="edge29" class="edge">
<title>Node22&#45;&gt;Node6</title>
<path fill="none" stroke="#191970" d="M1653.1411,-190.4862C1581.9267,-177.59 1470.358,-148.6582 1394.5,-87 1375.6872,-71.7087 1362.7434,-46.5378 1355.488,-29.1594"/>
<polygon fill="#191970" stroke="#191970" points="1358.6116,-27.5373 1351.704,-19.5039 1352.0942,-30.0916 1358.6116,-27.5373"/>
</g>
<!-- Node22&#45;&gt;Node8 -->
<g id="edge30" class="edge">
<title>Node22&#45;&gt;Node8</title>
<path fill="none" stroke="#191970" d="M1648.221,-193.1587C1591.8835,-186.6197 1512.5971,-174.622 1445.5,-154 1345.8925,-123.386 1332.682,-84.6782 1232.5,-56 1127.4272,-25.9217 999.5754,-15.4925 927.362,-11.8891"/>
<polygon fill="#191970" stroke="#191970" points="927.2746,-8.3811 917.1206,-11.4054 926.9444,-15.3733 927.2746,-8.3811"/>
</g>
<!-- Node22&#45;&gt;Node10 -->
<g id="edge49" class="edge">
<title>Node22&#45;&gt;Node10</title>
<path fill="none" stroke="#191970" d="M1771.0906,-190.4961C1824.2669,-177.3701 1906.09,-148.0194 1943.5,-87 1950.7013,-75.254 1952.454,-66.4716 1943.5,-56 1911.7873,-18.9125 1780.3287,-26.9977 1715.3251,-19.86"/>
<polygon fill="#191970" stroke="#191970" points="1715.4867,-16.3511 1705.1154,-18.5159 1714.573,-23.2912 1715.4867,-16.3511"/>
</g>
<!-- Node22&#45;&gt;Node13 -->
<g id="edge31" class="edge">
<title>Node22&#45;&gt;Node13</title>
<path fill="none" stroke="#191970" d="M1794.8482,-197.8057C1889.3972,-193.8318 2047.5842,-182.9597 2097.5,-154 2129.6384,-135.3542 2135.7925,-122.263 2147.5,-87 2151.8413,-73.9241 2156.5596,-66.3803 2147.5,-56 2131.8123,-38.0255 2001.6263,-24.4129 1907.7583,-16.8183"/>
<polygon fill="#191970" stroke="#191970" points="1907.8959,-13.3183 1897.6493,-16.0122 1907.3394,-20.2961 1907.8959,-13.3183"/>
</g>
<!-- Node23 -->
<g id="node24" class="node">
<title>Node23</title>
<g id="a_node24"><a xlink:href="_field_utils_8_h.html" target="_top" xlink:title="amr&#45;wind/core/FieldUtils.H">
<polygon fill="#ffffff" stroke="#000000" points="2195,-62 2195,-81 2340,-81 2340,-62 2195,-62"/>
<text text-anchor="middle" x="2267.5" y="-69" font-family="Helvetica,sans-Serif" font-size="10.00" fill="#000000">amr&#45;wind/core/FieldUtils.H</text>
</a>
</g>
</g>
<!-- Node22&#45;&gt;Node23 -->
<g id="edge32" class="edge">
<title>Node22&#45;&gt;Node23</title>
<path fill="none" stroke="#191970" d="M1794.5578,-198.3957C1906.2615,-194.9889 2113.5993,-184.6311 2180.5,-154 2212.0117,-139.5721 2239.3353,-109.0136 2254.5889,-89.41"/>
<polygon fill="#191970" stroke="#191970" points="2257.4985,-91.3644 2260.7196,-81.2711 2251.9073,-87.1527 2257.4985,-91.3644"/>
</g>
<!-- Node25 -->
<g id="node26" class="node">
<title>Node25</title>
<g id="a_node26"><a xlink:href="_int_field_8_h.html" target="_top" xlink:title="amr&#45;wind/core/IntField.H">
<polygon fill="#ffffff" stroke="#000000" points="1933,-129 1933,-148 2068,-148 2068,-129 1933,-129"/>
<text text-anchor="middle" x="2000.5" y="-136" font-family="Helvetica,sans-Serif" font-size="10.00" fill="#000000">amr&#45;wind/core/IntField.H</text>
</a>
</g>
</g>
<!-- Node22&#45;&gt;Node25 -->
<g id="edge37" class="edge">
<title>Node22&#45;&gt;Node25</title>
<path fill="none" stroke="#191970" d="M1764.7876,-190.4581C1813.9642,-179.6181 1894.2424,-161.9224 1947.223,-150.2439"/>
<polygon fill="#191970" stroke="#191970" points="1948.0987,-153.6349 1957.1108,-148.0643 1946.5918,-146.799 1948.0987,-153.6349"/>
</g>
<!-- Node26 -->
<g id="node27" class="node">
<title>Node26</title>
<polygon fill="#ffffff" stroke="#bfbfbf" points="2028.5,-62 2028.5,-81 2138.5,-81 2138.5,-62 2028.5,-62"/>
<text text-anchor="middle" x="2083.5" y="-69" font-family="Helvetica,sans-Serif" font-size="10.00" fill="#000000">AMReX_iMultiFab.H</text>
</g>
<!-- Node22&#45;&gt;Node26 -->
<g id="edge50" class="edge">
<title>Node22&#45;&gt;Node26</title>
<path fill="none" stroke="#191970" d="M1794.7864,-195.4319C1893.3146,-188.5584 2058.4194,-174.1782 2077.5,-154 2093.1713,-137.4272 2091.7065,-109.6625 2088.3366,-90.9725"/>
<polygon fill="#191970" stroke="#191970" points="2091.755,-90.2207 2086.2474,-81.17 2084.9088,-91.6799 2091.755,-90.2207"/>
</g>
<!-- Node27 -->
<g id="node28" class="node">
<title>Node27</title>
<g id="a_node28"><a xlink:href="_scratch_field_8_h.html" target="_top" xlink:title="amr&#45;wind/core/ScratchField.H">
<polygon fill="#ffffff" stroke="#000000" points="1642.5,-129 1642.5,-148 1800.5,-148 1800.5,-129 1642.5,-129"/>
<text text-anchor="middle" x="1721.5" y="-136" font-family="Helvetica,sans-Serif" font-size="10.00" fill="#000000">amr&#45;wind/core/ScratchField.H</text>
</a>
</g>
</g>
<!-- Node22&#45;&gt;Node27 -->
<g id="edge41" class="edge">
<title>Node22&#45;&gt;Node27</title>
<path fill="none" stroke="#191970" d="M1721.5,-190.3906C1721.5,-181.8657 1721.5,-169.1392 1721.5,-158.4235"/>
<polygon fill="#191970" stroke="#191970" points="1725.0001,-158.2448 1721.5,-148.2449 1718.0001,-158.2449 1725.0001,-158.2448"/>
</g>
<!-- Node23&#45;&gt;Node10 -->
<g id="edge34" class="edge">
<title>Node23&#45;&gt;Node10</title>
<path fill="none" stroke="#191970" d="M2198.0802,-61.9877C2181.5228,-59.8701 2163.898,-57.7398 2147.5,-56 1958.7512,-35.9741 1907.9407,-42.9035 1715.2588,-20.0044"/>
<polygon fill="#191970" stroke="#191970" points="1715.4241,-16.4992 1705.0782,-18.7826 1714.5899,-23.4493 1715.4241,-16.4992"/>
</g>
<!-- Node23&#45;&gt;Node13 -->
<g id="edge33" class="edge">
<title>Node23&#45;&gt;Node13</title>
<path fill="none" stroke="#191970" d="M2216.51,-61.9526C2204.7056,-59.871 2192.1807,-57.7654 2180.5,-56 2088.3486,-42.0726 1982.8171,-29.2609 1908.1042,-20.7153"/>
<polygon fill="#191970" stroke="#191970" points="1908.103,-17.1926 1897.7711,-19.5381 1907.3106,-24.1476 1908.103,-17.1926"/>
</g>
<!-- Node24 -->
<g id="node25" class="node">
<title>Node24</title>
<polygon fill="#ffffff" stroke="#bfbfbf" points="2206.5,-.5 2206.5,-19.5 2328.5,-19.5 2328.5,-.5 2206.5,-.5"/>
<text text-anchor="middle" x="2267.5" y="-7.5" font-family="Helvetica,sans-Serif" font-size="10.00" fill="#000000">AMReX_Interpolater.H</text>
</g>
<!-- Node23&#45;&gt;Node24 -->
<g id="edge35" class="edge">
<title>Node23&#45;&gt;Node24</title>
<path fill="none" stroke="#191970" d="M2267.5,-61.8906C2267.5,-53.3657 2267.5,-40.6392 2267.5,-29.9235"/>
<polygon fill="#191970" stroke="#191970" points="2271.0001,-29.7448 2267.5,-19.7449 2264.0001,-29.7449 2271.0001,-29.7448"/>
</g>
<!-- Node25&#45;&gt;Node6 -->
<g id="edge38" class="edge">
<title>Node25&#45;&gt;Node6</title>
<path fill="none" stroke="#191970" d="M1932.8014,-132.7045C1796.9714,-120.9491 1502.3434,-94.7585 1481.5,-87 1459.0811,-78.6551 1457.9511,-68.4097 1437.5,-56 1418.3041,-44.3519 1395.8362,-32.7541 1378.2777,-24.1178"/>
<polygon fill="#191970" stroke="#191970" points="1379.6035,-20.8706 1369.08,-19.643 1376.5411,-27.1652 1379.6035,-20.8706"/>
</g>
<!-- Node25&#45;&gt;Node13 -->
<g id="edge39" class="edge">
<title>Node25&#45;&gt;Node13</title>
<path fill="none" stroke="#191970" d="M2000.5585,-128.8473C2000.1194,-111.7117 1996.6681,-75.9122 1976.5,-56 1962.0805,-41.7635 1916.4106,-29.7093 1876.6163,-21.5163"/>
<polygon fill="#191970" stroke="#191970" points="1877.1413,-18.0519 1866.6483,-19.5175 1875.765,-24.9153 1877.1413,-18.0519"/>
</g>
<!-- Node25&#45;&gt;Node26 -->
<g id="edge40" class="edge">
<title>Node25&#45;&gt;Node26</title>
<path fill="none" stroke="#191970" d="M2012.3919,-128.9005C2025.7048,-118.1539 2047.4999,-100.5603 2063.4568,-87.6794"/>
<polygon fill="#191970" stroke="#191970" points="2066.0474,-90.0863 2071.6302,-81.0817 2061.6506,-84.6395 2066.0474,-90.0863"/>
</g>
<!-- Node27&#45;&gt;Node6 -->
<g id="edge42" class="edge">
<title>Node27&#45;&gt;Node6</title>
<path fill="none" stroke="#191970" d="M1642.3951,-133.4021C1586.2605,-127.474 1510.2296,-114.6643 1448.5,-87 1415.5803,-72.247 1383.6434,-44.623 1365.0406,-26.7847"/>
<polygon fill="#191970" stroke="#191970" points="1367.2876,-24.0861 1357.6979,-19.5818 1362.3856,-29.0832 1367.2876,-24.0861"/>
</g>
<!-- Node27&#45;&gt;Node10 -->
<g id="edge45" class="edge">
<title>Node27&#45;&gt;Node10</title>
<path fill="none" stroke="#191970" d="M1723.4494,-128.8609C1726.2006,-112.6607 1729.546,-79.448 1716.5,-56 1708.9819,-42.4875 1695.625,-32.0014 1682.9666,-24.4766"/>
<polygon fill="#191970" stroke="#191970" points="1684.4142,-21.2782 1673.9663,-19.5199 1681.0373,-27.4099 1684.4142,-21.2782"/>
</g>
<!-- Node27&#45;&gt;Node13 -->
<g id="edge43" class="edge">
<title>Node27&#45;&gt;Node13</title>
<path fill="none" stroke="#191970" d="M1728.1895,-128.8416C1743.008,-107.4463 1778.7983,-55.7715 1797.9356,-28.1407"/>
<polygon fill="#191970" stroke="#191970" points="1800.9164,-29.9841 1803.7329,-19.7705 1795.1618,-25.9984 1800.9164,-29.9841"/>
</g>
<!-- Node27&#45;&gt;Node14 -->
<g id="edge44" class="edge">
<title>Node27&#45;&gt;Node14</title>
<path fill="none" stroke="#191970" d="M1698.8625,-128.9005C1671.7599,-117.4077 1626.1901,-98.0838 1595.4961,-85.068"/>
<polygon fill="#191970" stroke="#191970" points="1596.6684,-81.7635 1586.0956,-81.0817 1593.9356,-88.208 1596.6684,-81.7635"/>
</g>
<!-- Node27&#45;&gt;Node15 -->
<g id="edge46" class="edge">
<title>Node27&#45;&gt;Node15</title>
<path fill="none" stroke="#191970" d="M1714.8286,-128.8064C1702.771,-111.9243 1675.7739,-76.9325 1645.5,-56 1624.3211,-41.3561 1597.7849,-30.2982 1575.6448,-22.6987"/>
<polygon fill="#191970" stroke="#191970" points="1576.7295,-19.3711 1566.1362,-19.5518 1574.5301,-26.0166 1576.7295,-19.3711"/>
</g>
<!-- Node28 -->
<g id="node29" class="node">
<title>Node28</title>
<polygon fill="#ffffff" stroke="#bfbfbf" points="1806.5,-62 1806.5,-81 1934.5,-81 1934.5,-62 1806.5,-62"/>
<text text-anchor="middle" x="1870.5" y="-69" font-family="Helvetica,sans-Serif" font-size="10.00" fill="#000000">AMReX_PhysBCFunct.H</text>
</g>
<!-- Node27&#45;&gt;Node28 -->
<g id="edge47" class="edge">
<title>Node27&#45;&gt;Node28</title>
<path fill="none" stroke="#191970" d="M1742.8481,-128.9005C1768.2962,-117.4574 1811.0091,-98.2509 1839.9497,-85.2374"/>
<polygon fill="#191970" stroke="#191970" points="1841.5066,-88.3749 1849.1915,-81.0817 1838.6358,-81.9907 1841.5066,-88.3749"/>
</g>
<!-- Node29&#45;&gt;Node6 -->
<g id="edge52" class="edge">
<title>Node29&#45;&gt;Node6</title>
<path fill="none" stroke="#191970" d="M576.9459,-123.4824C532.6437,-108.9257 482.1891,-84.8493 509.5,-56 537.7207,-26.1896 1165.0876,-13.2367 1316.0465,-10.5453"/>
<polygon fill="#191970" stroke="#191970" points="1316.5309,-14.0375 1326.4679,-10.3624 1316.408,-7.0385 1316.5309,-14.0375"/>
</g>
<!-- Node29&#45;&gt;Node12 -->
<g id="edge67" class="edge">
<title>Node29&#45;&gt;Node12</title>
<path fill="none" stroke="#191970" d="M684.1165,-123.4639C725.089,-111.5284 781.6719,-95.0456 820.0435,-83.8678"/>
<polygon fill="#191970" stroke="#191970" points="821.2479,-87.1625 829.8699,-81.0053 819.2901,-80.4418 821.2479,-87.1625"/>
</g>
<!-- Node29&#45;&gt;Node13 -->
<g id="edge66" class="edge">
<title>Node29&#45;&gt;Node13</title>
<path fill="none" stroke="#191970" d="M631.008,-123.2056C630.0978,-104.1605 631.8755,-72.1687 651.5,-56 695.5458,-19.7105 1591.0981,-23.7286 1713.3954,-19.7912"/>
<polygon fill="#191970" stroke="#191970" points="1713.5695,-23.287 1723.4021,-19.3411 1713.2549,-16.294 1713.5695,-23.287"/>
</g>
<!-- Node30 -->
<g id="node31" class="node">
<title>Node30</title>
<g id="a_node31"><a xlink:href="_factory_8_h.html" target="_top" xlink:title="amr&#45;wind/core/Factory.H">
<polygon fill="#ffffff" stroke="#000000" points="174.5,-62 174.5,-81 308.5,-81 308.5,-62 174.5,-62"/>
<text text-anchor="middle" x="241.5" y="-69" font-family="Helvetica,sans-Serif" font-size="10.00" fill="#000000">amr&#45;wind/core/Factory.H</text>
</a>
</g>
</g>
<!-- Node29&#45;&gt;Node30 -->
<g id="edge53" class="edge">
<title>Node29&#45;&gt;Node30</title>
<path fill="none" stroke="#191970" d="M554.725,-124.5652C551.6102,-124.032 548.526,-123.5084 545.5,-123 444.3293,-106.0022 418.4515,-105.2549 317.5,-87 310.7336,-85.7764 303.6428,-84.4243 296.6263,-83.0436"/>
<polygon fill="#191970" stroke="#191970" points="296.9373,-79.5367 286.4457,-81.0119 295.5673,-86.4014 296.9373,-79.5367"/>
</g>
<!-- Node34 -->
<g id="node35" class="node">
<title>Node34</title>
<g id="a_node35"><a xlink:href="_coll_mgr_8_h.html" target="_top" xlink:title="amr&#45;wind/core/CollMgr.H">
<polygon fill="#ffffff" stroke="#000000" points="326.5,-62 326.5,-81 462.5,-81 462.5,-62 326.5,-62"/>
<text text-anchor="middle" x="394.5" y="-69" font-family="Helvetica,sans-Serif" font-size="10.00" fill="#000000">amr&#45;wind/core/CollMgr.H</text>
</a>
</g>
</g>
<!-- Node29&#45;&gt;Node34 -->
<g id="edge59" class="edge">
<title>Node29&#45;&gt;Node34</title>
<path fill="none" stroke="#191970" d="M579.0882,-123.4639C536.5101,-111.4776 477.6409,-94.9052 437.9274,-83.7254"/>
<polygon fill="#191970" stroke="#191970" points="438.8394,-80.3461 428.265,-81.0053 436.9424,-87.0842 438.8394,-80.3461"/>
</g>
<!-- Node35 -->
<g id="node36" class="node">
<title>Node35</title>
<g id="a_node36"><a xlink:href="_p_d_e_fields_8_h.html" target="_top" xlink:title="amr&#45;wind/equation_systems\l/PDEFields.H">
<polygon fill="#ffffff" stroke="#000000" points="0,-56.5 0,-86.5 155,-86.5 155,-56.5 0,-56.5"/>
<text text-anchor="start" x="8" y="-74.5" font-family="Helvetica,sans-Serif" font-size="10.00" fill="#000000">amr&#45;wind/equation_systems</text>
<text text-anchor="middle" x="77.5" y="-63.5" font-family="Helvetica,sans-Serif" font-size="10.00" fill="#000000">/PDEFields.H</text>
</a>
</g>
</g>
<!-- Node29&#45;&gt;Node35 -->
<g id="edge64" class="edge">
<title>Node29&#45;&gt;Node35</title>
<path fill="none" stroke="#191970" d="M554.7615,-124.3249C551.6366,-123.8582 548.5403,-123.4141 545.5,-123 377.4072,-100.103 333.6152,-109.732 165.5,-87 165.3943,-86.9857 165.2886,-86.9714 165.1827,-86.957"/>
<polygon fill="#191970" stroke="#191970" points="165.579,-83.4782 155.1847,-85.53 164.5898,-90.408 165.579,-83.4782"/>
</g>
<!-- Node30&#45;&gt;Node7 -->
<g id="edge54" class="edge">
<title>Node30&#45;&gt;Node7</title>
<path fill="none" stroke="#191970" d="M268.2188,-61.8906C297.3321,-51.42 344.0692,-34.6111 376.4247,-22.9745"/>
<polygon fill="#191970" stroke="#191970" points="377.7435,-26.2197 385.9689,-19.5419 375.3744,-19.6328 377.7435,-26.2197"/>
</g>
<!-- Node30&#45;&gt;Node8 -->
<g id="edge55" class="edge">
<title>Node30&#45;&gt;Node8</title>
<path fill="none" stroke="#191970" d="M283.5551,-61.9999C294.5571,-59.7685 306.4358,-57.5828 317.5,-56 497.5712,-30.2401 712.8493,-17.4552 813.4389,-12.519"/>
<polygon fill="#191970" stroke="#191970" points="813.8613,-16.0028 823.6807,-12.0242 813.5234,-9.011 813.8613,-16.0028"/>
</g>
<!-- Node31 -->
<g id="node32" class="node">
<title>Node31</title>
<polygon fill="#ffffff" stroke="#bfbfbf" points="118.5,-.5 118.5,-19.5 178.5,-19.5 178.5,-.5 118.5,-.5"/>
<text text-anchor="middle" x="148.5" y="-7.5" font-family="Helvetica,sans-Serif" font-size="10.00" fill="#000000">iostream</text>
</g>
<!-- Node30&#45;&gt;Node31 -->
<g id="edge56" class="edge">
<title>Node30&#45;&gt;Node31</title>
<path fill="none" stroke="#191970" d="M226.9688,-61.8906C212.0906,-52.0519 188.7496,-36.6167 171.3872,-25.1351"/>
<polygon fill="#191970" stroke="#191970" points="173.201,-22.1385 162.9292,-19.5419 169.3398,-27.9773 173.201,-22.1385"/>
</g>
<!-- Node32 -->
<g id="node33" class="node">
<title>Node32</title>
<polygon fill="#ffffff" stroke="#bfbfbf" points="197,-.5 197,-19.5 286,-19.5 286,-.5 197,-.5"/>
<text text-anchor="middle" x="241.5" y="-7.5" font-family="Helvetica,sans-Serif" font-size="10.00" fill="#000000">AMReX_Print.H</text>
</g>
<!-- Node30&#45;&gt;Node32 -->
<g id="edge57" class="edge">
<title>Node30&#45;&gt;Node32</title>
<path fill="none" stroke="#191970" d="M241.5,-61.8906C241.5,-53.3657 241.5,-40.6392 241.5,-29.9235"/>
<polygon fill="#191970" stroke="#191970" points="245.0001,-29.7448 241.5,-19.7449 238.0001,-29.7449 245.0001,-29.7448"/>
</g>
<!-- Node33 -->
<g id="node34" class="node">
<title>Node33</title>
<polygon fill="#ffffff" stroke="#bfbfbf" points="304,-.5 304,-19.5 365,-19.5 365,-.5 304,-.5"/>
<text text-anchor="middle" x="334.5" y="-7.5" font-family="Helvetica,sans-Serif" font-size="10.00" fill="#000000">AMReX.H</text>
</g>
<!-- Node30&#45;&gt;Node33 -->
<g id="edge58" class="edge">
<title>Node30&#45;&gt;Node33</title>
<path fill="none" stroke="#191970" d="M256.0313,-61.8906C270.9094,-52.0519 294.2504,-36.6167 311.6128,-25.1351"/>
<polygon fill="#191970" stroke="#191970" points="313.6602,-27.9773 320.0708,-19.5419 309.799,-22.1385 313.6602,-27.9773"/>
</g>
<!-- Node34&#45;&gt;Node6 -->
<g id="edge60" class="edge">
<title>Node34&#45;&gt;Node6</title>
<path fill="none" stroke="#191970" d="M439.0169,-61.9611C451.1257,-59.6744 464.2732,-57.4713 476.5,-56 643.9275,-35.8522 1178.9176,-15.9821 1316.1673,-11.1234"/>
<polygon fill="#191970" stroke="#191970" points="1316.5571,-14.612 1326.4277,-10.762 1316.3106,-7.6163 1316.5571,-14.612"/>
</g>
<!-- Node34&#45;&gt;Node7 -->
<g id="edge61" class="edge">
<title>Node34&#45;&gt;Node7</title>
<path fill="none" stroke="#191970" d="M397.3125,-61.8906C399.8339,-53.276 403.611,-40.3708 406.7676,-29.5858"/>
<polygon fill="#191970" stroke="#191970" points="410.1979,-30.3254 409.6478,-19.7449 403.4797,-28.3591 410.1979,-30.3254"/>
</g>
<!-- Node34&#45;&gt;Node8 -->
<g id="edge62" class="edge">
<title>Node34&#45;&gt;Node8</title>
<path fill="none" stroke="#191970" d="M441.6664,-61.9949C453.0452,-59.8651 465.1855,-57.7277 476.5,-56 595.9745,-37.7571 736.803,-22.9085 813.5608,-15.3738"/>
<polygon fill="#191970" stroke="#191970" points="814.3447,-18.814 823.9576,-14.3595 813.6649,-11.8471 814.3447,-18.814"/>
</g>
<!-- Node34&#45;&gt;Node15 -->
<g id="edge63" class="edge">
<title>Node34&#45;&gt;Node15</title>
<path fill="none" stroke="#191970" d="M457.0515,-61.9985C474.0332,-59.7117 492.4418,-57.4993 509.5,-56 895.0114,-22.1171 993.0567,-40.7043 1379.5,-20 1410.4284,-18.343 1444.871,-16.1091 1473.1392,-14.173"/>
<polygon fill="#191970" stroke="#191970" points="1473.5212,-17.6551 1483.2565,-13.4748 1473.0392,-10.6717 1473.5212,-17.6551"/>
</g>
<!-- Node36 -->
<g id="node37" class="node">
<title>Node36</title>
<polygon fill="#ffffff" stroke="#bfbfbf" points="51,-.5 51,-19.5 100,-19.5 100,-.5 51,-.5"/>
<text text-anchor="middle" x="75.5" y="-7.5" font-family="Helvetica,sans-Serif" font-size="10.00" fill="#000000">iosfwd</text>
</g>
<!-- Node35&#45;&gt;Node36 -->
<g id="edge65" class="edge">
<title>Node35&#45;&gt;Node36</title>
<path fill="none" stroke="#191970" d="M77.0056,-56.2977C76.7482,-48.3834 76.4302,-38.6043 76.1529,-30.0759"/>
<polygon fill="#191970" stroke="#191970" points="79.6435,-29.7279 75.8202,-19.8469 72.6472,-29.9554 79.6435,-29.7279"/>
</g>
<!-- Node37&#45;&gt;Node10 -->
<g id="edge71" class="edge">
<title>Node37&#45;&gt;Node10</title>
<path fill="none" stroke="#191970" d="M834.3653,-128.9195C864.5498,-120.3872 907.2809,-106.2661 941.5,-87 960.4926,-76.3068 959.1923,-63.9157 979.5,-56 1102.9761,-7.8708 1438.2067,-33.4307 1587.9112,-19.8684"/>
<polygon fill="#191970" stroke="#191970" points="1588.328,-23.3443 1597.9318,-18.8702 1587.6341,-16.3788 1588.328,-23.3443"/>
</g>
<!-- Node37&#45;&gt;Node30 -->
<g id="edge69" class="edge">
<title>Node37&#45;&gt;Node30</title>
<path fill="none" stroke="#191970" d="M753.4762,-128.9757C742.443,-126.7712 730.566,-124.6044 719.5,-123 541.9744,-97.2619 494.9927,-112.9639 317.5,-87 309.8177,-85.8762 301.7408,-84.4724 293.8368,-82.9717"/>
<polygon fill="#191970" stroke="#191970" points="294.447,-79.5248 283.9601,-81.0328 293.0985,-86.3937 294.447,-79.5248"/>
</g>
<!-- Node37&#45;&gt;Node34 -->
<g id="edge70" class="edge">
<title>Node37&#45;&gt;Node34</title>
<path fill="none" stroke="#191970" d="M750.5498,-128.9258C740.3426,-126.8896 729.5657,-124.8098 719.5,-123 634.0647,-107.6387 535.5509,-92.3692 469.5835,-82.4943"/>
<polygon fill="#191970" stroke="#191970" points="470.0949,-79.032 459.6877,-81.0169 469.0613,-85.9552 470.0949,-79.032"/>
</g>
<!-- Node38 -->
<g id="node39" class="node">
<title>Node38</title>
<polygon fill="#ffffff" stroke="#bfbfbf" points="661,-62 661,-81 774,-81 774,-62 661,-62"/>
<text text-anchor="middle" x="717.5" y="-69" font-family="Helvetica,sans-Serif" font-size="10.00" fill="#000000">AMReX_Geometry.H</text>
</g>
<!-- Node37&#45;&gt;Node38 -->
<g id="edge72" class="edge">
<title>Node37&#45;&gt;Node38</title>
<path fill="none" stroke="#191970" d="M785.1812,-128.9005C772.5099,-118.1539 751.7652,-100.5603 736.5773,-87.6794"/>
<polygon fill="#191970" stroke="#191970" points="738.6882,-84.8805 728.7978,-81.0817 734.1605,-90.2191 738.6882,-84.8805"/>
</g>
</g>
</svg>
        <g id="navigator" transform="translate(0 0)" fill="#404254">
                <rect fill="#f2f5e9" fill-opacity="0.5" stroke="#606060" stroke-width=".5" x="0" y="0" width="60" height="60"/>
                <use id="zoomplus" xlink:href="#zoomPlus" x="17" y="9" onmousedown="handleZoom(evt,'in')"/>
                <use id="zoomminus" xlink:href="#zoomMin" x="42" y="9" onmousedown="handleZoom(evt,'out')"/>
                <use id="reset" xlink:href="#resetDef" x="30" y="36" onmousedown="handleReset()"/>
                <g id="arrowUp" xlink:href="#dirArrow" transform="translate(30 24)" onmousedown="handlePan(0,-1)">
                  <use xlink:href="#rim" fill="#404040">
                        <set attributeName="fill" to="#808080" begin="arrowUp.mouseover" end="arrowUp.mouseout"/>
                  </use>
                  <path fill="none" stroke="white" stroke-width="1.5" d="M0,-3.0v7 M-2.5,-0.5L0,-3.0L2.5,-0.5"/>
                </g>
                <g id="arrowRight" xlink:href="#dirArrow" transform="rotate(90) translate(36 -43)" onmousedown="handlePan(1,0)">
                  <use xlink:href="#rim" fill="#404040">
                        <set attributeName="fill" to="#808080" begin="arrowRight.mouseover" end="arrowRight.mouseout"/>
                  </use>
                  <path fill="none" stroke="white" stroke-width="1.5" d="M0,-3.0v7 M-2.5,-0.5L0,-3.0L2.5,-0.5"/>
                </g>
                <g id="arrowDown" xlink:href="#dirArrow" transform="rotate(180) translate(-30 -48)" onmousedown="handlePan(0,1)">
                  <use xlink:href="#rim" fill="#404040">
                        <set attributeName="fill" to="#808080" begin="arrowDown.mouseover" end="arrowDown.mouseout"/>
                  </use>
                  <path fill="none" stroke="white" stroke-width="1.5" d="M0,-3.0v7 M-2.5,-0.5L0,-3.0L2.5,-0.5"/>
                </g>
                <g id="arrowLeft" xlink:href="#dirArrow" transform="rotate(270) translate(-36 17)" onmousedown="handlePan(-1,0)">
                  <use xlink:href="#rim" fill="#404040">
                        <set attributeName="fill" to="#808080" begin="arrowLeft.mouseover" end="arrowLeft.mouseout"/>
                  </use>
                  <path fill="none" stroke="white" stroke-width="1.5" d="M0,-3.0v7 M-2.5,-0.5L0,-3.0L2.5,-0.5"/>
                </g>
        </g>
        <svg viewBox="0 0 15 15" width="100%" height="30px" preserveAspectRatio="xMaxYMin meet">
         <g id="arrow_out" transform="scale(0.3 0.3)">
          <a xlink:href="_second_moment_averaging_8_h__incl_org.svg" target="_base">
           <rect id="button" ry="5" rx="5" y="6" x="6" height="38" width="38"
                fill="#f2f5e9" fill-opacity="0.5" stroke="#606060" stroke-width="1.0"/>
           <path id="arrow"
             d="M 11.500037,31.436501 C 11.940474,20.09759 22.043105,11.32322 32.158766,21.979434 L 37.068811,17.246167 C 37.068811,17.246167 37.088388,32 37.088388,32 L 22.160133,31.978069 C 22.160133,31.978069 26.997745,27.140456 26.997745,27.140456 C 18.528582,18.264221 13.291696,25.230495 11.500037,31.436501 z"
             style="fill:#404040;"/>
          </a>
         </g>
        </svg>
</svg>
