<?xml version="1.0" encoding="UTF-8" standalone="no"?>
<!DOCTYPE svg PUBLIC "-//W3C//DTD SVG 1.1//EN"
 "http://www.w3.org/Graphics/SVG/1.1/DTD/svg11.dtd">
<!-- Generated by graphviz version 2.40.1 (20161225.0304)
 -->
<!-- Title: SecondMomentAveraging.H Pages: 1 -->
<svg width="877pt" height="207pt"
 viewBox="0.00 0.00 877.00 207.00" xmlns="http://www.w3.org/2000/svg" xmlns:xlink="http://www.w3.org/1999/xlink">
<g id="graph0" class="graph" transform="scale(1 1) rotate(0) translate(4 203)">
<title>SecondMomentAveraging.H</title>
<polygon fill="#ffffff" stroke="transparent" points="-4,4 -4,-203 873,-203 873,4 -4,4"/>
<!-- Node39 -->
<g id="node1" class="node">
<title>Node39</title>
<polygon fill="#bfbfbf" stroke="#000000" points="604,-179.5 604,-198.5 755,-198.5 755,-179.5 604,-179.5"/>
<text text-anchor="middle" x="679.5" y="-186.5" font-family="Helvetica,sans-Serif" font-size="10.00" fill="#000000">SecondMomentAveraging.H</text>
</g>
<!-- Node40 -->
<g id="node2" class="node">
<title>Node40</title>
<g id="a_node2"><a xlink:href="_a_b_l_stats_8_h.html" target="_top" xlink:title="ABLStats.H">
<polygon fill="#ffffff" stroke="#000000" points="552,-123.5 552,-142.5 623,-142.5 623,-123.5 552,-123.5"/>
<text text-anchor="middle" x="587.5" y="-130.5" font-family="Helvetica,sans-Serif" font-size="10.00" fill="#000000">ABLStats.H</text>
</a>
</g>
</g>
<!-- Node39&#45;&gt;Node40 -->
<g id="edge1" class="edge">
<title>Node39&#45;&gt;Node40</title>
<path fill="none" stroke="#191970" d="M654.4776,-173.769C638.175,-163.8456 617.399,-151.1994 603.3415,-142.6427"/>
<polygon fill="#191970" stroke="#191970" points="653.113,-177.0357 663.4748,-179.2455 656.7527,-171.0563 653.113,-177.0357"/>
</g>
<!-- Node47 -->
<g id="node9" class="node">
<title>Node47</title>
<g id="a_node9"><a xlink:href="_a_b_l_8cpp.html" target="_top" xlink:title="ABL.cpp">
<polygon fill="#ffffff" stroke="#000000" points="675.5,-6 675.5,-25 731.5,-25 731.5,-6 675.5,-6"/>
<text text-anchor="middle" x="703.5" y="-13" font-family="Helvetica,sans-Serif" font-size="10.00" fill="#000000">ABL.cpp</text>
</a>
</g>
</g>
<!-- Node39&#45;&gt;Node47 -->
<g id="edge12" class="edge">
<title>Node39&#45;&gt;Node47</title>
<path fill="none" stroke="#191970" d="M682.2178,-169.3528C687.3564,-132.2047 698.3243,-52.9161 702.15,-25.2595"/>
<polygon fill="#191970" stroke="#191970" points="678.7279,-169.0395 680.8245,-179.4248 685.6618,-169.9987 678.7279,-169.0395"/>
</g>
<!-- Node50 -->
<g id="node12" class="node">
<title>Node50</title>
<g id="a_node12"><a xlink:href="_second_moment_averaging_8cpp.html" target="_top" xlink:title="SecondMomentAveraging.cpp">
<polygon fill="#ffffff" stroke="#000000" points="708,-123.5 708,-142.5 869,-142.5 869,-123.5 708,-123.5"/>
<text text-anchor="middle" x="788.5" y="-130.5" font-family="Helvetica,sans-Serif" font-size="10.00" fill="#000000">SecondMomentAveraging.cpp</text>
</a>
</g>
</g>
<!-- Node39&#45;&gt;Node50 -->
<g id="edge11" class="edge">
<title>Node39&#45;&gt;Node50</title>
<path fill="none" stroke="#191970" d="M707.5342,-174.5971C727.0746,-164.558 752.6092,-151.4393 769.7312,-142.6427"/>
<polygon fill="#191970" stroke="#191970" points="705.7817,-171.5625 698.4864,-179.2455 708.9806,-177.7889 705.7817,-171.5625"/>
</g>
<!-- Node41 -->
<g id="node3" class="node">
<title>Node41</title>
<g id="a_node3"><a xlink:href="_a_b_l_8_h.html" target="_top" xlink:title="ABL.H">
<polygon fill="#ffffff" stroke="#000000" points="435.5,-67.5 435.5,-86.5 481.5,-86.5 481.5,-67.5 435.5,-67.5"/>
<text text-anchor="middle" x="458.5" y="-74.5" font-family="Helvetica,sans-Serif" font-size="10.00" fill="#000000">ABL.H</text>
</a>
</g>
</g>
<!-- Node40&#45;&gt;Node41 -->
<g id="edge2" class="edge">
<title>Node40&#45;&gt;Node41</title>
<path fill="none" stroke="#191970" d="M556.1329,-119.3833C532.6716,-109.1985 501.1815,-95.5284 480.3865,-86.5011"/>
<polygon fill="#191970" stroke="#191970" points="554.7574,-122.6017 565.3241,-123.3733 557.5449,-116.1806 554.7574,-122.6017"/>
</g>
<!-- Node49 -->
<g id="node11" class="node">
<title>Node49</title>
<g id="a_node11"><a xlink:href="_a_b_l_stats_8cpp.html" target="_top" xlink:title="ABLStats.cpp">
<polygon fill="#ffffff" stroke="#000000" points="547.5,-67.5 547.5,-86.5 627.5,-86.5 627.5,-67.5 547.5,-67.5"/>
<text text-anchor="middle" x="587.5" y="-74.5" font-family="Helvetica,sans-Serif" font-size="10.00" fill="#000000">ABLStats.cpp</text>
</a>
</g>
</g>
<!-- Node40&#45;&gt;Node49 -->
<g id="edge10" class="edge">
<title>Node40&#45;&gt;Node49</title>
<path fill="none" stroke="#191970" d="M587.5,-113.1575C587.5,-104.155 587.5,-93.9199 587.5,-86.6427"/>
<polygon fill="#191970" stroke="#191970" points="584.0001,-113.2455 587.5,-123.2455 591.0001,-113.2456 584.0001,-113.2455"/>
</g>
<!-- Node42 -->
<g id="node4" class="node">
<title>Node42</title>
<g id="a_node4"><a xlink:href="incflo__set__velocity__bcs_8cpp.html" target="_top" xlink:title="incflo_set_velocity\l_bcs.cpp">
<polygon fill="#ffffff" stroke="#000000" points="0,-.5 0,-30.5 107,-30.5 107,-.5 0,-.5"/>
<text text-anchor="start" x="8" y="-18.5" font-family="Helvetica,sans-Serif" font-size="10.00" fill="#000000">incflo_set_velocity</text>
<text text-anchor="middle" x="53.5" y="-7.5" font-family="Helvetica,sans-Serif" font-size="10.00" fill="#000000">_bcs.cpp</text>
</a>
</g>
</g>
<!-- Node41&#45;&gt;Node42 -->
<g id="edge3" class="edge">
<title>Node41&#45;&gt;Node42</title>
<path fill="none" stroke="#191970" d="M425.2189,-73.7853C363.7112,-67.5678 228.2273,-52.58 115.5,-31 112.7757,-30.4785 109.9922,-29.911 107.187,-29.3115"/>
<polygon fill="#191970" stroke="#191970" points="425.1786,-77.2986 435.477,-74.8099 425.8744,-70.3332 425.1786,-77.2986"/>
</g>
<!-- Node43 -->
<g id="node5" class="node">
<title>Node43</title>
<g id="a_node5"><a xlink:href="_a_b_l_forcing_8cpp.html" target="_top" xlink:title="ABLForcing.cpp">
<polygon fill="#ffffff" stroke="#000000" points="125,-6 125,-25 216,-25 216,-6 125,-6"/>
<text text-anchor="middle" x="170.5" y="-13" font-family="Helvetica,sans-Serif" font-size="10.00" fill="#000000">ABLForcing.cpp</text>
</a>
</g>
</g>
<!-- Node41&#45;&gt;Node43 -->
<g id="edge4" class="edge">
<title>Node41&#45;&gt;Node43</title>
<path fill="none" stroke="#191970" d="M425.548,-71.438C380.0739,-63.5546 295.6299,-48.1667 224.5,-31 217.1994,-29.238 209.4052,-27.1337 202.0748,-25.0524"/>
<polygon fill="#191970" stroke="#191970" points="424.9917,-74.8936 435.4405,-73.1409 426.1793,-67.9951 424.9917,-74.8936"/>
</g>
<!-- Node44 -->
<g id="node6" class="node">
<title>Node44</title>
<g id="a_node6"><a xlink:href="_a_b_l_mean_boussinesq_8cpp.html" target="_top" xlink:title="ABLMeanBoussinesq.cpp">
<polygon fill="#ffffff" stroke="#000000" points="234,-6 234,-25 371,-25 371,-6 234,-6"/>
<text text-anchor="middle" x="302.5" y="-13" font-family="Helvetica,sans-Serif" font-size="10.00" fill="#000000">ABLMeanBoussinesq.cpp</text>
</a>
</g>
</g>
<!-- Node41&#45;&gt;Node44 -->
<g id="edge5" class="edge">
<title>Node41&#45;&gt;Node44</title>
<path fill="none" stroke="#191970" d="M425.9963,-64.186C396.3781,-52.5097 353.3042,-35.5286 326.6398,-25.0166"/>
<polygon fill="#191970" stroke="#191970" points="424.8948,-67.5139 435.4817,-67.9255 427.4622,-61.0017 424.8948,-67.5139"/>
</g>
<!-- Node45 -->
<g id="node7" class="node">
<title>Node45</title>
<g id="a_node7"><a xlink:href="incflo_8cpp.html" target="_top" xlink:title="incflo.cpp">
<polygon fill="#ffffff" stroke="#000000" points="389,-6 389,-25 452,-25 452,-6 389,-6"/>
<text text-anchor="middle" x="420.5" y="-13" font-family="Helvetica,sans-Serif" font-size="10.00" fill="#000000">incflo.cpp</text>
</a>
</g>
</g>
<!-- Node41&#45;&gt;Node45 -->
<g id="edge6" class="edge">
<title>Node41&#45;&gt;Node45</title>
<path fill="none" stroke="#191970" d="M447.1221,-58.5857C440.3539,-47.632 432.0389,-34.1748 426.5212,-25.2449"/>
<polygon fill="#191970" stroke="#191970" points="444.3286,-60.7233 452.5625,-67.3906 450.2835,-57.0438 444.3286,-60.7233"/>
</g>
<!-- Node46 -->
<g id="node8" class="node">
<title>Node46</title>
<g id="a_node8"><a xlink:href="init_8cpp.html" target="_top" xlink:title="init.cpp">
<polygon fill="#ffffff" stroke="#000000" points="470,-6 470,-25 523,-25 523,-6 470,-6"/>
<text text-anchor="middle" x="496.5" y="-13" font-family="Helvetica,sans-Serif" font-size="10.00" fill="#000000">init.cpp</text>
</a>
</g>
</g>
<!-- Node41&#45;&gt;Node46 -->
<g id="edge7" class="edge">
<title>Node41&#45;&gt;Node46</title>
<path fill="none" stroke="#191970" d="M469.8779,-58.5857C476.6461,-47.632 484.9611,-34.1748 490.4788,-25.2449"/>
<polygon fill="#191970" stroke="#191970" points="466.7165,-57.0438 464.4375,-67.3906 472.6714,-60.7233 466.7165,-57.0438"/>
</g>
<!-- Node41&#45;&gt;Node47 -->
<g id="edge8" class="edge">
<title>Node41&#45;&gt;Node47</title>
<path fill="none" stroke="#191970" d="M491.7169,-71.5501C533.1833,-64.3162 606.019,-50.1858 666.5,-31 671.8108,-29.3153 677.4156,-27.1699 682.6121,-25.0162"/>
<polygon fill="#191970" stroke="#191970" points="490.8939,-68.1401 481.6301,-73.2812 492.078,-75.0392 490.8939,-68.1401"/>
</g>
<!-- Node48 -->
<g id="node10" class="node">
<title>Node48</title>
<g id="a_node10"><a xlink:href="_a_b_l_wall_function_8cpp.html" target="_top" xlink:title="ABLWallFunction.cpp">
<polygon fill="#ffffff" stroke="#000000" points="541.5,-6 541.5,-25 657.5,-25 657.5,-6 541.5,-6"/>
<text text-anchor="middle" x="599.5" y="-13" font-family="Helvetica,sans-Serif" font-size="10.00" fill="#000000">ABLWallFunction.cpp</text>
</a>
</g>
</g>
<!-- Node41&#45;&gt;Node48 -->
<g id="edge9" class="edge">
<title>Node41&#45;&gt;Node48</title>
<path fill="none" stroke="#191970" d="M489.8116,-63.3428C516.4729,-51.7139 554.0931,-35.3051 577.6235,-25.0419"/>
<polygon fill="#191970" stroke="#191970" points="488.298,-60.1845 480.5313,-67.3906 491.0966,-66.6007 488.298,-60.1845"/>
</g>
</g>
</svg>
