<?xml version="1.0" encoding="UTF-8" standalone="no"?>
<!DOCTYPE svg PUBLIC "-//W3C//DTD SVG 1.1//EN"
 "http://www.w3.org/Graphics/SVG/1.1/DTD/svg11.dtd">
<!-- Generated by graphviz version 2.40.1 (20161225.0304)
 -->
<!-- Title: SplitAdvection.H Pages: 1 -->
<svg width="230pt" height="140pt"
 viewBox="0.00 0.00 229.50 140.00" xmlns="http://www.w3.org/2000/svg" xmlns:xlink="http://www.w3.org/1999/xlink">
<g id="graph0" class="graph" transform="scale(1 1) rotate(0) translate(4 136)">
<title>SplitAdvection.H</title>
<polygon fill="#ffffff" stroke="transparent" points="-4,4 -4,-136 225.5,-136 225.5,4 -4,4"/>
<!-- Node21 -->
<g id="node1" class="node">
<title>Node21</title>
<polygon fill="#bfbfbf" stroke="#000000" points="64.5,-112.5 64.5,-131.5 162.5,-131.5 162.5,-112.5 64.5,-112.5"/>
<text text-anchor="middle" x="113.5" y="-119.5" font-family="Helvetica,sans-Serif" font-size="10.00" fill="#000000">SplitAdvection.H</text>
</g>
<!-- Node22 -->
<g id="node2" class="node">
<title>Node22</title>
<g id="a_node2"><a xlink:href="_split_advection_8cpp.html" target="_top" xlink:title="SplitAdvection.cpp">
<polygon fill="#ffffff" stroke="#000000" points="0,-56.5 0,-75.5 107,-75.5 107,-56.5 0,-56.5"/>
<text text-anchor="middle" x="53.5" y="-63.5" font-family="Helvetica,sans-Serif" font-size="10.00" fill="#000000">SplitAdvection.cpp</text>
</a>
</g>
</g>
<!-- Node21&#45;&gt;Node22 -->
<g id="edge1" class="edge">
<title>Node21&#45;&gt;Node22</title>
<path fill="none" stroke="#191970" d="M95.6722,-105.3607C85.2922,-95.6727 72.5709,-83.7995 63.8314,-75.6427"/>
<polygon fill="#191970" stroke="#191970" points="93.3501,-107.981 103.0488,-112.2455 98.1263,-102.8636 93.3501,-107.981"/>
</g>
<!-- Node23 -->
<g id="node3" class="node">
<title>Node23</title>
<g id="a_node3"><a xlink:href="vof__advection_8_h.html" target="_top" xlink:title="vof_advection.H">
<polygon fill="#ffffff" stroke="#000000" points="125.5,-56.5 125.5,-75.5 221.5,-75.5 221.5,-56.5 125.5,-56.5"/>
<text text-anchor="middle" x="173.5" y="-63.5" font-family="Helvetica,sans-Serif" font-size="10.00" fill="#000000">vof_advection.H</text>
</a>
</g>
</g>
<!-- Node21&#45;&gt;Node23 -->
<g id="edge2" class="edge">
<title>Node21&#45;&gt;Node23</title>
<path fill="none" stroke="#191970" d="M131.3278,-105.3607C141.7078,-95.6727 154.4291,-83.7995 163.1686,-75.6427"/>
<polygon fill="#191970" stroke="#191970" points="128.8737,-102.8636 123.9512,-112.2455 133.6499,-107.981 128.8737,-102.8636"/>
</g>
<!-- Node24 -->
<g id="node4" class="node">
<title>Node24</title>
<g id="a_node4"><a xlink:href="vof_8cpp.html" target="_top" xlink:title="vof.cpp">
<polygon fill="#ffffff" stroke="#000000" points="147.5,-.5 147.5,-19.5 199.5,-19.5 199.5,-.5 147.5,-.5"/>
<text text-anchor="middle" x="173.5" y="-7.5" font-family="Helvetica,sans-Serif" font-size="10.00" fill="#000000">vof.cpp</text>
</a>
</g>
</g>
<!-- Node23&#45;&gt;Node24 -->
<g id="edge3" class="edge">
<title>Node23&#45;&gt;Node24</title>
<path fill="none" stroke="#191970" d="M173.5,-46.1575C173.5,-37.155 173.5,-26.9199 173.5,-19.6427"/>
<polygon fill="#191970" stroke="#191970" points="170.0001,-46.2455 173.5,-56.2455 177.0001,-46.2456 170.0001,-46.2455"/>
</g>
</g>
</svg>
