<?xml version="1.0" encoding="UTF-8" standalone="no"?>
<!DOCTYPE svg PUBLIC "-//W3C//DTD SVG 1.1//EN"
 "http://www.w3.org/Graphics/SVG/1.1/DTD/svg11.dtd">
<!-- Generated by graphviz version 2.40.1 (20161225.0304)
 -->
<!-- Title: TKE.H Pages: 1 -->
<svg width="441pt" height="140pt"
 viewBox="0.00 0.00 441.00 140.00" xmlns="http://www.w3.org/2000/svg" xmlns:xlink="http://www.w3.org/1999/xlink">
<g id="graph0" class="graph" transform="scale(1 1) rotate(0) translate(4 136)">
<title>TKE.H</title>
<polygon fill="#ffffff" stroke="transparent" points="-4,4 -4,-136 437,-136 437,4 -4,4"/>
<!-- Node61 -->
<g id="node1" class="node">
<title>Node61</title>
<polygon fill="#bfbfbf" stroke="#000000" points="169,-112.5 169,-131.5 215,-131.5 215,-112.5 169,-112.5"/>
<text text-anchor="middle" x="192" y="-119.5" font-family="Helvetica,sans-Serif" font-size="10.00" fill="#000000">TKE.H</text>
</g>
<!-- Node62 -->
<g id="node2" class="node">
<title>Node62</title>
<g id="a_node2"><a xlink:href="_t_k_e_8cpp.html" target="_top" xlink:title="TKE.cpp">
<polygon fill="#ffffff" stroke="#000000" points="0,-.5 0,-19.5 56,-19.5 56,-.5 0,-.5"/>
<text text-anchor="middle" x="28" y="-7.5" font-family="Helvetica,sans-Serif" font-size="10.00" fill="#000000">TKE.cpp</text>
</a>
</g>
</g>
<!-- Node61&#45;&gt;Node62 -->
<g id="edge1" class="edge">
<title>Node61&#45;&gt;Node62</title>
<path fill="none" stroke="#191970" d="M158.8974,-118.1436C112.8977,-112.026 33.3259,-98.4363 16,-76 3.1873,-59.4082 14.3251,-33.5192 22.0674,-19.61"/>
<polygon fill="#191970" stroke="#191970" points="158.6265,-121.6374 168.9905,-119.4378 159.5169,-114.6942 158.6265,-121.6374"/>
</g>
<!-- Node63 -->
<g id="node3" class="node">
<title>Node63</title>
<g id="a_node3"><a xlink:href="tke__ops_8_h.html" target="_top" xlink:title="tke_ops.H">
<polygon fill="#ffffff" stroke="#000000" points="25.5,-56.5 25.5,-75.5 90.5,-75.5 90.5,-56.5 25.5,-56.5"/>
<text text-anchor="middle" x="58" y="-63.5" font-family="Helvetica,sans-Serif" font-size="10.00" fill="#000000">tke_ops.H</text>
</a>
</g>
</g>
<!-- Node61&#45;&gt;Node63 -->
<g id="edge2" class="edge">
<title>Node61&#45;&gt;Node63</title>
<path fill="none" stroke="#191970" d="M159.4172,-108.3833C135.0464,-98.1985 102.3358,-84.5284 80.7348,-75.5011"/>
<polygon fill="#191970" stroke="#191970" points="158.3883,-111.7466 168.9646,-112.3733 161.0875,-105.2879 158.3883,-111.7466"/>
</g>
<!-- Node64 -->
<g id="node4" class="node">
<title>Node64</title>
<g id="a_node4"><a xlink:href="_one_eq_ksgs_8cpp.html" target="_top" xlink:title="OneEqKsgs.cpp">
<polygon fill="#ffffff" stroke="#000000" points="109,-56.5 109,-75.5 201,-75.5 201,-56.5 109,-56.5"/>
<text text-anchor="middle" x="155" y="-63.5" font-family="Helvetica,sans-Serif" font-size="10.00" fill="#000000">OneEqKsgs.cpp</text>
</a>
</g>
</g>
<!-- Node61&#45;&gt;Node64 -->
<g id="edge4" class="edge">
<title>Node61&#45;&gt;Node64</title>
<path fill="none" stroke="#191970" d="M179.8624,-103.6296C173.6907,-94.2887 166.4434,-83.3197 161.3711,-75.6427"/>
<polygon fill="#191970" stroke="#191970" points="177.1223,-105.8316 185.5551,-112.2455 182.9627,-101.9728 177.1223,-105.8316"/>
</g>
<!-- Node65 -->
<g id="node5" class="node">
<title>Node65</title>
<g id="a_node5"><a xlink:href="_k_omega_s_s_t_i_8_h.html" target="_top" xlink:title="KOmegaSSTI.H">
<polygon fill="#ffffff" stroke="#000000" points="257.5,-56.5 257.5,-75.5 346.5,-75.5 346.5,-56.5 257.5,-56.5"/>
<text text-anchor="middle" x="302" y="-63.5" font-family="Helvetica,sans-Serif" font-size="10.00" fill="#000000">KOmegaSSTI.H</text>
</a>
</g>
</g>
<!-- Node61&#45;&gt;Node65 -->
<g id="edge5" class="edge">
<title>Node61&#45;&gt;Node65</title>
<path fill="none" stroke="#191970" d="M220.2914,-107.5971C240.0111,-97.558 265.78,-84.4393 283.059,-75.6427"/>
<polygon fill="#191970" stroke="#191970" points="218.4843,-104.5896 211.1605,-112.2455 221.6601,-110.8277 218.4843,-104.5896"/>
</g>
<!-- Node66 -->
<g id="node6" class="node">
<title>Node66</title>
<g id="a_node6"><a xlink:href="_k_omega_s_s_t_8cpp.html" target="_top" xlink:title="KOmegaSST.cpp">
<polygon fill="#ffffff" stroke="#000000" points="185.5,-.5 185.5,-19.5 280.5,-19.5 280.5,-.5 185.5,-.5"/>
<text text-anchor="middle" x="233" y="-7.5" font-family="Helvetica,sans-Serif" font-size="10.00" fill="#000000">KOmegaSST.cpp</text>
</a>
</g>
</g>
<!-- Node61&#45;&gt;Node66 -->
<g id="edge8" class="edge">
<title>Node61&#45;&gt;Node66</title>
<path fill="none" stroke="#191970" d="M199.7214,-102.7438C202.9666,-94.5299 206.7378,-84.8228 210,-76 217.3221,-56.1969 225.3162,-32.8233 229.6861,-19.8813"/>
<polygon fill="#191970" stroke="#191970" points="196.4157,-101.585 195.9702,-112.1705 202.9196,-104.1732 196.4157,-101.585"/>
</g>
<!-- Node67 -->
<g id="node7" class="node">
<title>Node67</title>
<g id="a_node7"><a xlink:href="_k_omega_s_s_t_i_d_d_e_s_8cpp.html" target="_top" xlink:title="KOmegaSSTIDDES.cpp">
<polygon fill="#ffffff" stroke="#000000" points="307,-.5 307,-19.5 433,-19.5 433,-.5 307,-.5"/>
<text text-anchor="middle" x="370" y="-7.5" font-family="Helvetica,sans-Serif" font-size="10.00" fill="#000000">KOmegaSSTIDDES.cpp</text>
</a>
</g>
</g>
<!-- Node61&#45;&gt;Node67 -->
<g id="edge9" class="edge">
<title>Node61&#45;&gt;Node67</title>
<path fill="none" stroke="#191970" d="M225.1661,-116.8339C267.7405,-109.5285 338.2494,-94.9329 356,-76 370.4206,-60.6189 371.4836,-34.2381 370.8438,-19.9301"/>
<polygon fill="#191970" stroke="#191970" points="224.5364,-113.3905 215.2499,-118.4906 225.69,-120.2948 224.5364,-113.3905"/>
</g>
<!-- Node63&#45;&gt;Node62 -->
<g id="edge3" class="edge">
<title>Node63&#45;&gt;Node62</title>
<path fill="none" stroke="#191970" d="M48.002,-47.3372C43.0324,-38.0605 37.2356,-27.2398 33.1657,-19.6427"/>
<polygon fill="#191970" stroke="#191970" points="44.9669,-49.0835 52.7744,-56.2455 51.1373,-45.7779 44.9669,-49.0835"/>
</g>
<!-- Node65&#45;&gt;Node66 -->
<g id="edge6" class="edge">
<title>Node65&#45;&gt;Node66</title>
<path fill="none" stroke="#191970" d="M282.197,-49.928C270.1364,-40.1397 255.1286,-27.9595 244.8812,-19.6427"/>
<polygon fill="#191970" stroke="#191970" points="280.0109,-52.6614 289.9811,-56.2455 284.4221,-47.2262 280.0109,-52.6614"/>
</g>
<!-- Node65&#45;&gt;Node67 -->
<g id="edge7" class="edge">
<title>Node65&#45;&gt;Node67</title>
<path fill="none" stroke="#191970" d="M321.8596,-49.645C333.6858,-39.9058 348.2892,-27.8795 358.291,-19.6427"/>
<polygon fill="#191970" stroke="#191970" points="319.339,-47.1867 313.8447,-56.2455 323.789,-52.5902 319.339,-47.1867"/>
</g>
</g>
</svg>
