<?xml version="1.0" encoding="UTF-8" standalone="no"?>
<!DOCTYPE svg PUBLIC "-//W3C//DTD SVG 1.1//EN"
 "http://www.w3.org/Graphics/SVG/1.1/DTD/svg11.dtd">
<!-- Generated by graphviz version 2.40.1 (20161225.0304)
 -->
<!-- Title: TiogaInterface.H Pages: 1 -->
<svg width="458pt" height="207pt"
 viewBox="0.00 0.00 458.00 207.00" xmlns="http://www.w3.org/2000/svg" xmlns:xlink="http://www.w3.org/1999/xlink">
<g id="graph0" class="graph" transform="scale(1 1) rotate(0) translate(4 203)">
<title>TiogaInterface.H</title>
<polygon fill="#ffffff" stroke="transparent" points="-4,4 -4,-203 454,-203 454,4 -4,4"/>
<!-- Node0 -->
<g id="node1" class="node">
<title>Node0</title>
<polygon fill="#bfbfbf" stroke="#000000" points="169,-179.5 169,-198.5 267,-198.5 267,-179.5 169,-179.5"/>
<text text-anchor="middle" x="218" y="-186.5" font-family="Helvetica,sans-Serif" font-size="10.00" fill="#000000">TiogaInterface.H</text>
</g>
<!-- Node1 -->
<g id="node2" class="node">
<title>Node1</title>
<polygon fill="#ffffff" stroke="#bfbfbf" points="81.5,-118 81.5,-137 128.5,-137 128.5,-118 81.5,-118"/>
<text text-anchor="middle" x="105" y="-125" font-family="Helvetica,sans-Serif" font-size="10.00" fill="#000000">vector</text>
</g>
<!-- Node0&#45;&gt;Node1 -->
<g id="edge1" class="edge">
<title>Node0&#45;&gt;Node1</title>
<path fill="none" stroke="#191970" d="M200.3438,-179.3906C181.8514,-169.3262 152.599,-153.4057 131.3692,-141.8514"/>
<polygon fill="#191970" stroke="#191970" points="132.9888,-138.7481 122.5323,-137.0419 129.6425,-144.8965 132.9888,-138.7481"/>
</g>
<!-- Node2 -->
<g id="node3" class="node">
<title>Node2</title>
<g id="a_node3"><a xlink:href="_overset_manager_8_h.html" target="_top" xlink:title="amr&#45;wind/overset/Overset\lManager.H">
<polygon fill="#ffffff" stroke="#000000" points="146.5,-112.5 146.5,-142.5 289.5,-142.5 289.5,-112.5 146.5,-112.5"/>
<text text-anchor="start" x="154.5" y="-130.5" font-family="Helvetica,sans-Serif" font-size="10.00" fill="#000000">amr&#45;wind/overset/Overset</text>
<text text-anchor="middle" x="218" y="-119.5" font-family="Helvetica,sans-Serif" font-size="10.00" fill="#000000">Manager.H</text>
</a>
</g>
</g>
<!-- Node0&#45;&gt;Node2 -->
<g id="edge2" class="edge">
<title>Node0&#45;&gt;Node2</title>
<path fill="none" stroke="#191970" d="M218,-179.3906C218,-172.2234 218,-162.0862 218,-152.671"/>
<polygon fill="#191970" stroke="#191970" points="221.5001,-152.5446 218,-142.5446 214.5001,-152.5446 221.5001,-152.5446"/>
</g>
<!-- Node9 -->
<g id="node10" class="node">
<title>Node9</title>
<g id="a_node10"><a xlink:href="overset__types_8_h.html" target="_top" xlink:title="amr&#45;wind/overset/overset\l_types.H">
<polygon fill="#ffffff" stroke="#000000" points="308,-112.5 308,-142.5 450,-142.5 450,-112.5 308,-112.5"/>
<text text-anchor="start" x="316" y="-130.5" font-family="Helvetica,sans-Serif" font-size="10.00" fill="#000000">amr&#45;wind/overset/overset</text>
<text text-anchor="middle" x="379" y="-119.5" font-family="Helvetica,sans-Serif" font-size="10.00" fill="#000000">_types.H</text>
</a>
</g>
</g>
<!-- Node0&#45;&gt;Node9 -->
<g id="edge9" class="edge">
<title>Node0&#45;&gt;Node9</title>
<path fill="none" stroke="#191970" d="M243.1563,-179.3906C266.3579,-170.5279 301.4479,-157.1239 330.1518,-146.1594"/>
<polygon fill="#191970" stroke="#191970" points="331.5223,-149.3826 339.615,-142.5446 329.0243,-142.8435 331.5223,-149.3826"/>
</g>
<!-- Node3 -->
<g id="node4" class="node">
<title>Node3</title>
<g id="a_node4"><a xlink:href="_factory_8_h.html" target="_top" xlink:title="amr&#45;wind/core/Factory.H">
<polygon fill="#ffffff" stroke="#000000" points="151,-56.5 151,-75.5 285,-75.5 285,-56.5 151,-56.5"/>
<text text-anchor="middle" x="218" y="-63.5" font-family="Helvetica,sans-Serif" font-size="10.00" fill="#000000">amr&#45;wind/core/Factory.H</text>
</a>
</g>
</g>
<!-- Node2&#45;&gt;Node3 -->
<g id="edge3" class="edge">
<title>Node2&#45;&gt;Node3</title>
<path fill="none" stroke="#191970" d="M218,-112.2977C218,-104.3834 218,-94.6043 218,-86.0759"/>
<polygon fill="#191970" stroke="#191970" points="221.5001,-85.8469 218,-75.8469 214.5001,-85.847 221.5001,-85.8469"/>
</g>
<!-- Node4 -->
<g id="node5" class="node">
<title>Node4</title>
<polygon fill="#ffffff" stroke="#bfbfbf" points="0,-.5 0,-19.5 58,-19.5 58,-.5 0,-.5"/>
<text text-anchor="middle" x="29" y="-7.5" font-family="Helvetica,sans-Serif" font-size="10.00" fill="#000000">memory</text>
</g>
<!-- Node3&#45;&gt;Node4 -->
<g id="edge4" class="edge">
<title>Node3&#45;&gt;Node4</title>
<path fill="none" stroke="#191970" d="M185.5097,-56.3733C152.9453,-46.7245 102.7918,-31.8642 68.0743,-21.5776"/>
<polygon fill="#191970" stroke="#191970" points="68.8585,-18.1596 58.2762,-18.6744 66.8698,-24.8712 68.8585,-18.1596"/>
</g>
<!-- Node5 -->
<g id="node6" class="node">
<title>Node5</title>
<polygon fill="#ffffff" stroke="#bfbfbf" points="76.5,-.5 76.5,-19.5 169.5,-19.5 169.5,-.5 76.5,-.5"/>
<text text-anchor="middle" x="123" y="-7.5" font-family="Helvetica,sans-Serif" font-size="10.00" fill="#000000">unordered_map</text>
</g>
<!-- Node3&#45;&gt;Node5 -->
<g id="edge5" class="edge">
<title>Node3&#45;&gt;Node5</title>
<path fill="none" stroke="#191970" d="M201.4523,-56.2455C186.7401,-47.5731 165.0112,-34.7645 148.1495,-24.825"/>
<polygon fill="#191970" stroke="#191970" points="149.7502,-21.7057 139.3581,-19.6427 146.1954,-27.736 149.7502,-21.7057"/>
</g>
<!-- Node6 -->
<g id="node7" class="node">
<title>Node6</title>
<polygon fill="#ffffff" stroke="#bfbfbf" points="188,-.5 188,-19.5 248,-19.5 248,-.5 188,-.5"/>
<text text-anchor="middle" x="218" y="-7.5" font-family="Helvetica,sans-Serif" font-size="10.00" fill="#000000">iostream</text>
</g>
<!-- Node3&#45;&gt;Node6 -->
<g id="edge6" class="edge">
<title>Node3&#45;&gt;Node6</title>
<path fill="none" stroke="#191970" d="M218,-56.2455C218,-48.9382 218,-38.6944 218,-29.7046"/>
<polygon fill="#191970" stroke="#191970" points="221.5001,-29.6426 218,-19.6427 214.5001,-29.6427 221.5001,-29.6426"/>
</g>
<!-- Node7 -->
<g id="node8" class="node">
<title>Node7</title>
<polygon fill="#ffffff" stroke="#bfbfbf" points="266.5,-.5 266.5,-19.5 355.5,-19.5 355.5,-.5 266.5,-.5"/>
<text text-anchor="middle" x="311" y="-7.5" font-family="Helvetica,sans-Serif" font-size="10.00" fill="#000000">AMReX_Print.H</text>
</g>
<!-- Node3&#45;&gt;Node7 -->
<g id="edge7" class="edge">
<title>Node3&#45;&gt;Node7</title>
<path fill="none" stroke="#191970" d="M234.1994,-56.2455C248.6018,-47.5731 269.8732,-34.7645 286.3799,-24.825"/>
<polygon fill="#191970" stroke="#191970" points="288.225,-27.7996 294.9863,-19.6427 284.614,-21.8028 288.225,-27.7996"/>
</g>
<!-- Node8 -->
<g id="node9" class="node">
<title>Node8</title>
<polygon fill="#ffffff" stroke="#bfbfbf" points="373.5,-.5 373.5,-19.5 434.5,-19.5 434.5,-.5 373.5,-.5"/>
<text text-anchor="middle" x="404" y="-7.5" font-family="Helvetica,sans-Serif" font-size="10.00" fill="#000000">AMReX.H</text>
</g>
<!-- Node3&#45;&gt;Node8 -->
<g id="edge8" class="edge">
<title>Node3&#45;&gt;Node8</title>
<path fill="none" stroke="#191970" d="M249.9745,-56.3733C281.4549,-46.8953 329.6378,-32.3886 363.7177,-22.128"/>
<polygon fill="#191970" stroke="#191970" points="364.8017,-25.4569 373.3681,-19.2225 362.7836,-18.7541 364.8017,-25.4569"/>
</g>
<!-- Node10 -->
<g id="node11" class="node">
<title>Node10</title>
<polygon fill="#ffffff" stroke="#bfbfbf" points="336,-56.5 336,-75.5 422,-75.5 422,-56.5 336,-56.5"/>
<text text-anchor="middle" x="379" y="-63.5" font-family="Helvetica,sans-Serif" font-size="10.00" fill="#000000">AMReX_Gpu.H</text>
</g>
<!-- Node9&#45;&gt;Node10 -->
<g id="edge10" class="edge">
<title>Node9&#45;&gt;Node10</title>
<path fill="none" stroke="#191970" d="M379,-112.2977C379,-104.3834 379,-94.6043 379,-86.0759"/>
<polygon fill="#191970" stroke="#191970" points="382.5001,-85.8469 379,-75.8469 375.5001,-85.847 382.5001,-85.8469"/>
</g>
</g>
</svg>
