<?xml version="1.0" encoding="UTF-8" standalone="no"?>
<!DOCTYPE svg PUBLIC "-//W3C//DTD SVG 1.1//EN"
 "http://www.w3.org/Graphics/SVG/1.1/DTD/svg11.dtd">
<!-- Generated by graphviz version 2.40.1 (20161225.0304)
 -->
<!-- Title: TransportModel.H Pages: 1 -->
<svg width="574pt" height="252pt"
 viewBox="0.00 0.00 574.00 252.00" xmlns="http://www.w3.org/2000/svg" xmlns:xlink="http://www.w3.org/1999/xlink">
<g id="graph0" class="graph" transform="scale(1 1) rotate(0) translate(4 248)">
<title>TransportModel.H</title>
<polygon fill="#ffffff" stroke="transparent" points="-4,4 -4,-248 570,-248 570,4 -4,4"/>
<!-- Node25 -->
<g id="node1" class="node">
<title>Node25</title>
<polygon fill="#bfbfbf" stroke="#000000" points="332.5,-224.5 332.5,-243.5 433.5,-243.5 433.5,-224.5 332.5,-224.5"/>
<text text-anchor="middle" x="383" y="-231.5" font-family="Helvetica,sans-Serif" font-size="10.00" fill="#000000">TransportModel.H</text>
</g>
<!-- Node26 -->
<g id="node2" class="node">
<title>Node26</title>
<g id="a_node2"><a xlink:href="_const_transport_8_h.html" target="_top" xlink:title="ConstTransport.H">
<polygon fill="#ffffff" stroke="#000000" points="397,-168.5 397,-187.5 497,-187.5 497,-168.5 397,-168.5"/>
<text text-anchor="middle" x="447" y="-175.5" font-family="Helvetica,sans-Serif" font-size="10.00" fill="#000000">ConstTransport.H</text>
</a>
</g>
</g>
<!-- Node25&#45;&gt;Node26 -->
<g id="edge1" class="edge">
<title>Node25&#45;&gt;Node26</title>
<path fill="none" stroke="#191970" d="M401.6914,-217.645C412.8219,-207.9058 426.5663,-195.8795 435.9798,-187.6427"/>
<polygon fill="#191970" stroke="#191970" points="399.369,-215.0264 394.1479,-224.2455 403.9785,-220.2945 399.369,-215.0264"/>
</g>
<!-- Node35 -->
<g id="node11" class="node">
<title>Node35</title>
<g id="a_node11"><a xlink:href="_two_phase_transport_8_h.html" target="_top" xlink:title="TwoPhaseTransport.H">
<polygon fill="#ffffff" stroke="#000000" points="259,-168.5 259,-187.5 379,-187.5 379,-168.5 259,-168.5"/>
<text text-anchor="middle" x="319" y="-175.5" font-family="Helvetica,sans-Serif" font-size="10.00" fill="#000000">TwoPhaseTransport.H</text>
</a>
</g>
</g>
<!-- Node25&#45;&gt;Node35 -->
<g id="edge12" class="edge">
<title>Node25&#45;&gt;Node35</title>
<path fill="none" stroke="#191970" d="M364.3086,-217.645C353.1781,-207.9058 339.4337,-195.8795 330.0202,-187.6427"/>
<polygon fill="#191970" stroke="#191970" points="362.0215,-220.2945 371.8521,-224.2455 366.631,-215.0264 362.0215,-220.2945"/>
</g>
<!-- Node27 -->
<g id="node3" class="node">
<title>Node27</title>
<g id="a_node3"><a xlink:href="_turb_model_defs_8_h.html" target="_top" xlink:title="TurbModelDefs.H">
<polygon fill="#ffffff" stroke="#000000" points="273.5,-112.5 273.5,-131.5 372.5,-131.5 372.5,-112.5 273.5,-112.5"/>
<text text-anchor="middle" x="323" y="-119.5" font-family="Helvetica,sans-Serif" font-size="10.00" fill="#000000">TurbModelDefs.H</text>
</a>
</g>
</g>
<!-- Node26&#45;&gt;Node27 -->
<g id="edge2" class="edge">
<title>Node26&#45;&gt;Node27</title>
<path fill="none" stroke="#191970" d="M416.5476,-164.2473C394.0278,-154.0771 363.9383,-140.4883 344.0382,-131.5011"/>
<polygon fill="#191970" stroke="#191970" points="415.1294,-167.4471 425.6836,-168.3733 418.0105,-161.0675 415.1294,-167.4471"/>
</g>
<!-- Node34 -->
<g id="node10" class="node">
<title>Node34</title>
<g id="a_node10"><a xlink:href="turbulence__utils_8_h.html" target="_top" xlink:title="turbulence_utils.H">
<polygon fill="#ffffff" stroke="#000000" points="394.5,-112.5 394.5,-131.5 499.5,-131.5 499.5,-112.5 394.5,-112.5"/>
<text text-anchor="middle" x="447" y="-119.5" font-family="Helvetica,sans-Serif" font-size="10.00" fill="#000000">turbulence_utils.H</text>
</a>
</g>
</g>
<!-- Node26&#45;&gt;Node34 -->
<g id="edge11" class="edge">
<title>Node26&#45;&gt;Node34</title>
<path fill="none" stroke="#191970" d="M447,-158.1575C447,-149.155 447,-138.9199 447,-131.6427"/>
<polygon fill="#191970" stroke="#191970" points="443.5001,-158.2455 447,-168.2455 450.5001,-158.2456 443.5001,-158.2455"/>
</g>
<!-- Node28 -->
<g id="node4" class="node">
<title>Node28</title>
<g id="a_node4"><a xlink:href="_laminar_model_8cpp.html" target="_top" xlink:title="LaminarModel.cpp">
<polygon fill="#ffffff" stroke="#000000" points="0,-56.5 0,-75.5 106,-75.5 106,-56.5 0,-56.5"/>
<text text-anchor="middle" x="53" y="-63.5" font-family="Helvetica,sans-Serif" font-size="10.00" fill="#000000">LaminarModel.cpp</text>
</a>
</g>
</g>
<!-- Node27&#45;&gt;Node28 -->
<g id="edge3" class="edge">
<title>Node27&#45;&gt;Node28</title>
<path fill="none" stroke="#191970" d="M266.9364,-110.372C217.172,-100.0505 145.3481,-85.1537 98.9177,-75.5237"/>
<polygon fill="#191970" stroke="#191970" points="266.3897,-113.833 276.8921,-112.4369 267.8113,-106.9789 266.3897,-113.833"/>
</g>
<!-- Node29 -->
<g id="node5" class="node">
<title>Node29</title>
<g id="a_node5"><a xlink:href="_one_eq_ksgs_8cpp.html" target="_top" xlink:title="OneEqKsgs.cpp">
<polygon fill="#ffffff" stroke="#000000" points="124,-56.5 124,-75.5 216,-75.5 216,-56.5 124,-56.5"/>
<text text-anchor="middle" x="170" y="-63.5" font-family="Helvetica,sans-Serif" font-size="10.00" fill="#000000">OneEqKsgs.cpp</text>
</a>
</g>
</g>
<!-- Node27&#45;&gt;Node29 -->
<g id="edge4" class="edge">
<title>Node27&#45;&gt;Node29</title>
<path fill="none" stroke="#191970" d="M287.2721,-108.9231C259.3029,-98.686 221.0607,-84.6889 195.9584,-75.5011"/>
<polygon fill="#191970" stroke="#191970" points="286.1046,-112.2228 296.6984,-112.3733 288.5106,-105.6493 286.1046,-112.2228"/>
</g>
<!-- Node30 -->
<g id="node6" class="node">
<title>Node30</title>
<g id="a_node6"><a xlink:href="_smagorinsky_8cpp.html" target="_top" xlink:title="Smagorinsky.cpp">
<polygon fill="#ffffff" stroke="#000000" points="234.5,-56.5 234.5,-75.5 333.5,-75.5 333.5,-56.5 234.5,-56.5"/>
<text text-anchor="middle" x="284" y="-63.5" font-family="Helvetica,sans-Serif" font-size="10.00" fill="#000000">Smagorinsky.cpp</text>
</a>
</g>
</g>
<!-- Node27&#45;&gt;Node30 -->
<g id="edge5" class="edge">
<title>Node27&#45;&gt;Node30</title>
<path fill="none" stroke="#191970" d="M310.4092,-103.9209C303.8605,-94.5176 296.1176,-83.3997 290.7154,-75.6427"/>
<polygon fill="#191970" stroke="#191970" points="307.6196,-106.0397 316.2067,-112.2455 313.3639,-102.0392 307.6196,-106.0397"/>
</g>
<!-- Node31 -->
<g id="node7" class="node">
<title>Node31</title>
<g id="a_node7"><a xlink:href="_k_omega_s_s_t_i_8_h.html" target="_top" xlink:title="KOmegaSSTI.H">
<polygon fill="#ffffff" stroke="#000000" points="390.5,-56.5 390.5,-75.5 479.5,-75.5 479.5,-56.5 390.5,-56.5"/>
<text text-anchor="middle" x="435" y="-63.5" font-family="Helvetica,sans-Serif" font-size="10.00" fill="#000000">KOmegaSSTI.H</text>
</a>
</g>
</g>
<!-- Node27&#45;&gt;Node31 -->
<g id="edge6" class="edge">
<title>Node27&#45;&gt;Node31</title>
<path fill="none" stroke="#191970" d="M351.3263,-107.8368C371.5721,-97.7139 398.2642,-84.3679 415.9978,-75.5011"/>
<polygon fill="#191970" stroke="#191970" points="349.6325,-104.7706 342.2535,-112.3733 352.763,-111.0316 349.6325,-104.7706"/>
</g>
<!-- Node32 -->
<g id="node8" class="node">
<title>Node32</title>
<g id="a_node8"><a xlink:href="_k_omega_s_s_t_8cpp.html" target="_top" xlink:title="KOmegaSST.cpp">
<polygon fill="#ffffff" stroke="#000000" points="322.5,-.5 322.5,-19.5 417.5,-19.5 417.5,-.5 322.5,-.5"/>
<text text-anchor="middle" x="370" y="-7.5" font-family="Helvetica,sans-Serif" font-size="10.00" fill="#000000">KOmegaSST.cpp</text>
</a>
</g>
</g>
<!-- Node27&#45;&gt;Node32 -->
<g id="edge9" class="edge">
<title>Node27&#45;&gt;Node32</title>
<path fill="none" stroke="#191970" d="M331.0046,-102.9253C341.1586,-78.7284 358.2762,-37.9376 366.0029,-19.5249"/>
<polygon fill="#191970" stroke="#191970" points="327.6494,-101.8756 327.0072,-112.4509 334.1041,-104.5843 327.6494,-101.8756"/>
</g>
<!-- Node33 -->
<g id="node9" class="node">
<title>Node33</title>
<g id="a_node9"><a xlink:href="_k_omega_s_s_t_i_d_d_e_s_8cpp.html" target="_top" xlink:title="KOmegaSSTIDDES.cpp">
<polygon fill="#ffffff" stroke="#000000" points="440,-.5 440,-19.5 566,-19.5 566,-.5 440,-.5"/>
<text text-anchor="middle" x="503" y="-7.5" font-family="Helvetica,sans-Serif" font-size="10.00" fill="#000000">KOmegaSSTIDDES.cpp</text>
</a>
</g>
</g>
<!-- Node27&#45;&gt;Node33 -->
<g id="edge10" class="edge">
<title>Node27&#45;&gt;Node33</title>
<path fill="none" stroke="#191970" d="M382.7229,-111.9773C423.7543,-103.8966 473.3607,-91.3656 488,-76 502.5897,-60.6864 504.0784,-34.2782 503.6765,-19.9479"/>
<polygon fill="#191970" stroke="#191970" points="381.9352,-108.5645 372.7728,-113.8844 383.2529,-115.4394 381.9352,-108.5645"/>
</g>
<!-- Node31&#45;&gt;Node32 -->
<g id="edge7" class="edge">
<title>Node31&#45;&gt;Node32</title>
<path fill="none" stroke="#191970" d="M416.0165,-49.645C404.7121,-39.9058 390.753,-27.8795 381.1924,-19.6427"/>
<polygon fill="#191970" stroke="#191970" points="413.8173,-52.3701 423.6779,-56.2455 418.3862,-47.0668 413.8173,-52.3701"/>
</g>
<!-- Node31&#45;&gt;Node33 -->
<g id="edge8" class="edge">
<title>Node31&#45;&gt;Node33</title>
<path fill="none" stroke="#191970" d="M454.8596,-49.645C466.6858,-39.9058 481.2892,-27.8795 491.291,-19.6427"/>
<polygon fill="#191970" stroke="#191970" points="452.339,-47.1867 446.8447,-56.2455 456.789,-52.5902 452.339,-47.1867"/>
</g>
<!-- Node35&#45;&gt;Node27 -->
<g id="edge13" class="edge">
<title>Node35&#45;&gt;Node27</title>
<path fill="none" stroke="#191970" d="M320.4173,-158.1575C321.0604,-149.155 321.7914,-138.9199 322.3112,-131.6427"/>
<polygon fill="#191970" stroke="#191970" points="316.9182,-158.0216 319.6967,-168.2455 323.9004,-158.5204 316.9182,-158.0216"/>
</g>
</g>
</svg>
