<?xml version="1.0" encoding="UTF-8" standalone="no"?>
<!DOCTYPE svg PUBLIC "-//W3C//DTD SVG 1.1//EN"
 "http://www.w3.org/Graphics/SVG/1.1/DTD/svg11.dtd">
<!-- Generated by graphviz version 2.40.1 (20161225.0304)
 -->
<!-- Title: TurbModelBase.H Pages: 1 -->
<svg width="620pt" height="196pt"
 viewBox="0.00 0.00 620.00 196.00" xmlns="http://www.w3.org/2000/svg" xmlns:xlink="http://www.w3.org/1999/xlink">
<g id="graph0" class="graph" transform="scale(1 1) rotate(0) translate(4 192)">
<title>TurbModelBase.H</title>
<polygon fill="#ffffff" stroke="transparent" points="-4,4 -4,-192 616,-192 616,4 -4,4"/>
<!-- Node43 -->
<g id="node1" class="node">
<title>Node43</title>
<polygon fill="#bfbfbf" stroke="#000000" points="157.5,-168.5 157.5,-187.5 258.5,-187.5 258.5,-168.5 157.5,-168.5"/>
<text text-anchor="middle" x="208" y="-175.5" font-family="Helvetica,sans-Serif" font-size="10.00" fill="#000000">TurbModelBase.H</text>
</g>
<!-- Node44 -->
<g id="node2" class="node">
<title>Node44</title>
<g id="a_node2"><a xlink:href="_one_eq_ksgs_8_h.html" target="_top" xlink:title="OneEqKsgs.H">
<polygon fill="#ffffff" stroke="#000000" points="58,-112.5 58,-131.5 140,-131.5 140,-112.5 58,-112.5"/>
<text text-anchor="middle" x="99" y="-119.5" font-family="Helvetica,sans-Serif" font-size="10.00" fill="#000000">OneEqKsgs.H</text>
</a>
</g>
</g>
<!-- Node43&#45;&gt;Node44 -->
<g id="edge1" class="edge">
<title>Node43&#45;&gt;Node44</title>
<path fill="none" stroke="#191970" d="M179.9658,-163.5971C160.4254,-153.558 134.8908,-140.4393 117.7688,-131.6427"/>
<polygon fill="#191970" stroke="#191970" points="178.5194,-166.7889 189.0136,-168.2455 181.7183,-160.5625 178.5194,-166.7889"/>
</g>
<!-- Node46 -->
<g id="node4" class="node">
<title>Node46</title>
<g id="a_node4"><a xlink:href="_smagorinsky_8_h.html" target="_top" xlink:title="Smagorinsky.H">
<polygon fill="#ffffff" stroke="#000000" points="163.5,-112.5 163.5,-131.5 252.5,-131.5 252.5,-112.5 163.5,-112.5"/>
<text text-anchor="middle" x="208" y="-119.5" font-family="Helvetica,sans-Serif" font-size="10.00" fill="#000000">Smagorinsky.H</text>
</a>
</g>
</g>
<!-- Node43&#45;&gt;Node46 -->
<g id="edge3" class="edge">
<title>Node43&#45;&gt;Node46</title>
<path fill="none" stroke="#191970" d="M208,-158.1575C208,-149.155 208,-138.9199 208,-131.6427"/>
<polygon fill="#191970" stroke="#191970" points="204.5001,-158.2455 208,-168.2455 211.5001,-158.2456 204.5001,-158.2455"/>
</g>
<!-- Node49 -->
<g id="node7" class="node">
<title>Node49</title>
<g id="a_node7"><a xlink:href="_k_omega_s_s_t_8_h.html" target="_top" xlink:title="KOmegaSST.H">
<polygon fill="#ffffff" stroke="#000000" points="354.5,-112.5 354.5,-131.5 439.5,-131.5 439.5,-112.5 354.5,-112.5"/>
<text text-anchor="middle" x="397" y="-119.5" font-family="Helvetica,sans-Serif" font-size="10.00" fill="#000000">KOmegaSST.H</text>
</a>
</g>
</g>
<!-- Node43&#45;&gt;Node49 -->
<g id="edge6" class="edge">
<title>Node43&#45;&gt;Node49</title>
<path fill="none" stroke="#191970" d="M250.3357,-165.4561C285.0294,-155.1765 333.3834,-140.8494 364.9337,-131.5011"/>
<polygon fill="#191970" stroke="#191970" points="249.0839,-162.1765 240.4903,-168.3733 251.0726,-168.8881 249.0839,-162.1765"/>
</g>
<!-- Node45 -->
<g id="node3" class="node">
<title>Node45</title>
<g id="a_node3"><a xlink:href="_one_eq_ksgs_8cpp.html" target="_top" xlink:title="OneEqKsgs.cpp">
<polygon fill="#ffffff" stroke="#000000" points="0,-56.5 0,-75.5 92,-75.5 92,-56.5 0,-56.5"/>
<text text-anchor="middle" x="46" y="-63.5" font-family="Helvetica,sans-Serif" font-size="10.00" fill="#000000">OneEqKsgs.cpp</text>
</a>
</g>
</g>
<!-- Node44&#45;&gt;Node45 -->
<g id="edge2" class="edge">
<title>Node44&#45;&gt;Node45</title>
<path fill="none" stroke="#191970" d="M82.7104,-104.7884C73.6438,-95.2085 62.6946,-83.6396 55.1261,-75.6427"/>
<polygon fill="#191970" stroke="#191970" points="80.3522,-107.3884 89.7681,-112.2455 85.4363,-102.5767 80.3522,-107.3884"/>
</g>
<!-- Node47 -->
<g id="node5" class="node">
<title>Node47</title>
<g id="a_node5"><a xlink:href="_smagorinsky_8cpp.html" target="_top" xlink:title="Smagorinsky.cpp">
<polygon fill="#ffffff" stroke="#000000" points="110.5,-56.5 110.5,-75.5 209.5,-75.5 209.5,-56.5 110.5,-56.5"/>
<text text-anchor="middle" x="160" y="-63.5" font-family="Helvetica,sans-Serif" font-size="10.00" fill="#000000">Smagorinsky.cpp</text>
</a>
</g>
</g>
<!-- Node46&#45;&gt;Node47 -->
<g id="edge4" class="edge">
<title>Node46&#45;&gt;Node47</title>
<path fill="none" stroke="#191970" d="M193.0003,-104.5004C184.8378,-94.9775 175.0511,-83.5596 168.2651,-75.6427"/>
<polygon fill="#191970" stroke="#191970" points="190.4737,-106.9307 199.639,-112.2455 195.7885,-102.3752 190.4737,-106.9307"/>
</g>
<!-- Node48 -->
<g id="node6" class="node">
<title>Node48</title>
<g id="a_node6"><a xlink:href="turbulence__utils_8_h.html" target="_top" xlink:title="turbulence_utils.H">
<polygon fill="#ffffff" stroke="#000000" points="227.5,-56.5 227.5,-75.5 332.5,-75.5 332.5,-56.5 227.5,-56.5"/>
<text text-anchor="middle" x="280" y="-63.5" font-family="Helvetica,sans-Serif" font-size="10.00" fill="#000000">turbulence_utils.H</text>
</a>
</g>
</g>
<!-- Node46&#45;&gt;Node48 -->
<g id="edge5" class="edge">
<title>Node46&#45;&gt;Node48</title>
<path fill="none" stroke="#191970" d="M228.664,-105.928C241.2489,-96.1397 256.9092,-83.9595 267.6023,-75.6427"/>
<polygon fill="#191970" stroke="#191970" points="226.2862,-103.3434 220.5414,-112.2455 230.5838,-108.8688 226.2862,-103.3434"/>
</g>
<!-- Node50 -->
<g id="node8" class="node">
<title>Node50</title>
<g id="a_node8"><a xlink:href="_k_omega_s_s_t_8cpp.html" target="_top" xlink:title="KOmegaSST.cpp">
<polygon fill="#ffffff" stroke="#000000" points="345.5,-.5 345.5,-19.5 440.5,-19.5 440.5,-.5 345.5,-.5"/>
<text text-anchor="middle" x="393" y="-7.5" font-family="Helvetica,sans-Serif" font-size="10.00" fill="#000000">KOmegaSST.cpp</text>
</a>
</g>
</g>
<!-- Node49&#45;&gt;Node50 -->
<g id="edge7" class="edge">
<title>Node49&#45;&gt;Node50</title>
<path fill="none" stroke="#191970" d="M388.2997,-103.1065C385.0005,-94.953 381.6443,-85.1929 380,-76 376.422,-55.9969 383.7135,-32.6952 388.7518,-19.8198"/>
<polygon fill="#191970" stroke="#191970" points="385.1394,-104.6167 392.3151,-112.4115 391.5665,-101.8431 385.1394,-104.6167"/>
</g>
<!-- Node51 -->
<g id="node9" class="node">
<title>Node51</title>
<g id="a_node9"><a xlink:href="_k_omega_s_s_t_i_8_h.html" target="_top" xlink:title="KOmegaSSTI.H">
<polygon fill="#ffffff" stroke="#000000" points="389.5,-56.5 389.5,-75.5 478.5,-75.5 478.5,-56.5 389.5,-56.5"/>
<text text-anchor="middle" x="434" y="-63.5" font-family="Helvetica,sans-Serif" font-size="10.00" fill="#000000">KOmegaSSTI.H</text>
</a>
</g>
</g>
<!-- Node49&#45;&gt;Node51 -->
<g id="edge8" class="edge">
<title>Node49&#45;&gt;Node51</title>
<path fill="none" stroke="#191970" d="M409.1376,-103.6296C415.3093,-94.2887 422.5566,-83.3197 427.6289,-75.6427"/>
<polygon fill="#191970" stroke="#191970" points="406.0373,-101.9728 403.4449,-112.2455 411.8777,-105.8316 406.0373,-101.9728"/>
</g>
<!-- Node53 -->
<g id="node11" class="node">
<title>Node53</title>
<g id="a_node11"><a xlink:href="_k_omega_s_s_t_i_d_d_e_s_8_h.html" target="_top" xlink:title="KOmegaSSTIDDES.H">
<polygon fill="#ffffff" stroke="#000000" points="496,-56.5 496,-75.5 612,-75.5 612,-56.5 496,-56.5"/>
<text text-anchor="middle" x="554" y="-63.5" font-family="Helvetica,sans-Serif" font-size="10.00" fill="#000000">KOmegaSSTIDDES.H</text>
</a>
</g>
</g>
<!-- Node49&#45;&gt;Node53 -->
<g id="edge11" class="edge">
<title>Node49&#45;&gt;Node53</title>
<path fill="none" stroke="#191970" d="M433.6619,-108.9231C462.3624,-98.686 501.6044,-84.6889 527.3629,-75.5011"/>
<polygon fill="#191970" stroke="#191970" points="432.2322,-105.7171 423.9893,-112.3733 434.5839,-112.3102 432.2322,-105.7171"/>
</g>
<!-- Node51&#45;&gt;Node50 -->
<g id="edge9" class="edge">
<title>Node51&#45;&gt;Node50</title>
<path fill="none" stroke="#191970" d="M420.7636,-47.9209C413.8789,-38.5176 405.7391,-27.3997 400.0598,-19.6427"/>
<polygon fill="#191970" stroke="#191970" points="418.1269,-50.2445 426.8583,-56.2455 423.7749,-46.1093 418.1269,-50.2445"/>
</g>
<!-- Node52 -->
<g id="node10" class="node">
<title>Node52</title>
<g id="a_node10"><a xlink:href="_k_omega_s_s_t_i_d_d_e_s_8cpp.html" target="_top" xlink:title="KOmegaSSTIDDES.cpp">
<polygon fill="#ffffff" stroke="#000000" points="475,-.5 475,-19.5 601,-19.5 601,-.5 475,-.5"/>
<text text-anchor="middle" x="538" y="-7.5" font-family="Helvetica,sans-Serif" font-size="10.00" fill="#000000">KOmegaSSTIDDES.cpp</text>
</a>
</g>
</g>
<!-- Node51&#45;&gt;Node52 -->
<g id="edge10" class="edge">
<title>Node51&#45;&gt;Node52</title>
<path fill="none" stroke="#191970" d="M461.0029,-51.46C479.6136,-41.4388 503.8299,-28.3993 520.0922,-19.6427"/>
<polygon fill="#191970" stroke="#191970" points="459.2608,-48.4228 452.1154,-56.2455 462.5795,-54.5861 459.2608,-48.4228"/>
</g>
<!-- Node53&#45;&gt;Node52 -->
<g id="edge12" class="edge">
<title>Node53&#45;&gt;Node52</title>
<path fill="none" stroke="#191970" d="M548.4154,-46.4538C545.823,-37.3803 542.8571,-26.9998 540.755,-19.6427"/>
<polygon fill="#191970" stroke="#191970" points="545.1004,-47.5919 551.213,-56.2455 551.8311,-45.6688 545.1004,-47.5919"/>
</g>
</g>
</svg>
