<?xml version="1.0" encoding="UTF-8" standalone="no"?>
<!DOCTYPE svg PUBLIC "-//W3C//DTD SVG 1.1//EN"
 "http://www.w3.org/Graphics/SVG/1.1/DTD/svg11.dtd">
<!-- Generated by graphviz version 2.40.1 (20161225.0304)
 -->
<!-- Title: TurbModelDefs.H Pages: 1 -->
<svg width="2123pt" height="397pt"
 viewBox="0.00 0.00 2123.01 397.00" xmlns="http://www.w3.org/2000/svg" xmlns:xlink="http://www.w3.org/1999/xlink">
<g id="graph0" class="graph" transform="scale(1 1) rotate(0) translate(4 393)">
<title>TurbModelDefs.H</title>
<polygon fill="#ffffff" stroke="transparent" points="-4,4 -4,-393 2119.0114,-393 2119.0114,4 -4,4"/>
<!-- Node0 -->
<g id="node1" class="node">
<title>Node0</title>
<polygon fill="#bfbfbf" stroke="#000000" points="1507.0918,-369.5 1507.0918,-388.5 1606.0918,-388.5 1606.0918,-369.5 1507.0918,-369.5"/>
<text text-anchor="middle" x="1556.5918" y="-376.5" font-family="Helvetica,sans-Serif" font-size="10.00" fill="#000000">TurbModelDefs.H</text>
</g>
<!-- Node1 -->
<g id="node2" class="node">
<title>Node1</title>
<g id="a_node2"><a xlink:href="_turbulence_model_8_h.html" target="_top" xlink:title="amr&#45;wind/turbulence\l/TurbulenceModel.H">
<polygon fill="#ffffff" stroke="#000000" points="1681.0918,-168.5 1681.0918,-198.5 1798.0918,-198.5 1798.0918,-168.5 1681.0918,-168.5"/>
<text text-anchor="start" x="1689.0918" y="-186.5" font-family="Helvetica,sans-Serif" font-size="10.00" fill="#000000">amr&#45;wind/turbulence</text>
<text text-anchor="middle" x="1739.5918" y="-175.5" font-family="Helvetica,sans-Serif" font-size="10.00" fill="#000000">/TurbulenceModel.H</text>
</a>
</g>
</g>
<!-- Node0&#45;&gt;Node1 -->
<g id="edge1" class="edge">
<title>Node0&#45;&gt;Node1</title>
<path fill="none" stroke="#191970" d="M1582.7769,-369.3847C1620.5378,-353.9886 1689.1871,-319.9335 1720.5918,-266 1730.7236,-248.6 1735.4527,-226.1977 1737.6599,-209.1295"/>
<polygon fill="#191970" stroke="#191970" points="1741.1826,-209.108 1738.7777,-198.7897 1734.2231,-208.3556 1741.1826,-209.108"/>
</g>
<!-- Node9 -->
<g id="node10" class="node">
<title>Node9</title>
<g id="a_node10"><a xlink:href="_const_transport_8_h.html" target="_top" xlink:title="amr&#45;wind/transport\l_models/ConstTransport.H">
<polygon fill="#ffffff" stroke="#000000" points="1312.5918,-302.5 1312.5918,-332.5 1456.5918,-332.5 1456.5918,-302.5 1312.5918,-302.5"/>
<text text-anchor="start" x="1320.5918" y="-320.5" font-family="Helvetica,sans-Serif" font-size="10.00" fill="#000000">amr&#45;wind/transport</text>
<text text-anchor="middle" x="1384.5918" y="-309.5" font-family="Helvetica,sans-Serif" font-size="10.00" fill="#000000">_models/ConstTransport.H</text>
</a>
</g>
</g>
<!-- Node0&#45;&gt;Node9 -->
<g id="edge10" class="edge">
<title>Node0&#45;&gt;Node9</title>
<path fill="none" stroke="#191970" d="M1529.7168,-369.3906C1504.8222,-360.4893 1467.1163,-347.0073 1436.3779,-336.0165"/>
<polygon fill="#191970" stroke="#191970" points="1437.2624,-332.6158 1426.6678,-332.5446 1434.9055,-339.2072 1437.2624,-332.6158"/>
</g>
<!-- Node29 -->
<g id="node30" class="node">
<title>Node29</title>
<g id="a_node30"><a xlink:href="_two_phase_transport_8_h.html" target="_top" xlink:title="amr&#45;wind/transport\l_models/TwoPhaseTransport.H">
<polygon fill="#ffffff" stroke="#000000" points="1474.5918,-302.5 1474.5918,-332.5 1638.5918,-332.5 1638.5918,-302.5 1474.5918,-302.5"/>
<text text-anchor="start" x="1482.5918" y="-320.5" font-family="Helvetica,sans-Serif" font-size="10.00" fill="#000000">amr&#45;wind/transport</text>
<text text-anchor="middle" x="1556.5918" y="-309.5" font-family="Helvetica,sans-Serif" font-size="10.00" fill="#000000">_models/TwoPhaseTransport.H</text>
</a>
</g>
</g>
<!-- Node0&#45;&gt;Node29 -->
<g id="edge51" class="edge">
<title>Node0&#45;&gt;Node29</title>
<path fill="none" stroke="#191970" d="M1556.5918,-369.3906C1556.5918,-362.2234 1556.5918,-352.0862 1556.5918,-342.671"/>
<polygon fill="#191970" stroke="#191970" points="1560.0919,-342.5446 1556.5918,-332.5446 1553.0919,-342.5446 1560.0919,-342.5446"/>
</g>
<!-- Node2 -->
<g id="node3" class="node">
<title>Node2</title>
<polygon fill="#ffffff" stroke="#bfbfbf" points="1735.0918,-56.5 1735.0918,-75.5 1828.0918,-75.5 1828.0918,-56.5 1735.0918,-56.5"/>
<text text-anchor="middle" x="1781.5918" y="-63.5" font-family="Helvetica,sans-Serif" font-size="10.00" fill="#000000">unordered_map</text>
</g>
<!-- Node1&#45;&gt;Node2 -->
<g id="edge2" class="edge">
<title>Node1&#45;&gt;Node2</title>
<path fill="none" stroke="#191970" d="M1746.1599,-168.2994C1750.4712,-158.1094 1756.1184,-144.3463 1760.5918,-132 1766.1601,-116.6321 1771.7361,-98.9752 1775.7416,-85.7936"/>
<polygon fill="#191970" stroke="#191970" points="1779.1819,-86.506 1778.7021,-75.922 1772.4769,-84.4951 1779.1819,-86.506"/>
</g>
<!-- Node3 -->
<g id="node4" class="node">
<title>Node3</title>
<g id="a_node4"><a xlink:href="_factory_8_h.html" target="_top" xlink:title="amr&#45;wind/core/Factory.H">
<polygon fill="#ffffff" stroke="#000000" points="1812.5918,-112.5 1812.5918,-131.5 1946.5918,-131.5 1946.5918,-112.5 1812.5918,-112.5"/>
<text text-anchor="middle" x="1879.5918" y="-119.5" font-family="Helvetica,sans-Serif" font-size="10.00" fill="#000000">amr&#45;wind/core/Factory.H</text>
</a>
</g>
</g>
<!-- Node1&#45;&gt;Node3 -->
<g id="edge3" class="edge">
<title>Node1&#45;&gt;Node3</title>
<path fill="none" stroke="#191970" d="M1773.8397,-168.4554C1796.6868,-158.419 1826.4798,-145.3314 1848.6185,-135.6061"/>
<polygon fill="#191970" stroke="#191970" points="1850.1489,-138.7567 1857.8968,-131.5303 1847.3335,-132.3478 1850.1489,-138.7567"/>
</g>
<!-- Node8 -->
<g id="node9" class="node">
<title>Node8</title>
<g id="a_node9"><a xlink:href="_field_desc_types_8_h.html" target="_top" xlink:title="amr&#45;wind/core/FieldDescTypes.H">
<polygon fill="#ffffff" stroke="#000000" points="229.5918,-.5 229.5918,-19.5 403.5918,-19.5 403.5918,-.5 229.5918,-.5"/>
<text text-anchor="middle" x="316.5918" y="-7.5" font-family="Helvetica,sans-Serif" font-size="10.00" fill="#000000">amr&#45;wind/core/FieldDescTypes.H</text>
</a>
</g>
</g>
<!-- Node1&#45;&gt;Node8 -->
<g id="edge9" class="edge">
<title>Node1&#45;&gt;Node8</title>
<path fill="none" stroke="#191970" d="M1680.876,-183.1099C1469.3244,-181.3794 746.673,-172.5667 519.5918,-132 439.6182,-117.7132 405.9079,-130.4231 345.5918,-76 332.1152,-63.8401 324.6007,-44.2751 320.6183,-29.5981"/>
<polygon fill="#191970" stroke="#191970" points="323.9424,-28.4482 318.2211,-19.531 317.1328,-30.0698 323.9424,-28.4482"/>
</g>
<!-- Node3&#45;&gt;Node2 -->
<g id="edge5" class="edge">
<title>Node3&#45;&gt;Node2</title>
<path fill="none" stroke="#191970" d="M1862.5215,-112.2455C1847.3448,-103.5731 1824.9297,-90.7645 1807.5355,-80.825"/>
<polygon fill="#191970" stroke="#191970" points="1808.8855,-77.5653 1798.4665,-75.6427 1805.4124,-83.643 1808.8855,-77.5653"/>
</g>
<!-- Node4 -->
<g id="node5" class="node">
<title>Node4</title>
<polygon fill="#ffffff" stroke="#bfbfbf" points="1582.5918,-56.5 1582.5918,-75.5 1640.5918,-75.5 1640.5918,-56.5 1582.5918,-56.5"/>
<text text-anchor="middle" x="1611.5918" y="-63.5" font-family="Helvetica,sans-Serif" font-size="10.00" fill="#000000">memory</text>
</g>
<!-- Node3&#45;&gt;Node4 -->
<g id="edge4" class="edge">
<title>Node3&#45;&gt;Node4</title>
<path fill="none" stroke="#191970" d="M1833.8255,-112.4369C1782.1838,-101.6461 1699.0686,-84.2787 1650.4542,-74.1205"/>
<polygon fill="#191970" stroke="#191970" points="1651.1324,-70.6867 1640.6279,-72.0672 1649.7005,-77.5387 1651.1324,-70.6867"/>
</g>
<!-- Node5 -->
<g id="node6" class="node">
<title>Node5</title>
<polygon fill="#ffffff" stroke="#bfbfbf" points="1925.5918,-56.5 1925.5918,-75.5 1985.5918,-75.5 1985.5918,-56.5 1925.5918,-56.5"/>
<text text-anchor="middle" x="1955.5918" y="-63.5" font-family="Helvetica,sans-Serif" font-size="10.00" fill="#000000">iostream</text>
</g>
<!-- Node3&#45;&gt;Node5 -->
<g id="edge6" class="edge">
<title>Node3&#45;&gt;Node5</title>
<path fill="none" stroke="#191970" d="M1892.83,-112.2455C1904.2728,-103.814 1921.0214,-91.4729 1934.3393,-81.6598"/>
<polygon fill="#191970" stroke="#191970" points="1936.531,-84.3924 1942.5053,-75.6427 1932.3785,-78.757 1936.531,-84.3924"/>
</g>
<!-- Node6 -->
<g id="node7" class="node">
<title>Node6</title>
<polygon fill="#ffffff" stroke="#bfbfbf" points="2004.0918,-56.5 2004.0918,-75.5 2093.0918,-75.5 2093.0918,-56.5 2004.0918,-56.5"/>
<text text-anchor="middle" x="2048.5918" y="-63.5" font-family="Helvetica,sans-Serif" font-size="10.00" fill="#000000">AMReX_Print.H</text>
</g>
<!-- Node3&#45;&gt;Node6 -->
<g id="edge7" class="edge">
<title>Node3&#45;&gt;Node6</title>
<path fill="none" stroke="#191970" d="M1908.644,-112.3733C1936.7461,-103.0613 1979.4972,-88.8953 2010.3525,-78.671"/>
<polygon fill="#191970" stroke="#191970" points="2011.5273,-81.969 2019.9188,-75.5011 2009.3254,-75.3243 2011.5273,-81.969"/>
</g>
<!-- Node7 -->
<g id="node8" class="node">
<title>Node7</title>
<polygon fill="#ffffff" stroke="#bfbfbf" points="1846.0918,-56.5 1846.0918,-75.5 1907.0918,-75.5 1907.0918,-56.5 1846.0918,-56.5"/>
<text text-anchor="middle" x="1876.5918" y="-63.5" font-family="Helvetica,sans-Serif" font-size="10.00" fill="#000000">AMReX.H</text>
</g>
<!-- Node3&#45;&gt;Node7 -->
<g id="edge8" class="edge">
<title>Node3&#45;&gt;Node7</title>
<path fill="none" stroke="#191970" d="M1879.0693,-112.2455C1878.6778,-104.9382 1878.129,-94.6944 1877.6474,-85.7046"/>
<polygon fill="#191970" stroke="#191970" points="1881.1384,-85.4411 1877.1084,-75.6427 1874.1484,-85.8156 1881.1384,-85.4411"/>
</g>
<!-- Node10 -->
<g id="node11" class="node">
<title>Node10</title>
<g id="a_node11"><a xlink:href="_transport_model_8_h.html" target="_top" xlink:title="amr&#45;wind/transport\l_models/TransportModel.H">
<polygon fill="#ffffff" stroke="#000000" points="1387.5918,-235.5 1387.5918,-265.5 1533.5918,-265.5 1533.5918,-235.5 1387.5918,-235.5"/>
<text text-anchor="start" x="1395.5918" y="-253.5" font-family="Helvetica,sans-Serif" font-size="10.00" fill="#000000">amr&#45;wind/transport</text>
<text text-anchor="middle" x="1460.5918" y="-242.5" font-family="Helvetica,sans-Serif" font-size="10.00" fill="#000000">_models/TransportModel.H</text>
</a>
</g>
</g>
<!-- Node9&#45;&gt;Node10 -->
<g id="edge11" class="edge">
<title>Node9&#45;&gt;Node10</title>
<path fill="none" stroke="#191970" d="M1401.8374,-302.2967C1411.846,-293.4733 1424.6255,-282.2072 1435.7083,-272.4368"/>
<polygon fill="#191970" stroke="#191970" points="1438.2278,-274.8816 1443.4145,-265.6432 1433.5987,-269.6307 1438.2278,-274.8816"/>
</g>
<!-- Node28 -->
<g id="node29" class="node">
<title>Node28</title>
<polygon fill="#ffffff" stroke="#bfbfbf" points="1252.0918,-241 1252.0918,-260 1369.0918,-260 1369.0918,-241 1252.0918,-241"/>
<text text-anchor="middle" x="1310.5918" y="-248" font-family="Helvetica,sans-Serif" font-size="10.00" fill="#000000">AMReX_ParmParse.H</text>
</g>
<!-- Node9&#45;&gt;Node28 -->
<g id="edge50" class="edge">
<title>Node9&#45;&gt;Node28</title>
<path fill="none" stroke="#191970" d="M1367.8001,-302.2967C1356.1586,-291.7564 1340.667,-277.7303 1328.7409,-266.9323"/>
<polygon fill="#191970" stroke="#191970" points="1330.9072,-264.1722 1321.1451,-260.055 1326.209,-269.3613 1330.9072,-264.1722"/>
</g>
<!-- Node10&#45;&gt;Node3 -->
<g id="edge12" class="edge">
<title>Node10&#45;&gt;Node3</title>
<path fill="none" stroke="#191970" d="M1533.8763,-236.4527C1536.8178,-235.9506 1539.7316,-235.4643 1542.5918,-235 1659.9158,-215.9554 1701.9988,-253.5685 1807.5918,-199 1833.8984,-185.4053 1855.7127,-158.2373 1868.2051,-140.0836"/>
<polygon fill="#191970" stroke="#191970" points="1871.2641,-141.8029 1873.8624,-131.5316 1865.426,-137.9408 1871.2641,-141.8029"/>
</g>
<!-- Node11 -->
<g id="node12" class="node">
<title>Node11</title>
<g id="a_node12"><a xlink:href="_field_repo_8_h.html" target="_top" xlink:title="amr&#45;wind/core/FieldRepo.H">
<polygon fill="#ffffff" stroke="#000000" points="534.5918,-174 534.5918,-193 680.5918,-193 680.5918,-174 534.5918,-174"/>
<text text-anchor="middle" x="607.5918" y="-181" font-family="Helvetica,sans-Serif" font-size="10.00" fill="#000000">amr&#45;wind/core/FieldRepo.H</text>
</a>
</g>
</g>
<!-- Node10&#45;&gt;Node11 -->
<g id="edge13" class="edge">
<title>Node10&#45;&gt;Node11</title>
<path fill="none" stroke="#191970" d="M1387.3435,-236.203C1384.392,-235.77 1381.4662,-235.3663 1378.5918,-235 1129.6482,-203.2741 832.8334,-190.415 691.0399,-185.7902"/>
<polygon fill="#191970" stroke="#191970" points="690.7962,-182.2807 680.6892,-185.4583 690.5718,-189.2771 690.7962,-182.2807"/>
</g>
<!-- Node11&#45;&gt;Node2 -->
<g id="edge15" class="edge">
<title>Node11&#45;&gt;Node2</title>
<path fill="none" stroke="#191970" d="M680.9769,-181.7671C922.6405,-175.8464 1680.846,-155.4817 1727.5918,-132 1747.7503,-121.8738 1763.0427,-100.4196 1772.12,-84.7101"/>
<polygon fill="#191970" stroke="#191970" points="1775.2502,-86.2803 1776.9566,-75.8237 1769.1019,-82.9338 1775.2502,-86.2803"/>
</g>
<!-- Node11&#45;&gt;Node8 -->
<g id="edge16" class="edge">
<title>Node11&#45;&gt;Node8</title>
<path fill="none" stroke="#191970" d="M534.3714,-182.5433C383.6754,-179.8124 50.0144,-169.5471 15.5918,-132 -49.9032,-60.56 108.2444,-30.0543 219.2432,-17.7201"/>
<polygon fill="#191970" stroke="#191970" points="219.9245,-21.1671 229.4927,-16.6174 219.1757,-14.2073 219.9245,-21.1671"/>
</g>
<!-- Node12 -->
<g id="node13" class="node">
<title>Node12</title>
<polygon fill="#ffffff" stroke="#bfbfbf" points="585.5918,-.5 585.5918,-19.5 629.5918,-19.5 629.5918,-.5 585.5918,-.5"/>
<text text-anchor="middle" x="607.5918" y="-7.5" font-family="Helvetica,sans-Serif" font-size="10.00" fill="#000000">string</text>
</g>
<!-- Node11&#45;&gt;Node12 -->
<g id="edge14" class="edge">
<title>Node11&#45;&gt;Node12</title>
<path fill="none" stroke="#191970" d="M546.8302,-173.9991C460.9394,-158.0369 320.1025,-121.028 373.5918,-56 398.7854,-25.3717 517.3166,-14.8235 575.3791,-11.4542"/>
<polygon fill="#191970" stroke="#191970" points="575.6854,-14.9429 585.4808,-10.9054 575.3056,-7.9532 575.6854,-14.9429"/>
</g>
<!-- Node13 -->
<g id="node14" class="node">
<title>Node13</title>
<g id="a_node14"><a xlink:href="_field_utils_8_h.html" target="_top" xlink:title="amr&#45;wind/core/FieldUtils.H">
<polygon fill="#ffffff" stroke="#000000" points="1305.0918,-56.5 1305.0918,-75.5 1450.0918,-75.5 1450.0918,-56.5 1305.0918,-56.5"/>
<text text-anchor="middle" x="1377.5918" y="-63.5" font-family="Helvetica,sans-Serif" font-size="10.00" fill="#000000">amr&#45;wind/core/FieldUtils.H</text>
</a>
</g>
</g>
<!-- Node11&#45;&gt;Node13 -->
<g id="edge17" class="edge">
<title>Node11&#45;&gt;Node13</title>
<path fill="none" stroke="#191970" d="M680.6445,-181.0743C785.9749,-176.5705 986.238,-164.2357 1153.5918,-132 1221.1794,-118.9813 1297.6393,-94.2024 1341.4775,-78.9876"/>
<polygon fill="#191970" stroke="#191970" points="1342.8264,-82.2237 1351.1084,-75.6163 1340.5136,-75.6168 1342.8264,-82.2237"/>
</g>
<!-- Node14 -->
<g id="node15" class="node">
<title>Node14</title>
<polygon fill="#ffffff" stroke="#bfbfbf" points="1460.0918,-.5 1460.0918,-19.5 1567.0918,-19.5 1567.0918,-.5 1460.0918,-.5"/>
<text text-anchor="middle" x="1513.5918" y="-7.5" font-family="Helvetica,sans-Serif" font-size="10.00" fill="#000000">AMReX_MultiFab.H</text>
</g>
<!-- Node11&#45;&gt;Node14 -->
<g id="edge48" class="edge">
<title>Node11&#45;&gt;Node14</title>
<path fill="none" stroke="#191970" d="M680.8045,-179.4873C794.0776,-172.7675 1018.489,-157.4163 1207.5918,-132 1344.1851,-113.6413 1423.5751,-181.2178 1512.5918,-76 1523.2085,-63.4511 1522.242,-44.2446 1519.3395,-29.7806"/>
<polygon fill="#191970" stroke="#191970" points="1522.6816,-28.713 1516.9024,-19.8332 1515.8826,-30.3788 1522.6816,-28.713"/>
</g>
<!-- Node16 -->
<g id="node17" class="node">
<title>Node16</title>
<g id="a_node17"><a xlink:href="_field_8_h.html" target="_top" xlink:title="amr&#45;wind/core/Field.H">
<polygon fill="#ffffff" stroke="#000000" points="1022.5918,-112.5 1022.5918,-131.5 1144.5918,-131.5 1144.5918,-112.5 1022.5918,-112.5"/>
<text text-anchor="middle" x="1083.5918" y="-119.5" font-family="Helvetica,sans-Serif" font-size="10.00" fill="#000000">amr&#45;wind/core/Field.H</text>
</a>
</g>
</g>
<!-- Node11&#45;&gt;Node16 -->
<g id="edge21" class="edge">
<title>Node11&#45;&gt;Node16</title>
<path fill="none" stroke="#191970" d="M680.6637,-174.059C770.8761,-162.4034 923.2834,-142.7121 1012.5505,-131.1787"/>
<polygon fill="#191970" stroke="#191970" points="1013.1138,-134.6351 1022.5829,-129.8825 1012.2168,-127.6928 1013.1138,-134.6351"/>
</g>
<!-- Node23 -->
<g id="node24" class="node">
<title>Node23</title>
<g id="a_node24"><a xlink:href="_int_field_8_h.html" target="_top" xlink:title="amr&#45;wind/core/IntField.H">
<polygon fill="#ffffff" stroke="#000000" points="191.0918,-112.5 191.0918,-131.5 326.0918,-131.5 326.0918,-112.5 191.0918,-112.5"/>
<text text-anchor="middle" x="258.5918" y="-119.5" font-family="Helvetica,sans-Serif" font-size="10.00" fill="#000000">amr&#45;wind/core/IntField.H</text>
</a>
</g>
</g>
<!-- Node11&#45;&gt;Node23 -->
<g id="edge36" class="edge">
<title>Node11&#45;&gt;Node23</title>
<path fill="none" stroke="#191970" d="M553.4435,-173.9581C491.0703,-162.9668 388.6989,-144.9272 322.4816,-133.2585"/>
<polygon fill="#191970" stroke="#191970" points="323.0357,-129.8023 312.58,-131.5137 321.8209,-136.6961 323.0357,-129.8023"/>
</g>
<!-- Node24 -->
<g id="node25" class="node">
<title>Node24</title>
<polygon fill="#ffffff" stroke="#bfbfbf" points="64.5918,-56.5 64.5918,-75.5 174.5918,-75.5 174.5918,-56.5 64.5918,-56.5"/>
<text text-anchor="middle" x="119.5918" y="-63.5" font-family="Helvetica,sans-Serif" font-size="10.00" fill="#000000">AMReX_iMultiFab.H</text>
</g>
<!-- Node11&#45;&gt;Node24 -->
<g id="edge49" class="edge">
<title>Node11&#45;&gt;Node24</title>
<path fill="none" stroke="#191970" d="M534.5809,-180.5684C429.7628,-175.3678 242.6419,-162.098 182.5918,-132 160.81,-121.0826 142.4597,-99.4584 131.2806,-83.9345"/>
<polygon fill="#191970" stroke="#191970" points="134.1117,-81.8746 125.5555,-75.6262 128.3477,-85.8465 134.1117,-81.8746"/>
</g>
<!-- Node25 -->
<g id="node26" class="node">
<title>Node25</title>
<g id="a_node26"><a xlink:href="_scratch_field_8_h.html" target="_top" xlink:title="amr&#45;wind/core/ScratchField.H">
<polygon fill="#ffffff" stroke="#000000" points="528.5918,-112.5 528.5918,-131.5 686.5918,-131.5 686.5918,-112.5 528.5918,-112.5"/>
<text text-anchor="middle" x="607.5918" y="-119.5" font-family="Helvetica,sans-Serif" font-size="10.00" fill="#000000">amr&#45;wind/core/ScratchField.H</text>
</a>
</g>
</g>
<!-- Node11&#45;&gt;Node25 -->
<g id="edge40" class="edge">
<title>Node11&#45;&gt;Node25</title>
<path fill="none" stroke="#191970" d="M607.5918,-173.8906C607.5918,-165.3657 607.5918,-152.6392 607.5918,-141.9235"/>
<polygon fill="#191970" stroke="#191970" points="611.0919,-141.7448 607.5918,-131.7449 604.0919,-141.7449 611.0919,-141.7448"/>
</g>
<!-- Node27 -->
<g id="node28" class="node">
<title>Node27</title>
<polygon fill="#ffffff" stroke="#bfbfbf" points="25.0918,-112.5 25.0918,-131.5 134.0918,-131.5 134.0918,-112.5 25.0918,-112.5"/>
<text text-anchor="middle" x="79.5918" y="-119.5" font-family="Helvetica,sans-Serif" font-size="10.00" fill="#000000">AMReX_AmrCore.H</text>
</g>
<!-- Node11&#45;&gt;Node27 -->
<g id="edge47" class="edge">
<title>Node11&#45;&gt;Node27</title>
<path fill="none" stroke="#191970" d="M534.3684,-176.0188C443.7032,-166.5864 284.5937,-149.4803 148.5918,-132 147.1286,-131.8119 145.6484,-131.6191 144.156,-131.4224"/>
<polygon fill="#191970" stroke="#191970" points="144.561,-127.9454 134.1829,-130.0772 143.6252,-134.8826 144.561,-127.9454"/>
</g>
<!-- Node13&#45;&gt;Node8 -->
<g id="edge18" class="edge">
<title>Node13&#45;&gt;Node8</title>
<path fill="none" stroke="#191970" d="M1304.7434,-56.8308C1301.6534,-56.532 1298.5929,-56.2531 1295.5918,-56 1126.4794,-41.7351 626.473,-21.7703 413.9432,-13.6503"/>
<polygon fill="#191970" stroke="#191970" points="413.8615,-10.1447 403.7353,-13.261 413.5946,-17.1396 413.8615,-10.1447"/>
</g>
<!-- Node13&#45;&gt;Node14 -->
<g id="edge19" class="edge">
<title>Node13&#45;&gt;Node14</title>
<path fill="none" stroke="#191970" d="M1400.9711,-56.3733C1423.0963,-47.2629 1456.5052,-33.5062 1481.1937,-23.3404"/>
<polygon fill="#191970" stroke="#191970" points="1482.6035,-26.5451 1490.5177,-19.5011 1479.9382,-20.0723 1482.6035,-26.5451"/>
</g>
<!-- Node15 -->
<g id="node16" class="node">
<title>Node15</title>
<polygon fill="#ffffff" stroke="#bfbfbf" points="1316.5918,-.5 1316.5918,-19.5 1438.5918,-19.5 1438.5918,-.5 1316.5918,-.5"/>
<text text-anchor="middle" x="1377.5918" y="-7.5" font-family="Helvetica,sans-Serif" font-size="10.00" fill="#000000">AMReX_Interpolater.H</text>
</g>
<!-- Node13&#45;&gt;Node15 -->
<g id="edge20" class="edge">
<title>Node13&#45;&gt;Node15</title>
<path fill="none" stroke="#191970" d="M1377.5918,-56.2455C1377.5918,-48.9382 1377.5918,-38.6944 1377.5918,-29.7046"/>
<polygon fill="#191970" stroke="#191970" points="1381.0919,-29.6426 1377.5918,-19.6427 1374.0919,-29.6427 1381.0919,-29.6426"/>
</g>
<!-- Node16&#45;&gt;Node2 -->
<g id="edge24" class="edge">
<title>Node16&#45;&gt;Node2</title>
<path fill="none" stroke="#191970" d="M1144.618,-117.1039C1278.1881,-106.3877 1594.8449,-80.9826 1724.6189,-70.5709"/>
<polygon fill="#191970" stroke="#191970" points="1725.0557,-74.0472 1734.7437,-69.7586 1724.4958,-67.0696 1725.0557,-74.0472"/>
</g>
<!-- Node16&#45;&gt;Node4 -->
<g id="edge23" class="edge">
<title>Node16&#45;&gt;Node4</title>
<path fill="none" stroke="#191970" d="M1144.7295,-116.1048C1230.857,-107.7097 1392.8015,-91.5938 1530.5918,-76 1544.1454,-74.4661 1558.9595,-72.6718 1572.1694,-71.0298"/>
<polygon fill="#191970" stroke="#191970" points="1572.8772,-74.4686 1582.3649,-69.7535 1572.0076,-67.5228 1572.8772,-74.4686"/>
</g>
<!-- Node16&#45;&gt;Node8 -->
<g id="edge30" class="edge">
<title>Node16&#45;&gt;Node8</title>
<path fill="none" stroke="#191970" d="M1022.2981,-119.4378C929.4022,-114.8319 747.6677,-102.9909 595.5918,-76 561.2015,-69.8963 553.5178,-64.3052 519.5918,-56 469.1687,-43.6563 411.4124,-30.6809 370.431,-21.6698"/>
<polygon fill="#191970" stroke="#191970" points="371.1673,-18.2481 360.6496,-19.5242 369.6675,-25.0856 371.1673,-18.2481"/>
</g>
<!-- Node16&#45;&gt;Node12 -->
<g id="edge22" class="edge">
<title>Node16&#45;&gt;Node12</title>
<path fill="none" stroke="#191970" d="M1023.1084,-112.4913C972.6782,-104.1547 899.082,-91.0391 835.5918,-76 797.9209,-67.0768 692.7281,-35.6991 639.421,-19.6345"/>
<polygon fill="#191970" stroke="#191970" points="640.3775,-16.2673 629.7927,-16.7294 638.3554,-22.9689 640.3775,-16.2673"/>
</g>
<!-- Node16&#45;&gt;Node14 -->
<g id="edge26" class="edge">
<title>Node16&#45;&gt;Node14</title>
<path fill="none" stroke="#191970" d="M1144.6263,-118.772C1252.0894,-112.5607 1466.2547,-97.6208 1492.5918,-76 1506.0708,-64.9348 1511.0174,-45.2241 1512.7731,-30.2152"/>
<polygon fill="#191970" stroke="#191970" points="1516.2913,-30.1179 1513.5822,-19.8753 1509.3127,-29.5718 1516.2913,-30.1179"/>
</g>
<!-- Node17 -->
<g id="node18" class="node">
<title>Node17</title>
<polygon fill="#ffffff" stroke="#bfbfbf" points="1002.5918,-56.5 1002.5918,-75.5 1066.5918,-75.5 1066.5918,-56.5 1002.5918,-56.5"/>
<text text-anchor="middle" x="1034.5918" y="-63.5" font-family="Helvetica,sans-Serif" font-size="10.00" fill="#000000">algorithm</text>
</g>
<!-- Node16&#45;&gt;Node17 -->
<g id="edge25" class="edge">
<title>Node16&#45;&gt;Node17</title>
<path fill="none" stroke="#191970" d="M1075.0567,-112.2455C1068.1007,-104.2958 1058.1036,-92.8706 1049.7867,-83.3656"/>
<polygon fill="#191970" stroke="#191970" points="1052.2483,-80.8637 1043.0292,-75.6427 1046.9802,-85.4732 1052.2483,-80.8637"/>
</g>
<!-- Node18 -->
<g id="node19" class="node">
<title>Node18</title>
<polygon fill="#ffffff" stroke="#bfbfbf" points="1085.0918,-56.5 1085.0918,-75.5 1182.0918,-75.5 1182.0918,-56.5 1085.0918,-56.5"/>
<text text-anchor="middle" x="1133.5918" y="-63.5" font-family="Helvetica,sans-Serif" font-size="10.00" fill="#000000">AMReX_BCRec.H</text>
</g>
<!-- Node16&#45;&gt;Node18 -->
<g id="edge27" class="edge">
<title>Node16&#45;&gt;Node18</title>
<path fill="none" stroke="#191970" d="M1092.3012,-112.2455C1099.3991,-104.2958 1109.6003,-92.8706 1118.0868,-83.3656"/>
<polygon fill="#191970" stroke="#191970" points="1120.9329,-85.4331 1124.9823,-75.6427 1115.7113,-80.771 1120.9329,-85.4331"/>
</g>
<!-- Node19 -->
<g id="node20" class="node">
<title>Node19</title>
<polygon fill="#ffffff" stroke="#bfbfbf" points="1200.5918,-56.5 1200.5918,-75.5 1286.5918,-75.5 1286.5918,-56.5 1200.5918,-56.5"/>
<text text-anchor="middle" x="1243.5918" y="-63.5" font-family="Helvetica,sans-Serif" font-size="10.00" fill="#000000">AMReX_Gpu.H</text>
</g>
<!-- Node16&#45;&gt;Node19 -->
<g id="edge28" class="edge">
<title>Node16&#45;&gt;Node19</title>
<path fill="none" stroke="#191970" d="M1111.0968,-112.3733C1137.472,-103.1419 1177.477,-89.1402 1206.6276,-78.9375"/>
<polygon fill="#191970" stroke="#191970" points="1208.1634,-82.1082 1216.4458,-75.5011 1205.8509,-75.5012 1208.1634,-82.1082"/>
</g>
<!-- Node20 -->
<g id="node21" class="node">
<title>Node20</title>
<g id="a_node21"><a xlink:href="incflo__enums_8_h.html" target="_top" xlink:title="amr&#45;wind/incflo_enums.H">
<polygon fill="#ffffff" stroke="#000000" points="844.5918,-56.5 844.5918,-75.5 984.5918,-75.5 984.5918,-56.5 844.5918,-56.5"/>
<text text-anchor="middle" x="914.5918" y="-63.5" font-family="Helvetica,sans-Serif" font-size="10.00" fill="#000000">amr&#45;wind/incflo_enums.H</text>
</a>
</g>
</g>
<!-- Node16&#45;&gt;Node20 -->
<g id="edge29" class="edge">
<title>Node16&#45;&gt;Node20</title>
<path fill="none" stroke="#191970" d="M1054.5397,-112.3733C1026.4376,-103.0613 983.6865,-88.8953 952.8312,-78.671"/>
<polygon fill="#191970" stroke="#191970" points="953.8582,-75.3243 943.2649,-75.5011 951.6564,-81.969 953.8582,-75.3243"/>
</g>
<!-- Node21 -->
<g id="node22" class="node">
<title>Node21</title>
<g id="a_node22"><a xlink:href="_view_field_8_h.html" target="_top" xlink:title="amr&#45;wind/core/ViewField.H">
<polygon fill="#ffffff" stroke="#000000" points="604.5918,-56.5 604.5918,-75.5 750.5918,-75.5 750.5918,-56.5 604.5918,-56.5"/>
<text text-anchor="middle" x="677.5918" y="-63.5" font-family="Helvetica,sans-Serif" font-size="10.00" fill="#000000">amr&#45;wind/core/ViewField.H</text>
</a>
</g>
</g>
<!-- Node16&#45;&gt;Node21 -->
<g id="edge31" class="edge">
<title>Node16&#45;&gt;Node21</title>
<path fill="none" stroke="#191970" d="M1022.3699,-113.5556C951.5604,-103.7888 834.7824,-87.6815 757.0326,-76.9573"/>
<polygon fill="#191970" stroke="#191970" points="757.1883,-73.4458 746.8038,-75.5465 756.2318,-80.3801 757.1883,-73.4458"/>
</g>
<!-- Node21&#45;&gt;Node8 -->
<g id="edge33" class="edge">
<title>Node21&#45;&gt;Node8</title>
<path fill="none" stroke="#191970" d="M615.9439,-56.4369C552.7338,-46.6314 454.5176,-31.3957 387.9741,-21.0731"/>
<polygon fill="#191970" stroke="#191970" points="388.4038,-17.598 377.9855,-19.5237 387.3307,-24.5153 388.4038,-17.598"/>
</g>
<!-- Node21&#45;&gt;Node12 -->
<g id="edge32" class="edge">
<title>Node21&#45;&gt;Node12</title>
<path fill="none" stroke="#191970" d="M665.3988,-56.2455C654.9597,-47.8943 639.7264,-35.7076 627.5178,-25.9408"/>
<polygon fill="#191970" stroke="#191970" points="629.6403,-23.1566 619.6452,-19.6427 625.2674,-28.6227 629.6403,-23.1566"/>
</g>
<!-- Node21&#45;&gt;Node14 -->
<g id="edge34" class="edge">
<title>Node21&#45;&gt;Node14</title>
<path fill="none" stroke="#191970" d="M750.7438,-61.302C777.4448,-59.6052 807.8831,-57.6918 835.5918,-56 1107.5555,-39.3947 1176.6098,-48.4386 1447.5918,-20 1448.3482,-19.9206 1449.1092,-19.8387 1449.874,-19.7545"/>
<polygon fill="#191970" stroke="#191970" points="1450.4623,-23.2092 1459.9747,-18.5438 1449.6292,-16.2589 1450.4623,-23.2092"/>
</g>
<!-- Node22 -->
<g id="node23" class="node">
<title>Node22</title>
<polygon fill="#ffffff" stroke="#bfbfbf" points="768.5918,-.5 768.5918,-19.5 864.5918,-19.5 864.5918,-.5 768.5918,-.5"/>
<text text-anchor="middle" x="816.5918" y="-7.5" font-family="Helvetica,sans-Serif" font-size="10.00" fill="#000000">AMReX_Vector.H</text>
</g>
<!-- Node21&#45;&gt;Node22 -->
<g id="edge35" class="edge">
<title>Node21&#45;&gt;Node22</title>
<path fill="none" stroke="#191970" d="M701.4868,-56.3733C724.1001,-47.2629 758.246,-33.5062 783.4791,-23.3404"/>
<polygon fill="#191970" stroke="#191970" points="785.0411,-26.4845 793.0087,-19.5011 782.4252,-19.9917 785.0411,-26.4845"/>
</g>
<!-- Node23&#45;&gt;Node8 -->
<g id="edge38" class="edge">
<title>Node23&#45;&gt;Node8</title>
<path fill="none" stroke="#191970" d="M247.7427,-112.293C234.4054,-99.1433 214.8936,-75.1168 226.5918,-56 235.9328,-40.7354 252.1146,-30.3326 268.2044,-23.3404"/>
<polygon fill="#191970" stroke="#191970" points="269.6106,-26.548 277.6148,-19.6067 267.0289,-20.0414 269.6106,-26.548"/>
</g>
<!-- Node23&#45;&gt;Node12 -->
<g id="edge37" class="edge">
<title>Node23&#45;&gt;Node12</title>
<path fill="none" stroke="#191970" d="M267.5873,-112.0752C281.622,-97.272 310.2794,-69.6882 340.5918,-56 382.1294,-37.2428 513.7795,-20.5241 575.3115,-13.5062"/>
<polygon fill="#191970" stroke="#191970" points="575.7097,-16.9835 585.2555,-12.387 574.9268,-10.0274 575.7097,-16.9835"/>
</g>
<!-- Node23&#45;&gt;Node24 -->
<g id="edge39" class="edge">
<title>Node23&#45;&gt;Node24</title>
<path fill="none" stroke="#191970" d="M234.6969,-112.3733C212.0836,-103.2629 177.9377,-89.5062 152.7046,-79.3404"/>
<polygon fill="#191970" stroke="#191970" points="153.7584,-75.9917 143.175,-75.5011 151.1426,-82.4845 153.7584,-75.9917"/>
</g>
<!-- Node25&#45;&gt;Node8 -->
<g id="edge42" class="edge">
<title>Node25&#45;&gt;Node8</title>
<path fill="none" stroke="#191970" d="M531.3494,-112.4806C473.6541,-104.272 399.9944,-91.3378 373.5918,-76 353.8607,-64.5378 337.6054,-43.6952 327.5724,-28.4906"/>
<polygon fill="#191970" stroke="#191970" points="330.4445,-26.4834 322.1541,-19.8865 324.5212,-30.2135 330.4445,-26.4834"/>
</g>
<!-- Node25&#45;&gt;Node12 -->
<g id="edge41" class="edge">
<title>Node25&#45;&gt;Node12</title>
<path fill="none" stroke="#191970" d="M604.2791,-112.2724C601.3278,-103.0586 597.2301,-88.7706 595.5918,-76 593.5773,-60.2972 597.0859,-42.6611 600.8199,-29.5726"/>
<polygon fill="#191970" stroke="#191970" points="604.235,-30.3794 603.8933,-19.7901 597.5569,-28.2813 604.235,-30.3794"/>
</g>
<!-- Node25&#45;&gt;Node14 -->
<g id="edge44" class="edge">
<title>Node25&#45;&gt;Node14</title>
<path fill="none" stroke="#191970" d="M686.6398,-119.4584C891.389,-112.6444 1425.472,-93.3103 1459.5918,-76 1479.7097,-65.7934 1495.0098,-44.3545 1504.1,-28.6706"/>
<polygon fill="#191970" stroke="#191970" points="1507.2228,-30.2546 1508.945,-19.8007 1501.0796,-26.899 1507.2228,-30.2546"/>
</g>
<!-- Node25&#45;&gt;Node21 -->
<g id="edge43" class="edge">
<title>Node25&#45;&gt;Node21</title>
<path fill="none" stroke="#191970" d="M619.7849,-112.2455C630.2239,-103.8943 645.4573,-91.7076 657.6658,-81.9408"/>
<polygon fill="#191970" stroke="#191970" points="659.9162,-84.6227 665.5385,-75.6427 655.5433,-79.1566 659.9162,-84.6227"/>
</g>
<!-- Node25&#45;&gt;Node22 -->
<g id="edge45" class="edge">
<title>Node25&#45;&gt;Node22</title>
<path fill="none" stroke="#191970" d="M665.7472,-112.4466C695.5424,-105.6314 731.3855,-94.3252 759.5918,-76 778.7269,-63.5682 795.088,-42.8978 805.3088,-27.9987"/>
<polygon fill="#191970" stroke="#191970" points="808.2682,-29.8687 810.8492,-19.593 802.4235,-26.0163 808.2682,-29.8687"/>
</g>
<!-- Node26 -->
<g id="node27" class="node">
<title>Node26</title>
<polygon fill="#ffffff" stroke="#bfbfbf" points="382.5918,-56.5 382.5918,-75.5 510.5918,-75.5 510.5918,-56.5 382.5918,-56.5"/>
<text text-anchor="middle" x="446.5918" y="-63.5" font-family="Helvetica,sans-Serif" font-size="10.00" fill="#000000">AMReX_PhysBCFunct.H</text>
</g>
<!-- Node25&#45;&gt;Node26 -->
<g id="edge46" class="edge">
<title>Node25&#45;&gt;Node26</title>
<path fill="none" stroke="#191970" d="M579.9149,-112.3733C553.259,-103.1016 512.7681,-89.0178 483.4034,-78.804"/>
<polygon fill="#191970" stroke="#191970" points="484.5024,-75.4807 473.9076,-75.5011 482.2027,-82.0921 484.5024,-75.4807"/>
</g>
<!-- Node29&#45;&gt;Node10 -->
<g id="edge63" class="edge">
<title>Node29&#45;&gt;Node10</title>
<path fill="none" stroke="#191970" d="M1534.8079,-302.2967C1521.7973,-293.2163 1505.0797,-281.5488 1490.8061,-271.587"/>
<polygon fill="#191970" stroke="#191970" points="1492.493,-268.4962 1482.2895,-265.6432 1488.4867,-274.2365 1492.493,-268.4962"/>
</g>
<!-- Node29&#45;&gt;Node28 -->
<g id="edge64" class="edge">
<title>Node29&#45;&gt;Node28</title>
<path fill="none" stroke="#191970" d="M1501.3846,-302.4639C1457.2822,-290.4522 1396.2695,-273.835 1355.2183,-262.6544"/>
<polygon fill="#191970" stroke="#191970" points="1356.0602,-259.2562 1345.4918,-260.0053 1354.2206,-266.0102 1356.0602,-259.2562"/>
</g>
<!-- Node30 -->
<g id="node31" class="node">
<title>Node30</title>
<g id="a_node31"><a xlink:href="_multi_phase_8_h.html" target="_top" xlink:title="amr&#45;wind/physics/multiphase\l/MultiPhase.H">
<polygon fill="#ffffff" stroke="#000000" points="1551.5918,-235.5 1551.5918,-265.5 1711.5918,-265.5 1711.5918,-235.5 1551.5918,-235.5"/>
<text text-anchor="start" x="1559.5918" y="-253.5" font-family="Helvetica,sans-Serif" font-size="10.00" fill="#000000">amr&#45;wind/physics/multiphase</text>
<text text-anchor="middle" x="1631.5918" y="-242.5" font-family="Helvetica,sans-Serif" font-size="10.00" fill="#000000">/MultiPhase.H</text>
</a>
</g>
</g>
<!-- Node29&#45;&gt;Node30 -->
<g id="edge52" class="edge">
<title>Node29&#45;&gt;Node30</title>
<path fill="none" stroke="#191970" d="M1573.6105,-302.2967C1583.4874,-293.4733 1596.0987,-282.2072 1607.0357,-272.4368"/>
<polygon fill="#191970" stroke="#191970" points="1609.5146,-274.9155 1614.6405,-265.6432 1604.8511,-269.6952 1609.5146,-274.9155"/>
</g>
<!-- Node30&#45;&gt;Node16 -->
<g id="edge62" class="edge">
<title>Node30&#45;&gt;Node16</title>
<path fill="none" stroke="#191970" d="M1567.3875,-235.4448C1457.1316,-209.591 1234.0345,-157.2772 1134.0537,-133.8328"/>
<polygon fill="#191970" stroke="#191970" points="1134.7328,-130.3971 1124.1978,-131.5217 1133.1347,-137.2123 1134.7328,-130.3971"/>
</g>
<!-- Node31 -->
<g id="node32" class="node">
<title>Node31</title>
<g id="a_node32"><a xlink:href="_physics_8_h.html" target="_top" xlink:title="amr&#45;wind/core/Physics.H">
<polygon fill="#ffffff" stroke="#000000" points="1855.0918,-174 1855.0918,-193 1992.0918,-193 1992.0918,-174 1855.0918,-174"/>
<text text-anchor="middle" x="1923.5918" y="-181" font-family="Helvetica,sans-Serif" font-size="10.00" fill="#000000">amr&#45;wind/core/Physics.H</text>
</a>
</g>
</g>
<!-- Node30&#45;&gt;Node31 -->
<g id="edge53" class="edge">
<title>Node30&#45;&gt;Node31</title>
<path fill="none" stroke="#191970" d="M1697.1223,-235.4639C1750.0249,-223.3253 1823.4265,-206.4831 1872.1578,-195.3016"/>
<polygon fill="#191970" stroke="#191970" points="1873.2018,-198.6531 1882.1658,-193.0053 1871.6363,-191.8304 1873.2018,-198.6531"/>
</g>
<!-- Node31&#45;&gt;Node3 -->
<g id="edge54" class="edge">
<title>Node31&#45;&gt;Node3</title>
<path fill="none" stroke="#191970" d="M1916.7168,-173.8906C1910.2325,-164.8273 1900.3504,-151.0149 1892.4118,-139.9188"/>
<polygon fill="#191970" stroke="#191970" points="1895.2289,-137.8412 1886.5638,-131.7449 1889.5359,-141.9143 1895.2289,-137.8412"/>
</g>
<!-- Node31&#45;&gt;Node14 -->
<g id="edge60" class="edge">
<title>Node31&#45;&gt;Node14</title>
<path fill="none" stroke="#191970" d="M1970.9292,-173.9398C2013.3725,-164.4518 2071.3828,-148.914 2087.5918,-132 2111.4135,-107.1422 2125.9701,-81.2753 2102.5918,-56 2084.9614,-36.939 1726.6309,-19.2486 1577.6705,-12.6887"/>
<polygon fill="#191970" stroke="#191970" points="1577.4582,-9.1761 1567.3148,-12.2357 1577.1522,-16.1695 1577.4582,-9.1761"/>
</g>
<!-- Node32 -->
<g id="node33" class="node">
<title>Node32</title>
<g id="a_node33"><a xlink:href="_coll_mgr_8_h.html" target="_top" xlink:title="amr&#45;wind/core/CollMgr.H">
<polygon fill="#ffffff" stroke="#000000" points="1582.5918,-112.5 1582.5918,-131.5 1718.5918,-131.5 1718.5918,-112.5 1582.5918,-112.5"/>
<text text-anchor="middle" x="1650.5918" y="-119.5" font-family="Helvetica,sans-Serif" font-size="10.00" fill="#000000">amr&#45;wind/core/CollMgr.H</text>
</a>
</g>
</g>
<!-- Node31&#45;&gt;Node32 -->
<g id="edge55" class="edge">
<title>Node31&#45;&gt;Node32</title>
<path fill="none" stroke="#191970" d="M1881.2351,-173.9581C1833.2161,-163.1406 1754.8908,-145.4959 1703.0468,-133.8168"/>
<polygon fill="#191970" stroke="#191970" points="1703.5726,-130.3476 1693.0479,-131.5643 1702.0342,-137.1765 1703.5726,-130.3476"/>
</g>
<!-- Node33 -->
<g id="node34" class="node">
<title>Node33</title>
<polygon fill="#ffffff" stroke="#bfbfbf" points="1965.0918,-112.5 1965.0918,-131.5 2078.0918,-131.5 2078.0918,-112.5 1965.0918,-112.5"/>
<text text-anchor="middle" x="2021.5918" y="-119.5" font-family="Helvetica,sans-Serif" font-size="10.00" fill="#000000">AMReX_Geometry.H</text>
</g>
<!-- Node31&#45;&gt;Node33 -->
<g id="edge61" class="edge">
<title>Node31&#45;&gt;Node33</title>
<path fill="none" stroke="#191970" d="M1938.9043,-173.8906C1954.6543,-164.0067 1979.4041,-148.4749 1997.7255,-136.9773"/>
<polygon fill="#191970" stroke="#191970" points="1999.777,-139.8221 2006.3868,-131.5419 1996.0561,-133.8929 1999.777,-139.8221"/>
</g>
<!-- Node32&#45;&gt;Node2 -->
<g id="edge58" class="edge">
<title>Node32&#45;&gt;Node2</title>
<path fill="none" stroke="#191970" d="M1673.1115,-112.3733C1694.329,-103.3032 1726.3194,-89.6279 1750.0687,-79.4755"/>
<polygon fill="#191970" stroke="#191970" points="1751.5467,-82.6502 1759.366,-75.5011 1748.7951,-76.2136 1751.5467,-82.6502"/>
</g>
<!-- Node32&#45;&gt;Node4 -->
<g id="edge57" class="edge">
<title>Node32&#45;&gt;Node4</title>
<path fill="none" stroke="#191970" d="M1643.7985,-112.2455C1638.374,-104.4564 1630.6257,-93.3308 1624.0885,-83.9439"/>
<polygon fill="#191970" stroke="#191970" points="1626.8944,-81.8485 1618.3073,-75.6427 1621.1501,-85.849 1626.8944,-81.8485"/>
</g>
<!-- Node32&#45;&gt;Node12 -->
<g id="edge56" class="edge">
<title>Node32&#45;&gt;Node12</title>
<path fill="none" stroke="#191970" d="M1654.0393,-112.3872C1658.5149,-97.9917 1664.1521,-70.933 1649.5918,-56 1615.0457,-20.5695 809.0071,-22.6245 759.5918,-20 718.2508,-17.8043 670.6326,-14.5547 639.8726,-12.3611"/>
<polygon fill="#191970" stroke="#191970" points="639.9586,-8.8583 629.7335,-11.6327 639.4569,-15.8403 639.9586,-8.8583"/>
</g>
<!-- Node32&#45;&gt;Node22 -->
<g id="edge59" class="edge">
<title>Node32&#45;&gt;Node22</title>
<path fill="none" stroke="#191970" d="M1661.5484,-112.4007C1676.1362,-98.5048 1698.364,-72.6322 1682.5918,-56 1654.7915,-26.6838 1064.6382,-14.1877 874.8317,-10.9173"/>
<polygon fill="#191970" stroke="#191970" points="874.8258,-7.4167 864.7677,-10.7461 874.7066,-14.4157 874.8258,-7.4167"/>
</g>
</g>
</svg>
