<?xml version="1.0" encoding="UTF-8" standalone="no"?>
<!DOCTYPE svg PUBLIC "-//W3C//DTD SVG 1.1//EN"
 "http://www.w3.org/Graphics/SVG/1.1/DTD/svg11.dtd">
<!-- Generated by graphviz version 2.40.1 (20161225.0304)
 -->
<!-- Title: TwoPhaseTransport.H Pages: 1 -->
<svg width="2205pt" height="319pt"
 viewBox="0.00 0.00 2205.00 319.00" xmlns="http://www.w3.org/2000/svg" xmlns:xlink="http://www.w3.org/1999/xlink">
<g id="graph0" class="graph" transform="scale(1 1) rotate(0) translate(4 315)">
<title>TwoPhaseTransport.H</title>
<polygon fill="#ffffff" stroke="transparent" points="-4,4 -4,-315 2201,-315 2201,4 -4,4"/>
<!-- Node0 -->
<g id="node1" class="node">
<title>Node0</title>
<polygon fill="#bfbfbf" stroke="#000000" points="687.5,-291.5 687.5,-310.5 807.5,-310.5 807.5,-291.5 687.5,-291.5"/>
<text text-anchor="middle" x="747.5" y="-298.5" font-family="Helvetica,sans-Serif" font-size="10.00" fill="#000000">TwoPhaseTransport.H</text>
</g>
<!-- Node1 -->
<g id="node2" class="node">
<title>Node1</title>
<g id="a_node2"><a xlink:href="_multi_phase_8_h.html" target="_top" xlink:title="amr&#45;wind/physics/multiphase\l/MultiPhase.H">
<polygon fill="#ffffff" stroke="#000000" points="667.5,-224.5 667.5,-254.5 827.5,-254.5 827.5,-224.5 667.5,-224.5"/>
<text text-anchor="start" x="675.5" y="-242.5" font-family="Helvetica,sans-Serif" font-size="10.00" fill="#000000">amr&#45;wind/physics/multiphase</text>
<text text-anchor="middle" x="747.5" y="-231.5" font-family="Helvetica,sans-Serif" font-size="10.00" fill="#000000">/MultiPhase.H</text>
</a>
</g>
</g>
<!-- Node0&#45;&gt;Node1 -->
<g id="edge1" class="edge">
<title>Node0&#45;&gt;Node1</title>
<path fill="none" stroke="#191970" d="M747.5,-291.3906C747.5,-284.2234 747.5,-274.0862 747.5,-264.671"/>
<polygon fill="#191970" stroke="#191970" points="751.0001,-264.5446 747.5,-254.5446 744.0001,-264.5446 751.0001,-264.5446"/>
</g>
<!-- Node21 -->
<g id="node22" class="node">
<title>Node21</title>
<g id="a_node22"><a xlink:href="_transport_model_8_h.html" target="_top" xlink:title="amr&#45;wind/transport\l_models/TransportModel.H">
<polygon fill="#ffffff" stroke="#000000" points="503.5,-224.5 503.5,-254.5 649.5,-254.5 649.5,-224.5 503.5,-224.5"/>
<text text-anchor="start" x="511.5" y="-242.5" font-family="Helvetica,sans-Serif" font-size="10.00" fill="#000000">amr&#45;wind/transport</text>
<text text-anchor="middle" x="576.5" y="-231.5" font-family="Helvetica,sans-Serif" font-size="10.00" fill="#000000">_models/TransportModel.H</text>
</a>
</g>
</g>
<!-- Node0&#45;&gt;Node21 -->
<g id="edge31" class="edge">
<title>Node0&#45;&gt;Node21</title>
<path fill="none" stroke="#191970" d="M720.7813,-291.3906C696.0313,-282.4893 658.5447,-269.0073 627.985,-258.0165"/>
<polygon fill="#191970" stroke="#191970" points="628.9258,-254.6355 618.3313,-254.5446 626.5567,-261.2224 628.9258,-254.6355"/>
</g>
<!-- Node30 -->
<g id="node31" class="node">
<title>Node30</title>
<polygon fill="#ffffff" stroke="#bfbfbf" points="846,-230 846,-249 963,-249 963,-230 846,-230"/>
<text text-anchor="middle" x="904.5" y="-237" font-family="Helvetica,sans-Serif" font-size="10.00" fill="#000000">AMReX_ParmParse.H</text>
</g>
<!-- Node0&#45;&gt;Node30 -->
<g id="edge56" class="edge">
<title>Node0&#45;&gt;Node30</title>
<path fill="none" stroke="#191970" d="M772.0313,-291.3906C798.5307,-281.0103 840.9331,-264.4004 870.607,-252.7766"/>
<polygon fill="#191970" stroke="#191970" points="872.1065,-255.9482 880.141,-249.0419 869.5533,-249.4304 872.1065,-255.9482"/>
</g>
<!-- Node2 -->
<g id="node3" class="node">
<title>Node2</title>
<g id="a_node3"><a xlink:href="_physics_8_h.html" target="_top" xlink:title="amr&#45;wind/core/Physics.H">
<polygon fill="#ffffff" stroke="#000000" points="563,-168.5 563,-187.5 700,-187.5 700,-168.5 563,-168.5"/>
<text text-anchor="middle" x="631.5" y="-175.5" font-family="Helvetica,sans-Serif" font-size="10.00" fill="#000000">amr&#45;wind/core/Physics.H</text>
</a>
</g>
</g>
<!-- Node1&#45;&gt;Node2 -->
<g id="edge2" class="edge">
<title>Node1&#45;&gt;Node2</title>
<path fill="none" stroke="#191970" d="M719.1232,-224.4554C700.6172,-214.644 676.6112,-201.9167 658.4069,-192.2653"/>
<polygon fill="#191970" stroke="#191970" points="659.9505,-189.1222 649.4759,-187.5303 656.6715,-195.3068 659.9505,-189.1222"/>
</g>
<!-- Node14 -->
<g id="node15" class="node">
<title>Node14</title>
<g id="a_node15"><a xlink:href="_field_8_h.html" target="_top" xlink:title="amr&#45;wind/core/Field.H">
<polygon fill="#ffffff" stroke="#000000" points="822.5,-112.5 822.5,-131.5 944.5,-131.5 944.5,-112.5 822.5,-112.5"/>
<text text-anchor="middle" x="883.5" y="-119.5" font-family="Helvetica,sans-Serif" font-size="10.00" fill="#000000">amr&#45;wind/core/Field.H</text>
</a>
</g>
</g>
<!-- Node1&#45;&gt;Node14 -->
<g id="edge16" class="edge">
<title>Node1&#45;&gt;Node14</title>
<path fill="none" stroke="#191970" d="M765.0012,-224.3795C790.6363,-202.2315 838.2072,-161.1316 864.6095,-138.3209"/>
<polygon fill="#191970" stroke="#191970" points="867.1044,-140.7907 872.3832,-131.6046 862.528,-135.4938 867.1044,-140.7907"/>
</g>
<!-- Node3 -->
<g id="node4" class="node">
<title>Node3</title>
<g id="a_node4"><a xlink:href="_factory_8_h.html" target="_top" xlink:title="amr&#45;wind/core/Factory.H">
<polygon fill="#ffffff" stroke="#000000" points="373.5,-112.5 373.5,-131.5 507.5,-131.5 507.5,-112.5 373.5,-112.5"/>
<text text-anchor="middle" x="440.5" y="-119.5" font-family="Helvetica,sans-Serif" font-size="10.00" fill="#000000">amr&#45;wind/core/Factory.H</text>
</a>
</g>
</g>
<!-- Node2&#45;&gt;Node3 -->
<g id="edge3" class="edge">
<title>Node2&#45;&gt;Node3</title>
<path fill="none" stroke="#191970" d="M598.6659,-168.3733C566.6305,-158.9807 517.7513,-144.6496 482.8145,-134.4064"/>
<polygon fill="#191970" stroke="#191970" points="483.4864,-130.9561 472.9056,-131.5011 481.5169,-137.6733 483.4864,-130.9561"/>
</g>
<!-- Node9 -->
<g id="node10" class="node">
<title>Node9</title>
<g id="a_node10"><a xlink:href="_coll_mgr_8_h.html" target="_top" xlink:title="amr&#45;wind/core/CollMgr.H">
<polygon fill="#ffffff" stroke="#000000" points="563.5,-112.5 563.5,-131.5 699.5,-131.5 699.5,-112.5 563.5,-112.5"/>
<text text-anchor="middle" x="631.5" y="-119.5" font-family="Helvetica,sans-Serif" font-size="10.00" fill="#000000">amr&#45;wind/core/CollMgr.H</text>
</a>
</g>
</g>
<!-- Node2&#45;&gt;Node9 -->
<g id="edge9" class="edge">
<title>Node2&#45;&gt;Node9</title>
<path fill="none" stroke="#191970" d="M631.5,-168.2455C631.5,-160.9382 631.5,-150.6944 631.5,-141.7046"/>
<polygon fill="#191970" stroke="#191970" points="635.0001,-141.6426 631.5,-131.6427 628.0001,-141.6427 635.0001,-141.6426"/>
</g>
<!-- Node12 -->
<g id="node13" class="node">
<title>Node12</title>
<polygon fill="#ffffff" stroke="#bfbfbf" points="1604,-.5 1604,-19.5 1711,-19.5 1711,-.5 1604,-.5"/>
<text text-anchor="middle" x="1657.5" y="-7.5" font-family="Helvetica,sans-Serif" font-size="10.00" fill="#000000">AMReX_MultiFab.H</text>
</g>
<!-- Node2&#45;&gt;Node12 -->
<g id="edge14" class="edge">
<title>Node2&#45;&gt;Node12</title>
<path fill="none" stroke="#191970" d="M700.2462,-176.6034C949.9054,-171.3712 1795.0753,-152.1947 1814.5,-132 1837.9159,-107.6559 1834.7501,-83.0346 1814.5,-56 1802.9331,-40.5578 1759.4253,-28.5504 1721.1365,-20.6812"/>
<polygon fill="#191970" stroke="#191970" points="1721.5139,-17.1879 1711.0234,-18.6713 1720.1493,-24.0536 1721.5139,-17.1879"/>
</g>
<!-- Node13 -->
<g id="node14" class="node">
<title>Node13</title>
<polygon fill="#ffffff" stroke="#bfbfbf" points="0,-112.5 0,-131.5 113,-131.5 113,-112.5 0,-112.5"/>
<text text-anchor="middle" x="56.5" y="-119.5" font-family="Helvetica,sans-Serif" font-size="10.00" fill="#000000">AMReX_Geometry.H</text>
</g>
<!-- Node2&#45;&gt;Node13 -->
<g id="edge15" class="edge">
<title>Node2&#45;&gt;Node13</title>
<path fill="none" stroke="#191970" d="M562.9132,-172.8095C465.8335,-165.2196 282.8559,-150.0193 127.5,-132 126.0316,-131.8297 124.5467,-131.6537 123.05,-131.4728"/>
<polygon fill="#191970" stroke="#191970" points="123.407,-127.9903 113.0492,-130.2188 122.536,-134.9359 123.407,-127.9903"/>
</g>
<!-- Node4 -->
<g id="node5" class="node">
<title>Node4</title>
<polygon fill="#ffffff" stroke="#bfbfbf" points="545.5,-56.5 545.5,-75.5 603.5,-75.5 603.5,-56.5 545.5,-56.5"/>
<text text-anchor="middle" x="574.5" y="-63.5" font-family="Helvetica,sans-Serif" font-size="10.00" fill="#000000">memory</text>
</g>
<!-- Node3&#45;&gt;Node4 -->
<g id="edge4" class="edge">
<title>Node3&#45;&gt;Node4</title>
<path fill="none" stroke="#191970" d="M463.5354,-112.3733C485.2388,-103.3032 517.9618,-89.6279 542.255,-79.4755"/>
<polygon fill="#191970" stroke="#191970" points="543.8881,-82.5865 551.7652,-75.5011 541.1889,-76.1278 543.8881,-82.5865"/>
</g>
<!-- Node5 -->
<g id="node6" class="node">
<title>Node5</title>
<polygon fill="#ffffff" stroke="#bfbfbf" points="434,-56.5 434,-75.5 527,-75.5 527,-56.5 434,-56.5"/>
<text text-anchor="middle" x="480.5" y="-63.5" font-family="Helvetica,sans-Serif" font-size="10.00" fill="#000000">unordered_map</text>
</g>
<!-- Node3&#45;&gt;Node5 -->
<g id="edge5" class="edge">
<title>Node3&#45;&gt;Node5</title>
<path fill="none" stroke="#191970" d="M447.4675,-112.2455C453.0311,-104.4564 460.978,-93.3308 467.6829,-83.9439"/>
<polygon fill="#191970" stroke="#191970" points="470.648,-85.8144 473.6124,-75.6427 464.9519,-81.7457 470.648,-85.8144"/>
</g>
<!-- Node6 -->
<g id="node7" class="node">
<title>Node6</title>
<polygon fill="#ffffff" stroke="#bfbfbf" points="169.5,-56.5 169.5,-75.5 229.5,-75.5 229.5,-56.5 169.5,-56.5"/>
<text text-anchor="middle" x="199.5" y="-63.5" font-family="Helvetica,sans-Serif" font-size="10.00" fill="#000000">iostream</text>
</g>
<!-- Node3&#45;&gt;Node6 -->
<g id="edge6" class="edge">
<title>Node3&#45;&gt;Node6</title>
<path fill="none" stroke="#191970" d="M397.0759,-112.4683C358.2754,-103.8714 299.6261,-90.6812 239.7259,-76.2536"/>
<polygon fill="#191970" stroke="#191970" points="240.2559,-72.781 229.7135,-73.8331 238.611,-79.585 240.2559,-72.781"/>
</g>
<!-- Node7 -->
<g id="node8" class="node">
<title>Node7</title>
<polygon fill="#ffffff" stroke="#bfbfbf" points="248,-56.5 248,-75.5 337,-75.5 337,-56.5 248,-56.5"/>
<text text-anchor="middle" x="292.5" y="-63.5" font-family="Helvetica,sans-Serif" font-size="10.00" fill="#000000">AMReX_Print.H</text>
</g>
<!-- Node3&#45;&gt;Node7 -->
<g id="edge7" class="edge">
<title>Node3&#45;&gt;Node7</title>
<path fill="none" stroke="#191970" d="M415.0579,-112.3733C390.7674,-103.1822 353.9792,-89.2624 327.0457,-79.0713"/>
<polygon fill="#191970" stroke="#191970" points="328.2016,-75.7666 317.6101,-75.5011 325.7243,-82.3136 328.2016,-75.7666"/>
</g>
<!-- Node8 -->
<g id="node9" class="node">
<title>Node8</title>
<polygon fill="#ffffff" stroke="#bfbfbf" points="355,-56.5 355,-75.5 416,-75.5 416,-56.5 355,-56.5"/>
<text text-anchor="middle" x="385.5" y="-63.5" font-family="Helvetica,sans-Serif" font-size="10.00" fill="#000000">AMReX.H</text>
</g>
<!-- Node3&#45;&gt;Node8 -->
<g id="edge8" class="edge">
<title>Node3&#45;&gt;Node8</title>
<path fill="none" stroke="#191970" d="M430.9197,-112.2455C422.9542,-104.1352 411.4359,-92.4075 401.9921,-82.7919"/>
<polygon fill="#191970" stroke="#191970" points="404.4747,-80.3247 394.9705,-75.6427 399.4805,-85.2297 404.4747,-80.3247"/>
</g>
<!-- Node9&#45;&gt;Node4 -->
<g id="edge11" class="edge">
<title>Node9&#45;&gt;Node4</title>
<path fill="none" stroke="#191970" d="M621.5714,-112.2455C613.3162,-104.1352 601.3791,-92.4075 591.5918,-82.7919"/>
<polygon fill="#191970" stroke="#191970" points="593.9011,-80.1542 584.3149,-75.6427 588.9954,-85.1476 593.9011,-80.1542"/>
</g>
<!-- Node9&#45;&gt;Node5 -->
<g id="edge12" class="edge">
<title>Node9&#45;&gt;Node5</title>
<path fill="none" stroke="#191970" d="M605.5422,-112.3733C580.7593,-103.1822 543.2254,-89.2624 515.746,-79.0713"/>
<polygon fill="#191970" stroke="#191970" points="516.7121,-75.6968 506.1191,-75.5011 514.2781,-82.26 516.7121,-75.6968"/>
</g>
<!-- Node10 -->
<g id="node11" class="node">
<title>Node10</title>
<polygon fill="#ffffff" stroke="#bfbfbf" points="896.5,-.5 896.5,-19.5 940.5,-19.5 940.5,-.5 896.5,-.5"/>
<text text-anchor="middle" x="918.5" y="-7.5" font-family="Helvetica,sans-Serif" font-size="10.00" fill="#000000">string</text>
</g>
<!-- Node9&#45;&gt;Node10 -->
<g id="edge10" class="edge">
<title>Node9&#45;&gt;Node10</title>
<path fill="none" stroke="#191970" d="M635.7579,-112.1106C642.657,-97.3538 657.7361,-69.8296 679.5,-56 713.423,-34.444 828.9112,-19.5229 886.0055,-13.2795"/>
<polygon fill="#191970" stroke="#191970" points="886.7082,-16.7244 896.2794,-12.181 885.964,-9.764 886.7082,-16.7244"/>
</g>
<!-- Node11 -->
<g id="node12" class="node">
<title>Node11</title>
<polygon fill="#ffffff" stroke="#bfbfbf" points="1233.5,-.5 1233.5,-19.5 1329.5,-19.5 1329.5,-.5 1233.5,-.5"/>
<text text-anchor="middle" x="1281.5" y="-7.5" font-family="Helvetica,sans-Serif" font-size="10.00" fill="#000000">AMReX_Vector.H</text>
</g>
<!-- Node9&#45;&gt;Node11 -->
<g id="edge13" class="edge">
<title>Node9&#45;&gt;Node11</title>
<path fill="none" stroke="#191970" d="M699.626,-117.3514C830.157,-108.2375 1106.3531,-87.8775 1148.5,-76 1189.1584,-64.542 1232.263,-40.7082 1258.0212,-25.0382"/>
<polygon fill="#191970" stroke="#191970" points="1260.0289,-27.9118 1266.6896,-19.6725 1256.3446,-21.9598 1260.0289,-27.9118"/>
</g>
<!-- Node14&#45;&gt;Node4 -->
<g id="edge18" class="edge">
<title>Node14&#45;&gt;Node4</title>
<path fill="none" stroke="#191970" d="M830.7321,-112.4369C769.1969,-101.2849 668.9033,-83.1087 613.8157,-73.1252"/>
<polygon fill="#191970" stroke="#191970" points="614.2144,-69.6405 603.7505,-71.3011 612.966,-76.5283 614.2144,-69.6405"/>
</g>
<!-- Node14&#45;&gt;Node5 -->
<g id="edge19" class="edge">
<title>Node14&#45;&gt;Node5</title>
<path fill="none" stroke="#191970" d="M822.2658,-114.7263C754.9435,-106.5395 643.3419,-92.4104 537.1526,-76.0447"/>
<polygon fill="#191970" stroke="#191970" points="537.6429,-72.579 527.2247,-74.5055 536.5704,-79.4963 537.6429,-72.579"/>
</g>
<!-- Node14&#45;&gt;Node10 -->
<g id="edge17" class="edge">
<title>Node14&#45;&gt;Node10</title>
<path fill="none" stroke="#191970" d="M822.2216,-115.7851C771.442,-109.2199 705.015,-96.8641 688.5,-76 682.9831,-69.0303 682.8645,-62.8742 688.5,-56 713.1176,-25.9714 828.6981,-15.1546 886.0528,-11.5904"/>
<polygon fill="#191970" stroke="#191970" points="886.5974,-15.0647 896.3767,-10.9885 886.1899,-8.0766 886.5974,-15.0647"/>
</g>
<!-- Node14&#45;&gt;Node12 -->
<g id="edge21" class="edge">
<title>Node14&#45;&gt;Node12</title>
<path fill="none" stroke="#191970" d="M944.7744,-120.7205C1073.7427,-117.4479 1369.1623,-106.743 1464.5,-76 1480.8224,-70.7366 1481.7879,-62.874 1497.5,-56 1531.3098,-41.2084 1571.1951,-29.7287 1602.6851,-21.9368"/>
<polygon fill="#191970" stroke="#191970" points="1603.7004,-25.2922 1612.5958,-19.5371 1602.053,-18.4888 1603.7004,-25.2922"/>
</g>
<!-- Node15 -->
<g id="node16" class="node">
<title>Node15</title>
<polygon fill="#ffffff" stroke="#bfbfbf" points="697.5,-56.5 697.5,-75.5 761.5,-75.5 761.5,-56.5 697.5,-56.5"/>
<text text-anchor="middle" x="729.5" y="-63.5" font-family="Helvetica,sans-Serif" font-size="10.00" fill="#000000">algorithm</text>
</g>
<!-- Node14&#45;&gt;Node15 -->
<g id="edge20" class="edge">
<title>Node14&#45;&gt;Node15</title>
<path fill="none" stroke="#191970" d="M857.0265,-112.3733C831.6403,-103.1419 793.1355,-89.1402 765.078,-78.9375"/>
<polygon fill="#191970" stroke="#191970" points="766.2222,-75.6293 755.6281,-75.5011 763.8299,-82.2079 766.2222,-75.6293"/>
</g>
<!-- Node16 -->
<g id="node17" class="node">
<title>Node16</title>
<polygon fill="#ffffff" stroke="#bfbfbf" points="780,-56.5 780,-75.5 877,-75.5 877,-56.5 780,-56.5"/>
<text text-anchor="middle" x="828.5" y="-63.5" font-family="Helvetica,sans-Serif" font-size="10.00" fill="#000000">AMReX_BCRec.H</text>
</g>
<!-- Node14&#45;&gt;Node16 -->
<g id="edge22" class="edge">
<title>Node14&#45;&gt;Node16</title>
<path fill="none" stroke="#191970" d="M873.9197,-112.2455C865.9542,-104.1352 854.4359,-92.4075 844.9921,-82.7919"/>
<polygon fill="#191970" stroke="#191970" points="847.4747,-80.3247 837.9705,-75.6427 842.4805,-85.2297 847.4747,-80.3247"/>
</g>
<!-- Node17 -->
<g id="node18" class="node">
<title>Node17</title>
<polygon fill="#ffffff" stroke="#bfbfbf" points="895.5,-56.5 895.5,-75.5 981.5,-75.5 981.5,-56.5 895.5,-56.5"/>
<text text-anchor="middle" x="938.5" y="-63.5" font-family="Helvetica,sans-Serif" font-size="10.00" fill="#000000">AMReX_Gpu.H</text>
</g>
<!-- Node14&#45;&gt;Node17 -->
<g id="edge23" class="edge">
<title>Node14&#45;&gt;Node17</title>
<path fill="none" stroke="#191970" d="M893.0803,-112.2455C901.0458,-104.1352 912.5641,-92.4075 922.0079,-82.7919"/>
<polygon fill="#191970" stroke="#191970" points="924.5195,-85.2297 929.0295,-75.6427 919.5253,-80.3247 924.5195,-85.2297"/>
</g>
<!-- Node18 -->
<g id="node19" class="node">
<title>Node18</title>
<g id="a_node19"><a xlink:href="incflo__enums_8_h.html" target="_top" xlink:title="amr&#45;wind/incflo_enums.H">
<polygon fill="#ffffff" stroke="#000000" points="999.5,-56.5 999.5,-75.5 1139.5,-75.5 1139.5,-56.5 999.5,-56.5"/>
<text text-anchor="middle" x="1069.5" y="-63.5" font-family="Helvetica,sans-Serif" font-size="10.00" fill="#000000">amr&#45;wind/incflo_enums.H</text>
</a>
</g>
</g>
<!-- Node14&#45;&gt;Node18 -->
<g id="edge24" class="edge">
<title>Node14&#45;&gt;Node18</title>
<path fill="none" stroke="#191970" d="M915.4745,-112.3733C946.6713,-102.9807 994.271,-88.6496 1028.2932,-78.4064"/>
<polygon fill="#191970" stroke="#191970" points="1029.3763,-81.7355 1037.9427,-75.5011 1027.3582,-75.0327 1029.3763,-81.7355"/>
</g>
<!-- Node19 -->
<g id="node20" class="node">
<title>Node19</title>
<g id="a_node20"><a xlink:href="_field_desc_types_8_h.html" target="_top" xlink:title="amr&#45;wind/core/FieldDescTypes.H">
<polygon fill="#ffffff" stroke="#000000" points="1865.5,-.5 1865.5,-19.5 2039.5,-19.5 2039.5,-.5 1865.5,-.5"/>
<text text-anchor="middle" x="1952.5" y="-7.5" font-family="Helvetica,sans-Serif" font-size="10.00" fill="#000000">amr&#45;wind/core/FieldDescTypes.H</text>
</a>
</g>
</g>
<!-- Node14&#45;&gt;Node19 -->
<g id="edge25" class="edge">
<title>Node14&#45;&gt;Node19</title>
<path fill="none" stroke="#191970" d="M944.6942,-120.3782C1138.4647,-115.0478 1730.7118,-97.1928 1814.5,-76 1857.1076,-65.2231 1902.2966,-40.7992 1928.9246,-24.8756"/>
<polygon fill="#191970" stroke="#191970" points="1930.8129,-27.8237 1937.5346,-19.634 1927.1729,-21.8445 1930.8129,-27.8237"/>
</g>
<!-- Node20 -->
<g id="node21" class="node">
<title>Node20</title>
<g id="a_node21"><a xlink:href="_view_field_8_h.html" target="_top" xlink:title="amr&#45;wind/core/ViewField.H">
<polygon fill="#ffffff" stroke="#000000" points="1309.5,-56.5 1309.5,-75.5 1455.5,-75.5 1455.5,-56.5 1309.5,-56.5"/>
<text text-anchor="middle" x="1382.5" y="-63.5" font-family="Helvetica,sans-Serif" font-size="10.00" fill="#000000">amr&#45;wind/core/ViewField.H</text>
</a>
</g>
</g>
<!-- Node14&#45;&gt;Node20 -->
<g id="edge26" class="edge">
<title>Node14&#45;&gt;Node20</title>
<path fill="none" stroke="#191970" d="M944.6872,-115.1333C1033.7563,-105.1376 1199.3746,-86.5512 1299.4052,-75.3253"/>
<polygon fill="#191970" stroke="#191970" points="1299.9263,-78.7888 1309.4736,-74.1953 1299.1456,-71.8325 1299.9263,-78.7888"/>
</g>
<!-- Node20&#45;&gt;Node10 -->
<g id="edge27" class="edge">
<title>Node20&#45;&gt;Node10</title>
<path fill="none" stroke="#191970" d="M1309.4896,-57.1884C1206.8383,-44.7995 1024.1735,-22.7537 950.5601,-13.8693"/>
<polygon fill="#191970" stroke="#191970" points="950.8602,-10.3802 940.5129,-12.6567 950.0214,-17.3298 950.8602,-10.3802"/>
</g>
<!-- Node20&#45;&gt;Node11 -->
<g id="edge30" class="edge">
<title>Node20&#45;&gt;Node11</title>
<path fill="none" stroke="#191970" d="M1364.9071,-56.2455C1349.121,-47.4928 1325.7361,-34.527 1307.7413,-24.5496"/>
<polygon fill="#191970" stroke="#191970" points="1309.3341,-21.4308 1298.8913,-19.6427 1305.9397,-27.5528 1309.3341,-21.4308"/>
</g>
<!-- Node20&#45;&gt;Node12 -->
<g id="edge29" class="edge">
<title>Node20&#45;&gt;Node12</title>
<path fill="none" stroke="#191970" d="M1429.4617,-56.4369C1476.9213,-46.7724 1550.2866,-31.8326 1600.9223,-21.5213"/>
<polygon fill="#191970" stroke="#191970" points="1601.6315,-24.9488 1610.732,-19.5237 1600.2347,-18.0895 1601.6315,-24.9488"/>
</g>
<!-- Node20&#45;&gt;Node19 -->
<g id="edge28" class="edge">
<title>Node20&#45;&gt;Node19</title>
<path fill="none" stroke="#191970" d="M1455.56,-58.8222C1557.3295,-48.8238 1741.9875,-30.6819 1855.2888,-19.5506"/>
<polygon fill="#191970" stroke="#191970" points="1855.7384,-23.0233 1865.3482,-18.5623 1855.0539,-16.0569 1855.7384,-23.0233"/>
</g>
<!-- Node21&#45;&gt;Node3 -->
<g id="edge32" class="edge">
<title>Node21&#45;&gt;Node3</title>
<path fill="none" stroke="#191970" d="M558.9988,-224.3795C533.3637,-202.2315 485.7928,-161.1316 459.3905,-138.3209"/>
<polygon fill="#191970" stroke="#191970" points="461.472,-135.4938 451.6168,-131.6046 456.8956,-140.7907 461.472,-135.4938"/>
</g>
<!-- Node22 -->
<g id="node23" class="node">
<title>Node22</title>
<g id="a_node23"><a xlink:href="_field_repo_8_h.html" target="_top" xlink:title="amr&#45;wind/core/FieldRepo.H">
<polygon fill="#ffffff" stroke="#000000" points="1441.5,-168.5 1441.5,-187.5 1587.5,-187.5 1587.5,-168.5 1441.5,-168.5"/>
<text text-anchor="middle" x="1514.5" y="-175.5" font-family="Helvetica,sans-Serif" font-size="10.00" fill="#000000">amr&#45;wind/core/FieldRepo.H</text>
</a>
</g>
</g>
<!-- Node21&#45;&gt;Node22 -->
<g id="edge33" class="edge">
<title>Node21&#45;&gt;Node22</title>
<path fill="none" stroke="#191970" d="M649.7424,-225.1553C652.6956,-224.7355 655.6233,-224.3476 658.5,-224 940.3232,-189.9455 1277.3933,-181.101 1430.9272,-178.8047"/>
<polygon fill="#191970" stroke="#191970" points="1431.2684,-182.3003 1441.2169,-178.6566 1431.1675,-175.301 1431.2684,-182.3003"/>
</g>
<!-- Node22&#45;&gt;Node5 -->
<g id="edge35" class="edge">
<title>Node22&#45;&gt;Node5</title>
<path fill="none" stroke="#191970" d="M1441.2566,-177.2977C1231.0514,-174.8906 635.6821,-165.19 554.5,-132 529.7618,-121.8862 507.8129,-99.7661 494.3683,-83.9217"/>
<polygon fill="#191970" stroke="#191970" points="496.843,-81.4182 487.8103,-75.881 491.4185,-85.8425 496.843,-81.4182"/>
</g>
<!-- Node22&#45;&gt;Node10 -->
<g id="edge34" class="edge">
<title>Node22&#45;&gt;Node10</title>
<path fill="none" stroke="#191970" d="M1441.2623,-177.2504C1222.0356,-174.662 573.3028,-164.4004 364.5,-132 271.5911,-117.5831 217.508,-150.7662 160.5,-76 155.1104,-68.9315 154.4079,-62.473 160.5,-56 185.7355,-29.1867 744.3112,-14.1376 886.0376,-10.7423"/>
<polygon fill="#191970" stroke="#191970" points="886.3345,-14.2363 896.2488,-10.5006 886.1688,-7.2383 886.3345,-14.2363"/>
</g>
<!-- Node22&#45;&gt;Node12 -->
<g id="edge54" class="edge">
<title>Node22&#45;&gt;Node12</title>
<path fill="none" stroke="#191970" d="M1587.5836,-172.9418C1680.4191,-165.7601 1830.6781,-151.3054 1847.5,-132 1869.6902,-106.5337 1868.3862,-82.5463 1847.5,-56 1831.8424,-36.0993 1769.8837,-23.7694 1720.9205,-16.946"/>
<polygon fill="#191970" stroke="#191970" points="1721.3823,-13.4766 1711.0052,-15.6134 1720.4499,-20.4143 1721.3823,-13.4766"/>
</g>
<!-- Node22&#45;&gt;Node14 -->
<g id="edge41" class="edge">
<title>Node22&#45;&gt;Node14</title>
<path fill="none" stroke="#191970" d="M1441.4999,-171.5214C1319.5081,-160.6949 1075.7137,-139.0586 954.8383,-128.3311"/>
<polygon fill="#191970" stroke="#191970" points="954.8589,-124.8193 944.5886,-127.4215 954.24,-131.7919 954.8589,-124.8193"/>
</g>
<!-- Node22&#45;&gt;Node19 -->
<g id="edge36" class="edge">
<title>Node22&#45;&gt;Node19</title>
<path fill="none" stroke="#191970" d="M1587.5505,-171.4028C1675.224,-162.9752 1816.7724,-147.6037 1867.5,-132 1920.314,-115.7545 1949.5347,-123.0558 1978.5,-76 1987.8205,-60.8584 1978.3586,-41.8037 1968.3352,-28.0655"/>
<polygon fill="#191970" stroke="#191970" points="1970.8152,-25.56 1961.859,-19.8999 1965.3307,-29.9098 1970.8152,-25.56"/>
</g>
<!-- Node23 -->
<g id="node24" class="node">
<title>Node23</title>
<g id="a_node24"><a xlink:href="_field_utils_8_h.html" target="_top" xlink:title="amr&#45;wind/core/FieldUtils.H">
<polygon fill="#ffffff" stroke="#000000" points="2052,-56.5 2052,-75.5 2197,-75.5 2197,-56.5 2052,-56.5"/>
<text text-anchor="middle" x="2124.5" y="-63.5" font-family="Helvetica,sans-Serif" font-size="10.00" fill="#000000">amr&#45;wind/core/FieldUtils.H</text>
</a>
</g>
</g>
<!-- Node22&#45;&gt;Node23 -->
<g id="edge37" class="edge">
<title>Node22&#45;&gt;Node23</title>
<path fill="none" stroke="#191970" d="M1587.6911,-176.5443C1711.6762,-173.2533 1957.3548,-162.9344 2037.5,-132 2065.4673,-121.2052 2092.0777,-98.5652 2108.3373,-82.8315"/>
<polygon fill="#191970" stroke="#191970" points="2110.8359,-85.2828 2115.4483,-75.7446 2105.8945,-80.3246 2110.8359,-85.2828"/>
</g>
<!-- Node25 -->
<g id="node26" class="node">
<title>Node25</title>
<g id="a_node26"><a xlink:href="_int_field_8_h.html" target="_top" xlink:title="amr&#45;wind/core/IntField.H">
<polygon fill="#ffffff" stroke="#000000" points="1670,-112.5 1670,-131.5 1805,-131.5 1805,-112.5 1670,-112.5"/>
<text text-anchor="middle" x="1737.5" y="-119.5" font-family="Helvetica,sans-Serif" font-size="10.00" fill="#000000">amr&#45;wind/core/IntField.H</text>
</a>
</g>
</g>
<!-- Node22&#45;&gt;Node25 -->
<g id="edge42" class="edge">
<title>Node22&#45;&gt;Node25</title>
<path fill="none" stroke="#191970" d="M1552.5817,-168.4369C1590.5059,-158.9133 1648.8289,-144.2672 1689.8126,-133.9753"/>
<polygon fill="#191970" stroke="#191970" points="1690.729,-137.3539 1699.5754,-131.5237 1689.024,-130.5647 1690.729,-137.3539"/>
</g>
<!-- Node26 -->
<g id="node27" class="node">
<title>Node26</title>
<polygon fill="#ffffff" stroke="#bfbfbf" points="1695.5,-56.5 1695.5,-75.5 1805.5,-75.5 1805.5,-56.5 1695.5,-56.5"/>
<text text-anchor="middle" x="1750.5" y="-63.5" font-family="Helvetica,sans-Serif" font-size="10.00" fill="#000000">AMReX_iMultiFab.H</text>
</g>
<!-- Node22&#45;&gt;Node26 -->
<g id="edge55" class="edge">
<title>Node22&#45;&gt;Node26</title>
<path fill="none" stroke="#191970" d="M1514.5254,-168.3399C1515.1155,-153.8827 1518.4553,-126.7445 1534.5,-112 1545.6918,-101.7151 1625.8984,-86.5215 1685.3246,-76.4469"/>
<polygon fill="#191970" stroke="#191970" points="1686.1305,-79.8606 1695.4122,-74.7518 1684.9704,-72.9574 1686.1305,-79.8606"/>
</g>
<!-- Node27 -->
<g id="node28" class="node">
<title>Node27</title>
<g id="a_node28"><a xlink:href="_scratch_field_8_h.html" target="_top" xlink:title="amr&#45;wind/core/ScratchField.H">
<polygon fill="#ffffff" stroke="#000000" points="1328.5,-112.5 1328.5,-131.5 1486.5,-131.5 1486.5,-112.5 1328.5,-112.5"/>
<text text-anchor="middle" x="1407.5" y="-119.5" font-family="Helvetica,sans-Serif" font-size="10.00" fill="#000000">amr&#45;wind/core/ScratchField.H</text>
</a>
</g>
</g>
<!-- Node22&#45;&gt;Node27 -->
<g id="edge46" class="edge">
<title>Node22&#45;&gt;Node27</title>
<path fill="none" stroke="#191970" d="M1495.862,-168.2455C1479.0614,-159.4527 1454.1366,-146.4079 1435.0382,-136.4125"/>
<polygon fill="#191970" stroke="#191970" points="1436.4073,-133.1787 1425.9244,-131.6427 1433.1614,-139.3807 1436.4073,-133.1787"/>
</g>
<!-- Node29 -->
<g id="node30" class="node">
<title>Node29</title>
<polygon fill="#ffffff" stroke="#bfbfbf" points="1543,-112.5 1543,-131.5 1652,-131.5 1652,-112.5 1543,-112.5"/>
<text text-anchor="middle" x="1597.5" y="-119.5" font-family="Helvetica,sans-Serif" font-size="10.00" fill="#000000">AMReX_AmrCore.H</text>
</g>
<!-- Node22&#45;&gt;Node29 -->
<g id="edge53" class="edge">
<title>Node22&#45;&gt;Node29</title>
<path fill="none" stroke="#191970" d="M1528.9575,-168.2455C1541.5732,-159.7337 1560.0944,-147.2375 1574.7045,-137.3801"/>
<polygon fill="#191970" stroke="#191970" points="1576.8761,-140.1371 1583.2082,-131.6427 1572.9609,-134.3343 1576.8761,-140.1371"/>
</g>
<!-- Node23&#45;&gt;Node12 -->
<g id="edge39" class="edge">
<title>Node23&#45;&gt;Node12</title>
<path fill="none" stroke="#191970" d="M2051.7876,-57.2807C1961.1312,-46.4097 1807.6156,-28.001 1721.3171,-17.6526"/>
<polygon fill="#191970" stroke="#191970" points="1721.4805,-14.1472 1711.1349,-16.4316 1720.647,-21.0974 1721.4805,-14.1472"/>
</g>
<!-- Node23&#45;&gt;Node19 -->
<g id="edge38" class="edge">
<title>Node23&#45;&gt;Node19</title>
<path fill="none" stroke="#191970" d="M2094.9321,-56.3733C2066.3312,-47.0613 2022.8212,-32.8953 1991.4181,-22.671"/>
<polygon fill="#191970" stroke="#191970" points="1992.2743,-19.269 1981.682,-19.5011 1990.1072,-25.9251 1992.2743,-19.269"/>
</g>
<!-- Node24 -->
<g id="node25" class="node">
<title>Node24</title>
<polygon fill="#ffffff" stroke="#bfbfbf" points="2063.5,-.5 2063.5,-19.5 2185.5,-19.5 2185.5,-.5 2063.5,-.5"/>
<text text-anchor="middle" x="2124.5" y="-7.5" font-family="Helvetica,sans-Serif" font-size="10.00" fill="#000000">AMReX_Interpolater.H</text>
</g>
<!-- Node23&#45;&gt;Node24 -->
<g id="edge40" class="edge">
<title>Node23&#45;&gt;Node24</title>
<path fill="none" stroke="#191970" d="M2124.5,-56.2455C2124.5,-48.9382 2124.5,-38.6944 2124.5,-29.7046"/>
<polygon fill="#191970" stroke="#191970" points="2128.0001,-29.6426 2124.5,-19.6427 2121.0001,-29.6427 2128.0001,-29.6426"/>
</g>
<!-- Node25&#45;&gt;Node10 -->
<g id="edge43" class="edge">
<title>Node25&#45;&gt;Node10</title>
<path fill="none" stroke="#191970" d="M1669.9686,-113.0023C1667.1084,-112.6566 1664.2762,-112.321 1661.5,-112 1501.3268,-93.4805 1460.268,-97.7397 1300.5,-76 1291.7599,-74.8107 1041.0263,-31.2855 950.6119,-15.5796"/>
<polygon fill="#191970" stroke="#191970" points="951.1028,-12.1125 940.6512,-13.8492 949.9046,-19.0092 951.1028,-12.1125"/>
</g>
<!-- Node25&#45;&gt;Node19 -->
<g id="edge44" class="edge">
<title>Node25&#45;&gt;Node19</title>
<path fill="none" stroke="#191970" d="M1805.2248,-117.331C1863.788,-111.7159 1942.0235,-99.8826 1961.5,-76 1972.0861,-63.019 1967.812,-43.599 1962.1044,-29.1818"/>
<polygon fill="#191970" stroke="#191970" points="1965.1586,-27.4372 1957.8871,-19.7316 1958.7663,-30.2899 1965.1586,-27.4372"/>
</g>
<!-- Node25&#45;&gt;Node26 -->
<g id="edge45" class="edge">
<title>Node25&#45;&gt;Node26</title>
<path fill="none" stroke="#191970" d="M1739.7644,-112.2455C1741.4794,-104.8579 1743.8912,-94.4689 1745.9944,-85.4087"/>
<polygon fill="#191970" stroke="#191970" points="1749.4095,-86.1751 1748.2615,-75.6427 1742.5908,-84.5922 1749.4095,-86.1751"/>
</g>
<!-- Node27&#45;&gt;Node10 -->
<g id="edge47" class="edge">
<title>Node27&#45;&gt;Node10</title>
<path fill="none" stroke="#191970" d="M1344.5887,-112.4633C1300.9545,-104.9178 1241.863,-92.8347 1191.5,-76 1171.5101,-69.318 1168.5311,-62.5576 1148.5,-56 1079.7102,-33.4802 995.5633,-20.0563 950.549,-13.9539"/>
<polygon fill="#191970" stroke="#191970" points="950.8778,-10.467 940.5054,-12.6265 949.9606,-17.4067 950.8778,-10.467"/>
</g>
<!-- Node27&#45;&gt;Node11 -->
<g id="edge51" class="edge">
<title>Node27&#45;&gt;Node11</title>
<path fill="none" stroke="#191970" d="M1363.1139,-112.4267C1341.4685,-105.6333 1316.6795,-94.3531 1300.5,-76 1289.3008,-63.2963 1284.68,-44.3732 1282.7853,-30.0422"/>
<polygon fill="#191970" stroke="#191970" points="1286.2345,-29.3514 1281.7767,-19.7401 1279.2678,-30.0335 1286.2345,-29.3514"/>
</g>
<!-- Node27&#45;&gt;Node12 -->
<g id="edge50" class="edge">
<title>Node27&#45;&gt;Node12</title>
<path fill="none" stroke="#191970" d="M1425.7653,-112.3102C1451.181,-98.9718 1498.7958,-74.5049 1540.5,-56 1567.383,-44.0716 1598.3816,-31.9557 1621.715,-23.1547"/>
<polygon fill="#191970" stroke="#191970" points="1623.0755,-26.3826 1631.2113,-19.596 1620.619,-19.8278 1623.0755,-26.3826"/>
</g>
<!-- Node27&#45;&gt;Node19 -->
<g id="edge48" class="edge">
<title>Node27&#45;&gt;Node19</title>
<path fill="none" stroke="#191970" d="M1486.7424,-115.4494C1630.3079,-103.5123 1919.1113,-79.1521 1923.5,-76 1938.5512,-65.1898 1945.8929,-44.8065 1949.4082,-29.5397"/>
<polygon fill="#191970" stroke="#191970" points="1952.88,-30.0209 1951.3471,-19.5375 1946.0079,-28.6886 1952.88,-30.0209"/>
</g>
<!-- Node27&#45;&gt;Node20 -->
<g id="edge49" class="edge">
<title>Node27&#45;&gt;Node20</title>
<path fill="none" stroke="#191970" d="M1403.1453,-112.2455C1399.7756,-104.6973 1395.007,-94.0158 1390.9017,-84.8197"/>
<polygon fill="#191970" stroke="#191970" points="1394.0773,-83.3473 1386.8048,-75.6427 1387.6853,-86.2009 1394.0773,-83.3473"/>
</g>
<!-- Node28 -->
<g id="node29" class="node">
<title>Node28</title>
<polygon fill="#ffffff" stroke="#bfbfbf" points="1549.5,-56.5 1549.5,-75.5 1677.5,-75.5 1677.5,-56.5 1549.5,-56.5"/>
<text text-anchor="middle" x="1613.5" y="-63.5" font-family="Helvetica,sans-Serif" font-size="10.00" fill="#000000">AMReX_PhysBCFunct.H</text>
</g>
<!-- Node27&#45;&gt;Node28 -->
<g id="edge52" class="edge">
<title>Node27&#45;&gt;Node28</title>
<path fill="none" stroke="#191970" d="M1442.9127,-112.3733C1477.7605,-102.9001 1531.0882,-88.4032 1568.8293,-78.1435"/>
<polygon fill="#191970" stroke="#191970" points="1569.8178,-81.5019 1578.5494,-75.5011 1567.9815,-74.747 1569.8178,-81.5019"/>
</g>
</g>
</svg>
