<?xml version="1.0" encoding="UTF-8" standalone="no"?>
<!DOCTYPE svg PUBLIC "-//W3C//DTD SVG 1.1//EN"
 "http://www.w3.org/Graphics/SVG/1.1/DTD/svg11.dtd">
<!-- Generated by graphviz version 2.40.1 (20161225.0304)
 -->
<!-- Title: UDF.cpp Pages: 1 -->
<svg width="2093pt" height="263pt"
 viewBox="0.00 0.00 2093.00 263.00" xmlns="http://www.w3.org/2000/svg" xmlns:xlink="http://www.w3.org/1999/xlink">
<g id="graph0" class="graph" transform="scale(1 1) rotate(0) translate(4 259)">
<title>UDF.cpp</title>
<polygon fill="#ffffff" stroke="transparent" points="-4,4 -4,-259 2089,-259 2089,4 -4,4"/>
<!-- Node0 -->
<g id="node1" class="node">
<title>Node0</title>
<polygon fill="#bfbfbf" stroke="#000000" points="1622.5,-235.5 1622.5,-254.5 1678.5,-254.5 1678.5,-235.5 1622.5,-235.5"/>
<text text-anchor="middle" x="1650.5" y="-242.5" font-family="Helvetica,sans-Serif" font-size="10.00" fill="#000000">UDF.cpp</text>
</g>
<!-- Node1 -->
<g id="node2" class="node">
<title>Node1</title>
<g id="a_node2"><a xlink:href="_u_d_f_8_h.html" target="_top" xlink:title="amr&#45;wind/physics/udfs\l/UDF.H">
<polygon fill="#ffffff" stroke="#000000" points="1250.5,-168.5 1250.5,-198.5 1376.5,-198.5 1376.5,-168.5 1250.5,-168.5"/>
<text text-anchor="start" x="1258.5" y="-186.5" font-family="Helvetica,sans-Serif" font-size="10.00" fill="#000000">amr&#45;wind/physics/udfs</text>
<text text-anchor="middle" x="1313.5" y="-175.5" font-family="Helvetica,sans-Serif" font-size="10.00" fill="#000000">/UDF.H</text>
</a>
</g>
</g>
<!-- Node0&#45;&gt;Node1 -->
<g id="edge1" class="edge">
<title>Node0&#45;&gt;Node1</title>
<path fill="none" stroke="#191970" d="M1622.374,-240.2471C1574.6362,-232.1301 1474.7282,-214.9262 1390.5,-199 1389.2187,-198.7577 1387.9258,-198.5119 1386.6237,-198.2632"/>
<polygon fill="#191970" stroke="#191970" points="1386.9909,-194.7695 1376.5085,-196.3091 1385.6631,-201.6424 1386.9909,-194.7695"/>
</g>
<!-- Node9 -->
<g id="node10" class="node">
<title>Node9</title>
<g id="a_node10"><a xlink:href="_field_8_h.html" target="_top" xlink:title="amr&#45;wind/core/Field.H">
<polygon fill="#ffffff" stroke="#000000" points="740.5,-112.5 740.5,-131.5 862.5,-131.5 862.5,-112.5 740.5,-112.5"/>
<text text-anchor="middle" x="801.5" y="-119.5" font-family="Helvetica,sans-Serif" font-size="10.00" fill="#000000">amr&#45;wind/core/Field.H</text>
</a>
</g>
</g>
<!-- Node0&#45;&gt;Node9 -->
<g id="edge9" class="edge">
<title>Node0&#45;&gt;Node9</title>
<path fill="none" stroke="#191970" d="M1622.2401,-243.6176C1577.9069,-240.516 1490.192,-230.5698 1423.5,-199 1403.7998,-189.6746 1405.7594,-176.0386 1385.5,-168 1280.9243,-126.506 992.4612,-143.0685 880.5,-132 877.972,-131.7501 875.4,-131.4845 872.8031,-131.2069"/>
<polygon fill="#191970" stroke="#191970" points="873.031,-127.7107 862.7052,-130.0833 872.2568,-134.6678 873.031,-127.7107"/>
</g>
<!-- Node18 -->
<g id="node19" class="node">
<title>Node18</title>
<g id="a_node19"><a xlink:href="_field_repo_8_h.html" target="_top" xlink:title="amr&#45;wind/core/FieldRepo.H">
<polygon fill="#ffffff" stroke="#000000" points="1432.5,-174 1432.5,-193 1578.5,-193 1578.5,-174 1432.5,-174"/>
<text text-anchor="middle" x="1505.5" y="-181" font-family="Helvetica,sans-Serif" font-size="10.00" fill="#000000">amr&#45;wind/core/FieldRepo.H</text>
</a>
</g>
</g>
<!-- Node0&#45;&gt;Node18 -->
<g id="edge24" class="edge">
<title>Node0&#45;&gt;Node18</title>
<path fill="none" stroke="#191970" d="M1627.8438,-235.3906C1603.5826,-225.1005 1564.8882,-208.6888 1537.52,-197.0809"/>
<polygon fill="#191970" stroke="#191970" points="1538.57,-193.7245 1527.9972,-193.0419 1535.8367,-200.1688 1538.57,-193.7245"/>
</g>
<!-- Node26 -->
<g id="node27" class="node">
<title>Node26</title>
<g id="a_node27"><a xlink:href="_linear_profile_8_h.html" target="_top" xlink:title="amr&#45;wind/physics/udfs\l/LinearProfile.H">
<polygon fill="#ffffff" stroke="#000000" points="1679.5,-168.5 1679.5,-198.5 1805.5,-198.5 1805.5,-168.5 1679.5,-168.5"/>
<text text-anchor="start" x="1687.5" y="-186.5" font-family="Helvetica,sans-Serif" font-size="10.00" fill="#000000">amr&#45;wind/physics/udfs</text>
<text text-anchor="middle" x="1742.5" y="-175.5" font-family="Helvetica,sans-Serif" font-size="10.00" fill="#000000">/LinearProfile.H</text>
</a>
</g>
</g>
<!-- Node0&#45;&gt;Node26 -->
<g id="edge47" class="edge">
<title>Node0&#45;&gt;Node26</title>
<path fill="none" stroke="#191970" d="M1664.875,-235.3906C1677.3261,-227.0673 1695.7686,-214.7389 1711.5534,-204.1872"/>
<polygon fill="#191970" stroke="#191970" points="1713.6258,-207.0118 1719.9943,-198.5446 1709.7356,-201.1923 1713.6258,-207.0118"/>
</g>
<!-- Node28 -->
<g id="node29" class="node">
<title>Node28</title>
<g id="a_node29"><a xlink:href="_power_law_profile_8_h.html" target="_top" xlink:title="amr&#45;wind/physics/udfs\l/PowerLawProfile.H">
<polygon fill="#ffffff" stroke="#000000" points="1823.5,-168.5 1823.5,-198.5 1949.5,-198.5 1949.5,-168.5 1823.5,-168.5"/>
<text text-anchor="start" x="1831.5" y="-186.5" font-family="Helvetica,sans-Serif" font-size="10.00" fill="#000000">amr&#45;wind/physics/udfs</text>
<text text-anchor="middle" x="1886.5" y="-175.5" font-family="Helvetica,sans-Serif" font-size="10.00" fill="#000000">/PowerLawProfile.H</text>
</a>
</g>
</g>
<!-- Node0&#45;&gt;Node28 -->
<g id="edge50" class="edge">
<title>Node0&#45;&gt;Node28</title>
<path fill="none" stroke="#191970" d="M1678.9671,-237.5817C1713.4178,-228.604 1772.5686,-213.1897 1818.9283,-201.1087"/>
<polygon fill="#191970" stroke="#191970" points="1819.8191,-204.4936 1828.6133,-198.5849 1818.0538,-197.7198 1819.8191,-204.4936"/>
</g>
<!-- Node29 -->
<g id="node30" class="node">
<title>Node29</title>
<polygon fill="#ffffff" stroke="#bfbfbf" points="1968,-174 1968,-193 2085,-193 2085,-174 1968,-174"/>
<text text-anchor="middle" x="2026.5" y="-181" font-family="Helvetica,sans-Serif" font-size="10.00" fill="#000000">AMReX_ParmParse.H</text>
</g>
<!-- Node0&#45;&gt;Node29 -->
<g id="edge53" class="edge">
<title>Node0&#45;&gt;Node29</title>
<path fill="none" stroke="#191970" d="M1678.648,-241.5229C1732.9704,-234.6521 1855.9573,-218.3155 1958.5,-199 1964.5909,-197.8527 1970.9646,-196.5445 1977.2647,-195.1856"/>
<polygon fill="#191970" stroke="#191970" points="1978.0427,-198.5982 1987.0528,-193.0244 1976.5333,-191.7629 1978.0427,-198.5982"/>
</g>
<!-- Node2 -->
<g id="node3" class="node">
<title>Node2</title>
<g id="a_node3"><a xlink:href="_factory_8_h.html" target="_top" xlink:title="amr&#45;wind/core/Factory.H">
<polygon fill="#ffffff" stroke="#000000" points="197.5,-112.5 197.5,-131.5 331.5,-131.5 331.5,-112.5 197.5,-112.5"/>
<text text-anchor="middle" x="264.5" y="-119.5" font-family="Helvetica,sans-Serif" font-size="10.00" fill="#000000">amr&#45;wind/core/Factory.H</text>
</a>
</g>
</g>
<!-- Node1&#45;&gt;Node2 -->
<g id="edge2" class="edge">
<title>Node1&#45;&gt;Node2</title>
<path fill="none" stroke="#191970" d="M1250.2427,-179.7914C1067.706,-169.0898 540.4462,-138.178 341.612,-126.5209"/>
<polygon fill="#191970" stroke="#191970" points="341.7298,-123.0219 331.542,-125.9305 341.32,-130.0099 341.7298,-123.0219"/>
</g>
<!-- Node8 -->
<g id="node9" class="node">
<title>Node8</title>
<polygon fill="#ffffff" stroke="#bfbfbf" points="1664.5,-56.5 1664.5,-75.5 1750.5,-75.5 1750.5,-56.5 1664.5,-56.5"/>
<text text-anchor="middle" x="1707.5" y="-63.5" font-family="Helvetica,sans-Serif" font-size="10.00" fill="#000000">AMReX_Gpu.H</text>
</g>
<!-- Node1&#45;&gt;Node8 -->
<g id="edge8" class="edge">
<title>Node1&#45;&gt;Node8</title>
<path fill="none" stroke="#191970" d="M1324.3766,-168.297C1337.3384,-151.4661 1360.6477,-125.0001 1387.5,-112 1492.8187,-61.0118 1534.6679,-93.533 1654.4937,-76.0178"/>
<polygon fill="#191970" stroke="#191970" points="1655.0572,-79.4724 1664.4032,-74.4821 1653.9851,-72.5549 1655.0572,-79.4724"/>
</g>
<!-- Node3 -->
<g id="node4" class="node">
<title>Node3</title>
<polygon fill="#ffffff" stroke="#bfbfbf" points="376.5,-56.5 376.5,-75.5 434.5,-75.5 434.5,-56.5 376.5,-56.5"/>
<text text-anchor="middle" x="405.5" y="-63.5" font-family="Helvetica,sans-Serif" font-size="10.00" fill="#000000">memory</text>
</g>
<!-- Node2&#45;&gt;Node3 -->
<g id="edge3" class="edge">
<title>Node2&#45;&gt;Node3</title>
<path fill="none" stroke="#191970" d="M288.7388,-112.3733C311.7789,-103.2226 346.6214,-89.3844 372.2501,-79.2057"/>
<polygon fill="#191970" stroke="#191970" points="373.5756,-82.4452 381.5775,-75.5011 370.9918,-75.9395 373.5756,-82.4452"/>
</g>
<!-- Node4 -->
<g id="node5" class="node">
<title>Node4</title>
<polygon fill="#ffffff" stroke="#bfbfbf" points="265,-56.5 265,-75.5 358,-75.5 358,-56.5 265,-56.5"/>
<text text-anchor="middle" x="311.5" y="-63.5" font-family="Helvetica,sans-Serif" font-size="10.00" fill="#000000">unordered_map</text>
</g>
<!-- Node2&#45;&gt;Node4 -->
<g id="edge4" class="edge">
<title>Node2&#45;&gt;Node4</title>
<path fill="none" stroke="#191970" d="M272.6868,-112.2455C279.3589,-104.2958 288.9479,-92.8706 296.9253,-83.3656"/>
<polygon fill="#191970" stroke="#191970" points="299.6592,-85.5525 303.407,-75.6427 294.2974,-81.0524 299.6592,-85.5525"/>
</g>
<!-- Node5 -->
<g id="node6" class="node">
<title>Node5</title>
<polygon fill="#ffffff" stroke="#bfbfbf" points="186.5,-56.5 186.5,-75.5 246.5,-75.5 246.5,-56.5 186.5,-56.5"/>
<text text-anchor="middle" x="216.5" y="-63.5" font-family="Helvetica,sans-Serif" font-size="10.00" fill="#000000">iostream</text>
</g>
<!-- Node2&#45;&gt;Node5 -->
<g id="edge5" class="edge">
<title>Node2&#45;&gt;Node5</title>
<path fill="none" stroke="#191970" d="M256.139,-112.2455C249.325,-104.2958 239.5319,-92.8706 231.3848,-83.3656"/>
<polygon fill="#191970" stroke="#191970" points="233.9305,-80.9575 224.7651,-75.6427 228.6157,-85.513 233.9305,-80.9575"/>
</g>
<!-- Node6 -->
<g id="node7" class="node">
<title>Node6</title>
<polygon fill="#ffffff" stroke="#bfbfbf" points="0,-56.5 0,-75.5 89,-75.5 89,-56.5 0,-56.5"/>
<text text-anchor="middle" x="44.5" y="-63.5" font-family="Helvetica,sans-Serif" font-size="10.00" fill="#000000">AMReX_Print.H</text>
</g>
<!-- Node2&#45;&gt;Node6 -->
<g id="edge6" class="edge">
<title>Node2&#45;&gt;Node6</title>
<path fill="none" stroke="#191970" d="M226.6807,-112.3733C189.3062,-102.8598 132.0276,-88.2797 91.6929,-78.0127"/>
<polygon fill="#191970" stroke="#191970" points="92.3802,-74.5761 81.8258,-75.5011 90.6534,-81.3598 92.3802,-74.5761"/>
</g>
<!-- Node7 -->
<g id="node8" class="node">
<title>Node7</title>
<polygon fill="#ffffff" stroke="#bfbfbf" points="107,-56.5 107,-75.5 168,-75.5 168,-56.5 107,-56.5"/>
<text text-anchor="middle" x="137.5" y="-63.5" font-family="Helvetica,sans-Serif" font-size="10.00" fill="#000000">AMReX.H</text>
</g>
<!-- Node2&#45;&gt;Node7 -->
<g id="edge7" class="edge">
<title>Node2&#45;&gt;Node7</title>
<path fill="none" stroke="#191970" d="M242.6679,-112.3733C222.1897,-103.3435 191.3601,-89.7494 168.3681,-79.6111"/>
<polygon fill="#191970" stroke="#191970" points="169.6093,-76.3333 159.0472,-75.5011 166.785,-82.7383 169.6093,-76.3333"/>
</g>
<!-- Node9&#45;&gt;Node3 -->
<g id="edge11" class="edge">
<title>Node9&#45;&gt;Node3</title>
<path fill="none" stroke="#191970" d="M740.3044,-116.5721C670.814,-109.8637 553.9281,-96.9327 444.7358,-76.0444"/>
<polygon fill="#191970" stroke="#191970" points="445.3552,-72.5994 434.8717,-74.1314 444.0223,-79.4714 445.3552,-72.5994"/>
</g>
<!-- Node9&#45;&gt;Node4 -->
<g id="edge12" class="edge">
<title>Node9&#45;&gt;Node4</title>
<path fill="none" stroke="#191970" d="M740.2381,-116.8899C658.008,-109.7232 507.1819,-95.5009 368.1964,-76.0099"/>
<polygon fill="#191970" stroke="#191970" points="368.6026,-72.5326 358.211,-74.5975 367.6222,-79.4636 368.6026,-72.5326"/>
</g>
<!-- Node9&#45;&gt;Node8 -->
<g id="edge16" class="edge">
<title>Node9&#45;&gt;Node8</title>
<path fill="none" stroke="#191970" d="M862.6208,-119.792C1028.0548,-113.6461 1483.0565,-95.5767 1654.3062,-75.9532"/>
<polygon fill="#191970" stroke="#191970" points="1654.9242,-79.4044 1664.4412,-74.7487 1654.098,-72.4534 1654.9242,-79.4044"/>
</g>
<!-- Node10 -->
<g id="node11" class="node">
<title>Node10</title>
<polygon fill="#ffffff" stroke="#bfbfbf" points="910.5,-.5 910.5,-19.5 954.5,-19.5 954.5,-.5 910.5,-.5"/>
<text text-anchor="middle" x="932.5" y="-7.5" font-family="Helvetica,sans-Serif" font-size="10.00" fill="#000000">string</text>
</g>
<!-- Node9&#45;&gt;Node10 -->
<g id="edge10" class="edge">
<title>Node9&#45;&gt;Node10</title>
<path fill="none" stroke="#191970" d="M786.4255,-112.3893C767.8436,-99.3486 740.4623,-75.4453 755.5,-56 773.0688,-33.2816 854.1982,-19.7004 900.2815,-13.6876"/>
<polygon fill="#191970" stroke="#191970" points="900.8807,-17.1399 910.3659,-12.4195 900.0073,-10.1946 900.8807,-17.1399"/>
</g>
<!-- Node11 -->
<g id="node12" class="node">
<title>Node11</title>
<polygon fill="#ffffff" stroke="#bfbfbf" points="764.5,-56.5 764.5,-75.5 828.5,-75.5 828.5,-56.5 764.5,-56.5"/>
<text text-anchor="middle" x="796.5" y="-63.5" font-family="Helvetica,sans-Serif" font-size="10.00" fill="#000000">algorithm</text>
</g>
<!-- Node9&#45;&gt;Node11 -->
<g id="edge13" class="edge">
<title>Node9&#45;&gt;Node11</title>
<path fill="none" stroke="#191970" d="M800.6291,-112.2455C799.9766,-104.9382 799.062,-94.6944 798.2593,-85.7046"/>
<polygon fill="#191970" stroke="#191970" points="801.7365,-85.2918 797.361,-75.6427 794.7642,-85.9143 801.7365,-85.2918"/>
</g>
<!-- Node12 -->
<g id="node13" class="node">
<title>Node12</title>
<polygon fill="#ffffff" stroke="#bfbfbf" points="1296,-.5 1296,-19.5 1403,-19.5 1403,-.5 1296,-.5"/>
<text text-anchor="middle" x="1349.5" y="-7.5" font-family="Helvetica,sans-Serif" font-size="10.00" fill="#000000">AMReX_MultiFab.H</text>
</g>
<!-- Node9&#45;&gt;Node12 -->
<g id="edge14" class="edge">
<title>Node9&#45;&gt;Node12</title>
<path fill="none" stroke="#191970" d="M823.9005,-112.3975C858.6797,-97.8895 928.0665,-70.537 989.5,-56 1091.4792,-31.8687 1212.9033,-19.6767 1285.461,-14.096"/>
<polygon fill="#191970" stroke="#191970" points="1286.0935,-17.5585 1295.8036,-13.32 1285.5697,-10.5781 1286.0935,-17.5585"/>
</g>
<!-- Node13 -->
<g id="node14" class="node">
<title>Node13</title>
<polygon fill="#ffffff" stroke="#bfbfbf" points="453,-56.5 453,-75.5 550,-75.5 550,-56.5 453,-56.5"/>
<text text-anchor="middle" x="501.5" y="-63.5" font-family="Helvetica,sans-Serif" font-size="10.00" fill="#000000">AMReX_BCRec.H</text>
</g>
<!-- Node9&#45;&gt;Node13 -->
<g id="edge15" class="edge">
<title>Node9&#45;&gt;Node13</title>
<path fill="none" stroke="#191970" d="M750.269,-112.4369C697.4915,-102.5851 615.3472,-87.2515 560.0376,-76.927"/>
<polygon fill="#191970" stroke="#191970" points="560.508,-73.4545 550.0356,-75.06 559.2235,-80.3356 560.508,-73.4545"/>
</g>
<!-- Node14 -->
<g id="node15" class="node">
<title>Node14</title>
<g id="a_node15"><a xlink:href="incflo__enums_8_h.html" target="_top" xlink:title="amr&#45;wind/incflo_enums.H">
<polygon fill="#ffffff" stroke="#000000" points="568.5,-56.5 568.5,-75.5 708.5,-75.5 708.5,-56.5 568.5,-56.5"/>
<text text-anchor="middle" x="638.5" y="-63.5" font-family="Helvetica,sans-Serif" font-size="10.00" fill="#000000">amr&#45;wind/incflo_enums.H</text>
</a>
</g>
</g>
<!-- Node9&#45;&gt;Node14 -->
<g id="edge17" class="edge">
<title>Node9&#45;&gt;Node14</title>
<path fill="none" stroke="#191970" d="M773.4793,-112.3733C746.4922,-103.1016 705.4983,-89.0178 675.7689,-78.804"/>
<polygon fill="#191970" stroke="#191970" points="676.7497,-75.4403 666.1551,-75.5011 674.4752,-82.0605 676.7497,-75.4403"/>
</g>
<!-- Node15 -->
<g id="node16" class="node">
<title>Node15</title>
<g id="a_node16"><a xlink:href="_field_desc_types_8_h.html" target="_top" xlink:title="amr&#45;wind/core/FieldDescTypes.H">
<polygon fill="#ffffff" stroke="#000000" points="1421.5,-.5 1421.5,-19.5 1595.5,-19.5 1595.5,-.5 1421.5,-.5"/>
<text text-anchor="middle" x="1508.5" y="-7.5" font-family="Helvetica,sans-Serif" font-size="10.00" fill="#000000">amr&#45;wind/core/FieldDescTypes.H</text>
</a>
</g>
</g>
<!-- Node9&#45;&gt;Node15 -->
<g id="edge18" class="edge">
<title>Node9&#45;&gt;Node15</title>
<path fill="none" stroke="#191970" d="M862.6131,-116.3992C933.1227,-109.3867 1052.349,-95.8349 1153.5,-76 1187.775,-69.279 1195.3422,-63.2935 1229.5,-56 1296.5033,-41.6932 1373.3719,-29.314 1429.4352,-21.0128"/>
<polygon fill="#191970" stroke="#191970" points="1430.2696,-24.4279 1439.6542,-19.5107 1429.2515,-17.5023 1430.2696,-24.4279"/>
</g>
<!-- Node16 -->
<g id="node17" class="node">
<title>Node16</title>
<g id="a_node17"><a xlink:href="_view_field_8_h.html" target="_top" xlink:title="amr&#45;wind/core/ViewField.H">
<polygon fill="#ffffff" stroke="#000000" points="998.5,-56.5 998.5,-75.5 1144.5,-75.5 1144.5,-56.5 998.5,-56.5"/>
<text text-anchor="middle" x="1071.5" y="-63.5" font-family="Helvetica,sans-Serif" font-size="10.00" fill="#000000">amr&#45;wind/core/ViewField.H</text>
</a>
</g>
</g>
<!-- Node9&#45;&gt;Node16 -->
<g id="edge19" class="edge">
<title>Node9&#45;&gt;Node16</title>
<path fill="none" stroke="#191970" d="M847.6079,-112.4369C894.1075,-102.7925 965.9359,-87.8948 1015.64,-77.5858"/>
<polygon fill="#191970" stroke="#191970" points="1016.5015,-80.9817 1025.5823,-75.5237 1015.0799,-74.1275 1016.5015,-80.9817"/>
</g>
<!-- Node16&#45;&gt;Node10 -->
<g id="edge20" class="edge">
<title>Node16&#45;&gt;Node10</title>
<path fill="none" stroke="#191970" d="M1047.605,-56.3733C1024.5806,-47.0972 989.6004,-33.0045 964.2454,-22.7895"/>
<polygon fill="#191970" stroke="#191970" points="965.291,-19.4374 954.7075,-18.9469 962.6751,-25.9303 965.291,-19.4374"/>
</g>
<!-- Node16&#45;&gt;Node12 -->
<g id="edge22" class="edge">
<title>Node16&#45;&gt;Node12</title>
<path fill="none" stroke="#191970" d="M1118.974,-56.4369C1166.9514,-46.7724 1241.117,-31.8326 1292.3051,-21.5213"/>
<polygon fill="#191970" stroke="#191970" points="1293.1099,-24.9296 1302.2218,-19.5237 1291.7275,-18.0674 1293.1099,-24.9296"/>
</g>
<!-- Node16&#45;&gt;Node15 -->
<g id="edge21" class="edge">
<title>Node16&#45;&gt;Node15</title>
<path fill="none" stroke="#191970" d="M1144.644,-56.6269C1221.6535,-46.7584 1342.7502,-31.2403 1423.8411,-20.8487"/>
<polygon fill="#191970" stroke="#191970" points="1424.5458,-24.2871 1434.0198,-19.5444 1423.656,-17.3439 1424.5458,-24.2871"/>
</g>
<!-- Node17 -->
<g id="node18" class="node">
<title>Node17</title>
<polygon fill="#ffffff" stroke="#bfbfbf" points="1092.5,-.5 1092.5,-19.5 1188.5,-19.5 1188.5,-.5 1092.5,-.5"/>
<text text-anchor="middle" x="1140.5" y="-7.5" font-family="Helvetica,sans-Serif" font-size="10.00" fill="#000000">AMReX_Vector.H</text>
</g>
<!-- Node16&#45;&gt;Node17 -->
<g id="edge23" class="edge">
<title>Node16&#45;&gt;Node17</title>
<path fill="none" stroke="#191970" d="M1083.5189,-56.2455C1093.7098,-47.9746 1108.5362,-35.9416 1120.5107,-26.2232"/>
<polygon fill="#191970" stroke="#191970" points="1123.0598,-28.662 1128.6188,-19.6427 1118.6486,-23.2268 1123.0598,-28.662"/>
</g>
<!-- Node18&#45;&gt;Node4 -->
<g id="edge26" class="edge">
<title>Node18&#45;&gt;Node4</title>
<path fill="none" stroke="#191970" d="M1438.6356,-173.9791C1421.3545,-171.7614 1402.7574,-169.5874 1385.5,-168 1095.617,-141.3363 1021.0393,-162.1684 731.5,-132 600.7266,-118.3741 448.5914,-91.7553 368.1395,-76.8224"/>
<polygon fill="#191970" stroke="#191970" points="368.6896,-73.3648 358.2175,-74.9725 367.4065,-80.2462 368.6896,-73.3648"/>
</g>
<!-- Node18&#45;&gt;Node9 -->
<g id="edge32" class="edge">
<title>Node18&#45;&gt;Node9</title>
<path fill="none" stroke="#191970" d="M1457.3228,-173.947C1444.7289,-171.7164 1431.1399,-169.5442 1418.5,-168 1180.6227,-138.9396 1119.034,-155.0574 880.5,-132 877.9715,-131.7556 875.399,-131.4947 872.8017,-131.2211"/>
<polygon fill="#191970" stroke="#191970" points="873.0255,-127.7247 862.7026,-130.1097 872.2597,-134.6827 873.0255,-127.7247"/>
</g>
<!-- Node18&#45;&gt;Node10 -->
<g id="edge25" class="edge">
<title>Node18&#45;&gt;Node10</title>
<path fill="none" stroke="#191970" d="M1454.5063,-173.9769C1442.702,-171.8942 1430.1782,-169.7819 1418.5,-168 1311.1345,-151.6173 1007.8214,-159.608 938.5,-76 927.9664,-63.2955 927.3532,-44.1078 928.8504,-29.6904"/>
<polygon fill="#191970" stroke="#191970" points="932.3162,-30.1784 930.2774,-19.7815 925.3876,-29.1805 932.3162,-30.1784"/>
</g>
<!-- Node18&#45;&gt;Node12 -->
<g id="edge45" class="edge">
<title>Node18&#45;&gt;Node12</title>
<path fill="none" stroke="#191970" d="M1452.1939,-173.9762C1428.1458,-166.7333 1401.9465,-154.0675 1387.5,-132 1368.9592,-103.6784 1404.9254,-87.4879 1392.5,-56 1387.9531,-44.4774 1379.0068,-34.143 1370.4466,-26.2024"/>
<polygon fill="#191970" stroke="#191970" points="1372.6847,-23.5106 1362.831,-19.6175 1368.1062,-28.8057 1372.6847,-23.5106"/>
</g>
<!-- Node18&#45;&gt;Node15 -->
<g id="edge27" class="edge">
<title>Node18&#45;&gt;Node15</title>
<path fill="none" stroke="#191970" d="M1556.6876,-173.9323C1593.506,-165.8368 1643.6596,-152.2727 1684.5,-132 1727.007,-110.9001 1789.8816,-92.4556 1759.5,-56 1739.82,-32.3855 1667.7179,-20.8557 1605.8117,-15.2481"/>
<polygon fill="#191970" stroke="#191970" points="1605.8421,-11.7378 1595.5783,-14.3655 1605.2406,-18.7119 1605.8421,-11.7378"/>
</g>
<!-- Node19 -->
<g id="node20" class="node">
<title>Node19</title>
<g id="a_node20"><a xlink:href="_field_utils_8_h.html" target="_top" xlink:title="amr&#45;wind/core/FieldUtils.H">
<polygon fill="#ffffff" stroke="#000000" points="1807,-56.5 1807,-75.5 1952,-75.5 1952,-56.5 1807,-56.5"/>
<text text-anchor="middle" x="1879.5" y="-63.5" font-family="Helvetica,sans-Serif" font-size="10.00" fill="#000000">amr&#45;wind/core/FieldUtils.H</text>
</a>
</g>
</g>
<!-- Node18&#45;&gt;Node19 -->
<g id="edge28" class="edge">
<title>Node18&#45;&gt;Node19</title>
<path fill="none" stroke="#191970" d="M1566.6358,-173.9146C1614.4565,-165.497 1682.214,-151.5311 1739.5,-132 1780.6794,-117.9603 1825.7711,-95.2792 1853.3542,-80.5035"/>
<polygon fill="#191970" stroke="#191970" points="1855.2191,-83.4739 1862.3455,-75.6339 1851.8854,-77.3186 1855.2191,-83.4739"/>
</g>
<!-- Node21 -->
<g id="node22" class="node">
<title>Node21</title>
<g id="a_node22"><a xlink:href="_int_field_8_h.html" target="_top" xlink:title="amr&#45;wind/core/IntField.H">
<polygon fill="#ffffff" stroke="#000000" points="1524,-112.5 1524,-131.5 1659,-131.5 1659,-112.5 1524,-112.5"/>
<text text-anchor="middle" x="1591.5" y="-119.5" font-family="Helvetica,sans-Serif" font-size="10.00" fill="#000000">amr&#45;wind/core/IntField.H</text>
</a>
</g>
</g>
<!-- Node18&#45;&gt;Node21 -->
<g id="edge33" class="edge">
<title>Node18&#45;&gt;Node21</title>
<path fill="none" stroke="#191970" d="M1518.9375,-173.8906C1532.5695,-164.1421 1553.8846,-148.8994 1569.8922,-137.4521"/>
<polygon fill="#191970" stroke="#191970" points="1572.0586,-140.2057 1578.1569,-131.5419 1567.9868,-134.5118 1572.0586,-140.2057"/>
</g>
<!-- Node22 -->
<g id="node23" class="node">
<title>Node22</title>
<polygon fill="#ffffff" stroke="#bfbfbf" points="1536.5,-56.5 1536.5,-75.5 1646.5,-75.5 1646.5,-56.5 1536.5,-56.5"/>
<text text-anchor="middle" x="1591.5" y="-63.5" font-family="Helvetica,sans-Serif" font-size="10.00" fill="#000000">AMReX_iMultiFab.H</text>
</g>
<!-- Node18&#45;&gt;Node22 -->
<g id="edge46" class="edge">
<title>Node18&#45;&gt;Node22</title>
<path fill="none" stroke="#191970" d="M1557.0138,-173.9594C1599.2704,-164.9619 1654.2153,-150.1631 1667.5,-132 1683.0501,-110.7396 1653.9424,-91.6348 1627.3736,-79.5175"/>
<polygon fill="#191970" stroke="#191970" points="1628.7268,-76.2895 1618.1592,-75.5308 1625.9472,-82.7139 1628.7268,-76.2895"/>
</g>
<!-- Node23 -->
<g id="node24" class="node">
<title>Node23</title>
<g id="a_node24"><a xlink:href="_scratch_field_8_h.html" target="_top" xlink:title="amr&#45;wind/core/ScratchField.H">
<polygon fill="#ffffff" stroke="#000000" points="1144.5,-112.5 1144.5,-131.5 1302.5,-131.5 1302.5,-112.5 1144.5,-112.5"/>
<text text-anchor="middle" x="1223.5" y="-119.5" font-family="Helvetica,sans-Serif" font-size="10.00" fill="#000000">amr&#45;wind/core/ScratchField.H</text>
</a>
</g>
</g>
<!-- Node18&#45;&gt;Node23 -->
<g id="edge37" class="edge">
<title>Node18&#45;&gt;Node23</title>
<path fill="none" stroke="#191970" d="M1461.7469,-173.9581C1412.0415,-163.1181 1330.9001,-145.4224 1277.3499,-133.7439"/>
<polygon fill="#191970" stroke="#191970" points="1277.8719,-130.2755 1267.3557,-131.5643 1276.3803,-137.1148 1277.8719,-130.2755"/>
</g>
<!-- Node25 -->
<g id="node26" class="node">
<title>Node25</title>
<polygon fill="#ffffff" stroke="#bfbfbf" points="1397,-112.5 1397,-131.5 1506,-131.5 1506,-112.5 1397,-112.5"/>
<text text-anchor="middle" x="1451.5" y="-119.5" font-family="Helvetica,sans-Serif" font-size="10.00" fill="#000000">AMReX_AmrCore.H</text>
</g>
<!-- Node18&#45;&gt;Node25 -->
<g id="edge44" class="edge">
<title>Node18&#45;&gt;Node25</title>
<path fill="none" stroke="#191970" d="M1497.0625,-173.8906C1488.9469,-164.6478 1476.4945,-150.466 1466.6576,-139.2628"/>
<polygon fill="#191970" stroke="#191970" points="1469.2846,-136.95 1460.0565,-131.7449 1464.0245,-141.5686 1469.2846,-136.95"/>
</g>
<!-- Node19&#45;&gt;Node12 -->
<g id="edge30" class="edge">
<title>Node19&#45;&gt;Node12</title>
<path fill="none" stroke="#191970" d="M1806.6438,-59.3558C1699.2542,-49.4751 1502.4626,-31.015 1413.1733,-19.9993"/>
<polygon fill="#191970" stroke="#191970" points="1413.4446,-16.5059 1403.0852,-18.7268 1412.5685,-23.4508 1413.4446,-16.5059"/>
</g>
<!-- Node19&#45;&gt;Node15 -->
<g id="edge29" class="edge">
<title>Node19&#45;&gt;Node15</title>
<path fill="none" stroke="#191970" d="M1816.1444,-56.4369C1751.1833,-46.6314 1650.2464,-31.3957 1581.8596,-21.0731"/>
<polygon fill="#191970" stroke="#191970" points="1582.0047,-17.5555 1571.5943,-19.5237 1580.9599,-24.4771 1582.0047,-17.5555"/>
</g>
<!-- Node20 -->
<g id="node21" class="node">
<title>Node20</title>
<polygon fill="#ffffff" stroke="#bfbfbf" points="1818.5,-.5 1818.5,-19.5 1940.5,-19.5 1940.5,-.5 1818.5,-.5"/>
<text text-anchor="middle" x="1879.5" y="-7.5" font-family="Helvetica,sans-Serif" font-size="10.00" fill="#000000">AMReX_Interpolater.H</text>
</g>
<!-- Node19&#45;&gt;Node20 -->
<g id="edge31" class="edge">
<title>Node19&#45;&gt;Node20</title>
<path fill="none" stroke="#191970" d="M1879.5,-56.2455C1879.5,-48.9382 1879.5,-38.6944 1879.5,-29.7046"/>
<polygon fill="#191970" stroke="#191970" points="1883.0001,-29.6426 1879.5,-19.6427 1876.0001,-29.6427 1883.0001,-29.6426"/>
</g>
<!-- Node21&#45;&gt;Node10 -->
<g id="edge34" class="edge">
<title>Node21&#45;&gt;Node10</title>
<path fill="none" stroke="#191970" d="M1523.9205,-112.9877C1520.7378,-112.6375 1517.5854,-112.3058 1514.5,-112 1398.1297,-100.4644 1094.1051,-128.2769 989.5,-76 968.8639,-65.687 952.5996,-44.2684 942.8138,-28.6183"/>
<polygon fill="#191970" stroke="#191970" points="945.6823,-26.5931 937.5768,-19.7702 939.6583,-30.1586 945.6823,-26.5931"/>
</g>
<!-- Node21&#45;&gt;Node15 -->
<g id="edge35" class="edge">
<title>Node21&#45;&gt;Node15</title>
<path fill="none" stroke="#191970" d="M1571.6883,-112.3732C1557.4214,-104.4728 1538.7727,-91.9939 1527.5,-76 1517.852,-62.3112 1513.0714,-43.7762 1510.7215,-29.8332"/>
<polygon fill="#191970" stroke="#191970" points="1514.1712,-29.2305 1509.3114,-19.816 1507.2395,-30.2063 1514.1712,-29.2305"/>
</g>
<!-- Node21&#45;&gt;Node22 -->
<g id="edge36" class="edge">
<title>Node21&#45;&gt;Node22</title>
<path fill="none" stroke="#191970" d="M1591.5,-112.2455C1591.5,-104.9382 1591.5,-94.6944 1591.5,-85.7046"/>
<polygon fill="#191970" stroke="#191970" points="1595.0001,-85.6426 1591.5,-75.6427 1588.0001,-85.6427 1595.0001,-85.6426"/>
</g>
<!-- Node23&#45;&gt;Node10 -->
<g id="edge38" class="edge">
<title>Node23&#45;&gt;Node10</title>
<path fill="none" stroke="#191970" d="M1144.3433,-117.0597C1076.1518,-111.274 984.4225,-99.3436 956.5,-76 942.9336,-64.6583 937.0358,-44.9844 934.4718,-30.0593"/>
<polygon fill="#191970" stroke="#191970" points="937.8921,-29.232 933.0892,-19.7884 930.9547,-30.1659 937.8921,-29.232"/>
</g>
<!-- Node23&#45;&gt;Node12 -->
<g id="edge41" class="edge">
<title>Node23&#45;&gt;Node12</title>
<path fill="none" stroke="#191970" d="M1278.531,-112.4434C1317.0546,-104.5027 1363.6695,-91.9406 1375.5,-76 1386.3189,-61.4224 1376.0583,-41.7501 1365.4065,-27.6834"/>
<polygon fill="#191970" stroke="#191970" points="1367.9511,-25.2664 1358.9087,-19.745 1362.5343,-29.7002 1367.9511,-25.2664"/>
</g>
<!-- Node23&#45;&gt;Node15 -->
<g id="edge39" class="edge">
<title>Node23&#45;&gt;Node15</title>
<path fill="none" stroke="#191970" d="M1270.8132,-112.4787C1305.2914,-104.7408 1352.7289,-92.4188 1392.5,-76 1426.5708,-61.9345 1463.0915,-39.8637 1485.8606,-25.1683"/>
<polygon fill="#191970" stroke="#191970" points="1487.9921,-27.9565 1494.4464,-19.5545 1484.1613,-22.0977 1487.9921,-27.9565"/>
</g>
<!-- Node23&#45;&gt;Node16 -->
<g id="edge40" class="edge">
<title>Node23&#45;&gt;Node16</title>
<path fill="none" stroke="#191970" d="M1197.3703,-112.3733C1172.4232,-103.1822 1134.6408,-89.2624 1106.9794,-79.0713"/>
<polygon fill="#191970" stroke="#191970" points="1107.8822,-75.674 1097.2888,-75.5011 1105.4622,-82.2424 1107.8822,-75.674"/>
</g>
<!-- Node23&#45;&gt;Node17 -->
<g id="edge42" class="edge">
<title>Node23&#45;&gt;Node17</title>
<path fill="none" stroke="#191970" d="M1216.4235,-112.4509C1202.5188,-93.688 1171.4433,-51.7548 1153.6599,-27.758"/>
<polygon fill="#191970" stroke="#191970" points="1156.3247,-25.4753 1147.5586,-19.5249 1150.7006,-29.6431 1156.3247,-25.4753"/>
</g>
<!-- Node24 -->
<g id="node25" class="node">
<title>Node24</title>
<polygon fill="#ffffff" stroke="#bfbfbf" points="1238.5,-56.5 1238.5,-75.5 1366.5,-75.5 1366.5,-56.5 1238.5,-56.5"/>
<text text-anchor="middle" x="1302.5" y="-63.5" font-family="Helvetica,sans-Serif" font-size="10.00" fill="#000000">AMReX_PhysBCFunct.H</text>
</g>
<!-- Node23&#45;&gt;Node24 -->
<g id="edge43" class="edge">
<title>Node23&#45;&gt;Node24</title>
<path fill="none" stroke="#191970" d="M1237.2607,-112.2455C1249.1552,-103.814 1266.565,-91.4729 1280.4085,-81.6598"/>
<polygon fill="#191970" stroke="#191970" points="1282.7628,-84.2811 1288.8969,-75.6427 1278.7146,-78.5704 1282.7628,-84.2811"/>
</g>
<!-- Node26&#45;&gt;Node8 -->
<g id="edge49" class="edge">
<title>Node26&#45;&gt;Node8</title>
<path fill="none" stroke="#191970" d="M1737.9244,-168.1389C1731.5898,-146.873 1720.1507,-108.4702 1713.2476,-85.2956"/>
<polygon fill="#191970" stroke="#191970" points="1716.5567,-84.1441 1710.3475,-75.5595 1709.848,-86.1425 1716.5567,-84.1441"/>
</g>
<!-- Node27 -->
<g id="node28" class="node">
<title>Node27</title>
<polygon fill="#ffffff" stroke="#bfbfbf" points="1830,-112.5 1830,-131.5 1943,-131.5 1943,-112.5 1830,-112.5"/>
<text text-anchor="middle" x="1886.5" y="-119.5" font-family="Helvetica,sans-Serif" font-size="10.00" fill="#000000">AMReX_Geometry.H</text>
</g>
<!-- Node26&#45;&gt;Node27 -->
<g id="edge48" class="edge">
<title>Node26&#45;&gt;Node27</title>
<path fill="none" stroke="#191970" d="M1777.7264,-168.4554C1801.3316,-158.374 1832.1454,-145.2139 1854.9476,-135.4755"/>
<polygon fill="#191970" stroke="#191970" points="1856.3634,-138.6767 1864.1851,-131.5303 1853.614,-132.2393 1856.3634,-138.6767"/>
</g>
<!-- Node28&#45;&gt;Node8 -->
<g id="edge52" class="edge">
<title>Node28&#45;&gt;Node8</title>
<path fill="none" stroke="#191970" d="M1917.021,-168.3037C1941.4979,-154.112 1969.2199,-132.1513 1952.5,-112 1940.343,-97.348 1829.1416,-81.1047 1760.8001,-72.3805"/>
<polygon fill="#191970" stroke="#191970" points="1760.9928,-68.8771 1750.6333,-71.0976 1760.1164,-75.8221 1760.9928,-68.8771"/>
</g>
<!-- Node28&#45;&gt;Node27 -->
<g id="edge51" class="edge">
<title>Node28&#45;&gt;Node27</title>
<path fill="none" stroke="#191970" d="M1886.5,-168.2977C1886.5,-160.3834 1886.5,-150.6043 1886.5,-142.0759"/>
<polygon fill="#191970" stroke="#191970" points="1890.0001,-141.8469 1886.5,-131.8469 1883.0001,-141.847 1890.0001,-141.8469"/>
</g>
</g>
</svg>
