<?xml version="1.0" encoding="UTF-8" standalone="no"?>
<!DOCTYPE svg PUBLIC "-//W3C//DTD SVG 1.1//EN"
 "http://www.w3.org/Graphics/SVG/1.1/DTD/svg11.dtd">
<!-- Generated by graphviz version 2.40.1 (20161225.0304)
 -->
<!-- Title: UDF.H Pages: 1 -->
<svg width="204pt" height="140pt"
 viewBox="0.00 0.00 203.50 140.00" xmlns="http://www.w3.org/2000/svg" xmlns:xlink="http://www.w3.org/1999/xlink">
<g id="graph0" class="graph" transform="scale(1 1) rotate(0) translate(4 136)">
<title>UDF.H</title>
<polygon fill="#ffffff" stroke="transparent" points="-4,4 -4,-136 199.5,-136 199.5,4 -4,4"/>
<!-- Node8 -->
<g id="node1" class="node">
<title>Node8</title>
<polygon fill="#bfbfbf" stroke="#000000" points="88.5,-112.5 88.5,-131.5 134.5,-131.5 134.5,-112.5 88.5,-112.5"/>
<text text-anchor="middle" x="111.5" y="-119.5" font-family="Helvetica,sans-Serif" font-size="10.00" fill="#000000">UDF.H</text>
</g>
<!-- Node9 -->
<g id="node2" class="node">
<title>Node9</title>
<g id="a_node2"><a xlink:href="_free_stream_8_h.html" target="_top" xlink:title="FreeStream.H">
<polygon fill="#ffffff" stroke="#000000" points="0,-56.5 0,-75.5 83,-75.5 83,-56.5 0,-56.5"/>
<text text-anchor="middle" x="41.5" y="-63.5" font-family="Helvetica,sans-Serif" font-size="10.00" fill="#000000">FreeStream.H</text>
</a>
</g>
</g>
<!-- Node8&#45;&gt;Node9 -->
<g id="edge1" class="edge">
<title>Node8&#45;&gt;Node9</title>
<path fill="none" stroke="#191970" d="M91.41,-105.928C79.1747,-96.1397 63.9493,-83.9595 53.5533,-75.6427"/>
<polygon fill="#191970" stroke="#191970" points="89.3118,-108.7316 99.3069,-112.2455 93.6847,-103.2655 89.3118,-108.7316"/>
</g>
<!-- Node10 -->
<g id="node3" class="node">
<title>Node10</title>
<g id="a_node3"><a xlink:href="_free_stream_8cpp.html" target="_top" xlink:title="FreeStream.cpp">
<polygon fill="#ffffff" stroke="#000000" points="30.5,-.5 30.5,-19.5 122.5,-19.5 122.5,-.5 30.5,-.5"/>
<text text-anchor="middle" x="76.5" y="-7.5" font-family="Helvetica,sans-Serif" font-size="10.00" fill="#000000">FreeStream.cpp</text>
</a>
</g>
</g>
<!-- Node8&#45;&gt;Node10 -->
<g id="edge3" class="edge">
<title>Node8&#45;&gt;Node10</title>
<path fill="none" stroke="#191970" d="M106.12,-102.2595C102.4594,-89.1002 97.4063,-71.4484 92.5,-56 88.5073,-43.4283 83.4393,-29.0969 80.0892,-19.8187"/>
<polygon fill="#191970" stroke="#191970" points="102.8033,-103.3984 108.8336,-112.1097 109.5519,-101.5392 102.8033,-103.3984"/>
</g>
<!-- Node11 -->
<g id="node4" class="node">
<title>Node11</title>
<g id="a_node4"><a xlink:href="_u_d_f_8cpp.html" target="_top" xlink:title="UDF.cpp">
<polygon fill="#ffffff" stroke="#000000" points="139.5,-56.5 139.5,-75.5 195.5,-75.5 195.5,-56.5 139.5,-56.5"/>
<text text-anchor="middle" x="167.5" y="-63.5" font-family="Helvetica,sans-Serif" font-size="10.00" fill="#000000">UDF.cpp</text>
</a>
</g>
</g>
<!-- Node8&#45;&gt;Node11 -->
<g id="edge4" class="edge">
<title>Node8&#45;&gt;Node11</title>
<path fill="none" stroke="#191970" d="M128.4249,-105.0751C138.0598,-95.4402 149.7804,-83.7196 157.8573,-75.6427"/>
<polygon fill="#191970" stroke="#191970" points="125.8507,-102.6996 121.2545,-112.2455 130.8004,-107.6493 125.8507,-102.6996"/>
</g>
<!-- Node9&#45;&gt;Node10 -->
<g id="edge2" class="edge">
<title>Node9&#45;&gt;Node10</title>
<path fill="none" stroke="#191970" d="M52.9815,-47.6296C58.8196,-38.2887 65.6752,-27.3197 70.4733,-19.6427"/>
<polygon fill="#191970" stroke="#191970" points="49.9286,-45.9105 47.5965,-56.2455 55.8646,-49.6206 49.9286,-45.9105"/>
</g>
</g>
</svg>
