<?xml version="1.0" encoding="UTF-8" standalone="no"?>
<!DOCTYPE svg PUBLIC "-//W3C//DTD SVG 1.1//EN"
 "http://www.w3.org/Graphics/SVG/1.1/DTD/svg11.dtd">
<!-- Generated by graphviz version 2.40.1 (20161225.0304)
 -->
<!-- Title: ViewField.H Pages: 1 -->
<svg width="484pt" height="84pt"
 viewBox="0.00 0.00 484.00 84.00" xmlns="http://www.w3.org/2000/svg" xmlns:xlink="http://www.w3.org/1999/xlink">
<g id="graph0" class="graph" transform="scale(1 1) rotate(0) translate(4 80)">
<title>ViewField.H</title>
<polygon fill="#ffffff" stroke="transparent" points="-4,4 -4,-80 480,-80 480,4 -4,4"/>
<!-- Node0 -->
<g id="node1" class="node">
<title>Node0</title>
<polygon fill="#bfbfbf" stroke="#000000" points="191,-56.5 191,-75.5 265,-75.5 265,-56.5 191,-56.5"/>
<text text-anchor="middle" x="228" y="-63.5" font-family="Helvetica,sans-Serif" font-size="10.00" fill="#000000">ViewField.H</text>
</g>
<!-- Node1 -->
<g id="node2" class="node">
<title>Node1</title>
<polygon fill="#ffffff" stroke="#bfbfbf" points="0,-.5 0,-19.5 44,-19.5 44,-.5 0,-.5"/>
<text text-anchor="middle" x="22" y="-7.5" font-family="Helvetica,sans-Serif" font-size="10.00" fill="#000000">string</text>
</g>
<!-- Node0&#45;&gt;Node1 -->
<g id="edge1" class="edge">
<title>Node0&#45;&gt;Node1</title>
<path fill="none" stroke="#191970" d="M190.9654,-56.8943C157.5141,-48.5301 106.7262,-35.4868 54.1416,-20.231"/>
<polygon fill="#191970" stroke="#191970" points="54.886,-16.8022 44.3057,-17.3573 52.9229,-23.5213 54.886,-16.8022"/>
</g>
<!-- Node2 -->
<g id="node3" class="node">
<title>Node2</title>
<g id="a_node3"><a xlink:href="_field_desc_types_8_h.html" target="_top" xlink:title="amr&#45;wind/core/FieldDescTypes.H">
<polygon fill="#ffffff" stroke="#000000" points="62,-.5 62,-19.5 236,-19.5 236,-.5 62,-.5"/>
<text text-anchor="middle" x="149" y="-7.5" font-family="Helvetica,sans-Serif" font-size="10.00" fill="#000000">amr&#45;wind/core/FieldDescTypes.H</text>
</a>
</g>
</g>
<!-- Node0&#45;&gt;Node2 -->
<g id="edge2" class="edge">
<title>Node0&#45;&gt;Node2</title>
<path fill="none" stroke="#191970" d="M214.2393,-56.2455C202.3448,-47.814 184.935,-35.4729 171.0915,-25.6598"/>
<polygon fill="#191970" stroke="#191970" points="172.7854,-22.5704 162.6031,-19.6427 168.7372,-28.2811 172.7854,-22.5704"/>
</g>
<!-- Node3 -->
<g id="node4" class="node">
<title>Node3</title>
<polygon fill="#ffffff" stroke="#bfbfbf" points="254.5,-.5 254.5,-19.5 361.5,-19.5 361.5,-.5 254.5,-.5"/>
<text text-anchor="middle" x="308" y="-7.5" font-family="Helvetica,sans-Serif" font-size="10.00" fill="#000000">AMReX_MultiFab.H</text>
</g>
<!-- Node0&#45;&gt;Node3 -->
<g id="edge3" class="edge">
<title>Node0&#45;&gt;Node3</title>
<path fill="none" stroke="#191970" d="M241.9349,-56.2455C254.0947,-47.7337 271.9464,-35.2375 286.0285,-25.3801"/>
<polygon fill="#191970" stroke="#191970" points="288.0395,-28.2447 294.2248,-19.6427 284.0253,-22.51 288.0395,-28.2447"/>
</g>
<!-- Node4 -->
<g id="node5" class="node">
<title>Node4</title>
<polygon fill="#ffffff" stroke="#bfbfbf" points="380,-.5 380,-19.5 476,-19.5 476,-.5 380,-.5"/>
<text text-anchor="middle" x="428" y="-7.5" font-family="Helvetica,sans-Serif" font-size="10.00" fill="#000000">AMReX_Vector.H</text>
</g>
<!-- Node0&#45;&gt;Node4 -->
<g id="edge4" class="edge">
<title>Node0&#45;&gt;Node4</title>
<path fill="none" stroke="#191970" d="M262.3812,-56.3733C296.0701,-46.9404 347.5482,-32.5265 384.1618,-22.2747"/>
<polygon fill="#191970" stroke="#191970" points="385.3815,-25.5679 394.0674,-19.5011 383.494,-18.8271 385.3815,-25.5679"/>
</g>
</g>
</svg>
