<?xml version="1.0" encoding="UTF-8" standalone="no"?>
<!DOCTYPE svg PUBLIC "-//W3C//DTD SVG 1.1//EN"
 "http://www.w3.org/Graphics/SVG/1.1/DTD/svg11.dtd">
<!-- Generated by graphviz version 2.40.1 (20161225.0304)
 -->
<!-- Title: ViewField.cpp Pages: 1 -->
<svg width="1673pt" height="252pt"
 viewBox="0.00 0.00 1672.77 252.00" xmlns="http://www.w3.org/2000/svg" xmlns:xlink="http://www.w3.org/1999/xlink">
<g id="graph0" class="graph" transform="scale(1 1) rotate(0) translate(4 248)">
<title>ViewField.cpp</title>
<polygon fill="#ffffff" stroke="transparent" points="-4,4 -4,-248 1668.7684,-248 1668.7684,4 -4,4"/>
<!-- Node0 -->
<g id="node1" class="node">
<title>Node0</title>
<polygon fill="#bfbfbf" stroke="#000000" points="394.2684,-224.5 394.2684,-243.5 477.2684,-243.5 477.2684,-224.5 394.2684,-224.5"/>
<text text-anchor="middle" x="435.7684" y="-231.5" font-family="Helvetica,sans-Serif" font-size="10.00" fill="#000000">ViewField.cpp</text>
</g>
<!-- Node1 -->
<g id="node2" class="node">
<title>Node1</title>
<g id="a_node2"><a xlink:href="_view_field_8_h.html" target="_top" xlink:title="amr&#45;wind/core/ViewField.H">
<polygon fill="#ffffff" stroke="#000000" points="274.7684,-56.5 274.7684,-75.5 420.7684,-75.5 420.7684,-56.5 274.7684,-56.5"/>
<text text-anchor="middle" x="347.7684" y="-63.5" font-family="Helvetica,sans-Serif" font-size="10.00" fill="#000000">amr&#45;wind/core/ViewField.H</text>
</a>
</g>
</g>
<!-- Node0&#45;&gt;Node1 -->
<g id="edge1" class="edge">
<title>Node0&#45;&gt;Node1</title>
<path fill="none" stroke="#191970" d="M423.6565,-224.2576C404.12,-207.7049 366.2759,-171.9723 350.7684,-132 345.064,-117.2963 344.6219,-99.3475 345.4349,-85.8813"/>
<polygon fill="#191970" stroke="#191970" points="348.9324,-86.0627 346.325,-75.7937 341.9595,-85.4473 348.9324,-86.0627"/>
</g>
<!-- Node6 -->
<g id="node7" class="node">
<title>Node6</title>
<g id="a_node7"><a xlink:href="_field_8_h.html" target="_top" xlink:title="amr&#45;wind/core/Field.H">
<polygon fill="#ffffff" stroke="#000000" points="1049.7684,-112.5 1049.7684,-131.5 1171.7684,-131.5 1171.7684,-112.5 1049.7684,-112.5"/>
<text text-anchor="middle" x="1110.7684" y="-119.5" font-family="Helvetica,sans-Serif" font-size="10.00" fill="#000000">amr&#45;wind/core/Field.H</text>
</a>
</g>
</g>
<!-- Node0&#45;&gt;Node6 -->
<g id="edge6" class="edge">
<title>Node0&#45;&gt;Node6</title>
<path fill="none" stroke="#191970" d="M477.4833,-227.0784C590.6306,-208.3043 904.142,-156.2847 1043.0354,-133.2387"/>
<polygon fill="#191970" stroke="#191970" points="1043.8367,-136.6536 1053.1289,-131.5639 1042.6908,-129.7481 1043.8367,-136.6536"/>
</g>
<!-- Node13 -->
<g id="node14" class="node">
<title>Node13</title>
<g id="a_node14"><a xlink:href="_scratch_field_8_h.html" target="_top" xlink:title="amr&#45;wind/core/ScratchField.H">
<polygon fill="#ffffff" stroke="#000000" points="91.7684,-112.5 91.7684,-131.5 249.7684,-131.5 249.7684,-112.5 91.7684,-112.5"/>
<text text-anchor="middle" x="170.7684" y="-119.5" font-family="Helvetica,sans-Serif" font-size="10.00" fill="#000000">amr&#45;wind/core/ScratchField.H</text>
</a>
</g>
</g>
<!-- Node0&#45;&gt;Node13 -->
<g id="edge17" class="edge">
<title>Node0&#45;&gt;Node13</title>
<path fill="none" stroke="#191970" d="M410.3003,-224.4955C386.3011,-215.4394 349.4034,-201.258 317.7684,-188 276.7389,-170.8048 229.9602,-149.5049 200.407,-135.835"/>
<polygon fill="#191970" stroke="#191970" points="201.6226,-132.5408 191.0782,-131.5086 198.6775,-138.8911 201.6226,-132.5408"/>
</g>
<!-- Node15 -->
<g id="node16" class="node">
<title>Node15</title>
<g id="a_node16"><a xlink:href="_field_repo_8_h.html" target="_top" xlink:title="amr&#45;wind/core/FieldRepo.H">
<polygon fill="#ffffff" stroke="#000000" points="483.7684,-168.5 483.7684,-187.5 629.7684,-187.5 629.7684,-168.5 483.7684,-168.5"/>
<text text-anchor="middle" x="556.7684" y="-175.5" font-family="Helvetica,sans-Serif" font-size="10.00" fill="#000000">amr&#45;wind/core/FieldRepo.H</text>
</a>
</g>
</g>
<!-- Node0&#45;&gt;Node15 -->
<g id="edge24" class="edge">
<title>Node0&#45;&gt;Node15</title>
<path fill="none" stroke="#191970" d="M456.569,-224.3733C475.9927,-215.3838 505.1908,-201.8706 527.0648,-191.7471"/>
<polygon fill="#191970" stroke="#191970" points="528.634,-194.8776 536.2392,-187.5011 525.6939,-188.5249 528.634,-194.8776"/>
</g>
<!-- Node2 -->
<g id="node3" class="node">
<title>Node2</title>
<polygon fill="#ffffff" stroke="#bfbfbf" points="325.7684,-.5 325.7684,-19.5 369.7684,-19.5 369.7684,-.5 325.7684,-.5"/>
<text text-anchor="middle" x="347.7684" y="-7.5" font-family="Helvetica,sans-Serif" font-size="10.00" fill="#000000">string</text>
</g>
<!-- Node1&#45;&gt;Node2 -->
<g id="edge2" class="edge">
<title>Node1&#45;&gt;Node2</title>
<path fill="none" stroke="#191970" d="M347.7684,-56.2455C347.7684,-48.9382 347.7684,-38.6944 347.7684,-29.7046"/>
<polygon fill="#191970" stroke="#191970" points="351.2685,-29.6426 347.7684,-19.6427 344.2685,-29.6427 351.2685,-29.6426"/>
</g>
<!-- Node3 -->
<g id="node4" class="node">
<title>Node3</title>
<g id="a_node4"><a xlink:href="_field_desc_types_8_h.html" target="_top" xlink:title="amr&#45;wind/core/FieldDescTypes.H">
<polygon fill="#ffffff" stroke="#000000" points="466.7684,-.5 466.7684,-19.5 640.7684,-19.5 640.7684,-.5 466.7684,-.5"/>
<text text-anchor="middle" x="553.7684" y="-7.5" font-family="Helvetica,sans-Serif" font-size="10.00" fill="#000000">amr&#45;wind/core/FieldDescTypes.H</text>
</a>
</g>
</g>
<!-- Node1&#45;&gt;Node3 -->
<g id="edge3" class="edge">
<title>Node1&#45;&gt;Node3</title>
<path fill="none" stroke="#191970" d="M383.1811,-56.3733C418.0289,-46.9001 471.3566,-32.4032 509.0977,-22.1435"/>
<polygon fill="#191970" stroke="#191970" points="510.0862,-25.5019 518.8178,-19.5011 508.2499,-18.747 510.0862,-25.5019"/>
</g>
<!-- Node4 -->
<g id="node5" class="node">
<title>Node4</title>
<polygon fill="#ffffff" stroke="#bfbfbf" points="671.2684,-.5 671.2684,-19.5 778.2684,-19.5 778.2684,-.5 671.2684,-.5"/>
<text text-anchor="middle" x="724.7684" y="-7.5" font-family="Helvetica,sans-Serif" font-size="10.00" fill="#000000">AMReX_MultiFab.H</text>
</g>
<!-- Node1&#45;&gt;Node4 -->
<g id="edge4" class="edge">
<title>Node1&#45;&gt;Node4</title>
<path fill="none" stroke="#191970" d="M412.1486,-56.4369C481.7034,-46.1051 591.8455,-29.7445 661.1157,-19.455"/>
<polygon fill="#191970" stroke="#191970" points="661.6525,-22.9138 671.0296,-17.9824 660.6239,-15.9898 661.6525,-22.9138"/>
</g>
<!-- Node5 -->
<g id="node6" class="node">
<title>Node5</title>
<polygon fill="#ffffff" stroke="#bfbfbf" points="75.7684,-.5 75.7684,-19.5 171.7684,-19.5 171.7684,-.5 75.7684,-.5"/>
<text text-anchor="middle" x="123.7684" y="-7.5" font-family="Helvetica,sans-Serif" font-size="10.00" fill="#000000">AMReX_Vector.H</text>
</g>
<!-- Node1&#45;&gt;Node5 -->
<g id="edge5" class="edge">
<title>Node1&#45;&gt;Node5</title>
<path fill="none" stroke="#191970" d="M309.5159,-56.4369C271.4217,-46.9133 212.8371,-32.2672 171.6697,-21.9753"/>
<polygon fill="#191970" stroke="#191970" points="172.4134,-18.5536 161.8631,-19.5237 170.7156,-25.3446 172.4134,-18.5536"/>
</g>
<!-- Node6&#45;&gt;Node1 -->
<g id="edge16" class="edge">
<title>Node6&#45;&gt;Node1</title>
<path fill="none" stroke="#191970" d="M1049.6187,-117.5119C913.5919,-107.5283 585.8045,-83.4705 431.1719,-72.1214"/>
<polygon fill="#191970" stroke="#191970" points="431.021,-68.601 420.7916,-71.3595 430.5086,-75.5822 431.021,-68.601"/>
</g>
<!-- Node6&#45;&gt;Node2 -->
<g id="edge7" class="edge">
<title>Node6&#45;&gt;Node2</title>
<path fill="none" stroke="#191970" d="M1099.768,-112.354C1080.3953,-95.5945 1040.6482,-62.2816 1023.7684,-56 905.6502,-12.044 583.426,-29.7061 457.7684,-20 431.644,-17.9821 402.0695,-15.2694 380.1704,-13.1785"/>
<polygon fill="#191970" stroke="#191970" points="380.3747,-9.6821 370.0853,-12.2078 379.7039,-16.6499 380.3747,-9.6821"/>
</g>
<!-- Node6&#45;&gt;Node3 -->
<g id="edge15" class="edge">
<title>Node6&#45;&gt;Node3</title>
<path fill="none" stroke="#191970" d="M1106.0662,-112.306C1098.1986,-97.2813 1080.8284,-68.7744 1056.7684,-56 979.1146,-14.7705 750.3225,-28.0162 662.7684,-20 658.8875,-19.6447 654.9289,-19.2821 650.93,-18.9157"/>
<polygon fill="#191970" stroke="#191970" points="651.2055,-15.4264 640.9278,-17.9992 650.5667,-22.3972 651.2055,-15.4264"/>
</g>
<!-- Node6&#45;&gt;Node4 -->
<g id="edge11" class="edge">
<title>Node6&#45;&gt;Node4</title>
<path fill="none" stroke="#191970" d="M1171.8985,-119.2706C1240.7017,-114.0925 1337.9634,-99.1324 1297.7684,-56 1260.6656,-16.1859 878.3839,-25.544 788.4312,-19.6911"/>
<polygon fill="#191970" stroke="#191970" points="788.6031,-16.1931 778.3412,-18.8283 788.0067,-23.1676 788.6031,-16.1931"/>
</g>
<!-- Node7 -->
<g id="node8" class="node">
<title>Node7</title>
<polygon fill="#ffffff" stroke="#bfbfbf" points="1606.7684,-56.5 1606.7684,-75.5 1664.7684,-75.5 1664.7684,-56.5 1606.7684,-56.5"/>
<text text-anchor="middle" x="1635.7684" y="-63.5" font-family="Helvetica,sans-Serif" font-size="10.00" fill="#000000">memory</text>
</g>
<!-- Node6&#45;&gt;Node7 -->
<g id="edge8" class="edge">
<title>Node6&#45;&gt;Node7</title>
<path fill="none" stroke="#191970" d="M1171.9365,-119.4276C1262.7407,-114.9032 1438.6026,-103.434 1596.5207,-75.9764"/>
<polygon fill="#191970" stroke="#191970" points="1597.1755,-79.415 1606.4152,-74.2306 1595.9591,-72.5215 1597.1755,-79.415"/>
</g>
<!-- Node8 -->
<g id="node9" class="node">
<title>Node8</title>
<polygon fill="#ffffff" stroke="#bfbfbf" points="921.2684,-56.5 921.2684,-75.5 1014.2684,-75.5 1014.2684,-56.5 921.2684,-56.5"/>
<text text-anchor="middle" x="967.7684" y="-63.5" font-family="Helvetica,sans-Serif" font-size="10.00" fill="#000000">unordered_map</text>
</g>
<!-- Node6&#45;&gt;Node8 -->
<g id="edge9" class="edge">
<title>Node6&#45;&gt;Node8</title>
<path fill="none" stroke="#191970" d="M1086.1858,-112.3733C1062.8188,-103.2226 1027.4821,-89.3844 1001.49,-79.2057"/>
<polygon fill="#191970" stroke="#191970" points="1002.6179,-75.8886 992.0302,-75.5011 1000.0654,-82.4066 1002.6179,-75.8886"/>
</g>
<!-- Node9 -->
<g id="node10" class="node">
<title>Node9</title>
<polygon fill="#ffffff" stroke="#bfbfbf" points="1108.7684,-56.5 1108.7684,-75.5 1172.7684,-75.5 1172.7684,-56.5 1108.7684,-56.5"/>
<text text-anchor="middle" x="1140.7684" y="-63.5" font-family="Helvetica,sans-Serif" font-size="10.00" fill="#000000">algorithm</text>
</g>
<!-- Node6&#45;&gt;Node9 -->
<g id="edge10" class="edge">
<title>Node6&#45;&gt;Node9</title>
<path fill="none" stroke="#191970" d="M1115.994,-112.2455C1120.0807,-104.617 1125.8819,-93.7881 1130.8434,-84.5267"/>
<polygon fill="#191970" stroke="#191970" points="1133.9656,-86.1103 1135.6027,-75.6427 1127.7952,-82.8047 1133.9656,-86.1103"/>
</g>
<!-- Node10 -->
<g id="node11" class="node">
<title>Node10</title>
<polygon fill="#ffffff" stroke="#bfbfbf" points="1191.2684,-56.5 1191.2684,-75.5 1288.2684,-75.5 1288.2684,-56.5 1191.2684,-56.5"/>
<text text-anchor="middle" x="1239.7684" y="-63.5" font-family="Helvetica,sans-Serif" font-size="10.00" fill="#000000">AMReX_BCRec.H</text>
</g>
<!-- Node6&#45;&gt;Node10 -->
<g id="edge12" class="edge">
<title>Node6&#45;&gt;Node10</title>
<path fill="none" stroke="#191970" d="M1132.9443,-112.3733C1153.745,-103.3435 1185.0601,-89.7494 1208.4142,-79.6111"/>
<polygon fill="#191970" stroke="#191970" points="1210.1027,-82.6938 1217.8819,-75.5011 1207.3152,-76.2727 1210.1027,-82.6938"/>
</g>
<!-- Node11 -->
<g id="node12" class="node">
<title>Node11</title>
<polygon fill="#ffffff" stroke="#bfbfbf" points="1344.7684,-56.5 1344.7684,-75.5 1430.7684,-75.5 1430.7684,-56.5 1344.7684,-56.5"/>
<text text-anchor="middle" x="1387.7684" y="-63.5" font-family="Helvetica,sans-Serif" font-size="10.00" fill="#000000">AMReX_Gpu.H</text>
</g>
<!-- Node6&#45;&gt;Node11 -->
<g id="edge13" class="edge">
<title>Node6&#45;&gt;Node11</title>
<path fill="none" stroke="#191970" d="M1158.0717,-112.4369C1207.1802,-102.5088 1283.8255,-87.0137 1334.9002,-76.6882"/>
<polygon fill="#191970" stroke="#191970" points="1335.6503,-80.1074 1344.7585,-74.6951 1334.2632,-73.2462 1335.6503,-80.1074"/>
</g>
<!-- Node12 -->
<g id="node13" class="node">
<title>Node12</title>
<g id="a_node13"><a xlink:href="incflo__enums_8_h.html" target="_top" xlink:title="amr&#45;wind/incflo_enums.H">
<polygon fill="#ffffff" stroke="#000000" points="1448.7684,-56.5 1448.7684,-75.5 1588.7684,-75.5 1588.7684,-56.5 1448.7684,-56.5"/>
<text text-anchor="middle" x="1518.7684" y="-63.5" font-family="Helvetica,sans-Serif" font-size="10.00" fill="#000000">amr&#45;wind/incflo_enums.H</text>
</a>
</g>
</g>
<!-- Node6&#45;&gt;Node12 -->
<g id="edge14" class="edge">
<title>Node6&#45;&gt;Node12</title>
<path fill="none" stroke="#191970" d="M1171.8501,-113.6162C1243.0148,-103.8485 1360.8108,-87.6804 1439.1051,-76.9342"/>
<polygon fill="#191970" stroke="#191970" points="1439.9731,-80.3479 1449.4042,-75.5206 1439.0211,-73.413 1439.9731,-80.3479"/>
</g>
<!-- Node13&#45;&gt;Node1 -->
<g id="edge20" class="edge">
<title>Node13&#45;&gt;Node1</title>
<path fill="none" stroke="#191970" d="M201.1958,-112.3733C230.7556,-103.021 275.791,-88.7725 308.1379,-78.5385"/>
<polygon fill="#191970" stroke="#191970" points="309.2596,-81.8546 317.7381,-75.5011 307.1481,-75.1807 309.2596,-81.8546"/>
</g>
<!-- Node13&#45;&gt;Node2 -->
<g id="edge18" class="edge">
<title>Node13&#45;&gt;Node2</title>
<path fill="none" stroke="#191970" d="M171.582,-112.4641C173.3132,-98.1689 178.639,-71.2396 194.7684,-56 212.2579,-39.4753 276.3149,-24.2209 315.787,-16.1048"/>
<polygon fill="#191970" stroke="#191970" points="316.6161,-19.5082 325.7291,-14.1042 315.2351,-12.6457 316.6161,-19.5082"/>
</g>
<!-- Node13&#45;&gt;Node3 -->
<g id="edge19" class="edge">
<title>Node13&#45;&gt;Node3</title>
<path fill="none" stroke="#191970" d="M181.221,-112.3091C197.7804,-97.5547 231.6768,-69.7268 265.7684,-56 299.7358,-42.3232 387.2536,-29.4171 456.9684,-20.7767"/>
<polygon fill="#191970" stroke="#191970" points="457.6164,-24.2235 467.1165,-19.5332 456.765,-17.2755 457.6164,-24.2235"/>
</g>
<!-- Node13&#45;&gt;Node4 -->
<g id="edge21" class="edge">
<title>Node13&#45;&gt;Node4</title>
<path fill="none" stroke="#191970" d="M232.536,-112.484C285.1852,-104.0259 362.7534,-90.7432 429.7684,-76 463.8804,-68.4954 471.7778,-64.0369 505.7684,-56 559.7851,-43.2281 621.7202,-30.3845 665.911,-21.5273"/>
<polygon fill="#191970" stroke="#191970" points="666.7817,-24.9227 675.9026,-19.532 665.4108,-18.0582 666.7817,-24.9227"/>
</g>
<!-- Node13&#45;&gt;Node5 -->
<g id="edge22" class="edge">
<title>Node13&#45;&gt;Node5</title>
<path fill="none" stroke="#191970" d="M107.5904,-112.4368C66.5241,-104.7818 18.3574,-92.5787 5.7684,-76 -14.9733,-48.6847 26.4043,-31.0496 65.7468,-20.943"/>
<polygon fill="#191970" stroke="#191970" points="66.7745,-24.2952 75.6663,-18.5344 65.1227,-17.4929 66.7745,-24.2952"/>
</g>
<!-- Node14 -->
<g id="node15" class="node">
<title>Node14</title>
<polygon fill="#ffffff" stroke="#bfbfbf" points="14.7684,-56.5 14.7684,-75.5 142.7684,-75.5 142.7684,-56.5 14.7684,-56.5"/>
<text text-anchor="middle" x="78.7684" y="-63.5" font-family="Helvetica,sans-Serif" font-size="10.00" fill="#000000">AMReX_PhysBCFunct.H</text>
</g>
<!-- Node13&#45;&gt;Node14 -->
<g id="edge23" class="edge">
<title>Node13&#45;&gt;Node14</title>
<path fill="none" stroke="#191970" d="M154.7432,-112.2455C140.6276,-103.6534 119.842,-91.0014 103.5785,-81.1018"/>
<polygon fill="#191970" stroke="#191970" points="104.9718,-77.8525 94.6099,-75.6427 101.3321,-83.8319 104.9718,-77.8525"/>
</g>
<!-- Node15&#45;&gt;Node2 -->
<g id="edge25" class="edge">
<title>Node15&#45;&gt;Node2</title>
<path fill="none" stroke="#191970" d="M484.7194,-168.4905C444.2445,-161.5439 393.4443,-150.0997 350.7684,-132 309.1198,-114.336 287.2236,-115.8283 265.7684,-76 251.8909,-50.2386 287.4532,-30.8831 316.0378,-19.9982"/>
<polygon fill="#191970" stroke="#191970" points="317.5366,-23.1789 325.7651,-16.5048 315.1706,-16.5909 317.5366,-23.1789"/>
</g>
<!-- Node15&#45;&gt;Node3 -->
<g id="edge27" class="edge">
<title>Node15&#45;&gt;Node3</title>
<path fill="none" stroke="#191970" d="M550.0701,-168.4571C538.3177,-151.0634 514.4111,-112.6109 505.7684,-76 503.7261,-67.3489 502.2796,-64.1756 505.7684,-56 510.884,-44.0122 520.8259,-33.6498 530.3411,-25.8114"/>
<polygon fill="#191970" stroke="#191970" points="532.6481,-28.4532 538.461,-19.5954 528.393,-22.8949 532.6481,-28.4532"/>
</g>
<!-- Node15&#45;&gt;Node4 -->
<g id="edge39" class="edge">
<title>Node15&#45;&gt;Node4</title>
<path fill="none" stroke="#191970" d="M614.214,-168.4423C697.6985,-153.1712 845.6899,-120.4055 873.7684,-76 878.519,-68.4871 879.0459,-63.1526 873.7684,-56 863.1164,-41.5634 823.5554,-29.7453 787.8748,-21.704"/>
<polygon fill="#191970" stroke="#191970" points="788.4574,-18.2488 777.9412,-19.537 786.9654,-25.088 788.4574,-18.2488"/>
</g>
<!-- Node15&#45;&gt;Node6 -->
<g id="edge32" class="edge">
<title>Node15&#45;&gt;Node6</title>
<path fill="none" stroke="#191970" d="M630.0494,-170.5925C736.7742,-159.8045 933.7266,-139.8959 1039.3755,-129.2166"/>
<polygon fill="#191970" stroke="#191970" points="1040.022,-132.6692 1049.6193,-128.1811 1039.318,-125.7047 1040.022,-132.6692"/>
</g>
<!-- Node15&#45;&gt;Node8 -->
<g id="edge26" class="edge">
<title>Node15&#45;&gt;Node8</title>
<path fill="none" stroke="#191970" d="M629.97,-174.2191C718.0565,-168.6672 859.9626,-156.2317 906.7684,-132 927.8815,-121.0695 945.4721,-99.7685 956.2535,-84.3148"/>
<polygon fill="#191970" stroke="#191970" points="959.431,-85.8575 962.0571,-75.5933 953.6033,-81.9795 959.431,-85.8575"/>
</g>
<!-- Node15&#45;&gt;Node13 -->
<g id="edge37" class="edge">
<title>Node15&#45;&gt;Node13</title>
<path fill="none" stroke="#191970" d="M490.8512,-168.4369C423.1249,-158.6113 317.8144,-143.3331 246.6561,-133.0096"/>
<polygon fill="#191970" stroke="#191970" points="246.8126,-129.4958 236.4137,-131.5237 245.8075,-136.4232 246.8126,-129.4958"/>
</g>
<!-- Node16 -->
<g id="node17" class="node">
<title>Node16</title>
<g id="a_node17"><a xlink:href="_field_utils_8_h.html" target="_top" xlink:title="amr&#45;wind/core/FieldUtils.H">
<polygon fill="#ffffff" stroke="#000000" points="719.2684,-56.5 719.2684,-75.5 864.2684,-75.5 864.2684,-56.5 719.2684,-56.5"/>
<text text-anchor="middle" x="791.7684" y="-63.5" font-family="Helvetica,sans-Serif" font-size="10.00" fill="#000000">amr&#45;wind/core/FieldUtils.H</text>
</a>
</g>
</g>
<!-- Node15&#45;&gt;Node16 -->
<g id="edge28" class="edge">
<title>Node15&#45;&gt;Node16</title>
<path fill="none" stroke="#191970" d="M627.2016,-168.4431C660.0611,-161.7549 698.6816,-150.5609 729.7684,-132 750.1127,-119.8531 767.9923,-99.1321 779.2576,-84.1432"/>
<polygon fill="#191970" stroke="#191970" points="782.3549,-85.8331 785.3799,-75.6792 776.6832,-81.7304 782.3549,-85.8331"/>
</g>
<!-- Node18 -->
<g id="node19" class="node">
<title>Node18</title>
<g id="a_node19"><a xlink:href="_int_field_8_h.html" target="_top" xlink:title="amr&#45;wind/core/IntField.H">
<polygon fill="#ffffff" stroke="#000000" points="585.2684,-112.5 585.2684,-131.5 720.2684,-131.5 720.2684,-112.5 585.2684,-112.5"/>
<text text-anchor="middle" x="652.7684" y="-119.5" font-family="Helvetica,sans-Serif" font-size="10.00" fill="#000000">amr&#45;wind/core/IntField.H</text>
</a>
</g>
</g>
<!-- Node15&#45;&gt;Node18 -->
<g id="edge33" class="edge">
<title>Node15&#45;&gt;Node18</title>
<path fill="none" stroke="#191970" d="M573.4903,-168.2455C588.3573,-159.5731 610.3149,-146.7645 627.3541,-136.825"/>
<polygon fill="#191970" stroke="#191970" points="629.3639,-139.7047 636.2381,-131.6427 625.8367,-133.6582 629.3639,-139.7047"/>
</g>
<!-- Node19 -->
<g id="node20" class="node">
<title>Node19</title>
<polygon fill="#ffffff" stroke="#bfbfbf" points="514.7684,-56.5 514.7684,-75.5 624.7684,-75.5 624.7684,-56.5 514.7684,-56.5"/>
<text text-anchor="middle" x="569.7684" y="-63.5" font-family="Helvetica,sans-Serif" font-size="10.00" fill="#000000">AMReX_iMultiFab.H</text>
</g>
<!-- Node15&#45;&gt;Node19 -->
<g id="edge40" class="edge">
<title>Node15&#45;&gt;Node19</title>
<path fill="none" stroke="#191970" d="M557.8768,-168.4509C559.997,-150.184 564.6664,-109.9553 567.4821,-85.6976"/>
<polygon fill="#191970" stroke="#191970" points="570.9864,-85.8618 568.6628,-75.5249 564.0331,-85.0546 570.9864,-85.8618"/>
</g>
<!-- Node20 -->
<g id="node21" class="node">
<title>Node20</title>
<polygon fill="#ffffff" stroke="#bfbfbf" points="360.2684,-112.5 360.2684,-131.5 469.2684,-131.5 469.2684,-112.5 360.2684,-112.5"/>
<text text-anchor="middle" x="414.7684" y="-119.5" font-family="Helvetica,sans-Serif" font-size="10.00" fill="#000000">AMReX_AmrCore.H</text>
</g>
<!-- Node15&#45;&gt;Node20 -->
<g id="edge38" class="edge">
<title>Node15&#45;&gt;Node20</title>
<path fill="none" stroke="#191970" d="M532.3577,-168.3733C509.1542,-159.2226 474.0646,-145.3844 448.2542,-135.2057"/>
<polygon fill="#191970" stroke="#191970" points="449.4473,-131.9139 438.8605,-131.5011 446.8792,-138.4258 449.4473,-131.9139"/>
</g>
<!-- Node16&#45;&gt;Node3 -->
<g id="edge29" class="edge">
<title>Node16&#45;&gt;Node3</title>
<path fill="none" stroke="#191970" d="M751.1252,-56.4369C710.4789,-46.8731 647.8771,-32.1432 604.1096,-21.845"/>
<polygon fill="#191970" stroke="#191970" points="604.7798,-18.4072 594.244,-19.5237 603.1765,-25.2211 604.7798,-18.4072"/>
</g>
<!-- Node16&#45;&gt;Node4 -->
<g id="edge30" class="edge">
<title>Node16&#45;&gt;Node4</title>
<path fill="none" stroke="#191970" d="M780.0979,-56.2455C770.2023,-47.9746 755.8057,-35.9416 744.1783,-26.2232"/>
<polygon fill="#191970" stroke="#191970" points="746.2226,-23.3703 736.3052,-19.6427 741.7334,-28.7413 746.2226,-23.3703"/>
</g>
<!-- Node17 -->
<g id="node18" class="node">
<title>Node17</title>
<polygon fill="#ffffff" stroke="#bfbfbf" points="796.7684,-.5 796.7684,-19.5 918.7684,-19.5 918.7684,-.5 796.7684,-.5"/>
<text text-anchor="middle" x="857.7684" y="-7.5" font-family="Helvetica,sans-Serif" font-size="10.00" fill="#000000">AMReX_Interpolater.H</text>
</g>
<!-- Node16&#45;&gt;Node17 -->
<g id="edge31" class="edge">
<title>Node16&#45;&gt;Node17</title>
<path fill="none" stroke="#191970" d="M803.2647,-56.2455C813.0126,-47.9746 827.1943,-35.9416 838.6482,-26.2232"/>
<polygon fill="#191970" stroke="#191970" points="841.0431,-28.7813 846.4038,-19.6427 836.5143,-23.4437 841.0431,-28.7813"/>
</g>
<!-- Node18&#45;&gt;Node2 -->
<g id="edge34" class="edge">
<title>Node18&#45;&gt;Node2</title>
<path fill="none" stroke="#191970" d="M652.9952,-112.2512C652.7624,-97.678 650.0119,-70.3905 633.7684,-56 614.9259,-39.307 450.6097,-20.5873 379.9005,-13.2223"/>
<polygon fill="#191970" stroke="#191970" points="380.0895,-9.7233 369.7833,-12.1796 379.3718,-16.6864 380.0895,-9.7233"/>
</g>
<!-- Node18&#45;&gt;Node3 -->
<g id="edge35" class="edge">
<title>Node18&#45;&gt;Node3</title>
<path fill="none" stroke="#191970" d="M659.1162,-112.1707C667.0908,-98.4508 678.4047,-73.3004 666.7684,-56 656.1458,-40.2067 639.0578,-29.833 621.352,-23.0202"/>
<polygon fill="#191970" stroke="#191970" points="622.0839,-19.5691 611.4891,-19.5898 619.7844,-26.1807 622.0839,-19.5691"/>
</g>
<!-- Node18&#45;&gt;Node19 -->
<g id="edge36" class="edge">
<title>Node18&#45;&gt;Node19</title>
<path fill="none" stroke="#191970" d="M638.3109,-112.2455C625.6952,-103.7337 607.174,-91.2375 592.5639,-81.3801"/>
<polygon fill="#191970" stroke="#191970" points="594.3074,-78.3343 584.0602,-75.6427 590.3923,-84.1371 594.3074,-78.3343"/>
</g>
</g>
</svg>
