<?xml version="1.0" encoding="UTF-8" standalone="no"?>
<!DOCTYPE svg PUBLIC "-//W3C//DTD SVG 1.1//EN"
 "http://www.w3.org/Graphics/SVG/1.1/DTD/svg11.dtd">
<!-- Generated by graphviz version 2.40.1 (20161225.0304)
 -->
<!-- Title: VortexPatch.H Pages: 1 -->
<svg width="1336pt" height="196pt"
 viewBox="0.00 0.00 1336.00 196.00" xmlns="http://www.w3.org/2000/svg" xmlns:xlink="http://www.w3.org/1999/xlink">
<g id="graph0" class="graph" transform="scale(1 1) rotate(0) translate(4 192)">
<title>VortexPatch.H</title>
<polygon fill="#ffffff" stroke="transparent" points="-4,4 -4,-192 1332,-192 1332,4 -4,4"/>
<!-- Node0 -->
<g id="node1" class="node">
<title>Node0</title>
<polygon fill="#bfbfbf" stroke="#000000" points="601.5,-168.5 601.5,-187.5 686.5,-187.5 686.5,-168.5 601.5,-168.5"/>
<text text-anchor="middle" x="644" y="-175.5" font-family="Helvetica,sans-Serif" font-size="10.00" fill="#000000">VortexPatch.H</text>
</g>
<!-- Node1 -->
<g id="node2" class="node">
<title>Node1</title>
<g id="a_node2"><a xlink:href="_physics_8_h.html" target="_top" xlink:title="amr&#45;wind/core/Physics.H">
<polygon fill="#ffffff" stroke="#000000" points="377.5,-112.5 377.5,-131.5 514.5,-131.5 514.5,-112.5 377.5,-112.5"/>
<text text-anchor="middle" x="446" y="-119.5" font-family="Helvetica,sans-Serif" font-size="10.00" fill="#000000">amr&#45;wind/core/Physics.H</text>
</a>
</g>
</g>
<!-- Node0&#45;&gt;Node1 -->
<g id="edge1" class="edge">
<title>Node0&#45;&gt;Node1</title>
<path fill="none" stroke="#191970" d="M609.9626,-168.3733C576.6106,-158.9404 525.6473,-144.5265 489.3998,-134.2747"/>
<polygon fill="#191970" stroke="#191970" points="490.1684,-130.8548 479.5933,-131.5011 488.2632,-137.5906 490.1684,-130.8548"/>
</g>
<!-- Node13 -->
<g id="node14" class="node">
<title>Node13</title>
<g id="a_node14"><a xlink:href="_field_8_h.html" target="_top" xlink:title="amr&#45;wind/core/Field.H">
<polygon fill="#ffffff" stroke="#000000" points="781,-112.5 781,-131.5 903,-131.5 903,-112.5 781,-112.5"/>
<text text-anchor="middle" x="842" y="-119.5" font-family="Helvetica,sans-Serif" font-size="10.00" fill="#000000">amr&#45;wind/core/Field.H</text>
</a>
</g>
</g>
<!-- Node0&#45;&gt;Node13 -->
<g id="edge15" class="edge">
<title>Node0&#45;&gt;Node13</title>
<path fill="none" stroke="#191970" d="M678.0374,-168.3733C711.3894,-158.9404 762.3527,-144.5265 798.6002,-134.2747"/>
<polygon fill="#191970" stroke="#191970" points="799.7368,-137.5906 808.4067,-131.5011 797.8316,-130.8548 799.7368,-137.5906"/>
</g>
<!-- Node2 -->
<g id="node3" class="node">
<title>Node2</title>
<g id="a_node3"><a xlink:href="_factory_8_h.html" target="_top" xlink:title="amr&#45;wind/core/Factory.H">
<polygon fill="#ffffff" stroke="#000000" points="56,-56.5 56,-75.5 190,-75.5 190,-56.5 56,-56.5"/>
<text text-anchor="middle" x="123" y="-63.5" font-family="Helvetica,sans-Serif" font-size="10.00" fill="#000000">amr&#45;wind/core/Factory.H</text>
</a>
</g>
</g>
<!-- Node1&#45;&gt;Node2 -->
<g id="edge2" class="edge">
<title>Node1&#45;&gt;Node2</title>
<path fill="none" stroke="#191970" d="M390.8413,-112.4369C334.6333,-102.6918 247.4888,-87.5832 187.9718,-77.2645"/>
<polygon fill="#191970" stroke="#191970" points="188.3821,-73.7835 177.9312,-75.5237 187.1863,-80.6806 188.3821,-73.7835"/>
</g>
<!-- Node8 -->
<g id="node9" class="node">
<title>Node8</title>
<g id="a_node9"><a xlink:href="_coll_mgr_8_h.html" target="_top" xlink:title="amr&#45;wind/core/CollMgr.H">
<polygon fill="#ffffff" stroke="#000000" points="378,-56.5 378,-75.5 514,-75.5 514,-56.5 378,-56.5"/>
<text text-anchor="middle" x="446" y="-63.5" font-family="Helvetica,sans-Serif" font-size="10.00" fill="#000000">amr&#45;wind/core/CollMgr.H</text>
</a>
</g>
</g>
<!-- Node1&#45;&gt;Node8 -->
<g id="edge8" class="edge">
<title>Node1&#45;&gt;Node8</title>
<path fill="none" stroke="#191970" d="M446,-112.2455C446,-104.9382 446,-94.6944 446,-85.7046"/>
<polygon fill="#191970" stroke="#191970" points="449.5001,-85.6426 446,-75.6427 442.5001,-85.6427 449.5001,-85.6426"/>
</g>
<!-- Node11 -->
<g id="node12" class="node">
<title>Node11</title>
<polygon fill="#ffffff" stroke="#bfbfbf" points="588.5,-.5 588.5,-19.5 695.5,-19.5 695.5,-.5 588.5,-.5"/>
<text text-anchor="middle" x="642" y="-7.5" font-family="Helvetica,sans-Serif" font-size="10.00" fill="#000000">AMReX_MultiFab.H</text>
</g>
<!-- Node1&#45;&gt;Node11 -->
<g id="edge13" class="edge">
<title>Node1&#45;&gt;Node11</title>
<path fill="none" stroke="#191970" d="M462.7108,-112.4509C497.0648,-92.8201 575.8047,-47.8259 616.5424,-24.5472"/>
<polygon fill="#191970" stroke="#191970" points="618.3855,-27.5252 625.3314,-19.5249 614.9125,-21.4475 618.3855,-27.5252"/>
</g>
<!-- Node12 -->
<g id="node13" class="node">
<title>Node12</title>
<polygon fill="#ffffff" stroke="#bfbfbf" points="208.5,-56.5 208.5,-75.5 321.5,-75.5 321.5,-56.5 208.5,-56.5"/>
<text text-anchor="middle" x="265" y="-63.5" font-family="Helvetica,sans-Serif" font-size="10.00" fill="#000000">AMReX_Geometry.H</text>
</g>
<!-- Node1&#45;&gt;Node12 -->
<g id="edge14" class="edge">
<title>Node1&#45;&gt;Node12</title>
<path fill="none" stroke="#191970" d="M414.885,-112.3733C384.6571,-103.021 338.604,-88.7725 305.5261,-78.5385"/>
<polygon fill="#191970" stroke="#191970" points="306.2967,-75.1133 295.709,-75.5011 304.2277,-81.8005 306.2967,-75.1133"/>
</g>
<!-- Node3 -->
<g id="node4" class="node">
<title>Node3</title>
<polygon fill="#ffffff" stroke="#bfbfbf" points="398,-.5 398,-19.5 456,-19.5 456,-.5 398,-.5"/>
<text text-anchor="middle" x="427" y="-7.5" font-family="Helvetica,sans-Serif" font-size="10.00" fill="#000000">memory</text>
</g>
<!-- Node2&#45;&gt;Node3 -->
<g id="edge3" class="edge">
<title>Node2&#45;&gt;Node3</title>
<path fill="none" stroke="#191970" d="M186.1836,-56.4742C237.729,-48.3738 312.6304,-35.8569 387.5783,-19.9484"/>
<polygon fill="#191970" stroke="#191970" points="388.627,-23.3032 397.6715,-17.7852 387.16,-16.4586 388.627,-23.3032"/>
</g>
<!-- Node4 -->
<g id="node5" class="node">
<title>Node4</title>
<polygon fill="#ffffff" stroke="#bfbfbf" points="286.5,-.5 286.5,-19.5 379.5,-19.5 379.5,-.5 286.5,-.5"/>
<text text-anchor="middle" x="333" y="-7.5" font-family="Helvetica,sans-Serif" font-size="10.00" fill="#000000">unordered_map</text>
</g>
<!-- Node2&#45;&gt;Node4 -->
<g id="edge4" class="edge">
<title>Node2&#45;&gt;Node4</title>
<path fill="none" stroke="#191970" d="M159.1003,-56.3733C194.6248,-46.9001 248.988,-32.4032 287.4619,-22.1435"/>
<polygon fill="#191970" stroke="#191970" points="288.6103,-25.4596 297.3708,-19.5011 286.8066,-18.696 288.6103,-25.4596"/>
</g>
<!-- Node5 -->
<g id="node6" class="node">
<title>Node5</title>
<polygon fill="#ffffff" stroke="#bfbfbf" points="0,-.5 0,-19.5 60,-19.5 60,-.5 0,-.5"/>
<text text-anchor="middle" x="30" y="-7.5" font-family="Helvetica,sans-Serif" font-size="10.00" fill="#000000">iostream</text>
</g>
<!-- Node2&#45;&gt;Node5 -->
<g id="edge5" class="edge">
<title>Node2&#45;&gt;Node5</title>
<path fill="none" stroke="#191970" d="M106.8006,-56.2455C92.3982,-47.5731 71.1268,-34.7645 54.6201,-24.825"/>
<polygon fill="#191970" stroke="#191970" points="56.386,-21.8028 46.0137,-19.6427 52.775,-27.7996 56.386,-21.8028"/>
</g>
<!-- Node6 -->
<g id="node7" class="node">
<title>Node6</title>
<polygon fill="#ffffff" stroke="#bfbfbf" points="78.5,-.5 78.5,-19.5 167.5,-19.5 167.5,-.5 78.5,-.5"/>
<text text-anchor="middle" x="123" y="-7.5" font-family="Helvetica,sans-Serif" font-size="10.00" fill="#000000">AMReX_Print.H</text>
</g>
<!-- Node2&#45;&gt;Node6 -->
<g id="edge6" class="edge">
<title>Node2&#45;&gt;Node6</title>
<path fill="none" stroke="#191970" d="M123,-56.2455C123,-48.9382 123,-38.6944 123,-29.7046"/>
<polygon fill="#191970" stroke="#191970" points="126.5001,-29.6426 123,-19.6427 119.5001,-29.6427 126.5001,-29.6426"/>
</g>
<!-- Node7 -->
<g id="node8" class="node">
<title>Node7</title>
<polygon fill="#ffffff" stroke="#bfbfbf" points="185.5,-.5 185.5,-19.5 246.5,-19.5 246.5,-.5 185.5,-.5"/>
<text text-anchor="middle" x="216" y="-7.5" font-family="Helvetica,sans-Serif" font-size="10.00" fill="#000000">AMReX.H</text>
</g>
<!-- Node2&#45;&gt;Node7 -->
<g id="edge7" class="edge">
<title>Node2&#45;&gt;Node7</title>
<path fill="none" stroke="#191970" d="M139.1994,-56.2455C153.6018,-47.5731 174.8732,-34.7645 191.3799,-24.825"/>
<polygon fill="#191970" stroke="#191970" points="193.225,-27.7996 199.9863,-19.6427 189.614,-21.8028 193.225,-27.7996"/>
</g>
<!-- Node8&#45;&gt;Node3 -->
<g id="edge10" class="edge">
<title>Node8&#45;&gt;Node3</title>
<path fill="none" stroke="#191970" d="M442.6905,-56.2455C440.1567,-48.7776 436.5823,-38.2427 433.485,-29.1137"/>
<polygon fill="#191970" stroke="#191970" points="436.7991,-27.9879 430.2716,-19.6427 430.1702,-30.237 436.7991,-27.9879"/>
</g>
<!-- Node8&#45;&gt;Node4 -->
<g id="edge11" class="edge">
<title>Node8&#45;&gt;Node4</title>
<path fill="none" stroke="#191970" d="M426.5746,-56.3733C408.5979,-47.4644 381.6559,-34.1127 361.291,-24.0203"/>
<polygon fill="#191970" stroke="#191970" points="362.6861,-20.8055 352.1719,-19.5011 359.5778,-27.0776 362.6861,-20.8055"/>
</g>
<!-- Node9 -->
<g id="node10" class="node">
<title>Node9</title>
<polygon fill="#ffffff" stroke="#bfbfbf" points="714,-.5 714,-19.5 758,-19.5 758,-.5 714,-.5"/>
<text text-anchor="middle" x="736" y="-7.5" font-family="Helvetica,sans-Serif" font-size="10.00" fill="#000000">string</text>
</g>
<!-- Node8&#45;&gt;Node9 -->
<g id="edge9" class="edge">
<title>Node8&#45;&gt;Node9</title>
<path fill="none" stroke="#191970" d="M514.1542,-56.4923C564.3369,-48.8956 634.3332,-37.0595 703.937,-20.0165"/>
<polygon fill="#191970" stroke="#191970" points="704.893,-23.3854 713.7537,-17.577 703.2047,-16.5921 704.893,-23.3854"/>
</g>
<!-- Node10 -->
<g id="node11" class="node">
<title>Node10</title>
<polygon fill="#ffffff" stroke="#bfbfbf" points="474,-.5 474,-19.5 570,-19.5 570,-.5 474,-.5"/>
<text text-anchor="middle" x="522" y="-7.5" font-family="Helvetica,sans-Serif" font-size="10.00" fill="#000000">AMReX_Vector.H</text>
</g>
<!-- Node8&#45;&gt;Node10 -->
<g id="edge12" class="edge">
<title>Node8&#45;&gt;Node10</title>
<path fill="none" stroke="#191970" d="M459.2382,-56.2455C470.681,-47.814 487.4296,-35.4729 500.7475,-25.6598"/>
<polygon fill="#191970" stroke="#191970" points="502.9391,-28.3924 508.9135,-19.6427 498.7867,-22.757 502.9391,-28.3924"/>
</g>
<!-- Node13&#45;&gt;Node3 -->
<g id="edge17" class="edge">
<title>Node13&#45;&gt;Node3</title>
<path fill="none" stroke="#191970" d="M789.9268,-112.4937C746.1492,-104.1124 682.0774,-90.933 627,-76 568.6034,-60.1671 502.1364,-37.2264 462.4317,-22.9821"/>
<polygon fill="#191970" stroke="#191970" points="463.5295,-19.6574 452.9351,-19.5577 461.1549,-26.2424 463.5295,-19.6574"/>
</g>
<!-- Node13&#45;&gt;Node4 -->
<g id="edge18" class="edge">
<title>Node13&#45;&gt;Node4</title>
<path fill="none" stroke="#191970" d="M780.8698,-119.2333C660.7498,-113.3389 402.6369,-98.2402 369,-76 352.7233,-65.2381 343.1799,-44.5373 338.0565,-29.1761"/>
<polygon fill="#191970" stroke="#191970" points="341.4059,-28.1601 335.1873,-19.5823 334.6994,-30.1659 341.4059,-28.1601"/>
</g>
<!-- Node13&#45;&gt;Node9 -->
<g id="edge16" class="edge">
<title>Node13&#45;&gt;Node9</title>
<path fill="none" stroke="#191970" d="M903.2054,-116.57C959.4141,-109.2057 1029.6717,-92.502 999,-56 984.2459,-38.4413 835.116,-20.5386 768.1987,-13.3182"/>
<polygon fill="#191970" stroke="#191970" points="768.5125,-9.8319 758.198,-12.2528 767.7709,-16.7925 768.5125,-9.8319"/>
</g>
<!-- Node13&#45;&gt;Node11 -->
<g id="edge20" class="edge">
<title>Node13&#45;&gt;Node11</title>
<path fill="none" stroke="#191970" d="M780.9933,-116.6235C727.2461,-110.4731 654.808,-98.2467 637,-76 626.5987,-63.0061 629.568,-43.5877 634.1076,-29.1744"/>
<polygon fill="#191970" stroke="#191970" points="637.4145,-30.3216 637.522,-19.7273 630.8313,-27.9423 637.4145,-30.3216"/>
</g>
<!-- Node14 -->
<g id="node15" class="node">
<title>Node14</title>
<polygon fill="#ffffff" stroke="#bfbfbf" points="810,-56.5 810,-75.5 874,-75.5 874,-56.5 810,-56.5"/>
<text text-anchor="middle" x="842" y="-63.5" font-family="Helvetica,sans-Serif" font-size="10.00" fill="#000000">algorithm</text>
</g>
<!-- Node13&#45;&gt;Node14 -->
<g id="edge19" class="edge">
<title>Node13&#45;&gt;Node14</title>
<path fill="none" stroke="#191970" d="M842,-112.2455C842,-104.9382 842,-94.6944 842,-85.7046"/>
<polygon fill="#191970" stroke="#191970" points="845.5001,-85.6426 842,-75.6427 838.5001,-85.6427 845.5001,-85.6426"/>
</g>
<!-- Node15 -->
<g id="node16" class="node">
<title>Node15</title>
<polygon fill="#ffffff" stroke="#bfbfbf" points="892.5,-56.5 892.5,-75.5 989.5,-75.5 989.5,-56.5 892.5,-56.5"/>
<text text-anchor="middle" x="941" y="-63.5" font-family="Helvetica,sans-Serif" font-size="10.00" fill="#000000">AMReX_BCRec.H</text>
</g>
<!-- Node13&#45;&gt;Node15 -->
<g id="edge21" class="edge">
<title>Node13&#45;&gt;Node15</title>
<path fill="none" stroke="#191970" d="M859.2445,-112.2455C874.5761,-103.5731 897.2199,-90.7645 914.7916,-80.825"/>
<polygon fill="#191970" stroke="#191970" points="916.9724,-83.6126 923.9531,-75.6427 913.5259,-77.5198 916.9724,-83.6126"/>
</g>
<!-- Node16 -->
<g id="node17" class="node">
<title>Node16</title>
<polygon fill="#ffffff" stroke="#bfbfbf" points="1084,-56.5 1084,-75.5 1170,-75.5 1170,-56.5 1084,-56.5"/>
<text text-anchor="middle" x="1127" y="-63.5" font-family="Helvetica,sans-Serif" font-size="10.00" fill="#000000">AMReX_Gpu.H</text>
</g>
<!-- Node13&#45;&gt;Node16 -->
<g id="edge22" class="edge">
<title>Node13&#45;&gt;Node16</title>
<path fill="none" stroke="#191970" d="M890.6694,-112.4369C941.4944,-102.4502 1020.9866,-86.8307 1073.5322,-76.5059"/>
<polygon fill="#191970" stroke="#191970" points="1074.5281,-79.8773 1083.6656,-74.5148 1073.1784,-73.0086 1074.5281,-79.8773"/>
</g>
<!-- Node17 -->
<g id="node18" class="node">
<title>Node17</title>
<g id="a_node18"><a xlink:href="incflo__enums_8_h.html" target="_top" xlink:title="amr&#45;wind/incflo_enums.H">
<polygon fill="#ffffff" stroke="#000000" points="1188,-56.5 1188,-75.5 1328,-75.5 1328,-56.5 1188,-56.5"/>
<text text-anchor="middle" x="1258" y="-63.5" font-family="Helvetica,sans-Serif" font-size="10.00" fill="#000000">amr&#45;wind/incflo_enums.H</text>
</a>
</g>
</g>
<!-- Node13&#45;&gt;Node17 -->
<g id="edge23" class="edge">
<title>Node13&#45;&gt;Node17</title>
<path fill="none" stroke="#191970" d="M903.3822,-113.737C976.0987,-103.9483 1097.458,-87.6114 1177.6116,-76.8215"/>
<polygon fill="#191970" stroke="#191970" points="1178.2193,-80.2714 1187.6629,-75.4684 1177.2854,-73.3339 1178.2193,-80.2714"/>
</g>
<!-- Node18 -->
<g id="node19" class="node">
<title>Node18</title>
<g id="a_node19"><a xlink:href="_field_desc_types_8_h.html" target="_top" xlink:title="amr&#45;wind/core/FieldDescTypes.H">
<polygon fill="#ffffff" stroke="#000000" points="864,-.5 864,-19.5 1038,-19.5 1038,-.5 864,-.5"/>
<text text-anchor="middle" x="951" y="-7.5" font-family="Helvetica,sans-Serif" font-size="10.00" fill="#000000">amr&#45;wind/core/FieldDescTypes.H</text>
</a>
</g>
</g>
<!-- Node13&#45;&gt;Node18 -->
<g id="edge24" class="edge">
<title>Node13&#45;&gt;Node18</title>
<path fill="none" stroke="#191970" d="M903.0615,-113.83C947.4464,-106.4932 1002.0841,-94.0729 1016,-76 1030.8983,-56.6513 1005.2551,-37.0358 981.9225,-24.2771"/>
<polygon fill="#191970" stroke="#191970" points="983.3419,-21.0707 972.8531,-19.5754 980.1201,-27.2852 983.3419,-21.0707"/>
</g>
<!-- Node19 -->
<g id="node20" class="node">
<title>Node19</title>
<g id="a_node20"><a xlink:href="_view_field_8_h.html" target="_top" xlink:title="amr&#45;wind/core/ViewField.H">
<polygon fill="#ffffff" stroke="#000000" points="646,-56.5 646,-75.5 792,-75.5 792,-56.5 646,-56.5"/>
<text text-anchor="middle" x="719" y="-63.5" font-family="Helvetica,sans-Serif" font-size="10.00" fill="#000000">amr&#45;wind/core/ViewField.H</text>
</a>
</g>
</g>
<!-- Node13&#45;&gt;Node19 -->
<g id="edge25" class="edge">
<title>Node13&#45;&gt;Node19</title>
<path fill="none" stroke="#191970" d="M820.8555,-112.3733C801.1108,-103.3838 771.4302,-89.8706 749.1945,-79.7471"/>
<polygon fill="#191970" stroke="#191970" points="750.42,-76.4594 739.8685,-75.5011 747.5194,-82.8302 750.42,-76.4594"/>
</g>
<!-- Node19&#45;&gt;Node9 -->
<g id="edge26" class="edge">
<title>Node19&#45;&gt;Node9</title>
<path fill="none" stroke="#191970" d="M721.9612,-56.2455C724.2038,-48.8579 727.3577,-38.4689 730.1081,-29.4087"/>
<polygon fill="#191970" stroke="#191970" points="733.517,-30.2282 733.0728,-19.6427 726.8188,-28.1948 733.517,-30.2282"/>
</g>
<!-- Node19&#45;&gt;Node10 -->
<g id="edge29" class="edge">
<title>Node19&#45;&gt;Node10</title>
<path fill="none" stroke="#191970" d="M685.1345,-56.3733C651.951,-46.9404 601.245,-32.5265 565.1806,-22.2747"/>
<polygon fill="#191970" stroke="#191970" points="565.9995,-18.8689 555.4236,-19.5011 564.0855,-25.6021 565.9995,-18.8689"/>
</g>
<!-- Node19&#45;&gt;Node11 -->
<g id="edge28" class="edge">
<title>Node19&#45;&gt;Node11</title>
<path fill="none" stroke="#191970" d="M705.5876,-56.2455C693.9943,-47.814 677.0252,-35.4729 663.5322,-25.6598"/>
<polygon fill="#191970" stroke="#191970" points="665.4047,-22.6938 655.2587,-19.6427 661.2874,-28.355 665.4047,-22.6938"/>
</g>
<!-- Node19&#45;&gt;Node18 -->
<g id="edge27" class="edge">
<title>Node19&#45;&gt;Node18</title>
<path fill="none" stroke="#191970" d="M758.6186,-56.4369C798.1568,-46.8932 859.0069,-32.2052 901.6582,-21.9101"/>
<polygon fill="#191970" stroke="#191970" points="902.6452,-25.2724 911.5448,-19.5237 901.0027,-18.4679 902.6452,-25.2724"/>
</g>
</g>
</svg>
