<?xml version="1.0" encoding="UTF-8" standalone="no"?>
<!DOCTYPE svg PUBLIC "-//W3C//DTD SVG 1.1//EN"
 "http://www.w3.org/Graphics/SVG/1.1/DTD/svg11.dtd">
<!-- Generated by graphviz version 2.40.1 (20161225.0304)
 -->
<!-- Title: actuator_types.H Pages: 1 -->
<!--zoomable 252 -->
<svg id="main" version="1.1" xmlns="http://www.w3.org/2000/svg" xmlns:xlink="http://www.w3.org/1999/xlink" xml:space="preserve" onload="init(evt)">
<style type="text/css"><![CDATA[
.edge:hover path { stroke: red; }
.edge:hover polygon { stroke: red; fill: red; }
]]></style>
<script type="text/javascript"><![CDATA[
var edges = document.getElementsByTagName('g');
if (edges && edges.length) {
  for (var i=0;i<edges.length;i++) {
    if (edges[i].id.substr(0,4)=='edge') {
      edges[i].setAttribute('class','edge');
    }
  }
}
]]></script>
        <defs>
                <circle id="rim" cx="0" cy="0" r="7"/>
                <circle id="rim2" cx="0" cy="0" r="3.5"/>
                <g id="zoomPlus">
                        <use xlink:href="#rim" fill="#404040">
                                <set attributeName="fill" to="#808080" begin="zoomplus.mouseover" end="zoomplus.mouseout"/>
                        </use>
                        <path d="M-4,0h8M0,-4v8" fill="none" stroke="white" stroke-width="1.5" pointer-events="none"/>
                </g>
                <g id="zoomMin">
                        <use xlink:href="#rim" fill="#404040">
                                <set attributeName="fill" to="#808080" begin="zoomminus.mouseover" end="zoomminus.mouseout"/>
                        </use>
                        <path d="M-4,0h8" fill="none" stroke="white" stroke-width="1.5" pointer-events="none"/>
                </g>
                <g id="dirArrow">
                        <path fill="none" stroke="white" stroke-width="1.5" d="M0,-3.0v7 M-2.5,-0.5L0,-3.0L2.5,-0.5"/>
                </g>
               <g id="resetDef">
                       <use xlink:href="#rim2" fill="#404040">
                               <set attributeName="fill" to="#808080" begin="reset.mouseover" end="reset.mouseout"/>
                       </use>
               </g>
        </defs>

<script type="text/javascript">
var viewWidth = 977;
var viewHeight = 252;
var sectionId = 'dynsection-1';
</script>
<script xlink:href="svgpan.js"/>
<svg id="graph" class="graph">
<g id="viewport">
<title>actuator_types.H</title>
<polygon fill="#ffffff" stroke="transparent" points="-4,4 -4,-248 973.0454,-248 973.0454,4 -4,4"/>
<!-- Node18 -->
<g id="node1" class="node">
<title>Node18</title>
<polygon fill="#bfbfbf" stroke="#000000" points="418.0454,-224.5 418.0454,-243.5 518.0454,-243.5 518.0454,-224.5 418.0454,-224.5"/>
<text text-anchor="middle" x="468.0454" y="-231.5" font-family="Helvetica,sans-Serif" font-size="10.00" fill="#000000">actuator_types.H</text>
</g>
<!-- Node19 -->
<g id="node2" class="node">
<title>Node19</title>
<g id="a_node2"><a xlink:href="_act_src_op_8_h.html" target="_top" xlink:title="ActSrcOp.H">
<polygon fill="#ffffff" stroke="#000000" points="256.5454,-112.5 256.5454,-131.5 327.5454,-131.5 327.5454,-112.5 256.5454,-112.5"/>
<text text-anchor="middle" x="292.0454" y="-119.5" font-family="Helvetica,sans-Serif" font-size="10.00" fill="#000000">ActSrcOp.H</text>
</a>
</g>
</g>
<!-- Node18&#45;&gt;Node19 -->
<g id="edge1" class="edge">
<title>Node18&#45;&gt;Node19</title>
<path fill="none" stroke="#191970" d="M437.3903,-220.0484C419.6212,-211.543 397.0704,-200.0216 378.0454,-188 349.7249,-170.1047 319.2101,-145.1867 303.2442,-131.6636"/>
<polygon fill="#191970" stroke="#191970" points="436.1797,-223.3471 446.7173,-224.4473 439.1657,-217.0159 436.1797,-223.3471"/>
</g>
<!-- Node20 -->
<g id="node3" class="node">
<title>Node20</title>
<g id="a_node3"><a xlink:href="_actuator_model_8_h.html" target="_top" xlink:title="ActuatorModel.H">
<polygon fill="#ffffff" stroke="#000000" points="254.0454,-56.5 254.0454,-75.5 352.0454,-75.5 352.0454,-56.5 254.0454,-56.5"/>
<text text-anchor="middle" x="303.0454" y="-63.5" font-family="Helvetica,sans-Serif" font-size="10.00" fill="#000000">ActuatorModel.H</text>
</a>
</g>
</g>
<!-- Node18&#45;&gt;Node20 -->
<g id="edge20" class="edge">
<title>Node18&#45;&gt;Node20</title>
<path fill="none" stroke="#191970" d="M407.8933,-225.4221C354.5594,-214.194 280.1467,-188.754 247.0454,-132 234.0992,-109.8031 263.4346,-87.8118 284.3423,-75.6554"/>
<polygon fill="#191970" stroke="#191970" points="407.4348,-228.8994 417.9258,-227.4205 408.8023,-222.0343 407.4348,-228.8994"/>
</g>
<!-- Node25 -->
<g id="node8" class="node">
<title>Node25</title>
<g id="a_node8"><a xlink:href="actuator__ops_8_h.html" target="_top" xlink:title="actuator_ops.H">
<polygon fill="#ffffff" stroke="#000000" points="387.0454,-168.5 387.0454,-187.5 477.0454,-187.5 477.0454,-168.5 387.0454,-168.5"/>
<text text-anchor="middle" x="432.0454" y="-175.5" font-family="Helvetica,sans-Serif" font-size="10.00" fill="#000000">actuator_ops.H</text>
</a>
</g>
</g>
<!-- Node18&#45;&gt;Node25 -->
<g id="edge7" class="edge">
<title>Node18&#45;&gt;Node25</title>
<path fill="none" stroke="#191970" d="M456.2359,-215.6296C450.231,-206.2887 443.1795,-195.3197 438.2443,-187.6427"/>
<polygon fill="#191970" stroke="#191970" points="453.4229,-217.7264 461.7747,-224.2455 459.3112,-213.9411 453.4229,-217.7264"/>
</g>
<!-- Node28 -->
<g id="node11" class="node">
<title>Node28</title>
<g id="a_node11"><a xlink:href="wing__ops_8_h.html" target="_top" xlink:title="wing_ops.H">
<polygon fill="#ffffff" stroke="#000000" points="498.5454,-112.5 498.5454,-131.5 571.5454,-131.5 571.5454,-112.5 498.5454,-112.5"/>
<text text-anchor="middle" x="535.0454" y="-119.5" font-family="Helvetica,sans-Serif" font-size="10.00" fill="#000000">wing_ops.H</text>
</a>
</g>
</g>
<!-- Node18&#45;&gt;Node28 -->
<g id="edge44" class="edge">
<title>Node18&#45;&gt;Node28</title>
<path fill="none" stroke="#191970" d="M479.0691,-215.5723C493.4924,-191.4618 518.2339,-150.1028 529.3475,-131.5249"/>
<polygon fill="#191970" stroke="#191970" points="475.8879,-214.0724 473.7578,-224.4509 481.8951,-217.6661 475.8879,-214.0724"/>
</g>
<!-- Node31 -->
<g id="node14" class="node">
<title>Node31</title>
<g id="a_node14"><a xlink:href="actuator__utils_8cpp.html" target="_top" xlink:title="actuator_utils.cpp">
<polygon fill="#ffffff" stroke="#000000" points="772.0454,-168.5 772.0454,-187.5 876.0454,-187.5 876.0454,-168.5 772.0454,-168.5"/>
<text text-anchor="middle" x="824.0454" y="-175.5" font-family="Helvetica,sans-Serif" font-size="10.00" fill="#000000">actuator_utils.cpp</text>
</a>
</g>
</g>
<!-- Node18&#45;&gt;Node31 -->
<g id="edge21" class="edge">
<title>Node18&#45;&gt;Node31</title>
<path fill="none" stroke="#191970" d="M528.168,-224.7655C587.7965,-215.5737 681.7592,-201.0002 763.0454,-188 765.9066,-187.5424 768.8428,-187.0701 771.8063,-186.5913"/>
<polygon fill="#191970" stroke="#191970" points="527.5236,-221.3234 518.1731,-226.3054 528.5895,-228.2418 527.5236,-221.3234"/>
</g>
<!-- Node32 -->
<g id="node15" class="node">
<title>Node32</title>
<g id="a_node15"><a xlink:href="_airfoil_table_8_h.html" target="_top" xlink:title="AirfoilTable.H">
<polygon fill="#ffffff" stroke="#000000" points="672.0454,-168.5 672.0454,-187.5 754.0454,-187.5 754.0454,-168.5 672.0454,-168.5"/>
<text text-anchor="middle" x="713.0454" y="-175.5" font-family="Helvetica,sans-Serif" font-size="10.00" fill="#000000">AirfoilTable.H</text>
</a>
</g>
</g>
<!-- Node18&#45;&gt;Node32 -->
<g id="edge22" class="edge">
<title>Node18&#45;&gt;Node32</title>
<path fill="none" stroke="#191970" d="M519.7997,-222.1704C565.0667,-211.8237 629.9429,-196.9949 671.788,-187.4303"/>
<polygon fill="#191970" stroke="#191970" points="518.8527,-218.7966 509.884,-224.4369 520.4125,-225.6206 518.8527,-218.7966"/>
</g>
<!-- Node37 -->
<g id="node20" class="node">
<title>Node37</title>
<g id="a_node20"><a xlink:href="turbine__types_8_h.html" target="_top" xlink:title="turbine_types.H">
<polygon fill="#ffffff" stroke="#000000" points="106.0454,-168.5 106.0454,-187.5 200.0454,-187.5 200.0454,-168.5 106.0454,-168.5"/>
<text text-anchor="middle" x="153.0454" y="-175.5" font-family="Helvetica,sans-Serif" font-size="10.00" fill="#000000">turbine_types.H</text>
</a>
</g>
</g>
<!-- Node18&#45;&gt;Node37 -->
<g id="edge33" class="edge">
<title>Node18&#45;&gt;Node37</title>
<path fill="none" stroke="#191970" d="M407.6273,-223.259C347.2208,-212.5201 255.5788,-196.2282 200.2956,-186.4"/>
<polygon fill="#191970" stroke="#191970" points="407.3261,-226.7603 417.7844,-225.0647 408.5514,-219.8683 407.3261,-226.7603"/>
</g>
<!-- Node41 -->
<g id="node24" class="node">
<title>Node41</title>
<g id="a_node24"><a xlink:href="_actuator_wing_8_h.html" target="_top" xlink:title="ActuatorWing.H">
<polygon fill="#ffffff" stroke="#000000" points="556.5454,-168.5 556.5454,-187.5 649.5454,-187.5 649.5454,-168.5 556.5454,-168.5"/>
<text text-anchor="middle" x="603.0454" y="-175.5" font-family="Helvetica,sans-Serif" font-size="10.00" fill="#000000">ActuatorWing.H</text>
</a>
</g>
</g>
<!-- Node18&#45;&gt;Node41 -->
<g id="edge40" class="edge">
<title>Node18&#45;&gt;Node41</title>
<path fill="none" stroke="#191970" d="M500.5445,-220.5189C525.1308,-210.3201 558.282,-196.5685 580.1409,-187.5011"/>
<polygon fill="#191970" stroke="#191970" points="499.1485,-217.3087 491.2527,-224.3733 501.8306,-223.7745 499.1485,-217.3087"/>
</g>
<!-- Node19&#45;&gt;Node20 -->
<g id="edge2" class="edge">
<title>Node19&#45;&gt;Node20</title>
<path fill="none" stroke="#191970" d="M295.943,-102.1575C297.7114,-93.155 299.7219,-82.9199 301.1513,-75.6427"/>
<polygon fill="#191970" stroke="#191970" points="292.4546,-101.7584 293.9615,-112.2455 299.3234,-103.1077 292.4546,-101.7584"/>
</g>
<!-- Node21 -->
<g id="node4" class="node">
<title>Node21</title>
<g id="a_node4"><a xlink:href="_actuator_8cpp.html" target="_top" xlink:title="Actuator.cpp">
<polygon fill="#ffffff" stroke="#000000" points="264.5454,-.5 264.5454,-19.5 341.5454,-19.5 341.5454,-.5 264.5454,-.5"/>
<text text-anchor="middle" x="303.0454" y="-7.5" font-family="Helvetica,sans-Serif" font-size="10.00" fill="#000000">Actuator.cpp</text>
</a>
</g>
</g>
<!-- Node20&#45;&gt;Node21 -->
<g id="edge3" class="edge">
<title>Node20&#45;&gt;Node21</title>
<path fill="none" stroke="#191970" d="M303.0454,-46.1575C303.0454,-37.155 303.0454,-26.9199 303.0454,-19.6427"/>
<polygon fill="#191970" stroke="#191970" points="299.5455,-46.2455 303.0454,-56.2455 306.5455,-46.2456 299.5455,-46.2455"/>
</g>
<!-- Node22 -->
<g id="node5" class="node">
<title>Node22</title>
<g id="a_node5"><a xlink:href="_turbine_fast_8cpp.html" target="_top" xlink:title="TurbineFast.cpp">
<polygon fill="#ffffff" stroke="#000000" points="20.0454,-.5 20.0454,-19.5 112.0454,-19.5 112.0454,-.5 20.0454,-.5"/>
<text text-anchor="middle" x="66.0454" y="-7.5" font-family="Helvetica,sans-Serif" font-size="10.00" fill="#000000">TurbineFast.cpp</text>
</a>
</g>
</g>
<!-- Node20&#45;&gt;Node22 -->
<g id="edge4" class="edge">
<title>Node20&#45;&gt;Node22</title>
<path fill="none" stroke="#191970" d="M252.7357,-54.1125C209.1006,-43.8021 146.7662,-29.0733 106.3509,-19.5237"/>
<polygon fill="#191970" stroke="#191970" points="252.0361,-57.5435 262.5729,-56.4369 253.6458,-50.7311 252.0361,-57.5435"/>
</g>
<!-- Node23 -->
<g id="node6" class="node">
<title>Node23</title>
<g id="a_node6"><a xlink:href="_fixed_wing_8cpp.html" target="_top" xlink:title="FixedWing.cpp">
<polygon fill="#ffffff" stroke="#000000" points="491.5454,-.5 491.5454,-19.5 578.5454,-19.5 578.5454,-.5 491.5454,-.5"/>
<text text-anchor="middle" x="535.0454" y="-7.5" font-family="Helvetica,sans-Serif" font-size="10.00" fill="#000000">FixedWing.cpp</text>
</a>
</g>
</g>
<!-- Node20&#45;&gt;Node23 -->
<g id="edge5" class="edge">
<title>Node20&#45;&gt;Node23</title>
<path fill="none" stroke="#191970" d="M352.5638,-54.0473C395.2651,-43.7401 456.1109,-29.0532 495.5902,-19.5237"/>
<polygon fill="#191970" stroke="#191970" points="351.5636,-50.6881 342.664,-56.4369 353.2061,-57.4927 351.5636,-50.6881"/>
</g>
<!-- Node24 -->
<g id="node7" class="node">
<title>Node24</title>
<g id="a_node7"><a xlink:href="_flat_plate_8cpp.html" target="_top" xlink:title="FlatPlate.cpp">
<polygon fill="#ffffff" stroke="#000000" points="378.0454,-.5 378.0454,-19.5 458.0454,-19.5 458.0454,-.5 378.0454,-.5"/>
<text text-anchor="middle" x="418.0454" y="-7.5" font-family="Helvetica,sans-Serif" font-size="10.00" fill="#000000">FlatPlate.cpp</text>
</a>
</g>
</g>
<!-- Node20&#45;&gt;Node24 -->
<g id="edge6" class="edge">
<title>Node20&#45;&gt;Node24</title>
<path fill="none" stroke="#191970" d="M331.8487,-51.9741C352.6704,-41.8348 380.2432,-28.408 398.5342,-19.5011"/>
<polygon fill="#191970" stroke="#191970" points="330.273,-48.8484 322.8146,-56.3733 333.3377,-55.1419 330.273,-48.8484"/>
</g>
<!-- Node25&#45;&gt;Node19 -->
<g id="edge8" class="edge">
<title>Node25&#45;&gt;Node19</title>
<path fill="none" stroke="#191970" d="M398.6805,-164.6541C373.1502,-154.4419 338.567,-140.6086 315.7982,-131.5011"/>
<polygon fill="#191970" stroke="#191970" points="397.3939,-167.909 407.9786,-168.3733 399.9937,-161.4096 397.3939,-167.909"/>
</g>
<!-- Node25&#45;&gt;Node20 -->
<g id="edge9" class="edge">
<title>Node25&#45;&gt;Node20</title>
<path fill="none" stroke="#191970" d="M417.5353,-160.5935C405.5224,-146.6851 387.6326,-127.0906 370.0454,-112 353.6621,-97.9424 332.9301,-84.2572 318.8994,-75.5205"/>
<polygon fill="#191970" stroke="#191970" points="415.0545,-163.079 424.2003,-168.4275 420.3861,-158.543 415.0545,-163.079"/>
</g>
<!-- Node26 -->
<g id="node9" class="node">
<title>Node26</title>
<g id="a_node9"><a xlink:href="turbine__fast__ops_8_h.html" target="_top" xlink:title="turbine_fast_ops.H">
<polygon fill="#ffffff" stroke="#000000" points="12.0454,-56.5 12.0454,-75.5 120.0454,-75.5 120.0454,-56.5 12.0454,-56.5"/>
<text text-anchor="middle" x="66.0454" y="-63.5" font-family="Helvetica,sans-Serif" font-size="10.00" fill="#000000">turbine_fast_ops.H</text>
</a>
</g>
</g>
<!-- Node25&#45;&gt;Node26 -->
<g id="edge10" class="edge">
<title>Node25&#45;&gt;Node26</title>
<path fill="none" stroke="#191970" d="M410.544,-162.3192C385.0599,-143.8525 345.0285,-115.2597 337.0454,-112 332.0337,-109.9536 197.9079,-87.6866 120.2669,-74.8999"/>
<polygon fill="#191970" stroke="#191970" points="408.7272,-165.3255 418.875,-168.3708 412.8412,-159.6619 408.7272,-165.3255"/>
</g>
<!-- Node27 -->
<g id="node10" class="node">
<title>Node27</title>
<g id="a_node10"><a xlink:href="fixed__wing__ops_8_h.html" target="_top" xlink:title="fixed_wing_ops.H">
<polygon fill="#ffffff" stroke="#000000" points="484.0454,-56.5 484.0454,-75.5 586.0454,-75.5 586.0454,-56.5 484.0454,-56.5"/>
<text text-anchor="middle" x="535.0454" y="-63.5" font-family="Helvetica,sans-Serif" font-size="10.00" fill="#000000">fixed_wing_ops.H</text>
</a>
</g>
</g>
<!-- Node25&#45;&gt;Node27 -->
<g id="edge12" class="edge">
<title>Node25&#45;&gt;Node27</title>
<path fill="none" stroke="#191970" d="M446.9697,-160.5089C458.5393,-147.0745 475.0709,-128.1487 490.0454,-112 501.8957,-99.2205 516.0137,-84.9345 525.2351,-75.7235"/>
<polygon fill="#191970" stroke="#191970" points="444.0037,-158.5908 440.1495,-168.4598 449.3168,-163.1483 444.0037,-158.5908"/>
</g>
<!-- Node25&#45;&gt;Node28 -->
<g id="edge14" class="edge">
<title>Node25&#45;&gt;Node28</title>
<path fill="none" stroke="#191970" d="M458.7886,-163.46C477.2204,-153.4388 501.2038,-140.3993 517.3098,-131.6427"/>
<polygon fill="#191970" stroke="#191970" points="457.1003,-160.394 449.9866,-168.2455 460.4439,-166.5438 457.1003,-160.394"/>
</g>
<!-- Node29 -->
<g id="node12" class="node">
<title>Node29</title>
<g id="a_node12"><a xlink:href="flat__plate__ops_8_h.html" target="_top" xlink:title="flat_plate_ops.H">
<polygon fill="#ffffff" stroke="#000000" points="370.5454,-56.5 370.5454,-75.5 465.5454,-75.5 465.5454,-56.5 370.5454,-56.5"/>
<text text-anchor="middle" x="418.0454" y="-63.5" font-family="Helvetica,sans-Serif" font-size="10.00" fill="#000000">flat_plate_ops.H</text>
</a>
</g>
</g>
<!-- Node25&#45;&gt;Node29 -->
<g id="edge19" class="edge">
<title>Node25&#45;&gt;Node29</title>
<path fill="none" stroke="#191970" d="M429.5792,-158.2702C426.5452,-133.9985 421.517,-93.7725 419.236,-75.5249"/>
<polygon fill="#191970" stroke="#191970" points="426.1384,-158.9623 430.8518,-168.4509 433.0843,-158.094 426.1384,-158.9623"/>
</g>
<!-- Node26&#45;&gt;Node22 -->
<g id="edge11" class="edge">
<title>Node26&#45;&gt;Node22</title>
<path fill="none" stroke="#191970" d="M66.0454,-46.1575C66.0454,-37.155 66.0454,-26.9199 66.0454,-19.6427"/>
<polygon fill="#191970" stroke="#191970" points="62.5455,-46.2455 66.0454,-56.2455 69.5455,-46.2456 62.5455,-46.2455"/>
</g>
<!-- Node27&#45;&gt;Node23 -->
<g id="edge13" class="edge">
<title>Node27&#45;&gt;Node23</title>
<path fill="none" stroke="#191970" d="M535.0454,-46.1575C535.0454,-37.155 535.0454,-26.9199 535.0454,-19.6427"/>
<polygon fill="#191970" stroke="#191970" points="531.5455,-46.2455 535.0454,-56.2455 538.5455,-46.2456 531.5455,-46.2455"/>
</g>
<!-- Node28&#45;&gt;Node27 -->
<g id="edge15" class="edge">
<title>Node28&#45;&gt;Node27</title>
<path fill="none" stroke="#191970" d="M535.0454,-102.1575C535.0454,-93.155 535.0454,-82.9199 535.0454,-75.6427"/>
<polygon fill="#191970" stroke="#191970" points="531.5455,-102.2455 535.0454,-112.2455 538.5455,-102.2456 531.5455,-102.2455"/>
</g>
<!-- Node28&#45;&gt;Node29 -->
<g id="edge16" class="edge">
<title>Node28&#45;&gt;Node29</title>
<path fill="none" stroke="#191970" d="M505.7412,-107.9741C484.5574,-97.8348 456.5051,-84.408 437.896,-75.5011"/>
<polygon fill="#191970" stroke="#191970" points="504.4013,-111.2129 514.9324,-112.3733 507.4234,-104.8989 504.4013,-111.2129"/>
</g>
<!-- Node30 -->
<g id="node13" class="node">
<title>Node30</title>
<g id="a_node13"><a xlink:href="wing__ops_8cpp.html" target="_top" xlink:title="wing_ops.cpp">
<polygon fill="#ffffff" stroke="#000000" points="604.5454,-56.5 604.5454,-75.5 687.5454,-75.5 687.5454,-56.5 604.5454,-56.5"/>
<text text-anchor="middle" x="646.0454" y="-63.5" font-family="Helvetica,sans-Serif" font-size="10.00" fill="#000000">wing_ops.cpp</text>
</a>
</g>
</g>
<!-- Node28&#45;&gt;Node30 -->
<g id="edge18" class="edge">
<title>Node28&#45;&gt;Node30</title>
<path fill="none" stroke="#191970" d="M563.1188,-107.8368C583.1839,-97.7139 609.6376,-84.3679 627.2128,-75.5011"/>
<polygon fill="#191970" stroke="#191970" points="561.4786,-104.7441 554.127,-112.3733 564.6316,-110.9938 561.4786,-104.7441"/>
</g>
<!-- Node29&#45;&gt;Node24 -->
<g id="edge17" class="edge">
<title>Node29&#45;&gt;Node24</title>
<path fill="none" stroke="#191970" d="M418.0454,-46.1575C418.0454,-37.155 418.0454,-26.9199 418.0454,-19.6427"/>
<polygon fill="#191970" stroke="#191970" points="414.5455,-46.2455 418.0454,-56.2455 421.5455,-46.2456 414.5455,-46.2455"/>
</g>
<!-- Node32&#45;&gt;Node28 -->
<g id="edge29" class="edge">
<title>Node32&#45;&gt;Node28</title>
<path fill="none" stroke="#191970" d="M672.7523,-165.3235C640.1086,-155.0536 594.832,-140.8093 565.2454,-131.5011"/>
<polygon fill="#191970" stroke="#191970" points="671.8567,-168.7108 682.4461,-168.3733 673.9574,-162.0335 671.8567,-168.7108"/>
</g>
<!-- Node33 -->
<g id="node16" class="node">
<title>Node33</title>
<g id="a_node16"><a xlink:href="_airfoil_table_8cpp.html" target="_top" xlink:title="AirfoilTable.cpp">
<polygon fill="#ffffff" stroke="#000000" points="877.0454,-112.5 877.0454,-131.5 969.0454,-131.5 969.0454,-112.5 877.0454,-112.5"/>
<text text-anchor="middle" x="923.0454" y="-119.5" font-family="Helvetica,sans-Serif" font-size="10.00" fill="#000000">AirfoilTable.cpp</text>
</a>
</g>
</g>
<!-- Node32&#45;&gt;Node33 -->
<g id="edge23" class="edge">
<title>Node32&#45;&gt;Node33</title>
<path fill="none" stroke="#191970" d="M759.0958,-165.7199C797.7099,-155.4228 852.0593,-140.9296 887.4162,-131.5011"/>
<polygon fill="#191970" stroke="#191970" points="757.9062,-162.4147 749.1457,-168.3733 759.7099,-169.1784 757.9062,-162.4147"/>
</g>
<!-- Node34 -->
<g id="node17" class="node">
<title>Node34</title>
<g id="a_node17"><a xlink:href="_airfoil_table_i_8_h.html" target="_top" xlink:title="AirfoilTableI.H">
<polygon fill="#ffffff" stroke="#000000" points="773.5454,-112.5 773.5454,-131.5 858.5454,-131.5 858.5454,-112.5 773.5454,-112.5"/>
<text text-anchor="middle" x="816.0454" y="-119.5" font-family="Helvetica,sans-Serif" font-size="10.00" fill="#000000">AirfoilTableI.H</text>
</a>
</g>
</g>
<!-- Node32&#45;&gt;Node34 -->
<g id="edge24" class="edge">
<title>Node32&#45;&gt;Node34</title>
<path fill="none" stroke="#191970" d="M734.4979,-163.0465C751.6753,-153.0824 775.4925,-140.2794 793.0646,-131.6427"/>
<polygon fill="#191970" stroke="#191970" points="732.5403,-160.138 725.7198,-168.2455 736.1075,-166.1609 732.5403,-160.138"/>
</g>
<!-- Node35 -->
<g id="node18" class="node">
<title>Node35</title>
<g id="a_node18"><a xlink:href="_fixed_wing_8_h.html" target="_top" xlink:title="FixedWing.H">
<polygon fill="#ffffff" stroke="#000000" points="678.5454,-112.5 678.5454,-131.5 755.5454,-131.5 755.5454,-112.5 678.5454,-112.5"/>
<text text-anchor="middle" x="717.0454" y="-119.5" font-family="Helvetica,sans-Serif" font-size="10.00" fill="#000000">FixedWing.H</text>
</a>
</g>
</g>
<!-- Node32&#45;&gt;Node35 -->
<g id="edge26" class="edge">
<title>Node32&#45;&gt;Node35</title>
<path fill="none" stroke="#191970" d="M714.4627,-158.1575C715.1058,-149.155 715.8368,-138.9199 716.3566,-131.6427"/>
<polygon fill="#191970" stroke="#191970" points="710.9636,-158.0216 713.7422,-168.2455 717.9458,-158.5204 710.9636,-158.0216"/>
</g>
<!-- Node36 -->
<g id="node19" class="node">
<title>Node36</title>
<g id="a_node19"><a xlink:href="_flat_plate_8_h.html" target="_top" xlink:title="FlatPlate.H">
<polygon fill="#ffffff" stroke="#000000" points="590.0454,-112.5 590.0454,-131.5 660.0454,-131.5 660.0454,-112.5 590.0454,-112.5"/>
<text text-anchor="middle" x="625.0454" y="-119.5" font-family="Helvetica,sans-Serif" font-size="10.00" fill="#000000">FlatPlate.H</text>
</a>
</g>
</g>
<!-- Node32&#45;&gt;Node36 -->
<g id="edge30" class="edge">
<title>Node32&#45;&gt;Node36</title>
<path fill="none" stroke="#191970" d="M689.111,-162.769C673.5171,-152.8456 653.6444,-140.1994 640.1982,-131.6427"/>
<polygon fill="#191970" stroke="#191970" points="687.4013,-165.8296 697.717,-168.2455 691.1594,-159.9239 687.4013,-165.8296"/>
</g>
<!-- Node34&#45;&gt;Node32 -->
<g id="edge25" class="edge">
<title>Node34&#45;&gt;Node32</title>
<path fill="none" stroke="#191970" d="M795.012,-136.7102C777.794,-146.7145 753.7123,-159.666 735.9938,-168.3733"/>
<polygon fill="#191970" stroke="#191970" points="796.9749,-139.6153 803.7874,-131.5011 793.4017,-133.5959 796.9749,-139.6153"/>
</g>
<!-- Node35&#45;&gt;Node23 -->
<g id="edge28" class="edge">
<title>Node35&#45;&gt;Node23</title>
<path fill="none" stroke="#191970" d="M728.0096,-103.3939C734.8917,-89.0232 740.6459,-69.3921 730.0454,-56 711.5335,-32.6131 630.3096,-19.9164 578.706,-14.0827"/>
<polygon fill="#191970" stroke="#191970" points="724.847,-101.8871 723.252,-112.3612 731.0306,-105.1678 724.847,-101.8871"/>
</g>
<!-- Node35&#45;&gt;Node27 -->
<g id="edge27" class="edge">
<title>Node35&#45;&gt;Node27</title>
<path fill="none" stroke="#191970" d="M675.8468,-109.3235C642.4696,-99.0536 596.1755,-84.8093 565.9241,-75.5011"/>
<polygon fill="#191970" stroke="#191970" points="675.1714,-112.7776 685.7585,-112.3733 677.23,-106.0871 675.1714,-112.7776"/>
</g>
<!-- Node36&#45;&gt;Node24 -->
<g id="edge32" class="edge">
<title>Node36&#45;&gt;Node24</title>
<path fill="none" stroke="#191970" d="M659.1445,-107.9767C685.1014,-95.3114 713.7553,-75.6905 697.0454,-56 695.1147,-53.725 535.0668,-28.3537 458.2801,-16.2949"/>
<polygon fill="#191970" stroke="#191970" points="657.3908,-104.932 649.7924,-112.3155 660.3367,-111.2819 657.3908,-104.932"/>
</g>
<!-- Node36&#45;&gt;Node29 -->
<g id="edge31" class="edge">
<title>Node36&#45;&gt;Node29</title>
<path fill="none" stroke="#191970" d="M580.1369,-109.8508C542.1062,-99.5623 488.3363,-85.0159 453.3324,-75.5462"/>
<polygon fill="#191970" stroke="#191970" points="579.3636,-113.2674 589.9307,-112.5004 581.1917,-106.5103 579.3636,-113.2674"/>
</g>
<!-- Node38 -->
<g id="node21" class="node">
<title>Node38</title>
<g id="a_node21"><a xlink:href="_turbine_fast_8_h.html" target="_top" xlink:title="TurbineFast.H">
<polygon fill="#ffffff" stroke="#000000" points="10.0454,-112.5 10.0454,-131.5 92.0454,-131.5 92.0454,-112.5 10.0454,-112.5"/>
<text text-anchor="middle" x="51.0454" y="-119.5" font-family="Helvetica,sans-Serif" font-size="10.00" fill="#000000">TurbineFast.H</text>
</a>
</g>
</g>
<!-- Node37&#45;&gt;Node38 -->
<g id="edge34" class="edge">
<title>Node37&#45;&gt;Node38</title>
<path fill="none" stroke="#191970" d="M126.3114,-163.3225C108.0922,-153.3198 84.4856,-140.3593 68.6089,-131.6427"/>
<polygon fill="#191970" stroke="#191970" points="124.8281,-166.5009 135.2784,-168.2455 128.197,-160.3649 124.8281,-166.5009"/>
</g>
<!-- Node39 -->
<g id="node22" class="node">
<title>Node39</title>
<g id="a_node22"><a xlink:href="turbine__utils_8_h.html" target="_top" xlink:title="turbine_utils.H">
<polygon fill="#ffffff" stroke="#000000" points="110.0454,-112.5 110.0454,-131.5 198.0454,-131.5 198.0454,-112.5 110.0454,-112.5"/>
<text text-anchor="middle" x="154.0454" y="-119.5" font-family="Helvetica,sans-Serif" font-size="10.00" fill="#000000">turbine_utils.H</text>
</a>
</g>
</g>
<!-- Node37&#45;&gt;Node39 -->
<g id="edge37" class="edge">
<title>Node37&#45;&gt;Node39</title>
<path fill="none" stroke="#191970" d="M153.3997,-158.1575C153.5605,-149.155 153.7433,-138.9199 153.8732,-131.6427"/>
<polygon fill="#191970" stroke="#191970" points="149.8988,-158.1846 153.2196,-168.2455 156.8977,-158.3097 149.8988,-158.1846"/>
</g>
<!-- Node38&#45;&gt;Node22 -->
<g id="edge36" class="edge">
<title>Node38&#45;&gt;Node22</title>
<path fill="none" stroke="#191970" d="M27.0417,-106.2532C10.715,-93.4368 -6.3539,-74.5013 3.0454,-56 11.5717,-39.2172 29.4123,-27.098 43.9388,-19.5258"/>
<polygon fill="#191970" stroke="#191970" points="25.2349,-109.2686 35.3678,-112.363 29.3762,-103.625 25.2349,-109.2686"/>
</g>
<!-- Node38&#45;&gt;Node26 -->
<g id="edge35" class="edge">
<title>Node38&#45;&gt;Node26</title>
<path fill="none" stroke="#191970" d="M56.281,-102.4538C58.7114,-93.3803 61.4919,-82.9998 63.4626,-75.6427"/>
<polygon fill="#191970" stroke="#191970" points="52.8648,-101.6805 53.6582,-112.2455 59.6265,-103.4917 52.8648,-101.6805"/>
</g>
<!-- Node39&#45;&gt;Node26 -->
<g id="edge38" class="edge">
<title>Node39&#45;&gt;Node26</title>
<path fill="none" stroke="#191970" d="M130.111,-106.769C114.5171,-96.8456 94.6444,-84.1994 81.1982,-75.6427"/>
<polygon fill="#191970" stroke="#191970" points="128.4013,-109.8296 138.717,-112.2455 132.1594,-103.9239 128.4013,-109.8296"/>
</g>
<!-- Node40 -->
<g id="node23" class="node">
<title>Node40</title>
<g id="a_node23"><a xlink:href="turbine__utils_8cpp.html" target="_top" xlink:title="turbine_utils.cpp">
<polygon fill="#ffffff" stroke="#000000" points="138.0454,-56.5 138.0454,-75.5 236.0454,-75.5 236.0454,-56.5 138.0454,-56.5"/>
<text text-anchor="middle" x="187.0454" y="-63.5" font-family="Helvetica,sans-Serif" font-size="10.00" fill="#000000">turbine_utils.cpp</text>
</a>
</g>
</g>
<!-- Node39&#45;&gt;Node40 -->
<g id="edge39" class="edge">
<title>Node39&#45;&gt;Node40</title>
<path fill="none" stroke="#191970" d="M164.8708,-103.6296C170.3753,-94.2887 176.8391,-83.3197 181.3631,-75.6427"/>
<polygon fill="#191970" stroke="#191970" points="161.8552,-101.8532 159.7936,-112.2455 167.8859,-105.4071 161.8552,-101.8532"/>
</g>
<!-- Node41&#45;&gt;Node28 -->
<g id="edge42" class="edge">
<title>Node41&#45;&gt;Node28</title>
<path fill="none" stroke="#191970" d="M583.1858,-161.645C571.3596,-151.9058 556.7562,-139.8795 546.7544,-131.6427"/>
<polygon fill="#191970" stroke="#191970" points="581.2564,-164.5902 591.2007,-168.2455 585.7064,-159.1867 581.2564,-164.5902"/>
</g>
<!-- Node41&#45;&gt;Node35 -->
<g id="edge41" class="edge">
<title>Node41&#45;&gt;Node35</title>
<path fill="none" stroke="#191970" d="M631.8775,-163.8368C652.4849,-153.7139 679.6536,-140.3679 697.7038,-131.5011"/>
<polygon fill="#191970" stroke="#191970" points="630.0751,-160.8227 622.6427,-168.3733 633.1614,-167.1056 630.0751,-160.8227"/>
</g>
<!-- Node41&#45;&gt;Node36 -->
<g id="edge43" class="edge">
<title>Node41&#45;&gt;Node36</title>
<path fill="none" stroke="#191970" d="M610.6082,-158.7493C614.2001,-149.6064 618.3355,-139.0798 621.2572,-131.6427"/>
<polygon fill="#191970" stroke="#191970" points="607.2765,-157.6582 606.8775,-168.2455 613.7917,-160.2178 607.2765,-157.6582"/>
</g>
</g>
</svg>
        <g id="navigator" transform="translate(0 0)" fill="#404254">
                <rect fill="#f2f5e9" fill-opacity="0.5" stroke="#606060" stroke-width=".5" x="0" y="0" width="60" height="60"/>
                <use id="zoomplus" xlink:href="#zoomPlus" x="17" y="9" onmousedown="handleZoom(evt,'in')"/>
                <use id="zoomminus" xlink:href="#zoomMin" x="42" y="9" onmousedown="handleZoom(evt,'out')"/>
                <use id="reset" xlink:href="#resetDef" x="30" y="36" onmousedown="handleReset()"/>
                <g id="arrowUp" xlink:href="#dirArrow" transform="translate(30 24)" onmousedown="handlePan(0,-1)">
                  <use xlink:href="#rim" fill="#404040">
                        <set attributeName="fill" to="#808080" begin="arrowUp.mouseover" end="arrowUp.mouseout"/>
                  </use>
                  <path fill="none" stroke="white" stroke-width="1.5" d="M0,-3.0v7 M-2.5,-0.5L0,-3.0L2.5,-0.5"/>
                </g>
                <g id="arrowRight" xlink:href="#dirArrow" transform="rotate(90) translate(36 -43)" onmousedown="handlePan(1,0)">
                  <use xlink:href="#rim" fill="#404040">
                        <set attributeName="fill" to="#808080" begin="arrowRight.mouseover" end="arrowRight.mouseout"/>
                  </use>
                  <path fill="none" stroke="white" stroke-width="1.5" d="M0,-3.0v7 M-2.5,-0.5L0,-3.0L2.5,-0.5"/>
                </g>
                <g id="arrowDown" xlink:href="#dirArrow" transform="rotate(180) translate(-30 -48)" onmousedown="handlePan(0,1)">
                  <use xlink:href="#rim" fill="#404040">
                        <set attributeName="fill" to="#808080" begin="arrowDown.mouseover" end="arrowDown.mouseout"/>
                  </use>
                  <path fill="none" stroke="white" stroke-width="1.5" d="M0,-3.0v7 M-2.5,-0.5L0,-3.0L2.5,-0.5"/>
                </g>
                <g id="arrowLeft" xlink:href="#dirArrow" transform="rotate(270) translate(-36 17)" onmousedown="handlePan(-1,0)">
                  <use xlink:href="#rim" fill="#404040">
                        <set attributeName="fill" to="#808080" begin="arrowLeft.mouseover" end="arrowLeft.mouseout"/>
                  </use>
                  <path fill="none" stroke="white" stroke-width="1.5" d="M0,-3.0v7 M-2.5,-0.5L0,-3.0L2.5,-0.5"/>
                </g>
        </g>
        <svg viewBox="0 0 15 15" width="100%" height="30px" preserveAspectRatio="xMaxYMin meet">
         <g id="arrow_out" transform="scale(0.3 0.3)">
          <a xlink:href="actuator__types_8_h__dep__incl_org.svg" target="_base">
           <rect id="button" ry="5" rx="5" y="6" x="6" height="38" width="38"
                fill="#f2f5e9" fill-opacity="0.5" stroke="#606060" stroke-width="1.0"/>
           <path id="arrow"
             d="M 11.500037,31.436501 C 11.940474,20.09759 22.043105,11.32322 32.158766,21.979434 L 37.068811,17.246167 C 37.068811,17.246167 37.088388,32 37.088388,32 L 22.160133,31.978069 C 22.160133,31.978069 26.997745,27.140456 26.997745,27.140456 C 18.528582,18.264221 13.291696,25.230495 11.500037,31.436501 z"
             style="fill:#404040;"/>
          </a>
         </g>
        </svg>
</svg>
