<?xml version="1.0" encoding="UTF-8" standalone="no"?>
<!DOCTYPE svg PUBLIC "-//W3C//DTD SVG 1.1//EN"
 "http://www.w3.org/Graphics/SVG/1.1/DTD/svg11.dtd">
<!-- Generated by graphviz version 2.40.1 (20161225.0304)
 -->
<!-- Title: actuator_utils.H Pages: 1 -->
<svg width="490pt" height="308pt"
 viewBox="0.00 0.00 490.00 308.00" xmlns="http://www.w3.org/2000/svg" xmlns:xlink="http://www.w3.org/1999/xlink">
<g id="graph0" class="graph" transform="scale(1 1) rotate(0) translate(4 304)">
<title>actuator_utils.H</title>
<polygon fill="#ffffff" stroke="transparent" points="-4,4 -4,-304 486,-304 486,4 -4,4"/>
<!-- Node12 -->
<g id="node1" class="node">
<title>Node12</title>
<polygon fill="#bfbfbf" stroke="#000000" points="212,-280.5 212,-299.5 306,-299.5 306,-280.5 212,-280.5"/>
<text text-anchor="middle" x="259" y="-287.5" font-family="Helvetica,sans-Serif" font-size="10.00" fill="#000000">actuator_utils.H</text>
</g>
<!-- Node13 -->
<g id="node2" class="node">
<title>Node13</title>
<g id="a_node2"><a xlink:href="actuator__ops_i_8_h.html" target="_top" xlink:title="actuator_opsI.H">
<polygon fill="#ffffff" stroke="#000000" points="175.5,-224.5 175.5,-243.5 268.5,-243.5 268.5,-224.5 175.5,-224.5"/>
<text text-anchor="middle" x="222" y="-231.5" font-family="Helvetica,sans-Serif" font-size="10.00" fill="#000000">actuator_opsI.H</text>
</a>
</g>
</g>
<!-- Node12&#45;&gt;Node13 -->
<g id="edge1" class="edge">
<title>Node12&#45;&gt;Node13</title>
<path fill="none" stroke="#191970" d="M246.8624,-271.6296C240.6907,-262.2887 233.4434,-251.3197 228.3711,-243.6427"/>
<polygon fill="#191970" stroke="#191970" points="244.1223,-273.8316 252.5551,-280.2455 249.9627,-269.9728 244.1223,-273.8316"/>
</g>
<!-- Node15 -->
<g id="node4" class="node">
<title>Node15</title>
<g id="a_node4"><a xlink:href="_act_src_op_8_h.html" target="_top" xlink:title="ActSrcOp.H">
<polygon fill="#ffffff" stroke="#000000" points="52.5,-112.5 52.5,-131.5 123.5,-131.5 123.5,-112.5 52.5,-112.5"/>
<text text-anchor="middle" x="88" y="-119.5" font-family="Helvetica,sans-Serif" font-size="10.00" fill="#000000">ActSrcOp.H</text>
</a>
</g>
</g>
<!-- Node12&#45;&gt;Node15 -->
<g id="edge20" class="edge">
<title>Node12&#45;&gt;Node15</title>
<path fill="none" stroke="#191970" d="M220.5318,-276.5365C202.57,-268.9335 181.7333,-258.0983 166,-244 128.3678,-210.2787 101.7452,-154.301 92.0429,-131.8046"/>
<polygon fill="#191970" stroke="#191970" points="219.5812,-279.9272 230.1642,-280.428 222.2033,-273.4369 219.5812,-279.9272"/>
</g>
<!-- Node21 -->
<g id="node10" class="node">
<title>Node21</title>
<g id="a_node10"><a xlink:href="turbine__fast__ops_8_h.html" target="_top" xlink:title="turbine_fast_ops.H">
<polygon fill="#ffffff" stroke="#000000" points="348,-112.5 348,-131.5 456,-131.5 456,-112.5 348,-112.5"/>
<text text-anchor="middle" x="402" y="-119.5" font-family="Helvetica,sans-Serif" font-size="10.00" fill="#000000">turbine_fast_ops.H</text>
</a>
</g>
</g>
<!-- Node12&#45;&gt;Node21 -->
<g id="edge22" class="edge">
<title>Node12&#45;&gt;Node21</title>
<path fill="none" stroke="#191970" d="M273.8552,-272.5477C303.7268,-237.4538 370.2092,-159.3486 393.6346,-131.8279"/>
<polygon fill="#191970" stroke="#191970" points="270.9146,-270.6027 267.098,-280.4862 276.245,-275.1399 270.9146,-270.6027"/>
</g>
<!-- Node26 -->
<g id="node15" class="node">
<title>Node26</title>
<g id="a_node15"><a xlink:href="actuator__utils_8cpp.html" target="_top" xlink:title="actuator_utils.cpp">
<polygon fill="#ffffff" stroke="#000000" points="325,-224.5 325,-243.5 429,-243.5 429,-224.5 325,-224.5"/>
<text text-anchor="middle" x="377" y="-231.5" font-family="Helvetica,sans-Serif" font-size="10.00" fill="#000000">actuator_utils.cpp</text>
</a>
</g>
</g>
<!-- Node12&#45;&gt;Node26 -->
<g id="edge21" class="edge">
<title>Node12&#45;&gt;Node26</title>
<path fill="none" stroke="#191970" d="M288.5547,-275.9741C309.9195,-265.8348 338.2116,-252.408 356.9798,-243.5011"/>
<polygon fill="#191970" stroke="#191970" points="286.8186,-272.9238 279.2849,-280.3733 289.8198,-279.2478 286.8186,-272.9238"/>
</g>
<!-- Node14 -->
<g id="node3" class="node">
<title>Node14</title>
<g id="a_node3"><a xlink:href="actuator__ops_8_h.html" target="_top" xlink:title="actuator_ops.H">
<polygon fill="#ffffff" stroke="#000000" points="177,-168.5 177,-187.5 267,-187.5 267,-168.5 177,-168.5"/>
<text text-anchor="middle" x="222" y="-175.5" font-family="Helvetica,sans-Serif" font-size="10.00" fill="#000000">actuator_ops.H</text>
</a>
</g>
</g>
<!-- Node13&#45;&gt;Node14 -->
<g id="edge2" class="edge">
<title>Node13&#45;&gt;Node14</title>
<path fill="none" stroke="#191970" d="M222,-214.1575C222,-205.155 222,-194.9199 222,-187.6427"/>
<polygon fill="#191970" stroke="#191970" points="218.5001,-214.2455 222,-224.2455 225.5001,-214.2456 218.5001,-214.2455"/>
</g>
<!-- Node14&#45;&gt;Node15 -->
<g id="edge3" class="edge">
<title>Node14&#45;&gt;Node15</title>
<path fill="none" stroke="#191970" d="M189.4172,-164.3833C165.0464,-154.1985 132.3358,-140.5284 110.7348,-131.5011"/>
<polygon fill="#191970" stroke="#191970" points="188.3883,-167.7466 198.9646,-168.3733 191.0875,-161.2879 188.3883,-167.7466"/>
</g>
<!-- Node16 -->
<g id="node5" class="node">
<title>Node16</title>
<g id="a_node5"><a xlink:href="_actuator_model_8_h.html" target="_top" xlink:title="ActuatorModel.H">
<polygon fill="#ffffff" stroke="#000000" points="0,-56.5 0,-75.5 98,-75.5 98,-56.5 0,-56.5"/>
<text text-anchor="middle" x="49" y="-63.5" font-family="Helvetica,sans-Serif" font-size="10.00" fill="#000000">ActuatorModel.H</text>
</a>
</g>
</g>
<!-- Node14&#45;&gt;Node16 -->
<g id="edge9" class="edge">
<title>Node14&#45;&gt;Node16</title>
<path fill="none" stroke="#191970" d="M201.8278,-162.0641C183.9214,-148.1981 156.8226,-127.8899 132,-112 110.632,-98.3215 84.9365,-84.4536 67.8527,-75.5741"/>
<polygon fill="#191970" stroke="#191970" points="199.7921,-164.915 209.8296,-168.306 204.0976,-159.3957 199.7921,-164.915"/>
</g>
<!-- Node14&#45;&gt;Node21 -->
<g id="edge10" class="edge">
<title>Node14&#45;&gt;Node21</title>
<path fill="none" stroke="#191970" d="M262.7459,-165.3235C295.7563,-155.0536 341.5417,-140.8093 371.4607,-131.5011"/>
<polygon fill="#191970" stroke="#191970" points="261.4519,-162.0605 252.9431,-168.3733 263.5314,-168.7445 261.4519,-162.0605"/>
</g>
<!-- Node22 -->
<g id="node11" class="node">
<title>Node22</title>
<g id="a_node11"><a xlink:href="fixed__wing__ops_8_h.html" target="_top" xlink:title="fixed_wing_ops.H">
<polygon fill="#ffffff" stroke="#000000" points="116,-56.5 116,-75.5 218,-75.5 218,-56.5 116,-56.5"/>
<text text-anchor="middle" x="167" y="-63.5" font-family="Helvetica,sans-Serif" font-size="10.00" fill="#000000">fixed_wing_ops.H</text>
</a>
</g>
</g>
<!-- Node14&#45;&gt;Node22 -->
<g id="edge12" class="edge">
<title>Node14&#45;&gt;Node22</title>
<path fill="none" stroke="#191970" d="M212.7923,-159.2498C200.9304,-135.0946 180.7599,-94.0202 171.6774,-75.5249"/>
<polygon fill="#191970" stroke="#191970" points="209.7611,-161.0176 217.3107,-168.4509 216.0444,-157.932 209.7611,-161.0176"/>
</g>
<!-- Node23 -->
<g id="node12" class="node">
<title>Node23</title>
<g id="a_node12"><a xlink:href="wing__ops_8_h.html" target="_top" xlink:title="wing_ops.H">
<polygon fill="#ffffff" stroke="#000000" points="218.5,-112.5 218.5,-131.5 291.5,-131.5 291.5,-112.5 218.5,-112.5"/>
<text text-anchor="middle" x="255" y="-119.5" font-family="Helvetica,sans-Serif" font-size="10.00" fill="#000000">wing_ops.H</text>
</a>
</g>
</g>
<!-- Node14&#45;&gt;Node23 -->
<g id="edge14" class="edge">
<title>Node14&#45;&gt;Node23</title>
<path fill="none" stroke="#191970" d="M232.8254,-159.6296C238.3299,-150.2887 244.7937,-139.3197 249.3177,-131.6427"/>
<polygon fill="#191970" stroke="#191970" points="229.8097,-157.8532 227.7482,-168.2455 235.8405,-161.4071 229.8097,-157.8532"/>
</g>
<!-- Node24 -->
<g id="node13" class="node">
<title>Node24</title>
<g id="a_node13"><a xlink:href="flat__plate__ops_8_h.html" target="_top" xlink:title="flat_plate_ops.H">
<polygon fill="#ffffff" stroke="#000000" points="337.5,-56.5 337.5,-75.5 432.5,-75.5 432.5,-56.5 337.5,-56.5"/>
<text text-anchor="middle" x="385" y="-63.5" font-family="Helvetica,sans-Serif" font-size="10.00" fill="#000000">flat_plate_ops.H</text>
</a>
</g>
</g>
<!-- Node14&#45;&gt;Node24 -->
<g id="edge19" class="edge">
<title>Node14&#45;&gt;Node24</title>
<path fill="none" stroke="#191970" d="M248.683,-163.3832C263.9952,-154.7205 283.4134,-143.2633 300,-132 327.3577,-113.4224 357.5185,-88.9833 373.528,-75.669"/>
<polygon fill="#191970" stroke="#191970" points="246.7574,-160.4499 239.7416,-168.389 250.177,-166.5579 246.7574,-160.4499"/>
</g>
<!-- Node15&#45;&gt;Node16 -->
<g id="edge4" class="edge">
<title>Node15&#45;&gt;Node16</title>
<path fill="none" stroke="#191970" d="M75.4092,-103.9209C68.8605,-94.5176 61.1176,-83.3997 55.7154,-75.6427"/>
<polygon fill="#191970" stroke="#191970" points="72.6196,-106.0397 81.2067,-112.2455 78.3639,-102.0392 72.6196,-106.0397"/>
</g>
<!-- Node17 -->
<g id="node6" class="node">
<title>Node17</title>
<g id="a_node6"><a xlink:href="_actuator_8cpp.html" target="_top" xlink:title="Actuator.cpp">
<polygon fill="#ffffff" stroke="#000000" points="10.5,-.5 10.5,-19.5 87.5,-19.5 87.5,-.5 10.5,-.5"/>
<text text-anchor="middle" x="49" y="-7.5" font-family="Helvetica,sans-Serif" font-size="10.00" fill="#000000">Actuator.cpp</text>
</a>
</g>
</g>
<!-- Node16&#45;&gt;Node17 -->
<g id="edge5" class="edge">
<title>Node16&#45;&gt;Node17</title>
<path fill="none" stroke="#191970" d="M49,-46.1575C49,-37.155 49,-26.9199 49,-19.6427"/>
<polygon fill="#191970" stroke="#191970" points="45.5001,-46.2455 49,-56.2455 52.5001,-46.2456 45.5001,-46.2455"/>
</g>
<!-- Node18 -->
<g id="node7" class="node">
<title>Node18</title>
<g id="a_node7"><a xlink:href="_turbine_fast_8cpp.html" target="_top" xlink:title="TurbineFast.cpp">
<polygon fill="#ffffff" stroke="#000000" points="390,-.5 390,-19.5 482,-19.5 482,-.5 390,-.5"/>
<text text-anchor="middle" x="436" y="-7.5" font-family="Helvetica,sans-Serif" font-size="10.00" fill="#000000">TurbineFast.cpp</text>
</a>
</g>
</g>
<!-- Node16&#45;&gt;Node18 -->
<g id="edge6" class="edge">
<title>Node16&#45;&gt;Node18</title>
<path fill="none" stroke="#191970" d="M108.0141,-55.8794C214.8418,-39.3221 328.1195,-24.0862 389.8899,-15.9762"/>
<polygon fill="#191970" stroke="#191970" points="107.3722,-52.4371 98.0297,-57.4338 108.4491,-59.3538 107.3722,-52.4371"/>
</g>
<!-- Node19 -->
<g id="node8" class="node">
<title>Node19</title>
<g id="a_node8"><a xlink:href="_fixed_wing_8cpp.html" target="_top" xlink:title="FixedWing.cpp">
<polygon fill="#ffffff" stroke="#000000" points="114.5,-.5 114.5,-19.5 201.5,-19.5 201.5,-.5 114.5,-.5"/>
<text text-anchor="middle" x="158" y="-7.5" font-family="Helvetica,sans-Serif" font-size="10.00" fill="#000000">FixedWing.cpp</text>
</a>
</g>
</g>
<!-- Node16&#45;&gt;Node19 -->
<g id="edge7" class="edge">
<title>Node16&#45;&gt;Node19</title>
<path fill="none" stroke="#191970" d="M77.0342,-51.5971C96.5746,-41.558 122.1092,-28.4393 139.2312,-19.6427"/>
<polygon fill="#191970" stroke="#191970" points="75.2817,-48.5625 67.9864,-56.2455 78.4806,-54.7889 75.2817,-48.5625"/>
</g>
<!-- Node20 -->
<g id="node9" class="node">
<title>Node20</title>
<g id="a_node9"><a xlink:href="_flat_plate_8cpp.html" target="_top" xlink:title="FlatPlate.cpp">
<polygon fill="#ffffff" stroke="#000000" points="268,-.5 268,-19.5 348,-19.5 348,-.5 268,-.5"/>
<text text-anchor="middle" x="308" y="-7.5" font-family="Helvetica,sans-Serif" font-size="10.00" fill="#000000">FlatPlate.cpp</text>
</a>
</g>
</g>
<!-- Node16&#45;&gt;Node20 -->
<g id="edge8" class="edge">
<title>Node16&#45;&gt;Node20</title>
<path fill="none" stroke="#191970" d="M103.0488,-54.3138C152.1692,-43.6931 223.5301,-28.2638 267.7849,-18.6951"/>
<polygon fill="#191970" stroke="#191970" points="102.2639,-50.9025 93.2294,-56.4369 103.7432,-57.7444 102.2639,-50.9025"/>
</g>
<!-- Node21&#45;&gt;Node18 -->
<g id="edge11" class="edge">
<title>Node21&#45;&gt;Node18</title>
<path fill="none" stroke="#191970" d="M422.0006,-105.0348C429.8185,-97.1126 437.8851,-87.0031 442,-76 449.0931,-57.0331 443.5973,-32.9504 439.4697,-19.7509"/>
<polygon fill="#191970" stroke="#191970" points="419.2968,-102.7736 414.4212,-112.18 424.0985,-107.8671 419.2968,-102.7736"/>
</g>
<!-- Node22&#45;&gt;Node19 -->
<g id="edge13" class="edge">
<title>Node22&#45;&gt;Node19</title>
<path fill="none" stroke="#191970" d="M163.811,-46.1575C162.3642,-37.155 160.7193,-26.9199 159.5497,-19.6427"/>
<polygon fill="#191970" stroke="#191970" points="160.3898,-46.9276 165.4323,-56.2455 167.3011,-45.8168 160.3898,-46.9276"/>
</g>
<!-- Node23&#45;&gt;Node22 -->
<g id="edge15" class="edge">
<title>Node23&#45;&gt;Node22</title>
<path fill="none" stroke="#191970" d="M231.0655,-106.769C215.4717,-96.8456 195.599,-84.1994 182.1528,-75.6427"/>
<polygon fill="#191970" stroke="#191970" points="229.3559,-109.8296 239.6716,-112.2455 233.114,-103.9239 229.3559,-109.8296"/>
</g>
<!-- Node23&#45;&gt;Node24 -->
<g id="edge16" class="edge">
<title>Node23&#45;&gt;Node24</title>
<path fill="none" stroke="#191970" d="M286.6102,-108.3833C310.2535,-98.1985 341.9876,-84.5284 362.9438,-75.5011"/>
<polygon fill="#191970" stroke="#191970" points="285.1472,-105.2025 277.3478,-112.3733 287.9166,-111.6314 285.1472,-105.2025"/>
</g>
<!-- Node25 -->
<g id="node14" class="node">
<title>Node25</title>
<g id="a_node14"><a xlink:href="wing__ops_8cpp.html" target="_top" xlink:title="wing_ops.cpp">
<polygon fill="#ffffff" stroke="#000000" points="236.5,-56.5 236.5,-75.5 319.5,-75.5 319.5,-56.5 236.5,-56.5"/>
<text text-anchor="middle" x="278" y="-63.5" font-family="Helvetica,sans-Serif" font-size="10.00" fill="#000000">wing_ops.cpp</text>
</a>
</g>
</g>
<!-- Node23&#45;&gt;Node25 -->
<g id="edge18" class="edge">
<title>Node23&#45;&gt;Node25</title>
<path fill="none" stroke="#191970" d="M262.9066,-102.7493C266.6617,-93.6064 270.9851,-83.0798 274.0396,-75.6427"/>
<polygon fill="#191970" stroke="#191970" points="259.568,-101.6656 259.0063,-112.2455 266.0431,-104.3251 259.568,-101.6656"/>
</g>
<!-- Node24&#45;&gt;Node20 -->
<g id="edge17" class="edge">
<title>Node24&#45;&gt;Node20</title>
<path fill="none" stroke="#191970" d="M363.2884,-50.2097C349.7647,-40.3743 332.8042,-28.0394 321.2587,-19.6427"/>
<polygon fill="#191970" stroke="#191970" points="361.4416,-53.1944 371.5876,-56.2455 365.5589,-47.5332 361.4416,-53.1944"/>
</g>
</g>
</svg>
