<?xml version="1.0" encoding="UTF-8" standalone="no"?>
<!DOCTYPE svg PUBLIC "-//W3C//DTD SVG 1.1//EN"
 "http://www.w3.org/Graphics/SVG/1.1/DTD/svg11.dtd">
<!-- Generated by graphviz version 2.40.1 (20161225.0304)
 -->
<!-- Title: actuator_opsI.H Pages: 1 -->
<!--zoomable 252 -->
<svg id="main" version="1.1" xmlns="http://www.w3.org/2000/svg" xmlns:xlink="http://www.w3.org/1999/xlink" xml:space="preserve" onload="init(evt)">
<style type="text/css"><![CDATA[
.edge:hover path { stroke: red; }
.edge:hover polygon { stroke: red; fill: red; }
]]></style>
<script type="text/javascript"><![CDATA[
var edges = document.getElementsByTagName('g');
if (edges && edges.length) {
  for (var i=0;i<edges.length;i++) {
    if (edges[i].id.substr(0,4)=='edge') {
      edges[i].setAttribute('class','edge');
    }
  }
}
]]></script>
        <defs>
                <circle id="rim" cx="0" cy="0" r="7"/>
                <circle id="rim2" cx="0" cy="0" r="3.5"/>
                <g id="zoomPlus">
                        <use xlink:href="#rim" fill="#404040">
                                <set attributeName="fill" to="#808080" begin="zoomplus.mouseover" end="zoomplus.mouseout"/>
                        </use>
                        <path d="M-4,0h8M0,-4v8" fill="none" stroke="white" stroke-width="1.5" pointer-events="none"/>
                </g>
                <g id="zoomMin">
                        <use xlink:href="#rim" fill="#404040">
                                <set attributeName="fill" to="#808080" begin="zoomminus.mouseover" end="zoomminus.mouseout"/>
                        </use>
                        <path d="M-4,0h8" fill="none" stroke="white" stroke-width="1.5" pointer-events="none"/>
                </g>
                <g id="dirArrow">
                        <path fill="none" stroke="white" stroke-width="1.5" d="M0,-3.0v7 M-2.5,-0.5L0,-3.0L2.5,-0.5"/>
                </g>
               <g id="resetDef">
                       <use xlink:href="#rim2" fill="#404040">
                               <set attributeName="fill" to="#808080" begin="reset.mouseover" end="reset.mouseout"/>
                       </use>
               </g>
        </defs>

<script type="text/javascript">
var viewWidth = 529;
var viewHeight = 252;
var sectionId = 'dynsection-1';
</script>
<script xlink:href="svgpan.js"/>
<svg id="graph" class="graph">
<g id="viewport">
<title>actuator_opsI.H</title>
<polygon fill="#ffffff" stroke="transparent" points="-4,4 -4,-248 524.5,-248 524.5,4 -4,4"/>
<!-- Node45 -->
<g id="node1" class="node">
<title>Node45</title>
<polygon fill="#bfbfbf" stroke="#000000" points="186.5,-224.5 186.5,-243.5 279.5,-243.5 279.5,-224.5 186.5,-224.5"/>
<text text-anchor="middle" x="233" y="-231.5" font-family="Helvetica,sans-Serif" font-size="10.00" fill="#000000">actuator_opsI.H</text>
</g>
<!-- Node46 -->
<g id="node2" class="node">
<title>Node46</title>
<g id="a_node2"><a xlink:href="actuator__ops_8_h.html" target="_top" xlink:title="actuator_ops.H">
<polygon fill="#ffffff" stroke="#000000" points="188,-168.5 188,-187.5 278,-187.5 278,-168.5 188,-168.5"/>
<text text-anchor="middle" x="233" y="-175.5" font-family="Helvetica,sans-Serif" font-size="10.00" fill="#000000">actuator_ops.H</text>
</a>
</g>
</g>
<!-- Node45&#45;&gt;Node46 -->
<g id="edge1" class="edge">
<title>Node45&#45;&gt;Node46</title>
<path fill="none" stroke="#191970" d="M233,-214.1575C233,-205.155 233,-194.9199 233,-187.6427"/>
<polygon fill="#191970" stroke="#191970" points="229.5001,-214.2455 233,-224.2455 236.5001,-214.2456 229.5001,-214.2455"/>
</g>
<!-- Node47 -->
<g id="node3" class="node">
<title>Node47</title>
<g id="a_node3"><a xlink:href="_act_src_op_8_h.html" target="_top" xlink:title="ActSrcOp.H">
<polygon fill="#ffffff" stroke="#000000" points="165.5,-112.5 165.5,-131.5 236.5,-131.5 236.5,-112.5 165.5,-112.5"/>
<text text-anchor="middle" x="201" y="-119.5" font-family="Helvetica,sans-Serif" font-size="10.00" fill="#000000">ActSrcOp.H</text>
</a>
</g>
</g>
<!-- Node46&#45;&gt;Node47 -->
<g id="edge2" class="edge">
<title>Node46&#45;&gt;Node47</title>
<path fill="none" stroke="#191970" d="M222.3355,-159.3372C217.0346,-150.0605 210.8513,-139.2398 206.5101,-131.6427"/>
<polygon fill="#191970" stroke="#191970" points="219.4257,-161.2996 227.426,-168.2455 225.5034,-157.8266 219.4257,-161.2996"/>
</g>
<!-- Node48 -->
<g id="node4" class="node">
<title>Node48</title>
<g id="a_node4"><a xlink:href="_actuator_model_8_h.html" target="_top" xlink:title="ActuatorModel.H">
<polygon fill="#ffffff" stroke="#000000" points="88,-56.5 88,-75.5 186,-75.5 186,-56.5 88,-56.5"/>
<text text-anchor="middle" x="137" y="-63.5" font-family="Helvetica,sans-Serif" font-size="10.00" fill="#000000">ActuatorModel.H</text>
</a>
</g>
</g>
<!-- Node46&#45;&gt;Node48 -->
<g id="edge8" class="edge">
<title>Node46&#45;&gt;Node48</title>
<path fill="none" stroke="#191970" d="M197.5711,-163.9022C182.8204,-156.4212 166.6783,-145.8646 156,-132 142.9038,-114.996 138.8308,-89.2745 137.5667,-75.501"/>
<polygon fill="#191970" stroke="#191970" points="196.4578,-167.2482 206.9922,-168.3781 199.4617,-160.9254 196.4578,-167.2482"/>
</g>
<!-- Node53 -->
<g id="node9" class="node">
<title>Node53</title>
<g id="a_node9"><a xlink:href="turbine__fast__ops_8_h.html" target="_top" xlink:title="turbine_fast_ops.H">
<polygon fill="#ffffff" stroke="#000000" points="0,-112.5 0,-131.5 108,-131.5 108,-112.5 0,-112.5"/>
<text text-anchor="middle" x="54" y="-119.5" font-family="Helvetica,sans-Serif" font-size="10.00" fill="#000000">turbine_fast_ops.H</text>
</a>
</g>
</g>
<!-- Node46&#45;&gt;Node53 -->
<g id="edge9" class="edge">
<title>Node46&#45;&gt;Node53</title>
<path fill="none" stroke="#191970" d="M192.4805,-165.3235C159.6534,-155.0536 114.1224,-140.8093 84.3697,-131.5011"/>
<polygon fill="#191970" stroke="#191970" points="191.6399,-168.7278 202.2288,-168.3733 193.73,-162.0471 191.6399,-168.7278"/>
</g>
<!-- Node54 -->
<g id="node10" class="node">
<title>Node54</title>
<g id="a_node10"><a xlink:href="fixed__wing__ops_8_h.html" target="_top" xlink:title="fixed_wing_ops.H">
<polygon fill="#ffffff" stroke="#000000" points="204,-56.5 204,-75.5 306,-75.5 306,-56.5 204,-56.5"/>
<text text-anchor="middle" x="255" y="-63.5" font-family="Helvetica,sans-Serif" font-size="10.00" fill="#000000">fixed_wing_ops.H</text>
</a>
</g>
</g>
<!-- Node46&#45;&gt;Node54 -->
<g id="edge11" class="edge">
<title>Node46&#45;&gt;Node54</title>
<path fill="none" stroke="#191970" d="M238.5663,-158.5134C240.7677,-150.3652 243.1971,-140.7689 245,-132 249.061,-112.2481 252.2214,-88.8561 253.8293,-75.8971"/>
<polygon fill="#191970" stroke="#191970" points="235.1799,-157.6276 235.8757,-168.1996 241.9245,-159.5012 235.1799,-157.6276"/>
</g>
<!-- Node55 -->
<g id="node11" class="node">
<title>Node55</title>
<g id="a_node11"><a xlink:href="wing__ops_8_h.html" target="_top" xlink:title="wing_ops.H">
<polygon fill="#ffffff" stroke="#000000" points="311.5,-112.5 311.5,-131.5 384.5,-131.5 384.5,-112.5 311.5,-112.5"/>
<text text-anchor="middle" x="348" y="-119.5" font-family="Helvetica,sans-Serif" font-size="10.00" fill="#000000">wing_ops.H</text>
</a>
</g>
</g>
<!-- Node46&#45;&gt;Node55 -->
<g id="edge13" class="edge">
<title>Node46&#45;&gt;Node55</title>
<path fill="none" stroke="#191970" d="M261.8033,-163.9741C282.625,-153.8348 310.1978,-140.408 328.4888,-131.5011"/>
<polygon fill="#191970" stroke="#191970" points="260.2276,-160.8484 252.7692,-168.3733 263.2922,-167.1419 260.2276,-160.8484"/>
</g>
<!-- Node56 -->
<g id="node12" class="node">
<title>Node56</title>
<g id="a_node12"><a xlink:href="flat__plate__ops_8_h.html" target="_top" xlink:title="flat_plate_ops.H">
<polygon fill="#ffffff" stroke="#000000" points="425.5,-56.5 425.5,-75.5 520.5,-75.5 520.5,-56.5 425.5,-56.5"/>
<text text-anchor="middle" x="473" y="-63.5" font-family="Helvetica,sans-Serif" font-size="10.00" fill="#000000">flat_plate_ops.H</text>
</a>
</g>
</g>
<!-- Node46&#45;&gt;Node56 -->
<g id="edge18" class="edge">
<title>Node46&#45;&gt;Node56</title>
<path fill="none" stroke="#191970" d="M288.3524,-167.9551C320.1855,-160.7675 360.2346,-149.2616 393,-132 421.9926,-116.7261 450.1959,-89.8112 464.0784,-75.5273"/>
<polygon fill="#191970" stroke="#191970" points="287.3515,-164.591 278.3253,-170.1388 288.8411,-171.4307 287.3515,-164.591"/>
</g>
<!-- Node47&#45;&gt;Node48 -->
<g id="edge3" class="edge">
<title>Node47&#45;&gt;Node48</title>
<path fill="none" stroke="#191970" d="M182.3086,-105.645C171.1781,-95.9058 157.4337,-83.8795 148.0202,-75.6427"/>
<polygon fill="#191970" stroke="#191970" points="180.0215,-108.2945 189.8521,-112.2455 184.631,-103.0264 180.0215,-108.2945"/>
</g>
<!-- Node49 -->
<g id="node5" class="node">
<title>Node49</title>
<g id="a_node5"><a xlink:href="_actuator_8cpp.html" target="_top" xlink:title="Actuator.cpp">
<polygon fill="#ffffff" stroke="#000000" points="116.5,-.5 116.5,-19.5 193.5,-19.5 193.5,-.5 116.5,-.5"/>
<text text-anchor="middle" x="155" y="-7.5" font-family="Helvetica,sans-Serif" font-size="10.00" fill="#000000">Actuator.cpp</text>
</a>
</g>
</g>
<!-- Node48&#45;&gt;Node49 -->
<g id="edge4" class="edge">
<title>Node48&#45;&gt;Node49</title>
<path fill="none" stroke="#191970" d="M143.2827,-46.4538C146.1992,-37.3803 149.5358,-26.9998 151.9006,-19.6427"/>
<polygon fill="#191970" stroke="#191970" points="139.8634,-45.6542 140.1354,-56.2455 146.5276,-47.7963 139.8634,-45.6542"/>
</g>
<!-- Node50 -->
<g id="node6" class="node">
<title>Node50</title>
<g id="a_node6"><a xlink:href="_turbine_fast_8cpp.html" target="_top" xlink:title="TurbineFast.cpp">
<polygon fill="#ffffff" stroke="#000000" points="6,-.5 6,-19.5 98,-19.5 98,-.5 6,-.5"/>
<text text-anchor="middle" x="52" y="-7.5" font-family="Helvetica,sans-Serif" font-size="10.00" fill="#000000">TurbineFast.cpp</text>
</a>
</g>
</g>
<!-- Node48&#45;&gt;Node50 -->
<g id="edge5" class="edge">
<title>Node48&#45;&gt;Node50</title>
<path fill="none" stroke="#191970" d="M113.4581,-50.49C98.461,-40.6096 79.5027,-28.1194 66.6362,-19.6427"/>
<polygon fill="#191970" stroke="#191970" points="111.9179,-53.6666 122.1941,-56.2455 115.7691,-47.8212 111.9179,-53.6666"/>
</g>
<!-- Node51 -->
<g id="node7" class="node">
<title>Node51</title>
<g id="a_node7"><a xlink:href="_fixed_wing_8cpp.html" target="_top" xlink:title="FixedWing.cpp">
<polygon fill="#ffffff" stroke="#000000" points="211.5,-.5 211.5,-19.5 298.5,-19.5 298.5,-.5 211.5,-.5"/>
<text text-anchor="middle" x="255" y="-7.5" font-family="Helvetica,sans-Serif" font-size="10.00" fill="#000000">FixedWing.cpp</text>
</a>
</g>
</g>
<!-- Node48&#45;&gt;Node51 -->
<g id="edge6" class="edge">
<title>Node48&#45;&gt;Node51</title>
<path fill="none" stroke="#191970" d="M166.5547,-51.9741C187.9195,-41.8348 216.2116,-28.408 234.9798,-19.5011"/>
<polygon fill="#191970" stroke="#191970" points="164.8186,-48.9238 157.2849,-56.3733 167.8198,-55.2478 164.8186,-48.9238"/>
</g>
<!-- Node52 -->
<g id="node8" class="node">
<title>Node52</title>
<g id="a_node8"><a xlink:href="_flat_plate_8cpp.html" target="_top" xlink:title="FlatPlate.cpp">
<polygon fill="#ffffff" stroke="#000000" points="375,-.5 375,-19.5 455,-19.5 455,-.5 375,-.5"/>
<text text-anchor="middle" x="415" y="-7.5" font-family="Helvetica,sans-Serif" font-size="10.00" fill="#000000">FlatPlate.cpp</text>
</a>
</g>
</g>
<!-- Node48&#45;&gt;Node52 -->
<g id="edge7" class="edge">
<title>Node48&#45;&gt;Node52</title>
<path fill="none" stroke="#191970" d="M194.5653,-54.4041C248.4631,-43.547 327.5951,-27.6067 374.937,-18.0702"/>
<polygon fill="#191970" stroke="#191970" points="193.5859,-51.031 184.474,-56.4369 194.9683,-57.8932 193.5859,-51.031"/>
</g>
<!-- Node53&#45;&gt;Node50 -->
<g id="edge10" class="edge">
<title>Node53&#45;&gt;Node50</title>
<path fill="none" stroke="#191970" d="M53.6477,-102.2702C53.2143,-77.9985 52.4959,-37.7725 52.1701,-19.5249"/>
<polygon fill="#191970" stroke="#191970" points="50.1514,-102.5151 53.8295,-112.4509 57.1503,-102.39 50.1514,-102.5151"/>
</g>
<!-- Node54&#45;&gt;Node51 -->
<g id="edge12" class="edge">
<title>Node54&#45;&gt;Node51</title>
<path fill="none" stroke="#191970" d="M255,-46.1575C255,-37.155 255,-26.9199 255,-19.6427"/>
<polygon fill="#191970" stroke="#191970" points="251.5001,-46.2455 255,-56.2455 258.5001,-46.2456 251.5001,-46.2455"/>
</g>
<!-- Node55&#45;&gt;Node54 -->
<g id="edge14" class="edge">
<title>Node55&#45;&gt;Node54</title>
<path fill="none" stroke="#191970" d="M323.1665,-107.0465C306.6189,-97.0824 285.3568,-84.2794 271.0137,-75.6427"/>
<polygon fill="#191970" stroke="#191970" points="321.4283,-110.0854 331.8006,-112.2455 325.0393,-104.0886 321.4283,-110.0854"/>
</g>
<!-- Node55&#45;&gt;Node56 -->
<g id="edge15" class="edge">
<title>Node55&#45;&gt;Node56</title>
<path fill="none" stroke="#191970" d="M378.698,-108.2473C401.3993,-98.0771 431.7315,-84.4883 451.7921,-75.5011"/>
<polygon fill="#191970" stroke="#191970" points="377.1833,-105.0906 369.4883,-112.3733 380.0453,-111.4789 377.1833,-105.0906"/>
</g>
<!-- Node57 -->
<g id="node13" class="node">
<title>Node57</title>
<g id="a_node13"><a xlink:href="wing__ops_8cpp.html" target="_top" xlink:title="wing_ops.cpp">
<polygon fill="#ffffff" stroke="#000000" points="324.5,-56.5 324.5,-75.5 407.5,-75.5 407.5,-56.5 324.5,-56.5"/>
<text text-anchor="middle" x="366" y="-63.5" font-family="Helvetica,sans-Serif" font-size="10.00" fill="#000000">wing_ops.cpp</text>
</a>
</g>
</g>
<!-- Node55&#45;&gt;Node57 -->
<g id="edge17" class="edge">
<title>Node55&#45;&gt;Node57</title>
<path fill="none" stroke="#191970" d="M354.2827,-102.4538C357.1992,-93.3803 360.5358,-82.9998 362.9006,-75.6427"/>
<polygon fill="#191970" stroke="#191970" points="350.8634,-101.6542 351.1354,-112.2455 357.5276,-103.7963 350.8634,-101.6542"/>
</g>
<!-- Node56&#45;&gt;Node52 -->
<g id="edge16" class="edge">
<title>Node56&#45;&gt;Node52</title>
<path fill="none" stroke="#191970" d="M455.4707,-49.0751C445.4917,-39.4402 433.3524,-27.7196 424.9871,-19.6427"/>
<polygon fill="#191970" stroke="#191970" points="453.272,-51.8175 462.8972,-56.2455 458.1342,-46.7817 453.272,-51.8175"/>
</g>
</g>
</svg>
        <g id="navigator" transform="translate(0 0)" fill="#404254">
                <rect fill="#f2f5e9" fill-opacity="0.5" stroke="#606060" stroke-width=".5" x="0" y="0" width="60" height="60"/>
                <use id="zoomplus" xlink:href="#zoomPlus" x="17" y="9" onmousedown="handleZoom(evt,'in')"/>
                <use id="zoomminus" xlink:href="#zoomMin" x="42" y="9" onmousedown="handleZoom(evt,'out')"/>
                <use id="reset" xlink:href="#resetDef" x="30" y="36" onmousedown="handleReset()"/>
                <g id="arrowUp" xlink:href="#dirArrow" transform="translate(30 24)" onmousedown="handlePan(0,-1)">
                  <use xlink:href="#rim" fill="#404040">
                        <set attributeName="fill" to="#808080" begin="arrowUp.mouseover" end="arrowUp.mouseout"/>
                  </use>
                  <path fill="none" stroke="white" stroke-width="1.5" d="M0,-3.0v7 M-2.5,-0.5L0,-3.0L2.5,-0.5"/>
                </g>
                <g id="arrowRight" xlink:href="#dirArrow" transform="rotate(90) translate(36 -43)" onmousedown="handlePan(1,0)">
                  <use xlink:href="#rim" fill="#404040">
                        <set attributeName="fill" to="#808080" begin="arrowRight.mouseover" end="arrowRight.mouseout"/>
                  </use>
                  <path fill="none" stroke="white" stroke-width="1.5" d="M0,-3.0v7 M-2.5,-0.5L0,-3.0L2.5,-0.5"/>
                </g>
                <g id="arrowDown" xlink:href="#dirArrow" transform="rotate(180) translate(-30 -48)" onmousedown="handlePan(0,1)">
                  <use xlink:href="#rim" fill="#404040">
                        <set attributeName="fill" to="#808080" begin="arrowDown.mouseover" end="arrowDown.mouseout"/>
                  </use>
                  <path fill="none" stroke="white" stroke-width="1.5" d="M0,-3.0v7 M-2.5,-0.5L0,-3.0L2.5,-0.5"/>
                </g>
                <g id="arrowLeft" xlink:href="#dirArrow" transform="rotate(270) translate(-36 17)" onmousedown="handlePan(-1,0)">
                  <use xlink:href="#rim" fill="#404040">
                        <set attributeName="fill" to="#808080" begin="arrowLeft.mouseover" end="arrowLeft.mouseout"/>
                  </use>
                  <path fill="none" stroke="white" stroke-width="1.5" d="M0,-3.0v7 M-2.5,-0.5L0,-3.0L2.5,-0.5"/>
                </g>
        </g>
        <svg viewBox="0 0 15 15" width="100%" height="30px" preserveAspectRatio="xMaxYMin meet">
         <g id="arrow_out" transform="scale(0.3 0.3)">
          <a xlink:href="actuator__ops_i_8_h__dep__incl_org.svg" target="_base">
           <rect id="button" ry="5" rx="5" y="6" x="6" height="38" width="38"
                fill="#f2f5e9" fill-opacity="0.5" stroke="#606060" stroke-width="1.0"/>
           <path id="arrow"
             d="M 11.500037,31.436501 C 11.940474,20.09759 22.043105,11.32322 32.158766,21.979434 L 37.068811,17.246167 C 37.068811,17.246167 37.088388,32 37.088388,32 L 22.160133,31.978069 C 22.160133,31.978069 26.997745,27.140456 26.997745,27.140456 C 18.528582,18.264221 13.291696,25.230495 11.500037,31.436501 z"
             style="fill:#404040;"/>
          </a>
         </g>
        </svg>
</svg>
