<?xml version="1.0" encoding="UTF-8" standalone="no"?>
<!DOCTYPE svg PUBLIC "-//W3C//DTD SVG 1.1//EN"
 "http://www.w3.org/Graphics/SVG/1.1/DTD/svg11.dtd">
<!-- Generated by graphviz version 2.40.1 (20161225.0304)
 -->
<!-- Title: actuator_utils.H Pages: 1 -->
<svg width="533pt" height="207pt"
 viewBox="0.00 0.00 532.50 207.00" xmlns="http://www.w3.org/2000/svg" xmlns:xlink="http://www.w3.org/1999/xlink">
<g id="graph0" class="graph" transform="scale(1 1) rotate(0) translate(4 203)">
<title>actuator_utils.H</title>
<polygon fill="#ffffff" stroke="transparent" points="-4,4 -4,-203 528.5,-203 528.5,4 -4,4"/>
<!-- Node0 -->
<g id="node1" class="node">
<title>Node0</title>
<polygon fill="#bfbfbf" stroke="#000000" points="295,-179.5 295,-198.5 389,-198.5 389,-179.5 295,-179.5"/>
<text text-anchor="middle" x="342" y="-186.5" font-family="Helvetica,sans-Serif" font-size="10.00" fill="#000000">actuator_utils.H</text>
</g>
<!-- Node1 -->
<g id="node2" class="node">
<title>Node1</title>
<g id="a_node2"><a xlink:href="vector_8_h.html" target="_top" xlink:title="amr&#45;wind/core/vs/vector.H">
<polygon fill="#ffffff" stroke="#000000" points="67,-118 67,-137 211,-137 211,-118 67,-118"/>
<text text-anchor="middle" x="139" y="-125" font-family="Helvetica,sans-Serif" font-size="10.00" fill="#000000">amr&#45;wind/core/vs/vector.H</text>
</a>
</g>
</g>
<!-- Node0&#45;&gt;Node1 -->
<g id="edge1" class="edge">
<title>Node0&#45;&gt;Node1</title>
<path fill="none" stroke="#191970" d="M310.2813,-179.3906C275.2728,-168.7846 218.7981,-151.6753 180.3449,-140.0257"/>
<polygon fill="#191970" stroke="#191970" points="181.0813,-136.5917 170.496,-137.0419 179.0516,-143.291 181.0813,-136.5917"/>
</g>
<!-- Node9 -->
<g id="node10" class="node">
<title>Node9</title>
<g id="a_node10"><a xlink:href="trig__ops_8_h.html" target="_top" xlink:title="Trigonometric utilities. ">
<polygon fill="#ffffff" stroke="#000000" points="229,-112.5 229,-142.5 331,-142.5 331,-112.5 229,-112.5"/>
<text text-anchor="start" x="237" y="-130.5" font-family="Helvetica,sans-Serif" font-size="10.00" fill="#000000">amr&#45;wind/utilities</text>
<text text-anchor="middle" x="280" y="-119.5" font-family="Helvetica,sans-Serif" font-size="10.00" fill="#000000">/trig_ops.H</text>
</a>
</g>
</g>
<!-- Node0&#45;&gt;Node9 -->
<g id="edge10" class="edge">
<title>Node0&#45;&gt;Node9</title>
<path fill="none" stroke="#191970" d="M332.3125,-179.3906C324.31,-171.4527 312.635,-159.8718 302.3437,-149.6635"/>
<polygon fill="#191970" stroke="#191970" points="304.7314,-147.1021 295.1669,-142.5446 299.8017,-152.0719 304.7314,-147.1021"/>
</g>
<!-- Node10 -->
<g id="node11" class="node">
<title>Node10</title>
<polygon fill="#ffffff" stroke="#bfbfbf" points="349.5,-118 349.5,-137 458.5,-137 458.5,-118 349.5,-118"/>
<text text-anchor="middle" x="404" y="-125" font-family="Helvetica,sans-Serif" font-size="10.00" fill="#000000">AMReX_AmrCore.H</text>
</g>
<!-- Node0&#45;&gt;Node10 -->
<g id="edge14" class="edge">
<title>Node0&#45;&gt;Node10</title>
<path fill="none" stroke="#191970" d="M351.6875,-179.3906C361.0959,-170.0581 375.5807,-155.6902 386.9249,-144.4374"/>
<polygon fill="#191970" stroke="#191970" points="389.5411,-146.7722 394.1759,-137.2449 384.6114,-141.8024 389.5411,-146.7722"/>
</g>
<!-- Node11 -->
<g id="node12" class="node">
<title>Node11</title>
<polygon fill="#ffffff" stroke="#bfbfbf" points="477,-118 477,-137 509,-137 509,-118 477,-118"/>
<text text-anchor="middle" x="493" y="-125" font-family="Helvetica,sans-Serif" font-size="10.00" fill="#000000">set</text>
</g>
<!-- Node0&#45;&gt;Node11 -->
<g id="edge15" class="edge">
<title>Node0&#45;&gt;Node11</title>
<path fill="none" stroke="#191970" d="M373.5422,-179.4768C399.4824,-171.1772 436.8992,-158.1202 468,-143 468.6717,-142.6734 469.3482,-142.3336 470.0269,-141.9831"/>
<polygon fill="#191970" stroke="#191970" points="471.7759,-145.0149 478.7441,-137.034 468.3198,-138.9275 471.7759,-145.0149"/>
</g>
<!-- Node2 -->
<g id="node3" class="node">
<title>Node2</title>
<polygon fill="#ffffff" stroke="#bfbfbf" points="166,-56.5 166,-75.5 252,-75.5 252,-56.5 166,-56.5"/>
<text text-anchor="middle" x="209" y="-63.5" font-family="Helvetica,sans-Serif" font-size="10.00" fill="#000000">AMReX_Gpu.H</text>
</g>
<!-- Node1&#45;&gt;Node2 -->
<g id="edge2" class="edge">
<title>Node1&#45;&gt;Node2</title>
<path fill="none" stroke="#191970" d="M149.9375,-117.8906C160.662,-108.4683 177.2287,-93.9134 190.0901,-82.6137"/>
<polygon fill="#191970" stroke="#191970" points="192.7059,-84.9745 197.9083,-75.7449 188.0857,-79.7158 192.7059,-84.9745"/>
</g>
<!-- Node3 -->
<g id="node4" class="node">
<title>Node3</title>
<g id="a_node4"><a xlink:href="vstraits_8_h.html" target="_top" xlink:title="amr&#45;wind/core/vs/vstraits.H">
<polygon fill="#ffffff" stroke="#000000" points="308.5,-56.5 308.5,-75.5 459.5,-75.5 459.5,-56.5 308.5,-56.5"/>
<text text-anchor="middle" x="384" y="-63.5" font-family="Helvetica,sans-Serif" font-size="10.00" fill="#000000">amr&#45;wind/core/vs/vstraits.H</text>
</a>
</g>
</g>
<!-- Node1&#45;&gt;Node3 -->
<g id="edge3" class="edge">
<title>Node1&#45;&gt;Node3</title>
<path fill="none" stroke="#191970" d="M177.0124,-117.9581C219.8371,-107.2082 289.5208,-89.7162 336.0499,-78.0365"/>
<polygon fill="#191970" stroke="#191970" points="337.0515,-81.3937 345.8984,-75.5643 335.3471,-74.6043 337.0515,-81.3937"/>
</g>
<!-- Node6 -->
<g id="node7" class="node">
<title>Node6</title>
<g id="a_node7"><a xlink:href="vector_i_8_h.html" target="_top" xlink:title="amr&#45;wind/core/vs/vectorI.H">
<polygon fill="#ffffff" stroke="#000000" points="0,-56.5 0,-75.5 148,-75.5 148,-56.5 0,-56.5"/>
<text text-anchor="middle" x="74" y="-63.5" font-family="Helvetica,sans-Serif" font-size="10.00" fill="#000000">amr&#45;wind/core/vs/vectorI.H</text>
</a>
</g>
</g>
<!-- Node1&#45;&gt;Node6 -->
<g id="edge6" class="edge">
<title>Node1&#45;&gt;Node6</title>
<path fill="none" stroke="#191970" d="M123.7813,-117.8906C112.209,-108.6478 96.8621,-94.466 86.1091,-83.2628"/>
<polygon fill="#191970" stroke="#191970" points="88.5505,-80.7467 79.2107,-75.7449 83.3928,-85.4794 88.5505,-80.7467"/>
</g>
<!-- Node4 -->
<g id="node5" class="node">
<title>Node4</title>
<polygon fill="#ffffff" stroke="#bfbfbf" points="362,-.5 362,-19.5 406,-19.5 406,-.5 362,-.5"/>
<text text-anchor="middle" x="384" y="-7.5" font-family="Helvetica,sans-Serif" font-size="10.00" fill="#000000">limits</text>
</g>
<!-- Node3&#45;&gt;Node4 -->
<g id="edge4" class="edge">
<title>Node3&#45;&gt;Node4</title>
<path fill="none" stroke="#191970" d="M384,-56.2455C384,-48.9382 384,-38.6944 384,-29.7046"/>
<polygon fill="#191970" stroke="#191970" points="387.5001,-29.6426 384,-19.6427 380.5001,-29.6427 387.5001,-29.6426"/>
</g>
<!-- Node5 -->
<g id="node6" class="node">
<title>Node5</title>
<polygon fill="#ffffff" stroke="#bfbfbf" points="433.5,-.5 433.5,-19.5 524.5,-19.5 524.5,-.5 433.5,-.5"/>
<text text-anchor="middle" x="479" y="-7.5" font-family="Helvetica,sans-Serif" font-size="10.00" fill="#000000">AMReX_REAL.H</text>
</g>
<!-- Node3&#45;&gt;Node5 -->
<g id="edge5" class="edge">
<title>Node3&#45;&gt;Node5</title>
<path fill="none" stroke="#191970" d="M400.5477,-56.2455C415.2599,-47.5731 436.9888,-34.7645 453.8505,-24.825"/>
<polygon fill="#191970" stroke="#191970" points="455.8046,-27.736 462.6419,-19.6427 452.2498,-21.7057 455.8046,-27.736"/>
</g>
<!-- Node6&#45;&gt;Node1 -->
<g id="edge9" class="edge">
<title>Node6&#45;&gt;Node1</title>
<path fill="none" stroke="#191970" d="M89.1342,-75.5419C100.756,-84.8148 116.2175,-99.1045 127.0019,-110.3529"/>
<polygon fill="#191970" stroke="#191970" points="124.5708,-112.8805 133.9063,-117.8906 129.7327,-108.1524 124.5708,-112.8805"/>
</g>
<!-- Node7 -->
<g id="node8" class="node">
<title>Node7</title>
<polygon fill="#ffffff" stroke="#bfbfbf" points="45.5,-.5 45.5,-19.5 102.5,-19.5 102.5,-.5 45.5,-.5"/>
<text text-anchor="middle" x="74" y="-7.5" font-family="Helvetica,sans-Serif" font-size="10.00" fill="#000000">ostream</text>
</g>
<!-- Node6&#45;&gt;Node7 -->
<g id="edge7" class="edge">
<title>Node6&#45;&gt;Node7</title>
<path fill="none" stroke="#191970" d="M74,-56.2455C74,-48.9382 74,-38.6944 74,-29.7046"/>
<polygon fill="#191970" stroke="#191970" points="77.5001,-29.6426 74,-19.6427 70.5001,-29.6427 77.5001,-29.6426"/>
</g>
<!-- Node8 -->
<g id="node9" class="node">
<title>Node8</title>
<polygon fill="#ffffff" stroke="#bfbfbf" points="188.5,-.5 188.5,-19.5 235.5,-19.5 235.5,-.5 188.5,-.5"/>
<text text-anchor="middle" x="212" y="-7.5" font-family="Helvetica,sans-Serif" font-size="10.00" fill="#000000">cmath</text>
</g>
<!-- Node6&#45;&gt;Node8 -->
<g id="edge8" class="edge">
<title>Node6&#45;&gt;Node8</title>
<path fill="none" stroke="#191970" d="M97.723,-56.3733C120.1737,-47.2629 154.0739,-33.5062 179.1255,-23.3404"/>
<polygon fill="#191970" stroke="#191970" points="180.6365,-26.5045 188.5865,-19.5011 178.0043,-20.0182 180.6365,-26.5045"/>
</g>
<!-- Node9&#45;&gt;Node2 -->
<g id="edge13" class="edge">
<title>Node9&#45;&gt;Node2</title>
<path fill="none" stroke="#191970" d="M262.4494,-112.2977C251.9779,-103.2274 238.6789,-91.7077 227.9662,-82.4285"/>
<polygon fill="#191970" stroke="#191970" points="230.2182,-79.7487 220.368,-75.8469 225.6351,-85.0398 230.2182,-79.7487"/>
</g>
<!-- Node9&#45;&gt;Node5 -->
<g id="edge12" class="edge">
<title>Node9&#45;&gt;Node5</title>
<path fill="none" stroke="#191970" d="M331.2965,-114.2443C386.4512,-99.8857 466.6322,-78.6588 469,-76 480.0553,-63.586 481.8614,-44.3632 481.3123,-29.8588"/>
<polygon fill="#191970" stroke="#191970" points="484.8013,-29.5812 480.5474,-19.8779 477.8218,-30.1161 484.8013,-29.5812"/>
</g>
<!-- Node9&#45;&gt;Node8 -->
<g id="edge11" class="edge">
<title>Node9&#45;&gt;Node8</title>
<path fill="none" stroke="#191970" d="M278.4334,-112.3204C276.3243,-97.1624 271.5366,-73.6437 261,-56 254.1519,-44.5328 243.6311,-34.1234 234.0911,-26.1186"/>
<polygon fill="#191970" stroke="#191970" points="236.0801,-23.2283 226.077,-19.737 231.7195,-28.7043 236.0801,-23.2283"/>
</g>
</g>
</svg>
