<?xml version="1.0" encoding="UTF-8" standalone="no"?>
<!DOCTYPE svg PUBLIC "-//W3C//DTD SVG 1.1//EN"
 "http://www.w3.org/Graphics/SVG/1.1/DTD/svg11.dtd">
<!-- Generated by graphviz version 2.40.1 (20161225.0304)
 -->
<!-- Title: bc_ops.H Pages: 1 -->
<svg width="516pt" height="84pt"
 viewBox="0.00 0.00 515.50 84.00" xmlns="http://www.w3.org/2000/svg" xmlns:xlink="http://www.w3.org/1999/xlink">
<g id="graph0" class="graph" transform="scale(1 1) rotate(0) translate(4 80)">
<title>bc_ops.H</title>
<polygon fill="#ffffff" stroke="transparent" points="-4,4 -4,-80 511.5,-80 511.5,4 -4,4"/>
<!-- Node2 -->
<g id="node1" class="node">
<title>Node2</title>
<polygon fill="#bfbfbf" stroke="#000000" points="253.5,-56.5 253.5,-75.5 314.5,-75.5 314.5,-56.5 253.5,-56.5"/>
<text text-anchor="middle" x="284" y="-63.5" font-family="Helvetica,sans-Serif" font-size="10.00" fill="#000000">bc_ops.H</text>
</g>
<!-- Node3 -->
<g id="node2" class="node">
<title>Node3</title>
<g id="a_node2"><a xlink:href="incflo__godunov__plm_8cpp.html" target="_top" xlink:title="incflo_godunov_plm.cpp">
<polygon fill="#ffffff" stroke="#000000" points="0,-.5 0,-19.5 134,-19.5 134,-.5 0,-.5"/>
<text text-anchor="middle" x="67" y="-7.5" font-family="Helvetica,sans-Serif" font-size="10.00" fill="#000000">incflo_godunov_plm.cpp</text>
</a>
</g>
</g>
<!-- Node2&#45;&gt;Node3 -->
<g id="edge1" class="edge">
<title>Node2&#45;&gt;Node3</title>
<path fill="none" stroke="#191970" d="M243.669,-55.592C203.6488,-45.2642 142.8297,-29.569 104.0109,-19.5512"/>
<polygon fill="#191970" stroke="#191970" points="242.8121,-58.9855 253.3694,-58.0953 244.5613,-52.2075 242.8121,-58.9855"/>
</g>
<!-- Node4 -->
<g id="node3" class="node">
<title>Node4</title>
<g id="a_node3"><a xlink:href="incflo__mol__fluxes_8cpp.html" target="_top" xlink:title="incflo_mol_fluxes.cpp">
<polygon fill="#ffffff" stroke="#000000" points="152,-.5 152,-19.5 274,-19.5 274,-.5 152,-.5"/>
<text text-anchor="middle" x="213" y="-7.5" font-family="Helvetica,sans-Serif" font-size="10.00" fill="#000000">incflo_mol_fluxes.cpp</text>
</a>
</g>
</g>
<!-- Node2&#45;&gt;Node4 -->
<g id="edge2" class="edge">
<title>Node2&#45;&gt;Node4</title>
<path fill="none" stroke="#191970" d="M263.623,-49.928C251.2129,-40.1397 235.77,-27.9595 225.2255,-19.6427"/>
<polygon fill="#191970" stroke="#191970" points="261.6136,-52.8007 271.6327,-56.2455 265.9486,-47.3046 261.6136,-52.8007"/>
</g>
<!-- Node5 -->
<g id="node4" class="node">
<title>Node5</title>
<g id="a_node4"><a xlink:href="incflo__mol__predict_8cpp.html" target="_top" xlink:title="incflo_mol_predict.cpp">
<polygon fill="#ffffff" stroke="#000000" points="292,-.5 292,-19.5 418,-19.5 418,-.5 292,-.5"/>
<text text-anchor="middle" x="355" y="-7.5" font-family="Helvetica,sans-Serif" font-size="10.00" fill="#000000">incflo_mol_predict.cpp</text>
</a>
</g>
</g>
<!-- Node2&#45;&gt;Node5 -->
<g id="edge3" class="edge">
<title>Node2&#45;&gt;Node5</title>
<path fill="none" stroke="#191970" d="M304.377,-49.928C316.7871,-40.1397 332.23,-27.9595 342.7745,-19.6427"/>
<polygon fill="#191970" stroke="#191970" points="302.0514,-47.3046 296.3673,-56.2455 306.3864,-52.8007 302.0514,-47.3046"/>
</g>
<!-- Node6 -->
<g id="node5" class="node">
<title>Node6</title>
<g id="a_node5"><a xlink:href="bc__ops_8cpp.html" target="_top" xlink:title="bc_ops.cpp">
<polygon fill="#ffffff" stroke="#000000" points="436.5,-.5 436.5,-19.5 507.5,-19.5 507.5,-.5 436.5,-.5"/>
<text text-anchor="middle" x="472" y="-7.5" font-family="Helvetica,sans-Serif" font-size="10.00" fill="#000000">bc_ops.cpp</text>
</a>
</g>
</g>
<!-- Node2&#45;&gt;Node6 -->
<g id="edge4" class="edge">
<title>Node2&#45;&gt;Node6</title>
<path fill="none" stroke="#191970" d="M324.3905,-53.9688C358.9028,-43.6885 407.8983,-29.0941 439.8144,-19.5872"/>
<polygon fill="#191970" stroke="#191970" points="323.2085,-50.6688 314.6239,-56.878 325.2069,-57.3775 323.2085,-50.6688"/>
</g>
</g>
</svg>
