<?xml version="1.0" encoding="UTF-8" standalone="no"?>
<!DOCTYPE svg PUBLIC "-//W3C//DTD SVG 1.1//EN"
 "http://www.w3.org/Graphics/SVG/1.1/DTD/svg11.dtd">
<!-- Generated by graphviz version 2.40.1 (20161225.0304)
 -->
<!-- Title: amr_wind::turbulence::KOmegaSST&lt; Transport &gt; Pages: 1 -->
<svg width="198pt" height="468pt"
 viewBox="0.00 0.00 197.50 468.00" xmlns="http://www.w3.org/2000/svg" xmlns:xlink="http://www.w3.org/1999/xlink">
<g id="graph0" class="graph" transform="scale(1 1) rotate(0) translate(4 464)">
<title>amr_wind::turbulence::KOmegaSST&lt; Transport &gt;</title>
<polygon fill="#ffffff" stroke="transparent" points="-4,4 -4,-464 193.5,-464 193.5,4 -4,4"/>
<!-- Node0 -->
<g id="node1" class="node">
<title>Node0</title>
<polygon fill="#bfbfbf" stroke="#000000" points="15,-68.5 15,-98.5 164,-98.5 164,-68.5 15,-68.5"/>
<text text-anchor="start" x="23" y="-86.5" font-family="Helvetica,sans-Serif" font-size="10.00" fill="#000000">amr_wind::turbulence</text>
<text text-anchor="middle" x="89.5" y="-75.5" font-family="Helvetica,sans-Serif" font-size="10.00" fill="#000000">::KOmegaSST&lt; Transport &gt;</text>
</g>
<!-- Node6 -->
<g id="node7" class="node">
<title>Node6</title>
<g id="a_node7"><a xlink:href="classamr__wind_1_1turbulence_1_1_k_omega_s_s_t_i_d_d_e_s.html" target="_top" xlink:title="K&#45;Omega&#45;SST&#45;IDDES Hybrid RANS/LES turbulence model. ">
<polygon fill="#ffffff" stroke="#000000" points="0,-.5 0,-30.5 179,-30.5 179,-.5 0,-.5"/>
<text text-anchor="start" x="8" y="-18.5" font-family="Helvetica,sans-Serif" font-size="10.00" fill="#000000">amr_wind::turbulence</text>
<text text-anchor="middle" x="89.5" y="-7.5" font-family="Helvetica,sans-Serif" font-size="10.00" fill="#000000">::KOmegaSSTIDDES&lt; Transport &gt;</text>
</a>
</g>
</g>
<!-- Node0&#45;&gt;Node6 -->
<g id="edge6" class="edge">
<title>Node0&#45;&gt;Node6</title>
<path fill="none" stroke="#191970" d="M89.5,-58.1174C89.5,-48.8378 89.5,-38.6413 89.5,-30.5492"/>
<polygon fill="#191970" stroke="#191970" points="86.0001,-58.4086 89.5,-68.4086 93.0001,-58.4086 86.0001,-58.4086"/>
</g>
<!-- Node1 -->
<g id="node2" class="node">
<title>Node1</title>
<g id="a_node2"><a xlink:href="classamr__wind_1_1turbulence_1_1_turb_model_base.html" target="_top" xlink:title="Turbulence model aspects common to both LES and RANS modelsThis class implements more of the common m...">
<polygon fill="#ffffff" stroke="#000000" points="7.5,-136.5 7.5,-166.5 171.5,-166.5 171.5,-136.5 7.5,-136.5"/>
<text text-anchor="start" x="15.5" y="-154.5" font-family="Helvetica,sans-Serif" font-size="10.00" fill="#000000">amr_wind::turbulence</text>
<text text-anchor="middle" x="89.5" y="-143.5" font-family="Helvetica,sans-Serif" font-size="10.00" fill="#000000">::TurbModelBase&lt; Transport &gt;</text>
</a>
</g>
</g>
<!-- Node1&#45;&gt;Node0 -->
<g id="edge1" class="edge">
<title>Node1&#45;&gt;Node0</title>
<path fill="none" stroke="#191970" d="M89.5,-126.1174C89.5,-116.8378 89.5,-106.6413 89.5,-98.5492"/>
<polygon fill="#191970" stroke="#191970" points="86.0001,-126.4086 89.5,-136.4086 93.0001,-126.4086 86.0001,-126.4086"/>
</g>
<!-- Node2 -->
<g id="node3" class="node">
<title>Node2</title>
<g id="a_node3"><a xlink:href="classamr__wind_1_1turbulence_1_1_turb_model.html" target="_top" xlink:title="Turbulence model with a specific transport modelThis templated class allows turbulence model to be sp...">
<polygon fill="#ffffff" stroke="#000000" points="19.5,-204.5 19.5,-234.5 159.5,-234.5 159.5,-204.5 19.5,-204.5"/>
<text text-anchor="start" x="27.5" y="-222.5" font-family="Helvetica,sans-Serif" font-size="10.00" fill="#000000">amr_wind::turbulence</text>
<text text-anchor="middle" x="89.5" y="-211.5" font-family="Helvetica,sans-Serif" font-size="10.00" fill="#000000">::TurbModel&lt; Transport &gt;</text>
</a>
</g>
</g>
<!-- Node2&#45;&gt;Node1 -->
<g id="edge2" class="edge">
<title>Node2&#45;&gt;Node1</title>
<path fill="none" stroke="#191970" d="M89.5,-194.1174C89.5,-184.8378 89.5,-174.6413 89.5,-166.5492"/>
<polygon fill="#191970" stroke="#191970" points="86.0001,-194.4086 89.5,-204.4086 93.0001,-194.4086 86.0001,-194.4086"/>
</g>
<!-- Node3 -->
<g id="node4" class="node">
<title>Node3</title>
<g id="a_node4"><a xlink:href="classamr__wind_1_1turbulence_1_1_turbulence_model.html" target="_top" xlink:title="Abstract representation of a turbulence modelThis class is an abstract representation of a turbulence...">
<polygon fill="#ffffff" stroke="#000000" points="28.5,-272.5 28.5,-302.5 150.5,-302.5 150.5,-272.5 28.5,-272.5"/>
<text text-anchor="start" x="36.5" y="-290.5" font-family="Helvetica,sans-Serif" font-size="10.00" fill="#000000">amr_wind::turbulence</text>
<text text-anchor="middle" x="89.5" y="-279.5" font-family="Helvetica,sans-Serif" font-size="10.00" fill="#000000">::TurbulenceModel</text>
</a>
</g>
</g>
<!-- Node3&#45;&gt;Node2 -->
<g id="edge3" class="edge">
<title>Node3&#45;&gt;Node2</title>
<path fill="none" stroke="#191970" d="M89.5,-262.1174C89.5,-252.8378 89.5,-242.6413 89.5,-234.5492"/>
<polygon fill="#191970" stroke="#191970" points="86.0001,-262.4086 89.5,-272.4086 93.0001,-262.4086 86.0001,-262.4086"/>
</g>
<!-- Node4 -->
<g id="node5" class="node">
<title>Node4</title>
<g id="a_node5"><a xlink:href="structamr__wind_1_1_factory.html" target="_top" xlink:title="amr_wind::Factory\&lt;\l TurbulenceModel, CFDSim &amp;\&gt;">
<polygon fill="#ffffff" stroke="#000000" points="7.5,-340.5 7.5,-370.5 171.5,-370.5 171.5,-340.5 7.5,-340.5"/>
<text text-anchor="start" x="15.5" y="-358.5" font-family="Helvetica,sans-Serif" font-size="10.00" fill="#000000">amr_wind::Factory&lt;</text>
<text text-anchor="middle" x="89.5" y="-347.5" font-family="Helvetica,sans-Serif" font-size="10.00" fill="#000000"> TurbulenceModel, CFDSim &amp;&gt;</text>
</a>
</g>
</g>
<!-- Node4&#45;&gt;Node3 -->
<g id="edge4" class="edge">
<title>Node4&#45;&gt;Node3</title>
<path fill="none" stroke="#191970" d="M89.5,-330.1174C89.5,-320.8378 89.5,-310.6413 89.5,-302.5492"/>
<polygon fill="#191970" stroke="#191970" points="86.0001,-330.4086 89.5,-340.4086 93.0001,-330.4086 86.0001,-330.4086"/>
</g>
<!-- Node5 -->
<g id="node6" class="node">
<title>Node5</title>
<g id="a_node6"><a xlink:href="structamr__wind_1_1_factory.html" target="_top" xlink:title="Runtime selection of options based on string keyword lookupFactory provides an automated way to regis...">
<polygon fill="#ffffff" stroke="#000000" points="32.5,-429.5 32.5,-459.5 146.5,-459.5 146.5,-429.5 32.5,-429.5"/>
<text text-anchor="start" x="40.5" y="-447.5" font-family="Helvetica,sans-Serif" font-size="10.00" fill="#000000">amr_wind::Factory&lt;</text>
<text text-anchor="middle" x="89.5" y="-436.5" font-family="Helvetica,sans-Serif" font-size="10.00" fill="#000000"> Base, Args &gt;</text>
</a>
</g>
</g>
<!-- Node5&#45;&gt;Node4 -->
<g id="edge5" class="edge">
<title>Node5&#45;&gt;Node4</title>
<path fill="none" stroke="#ffa500" stroke-dasharray="5,2" d="M89.5,-419.31C89.5,-403.6343 89.5,-383.9926 89.5,-370.6717"/>
<polygon fill="#ffa500" stroke="#ffa500" points="86.0001,-419.4023 89.5,-429.4024 93.0001,-419.4024 86.0001,-419.4023"/>
<text text-anchor="start" x="89.5" y="-403" font-family="Helvetica,sans-Serif" font-size="10.00" fill="#000000"> &lt; TurbulenceModel,</text>
<text text-anchor="middle" x="139.5" y="-392" font-family="Helvetica,sans-Serif" font-size="10.00" fill="#000000"> CFDSim &amp;&gt;</text>
</g>
</g>
</svg>
