<?xml version="1.0" encoding="UTF-8" standalone="no"?>
<!DOCTYPE svg PUBLIC "-//W3C//DTD SVG 1.1//EN"
 "http://www.w3.org/Graphics/SVG/1.1/DTD/svg11.dtd">
<!-- Generated by graphviz version 2.40.1 (20161225.0304)
 -->
<!-- Title: amr_wind::InletData Pages: 1 -->
<svg width="145pt" height="251pt"
 viewBox="0.00 0.00 145.00 251.00" xmlns="http://www.w3.org/2000/svg" xmlns:xlink="http://www.w3.org/1999/xlink">
<g id="graph0" class="graph" transform="scale(1 1) rotate(0) translate(4 247)">
<title>amr_wind::InletData</title>
<polygon fill="#ffffff" stroke="transparent" points="-4,4 -4,-247 141,-247 141,4 -4,4"/>
<!-- Node1 -->
<g id="node1" class="node">
<title>Node1</title>
<polygon fill="#bfbfbf" stroke="#000000" points="0,-.5 0,-19.5 116,-19.5 116,-.5 0,-.5"/>
<text text-anchor="middle" x="58" y="-7.5" font-family="Helvetica,sans-Serif" font-size="10.00" fill="#000000">amr_wind::InletData</text>
</g>
<!-- Node2 -->
<g id="node2" class="node">
<title>Node2</title>
<polygon fill="#ffffff" stroke="#bfbfbf" points="1,-67.5 1,-97.5 115,-97.5 115,-67.5 1,-67.5"/>
<text text-anchor="start" x="9" y="-85.5" font-family="Helvetica,sans-Serif" font-size="10.00" fill="#000000">std::unordered_map</text>
<text text-anchor="middle" x="58" y="-74.5" font-family="Helvetica,sans-Serif" font-size="10.00" fill="#000000">&lt; int, int &gt;</text>
</g>
<!-- Node2&#45;&gt;Node1 -->
<g id="edge1" class="edge">
<title>Node2&#45;&gt;Node1</title>
<path fill="none" stroke="#9a32cd" stroke-dasharray="5,2" d="M58,-57.305C58,-44.424 58,-29.4836 58,-19.8957"/>
<polygon fill="#9a32cd" stroke="#9a32cd" points="54.5001,-57.4779 58,-67.478 61.5001,-57.478 54.5001,-57.4779"/>
<text text-anchor="middle" x="97.5" y="-41" font-family="Helvetica,sans-Serif" font-size="10.00" fill="#000000"> m_components</text>
</g>
<!-- Node3 -->
<g id="node3" class="node">
<title>Node3</title>
<g id="a_node3"><a xlink:title="STL class. ">
<polygon fill="#ffffff" stroke="#bfbfbf" points="1,-145.5 1,-175.5 115,-175.5 115,-145.5 1,-145.5"/>
<text text-anchor="start" x="9" y="-163.5" font-family="Helvetica,sans-Serif" font-size="10.00" fill="#000000">std::unordered_map</text>
<text text-anchor="middle" x="58" y="-152.5" font-family="Helvetica,sans-Serif" font-size="10.00" fill="#000000">&lt; K, T &gt;</text>
</a>
</g>
</g>
<!-- Node3&#45;&gt;Node2 -->
<g id="edge2" class="edge">
<title>Node3&#45;&gt;Node2</title>
<path fill="none" stroke="#ffa500" stroke-dasharray="5,2" d="M58,-135.2875C58,-122.9187 58,-108.4264 58,-97.7592"/>
<polygon fill="#ffa500" stroke="#ffa500" points="54.5001,-135.4608 58,-145.4608 61.5001,-135.4608 54.5001,-135.4608"/>
<text text-anchor="middle" x="87" y="-119" font-family="Helvetica,sans-Serif" font-size="10.00" fill="#000000"> &lt; int, int &gt;</text>
</g>
<!-- Node4 -->
<g id="node4" class="node">
<title>Node4</title>
<polygon fill="#ffffff" stroke="#bfbfbf" points="18.5,-223.5 18.5,-242.5 47.5,-242.5 47.5,-223.5 18.5,-223.5"/>
<text text-anchor="middle" x="33" y="-230.5" font-family="Helvetica,sans-Serif" font-size="10.00" fill="#000000">K</text>
</g>
<!-- Node4&#45;&gt;Node3 -->
<g id="edge3" class="edge">
<title>Node4&#45;&gt;Node3</title>
<path fill="none" stroke="#9a32cd" stroke-dasharray="5,2" d="M31.2624,-213.1147C31.3062,-206.8612 31.9806,-200.0201 34,-194 36.1843,-187.4883 40.1054,-181.1494 44.1535,-175.7695"/>
<polygon fill="#9a32cd" stroke="#9a32cd" points="27.7798,-213.5934 31.7105,-223.4321 34.7732,-213.2896 27.7798,-213.5934"/>
<text text-anchor="middle" x="47.5" y="-197" font-family="Helvetica,sans-Serif" font-size="10.00" fill="#000000"> keys</text>
</g>
<!-- Node5 -->
<g id="node5" class="node">
<title>Node5</title>
<polygon fill="#ffffff" stroke="#bfbfbf" points="68.5,-223.5 68.5,-242.5 97.5,-242.5 97.5,-223.5 68.5,-223.5"/>
<text text-anchor="middle" x="83" y="-230.5" font-family="Helvetica,sans-Serif" font-size="10.00" fill="#000000">T</text>
</g>
<!-- Node5&#45;&gt;Node3 -->
<g id="edge4" class="edge">
<title>Node5&#45;&gt;Node3</title>
<path fill="none" stroke="#9a32cd" stroke-dasharray="5,2" d="M76.36,-213.7439C72.2498,-201.8244 67.0471,-186.7366 63.2304,-175.668"/>
<polygon fill="#9a32cd" stroke="#9a32cd" points="73.0596,-214.9096 79.6284,-223.2223 79.6772,-212.6276 73.0596,-214.9096"/>
<text text-anchor="middle" x="96.5" y="-197" font-family="Helvetica,sans-Serif" font-size="10.00" fill="#000000"> elements</text>
</g>
</g>
</svg>
