<?xml version="1.0" encoding="UTF-8" standalone="no"?>
<!DOCTYPE svg PUBLIC "-//W3C//DTD SVG 1.1//EN"
 "http://www.w3.org/Graphics/SVG/1.1/DTD/svg11.dtd">
<!-- Generated by graphviz version 2.40.1 (20161225.0304)
 -->
<!-- Title: amr_wind::FPlaneAveraging&lt; FType &gt; Pages: 1 -->
<svg width="340pt" height="117pt"
 viewBox="0.00 0.00 339.50 117.00" xmlns="http://www.w3.org/2000/svg" xmlns:xlink="http://www.w3.org/1999/xlink">
<g id="graph0" class="graph" transform="scale(1 1) rotate(0) translate(4 113)">
<title>amr_wind::FPlaneAveraging&lt; FType &gt;</title>
<polygon fill="#ffffff" stroke="transparent" points="-4,4 -4,-113 335.5,-113 335.5,4 -4,4"/>
<!-- Node0 -->
<g id="node1" class="node">
<title>Node0</title>
<polygon fill="#bfbfbf" stroke="#000000" points="91.5,-78.5 91.5,-108.5 243.5,-108.5 243.5,-78.5 91.5,-78.5"/>
<text text-anchor="start" x="99.5" y="-96.5" font-family="Helvetica,sans-Serif" font-size="10.00" fill="#000000">amr_wind::FPlaneAveraging</text>
<text text-anchor="middle" x="167.5" y="-85.5" font-family="Helvetica,sans-Serif" font-size="10.00" fill="#000000">&lt; FType &gt;</text>
</g>
<!-- Node1 -->
<g id="node2" class="node">
<title>Node1</title>
<g id="a_node2"><a xlink:href="classamr__wind_1_1_vel_plane_averaging.html" target="_top" xlink:title="Specific application of FieldPlaneAveraging to the velocity field. ">
<polygon fill="#ffffff" stroke="#000000" points="0,-.5 0,-30.5 161,-30.5 161,-.5 0,-.5"/>
<text text-anchor="start" x="8" y="-18.5" font-family="Helvetica,sans-Serif" font-size="10.00" fill="#000000">amr_wind::VelPlaneAveraging</text>
<text text-anchor="middle" x="80.5" y="-7.5" font-family="Helvetica,sans-Serif" font-size="10.00" fill="#000000">&lt; Field &gt;</text>
</a>
</g>
</g>
<!-- Node0&#45;&gt;Node1 -->
<g id="edge1" class="edge">
<title>Node0&#45;&gt;Node1</title>
<path fill="none" stroke="#191970" d="M143.0771,-71.6036C128.5566,-58.5853 110.4996,-42.3962 97.5198,-30.7592"/>
<polygon fill="#191970" stroke="#191970" points="140.9434,-74.3913 150.7255,-78.4608 145.6162,-69.1793 140.9434,-74.3913"/>
</g>
<!-- Node2 -->
<g id="node3" class="node">
<title>Node2</title>
<g id="a_node3"><a xlink:href="classamr__wind_1_1_f_plane_averaging.html" target="_top" xlink:title="amr_wind::FPlaneAveraging\l\&lt; Field \&gt;">
<polygon fill="#ffffff" stroke="#000000" points="179.5,-.5 179.5,-30.5 331.5,-30.5 331.5,-.5 179.5,-.5"/>
<text text-anchor="start" x="187.5" y="-18.5" font-family="Helvetica,sans-Serif" font-size="10.00" fill="#000000">amr_wind::FPlaneAveraging</text>
<text text-anchor="middle" x="255.5" y="-7.5" font-family="Helvetica,sans-Serif" font-size="10.00" fill="#000000">&lt; Field &gt;</text>
</a>
</g>
</g>
<!-- Node0&#45;&gt;Node2 -->
<g id="edge2" class="edge">
<title>Node0&#45;&gt;Node2</title>
<path fill="none" stroke="#ffa500" stroke-dasharray="5,2" d="M192.2036,-71.6036C206.891,-58.5853 225.1556,-42.3962 238.2845,-30.7592"/>
<polygon fill="#ffa500" stroke="#ffa500" points="189.6292,-69.2085 184.4673,-78.4608 194.2724,-74.4469 189.6292,-69.2085"/>
<text text-anchor="middle" x="242" y="-52" font-family="Helvetica,sans-Serif" font-size="10.00" fill="#000000"> &lt; Field &gt;</text>
</g>
</g>
</svg>
