<?xml version="1.0" encoding="UTF-8" standalone="no"?>
<!DOCTYPE svg PUBLIC "-//W3C//DTD SVG 1.1//EN"
 "http://www.w3.org/Graphics/SVG/1.1/DTD/svg11.dtd">
<!-- Generated by graphviz version 2.40.1 (20161225.0304)
 -->
<!-- Title: amr_wind::SyntheticTurbulence Pages: 1 -->
<svg width="1561pt" height="324pt"
 viewBox="0.00 0.00 1561.00 323.71" xmlns="http://www.w3.org/2000/svg" xmlns:xlink="http://www.w3.org/1999/xlink">
<g id="graph0" class="graph" transform="scale(1 1) rotate(0) translate(4 319.7075)">
<title>amr_wind::SyntheticTurbulence</title>
<polygon fill="#ffffff" stroke="transparent" points="-4,4 -4,-319.7075 1557,-319.7075 1557,4 -4,4"/>
<!-- Node2 -->
<g id="node1" class="node">
<title>Node2</title>
<polygon fill="#bfbfbf" stroke="#000000" points="1384,-141.7075 1384,-160.7075 1553,-160.7075 1553,-141.7075 1384,-141.7075"/>
<text text-anchor="middle" x="1468.5" y="-148.7075" font-family="Helvetica,sans-Serif" font-size="10.00" fill="#000000">amr_wind::SyntheticTurbulence</text>
</g>
<!-- Node3 -->
<g id="node2" class="node">
<title>Node3</title>
<polygon fill="#ffffff" stroke="#bfbfbf" points="1151,-285.2075 1151,-315.2075 1280,-315.2075 1280,-285.2075 1151,-285.2075"/>
<text text-anchor="start" x="1159" y="-303.2075" font-family="Helvetica,sans-Serif" font-size="10.00" fill="#000000">Physics::Register&lt;</text>
<text text-anchor="middle" x="1215.5" y="-292.2075" font-family="Helvetica,sans-Serif" font-size="10.00" fill="#000000"> SyntheticTurbulence &gt;</text>
</g>
<!-- Node3&#45;&gt;Node2 -->
<g id="edge1" class="edge">
<title>Node3&#45;&gt;Node2</title>
<path fill="none" stroke="#191970" d="M1290.2774,-295.1816C1315.6204,-290.9813 1343.248,-283.4849 1366,-270.2075 1413.8069,-242.3085 1450.247,-183.8284 1463.2864,-160.8098"/>
<polygon fill="#191970" stroke="#191970" points="1289.6873,-291.7309 1280.3225,-296.6858 1290.7332,-298.6524 1289.6873,-291.7309"/>
</g>
<!-- Node4 -->
<g id="node3" class="node">
<title>Node4</title>
<g id="a_node3"><a xlink:href="structamr__wind_1_1_synth_turb_data.html" target="_top" xlink:title="amr_wind::SynthTurbData">
<polygon fill="#ffffff" stroke="#000000" points="991,-19.7075 991,-38.7075 1133,-38.7075 1133,-19.7075 991,-19.7075"/>
<text text-anchor="middle" x="1062" y="-26.7075" font-family="Helvetica,sans-Serif" font-size="10.00" fill="#000000">amr_wind::SynthTurbData</text>
</a>
</g>
</g>
<!-- Node4&#45;&gt;Node2 -->
<g id="edge2" class="edge">
<title>Node4&#45;&gt;Node2</title>
<path fill="none" stroke="#9a32cd" stroke-dasharray="5,2" d="M1143.2786,-21.7462C1207.5427,-19.5347 1297.5259,-24.8923 1366,-62.2075 1405.9392,-83.9725 1443.916,-123.5053 1460.1889,-141.6447"/>
<polygon fill="#9a32cd" stroke="#9a32cd" points="1143.0398,-18.253 1133.1927,-22.1624 1143.3285,-25.247 1143.0398,-18.253"/>
<text text-anchor="middle" x="1215.5" y="-35.2075" font-family="Helvetica,sans-Serif" font-size="10.00" fill="#000000"> m_turb_grid</text>
</g>
<!-- Node5 -->
<g id="node4" class="node">
<title>Node5</title>
<g id="a_node4"><a xlink:href="structamr__wind_1_1vs_1_1_vector_t.html" target="_top" xlink:title="amr_wind::vs::VectorT\l\&lt; int \&gt;">
<polygon fill="#ffffff" stroke="#000000" points="713,-35.2075 713,-65.2075 838,-65.2075 838,-35.2075 713,-35.2075"/>
<text text-anchor="start" x="721" y="-53.2075" font-family="Helvetica,sans-Serif" font-size="10.00" fill="#000000">amr_wind::vs::VectorT</text>
<text text-anchor="middle" x="775.5" y="-42.2075" font-family="Helvetica,sans-Serif" font-size="10.00" fill="#000000">&lt; int &gt;</text>
</a>
</g>
</g>
<!-- Node5&#45;&gt;Node4 -->
<g id="edge3" class="edge">
<title>Node5&#45;&gt;Node4</title>
<path fill="none" stroke="#9a32cd" stroke-dasharray="5,2" d="M848.0186,-44.892C891.7704,-41.685 947.2743,-37.6167 990.789,-34.4271"/>
<polygon fill="#9a32cd" stroke="#9a32cd" points="847.737,-41.4031 838.0196,-45.6249 848.2487,-48.3844 847.737,-41.4031"/>
<text text-anchor="middle" x="914.5" y="-46.2075" font-family="Helvetica,sans-Serif" font-size="10.00" fill="#000000"> box_dims</text>
</g>
<!-- Node6 -->
<g id="node5" class="node">
<title>Node6</title>
<g id="a_node5"><a xlink:href="structamr__wind_1_1vs_1_1_vector_t.html" target="_top" xlink:title="Vector in 3D space. ">
<polygon fill="#ffffff" stroke="#000000" points="347,-49.7075 347,-68.7075 500,-68.7075 500,-49.7075 347,-49.7075"/>
<text text-anchor="middle" x="423.5" y="-56.7075" font-family="Helvetica,sans-Serif" font-size="10.00" fill="#000000">amr_wind::vs::VectorT&lt; T &gt;</text>
</a>
</g>
</g>
<!-- Node6&#45;&gt;Node5 -->
<g id="edge4" class="edge">
<title>Node6&#45;&gt;Node5</title>
<path fill="none" stroke="#ffa500" stroke-dasharray="5,2" d="M510.6005,-56.9805C573.3875,-55.3751 656.6439,-53.2464 712.9315,-51.8072"/>
<polygon fill="#ffa500" stroke="#ffa500" points="510.2202,-53.489 500.3129,-57.2435 510.3992,-60.4867 510.2202,-53.489"/>
<text text-anchor="middle" x="606.5" y="-59.2075" font-family="Helvetica,sans-Serif" font-size="10.00" fill="#000000"> &lt; int &gt;</text>
</g>
<!-- Node7 -->
<g id="node6" class="node">
<title>Node7</title>
<polygon fill="#ffffff" stroke="#bfbfbf" points="46.5,-87.7075 46.5,-106.7075 75.5,-106.7075 75.5,-87.7075 46.5,-87.7075"/>
<text text-anchor="middle" x="61" y="-94.7075" font-family="Helvetica,sans-Serif" font-size="10.00" fill="#000000">T</text>
</g>
<!-- Node7&#45;&gt;Node6 -->
<g id="edge5" class="edge">
<title>Node7&#45;&gt;Node6</title>
<path fill="none" stroke="#9a32cd" stroke-dasharray="5,2" d="M85.6414,-91.8275C101.1698,-88.6117 121.6778,-84.683 140,-82.2075 209.7336,-72.7859 289.6762,-66.7266 346.8555,-63.2058"/>
<polygon fill="#9a32cd" stroke="#9a32cd" points="84.8343,-88.4206 75.7744,-93.9133 86.2821,-95.2693 84.8343,-88.4206"/>
<text text-anchor="middle" x="164.5" y="-85.2075" font-family="Helvetica,sans-Serif" font-size="10.00" fill="#000000"> vv</text>
</g>
<!-- Node13 -->
<g id="node12" class="node">
<title>Node13</title>
<g id="a_node12"><a xlink:title="STL class. ">
<polygon fill="#ffffff" stroke="#bfbfbf" points="211,-135.2075 211,-165.2075 325,-165.2075 325,-135.2075 211,-135.2075"/>
<text text-anchor="start" x="219" y="-153.2075" font-family="Helvetica,sans-Serif" font-size="10.00" fill="#000000">std::unordered_map</text>
<text text-anchor="middle" x="268" y="-142.2075" font-family="Helvetica,sans-Serif" font-size="10.00" fill="#000000">&lt; K, T &gt;</text>
</a>
</g>
</g>
<!-- Node7&#45;&gt;Node13 -->
<g id="edge14" class="edge">
<title>Node7&#45;&gt;Node13</title>
<path fill="none" stroke="#9a32cd" stroke-dasharray="5,2" d="M85.3589,-103.4443C115.9297,-111.2716 169.3462,-124.9483 210.5409,-135.4957"/>
<polygon fill="#9a32cd" stroke="#9a32cd" points="86.1115,-100.0242 75.5558,-100.9343 84.3752,-106.8054 86.1115,-100.0242"/>
<text text-anchor="middle" x="164.5" y="-131.2075" font-family="Helvetica,sans-Serif" font-size="10.00" fill="#000000"> elements</text>
</g>
<!-- Node19 -->
<g id="node18" class="node">
<title>Node19</title>
<g id="a_node18"><a xlink:title="STL class. ">
<polygon fill="#ffffff" stroke="#bfbfbf" points="209,-91.7075 209,-110.7075 327,-110.7075 327,-91.7075 209,-91.7075"/>
<text text-anchor="middle" x="268" y="-98.7075" font-family="Helvetica,sans-Serif" font-size="10.00" fill="#000000">std::unique_ptr&lt; T &gt;</text>
</a>
</g>
</g>
<!-- Node7&#45;&gt;Node19 -->
<g id="edge22" class="edge">
<title>Node7&#45;&gt;Node19</title>
<path fill="none" stroke="#9a32cd" stroke-dasharray="5,2" d="M85.6015,-97.1798C111.3751,-97.2023 153.0361,-97.3843 189,-98.2075 195.4491,-98.3551 202.1931,-98.5496 208.9061,-98.7689"/>
<polygon fill="#9a32cd" stroke="#9a32cd" points="85.5918,-93.6799 75.5913,-97.1785 85.5908,-100.6799 85.5918,-93.6799"/>
<text text-anchor="middle" x="164.5" y="-101.2075" font-family="Helvetica,sans-Serif" font-size="10.00" fill="#000000"> ptr</text>
</g>
<!-- Node8 -->
<g id="node7" class="node">
<title>Node8</title>
<g id="a_node7"><a xlink:href="classamr__wind_1_1_field.html" target="_top" xlink:title="Computational fieldThis is an abstraction of a collection of MultiFabs over multiple levels...">
<polygon fill="#ffffff" stroke="#000000" points="1169,-180.7075 1169,-199.7075 1262,-199.7075 1262,-180.7075 1169,-180.7075"/>
<text text-anchor="middle" x="1215.5" y="-187.7075" font-family="Helvetica,sans-Serif" font-size="10.00" fill="#000000">amr_wind::Field</text>
</a>
</g>
</g>
<!-- Node8&#45;&gt;Node2 -->
<g id="edge6" class="edge">
<title>Node8&#45;&gt;Node2</title>
<path fill="none" stroke="#9a32cd" stroke-dasharray="5,2" d="M1272.3157,-181.4493C1312.2959,-175.2864 1365.7745,-167.0426 1406.7982,-160.7188"/>
<polygon fill="#9a32cd" stroke="#9a32cd" points="1271.5489,-178.0261 1262.1989,-183.0088 1272.6155,-184.9444 1271.5489,-178.0261"/>
<text text-anchor="middle" x="1332" y="-201.2075" font-family="Helvetica,sans-Serif" font-size="10.00" fill="#000000"> m_turb_force</text>
<text text-anchor="middle" x="1332" y="-190.2075" font-family="Helvetica,sans-Serif" font-size="10.00" fill="#000000">m_density</text>
<text text-anchor="middle" x="1332" y="-179.2075" font-family="Helvetica,sans-Serif" font-size="10.00" fill="#000000">m_velocity</text>
</g>
<!-- Node9 -->
<g id="node8" class="node">
<title>Node9</title>
<g id="a_node8"><a xlink:title="STL class. ">
<polygon fill="#ffffff" stroke="#bfbfbf" points="235.5,-200.7075 235.5,-219.7075 300.5,-219.7075 300.5,-200.7075 235.5,-200.7075"/>
<text text-anchor="middle" x="268" y="-207.7075" font-family="Helvetica,sans-Serif" font-size="10.00" fill="#000000">std::string</text>
</a>
</g>
</g>
<!-- Node9&#45;&gt;Node2 -->
<g id="edge16" class="edge">
<title>Node9&#45;&gt;Node2</title>
<path fill="none" stroke="#9a32cd" stroke-dasharray="5,2" d="M311.0763,-219.8609C375.1402,-233.3509 499.4772,-256.2075 606.5,-256.2075 606.5,-256.2075 606.5,-256.2075 1215.5,-256.2075 1314.6545,-256.2075 1420.1191,-186.5574 1455.8427,-160.7107"/>
<polygon fill="#9a32cd" stroke="#9a32cd" points="311.4609,-216.3642 300.9507,-217.7005 310.0003,-223.2102 311.4609,-216.3642"/>
<text text-anchor="middle" x="914.5" y="-270.2075" font-family="Helvetica,sans-Serif" font-size="10.00" fill="#000000"> m_turb_filename</text>
<text text-anchor="middle" x="914.5" y="-259.2075" font-family="Helvetica,sans-Serif" font-size="10.00" fill="#000000">m_mean_wind_type</text>
</g>
<!-- Node9&#45;&gt;Node8 -->
<g id="edge7" class="edge">
<title>Node9&#45;&gt;Node8</title>
<path fill="none" stroke="#9a32cd" stroke-dasharray="5,2" d="M310.6143,-210.1198C436.4453,-209.7206 817.3214,-207.5048 1133,-195.2075 1144.614,-194.755 1157.1379,-194.0884 1168.8331,-193.3883"/>
<polygon fill="#9a32cd" stroke="#9a32cd" points="310.6034,-206.6197 300.6138,-210.1493 310.6241,-213.6197 310.6034,-206.6197"/>
<text text-anchor="middle" x="775.5" y="-208.2075" font-family="Helvetica,sans-Serif" font-size="10.00" fill="#000000"> m_name</text>
</g>
<!-- Node12 -->
<g id="node11" class="node">
<title>Node12</title>
<polygon fill="#ffffff" stroke="#bfbfbf" points="545.5,-143.2075 545.5,-173.2075 667.5,-173.2075 667.5,-143.2075 545.5,-143.2075"/>
<text text-anchor="start" x="553.5" y="-161.2075" font-family="Helvetica,sans-Serif" font-size="10.00" fill="#000000">std::unordered_map</text>
<text text-anchor="middle" x="606.5" y="-150.2075" font-family="Helvetica,sans-Serif" font-size="10.00" fill="#000000">&lt; std::string, size_t &gt;</text>
</g>
<!-- Node9&#45;&gt;Node12 -->
<g id="edge11" class="edge">
<title>Node9&#45;&gt;Node12</title>
<path fill="none" stroke="#9a32cd" stroke-dasharray="5,2" d="M303.4599,-197.2989C316.933,-192.843 332.5219,-188.219 347,-185.2075 414.0735,-171.256 492.4735,-164.3653 545.403,-161.0621"/>
<polygon fill="#9a32cd" stroke="#9a32cd" points="301.9634,-194.1109 293.6227,-200.6442 304.2172,-200.7382 301.9634,-194.1109"/>
<text text-anchor="middle" x="423.5" y="-188.2075" font-family="Helvetica,sans-Serif" font-size="10.00" fill="#000000"> keys</text>
</g>
<!-- Node10 -->
<g id="node9" class="node">
<title>Node10</title>
<g id="a_node9"><a xlink:title="STL class. ">
<polygon fill="#ffffff" stroke="#bfbfbf" points="9,-195.2075 9,-225.2075 113,-225.2075 113,-195.2075 9,-195.2075"/>
<text text-anchor="start" x="17" y="-213.2075" font-family="Helvetica,sans-Serif" font-size="10.00" fill="#000000">std::basic_string&lt;</text>
<text text-anchor="middle" x="61" y="-202.2075" font-family="Helvetica,sans-Serif" font-size="10.00" fill="#000000"> char &gt;</text>
</a>
</g>
</g>
<!-- Node10&#45;&gt;Node9 -->
<g id="edge8" class="edge">
<title>Node10&#45;&gt;Node9</title>
<path fill="none" stroke="#191970" d="M123.3744,-210.2075C160.1713,-210.2075 205.2505,-210.2075 235.2002,-210.2075"/>
<polygon fill="#191970" stroke="#191970" points="123.2349,-206.7076 113.2348,-210.2075 123.2348,-213.7076 123.2349,-206.7076"/>
</g>
<!-- Node11 -->
<g id="node10" class="node">
<title>Node11</title>
<g id="a_node10"><a xlink:href="classamr__wind_1_1_field_repo.html" target="_top" xlink:title="Field RepositoryFieldRepo is a database that manages handling of fields used during a simulation...">
<polygon fill="#ffffff" stroke="#000000" points="856,-148.7075 856,-167.7075 973,-167.7075 973,-148.7075 856,-148.7075"/>
<text text-anchor="middle" x="914.5" y="-155.7075" font-family="Helvetica,sans-Serif" font-size="10.00" fill="#000000">amr_wind::FieldRepo</text>
</a>
</g>
</g>
<!-- Node11&#45;&gt;Node2 -->
<g id="edge17" class="edge">
<title>Node11&#45;&gt;Node2</title>
<path fill="none" stroke="#9a32cd" stroke-dasharray="5,2" d="M983.1209,-157.3404C1084.4293,-156.0604 1273.8511,-153.6669 1383.7117,-152.2788"/>
<polygon fill="#9a32cd" stroke="#9a32cd" points="982.9566,-153.8421 973.0017,-157.4683 983.0451,-160.8416 982.9566,-153.8421"/>
<text text-anchor="middle" x="1215.5" y="-157.2075" font-family="Helvetica,sans-Serif" font-size="10.00" fill="#000000"> m_repo</text>
</g>
<!-- Node11&#45;&gt;Node8 -->
<g id="edge9" class="edge">
<title>Node11&#45;&gt;Node8</title>
<path fill="none" stroke="#9a32cd" stroke-dasharray="5,2" d="M983.2237,-165.5136C1039.9933,-171.549 1119.0556,-179.9543 1168.7397,-185.2363"/>
<polygon fill="#9a32cd" stroke="#9a32cd" points="983.5644,-162.0302 973.2504,-164.4534 982.8243,-168.991 983.5644,-162.0302"/>
<text text-anchor="middle" x="1062" y="-183.2075" font-family="Helvetica,sans-Serif" font-size="10.00" fill="#000000"> m_repo</text>
</g>
<!-- Node12&#45;&gt;Node11 -->
<g id="edge10" class="edge">
<title>Node12&#45;&gt;Node11</title>
<path fill="none" stroke="#9a32cd" stroke-dasharray="5,2" d="M677.9075,-158.2075C731.8996,-158.2075 805.1274,-158.2075 855.7478,-158.2075"/>
<polygon fill="#9a32cd" stroke="#9a32cd" points="677.7192,-154.7076 667.7191,-158.2075 677.7191,-161.7076 677.7192,-154.7076"/>
<text text-anchor="middle" x="775.5" y="-172.2075" font-family="Helvetica,sans-Serif" font-size="10.00" fill="#000000"> m_fid_map</text>
<text text-anchor="middle" x="775.5" y="-161.2075" font-family="Helvetica,sans-Serif" font-size="10.00" fill="#000000">m_int_fid_map</text>
</g>
<!-- Node13&#45;&gt;Node12 -->
<g id="edge12" class="edge">
<title>Node13&#45;&gt;Node12</title>
<path fill="none" stroke="#ffa500" stroke-dasharray="5,2" d="M335.4367,-149.4077C381.7448,-149.1261 444.6137,-149.2697 500,-151.2075 514.7219,-151.7225 530.571,-152.5928 545.4273,-153.5479"/>
<polygon fill="#ffa500" stroke="#ffa500" points="335.2,-145.9092 325.2244,-149.4784 335.2484,-152.909 335.2,-145.9092"/>
<text text-anchor="middle" x="423.5" y="-154.2075" font-family="Helvetica,sans-Serif" font-size="10.00" fill="#000000"> &lt; std::string, size_t &gt;</text>
</g>
<!-- Node14 -->
<g id="node13" class="node">
<title>Node14</title>
<polygon fill="#ffffff" stroke="#bfbfbf" points="46.5,-155.7075 46.5,-174.7075 75.5,-174.7075 75.5,-155.7075 46.5,-155.7075"/>
<text text-anchor="middle" x="61" y="-162.7075" font-family="Helvetica,sans-Serif" font-size="10.00" fill="#000000">K</text>
</g>
<!-- Node14&#45;&gt;Node13 -->
<g id="edge13" class="edge">
<title>Node14&#45;&gt;Node13</title>
<path fill="none" stroke="#9a32cd" stroke-dasharray="5,2" d="M85.7607,-163.4132C116.396,-161.1933 169.5261,-157.3433 210.5409,-154.3712"/>
<polygon fill="#9a32cd" stroke="#9a32cd" points="85.2767,-159.939 75.5558,-164.1527 85.7827,-166.9207 85.2767,-159.939"/>
<text text-anchor="middle" x="164.5" y="-161.2075" font-family="Helvetica,sans-Serif" font-size="10.00" fill="#000000"> keys</text>
</g>
<!-- Node15 -->
<g id="node14" class="node">
<title>Node15</title>
<g id="a_node14"><a xlink:href="classamr__wind_1_1_sim_time.html" target="_top" xlink:title="Time manager for simulations. ">
<polygon fill="#ffffff" stroke="#000000" points="1158.5,-57.7075 1158.5,-76.7075 1272.5,-76.7075 1272.5,-57.7075 1158.5,-57.7075"/>
<text text-anchor="middle" x="1215.5" y="-64.7075" font-family="Helvetica,sans-Serif" font-size="10.00" fill="#000000">amr_wind::SimTime</text>
</a>
</g>
</g>
<!-- Node15&#45;&gt;Node2 -->
<g id="edge15" class="edge">
<title>Node15&#45;&gt;Node2</title>
<path fill="none" stroke="#9a32cd" stroke-dasharray="5,2" d="M1283.0705,-65.6592C1309.586,-66.9356 1339.8634,-70.7857 1366,-80.2075 1404.0818,-93.9352 1441.2209,-125.4921 1458.4746,-141.5059"/>
<polygon fill="#9a32cd" stroke="#9a32cd" points="1282.8502,-62.1488 1272.7287,-65.2799 1282.5936,-69.1441 1282.8502,-62.1488"/>
<text text-anchor="middle" x="1332" y="-83.2075" font-family="Helvetica,sans-Serif" font-size="10.00" fill="#000000"> m_time</text>
</g>
<!-- Node16 -->
<g id="node15" class="node">
<title>Node16</title>
<polygon fill="#ffffff" stroke="#bfbfbf" points="518,-86.2075 518,-116.2075 695,-116.2075 695,-86.2075 518,-86.2075"/>
<text text-anchor="start" x="526" y="-104.2075" font-family="Helvetica,sans-Serif" font-size="10.00" fill="#000000">std::unique_ptr&lt; amr</text>
<text text-anchor="middle" x="606.5" y="-93.2075" font-family="Helvetica,sans-Serif" font-size="10.00" fill="#000000">_wind::synth_turb::MeanProfile &gt;</text>
</g>
<!-- Node16&#45;&gt;Node2 -->
<g id="edge18" class="edge">
<title>Node16&#45;&gt;Node2</title>
<path fill="none" stroke="#9a32cd" stroke-dasharray="5,2" d="M705.0835,-106.9258C875.7121,-116.823 1223.1882,-136.9783 1383.7144,-146.2895"/>
<polygon fill="#9a32cd" stroke="#9a32cd" points="705.2859,-103.4317 695.0999,-106.3467 704.8805,-110.42 705.2859,-103.4317"/>
<text text-anchor="middle" x="1062" y="-134.2075" font-family="Helvetica,sans-Serif" font-size="10.00" fill="#000000"> m_wind_profile</text>
</g>
<!-- Node17 -->
<g id="node16" class="node">
<title>Node17</title>
<g id="a_node16"><a xlink:href="classamr__wind_1_1synth__turb_1_1_mean_profile.html" target="_top" xlink:title="amr_wind::synth_turb\l::MeanProfile">
<polygon fill="#ffffff" stroke="#000000" points="207,-4.2075 207,-34.2075 329,-34.2075 329,-4.2075 207,-4.2075"/>
<text text-anchor="start" x="215" y="-22.2075" font-family="Helvetica,sans-Serif" font-size="10.00" fill="#000000">amr_wind::synth_turb</text>
<text text-anchor="middle" x="268" y="-11.2075" font-family="Helvetica,sans-Serif" font-size="10.00" fill="#000000">::MeanProfile</text>
</a>
</g>
</g>
<!-- Node17&#45;&gt;Node16 -->
<g id="edge19" class="edge">
<title>Node17&#45;&gt;Node16</title>
<path fill="none" stroke="#9a32cd" stroke-dasharray="5,2" d="M339.0263,-3.7613C388.4384,2.8539 453.5281,2.893 500,-29.2075 516.7099,-40.7498 503.0901,-57.4184 518,-71.2075 524.6699,-77.376 532.6566,-82.2814 541.0648,-86.181"/>
<polygon fill="#9a32cd" stroke="#9a32cd" points="338.4397,-.3097 329.0482,-5.2138 339.4482,-7.2367 338.4397,-.3097"/>
<text text-anchor="middle" x="423.5" y="-32.2075" font-family="Helvetica,sans-Serif" font-size="10.00" fill="#000000"> ptr</text>
</g>
<!-- Node18 -->
<g id="node17" class="node">
<title>Node18</title>
<g id="a_node17"><a xlink:href="structamr__wind_1_1synth__turb_1_1_mean_vel_op.html" target="_top" xlink:title="amr_wind::synth_turb\l::MeanVelOp">
<polygon fill="#ffffff" stroke="#000000" points="0,-4.2075 0,-34.2075 122,-34.2075 122,-4.2075 0,-4.2075"/>
<text text-anchor="start" x="8" y="-22.2075" font-family="Helvetica,sans-Serif" font-size="10.00" fill="#000000">amr_wind::synth_turb</text>
<text text-anchor="middle" x="61" y="-11.2075" font-family="Helvetica,sans-Serif" font-size="10.00" fill="#000000">::MeanVelOp</text>
</a>
</g>
</g>
<!-- Node18&#45;&gt;Node17 -->
<g id="edge20" class="edge">
<title>Node18&#45;&gt;Node17</title>
<path fill="none" stroke="#9a32cd" stroke-dasharray="5,2" d="M132.4754,-19.2075C156.7084,-19.2075 183.5395,-19.2075 206.8906,-19.2075"/>
<polygon fill="#9a32cd" stroke="#9a32cd" points="132.2667,-15.7076 122.2666,-19.2075 132.2666,-22.7076 132.2667,-15.7076"/>
<text text-anchor="middle" x="164.5" y="-22.2075" font-family="Helvetica,sans-Serif" font-size="10.00" fill="#000000"> m_op</text>
</g>
<!-- Node19&#45;&gt;Node16 -->
<g id="edge21" class="edge">
<title>Node19&#45;&gt;Node16</title>
<path fill="none" stroke="#ffa500" stroke-dasharray="5,2" d="M337.5162,-101.2075C389.713,-101.2075 461.5837,-101.2075 517.9034,-101.2075"/>
<polygon fill="#ffa500" stroke="#ffa500" points="337.3496,-97.7076 327.3496,-101.2075 337.3495,-104.7076 337.3496,-97.7076"/>
<text text-anchor="start" x="363" y="-115.2075" font-family="Helvetica,sans-Serif" font-size="10.00" fill="#000000"> &lt; amr_wind::synth_turb</text>
<text text-anchor="middle" x="423.5" y="-104.2075" font-family="Helvetica,sans-Serif" font-size="10.00" fill="#000000">::MeanProfile &gt;</text>
</g>
</g>
</svg>
