<?xml version="1.0" encoding="UTF-8" standalone="no"?>
<!DOCTYPE svg PUBLIC "-//W3C//DTD SVG 1.1//EN"
 "http://www.w3.org/Graphics/SVG/1.1/DTD/svg11.dtd">
<!-- Generated by graphviz version 2.40.1 (20161225.0304)
 -->
<!-- Title: amr_wind::transport::TransportModel Pages: 1 -->
<svg width="258pt" height="106pt"
 viewBox="0.00 0.00 257.50 106.00" xmlns="http://www.w3.org/2000/svg" xmlns:xlink="http://www.w3.org/1999/xlink">
<g id="graph0" class="graph" transform="scale(1 1) rotate(0) translate(4 102)">
<title>amr_wind::transport::TransportModel</title>
<polygon fill="#ffffff" stroke="transparent" points="-4,4 -4,-102 253.5,-102 253.5,4 -4,4"/>
<!-- Node0 -->
<g id="node1" class="node">
<title>Node0</title>
<polygon fill="#bfbfbf" stroke="#000000" points="67,-67.5 67,-97.5 182,-97.5 182,-67.5 67,-67.5"/>
<text text-anchor="start" x="75" y="-85.5" font-family="Helvetica,sans-Serif" font-size="10.00" fill="#000000">amr_wind::transport</text>
<text text-anchor="middle" x="124.5" y="-74.5" font-family="Helvetica,sans-Serif" font-size="10.00" fill="#000000">::TransportModel</text>
</g>
<!-- Node1 -->
<g id="node2" class="node">
<title>Node1</title>
<g id="a_node2"><a xlink:href="classamr__wind_1_1transport_1_1_const_transport.html" target="_top" xlink:title="Fluid transport model with constant properties. ">
<polygon fill="#ffffff" stroke="#000000" points="0,-.5 0,-30.5 115,-30.5 115,-.5 0,-.5"/>
<text text-anchor="start" x="8" y="-18.5" font-family="Helvetica,sans-Serif" font-size="10.00" fill="#000000">amr_wind::transport</text>
<text text-anchor="middle" x="57.5" y="-7.5" font-family="Helvetica,sans-Serif" font-size="10.00" fill="#000000">::ConstTransport</text>
</a>
</g>
</g>
<!-- Node0&#45;&gt;Node1 -->
<g id="edge1" class="edge">
<title>Node0&#45;&gt;Node1</title>
<path fill="none" stroke="#191970" d="M102.2113,-60.2113C92.5009,-50.5009 81.3698,-39.3698 72.6432,-30.6432"/>
<polygon fill="#191970" stroke="#191970" points="99.7507,-62.7004 109.2967,-67.2967 104.7004,-57.7507 99.7507,-62.7004"/>
</g>
<!-- Node2 -->
<g id="node3" class="node">
<title>Node2</title>
<g id="a_node3"><a xlink:href="classamr__wind_1_1transport_1_1_two_phase_transport.html" target="_top" xlink:title="Two&#45;phase fluid transport model with piece&#45;wise constant properties. ">
<polygon fill="#ffffff" stroke="#000000" points="133.5,-.5 133.5,-30.5 249.5,-30.5 249.5,-.5 133.5,-.5"/>
<text text-anchor="start" x="141.5" y="-18.5" font-family="Helvetica,sans-Serif" font-size="10.00" fill="#000000">amr_wind::transport</text>
<text text-anchor="middle" x="191.5" y="-7.5" font-family="Helvetica,sans-Serif" font-size="10.00" fill="#000000">::TwoPhaseTransport</text>
</a>
</g>
</g>
<!-- Node0&#45;&gt;Node2 -->
<g id="edge2" class="edge">
<title>Node0&#45;&gt;Node2</title>
<path fill="none" stroke="#191970" d="M146.7887,-60.2113C156.4991,-50.5009 167.6302,-39.3698 176.3568,-30.6432"/>
<polygon fill="#191970" stroke="#191970" points="144.2996,-57.7507 139.7033,-67.2967 149.2493,-62.7004 144.2996,-57.7507"/>
</g>
</g>
</svg>
