<?xml version="1.0" encoding="UTF-8" standalone="no"?>
<!DOCTYPE svg PUBLIC "-//W3C//DTD SVG 1.1//EN"
 "http://www.w3.org/Graphics/SVG/1.1/DTD/svg11.dtd">
<!-- Generated by graphviz version 2.40.1 (20161225.0304)
 -->
<!-- Title: amr_wind::CollMgr&lt; Collection, Type, allow_duplicates &gt; Pages: 1 -->
<svg width="239pt" height="284pt"
 viewBox="0.00 0.00 239.00 284.00" xmlns="http://www.w3.org/2000/svg" xmlns:xlink="http://www.w3.org/1999/xlink">
<g id="graph0" class="graph" transform="scale(1 1) rotate(0) translate(4 280)">
<title>amr_wind::CollMgr&lt; Collection, Type, allow_duplicates &gt;</title>
<polygon fill="#ffffff" stroke="transparent" points="-4,4 -4,-280 235,-280 235,4 -4,4"/>
<!-- Node7 -->
<g id="node1" class="node">
<title>Node7</title>
<polygon fill="#bfbfbf" stroke="#000000" points="41.5,-.5 41.5,-41.5 170.5,-41.5 170.5,-.5 41.5,-.5"/>
<text text-anchor="start" x="49.5" y="-29.5" font-family="Helvetica,sans-Serif" font-size="10.00" fill="#000000">amr_wind::CollMgr&lt;</text>
<text text-anchor="start" x="49.5" y="-18.5" font-family="Helvetica,sans-Serif" font-size="10.00" fill="#000000"> Collection, Type, allow</text>
<text text-anchor="middle" x="106" y="-7.5" font-family="Helvetica,sans-Serif" font-size="10.00" fill="#000000">_duplicates &gt;</text>
</g>
<!-- Node8 -->
<g id="node2" class="node">
<title>Node8</title>
<polygon fill="#ffffff" stroke="#bfbfbf" points="49,-89.5 49,-119.5 163,-119.5 163,-89.5 49,-89.5"/>
<text text-anchor="start" x="57" y="-107.5" font-family="Helvetica,sans-Serif" font-size="10.00" fill="#000000">std::unordered_map</text>
<text text-anchor="middle" x="106" y="-96.5" font-family="Helvetica,sans-Serif" font-size="10.00" fill="#000000">&lt; std::string, int &gt;</text>
</g>
<!-- Node8&#45;&gt;Node7 -->
<g id="edge1" class="edge">
<title>Node8&#45;&gt;Node7</title>
<path fill="none" stroke="#9a32cd" stroke-dasharray="5,2" d="M106,-78.9112C106,-66.9282 106,-52.8447 106,-41.5668"/>
<polygon fill="#9a32cd" stroke="#9a32cd" points="102.5001,-79.1848 106,-89.1848 109.5001,-79.1848 102.5001,-79.1848"/>
<text text-anchor="middle" x="136.5" y="-63" font-family="Helvetica,sans-Serif" font-size="10.00" fill="#000000"> m_obj_map</text>
</g>
<!-- Node9 -->
<g id="node3" class="node">
<title>Node9</title>
<g id="a_node3"><a xlink:title="STL class. ">
<polygon fill="#ffffff" stroke="#bfbfbf" points="19.5,-173 19.5,-192 84.5,-192 84.5,-173 19.5,-173"/>
<text text-anchor="middle" x="52" y="-180" font-family="Helvetica,sans-Serif" font-size="10.00" fill="#000000">std::string</text>
</a>
</g>
</g>
<!-- Node9&#45;&gt;Node8 -->
<g id="edge2" class="edge">
<title>Node9&#45;&gt;Node8</title>
<path fill="none" stroke="#9a32cd" stroke-dasharray="5,2" d="M64.491,-164.4575C73.861,-150.923 86.5474,-132.5981 95.4199,-119.7824"/>
<polygon fill="#9a32cd" stroke="#9a32cd" points="61.4359,-162.7215 58.6215,-172.9357 67.1913,-166.706 61.4359,-162.7215"/>
<text text-anchor="middle" x="96.5" y="-141" font-family="Helvetica,sans-Serif" font-size="10.00" fill="#000000"> keys</text>
</g>
<!-- Node10 -->
<g id="node4" class="node">
<title>Node10</title>
<g id="a_node4"><a xlink:title="STL class. ">
<polygon fill="#ffffff" stroke="#bfbfbf" points="0,-245.5 0,-275.5 104,-275.5 104,-245.5 0,-245.5"/>
<text text-anchor="start" x="8" y="-263.5" font-family="Helvetica,sans-Serif" font-size="10.00" fill="#000000">std::basic_string&lt;</text>
<text text-anchor="middle" x="52" y="-252.5" font-family="Helvetica,sans-Serif" font-size="10.00" fill="#000000"> char &gt;</text>
</a>
</g>
</g>
<!-- Node10&#45;&gt;Node9 -->
<g id="edge3" class="edge">
<title>Node10&#45;&gt;Node9</title>
<path fill="none" stroke="#191970" d="M52,-235.3962C52,-220.6331 52,-202.8138 52,-192.0839"/>
<polygon fill="#191970" stroke="#191970" points="48.5001,-235.4608 52,-245.4608 55.5001,-235.4609 48.5001,-235.4608"/>
</g>
<!-- Node11 -->
<g id="node5" class="node">
<title>Node11</title>
<g id="a_node5"><a xlink:title="STL class. ">
<polygon fill="#ffffff" stroke="#bfbfbf" points="103,-167.5 103,-197.5 217,-197.5 217,-167.5 103,-167.5"/>
<text text-anchor="start" x="111" y="-185.5" font-family="Helvetica,sans-Serif" font-size="10.00" fill="#000000">std::unordered_map</text>
<text text-anchor="middle" x="160" y="-174.5" font-family="Helvetica,sans-Serif" font-size="10.00" fill="#000000">&lt; K, T &gt;</text>
</a>
</g>
</g>
<!-- Node11&#45;&gt;Node8 -->
<g id="edge4" class="edge">
<title>Node11&#45;&gt;Node8</title>
<path fill="none" stroke="#ffa500" stroke-dasharray="5,2" d="M143.8308,-159.1445C135.0024,-146.3923 124.322,-130.9652 116.564,-119.7592"/>
<polygon fill="#ffa500" stroke="#ffa500" points="141.0184,-161.2311 149.5883,-167.4608 146.7738,-157.2466 141.0184,-161.2311"/>
<text text-anchor="middle" x="184" y="-141" font-family="Helvetica,sans-Serif" font-size="10.00" fill="#000000"> &lt; std::string, int &gt;</text>
</g>
<!-- Node12 -->
<g id="node6" class="node">
<title>Node12</title>
<polygon fill="#ffffff" stroke="#bfbfbf" points="133.5,-251 133.5,-270 162.5,-270 162.5,-251 133.5,-251"/>
<text text-anchor="middle" x="148" y="-258" font-family="Helvetica,sans-Serif" font-size="10.00" fill="#000000">K</text>
</g>
<!-- Node12&#45;&gt;Node11 -->
<g id="edge5" class="edge">
<title>Node12&#45;&gt;Node11</title>
<path fill="none" stroke="#9a32cd" stroke-dasharray="5,2" d="M147.2017,-240.6231C147.2151,-232.8885 147.6308,-223.983 149,-216 150.0555,-209.846 152.0162,-203.2777 153.9932,-197.6023"/>
<polygon fill="#9a32cd" stroke="#9a32cd" points="143.7073,-240.945 147.4057,-250.8733 150.7059,-240.8056 143.7073,-240.945"/>
<text text-anchor="middle" x="162.5" y="-219" font-family="Helvetica,sans-Serif" font-size="10.00" fill="#000000"> keys</text>
</g>
<!-- Node13 -->
<g id="node7" class="node">
<title>Node13</title>
<polygon fill="#ffffff" stroke="#bfbfbf" points="183.5,-251 183.5,-270 212.5,-270 212.5,-251 183.5,-251"/>
<text text-anchor="middle" x="198" y="-258" font-family="Helvetica,sans-Serif" font-size="10.00" fill="#000000">T</text>
</g>
<!-- Node13&#45;&gt;Node11 -->
<g id="edge6" class="edge">
<title>Node13&#45;&gt;Node11</title>
<path fill="none" stroke="#9a32cd" stroke-dasharray="5,2" d="M188.8271,-241.6714C182.2739,-228.2202 173.5688,-210.3517 167.4453,-197.7824"/>
<polygon fill="#9a32cd" stroke="#9a32cd" points="185.8142,-243.4787 193.3405,-250.9357 192.1072,-240.4128 185.8142,-243.4787"/>
<text text-anchor="middle" x="206.5" y="-219" font-family="Helvetica,sans-Serif" font-size="10.00" fill="#000000"> elements</text>
</g>
</g>
</svg>
