<?xml version="1.0" encoding="UTF-8" standalone="no"?>
<!DOCTYPE svg PUBLIC "-//W3C//DTD SVG 1.1//EN"
 "http://www.w3.org/Graphics/SVG/1.1/DTD/svg11.dtd">
<!-- Generated by graphviz version 2.40.1 (20161225.0304)
 -->
<!-- Title: amr_wind::ExtSolver Pages: 1 -->
<svg width="197pt" height="174pt"
 viewBox="0.00 0.00 196.50 174.00" xmlns="http://www.w3.org/2000/svg" xmlns:xlink="http://www.w3.org/1999/xlink">
<g id="graph0" class="graph" transform="scale(1 1) rotate(0) translate(4 170)">
<title>amr_wind::ExtSolver</title>
<polygon fill="#ffffff" stroke="transparent" points="-4,4 -4,-170 192.5,-170 192.5,4 -4,4"/>
<!-- Node0 -->
<g id="node1" class="node">
<title>Node0</title>
<polygon fill="#bfbfbf" stroke="#000000" points="6,-.5 6,-19.5 123,-19.5 123,-.5 6,-.5"/>
<text text-anchor="middle" x="64.5" y="-7.5" font-family="Helvetica,sans-Serif" font-size="10.00" fill="#000000">amr_wind::ExtSolver</text>
</g>
<!-- Node1 -->
<g id="node2" class="node">
<title>Node1</title>
<g id="a_node2"><a xlink:href="structamr__wind_1_1_factory.html" target="_top" xlink:title="amr_wind::Factory\&lt;\l ExtSolver, CFDSim &amp;\&gt;">
<polygon fill="#ffffff" stroke="#000000" points="0,-57.5 0,-87.5 129,-87.5 129,-57.5 0,-57.5"/>
<text text-anchor="start" x="8" y="-75.5" font-family="Helvetica,sans-Serif" font-size="10.00" fill="#000000">amr_wind::Factory&lt;</text>
<text text-anchor="middle" x="64.5" y="-64.5" font-family="Helvetica,sans-Serif" font-size="10.00" fill="#000000"> ExtSolver, CFDSim &amp;&gt;</text>
</a>
</g>
</g>
<!-- Node1&#45;&gt;Node0 -->
<g id="edge1" class="edge">
<title>Node1&#45;&gt;Node0</title>
<path fill="none" stroke="#191970" d="M64.5,-47.3498C64.5,-37.6481 64.5,-27.1303 64.5,-19.7356"/>
<polygon fill="#191970" stroke="#191970" points="61.0001,-47.3705 64.5,-57.3705 68.0001,-47.3705 61.0001,-47.3705"/>
</g>
<!-- Node2 -->
<g id="node3" class="node">
<title>Node2</title>
<g id="a_node3"><a xlink:href="structamr__wind_1_1_factory.html" target="_top" xlink:title="Runtime selection of options based on string keyword lookupFactory provides an automated way to regis...">
<polygon fill="#ffffff" stroke="#000000" points="7.5,-135.5 7.5,-165.5 121.5,-165.5 121.5,-135.5 7.5,-135.5"/>
<text text-anchor="start" x="15.5" y="-153.5" font-family="Helvetica,sans-Serif" font-size="10.00" fill="#000000">amr_wind::Factory&lt;</text>
<text text-anchor="middle" x="64.5" y="-142.5" font-family="Helvetica,sans-Serif" font-size="10.00" fill="#000000"> Base, Args &gt;</text>
</a>
</g>
</g>
<!-- Node2&#45;&gt;Node1 -->
<g id="edge2" class="edge">
<title>Node2&#45;&gt;Node1</title>
<path fill="none" stroke="#ffa500" stroke-dasharray="5,2" d="M64.5,-125.2875C64.5,-112.9187 64.5,-98.4264 64.5,-87.7592"/>
<polygon fill="#ffa500" stroke="#ffa500" points="61.0001,-125.4608 64.5,-135.4608 68.0001,-125.4608 61.0001,-125.4608"/>
<text text-anchor="middle" x="126.5" y="-109" font-family="Helvetica,sans-Serif" font-size="10.00" fill="#000000"> &lt; ExtSolver, CFDSim &amp;&gt;</text>
</g>
</g>
</svg>
