<?xml version="1.0" encoding="UTF-8" standalone="no"?>
<!DOCTYPE svg PUBLIC "-//W3C//DTD SVG 1.1//EN"
 "http://www.w3.org/Graphics/SVG/1.1/DTD/svg11.dtd">
<!-- Generated by graphviz version 2.40.1 (20161225.0304)
 -->
<!-- Title: amr_wind::pde::icns::BoussinesqBuoyancy Pages: 1 -->
<svg width="287pt" height="429pt"
 viewBox="0.00 0.00 286.50 429.00" xmlns="http://www.w3.org/2000/svg" xmlns:xlink="http://www.w3.org/1999/xlink">
<g id="graph0" class="graph" transform="scale(1 1) rotate(0) translate(4 425)">
<title>amr_wind::pde::icns::BoussinesqBuoyancy</title>
<polygon fill="#ffffff" stroke="transparent" points="-4,4 -4,-425 282.5,-425 282.5,4 -4,4"/>
<!-- Node2 -->
<g id="node1" class="node">
<title>Node2</title>
<polygon fill="#bfbfbf" stroke="#000000" points="28.5,-.5 28.5,-30.5 154.5,-30.5 154.5,-.5 28.5,-.5"/>
<text text-anchor="start" x="36.5" y="-18.5" font-family="Helvetica,sans-Serif" font-size="10.00" fill="#000000">amr_wind::pde::icns</text>
<text text-anchor="middle" x="91.5" y="-7.5" font-family="Helvetica,sans-Serif" font-size="10.00" fill="#000000">::BoussinesqBuoyancy</text>
</g>
<!-- Node3 -->
<g id="node2" class="node">
<title>Node3</title>
<polygon fill="#ffffff" stroke="#bfbfbf" points="0,-78.5 0,-108.5 151,-108.5 151,-78.5 0,-78.5"/>
<text text-anchor="start" x="8" y="-96.5" font-family="Helvetica,sans-Serif" font-size="10.00" fill="#000000">MomentumSource::Register</text>
<text text-anchor="middle" x="75.5" y="-85.5" font-family="Helvetica,sans-Serif" font-size="10.00" fill="#000000">&lt; BoussinesqBuoyancy &gt;</text>
</g>
<!-- Node3&#45;&gt;Node2 -->
<g id="edge1" class="edge">
<title>Node3&#45;&gt;Node2</title>
<path fill="none" stroke="#191970" d="M80.5951,-68.6616C83.1489,-56.2119 86.1597,-41.5342 88.3699,-30.7592"/>
<polygon fill="#191970" stroke="#191970" points="77.1659,-67.9615 78.585,-78.4608 84.0231,-69.3681 77.1659,-67.9615"/>
</g>
<!-- Node4 -->
<g id="node3" class="node">
<title>Node4</title>
<g id="a_node3"><a xlink:href="classamr__wind_1_1_field.html" target="_top" xlink:title="Computational fieldThis is an abstraction of a collection of MultiFabs over multiple levels...">
<polygon fill="#ffffff" stroke="#000000" points="169,-84 169,-103 262,-103 262,-84 169,-84"/>
<text text-anchor="middle" x="215.5" y="-91" font-family="Helvetica,sans-Serif" font-size="10.00" fill="#000000">amr_wind::Field</text>
</a>
</g>
</g>
<!-- Node4&#45;&gt;Node2 -->
<g id="edge2" class="edge">
<title>Node4&#45;&gt;Node2</title>
<path fill="none" stroke="#9a32cd" stroke-dasharray="5,2" d="M191.6397,-78.4911C169.8342,-64.7747 137.7361,-44.584 115.7951,-30.7824"/>
<polygon fill="#9a32cd" stroke="#9a32cd" points="189.9669,-81.5737 200.2952,-83.9357 193.6941,-75.6485 189.9669,-81.5737"/>
<text text-anchor="middle" x="201" y="-52" font-family="Helvetica,sans-Serif" font-size="10.00" fill="#000000"> m_temperature</text>
</g>
<!-- Node5 -->
<g id="node4" class="node">
<title>Node5</title>
<g id="a_node4"><a xlink:title="STL class. ">
<polygon fill="#ffffff" stroke="#bfbfbf" points="190,-318 190,-337 255,-337 255,-318 190,-318"/>
<text text-anchor="middle" x="222.5" y="-325" font-family="Helvetica,sans-Serif" font-size="10.00" fill="#000000">std::string</text>
</a>
</g>
</g>
<!-- Node5&#45;&gt;Node4 -->
<g id="edge3" class="edge">
<title>Node5&#45;&gt;Node4</title>
<path fill="none" stroke="#9a32cd" stroke-dasharray="5,2" d="M225.8147,-307.6077C226.4624,-303.1414 227.0724,-298.4172 227.5,-294 234.1871,-224.9198 232.9441,-207.3857 234.5,-138 234.6096,-133.1123 235.7472,-131.7271 234.5,-127 232.2143,-118.3368 227.1157,-109.5644 222.7752,-103.1706"/>
<polygon fill="#9a32cd" stroke="#9a32cd" points="222.299,-307.436 224.2093,-317.8572 229.2146,-308.5193 222.299,-307.436"/>
<text text-anchor="middle" x="255.5" y="-202.5" font-family="Helvetica,sans-Serif" font-size="10.00" fill="#000000"> m_name</text>
</g>
<!-- Node8 -->
<g id="node7" class="node">
<title>Node8</title>
<polygon fill="#ffffff" stroke="#bfbfbf" points="94.5,-234.5 94.5,-264.5 216.5,-264.5 216.5,-234.5 94.5,-234.5"/>
<text text-anchor="start" x="102.5" y="-252.5" font-family="Helvetica,sans-Serif" font-size="10.00" fill="#000000">std::unordered_map</text>
<text text-anchor="middle" x="155.5" y="-241.5" font-family="Helvetica,sans-Serif" font-size="10.00" fill="#000000">&lt; std::string, size_t &gt;</text>
</g>
<!-- Node5&#45;&gt;Node8 -->
<g id="edge7" class="edge">
<title>Node5&#45;&gt;Node8</title>
<path fill="none" stroke="#9a32cd" stroke-dasharray="5,2" d="M209.0108,-309.5488C202.6619,-301.3112 194.8781,-291.5064 187.5,-283 182.1246,-276.8025 175.9527,-270.2255 170.4723,-264.5552"/>
<polygon fill="#9a32cd" stroke="#9a32cd" points="206.4049,-311.9038 215.2496,-317.7367 211.9728,-307.6613 206.4049,-311.9038"/>
<text text-anchor="middle" x="210" y="-286" font-family="Helvetica,sans-Serif" font-size="10.00" fill="#000000"> keys</text>
</g>
<!-- Node6 -->
<g id="node5" class="node">
<title>Node6</title>
<g id="a_node5"><a xlink:title="STL class. ">
<polygon fill="#ffffff" stroke="#bfbfbf" points="170.5,-390.5 170.5,-420.5 274.5,-420.5 274.5,-390.5 170.5,-390.5"/>
<text text-anchor="start" x="178.5" y="-408.5" font-family="Helvetica,sans-Serif" font-size="10.00" fill="#000000">std::basic_string&lt;</text>
<text text-anchor="middle" x="222.5" y="-397.5" font-family="Helvetica,sans-Serif" font-size="10.00" fill="#000000"> char &gt;</text>
</a>
</g>
</g>
<!-- Node6&#45;&gt;Node5 -->
<g id="edge4" class="edge">
<title>Node6&#45;&gt;Node5</title>
<path fill="none" stroke="#191970" d="M222.5,-380.3962C222.5,-365.6331 222.5,-347.8138 222.5,-337.0839"/>
<polygon fill="#191970" stroke="#191970" points="219.0001,-380.4608 222.5,-390.4608 226.0001,-380.4609 219.0001,-380.4608"/>
</g>
<!-- Node7 -->
<g id="node6" class="node">
<title>Node7</title>
<g id="a_node6"><a xlink:href="classamr__wind_1_1_field_repo.html" target="_top" xlink:title="Field RepositoryFieldRepo is a database that manages handling of fields used during a simulation...">
<polygon fill="#ffffff" stroke="#000000" points="102,-156.5 102,-175.5 219,-175.5 219,-156.5 102,-156.5"/>
<text text-anchor="middle" x="160.5" y="-163.5" font-family="Helvetica,sans-Serif" font-size="10.00" fill="#000000">amr_wind::FieldRepo</text>
</a>
</g>
</g>
<!-- Node7&#45;&gt;Node4 -->
<g id="edge5" class="edge">
<title>Node7&#45;&gt;Node4</title>
<path fill="none" stroke="#9a32cd" stroke-dasharray="5,2" d="M174.0411,-148.1503C184.8273,-133.9322 199.5122,-114.5748 208.2,-103.1228"/>
<polygon fill="#9a32cd" stroke="#9a32cd" points="171.173,-146.14 167.9175,-156.2223 176.7499,-150.3708 171.173,-146.14"/>
<text text-anchor="middle" x="210.5" y="-130" font-family="Helvetica,sans-Serif" font-size="10.00" fill="#000000"> m_repo</text>
</g>
<!-- Node8&#45;&gt;Node7 -->
<g id="edge6" class="edge">
<title>Node8&#45;&gt;Node7</title>
<path fill="none" stroke="#9a32cd" stroke-dasharray="5,2" d="M155.2946,-224.3737C155.3894,-214.8477 155.7059,-203.9109 156.5,-194 156.9942,-187.8326 157.9709,-180.9533 158.8354,-175.5569"/>
<polygon fill="#9a32cd" stroke="#9a32cd" points="151.7946,-224.3904 155.2681,-234.3996 158.7946,-224.4089 151.7946,-224.3904"/>
<text text-anchor="middle" x="193" y="-208" font-family="Helvetica,sans-Serif" font-size="10.00" fill="#000000"> m_fid_map</text>
<text text-anchor="middle" x="193" y="-197" font-family="Helvetica,sans-Serif" font-size="10.00" fill="#000000">m_int_fid_map</text>
</g>
<!-- Node9 -->
<g id="node8" class="node">
<title>Node9</title>
<g id="a_node8"><a xlink:title="STL class. ">
<polygon fill="#ffffff" stroke="#bfbfbf" points="20.5,-312.5 20.5,-342.5 134.5,-342.5 134.5,-312.5 20.5,-312.5"/>
<text text-anchor="start" x="28.5" y="-330.5" font-family="Helvetica,sans-Serif" font-size="10.00" fill="#000000">std::unordered_map</text>
<text text-anchor="middle" x="77.5" y="-319.5" font-family="Helvetica,sans-Serif" font-size="10.00" fill="#000000">&lt; K, T &gt;</text>
</a>
</g>
</g>
<!-- Node9&#45;&gt;Node8 -->
<g id="edge8" class="edge">
<title>Node9&#45;&gt;Node8</title>
<path fill="none" stroke="#ffa500" stroke-dasharray="5,2" d="M70.4023,-302.1603C69.9104,-295.4738 70.772,-288.5761 74.5,-283 79.7439,-275.1565 87.1989,-269.1473 95.4863,-264.5439"/>
<polygon fill="#ffa500" stroke="#ffa500" points="66.9896,-302.9769 72.0718,-312.2733 73.8962,-301.8367 66.9896,-302.9769"/>
<text text-anchor="middle" x="129" y="-286" font-family="Helvetica,sans-Serif" font-size="10.00" fill="#000000"> &lt; std::string, size_t &gt;</text>
</g>
<!-- Node10 -->
<g id="node9" class="node">
<title>Node10</title>
<polygon fill="#ffffff" stroke="#bfbfbf" points="50,-396 50,-415 79,-415 79,-396 50,-396"/>
<text text-anchor="middle" x="64.5" y="-403" font-family="Helvetica,sans-Serif" font-size="10.00" fill="#000000">K</text>
</g>
<!-- Node10&#45;&gt;Node9 -->
<g id="edge9" class="edge">
<title>Node10&#45;&gt;Node9</title>
<path fill="none" stroke="#9a32cd" stroke-dasharray="5,2" d="M63.5903,-385.6032C63.5893,-377.8661 64.0243,-368.964 65.5,-361 66.6481,-354.8041 68.7863,-348.2273 70.9434,-342.5568"/>
<polygon fill="#9a32cd" stroke="#9a32cd" points="60.0973,-385.946 63.8331,-395.8604 67.0954,-385.7803 60.0973,-385.946"/>
<text text-anchor="middle" x="79" y="-364" font-family="Helvetica,sans-Serif" font-size="10.00" fill="#000000"> keys</text>
</g>
<!-- Node11 -->
<g id="node10" class="node">
<title>Node11</title>
<polygon fill="#ffffff" stroke="#bfbfbf" points="100,-396 100,-415 129,-415 129,-396 100,-396"/>
<text text-anchor="middle" x="114.5" y="-403" font-family="Helvetica,sans-Serif" font-size="10.00" fill="#000000">T</text>
</g>
<!-- Node11&#45;&gt;Node9 -->
<g id="edge10" class="edge">
<title>Node11&#45;&gt;Node9</title>
<path fill="none" stroke="#9a32cd" stroke-dasharray="5,2" d="M105.5685,-386.6714C99.1878,-373.2202 90.7117,-355.3517 84.7493,-342.7824"/>
<polygon fill="#9a32cd" stroke="#9a32cd" points="102.5149,-388.4007 109.9631,-395.9357 108.8394,-385.4006 102.5149,-388.4007"/>
<text text-anchor="middle" x="123" y="-364" font-family="Helvetica,sans-Serif" font-size="10.00" fill="#000000"> elements</text>
</g>
</g>
</svg>
