<?xml version="1.0" encoding="UTF-8" standalone="no"?>
<!DOCTYPE svg PUBLIC "-//W3C//DTD SVG 1.1//EN"
 "http://www.w3.org/Graphics/SVG/1.1/DTD/svg11.dtd">
<!-- Generated by graphviz version 2.40.1 (20161225.0304)
 -->
<!-- Title: amr_wind::BCIface Pages: 1 -->
<svg width="469pt" height="142pt"
 viewBox="0.00 0.00 469.00 142.00" xmlns="http://www.w3.org/2000/svg" xmlns:xlink="http://www.w3.org/1999/xlink">
<g id="graph0" class="graph" transform="scale(1 1) rotate(0) translate(4 138)">
<title>amr_wind::BCIface</title>
<polygon fill="#ffffff" stroke="transparent" points="-4,4 -4,-138 465,-138 465,4 -4,4"/>
<!-- Node0 -->
<g id="node1" class="node">
<title>Node0</title>
<polygon fill="#bfbfbf" stroke="#000000" points="0,-57.5 0,-76.5 108,-76.5 108,-57.5 0,-57.5"/>
<text text-anchor="middle" x="54" y="-64.5" font-family="Helvetica,sans-Serif" font-size="10.00" fill="#000000">amr_wind::BCIface</text>
</g>
<!-- Node1 -->
<g id="node2" class="node">
<title>Node1</title>
<g id="a_node2"><a xlink:href="classamr__wind_1_1_b_c_fill_patch_extrap.html" target="_top" xlink:title="Default BC that can be applied on any fieldThis operator is used to initialize defaults for any field...">
<polygon fill="#ffffff" stroke="#000000" points="144,-114.5 144,-133.5 299,-133.5 299,-114.5 144,-114.5"/>
<text text-anchor="middle" x="221.5" y="-121.5" font-family="Helvetica,sans-Serif" font-size="10.00" fill="#000000">amr_wind::BCFillPatchExtrap</text>
</a>
</g>
</g>
<!-- Node0&#45;&gt;Node1 -->
<g id="edge1" class="edge">
<title>Node0&#45;&gt;Node1</title>
<path fill="none" stroke="#191970" d="M83.5855,-80.8972C100.9279,-88.6866 123.4086,-98.177 144,-105 154.6517,-108.5295 166.3216,-111.7276 177.299,-114.4507"/>
<polygon fill="#191970" stroke="#191970" points="84.5726,-77.5009 74.0214,-76.5405 81.6707,-83.8711 84.5726,-77.5009"/>
</g>
<!-- Node2 -->
<g id="node3" class="node">
<title>Node2</title>
<g id="a_node3"><a xlink:href="classamr__wind_1_1_b_c_scalar.html" target="_top" xlink:title="Boundary condition initialization for scalar transport variables. ">
<polygon fill="#ffffff" stroke="#000000" points="164.5,-76.5 164.5,-95.5 278.5,-95.5 278.5,-76.5 164.5,-76.5"/>
<text text-anchor="middle" x="221.5" y="-83.5" font-family="Helvetica,sans-Serif" font-size="10.00" fill="#000000">amr_wind::BCScalar</text>
</a>
</g>
</g>
<!-- Node0&#45;&gt;Node2 -->
<g id="edge2" class="edge">
<title>Node0&#45;&gt;Node2</title>
<path fill="none" stroke="#191970" d="M118.6202,-74.3301C133.6453,-76.0344 149.5382,-77.8372 164.2212,-79.5027"/>
<polygon fill="#191970" stroke="#191970" points="118.7132,-70.8182 108.3824,-73.1688 117.9242,-77.7736 118.7132,-70.8182"/>
</g>
<!-- Node4 -->
<g id="node5" class="node">
<title>Node4</title>
<g id="a_node5"><a xlink:href="classamr__wind_1_1_b_c_src_term.html" target="_top" xlink:title="Specialization for source termsSets a default first&#45;order extrapolation for non&#45;periodic BCs and a no...">
<polygon fill="#ffffff" stroke="#000000" points="160,-38.5 160,-57.5 283,-57.5 283,-38.5 160,-38.5"/>
<text text-anchor="middle" x="221.5" y="-45.5" font-family="Helvetica,sans-Serif" font-size="10.00" fill="#000000">amr_wind::BCSrcTerm</text>
</a>
</g>
</g>
<!-- Node0&#45;&gt;Node4 -->
<g id="edge4" class="edge">
<title>Node0&#45;&gt;Node4</title>
<path fill="none" stroke="#191970" d="M118.5831,-59.6742C132.1359,-58.1368 146.3963,-56.5192 159.8391,-54.9944"/>
<polygon fill="#191970" stroke="#191970" points="117.9242,-56.2264 108.3824,-60.8312 118.7132,-63.1818 117.9242,-56.2264"/>
</g>
<!-- Node5 -->
<g id="node6" class="node">
<title>Node5</title>
<g id="a_node6"><a xlink:href="classamr__wind_1_1_b_c_velocity.html" target="_top" xlink:title="Boundary condition initialization for velocity (ICNS momentum) field. ">
<polygon fill="#ffffff" stroke="#000000" points="160,-.5 160,-19.5 283,-19.5 283,-.5 160,-.5"/>
<text text-anchor="middle" x="221.5" y="-7.5" font-family="Helvetica,sans-Serif" font-size="10.00" fill="#000000">amr_wind::BCVelocity</text>
</a>
</g>
</g>
<!-- Node0&#45;&gt;Node5 -->
<g id="edge5" class="edge">
<title>Node0&#45;&gt;Node5</title>
<path fill="none" stroke="#191970" d="M83.5855,-53.1028C100.9279,-45.3134 123.4086,-35.823 144,-29 154.6517,-25.4705 166.3216,-22.2724 177.299,-19.5493"/>
<polygon fill="#191970" stroke="#191970" points="81.6707,-50.1289 74.0214,-57.4595 84.5726,-56.4991 81.6707,-50.1289"/>
</g>
<!-- Node3 -->
<g id="node4" class="node">
<title>Node3</title>
<g id="a_node4"><a xlink:href="classamr__wind_1_1_b_c_pressure.html" target="_top" xlink:title="Specialization of BC initialization for pressure. ">
<polygon fill="#ffffff" stroke="#000000" points="335,-76.5 335,-95.5 461,-95.5 461,-76.5 335,-76.5"/>
<text text-anchor="middle" x="398" y="-83.5" font-family="Helvetica,sans-Serif" font-size="10.00" fill="#000000">amr_wind::BCPressure</text>
</a>
</g>
</g>
<!-- Node2&#45;&gt;Node3 -->
<g id="edge3" class="edge">
<title>Node2&#45;&gt;Node3</title>
<path fill="none" stroke="#191970" d="M289.0652,-86C304.116,-86 320.0174,-86 334.8811,-86"/>
<polygon fill="#191970" stroke="#191970" points="288.8045,-82.5001 278.8045,-86 288.8045,-89.5001 288.8045,-82.5001"/>
</g>
</g>
</svg>
