<?xml version="1.0" encoding="UTF-8" standalone="no"?>
<!DOCTYPE svg PUBLIC "-//W3C//DTD SVG 1.1//EN"
 "http://www.w3.org/Graphics/SVG/1.1/DTD/svg11.dtd">
<!-- Generated by graphviz version 2.40.1 (20161225.0304)
 -->
<!-- Title: amr_wind::pde::DiffSolverIface&lt; LinOp &gt; Pages: 1 -->
<!--zoomable 220 -->
<svg id="main" version="1.1" xmlns="http://www.w3.org/2000/svg" xmlns:xlink="http://www.w3.org/1999/xlink" xml:space="preserve" onload="init(evt)">
<style type="text/css"><![CDATA[
.edge:hover path { stroke: red; }
.edge:hover polygon { stroke: red; fill: red; }
]]></style>
<script type="text/javascript"><![CDATA[
var edges = document.getElementsByTagName('g');
if (edges && edges.length) {
  for (var i=0;i<edges.length;i++) {
    if (edges[i].id.substr(0,4)=='edge') {
      edges[i].setAttribute('class','edge');
    }
  }
}
]]></script>
        <defs>
                <circle id="rim" cx="0" cy="0" r="7"/>
                <circle id="rim2" cx="0" cy="0" r="3.5"/>
                <g id="zoomPlus">
                        <use xlink:href="#rim" fill="#404040">
                                <set attributeName="fill" to="#808080" begin="zoomplus.mouseover" end="zoomplus.mouseout"/>
                        </use>
                        <path d="M-4,0h8M0,-4v8" fill="none" stroke="white" stroke-width="1.5" pointer-events="none"/>
                </g>
                <g id="zoomMin">
                        <use xlink:href="#rim" fill="#404040">
                                <set attributeName="fill" to="#808080" begin="zoomminus.mouseover" end="zoomminus.mouseout"/>
                        </use>
                        <path d="M-4,0h8" fill="none" stroke="white" stroke-width="1.5" pointer-events="none"/>
                </g>
                <g id="dirArrow">
                        <path fill="none" stroke="white" stroke-width="1.5" d="M0,-3.0v7 M-2.5,-0.5L0,-3.0L2.5,-0.5"/>
                </g>
               <g id="resetDef">
                       <use xlink:href="#rim2" fill="#404040">
                               <set attributeName="fill" to="#808080" begin="reset.mouseover" end="reset.mouseout"/>
                       </use>
               </g>
        </defs>

<script type="text/javascript">
var viewWidth = 628;
var viewHeight = 220;
var sectionId = 'dynsection-0';
</script>
<script xlink:href="svgpan.js"/>
<svg id="graph" class="graph">
<g id="viewport">
<title>amr_wind::pde::DiffSolverIface&lt; LinOp &gt;</title>
<polygon fill="#ffffff" stroke="transparent" points="-4,4 -4,-215.5 624,-215.5 624,4 -4,4"/>
<!-- Node0 -->
<g id="node1" class="node">
<title>Node0</title>
<polygon fill="#bfbfbf" stroke="#000000" points="0,-104 0,-134 143,-134 143,-104 0,-104"/>
<text text-anchor="start" x="8" y="-122" font-family="Helvetica,sans-Serif" font-size="10.00" fill="#000000">amr_wind::pde::DiffSolver</text>
<text text-anchor="middle" x="71.5" y="-111" font-family="Helvetica,sans-Serif" font-size="10.00" fill="#000000">Iface&lt; LinOp &gt;</text>
</g>
<!-- Node1 -->
<g id="node2" class="node">
<title>Node1</title>
<g id="a_node2"><a xlink:href="classamr__wind_1_1pde_1_1_diff_solver_iface.html" target="_top" xlink:title="amr_wind::pde::DiffSolver\lIface\&lt; ICNS::MLDiffOp \&gt;">
<polygon fill="#ffffff" stroke="#000000" points="279,-181 279,-211 422,-211 422,-181 279,-181"/>
<text text-anchor="start" x="287" y="-199" font-family="Helvetica,sans-Serif" font-size="10.00" fill="#000000">amr_wind::pde::DiffSolver</text>
<text text-anchor="middle" x="350.5" y="-188" font-family="Helvetica,sans-Serif" font-size="10.00" fill="#000000">Iface&lt; ICNS::MLDiffOp &gt;</text>
</a>
</g>
</g>
<!-- Node0&#45;&gt;Node1 -->
<g id="edge1" class="edge">
<title>Node0&#45;&gt;Node1</title>
<path fill="none" stroke="#ffa500" stroke-dasharray="5,2" d="M118.6389,-137.6355C132.1973,-142.6524 147.0838,-147.8367 161,-152 199.5054,-163.5198 243.1599,-173.8373 278.8562,-181.581"/>
<polygon fill="#ffa500" stroke="#ffa500" points="119.6261,-134.2676 109.0339,-134.029 117.1654,-140.8208 119.6261,-134.2676"/>
<text text-anchor="middle" x="211" y="-180" font-family="Helvetica,sans-Serif" font-size="10.00" fill="#000000"> &lt; ICNS::MLDiffOp &gt;</text>
</g>
<!-- Node3 -->
<g id="node4" class="node">
<title>Node3</title>
<g id="a_node4"><a xlink:href="classamr__wind_1_1pde_1_1_diff_solver_iface.html" target="_top" xlink:title="amr_wind::pde::DiffSolver\lIface\&lt; SDR::MLDiffOp \&gt;">
<polygon fill="#ffffff" stroke="#000000" points="279,-132 279,-162 422,-162 422,-132 279,-132"/>
<text text-anchor="start" x="287" y="-150" font-family="Helvetica,sans-Serif" font-size="10.00" fill="#000000">amr_wind::pde::DiffSolver</text>
<text text-anchor="middle" x="350.5" y="-139" font-family="Helvetica,sans-Serif" font-size="10.00" fill="#000000">Iface&lt; SDR::MLDiffOp &gt;</text>
</a>
</g>
</g>
<!-- Node0&#45;&gt;Node3 -->
<g id="edge3" class="edge">
<title>Node0&#45;&gt;Node3</title>
<path fill="none" stroke="#ffa500" stroke-dasharray="5,2" d="M153.5499,-127.2344C193.3089,-131.2246 240.6121,-135.9718 278.894,-139.8137"/>
<polygon fill="#ffa500" stroke="#ffa500" points="153.649,-123.7268 143.3494,-126.2107 152.9499,-130.6919 153.649,-123.7268"/>
<text text-anchor="middle" x="211" y="-140" font-family="Helvetica,sans-Serif" font-size="10.00" fill="#000000"> &lt; SDR::MLDiffOp &gt;</text>
</g>
<!-- Node5 -->
<g id="node6" class="node">
<title>Node5</title>
<g id="a_node6"><a xlink:href="classamr__wind_1_1pde_1_1_diff_solver_iface.html" target="_top" xlink:title="amr_wind::pde::DiffSolver\lIface\&lt; TKE::MLDiffOp \&gt;">
<polygon fill="#ffffff" stroke="#000000" points="279,-83 279,-113 422,-113 422,-83 279,-83"/>
<text text-anchor="start" x="287" y="-101" font-family="Helvetica,sans-Serif" font-size="10.00" fill="#000000">amr_wind::pde::DiffSolver</text>
<text text-anchor="middle" x="350.5" y="-90" font-family="Helvetica,sans-Serif" font-size="10.00" fill="#000000">Iface&lt; TKE::MLDiffOp &gt;</text>
</a>
</g>
</g>
<!-- Node0&#45;&gt;Node5 -->
<g id="edge5" class="edge">
<title>Node0&#45;&gt;Node5</title>
<path fill="none" stroke="#ffa500" stroke-dasharray="5,2" d="M153.3389,-110.6467C155.9218,-110.4226 158.4805,-110.2064 161,-110 199.9334,-106.8108 243.4267,-104.0029 278.9163,-101.9066"/>
<polygon fill="#ffa500" stroke="#ffa500" points="152.9368,-107.1686 143.2882,-111.5453 153.5602,-114.1408 152.9368,-107.1686"/>
<text text-anchor="middle" x="211" y="-113" font-family="Helvetica,sans-Serif" font-size="10.00" fill="#000000"> &lt; TKE::MLDiffOp &gt;</text>
</g>
<!-- Node7 -->
<g id="node8" class="node">
<title>Node7</title>
<g id="a_node8"><a xlink:href="classamr__wind_1_1pde_1_1_diff_solver_iface.html" target="_top" xlink:title="amr_wind::pde::DiffSolver\lIface\&lt; PDE::MLDiffOp \&gt;">
<polygon fill="#ffffff" stroke="#000000" points="279,-26 279,-56 422,-56 422,-26 279,-26"/>
<text text-anchor="start" x="287" y="-44" font-family="Helvetica,sans-Serif" font-size="10.00" fill="#000000">amr_wind::pde::DiffSolver</text>
<text text-anchor="middle" x="350.5" y="-33" font-family="Helvetica,sans-Serif" font-size="10.00" fill="#000000">Iface&lt; PDE::MLDiffOp &gt;</text>
</a>
</g>
</g>
<!-- Node0&#45;&gt;Node7 -->
<g id="edge7" class="edge">
<title>Node0&#45;&gt;Node7</title>
<path fill="none" stroke="#ffa500" stroke-dasharray="5,2" d="M122.5017,-100.4437C135.0205,-96.1361 148.4358,-91.7257 161,-88 201.2968,-76.0506 247.0164,-64.65 283.451,-56.0702"/>
<polygon fill="#ffa500" stroke="#ffa500" points="120.9802,-97.2673 112.6875,-103.8613 123.2823,-103.878 120.9802,-97.2673"/>
<text text-anchor="middle" x="211" y="-91" font-family="Helvetica,sans-Serif" font-size="10.00" fill="#000000"> &lt; PDE::MLDiffOp &gt;</text>
</g>
<!-- Node2 -->
<g id="node3" class="node">
<title>Node2</title>
<g id="a_node3"><a xlink:href="structamr__wind_1_1pde_1_1_diffusion_op_3_01_i_c_n_s_00_01_scheme_01_4.html" target="_top" xlink:title="Specialization of diffusion operator for ICNS. ">
<polygon fill="#ffffff" stroke="#000000" points="470.5,-181 470.5,-211 608.5,-211 608.5,-181 470.5,-181"/>
<text text-anchor="start" x="478.5" y="-199" font-family="Helvetica,sans-Serif" font-size="10.00" fill="#000000">amr_wind::pde::Diffusion</text>
<text text-anchor="middle" x="539.5" y="-188" font-family="Helvetica,sans-Serif" font-size="10.00" fill="#000000">Op&lt; ICNS, Scheme &gt;</text>
</a>
</g>
</g>
<!-- Node1&#45;&gt;Node2 -->
<g id="edge2" class="edge">
<title>Node1&#45;&gt;Node2</title>
<path fill="none" stroke="#191970" d="M432.303,-196C444.9781,-196 457.9635,-196 470.3248,-196"/>
<polygon fill="#191970" stroke="#191970" points="432.2223,-192.5001 422.2223,-196 432.2223,-199.5001 432.2223,-192.5001"/>
</g>
<!-- Node4 -->
<g id="node5" class="node">
<title>Node4</title>
<g id="a_node5"><a xlink:href="structamr__wind_1_1pde_1_1_diffusion_op_3_01_s_d_r_00_01_scheme_01_4.html" target="_top" xlink:title="Diffusion operator for SDR equation. ">
<polygon fill="#ffffff" stroke="#000000" points="470.5,-132 470.5,-162 608.5,-162 608.5,-132 470.5,-132"/>
<text text-anchor="start" x="478.5" y="-150" font-family="Helvetica,sans-Serif" font-size="10.00" fill="#000000">amr_wind::pde::Diffusion</text>
<text text-anchor="middle" x="539.5" y="-139" font-family="Helvetica,sans-Serif" font-size="10.00" fill="#000000">Op&lt; SDR, Scheme &gt;</text>
</a>
</g>
</g>
<!-- Node3&#45;&gt;Node4 -->
<g id="edge4" class="edge">
<title>Node3&#45;&gt;Node4</title>
<path fill="none" stroke="#191970" d="M432.303,-147C444.9781,-147 457.9635,-147 470.3248,-147"/>
<polygon fill="#191970" stroke="#191970" points="432.2223,-143.5001 422.2223,-147 432.2223,-150.5001 432.2223,-143.5001"/>
</g>
<!-- Node6 -->
<g id="node7" class="node">
<title>Node6</title>
<g id="a_node7"><a xlink:href="structamr__wind_1_1pde_1_1_diffusion_op_3_01_t_k_e_00_01_scheme_01_4.html" target="_top" xlink:title="Diffusion operator for scalar transport equations. ">
<polygon fill="#ffffff" stroke="#000000" points="470.5,-83 470.5,-113 608.5,-113 608.5,-83 470.5,-83"/>
<text text-anchor="start" x="478.5" y="-101" font-family="Helvetica,sans-Serif" font-size="10.00" fill="#000000">amr_wind::pde::Diffusion</text>
<text text-anchor="middle" x="539.5" y="-90" font-family="Helvetica,sans-Serif" font-size="10.00" fill="#000000">Op&lt; TKE, Scheme &gt;</text>
</a>
</g>
</g>
<!-- Node5&#45;&gt;Node6 -->
<g id="edge6" class="edge">
<title>Node5&#45;&gt;Node6</title>
<path fill="none" stroke="#191970" d="M432.303,-98C444.9781,-98 457.9635,-98 470.3248,-98"/>
<polygon fill="#191970" stroke="#191970" points="432.2223,-94.5001 422.2223,-98 432.2223,-101.5001 432.2223,-94.5001"/>
</g>
<!-- Node8 -->
<g id="node9" class="node">
<title>Node8</title>
<g id="a_node9"><a xlink:href="structamr__wind_1_1pde_1_1_diffusion_op_3_01_p_d_e_00_01_scheme_00_01typename_01std_1_1enable__idc2715d6b8dc44a54011031d07be4ff9.html" target="_top" xlink:title="Diffusion operator for scalar transport equations. ">
<polygon fill="#ffffff" stroke="#000000" points="459,-.5 459,-63.5 620,-63.5 620,-.5 459,-.5"/>
<text text-anchor="start" x="467" y="-51.5" font-family="Helvetica,sans-Serif" font-size="10.00" fill="#000000">amr_wind::pde::Diffusion</text>
<text text-anchor="start" x="467" y="-40.5" font-family="Helvetica,sans-Serif" font-size="10.00" fill="#000000">Op&lt; PDE, Scheme, typename</text>
<text text-anchor="start" x="467" y="-29.5" font-family="Helvetica,sans-Serif" font-size="10.00" fill="#000000"> std::enable_if&lt; std::is</text>
<text text-anchor="start" x="467" y="-18.5" font-family="Helvetica,sans-Serif" font-size="10.00" fill="#000000">_base_of&lt; ScalarTransport,</text>
<text text-anchor="middle" x="539.5" y="-7.5" font-family="Helvetica,sans-Serif" font-size="10.00" fill="#000000"> PDE &gt;::value &gt;::type &gt;</text>
</a>
</g>
</g>
<!-- Node7&#45;&gt;Node8 -->
<g id="edge8" class="edge">
<title>Node7&#45;&gt;Node8</title>
<path fill="none" stroke="#191970" d="M432.4601,-37.0971C441.2549,-36.6783 450.1972,-36.2525 458.975,-35.8345"/>
<polygon fill="#191970" stroke="#191970" points="432.0445,-33.6129 422.2223,-37.5847 432.3775,-40.6049 432.0445,-33.6129"/>
</g>
</g>
</svg>
        <g id="navigator" transform="translate(0 0)" fill="#404254">
                <rect fill="#f2f5e9" fill-opacity="0.5" stroke="#606060" stroke-width=".5" x="0" y="0" width="60" height="60"/>
                <use id="zoomplus" xlink:href="#zoomPlus" x="17" y="9" onmousedown="handleZoom(evt,'in')"/>
                <use id="zoomminus" xlink:href="#zoomMin" x="42" y="9" onmousedown="handleZoom(evt,'out')"/>
                <use id="reset" xlink:href="#resetDef" x="30" y="36" onmousedown="handleReset()"/>
                <g id="arrowUp" xlink:href="#dirArrow" transform="translate(30 24)" onmousedown="handlePan(0,-1)">
                  <use xlink:href="#rim" fill="#404040">
                        <set attributeName="fill" to="#808080" begin="arrowUp.mouseover" end="arrowUp.mouseout"/>
                  </use>
                  <path fill="none" stroke="white" stroke-width="1.5" d="M0,-3.0v7 M-2.5,-0.5L0,-3.0L2.5,-0.5"/>
                </g>
                <g id="arrowRight" xlink:href="#dirArrow" transform="rotate(90) translate(36 -43)" onmousedown="handlePan(1,0)">
                  <use xlink:href="#rim" fill="#404040">
                        <set attributeName="fill" to="#808080" begin="arrowRight.mouseover" end="arrowRight.mouseout"/>
                  </use>
                  <path fill="none" stroke="white" stroke-width="1.5" d="M0,-3.0v7 M-2.5,-0.5L0,-3.0L2.5,-0.5"/>
                </g>
                <g id="arrowDown" xlink:href="#dirArrow" transform="rotate(180) translate(-30 -48)" onmousedown="handlePan(0,1)">
                  <use xlink:href="#rim" fill="#404040">
                        <set attributeName="fill" to="#808080" begin="arrowDown.mouseover" end="arrowDown.mouseout"/>
                  </use>
                  <path fill="none" stroke="white" stroke-width="1.5" d="M0,-3.0v7 M-2.5,-0.5L0,-3.0L2.5,-0.5"/>
                </g>
                <g id="arrowLeft" xlink:href="#dirArrow" transform="rotate(270) translate(-36 17)" onmousedown="handlePan(-1,0)">
                  <use xlink:href="#rim" fill="#404040">
                        <set attributeName="fill" to="#808080" begin="arrowLeft.mouseover" end="arrowLeft.mouseout"/>
                  </use>
                  <path fill="none" stroke="white" stroke-width="1.5" d="M0,-3.0v7 M-2.5,-0.5L0,-3.0L2.5,-0.5"/>
                </g>
        </g>
        <svg viewBox="0 0 15 15" width="100%" height="30px" preserveAspectRatio="xMaxYMin meet">
         <g id="arrow_out" transform="scale(0.3 0.3)">
          <a xlink:href="classamr__wind_1_1pde_1_1_diff_solver_iface__inherit__graph_org.svg" target="_base">
           <rect id="button" ry="5" rx="5" y="6" x="6" height="38" width="38"
                fill="#f2f5e9" fill-opacity="0.5" stroke="#606060" stroke-width="1.0"/>
           <path id="arrow"
             d="M 11.500037,31.436501 C 11.940474,20.09759 22.043105,11.32322 32.158766,21.979434 L 37.068811,17.246167 C 37.068811,17.246167 37.088388,32 37.088388,32 L 22.160133,31.978069 C 22.160133,31.978069 26.997745,27.140456 26.997745,27.140456 C 18.528582,18.264221 13.291696,25.230495 11.500037,31.436501 z"
             style="fill:#404040;"/>
          </a>
         </g>
        </svg>
</svg>
