<?xml version="1.0" encoding="UTF-8" standalone="no"?>
<!DOCTYPE svg PUBLIC "-//W3C//DTD SVG 1.1//EN"
 "http://www.w3.org/Graphics/SVG/1.1/DTD/svg11.dtd">
<!-- Generated by graphviz version 2.40.1 (20161225.0304)
 -->
<!-- Title: amr_wind::ExtSolverMgr Pages: 1 -->
<svg width="225pt" height="185pt"
 viewBox="0.00 0.00 225.00 185.00" xmlns="http://www.w3.org/2000/svg" xmlns:xlink="http://www.w3.org/1999/xlink">
<g id="graph0" class="graph" transform="scale(1 1) rotate(0) translate(4 181)">
<title>amr_wind::ExtSolverMgr</title>
<polygon fill="#ffffff" stroke="transparent" points="-4,4 -4,-181 221,-181 221,4 -4,4"/>
<!-- Node0 -->
<g id="node1" class="node">
<title>Node0</title>
<polygon fill="#bfbfbf" stroke="#000000" points="6.5,-.5 6.5,-19.5 141.5,-19.5 141.5,-.5 6.5,-.5"/>
<text text-anchor="middle" x="74" y="-7.5" font-family="Helvetica,sans-Serif" font-size="10.00" fill="#000000">amr_wind::ExtSolverMgr</text>
</g>
<!-- Node1 -->
<g id="node2" class="node">
<title>Node1</title>
<g id="a_node2"><a xlink:href="classamr__wind_1_1_coll_mgr.html" target="_top" xlink:title="amr_wind::CollMgr\&lt;\l ExtSolverMgr, ExtSolver \&gt;">
<polygon fill="#ffffff" stroke="#000000" points="0,-57.5 0,-87.5 148,-87.5 148,-57.5 0,-57.5"/>
<text text-anchor="start" x="8" y="-75.5" font-family="Helvetica,sans-Serif" font-size="10.00" fill="#000000">amr_wind::CollMgr&lt;</text>
<text text-anchor="middle" x="74" y="-64.5" font-family="Helvetica,sans-Serif" font-size="10.00" fill="#000000"> ExtSolverMgr, ExtSolver &gt;</text>
</a>
</g>
</g>
<!-- Node1&#45;&gt;Node0 -->
<g id="edge1" class="edge">
<title>Node1&#45;&gt;Node0</title>
<path fill="none" stroke="#191970" d="M74,-47.3498C74,-37.6481 74,-27.1303 74,-19.7356"/>
<polygon fill="#191970" stroke="#191970" points="70.5001,-47.3705 74,-57.3705 77.5001,-47.3705 70.5001,-47.3705"/>
</g>
<!-- Node2 -->
<g id="node3" class="node">
<title>Node2</title>
<g id="a_node3"><a xlink:href="classamr__wind_1_1_coll_mgr.html" target="_top" xlink:title="Interface to manage objects of sub&#45;classes based on factory registrationProvides boiler&#45;plate code to...">
<polygon fill="#ffffff" stroke="#000000" points="9.5,-135.5 9.5,-176.5 138.5,-176.5 138.5,-135.5 9.5,-135.5"/>
<text text-anchor="start" x="17.5" y="-164.5" font-family="Helvetica,sans-Serif" font-size="10.00" fill="#000000">amr_wind::CollMgr&lt;</text>
<text text-anchor="start" x="17.5" y="-153.5" font-family="Helvetica,sans-Serif" font-size="10.00" fill="#000000"> Collection, Type, allow</text>
<text text-anchor="middle" x="74" y="-142.5" font-family="Helvetica,sans-Serif" font-size="10.00" fill="#000000">_duplicates &gt;</text>
</a>
</g>
</g>
<!-- Node2&#45;&gt;Node1 -->
<g id="edge2" class="edge">
<title>Node2&#45;&gt;Node1</title>
<path fill="none" stroke="#ffa500" stroke-dasharray="5,2" d="M74,-125.0892C74,-112.3184 74,-98.0939 74,-87.6621"/>
<polygon fill="#ffa500" stroke="#ffa500" points="70.5001,-125.3595 74,-135.3595 77.5001,-125.3596 70.5001,-125.3595"/>
<text text-anchor="middle" x="145.5" y="-109" font-family="Helvetica,sans-Serif" font-size="10.00" fill="#000000"> &lt; ExtSolverMgr, ExtSolver &gt;</text>
</g>
</g>
</svg>
