<?xml version="1.0" encoding="UTF-8" standalone="no"?>
<!DOCTYPE svg PUBLIC "-//W3C//DTD SVG 1.1//EN"
 "http://www.w3.org/Graphics/SVG/1.1/DTD/svg11.dtd">
<!-- Generated by graphviz version 2.40.1 (20161225.0304)
 -->
<!-- Title: amr_wind::FieldFillPatchOps&lt; BCOpCreator &gt; Pages: 1 -->
<svg width="1393pt" height="176pt"
 viewBox="0.00 0.00 1393.00 176.00" xmlns="http://www.w3.org/2000/svg" xmlns:xlink="http://www.w3.org/1999/xlink">
<g id="graph0" class="graph" transform="scale(1 1) rotate(0) translate(4 172)">
<title>amr_wind::FieldFillPatchOps&lt; BCOpCreator &gt;</title>
<polygon fill="#ffffff" stroke="transparent" points="-4,4 -4,-172 1389,-172 1389,4 -4,4"/>
<!-- Node4 -->
<g id="node1" class="node">
<title>Node4</title>
<polygon fill="#bfbfbf" stroke="#000000" points="1252,-78 1252,-108 1385,-108 1385,-78 1252,-78"/>
<text text-anchor="start" x="1260" y="-96" font-family="Helvetica,sans-Serif" font-size="10.00" fill="#000000">amr_wind::FieldFillPatch</text>
<text text-anchor="middle" x="1318.5" y="-85" font-family="Helvetica,sans-Serif" font-size="10.00" fill="#000000">Ops&lt; BCOpCreator &gt;</text>
</g>
<!-- Node5 -->
<g id="node2" class="node">
<title>Node5</title>
<g id="a_node2"><a xlink:href="classamr__wind_1_1_field_fill_patch_ops_base.html" target="_top" xlink:title="Abstract interface for classes that handle fill patch and physical boundary condition operations for ...">
<polygon fill="#ffffff" stroke="#000000" points="1041.5,-136 1041.5,-166 1174.5,-166 1174.5,-136 1041.5,-136"/>
<text text-anchor="start" x="1049.5" y="-154" font-family="Helvetica,sans-Serif" font-size="10.00" fill="#000000">amr_wind::FieldFillPatch</text>
<text text-anchor="middle" x="1108" y="-143" font-family="Helvetica,sans-Serif" font-size="10.00" fill="#000000">OpsBase</text>
</a>
</g>
</g>
<!-- Node5&#45;&gt;Node4 -->
<g id="edge1" class="edge">
<title>Node5&#45;&gt;Node4</title>
<path fill="none" stroke="#191970" d="M1182.5165,-133.5568C1199.4965,-129.3353 1217.4179,-124.6832 1234,-120 1246.8943,-116.3583 1260.7838,-112.0735 1273.5027,-108.0033"/>
<polygon fill="#191970" stroke="#191970" points="1181.5169,-130.1983 1172.6449,-135.9896 1183.1919,-136.995 1181.5169,-130.1983"/>
</g>
<!-- Node6 -->
<g id="node3" class="node">
<title>Node6</title>
<g id="a_node3"><a xlink:href="classamr__wind_1_1_field.html" target="_top" xlink:title="Computational fieldThis is an abstraction of a collection of MultiFabs over multiple levels...">
<polygon fill="#ffffff" stroke="#000000" points="872,-70.5 872,-89.5 965,-89.5 965,-70.5 872,-70.5"/>
<text text-anchor="middle" x="918.5" y="-77.5" font-family="Helvetica,sans-Serif" font-size="10.00" fill="#000000">amr_wind::Field</text>
</a>
</g>
</g>
<!-- Node6&#45;&gt;Node4 -->
<g id="edge2" class="edge">
<title>Node6&#45;&gt;Node4</title>
<path fill="none" stroke="#9a32cd" stroke-dasharray="5,2" d="M975.3596,-84.561C977.9412,-84.7198 980.4975,-84.8673 983,-85 1076.2357,-89.9428 1184.2092,-91.8322 1251.9354,-92.5541"/>
<polygon fill="#9a32cd" stroke="#9a32cd" points="975.5449,-81.0657 965.3364,-83.9004 975.0845,-88.0506 975.5449,-81.0657"/>
<text text-anchor="middle" x="1108" y="-94" font-family="Helvetica,sans-Serif" font-size="10.00" fill="#000000"> m_field</text>
</g>
<!-- Node15 -->
<g id="node12" class="node">
<title>Node15</title>
<g id="a_node12"><a xlink:href="structamr__wind_1_1_b_c_op_creator.html" target="_top" xlink:title="amr_wind::BCOpCreator\l\&lt; InflowOp, WallOp \&gt;">
<polygon fill="#ffffff" stroke="#000000" points="1041,-39 1041,-69 1175,-69 1175,-39 1041,-39"/>
<text text-anchor="start" x="1049" y="-57" font-family="Helvetica,sans-Serif" font-size="10.00" fill="#000000">amr_wind::BCOpCreator</text>
<text text-anchor="middle" x="1108" y="-46" font-family="Helvetica,sans-Serif" font-size="10.00" fill="#000000">&lt; InflowOp, WallOp &gt;</text>
</a>
</g>
</g>
<!-- Node6&#45;&gt;Node15 -->
<g id="edge13" class="edge">
<title>Node6&#45;&gt;Node15</title>
<path fill="none" stroke="#9a32cd" stroke-dasharray="5,2" d="M975.5185,-72.1769C996.1223,-69.35 1019.5714,-66.1327 1040.9561,-63.1986"/>
<polygon fill="#9a32cd" stroke="#9a32cd" points="974.7741,-68.7461 965.3427,-73.573 975.7257,-75.6812 974.7741,-68.7461"/>
<text text-anchor="middle" x="1003" y="-73" font-family="Helvetica,sans-Serif" font-size="10.00" fill="#000000"> m_field</text>
</g>
<!-- Node7 -->
<g id="node4" class="node">
<title>Node7</title>
<g id="a_node4"><a xlink:title="STL class. ">
<polygon fill="#ffffff" stroke="#bfbfbf" points="213.5,-66.5 213.5,-85.5 278.5,-85.5 278.5,-66.5 213.5,-66.5"/>
<text text-anchor="middle" x="246" y="-73.5" font-family="Helvetica,sans-Serif" font-size="10.00" fill="#000000">std::string</text>
</a>
</g>
</g>
<!-- Node7&#45;&gt;Node6 -->
<g id="edge3" class="edge">
<title>Node7&#45;&gt;Node6</title>
<path fill="none" stroke="#9a32cd" stroke-dasharray="5,2" d="M289.1756,-76.2568C409.4694,-76.9723 747.7228,-78.9842 871.9685,-79.7232"/>
<polygon fill="#9a32cd" stroke="#9a32cd" points="288.912,-72.7553 278.8913,-76.1956 288.8703,-79.7551 288.912,-72.7553"/>
<text text-anchor="middle" x="624.5" y="-81" font-family="Helvetica,sans-Serif" font-size="10.00" fill="#000000"> m_name</text>
</g>
<!-- Node10 -->
<g id="node7" class="node">
<title>Node10</title>
<polygon fill="#ffffff" stroke="#bfbfbf" points="448,-93 448,-123 570,-123 570,-93 448,-93"/>
<text text-anchor="start" x="456" y="-111" font-family="Helvetica,sans-Serif" font-size="10.00" fill="#000000">std::unordered_map</text>
<text text-anchor="middle" x="509" y="-100" font-family="Helvetica,sans-Serif" font-size="10.00" fill="#000000">&lt; std::string, size_t &gt;</text>
</g>
<!-- Node7&#45;&gt;Node10 -->
<g id="edge7" class="edge">
<title>Node7&#45;&gt;Node10</title>
<path fill="none" stroke="#9a32cd" stroke-dasharray="5,2" d="M288.6748,-81.1924C331.829,-86.4431 398.9498,-94.6099 447.7721,-100.5502"/>
<polygon fill="#9a32cd" stroke="#9a32cd" points="288.8623,-77.6895 278.5127,-79.9559 288.0168,-84.6382 288.8623,-77.6895"/>
<text text-anchor="middle" x="375.5" y="-100" font-family="Helvetica,sans-Serif" font-size="10.00" fill="#000000"> keys</text>
</g>
<!-- Node8 -->
<g id="node5" class="node">
<title>Node8</title>
<g id="a_node5"><a xlink:title="STL class. ">
<polygon fill="#ffffff" stroke="#bfbfbf" points="0,-61 0,-91 104,-91 104,-61 0,-61"/>
<text text-anchor="start" x="8" y="-79" font-family="Helvetica,sans-Serif" font-size="10.00" fill="#000000">std::basic_string&lt;</text>
<text text-anchor="middle" x="52" y="-68" font-family="Helvetica,sans-Serif" font-size="10.00" fill="#000000"> char &gt;</text>
</a>
</g>
</g>
<!-- Node8&#45;&gt;Node7 -->
<g id="edge4" class="edge">
<title>Node8&#45;&gt;Node7</title>
<path fill="none" stroke="#191970" d="M114.2675,-76C147.2713,-76 186.4557,-76 213.4613,-76"/>
<polygon fill="#191970" stroke="#191970" points="114.2437,-72.5001 104.2436,-76 114.2436,-79.5001 114.2437,-72.5001"/>
</g>
<!-- Node9 -->
<g id="node6" class="node">
<title>Node9</title>
<g id="a_node6"><a xlink:href="classamr__wind_1_1_field_repo.html" target="_top" xlink:title="Field RepositoryFieldRepo is a database that manages handling of fields used during a simulation...">
<polygon fill="#ffffff" stroke="#000000" points="679,-95.5 679,-114.5 796,-114.5 796,-95.5 679,-95.5"/>
<text text-anchor="middle" x="737.5" y="-102.5" font-family="Helvetica,sans-Serif" font-size="10.00" fill="#000000">amr_wind::FieldRepo</text>
</a>
</g>
</g>
<!-- Node9&#45;&gt;Node6 -->
<g id="edge5" class="edge">
<title>Node9&#45;&gt;Node6</title>
<path fill="none" stroke="#9a32cd" stroke-dasharray="5,2" d="M806.1804,-95.5138C828.0811,-92.4888 851.7946,-89.2134 871.7639,-86.4553"/>
<polygon fill="#9a32cd" stroke="#9a32cd" points="805.6926,-92.0478 796.2655,-96.8832 806.6504,-98.982 805.6926,-92.0478"/>
<text text-anchor="middle" x="834" y="-96" font-family="Helvetica,sans-Serif" font-size="10.00" fill="#000000"> m_repo</text>
</g>
<!-- Node10&#45;&gt;Node9 -->
<g id="edge6" class="edge">
<title>Node10&#45;&gt;Node9</title>
<path fill="none" stroke="#9a32cd" stroke-dasharray="5,2" d="M580.321,-107.0636C611.9937,-106.6478 648.8171,-106.1643 678.8573,-105.7699"/>
<polygon fill="#9a32cd" stroke="#9a32cd" points="580.187,-103.565 570.2338,-107.1961 580.2789,-110.5644 580.187,-103.565"/>
<text text-anchor="middle" x="624.5" y="-120" font-family="Helvetica,sans-Serif" font-size="10.00" fill="#000000"> m_fid_map</text>
<text text-anchor="middle" x="624.5" y="-109" font-family="Helvetica,sans-Serif" font-size="10.00" fill="#000000">m_int_fid_map</text>
</g>
<!-- Node11 -->
<g id="node8" class="node">
<title>Node11</title>
<g id="a_node8"><a xlink:title="STL class. ">
<polygon fill="#ffffff" stroke="#bfbfbf" points="189,-116 189,-146 303,-146 303,-116 189,-116"/>
<text text-anchor="start" x="197" y="-134" font-family="Helvetica,sans-Serif" font-size="10.00" fill="#000000">std::unordered_map</text>
<text text-anchor="middle" x="246" y="-123" font-family="Helvetica,sans-Serif" font-size="10.00" fill="#000000">&lt; K, T &gt;</text>
</a>
</g>
</g>
<!-- Node11&#45;&gt;Node10 -->
<g id="edge8" class="edge">
<title>Node11&#45;&gt;Node10</title>
<path fill="none" stroke="#ffa500" stroke-dasharray="5,2" d="M313.0961,-125.1323C354.6338,-121.4997 407.556,-116.8715 447.9213,-113.3415"/>
<polygon fill="#ffa500" stroke="#ffa500" points="312.7241,-121.6514 303.0671,-126.0093 313.334,-128.6247 312.7241,-121.6514"/>
<text text-anchor="middle" x="375.5" y="-127" font-family="Helvetica,sans-Serif" font-size="10.00" fill="#000000"> &lt; std::string, size_t &gt;</text>
</g>
<!-- Node12 -->
<g id="node9" class="node">
<title>Node12</title>
<polygon fill="#ffffff" stroke="#bfbfbf" points="37.5,-148.5 37.5,-167.5 66.5,-167.5 66.5,-148.5 37.5,-148.5"/>
<text text-anchor="middle" x="52" y="-155.5" font-family="Helvetica,sans-Serif" font-size="10.00" fill="#000000">K</text>
</g>
<!-- Node12&#45;&gt;Node11 -->
<g id="edge9" class="edge">
<title>Node12&#45;&gt;Node11</title>
<path fill="none" stroke="#9a32cd" stroke-dasharray="5,2" d="M76.7174,-154.5599C104.8185,-150.649 151.6251,-144.1346 188.9063,-138.946"/>
<polygon fill="#9a32cd" stroke="#9a32cd" points="76.0036,-151.1255 66.5815,-155.9706 76.9686,-158.0586 76.0036,-151.1255"/>
<text text-anchor="middle" x="146.5" y="-150" font-family="Helvetica,sans-Serif" font-size="10.00" fill="#000000"> keys</text>
</g>
<!-- Node13 -->
<g id="node10" class="node">
<title>Node13</title>
<polygon fill="#ffffff" stroke="#bfbfbf" points="37.5,-110.5 37.5,-129.5 66.5,-129.5 66.5,-110.5 37.5,-110.5"/>
<text text-anchor="middle" x="52" y="-117.5" font-family="Helvetica,sans-Serif" font-size="10.00" fill="#000000">T</text>
</g>
<!-- Node13&#45;&gt;Node11 -->
<g id="edge10" class="edge">
<title>Node13&#45;&gt;Node11</title>
<path fill="none" stroke="#9a32cd" stroke-dasharray="5,2" d="M76.7069,-120.7655C100.785,-121.5758 138.4249,-123.0134 171,-125 176.7368,-125.3499 182.7172,-125.7567 188.6879,-126.1906"/>
<polygon fill="#9a32cd" stroke="#9a32cd" points="76.7741,-117.2659 66.6652,-120.4376 76.5456,-124.2622 76.7741,-117.2659"/>
<text text-anchor="middle" x="146.5" y="-128" font-family="Helvetica,sans-Serif" font-size="10.00" fill="#000000"> elements</text>
</g>
<!-- Node14 -->
<g id="node11" class="node">
<title>Node14</title>
<g id="a_node11"><a xlink:href="classamr__wind_1_1_sim_time.html" target="_top" xlink:title="Time manager for simulations. ">
<polygon fill="#ffffff" stroke="#000000" points="1051,-.5 1051,-19.5 1165,-19.5 1165,-.5 1051,-.5"/>
<text text-anchor="middle" x="1108" y="-7.5" font-family="Helvetica,sans-Serif" font-size="10.00" fill="#000000">amr_wind::SimTime</text>
</a>
</g>
</g>
<!-- Node14&#45;&gt;Node4 -->
<g id="edge11" class="edge">
<title>Node14&#45;&gt;Node4</title>
<path fill="none" stroke="#9a32cd" stroke-dasharray="5,2" d="M1154.9629,-22.4215C1161.7344,-24.4716 1168.5801,-26.6878 1175,-29 1215.0371,-43.4199 1259.5659,-64.0312 1288.245,-77.9334"/>
<polygon fill="#9a32cd" stroke="#9a32cd" points="1155.7337,-19.0002 1145.1529,-19.5449 1153.764,-25.7174 1155.7337,-19.0002"/>
<text text-anchor="middle" x="1213.5" y="-55" font-family="Helvetica,sans-Serif" font-size="10.00" fill="#000000"> m_time</text>
</g>
<!-- Node15&#45;&gt;Node4 -->
<g id="edge12" class="edge">
<title>Node15&#45;&gt;Node4</title>
<path fill="none" stroke="#9a32cd" stroke-dasharray="5,2" d="M1185.1159,-68.2875C1207.0383,-72.3491 1230.7181,-76.7364 1251.9552,-80.671"/>
<polygon fill="#9a32cd" stroke="#9a32cd" points="1185.6526,-64.8274 1175.1823,-66.4471 1184.3773,-71.7103 1185.6526,-64.8274"/>
<text text-anchor="middle" x="1213.5" y="-79" font-family="Helvetica,sans-Serif" font-size="10.00" fill="#000000"> m_op</text>
</g>
</g>
</svg>
