<?xml version="1.0" encoding="UTF-8" standalone="no"?>
<!DOCTYPE svg PUBLIC "-//W3C//DTD SVG 1.1//EN"
 "http://www.w3.org/Graphics/SVG/1.1/DTD/svg11.dtd">
<!-- Generated by graphviz version 2.40.1 (20161225.0304)
 -->
<!-- Title: ncutils::NCFile Pages: 1 -->
<svg width="174pt" height="85pt"
 viewBox="0.00 0.00 174.00 85.00" xmlns="http://www.w3.org/2000/svg" xmlns:xlink="http://www.w3.org/1999/xlink">
<g id="graph0" class="graph" transform="scale(1 1) rotate(0) translate(4 81)">
<title>ncutils::NCFile</title>
<polygon fill="#ffffff" stroke="transparent" points="-4,4 -4,-81 170,-81 170,4 -4,4"/>
<!-- Node2 -->
<g id="node1" class="node">
<title>Node2</title>
<polygon fill="#bfbfbf" stroke="#000000" points="6,-.5 6,-19.5 92,-19.5 92,-.5 6,-.5"/>
<text text-anchor="middle" x="49" y="-7.5" font-family="Helvetica,sans-Serif" font-size="10.00" fill="#000000">ncutils::NCFile</text>
</g>
<!-- Node3 -->
<g id="node2" class="node">
<title>Node3</title>
<g id="a_node2"><a xlink:href="classncutils_1_1_n_c_group.html" target="_top" xlink:title="Representation of a NetCDF group. ">
<polygon fill="#ffffff" stroke="#000000" points="0,-57.5 0,-76.5 98,-76.5 98,-57.5 0,-57.5"/>
<text text-anchor="middle" x="49" y="-64.5" font-family="Helvetica,sans-Serif" font-size="10.00" fill="#000000">ncutils::NCGroup</text>
</a>
</g>
</g>
<!-- Node3&#45;&gt;Node2 -->
<g id="edge1" class="edge">
<title>Node3&#45;&gt;Node2</title>
<path fill="none" stroke="#191970" d="M49,-47.2342C49,-37.8491 49,-27.0651 49,-19.5265"/>
<polygon fill="#191970" stroke="#191970" points="45.5001,-47.3307 49,-57.3307 52.5001,-47.3308 45.5001,-47.3307"/>
</g>
<!-- Node3&#45;&gt;Node3 -->
<g id="edge2" class="edge">
<title>Node3&#45;&gt;Node3</title>
<path fill="none" stroke="#9a32cd" stroke-dasharray="5,2" d="M108.323,-71.0033C113.0648,-70.1289 116,-68.7944 116,-67 116,-64.1289 108.4858,-62.4354 98.0804,-61.9195"/>
<polygon fill="#9a32cd" stroke="#9a32cd" points="107.6595,-67.5537 98.0804,-72.0805 108.3917,-74.5153 107.6595,-67.5537"/>
<text text-anchor="middle" x="141" y="-64.5" font-family="Helvetica,sans-Serif" font-size="10.00" fill="#000000"> m_parent</text>
</g>
</g>
</svg>
