<?xml version="1.0" encoding="UTF-8" standalone="no"?>
<!DOCTYPE svg PUBLIC "-//W3C//DTD SVG 1.1//EN"
 "http://www.w3.org/Graphics/SVG/1.1/DTD/svg11.dtd">
<!-- Generated by graphviz version 2.40.1 (20161225.0304)
 -->
<!-- Title: amr_wind::pde::DensitySource Pages: 1 -->
<svg width="209pt" height="196pt"
 viewBox="0.00 0.00 208.50 196.00" xmlns="http://www.w3.org/2000/svg" xmlns:xlink="http://www.w3.org/1999/xlink">
<g id="graph0" class="graph" transform="scale(1 1) rotate(0) translate(4 192)">
<title>amr_wind::pde::DensitySource</title>
<polygon fill="#ffffff" stroke="transparent" points="-4,4 -4,-192 204.5,-192 204.5,4 -4,4"/>
<!-- Node3 -->
<g id="node1" class="node">
<title>Node3</title>
<polygon fill="#bfbfbf" stroke="#000000" points="0,-.5 0,-19.5 165,-19.5 165,-.5 0,-.5"/>
<text text-anchor="middle" x="82.5" y="-7.5" font-family="Helvetica,sans-Serif" font-size="10.00" fill="#000000">amr_wind::pde::DensitySource</text>
</g>
<!-- Node4 -->
<g id="node2" class="node">
<title>Node4</title>
<g id="a_node2"><a xlink:href="structamr__wind_1_1_factory.html" target="_top" xlink:title="amr_wind::Factory\&lt;\l DensitySource, const\l CFDSim &amp;\&gt;">
<polygon fill="#ffffff" stroke="#000000" points="21.5,-57.5 21.5,-98.5 143.5,-98.5 143.5,-57.5 21.5,-57.5"/>
<text text-anchor="start" x="29.5" y="-86.5" font-family="Helvetica,sans-Serif" font-size="10.00" fill="#000000">amr_wind::Factory&lt;</text>
<text text-anchor="start" x="29.5" y="-75.5" font-family="Helvetica,sans-Serif" font-size="10.00" fill="#000000"> DensitySource, const</text>
<text text-anchor="middle" x="82.5" y="-64.5" font-family="Helvetica,sans-Serif" font-size="10.00" fill="#000000"> CFDSim &amp;&gt;</text>
</a>
</g>
</g>
<!-- Node4&#45;&gt;Node3 -->
<g id="edge1" class="edge">
<title>Node4&#45;&gt;Node3</title>
<path fill="none" stroke="#191970" d="M82.5,-47.1423C82.5,-37.1999 82.5,-26.896 82.5,-19.6705"/>
<polygon fill="#191970" stroke="#191970" points="79.0001,-47.2282 82.5,-57.2283 86.0001,-47.2283 79.0001,-47.2282"/>
</g>
<!-- Node5 -->
<g id="node3" class="node">
<title>Node5</title>
<g id="a_node3"><a xlink:href="structamr__wind_1_1_factory.html" target="_top" xlink:title="Runtime selection of options based on string keyword lookupFactory provides an automated way to regis...">
<polygon fill="#ffffff" stroke="#000000" points="25.5,-157.5 25.5,-187.5 139.5,-187.5 139.5,-157.5 25.5,-157.5"/>
<text text-anchor="start" x="33.5" y="-175.5" font-family="Helvetica,sans-Serif" font-size="10.00" fill="#000000">amr_wind::Factory&lt;</text>
<text text-anchor="middle" x="82.5" y="-164.5" font-family="Helvetica,sans-Serif" font-size="10.00" fill="#000000"> Base, Args &gt;</text>
</a>
</g>
</g>
<!-- Node5&#45;&gt;Node4 -->
<g id="edge2" class="edge">
<title>Node5&#45;&gt;Node4</title>
<path fill="none" stroke="#ffa500" stroke-dasharray="5,2" d="M82.5,-147.1013C82.5,-131.9736 82.5,-113.0135 82.5,-98.7823"/>
<polygon fill="#ffa500" stroke="#ffa500" points="79.0001,-147.3169 82.5,-157.3169 86.0001,-147.317 79.0001,-147.3169"/>
<text text-anchor="start" x="82.5" y="-131" font-family="Helvetica,sans-Serif" font-size="10.00" fill="#000000"> &lt; DensitySource, const</text>
<text text-anchor="middle" x="141.5" y="-120" font-family="Helvetica,sans-Serif" font-size="10.00" fill="#000000"> CFDSim &amp;&gt;</text>
</g>
</g>
</svg>
