<?xml version="1.0" encoding="UTF-8" standalone="no"?>
<!DOCTYPE svg PUBLIC "-//W3C//DTD SVG 1.1//EN"
 "http://www.w3.org/Graphics/SVG/1.1/DTD/svg11.dtd">
<!-- Generated by graphviz version 2.40.1 (20161225.0304)
 -->
<!-- Title: amr_wind::ThirdMomentAveraging Pages: 1 -->
<svg width="197pt" height="195pt"
 viewBox="0.00 0.00 197.00 195.00" xmlns="http://www.w3.org/2000/svg" xmlns:xlink="http://www.w3.org/1999/xlink">
<g id="graph0" class="graph" transform="scale(1 1) rotate(0) translate(4 191)">
<title>amr_wind::ThirdMomentAveraging</title>
<polygon fill="#ffffff" stroke="transparent" points="-4,4 -4,-191 193,-191 193,4 -4,4"/>
<!-- Node1 -->
<g id="node1" class="node">
<title>Node1</title>
<polygon fill="#bfbfbf" stroke="#000000" points="0,-.5 0,-19.5 184,-19.5 184,-.5 0,-.5"/>
<text text-anchor="middle" x="92" y="-7.5" font-family="Helvetica,sans-Serif" font-size="10.00" fill="#000000">amr_wind::ThirdMomentAveraging</text>
</g>
<!-- Node2 -->
<g id="node2" class="node">
<title>Node2</title>
<g id="a_node2"><a xlink:href="classamr__wind_1_1_f_plane_averaging.html" target="_top" xlink:title="Output average of a field on planes normal to a given directionThe user can choose a direction (x...">
<polygon fill="#ffffff" stroke="#000000" points="16,-89.5 16,-119.5 168,-119.5 168,-89.5 16,-89.5"/>
<text text-anchor="start" x="24" y="-107.5" font-family="Helvetica,sans-Serif" font-size="10.00" fill="#000000">amr_wind::FPlaneAveraging</text>
<text text-anchor="middle" x="92" y="-96.5" font-family="Helvetica,sans-Serif" font-size="10.00" fill="#000000">&lt; FType &gt;</text>
</a>
</g>
</g>
<!-- Node2&#45;&gt;Node1 -->
<g id="edge1" class="edge">
<title>Node2&#45;&gt;Node1</title>
<path fill="none" stroke="#9a32cd" stroke-dasharray="5,2" d="M92,-79.2172C92,-59.6238 92,-33.5479 92,-19.6636"/>
<polygon fill="#9a32cd" stroke="#9a32cd" points="88.5001,-79.3169 92,-89.3169 95.5001,-79.317 88.5001,-79.3169"/>
<text text-anchor="middle" x="140.5" y="-63" font-family="Helvetica,sans-Serif" font-size="10.00" fill="#000000"> m_plane_average2</text>
<text text-anchor="middle" x="140.5" y="-52" font-family="Helvetica,sans-Serif" font-size="10.00" fill="#000000">m_plane_average3</text>
<text text-anchor="middle" x="140.5" y="-41" font-family="Helvetica,sans-Serif" font-size="10.00" fill="#000000">m_plane_average1</text>
</g>
<!-- Node3 -->
<g id="node3" class="node">
<title>Node3</title>
<g id="a_node3"><a xlink:href="classamr__wind_1_1_sim_time.html" target="_top" xlink:title="Time manager for simulations. ">
<polygon fill="#ffffff" stroke="#000000" points="35,-167.5 35,-186.5 149,-186.5 149,-167.5 35,-167.5"/>
<text text-anchor="middle" x="92" y="-174.5" font-family="Helvetica,sans-Serif" font-size="10.00" fill="#000000">amr_wind::SimTime</text>
</a>
</g>
</g>
<!-- Node3&#45;&gt;Node2 -->
<g id="edge2" class="edge">
<title>Node3&#45;&gt;Node2</title>
<path fill="none" stroke="#9a32cd" stroke-dasharray="5,2" d="M92,-157.0177C92,-145.2164 92,-130.513 92,-119.668"/>
<polygon fill="#9a32cd" stroke="#9a32cd" points="88.5001,-157.2223 92,-167.2223 95.5001,-157.2224 88.5001,-157.2223"/>
<text text-anchor="middle" x="112.5" y="-141" font-family="Helvetica,sans-Serif" font-size="10.00" fill="#000000"> m_time</text>
</g>
</g>
</svg>
