<?xml version="1.0" encoding="UTF-8" standalone="no"?>
<!DOCTYPE svg PUBLIC "-//W3C//DTD SVG 1.1//EN"
 "http://www.w3.org/Graphics/SVG/1.1/DTD/svg11.dtd">
<!-- Generated by graphviz version 2.40.1 (20161225.0304)
 -->
<!-- Title: incflo::InitData Pages: 1 -->
<svg width="250pt" height="127pt"
 viewBox="0.00 0.00 250.00 126.50" xmlns="http://www.w3.org/2000/svg" xmlns:xlink="http://www.w3.org/1999/xlink">
<g id="graph0" class="graph" transform="scale(1 1) rotate(0) translate(4 122.5)">
<title>incflo::InitData</title>
<polygon fill="#ffffff" stroke="transparent" points="-4,4 -4,-122.5 246,-122.5 246,4 -4,4"/>
<!-- Node17 -->
<g id="node1" class="node">
<title>Node17</title>
<polygon fill="#bfbfbf" stroke="#000000" points="0,-55 0,-74 88,-74 88,-55 0,-55"/>
<text text-anchor="middle" x="44" y="-62" font-family="Helvetica,sans-Serif" font-size="10.00" fill="#000000">incflo::InitData</text>
</g>
<!-- Node18 -->
<g id="node2" class="node">
<title>Node18</title>
<g id="a_node2"><a xlink:href="classincflo.html#aee7bc4ffefd8e4723c7f058dae3ccbc1" target="_top" xlink:title="Initialize AMR mesh data structure. ">
<polygon fill="#ffffff" stroke="#000000" points="134.5,-99 134.5,-118 231.5,-118 231.5,-99 134.5,-99"/>
<text text-anchor="middle" x="183" y="-106" font-family="Helvetica,sans-Serif" font-size="10.00" fill="#000000">incflo::init_mesh</text>
</a>
</g>
</g>
<!-- Node17&#45;&gt;Node18 -->
<g id="edge1" class="edge">
<title>Node17&#45;&gt;Node18</title>
<path fill="none" stroke="#191970" d="M74.1609,-74.0473C94.3794,-80.4474 121.2208,-88.944 143.1888,-95.8979"/>
<polygon fill="#191970" stroke="#191970" points="142.3079,-99.2902 152.8979,-98.9713 144.4205,-92.6165 142.3079,-99.2902"/>
</g>
<!-- Node19 -->
<g id="node3" class="node">
<title>Node19</title>
<g id="a_node3"><a xlink:href="classincflo.html#a43cf33c0538fc17484a53d9b1ccc2a64" target="_top" xlink:title="Initialize AMR&#45;Wind data structures after mesh has been created. ">
<polygon fill="#ffffff" stroke="#000000" points="124,-49.5 124,-79.5 242,-79.5 242,-49.5 124,-49.5"/>
<text text-anchor="start" x="132" y="-67.5" font-family="Helvetica,sans-Serif" font-size="10.00" fill="#000000">incflo::init_amr_wind</text>
<text text-anchor="middle" x="183" y="-56.5" font-family="Helvetica,sans-Serif" font-size="10.00" fill="#000000">_modules</text>
</a>
</g>
</g>
<!-- Node17&#45;&gt;Node19 -->
<g id="edge2" class="edge">
<title>Node17&#45;&gt;Node19</title>
<path fill="none" stroke="#191970" d="M88.3626,-64.5C96.4717,-64.5 105.1084,-64.5 113.7401,-64.5"/>
<polygon fill="#191970" stroke="#191970" points="113.8389,-68.0001 123.8389,-64.5 113.8389,-61.0001 113.8389,-68.0001"/>
</g>
<!-- Node20 -->
<g id="node4" class="node">
<title>Node20</title>
<g id="a_node4"><a xlink:href="classincflo.html#a2d6fbc59afee957d84c86736bf4f02ab" target="_top" xlink:title="Initialize flow&#45;field before performing time&#45;integration. ">
<polygon fill="#ffffff" stroke="#000000" points="130.5,-.5 130.5,-30.5 235.5,-30.5 235.5,-.5 130.5,-.5"/>
<text text-anchor="start" x="138.5" y="-18.5" font-family="Helvetica,sans-Serif" font-size="10.00" fill="#000000">incflo::prepare_for</text>
<text text-anchor="middle" x="183" y="-7.5" font-family="Helvetica,sans-Serif" font-size="10.00" fill="#000000">_time_integration</text>
</a>
</g>
</g>
<!-- Node17&#45;&gt;Node20 -->
<g id="edge3" class="edge">
<title>Node17&#45;&gt;Node20</title>
<path fill="none" stroke="#191970" d="M71.1306,-54.936C88.1137,-48.9491 110.555,-41.0382 130.8779,-33.874"/>
<polygon fill="#191970" stroke="#191970" points="132.0766,-37.1626 140.3441,-30.537 129.7493,-30.5608 132.0766,-37.1626"/>
</g>
</g>
</svg>
