<?xml version="1.0" encoding="UTF-8" standalone="no"?>
<!DOCTYPE svg PUBLIC "-//W3C//DTD SVG 1.1//EN"
 "http://www.w3.org/Graphics/SVG/1.1/DTD/svg11.dtd">
<!-- Generated by graphviz version 2.40.1 (20161225.0304)
 -->
<!-- Title: amr_wind::averaging::FieldTimeAverage Pages: 1 -->
<svg width="189pt" height="218pt"
 viewBox="0.00 0.00 188.50 218.00" xmlns="http://www.w3.org/2000/svg" xmlns:xlink="http://www.w3.org/1999/xlink">
<g id="graph0" class="graph" transform="scale(1 1) rotate(0) translate(4 214)">
<title>amr_wind::averaging::FieldTimeAverage</title>
<polygon fill="#ffffff" stroke="transparent" points="-4,4 -4,-214 184.5,-214 184.5,4 -4,4"/>
<!-- Node0 -->
<g id="node1" class="node">
<title>Node0</title>
<polygon fill="#bfbfbf" stroke="#000000" points="16,-.5 16,-30.5 135,-30.5 135,-.5 16,-.5"/>
<text text-anchor="start" x="24" y="-18.5" font-family="Helvetica,sans-Serif" font-size="10.00" fill="#000000">amr_wind::averaging</text>
<text text-anchor="middle" x="75.5" y="-7.5" font-family="Helvetica,sans-Serif" font-size="10.00" fill="#000000">::FieldTimeAverage</text>
</g>
<!-- Node1 -->
<g id="node2" class="node">
<title>Node1</title>
<g id="a_node2"><a xlink:href="structamr__wind_1_1_factory.html" target="_top" xlink:title="amr_wind::Factory\&lt;\l FieldTimeAverage, CFDSim\l &amp;, const std::string &amp;\&gt;">
<polygon fill="#ffffff" stroke="#000000" points="0,-68.5 0,-109.5 151,-109.5 151,-68.5 0,-68.5"/>
<text text-anchor="start" x="8" y="-97.5" font-family="Helvetica,sans-Serif" font-size="10.00" fill="#000000">amr_wind::Factory&lt;</text>
<text text-anchor="start" x="8" y="-86.5" font-family="Helvetica,sans-Serif" font-size="10.00" fill="#000000"> FieldTimeAverage, CFDSim</text>
<text text-anchor="middle" x="75.5" y="-75.5" font-family="Helvetica,sans-Serif" font-size="10.00" fill="#000000"> &amp;, const std::string &amp;&gt;</text>
</a>
</g>
</g>
<!-- Node1&#45;&gt;Node0 -->
<g id="edge1" class="edge">
<title>Node1&#45;&gt;Node0</title>
<path fill="none" stroke="#191970" d="M75.5,-57.9048C75.5,-48.5365 75.5,-38.666 75.5,-30.8074"/>
<polygon fill="#191970" stroke="#191970" points="72.0001,-58.1344 75.5,-68.1345 79.0001,-58.1345 72.0001,-58.1344"/>
</g>
<!-- Node2 -->
<g id="node3" class="node">
<title>Node2</title>
<g id="a_node3"><a xlink:href="structamr__wind_1_1_factory.html" target="_top" xlink:title="Runtime selection of options based on string keyword lookupFactory provides an automated way to regis...">
<polygon fill="#ffffff" stroke="#000000" points="18.5,-179.5 18.5,-209.5 132.5,-209.5 132.5,-179.5 18.5,-179.5"/>
<text text-anchor="start" x="26.5" y="-197.5" font-family="Helvetica,sans-Serif" font-size="10.00" fill="#000000">amr_wind::Factory&lt;</text>
<text text-anchor="middle" x="75.5" y="-186.5" font-family="Helvetica,sans-Serif" font-size="10.00" fill="#000000"> Base, Args &gt;</text>
</a>
</g>
</g>
<!-- Node2&#45;&gt;Node1 -->
<g id="edge2" class="edge">
<title>Node2&#45;&gt;Node1</title>
<path fill="none" stroke="#ffa500" stroke-dasharray="5,2" d="M75.5,-169.1769C75.5,-150.9145 75.5,-126.5763 75.5,-109.5233"/>
<polygon fill="#ffa500" stroke="#ffa500" points="72.0001,-169.3844 75.5,-179.3844 79.0001,-169.3845 72.0001,-169.3844"/>
<text text-anchor="start" x="75.5" y="-153" font-family="Helvetica,sans-Serif" font-size="10.00" fill="#000000"> &lt; FieldTimeAverage,</text>
<text text-anchor="start" x="75.5" y="-142" font-family="Helvetica,sans-Serif" font-size="10.00" fill="#000000"> CFDSim &amp;, const std</text>
<text text-anchor="middle" x="128" y="-131" font-family="Helvetica,sans-Serif" font-size="10.00" fill="#000000">::string &amp;&gt;</text>
</g>
</g>
</svg>
