<?xml version="1.0" encoding="UTF-8" standalone="no"?>
<!DOCTYPE svg PUBLIC "-//W3C//DTD SVG 1.1//EN"
 "http://www.w3.org/Graphics/SVG/1.1/DTD/svg11.dtd">
<!-- Generated by graphviz version 2.40.1 (20161225.0304)
 -->
<!-- Title: amr_wind::RefinementCriteria Pages: 1 -->
<svg width="198pt" height="196pt"
 viewBox="0.00 0.00 198.00 196.00" xmlns="http://www.w3.org/2000/svg" xmlns:xlink="http://www.w3.org/1999/xlink">
<g id="graph0" class="graph" transform="scale(1 1) rotate(0) translate(4 192)">
<title>amr_wind::RefinementCriteria</title>
<polygon fill="#ffffff" stroke="transparent" points="-4,4 -4,-192 194,-192 194,4 -4,4"/>
<!-- Node3 -->
<g id="node1" class="node">
<title>Node3</title>
<polygon fill="#bfbfbf" stroke="#000000" points="0,-.5 0,-19.5 162,-19.5 162,-.5 0,-.5"/>
<text text-anchor="middle" x="81" y="-7.5" font-family="Helvetica,sans-Serif" font-size="10.00" fill="#000000">amr_wind::RefinementCriteria</text>
</g>
<!-- Node4 -->
<g id="node2" class="node">
<title>Node4</title>
<g id="a_node2"><a xlink:href="structamr__wind_1_1_factory.html" target="_top" xlink:title="amr_wind::Factory\&lt;\l RefinementCriteria,\l CFDSim &amp;\&gt;">
<polygon fill="#ffffff" stroke="#000000" points="24,-57.5 24,-98.5 138,-98.5 138,-57.5 24,-57.5"/>
<text text-anchor="start" x="32" y="-86.5" font-family="Helvetica,sans-Serif" font-size="10.00" fill="#000000">amr_wind::Factory&lt;</text>
<text text-anchor="start" x="32" y="-75.5" font-family="Helvetica,sans-Serif" font-size="10.00" fill="#000000"> RefinementCriteria,</text>
<text text-anchor="middle" x="81" y="-64.5" font-family="Helvetica,sans-Serif" font-size="10.00" fill="#000000"> CFDSim &amp;&gt;</text>
</a>
</g>
</g>
<!-- Node4&#45;&gt;Node3 -->
<g id="edge1" class="edge">
<title>Node4&#45;&gt;Node3</title>
<path fill="none" stroke="#191970" d="M81,-47.1423C81,-37.1999 81,-26.896 81,-19.6705"/>
<polygon fill="#191970" stroke="#191970" points="77.5001,-47.2282 81,-57.2283 84.5001,-47.2283 77.5001,-47.2282"/>
</g>
<!-- Node5 -->
<g id="node3" class="node">
<title>Node5</title>
<g id="a_node3"><a xlink:href="structamr__wind_1_1_factory.html" target="_top" xlink:title="Runtime selection of options based on string keyword lookupFactory provides an automated way to regis...">
<polygon fill="#ffffff" stroke="#000000" points="24,-157.5 24,-187.5 138,-187.5 138,-157.5 24,-157.5"/>
<text text-anchor="start" x="32" y="-175.5" font-family="Helvetica,sans-Serif" font-size="10.00" fill="#000000">amr_wind::Factory&lt;</text>
<text text-anchor="middle" x="81" y="-164.5" font-family="Helvetica,sans-Serif" font-size="10.00" fill="#000000"> Base, Args &gt;</text>
</a>
</g>
</g>
<!-- Node5&#45;&gt;Node4 -->
<g id="edge2" class="edge">
<title>Node5&#45;&gt;Node4</title>
<path fill="none" stroke="#ffa500" stroke-dasharray="5,2" d="M81,-147.1013C81,-131.9736 81,-113.0135 81,-98.7823"/>
<polygon fill="#ffa500" stroke="#ffa500" points="77.5001,-147.3169 81,-157.3169 84.5001,-147.317 77.5001,-147.3169"/>
<text text-anchor="start" x="81" y="-131" font-family="Helvetica,sans-Serif" font-size="10.00" fill="#000000"> &lt; RefinementCriteria,</text>
<text text-anchor="middle" x="135.5" y="-120" font-family="Helvetica,sans-Serif" font-size="10.00" fill="#000000"> CFDSim &amp;&gt;</text>
</g>
</g>
</svg>
