<?xml version="1.0" encoding="UTF-8" standalone="no"?>
<!DOCTYPE svg PUBLIC "-//W3C//DTD SVG 1.1//EN"
 "http://www.w3.org/Graphics/SVG/1.1/DTD/svg11.dtd">
<!-- Generated by graphviz version 2.40.1 (20161225.0304)
 -->
<!-- Title: amr_wind::channel_flow::ChannelFlow Pages: 1 -->
<svg width="465pt" height="362pt"
 viewBox="0.00 0.00 464.50 362.00" xmlns="http://www.w3.org/2000/svg" xmlns:xlink="http://www.w3.org/1999/xlink">
<g id="graph0" class="graph" transform="scale(1 1) rotate(0) translate(4 358)">
<title>amr_wind::channel_flow::ChannelFlow</title>
<polygon fill="#ffffff" stroke="transparent" points="-4,4 -4,-358 460.5,-358 460.5,4 -4,4"/>
<!-- Node2 -->
<g id="node1" class="node">
<title>Node2</title>
<polygon fill="#bfbfbf" stroke="#000000" points="115.5,-.5 115.5,-30.5 249.5,-30.5 249.5,-.5 115.5,-.5"/>
<text text-anchor="start" x="123.5" y="-18.5" font-family="Helvetica,sans-Serif" font-size="10.00" fill="#000000">amr_wind::channel_flow</text>
<text text-anchor="middle" x="182.5" y="-7.5" font-family="Helvetica,sans-Serif" font-size="10.00" fill="#000000">::ChannelFlow</text>
</g>
<!-- Node3 -->
<g id="node2" class="node">
<title>Node3</title>
<polygon fill="#ffffff" stroke="#bfbfbf" points="0,-78.5 0,-108.5 107,-108.5 107,-78.5 0,-78.5"/>
<text text-anchor="start" x="8" y="-96.5" font-family="Helvetica,sans-Serif" font-size="10.00" fill="#000000">Physics::Register&lt;</text>
<text text-anchor="middle" x="53.5" y="-85.5" font-family="Helvetica,sans-Serif" font-size="10.00" fill="#000000"> ChannelFlow &gt;</text>
</g>
<!-- Node3&#45;&gt;Node2 -->
<g id="edge1" class="edge">
<title>Node3&#45;&gt;Node2</title>
<path fill="none" stroke="#191970" d="M87.0502,-73.2139C108.9994,-59.9423 137.216,-42.881 157.2637,-30.7592"/>
<polygon fill="#191970" stroke="#191970" points="85.1188,-70.2915 78.3725,-78.4608 88.7408,-76.2816 85.1188,-70.2915"/>
</g>
<!-- Node4 -->
<g id="node3" class="node">
<title>Node4</title>
<g id="a_node3"><a xlink:href="classamr__wind_1_1_sim_time.html" target="_top" xlink:title="Time manager for simulations. ">
<polygon fill="#ffffff" stroke="#000000" points="125.5,-84 125.5,-103 239.5,-103 239.5,-84 125.5,-84"/>
<text text-anchor="middle" x="182.5" y="-91" font-family="Helvetica,sans-Serif" font-size="10.00" fill="#000000">amr_wind::SimTime</text>
</a>
</g>
</g>
<!-- Node4&#45;&gt;Node2 -->
<g id="edge2" class="edge">
<title>Node4&#45;&gt;Node2</title>
<path fill="none" stroke="#9a32cd" stroke-dasharray="5,2" d="M182.5,-73.8751C182.5,-60.5215 182.5,-43.1052 182.5,-30.7824"/>
<polygon fill="#9a32cd" stroke="#9a32cd" points="179.0001,-73.9356 182.5,-83.9357 186.0001,-73.9357 179.0001,-73.9356"/>
<text text-anchor="middle" x="203" y="-52" font-family="Helvetica,sans-Serif" font-size="10.00" fill="#000000"> m_time</text>
</g>
<!-- Node5 -->
<g id="node4" class="node">
<title>Node5</title>
<g id="a_node4"><a xlink:href="classamr__wind_1_1_field_repo.html" target="_top" xlink:title="Field RepositoryFieldRepo is a database that manages handling of fields used during a simulation...">
<polygon fill="#ffffff" stroke="#000000" points="258,-84 258,-103 375,-103 375,-84 258,-84"/>
<text text-anchor="middle" x="316.5" y="-91" font-family="Helvetica,sans-Serif" font-size="10.00" fill="#000000">amr_wind::FieldRepo</text>
</a>
</g>
</g>
<!-- Node5&#45;&gt;Node2 -->
<g id="edge3" class="edge">
<title>Node5&#45;&gt;Node2</title>
<path fill="none" stroke="#9a32cd" stroke-dasharray="5,2" d="M291.3152,-78.8402C267.6613,-65.0715 232.4227,-44.5595 208.5054,-30.6375"/>
<polygon fill="#9a32cd" stroke="#9a32cd" points="289.6657,-81.9298 300.069,-83.9357 293.1873,-75.8801 289.6657,-81.9298"/>
<text text-anchor="middle" x="278.5" y="-52" font-family="Helvetica,sans-Serif" font-size="10.00" fill="#000000"> m_repo</text>
</g>
<!-- Node6 -->
<g id="node5" class="node">
<title>Node6</title>
<polygon fill="#ffffff" stroke="#bfbfbf" points="255.5,-167.5 255.5,-197.5 377.5,-197.5 377.5,-167.5 255.5,-167.5"/>
<text text-anchor="start" x="263.5" y="-185.5" font-family="Helvetica,sans-Serif" font-size="10.00" fill="#000000">std::unordered_map</text>
<text text-anchor="middle" x="316.5" y="-174.5" font-family="Helvetica,sans-Serif" font-size="10.00" fill="#000000">&lt; std::string, size_t &gt;</text>
</g>
<!-- Node6&#45;&gt;Node5 -->
<g id="edge4" class="edge">
<title>Node6&#45;&gt;Node5</title>
<path fill="none" stroke="#9a32cd" stroke-dasharray="5,2" d="M316.5,-157.321C316.5,-139.4221 316.5,-116.3481 316.5,-103.4182"/>
<polygon fill="#9a32cd" stroke="#9a32cd" points="313.0001,-157.4023 316.5,-167.4024 320.0001,-157.4024 313.0001,-157.4023"/>
<text text-anchor="middle" x="353" y="-141" font-family="Helvetica,sans-Serif" font-size="10.00" fill="#000000"> m_fid_map</text>
<text text-anchor="middle" x="353" y="-130" font-family="Helvetica,sans-Serif" font-size="10.00" fill="#000000">m_int_fid_map</text>
</g>
<!-- Node7 -->
<g id="node6" class="node">
<title>Node7</title>
<g id="a_node6"><a xlink:title="STL class. ">
<polygon fill="#ffffff" stroke="#bfbfbf" points="230,-251 230,-270 295,-270 295,-251 230,-251"/>
<text text-anchor="middle" x="262.5" y="-258" font-family="Helvetica,sans-Serif" font-size="10.00" fill="#000000">std::string</text>
</a>
</g>
</g>
<!-- Node7&#45;&gt;Node6 -->
<g id="edge5" class="edge">
<title>Node7&#45;&gt;Node6</title>
<path fill="none" stroke="#9a32cd" stroke-dasharray="5,2" d="M274.991,-242.4575C284.361,-228.923 297.0474,-210.5981 305.9199,-197.7824"/>
<polygon fill="#9a32cd" stroke="#9a32cd" points="271.9359,-240.7215 269.1215,-250.9357 277.6913,-244.706 271.9359,-240.7215"/>
<text text-anchor="middle" x="307" y="-219" font-family="Helvetica,sans-Serif" font-size="10.00" fill="#000000"> keys</text>
</g>
<!-- Node8 -->
<g id="node7" class="node">
<title>Node8</title>
<g id="a_node7"><a xlink:title="STL class. ">
<polygon fill="#ffffff" stroke="#bfbfbf" points="210.5,-323.5 210.5,-353.5 314.5,-353.5 314.5,-323.5 210.5,-323.5"/>
<text text-anchor="start" x="218.5" y="-341.5" font-family="Helvetica,sans-Serif" font-size="10.00" fill="#000000">std::basic_string&lt;</text>
<text text-anchor="middle" x="262.5" y="-330.5" font-family="Helvetica,sans-Serif" font-size="10.00" fill="#000000"> char &gt;</text>
</a>
</g>
</g>
<!-- Node8&#45;&gt;Node7 -->
<g id="edge6" class="edge">
<title>Node8&#45;&gt;Node7</title>
<path fill="none" stroke="#191970" d="M262.5,-313.3962C262.5,-298.6331 262.5,-280.8138 262.5,-270.0839"/>
<polygon fill="#191970" stroke="#191970" points="259.0001,-313.4608 262.5,-323.4608 266.0001,-313.4609 259.0001,-313.4608"/>
</g>
<!-- Node9 -->
<g id="node8" class="node">
<title>Node9</title>
<g id="a_node8"><a xlink:title="STL class. ">
<polygon fill="#ffffff" stroke="#bfbfbf" points="313.5,-245.5 313.5,-275.5 427.5,-275.5 427.5,-245.5 313.5,-245.5"/>
<text text-anchor="start" x="321.5" y="-263.5" font-family="Helvetica,sans-Serif" font-size="10.00" fill="#000000">std::unordered_map</text>
<text text-anchor="middle" x="370.5" y="-252.5" font-family="Helvetica,sans-Serif" font-size="10.00" fill="#000000">&lt; K, T &gt;</text>
</a>
</g>
</g>
<!-- Node9&#45;&gt;Node6 -->
<g id="edge7" class="edge">
<title>Node9&#45;&gt;Node6</title>
<path fill="none" stroke="#ffa500" stroke-dasharray="5,2" d="M354.3308,-237.1445C345.5024,-224.3923 334.822,-208.9652 327.064,-197.7592"/>
<polygon fill="#ffa500" stroke="#ffa500" points="351.5184,-239.2311 360.0883,-245.4608 357.2738,-235.2466 351.5184,-239.2311"/>
<text text-anchor="middle" x="402" y="-219" font-family="Helvetica,sans-Serif" font-size="10.00" fill="#000000"> &lt; std::string, size_t &gt;</text>
</g>
<!-- Node10 -->
<g id="node9" class="node">
<title>Node10</title>
<polygon fill="#ffffff" stroke="#bfbfbf" points="344,-329 344,-348 373,-348 373,-329 344,-329"/>
<text text-anchor="middle" x="358.5" y="-336" font-family="Helvetica,sans-Serif" font-size="10.00" fill="#000000">K</text>
</g>
<!-- Node10&#45;&gt;Node9 -->
<g id="edge8" class="edge">
<title>Node10&#45;&gt;Node9</title>
<path fill="none" stroke="#9a32cd" stroke-dasharray="5,2" d="M357.7017,-318.6231C357.7151,-310.8885 358.1308,-301.983 359.5,-294 360.5555,-287.846 362.5162,-281.2777 364.4932,-275.6023"/>
<polygon fill="#9a32cd" stroke="#9a32cd" points="354.2073,-318.945 357.9057,-328.8733 361.2059,-318.8056 354.2073,-318.945"/>
<text text-anchor="middle" x="373" y="-297" font-family="Helvetica,sans-Serif" font-size="10.00" fill="#000000"> keys</text>
</g>
<!-- Node11 -->
<g id="node10" class="node">
<title>Node11</title>
<polygon fill="#ffffff" stroke="#bfbfbf" points="394,-329 394,-348 423,-348 423,-329 394,-329"/>
<text text-anchor="middle" x="408.5" y="-336" font-family="Helvetica,sans-Serif" font-size="10.00" fill="#000000">T</text>
</g>
<!-- Node11&#45;&gt;Node9 -->
<g id="edge9" class="edge">
<title>Node11&#45;&gt;Node9</title>
<path fill="none" stroke="#9a32cd" stroke-dasharray="5,2" d="M399.3271,-319.6714C392.7739,-306.2202 384.0688,-288.3517 377.9453,-275.7824"/>
<polygon fill="#9a32cd" stroke="#9a32cd" points="396.3142,-321.4787 403.8405,-328.9357 402.6072,-318.4128 396.3142,-321.4787"/>
<text text-anchor="middle" x="417" y="-297" font-family="Helvetica,sans-Serif" font-size="10.00" fill="#000000"> elements</text>
</g>
</g>
</svg>
