<?xml version="1.0" encoding="UTF-8" standalone="no"?>
<!DOCTYPE svg PUBLIC "-//W3C//DTD SVG 1.1//EN"
 "http://www.w3.org/Graphics/SVG/1.1/DTD/svg11.dtd">
<!-- Generated by graphviz version 2.40.1 (20161225.0304)
 -->
<!-- Title: amr_wind::FieldBCIface Pages: 1 -->
<svg width="500pt" height="84pt"
 viewBox="0.00 0.00 499.50 84.00" xmlns="http://www.w3.org/2000/svg" xmlns:xlink="http://www.w3.org/1999/xlink">
<g id="graph0" class="graph" transform="scale(1 1) rotate(0) translate(4 80)">
<title>amr_wind::FieldBCIface</title>
<polygon fill="#ffffff" stroke="transparent" points="-4,4 -4,-80 495.5,-80 495.5,4 -4,4"/>
<!-- Node0 -->
<g id="node1" class="node">
<title>Node0</title>
<polygon fill="#bfbfbf" stroke="#000000" points="183,-56.5 183,-75.5 314,-75.5 314,-56.5 183,-56.5"/>
<text text-anchor="middle" x="248.5" y="-63.5" font-family="Helvetica,sans-Serif" font-size="10.00" fill="#000000">amr_wind::FieldBCIface</text>
</g>
<!-- Node1 -->
<g id="node2" class="node">
<title>Node1</title>
<g id="a_node2"><a xlink:href="classamr__wind_1_1_a_b_l_temp_wall_func.html" target="_top" xlink:title="amr_wind::ABLTempWallFunc">
<polygon fill="#ffffff" stroke="#000000" points="0,-.5 0,-19.5 157,-19.5 157,-.5 0,-.5"/>
<text text-anchor="middle" x="78.5" y="-7.5" font-family="Helvetica,sans-Serif" font-size="10.00" fill="#000000">amr_wind::ABLTempWallFunc</text>
</a>
</g>
</g>
<!-- Node0&#45;&gt;Node1 -->
<g id="edge1" class="edge">
<title>Node0&#45;&gt;Node1</title>
<path fill="none" stroke="#191970" d="M209.614,-53.1905C178.4688,-42.9309 135.4777,-28.7691 107.3427,-19.5011"/>
<polygon fill="#191970" stroke="#191970" points="208.6829,-56.5687 219.276,-56.3733 210.8731,-49.9202 208.6829,-56.5687"/>
</g>
<!-- Node2 -->
<g id="node3" class="node">
<title>Node2</title>
<g id="a_node3"><a xlink:href="classamr__wind_1_1_a_b_l_vel_wall_func.html" target="_top" xlink:title="Applies a shear&#45;stress value at the domain boundary. ">
<polygon fill="#ffffff" stroke="#000000" points="175.5,-.5 175.5,-19.5 321.5,-19.5 321.5,-.5 175.5,-.5"/>
<text text-anchor="middle" x="248.5" y="-7.5" font-family="Helvetica,sans-Serif" font-size="10.00" fill="#000000">amr_wind::ABLVelWallFunc</text>
</a>
</g>
</g>
<!-- Node0&#45;&gt;Node2 -->
<g id="edge2" class="edge">
<title>Node0&#45;&gt;Node2</title>
<path fill="none" stroke="#191970" d="M248.5,-46.1575C248.5,-37.155 248.5,-26.9199 248.5,-19.6427"/>
<polygon fill="#191970" stroke="#191970" points="245.0001,-46.2455 248.5,-56.2455 252.0001,-46.2456 245.0001,-46.2455"/>
</g>
<!-- Node3 -->
<g id="node4" class="node">
<title>Node3</title>
<g id="a_node4"><a xlink:href="classamr__wind_1_1_fixed_gradient_b_c.html" target="_top" xlink:title="Applies a non&#45;zero gradient at the domain boundaryUsed with the inhomogeneous Neumann linear solver B...">
<polygon fill="#ffffff" stroke="#000000" points="339.5,-.5 339.5,-19.5 491.5,-19.5 491.5,-.5 339.5,-.5"/>
<text text-anchor="middle" x="415.5" y="-7.5" font-family="Helvetica,sans-Serif" font-size="10.00" fill="#000000">amr_wind::FixedGradientBC</text>
</a>
</g>
</g>
<!-- Node0&#45;&gt;Node3 -->
<g id="edge3" class="edge">
<title>Node0&#45;&gt;Node3</title>
<path fill="none" stroke="#191970" d="M286.6998,-53.1905C317.2954,-42.9309 359.5278,-28.7691 387.1663,-19.5011"/>
<polygon fill="#191970" stroke="#191970" points="285.5767,-49.8755 277.2083,-56.3733 287.8022,-56.5123 285.5767,-49.8755"/>
</g>
</g>
</svg>
