<?xml version="1.0" encoding="UTF-8" standalone="no"?>
<!DOCTYPE svg PUBLIC "-//W3C//DTD SVG 1.1//EN"
 "http://www.w3.org/Graphics/SVG/1.1/DTD/svg11.dtd">
<!-- Generated by graphviz version 2.40.1 (20161225.0304)
 -->
<!-- Title: amr_wind::pde::TKESource Pages: 1 -->
<svg width="189pt" height="185pt"
 viewBox="0.00 0.00 189.00 185.00" xmlns="http://www.w3.org/2000/svg" xmlns:xlink="http://www.w3.org/1999/xlink">
<g id="graph0" class="graph" transform="scale(1 1) rotate(0) translate(4 181)">
<title>amr_wind::pde::TKESource</title>
<polygon fill="#ffffff" stroke="transparent" points="-4,4 -4,-181 185,-181 185,4 -4,4"/>
<!-- Node0 -->
<g id="node1" class="node">
<title>Node0</title>
<polygon fill="#bfbfbf" stroke="#000000" points="9,-.5 9,-19.5 155,-19.5 155,-.5 9,-.5"/>
<text text-anchor="middle" x="82" y="-7.5" font-family="Helvetica,sans-Serif" font-size="10.00" fill="#000000">amr_wind::pde::TKESource</text>
</g>
<!-- Node1 -->
<g id="node2" class="node">
<title>Node1</title>
<g id="a_node2"><a xlink:href="structamr__wind_1_1_factory.html" target="_top" xlink:title="amr_wind::Factory\&lt;\l TKESource, const CFDSim &amp;\&gt;">
<polygon fill="#ffffff" stroke="#000000" points="0,-57.5 0,-87.5 164,-87.5 164,-57.5 0,-57.5"/>
<text text-anchor="start" x="8" y="-75.5" font-family="Helvetica,sans-Serif" font-size="10.00" fill="#000000">amr_wind::Factory&lt;</text>
<text text-anchor="middle" x="82" y="-64.5" font-family="Helvetica,sans-Serif" font-size="10.00" fill="#000000"> TKESource, const CFDSim &amp;&gt;</text>
</a>
</g>
</g>
<!-- Node1&#45;&gt;Node0 -->
<g id="edge1" class="edge">
<title>Node1&#45;&gt;Node0</title>
<path fill="none" stroke="#191970" d="M82,-47.3498C82,-37.6481 82,-27.1303 82,-19.7356"/>
<polygon fill="#191970" stroke="#191970" points="78.5001,-47.3705 82,-57.3705 85.5001,-47.3705 78.5001,-47.3705"/>
</g>
<!-- Node2 -->
<g id="node3" class="node">
<title>Node2</title>
<g id="a_node3"><a xlink:href="structamr__wind_1_1_factory.html" target="_top" xlink:title="Runtime selection of options based on string keyword lookupFactory provides an automated way to regis...">
<polygon fill="#ffffff" stroke="#000000" points="25,-146.5 25,-176.5 139,-176.5 139,-146.5 25,-146.5"/>
<text text-anchor="start" x="33" y="-164.5" font-family="Helvetica,sans-Serif" font-size="10.00" fill="#000000">amr_wind::Factory&lt;</text>
<text text-anchor="middle" x="82" y="-153.5" font-family="Helvetica,sans-Serif" font-size="10.00" fill="#000000"> Base, Args &gt;</text>
</a>
</g>
</g>
<!-- Node2&#45;&gt;Node1 -->
<g id="edge2" class="edge">
<title>Node2&#45;&gt;Node1</title>
<path fill="none" stroke="#ffa500" stroke-dasharray="5,2" d="M82,-136.31C82,-120.6343 82,-100.9926 82,-87.6717"/>
<polygon fill="#ffa500" stroke="#ffa500" points="78.5001,-136.4023 82,-146.4024 85.5001,-136.4024 78.5001,-136.4023"/>
<text text-anchor="start" x="82" y="-120" font-family="Helvetica,sans-Serif" font-size="10.00" fill="#000000"> &lt; TKESource, const</text>
<text text-anchor="middle" x="131.5" y="-109" font-family="Helvetica,sans-Serif" font-size="10.00" fill="#000000"> CFDSim &amp;&gt;</text>
</g>
</g>
</svg>
