<?xml version="1.0" encoding="UTF-8" standalone="no"?>
<!DOCTYPE svg PUBLIC "-//W3C//DTD SVG 1.1//EN"
 "http://www.w3.org/Graphics/SVG/1.1/DTD/svg11.dtd">
<!-- Generated by graphviz version 2.40.1 (20161225.0304)
 -->
<!-- Title: amr_wind::DerivedQtyMgr Pages: 1 -->
<svg width="350pt" height="340pt"
 viewBox="0.00 0.00 350.00 340.00" xmlns="http://www.w3.org/2000/svg" xmlns:xlink="http://www.w3.org/1999/xlink">
<g id="graph0" class="graph" transform="scale(1 1) rotate(0) translate(4 336)">
<title>amr_wind::DerivedQtyMgr</title>
<polygon fill="#ffffff" stroke="transparent" points="-4,4 -4,-336 346,-336 346,4 -4,4"/>
<!-- Node1 -->
<g id="node1" class="node">
<title>Node1</title>
<polygon fill="#bfbfbf" stroke="#000000" points="20,-.5 20,-19.5 164,-19.5 164,-.5 20,-.5"/>
<text text-anchor="middle" x="92" y="-7.5" font-family="Helvetica,sans-Serif" font-size="10.00" fill="#000000">amr_wind::DerivedQtyMgr</text>
</g>
<!-- Node2 -->
<g id="node2" class="node">
<title>Node2</title>
<polygon fill="#ffffff" stroke="#bfbfbf" points="19,-145.5 19,-175.5 133,-175.5 133,-145.5 19,-145.5"/>
<text text-anchor="start" x="27" y="-163.5" font-family="Helvetica,sans-Serif" font-size="10.00" fill="#000000">std::unordered_map</text>
<text text-anchor="middle" x="76" y="-152.5" font-family="Helvetica,sans-Serif" font-size="10.00" fill="#000000">&lt; std::string, int &gt;</text>
</g>
<!-- Node2&#45;&gt;Node1 -->
<g id="edge1" class="edge">
<title>Node2&#45;&gt;Node1</title>
<path fill="none" stroke="#9a32cd" stroke-dasharray="5,2" d="M78.6944,-135.1554C82.3063,-101.1811 88.5456,-42.4927 90.9829,-19.5671"/>
<polygon fill="#9a32cd" stroke="#9a32cd" points="75.1991,-134.927 77.6222,-145.241 82.1599,-135.6671 75.1991,-134.927"/>
<text text-anchor="middle" x="115.5" y="-74.5" font-family="Helvetica,sans-Serif" font-size="10.00" fill="#000000"> m_obj_map</text>
</g>
<!-- Node3 -->
<g id="node3" class="node">
<title>Node3</title>
<g id="a_node3"><a xlink:title="STL class. ">
<polygon fill="#ffffff" stroke="#bfbfbf" points="19.5,-229 19.5,-248 84.5,-248 84.5,-229 19.5,-229"/>
<text text-anchor="middle" x="52" y="-236" font-family="Helvetica,sans-Serif" font-size="10.00" fill="#000000">std::string</text>
</a>
</g>
</g>
<!-- Node3&#45;&gt;Node2 -->
<g id="edge2" class="edge">
<title>Node3&#45;&gt;Node2</title>
<path fill="none" stroke="#9a32cd" stroke-dasharray="5,2" d="M40.0439,-219.7087C36.4375,-211.6318 34.3036,-202.1865 38,-194 41.185,-186.9463 46.6705,-180.7835 52.4986,-175.7326"/>
<polygon fill="#9a32cd" stroke="#9a32cd" points="37.0625,-221.5546 44.8801,-228.7055 43.2281,-218.2402 37.0625,-221.5546"/>
<text text-anchor="middle" x="51.5" y="-197" font-family="Helvetica,sans-Serif" font-size="10.00" fill="#000000"> keys</text>
</g>
<!-- Node9 -->
<g id="node9" class="node">
<title>Node9</title>
<polygon fill="#ffffff" stroke="#bfbfbf" points="153,-145.5 153,-175.5 275,-175.5 275,-145.5 153,-145.5"/>
<text text-anchor="start" x="161" y="-163.5" font-family="Helvetica,sans-Serif" font-size="10.00" fill="#000000">std::unordered_map</text>
<text text-anchor="middle" x="214" y="-152.5" font-family="Helvetica,sans-Serif" font-size="10.00" fill="#000000">&lt; std::string, size_t &gt;</text>
</g>
<!-- Node3&#45;&gt;Node9 -->
<g id="edge9" class="edge">
<title>Node3&#45;&gt;Node9</title>
<path fill="none" stroke="#9a32cd" stroke-dasharray="5,2" d="M62.7497,-220.3313C69.033,-211.1821 77.7442,-200.6495 88,-194 93.8876,-190.1826 123.6336,-182.2036 152.7438,-174.9902"/>
<polygon fill="#9a32cd" stroke="#9a32cd" points="59.7559,-218.5161 57.3083,-228.8244 65.65,-222.2924 59.7559,-218.5161"/>
<text text-anchor="middle" x="101.5" y="-197" font-family="Helvetica,sans-Serif" font-size="10.00" fill="#000000"> keys</text>
</g>
<!-- Node4 -->
<g id="node4" class="node">
<title>Node4</title>
<g id="a_node4"><a xlink:title="STL class. ">
<polygon fill="#ffffff" stroke="#bfbfbf" points="0,-301.5 0,-331.5 104,-331.5 104,-301.5 0,-301.5"/>
<text text-anchor="start" x="8" y="-319.5" font-family="Helvetica,sans-Serif" font-size="10.00" fill="#000000">std::basic_string&lt;</text>
<text text-anchor="middle" x="52" y="-308.5" font-family="Helvetica,sans-Serif" font-size="10.00" fill="#000000"> char &gt;</text>
</a>
</g>
</g>
<!-- Node4&#45;&gt;Node3 -->
<g id="edge3" class="edge">
<title>Node4&#45;&gt;Node3</title>
<path fill="none" stroke="#191970" d="M52,-291.3962C52,-276.6331 52,-258.8138 52,-248.0839"/>
<polygon fill="#191970" stroke="#191970" points="48.5001,-291.4608 52,-301.4608 55.5001,-291.4609 48.5001,-291.4608"/>
</g>
<!-- Node5 -->
<g id="node5" class="node">
<title>Node5</title>
<g id="a_node5"><a xlink:title="STL class. ">
<polygon fill="#ffffff" stroke="#bfbfbf" points="146,-223.5 146,-253.5 260,-253.5 260,-223.5 146,-223.5"/>
<text text-anchor="start" x="154" y="-241.5" font-family="Helvetica,sans-Serif" font-size="10.00" fill="#000000">std::unordered_map</text>
<text text-anchor="middle" x="203" y="-230.5" font-family="Helvetica,sans-Serif" font-size="10.00" fill="#000000">&lt; K, T &gt;</text>
</a>
</g>
</g>
<!-- Node5&#45;&gt;Node2 -->
<g id="edge4" class="edge">
<title>Node5&#45;&gt;Node2</title>
<path fill="none" stroke="#ffa500" stroke-dasharray="5,2" d="M159.3987,-218.9925C150.8089,-214.6892 141.9877,-209.9327 134,-205 119.7458,-196.1975 104.7708,-184.6414 93.6082,-175.5117"/>
<polygon fill="#ffa500" stroke="#ffa500" points="158.0563,-222.2318 168.5784,-223.471 161.1256,-215.9406 158.0563,-222.2318"/>
<text text-anchor="middle" x="181" y="-197" font-family="Helvetica,sans-Serif" font-size="10.00" fill="#000000"> &lt; std::string, int &gt;</text>
</g>
<!-- Node5&#45;&gt;Node9 -->
<g id="edge10" class="edge">
<title>Node5&#45;&gt;Node9</title>
<path fill="none" stroke="#ffa500" stroke-dasharray="5,2" d="M226.5123,-215.3235C228.7367,-212.0695 230.6584,-208.5995 232,-205 235.6672,-195.1606 231.3641,-184.2268 226.048,-175.6595"/>
<polygon fill="#ffa500" stroke="#ffa500" points="223.595,-213.3686 220.1076,-223.373 229.0727,-217.7269 223.595,-213.3686"/>
<text text-anchor="middle" x="287.5" y="-197" font-family="Helvetica,sans-Serif" font-size="10.00" fill="#000000"> &lt; std::string, size_t &gt;</text>
</g>
<!-- Node6 -->
<g id="node6" class="node">
<title>Node6</title>
<polygon fill="#ffffff" stroke="#bfbfbf" points="224.5,-307 224.5,-326 253.5,-326 253.5,-307 224.5,-307"/>
<text text-anchor="middle" x="239" y="-314" font-family="Helvetica,sans-Serif" font-size="10.00" fill="#000000">K</text>
</g>
<!-- Node6&#45;&gt;Node5 -->
<g id="edge5" class="edge">
<title>Node6&#45;&gt;Node5</title>
<path fill="none" stroke="#9a32cd" stroke-dasharray="5,2" d="M230.3099,-297.6714C224.1016,-284.2202 215.8546,-266.3517 210.0534,-253.7824"/>
<polygon fill="#9a32cd" stroke="#9a32cd" points="227.2172,-299.3228 234.5857,-306.9357 233.5729,-296.3893 227.2172,-299.3228"/>
<text text-anchor="middle" x="236.5" y="-275" font-family="Helvetica,sans-Serif" font-size="10.00" fill="#000000"> keys</text>
</g>
<!-- Node7 -->
<g id="node7" class="node">
<title>Node7</title>
<polygon fill="#ffffff" stroke="#bfbfbf" points="152.5,-307 152.5,-326 181.5,-326 181.5,-307 152.5,-307"/>
<text text-anchor="middle" x="167" y="-314" font-family="Helvetica,sans-Serif" font-size="10.00" fill="#000000">T</text>
</g>
<!-- Node7&#45;&gt;Node5 -->
<g id="edge6" class="edge">
<title>Node7&#45;&gt;Node5</title>
<path fill="none" stroke="#9a32cd" stroke-dasharray="5,2" d="M162.3376,-296.8488C161.3798,-288.8271 161.543,-279.6562 165,-272 168.185,-264.9463 173.6705,-258.7835 179.4986,-253.7326"/>
<polygon fill="#9a32cd" stroke="#9a32cd" points="158.9172,-297.6038 164.1345,-306.825 165.8063,-296.3629 158.9172,-297.6038"/>
<text text-anchor="middle" x="189.5" y="-275" font-family="Helvetica,sans-Serif" font-size="10.00" fill="#000000"> elements</text>
</g>
<!-- Node8 -->
<g id="node8" class="node">
<title>Node8</title>
<g id="a_node8"><a xlink:href="classamr__wind_1_1_field_repo.html" target="_top" xlink:title="Field RepositoryFieldRepo is a database that manages handling of fields used during a simulation...">
<polygon fill="#ffffff" stroke="#000000" points="155.5,-67.5 155.5,-86.5 272.5,-86.5 272.5,-67.5 155.5,-67.5"/>
<text text-anchor="middle" x="214" y="-74.5" font-family="Helvetica,sans-Serif" font-size="10.00" fill="#000000">amr_wind::FieldRepo</text>
</a>
</g>
</g>
<!-- Node8&#45;&gt;Node1 -->
<g id="edge7" class="edge">
<title>Node8&#45;&gt;Node1</title>
<path fill="none" stroke="#9a32cd" stroke-dasharray="5,2" d="M187.7018,-62.5575C164.0286,-49.5567 129.9071,-30.8179 109.4472,-19.5817"/>
<polygon fill="#9a32cd" stroke="#9a32cd" points="186.0704,-65.6546 196.5204,-67.4005 189.44,-59.519 186.0704,-65.6546"/>
<text text-anchor="middle" x="180" y="-41" font-family="Helvetica,sans-Serif" font-size="10.00" fill="#000000"> m_repo</text>
</g>
<!-- Node9&#45;&gt;Node8 -->
<g id="edge8" class="edge">
<title>Node9&#45;&gt;Node8</title>
<path fill="none" stroke="#9a32cd" stroke-dasharray="5,2" d="M214,-135.1022C214,-118.6775 214,-98.2426 214,-86.5023"/>
<polygon fill="#9a32cd" stroke="#9a32cd" points="210.5001,-135.1848 214,-145.1848 217.5001,-135.1848 210.5001,-135.1848"/>
<text text-anchor="middle" x="250.5" y="-119" font-family="Helvetica,sans-Serif" font-size="10.00" fill="#000000"> m_fid_map</text>
<text text-anchor="middle" x="250.5" y="-108" font-family="Helvetica,sans-Serif" font-size="10.00" fill="#000000">m_int_fid_map</text>
</g>
</g>
</svg>
