<?xml version="1.0" encoding="UTF-8" standalone="no"?>
<!DOCTYPE svg PUBLIC "-//W3C//DTD SVG 1.1//EN"
 "http://www.w3.org/Graphics/SVG/1.1/DTD/svg11.dtd">
<!-- Generated by graphviz version 2.40.1 (20161225.0304)
 -->
<!-- Title: amr_wind::turbulence::Laminar&lt; Transport &gt; Pages: 1 -->
<svg width="190pt" height="332pt"
 viewBox="0.00 0.00 190.00 332.00" xmlns="http://www.w3.org/2000/svg" xmlns:xlink="http://www.w3.org/1999/xlink">
<g id="graph0" class="graph" transform="scale(1 1) rotate(0) translate(4 328)">
<title>amr_wind::turbulence::Laminar&lt; Transport &gt;</title>
<polygon fill="#ffffff" stroke="transparent" points="-4,4 -4,-328 186,-328 186,4 -4,4"/>
<!-- Node0 -->
<g id="node1" class="node">
<title>Node0</title>
<polygon fill="#bfbfbf" stroke="#000000" points="17,-.5 17,-30.5 147,-30.5 147,-.5 17,-.5"/>
<text text-anchor="start" x="25" y="-18.5" font-family="Helvetica,sans-Serif" font-size="10.00" fill="#000000">amr_wind::turbulence</text>
<text text-anchor="middle" x="82" y="-7.5" font-family="Helvetica,sans-Serif" font-size="10.00" fill="#000000">::Laminar&lt; Transport &gt;</text>
</g>
<!-- Node1 -->
<g id="node2" class="node">
<title>Node1</title>
<g id="a_node2"><a xlink:href="classamr__wind_1_1turbulence_1_1_turb_model.html" target="_top" xlink:title="Turbulence model with a specific transport modelThis templated class allows turbulence model to be sp...">
<polygon fill="#ffffff" stroke="#000000" points="12,-68.5 12,-98.5 152,-98.5 152,-68.5 12,-68.5"/>
<text text-anchor="start" x="20" y="-86.5" font-family="Helvetica,sans-Serif" font-size="10.00" fill="#000000">amr_wind::turbulence</text>
<text text-anchor="middle" x="82" y="-75.5" font-family="Helvetica,sans-Serif" font-size="10.00" fill="#000000">::TurbModel&lt; Transport &gt;</text>
</a>
</g>
</g>
<!-- Node1&#45;&gt;Node0 -->
<g id="edge1" class="edge">
<title>Node1&#45;&gt;Node0</title>
<path fill="none" stroke="#191970" d="M82,-58.1174C82,-48.8378 82,-38.6413 82,-30.5492"/>
<polygon fill="#191970" stroke="#191970" points="78.5001,-58.4086 82,-68.4086 85.5001,-58.4086 78.5001,-58.4086"/>
</g>
<!-- Node2 -->
<g id="node3" class="node">
<title>Node2</title>
<g id="a_node3"><a xlink:href="classamr__wind_1_1turbulence_1_1_turbulence_model.html" target="_top" xlink:title="Abstract representation of a turbulence modelThis class is an abstract representation of a turbulence...">
<polygon fill="#ffffff" stroke="#000000" points="21,-136.5 21,-166.5 143,-166.5 143,-136.5 21,-136.5"/>
<text text-anchor="start" x="29" y="-154.5" font-family="Helvetica,sans-Serif" font-size="10.00" fill="#000000">amr_wind::turbulence</text>
<text text-anchor="middle" x="82" y="-143.5" font-family="Helvetica,sans-Serif" font-size="10.00" fill="#000000">::TurbulenceModel</text>
</a>
</g>
</g>
<!-- Node2&#45;&gt;Node1 -->
<g id="edge2" class="edge">
<title>Node2&#45;&gt;Node1</title>
<path fill="none" stroke="#191970" d="M82,-126.1174C82,-116.8378 82,-106.6413 82,-98.5492"/>
<polygon fill="#191970" stroke="#191970" points="78.5001,-126.4086 82,-136.4086 85.5001,-126.4086 78.5001,-126.4086"/>
</g>
<!-- Node3 -->
<g id="node4" class="node">
<title>Node3</title>
<g id="a_node4"><a xlink:href="structamr__wind_1_1_factory.html" target="_top" xlink:title="amr_wind::Factory\&lt;\l TurbulenceModel, CFDSim &amp;\&gt;">
<polygon fill="#ffffff" stroke="#000000" points="0,-204.5 0,-234.5 164,-234.5 164,-204.5 0,-204.5"/>
<text text-anchor="start" x="8" y="-222.5" font-family="Helvetica,sans-Serif" font-size="10.00" fill="#000000">amr_wind::Factory&lt;</text>
<text text-anchor="middle" x="82" y="-211.5" font-family="Helvetica,sans-Serif" font-size="10.00" fill="#000000"> TurbulenceModel, CFDSim &amp;&gt;</text>
</a>
</g>
</g>
<!-- Node3&#45;&gt;Node2 -->
<g id="edge3" class="edge">
<title>Node3&#45;&gt;Node2</title>
<path fill="none" stroke="#191970" d="M82,-194.1174C82,-184.8378 82,-174.6413 82,-166.5492"/>
<polygon fill="#191970" stroke="#191970" points="78.5001,-194.4086 82,-204.4086 85.5001,-194.4086 78.5001,-194.4086"/>
</g>
<!-- Node4 -->
<g id="node5" class="node">
<title>Node4</title>
<g id="a_node5"><a xlink:href="structamr__wind_1_1_factory.html" target="_top" xlink:title="Runtime selection of options based on string keyword lookupFactory provides an automated way to regis...">
<polygon fill="#ffffff" stroke="#000000" points="25,-293.5 25,-323.5 139,-323.5 139,-293.5 25,-293.5"/>
<text text-anchor="start" x="33" y="-311.5" font-family="Helvetica,sans-Serif" font-size="10.00" fill="#000000">amr_wind::Factory&lt;</text>
<text text-anchor="middle" x="82" y="-300.5" font-family="Helvetica,sans-Serif" font-size="10.00" fill="#000000"> Base, Args &gt;</text>
</a>
</g>
</g>
<!-- Node4&#45;&gt;Node3 -->
<g id="edge4" class="edge">
<title>Node4&#45;&gt;Node3</title>
<path fill="none" stroke="#ffa500" stroke-dasharray="5,2" d="M82,-283.31C82,-267.6343 82,-247.9926 82,-234.6717"/>
<polygon fill="#ffa500" stroke="#ffa500" points="78.5001,-283.4023 82,-293.4024 85.5001,-283.4024 78.5001,-283.4023"/>
<text text-anchor="start" x="82" y="-267" font-family="Helvetica,sans-Serif" font-size="10.00" fill="#000000"> &lt; TurbulenceModel,</text>
<text text-anchor="middle" x="132" y="-256" font-family="Helvetica,sans-Serif" font-size="10.00" fill="#000000"> CFDSim &amp;&gt;</text>
</g>
</g>
</svg>
