<?xml version="1.0" encoding="UTF-8" standalone="no"?>
<!DOCTYPE svg PUBLIC "-//W3C//DTD SVG 1.1//EN"
 "http://www.w3.org/Graphics/SVG/1.1/DTD/svg11.dtd">
<!-- Generated by graphviz version 2.40.1 (20161225.0304)
 -->
<!-- Title: amr_wind::actuator::ActModel&lt; ActTrait, SrcTrait &gt; Pages: 1 -->
<svg width="141pt" height="128pt"
 viewBox="0.00 0.00 141.00 128.00" xmlns="http://www.w3.org/2000/svg" xmlns:xlink="http://www.w3.org/1999/xlink">
<g id="graph0" class="graph" transform="scale(1 1) rotate(0) translate(4 124)">
<title>amr_wind::actuator::ActModel&lt; ActTrait, SrcTrait &gt;</title>
<polygon fill="#ffffff" stroke="transparent" points="-4,4 -4,-124 137,-124 137,4 -4,4"/>
<!-- Node0 -->
<g id="node1" class="node">
<title>Node0</title>
<polygon fill="#bfbfbf" stroke="#000000" points="7,-.5 7,-41.5 126,-41.5 126,-.5 7,-.5"/>
<text text-anchor="start" x="15" y="-29.5" font-family="Helvetica,sans-Serif" font-size="10.00" fill="#000000">amr_wind::actuator</text>
<text text-anchor="start" x="15" y="-18.5" font-family="Helvetica,sans-Serif" font-size="10.00" fill="#000000">::ActModel&lt; ActTrait,</text>
<text text-anchor="middle" x="66.5" y="-7.5" font-family="Helvetica,sans-Serif" font-size="10.00" fill="#000000"> SrcTrait &gt;</text>
</g>
<!-- Node1 -->
<g id="node2" class="node">
<title>Node1</title>
<polygon fill="#ffffff" stroke="#bfbfbf" points="0,-78.5 0,-119.5 133,-119.5 133,-78.5 0,-78.5"/>
<text text-anchor="start" x="8" y="-107.5" font-family="Helvetica,sans-Serif" font-size="10.00" fill="#000000">ActuatorModel::Register</text>
<text text-anchor="start" x="8" y="-96.5" font-family="Helvetica,sans-Serif" font-size="10.00" fill="#000000">&lt; ActModel&lt; ActTrait,</text>
<text text-anchor="middle" x="66.5" y="-85.5" font-family="Helvetica,sans-Serif" font-size="10.00" fill="#000000"> SrcTrait &gt; &gt;</text>
</g>
<!-- Node1&#45;&gt;Node0 -->
<g id="edge1" class="edge">
<title>Node1&#45;&gt;Node0</title>
<path fill="none" stroke="#191970" d="M66.5,-68.0789C66.5,-59.2178 66.5,-49.7747 66.5,-41.6898"/>
<polygon fill="#191970" stroke="#191970" points="63.0001,-68.0974 66.5,-78.0974 70.0001,-68.0975 63.0001,-68.0974"/>
</g>
</g>
</svg>
