<?xml version="1.0" encoding="UTF-8" standalone="no"?>
<!DOCTYPE svg PUBLIC "-//W3C//DTD SVG 1.1//EN"
 "http://www.w3.org/Graphics/SVG/1.1/DTD/svg11.dtd">
<!-- Generated by graphviz version 2.40.1 (20161225.0304)
 -->
<!-- Title: amr_wind::turbulence::OneEqKsgs&lt; Transport &gt; Pages: 1 -->
<!--zoomable 88 -->
<svg id="main" version="1.1" xmlns="http://www.w3.org/2000/svg" xmlns:xlink="http://www.w3.org/1999/xlink" xml:space="preserve" onload="init(evt)">
<style type="text/css"><![CDATA[
.edge:hover path { stroke: red; }
.edge:hover polygon { stroke: red; fill: red; }
]]></style>
<script type="text/javascript"><![CDATA[
var edges = document.getElementsByTagName('g');
if (edges && edges.length) {
  for (var i=0;i<edges.length;i++) {
    if (edges[i].id.substr(0,4)=='edge') {
      edges[i].setAttribute('class','edge');
    }
  }
}
]]></script>
        <defs>
                <circle id="rim" cx="0" cy="0" r="7"/>
                <circle id="rim2" cx="0" cy="0" r="3.5"/>
                <g id="zoomPlus">
                        <use xlink:href="#rim" fill="#404040">
                                <set attributeName="fill" to="#808080" begin="zoomplus.mouseover" end="zoomplus.mouseout"/>
                        </use>
                        <path d="M-4,0h8M0,-4v8" fill="none" stroke="white" stroke-width="1.5" pointer-events="none"/>
                </g>
                <g id="zoomMin">
                        <use xlink:href="#rim" fill="#404040">
                                <set attributeName="fill" to="#808080" begin="zoomminus.mouseover" end="zoomminus.mouseout"/>
                        </use>
                        <path d="M-4,0h8" fill="none" stroke="white" stroke-width="1.5" pointer-events="none"/>
                </g>
                <g id="dirArrow">
                        <path fill="none" stroke="white" stroke-width="1.5" d="M0,-3.0v7 M-2.5,-0.5L0,-3.0L2.5,-0.5"/>
                </g>
               <g id="resetDef">
                       <use xlink:href="#rim2" fill="#404040">
                               <set attributeName="fill" to="#808080" begin="reset.mouseover" end="reset.mouseout"/>
                       </use>
               </g>
        </defs>

<script type="text/javascript">
var viewWidth = 1343;
var viewHeight = 88;
var sectionId = 'dynsection-0';
</script>
<script xlink:href="svgpan.js"/>
<svg id="graph" class="graph">
<g id="viewport">
<title>amr_wind::turbulence::OneEqKsgs&lt; Transport &gt;</title>
<polygon fill="#ffffff" stroke="transparent" points="-4,4 -4,-84 1339,-84 1339,4 -4,4"/>
<!-- Node0 -->
<g id="node1" class="node">
<title>Node0</title>
<polygon fill="#bfbfbf" stroke="#000000" points="988,-24.5 988,-54.5 1133,-54.5 1133,-24.5 988,-24.5"/>
<text text-anchor="start" x="996" y="-42.5" font-family="Helvetica,sans-Serif" font-size="10.00" fill="#000000">amr_wind::turbulence</text>
<text text-anchor="middle" x="1060.5" y="-31.5" font-family="Helvetica,sans-Serif" font-size="10.00" fill="#000000">::OneEqKsgs&lt; Transport &gt;</text>
</g>
<!-- Node6 -->
<g id="node7" class="node">
<title>Node6</title>
<g id="a_node7"><a xlink:href="classamr__wind_1_1turbulence_1_1_one_eq_ksgs_m84.html" target="_top" xlink:title="1&#45;equation subgrid scale TKE turbulence modelImplements the model described in Moeng 1984 paper ...">
<polygon fill="#ffffff" stroke="#000000" points="1170,-49.5 1170,-79.5 1335,-79.5 1335,-49.5 1170,-49.5"/>
<text text-anchor="start" x="1178" y="-67.5" font-family="Helvetica,sans-Serif" font-size="10.00" fill="#000000">amr_wind::turbulence</text>
<text text-anchor="middle" x="1252.5" y="-56.5" font-family="Helvetica,sans-Serif" font-size="10.00" fill="#000000">::OneEqKsgsM84&lt; Transport &gt;</text>
</a>
</g>
</g>
<!-- Node0&#45;&gt;Node6 -->
<g id="edge6" class="edge">
<title>Node0&#45;&gt;Node6</title>
<path fill="none" stroke="#191970" d="M1143.0305,-50.2462C1151.9115,-51.4025 1160.9494,-52.5793 1169.8319,-53.7359"/>
<polygon fill="#191970" stroke="#191970" points="1143.4552,-46.772 1133.087,-48.9514 1142.5513,-53.7134 1143.4552,-46.772"/>
</g>
<!-- Node7 -->
<g id="node8" class="node">
<title>Node7</title>
<g id="a_node8"><a xlink:href="classamr__wind_1_1turbulence_1_1_one_eq_ksgs_s94.html" target="_top" xlink:title="1&#45;equation subgrid scale TKE turbulence modelImplements the model described in Sullivan 1994 paper ...">
<polygon fill="#ffffff" stroke="#000000" points="1171,-.5 1171,-30.5 1334,-30.5 1334,-.5 1171,-.5"/>
<text text-anchor="start" x="1179" y="-18.5" font-family="Helvetica,sans-Serif" font-size="10.00" fill="#000000">amr_wind::turbulence</text>
<text text-anchor="middle" x="1252.5" y="-7.5" font-family="Helvetica,sans-Serif" font-size="10.00" fill="#000000">::OneEqKsgsS94&lt; Transport &gt;</text>
</a>
</g>
</g>
<!-- Node0&#45;&gt;Node7 -->
<g id="edge7" class="edge">
<title>Node0&#45;&gt;Node7</title>
<path fill="none" stroke="#191970" d="M1143.2968,-29.1504C1152.4167,-28.0104 1161.6987,-26.8502 1170.805,-25.7119"/>
<polygon fill="#191970" stroke="#191970" points="1142.5756,-25.7132 1133.087,-30.4266 1143.4439,-32.6592 1142.5756,-25.7132"/>
</g>
<!-- Node1 -->
<g id="node2" class="node">
<title>Node1</title>
<g id="a_node2"><a xlink:href="classamr__wind_1_1turbulence_1_1_turb_model_base.html" target="_top" xlink:title="Turbulence model aspects common to both LES and RANS modelsThis class implements more of the common m...">
<polygon fill="#ffffff" stroke="#000000" points="787,-24.5 787,-54.5 951,-54.5 951,-24.5 787,-24.5"/>
<text text-anchor="start" x="795" y="-42.5" font-family="Helvetica,sans-Serif" font-size="10.00" fill="#000000">amr_wind::turbulence</text>
<text text-anchor="middle" x="869" y="-31.5" font-family="Helvetica,sans-Serif" font-size="10.00" fill="#000000">::TurbModelBase&lt; Transport &gt;</text>
</a>
</g>
</g>
<!-- Node1&#45;&gt;Node0 -->
<g id="edge1" class="edge">
<title>Node1&#45;&gt;Node0</title>
<path fill="none" stroke="#191970" d="M961.1748,-39.5C970.1764,-39.5 979.2202,-39.5 987.9874,-39.5"/>
<polygon fill="#191970" stroke="#191970" points="961.0466,-36.0001 951.0466,-39.5 961.0466,-43.0001 961.0466,-36.0001"/>
</g>
<!-- Node2 -->
<g id="node3" class="node">
<title>Node2</title>
<g id="a_node3"><a xlink:href="classamr__wind_1_1turbulence_1_1_turb_model.html" target="_top" xlink:title="Turbulence model with a specific transport modelThis templated class allows turbulence model to be sp...">
<polygon fill="#ffffff" stroke="#000000" points="610,-24.5 610,-54.5 750,-54.5 750,-24.5 610,-24.5"/>
<text text-anchor="start" x="618" y="-42.5" font-family="Helvetica,sans-Serif" font-size="10.00" fill="#000000">amr_wind::turbulence</text>
<text text-anchor="middle" x="680" y="-31.5" font-family="Helvetica,sans-Serif" font-size="10.00" fill="#000000">::TurbModel&lt; Transport &gt;</text>
</a>
</g>
</g>
<!-- Node2&#45;&gt;Node1 -->
<g id="edge2" class="edge">
<title>Node2&#45;&gt;Node1</title>
<path fill="none" stroke="#191970" d="M760.3273,-39.5C769.114,-39.5 778.0679,-39.5 786.876,-39.5"/>
<polygon fill="#191970" stroke="#191970" points="760.1081,-36.0001 750.108,-39.5 760.108,-43.0001 760.1081,-36.0001"/>
</g>
<!-- Node3 -->
<g id="node4" class="node">
<title>Node3</title>
<g id="a_node4"><a xlink:href="classamr__wind_1_1turbulence_1_1_turbulence_model.html" target="_top" xlink:title="Abstract representation of a turbulence modelThis class is an abstract representation of a turbulence...">
<polygon fill="#ffffff" stroke="#000000" points="451,-24.5 451,-54.5 573,-54.5 573,-24.5 451,-24.5"/>
<text text-anchor="start" x="459" y="-42.5" font-family="Helvetica,sans-Serif" font-size="10.00" fill="#000000">amr_wind::turbulence</text>
<text text-anchor="middle" x="512" y="-31.5" font-family="Helvetica,sans-Serif" font-size="10.00" fill="#000000">::TurbulenceModel</text>
</a>
</g>
</g>
<!-- Node3&#45;&gt;Node2 -->
<g id="edge3" class="edge">
<title>Node3&#45;&gt;Node2</title>
<path fill="none" stroke="#191970" d="M583.3145,-39.5C592.0867,-39.5 601.0478,-39.5 609.8032,-39.5"/>
<polygon fill="#191970" stroke="#191970" points="583.1271,-36.0001 573.1271,-39.5 583.1271,-43.0001 583.1271,-36.0001"/>
</g>
<!-- Node4 -->
<g id="node5" class="node">
<title>Node4</title>
<g id="a_node5"><a xlink:href="structamr__wind_1_1_factory.html" target="_top" xlink:title="amr_wind::Factory\&lt;\l TurbulenceModel, CFDSim &amp;\&gt;">
<polygon fill="#ffffff" stroke="#000000" points="250,-24.5 250,-54.5 414,-54.5 414,-24.5 250,-24.5"/>
<text text-anchor="start" x="258" y="-42.5" font-family="Helvetica,sans-Serif" font-size="10.00" fill="#000000">amr_wind::Factory&lt;</text>
<text text-anchor="middle" x="332" y="-31.5" font-family="Helvetica,sans-Serif" font-size="10.00" fill="#000000"> TurbulenceModel, CFDSim &amp;&gt;</text>
</a>
</g>
</g>
<!-- Node4&#45;&gt;Node3 -->
<g id="edge4" class="edge">
<title>Node4&#45;&gt;Node3</title>
<path fill="none" stroke="#191970" d="M424.2405,-39.5C433.2288,-39.5 442.1873,-39.5 450.757,-39.5"/>
<polygon fill="#191970" stroke="#191970" points="424.0989,-36.0001 414.0989,-39.5 424.0989,-43.0001 424.0989,-36.0001"/>
</g>
<!-- Node5 -->
<g id="node6" class="node">
<title>Node5</title>
<g id="a_node6"><a xlink:href="structamr__wind_1_1_factory.html" target="_top" xlink:title="Runtime selection of options based on string keyword lookupFactory provides an automated way to regis...">
<polygon fill="#ffffff" stroke="#000000" points="0,-24.5 0,-54.5 114,-54.5 114,-24.5 0,-24.5"/>
<text text-anchor="start" x="8" y="-42.5" font-family="Helvetica,sans-Serif" font-size="10.00" fill="#000000">amr_wind::Factory&lt;</text>
<text text-anchor="middle" x="57" y="-31.5" font-family="Helvetica,sans-Serif" font-size="10.00" fill="#000000"> Base, Args &gt;</text>
</a>
</g>
</g>
<!-- Node5&#45;&gt;Node4 -->
<g id="edge5" class="edge">
<title>Node5&#45;&gt;Node4</title>
<path fill="none" stroke="#ffa500" stroke-dasharray="5,2" d="M124.7227,-39.5C162.5781,-39.5 210.0344,-39.5 249.983,-39.5"/>
<polygon fill="#ffa500" stroke="#ffa500" points="124.3143,-36.0001 114.3143,-39.5 124.3142,-43.0001 124.3143,-36.0001"/>
<text text-anchor="start" x="132" y="-53.5" font-family="Helvetica,sans-Serif" font-size="10.00" fill="#000000"> &lt; TurbulenceModel,</text>
<text text-anchor="middle" x="182" y="-42.5" font-family="Helvetica,sans-Serif" font-size="10.00" fill="#000000"> CFDSim &amp;&gt;</text>
</g>
</g>
</svg>
        <g id="navigator" transform="translate(0 0)" fill="#404254">
                <rect fill="#f2f5e9" fill-opacity="0.5" stroke="#606060" stroke-width=".5" x="0" y="0" width="60" height="60"/>
                <use id="zoomplus" xlink:href="#zoomPlus" x="17" y="9" onmousedown="handleZoom(evt,'in')"/>
                <use id="zoomminus" xlink:href="#zoomMin" x="42" y="9" onmousedown="handleZoom(evt,'out')"/>
                <use id="reset" xlink:href="#resetDef" x="30" y="36" onmousedown="handleReset()"/>
                <g id="arrowUp" xlink:href="#dirArrow" transform="translate(30 24)" onmousedown="handlePan(0,-1)">
                  <use xlink:href="#rim" fill="#404040">
                        <set attributeName="fill" to="#808080" begin="arrowUp.mouseover" end="arrowUp.mouseout"/>
                  </use>
                  <path fill="none" stroke="white" stroke-width="1.5" d="M0,-3.0v7 M-2.5,-0.5L0,-3.0L2.5,-0.5"/>
                </g>
                <g id="arrowRight" xlink:href="#dirArrow" transform="rotate(90) translate(36 -43)" onmousedown="handlePan(1,0)">
                  <use xlink:href="#rim" fill="#404040">
                        <set attributeName="fill" to="#808080" begin="arrowRight.mouseover" end="arrowRight.mouseout"/>
                  </use>
                  <path fill="none" stroke="white" stroke-width="1.5" d="M0,-3.0v7 M-2.5,-0.5L0,-3.0L2.5,-0.5"/>
                </g>
                <g id="arrowDown" xlink:href="#dirArrow" transform="rotate(180) translate(-30 -48)" onmousedown="handlePan(0,1)">
                  <use xlink:href="#rim" fill="#404040">
                        <set attributeName="fill" to="#808080" begin="arrowDown.mouseover" end="arrowDown.mouseout"/>
                  </use>
                  <path fill="none" stroke="white" stroke-width="1.5" d="M0,-3.0v7 M-2.5,-0.5L0,-3.0L2.5,-0.5"/>
                </g>
                <g id="arrowLeft" xlink:href="#dirArrow" transform="rotate(270) translate(-36 17)" onmousedown="handlePan(-1,0)">
                  <use xlink:href="#rim" fill="#404040">
                        <set attributeName="fill" to="#808080" begin="arrowLeft.mouseover" end="arrowLeft.mouseout"/>
                  </use>
                  <path fill="none" stroke="white" stroke-width="1.5" d="M0,-3.0v7 M-2.5,-0.5L0,-3.0L2.5,-0.5"/>
                </g>
        </g>
        <svg viewBox="0 0 15 15" width="100%" height="30px" preserveAspectRatio="xMaxYMin meet">
         <g id="arrow_out" transform="scale(0.3 0.3)">
          <a xlink:href="classamr__wind_1_1turbulence_1_1_one_eq_ksgs__inherit__graph_org.svg" target="_base">
           <rect id="button" ry="5" rx="5" y="6" x="6" height="38" width="38"
                fill="#f2f5e9" fill-opacity="0.5" stroke="#606060" stroke-width="1.0"/>
           <path id="arrow"
             d="M 11.500037,31.436501 C 11.940474,20.09759 22.043105,11.32322 32.158766,21.979434 L 37.068811,17.246167 C 37.068811,17.246167 37.088388,32 37.088388,32 L 22.160133,31.978069 C 22.160133,31.978069 26.997745,27.140456 26.997745,27.140456 C 18.528582,18.264221 13.291696,25.230495 11.500037,31.436501 z"
             style="fill:#404040;"/>
          </a>
         </g>
        </svg>
</svg>
