<?xml version="1.0" encoding="UTF-8" standalone="no"?>
<!DOCTYPE svg PUBLIC "-//W3C//DTD SVG 1.1//EN"
 "http://www.w3.org/Graphics/SVG/1.1/DTD/svg11.dtd">
<!-- Generated by graphviz version 2.40.1 (20161225.0304)
 -->
<!-- Title: amr_wind::pde::tke::KwSSTSrc Pages: 1 -->
<svg width="266pt" height="440pt"
 viewBox="0.00 0.00 266.00 440.00" xmlns="http://www.w3.org/2000/svg" xmlns:xlink="http://www.w3.org/1999/xlink">
<g id="graph0" class="graph" transform="scale(1 1) rotate(0) translate(4 436)">
<title>amr_wind::pde::tke::KwSSTSrc</title>
<polygon fill="#ffffff" stroke="transparent" points="-4,4 -4,-436 262,-436 262,4 -4,4"/>
<!-- Node2 -->
<g id="node1" class="node">
<title>Node2</title>
<polygon fill="#bfbfbf" stroke="#000000" points="34,-.5 34,-30.5 144,-30.5 144,-.5 34,-.5"/>
<text text-anchor="start" x="42" y="-18.5" font-family="Helvetica,sans-Serif" font-size="10.00" fill="#000000">amr_wind::pde::tke</text>
<text text-anchor="middle" x="89" y="-7.5" font-family="Helvetica,sans-Serif" font-size="10.00" fill="#000000">::KwSSTSrc</text>
</g>
<!-- Node3 -->
<g id="node2" class="node">
<title>Node3</title>
<polygon fill="#ffffff" stroke="#bfbfbf" points="16,-89.5 16,-119.5 130,-119.5 130,-89.5 16,-89.5"/>
<text text-anchor="start" x="24" y="-107.5" font-family="Helvetica,sans-Serif" font-size="10.00" fill="#000000">TKESource::Register</text>
<text text-anchor="middle" x="73" y="-96.5" font-family="Helvetica,sans-Serif" font-size="10.00" fill="#000000">&lt; KwSSTSrc &gt;</text>
</g>
<!-- Node3&#45;&gt;Node2 -->
<g id="edge1" class="edge">
<title>Node3&#45;&gt;Node2</title>
<path fill="none" stroke="#191970" d="M77.5285,-79.31C80.3466,-63.6343 83.8777,-43.9926 86.2725,-30.6717"/>
<polygon fill="#191970" stroke="#191970" points="74.0389,-78.9408 75.7142,-89.4024 80.9284,-80.1795 74.0389,-78.9408"/>
</g>
<!-- Node4 -->
<g id="node3" class="node">
<title>Node4</title>
<g id="a_node3"><a xlink:href="classamr__wind_1_1_field.html" target="_top" xlink:title="Computational fieldThis is an abstraction of a collection of MultiFabs over multiple levels...">
<polygon fill="#ffffff" stroke="#000000" points="148.5,-95 148.5,-114 241.5,-114 241.5,-95 148.5,-95"/>
<text text-anchor="middle" x="195" y="-102" font-family="Helvetica,sans-Serif" font-size="10.00" fill="#000000">amr_wind::Field</text>
</a>
</g>
</g>
<!-- Node4&#45;&gt;Node2 -->
<g id="edge2" class="edge">
<title>Node4&#45;&gt;Node2</title>
<path fill="none" stroke="#9a32cd" stroke-dasharray="5,2" d="M175.9843,-88.534C156.4067,-72.0962 126.1301,-46.6753 106.9515,-30.5725"/>
<polygon fill="#9a32cd" stroke="#9a32cd" points="173.7471,-91.2257 183.6561,-94.9754 178.2482,-85.8647 173.7471,-91.2257"/>
<text text-anchor="middle" x="190" y="-63" font-family="Helvetica,sans-Serif" font-size="10.00" fill="#000000"> m_diss</text>
<text text-anchor="middle" x="190" y="-52" font-family="Helvetica,sans-Serif" font-size="10.00" fill="#000000">m_shear_prod</text>
</g>
<!-- Node5 -->
<g id="node4" class="node">
<title>Node5</title>
<g id="a_node4"><a xlink:title="STL class. ">
<polygon fill="#ffffff" stroke="#bfbfbf" points="169.5,-329 169.5,-348 234.5,-348 234.5,-329 169.5,-329"/>
<text text-anchor="middle" x="202" y="-336" font-family="Helvetica,sans-Serif" font-size="10.00" fill="#000000">std::string</text>
</a>
</g>
</g>
<!-- Node5&#45;&gt;Node4 -->
<g id="edge3" class="edge">
<title>Node5&#45;&gt;Node4</title>
<path fill="none" stroke="#9a32cd" stroke-dasharray="5,2" d="M205.3147,-318.6077C205.9624,-314.1414 206.5724,-309.4172 207,-305 213.6871,-235.9198 212.4441,-218.3857 214,-149 214.1096,-144.1123 215.2472,-142.7271 214,-138 211.7143,-129.3368 206.6157,-120.5644 202.2752,-114.1706"/>
<polygon fill="#9a32cd" stroke="#9a32cd" points="201.799,-318.436 203.7093,-328.8572 208.7146,-319.5193 201.799,-318.436"/>
<text text-anchor="middle" x="235" y="-213.5" font-family="Helvetica,sans-Serif" font-size="10.00" fill="#000000"> m_name</text>
</g>
<!-- Node8 -->
<g id="node7" class="node">
<title>Node8</title>
<polygon fill="#ffffff" stroke="#bfbfbf" points="74,-245.5 74,-275.5 196,-275.5 196,-245.5 74,-245.5"/>
<text text-anchor="start" x="82" y="-263.5" font-family="Helvetica,sans-Serif" font-size="10.00" fill="#000000">std::unordered_map</text>
<text text-anchor="middle" x="135" y="-252.5" font-family="Helvetica,sans-Serif" font-size="10.00" fill="#000000">&lt; std::string, size_t &gt;</text>
</g>
<!-- Node5&#45;&gt;Node8 -->
<g id="edge7" class="edge">
<title>Node5&#45;&gt;Node8</title>
<path fill="none" stroke="#9a32cd" stroke-dasharray="5,2" d="M188.5108,-320.5488C182.1619,-312.3112 174.3781,-302.5064 167,-294 161.6246,-287.8025 155.4527,-281.2255 149.9723,-275.5552"/>
<polygon fill="#9a32cd" stroke="#9a32cd" points="185.9049,-322.9038 194.7496,-328.7367 191.4728,-318.6613 185.9049,-322.9038"/>
<text text-anchor="middle" x="189.5" y="-297" font-family="Helvetica,sans-Serif" font-size="10.00" fill="#000000"> keys</text>
</g>
<!-- Node6 -->
<g id="node5" class="node">
<title>Node6</title>
<g id="a_node5"><a xlink:title="STL class. ">
<polygon fill="#ffffff" stroke="#bfbfbf" points="150,-401.5 150,-431.5 254,-431.5 254,-401.5 150,-401.5"/>
<text text-anchor="start" x="158" y="-419.5" font-family="Helvetica,sans-Serif" font-size="10.00" fill="#000000">std::basic_string&lt;</text>
<text text-anchor="middle" x="202" y="-408.5" font-family="Helvetica,sans-Serif" font-size="10.00" fill="#000000"> char &gt;</text>
</a>
</g>
</g>
<!-- Node6&#45;&gt;Node5 -->
<g id="edge4" class="edge">
<title>Node6&#45;&gt;Node5</title>
<path fill="none" stroke="#191970" d="M202,-391.3962C202,-376.6331 202,-358.8138 202,-348.0839"/>
<polygon fill="#191970" stroke="#191970" points="198.5001,-391.4608 202,-401.4608 205.5001,-391.4609 198.5001,-391.4608"/>
</g>
<!-- Node7 -->
<g id="node6" class="node">
<title>Node7</title>
<g id="a_node6"><a xlink:href="classamr__wind_1_1_field_repo.html" target="_top" xlink:title="Field RepositoryFieldRepo is a database that manages handling of fields used during a simulation...">
<polygon fill="#ffffff" stroke="#000000" points="81.5,-167.5 81.5,-186.5 198.5,-186.5 198.5,-167.5 81.5,-167.5"/>
<text text-anchor="middle" x="140" y="-174.5" font-family="Helvetica,sans-Serif" font-size="10.00" fill="#000000">amr_wind::FieldRepo</text>
</a>
</g>
</g>
<!-- Node7&#45;&gt;Node4 -->
<g id="edge5" class="edge">
<title>Node7&#45;&gt;Node4</title>
<path fill="none" stroke="#9a32cd" stroke-dasharray="5,2" d="M153.5411,-159.1503C164.3273,-144.9322 179.0122,-125.5748 187.7,-114.1228"/>
<polygon fill="#9a32cd" stroke="#9a32cd" points="150.673,-157.14 147.4175,-167.2223 156.2499,-161.3708 150.673,-157.14"/>
<text text-anchor="middle" x="190" y="-141" font-family="Helvetica,sans-Serif" font-size="10.00" fill="#000000"> m_repo</text>
</g>
<!-- Node8&#45;&gt;Node7 -->
<g id="edge6" class="edge">
<title>Node8&#45;&gt;Node7</title>
<path fill="none" stroke="#9a32cd" stroke-dasharray="5,2" d="M134.7946,-235.3737C134.8894,-225.8477 135.2059,-214.9109 136,-205 136.4942,-198.8326 137.4709,-191.9533 138.3354,-186.5569"/>
<polygon fill="#9a32cd" stroke="#9a32cd" points="131.2946,-235.3904 134.7681,-245.3996 138.2946,-235.4089 131.2946,-235.3904"/>
<text text-anchor="middle" x="172.5" y="-219" font-family="Helvetica,sans-Serif" font-size="10.00" fill="#000000"> m_fid_map</text>
<text text-anchor="middle" x="172.5" y="-208" font-family="Helvetica,sans-Serif" font-size="10.00" fill="#000000">m_int_fid_map</text>
</g>
<!-- Node9 -->
<g id="node8" class="node">
<title>Node9</title>
<g id="a_node8"><a xlink:title="STL class. ">
<polygon fill="#ffffff" stroke="#bfbfbf" points="0,-323.5 0,-353.5 114,-353.5 114,-323.5 0,-323.5"/>
<text text-anchor="start" x="8" y="-341.5" font-family="Helvetica,sans-Serif" font-size="10.00" fill="#000000">std::unordered_map</text>
<text text-anchor="middle" x="57" y="-330.5" font-family="Helvetica,sans-Serif" font-size="10.00" fill="#000000">&lt; K, T &gt;</text>
</a>
</g>
</g>
<!-- Node9&#45;&gt;Node8 -->
<g id="edge8" class="edge">
<title>Node9&#45;&gt;Node8</title>
<path fill="none" stroke="#ffa500" stroke-dasharray="5,2" d="M49.9023,-313.1603C49.4104,-306.4738 50.272,-299.5761 54,-294 59.2439,-286.1565 66.6989,-280.1473 74.9863,-275.5439"/>
<polygon fill="#ffa500" stroke="#ffa500" points="46.4896,-313.9769 51.5718,-323.2733 53.3962,-312.8367 46.4896,-313.9769"/>
<text text-anchor="middle" x="108.5" y="-297" font-family="Helvetica,sans-Serif" font-size="10.00" fill="#000000"> &lt; std::string, size_t &gt;</text>
</g>
<!-- Node10 -->
<g id="node9" class="node">
<title>Node10</title>
<polygon fill="#ffffff" stroke="#bfbfbf" points="29.5,-407 29.5,-426 58.5,-426 58.5,-407 29.5,-407"/>
<text text-anchor="middle" x="44" y="-414" font-family="Helvetica,sans-Serif" font-size="10.00" fill="#000000">K</text>
</g>
<!-- Node10&#45;&gt;Node9 -->
<g id="edge9" class="edge">
<title>Node10&#45;&gt;Node9</title>
<path fill="none" stroke="#9a32cd" stroke-dasharray="5,2" d="M43.0903,-396.6032C43.0893,-388.8661 43.5243,-379.964 45,-372 46.1481,-365.8041 48.2863,-359.2273 50.4434,-353.5568"/>
<polygon fill="#9a32cd" stroke="#9a32cd" points="39.5973,-396.946 43.3331,-406.8604 46.5954,-396.7803 39.5973,-396.946"/>
<text text-anchor="middle" x="58.5" y="-375" font-family="Helvetica,sans-Serif" font-size="10.00" fill="#000000"> keys</text>
</g>
<!-- Node11 -->
<g id="node10" class="node">
<title>Node11</title>
<polygon fill="#ffffff" stroke="#bfbfbf" points="79.5,-407 79.5,-426 108.5,-426 108.5,-407 79.5,-407"/>
<text text-anchor="middle" x="94" y="-414" font-family="Helvetica,sans-Serif" font-size="10.00" fill="#000000">T</text>
</g>
<!-- Node11&#45;&gt;Node9 -->
<g id="edge10" class="edge">
<title>Node11&#45;&gt;Node9</title>
<path fill="none" stroke="#9a32cd" stroke-dasharray="5,2" d="M85.0685,-397.6714C78.6878,-384.2202 70.2117,-366.3517 64.2493,-353.7824"/>
<polygon fill="#9a32cd" stroke="#9a32cd" points="82.0149,-399.4007 89.4631,-406.9357 88.3394,-396.4006 82.0149,-399.4007"/>
<text text-anchor="middle" x="102.5" y="-375" font-family="Helvetica,sans-Serif" font-size="10.00" fill="#000000"> elements</text>
</g>
</g>
</svg>
