<?xml version="1.0" encoding="UTF-8" standalone="no"?>
<!DOCTYPE svg PUBLIC "-//W3C//DTD SVG 1.1//EN"
 "http://www.w3.org/Graphics/SVG/1.1/DTD/svg11.dtd">
<!-- Generated by graphviz version 2.40.1 (20161225.0304)
 -->
<!-- Title: amr_wind::FieldRepo Pages: 1 -->
<svg width="254pt" height="273pt"
 viewBox="0.00 0.00 254.00 273.00" xmlns="http://www.w3.org/2000/svg" xmlns:xlink="http://www.w3.org/1999/xlink">
<g id="graph0" class="graph" transform="scale(1 1) rotate(0) translate(4 269)">
<title>amr_wind::FieldRepo</title>
<polygon fill="#ffffff" stroke="transparent" points="-4,4 -4,-269 250,-269 250,4 -4,4"/>
<!-- Node1 -->
<g id="node1" class="node">
<title>Node1</title>
<polygon fill="#bfbfbf" stroke="#000000" points="47.5,-.5 47.5,-19.5 164.5,-19.5 164.5,-.5 47.5,-.5"/>
<text text-anchor="middle" x="106" y="-7.5" font-family="Helvetica,sans-Serif" font-size="10.00" fill="#000000">amr_wind::FieldRepo</text>
</g>
<!-- Node2 -->
<g id="node2" class="node">
<title>Node2</title>
<polygon fill="#ffffff" stroke="#bfbfbf" points="45,-78.5 45,-108.5 167,-108.5 167,-78.5 45,-78.5"/>
<text text-anchor="start" x="53" y="-96.5" font-family="Helvetica,sans-Serif" font-size="10.00" fill="#000000">std::unordered_map</text>
<text text-anchor="middle" x="106" y="-85.5" font-family="Helvetica,sans-Serif" font-size="10.00" fill="#000000">&lt; std::string, size_t &gt;</text>
</g>
<!-- Node2&#45;&gt;Node1 -->
<g id="edge1" class="edge">
<title>Node2&#45;&gt;Node1</title>
<path fill="none" stroke="#9a32cd" stroke-dasharray="5,2" d="M106,-68.1022C106,-51.6775 106,-31.2426 106,-19.5023"/>
<polygon fill="#9a32cd" stroke="#9a32cd" points="102.5001,-68.1848 106,-78.1848 109.5001,-68.1848 102.5001,-68.1848"/>
<text text-anchor="middle" x="142.5" y="-52" font-family="Helvetica,sans-Serif" font-size="10.00" fill="#000000"> m_fid_map</text>
<text text-anchor="middle" x="142.5" y="-41" font-family="Helvetica,sans-Serif" font-size="10.00" fill="#000000">m_int_fid_map</text>
</g>
<!-- Node3 -->
<g id="node3" class="node">
<title>Node3</title>
<g id="a_node3"><a xlink:title="STL class. ">
<polygon fill="#ffffff" stroke="#bfbfbf" points="19.5,-162 19.5,-181 84.5,-181 84.5,-162 19.5,-162"/>
<text text-anchor="middle" x="52" y="-169" font-family="Helvetica,sans-Serif" font-size="10.00" fill="#000000">std::string</text>
</a>
</g>
</g>
<!-- Node3&#45;&gt;Node2 -->
<g id="edge2" class="edge">
<title>Node3&#45;&gt;Node2</title>
<path fill="none" stroke="#9a32cd" stroke-dasharray="5,2" d="M64.491,-153.4575C73.861,-139.923 86.5474,-121.5981 95.4199,-108.7824"/>
<polygon fill="#9a32cd" stroke="#9a32cd" points="61.4359,-151.7215 58.6215,-161.9357 67.1913,-155.706 61.4359,-151.7215"/>
<text text-anchor="middle" x="96.5" y="-130" font-family="Helvetica,sans-Serif" font-size="10.00" fill="#000000"> keys</text>
</g>
<!-- Node4 -->
<g id="node4" class="node">
<title>Node4</title>
<g id="a_node4"><a xlink:title="STL class. ">
<polygon fill="#ffffff" stroke="#bfbfbf" points="0,-234.5 0,-264.5 104,-264.5 104,-234.5 0,-234.5"/>
<text text-anchor="start" x="8" y="-252.5" font-family="Helvetica,sans-Serif" font-size="10.00" fill="#000000">std::basic_string&lt;</text>
<text text-anchor="middle" x="52" y="-241.5" font-family="Helvetica,sans-Serif" font-size="10.00" fill="#000000"> char &gt;</text>
</a>
</g>
</g>
<!-- Node4&#45;&gt;Node3 -->
<g id="edge3" class="edge">
<title>Node4&#45;&gt;Node3</title>
<path fill="none" stroke="#191970" d="M52,-224.3962C52,-209.6331 52,-191.8138 52,-181.0839"/>
<polygon fill="#191970" stroke="#191970" points="48.5001,-224.4608 52,-234.4608 55.5001,-224.4609 48.5001,-224.4608"/>
</g>
<!-- Node5 -->
<g id="node5" class="node">
<title>Node5</title>
<g id="a_node5"><a xlink:title="STL class. ">
<polygon fill="#ffffff" stroke="#bfbfbf" points="103,-156.5 103,-186.5 217,-186.5 217,-156.5 103,-156.5"/>
<text text-anchor="start" x="111" y="-174.5" font-family="Helvetica,sans-Serif" font-size="10.00" fill="#000000">std::unordered_map</text>
<text text-anchor="middle" x="160" y="-163.5" font-family="Helvetica,sans-Serif" font-size="10.00" fill="#000000">&lt; K, T &gt;</text>
</a>
</g>
</g>
<!-- Node5&#45;&gt;Node2 -->
<g id="edge4" class="edge">
<title>Node5&#45;&gt;Node2</title>
<path fill="none" stroke="#ffa500" stroke-dasharray="5,2" d="M143.8308,-148.1445C135.0024,-135.3923 124.322,-119.9652 116.564,-108.7592"/>
<polygon fill="#ffa500" stroke="#ffa500" points="141.0184,-150.2311 149.5883,-156.4608 146.7738,-146.2466 141.0184,-150.2311"/>
<text text-anchor="middle" x="191.5" y="-130" font-family="Helvetica,sans-Serif" font-size="10.00" fill="#000000"> &lt; std::string, size_t &gt;</text>
</g>
<!-- Node6 -->
<g id="node6" class="node">
<title>Node6</title>
<polygon fill="#ffffff" stroke="#bfbfbf" points="133.5,-240 133.5,-259 162.5,-259 162.5,-240 133.5,-240"/>
<text text-anchor="middle" x="148" y="-247" font-family="Helvetica,sans-Serif" font-size="10.00" fill="#000000">K</text>
</g>
<!-- Node6&#45;&gt;Node5 -->
<g id="edge5" class="edge">
<title>Node6&#45;&gt;Node5</title>
<path fill="none" stroke="#9a32cd" stroke-dasharray="5,2" d="M147.2017,-229.6231C147.2151,-221.8885 147.6308,-212.983 149,-205 150.0555,-198.846 152.0162,-192.2777 153.9932,-186.6023"/>
<polygon fill="#9a32cd" stroke="#9a32cd" points="143.7073,-229.945 147.4057,-239.8733 150.7059,-229.8056 143.7073,-229.945"/>
<text text-anchor="middle" x="162.5" y="-208" font-family="Helvetica,sans-Serif" font-size="10.00" fill="#000000"> keys</text>
</g>
<!-- Node7 -->
<g id="node7" class="node">
<title>Node7</title>
<polygon fill="#ffffff" stroke="#bfbfbf" points="183.5,-240 183.5,-259 212.5,-259 212.5,-240 183.5,-240"/>
<text text-anchor="middle" x="198" y="-247" font-family="Helvetica,sans-Serif" font-size="10.00" fill="#000000">T</text>
</g>
<!-- Node7&#45;&gt;Node5 -->
<g id="edge6" class="edge">
<title>Node7&#45;&gt;Node5</title>
<path fill="none" stroke="#9a32cd" stroke-dasharray="5,2" d="M188.8271,-230.6714C182.2739,-217.2202 173.5688,-199.3517 167.4453,-186.7824"/>
<polygon fill="#9a32cd" stroke="#9a32cd" points="185.8142,-232.4787 193.3405,-239.9357 192.1072,-229.4128 185.8142,-232.4787"/>
<text text-anchor="middle" x="206.5" y="-208" font-family="Helvetica,sans-Serif" font-size="10.00" fill="#000000"> elements</text>
</g>
</g>
</svg>
