<?xml version="1.0" encoding="UTF-8" standalone="no"?>
<!DOCTYPE svg PUBLIC "-//W3C//DTD SVG 1.1//EN"
 "http://www.w3.org/Graphics/SVG/1.1/DTD/svg11.dtd">
<!-- Generated by graphviz version 2.40.1 (20161225.0304)
 -->
<!-- Title: amr_wind::pde::tke::KsgsM84Src Pages: 1 -->
<svg width="266pt" height="462pt"
 viewBox="0.00 0.00 266.00 462.00" xmlns="http://www.w3.org/2000/svg" xmlns:xlink="http://www.w3.org/1999/xlink">
<g id="graph0" class="graph" transform="scale(1 1) rotate(0) translate(4 458)">
<title>amr_wind::pde::tke::KsgsM84Src</title>
<polygon fill="#ffffff" stroke="transparent" points="-4,4 -4,-458 262,-458 262,4 -4,4"/>
<!-- Node2 -->
<g id="node1" class="node">
<title>Node2</title>
<polygon fill="#bfbfbf" stroke="#000000" points="34,-.5 34,-30.5 144,-30.5 144,-.5 34,-.5"/>
<text text-anchor="start" x="42" y="-18.5" font-family="Helvetica,sans-Serif" font-size="10.00" fill="#000000">amr_wind::pde::tke</text>
<text text-anchor="middle" x="89" y="-7.5" font-family="Helvetica,sans-Serif" font-size="10.00" fill="#000000">::KsgsM84Src</text>
</g>
<!-- Node3 -->
<g id="node2" class="node">
<title>Node3</title>
<polygon fill="#ffffff" stroke="#bfbfbf" points="16,-111.5 16,-141.5 130,-141.5 130,-111.5 16,-111.5"/>
<text text-anchor="start" x="24" y="-129.5" font-family="Helvetica,sans-Serif" font-size="10.00" fill="#000000">TKESource::Register</text>
<text text-anchor="middle" x="73" y="-118.5" font-family="Helvetica,sans-Serif" font-size="10.00" fill="#000000">&lt; KsgsM84Src &gt;</text>
</g>
<!-- Node3&#45;&gt;Node2 -->
<g id="edge1" class="edge">
<title>Node3&#45;&gt;Node2</title>
<path fill="none" stroke="#191970" d="M76.6865,-100.9246C79.811,-79.2488 84.1877,-48.8857 86.7942,-30.803"/>
<polygon fill="#191970" stroke="#191970" points="73.1873,-100.6688 75.2247,-111.0659 80.1157,-101.6676 73.1873,-100.6688"/>
</g>
<!-- Node4 -->
<g id="node3" class="node">
<title>Node4</title>
<g id="a_node3"><a xlink:href="classamr__wind_1_1_field.html" target="_top" xlink:title="Computational fieldThis is an abstraction of a collection of MultiFabs over multiple levels...">
<polygon fill="#ffffff" stroke="#000000" points="148.5,-117 148.5,-136 241.5,-136 241.5,-117 148.5,-117"/>
<text text-anchor="middle" x="195" y="-124" font-family="Helvetica,sans-Serif" font-size="10.00" fill="#000000">amr_wind::Field</text>
</a>
</g>
</g>
<!-- Node4&#45;&gt;Node2 -->
<g id="edge2" class="edge">
<title>Node4&#45;&gt;Node2</title>
<path fill="none" stroke="#9a32cd" stroke-dasharray="5,2" d="M178.4727,-109.1931C157.9186,-87.6694 123.1544,-51.2655 103.5599,-30.7467"/>
<polygon fill="#9a32cd" stroke="#9a32cd" points="176.1556,-111.8346 185.5932,-116.6495 181.2181,-107.0002 176.1556,-111.8346"/>
<text text-anchor="middle" x="197" y="-85" font-family="Helvetica,sans-Serif" font-size="10.00" fill="#000000"> m_turb_lscale</text>
<text text-anchor="middle" x="197" y="-74" font-family="Helvetica,sans-Serif" font-size="10.00" fill="#000000">m_tke</text>
<text text-anchor="middle" x="197" y="-63" font-family="Helvetica,sans-Serif" font-size="10.00" fill="#000000">m_shear_prod</text>
<text text-anchor="middle" x="197" y="-52" font-family="Helvetica,sans-Serif" font-size="10.00" fill="#000000">m_buoy_prod</text>
</g>
<!-- Node5 -->
<g id="node4" class="node">
<title>Node5</title>
<g id="a_node4"><a xlink:title="STL class. ">
<polygon fill="#ffffff" stroke="#bfbfbf" points="169.5,-351 169.5,-370 234.5,-370 234.5,-351 169.5,-351"/>
<text text-anchor="middle" x="202" y="-358" font-family="Helvetica,sans-Serif" font-size="10.00" fill="#000000">std::string</text>
</a>
</g>
</g>
<!-- Node5&#45;&gt;Node4 -->
<g id="edge3" class="edge">
<title>Node5&#45;&gt;Node4</title>
<path fill="none" stroke="#9a32cd" stroke-dasharray="5,2" d="M205.3147,-340.6077C205.9624,-336.1414 206.5724,-331.4172 207,-327 213.6871,-257.9198 212.4441,-240.3857 214,-171 214.1096,-166.1123 215.2472,-164.7271 214,-160 211.7143,-151.3368 206.6157,-142.5644 202.2752,-136.1706"/>
<polygon fill="#9a32cd" stroke="#9a32cd" points="201.799,-340.436 203.7093,-350.8572 208.7146,-341.5193 201.799,-340.436"/>
<text text-anchor="middle" x="235" y="-235.5" font-family="Helvetica,sans-Serif" font-size="10.00" fill="#000000"> m_name</text>
</g>
<!-- Node8 -->
<g id="node7" class="node">
<title>Node8</title>
<polygon fill="#ffffff" stroke="#bfbfbf" points="74,-267.5 74,-297.5 196,-297.5 196,-267.5 74,-267.5"/>
<text text-anchor="start" x="82" y="-285.5" font-family="Helvetica,sans-Serif" font-size="10.00" fill="#000000">std::unordered_map</text>
<text text-anchor="middle" x="135" y="-274.5" font-family="Helvetica,sans-Serif" font-size="10.00" fill="#000000">&lt; std::string, size_t &gt;</text>
</g>
<!-- Node5&#45;&gt;Node8 -->
<g id="edge7" class="edge">
<title>Node5&#45;&gt;Node8</title>
<path fill="none" stroke="#9a32cd" stroke-dasharray="5,2" d="M188.5108,-342.5488C182.1619,-334.3112 174.3781,-324.5064 167,-316 161.6246,-309.8025 155.4527,-303.2255 149.9723,-297.5552"/>
<polygon fill="#9a32cd" stroke="#9a32cd" points="185.9049,-344.9038 194.7496,-350.7367 191.4728,-340.6613 185.9049,-344.9038"/>
<text text-anchor="middle" x="189.5" y="-319" font-family="Helvetica,sans-Serif" font-size="10.00" fill="#000000"> keys</text>
</g>
<!-- Node6 -->
<g id="node5" class="node">
<title>Node6</title>
<g id="a_node5"><a xlink:title="STL class. ">
<polygon fill="#ffffff" stroke="#bfbfbf" points="150,-423.5 150,-453.5 254,-453.5 254,-423.5 150,-423.5"/>
<text text-anchor="start" x="158" y="-441.5" font-family="Helvetica,sans-Serif" font-size="10.00" fill="#000000">std::basic_string&lt;</text>
<text text-anchor="middle" x="202" y="-430.5" font-family="Helvetica,sans-Serif" font-size="10.00" fill="#000000"> char &gt;</text>
</a>
</g>
</g>
<!-- Node6&#45;&gt;Node5 -->
<g id="edge4" class="edge">
<title>Node6&#45;&gt;Node5</title>
<path fill="none" stroke="#191970" d="M202,-413.3962C202,-398.6331 202,-380.8138 202,-370.0839"/>
<polygon fill="#191970" stroke="#191970" points="198.5001,-413.4608 202,-423.4608 205.5001,-413.4609 198.5001,-413.4608"/>
</g>
<!-- Node7 -->
<g id="node6" class="node">
<title>Node7</title>
<g id="a_node6"><a xlink:href="classamr__wind_1_1_field_repo.html" target="_top" xlink:title="Field RepositoryFieldRepo is a database that manages handling of fields used during a simulation...">
<polygon fill="#ffffff" stroke="#000000" points="81.5,-189.5 81.5,-208.5 198.5,-208.5 198.5,-189.5 81.5,-189.5"/>
<text text-anchor="middle" x="140" y="-196.5" font-family="Helvetica,sans-Serif" font-size="10.00" fill="#000000">amr_wind::FieldRepo</text>
</a>
</g>
</g>
<!-- Node7&#45;&gt;Node4 -->
<g id="edge5" class="edge">
<title>Node7&#45;&gt;Node4</title>
<path fill="none" stroke="#9a32cd" stroke-dasharray="5,2" d="M153.5411,-181.1503C164.3273,-166.9322 179.0122,-147.5748 187.7,-136.1228"/>
<polygon fill="#9a32cd" stroke="#9a32cd" points="150.673,-179.14 147.4175,-189.2223 156.2499,-183.3708 150.673,-179.14"/>
<text text-anchor="middle" x="190" y="-163" font-family="Helvetica,sans-Serif" font-size="10.00" fill="#000000"> m_repo</text>
</g>
<!-- Node8&#45;&gt;Node7 -->
<g id="edge6" class="edge">
<title>Node8&#45;&gt;Node7</title>
<path fill="none" stroke="#9a32cd" stroke-dasharray="5,2" d="M134.7946,-257.3737C134.8894,-247.8477 135.2059,-236.9109 136,-227 136.4942,-220.8326 137.4709,-213.9533 138.3354,-208.5569"/>
<polygon fill="#9a32cd" stroke="#9a32cd" points="131.2946,-257.3904 134.7681,-267.3996 138.2946,-257.4089 131.2946,-257.3904"/>
<text text-anchor="middle" x="172.5" y="-241" font-family="Helvetica,sans-Serif" font-size="10.00" fill="#000000"> m_fid_map</text>
<text text-anchor="middle" x="172.5" y="-230" font-family="Helvetica,sans-Serif" font-size="10.00" fill="#000000">m_int_fid_map</text>
</g>
<!-- Node9 -->
<g id="node8" class="node">
<title>Node9</title>
<g id="a_node8"><a xlink:title="STL class. ">
<polygon fill="#ffffff" stroke="#bfbfbf" points="0,-345.5 0,-375.5 114,-375.5 114,-345.5 0,-345.5"/>
<text text-anchor="start" x="8" y="-363.5" font-family="Helvetica,sans-Serif" font-size="10.00" fill="#000000">std::unordered_map</text>
<text text-anchor="middle" x="57" y="-352.5" font-family="Helvetica,sans-Serif" font-size="10.00" fill="#000000">&lt; K, T &gt;</text>
</a>
</g>
</g>
<!-- Node9&#45;&gt;Node8 -->
<g id="edge8" class="edge">
<title>Node9&#45;&gt;Node8</title>
<path fill="none" stroke="#ffa500" stroke-dasharray="5,2" d="M49.9023,-335.1603C49.4104,-328.4738 50.272,-321.5761 54,-316 59.2439,-308.1565 66.6989,-302.1473 74.9863,-297.5439"/>
<polygon fill="#ffa500" stroke="#ffa500" points="46.4896,-335.9769 51.5718,-345.2733 53.3962,-334.8367 46.4896,-335.9769"/>
<text text-anchor="middle" x="108.5" y="-319" font-family="Helvetica,sans-Serif" font-size="10.00" fill="#000000"> &lt; std::string, size_t &gt;</text>
</g>
<!-- Node10 -->
<g id="node9" class="node">
<title>Node10</title>
<polygon fill="#ffffff" stroke="#bfbfbf" points="29.5,-429 29.5,-448 58.5,-448 58.5,-429 29.5,-429"/>
<text text-anchor="middle" x="44" y="-436" font-family="Helvetica,sans-Serif" font-size="10.00" fill="#000000">K</text>
</g>
<!-- Node10&#45;&gt;Node9 -->
<g id="edge9" class="edge">
<title>Node10&#45;&gt;Node9</title>
<path fill="none" stroke="#9a32cd" stroke-dasharray="5,2" d="M43.0903,-418.6032C43.0893,-410.8661 43.5243,-401.964 45,-394 46.1481,-387.8041 48.2863,-381.2273 50.4434,-375.5568"/>
<polygon fill="#9a32cd" stroke="#9a32cd" points="39.5973,-418.946 43.3331,-428.8604 46.5954,-418.7803 39.5973,-418.946"/>
<text text-anchor="middle" x="58.5" y="-397" font-family="Helvetica,sans-Serif" font-size="10.00" fill="#000000"> keys</text>
</g>
<!-- Node11 -->
<g id="node10" class="node">
<title>Node11</title>
<polygon fill="#ffffff" stroke="#bfbfbf" points="79.5,-429 79.5,-448 108.5,-448 108.5,-429 79.5,-429"/>
<text text-anchor="middle" x="94" y="-436" font-family="Helvetica,sans-Serif" font-size="10.00" fill="#000000">T</text>
</g>
<!-- Node11&#45;&gt;Node9 -->
<g id="edge10" class="edge">
<title>Node11&#45;&gt;Node9</title>
<path fill="none" stroke="#9a32cd" stroke-dasharray="5,2" d="M85.0685,-419.6714C78.6878,-406.2202 70.2117,-388.3517 64.2493,-375.7824"/>
<polygon fill="#9a32cd" stroke="#9a32cd" points="82.0149,-421.4007 89.4631,-428.9357 88.3394,-418.4006 82.0149,-421.4007"/>
<text text-anchor="middle" x="102.5" y="-397" font-family="Helvetica,sans-Serif" font-size="10.00" fill="#000000"> elements</text>
</g>
</g>
</svg>
