<?xml version="1.0" encoding="UTF-8" standalone="no"?>
<!DOCTYPE svg PUBLIC "-//W3C//DTD SVG 1.1//EN"
 "http://www.w3.org/Graphics/SVG/1.1/DTD/svg11.dtd">
<!-- Generated by graphviz version 2.40.1 (20161225.0304)
 -->
<!-- Title: amr_wind::pde::icns::BodyForce Pages: 1 -->
<svg width="395pt" height="185pt"
 viewBox="0.00 0.00 394.50 185.00" xmlns="http://www.w3.org/2000/svg" xmlns:xlink="http://www.w3.org/1999/xlink">
<g id="graph0" class="graph" transform="scale(1 1) rotate(0) translate(4 181)">
<title>amr_wind::pde::icns::BodyForce</title>
<polygon fill="#ffffff" stroke="transparent" points="-4,4 -4,-181 390.5,-181 390.5,4 -4,4"/>
<!-- Node2 -->
<g id="node1" class="node">
<title>Node2</title>
<polygon fill="#bfbfbf" stroke="#000000" points="169.5,-.5 169.5,-30.5 283.5,-30.5 283.5,-.5 169.5,-.5"/>
<text text-anchor="start" x="177.5" y="-18.5" font-family="Helvetica,sans-Serif" font-size="10.00" fill="#000000">amr_wind::pde::icns</text>
<text text-anchor="middle" x="226.5" y="-7.5" font-family="Helvetica,sans-Serif" font-size="10.00" fill="#000000">::BodyForce</text>
</g>
<!-- Node3 -->
<g id="node2" class="node">
<title>Node3</title>
<polygon fill="#ffffff" stroke="#bfbfbf" points="0,-78.5 0,-108.5 151,-108.5 151,-78.5 0,-78.5"/>
<text text-anchor="start" x="8" y="-96.5" font-family="Helvetica,sans-Serif" font-size="10.00" fill="#000000">MomentumSource::Register</text>
<text text-anchor="middle" x="75.5" y="-85.5" font-family="Helvetica,sans-Serif" font-size="10.00" fill="#000000">&lt; BodyForce &gt;</text>
</g>
<!-- Node3&#45;&gt;Node2 -->
<g id="edge1" class="edge">
<title>Node3&#45;&gt;Node2</title>
<path fill="none" stroke="#191970" d="M113.7788,-73.7268C139.7021,-60.336 173.4331,-42.912 197.2178,-30.6259"/>
<polygon fill="#191970" stroke="#191970" points="111.8927,-70.7617 104.6143,-78.4608 115.1053,-76.981 111.8927,-70.7617"/>
</g>
<!-- Node4 -->
<g id="node3" class="node">
<title>Node4</title>
<g id="a_node3"><a xlink:href="classamr__wind_1_1_sim_time.html" target="_top" xlink:title="Time manager for simulations. ">
<polygon fill="#ffffff" stroke="#000000" points="169.5,-84 169.5,-103 283.5,-103 283.5,-84 169.5,-84"/>
<text text-anchor="middle" x="226.5" y="-91" font-family="Helvetica,sans-Serif" font-size="10.00" fill="#000000">amr_wind::SimTime</text>
</a>
</g>
</g>
<!-- Node4&#45;&gt;Node2 -->
<g id="edge2" class="edge">
<title>Node4&#45;&gt;Node2</title>
<path fill="none" stroke="#9a32cd" stroke-dasharray="5,2" d="M226.5,-73.8751C226.5,-60.5215 226.5,-43.1052 226.5,-30.7824"/>
<polygon fill="#9a32cd" stroke="#9a32cd" points="223.0001,-73.9356 226.5,-83.9357 230.0001,-73.9357 223.0001,-73.9356"/>
<text text-anchor="middle" x="247" y="-52" font-family="Helvetica,sans-Serif" font-size="10.00" fill="#000000"> m_time</text>
</g>
<!-- Node5 -->
<g id="node4" class="node">
<title>Node5</title>
<g id="a_node4"><a xlink:title="STL class. ">
<polygon fill="#ffffff" stroke="#bfbfbf" points="302,-84 302,-103 367,-103 367,-84 302,-84"/>
<text text-anchor="middle" x="334.5" y="-91" font-family="Helvetica,sans-Serif" font-size="10.00" fill="#000000">std::string</text>
</a>
</g>
</g>
<!-- Node5&#45;&gt;Node2 -->
<g id="edge3" class="edge">
<title>Node5&#45;&gt;Node2</title>
<path fill="none" stroke="#9a32cd" stroke-dasharray="5,2" d="M312.9506,-77.9366C293.9793,-64.2351 266.5142,-44.3991 247.6602,-30.7824"/>
<polygon fill="#9a32cd" stroke="#9a32cd" points="311.101,-80.9181 321.2571,-83.9357 315.1995,-75.2433 311.101,-80.9181"/>
<text text-anchor="middle" x="306.5" y="-52" font-family="Helvetica,sans-Serif" font-size="10.00" fill="#000000"> m_type</text>
</g>
<!-- Node6 -->
<g id="node5" class="node">
<title>Node6</title>
<g id="a_node5"><a xlink:title="STL class. ">
<polygon fill="#ffffff" stroke="#bfbfbf" points="282.5,-146.5 282.5,-176.5 386.5,-176.5 386.5,-146.5 282.5,-146.5"/>
<text text-anchor="start" x="290.5" y="-164.5" font-family="Helvetica,sans-Serif" font-size="10.00" fill="#000000">std::basic_string&lt;</text>
<text text-anchor="middle" x="334.5" y="-153.5" font-family="Helvetica,sans-Serif" font-size="10.00" fill="#000000"> char &gt;</text>
</a>
</g>
</g>
<!-- Node6&#45;&gt;Node5 -->
<g id="edge4" class="edge">
<title>Node6&#45;&gt;Node5</title>
<path fill="none" stroke="#191970" d="M334.5,-136.0669C334.5,-124.6483 334.5,-111.8507 334.5,-103.297"/>
<polygon fill="#191970" stroke="#191970" points="331.0001,-136.4086 334.5,-146.4086 338.0001,-136.4086 331.0001,-136.4086"/>
</g>
</g>
</svg>
