<?xml version="1.0" encoding="UTF-8" standalone="no"?>
<!DOCTYPE svg PUBLIC "-//W3C//DTD SVG 1.1//EN"
 "http://www.w3.org/Graphics/SVG/1.1/DTD/svg11.dtd">
<!-- Generated by graphviz version 2.40.1 (20161225.0304)
 -->
<!-- Title: amr_wind::actuator::ops::ActSrcOp&lt; ActTrait, ActSrcLine &gt; Pages: 1 -->
<svg width="266pt" height="429pt"
 viewBox="0.00 0.00 265.50 429.00" xmlns="http://www.w3.org/2000/svg" xmlns:xlink="http://www.w3.org/1999/xlink">
<g id="graph0" class="graph" transform="scale(1 1) rotate(0) translate(4 425)">
<title>amr_wind::actuator::ops::ActSrcOp&lt; ActTrait, ActSrcLine &gt;</title>
<polygon fill="#ffffff" stroke="transparent" points="-4,4 -4,-425 261.5,-425 261.5,4 -4,4"/>
<!-- Node1 -->
<g id="node1" class="node">
<title>Node1</title>
<polygon fill="#bfbfbf" stroke="#000000" points="116.5,-.5 116.5,-41.5 257.5,-41.5 257.5,-.5 116.5,-.5"/>
<text text-anchor="start" x="124.5" y="-29.5" font-family="Helvetica,sans-Serif" font-size="10.00" fill="#000000">amr_wind::actuator</text>
<text text-anchor="start" x="124.5" y="-18.5" font-family="Helvetica,sans-Serif" font-size="10.00" fill="#000000">::ops::ActSrcOp&lt; ActTrait,</text>
<text text-anchor="middle" x="187" y="-7.5" font-family="Helvetica,sans-Serif" font-size="10.00" fill="#000000"> ActSrcLine &gt;</text>
</g>
<!-- Node2 -->
<g id="node2" class="node">
<title>Node2</title>
<g id="a_node2"><a xlink:href="classamr__wind_1_1_field.html" target="_top" xlink:title="Computational fieldThis is an abstraction of a collection of MultiFabs over multiple levels...">
<polygon fill="#ffffff" stroke="#000000" points="140.5,-89.5 140.5,-108.5 233.5,-108.5 233.5,-89.5 140.5,-89.5"/>
<text text-anchor="middle" x="187" y="-96.5" font-family="Helvetica,sans-Serif" font-size="10.00" fill="#000000">amr_wind::Field</text>
</a>
</g>
</g>
<!-- Node2&#45;&gt;Node1 -->
<g id="edge1" class="edge">
<title>Node2&#45;&gt;Node1</title>
<path fill="none" stroke="#9a32cd" stroke-dasharray="5,2" d="M187,-79.1881C187,-67.7521 187,-53.3843 187,-41.7873"/>
<polygon fill="#9a32cd" stroke="#9a32cd" points="183.5001,-79.4356 187,-89.4357 190.5001,-79.4357 183.5001,-79.4356"/>
<text text-anchor="middle" x="213.5" y="-63" font-family="Helvetica,sans-Serif" font-size="10.00" fill="#000000"> m_act_src</text>
</g>
<!-- Node3 -->
<g id="node3" class="node">
<title>Node3</title>
<g id="a_node3"><a xlink:title="STL class. ">
<polygon fill="#ffffff" stroke="#bfbfbf" points="169.5,-318 169.5,-337 234.5,-337 234.5,-318 169.5,-318"/>
<text text-anchor="middle" x="202" y="-325" font-family="Helvetica,sans-Serif" font-size="10.00" fill="#000000">std::string</text>
</a>
</g>
</g>
<!-- Node3&#45;&gt;Node2 -->
<g id="edge2" class="edge">
<title>Node3&#45;&gt;Node2</title>
<path fill="none" stroke="#9a32cd" stroke-dasharray="5,2" d="M205.378,-307.6136C206.0222,-303.1469 206.6148,-298.4211 207,-294 213.0193,-224.9056 210.111,-207.3504 211,-138 211.0627,-133.1115 212.6962,-131.5852 211,-127 208.4233,-120.0345 203.254,-113.6324 198.3707,-108.7134"/>
<polygon fill="#9a32cd" stroke="#9a32cd" points="201.8624,-307.438 203.7587,-317.8618 208.7766,-308.5306 201.8624,-307.438"/>
<text text-anchor="middle" x="233" y="-202.5" font-family="Helvetica,sans-Serif" font-size="10.00" fill="#000000"> m_name</text>
</g>
<!-- Node6 -->
<g id="node6" class="node">
<title>Node6</title>
<polygon fill="#ffffff" stroke="#bfbfbf" points="74,-234.5 74,-264.5 196,-264.5 196,-234.5 74,-234.5"/>
<text text-anchor="start" x="82" y="-252.5" font-family="Helvetica,sans-Serif" font-size="10.00" fill="#000000">std::unordered_map</text>
<text text-anchor="middle" x="135" y="-241.5" font-family="Helvetica,sans-Serif" font-size="10.00" fill="#000000">&lt; std::string, size_t &gt;</text>
</g>
<!-- Node3&#45;&gt;Node6 -->
<g id="edge6" class="edge">
<title>Node3&#45;&gt;Node6</title>
<path fill="none" stroke="#9a32cd" stroke-dasharray="5,2" d="M188.5108,-309.5488C182.1619,-301.3112 174.3781,-291.5064 167,-283 161.6246,-276.8025 155.4527,-270.2255 149.9723,-264.5552"/>
<polygon fill="#9a32cd" stroke="#9a32cd" points="185.9049,-311.9038 194.7496,-317.7367 191.4728,-307.6613 185.9049,-311.9038"/>
<text text-anchor="middle" x="189.5" y="-286" font-family="Helvetica,sans-Serif" font-size="10.00" fill="#000000"> keys</text>
</g>
<!-- Node4 -->
<g id="node4" class="node">
<title>Node4</title>
<g id="a_node4"><a xlink:title="STL class. ">
<polygon fill="#ffffff" stroke="#bfbfbf" points="150,-390.5 150,-420.5 254,-420.5 254,-390.5 150,-390.5"/>
<text text-anchor="start" x="158" y="-408.5" font-family="Helvetica,sans-Serif" font-size="10.00" fill="#000000">std::basic_string&lt;</text>
<text text-anchor="middle" x="202" y="-397.5" font-family="Helvetica,sans-Serif" font-size="10.00" fill="#000000"> char &gt;</text>
</a>
</g>
</g>
<!-- Node4&#45;&gt;Node3 -->
<g id="edge3" class="edge">
<title>Node4&#45;&gt;Node3</title>
<path fill="none" stroke="#191970" d="M202,-380.3962C202,-365.6331 202,-347.8138 202,-337.0839"/>
<polygon fill="#191970" stroke="#191970" points="198.5001,-380.4608 202,-390.4608 205.5001,-380.4609 198.5001,-380.4608"/>
</g>
<!-- Node5 -->
<g id="node5" class="node">
<title>Node5</title>
<g id="a_node5"><a xlink:href="classamr__wind_1_1_field_repo.html" target="_top" xlink:title="Field RepositoryFieldRepo is a database that manages handling of fields used during a simulation...">
<polygon fill="#ffffff" stroke="#000000" points="81.5,-156.5 81.5,-175.5 198.5,-175.5 198.5,-156.5 81.5,-156.5"/>
<text text-anchor="middle" x="140" y="-163.5" font-family="Helvetica,sans-Serif" font-size="10.00" fill="#000000">amr_wind::FieldRepo</text>
</a>
</g>
</g>
<!-- Node5&#45;&gt;Node2 -->
<g id="edge4" class="edge">
<title>Node5&#45;&gt;Node2</title>
<path fill="none" stroke="#9a32cd" stroke-dasharray="5,2" d="M152.6407,-147.9803C161.5366,-135.2989 173.094,-118.8235 180.2785,-108.5817"/>
<polygon fill="#9a32cd" stroke="#9a32cd" points="149.6115,-146.2039 146.734,-156.4005 155.3421,-150.2239 149.6115,-146.2039"/>
<text text-anchor="middle" x="187" y="-130" font-family="Helvetica,sans-Serif" font-size="10.00" fill="#000000"> m_repo</text>
</g>
<!-- Node6&#45;&gt;Node5 -->
<g id="edge5" class="edge">
<title>Node6&#45;&gt;Node5</title>
<path fill="none" stroke="#9a32cd" stroke-dasharray="5,2" d="M134.7946,-224.3737C134.8894,-214.8477 135.2059,-203.9109 136,-194 136.4942,-187.8326 137.4709,-180.9533 138.3354,-175.5569"/>
<polygon fill="#9a32cd" stroke="#9a32cd" points="131.2946,-224.3904 134.7681,-234.3996 138.2946,-224.4089 131.2946,-224.3904"/>
<text text-anchor="middle" x="172.5" y="-208" font-family="Helvetica,sans-Serif" font-size="10.00" fill="#000000"> m_fid_map</text>
<text text-anchor="middle" x="172.5" y="-197" font-family="Helvetica,sans-Serif" font-size="10.00" fill="#000000">m_int_fid_map</text>
</g>
<!-- Node7 -->
<g id="node7" class="node">
<title>Node7</title>
<g id="a_node7"><a xlink:title="STL class. ">
<polygon fill="#ffffff" stroke="#bfbfbf" points="0,-312.5 0,-342.5 114,-342.5 114,-312.5 0,-312.5"/>
<text text-anchor="start" x="8" y="-330.5" font-family="Helvetica,sans-Serif" font-size="10.00" fill="#000000">std::unordered_map</text>
<text text-anchor="middle" x="57" y="-319.5" font-family="Helvetica,sans-Serif" font-size="10.00" fill="#000000">&lt; K, T &gt;</text>
</a>
</g>
</g>
<!-- Node7&#45;&gt;Node6 -->
<g id="edge7" class="edge">
<title>Node7&#45;&gt;Node6</title>
<path fill="none" stroke="#ffa500" stroke-dasharray="5,2" d="M49.9023,-302.1603C49.4104,-295.4738 50.272,-288.5761 54,-283 59.2439,-275.1565 66.6989,-269.1473 74.9863,-264.5439"/>
<polygon fill="#ffa500" stroke="#ffa500" points="46.4896,-302.9769 51.5718,-312.2733 53.3962,-301.8367 46.4896,-302.9769"/>
<text text-anchor="middle" x="108.5" y="-286" font-family="Helvetica,sans-Serif" font-size="10.00" fill="#000000"> &lt; std::string, size_t &gt;</text>
</g>
<!-- Node8 -->
<g id="node8" class="node">
<title>Node8</title>
<polygon fill="#ffffff" stroke="#bfbfbf" points="29.5,-396 29.5,-415 58.5,-415 58.5,-396 29.5,-396"/>
<text text-anchor="middle" x="44" y="-403" font-family="Helvetica,sans-Serif" font-size="10.00" fill="#000000">K</text>
</g>
<!-- Node8&#45;&gt;Node7 -->
<g id="edge8" class="edge">
<title>Node8&#45;&gt;Node7</title>
<path fill="none" stroke="#9a32cd" stroke-dasharray="5,2" d="M43.0903,-385.6032C43.0893,-377.8661 43.5243,-368.964 45,-361 46.1481,-354.8041 48.2863,-348.2273 50.4434,-342.5568"/>
<polygon fill="#9a32cd" stroke="#9a32cd" points="39.5973,-385.946 43.3331,-395.8604 46.5954,-385.7803 39.5973,-385.946"/>
<text text-anchor="middle" x="58.5" y="-364" font-family="Helvetica,sans-Serif" font-size="10.00" fill="#000000"> keys</text>
</g>
<!-- Node9 -->
<g id="node9" class="node">
<title>Node9</title>
<polygon fill="#ffffff" stroke="#bfbfbf" points="79.5,-396 79.5,-415 108.5,-415 108.5,-396 79.5,-396"/>
<text text-anchor="middle" x="94" y="-403" font-family="Helvetica,sans-Serif" font-size="10.00" fill="#000000">T</text>
</g>
<!-- Node9&#45;&gt;Node7 -->
<g id="edge9" class="edge">
<title>Node9&#45;&gt;Node7</title>
<path fill="none" stroke="#9a32cd" stroke-dasharray="5,2" d="M85.0685,-386.6714C78.6878,-373.2202 70.2117,-355.3517 64.2493,-342.7824"/>
<polygon fill="#9a32cd" stroke="#9a32cd" points="82.0149,-388.4007 89.4631,-395.9357 88.3394,-385.4006 82.0149,-388.4007"/>
<text text-anchor="middle" x="102.5" y="-364" font-family="Helvetica,sans-Serif" font-size="10.00" fill="#000000"> elements</text>
</g>
</g>
</svg>
