<?xml version="1.0" encoding="UTF-8" standalone="no"?>
<!DOCTYPE svg PUBLIC "-//W3C//DTD SVG 1.1//EN"
 "http://www.w3.org/Graphics/SVG/1.1/DTD/svg11.dtd">
<!-- Generated by graphviz version 2.40.1 (20161225.0304)
 -->
<!-- Title: amr_wind::BoussinesqBubble Pages: 1 -->
<!--zoomable 182 -->
<svg id="main" version="1.1" xmlns="http://www.w3.org/2000/svg" xmlns:xlink="http://www.w3.org/1999/xlink" xml:space="preserve" onload="init(evt)">
<style type="text/css"><![CDATA[
.edge:hover path { stroke: red; }
.edge:hover polygon { stroke: red; fill: red; }
]]></style>
<script type="text/javascript"><![CDATA[
var edges = document.getElementsByTagName('g');
if (edges && edges.length) {
  for (var i=0;i<edges.length;i++) {
    if (edges[i].id.substr(0,4)=='edge') {
      edges[i].setAttribute('class','edge');
    }
  }
}
]]></script>
        <defs>
                <circle id="rim" cx="0" cy="0" r="7"/>
                <circle id="rim2" cx="0" cy="0" r="3.5"/>
                <g id="zoomPlus">
                        <use xlink:href="#rim" fill="#404040">
                                <set attributeName="fill" to="#808080" begin="zoomplus.mouseover" end="zoomplus.mouseout"/>
                        </use>
                        <path d="M-4,0h8M0,-4v8" fill="none" stroke="white" stroke-width="1.5" pointer-events="none"/>
                </g>
                <g id="zoomMin">
                        <use xlink:href="#rim" fill="#404040">
                                <set attributeName="fill" to="#808080" begin="zoomminus.mouseover" end="zoomminus.mouseout"/>
                        </use>
                        <path d="M-4,0h8" fill="none" stroke="white" stroke-width="1.5" pointer-events="none"/>
                </g>
                <g id="dirArrow">
                        <path fill="none" stroke="white" stroke-width="1.5" d="M0,-3.0v7 M-2.5,-0.5L0,-3.0L2.5,-0.5"/>
                </g>
               <g id="resetDef">
                       <use xlink:href="#rim2" fill="#404040">
                               <set attributeName="fill" to="#808080" begin="reset.mouseover" end="reset.mouseout"/>
                       </use>
               </g>
        </defs>

<script type="text/javascript">
var viewWidth = 1432;
var viewHeight = 182;
var sectionId = 'dynsection-1';
</script>
<script xlink:href="svgpan.js"/>
<svg id="graph" class="graph">
<g id="viewport">
<title>amr_wind::BoussinesqBubble</title>
<polygon fill="#ffffff" stroke="transparent" points="-4,4 -4,-177.5 1428,-177.5 1428,4 -4,4"/>
<!-- Node2 -->
<g id="node1" class="node">
<title>Node2</title>
<polygon fill="#bfbfbf" stroke="#000000" points="1264,-100.5 1264,-119.5 1424,-119.5 1424,-100.5 1264,-100.5"/>
<text text-anchor="middle" x="1344" y="-107.5" font-family="Helvetica,sans-Serif" font-size="10.00" fill="#000000">amr_wind::BoussinesqBubble</text>
</g>
<!-- Node3 -->
<g id="node2" class="node">
<title>Node3</title>
<polygon fill="#ffffff" stroke="#bfbfbf" points="1029,-143 1029,-173 1149,-173 1149,-143 1029,-143"/>
<text text-anchor="start" x="1037" y="-161" font-family="Helvetica,sans-Serif" font-size="10.00" fill="#000000">Physics::Register&lt;</text>
<text text-anchor="middle" x="1089" y="-150" font-family="Helvetica,sans-Serif" font-size="10.00" fill="#000000"> BoussinesqBubble &gt;</text>
</g>
<!-- Node3&#45;&gt;Node2 -->
<g id="edge1" class="edge">
<title>Node3&#45;&gt;Node2</title>
<path fill="none" stroke="#191970" d="M1159.395,-155.407C1186.6667,-153.4449 1218.0048,-150.0092 1246,-144 1272.5876,-138.293 1301.9059,-127.4893 1321.4832,-119.587"/>
<polygon fill="#191970" stroke="#191970" points="1158.9026,-151.932 1149.1574,-156.0892 1159.368,-158.9165 1158.9026,-151.932"/>
</g>
<!-- Node4 -->
<g id="node3" class="node">
<title>Node4</title>
<g id="a_node3"><a xlink:href="classamr__wind_1_1_field.html" target="_top" xlink:title="Computational fieldThis is an abstraction of a collection of MultiFabs over multiple levels...">
<polygon fill="#ffffff" stroke="#000000" points="1042.5,-102.5 1042.5,-121.5 1135.5,-121.5 1135.5,-102.5 1042.5,-102.5"/>
<text text-anchor="middle" x="1089" y="-109.5" font-family="Helvetica,sans-Serif" font-size="10.00" fill="#000000">amr_wind::Field</text>
</a>
</g>
</g>
<!-- Node4&#45;&gt;Node2 -->
<g id="edge2" class="edge">
<title>Node4&#45;&gt;Node2</title>
<path fill="none" stroke="#9a32cd" stroke-dasharray="5,2" d="M1145.9175,-111.2229C1153.0163,-111.14 1160.176,-111.063 1167,-111 1198.6502,-110.7077 1233.4847,-110.4887 1263.8176,-110.3314"/>
<polygon fill="#9a32cd" stroke="#9a32cd" points="1145.5635,-107.7269 1135.6066,-111.3479 1145.6483,-114.7264 1145.5635,-107.7269"/>
<text text-anchor="middle" x="1206.5" y="-136" font-family="Helvetica,sans-Serif" font-size="10.00" fill="#000000"> m_temperature</text>
<text text-anchor="middle" x="1206.5" y="-125" font-family="Helvetica,sans-Serif" font-size="10.00" fill="#000000">m_density</text>
<text text-anchor="middle" x="1206.5" y="-114" font-family="Helvetica,sans-Serif" font-size="10.00" fill="#000000">m_velocity</text>
</g>
<!-- Node5 -->
<g id="node4" class="node">
<title>Node5</title>
<g id="a_node4"><a xlink:title="STL class. ">
<polygon fill="#ffffff" stroke="#bfbfbf" points="236.5,-141.5 236.5,-160.5 301.5,-160.5 301.5,-141.5 236.5,-141.5"/>
<text text-anchor="middle" x="269" y="-148.5" font-family="Helvetica,sans-Serif" font-size="10.00" fill="#000000">std::string</text>
</a>
</g>
</g>
<!-- Node5&#45;&gt;Node4 -->
<g id="edge3" class="edge">
<title>Node5&#45;&gt;Node4</title>
<path fill="none" stroke="#9a32cd" stroke-dasharray="5,2" d="M312.0228,-150.5568C362.894,-149.9797 450.1181,-148.8237 525,-147 741.1187,-141.7365 796.3893,-153.024 1011,-127 1022.0885,-125.6554 1033.9689,-123.66 1045.0299,-121.5602"/>
<polygon fill="#9a32cd" stroke="#9a32cd" points="311.6971,-147.0601 301.7367,-150.6712 311.7751,-154.0597 311.6971,-147.0601"/>
<text text-anchor="middle" x="760.5" y="-149" font-family="Helvetica,sans-Serif" font-size="10.00" fill="#000000"> m_name</text>
</g>
<!-- Node8 -->
<g id="node7" class="node">
<title>Node8</title>
<polygon fill="#ffffff" stroke="#bfbfbf" points="563.5,-97 563.5,-127 685.5,-127 685.5,-97 563.5,-97"/>
<text text-anchor="start" x="571.5" y="-115" font-family="Helvetica,sans-Serif" font-size="10.00" fill="#000000">std::unordered_map</text>
<text text-anchor="middle" x="624.5" y="-104" font-family="Helvetica,sans-Serif" font-size="10.00" fill="#000000">&lt; std::string, size_t &gt;</text>
</g>
<!-- Node5&#45;&gt;Node8 -->
<g id="edge7" class="edge">
<title>Node5&#45;&gt;Node8</title>
<path fill="none" stroke="#9a32cd" stroke-dasharray="5,2" d="M311.8575,-143.88C328.9775,-141.1824 348.8918,-138.2277 367,-136 433.9554,-127.7629 511.0172,-120.9275 563.2582,-116.6859"/>
<polygon fill="#9a32cd" stroke="#9a32cd" points="310.9232,-140.4847 301.6001,-145.5176 312.0269,-147.3972 310.9232,-140.4847"/>
<text text-anchor="middle" x="446" y="-139" font-family="Helvetica,sans-Serif" font-size="10.00" fill="#000000"> keys</text>
</g>
<!-- Node6 -->
<g id="node5" class="node">
<title>Node6</title>
<g id="a_node5"><a xlink:title="STL class. ">
<polygon fill="#ffffff" stroke="#bfbfbf" points="0,-136 0,-166 104,-166 104,-136 0,-136"/>
<text text-anchor="start" x="8" y="-154" font-family="Helvetica,sans-Serif" font-size="10.00" fill="#000000">std::basic_string&lt;</text>
<text text-anchor="middle" x="52" y="-143" font-family="Helvetica,sans-Serif" font-size="10.00" fill="#000000"> char &gt;</text>
</a>
</g>
</g>
<!-- Node6&#45;&gt;Node5 -->
<g id="edge4" class="edge">
<title>Node6&#45;&gt;Node5</title>
<path fill="none" stroke="#191970" d="M114.4033,-151C154.2281,-151 204.2309,-151 236.3992,-151"/>
<polygon fill="#191970" stroke="#191970" points="114.2531,-147.5001 104.2531,-151 114.253,-154.5001 114.2531,-147.5001"/>
</g>
<!-- Node7 -->
<g id="node6" class="node">
<title>Node7</title>
<g id="a_node6"><a xlink:href="classamr__wind_1_1_field_repo.html" target="_top" xlink:title="Field RepositoryFieldRepo is a database that manages handling of fields used during a simulation...">
<polygon fill="#ffffff" stroke="#000000" points="815,-102.5 815,-121.5 932,-121.5 932,-102.5 815,-102.5"/>
<text text-anchor="middle" x="873.5" y="-109.5" font-family="Helvetica,sans-Serif" font-size="10.00" fill="#000000">amr_wind::FieldRepo</text>
</a>
</g>
</g>
<!-- Node7&#45;&gt;Node4 -->
<g id="edge5" class="edge">
<title>Node7&#45;&gt;Node4</title>
<path fill="none" stroke="#9a32cd" stroke-dasharray="5,2" d="M942.4814,-112C975.0989,-112 1013.1853,-112 1042.3507,-112"/>
<polygon fill="#9a32cd" stroke="#9a32cd" points="942.1017,-108.5001 932.1017,-112 942.1016,-115.5001 942.1017,-108.5001"/>
<text text-anchor="middle" x="980.5" y="-115" font-family="Helvetica,sans-Serif" font-size="10.00" fill="#000000"> m_repo</text>
</g>
<!-- Node8&#45;&gt;Node7 -->
<g id="edge6" class="edge">
<title>Node8&#45;&gt;Node7</title>
<path fill="none" stroke="#9a32cd" stroke-dasharray="5,2" d="M696.1052,-112C733.6809,-112 779.153,-112 814.6513,-112"/>
<polygon fill="#9a32cd" stroke="#9a32cd" points="695.7312,-108.5001 685.7312,-112 695.7311,-115.5001 695.7312,-108.5001"/>
<text text-anchor="middle" x="760.5" y="-126" font-family="Helvetica,sans-Serif" font-size="10.00" fill="#000000"> m_fid_map</text>
<text text-anchor="middle" x="760.5" y="-115" font-family="Helvetica,sans-Serif" font-size="10.00" fill="#000000">m_int_fid_map</text>
</g>
<!-- Node9 -->
<g id="node8" class="node">
<title>Node9</title>
<g id="a_node8"><a xlink:title="STL class. ">
<polygon fill="#ffffff" stroke="#bfbfbf" points="212,-88 212,-118 326,-118 326,-88 212,-88"/>
<text text-anchor="start" x="220" y="-106" font-family="Helvetica,sans-Serif" font-size="10.00" fill="#000000">std::unordered_map</text>
<text text-anchor="middle" x="269" y="-95" font-family="Helvetica,sans-Serif" font-size="10.00" fill="#000000">&lt; K, T &gt;</text>
</a>
</g>
</g>
<!-- Node9&#45;&gt;Node8 -->
<g id="edge8" class="edge">
<title>Node9&#45;&gt;Node8</title>
<path fill="none" stroke="#ffa500" stroke-dasharray="5,2" d="M336.2695,-100.7571C387.9272,-99.5143 461.0173,-98.7929 525,-102 537.3978,-102.6214 550.6319,-103.6758 563.2681,-104.8728"/>
<polygon fill="#ffa500" stroke="#ffa500" points="336.1409,-97.2591 326.2328,-101.0116 336.3184,-104.2569 336.1409,-97.2591"/>
<text text-anchor="middle" x="446" y="-105" font-family="Helvetica,sans-Serif" font-size="10.00" fill="#000000"> &lt; std::string, size_t &gt;</text>
</g>
<!-- Node10 -->
<g id="node9" class="node">
<title>Node10</title>
<polygon fill="#ffffff" stroke="#bfbfbf" points="37.5,-93.5 37.5,-112.5 66.5,-112.5 66.5,-93.5 37.5,-93.5"/>
<text text-anchor="middle" x="52" y="-100.5" font-family="Helvetica,sans-Serif" font-size="10.00" fill="#000000">K</text>
</g>
<!-- Node10&#45;&gt;Node9 -->
<g id="edge9" class="edge">
<title>Node10&#45;&gt;Node9</title>
<path fill="none" stroke="#9a32cd" stroke-dasharray="5,2" d="M77.0013,-103C109.6737,-103 167.8772,-103 211.6631,-103"/>
<polygon fill="#9a32cd" stroke="#9a32cd" points="76.575,-99.5001 66.5749,-103 76.5749,-106.5001 76.575,-99.5001"/>
<text text-anchor="middle" x="146.5" y="-106" font-family="Helvetica,sans-Serif" font-size="10.00" fill="#000000"> keys</text>
</g>
<!-- Node11 -->
<g id="node10" class="node">
<title>Node11</title>
<polygon fill="#ffffff" stroke="#bfbfbf" points="37.5,-40.5 37.5,-59.5 66.5,-59.5 66.5,-40.5 37.5,-40.5"/>
<text text-anchor="middle" x="52" y="-47.5" font-family="Helvetica,sans-Serif" font-size="10.00" fill="#000000">T</text>
</g>
<!-- Node11&#45;&gt;Node9 -->
<g id="edge10" class="edge">
<title>Node11&#45;&gt;Node9</title>
<path fill="none" stroke="#9a32cd" stroke-dasharray="5,2" d="M76.5747,-56.0021C109.1651,-63.962 167.686,-78.2551 211.6631,-88.9961"/>
<polygon fill="#9a32cd" stroke="#9a32cd" points="77.1198,-52.5324 66.5749,-53.5598 75.4589,-59.3326 77.1198,-52.5324"/>
<text text-anchor="middle" x="146.5" y="-82" font-family="Helvetica,sans-Serif" font-size="10.00" fill="#000000"> elements</text>
</g>
<!-- Node14 -->
<g id="node13" class="node">
<title>Node14</title>
<g id="a_node13"><a xlink:title="STL class. ">
<polygon fill="#ffffff" stroke="#bfbfbf" points="210,-.5 210,-19.5 328,-19.5 328,-.5 210,-.5"/>
<text text-anchor="middle" x="269" y="-7.5" font-family="Helvetica,sans-Serif" font-size="10.00" fill="#000000">std::unique_ptr&lt; T &gt;</text>
</a>
</g>
</g>
<!-- Node11&#45;&gt;Node14 -->
<g id="edge14" class="edge">
<title>Node11&#45;&gt;Node14</title>
<path fill="none" stroke="#9a32cd" stroke-dasharray="5,2" d="M76.4437,-42.0861C89.7906,-38.0013 106.6758,-33.2144 122,-30 150.6104,-23.9987 182.7468,-19.3875 209.6588,-16.1135"/>
<polygon fill="#9a32cd" stroke="#9a32cd" points="75.094,-38.841 66.5958,-45.168 77.1847,-45.5215 75.094,-38.841"/>
<text text-anchor="middle" x="146.5" y="-33" font-family="Helvetica,sans-Serif" font-size="10.00" fill="#000000"> ptr</text>
</g>
<!-- Node12 -->
<g id="node11" class="node">
<title>Node12</title>
<polygon fill="#ffffff" stroke="#bfbfbf" points="543,-34.5 543,-75.5 706,-75.5 706,-34.5 543,-34.5"/>
<text text-anchor="start" x="551" y="-63.5" font-family="Helvetica,sans-Serif" font-size="10.00" fill="#000000">std::unique_ptr&lt; amr</text>
<text text-anchor="start" x="551" y="-52.5" font-family="Helvetica,sans-Serif" font-size="10.00" fill="#000000">_wind::BoussinesqBubbleField</text>
<text text-anchor="middle" x="624.5" y="-41.5" font-family="Helvetica,sans-Serif" font-size="10.00" fill="#000000">Init &gt;</text>
</g>
<!-- Node12&#45;&gt;Node2 -->
<g id="edge11" class="edge">
<title>Node12&#45;&gt;Node2</title>
<path fill="none" stroke="#9a32cd" stroke-dasharray="5,2" d="M716.5168,-61.2574C821.2715,-68.4761 997.5103,-80.9095 1149,-93 1186.7705,-96.0145 1228.631,-99.628 1263.8537,-102.7469"/>
<polygon fill="#9a32cd" stroke="#9a32cd" points="716.51,-57.7487 706.2932,-60.5538 716.0293,-64.7322 716.51,-57.7487"/>
<text text-anchor="middle" x="980.5" y="-86" font-family="Helvetica,sans-Serif" font-size="10.00" fill="#000000"> m_field_init</text>
</g>
<!-- Node13 -->
<g id="node12" class="node">
<title>Node13</title>
<g id="a_node12"><a xlink:href="classamr__wind_1_1_boussinesq_bubble_field_init.html" target="_top" xlink:title="Initialize BoussinesqBubble fields. ">
<polygon fill="#ffffff" stroke="#000000" points="189,-39 189,-69 349,-69 349,-39 189,-39"/>
<text text-anchor="start" x="197" y="-57" font-family="Helvetica,sans-Serif" font-size="10.00" fill="#000000">amr_wind::BoussinesqBubble</text>
<text text-anchor="middle" x="269" y="-46" font-family="Helvetica,sans-Serif" font-size="10.00" fill="#000000">FieldInit</text>
</a>
</g>
</g>
<!-- Node13&#45;&gt;Node12 -->
<g id="edge12" class="edge">
<title>Node13&#45;&gt;Node12</title>
<path fill="none" stroke="#9a32cd" stroke-dasharray="5,2" d="M359.5727,-54.2548C416.006,-54.4135 488.0212,-54.6161 542.7198,-54.77"/>
<polygon fill="#9a32cd" stroke="#9a32cd" points="359.2342,-50.7539 349.2244,-54.2257 359.2145,-57.7539 359.2342,-50.7539"/>
<text text-anchor="middle" x="446" y="-58" font-family="Helvetica,sans-Serif" font-size="10.00" fill="#000000"> ptr</text>
</g>
<!-- Node14&#45;&gt;Node12 -->
<g id="edge13" class="edge">
<title>Node14&#45;&gt;Node12</title>
<path fill="none" stroke="#ffa500" stroke-dasharray="5,2" d="M338.145,-11.7369C389.8911,-13.8569 462.2503,-18.5618 525,-29 533.8942,-30.4795 543.1513,-32.3871 552.282,-34.4962"/>
<polygon fill="#ffa500" stroke="#ffa500" points="338.2078,-8.2368 328.0796,-11.3464 337.9364,-15.2315 338.2078,-8.2368"/>
<text text-anchor="start" x="367" y="-43" font-family="Helvetica,sans-Serif" font-size="10.00" fill="#000000"> &lt; amr_wind::BoussinesqBubble</text>
<text text-anchor="middle" x="446" y="-32" font-family="Helvetica,sans-Serif" font-size="10.00" fill="#000000">FieldInit &gt;</text>
</g>
</g>
</svg>
        <g id="navigator" transform="translate(0 0)" fill="#404254">
                <rect fill="#f2f5e9" fill-opacity="0.5" stroke="#606060" stroke-width=".5" x="0" y="0" width="60" height="60"/>
                <use id="zoomplus" xlink:href="#zoomPlus" x="17" y="9" onmousedown="handleZoom(evt,'in')"/>
                <use id="zoomminus" xlink:href="#zoomMin" x="42" y="9" onmousedown="handleZoom(evt,'out')"/>
                <use id="reset" xlink:href="#resetDef" x="30" y="36" onmousedown="handleReset()"/>
                <g id="arrowUp" xlink:href="#dirArrow" transform="translate(30 24)" onmousedown="handlePan(0,-1)">
                  <use xlink:href="#rim" fill="#404040">
                        <set attributeName="fill" to="#808080" begin="arrowUp.mouseover" end="arrowUp.mouseout"/>
                  </use>
                  <path fill="none" stroke="white" stroke-width="1.5" d="M0,-3.0v7 M-2.5,-0.5L0,-3.0L2.5,-0.5"/>
                </g>
                <g id="arrowRight" xlink:href="#dirArrow" transform="rotate(90) translate(36 -43)" onmousedown="handlePan(1,0)">
                  <use xlink:href="#rim" fill="#404040">
                        <set attributeName="fill" to="#808080" begin="arrowRight.mouseover" end="arrowRight.mouseout"/>
                  </use>
                  <path fill="none" stroke="white" stroke-width="1.5" d="M0,-3.0v7 M-2.5,-0.5L0,-3.0L2.5,-0.5"/>
                </g>
                <g id="arrowDown" xlink:href="#dirArrow" transform="rotate(180) translate(-30 -48)" onmousedown="handlePan(0,1)">
                  <use xlink:href="#rim" fill="#404040">
                        <set attributeName="fill" to="#808080" begin="arrowDown.mouseover" end="arrowDown.mouseout"/>
                  </use>
                  <path fill="none" stroke="white" stroke-width="1.5" d="M0,-3.0v7 M-2.5,-0.5L0,-3.0L2.5,-0.5"/>
                </g>
                <g id="arrowLeft" xlink:href="#dirArrow" transform="rotate(270) translate(-36 17)" onmousedown="handlePan(-1,0)">
                  <use xlink:href="#rim" fill="#404040">
                        <set attributeName="fill" to="#808080" begin="arrowLeft.mouseover" end="arrowLeft.mouseout"/>
                  </use>
                  <path fill="none" stroke="white" stroke-width="1.5" d="M0,-3.0v7 M-2.5,-0.5L0,-3.0L2.5,-0.5"/>
                </g>
        </g>
        <svg viewBox="0 0 15 15" width="100%" height="30px" preserveAspectRatio="xMaxYMin meet">
         <g id="arrow_out" transform="scale(0.3 0.3)">
          <a xlink:href="classamr__wind_1_1_boussinesq_bubble__coll__graph_org.svg" target="_base">
           <rect id="button" ry="5" rx="5" y="6" x="6" height="38" width="38"
                fill="#f2f5e9" fill-opacity="0.5" stroke="#606060" stroke-width="1.0"/>
           <path id="arrow"
             d="M 11.500037,31.436501 C 11.940474,20.09759 22.043105,11.32322 32.158766,21.979434 L 37.068811,17.246167 C 37.068811,17.246167 37.088388,32 37.088388,32 L 22.160133,31.978069 C 22.160133,31.978069 26.997745,27.140456 26.997745,27.140456 C 18.528582,18.264221 13.291696,25.230495 11.500037,31.436501 z"
             style="fill:#404040;"/>
          </a>
         </g>
        </svg>
</svg>
