<?xml version="1.0" encoding="UTF-8" standalone="no"?>
<!DOCTYPE svg PUBLIC "-//W3C//DTD SVG 1.1//EN"
 "http://www.w3.org/Graphics/SVG/1.1/DTD/svg11.dtd">
<!-- Generated by graphviz version 2.40.1 (20161225.0304)
 -->
<!-- Title: amr_wind::pde::MacProjOp Pages: 1 -->
<svg width="449pt" height="371pt"
 viewBox="0.00 0.00 449.00 371.00" xmlns="http://www.w3.org/2000/svg" xmlns:xlink="http://www.w3.org/1999/xlink">
<g id="graph0" class="graph" transform="scale(1 1) rotate(0) translate(4 367)">
<title>amr_wind::pde::MacProjOp</title>
<polygon fill="#ffffff" stroke="transparent" points="-4,4 -4,-367 445,-367 445,4 -4,4"/>
<!-- Node1 -->
<g id="node1" class="node">
<title>Node1</title>
<polygon fill="#bfbfbf" stroke="#000000" points="138,-.5 138,-19.5 284,-19.5 284,-.5 138,-.5"/>
<text text-anchor="middle" x="211" y="-7.5" font-family="Helvetica,sans-Serif" font-size="10.00" fill="#000000">amr_wind::pde::MacProjOp</text>
</g>
<!-- Node2 -->
<g id="node2" class="node">
<title>Node2</title>
<polygon fill="#ffffff" stroke="#bfbfbf" points="0,-105.5 0,-135.5 132,-135.5 132,-105.5 0,-105.5"/>
<text text-anchor="start" x="8" y="-123.5" font-family="Helvetica,sans-Serif" font-size="10.00" fill="#000000">std::unique_ptr&lt; amrex</text>
<text text-anchor="middle" x="66" y="-112.5" font-family="Helvetica,sans-Serif" font-size="10.00" fill="#000000">::MacProjector &gt;</text>
</g>
<!-- Node2&#45;&gt;Node1 -->
<g id="edge1" class="edge">
<title>Node2&#45;&gt;Node1</title>
<path fill="none" stroke="#9a32cd" stroke-dasharray="5,2" d="M67.3729,-95.2304C69.0385,-85.4898 72.3917,-74.8334 79,-67 100.1657,-41.9103 134.4163,-27.5564 162.7244,-19.5291"/>
<polygon fill="#9a32cd" stroke="#9a32cd" points="63.8856,-94.9144 66.1537,-105.2636 70.8345,-95.7589 63.8856,-94.9144"/>
<text text-anchor="middle" x="111" y="-74.5" font-family="Helvetica,sans-Serif" font-size="10.00" fill="#000000"> m_mac_proj</text>
</g>
<!-- Node3 -->
<g id="node3" class="node">
<title>Node3</title>
<g id="a_node3"><a xlink:title="STL class. ">
<polygon fill="#ffffff" stroke="#bfbfbf" points="5,-210 5,-229 123,-229 123,-210 5,-210"/>
<text text-anchor="middle" x="64" y="-217" font-family="Helvetica,sans-Serif" font-size="10.00" fill="#000000">std::unique_ptr&lt; T &gt;</text>
</a>
</g>
</g>
<!-- Node3&#45;&gt;Node2 -->
<g id="edge2" class="edge">
<title>Node3&#45;&gt;Node2</title>
<path fill="none" stroke="#ffa500" stroke-dasharray="5,2" d="M64.404,-199.5022C64.7843,-180.6778 65.3456,-152.8907 65.6913,-135.7822"/>
<polygon fill="#ffa500" stroke="#ffa500" points="60.9019,-199.5769 64.1991,-209.6456 67.9004,-199.7183 60.9019,-199.5769"/>
<text text-anchor="middle" x="129.5" y="-167" font-family="Helvetica,sans-Serif" font-size="10.00" fill="#000000"> &lt; amrex::MacProjector &gt;</text>
</g>
<!-- Node4 -->
<g id="node4" class="node">
<title>Node4</title>
<polygon fill="#ffffff" stroke="#bfbfbf" points="69.5,-338 69.5,-357 98.5,-357 98.5,-338 69.5,-338"/>
<text text-anchor="middle" x="84" y="-345" font-family="Helvetica,sans-Serif" font-size="10.00" fill="#000000">T</text>
</g>
<!-- Node4&#45;&gt;Node3 -->
<g id="edge3" class="edge">
<title>Node4&#45;&gt;Node3</title>
<path fill="none" stroke="#9a32cd" stroke-dasharray="5,2" d="M80.9141,-327.7504C76.564,-299.9095 68.7944,-250.1838 65.5207,-229.2324"/>
<polygon fill="#9a32cd" stroke="#9a32cd" points="77.4949,-328.5394 82.4967,-337.8792 84.4109,-327.4587 77.4949,-328.5394"/>
<text text-anchor="middle" x="87.5" y="-306" font-family="Helvetica,sans-Serif" font-size="10.00" fill="#000000"> ptr</text>
</g>
<!-- Node10 -->
<g id="node10" class="node">
<title>Node10</title>
<g id="a_node10"><a xlink:title="STL class. ">
<polygon fill="#ffffff" stroke="#bfbfbf" points="119,-254.5 119,-284.5 233,-284.5 233,-254.5 119,-254.5"/>
<text text-anchor="start" x="127" y="-272.5" font-family="Helvetica,sans-Serif" font-size="10.00" fill="#000000">std::unordered_map</text>
<text text-anchor="middle" x="176" y="-261.5" font-family="Helvetica,sans-Serif" font-size="10.00" fill="#000000">&lt; K, T &gt;</text>
</a>
</g>
</g>
<!-- Node4&#45;&gt;Node10 -->
<g id="edge12" class="edge">
<title>Node4&#45;&gt;Node10</title>
<path fill="none" stroke="#9a32cd" stroke-dasharray="5,2" d="M97.393,-329.9497C104.4758,-321.2898 113.6307,-311.0113 123,-303 130.8596,-296.2796 140.1846,-289.9337 148.805,-284.6098"/>
<polygon fill="#9a32cd" stroke="#9a32cd" points="94.5391,-327.9156 91.0696,-337.9263 100.0246,-332.2642 94.5391,-327.9156"/>
<text text-anchor="middle" x="147.5" y="-306" font-family="Helvetica,sans-Serif" font-size="10.00" fill="#000000"> elements</text>
</g>
<!-- Node5 -->
<g id="node5" class="node">
<title>Node5</title>
<g id="a_node5"><a xlink:href="structamr__wind_1_1_m_l_m_g_options.html" target="_top" xlink:title="Interface to control the behavior of AMReX LinearSolvers. ">
<polygon fill="#ffffff" stroke="#000000" points="289.5,-111 289.5,-130 426.5,-130 426.5,-111 289.5,-111"/>
<text text-anchor="middle" x="358" y="-118" font-family="Helvetica,sans-Serif" font-size="10.00" fill="#000000">amr_wind::MLMGOptions</text>
</a>
</g>
</g>
<!-- Node5&#45;&gt;Node1 -->
<g id="edge4" class="edge">
<title>Node5&#45;&gt;Node1</title>
<path fill="none" stroke="#9a32cd" stroke-dasharray="5,2" d="M339.0279,-104.2718C318.7217,-87.1502 285.3251,-59.6966 255,-38 246.0162,-31.5724 235.6021,-24.9119 227.1614,-19.7004"/>
<polygon fill="#9a32cd" stroke="#9a32cd" points="336.9908,-107.1333 346.882,-110.9301 341.5174,-101.7938 336.9908,-107.1333"/>
<text text-anchor="middle" x="344.5" y="-74.5" font-family="Helvetica,sans-Serif" font-size="10.00" fill="#000000"> m_options</text>
</g>
<!-- Node6 -->
<g id="node6" class="node">
<title>Node6</title>
<g id="a_node6"><a xlink:title="STL class. ">
<polygon fill="#ffffff" stroke="#bfbfbf" points="300.5,-260 300.5,-279 365.5,-279 365.5,-260 300.5,-260"/>
<text text-anchor="middle" x="333" y="-267" font-family="Helvetica,sans-Serif" font-size="10.00" fill="#000000">std::string</text>
</a>
</g>
</g>
<!-- Node6&#45;&gt;Node5 -->
<g id="edge5" class="edge">
<title>Node6&#45;&gt;Node5</title>
<path fill="none" stroke="#9a32cd" stroke-dasharray="5,2" d="M336.33,-249.6531C341.7681,-217.2423 352.3528,-154.1571 356.3861,-130.1186"/>
<polygon fill="#9a32cd" stroke="#9a32cd" points="332.8434,-249.2824 334.6403,-259.7237 339.7469,-250.4407 332.8434,-249.2824"/>
<text text-anchor="middle" x="392" y="-228" font-family="Helvetica,sans-Serif" font-size="10.00" fill="#000000"> hypre_namespace</text>
<text text-anchor="middle" x="392" y="-217" font-family="Helvetica,sans-Serif" font-size="10.00" fill="#000000">bottom_solver_type</text>
<text text-anchor="middle" x="392" y="-206" font-family="Helvetica,sans-Serif" font-size="10.00" fill="#000000">hypre_interface</text>
</g>
<!-- Node9 -->
<g id="node9" class="node">
<title>Node9</title>
<polygon fill="#ffffff" stroke="#bfbfbf" points="208,-154.5 208,-184.5 330,-184.5 330,-154.5 208,-154.5"/>
<text text-anchor="start" x="216" y="-172.5" font-family="Helvetica,sans-Serif" font-size="10.00" fill="#000000">std::unordered_map</text>
<text text-anchor="middle" x="269" y="-161.5" font-family="Helvetica,sans-Serif" font-size="10.00" fill="#000000">&lt; std::string, size_t &gt;</text>
</g>
<!-- Node6&#45;&gt;Node9 -->
<g id="edge9" class="edge">
<title>Node6&#45;&gt;Node9</title>
<path fill="none" stroke="#9a32cd" stroke-dasharray="5,2" d="M319.8086,-251.6468C316.2199,-246.6406 312.3899,-241.1562 309,-236 297.6019,-218.6631 285.4421,-198.1198 277.5617,-184.5017"/>
<polygon fill="#9a32cd" stroke="#9a32cd" points="317.1479,-253.939 325.8605,-259.9673 322.8088,-249.8215 317.1479,-253.939"/>
<text text-anchor="middle" x="322.5" y="-217" font-family="Helvetica,sans-Serif" font-size="10.00" fill="#000000"> keys</text>
</g>
<!-- Node7 -->
<g id="node7" class="node">
<title>Node7</title>
<g id="a_node7"><a xlink:title="STL class. ">
<polygon fill="#ffffff" stroke="#bfbfbf" points="281,-332.5 281,-362.5 385,-362.5 385,-332.5 281,-332.5"/>
<text text-anchor="start" x="289" y="-350.5" font-family="Helvetica,sans-Serif" font-size="10.00" fill="#000000">std::basic_string&lt;</text>
<text text-anchor="middle" x="333" y="-339.5" font-family="Helvetica,sans-Serif" font-size="10.00" fill="#000000"> char &gt;</text>
</a>
</g>
</g>
<!-- Node7&#45;&gt;Node6 -->
<g id="edge6" class="edge">
<title>Node7&#45;&gt;Node6</title>
<path fill="none" stroke="#191970" d="M333,-322.3962C333,-307.6331 333,-289.8138 333,-279.0839"/>
<polygon fill="#191970" stroke="#191970" points="329.5001,-322.4608 333,-332.4608 336.5001,-322.4609 329.5001,-322.4608"/>
</g>
<!-- Node8 -->
<g id="node8" class="node">
<title>Node8</title>
<g id="a_node8"><a xlink:href="classamr__wind_1_1_field_repo.html" target="_top" xlink:title="Field RepositoryFieldRepo is a database that manages handling of fields used during a simulation...">
<polygon fill="#ffffff" stroke="#000000" points="152.5,-67.5 152.5,-86.5 269.5,-86.5 269.5,-67.5 152.5,-67.5"/>
<text text-anchor="middle" x="211" y="-74.5" font-family="Helvetica,sans-Serif" font-size="10.00" fill="#000000">amr_wind::FieldRepo</text>
</a>
</g>
</g>
<!-- Node8&#45;&gt;Node1 -->
<g id="edge7" class="edge">
<title>Node8&#45;&gt;Node1</title>
<path fill="none" stroke="#9a32cd" stroke-dasharray="5,2" d="M211,-57.1079C211,-44.714 211,-29.3263 211,-19.5817"/>
<polygon fill="#9a32cd" stroke="#9a32cd" points="207.5001,-57.4005 211,-67.4005 214.5001,-57.4006 207.5001,-57.4005"/>
<text text-anchor="middle" x="231" y="-41" font-family="Helvetica,sans-Serif" font-size="10.00" fill="#000000"> m_repo</text>
</g>
<!-- Node9&#45;&gt;Node8 -->
<g id="edge8" class="edge">
<title>Node9&#45;&gt;Node8</title>
<path fill="none" stroke="#9a32cd" stroke-dasharray="5,2" d="M218.9845,-148.5706C214.654,-144.9741 210.8456,-140.8092 208,-136 198.9123,-120.6413 203.5641,-98.9043 207.4766,-86.5548"/>
<polygon fill="#9a32cd" stroke="#9a32cd" points="217.0699,-151.5039 227.2479,-154.4467 221.1266,-145.7992 217.0699,-151.5039"/>
<text text-anchor="middle" x="244.5" y="-123.5" font-family="Helvetica,sans-Serif" font-size="10.00" fill="#000000"> m_fid_map</text>
<text text-anchor="middle" x="244.5" y="-112.5" font-family="Helvetica,sans-Serif" font-size="10.00" fill="#000000">m_int_fid_map</text>
</g>
<!-- Node10&#45;&gt;Node9 -->
<g id="edge10" class="edge">
<title>Node10&#45;&gt;Node9</title>
<path fill="none" stroke="#ffa500" stroke-dasharray="5,2" d="M168.9305,-244.2413C166.7252,-230.8416 166.7037,-214.764 175,-203 179.7677,-196.2394 194.0597,-189.8609 210.1064,-184.5202"/>
<polygon fill="#ffa500" stroke="#ffa500" points="165.5597,-245.2187 171.0502,-254.2799 172.4086,-243.7725 165.5597,-245.2187"/>
<text text-anchor="middle" x="229.5" y="-217" font-family="Helvetica,sans-Serif" font-size="10.00" fill="#000000"> &lt; std::string, size_t &gt;</text>
</g>
<!-- Node11 -->
<g id="node11" class="node">
<title>Node11</title>
<polygon fill="#ffffff" stroke="#bfbfbf" points="161.5,-338 161.5,-357 190.5,-357 190.5,-338 161.5,-338"/>
<text text-anchor="middle" x="176" y="-345" font-family="Helvetica,sans-Serif" font-size="10.00" fill="#000000">K</text>
</g>
<!-- Node11&#45;&gt;Node10 -->
<g id="edge11" class="edge">
<title>Node11&#45;&gt;Node10</title>
<path fill="none" stroke="#9a32cd" stroke-dasharray="5,2" d="M176,-327.8751C176,-314.5215 176,-297.1052 176,-284.7824"/>
<polygon fill="#9a32cd" stroke="#9a32cd" points="172.5001,-327.9356 176,-337.9357 179.5001,-327.9357 172.5001,-327.9356"/>
<text text-anchor="middle" x="189.5" y="-306" font-family="Helvetica,sans-Serif" font-size="10.00" fill="#000000"> keys</text>
</g>
</g>
</svg>
