<?xml version="1.0" encoding="UTF-8" standalone="no"?>
<!DOCTYPE svg PUBLIC "-//W3C//DTD SVG 1.1//EN"
 "http://www.w3.org/Graphics/SVG/1.1/DTD/svg11.dtd">
<!-- Generated by graphviz version 2.40.1 (20161225.0304)
 -->
<!-- Title: amr_wind::BCPressure Pages: 1 -->
<svg width="264pt" height="521pt"
 viewBox="0.00 0.00 264.00 521.00" xmlns="http://www.w3.org/2000/svg" xmlns:xlink="http://www.w3.org/1999/xlink">
<g id="graph0" class="graph" transform="scale(1 1) rotate(0) translate(4 517)">
<title>amr_wind::BCPressure</title>
<polygon fill="#ffffff" stroke="transparent" points="-4,4 -4,-517 260,-517 260,4 -4,4"/>
<!-- Node3 -->
<g id="node1" class="node">
<title>Node3</title>
<polygon fill="#bfbfbf" stroke="#000000" points="124,-.5 124,-19.5 250,-19.5 250,-.5 124,-.5"/>
<text text-anchor="middle" x="187" y="-7.5" font-family="Helvetica,sans-Serif" font-size="10.00" fill="#000000">amr_wind::BCPressure</text>
</g>
<!-- Node4 -->
<g id="node2" class="node">
<title>Node4</title>
<g id="a_node2"><a xlink:href="classamr__wind_1_1_b_c_scalar.html" target="_top" xlink:title="Boundary condition initialization for scalar transport variables. ">
<polygon fill="#ffffff" stroke="#000000" points="130,-57.5 130,-76.5 244,-76.5 244,-57.5 130,-57.5"/>
<text text-anchor="middle" x="187" y="-64.5" font-family="Helvetica,sans-Serif" font-size="10.00" fill="#000000">amr_wind::BCScalar</text>
</a>
</g>
</g>
<!-- Node4&#45;&gt;Node3 -->
<g id="edge1" class="edge">
<title>Node4&#45;&gt;Node3</title>
<path fill="none" stroke="#191970" d="M187,-47.2342C187,-37.8491 187,-27.0651 187,-19.5265"/>
<polygon fill="#191970" stroke="#191970" points="183.5001,-47.3307 187,-57.3307 190.5001,-47.3308 183.5001,-47.3307"/>
</g>
<!-- Node5 -->
<g id="node3" class="node">
<title>Node5</title>
<g id="a_node3"><a xlink:href="classamr__wind_1_1_b_c_iface.html" target="_top" xlink:title="Abstract class that defines the interface for processing BCsThis class defines the infrastructure to ...">
<polygon fill="#ffffff" stroke="#000000" points="133,-114.5 133,-133.5 241,-133.5 241,-114.5 133,-114.5"/>
<text text-anchor="middle" x="187" y="-121.5" font-family="Helvetica,sans-Serif" font-size="10.00" fill="#000000">amr_wind::BCIface</text>
</a>
</g>
</g>
<!-- Node5&#45;&gt;Node4 -->
<g id="edge2" class="edge">
<title>Node5&#45;&gt;Node4</title>
<path fill="none" stroke="#191970" d="M187,-104.2342C187,-94.8491 187,-84.0651 187,-76.5265"/>
<polygon fill="#191970" stroke="#191970" points="183.5001,-104.3307 187,-114.3307 190.5001,-104.3308 183.5001,-104.3307"/>
</g>
<!-- Node6 -->
<g id="node4" class="node">
<title>Node6</title>
<g id="a_node4"><a xlink:href="classamr__wind_1_1_field.html" target="_top" xlink:title="Computational fieldThis is an abstraction of a collection of MultiFabs over multiple levels...">
<polygon fill="#ffffff" stroke="#000000" points="140.5,-181.5 140.5,-200.5 233.5,-200.5 233.5,-181.5 140.5,-181.5"/>
<text text-anchor="middle" x="187" y="-188.5" font-family="Helvetica,sans-Serif" font-size="10.00" fill="#000000">amr_wind::Field</text>
</a>
</g>
</g>
<!-- Node6&#45;&gt;Node5 -->
<g id="edge3" class="edge">
<title>Node6&#45;&gt;Node5</title>
<path fill="none" stroke="#9a32cd" stroke-dasharray="5,2" d="M187,-171.1079C187,-158.714 187,-143.3263 187,-133.5817"/>
<polygon fill="#9a32cd" stroke="#9a32cd" points="183.5001,-171.4005 187,-181.4005 190.5001,-171.4006 183.5001,-171.4005"/>
<text text-anchor="middle" x="207" y="-155" font-family="Helvetica,sans-Serif" font-size="10.00" fill="#000000"> m_field</text>
</g>
<!-- Node7 -->
<g id="node5" class="node">
<title>Node7</title>
<g id="a_node5"><a xlink:title="STL class. ">
<polygon fill="#ffffff" stroke="#bfbfbf" points="169.5,-410 169.5,-429 234.5,-429 234.5,-410 169.5,-410"/>
<text text-anchor="middle" x="202" y="-417" font-family="Helvetica,sans-Serif" font-size="10.00" fill="#000000">std::string</text>
</a>
</g>
</g>
<!-- Node7&#45;&gt;Node6 -->
<g id="edge4" class="edge">
<title>Node7&#45;&gt;Node6</title>
<path fill="none" stroke="#9a32cd" stroke-dasharray="5,2" d="M205.378,-399.6136C206.0222,-395.1469 206.6148,-390.4211 207,-386 213.0193,-316.9056 210.111,-299.3504 211,-230 211.0627,-225.1115 212.6962,-223.5852 211,-219 208.4233,-212.0345 203.254,-205.6324 198.3707,-200.7134"/>
<polygon fill="#9a32cd" stroke="#9a32cd" points="201.8624,-399.438 203.7587,-409.8618 208.7766,-400.5306 201.8624,-399.438"/>
<text text-anchor="middle" x="233" y="-294.5" font-family="Helvetica,sans-Serif" font-size="10.00" fill="#000000"> m_name</text>
</g>
<!-- Node10 -->
<g id="node8" class="node">
<title>Node10</title>
<polygon fill="#ffffff" stroke="#bfbfbf" points="74,-326.5 74,-356.5 196,-356.5 196,-326.5 74,-326.5"/>
<text text-anchor="start" x="82" y="-344.5" font-family="Helvetica,sans-Serif" font-size="10.00" fill="#000000">std::unordered_map</text>
<text text-anchor="middle" x="135" y="-333.5" font-family="Helvetica,sans-Serif" font-size="10.00" fill="#000000">&lt; std::string, size_t &gt;</text>
</g>
<!-- Node7&#45;&gt;Node10 -->
<g id="edge8" class="edge">
<title>Node7&#45;&gt;Node10</title>
<path fill="none" stroke="#9a32cd" stroke-dasharray="5,2" d="M188.5108,-401.5488C182.1619,-393.3112 174.3781,-383.5064 167,-375 161.6246,-368.8025 155.4527,-362.2255 149.9723,-356.5552"/>
<polygon fill="#9a32cd" stroke="#9a32cd" points="185.9049,-403.9038 194.7496,-409.7367 191.4728,-399.6613 185.9049,-403.9038"/>
<text text-anchor="middle" x="189.5" y="-378" font-family="Helvetica,sans-Serif" font-size="10.00" fill="#000000"> keys</text>
</g>
<!-- Node8 -->
<g id="node6" class="node">
<title>Node8</title>
<g id="a_node6"><a xlink:title="STL class. ">
<polygon fill="#ffffff" stroke="#bfbfbf" points="150,-482.5 150,-512.5 254,-512.5 254,-482.5 150,-482.5"/>
<text text-anchor="start" x="158" y="-500.5" font-family="Helvetica,sans-Serif" font-size="10.00" fill="#000000">std::basic_string&lt;</text>
<text text-anchor="middle" x="202" y="-489.5" font-family="Helvetica,sans-Serif" font-size="10.00" fill="#000000"> char &gt;</text>
</a>
</g>
</g>
<!-- Node8&#45;&gt;Node7 -->
<g id="edge5" class="edge">
<title>Node8&#45;&gt;Node7</title>
<path fill="none" stroke="#191970" d="M202,-472.3962C202,-457.6331 202,-439.8138 202,-429.0839"/>
<polygon fill="#191970" stroke="#191970" points="198.5001,-472.4608 202,-482.4608 205.5001,-472.4609 198.5001,-472.4608"/>
</g>
<!-- Node9 -->
<g id="node7" class="node">
<title>Node9</title>
<g id="a_node7"><a xlink:href="classamr__wind_1_1_field_repo.html" target="_top" xlink:title="Field RepositoryFieldRepo is a database that manages handling of fields used during a simulation...">
<polygon fill="#ffffff" stroke="#000000" points="81.5,-248.5 81.5,-267.5 198.5,-267.5 198.5,-248.5 81.5,-248.5"/>
<text text-anchor="middle" x="140" y="-255.5" font-family="Helvetica,sans-Serif" font-size="10.00" fill="#000000">amr_wind::FieldRepo</text>
</a>
</g>
</g>
<!-- Node9&#45;&gt;Node6 -->
<g id="edge6" class="edge">
<title>Node9&#45;&gt;Node6</title>
<path fill="none" stroke="#9a32cd" stroke-dasharray="5,2" d="M152.6407,-239.9803C161.5366,-227.2989 173.094,-210.8235 180.2785,-200.5817"/>
<polygon fill="#9a32cd" stroke="#9a32cd" points="149.6115,-238.2039 146.734,-248.4005 155.3421,-242.2239 149.6115,-238.2039"/>
<text text-anchor="middle" x="187" y="-222" font-family="Helvetica,sans-Serif" font-size="10.00" fill="#000000"> m_repo</text>
</g>
<!-- Node10&#45;&gt;Node9 -->
<g id="edge7" class="edge">
<title>Node10&#45;&gt;Node9</title>
<path fill="none" stroke="#9a32cd" stroke-dasharray="5,2" d="M134.7946,-316.3737C134.8894,-306.8477 135.2059,-295.9109 136,-286 136.4942,-279.8326 137.4709,-272.9533 138.3354,-267.5569"/>
<polygon fill="#9a32cd" stroke="#9a32cd" points="131.2946,-316.3904 134.7681,-326.3996 138.2946,-316.4089 131.2946,-316.3904"/>
<text text-anchor="middle" x="172.5" y="-300" font-family="Helvetica,sans-Serif" font-size="10.00" fill="#000000"> m_fid_map</text>
<text text-anchor="middle" x="172.5" y="-289" font-family="Helvetica,sans-Serif" font-size="10.00" fill="#000000">m_int_fid_map</text>
</g>
<!-- Node11 -->
<g id="node9" class="node">
<title>Node11</title>
<g id="a_node9"><a xlink:title="STL class. ">
<polygon fill="#ffffff" stroke="#bfbfbf" points="0,-404.5 0,-434.5 114,-434.5 114,-404.5 0,-404.5"/>
<text text-anchor="start" x="8" y="-422.5" font-family="Helvetica,sans-Serif" font-size="10.00" fill="#000000">std::unordered_map</text>
<text text-anchor="middle" x="57" y="-411.5" font-family="Helvetica,sans-Serif" font-size="10.00" fill="#000000">&lt; K, T &gt;</text>
</a>
</g>
</g>
<!-- Node11&#45;&gt;Node10 -->
<g id="edge9" class="edge">
<title>Node11&#45;&gt;Node10</title>
<path fill="none" stroke="#ffa500" stroke-dasharray="5,2" d="M49.9023,-394.1603C49.4104,-387.4738 50.272,-380.5761 54,-375 59.2439,-367.1565 66.6989,-361.1473 74.9863,-356.5439"/>
<polygon fill="#ffa500" stroke="#ffa500" points="46.4896,-394.9769 51.5718,-404.2733 53.3962,-393.8367 46.4896,-394.9769"/>
<text text-anchor="middle" x="108.5" y="-378" font-family="Helvetica,sans-Serif" font-size="10.00" fill="#000000"> &lt; std::string, size_t &gt;</text>
</g>
<!-- Node12 -->
<g id="node10" class="node">
<title>Node12</title>
<polygon fill="#ffffff" stroke="#bfbfbf" points="29.5,-488 29.5,-507 58.5,-507 58.5,-488 29.5,-488"/>
<text text-anchor="middle" x="44" y="-495" font-family="Helvetica,sans-Serif" font-size="10.00" fill="#000000">K</text>
</g>
<!-- Node12&#45;&gt;Node11 -->
<g id="edge10" class="edge">
<title>Node12&#45;&gt;Node11</title>
<path fill="none" stroke="#9a32cd" stroke-dasharray="5,2" d="M43.0903,-477.6032C43.0893,-469.8661 43.5243,-460.964 45,-453 46.1481,-446.8041 48.2863,-440.2273 50.4434,-434.5568"/>
<polygon fill="#9a32cd" stroke="#9a32cd" points="39.5973,-477.946 43.3331,-487.8604 46.5954,-477.7803 39.5973,-477.946"/>
<text text-anchor="middle" x="58.5" y="-456" font-family="Helvetica,sans-Serif" font-size="10.00" fill="#000000"> keys</text>
</g>
<!-- Node13 -->
<g id="node11" class="node">
<title>Node13</title>
<polygon fill="#ffffff" stroke="#bfbfbf" points="79.5,-488 79.5,-507 108.5,-507 108.5,-488 79.5,-488"/>
<text text-anchor="middle" x="94" y="-495" font-family="Helvetica,sans-Serif" font-size="10.00" fill="#000000">T</text>
</g>
<!-- Node13&#45;&gt;Node11 -->
<g id="edge11" class="edge">
<title>Node13&#45;&gt;Node11</title>
<path fill="none" stroke="#9a32cd" stroke-dasharray="5,2" d="M85.0685,-478.6714C78.6878,-465.2202 70.2117,-447.3517 64.2493,-434.7824"/>
<polygon fill="#9a32cd" stroke="#9a32cd" points="82.0149,-480.4007 89.4631,-487.9357 88.3394,-477.4006 82.0149,-480.4007"/>
<text text-anchor="middle" x="102.5" y="-456" font-family="Helvetica,sans-Serif" font-size="10.00" fill="#000000"> elements</text>
</g>
</g>
</svg>
