<?xml version="1.0" encoding="UTF-8" standalone="no"?>
<!DOCTYPE svg PUBLIC "-//W3C//DTD SVG 1.1//EN"
 "http://www.w3.org/Graphics/SVG/1.1/DTD/svg11.dtd">
<!-- Generated by graphviz version 2.40.1 (20161225.0304)
 -->
<!-- Title: amr_wind::Physics Pages: 1 -->
<svg width="183pt" height="174pt"
 viewBox="0.00 0.00 182.50 174.00" xmlns="http://www.w3.org/2000/svg" xmlns:xlink="http://www.w3.org/1999/xlink">
<g id="graph0" class="graph" transform="scale(1 1) rotate(0) translate(4 170)">
<title>amr_wind::Physics</title>
<polygon fill="#ffffff" stroke="transparent" points="-4,4 -4,-170 178.5,-170 178.5,4 -4,4"/>
<!-- Node0 -->
<g id="node1" class="node">
<title>Node0</title>
<polygon fill="#bfbfbf" stroke="#000000" points="6,-.5 6,-19.5 113,-19.5 113,-.5 6,-.5"/>
<text text-anchor="middle" x="59.5" y="-7.5" font-family="Helvetica,sans-Serif" font-size="10.00" fill="#000000">amr_wind::Physics</text>
</g>
<!-- Node1 -->
<g id="node2" class="node">
<title>Node1</title>
<g id="a_node2"><a xlink:href="structamr__wind_1_1_factory.html" target="_top" xlink:title="amr_wind::Factory\&lt;\l Physics, CFDSim &amp;\&gt;">
<polygon fill="#ffffff" stroke="#000000" points="0,-57.5 0,-87.5 119,-87.5 119,-57.5 0,-57.5"/>
<text text-anchor="start" x="8" y="-75.5" font-family="Helvetica,sans-Serif" font-size="10.00" fill="#000000">amr_wind::Factory&lt;</text>
<text text-anchor="middle" x="59.5" y="-64.5" font-family="Helvetica,sans-Serif" font-size="10.00" fill="#000000"> Physics, CFDSim &amp;&gt;</text>
</a>
</g>
</g>
<!-- Node1&#45;&gt;Node0 -->
<g id="edge1" class="edge">
<title>Node1&#45;&gt;Node0</title>
<path fill="none" stroke="#191970" d="M59.5,-47.3498C59.5,-37.6481 59.5,-27.1303 59.5,-19.7356"/>
<polygon fill="#191970" stroke="#191970" points="56.0001,-47.3705 59.5,-57.3705 63.0001,-47.3705 56.0001,-47.3705"/>
</g>
<!-- Node2 -->
<g id="node3" class="node">
<title>Node2</title>
<g id="a_node3"><a xlink:href="structamr__wind_1_1_factory.html" target="_top" xlink:title="Runtime selection of options based on string keyword lookupFactory provides an automated way to regis...">
<polygon fill="#ffffff" stroke="#000000" points="2.5,-135.5 2.5,-165.5 116.5,-165.5 116.5,-135.5 2.5,-135.5"/>
<text text-anchor="start" x="10.5" y="-153.5" font-family="Helvetica,sans-Serif" font-size="10.00" fill="#000000">amr_wind::Factory&lt;</text>
<text text-anchor="middle" x="59.5" y="-142.5" font-family="Helvetica,sans-Serif" font-size="10.00" fill="#000000"> Base, Args &gt;</text>
</a>
</g>
</g>
<!-- Node2&#45;&gt;Node1 -->
<g id="edge2" class="edge">
<title>Node2&#45;&gt;Node1</title>
<path fill="none" stroke="#ffa500" stroke-dasharray="5,2" d="M59.5,-125.2875C59.5,-112.9187 59.5,-98.4264 59.5,-87.7592"/>
<polygon fill="#ffa500" stroke="#ffa500" points="56.0001,-125.4608 59.5,-135.4608 63.0001,-125.4608 56.0001,-125.4608"/>
<text text-anchor="middle" x="117" y="-109" font-family="Helvetica,sans-Serif" font-size="10.00" fill="#000000"> &lt; Physics, CFDSim &amp;&gt;</text>
</g>
</g>
</svg>
