<?xml version="1.0" encoding="UTF-8" standalone="no"?>
<!DOCTYPE svg PUBLIC "-//W3C//DTD SVG 1.1//EN"
 "http://www.w3.org/Graphics/SVG/1.1/DTD/svg11.dtd">
<!-- Generated by graphviz version 2.40.1 (20161225.0304)
 -->
<!-- Title: amr_wind::turbulence::TurbModel&lt; Transport &gt; Pages: 1 -->
<!--zoomable 137 -->
<svg id="main" version="1.1" xmlns="http://www.w3.org/2000/svg" xmlns:xlink="http://www.w3.org/1999/xlink" xml:space="preserve" onload="init(evt)">
<style type="text/css"><![CDATA[
.edge:hover path { stroke: red; }
.edge:hover polygon { stroke: red; fill: red; }
]]></style>
<script type="text/javascript"><![CDATA[
var edges = document.getElementsByTagName('g');
if (edges && edges.length) {
  for (var i=0;i<edges.length;i++) {
    if (edges[i].id.substr(0,4)=='edge') {
      edges[i].setAttribute('class','edge');
    }
  }
}
]]></script>
        <defs>
                <circle id="rim" cx="0" cy="0" r="7"/>
                <circle id="rim2" cx="0" cy="0" r="3.5"/>
                <g id="zoomPlus">
                        <use xlink:href="#rim" fill="#404040">
                                <set attributeName="fill" to="#808080" begin="zoomplus.mouseover" end="zoomplus.mouseout"/>
                        </use>
                        <path d="M-4,0h8M0,-4v8" fill="none" stroke="white" stroke-width="1.5" pointer-events="none"/>
                </g>
                <g id="zoomMin">
                        <use xlink:href="#rim" fill="#404040">
                                <set attributeName="fill" to="#808080" begin="zoomminus.mouseover" end="zoomminus.mouseout"/>
                        </use>
                        <path d="M-4,0h8" fill="none" stroke="white" stroke-width="1.5" pointer-events="none"/>
                </g>
                <g id="dirArrow">
                        <path fill="none" stroke="white" stroke-width="1.5" d="M0,-3.0v7 M-2.5,-0.5L0,-3.0L2.5,-0.5"/>
                </g>
               <g id="resetDef">
                       <use xlink:href="#rim2" fill="#404040">
                               <set attributeName="fill" to="#808080" begin="reset.mouseover" end="reset.mouseout"/>
                       </use>
               </g>
        </defs>

<script type="text/javascript">
var viewWidth = 1366;
var viewHeight = 137;
var sectionId = 'dynsection-0';
</script>
<script xlink:href="svgpan.js"/>
<svg id="graph" class="graph">
<g id="viewport">
<title>amr_wind::turbulence::TurbModel&lt; Transport &gt;</title>
<polygon fill="#ffffff" stroke="transparent" points="-4,4 -4,-133 1362,-133 1362,4 -4,4"/>
<!-- Node0 -->
<g id="node1" class="node">
<title>Node0</title>
<polygon fill="#bfbfbf" stroke="#000000" points="610,-73.5 610,-103.5 750,-103.5 750,-73.5 610,-73.5"/>
<text text-anchor="start" x="618" y="-91.5" font-family="Helvetica,sans-Serif" font-size="10.00" fill="#000000">amr_wind::turbulence</text>
<text text-anchor="middle" x="680" y="-80.5" font-family="Helvetica,sans-Serif" font-size="10.00" fill="#000000">::TurbModel&lt; Transport &gt;</text>
</g>
<!-- Node4 -->
<g id="node5" class="node">
<title>Node4</title>
<g id="a_node5"><a xlink:href="classamr__wind_1_1turbulence_1_1_laminar.html" target="_top" xlink:title="Laminar modelImplementation of laminar flow model. ">
<polygon fill="#ffffff" stroke="#000000" points="804,-98.5 804,-128.5 934,-128.5 934,-98.5 804,-98.5"/>
<text text-anchor="start" x="812" y="-116.5" font-family="Helvetica,sans-Serif" font-size="10.00" fill="#000000">amr_wind::turbulence</text>
<text text-anchor="middle" x="869" y="-105.5" font-family="Helvetica,sans-Serif" font-size="10.00" fill="#000000">::Laminar&lt; Transport &gt;</text>
</a>
</g>
</g>
<!-- Node0&#45;&gt;Node4 -->
<g id="edge4" class="edge">
<title>Node0&#45;&gt;Node4</title>
<path fill="none" stroke="#191970" d="M760.086,-99.0934C774.6316,-101.0174 789.6437,-103.0031 803.7,-104.8624"/>
<polygon fill="#191970" stroke="#191970" points="760.4807,-95.6152 750.108,-97.7736 759.5627,-102.5547 760.4807,-95.6152"/>
</g>
<!-- Node5 -->
<g id="node6" class="node">
<title>Node5</title>
<g id="a_node6"><a xlink:href="classamr__wind_1_1turbulence_1_1_turb_model_base.html" target="_top" xlink:title="Turbulence model aspects common to both LES and RANS modelsThis class implements more of the common m...">
<polygon fill="#ffffff" stroke="#000000" points="787,-49.5 787,-79.5 951,-79.5 951,-49.5 787,-49.5"/>
<text text-anchor="start" x="795" y="-67.5" font-family="Helvetica,sans-Serif" font-size="10.00" fill="#000000">amr_wind::turbulence</text>
<text text-anchor="middle" x="869" y="-56.5" font-family="Helvetica,sans-Serif" font-size="10.00" fill="#000000">::TurbModelBase&lt; Transport &gt;</text>
</a>
</g>
</g>
<!-- Node0&#45;&gt;Node5 -->
<g id="edge5" class="edge">
<title>Node0&#45;&gt;Node5</title>
<path fill="none" stroke="#191970" d="M760.0408,-78.3361C768.9193,-77.2087 777.9722,-76.0591 786.876,-74.9284"/>
<polygon fill="#191970" stroke="#191970" points="759.5874,-74.8655 750.108,-79.5974 760.4693,-81.8097 759.5874,-74.8655"/>
</g>
<!-- Node1 -->
<g id="node2" class="node">
<title>Node1</title>
<g id="a_node2"><a xlink:href="classamr__wind_1_1turbulence_1_1_turbulence_model.html" target="_top" xlink:title="Abstract representation of a turbulence modelThis class is an abstract representation of a turbulence...">
<polygon fill="#ffffff" stroke="#000000" points="451,-73.5 451,-103.5 573,-103.5 573,-73.5 451,-73.5"/>
<text text-anchor="start" x="459" y="-91.5" font-family="Helvetica,sans-Serif" font-size="10.00" fill="#000000">amr_wind::turbulence</text>
<text text-anchor="middle" x="512" y="-80.5" font-family="Helvetica,sans-Serif" font-size="10.00" fill="#000000">::TurbulenceModel</text>
</a>
</g>
</g>
<!-- Node1&#45;&gt;Node0 -->
<g id="edge1" class="edge">
<title>Node1&#45;&gt;Node0</title>
<path fill="none" stroke="#191970" d="M583.3145,-88.5C592.0867,-88.5 601.0478,-88.5 609.8032,-88.5"/>
<polygon fill="#191970" stroke="#191970" points="583.1271,-85.0001 573.1271,-88.5 583.1271,-92.0001 583.1271,-85.0001"/>
</g>
<!-- Node2 -->
<g id="node3" class="node">
<title>Node2</title>
<g id="a_node3"><a xlink:href="structamr__wind_1_1_factory.html" target="_top" xlink:title="amr_wind::Factory\&lt;\l TurbulenceModel, CFDSim &amp;\&gt;">
<polygon fill="#ffffff" stroke="#000000" points="250,-73.5 250,-103.5 414,-103.5 414,-73.5 250,-73.5"/>
<text text-anchor="start" x="258" y="-91.5" font-family="Helvetica,sans-Serif" font-size="10.00" fill="#000000">amr_wind::Factory&lt;</text>
<text text-anchor="middle" x="332" y="-80.5" font-family="Helvetica,sans-Serif" font-size="10.00" fill="#000000"> TurbulenceModel, CFDSim &amp;&gt;</text>
</a>
</g>
</g>
<!-- Node2&#45;&gt;Node1 -->
<g id="edge2" class="edge">
<title>Node2&#45;&gt;Node1</title>
<path fill="none" stroke="#191970" d="M424.2405,-88.5C433.2288,-88.5 442.1873,-88.5 450.757,-88.5"/>
<polygon fill="#191970" stroke="#191970" points="424.0989,-85.0001 414.0989,-88.5 424.0989,-92.0001 424.0989,-85.0001"/>
</g>
<!-- Node3 -->
<g id="node4" class="node">
<title>Node3</title>
<g id="a_node4"><a xlink:href="structamr__wind_1_1_factory.html" target="_top" xlink:title="Runtime selection of options based on string keyword lookupFactory provides an automated way to regis...">
<polygon fill="#ffffff" stroke="#000000" points="0,-73.5 0,-103.5 114,-103.5 114,-73.5 0,-73.5"/>
<text text-anchor="start" x="8" y="-91.5" font-family="Helvetica,sans-Serif" font-size="10.00" fill="#000000">amr_wind::Factory&lt;</text>
<text text-anchor="middle" x="57" y="-80.5" font-family="Helvetica,sans-Serif" font-size="10.00" fill="#000000"> Base, Args &gt;</text>
</a>
</g>
</g>
<!-- Node3&#45;&gt;Node2 -->
<g id="edge3" class="edge">
<title>Node3&#45;&gt;Node2</title>
<path fill="none" stroke="#ffa500" stroke-dasharray="5,2" d="M124.7227,-88.5C162.5781,-88.5 210.0344,-88.5 249.983,-88.5"/>
<polygon fill="#ffa500" stroke="#ffa500" points="124.3143,-85.0001 114.3143,-88.5 124.3142,-92.0001 124.3143,-85.0001"/>
<text text-anchor="start" x="132" y="-102.5" font-family="Helvetica,sans-Serif" font-size="10.00" fill="#000000"> &lt; TurbulenceModel,</text>
<text text-anchor="middle" x="182" y="-91.5" font-family="Helvetica,sans-Serif" font-size="10.00" fill="#000000"> CFDSim &amp;&gt;</text>
</g>
<!-- Node6 -->
<g id="node7" class="node">
<title>Node6</title>
<g id="a_node7"><a xlink:href="classamr__wind_1_1turbulence_1_1_k_omega_s_s_t.html" target="_top" xlink:title="K&#45;Omega&#45;SST RANS turbulence model. ">
<polygon fill="#ffffff" stroke="#000000" points="990.5,-98.5 990.5,-128.5 1139.5,-128.5 1139.5,-98.5 990.5,-98.5"/>
<text text-anchor="start" x="998.5" y="-116.5" font-family="Helvetica,sans-Serif" font-size="10.00" fill="#000000">amr_wind::turbulence</text>
<text text-anchor="middle" x="1065" y="-105.5" font-family="Helvetica,sans-Serif" font-size="10.00" fill="#000000">::KOmegaSST&lt; Transport &gt;</text>
</a>
</g>
</g>
<!-- Node5&#45;&gt;Node6 -->
<g id="edge6" class="edge">
<title>Node5&#45;&gt;Node6</title>
<path fill="none" stroke="#191970" d="M938.9072,-81.9768C960.51,-87.3775 984.1021,-93.2755 1004.9753,-98.4938"/>
<polygon fill="#191970" stroke="#191970" points="939.6888,-78.5645 929.1385,-79.5346 937.991,-85.3555 939.6888,-78.5645"/>
</g>
<!-- Node8 -->
<g id="node9" class="node">
<title>Node8</title>
<g id="a_node9"><a xlink:href="classamr__wind_1_1turbulence_1_1_one_eq_ksgs.html" target="_top" xlink:title="Base class for 1&#45;Equation subgrid scale TKE turbulence model. ">
<polygon fill="#ffffff" stroke="#000000" points="992.5,-49.5 992.5,-79.5 1137.5,-79.5 1137.5,-49.5 992.5,-49.5"/>
<text text-anchor="start" x="1000.5" y="-67.5" font-family="Helvetica,sans-Serif" font-size="10.00" fill="#000000">amr_wind::turbulence</text>
<text text-anchor="middle" x="1065" y="-56.5" font-family="Helvetica,sans-Serif" font-size="10.00" fill="#000000">::OneEqKsgs&lt; Transport &gt;</text>
</a>
</g>
</g>
<!-- Node5&#45;&gt;Node8 -->
<g id="edge8" class="edge">
<title>Node5&#45;&gt;Node8</title>
<path fill="none" stroke="#191970" d="M961.5449,-64.5C971.8641,-64.5 982.2642,-64.5 992.2856,-64.5"/>
<polygon fill="#191970" stroke="#191970" points="961.2698,-61.0001 951.2697,-64.5 961.2697,-68.0001 961.2698,-61.0001"/>
</g>
<!-- Node11 -->
<g id="node12" class="node">
<title>Node11</title>
<g id="a_node12"><a xlink:href="classamr__wind_1_1turbulence_1_1_smagorinsky.html" target="_top" xlink:title="Smagorinsky LES Model. ">
<polygon fill="#ffffff" stroke="#000000" points="988,-.5 988,-30.5 1142,-30.5 1142,-.5 988,-.5"/>
<text text-anchor="start" x="996" y="-18.5" font-family="Helvetica,sans-Serif" font-size="10.00" fill="#000000">amr_wind::turbulence</text>
<text text-anchor="middle" x="1065" y="-7.5" font-family="Helvetica,sans-Serif" font-size="10.00" fill="#000000">::Smagorinsky&lt; Transport &gt;</text>
</a>
</g>
</g>
<!-- Node5&#45;&gt;Node11 -->
<g id="edge11" class="edge">
<title>Node5&#45;&gt;Node11</title>
<path fill="none" stroke="#191970" d="M938.9072,-47.0232C960.51,-41.6225 984.1021,-35.7245 1004.9753,-30.5062"/>
<polygon fill="#191970" stroke="#191970" points="937.991,-43.6445 929.1385,-49.4654 939.6888,-50.4355 937.991,-43.6445"/>
</g>
<!-- Node7 -->
<g id="node8" class="node">
<title>Node7</title>
<g id="a_node8"><a xlink:href="classamr__wind_1_1turbulence_1_1_k_omega_s_s_t_i_d_d_e_s.html" target="_top" xlink:title="K&#45;Omega&#45;SST&#45;IDDES Hybrid RANS/LES turbulence model. ">
<polygon fill="#ffffff" stroke="#000000" points="1179,-98.5 1179,-128.5 1358,-128.5 1358,-98.5 1179,-98.5"/>
<text text-anchor="start" x="1187" y="-116.5" font-family="Helvetica,sans-Serif" font-size="10.00" fill="#000000">amr_wind::turbulence</text>
<text text-anchor="middle" x="1268.5" y="-105.5" font-family="Helvetica,sans-Serif" font-size="10.00" fill="#000000">::KOmegaSSTIDDES&lt; Transport &gt;</text>
</a>
</g>
</g>
<!-- Node6&#45;&gt;Node7 -->
<g id="edge7" class="edge">
<title>Node6&#45;&gt;Node7</title>
<path fill="none" stroke="#191970" d="M1149.8569,-113.5C1159.3792,-113.5 1169.1045,-113.5 1178.6866,-113.5"/>
<polygon fill="#191970" stroke="#191970" points="1149.6204,-110.0001 1139.6204,-113.5 1149.6203,-117.0001 1149.6204,-110.0001"/>
</g>
<!-- Node9 -->
<g id="node10" class="node">
<title>Node9</title>
<g id="a_node10"><a xlink:href="classamr__wind_1_1turbulence_1_1_one_eq_ksgs_m84.html" target="_top" xlink:title="1&#45;equation subgrid scale TKE turbulence modelImplements the model described in Moeng 1984 paper ...">
<polygon fill="#ffffff" stroke="#000000" points="1186,-49.5 1186,-79.5 1351,-79.5 1351,-49.5 1186,-49.5"/>
<text text-anchor="start" x="1194" y="-67.5" font-family="Helvetica,sans-Serif" font-size="10.00" fill="#000000">amr_wind::turbulence</text>
<text text-anchor="middle" x="1268.5" y="-56.5" font-family="Helvetica,sans-Serif" font-size="10.00" fill="#000000">::OneEqKsgsM84&lt; Transport &gt;</text>
</a>
</g>
</g>
<!-- Node8&#45;&gt;Node9 -->
<g id="edge9" class="edge">
<title>Node8&#45;&gt;Node9</title>
<path fill="none" stroke="#191970" d="M1147.6205,-64.5C1160.2355,-64.5 1173.2575,-64.5 1185.8726,-64.5"/>
<polygon fill="#191970" stroke="#191970" points="1147.6064,-61.0001 1137.6063,-64.5 1147.6063,-68.0001 1147.6064,-61.0001"/>
</g>
<!-- Node10 -->
<g id="node11" class="node">
<title>Node10</title>
<g id="a_node11"><a xlink:href="classamr__wind_1_1turbulence_1_1_one_eq_ksgs_s94.html" target="_top" xlink:title="1&#45;equation subgrid scale TKE turbulence modelImplements the model described in Sullivan 1994 paper ...">
<polygon fill="#ffffff" stroke="#000000" points="1187,-.5 1187,-30.5 1350,-30.5 1350,-.5 1187,-.5"/>
<text text-anchor="start" x="1195" y="-18.5" font-family="Helvetica,sans-Serif" font-size="10.00" fill="#000000">amr_wind::turbulence</text>
<text text-anchor="middle" x="1268.5" y="-7.5" font-family="Helvetica,sans-Serif" font-size="10.00" fill="#000000">::OneEqKsgsS94&lt; Transport &gt;</text>
</a>
</g>
</g>
<!-- Node8&#45;&gt;Node10 -->
<g id="edge10" class="edge">
<title>Node8&#45;&gt;Node10</title>
<path fill="none" stroke="#191970" d="M1137.2792,-47.0962C1159.7909,-41.6757 1184.4089,-35.748 1206.1784,-30.5062"/>
<polygon fill="#191970" stroke="#191970" points="1136.3425,-43.7216 1127.4397,-49.4654 1137.9812,-50.5271 1136.3425,-43.7216"/>
</g>
</g>
</svg>
        <g id="navigator" transform="translate(0 0)" fill="#404254">
                <rect fill="#f2f5e9" fill-opacity="0.5" stroke="#606060" stroke-width=".5" x="0" y="0" width="60" height="60"/>
                <use id="zoomplus" xlink:href="#zoomPlus" x="17" y="9" onmousedown="handleZoom(evt,'in')"/>
                <use id="zoomminus" xlink:href="#zoomMin" x="42" y="9" onmousedown="handleZoom(evt,'out')"/>
                <use id="reset" xlink:href="#resetDef" x="30" y="36" onmousedown="handleReset()"/>
                <g id="arrowUp" xlink:href="#dirArrow" transform="translate(30 24)" onmousedown="handlePan(0,-1)">
                  <use xlink:href="#rim" fill="#404040">
                        <set attributeName="fill" to="#808080" begin="arrowUp.mouseover" end="arrowUp.mouseout"/>
                  </use>
                  <path fill="none" stroke="white" stroke-width="1.5" d="M0,-3.0v7 M-2.5,-0.5L0,-3.0L2.5,-0.5"/>
                </g>
                <g id="arrowRight" xlink:href="#dirArrow" transform="rotate(90) translate(36 -43)" onmousedown="handlePan(1,0)">
                  <use xlink:href="#rim" fill="#404040">
                        <set attributeName="fill" to="#808080" begin="arrowRight.mouseover" end="arrowRight.mouseout"/>
                  </use>
                  <path fill="none" stroke="white" stroke-width="1.5" d="M0,-3.0v7 M-2.5,-0.5L0,-3.0L2.5,-0.5"/>
                </g>
                <g id="arrowDown" xlink:href="#dirArrow" transform="rotate(180) translate(-30 -48)" onmousedown="handlePan(0,1)">
                  <use xlink:href="#rim" fill="#404040">
                        <set attributeName="fill" to="#808080" begin="arrowDown.mouseover" end="arrowDown.mouseout"/>
                  </use>
                  <path fill="none" stroke="white" stroke-width="1.5" d="M0,-3.0v7 M-2.5,-0.5L0,-3.0L2.5,-0.5"/>
                </g>
                <g id="arrowLeft" xlink:href="#dirArrow" transform="rotate(270) translate(-36 17)" onmousedown="handlePan(-1,0)">
                  <use xlink:href="#rim" fill="#404040">
                        <set attributeName="fill" to="#808080" begin="arrowLeft.mouseover" end="arrowLeft.mouseout"/>
                  </use>
                  <path fill="none" stroke="white" stroke-width="1.5" d="M0,-3.0v7 M-2.5,-0.5L0,-3.0L2.5,-0.5"/>
                </g>
        </g>
        <svg viewBox="0 0 15 15" width="100%" height="30px" preserveAspectRatio="xMaxYMin meet">
         <g id="arrow_out" transform="scale(0.3 0.3)">
          <a xlink:href="classamr__wind_1_1turbulence_1_1_turb_model__inherit__graph_org.svg" target="_base">
           <rect id="button" ry="5" rx="5" y="6" x="6" height="38" width="38"
                fill="#f2f5e9" fill-opacity="0.5" stroke="#606060" stroke-width="1.0"/>
           <path id="arrow"
             d="M 11.500037,31.436501 C 11.940474,20.09759 22.043105,11.32322 32.158766,21.979434 L 37.068811,17.246167 C 37.068811,17.246167 37.088388,32 37.088388,32 L 22.160133,31.978069 C 22.160133,31.978069 26.997745,27.140456 26.997745,27.140456 C 18.528582,18.264221 13.291696,25.230495 11.500037,31.436501 z"
             style="fill:#404040;"/>
          </a>
         </g>
        </svg>
</svg>
