<?xml version="1.0" encoding="UTF-8" standalone="no"?>
<!DOCTYPE svg PUBLIC "-//W3C//DTD SVG 1.1//EN"
 "http://www.w3.org/Graphics/SVG/1.1/DTD/svg11.dtd">
<!-- Generated by graphviz version 2.40.1 (20161225.0304)
 -->
<!-- Title: amr_wind::ExtSolverMgr Pages: 1 -->
<svg width="1280pt" height="116pt"
 viewBox="0.00 0.00 1280.00 115.50" xmlns="http://www.w3.org/2000/svg" xmlns:xlink="http://www.w3.org/1999/xlink">
<g id="graph0" class="graph" transform="scale(1 1) rotate(0) translate(4 111.5)">
<title>amr_wind::ExtSolverMgr</title>
<polygon fill="#ffffff" stroke="transparent" points="-4,4 -4,-111.5 1276,-111.5 1276,4 -4,4"/>
<!-- Node3 -->
<g id="node1" class="node">
<title>Node3</title>
<polygon fill="#bfbfbf" stroke="#000000" points="1137,-60.5 1137,-79.5 1272,-79.5 1272,-60.5 1137,-60.5"/>
<text text-anchor="middle" x="1204.5" y="-67.5" font-family="Helvetica,sans-Serif" font-size="10.00" fill="#000000">amr_wind::ExtSolverMgr</text>
</g>
<!-- Node4 -->
<g id="node2" class="node">
<title>Node4</title>
<g id="a_node2"><a xlink:href="classamr__wind_1_1_coll_mgr.html" target="_top" xlink:title="amr_wind::CollMgr\&lt;\l ExtSolverMgr, ExtSolver \&gt;">
<polygon fill="#ffffff" stroke="#000000" points="952,-55 952,-85 1100,-85 1100,-55 952,-55"/>
<text text-anchor="start" x="960" y="-73" font-family="Helvetica,sans-Serif" font-size="10.00" fill="#000000">amr_wind::CollMgr&lt;</text>
<text text-anchor="middle" x="1026" y="-62" font-family="Helvetica,sans-Serif" font-size="10.00" fill="#000000"> ExtSolverMgr, ExtSolver &gt;</text>
</a>
</g>
</g>
<!-- Node4&#45;&gt;Node3 -->
<g id="edge1" class="edge">
<title>Node4&#45;&gt;Node3</title>
<path fill="none" stroke="#191970" d="M1110.1956,-70C1119.1363,-70 1128.1448,-70 1136.8607,-70"/>
<polygon fill="#191970" stroke="#191970" points="1110.1494,-66.5001 1100.1493,-70 1110.1493,-73.5001 1110.1494,-66.5001"/>
</g>
<!-- Node5 -->
<g id="node3" class="node">
<title>Node5</title>
<polygon fill="#ffffff" stroke="#bfbfbf" points="433,-55 433,-85 547,-85 547,-55 433,-55"/>
<text text-anchor="start" x="441" y="-73" font-family="Helvetica,sans-Serif" font-size="10.00" fill="#000000">std::unordered_map</text>
<text text-anchor="middle" x="490" y="-62" font-family="Helvetica,sans-Serif" font-size="10.00" fill="#000000">&lt; std::string, int &gt;</text>
</g>
<!-- Node5&#45;&gt;Node4 -->
<g id="edge2" class="edge">
<title>Node5&#45;&gt;Node4</title>
<path fill="none" stroke="#9a32cd" stroke-dasharray="5,2" d="M557.3543,-73.7355C559.9355,-73.8332 562.4911,-73.922 565,-74 728.9233,-79.0941 770.0845,-81.3394 934,-76 939.7592,-75.8124 945.7179,-75.5589 951.7062,-75.2618"/>
<polygon fill="#9a32cd" stroke="#9a32cd" points="557.4532,-70.2367 547.3168,-73.3195 557.1632,-77.2307 557.4532,-70.2367"/>
<text text-anchor="middle" x="708.5" y="-82" font-family="Helvetica,sans-Serif" font-size="10.00" fill="#000000"> m_obj_map</text>
</g>
<!-- Node11 -->
<g id="node9" class="node">
<title>Node11</title>
<g id="a_node9"><a xlink:href="classamr__wind_1_1_coll_mgr.html" target="_top" xlink:title="Interface to manage objects of sub&#45;classes based on factory registrationProvides boiler&#45;plate code to...">
<polygon fill="#ffffff" stroke="#000000" points="644,-20.5 644,-61.5 773,-61.5 773,-20.5 644,-20.5"/>
<text text-anchor="start" x="652" y="-49.5" font-family="Helvetica,sans-Serif" font-size="10.00" fill="#000000">amr_wind::CollMgr&lt;</text>
<text text-anchor="start" x="652" y="-38.5" font-family="Helvetica,sans-Serif" font-size="10.00" fill="#000000"> Collection, Type, allow</text>
<text text-anchor="middle" x="708.5" y="-27.5" font-family="Helvetica,sans-Serif" font-size="10.00" fill="#000000">_duplicates &gt;</text>
</a>
</g>
</g>
<!-- Node5&#45;&gt;Node11 -->
<g id="edge9" class="edge">
<title>Node5&#45;&gt;Node11</title>
<path fill="none" stroke="#9a32cd" stroke-dasharray="5,2" d="M557.0979,-61.0946C584.7391,-57.4259 616.6323,-53.193 643.9973,-49.561"/>
<polygon fill="#9a32cd" stroke="#9a32cd" points="556.5754,-57.6331 547.1229,-62.4185 557.4965,-64.5723 556.5754,-57.6331"/>
<text text-anchor="middle" x="595.5" y="-62" font-family="Helvetica,sans-Serif" font-size="10.00" fill="#000000"> m_obj_map</text>
</g>
<!-- Node6 -->
<g id="node4" class="node">
<title>Node6</title>
<g id="a_node4"><a xlink:title="STL class. ">
<polygon fill="#ffffff" stroke="#bfbfbf" points="213.5,-82.5 213.5,-101.5 278.5,-101.5 278.5,-82.5 213.5,-82.5"/>
<text text-anchor="middle" x="246" y="-89.5" font-family="Helvetica,sans-Serif" font-size="10.00" fill="#000000">std::string</text>
</a>
</g>
</g>
<!-- Node6&#45;&gt;Node5 -->
<g id="edge3" class="edge">
<title>Node6&#45;&gt;Node5</title>
<path fill="none" stroke="#9a32cd" stroke-dasharray="5,2" d="M288.8654,-88.1351C328.8328,-84.5315 388.731,-79.1308 432.7706,-75.16"/>
<polygon fill="#9a32cd" stroke="#9a32cd" points="288.299,-84.6719 278.6537,-89.0558 288.9277,-91.6436 288.299,-84.6719"/>
<text text-anchor="middle" x="368" y="-87" font-family="Helvetica,sans-Serif" font-size="10.00" fill="#000000"> keys</text>
</g>
<!-- Node7 -->
<g id="node5" class="node">
<title>Node7</title>
<g id="a_node5"><a xlink:title="STL class. ">
<polygon fill="#ffffff" stroke="#bfbfbf" points="0,-77 0,-107 104,-107 104,-77 0,-77"/>
<text text-anchor="start" x="8" y="-95" font-family="Helvetica,sans-Serif" font-size="10.00" fill="#000000">std::basic_string&lt;</text>
<text text-anchor="middle" x="52" y="-84" font-family="Helvetica,sans-Serif" font-size="10.00" fill="#000000"> char &gt;</text>
</a>
</g>
</g>
<!-- Node7&#45;&gt;Node6 -->
<g id="edge4" class="edge">
<title>Node7&#45;&gt;Node6</title>
<path fill="none" stroke="#191970" d="M114.2675,-92C147.2713,-92 186.4557,-92 213.4613,-92"/>
<polygon fill="#191970" stroke="#191970" points="114.2437,-88.5001 104.2436,-92 114.2436,-95.5001 114.2437,-88.5001"/>
</g>
<!-- Node8 -->
<g id="node6" class="node">
<title>Node8</title>
<g id="a_node6"><a xlink:title="STL class. ">
<polygon fill="#ffffff" stroke="#bfbfbf" points="189,-33 189,-63 303,-63 303,-33 189,-33"/>
<text text-anchor="start" x="197" y="-51" font-family="Helvetica,sans-Serif" font-size="10.00" fill="#000000">std::unordered_map</text>
<text text-anchor="middle" x="246" y="-40" font-family="Helvetica,sans-Serif" font-size="10.00" fill="#000000">&lt; K, T &gt;</text>
</a>
</g>
</g>
<!-- Node8&#45;&gt;Node5 -->
<g id="edge5" class="edge">
<title>Node8&#45;&gt;Node5</title>
<path fill="none" stroke="#ffa500" stroke-dasharray="5,2" d="M313.384,-53.2153C344.3531,-55.7064 381.5574,-58.8316 415,-62 420.736,-62.5434 426.7158,-63.1364 432.6862,-63.7458"/>
<polygon fill="#ffa500" stroke="#ffa500" points="313.3822,-49.7041 303.135,-52.3957 312.8241,-56.6818 313.3822,-49.7041"/>
<text text-anchor="middle" x="368" y="-65" font-family="Helvetica,sans-Serif" font-size="10.00" fill="#000000"> &lt; std::string, int &gt;</text>
</g>
<!-- Node9 -->
<g id="node7" class="node">
<title>Node9</title>
<polygon fill="#ffffff" stroke="#bfbfbf" points="37.5,-38.5 37.5,-57.5 66.5,-57.5 66.5,-38.5 37.5,-38.5"/>
<text text-anchor="middle" x="52" y="-45.5" font-family="Helvetica,sans-Serif" font-size="10.00" fill="#000000">K</text>
</g>
<!-- Node9&#45;&gt;Node8 -->
<g id="edge6" class="edge">
<title>Node9&#45;&gt;Node8</title>
<path fill="none" stroke="#9a32cd" stroke-dasharray="5,2" d="M76.7174,-48C104.8185,-48 151.6251,-48 188.9063,-48"/>
<polygon fill="#9a32cd" stroke="#9a32cd" points="76.5816,-44.5001 66.5815,-48 76.5815,-51.5001 76.5816,-44.5001"/>
<text text-anchor="middle" x="146.5" y="-51" font-family="Helvetica,sans-Serif" font-size="10.00" fill="#000000"> keys</text>
</g>
<!-- Node10 -->
<g id="node8" class="node">
<title>Node10</title>
<polygon fill="#ffffff" stroke="#bfbfbf" points="37.5,-.5 37.5,-19.5 66.5,-19.5 66.5,-.5 37.5,-.5"/>
<text text-anchor="middle" x="52" y="-7.5" font-family="Helvetica,sans-Serif" font-size="10.00" fill="#000000">T</text>
</g>
<!-- Node10&#45;&gt;Node8 -->
<g id="edge7" class="edge">
<title>Node10&#45;&gt;Node8</title>
<path fill="none" stroke="#9a32cd" stroke-dasharray="5,2" d="M76.7019,-14.726C100.7764,-19.3434 138.4137,-26.5923 171,-33 176.7328,-34.1273 182.7106,-35.3102 188.6797,-36.4963"/>
<polygon fill="#9a32cd" stroke="#9a32cd" points="77.142,-11.2467 66.662,-12.8022 75.8246,-18.1217 77.142,-11.2467"/>
<text text-anchor="middle" x="146.5" y="-36" font-family="Helvetica,sans-Serif" font-size="10.00" fill="#000000"> elements</text>
</g>
<!-- Node11&#45;&gt;Node4 -->
<g id="edge8" class="edge">
<title>Node11&#45;&gt;Node4</title>
<path fill="none" stroke="#ffa500" stroke-dasharray="5,2" d="M783.3926,-47.8406C834.188,-52.4802 901.0494,-58.5872 951.7158,-63.215"/>
<polygon fill="#ffa500" stroke="#ffa500" points="783.4105,-44.3277 773.1336,-46.9035 782.7737,-51.2987 783.4105,-44.3277"/>
<text text-anchor="middle" x="862.5" y="-64" font-family="Helvetica,sans-Serif" font-size="10.00" fill="#000000"> &lt; ExtSolverMgr, ExtSolver &gt;</text>
</g>
</g>
</svg>
