<?xml version="1.0" encoding="UTF-8" standalone="no"?>
<!DOCTYPE svg PUBLIC "-//W3C//DTD SVG 1.1//EN"
 "http://www.w3.org/Graphics/SVG/1.1/DTD/svg11.dtd">
<!-- Generated by graphviz version 2.40.1 (20161225.0304)
 -->
<!-- Title: amr_wind::actuator::ActModel&lt; ActTrait, SrcTrait &gt; Pages: 1 -->
<!--zoomable 170 -->
<svg id="main" version="1.1" xmlns="http://www.w3.org/2000/svg" xmlns:xlink="http://www.w3.org/1999/xlink" xml:space="preserve" onload="init(evt)">
<style type="text/css"><![CDATA[
.edge:hover path { stroke: red; }
.edge:hover polygon { stroke: red; fill: red; }
]]></style>
<script type="text/javascript"><![CDATA[
var edges = document.getElementsByTagName('g');
if (edges && edges.length) {
  for (var i=0;i<edges.length;i++) {
    if (edges[i].id.substr(0,4)=='edge') {
      edges[i].setAttribute('class','edge');
    }
  }
}
]]></script>
        <defs>
                <circle id="rim" cx="0" cy="0" r="7"/>
                <circle id="rim2" cx="0" cy="0" r="3.5"/>
                <g id="zoomPlus">
                        <use xlink:href="#rim" fill="#404040">
                                <set attributeName="fill" to="#808080" begin="zoomplus.mouseover" end="zoomplus.mouseout"/>
                        </use>
                        <path d="M-4,0h8M0,-4v8" fill="none" stroke="white" stroke-width="1.5" pointer-events="none"/>
                </g>
                <g id="zoomMin">
                        <use xlink:href="#rim" fill="#404040">
                                <set attributeName="fill" to="#808080" begin="zoomminus.mouseover" end="zoomminus.mouseout"/>
                        </use>
                        <path d="M-4,0h8" fill="none" stroke="white" stroke-width="1.5" pointer-events="none"/>
                </g>
                <g id="dirArrow">
                        <path fill="none" stroke="white" stroke-width="1.5" d="M0,-3.0v7 M-2.5,-0.5L0,-3.0L2.5,-0.5"/>
                </g>
               <g id="resetDef">
                       <use xlink:href="#rim2" fill="#404040">
                               <set attributeName="fill" to="#808080" begin="reset.mouseover" end="reset.mouseout"/>
                       </use>
               </g>
        </defs>

<script type="text/javascript">
var viewWidth = 670;
var viewHeight = 170;
var sectionId = 'dynsection-1';
</script>
<script xlink:href="svgpan.js"/>
<svg id="graph" class="graph">
<g id="viewport">
<title>amr_wind::actuator::ActModel&lt; ActTrait, SrcTrait &gt;</title>
<polygon fill="#ffffff" stroke="transparent" points="-4,4 -4,-166 666,-166 666,4 -4,4"/>
<!-- Node2 -->
<g id="node1" class="node">
<title>Node2</title>
<polygon fill="#bfbfbf" stroke="#000000" points="543,-60.5 543,-101.5 662,-101.5 662,-60.5 543,-60.5"/>
<text text-anchor="start" x="551" y="-89.5" font-family="Helvetica,sans-Serif" font-size="10.00" fill="#000000">amr_wind::actuator</text>
<text text-anchor="start" x="551" y="-78.5" font-family="Helvetica,sans-Serif" font-size="10.00" fill="#000000">::ActModel&lt; ActTrait,</text>
<text text-anchor="middle" x="602.5" y="-67.5" font-family="Helvetica,sans-Serif" font-size="10.00" fill="#000000"> SrcTrait &gt;</text>
</g>
<!-- Node3 -->
<g id="node2" class="node">
<title>Node3</title>
<polygon fill="#ffffff" stroke="#bfbfbf" points="318,-120.5 318,-161.5 451,-161.5 451,-120.5 318,-120.5"/>
<text text-anchor="start" x="326" y="-149.5" font-family="Helvetica,sans-Serif" font-size="10.00" fill="#000000">ActuatorModel::Register</text>
<text text-anchor="start" x="326" y="-138.5" font-family="Helvetica,sans-Serif" font-size="10.00" fill="#000000">&lt; ActModel&lt; ActTrait,</text>
<text text-anchor="middle" x="384.5" y="-127.5" font-family="Helvetica,sans-Serif" font-size="10.00" fill="#000000"> SrcTrait &gt; &gt;</text>
</g>
<!-- Node3&#45;&gt;Node2 -->
<g id="edge1" class="edge">
<title>Node3&#45;&gt;Node2</title>
<path fill="none" stroke="#191970" d="M460.8659,-119.9819C487.7926,-112.5708 517.6463,-104.3542 542.9756,-97.3829"/>
<polygon fill="#191970" stroke="#191970" points="459.8044,-116.6438 451.0917,-122.672 461.662,-123.3928 459.8044,-116.6438"/>
</g>
<!-- Node4 -->
<g id="node3" class="node">
<title>Node4</title>
<g id="a_node3"><a xlink:href="structamr__wind_1_1actuator_1_1ops_1_1_process_outputs_op.html" target="_top" xlink:title="amr_wind::actuator\l::ops::ProcessOutputsOp\l\&lt; ActTrait, SrcTrait \&gt;">
<polygon fill="#ffffff" stroke="#000000" points="317,-60.5 317,-101.5 452,-101.5 452,-60.5 317,-60.5"/>
<text text-anchor="start" x="325" y="-89.5" font-family="Helvetica,sans-Serif" font-size="10.00" fill="#000000">amr_wind::actuator</text>
<text text-anchor="start" x="325" y="-78.5" font-family="Helvetica,sans-Serif" font-size="10.00" fill="#000000">::ops::ProcessOutputsOp</text>
<text text-anchor="middle" x="384.5" y="-67.5" font-family="Helvetica,sans-Serif" font-size="10.00" fill="#000000">&lt; ActTrait, SrcTrait &gt;</text>
</a>
</g>
</g>
<!-- Node4&#45;&gt;Node2 -->
<g id="edge2" class="edge">
<title>Node4&#45;&gt;Node2</title>
<path fill="none" stroke="#9a32cd" stroke-dasharray="5,2" d="M462.2972,-81C488.8119,-81 518.0167,-81 542.8765,-81"/>
<polygon fill="#9a32cd" stroke="#9a32cd" points="462.2816,-77.5001 452.2816,-81 462.2815,-84.5001 462.2816,-77.5001"/>
<text text-anchor="middle" x="499" y="-84" font-family="Helvetica,sans-Serif" font-size="10.00" fill="#000000"> m_out_op</text>
</g>
<!-- Node5 -->
<g id="node4" class="node">
<title>Node5</title>
<g id="a_node4"><a xlink:href="structamr__wind_1_1actuator_1_1ops_1_1_process_outputs_op.html" target="_top" xlink:title="amr_wind::actuator\l::ops::ProcessOutputsOp\l\&lt; ActTrait, SrcTrait, typename \&gt;">
<polygon fill="#ffffff" stroke="#000000" points="0,-60.5 0,-101.5 173,-101.5 173,-60.5 0,-60.5"/>
<text text-anchor="start" x="8" y="-89.5" font-family="Helvetica,sans-Serif" font-size="10.00" fill="#000000">amr_wind::actuator</text>
<text text-anchor="start" x="8" y="-78.5" font-family="Helvetica,sans-Serif" font-size="10.00" fill="#000000">::ops::ProcessOutputsOp</text>
<text text-anchor="middle" x="86.5" y="-67.5" font-family="Helvetica,sans-Serif" font-size="10.00" fill="#000000">&lt; ActTrait, SrcTrait, typename &gt;</text>
</a>
</g>
</g>
<!-- Node5&#45;&gt;Node4 -->
<g id="edge3" class="edge">
<title>Node5&#45;&gt;Node4</title>
<path fill="none" stroke="#ffa500" stroke-dasharray="5,2" d="M183.1457,-81C226.728,-81 277.1568,-81 316.6448,-81"/>
<polygon fill="#ffa500" stroke="#ffa500" points="183.0943,-77.5001 173.0942,-81 183.0942,-84.5001 183.0943,-77.5001"/>
<text text-anchor="middle" x="243.5" y="-84" font-family="Helvetica,sans-Serif" font-size="10.00" fill="#000000"> &lt; ActTrait, SrcTrait &gt;</text>
</g>
<!-- Node6 -->
<g id="node5" class="node">
<title>Node6</title>
<g id="a_node5"><a xlink:href="classamr__wind_1_1actuator_1_1ops_1_1_act_src_op.html" target="_top" xlink:title="amr_wind::actuator\l::ops::ActSrcOp\&lt; ActTrait,\l SrcTrait \&gt;">
<polygon fill="#ffffff" stroke="#000000" points="314,-.5 314,-41.5 455,-41.5 455,-.5 314,-.5"/>
<text text-anchor="start" x="322" y="-29.5" font-family="Helvetica,sans-Serif" font-size="10.00" fill="#000000">amr_wind::actuator</text>
<text text-anchor="start" x="322" y="-18.5" font-family="Helvetica,sans-Serif" font-size="10.00" fill="#000000">::ops::ActSrcOp&lt; ActTrait,</text>
<text text-anchor="middle" x="384.5" y="-7.5" font-family="Helvetica,sans-Serif" font-size="10.00" fill="#000000"> SrcTrait &gt;</text>
</a>
</g>
</g>
<!-- Node6&#45;&gt;Node2 -->
<g id="edge4" class="edge">
<title>Node6&#45;&gt;Node2</title>
<path fill="none" stroke="#9a32cd" stroke-dasharray="5,2" d="M465.007,-43.1579C490.7155,-50.2336 518.6984,-57.9353 542.6681,-64.5325"/>
<polygon fill="#9a32cd" stroke="#9a32cd" points="465.8486,-39.7595 455.2784,-40.4803 463.9911,-46.5085 465.8486,-39.7595"/>
<text text-anchor="middle" x="499" y="-61" font-family="Helvetica,sans-Serif" font-size="10.00" fill="#000000"> m_src_op</text>
</g>
<!-- Node7 -->
<g id="node6" class="node">
<title>Node7</title>
<g id="a_node6"><a xlink:href="classamr__wind_1_1actuator_1_1ops_1_1_act_src_op.html" target="_top" xlink:title="Compute source term for the momentum equation. ">
<polygon fill="#ffffff" stroke="#000000" points="16,-.5 16,-41.5 157,-41.5 157,-.5 16,-.5"/>
<text text-anchor="start" x="24" y="-29.5" font-family="Helvetica,sans-Serif" font-size="10.00" fill="#000000">amr_wind::actuator</text>
<text text-anchor="start" x="24" y="-18.5" font-family="Helvetica,sans-Serif" font-size="10.00" fill="#000000">::ops::ActSrcOp&lt; ActTrait,</text>
<text text-anchor="middle" x="86.5" y="-7.5" font-family="Helvetica,sans-Serif" font-size="10.00" fill="#000000"> SrcTrait, typename &gt;</text>
</a>
</g>
</g>
<!-- Node7&#45;&gt;Node6 -->
<g id="edge5" class="edge">
<title>Node7&#45;&gt;Node6</title>
<path fill="none" stroke="#ffa500" stroke-dasharray="5,2" d="M167.3144,-21C213.1108,-21 269.8641,-21 313.8693,-21"/>
<polygon fill="#ffa500" stroke="#ffa500" points="167.1219,-17.5001 157.1218,-21 167.1218,-24.5001 167.1219,-17.5001"/>
<text text-anchor="middle" x="243.5" y="-24" font-family="Helvetica,sans-Serif" font-size="10.00" fill="#000000"> &lt; ActTrait, SrcTrait &gt;</text>
</g>
</g>
</svg>
        <g id="navigator" transform="translate(0 0)" fill="#404254">
                <rect fill="#f2f5e9" fill-opacity="0.5" stroke="#606060" stroke-width=".5" x="0" y="0" width="60" height="60"/>
                <use id="zoomplus" xlink:href="#zoomPlus" x="17" y="9" onmousedown="handleZoom(evt,'in')"/>
                <use id="zoomminus" xlink:href="#zoomMin" x="42" y="9" onmousedown="handleZoom(evt,'out')"/>
                <use id="reset" xlink:href="#resetDef" x="30" y="36" onmousedown="handleReset()"/>
                <g id="arrowUp" xlink:href="#dirArrow" transform="translate(30 24)" onmousedown="handlePan(0,-1)">
                  <use xlink:href="#rim" fill="#404040">
                        <set attributeName="fill" to="#808080" begin="arrowUp.mouseover" end="arrowUp.mouseout"/>
                  </use>
                  <path fill="none" stroke="white" stroke-width="1.5" d="M0,-3.0v7 M-2.5,-0.5L0,-3.0L2.5,-0.5"/>
                </g>
                <g id="arrowRight" xlink:href="#dirArrow" transform="rotate(90) translate(36 -43)" onmousedown="handlePan(1,0)">
                  <use xlink:href="#rim" fill="#404040">
                        <set attributeName="fill" to="#808080" begin="arrowRight.mouseover" end="arrowRight.mouseout"/>
                  </use>
                  <path fill="none" stroke="white" stroke-width="1.5" d="M0,-3.0v7 M-2.5,-0.5L0,-3.0L2.5,-0.5"/>
                </g>
                <g id="arrowDown" xlink:href="#dirArrow" transform="rotate(180) translate(-30 -48)" onmousedown="handlePan(0,1)">
                  <use xlink:href="#rim" fill="#404040">
                        <set attributeName="fill" to="#808080" begin="arrowDown.mouseover" end="arrowDown.mouseout"/>
                  </use>
                  <path fill="none" stroke="white" stroke-width="1.5" d="M0,-3.0v7 M-2.5,-0.5L0,-3.0L2.5,-0.5"/>
                </g>
                <g id="arrowLeft" xlink:href="#dirArrow" transform="rotate(270) translate(-36 17)" onmousedown="handlePan(-1,0)">
                  <use xlink:href="#rim" fill="#404040">
                        <set attributeName="fill" to="#808080" begin="arrowLeft.mouseover" end="arrowLeft.mouseout"/>
                  </use>
                  <path fill="none" stroke="white" stroke-width="1.5" d="M0,-3.0v7 M-2.5,-0.5L0,-3.0L2.5,-0.5"/>
                </g>
        </g>
        <svg viewBox="0 0 15 15" width="100%" height="30px" preserveAspectRatio="xMaxYMin meet">
         <g id="arrow_out" transform="scale(0.3 0.3)">
          <a xlink:href="classamr__wind_1_1actuator_1_1_act_model__coll__graph_org.svg" target="_base">
           <rect id="button" ry="5" rx="5" y="6" x="6" height="38" width="38"
                fill="#f2f5e9" fill-opacity="0.5" stroke="#606060" stroke-width="1.0"/>
           <path id="arrow"
             d="M 11.500037,31.436501 C 11.940474,20.09759 22.043105,11.32322 32.158766,21.979434 L 37.068811,17.246167 C 37.068811,17.246167 37.088388,32 37.088388,32 L 22.160133,31.978069 C 22.160133,31.978069 26.997745,27.140456 26.997745,27.140456 C 18.528582,18.264221 13.291696,25.230495 11.500037,31.436501 z"
             style="fill:#404040;"/>
          </a>
         </g>
        </svg>
</svg>
