<?xml version="1.0" encoding="UTF-8" standalone="no"?>
<!DOCTYPE svg PUBLIC "-//W3C//DTD SVG 1.1//EN"
 "http://www.w3.org/Graphics/SVG/1.1/DTD/svg11.dtd">
<!-- Generated by graphviz version 2.40.1 (20161225.0304)
 -->
<!-- Title: amr_wind::udf::UDFImpl&lt; T &gt; Pages: 1 -->
<svg width="271pt" height="418pt"
 viewBox="0.00 0.00 270.50 418.00" xmlns="http://www.w3.org/2000/svg" xmlns:xlink="http://www.w3.org/1999/xlink">
<g id="graph0" class="graph" transform="scale(1 1) rotate(0) translate(4 414)">
<title>amr_wind::udf::UDFImpl&lt; T &gt;</title>
<polygon fill="#ffffff" stroke="transparent" points="-4,4 -4,-414 266.5,-414 266.5,4 -4,4"/>
<!-- Node2 -->
<g id="node1" class="node">
<title>Node2</title>
<polygon fill="#bfbfbf" stroke="#000000" points="2,-.5 2,-19.5 165,-19.5 165,-.5 2,-.5"/>
<text text-anchor="middle" x="83.5" y="-7.5" font-family="Helvetica,sans-Serif" font-size="10.00" fill="#000000">amr_wind::udf::UDFImpl&lt; T &gt;</text>
</g>
<!-- Node3 -->
<g id="node2" class="node">
<title>Node3</title>
<polygon fill="#ffffff" stroke="#bfbfbf" points="0,-67.5 0,-97.5 135,-97.5 135,-67.5 0,-67.5"/>
<text text-anchor="start" x="8" y="-85.5" font-family="Helvetica,sans-Serif" font-size="10.00" fill="#000000">UDF::Register&lt; UDFImpl</text>
<text text-anchor="middle" x="67.5" y="-74.5" font-family="Helvetica,sans-Serif" font-size="10.00" fill="#000000">&lt; T &gt; &gt;</text>
</g>
<!-- Node3&#45;&gt;Node2 -->
<g id="edge1" class="edge">
<title>Node3&#45;&gt;Node2</title>
<path fill="none" stroke="#191970" d="M72.9751,-57.6908C75.8369,-44.7233 79.179,-29.5795 81.3161,-19.8957"/>
<polygon fill="#191970" stroke="#191970" points="69.5526,-56.9586 70.8152,-67.478 76.3881,-58.4672 69.5526,-56.9586"/>
</g>
<!-- Node4 -->
<g id="node3" class="node">
<title>Node4</title>
<g id="a_node3"><a xlink:href="classamr__wind_1_1_field.html" target="_top" xlink:title="Computational fieldThis is an abstraction of a collection of MultiFabs over multiple levels...">
<polygon fill="#ffffff" stroke="#000000" points="153,-73 153,-92 246,-92 246,-73 153,-73"/>
<text text-anchor="middle" x="199.5" y="-80" font-family="Helvetica,sans-Serif" font-size="10.00" fill="#000000">amr_wind::Field</text>
</a>
</g>
</g>
<!-- Node4&#45;&gt;Node2 -->
<g id="edge2" class="edge">
<title>Node4&#45;&gt;Node2</title>
<path fill="none" stroke="#9a32cd" stroke-dasharray="5,2" d="M175.3338,-67.3961C152.3374,-53.0233 118.4298,-31.8311 98.8964,-19.6228"/>
<polygon fill="#9a32cd" stroke="#9a32cd" points="173.5207,-70.3903 183.8557,-72.7223 177.2307,-64.4543 173.5207,-70.3903"/>
<text text-anchor="middle" x="165.5" y="-41" font-family="Helvetica,sans-Serif" font-size="10.00" fill="#000000"> m_field</text>
</g>
<!-- Node5 -->
<g id="node4" class="node">
<title>Node5</title>
<g id="a_node4"><a xlink:title="STL class. ">
<polygon fill="#ffffff" stroke="#bfbfbf" points="174,-307 174,-326 239,-326 239,-307 174,-307"/>
<text text-anchor="middle" x="206.5" y="-314" font-family="Helvetica,sans-Serif" font-size="10.00" fill="#000000">std::string</text>
</a>
</g>
</g>
<!-- Node5&#45;&gt;Node4 -->
<g id="edge3" class="edge">
<title>Node5&#45;&gt;Node4</title>
<path fill="none" stroke="#9a32cd" stroke-dasharray="5,2" d="M209.8147,-296.6077C210.4624,-292.1414 211.0724,-287.4172 211.5,-283 218.1871,-213.9198 216.9441,-196.3857 218.5,-127 218.6096,-122.1123 219.7472,-120.7271 218.5,-116 216.2143,-107.3368 211.1157,-98.5644 206.7752,-92.1706"/>
<polygon fill="#9a32cd" stroke="#9a32cd" points="206.299,-296.436 208.2093,-306.8572 213.2146,-297.5193 206.299,-296.436"/>
<text text-anchor="middle" x="239.5" y="-191.5" font-family="Helvetica,sans-Serif" font-size="10.00" fill="#000000"> m_name</text>
</g>
<!-- Node8 -->
<g id="node7" class="node">
<title>Node8</title>
<polygon fill="#ffffff" stroke="#bfbfbf" points="78.5,-223.5 78.5,-253.5 200.5,-253.5 200.5,-223.5 78.5,-223.5"/>
<text text-anchor="start" x="86.5" y="-241.5" font-family="Helvetica,sans-Serif" font-size="10.00" fill="#000000">std::unordered_map</text>
<text text-anchor="middle" x="139.5" y="-230.5" font-family="Helvetica,sans-Serif" font-size="10.00" fill="#000000">&lt; std::string, size_t &gt;</text>
</g>
<!-- Node5&#45;&gt;Node8 -->
<g id="edge7" class="edge">
<title>Node5&#45;&gt;Node8</title>
<path fill="none" stroke="#9a32cd" stroke-dasharray="5,2" d="M193.0108,-298.5488C186.6619,-290.3112 178.8781,-280.5064 171.5,-272 166.1246,-265.8025 159.9527,-259.2255 154.4723,-253.5552"/>
<polygon fill="#9a32cd" stroke="#9a32cd" points="190.4049,-300.9038 199.2496,-306.7367 195.9728,-296.6613 190.4049,-300.9038"/>
<text text-anchor="middle" x="194" y="-275" font-family="Helvetica,sans-Serif" font-size="10.00" fill="#000000"> keys</text>
</g>
<!-- Node6 -->
<g id="node5" class="node">
<title>Node6</title>
<g id="a_node5"><a xlink:title="STL class. ">
<polygon fill="#ffffff" stroke="#bfbfbf" points="154.5,-379.5 154.5,-409.5 258.5,-409.5 258.5,-379.5 154.5,-379.5"/>
<text text-anchor="start" x="162.5" y="-397.5" font-family="Helvetica,sans-Serif" font-size="10.00" fill="#000000">std::basic_string&lt;</text>
<text text-anchor="middle" x="206.5" y="-386.5" font-family="Helvetica,sans-Serif" font-size="10.00" fill="#000000"> char &gt;</text>
</a>
</g>
</g>
<!-- Node6&#45;&gt;Node5 -->
<g id="edge4" class="edge">
<title>Node6&#45;&gt;Node5</title>
<path fill="none" stroke="#191970" d="M206.5,-369.3962C206.5,-354.6331 206.5,-336.8138 206.5,-326.0839"/>
<polygon fill="#191970" stroke="#191970" points="203.0001,-369.4608 206.5,-379.4608 210.0001,-369.4609 203.0001,-369.4608"/>
</g>
<!-- Node7 -->
<g id="node6" class="node">
<title>Node7</title>
<g id="a_node6"><a xlink:href="classamr__wind_1_1_field_repo.html" target="_top" xlink:title="Field RepositoryFieldRepo is a database that manages handling of fields used during a simulation...">
<polygon fill="#ffffff" stroke="#000000" points="86,-145.5 86,-164.5 203,-164.5 203,-145.5 86,-145.5"/>
<text text-anchor="middle" x="144.5" y="-152.5" font-family="Helvetica,sans-Serif" font-size="10.00" fill="#000000">amr_wind::FieldRepo</text>
</a>
</g>
</g>
<!-- Node7&#45;&gt;Node4 -->
<g id="edge5" class="edge">
<title>Node7&#45;&gt;Node4</title>
<path fill="none" stroke="#9a32cd" stroke-dasharray="5,2" d="M158.0411,-137.1503C168.8273,-122.9322 183.5122,-103.5748 192.2,-92.1228"/>
<polygon fill="#9a32cd" stroke="#9a32cd" points="155.173,-135.14 151.9175,-145.2223 160.7499,-139.3708 155.173,-135.14"/>
<text text-anchor="middle" x="194.5" y="-119" font-family="Helvetica,sans-Serif" font-size="10.00" fill="#000000"> m_repo</text>
</g>
<!-- Node8&#45;&gt;Node7 -->
<g id="edge6" class="edge">
<title>Node8&#45;&gt;Node7</title>
<path fill="none" stroke="#9a32cd" stroke-dasharray="5,2" d="M139.2946,-213.3737C139.3894,-203.8477 139.7059,-192.9109 140.5,-183 140.9942,-176.8326 141.9709,-169.9533 142.8354,-164.5569"/>
<polygon fill="#9a32cd" stroke="#9a32cd" points="135.7946,-213.3904 139.2681,-223.3996 142.7946,-213.4089 135.7946,-213.3904"/>
<text text-anchor="middle" x="177" y="-197" font-family="Helvetica,sans-Serif" font-size="10.00" fill="#000000"> m_fid_map</text>
<text text-anchor="middle" x="177" y="-186" font-family="Helvetica,sans-Serif" font-size="10.00" fill="#000000">m_int_fid_map</text>
</g>
<!-- Node9 -->
<g id="node8" class="node">
<title>Node9</title>
<g id="a_node8"><a xlink:title="STL class. ">
<polygon fill="#ffffff" stroke="#bfbfbf" points="4.5,-301.5 4.5,-331.5 118.5,-331.5 118.5,-301.5 4.5,-301.5"/>
<text text-anchor="start" x="12.5" y="-319.5" font-family="Helvetica,sans-Serif" font-size="10.00" fill="#000000">std::unordered_map</text>
<text text-anchor="middle" x="61.5" y="-308.5" font-family="Helvetica,sans-Serif" font-size="10.00" fill="#000000">&lt; K, T &gt;</text>
</a>
</g>
</g>
<!-- Node9&#45;&gt;Node8 -->
<g id="edge8" class="edge">
<title>Node9&#45;&gt;Node8</title>
<path fill="none" stroke="#ffa500" stroke-dasharray="5,2" d="M54.4023,-291.1603C53.9104,-284.4738 54.772,-277.5761 58.5,-272 63.7439,-264.1565 71.1989,-258.1473 79.4863,-253.5439"/>
<polygon fill="#ffa500" stroke="#ffa500" points="50.9896,-291.9769 56.0718,-301.2733 57.8962,-290.8367 50.9896,-291.9769"/>
<text text-anchor="middle" x="113" y="-275" font-family="Helvetica,sans-Serif" font-size="10.00" fill="#000000"> &lt; std::string, size_t &gt;</text>
</g>
<!-- Node10 -->
<g id="node9" class="node">
<title>Node10</title>
<polygon fill="#ffffff" stroke="#bfbfbf" points="34,-385 34,-404 63,-404 63,-385 34,-385"/>
<text text-anchor="middle" x="48.5" y="-392" font-family="Helvetica,sans-Serif" font-size="10.00" fill="#000000">K</text>
</g>
<!-- Node10&#45;&gt;Node9 -->
<g id="edge9" class="edge">
<title>Node10&#45;&gt;Node9</title>
<path fill="none" stroke="#9a32cd" stroke-dasharray="5,2" d="M47.5903,-374.6032C47.5893,-366.8661 48.0243,-357.964 49.5,-350 50.6481,-343.8041 52.7863,-337.2273 54.9434,-331.5568"/>
<polygon fill="#9a32cd" stroke="#9a32cd" points="44.0973,-374.946 47.8331,-384.8604 51.0954,-374.7803 44.0973,-374.946"/>
<text text-anchor="middle" x="63" y="-353" font-family="Helvetica,sans-Serif" font-size="10.00" fill="#000000"> keys</text>
</g>
<!-- Node11 -->
<g id="node10" class="node">
<title>Node11</title>
<polygon fill="#ffffff" stroke="#bfbfbf" points="84,-385 84,-404 113,-404 113,-385 84,-385"/>
<text text-anchor="middle" x="98.5" y="-392" font-family="Helvetica,sans-Serif" font-size="10.00" fill="#000000">T</text>
</g>
<!-- Node11&#45;&gt;Node9 -->
<g id="edge10" class="edge">
<title>Node11&#45;&gt;Node9</title>
<path fill="none" stroke="#9a32cd" stroke-dasharray="5,2" d="M89.5685,-375.6714C83.1878,-362.2202 74.7117,-344.3517 68.7493,-331.7824"/>
<polygon fill="#9a32cd" stroke="#9a32cd" points="86.5149,-377.4007 93.9631,-384.9357 92.8394,-374.4006 86.5149,-377.4007"/>
<text text-anchor="middle" x="107" y="-353" font-family="Helvetica,sans-Serif" font-size="10.00" fill="#000000"> elements</text>
</g>
</g>
</svg>
