<?xml version="1.0" encoding="UTF-8" standalone="no"?>
<!DOCTYPE svg PUBLIC "-//W3C//DTD SVG 1.1//EN"
 "http://www.w3.org/Graphics/SVG/1.1/DTD/svg11.dtd">
<!-- Generated by graphviz version 2.40.1 (20161225.0304)
 -->
<!-- Title: amr_wind::transport::ConstTransport Pages: 1 -->
<svg width="340pt" height="362pt"
 viewBox="0.00 0.00 339.50 362.00" xmlns="http://www.w3.org/2000/svg" xmlns:xlink="http://www.w3.org/1999/xlink">
<g id="graph0" class="graph" transform="scale(1 1) rotate(0) translate(4 358)">
<title>amr_wind::transport::ConstTransport</title>
<polygon fill="#ffffff" stroke="transparent" points="-4,4 -4,-358 335.5,-358 335.5,4 -4,4"/>
<!-- Node2 -->
<g id="node1" class="node">
<title>Node2</title>
<polygon fill="#bfbfbf" stroke="#000000" points="16,-.5 16,-30.5 131,-30.5 131,-.5 16,-.5"/>
<text text-anchor="start" x="24" y="-18.5" font-family="Helvetica,sans-Serif" font-size="10.00" fill="#000000">amr_wind::transport</text>
<text text-anchor="middle" x="73.5" y="-7.5" font-family="Helvetica,sans-Serif" font-size="10.00" fill="#000000">::ConstTransport</text>
</g>
<!-- Node3 -->
<g id="node2" class="node">
<title>Node3</title>
<g id="a_node2"><a xlink:href="classamr__wind_1_1transport_1_1_transport_model.html" target="_top" xlink:title="Abstract representation of a transport model. ">
<polygon fill="#ffffff" stroke="#000000" points="0,-78.5 0,-108.5 115,-108.5 115,-78.5 0,-78.5"/>
<text text-anchor="start" x="8" y="-96.5" font-family="Helvetica,sans-Serif" font-size="10.00" fill="#000000">amr_wind::transport</text>
<text text-anchor="middle" x="57.5" y="-85.5" font-family="Helvetica,sans-Serif" font-size="10.00" fill="#000000">::TransportModel</text>
</a>
</g>
</g>
<!-- Node3&#45;&gt;Node2 -->
<g id="edge1" class="edge">
<title>Node3&#45;&gt;Node2</title>
<path fill="none" stroke="#191970" d="M62.5951,-68.6616C65.1489,-56.2119 68.1597,-41.5342 70.3699,-30.7592"/>
<polygon fill="#191970" stroke="#191970" points="59.1659,-67.9615 60.585,-78.4608 66.0231,-69.3681 59.1659,-67.9615"/>
</g>
<!-- Node4 -->
<g id="node3" class="node">
<title>Node4</title>
<g id="a_node3"><a xlink:href="classamr__wind_1_1_field_repo.html" target="_top" xlink:title="Field RepositoryFieldRepo is a database that manages handling of fields used during a simulation...">
<polygon fill="#ffffff" stroke="#000000" points="133,-84 133,-103 250,-103 250,-84 133,-84"/>
<text text-anchor="middle" x="191.5" y="-91" font-family="Helvetica,sans-Serif" font-size="10.00" fill="#000000">amr_wind::FieldRepo</text>
</a>
</g>
</g>
<!-- Node4&#45;&gt;Node2 -->
<g id="edge2" class="edge">
<title>Node4&#45;&gt;Node2</title>
<path fill="none" stroke="#9a32cd" stroke-dasharray="5,2" d="M168.5158,-78.307C147.7713,-64.5946 117.4056,-44.5224 96.6195,-30.7824"/>
<polygon fill="#9a32cd" stroke="#9a32cd" points="166.7586,-81.3411 177.0309,-83.9357 170.6187,-75.5015 166.7586,-81.3411"/>
<text text-anchor="middle" x="160.5" y="-52" font-family="Helvetica,sans-Serif" font-size="10.00" fill="#000000"> m_repo</text>
</g>
<!-- Node5 -->
<g id="node4" class="node">
<title>Node5</title>
<polygon fill="#ffffff" stroke="#bfbfbf" points="130.5,-167.5 130.5,-197.5 252.5,-197.5 252.5,-167.5 130.5,-167.5"/>
<text text-anchor="start" x="138.5" y="-185.5" font-family="Helvetica,sans-Serif" font-size="10.00" fill="#000000">std::unordered_map</text>
<text text-anchor="middle" x="191.5" y="-174.5" font-family="Helvetica,sans-Serif" font-size="10.00" fill="#000000">&lt; std::string, size_t &gt;</text>
</g>
<!-- Node5&#45;&gt;Node4 -->
<g id="edge3" class="edge">
<title>Node5&#45;&gt;Node4</title>
<path fill="none" stroke="#9a32cd" stroke-dasharray="5,2" d="M191.5,-157.321C191.5,-139.4221 191.5,-116.3481 191.5,-103.4182"/>
<polygon fill="#9a32cd" stroke="#9a32cd" points="188.0001,-157.4023 191.5,-167.4024 195.0001,-157.4024 188.0001,-157.4023"/>
<text text-anchor="middle" x="228" y="-141" font-family="Helvetica,sans-Serif" font-size="10.00" fill="#000000"> m_fid_map</text>
<text text-anchor="middle" x="228" y="-130" font-family="Helvetica,sans-Serif" font-size="10.00" fill="#000000">m_int_fid_map</text>
</g>
<!-- Node6 -->
<g id="node5" class="node">
<title>Node6</title>
<g id="a_node5"><a xlink:title="STL class. ">
<polygon fill="#ffffff" stroke="#bfbfbf" points="105,-251 105,-270 170,-270 170,-251 105,-251"/>
<text text-anchor="middle" x="137.5" y="-258" font-family="Helvetica,sans-Serif" font-size="10.00" fill="#000000">std::string</text>
</a>
</g>
</g>
<!-- Node6&#45;&gt;Node5 -->
<g id="edge4" class="edge">
<title>Node6&#45;&gt;Node5</title>
<path fill="none" stroke="#9a32cd" stroke-dasharray="5,2" d="M149.991,-242.4575C159.361,-228.923 172.0474,-210.5981 180.9199,-197.7824"/>
<polygon fill="#9a32cd" stroke="#9a32cd" points="146.9359,-240.7215 144.1215,-250.9357 152.6913,-244.706 146.9359,-240.7215"/>
<text text-anchor="middle" x="182" y="-219" font-family="Helvetica,sans-Serif" font-size="10.00" fill="#000000"> keys</text>
</g>
<!-- Node7 -->
<g id="node6" class="node">
<title>Node7</title>
<g id="a_node6"><a xlink:title="STL class. ">
<polygon fill="#ffffff" stroke="#bfbfbf" points="85.5,-323.5 85.5,-353.5 189.5,-353.5 189.5,-323.5 85.5,-323.5"/>
<text text-anchor="start" x="93.5" y="-341.5" font-family="Helvetica,sans-Serif" font-size="10.00" fill="#000000">std::basic_string&lt;</text>
<text text-anchor="middle" x="137.5" y="-330.5" font-family="Helvetica,sans-Serif" font-size="10.00" fill="#000000"> char &gt;</text>
</a>
</g>
</g>
<!-- Node7&#45;&gt;Node6 -->
<g id="edge5" class="edge">
<title>Node7&#45;&gt;Node6</title>
<path fill="none" stroke="#191970" d="M137.5,-313.3962C137.5,-298.6331 137.5,-280.8138 137.5,-270.0839"/>
<polygon fill="#191970" stroke="#191970" points="134.0001,-313.4608 137.5,-323.4608 141.0001,-313.4609 134.0001,-313.4608"/>
</g>
<!-- Node8 -->
<g id="node7" class="node">
<title>Node8</title>
<g id="a_node7"><a xlink:title="STL class. ">
<polygon fill="#ffffff" stroke="#bfbfbf" points="188.5,-245.5 188.5,-275.5 302.5,-275.5 302.5,-245.5 188.5,-245.5"/>
<text text-anchor="start" x="196.5" y="-263.5" font-family="Helvetica,sans-Serif" font-size="10.00" fill="#000000">std::unordered_map</text>
<text text-anchor="middle" x="245.5" y="-252.5" font-family="Helvetica,sans-Serif" font-size="10.00" fill="#000000">&lt; K, T &gt;</text>
</a>
</g>
</g>
<!-- Node8&#45;&gt;Node5 -->
<g id="edge6" class="edge">
<title>Node8&#45;&gt;Node5</title>
<path fill="none" stroke="#ffa500" stroke-dasharray="5,2" d="M229.3308,-237.1445C220.5024,-224.3923 209.822,-208.9652 202.064,-197.7592"/>
<polygon fill="#ffa500" stroke="#ffa500" points="226.5184,-239.2311 235.0883,-245.4608 232.2738,-235.2466 226.5184,-239.2311"/>
<text text-anchor="middle" x="277" y="-219" font-family="Helvetica,sans-Serif" font-size="10.00" fill="#000000"> &lt; std::string, size_t &gt;</text>
</g>
<!-- Node9 -->
<g id="node8" class="node">
<title>Node9</title>
<polygon fill="#ffffff" stroke="#bfbfbf" points="219,-329 219,-348 248,-348 248,-329 219,-329"/>
<text text-anchor="middle" x="233.5" y="-336" font-family="Helvetica,sans-Serif" font-size="10.00" fill="#000000">K</text>
</g>
<!-- Node9&#45;&gt;Node8 -->
<g id="edge7" class="edge">
<title>Node9&#45;&gt;Node8</title>
<path fill="none" stroke="#9a32cd" stroke-dasharray="5,2" d="M232.7017,-318.6231C232.7151,-310.8885 233.1308,-301.983 234.5,-294 235.5555,-287.846 237.5162,-281.2777 239.4932,-275.6023"/>
<polygon fill="#9a32cd" stroke="#9a32cd" points="229.2073,-318.945 232.9057,-328.8733 236.2059,-318.8056 229.2073,-318.945"/>
<text text-anchor="middle" x="248" y="-297" font-family="Helvetica,sans-Serif" font-size="10.00" fill="#000000"> keys</text>
</g>
<!-- Node10 -->
<g id="node9" class="node">
<title>Node10</title>
<polygon fill="#ffffff" stroke="#bfbfbf" points="269,-329 269,-348 298,-348 298,-329 269,-329"/>
<text text-anchor="middle" x="283.5" y="-336" font-family="Helvetica,sans-Serif" font-size="10.00" fill="#000000">T</text>
</g>
<!-- Node10&#45;&gt;Node8 -->
<g id="edge8" class="edge">
<title>Node10&#45;&gt;Node8</title>
<path fill="none" stroke="#9a32cd" stroke-dasharray="5,2" d="M274.3271,-319.6714C267.7739,-306.2202 259.0688,-288.3517 252.9453,-275.7824"/>
<polygon fill="#9a32cd" stroke="#9a32cd" points="271.3142,-321.4787 278.8405,-328.9357 277.6072,-318.4128 271.3142,-321.4787"/>
<text text-anchor="middle" x="292" y="-297" font-family="Helvetica,sans-Serif" font-size="10.00" fill="#000000"> elements</text>
</g>
</g>
</svg>
