<?xml version="1.0" encoding="UTF-8" standalone="no"?>
<!DOCTYPE svg PUBLIC "-//W3C//DTD SVG 1.1//EN"
 "http://www.w3.org/Graphics/SVG/1.1/DTD/svg11.dtd">
<!-- Generated by graphviz version 2.40.1 (20161225.0304)
 -->
<!-- Title: incflo::Evolve Pages: 1 -->
<!--zoomable 694 -->
<svg id="main" version="1.1" xmlns="http://www.w3.org/2000/svg" xmlns:xlink="http://www.w3.org/1999/xlink" xml:space="preserve" onload="init(evt)">
<style type="text/css"><![CDATA[
.edge:hover path { stroke: red; }
.edge:hover polygon { stroke: red; fill: red; }
]]></style>
<script type="text/javascript"><![CDATA[
var edges = document.getElementsByTagName('g');
if (edges && edges.length) {
  for (var i=0;i<edges.length;i++) {
    if (edges[i].id.substr(0,4)=='edge') {
      edges[i].setAttribute('class','edge');
    }
  }
}
]]></script>
        <defs>
                <circle id="rim" cx="0" cy="0" r="7"/>
                <circle id="rim2" cx="0" cy="0" r="3.5"/>
                <g id="zoomPlus">
                        <use xlink:href="#rim" fill="#404040">
                                <set attributeName="fill" to="#808080" begin="zoomplus.mouseover" end="zoomplus.mouseout"/>
                        </use>
                        <path d="M-4,0h8M0,-4v8" fill="none" stroke="white" stroke-width="1.5" pointer-events="none"/>
                </g>
                <g id="zoomMin">
                        <use xlink:href="#rim" fill="#404040">
                                <set attributeName="fill" to="#808080" begin="zoomminus.mouseover" end="zoomminus.mouseout"/>
                        </use>
                        <path d="M-4,0h8" fill="none" stroke="white" stroke-width="1.5" pointer-events="none"/>
                </g>
                <g id="dirArrow">
                        <path fill="none" stroke="white" stroke-width="1.5" d="M0,-3.0v7 M-2.5,-0.5L0,-3.0L2.5,-0.5"/>
                </g>
               <g id="resetDef">
                       <use xlink:href="#rim2" fill="#404040">
                               <set attributeName="fill" to="#808080" begin="reset.mouseover" end="reset.mouseout"/>
                       </use>
               </g>
        </defs>

<script type="text/javascript">
var viewWidth = 287;
var viewHeight = 694;
var sectionId = 'dynsection-2';
</script>
<script xlink:href="svgpan.js"/>
<svg id="graph" class="graph">
<g id="viewport">
<title>incflo::Evolve</title>
<polygon fill="#ffffff" stroke="transparent" points="-4,4 -4,-690 283,-690 283,4 -4,4"/>
<!-- Node1 -->
<g id="node1" class="node">
<title>Node1</title>
<polygon fill="#bfbfbf" stroke="#000000" points="0,-328 0,-347 82,-347 82,-328 0,-328"/>
<text text-anchor="middle" x="41" y="-335" font-family="Helvetica,sans-Serif" font-size="10.00" fill="#000000">incflo::Evolve</text>
</g>
<!-- Node2 -->
<g id="node2" class="node">
<title>Node2</title>
<g id="a_node2"><a xlink:href="classamr__wind_1_1_c_f_d_sim.html#a53f6989a504570158dff0a103e968b99" target="_top" xlink:title="amr_wind::CFDSim::io\l_manager">
<polygon fill="#ffffff" stroke="#000000" points="136.5,-655.5 136.5,-685.5 260.5,-685.5 260.5,-655.5 136.5,-655.5"/>
<text text-anchor="start" x="144.5" y="-673.5" font-family="Helvetica,sans-Serif" font-size="10.00" fill="#000000">amr_wind::CFDSim::io</text>
<text text-anchor="middle" x="198.5" y="-662.5" font-family="Helvetica,sans-Serif" font-size="10.00" fill="#000000">_manager</text>
</a>
</g>
</g>
<!-- Node1&#45;&gt;Node2 -->
<g id="edge1" class="edge">
<title>Node1&#45;&gt;Node2</title>
<path fill="none" stroke="#191970" d="M42.1087,-347.0605C47.7549,-394.1784 74.746,-601.2305 118,-646.5 120.8099,-649.4408 123.9631,-652.0258 127.3513,-654.2974"/>
<polygon fill="#191970" stroke="#191970" points="125.7726,-657.4259 136.1962,-659.3231 129.2308,-651.3397 125.7726,-657.4259"/>
</g>
<!-- Node3 -->
<g id="node3" class="node">
<title>Node3</title>
<g id="a_node3"><a xlink:href="classamr__wind_1_1_i_o_manager.html#aae4a733a61f497223cb7b25a1c54beec" target="_top" xlink:title="Name of the checkpoint file to be read during a restart. ">
<polygon fill="#ffffff" stroke="#000000" points="137,-606.5 137,-636.5 260,-636.5 260,-606.5 137,-606.5"/>
<text text-anchor="start" x="145" y="-624.5" font-family="Helvetica,sans-Serif" font-size="10.00" fill="#000000">amr_wind::IOManager</text>
<text text-anchor="middle" x="198.5" y="-613.5" font-family="Helvetica,sans-Serif" font-size="10.00" fill="#000000">::restart_file</text>
</a>
</g>
</g>
<!-- Node1&#45;&gt;Node3 -->
<g id="edge2" class="edge">
<title>Node1&#45;&gt;Node3</title>
<path fill="none" stroke="#191970" d="M42.6109,-347.2071C49.8731,-389.8713 80.8342,-560.2664 118,-597.5 121.0136,-600.5191 124.3894,-603.1615 128.0054,-605.474"/>
<polygon fill="#191970" stroke="#191970" points="126.3676,-608.5675 136.821,-610.2931 129.7253,-602.4254 126.3676,-608.5675"/>
</g>
<!-- Node4 -->
<g id="node4" class="node">
<title>Node4</title>
<g id="a_node4"><a xlink:href="classamr__wind_1_1_sim_time.html#a41dbe1da02ae4d42df486c64f9014eaf" target="_top" xlink:title="amr_wind::SimTime::\lnew_time">
<polygon fill="#ffffff" stroke="#000000" points="138.5,-557.5 138.5,-587.5 258.5,-587.5 258.5,-557.5 138.5,-557.5"/>
<text text-anchor="start" x="146.5" y="-575.5" font-family="Helvetica,sans-Serif" font-size="10.00" fill="#000000">amr_wind::SimTime::</text>
<text text-anchor="middle" x="198.5" y="-564.5" font-family="Helvetica,sans-Serif" font-size="10.00" fill="#000000">new_time</text>
</a>
</g>
</g>
<!-- Node1&#45;&gt;Node4 -->
<g id="edge3" class="edge">
<title>Node1&#45;&gt;Node4</title>
<path fill="none" stroke="#191970" d="M41.6003,-347.0454C44.1878,-379.9359 57.2165,-489.7012 118,-547.5 121.3721,-550.7065 125.1483,-553.5021 129.1764,-555.9395"/>
<polygon fill="#191970" stroke="#191970" points="127.8534,-559.197 138.3377,-560.7235 131.0936,-552.9921 127.8534,-559.197"/>
</g>
<!-- Node5 -->
<g id="node5" class="node">
<title>Node5</title>
<g id="a_node5"><a xlink:href="classincflo.html#aec8ae0c6fe958f54f2bcc99b6cc7e352" target="_top" xlink:title="incflo::ComputeKineticEnergy">
<polygon fill="#ffffff" stroke="#000000" points="118,-519 118,-538 279,-538 279,-519 118,-519"/>
<text text-anchor="middle" x="198.5" y="-526" font-family="Helvetica,sans-Serif" font-size="10.00" fill="#000000">incflo::ComputeKineticEnergy</text>
</a>
</g>
</g>
<!-- Node1&#45;&gt;Node5 -->
<g id="edge4" class="edge">
<title>Node1&#45;&gt;Node5</title>
<path fill="none" stroke="#191970" d="M42.3046,-347.0799C46.8184,-376.3521 64.5433,-465.3056 118,-509.5 120.0336,-511.1813 122.19,-512.719 124.4411,-514.1253"/>
<polygon fill="#191970" stroke="#191970" points="123.0561,-517.3518 133.5338,-518.9225 126.3225,-511.1606 123.0561,-517.3518"/>
</g>
<!-- Node6 -->
<g id="node6" class="node">
<title>Node6</title>
<g id="a_node6"><a xlink:href="classamr__wind_1_1_sim_time.html#a6876c4852c53ab6f86bba1cb09386339" target="_top" xlink:title="Advance to a new time state and update internal time states. ">
<polygon fill="#ffffff" stroke="#000000" points="138.5,-469.5 138.5,-499.5 258.5,-499.5 258.5,-469.5 138.5,-469.5"/>
<text text-anchor="start" x="146.5" y="-487.5" font-family="Helvetica,sans-Serif" font-size="10.00" fill="#000000">amr_wind::SimTime::</text>
<text text-anchor="middle" x="198.5" y="-476.5" font-family="Helvetica,sans-Serif" font-size="10.00" fill="#000000">new_timestep</text>
</a>
</g>
</g>
<!-- Node1&#45;&gt;Node6 -->
<g id="edge5" class="edge">
<title>Node1&#45;&gt;Node6</title>
<path fill="none" stroke="#191970" d="M44.3018,-347.1501C52.7322,-370.3319 77.305,-429.5246 118,-460.5 121.3943,-463.0836 125.0638,-465.3901 128.9015,-467.4492"/>
<polygon fill="#191970" stroke="#191970" points="127.5754,-470.6939 138.1104,-471.8184 130.576,-464.3696 127.5754,-470.6939"/>
</g>
<!-- Node7 -->
<g id="node7" class="node">
<title>Node7</title>
<g id="a_node7"><a xlink:href="classincflo.html#ae09184db23dbf56c886e48000c7685d7" target="_top" xlink:title="Perform regrid actions at a given timestep. ">
<polygon fill="#ffffff" stroke="#000000" points="148,-420.5 148,-450.5 249,-450.5 249,-420.5 148,-420.5"/>
<text text-anchor="start" x="156" y="-438.5" font-family="Helvetica,sans-Serif" font-size="10.00" fill="#000000">incflo::regrid_and</text>
<text text-anchor="middle" x="198.5" y="-427.5" font-family="Helvetica,sans-Serif" font-size="10.00" fill="#000000">_update</text>
</a>
</g>
</g>
<!-- Node1&#45;&gt;Node7 -->
<g id="edge6" class="edge">
<title>Node1&#45;&gt;Node7</title>
<path fill="none" stroke="#191970" d="M48.4397,-347.1781C61.0578,-362.9403 88.2045,-394.1366 118,-411.5 124.2371,-415.1347 131.0719,-418.2611 138.0401,-420.9398"/>
<polygon fill="#191970" stroke="#191970" points="136.9865,-424.2797 147.5813,-424.3209 139.3247,-417.6817 136.9865,-424.2797"/>
</g>
<!-- Node8 -->
<g id="node8" class="node">
<title>Node8</title>
<g id="a_node8"><a xlink:href="classincflo.html#a171fd353adf62e83b0e65a20fd27e567" target="_top" xlink:title="incflo::pre_advance\l_stage1">
<polygon fill="#ffffff" stroke="#000000" points="143,-371.5 143,-401.5 254,-401.5 254,-371.5 143,-371.5"/>
<text text-anchor="start" x="151" y="-389.5" font-family="Helvetica,sans-Serif" font-size="10.00" fill="#000000">incflo::pre_advance</text>
<text text-anchor="middle" x="198.5" y="-378.5" font-family="Helvetica,sans-Serif" font-size="10.00" fill="#000000">_stage1</text>
</a>
</g>
</g>
<!-- Node1&#45;&gt;Node8 -->
<g id="edge7" class="edge">
<title>Node1&#45;&gt;Node8</title>
<path fill="none" stroke="#191970" d="M69.8334,-347.0442C84.2697,-351.7763 102.0307,-357.5279 118,-362.5 124.3617,-364.4807 131.0166,-366.5189 137.6575,-368.5309"/>
<polygon fill="#191970" stroke="#191970" points="136.7567,-371.9149 147.3413,-371.4502 138.7772,-365.2128 136.7567,-371.9149"/>
</g>
<!-- Node9 -->
<g id="node9" class="node">
<title>Node9</title>
<g id="a_node9"><a xlink:href="classincflo.html#ae9108a8fa888740a724bd6c2384f5bae" target="_top" xlink:title="incflo::pre_advance\l_stage2">
<polygon fill="#ffffff" stroke="#000000" points="143,-322.5 143,-352.5 254,-352.5 254,-322.5 143,-322.5"/>
<text text-anchor="start" x="151" y="-340.5" font-family="Helvetica,sans-Serif" font-size="10.00" fill="#000000">incflo::pre_advance</text>
<text text-anchor="middle" x="198.5" y="-329.5" font-family="Helvetica,sans-Serif" font-size="10.00" fill="#000000">_stage2</text>
</a>
</g>
</g>
<!-- Node1&#45;&gt;Node9 -->
<g id="edge8" class="edge">
<title>Node1&#45;&gt;Node9</title>
<path fill="none" stroke="#191970" d="M82.3813,-337.5C97.703,-337.5 115.4817,-337.5 132.452,-337.5"/>
<polygon fill="#191970" stroke="#191970" points="132.8849,-341.0001 142.8848,-337.5 132.8848,-334.0001 132.8849,-341.0001"/>
</g>
<!-- Node10 -->
<g id="node10" class="node">
<title>Node10</title>
<g id="a_node10"><a xlink:href="classincflo.html#a22114d65c7a744e185cb768669061fec" target="_top" xlink:title="Advance simulation state by one timestep. ">
<polygon fill="#ffffff" stroke="#000000" points="153.5,-284 153.5,-303 243.5,-303 243.5,-284 153.5,-284"/>
<text text-anchor="middle" x="198.5" y="-291" font-family="Helvetica,sans-Serif" font-size="10.00" fill="#000000">incflo::advance</text>
</a>
</g>
</g>
<!-- Node1&#45;&gt;Node10 -->
<g id="edge9" class="edge">
<title>Node1&#45;&gt;Node10</title>
<path fill="none" stroke="#191970" d="M70.1313,-327.9779C84.4856,-323.3992 102.0884,-317.9522 118,-313.5 127.7769,-310.7643 138.274,-308.0186 148.3531,-305.4759"/>
<polygon fill="#191970" stroke="#191970" points="149.3942,-308.8235 158.2507,-303.0087 147.7011,-302.0314 149.3942,-308.8235"/>
</g>
<!-- Node11 -->
<g id="node11" class="node">
<title>Node11</title>
<g id="a_node11"><a xlink:href="classincflo.html#a339cc34ea0a08de4eaff982226dab8bf" target="_top" xlink:title="Perform actions after a timestep. ">
<polygon fill="#ffffff" stroke="#000000" points="125.5,-246 125.5,-265 271.5,-265 271.5,-246 125.5,-246"/>
<text text-anchor="middle" x="198.5" y="-253" font-family="Helvetica,sans-Serif" font-size="10.00" fill="#000000">incflo::post_advance_work</text>
</a>
</g>
</g>
<!-- Node1&#45;&gt;Node11 -->
<g id="edge10" class="edge">
<title>Node1&#45;&gt;Node11</title>
<path fill="none" stroke="#191970" d="M49.9593,-327.7796C63.3812,-313.8209 90.1244,-288.2678 118,-274.5 122.9086,-272.0756 128.1405,-269.952 133.4907,-268.0932"/>
<polygon fill="#191970" stroke="#191970" points="134.7224,-271.3747 143.2042,-265.0259 132.6144,-264.6996 134.7224,-271.3747"/>
</g>
<!-- Node12 -->
<g id="node12" class="node">
<title>Node12</title>
<g id="a_node12"><a xlink:href="classamr__wind_1_1_sim_time.html#a2e5adf26426dc2125954797919edd02b" target="_top" xlink:title="amr_wind::SimTime::\ltime_index">
<polygon fill="#ffffff" stroke="#000000" points="138.5,-196.5 138.5,-226.5 258.5,-226.5 258.5,-196.5 138.5,-196.5"/>
<text text-anchor="start" x="146.5" y="-214.5" font-family="Helvetica,sans-Serif" font-size="10.00" fill="#000000">amr_wind::SimTime::</text>
<text text-anchor="middle" x="198.5" y="-203.5" font-family="Helvetica,sans-Serif" font-size="10.00" fill="#000000">time_index</text>
</a>
</g>
</g>
<!-- Node1&#45;&gt;Node12 -->
<g id="edge11" class="edge">
<title>Node1&#45;&gt;Node12</title>
<path fill="none" stroke="#191970" d="M45.7124,-327.8454C55.9945,-307.7843 82.4035,-261.3933 118,-236.5 121.5078,-234.0469 125.265,-231.828 129.1687,-229.8218"/>
<polygon fill="#191970" stroke="#191970" points="130.8826,-232.8856 138.495,-225.5166 127.9487,-226.5301 130.8826,-232.8856"/>
</g>
<!-- Node13 -->
<g id="node13" class="node">
<title>Node13</title>
<g id="a_node13"><a xlink:href="classamr__wind_1_1_sim_time.html#af9a046349140b654143237bb569cff00" target="_top" xlink:title="Return true if plot files should be written at this timestep. ">
<polygon fill="#ffffff" stroke="#000000" points="138.5,-147.5 138.5,-177.5 258.5,-177.5 258.5,-147.5 138.5,-147.5"/>
<text text-anchor="start" x="146.5" y="-165.5" font-family="Helvetica,sans-Serif" font-size="10.00" fill="#000000">amr_wind::SimTime::</text>
<text text-anchor="middle" x="198.5" y="-154.5" font-family="Helvetica,sans-Serif" font-size="10.00" fill="#000000">write_last_plot_file</text>
</a>
</g>
</g>
<!-- Node1&#45;&gt;Node13 -->
<g id="edge12" class="edge">
<title>Node1&#45;&gt;Node13</title>
<path fill="none" stroke="#191970" d="M43.1896,-327.7884C49.6875,-301.212 71.3854,-226.6696 118,-187.5 121.4329,-184.6154 125.1973,-182.0631 129.1646,-179.805"/>
<polygon fill="#191970" stroke="#191970" points="130.7509,-182.925 138.124,-175.3166 127.6155,-176.6664 130.7509,-182.925"/>
</g>
<!-- Node14 -->
<g id="node14" class="node">
<title>Node14</title>
<g id="a_node14"><a xlink:href="classamr__wind_1_1_i_o_manager.html#a2751c61d7bc0b302032db0ebef39e57f" target="_top" xlink:title="Write all user&#45;requested fields to disk. ">
<polygon fill="#ffffff" stroke="#000000" points="137,-98.5 137,-128.5 260,-128.5 260,-98.5 137,-98.5"/>
<text text-anchor="start" x="145" y="-116.5" font-family="Helvetica,sans-Serif" font-size="10.00" fill="#000000">amr_wind::IOManager</text>
<text text-anchor="middle" x="198.5" y="-105.5" font-family="Helvetica,sans-Serif" font-size="10.00" fill="#000000">::write_plot_file</text>
</a>
</g>
</g>
<!-- Node1&#45;&gt;Node14 -->
<g id="edge13" class="edge">
<title>Node1&#45;&gt;Node14</title>
<path fill="none" stroke="#191970" d="M41.8597,-327.5583C45.1842,-295.3164 60.0684,-192.6162 118,-138.5 120.9826,-135.7138 124.2709,-133.238 127.7627,-131.0379"/>
<polygon fill="#191970" stroke="#191970" points="129.6933,-133.9721 136.8038,-126.1176 126.3472,-127.8236 129.6933,-133.9721"/>
</g>
<!-- Node15 -->
<g id="node15" class="node">
<title>Node15</title>
<g id="a_node15"><a xlink:href="classamr__wind_1_1_sim_time.html#ac072a0b6439bf83a0a899dd01b486086" target="_top" xlink:title="Return true if checkpoint files should be written at this timestep. ">
<polygon fill="#ffffff" stroke="#000000" points="137,-49.5 137,-79.5 260,-79.5 260,-49.5 137,-49.5"/>
<text text-anchor="start" x="145" y="-67.5" font-family="Helvetica,sans-Serif" font-size="10.00" fill="#000000">amr_wind::SimTime::</text>
<text text-anchor="middle" x="198.5" y="-56.5" font-family="Helvetica,sans-Serif" font-size="10.00" fill="#000000">write_last_checkpoint</text>
</a>
</g>
</g>
<!-- Node1&#45;&gt;Node15 -->
<g id="edge14" class="edge">
<title>Node1&#45;&gt;Node15</title>
<path fill="none" stroke="#191970" d="M42.7368,-327.9715C50.4085,-286.8476 82.4566,-125.0458 118,-89.5 121.0267,-86.4731 124.4126,-83.8116 128.0362,-81.4714"/>
<polygon fill="#191970" stroke="#191970" points="129.8186,-84.4851 136.8653,-76.5734 126.4229,-78.3639 129.8186,-84.4851"/>
</g>
<!-- Node16 -->
<g id="node16" class="node">
<title>Node16</title>
<g id="a_node16"><a xlink:href="classamr__wind_1_1_i_o_manager.html#aecde0a3df1b74085446b4bb47c3984c9" target="_top" xlink:title="Write all necessary fields for restart. ">
<polygon fill="#ffffff" stroke="#000000" points="135.5,-.5 135.5,-30.5 261.5,-30.5 261.5,-.5 135.5,-.5"/>
<text text-anchor="start" x="143.5" y="-18.5" font-family="Helvetica,sans-Serif" font-size="10.00" fill="#000000">amr_wind::IOManager</text>
<text text-anchor="middle" x="198.5" y="-7.5" font-family="Helvetica,sans-Serif" font-size="10.00" fill="#000000">::write_checkpoint_file</text>
</a>
</g>
</g>
<!-- Node1&#45;&gt;Node16 -->
<g id="edge15" class="edge">
<title>Node1&#45;&gt;Node16</title>
<path fill="none" stroke="#191970" d="M42.2535,-327.7081C48.3782,-281.3027 76.5512,-83.9633 118,-40.5 120.629,-37.7432 123.5558,-35.2885 126.6924,-33.1031"/>
<polygon fill="#191970" stroke="#191970" points="128.6095,-36.0354 135.4256,-27.9242 125.039,-30.0145 128.6095,-36.0354"/>
</g>
</g>
</svg>
        <g id="navigator" transform="translate(0 0)" fill="#404254">
                <rect fill="#f2f5e9" fill-opacity="0.5" stroke="#606060" stroke-width=".5" x="0" y="0" width="60" height="60"/>
                <use id="zoomplus" xlink:href="#zoomPlus" x="17" y="9" onmousedown="handleZoom(evt,'in')"/>
                <use id="zoomminus" xlink:href="#zoomMin" x="42" y="9" onmousedown="handleZoom(evt,'out')"/>
                <use id="reset" xlink:href="#resetDef" x="30" y="36" onmousedown="handleReset()"/>
                <g id="arrowUp" xlink:href="#dirArrow" transform="translate(30 24)" onmousedown="handlePan(0,-1)">
                  <use xlink:href="#rim" fill="#404040">
                        <set attributeName="fill" to="#808080" begin="arrowUp.mouseover" end="arrowUp.mouseout"/>
                  </use>
                  <path fill="none" stroke="white" stroke-width="1.5" d="M0,-3.0v7 M-2.5,-0.5L0,-3.0L2.5,-0.5"/>
                </g>
                <g id="arrowRight" xlink:href="#dirArrow" transform="rotate(90) translate(36 -43)" onmousedown="handlePan(1,0)">
                  <use xlink:href="#rim" fill="#404040">
                        <set attributeName="fill" to="#808080" begin="arrowRight.mouseover" end="arrowRight.mouseout"/>
                  </use>
                  <path fill="none" stroke="white" stroke-width="1.5" d="M0,-3.0v7 M-2.5,-0.5L0,-3.0L2.5,-0.5"/>
                </g>
                <g id="arrowDown" xlink:href="#dirArrow" transform="rotate(180) translate(-30 -48)" onmousedown="handlePan(0,1)">
                  <use xlink:href="#rim" fill="#404040">
                        <set attributeName="fill" to="#808080" begin="arrowDown.mouseover" end="arrowDown.mouseout"/>
                  </use>
                  <path fill="none" stroke="white" stroke-width="1.5" d="M0,-3.0v7 M-2.5,-0.5L0,-3.0L2.5,-0.5"/>
                </g>
                <g id="arrowLeft" xlink:href="#dirArrow" transform="rotate(270) translate(-36 17)" onmousedown="handlePan(-1,0)">
                  <use xlink:href="#rim" fill="#404040">
                        <set attributeName="fill" to="#808080" begin="arrowLeft.mouseover" end="arrowLeft.mouseout"/>
                  </use>
                  <path fill="none" stroke="white" stroke-width="1.5" d="M0,-3.0v7 M-2.5,-0.5L0,-3.0L2.5,-0.5"/>
                </g>
        </g>
        <svg viewBox="0 0 15 15" width="100%" height="30px" preserveAspectRatio="xMaxYMin meet">
         <g id="arrow_out" transform="scale(0.3 0.3)">
          <a xlink:href="classincflo_a0141eeb4fa408c909bca038ec9de0ef5_cgraph_org.svg" target="_base">
           <rect id="button" ry="5" rx="5" y="6" x="6" height="38" width="38"
                fill="#f2f5e9" fill-opacity="0.5" stroke="#606060" stroke-width="1.0"/>
           <path id="arrow"
             d="M 11.500037,31.436501 C 11.940474,20.09759 22.043105,11.32322 32.158766,21.979434 L 37.068811,17.246167 C 37.068811,17.246167 37.088388,32 37.088388,32 L 22.160133,31.978069 C 22.160133,31.978069 26.997745,27.140456 26.997745,27.140456 C 18.528582,18.264221 13.291696,25.230495 11.500037,31.436501 z"
             style="fill:#404040;"/>
          </a>
         </g>
        </svg>
</svg>
