<?xml version="1.0" encoding="UTF-8" standalone="no"?>
<!DOCTYPE svg PUBLIC "-//W3C//DTD SVG 1.1//EN"
 "http://www.w3.org/Graphics/SVG/1.1/DTD/svg11.dtd">
<!-- Generated by graphviz version 2.40.1 (20161225.0304)
 -->
<!-- Title: amr_wind::actuator::ActuatorContainer Pages: 1 -->
<svg width="381pt" height="100pt"
 viewBox="0.00 0.00 381.00 99.50" xmlns="http://www.w3.org/2000/svg" xmlns:xlink="http://www.w3.org/1999/xlink">
<g id="graph0" class="graph" transform="scale(1 1) rotate(0) translate(4 95.5)">
<title>amr_wind::actuator::ActuatorContainer</title>
<polygon fill="#ffffff" stroke="transparent" points="-4,4 -4,-95.5 377,-95.5 377,4 -4,4"/>
<!-- Node2 -->
<g id="node1" class="node">
<title>Node2</title>
<polygon fill="#bfbfbf" stroke="#000000" points="262,-27.5 262,-57.5 373,-57.5 373,-27.5 262,-27.5"/>
<text text-anchor="start" x="270" y="-45.5" font-family="Helvetica,sans-Serif" font-size="10.00" fill="#000000">amr_wind::actuator</text>
<text text-anchor="middle" x="317.5" y="-34.5" font-family="Helvetica,sans-Serif" font-size="10.00" fill="#000000">::ActuatorContainer</text>
</g>
<!-- Node3 -->
<g id="node2" class="node">
<title>Node3</title>
<polygon fill="#ffffff" stroke="#bfbfbf" points="0,-50 0,-91 186,-91 186,-50 0,-50"/>
<text text-anchor="start" x="8" y="-79" font-family="Helvetica,sans-Serif" font-size="10.00" fill="#000000">amrex::AmrParticleContainer</text>
<text text-anchor="start" x="8" y="-68" font-family="Helvetica,sans-Serif" font-size="10.00" fill="#000000">&lt; NumPStructReal, NumPStructInt,</text>
<text text-anchor="middle" x="93" y="-57" font-family="Helvetica,sans-Serif" font-size="10.00" fill="#000000"> NumPArrayReal, NumPArrayInt &gt;</text>
</g>
<!-- Node3&#45;&gt;Node2 -->
<g id="edge1" class="edge">
<title>Node3&#45;&gt;Node2</title>
<path fill="none" stroke="#191970" d="M196.2372,-57.6241C218.8153,-54.8081 241.8829,-51.9311 261.7544,-49.4527"/>
<polygon fill="#191970" stroke="#191970" points="195.7478,-54.1579 186.2579,-58.8687 196.6142,-61.1041 195.7478,-54.1579"/>
</g>
<!-- Node4 -->
<g id="node3" class="node">
<title>Node4</title>
<g id="a_node3"><a xlink:href="structamr__wind_1_1actuator_1_1_actuator_cloud.html" target="_top" xlink:title="Cloud of actuator points. ">
<polygon fill="#ffffff" stroke="#000000" points="37.5,-.5 37.5,-30.5 148.5,-30.5 148.5,-.5 37.5,-.5"/>
<text text-anchor="start" x="45.5" y="-18.5" font-family="Helvetica,sans-Serif" font-size="10.00" fill="#000000">amr_wind::actuator</text>
<text text-anchor="middle" x="93" y="-7.5" font-family="Helvetica,sans-Serif" font-size="10.00" fill="#000000">::ActuatorCloud</text>
</a>
</g>
</g>
<!-- Node4&#45;&gt;Node2 -->
<g id="edge2" class="edge">
<title>Node4&#45;&gt;Node2</title>
<path fill="none" stroke="#9a32cd" stroke-dasharray="5,2" d="M159.1209,-23.4522C191.696,-27.3699 230.5457,-32.0422 261.6151,-35.7789"/>
<polygon fill="#9a32cd" stroke="#9a32cd" points="159.1292,-19.928 148.7828,-22.2088 158.2933,-26.878 159.1292,-19.928"/>
<text text-anchor="middle" x="224" y="-36.5" font-family="Helvetica,sans-Serif" font-size="10.00" fill="#000000"> m_data</text>
</g>
</g>
</svg>
