<?xml version="1.0" encoding="UTF-8" standalone="no"?>
<!DOCTYPE svg PUBLIC "-//W3C//DTD SVG 1.1//EN"
 "http://www.w3.org/Graphics/SVG/1.1/DTD/svg11.dtd">
<!-- Generated by graphviz version 2.40.1 (20161225.0304)
 -->
<!-- Title: amr_wind::synth_turb::LinearShearProfile Pages: 1 -->
<svg width="270pt" height="195pt"
 viewBox="0.00 0.00 270.00 195.00" xmlns="http://www.w3.org/2000/svg" xmlns:xlink="http://www.w3.org/1999/xlink">
<g id="graph0" class="graph" transform="scale(1 1) rotate(0) translate(4 191)">
<title>amr_wind::synth_turb::LinearShearProfile</title>
<polygon fill="#ffffff" stroke="transparent" points="-4,4 -4,-191 266,-191 266,4 -4,4"/>
<!-- Node2 -->
<g id="node1" class="node">
<title>Node2</title>
<polygon fill="#bfbfbf" stroke="#000000" points="105,-.5 105,-30.5 227,-30.5 227,-.5 105,-.5"/>
<text text-anchor="start" x="113" y="-18.5" font-family="Helvetica,sans-Serif" font-size="10.00" fill="#000000">amr_wind::synth_turb</text>
<text text-anchor="middle" x="166" y="-7.5" font-family="Helvetica,sans-Serif" font-size="10.00" fill="#000000">::LinearShearProfile</text>
</g>
<!-- Node3 -->
<g id="node2" class="node">
<title>Node3</title>
<g id="a_node2"><a xlink:href="classamr__wind_1_1synth__turb_1_1_mean_profile.html" target="_top" xlink:title="amr_wind::synth_turb\l::MeanProfile">
<polygon fill="#ffffff" stroke="#000000" points="0,-78.5 0,-108.5 122,-108.5 122,-78.5 0,-78.5"/>
<text text-anchor="start" x="8" y="-96.5" font-family="Helvetica,sans-Serif" font-size="10.00" fill="#000000">amr_wind::synth_turb</text>
<text text-anchor="middle" x="61" y="-85.5" font-family="Helvetica,sans-Serif" font-size="10.00" fill="#000000">::MeanProfile</text>
</a>
</g>
</g>
<!-- Node3&#45;&gt;Node2 -->
<g id="edge1" class="edge">
<title>Node3&#45;&gt;Node2</title>
<path fill="none" stroke="#191970" d="M89.5067,-72.3236C107.1914,-59.1864 129.5035,-42.6117 145.4588,-30.7592"/>
<polygon fill="#191970" stroke="#191970" points="87.1854,-69.6879 81.2451,-78.4608 91.3597,-75.3071 87.1854,-69.6879"/>
</g>
<!-- Node4 -->
<g id="node3" class="node">
<title>Node4</title>
<g id="a_node3"><a xlink:href="structamr__wind_1_1synth__turb_1_1_mean_vel_op.html" target="_top" xlink:title="amr_wind::synth_turb\l::MeanVelOp">
<polygon fill="#ffffff" stroke="#000000" points="0,-156.5 0,-186.5 122,-186.5 122,-156.5 0,-156.5"/>
<text text-anchor="start" x="8" y="-174.5" font-family="Helvetica,sans-Serif" font-size="10.00" fill="#000000">amr_wind::synth_turb</text>
<text text-anchor="middle" x="61" y="-163.5" font-family="Helvetica,sans-Serif" font-size="10.00" fill="#000000">::MeanVelOp</text>
</a>
</g>
</g>
<!-- Node4&#45;&gt;Node3 -->
<g id="edge2" class="edge">
<title>Node4&#45;&gt;Node3</title>
<path fill="none" stroke="#9a32cd" stroke-dasharray="5,2" d="M61,-146.2875C61,-133.9187 61,-119.4264 61,-108.7592"/>
<polygon fill="#9a32cd" stroke="#9a32cd" points="57.5001,-146.4608 61,-156.4608 64.5001,-146.4608 57.5001,-146.4608"/>
<text text-anchor="middle" x="76.5" y="-130" font-family="Helvetica,sans-Serif" font-size="10.00" fill="#000000"> m_op</text>
</g>
<!-- Node5 -->
<g id="node4" class="node">
<title>Node5</title>
<g id="a_node4"><a xlink:href="structamr__wind_1_1synth__turb_1_1_linear_shear_op.html" target="_top" xlink:title="amr_wind::synth_turb\l::LinearShearOp">
<polygon fill="#ffffff" stroke="#000000" points="140,-78.5 140,-108.5 262,-108.5 262,-78.5 140,-78.5"/>
<text text-anchor="start" x="148" y="-96.5" font-family="Helvetica,sans-Serif" font-size="10.00" fill="#000000">amr_wind::synth_turb</text>
<text text-anchor="middle" x="201" y="-85.5" font-family="Helvetica,sans-Serif" font-size="10.00" fill="#000000">::LinearShearOp</text>
</a>
</g>
</g>
<!-- Node5&#45;&gt;Node2 -->
<g id="edge3" class="edge">
<title>Node5&#45;&gt;Node2</title>
<path fill="none" stroke="#9a32cd" stroke-dasharray="5,2" d="M190.0219,-69.0344C184.4,-56.5058 177.7303,-41.6419 172.8471,-30.7592"/>
<polygon fill="#9a32cd" stroke="#9a32cd" points="186.9644,-70.7701 194.2516,-78.4608 193.3509,-67.9043 186.9644,-70.7701"/>
<text text-anchor="middle" x="200.5" y="-52" font-family="Helvetica,sans-Serif" font-size="10.00" fill="#000000"> m_op</text>
</g>
</g>
</svg>
