<?xml version="1.0" encoding="UTF-8" standalone="no"?>
<!DOCTYPE svg PUBLIC "-//W3C//DTD SVG 1.1//EN"
 "http://www.w3.org/Graphics/SVG/1.1/DTD/svg11.dtd">
<!-- Generated by graphviz version 2.40.1 (20161225.0304)
 -->
<!-- Title: amr_wind::ABLFillInflow Pages: 1 -->
<svg width="224pt" height="242pt"
 viewBox="0.00 0.00 224.00 242.00" xmlns="http://www.w3.org/2000/svg" xmlns:xlink="http://www.w3.org/1999/xlink">
<g id="graph0" class="graph" transform="scale(1 1) rotate(0) translate(4 238)">
<title>amr_wind::ABLFillInflow</title>
<polygon fill="#ffffff" stroke="transparent" points="-4,4 -4,-238 220,-238 220,4 -4,4"/>
<!-- Node0 -->
<g id="node1" class="node">
<title>Node0</title>
<polygon fill="#bfbfbf" stroke="#000000" points="4.5,-.5 4.5,-19.5 136.5,-19.5 136.5,-.5 4.5,-.5"/>
<text text-anchor="middle" x="70.5" y="-7.5" font-family="Helvetica,sans-Serif" font-size="10.00" fill="#000000">amr_wind::ABLFillInflow</text>
</g>
<!-- Node1 -->
<g id="node2" class="node">
<title>Node1</title>
<g id="a_node2"><a xlink:href="classamr__wind_1_1_field_fill_patch_ops.html" target="_top" xlink:title="amr_wind::FieldFillPatch\lOps\&lt; FieldBCNoOp \&gt;">
<polygon fill="#ffffff" stroke="#000000" points="4,-57.5 4,-87.5 137,-87.5 137,-57.5 4,-57.5"/>
<text text-anchor="start" x="12" y="-75.5" font-family="Helvetica,sans-Serif" font-size="10.00" fill="#000000">amr_wind::FieldFillPatch</text>
<text text-anchor="middle" x="70.5" y="-64.5" font-family="Helvetica,sans-Serif" font-size="10.00" fill="#000000">Ops&lt; FieldBCNoOp &gt;</text>
</a>
</g>
</g>
<!-- Node1&#45;&gt;Node0 -->
<g id="edge1" class="edge">
<title>Node1&#45;&gt;Node0</title>
<path fill="none" stroke="#191970" d="M70.5,-47.3498C70.5,-37.6481 70.5,-27.1303 70.5,-19.7356"/>
<polygon fill="#191970" stroke="#191970" points="67.0001,-47.3705 70.5,-57.3705 74.0001,-47.3705 67.0001,-47.3705"/>
</g>
<!-- Node2 -->
<g id="node3" class="node">
<title>Node2</title>
<g id="a_node3"><a xlink:href="classamr__wind_1_1_field_fill_patch_ops_base.html" target="_top" xlink:title="Abstract interface for classes that handle fill patch and physical boundary condition operations for ...">
<polygon fill="#ffffff" stroke="#000000" points="0,-203.5 0,-233.5 133,-233.5 133,-203.5 0,-203.5"/>
<text text-anchor="start" x="8" y="-221.5" font-family="Helvetica,sans-Serif" font-size="10.00" fill="#000000">amr_wind::FieldFillPatch</text>
<text text-anchor="middle" x="66.5" y="-210.5" font-family="Helvetica,sans-Serif" font-size="10.00" fill="#000000">OpsBase</text>
</a>
</g>
</g>
<!-- Node2&#45;&gt;Node1 -->
<g id="edge2" class="edge">
<title>Node2&#45;&gt;Node1</title>
<path fill="none" stroke="#191970" d="M67.1934,-193.1912C68.0267,-162.7761 69.3981,-112.7201 70.0832,-87.7114"/>
<polygon fill="#191970" stroke="#191970" points="63.6883,-193.3332 66.913,-203.4253 70.6857,-193.525 63.6883,-193.3332"/>
</g>
<!-- Node3 -->
<g id="node4" class="node">
<title>Node3</title>
<g id="a_node4"><a xlink:href="classamr__wind_1_1_field_fill_patch_ops.html" target="_top" xlink:title="Concrete implementation of filling patches and boundary conditions on multi&#45;level AMR meshes...">
<polygon fill="#ffffff" stroke="#000000" points="83,-135.5 83,-165.5 216,-165.5 216,-135.5 83,-135.5"/>
<text text-anchor="start" x="91" y="-153.5" font-family="Helvetica,sans-Serif" font-size="10.00" fill="#000000">amr_wind::FieldFillPatch</text>
<text text-anchor="middle" x="149.5" y="-142.5" font-family="Helvetica,sans-Serif" font-size="10.00" fill="#000000">Ops&lt; BCOpCreator &gt;</text>
</a>
</g>
</g>
<!-- Node2&#45;&gt;Node3 -->
<g id="edge4" class="edge">
<title>Node2&#45;&gt;Node3</title>
<path fill="none" stroke="#191970" d="M92.7577,-196.9877C105.2397,-186.7614 119.8583,-174.7848 131.1311,-165.5492"/>
<polygon fill="#191970" stroke="#191970" points="90.4377,-194.3637 84.9204,-203.4086 94.874,-199.7785 90.4377,-194.3637"/>
</g>
<!-- Node3&#45;&gt;Node1 -->
<g id="edge3" class="edge">
<title>Node3&#45;&gt;Node1</title>
<path fill="none" stroke="#ffa500" stroke-dasharray="5,2" d="M126.9558,-128.2412C113.8344,-115.2859 97.6319,-99.2884 85.9548,-87.7592"/>
<polygon fill="#ffa500" stroke="#ffa500" points="124.6929,-130.9255 134.268,-135.4608 129.6111,-125.9443 124.6929,-130.9255"/>
<text text-anchor="middle" x="159" y="-109" font-family="Helvetica,sans-Serif" font-size="10.00" fill="#000000"> &lt; FieldBCNoOp &gt;</text>
</g>
</g>
</svg>
