<?xml version="1.0" encoding="UTF-8" standalone="no"?>
<!DOCTYPE svg PUBLIC "-//W3C//DTD SVG 1.1//EN"
 "http://www.w3.org/Graphics/SVG/1.1/DTD/svg11.dtd">
<!-- Generated by graphviz version 2.40.1 (20161225.0304)
 -->
<!-- Title: amr_wind::ABLFillInflow Pages: 1 -->
<svg width="1912pt" height="382pt"
 viewBox="0.00 0.00 1912.00 382.00" xmlns="http://www.w3.org/2000/svg" xmlns:xlink="http://www.w3.org/1999/xlink">
<g id="graph0" class="graph" transform="scale(1 1) rotate(0) translate(4 378)">
<title>amr_wind::ABLFillInflow</title>
<polygon fill="#ffffff" stroke="transparent" points="-4,4 -4,-378 1908,-378 1908,4 -4,4"/>
<!-- Node4 -->
<g id="node1" class="node">
<title>Node4</title>
<polygon fill="#bfbfbf" stroke="#000000" points="1772,-114.5 1772,-133.5 1904,-133.5 1904,-114.5 1772,-114.5"/>
<text text-anchor="middle" x="1838" y="-121.5" font-family="Helvetica,sans-Serif" font-size="10.00" fill="#000000">amr_wind::ABLFillInflow</text>
</g>
<!-- Node5 -->
<g id="node2" class="node">
<title>Node5</title>
<g id="a_node2"><a xlink:href="classamr__wind_1_1_field_fill_patch_ops.html" target="_top" xlink:title="amr_wind::FieldFillPatch\lOps\&lt; FieldBCNoOp \&gt;">
<polygon fill="#ffffff" stroke="#000000" points="1602,-204 1602,-234 1735,-234 1735,-204 1602,-204"/>
<text text-anchor="start" x="1610" y="-222" font-family="Helvetica,sans-Serif" font-size="10.00" fill="#000000">amr_wind::FieldFillPatch</text>
<text text-anchor="middle" x="1668.5" y="-211" font-family="Helvetica,sans-Serif" font-size="10.00" fill="#000000">Ops&lt; FieldBCNoOp &gt;</text>
</a>
</g>
</g>
<!-- Node5&#45;&gt;Node4 -->
<g id="edge1" class="edge">
<title>Node5&#45;&gt;Node4</title>
<path fill="none" stroke="#191970" d="M1704.4767,-198.8361C1740.1711,-178.8304 1793.3643,-149.017 1820.583,-133.7617"/>
<polygon fill="#191970" stroke="#191970" points="1702.3699,-196.0046 1695.3578,-203.947 1705.7923,-202.1109 1702.3699,-196.0046"/>
</g>
<!-- Node6 -->
<g id="node3" class="node">
<title>Node6</title>
<g id="a_node3"><a xlink:href="classamr__wind_1_1_field_fill_patch_ops_base.html" target="_top" xlink:title="Abstract interface for classes that handle fill patch and physical boundary condition operations for ...">
<polygon fill="#ffffff" stroke="#000000" points="1133.5,-191 1133.5,-221 1266.5,-221 1266.5,-191 1133.5,-191"/>
<text text-anchor="start" x="1141.5" y="-209" font-family="Helvetica,sans-Serif" font-size="10.00" fill="#000000">amr_wind::FieldFillPatch</text>
<text text-anchor="middle" x="1200" y="-198" font-family="Helvetica,sans-Serif" font-size="10.00" fill="#000000">OpsBase</text>
</a>
</g>
</g>
<!-- Node6&#45;&gt;Node5 -->
<g id="edge2" class="edge">
<title>Node6&#45;&gt;Node5</title>
<path fill="none" stroke="#191970" d="M1276.8144,-208.1315C1367.2308,-210.6403 1515.905,-214.7658 1601.7239,-217.1471"/>
<polygon fill="#191970" stroke="#191970" points="1276.7203,-204.6276 1266.6271,-207.8488 1276.5261,-211.6249 1276.7203,-204.6276"/>
</g>
<!-- Node17 -->
<g id="node14" class="node">
<title>Node17</title>
<g id="a_node14"><a xlink:href="classamr__wind_1_1_field_fill_patch_ops.html" target="_top" xlink:title="Concrete implementation of filling patches and boundary conditions on multi&#45;level AMR meshes...">
<polygon fill="#ffffff" stroke="#000000" points="1343.5,-267 1343.5,-297 1476.5,-297 1476.5,-267 1343.5,-267"/>
<text text-anchor="start" x="1351.5" y="-285" font-family="Helvetica,sans-Serif" font-size="10.00" fill="#000000">amr_wind::FieldFillPatch</text>
<text text-anchor="middle" x="1410" y="-274" font-family="Helvetica,sans-Serif" font-size="10.00" fill="#000000">Ops&lt; BCOpCreator &gt;</text>
</a>
</g>
</g>
<!-- Node6&#45;&gt;Node17 -->
<g id="edge15" class="edge">
<title>Node6&#45;&gt;Node17</title>
<path fill="none" stroke="#191970" d="M1276.511,-219.3789C1293.1554,-224.1241 1310.1978,-230.4903 1325,-239 1334.8084,-244.6388 1333.4827,-250.8827 1343,-257 1348.8486,-260.7592 1355.3445,-264.0701 1361.9247,-266.9489"/>
<polygon fill="#191970" stroke="#191970" points="1277.3423,-215.9782 1266.777,-216.7683 1275.529,-222.7393 1277.3423,-215.9782"/>
</g>
<!-- Node7 -->
<g id="node4" class="node">
<title>Node7</title>
<g id="a_node4"><a xlink:href="classamr__wind_1_1_field.html" target="_top" xlink:title="Computational fieldThis is an abstraction of a collection of MultiFabs over multiple levels...">
<polygon fill="#ffffff" stroke="#000000" points="928,-299.5 928,-318.5 1021,-318.5 1021,-299.5 928,-299.5"/>
<text text-anchor="middle" x="974.5" y="-306.5" font-family="Helvetica,sans-Serif" font-size="10.00" fill="#000000">amr_wind::Field</text>
</a>
</g>
</g>
<!-- Node7&#45;&gt;Node5 -->
<g id="edge3" class="edge">
<title>Node7&#45;&gt;Node5</title>
<path fill="none" stroke="#9a32cd" stroke-dasharray="5,2" d="M1003.7963,-323.0107C1034.9897,-337.0913 1086.2093,-357.8423 1133,-366 1191.6705,-376.2289 1207.9661,-373.8656 1267,-366 1411.7028,-346.72 1452.2413,-342.8512 1584,-280 1609.4755,-267.8477 1635.2808,-247.8544 1651.5539,-234.089"/>
<polygon fill="#9a32cd" stroke="#9a32cd" points="1004.9515,-319.6898 994.4032,-318.6979 1002.0306,-326.0513 1004.9515,-319.6898"/>
<text text-anchor="middle" x="1305" y="-366" font-family="Helvetica,sans-Serif" font-size="10.00" fill="#000000"> m_field</text>
</g>
<!-- Node7&#45;&gt;Node17 -->
<g id="edge16" class="edge">
<title>Node7&#45;&gt;Node17</title>
<path fill="none" stroke="#9a32cd" stroke-dasharray="5,2" d="M1031.5118,-305.4654C1111.8057,-300.4874 1257.9031,-291.4297 1343.1899,-286.1421"/>
<polygon fill="#9a32cd" stroke="#9a32cd" points="1030.8704,-301.9984 1021.1061,-306.1105 1031.3036,-308.9849 1030.8704,-301.9984"/>
<text text-anchor="middle" x="1200" y="-302" font-family="Helvetica,sans-Serif" font-size="10.00" fill="#000000"> m_field</text>
</g>
<!-- Node18 -->
<g id="node15" class="node">
<title>Node18</title>
<g id="a_node15"><a xlink:href="structamr__wind_1_1_b_c_op_creator.html" target="_top" xlink:title="amr_wind::BCOpCreator\l\&lt; InflowOp, WallOp \&gt;">
<polygon fill="#ffffff" stroke="#000000" points="1133,-326 1133,-356 1267,-356 1267,-326 1133,-326"/>
<text text-anchor="start" x="1141" y="-344" font-family="Helvetica,sans-Serif" font-size="10.00" fill="#000000">amr_wind::BCOpCreator</text>
<text text-anchor="middle" x="1200" y="-333" font-family="Helvetica,sans-Serif" font-size="10.00" fill="#000000">&lt; InflowOp, WallOp &gt;</text>
</a>
</g>
</g>
<!-- Node7&#45;&gt;Node18 -->
<g id="edge19" class="edge">
<title>Node7&#45;&gt;Node18</title>
<path fill="none" stroke="#9a32cd" stroke-dasharray="5,2" d="M1031.3752,-317.071C1062.2097,-321.4466 1100.5056,-326.8811 1132.8054,-331.4646"/>
<polygon fill="#9a32cd" stroke="#9a32cd" points="1031.6163,-313.5702 1021.2237,-315.6304 1030.6328,-320.5008 1031.6163,-313.5702"/>
<text text-anchor="middle" x="1094.5" y="-331" font-family="Helvetica,sans-Serif" font-size="10.00" fill="#000000"> m_field</text>
</g>
<!-- Node8 -->
<g id="node5" class="node">
<title>Node8</title>
<g id="a_node5"><a xlink:title="STL class. ">
<polygon fill="#ffffff" stroke="#bfbfbf" points="213.5,-121.5 213.5,-140.5 278.5,-140.5 278.5,-121.5 213.5,-121.5"/>
<text text-anchor="middle" x="246" y="-128.5" font-family="Helvetica,sans-Serif" font-size="10.00" fill="#000000">std::string</text>
</a>
</g>
</g>
<!-- Node8&#45;&gt;Node7 -->
<g id="edge4" class="edge">
<title>Node8&#45;&gt;Node7</title>
<path fill="none" stroke="#9a32cd" stroke-dasharray="5,2" d="M282.1607,-143.9153C371.8914,-175.3923 612.5105,-256.3135 820,-295 855.8757,-301.689 897.0576,-305.2193 927.8778,-307.0606"/>
<polygon fill="#9a32cd" stroke="#9a32cd" points="283.0638,-140.5227 272.469,-140.5015 280.7382,-147.1251 283.0638,-140.5227"/>
<text text-anchor="middle" x="627.5" y="-263" font-family="Helvetica,sans-Serif" font-size="10.00" fill="#000000"> m_name</text>
</g>
<!-- Node11 -->
<g id="node8" class="node">
<title>Node11</title>
<polygon fill="#ffffff" stroke="#bfbfbf" points="448,-116 448,-146 570,-146 570,-116 448,-116"/>
<text text-anchor="start" x="456" y="-134" font-family="Helvetica,sans-Serif" font-size="10.00" fill="#000000">std::unordered_map</text>
<text text-anchor="middle" x="509" y="-123" font-family="Helvetica,sans-Serif" font-size="10.00" fill="#000000">&lt; std::string, size_t &gt;</text>
</g>
<!-- Node8&#45;&gt;Node11 -->
<g id="edge8" class="edge">
<title>Node8&#45;&gt;Node11</title>
<path fill="none" stroke="#9a32cd" stroke-dasharray="5,2" d="M288.6748,-131C331.829,-131 398.9498,-131 447.7721,-131"/>
<polygon fill="#9a32cd" stroke="#9a32cd" points="288.5128,-127.5001 278.5127,-131 288.5127,-134.5001 288.5128,-127.5001"/>
<text text-anchor="middle" x="375.5" y="-134" font-family="Helvetica,sans-Serif" font-size="10.00" fill="#000000"> keys</text>
</g>
<!-- Node19 -->
<g id="node16" class="node">
<title>Node19</title>
<g id="a_node16"><a xlink:href="classamr__wind_1_1_a_b_l_boundary_plane.html" target="_top" xlink:title="Interface for ABL boundary plane I/OThis class performs the necessary file operations to read and wri...">
<polygon fill="#ffffff" stroke="#000000" points="893,-95.5 893,-114.5 1056,-114.5 1056,-95.5 893,-95.5"/>
<text text-anchor="middle" x="974.5" y="-102.5" font-family="Helvetica,sans-Serif" font-size="10.00" fill="#000000">amr_wind::ABLBoundaryPlane</text>
</a>
</g>
</g>
<!-- Node8&#45;&gt;Node19 -->
<g id="edge25" class="edge">
<title>Node8&#45;&gt;Node19</title>
<path fill="none" stroke="#9a32cd" stroke-dasharray="5,2" d="M288.9212,-124.4711C329.7315,-118.5523 392.893,-110.1411 448,-106 612.928,-93.6062 654.6219,-98.2224 820,-96 844.4422,-95.6715 850.5804,-94.8978 875,-96 880.8046,-96.262 886.7939,-96.6095 892.8201,-97.0157"/>
<polygon fill="#9a32cd" stroke="#9a32cd" points="288.1786,-121.0424 278.7919,-125.9556 289.1938,-127.9684 288.1786,-121.0424"/>
<text text-anchor="middle" x="627.5" y="-113" font-family="Helvetica,sans-Serif" font-size="10.00" fill="#000000"> m_title</text>
<text text-anchor="middle" x="627.5" y="-102" font-family="Helvetica,sans-Serif" font-size="10.00" fill="#000000">m_filename</text>
</g>
<!-- Node9 -->
<g id="node6" class="node">
<title>Node9</title>
<g id="a_node6"><a xlink:title="STL class. ">
<polygon fill="#ffffff" stroke="#bfbfbf" points="0,-116 0,-146 104,-146 104,-116 0,-116"/>
<text text-anchor="start" x="8" y="-134" font-family="Helvetica,sans-Serif" font-size="10.00" fill="#000000">std::basic_string&lt;</text>
<text text-anchor="middle" x="52" y="-123" font-family="Helvetica,sans-Serif" font-size="10.00" fill="#000000"> char &gt;</text>
</a>
</g>
</g>
<!-- Node9&#45;&gt;Node8 -->
<g id="edge5" class="edge">
<title>Node9&#45;&gt;Node8</title>
<path fill="none" stroke="#191970" d="M114.2675,-131C147.2713,-131 186.4557,-131 213.4613,-131"/>
<polygon fill="#191970" stroke="#191970" points="114.2437,-127.5001 104.2436,-131 114.2436,-134.5001 114.2437,-127.5001"/>
</g>
<!-- Node10 -->
<g id="node7" class="node">
<title>Node10</title>
<g id="a_node7"><a xlink:href="classamr__wind_1_1_field_repo.html" target="_top" xlink:title="Field RepositoryFieldRepo is a database that manages handling of fields used during a simulation...">
<polygon fill="#ffffff" stroke="#000000" points="685,-166.5 685,-185.5 802,-185.5 802,-166.5 685,-166.5"/>
<text text-anchor="middle" x="743.5" y="-173.5" font-family="Helvetica,sans-Serif" font-size="10.00" fill="#000000">amr_wind::FieldRepo</text>
</a>
</g>
</g>
<!-- Node10&#45;&gt;Node7 -->
<g id="edge6" class="edge">
<title>Node10&#45;&gt;Node7</title>
<path fill="none" stroke="#9a32cd" stroke-dasharray="5,2" d="M755.3806,-194.1902C768.8564,-213.4438 792.5575,-243.4256 820,-261 839.2772,-273.3453 896.642,-289.4293 935.7771,-299.4862"/>
<polygon fill="#9a32cd" stroke="#9a32cd" points="758.129,-192.0073 749.615,-185.7015 752.3384,-195.9404 758.129,-192.0073"/>
<text text-anchor="middle" x="847.5" y="-285" font-family="Helvetica,sans-Serif" font-size="10.00" fill="#000000"> m_repo</text>
</g>
<!-- Node10&#45;&gt;Node19 -->
<g id="edge26" class="edge">
<title>Node10&#45;&gt;Node19</title>
<path fill="none" stroke="#9a32cd" stroke-dasharray="5,2" d="M784.4919,-163.4007C830.0005,-149.4133 902.4333,-127.1504 943.4719,-114.5368"/>
<polygon fill="#9a32cd" stroke="#9a32cd" points="783.1841,-160.1411 774.6537,-166.4246 785.2407,-166.8321 783.1841,-160.1411"/>
<text text-anchor="middle" x="847.5" y="-155" font-family="Helvetica,sans-Serif" font-size="10.00" fill="#000000"> m_repo</text>
</g>
<!-- Node11&#45;&gt;Node10 -->
<g id="edge7" class="edge">
<title>Node11&#45;&gt;Node10</title>
<path fill="none" stroke="#9a32cd" stroke-dasharray="5,2" d="M580.4603,-144.7131C617.1839,-151.7602 661.0176,-160.1718 693.9813,-166.4975"/>
<polygon fill="#9a32cd" stroke="#9a32cd" points="580.7863,-141.2118 570.3058,-142.7644 579.467,-148.0864 580.7863,-141.2118"/>
<text text-anchor="middle" x="627.5" y="-175" font-family="Helvetica,sans-Serif" font-size="10.00" fill="#000000"> m_fid_map</text>
<text text-anchor="middle" x="627.5" y="-164" font-family="Helvetica,sans-Serif" font-size="10.00" fill="#000000">m_int_fid_map</text>
</g>
<!-- Node12 -->
<g id="node9" class="node">
<title>Node12</title>
<g id="a_node9"><a xlink:title="STL class. ">
<polygon fill="#ffffff" stroke="#bfbfbf" points="189,-14 189,-44 303,-44 303,-14 189,-14"/>
<text text-anchor="start" x="197" y="-32" font-family="Helvetica,sans-Serif" font-size="10.00" fill="#000000">std::unordered_map</text>
<text text-anchor="middle" x="246" y="-21" font-family="Helvetica,sans-Serif" font-size="10.00" fill="#000000">&lt; K, T &gt;</text>
</a>
</g>
</g>
<!-- Node12&#45;&gt;Node11 -->
<g id="edge9" class="edge">
<title>Node12&#45;&gt;Node11</title>
<path fill="none" stroke="#ffa500" stroke-dasharray="5,2" d="M294.2183,-47.7006C344.7774,-67.3091 423.2484,-97.7427 470.0342,-115.8878"/>
<polygon fill="#ffa500" stroke="#ffa500" points="295.3955,-44.4032 284.8066,-44.0505 292.8643,-50.9296 295.3955,-44.4032"/>
<text text-anchor="middle" x="375.5" y="-102" font-family="Helvetica,sans-Serif" font-size="10.00" fill="#000000"> &lt; std::string, size_t &gt;</text>
</g>
<!-- Node21 -->
<g id="node18" class="node">
<title>Node21</title>
<polygon fill="#ffffff" stroke="#bfbfbf" points="452,-5 452,-35 566,-35 566,-5 452,-5"/>
<text text-anchor="start" x="460" y="-23" font-family="Helvetica,sans-Serif" font-size="10.00" fill="#000000">std::unordered_map</text>
<text text-anchor="middle" x="509" y="-12" font-family="Helvetica,sans-Serif" font-size="10.00" fill="#000000">&lt; int, int &gt;</text>
</g>
<!-- Node12&#45;&gt;Node21 -->
<g id="edge23" class="edge">
<title>Node12&#45;&gt;Node21</title>
<path fill="none" stroke="#ffa500" stroke-dasharray="5,2" d="M313.2519,-13.9476C315.8617,-13.5877 318.4512,-13.2688 321,-13 364.6874,-8.3919 414.3635,-10.5581 451.6763,-13.6524"/>
<polygon fill="#ffa500" stroke="#ffa500" points="312.4735,-10.5265 303.1291,-15.5198 313.5478,-17.4435 312.4735,-10.5265"/>
<text text-anchor="middle" x="375.5" y="-16" font-family="Helvetica,sans-Serif" font-size="10.00" fill="#000000"> &lt; int, int &gt;</text>
</g>
<!-- Node13 -->
<g id="node10" class="node">
<title>Node13</title>
<polygon fill="#ffffff" stroke="#bfbfbf" points="37.5,-38.5 37.5,-57.5 66.5,-57.5 66.5,-38.5 37.5,-38.5"/>
<text text-anchor="middle" x="52" y="-45.5" font-family="Helvetica,sans-Serif" font-size="10.00" fill="#000000">K</text>
</g>
<!-- Node13&#45;&gt;Node12 -->
<g id="edge10" class="edge">
<title>Node13&#45;&gt;Node12</title>
<path fill="none" stroke="#9a32cd" stroke-dasharray="5,2" d="M76.7174,-45.5792C104.8185,-42.8271 151.6251,-38.2429 188.9063,-34.5917"/>
<polygon fill="#9a32cd" stroke="#9a32cd" points="76.1927,-42.1138 66.5815,-46.5719 76.8751,-49.0804 76.1927,-42.1138"/>
<text text-anchor="middle" x="146.5" y="-44" font-family="Helvetica,sans-Serif" font-size="10.00" fill="#000000"> keys</text>
</g>
<!-- Node14 -->
<g id="node11" class="node">
<title>Node14</title>
<polygon fill="#ffffff" stroke="#bfbfbf" points="37.5,-.5 37.5,-19.5 66.5,-19.5 66.5,-.5 37.5,-.5"/>
<text text-anchor="middle" x="52" y="-7.5" font-family="Helvetica,sans-Serif" font-size="10.00" fill="#000000">T</text>
</g>
<!-- Node14&#45;&gt;Node12 -->
<g id="edge11" class="edge">
<title>Node14&#45;&gt;Node12</title>
<path fill="none" stroke="#9a32cd" stroke-dasharray="5,2" d="M76.7174,-12.4208C104.8185,-15.1729 151.6251,-19.7571 188.9063,-23.4083"/>
<polygon fill="#9a32cd" stroke="#9a32cd" points="76.8751,-8.9196 66.5815,-11.4281 76.1927,-15.8862 76.8751,-8.9196"/>
<text text-anchor="middle" x="146.5" y="-25" font-family="Helvetica,sans-Serif" font-size="10.00" fill="#000000"> elements</text>
</g>
<!-- Node15 -->
<g id="node12" class="node">
<title>Node15</title>
<g id="a_node12"><a xlink:href="structamr__wind_1_1_field_b_c_no_op.html" target="_top" xlink:title="A no&#45;op BC. ">
<polygon fill="#ffffff" stroke="#000000" points="1343,-228.5 1343,-247.5 1477,-247.5 1477,-228.5 1343,-228.5"/>
<text text-anchor="middle" x="1410" y="-235.5" font-family="Helvetica,sans-Serif" font-size="10.00" fill="#000000">amr_wind::FieldBCNoOp</text>
</a>
</g>
</g>
<!-- Node15&#45;&gt;Node5 -->
<g id="edge12" class="edge">
<title>Node15&#45;&gt;Node5</title>
<path fill="none" stroke="#9a32cd" stroke-dasharray="5,2" d="M1487.315,-232.3173C1523.6866,-229.6439 1566.6397,-226.4868 1601.5937,-223.9177"/>
<polygon fill="#9a32cd" stroke="#9a32cd" points="1486.9595,-228.8339 1477.243,-233.0576 1487.4727,-235.815 1486.9595,-228.8339"/>
<text text-anchor="middle" x="1539.5" y="-234" font-family="Helvetica,sans-Serif" font-size="10.00" fill="#000000"> m_op</text>
</g>
<!-- Node16 -->
<g id="node13" class="node">
<title>Node16</title>
<g id="a_node13"><a xlink:href="classamr__wind_1_1_sim_time.html" target="_top" xlink:title="Time manager for simulations. ">
<polygon fill="#ffffff" stroke="#000000" points="686.5,-128.5 686.5,-147.5 800.5,-147.5 800.5,-128.5 686.5,-128.5"/>
<text text-anchor="middle" x="743.5" y="-135.5" font-family="Helvetica,sans-Serif" font-size="10.00" fill="#000000">amr_wind::SimTime</text>
</a>
</g>
</g>
<!-- Node16&#45;&gt;Node5 -->
<g id="edge13" class="edge">
<title>Node16&#45;&gt;Node5</title>
<path fill="none" stroke="#9a32cd" stroke-dasharray="5,2" d="M804.206,-149.0311C809.5359,-149.7826 814.8569,-150.4559 820,-151 1017.7425,-171.9202 1068.8215,-153.7206 1267,-170 1385.2769,-179.7158 1522.3675,-197.9582 1601.8861,-209.2353"/>
<polygon fill="#9a32cd" stroke="#9a32cd" points="804.3978,-145.5209 793.99,-147.503 803.3622,-152.4439 804.3978,-145.5209"/>
<text text-anchor="middle" x="1200" y="-173" font-family="Helvetica,sans-Serif" font-size="10.00" fill="#000000"> m_time</text>
</g>
<!-- Node16&#45;&gt;Node17 -->
<g id="edge17" class="edge">
<title>Node16&#45;&gt;Node17</title>
<path fill="none" stroke="#9a32cd" stroke-dasharray="5,2" d="M792.7116,-151.6077C795.9594,-153.22 799.0907,-155.0116 802,-157 812.4301,-164.1287 809.093,-172.6248 820,-179 908.1986,-230.5528 1208.6125,-263.6491 1343.4936,-276.2489"/>
<polygon fill="#9a32cd" stroke="#9a32cd" points="793.9037,-148.3094 783.3381,-147.5236 791.1076,-154.7267 793.9037,-148.3094"/>
<text text-anchor="middle" x="1094.5" y="-252" font-family="Helvetica,sans-Serif" font-size="10.00" fill="#000000"> m_time</text>
</g>
<!-- Node16&#45;&gt;Node19 -->
<g id="edge24" class="edge">
<title>Node16&#45;&gt;Node19</title>
<path fill="none" stroke="#9a32cd" stroke-dasharray="5,2" d="M770.0508,-123.8779C784.4055,-117.0283 802.6942,-109.532 820,-106 843.3907,-101.2261 869.1912,-99.6507 892.8988,-99.6269"/>
<polygon fill="#9a32cd" stroke="#9a32cd" points="768.2088,-120.8845 760.8019,-128.46 771.3163,-127.1569 768.2088,-120.8845"/>
<text text-anchor="middle" x="847.5" y="-109" font-family="Helvetica,sans-Serif" font-size="10.00" fill="#000000"> m_time</text>
</g>
<!-- Node17&#45;&gt;Node5 -->
<g id="edge14" class="edge">
<title>Node17&#45;&gt;Node5</title>
<path fill="none" stroke="#ffa500" stroke-dasharray="5,2" d="M1487.0072,-267.8797C1517.3925,-261.8368 1552.5014,-254.2663 1584,-246 1597.2578,-242.5207 1611.5104,-238.1973 1624.4636,-234.0371"/>
<polygon fill="#ffa500" stroke="#ffa500" points="1486.0318,-264.5044 1476.8957,-269.8692 1487.3833,-271.3727 1486.0318,-264.5044"/>
<text text-anchor="middle" x="1539.5" y="-268" font-family="Helvetica,sans-Serif" font-size="10.00" fill="#000000"> &lt; FieldBCNoOp &gt;</text>
</g>
<!-- Node18&#45;&gt;Node17 -->
<g id="edge18" class="edge">
<title>Node18&#45;&gt;Node17</title>
<path fill="none" stroke="#9a32cd" stroke-dasharray="5,2" d="M1274.2275,-323.5668C1290.9895,-319.3596 1308.6571,-314.7111 1325,-310 1338.5855,-306.0838 1353.2529,-301.4137 1366.5166,-297.0206"/>
<polygon fill="#9a32cd" stroke="#9a32cd" points="1273.3401,-320.1808 1264.4799,-325.99 1275.0289,-326.974 1273.3401,-320.1808"/>
<text text-anchor="middle" x="1305" y="-323" font-family="Helvetica,sans-Serif" font-size="10.00" fill="#000000"> m_op</text>
</g>
<!-- Node19&#45;&gt;Node4 -->
<g id="edge20" class="edge">
<title>Node19&#45;&gt;Node4</title>
<path fill="none" stroke="#9a32cd" stroke-dasharray="5,2" d="M1066.3793,-109.1432C1107.279,-110.6544 1156.0383,-112 1200,-112 1200,-112 1200,-112 1668.5,-112 1702.5734,-112 1740.4036,-114.4427 1771.6649,-117.1239"/>
<polygon fill="#9a32cd" stroke="#9a32cd" points="1066.2834,-105.6372 1056.1581,-108.7561 1066.0184,-112.6321 1066.2834,-105.6372"/>
<text text-anchor="middle" x="1410" y="-115" font-family="Helvetica,sans-Serif" font-size="10.00" fill="#000000"> m_bndry_plane</text>
</g>
<!-- Node20 -->
<g id="node17" class="node">
<title>Node20</title>
<g id="a_node17"><a xlink:href="classamr__wind_1_1_inlet_data.html" target="_top" xlink:title="Collection of data structures and operations for reading dataThis class contains the inlet data struc...">
<polygon fill="#ffffff" stroke="#000000" points="685.5,-20.5 685.5,-39.5 801.5,-39.5 801.5,-20.5 685.5,-20.5"/>
<text text-anchor="middle" x="743.5" y="-27.5" font-family="Helvetica,sans-Serif" font-size="10.00" fill="#000000">amr_wind::InletData</text>
</a>
</g>
</g>
<!-- Node20&#45;&gt;Node19 -->
<g id="edge21" class="edge">
<title>Node20&#45;&gt;Node19</title>
<path fill="none" stroke="#9a32cd" stroke-dasharray="5,2" d="M811.6054,-33.5912C832.3531,-36.063 854.9621,-40.1776 875,-47 908.6916,-58.4711 943.635,-82.0309 961.801,-95.3227"/>
<polygon fill="#9a32cd" stroke="#9a32cd" points="811.9081,-30.1036 801.5891,-32.505 811.1534,-37.0628 811.9081,-30.1036"/>
<text text-anchor="middle" x="847.5" y="-50" font-family="Helvetica,sans-Serif" font-size="10.00" fill="#000000"> m_in_data</text>
</g>
<!-- Node21&#45;&gt;Node20 -->
<g id="edge22" class="edge">
<title>Node21&#45;&gt;Node20</title>
<path fill="none" stroke="#9a32cd" stroke-dasharray="5,2" d="M576.0609,-22.8597C610.5707,-24.3314 652.2307,-26.1079 685.3625,-27.5208"/>
<polygon fill="#9a32cd" stroke="#9a32cd" points="576.2054,-19.3628 566.0653,-22.4335 575.9071,-26.3565 576.2054,-19.3628"/>
<text text-anchor="middle" x="627.5" y="-30" font-family="Helvetica,sans-Serif" font-size="10.00" fill="#000000"> m_components</text>
</g>
</g>
</svg>
