<?xml version="1.0" encoding="UTF-8" standalone="no"?>
<!DOCTYPE svg PUBLIC "-//W3C//DTD SVG 1.1//EN"
 "http://www.w3.org/Graphics/SVG/1.1/DTD/svg11.dtd">
<!-- Generated by graphviz version 2.40.1 (20161225.0304)
 -->
<!-- Title: amr_wind::sampling::SamplingContainer Pages: 1 -->
<svg width="318pt" height="50pt"
 viewBox="0.00 0.00 318.00 50.00" xmlns="http://www.w3.org/2000/svg" xmlns:xlink="http://www.w3.org/1999/xlink">
<g id="graph0" class="graph" transform="scale(1 1) rotate(0) translate(4 46)">
<title>amr_wind::sampling::SamplingContainer</title>
<polygon fill="#ffffff" stroke="transparent" points="-4,4 -4,-46 314,-46 314,4 -4,4"/>
<!-- Node0 -->
<g id="node1" class="node">
<title>Node0</title>
<polygon fill="#bfbfbf" stroke="#000000" points="194,-6 194,-36 310,-36 310,-6 194,-6"/>
<text text-anchor="start" x="202" y="-24" font-family="Helvetica,sans-Serif" font-size="10.00" fill="#000000">amr_wind::sampling</text>
<text text-anchor="middle" x="252" y="-13" font-family="Helvetica,sans-Serif" font-size="10.00" fill="#000000">::SamplingContainer</text>
</g>
<!-- Node1 -->
<g id="node2" class="node">
<title>Node1</title>
<polygon fill="#ffffff" stroke="#bfbfbf" points="0,-.5 0,-41.5 158,-41.5 158,-.5 0,-.5"/>
<text text-anchor="start" x="8" y="-29.5" font-family="Helvetica,sans-Serif" font-size="10.00" fill="#000000">amrex::AmrParticleContainer</text>
<text text-anchor="start" x="8" y="-18.5" font-family="Helvetica,sans-Serif" font-size="10.00" fill="#000000">&lt; SNStructReal, SNStructInt,</text>
<text text-anchor="middle" x="79" y="-7.5" font-family="Helvetica,sans-Serif" font-size="10.00" fill="#000000"> SNArrayReal, SNArrayInt &gt;</text>
</g>
<!-- Node1&#45;&gt;Node0 -->
<g id="edge1" class="edge">
<title>Node1&#45;&gt;Node0</title>
<path fill="none" stroke="#191970" d="M168.3174,-21C176.9741,-21 185.593,-21 193.8271,-21"/>
<polygon fill="#191970" stroke="#191970" points="168.1588,-17.5001 158.1587,-21 168.1587,-24.5001 168.1588,-17.5001"/>
</g>
</g>
</svg>
