<?xml version="1.0" encoding="UTF-8" standalone="no"?>
<!DOCTYPE svg PUBLIC "-//W3C//DTD SVG 1.1//EN"
 "http://www.w3.org/Graphics/SVG/1.1/DTD/svg11.dtd">
<!-- Generated by graphviz version 2.40.1 (20161225.0304)
 -->
<!-- Title: amr_wind::FixedGradientBC Pages: 1 -->
<svg width="268pt" height="407pt"
 viewBox="0.00 0.00 267.50 407.00" xmlns="http://www.w3.org/2000/svg" xmlns:xlink="http://www.w3.org/1999/xlink">
<g id="graph0" class="graph" transform="scale(1 1) rotate(0) translate(4 403)">
<title>amr_wind::FixedGradientBC</title>
<polygon fill="#ffffff" stroke="transparent" points="-4,4 -4,-403 263.5,-403 263.5,4 -4,4"/>
<!-- Node2 -->
<g id="node1" class="node">
<title>Node2</title>
<polygon fill="#bfbfbf" stroke="#000000" points="5.5,-.5 5.5,-19.5 157.5,-19.5 157.5,-.5 5.5,-.5"/>
<text text-anchor="middle" x="81.5" y="-7.5" font-family="Helvetica,sans-Serif" font-size="10.00" fill="#000000">amr_wind::FixedGradientBC</text>
</g>
<!-- Node3 -->
<g id="node2" class="node">
<title>Node3</title>
<g id="a_node2"><a xlink:href="classamr__wind_1_1_field_b_c_iface.html" target="_top" xlink:title="Interface to setup up boundary conditions on a fieldThis is the base class for all non&#45;standard opera...">
<polygon fill="#ffffff" stroke="#000000" points="0,-67.5 0,-86.5 131,-86.5 131,-67.5 0,-67.5"/>
<text text-anchor="middle" x="65.5" y="-74.5" font-family="Helvetica,sans-Serif" font-size="10.00" fill="#000000">amr_wind::FieldBCIface</text>
</a>
</g>
</g>
<!-- Node3&#45;&gt;Node2 -->
<g id="edge1" class="edge">
<title>Node3&#45;&gt;Node2</title>
<path fill="none" stroke="#191970" d="M70.16,-57.4863C73.135,-45.0286 76.861,-29.4258 79.2118,-19.5817"/>
<polygon fill="#191970" stroke="#191970" points="66.711,-56.861 67.7924,-67.4005 73.5195,-58.487 66.711,-56.861"/>
</g>
<!-- Node4 -->
<g id="node3" class="node">
<title>Node4</title>
<g id="a_node3"><a xlink:href="classamr__wind_1_1_field.html" target="_top" xlink:title="Computational fieldThis is an abstraction of a collection of MultiFabs over multiple levels...">
<polygon fill="#ffffff" stroke="#000000" points="149,-67.5 149,-86.5 242,-86.5 242,-67.5 149,-67.5"/>
<text text-anchor="middle" x="195.5" y="-74.5" font-family="Helvetica,sans-Serif" font-size="10.00" fill="#000000">amr_wind::Field</text>
</a>
</g>
</g>
<!-- Node4&#45;&gt;Node2 -->
<g id="edge2" class="edge">
<title>Node4&#45;&gt;Node2</title>
<path fill="none" stroke="#9a32cd" stroke-dasharray="5,2" d="M170.3367,-62.211C148.2421,-49.2256 116.7522,-30.7184 97.8031,-19.5817"/>
<polygon fill="#9a32cd" stroke="#9a32cd" points="168.7718,-65.351 179.1666,-67.4005 172.3187,-59.3161 168.7718,-65.351"/>
<text text-anchor="middle" x="165.5" y="-41" font-family="Helvetica,sans-Serif" font-size="10.00" fill="#000000"> m_field</text>
</g>
<!-- Node5 -->
<g id="node4" class="node">
<title>Node5</title>
<g id="a_node4"><a xlink:title="STL class. ">
<polygon fill="#ffffff" stroke="#bfbfbf" points="170,-296 170,-315 235,-315 235,-296 170,-296"/>
<text text-anchor="middle" x="202.5" y="-303" font-family="Helvetica,sans-Serif" font-size="10.00" fill="#000000">std::string</text>
</a>
</g>
</g>
<!-- Node5&#45;&gt;Node4 -->
<g id="edge3" class="edge">
<title>Node5&#45;&gt;Node4</title>
<path fill="none" stroke="#9a32cd" stroke-dasharray="5,2" d="M205.7936,-285.6057C206.4425,-281.1395 207.0583,-276.4158 207.5,-272 214.4101,-202.9203 213.7216,-185.4017 215.5,-116 215.6252,-111.1127 216.992,-109.6557 215.5,-105 213.3123,-98.1734 208.781,-91.5944 204.584,-86.5308"/>
<polygon fill="#9a32cd" stroke="#9a32cd" points="202.2779,-285.4353 204.1928,-295.8556 209.194,-286.5155 202.2779,-285.4353"/>
<text text-anchor="middle" x="236.5" y="-180.5" font-family="Helvetica,sans-Serif" font-size="10.00" fill="#000000"> m_name</text>
</g>
<!-- Node8 -->
<g id="node7" class="node">
<title>Node8</title>
<polygon fill="#ffffff" stroke="#bfbfbf" points="74.5,-212.5 74.5,-242.5 196.5,-242.5 196.5,-212.5 74.5,-212.5"/>
<text text-anchor="start" x="82.5" y="-230.5" font-family="Helvetica,sans-Serif" font-size="10.00" fill="#000000">std::unordered_map</text>
<text text-anchor="middle" x="135.5" y="-219.5" font-family="Helvetica,sans-Serif" font-size="10.00" fill="#000000">&lt; std::string, size_t &gt;</text>
</g>
<!-- Node5&#45;&gt;Node8 -->
<g id="edge7" class="edge">
<title>Node5&#45;&gt;Node8</title>
<path fill="none" stroke="#9a32cd" stroke-dasharray="5,2" d="M189.0108,-287.5488C182.6619,-279.3112 174.8781,-269.5064 167.5,-261 162.1246,-254.8025 155.9527,-248.2255 150.4723,-242.5552"/>
<polygon fill="#9a32cd" stroke="#9a32cd" points="186.4049,-289.9038 195.2496,-295.7367 191.9728,-285.6613 186.4049,-289.9038"/>
<text text-anchor="middle" x="190" y="-264" font-family="Helvetica,sans-Serif" font-size="10.00" fill="#000000"> keys</text>
</g>
<!-- Node6 -->
<g id="node5" class="node">
<title>Node6</title>
<g id="a_node5"><a xlink:title="STL class. ">
<polygon fill="#ffffff" stroke="#bfbfbf" points="150.5,-368.5 150.5,-398.5 254.5,-398.5 254.5,-368.5 150.5,-368.5"/>
<text text-anchor="start" x="158.5" y="-386.5" font-family="Helvetica,sans-Serif" font-size="10.00" fill="#000000">std::basic_string&lt;</text>
<text text-anchor="middle" x="202.5" y="-375.5" font-family="Helvetica,sans-Serif" font-size="10.00" fill="#000000"> char &gt;</text>
</a>
</g>
</g>
<!-- Node6&#45;&gt;Node5 -->
<g id="edge4" class="edge">
<title>Node6&#45;&gt;Node5</title>
<path fill="none" stroke="#191970" d="M202.5,-358.3962C202.5,-343.6331 202.5,-325.8138 202.5,-315.0839"/>
<polygon fill="#191970" stroke="#191970" points="199.0001,-358.4608 202.5,-368.4608 206.0001,-358.4609 199.0001,-358.4608"/>
</g>
<!-- Node7 -->
<g id="node6" class="node">
<title>Node7</title>
<g id="a_node6"><a xlink:href="classamr__wind_1_1_field_repo.html" target="_top" xlink:title="Field RepositoryFieldRepo is a database that manages handling of fields used during a simulation...">
<polygon fill="#ffffff" stroke="#000000" points="82,-134.5 82,-153.5 199,-153.5 199,-134.5 82,-134.5"/>
<text text-anchor="middle" x="140.5" y="-141.5" font-family="Helvetica,sans-Serif" font-size="10.00" fill="#000000">amr_wind::FieldRepo</text>
</a>
</g>
</g>
<!-- Node7&#45;&gt;Node4 -->
<g id="edge5" class="edge">
<title>Node7&#45;&gt;Node4</title>
<path fill="none" stroke="#9a32cd" stroke-dasharray="5,2" d="M154.9899,-126.3486C165.4393,-113.6194 179.1454,-96.9229 187.6345,-86.5817"/>
<polygon fill="#9a32cd" stroke="#9a32cd" points="152.0199,-124.4505 148.3802,-134.4005 157.4304,-128.892 152.0199,-124.4505"/>
<text text-anchor="middle" x="191.5" y="-108" font-family="Helvetica,sans-Serif" font-size="10.00" fill="#000000"> m_repo</text>
</g>
<!-- Node8&#45;&gt;Node7 -->
<g id="edge6" class="edge">
<title>Node8&#45;&gt;Node7</title>
<path fill="none" stroke="#9a32cd" stroke-dasharray="5,2" d="M135.2946,-202.3737C135.3894,-192.8477 135.7059,-181.9109 136.5,-172 136.9942,-165.8326 137.9709,-158.9533 138.8354,-153.5569"/>
<polygon fill="#9a32cd" stroke="#9a32cd" points="131.7946,-202.3904 135.2681,-212.3996 138.7946,-202.4089 131.7946,-202.3904"/>
<text text-anchor="middle" x="173" y="-186" font-family="Helvetica,sans-Serif" font-size="10.00" fill="#000000"> m_fid_map</text>
<text text-anchor="middle" x="173" y="-175" font-family="Helvetica,sans-Serif" font-size="10.00" fill="#000000">m_int_fid_map</text>
</g>
<!-- Node9 -->
<g id="node8" class="node">
<title>Node9</title>
<g id="a_node8"><a xlink:title="STL class. ">
<polygon fill="#ffffff" stroke="#bfbfbf" points=".5,-290.5 .5,-320.5 114.5,-320.5 114.5,-290.5 .5,-290.5"/>
<text text-anchor="start" x="8.5" y="-308.5" font-family="Helvetica,sans-Serif" font-size="10.00" fill="#000000">std::unordered_map</text>
<text text-anchor="middle" x="57.5" y="-297.5" font-family="Helvetica,sans-Serif" font-size="10.00" fill="#000000">&lt; K, T &gt;</text>
</a>
</g>
</g>
<!-- Node9&#45;&gt;Node8 -->
<g id="edge8" class="edge">
<title>Node9&#45;&gt;Node8</title>
<path fill="none" stroke="#ffa500" stroke-dasharray="5,2" d="M50.4023,-280.1603C49.9104,-273.4738 50.772,-266.5761 54.5,-261 59.7439,-253.1565 67.1989,-247.1473 75.4863,-242.5439"/>
<polygon fill="#ffa500" stroke="#ffa500" points="46.9896,-280.9769 52.0718,-290.2733 53.8962,-279.8367 46.9896,-280.9769"/>
<text text-anchor="middle" x="109" y="-264" font-family="Helvetica,sans-Serif" font-size="10.00" fill="#000000"> &lt; std::string, size_t &gt;</text>
</g>
<!-- Node10 -->
<g id="node9" class="node">
<title>Node10</title>
<polygon fill="#ffffff" stroke="#bfbfbf" points="30,-374 30,-393 59,-393 59,-374 30,-374"/>
<text text-anchor="middle" x="44.5" y="-381" font-family="Helvetica,sans-Serif" font-size="10.00" fill="#000000">K</text>
</g>
<!-- Node10&#45;&gt;Node9 -->
<g id="edge9" class="edge">
<title>Node10&#45;&gt;Node9</title>
<path fill="none" stroke="#9a32cd" stroke-dasharray="5,2" d="M43.5903,-363.6032C43.5893,-355.8661 44.0243,-346.964 45.5,-339 46.6481,-332.8041 48.7863,-326.2273 50.9434,-320.5568"/>
<polygon fill="#9a32cd" stroke="#9a32cd" points="40.0973,-363.946 43.8331,-373.8604 47.0954,-363.7803 40.0973,-363.946"/>
<text text-anchor="middle" x="59" y="-342" font-family="Helvetica,sans-Serif" font-size="10.00" fill="#000000"> keys</text>
</g>
<!-- Node11 -->
<g id="node10" class="node">
<title>Node11</title>
<polygon fill="#ffffff" stroke="#bfbfbf" points="80,-374 80,-393 109,-393 109,-374 80,-374"/>
<text text-anchor="middle" x="94.5" y="-381" font-family="Helvetica,sans-Serif" font-size="10.00" fill="#000000">T</text>
</g>
<!-- Node11&#45;&gt;Node9 -->
<g id="edge10" class="edge">
<title>Node11&#45;&gt;Node9</title>
<path fill="none" stroke="#9a32cd" stroke-dasharray="5,2" d="M85.5685,-364.6714C79.1878,-351.2202 70.7117,-333.3517 64.7493,-320.7824"/>
<polygon fill="#9a32cd" stroke="#9a32cd" points="82.5149,-366.4007 89.9631,-373.9357 88.8394,-363.4006 82.5149,-366.4007"/>
<text text-anchor="middle" x="103" y="-342" font-family="Helvetica,sans-Serif" font-size="10.00" fill="#000000"> elements</text>
</g>
</g>
</svg>
