<?xml version="1.0" encoding="UTF-8" standalone="no"?>
<!DOCTYPE svg PUBLIC "-//W3C//DTD SVG 1.1//EN"
 "http://www.w3.org/Graphics/SVG/1.1/DTD/svg11.dtd">
<!-- Generated by graphviz version 2.40.1 (20161225.0304)
 -->
<!-- Title: amr_wind::BCIface Pages: 1 -->
<svg width="264pt" height="407pt"
 viewBox="0.00 0.00 264.00 407.00" xmlns="http://www.w3.org/2000/svg" xmlns:xlink="http://www.w3.org/1999/xlink">
<g id="graph0" class="graph" transform="scale(1 1) rotate(0) translate(4 403)">
<title>amr_wind::BCIface</title>
<polygon fill="#ffffff" stroke="transparent" points="-4,4 -4,-403 260,-403 260,4 -4,4"/>
<!-- Node6 -->
<g id="node1" class="node">
<title>Node6</title>
<polygon fill="#bfbfbf" stroke="#000000" points="133,-.5 133,-19.5 241,-19.5 241,-.5 133,-.5"/>
<text text-anchor="middle" x="187" y="-7.5" font-family="Helvetica,sans-Serif" font-size="10.00" fill="#000000">amr_wind::BCIface</text>
</g>
<!-- Node7 -->
<g id="node2" class="node">
<title>Node7</title>
<g id="a_node2"><a xlink:href="classamr__wind_1_1_field.html" target="_top" xlink:title="Computational fieldThis is an abstraction of a collection of MultiFabs over multiple levels...">
<polygon fill="#ffffff" stroke="#000000" points="140.5,-67.5 140.5,-86.5 233.5,-86.5 233.5,-67.5 140.5,-67.5"/>
<text text-anchor="middle" x="187" y="-74.5" font-family="Helvetica,sans-Serif" font-size="10.00" fill="#000000">amr_wind::Field</text>
</a>
</g>
</g>
<!-- Node7&#45;&gt;Node6 -->
<g id="edge1" class="edge">
<title>Node7&#45;&gt;Node6</title>
<path fill="none" stroke="#9a32cd" stroke-dasharray="5,2" d="M187,-57.1079C187,-44.714 187,-29.3263 187,-19.5817"/>
<polygon fill="#9a32cd" stroke="#9a32cd" points="183.5001,-57.4005 187,-67.4005 190.5001,-57.4006 183.5001,-57.4005"/>
<text text-anchor="middle" x="207" y="-41" font-family="Helvetica,sans-Serif" font-size="10.00" fill="#000000"> m_field</text>
</g>
<!-- Node8 -->
<g id="node3" class="node">
<title>Node8</title>
<g id="a_node3"><a xlink:title="STL class. ">
<polygon fill="#ffffff" stroke="#bfbfbf" points="169.5,-296 169.5,-315 234.5,-315 234.5,-296 169.5,-296"/>
<text text-anchor="middle" x="202" y="-303" font-family="Helvetica,sans-Serif" font-size="10.00" fill="#000000">std::string</text>
</a>
</g>
</g>
<!-- Node8&#45;&gt;Node7 -->
<g id="edge2" class="edge">
<title>Node8&#45;&gt;Node7</title>
<path fill="none" stroke="#9a32cd" stroke-dasharray="5,2" d="M205.378,-285.6136C206.0222,-281.1469 206.6148,-276.4211 207,-272 213.0193,-202.9056 210.111,-185.3504 211,-116 211.0627,-111.1115 212.6962,-109.5852 211,-105 208.4233,-98.0345 203.254,-91.6324 198.3707,-86.7134"/>
<polygon fill="#9a32cd" stroke="#9a32cd" points="201.8624,-285.438 203.7587,-295.8618 208.7766,-286.5306 201.8624,-285.438"/>
<text text-anchor="middle" x="233" y="-180.5" font-family="Helvetica,sans-Serif" font-size="10.00" fill="#000000"> m_name</text>
</g>
<!-- Node11 -->
<g id="node6" class="node">
<title>Node11</title>
<polygon fill="#ffffff" stroke="#bfbfbf" points="74,-212.5 74,-242.5 196,-242.5 196,-212.5 74,-212.5"/>
<text text-anchor="start" x="82" y="-230.5" font-family="Helvetica,sans-Serif" font-size="10.00" fill="#000000">std::unordered_map</text>
<text text-anchor="middle" x="135" y="-219.5" font-family="Helvetica,sans-Serif" font-size="10.00" fill="#000000">&lt; std::string, size_t &gt;</text>
</g>
<!-- Node8&#45;&gt;Node11 -->
<g id="edge6" class="edge">
<title>Node8&#45;&gt;Node11</title>
<path fill="none" stroke="#9a32cd" stroke-dasharray="5,2" d="M188.5108,-287.5488C182.1619,-279.3112 174.3781,-269.5064 167,-261 161.6246,-254.8025 155.4527,-248.2255 149.9723,-242.5552"/>
<polygon fill="#9a32cd" stroke="#9a32cd" points="185.9049,-289.9038 194.7496,-295.7367 191.4728,-285.6613 185.9049,-289.9038"/>
<text text-anchor="middle" x="189.5" y="-264" font-family="Helvetica,sans-Serif" font-size="10.00" fill="#000000"> keys</text>
</g>
<!-- Node9 -->
<g id="node4" class="node">
<title>Node9</title>
<g id="a_node4"><a xlink:title="STL class. ">
<polygon fill="#ffffff" stroke="#bfbfbf" points="150,-368.5 150,-398.5 254,-398.5 254,-368.5 150,-368.5"/>
<text text-anchor="start" x="158" y="-386.5" font-family="Helvetica,sans-Serif" font-size="10.00" fill="#000000">std::basic_string&lt;</text>
<text text-anchor="middle" x="202" y="-375.5" font-family="Helvetica,sans-Serif" font-size="10.00" fill="#000000"> char &gt;</text>
</a>
</g>
</g>
<!-- Node9&#45;&gt;Node8 -->
<g id="edge3" class="edge">
<title>Node9&#45;&gt;Node8</title>
<path fill="none" stroke="#191970" d="M202,-358.3962C202,-343.6331 202,-325.8138 202,-315.0839"/>
<polygon fill="#191970" stroke="#191970" points="198.5001,-358.4608 202,-368.4608 205.5001,-358.4609 198.5001,-358.4608"/>
</g>
<!-- Node10 -->
<g id="node5" class="node">
<title>Node10</title>
<g id="a_node5"><a xlink:href="classamr__wind_1_1_field_repo.html" target="_top" xlink:title="Field RepositoryFieldRepo is a database that manages handling of fields used during a simulation...">
<polygon fill="#ffffff" stroke="#000000" points="81.5,-134.5 81.5,-153.5 198.5,-153.5 198.5,-134.5 81.5,-134.5"/>
<text text-anchor="middle" x="140" y="-141.5" font-family="Helvetica,sans-Serif" font-size="10.00" fill="#000000">amr_wind::FieldRepo</text>
</a>
</g>
</g>
<!-- Node10&#45;&gt;Node7 -->
<g id="edge4" class="edge">
<title>Node10&#45;&gt;Node7</title>
<path fill="none" stroke="#9a32cd" stroke-dasharray="5,2" d="M152.6407,-125.9803C161.5366,-113.2989 173.094,-96.8235 180.2785,-86.5817"/>
<polygon fill="#9a32cd" stroke="#9a32cd" points="149.6115,-124.2039 146.734,-134.4005 155.3421,-128.2239 149.6115,-124.2039"/>
<text text-anchor="middle" x="187" y="-108" font-family="Helvetica,sans-Serif" font-size="10.00" fill="#000000"> m_repo</text>
</g>
<!-- Node11&#45;&gt;Node10 -->
<g id="edge5" class="edge">
<title>Node11&#45;&gt;Node10</title>
<path fill="none" stroke="#9a32cd" stroke-dasharray="5,2" d="M134.7946,-202.3737C134.8894,-192.8477 135.2059,-181.9109 136,-172 136.4942,-165.8326 137.4709,-158.9533 138.3354,-153.5569"/>
<polygon fill="#9a32cd" stroke="#9a32cd" points="131.2946,-202.3904 134.7681,-212.3996 138.2946,-202.4089 131.2946,-202.3904"/>
<text text-anchor="middle" x="172.5" y="-186" font-family="Helvetica,sans-Serif" font-size="10.00" fill="#000000"> m_fid_map</text>
<text text-anchor="middle" x="172.5" y="-175" font-family="Helvetica,sans-Serif" font-size="10.00" fill="#000000">m_int_fid_map</text>
</g>
<!-- Node12 -->
<g id="node7" class="node">
<title>Node12</title>
<g id="a_node7"><a xlink:title="STL class. ">
<polygon fill="#ffffff" stroke="#bfbfbf" points="0,-290.5 0,-320.5 114,-320.5 114,-290.5 0,-290.5"/>
<text text-anchor="start" x="8" y="-308.5" font-family="Helvetica,sans-Serif" font-size="10.00" fill="#000000">std::unordered_map</text>
<text text-anchor="middle" x="57" y="-297.5" font-family="Helvetica,sans-Serif" font-size="10.00" fill="#000000">&lt; K, T &gt;</text>
</a>
</g>
</g>
<!-- Node12&#45;&gt;Node11 -->
<g id="edge7" class="edge">
<title>Node12&#45;&gt;Node11</title>
<path fill="none" stroke="#ffa500" stroke-dasharray="5,2" d="M49.9023,-280.1603C49.4104,-273.4738 50.272,-266.5761 54,-261 59.2439,-253.1565 66.6989,-247.1473 74.9863,-242.5439"/>
<polygon fill="#ffa500" stroke="#ffa500" points="46.4896,-280.9769 51.5718,-290.2733 53.3962,-279.8367 46.4896,-280.9769"/>
<text text-anchor="middle" x="108.5" y="-264" font-family="Helvetica,sans-Serif" font-size="10.00" fill="#000000"> &lt; std::string, size_t &gt;</text>
</g>
<!-- Node13 -->
<g id="node8" class="node">
<title>Node13</title>
<polygon fill="#ffffff" stroke="#bfbfbf" points="29.5,-374 29.5,-393 58.5,-393 58.5,-374 29.5,-374"/>
<text text-anchor="middle" x="44" y="-381" font-family="Helvetica,sans-Serif" font-size="10.00" fill="#000000">K</text>
</g>
<!-- Node13&#45;&gt;Node12 -->
<g id="edge8" class="edge">
<title>Node13&#45;&gt;Node12</title>
<path fill="none" stroke="#9a32cd" stroke-dasharray="5,2" d="M43.0903,-363.6032C43.0893,-355.8661 43.5243,-346.964 45,-339 46.1481,-332.8041 48.2863,-326.2273 50.4434,-320.5568"/>
<polygon fill="#9a32cd" stroke="#9a32cd" points="39.5973,-363.946 43.3331,-373.8604 46.5954,-363.7803 39.5973,-363.946"/>
<text text-anchor="middle" x="58.5" y="-342" font-family="Helvetica,sans-Serif" font-size="10.00" fill="#000000"> keys</text>
</g>
<!-- Node14 -->
<g id="node9" class="node">
<title>Node14</title>
<polygon fill="#ffffff" stroke="#bfbfbf" points="79.5,-374 79.5,-393 108.5,-393 108.5,-374 79.5,-374"/>
<text text-anchor="middle" x="94" y="-381" font-family="Helvetica,sans-Serif" font-size="10.00" fill="#000000">T</text>
</g>
<!-- Node14&#45;&gt;Node12 -->
<g id="edge9" class="edge">
<title>Node14&#45;&gt;Node12</title>
<path fill="none" stroke="#9a32cd" stroke-dasharray="5,2" d="M85.0685,-364.6714C78.6878,-351.2202 70.2117,-333.3517 64.2493,-320.7824"/>
<polygon fill="#9a32cd" stroke="#9a32cd" points="82.0149,-366.4007 89.4631,-373.9357 88.3394,-363.4006 82.0149,-366.4007"/>
<text text-anchor="middle" x="102.5" y="-342" font-family="Helvetica,sans-Serif" font-size="10.00" fill="#000000"> elements</text>
</g>
</g>
</svg>
