<?xml version="1.0" encoding="UTF-8" standalone="no"?>
<!DOCTYPE svg PUBLIC "-//W3C//DTD SVG 1.1//EN"
 "http://www.w3.org/Graphics/SVG/1.1/DTD/svg11.dtd">
<!-- Generated by graphviz version 2.40.1 (20161225.0304)
 -->
<!-- Title: amr_wind::RayleighTaylor Pages: 1 -->
<!--zoomable 175 -->
<svg id="main" version="1.1" xmlns="http://www.w3.org/2000/svg" xmlns:xlink="http://www.w3.org/1999/xlink" xml:space="preserve" onload="init(evt)">
<style type="text/css"><![CDATA[
.edge:hover path { stroke: red; }
.edge:hover polygon { stroke: red; fill: red; }
]]></style>
<script type="text/javascript"><![CDATA[
var edges = document.getElementsByTagName('g');
if (edges && edges.length) {
  for (var i=0;i<edges.length;i++) {
    if (edges[i].id.substr(0,4)=='edge') {
      edges[i].setAttribute('class','edge');
    }
  }
}
]]></script>
        <defs>
                <circle id="rim" cx="0" cy="0" r="7"/>
                <circle id="rim2" cx="0" cy="0" r="3.5"/>
                <g id="zoomPlus">
                        <use xlink:href="#rim" fill="#404040">
                                <set attributeName="fill" to="#808080" begin="zoomplus.mouseover" end="zoomplus.mouseout"/>
                        </use>
                        <path d="M-4,0h8M0,-4v8" fill="none" stroke="white" stroke-width="1.5" pointer-events="none"/>
                </g>
                <g id="zoomMin">
                        <use xlink:href="#rim" fill="#404040">
                                <set attributeName="fill" to="#808080" begin="zoomminus.mouseover" end="zoomminus.mouseout"/>
                        </use>
                        <path d="M-4,0h8" fill="none" stroke="white" stroke-width="1.5" pointer-events="none"/>
                </g>
                <g id="dirArrow">
                        <path fill="none" stroke="white" stroke-width="1.5" d="M0,-3.0v7 M-2.5,-0.5L0,-3.0L2.5,-0.5"/>
                </g>
               <g id="resetDef">
                       <use xlink:href="#rim2" fill="#404040">
                               <set attributeName="fill" to="#808080" begin="reset.mouseover" end="reset.mouseout"/>
                       </use>
               </g>
        </defs>

<script type="text/javascript">
var viewWidth = 1354;
var viewHeight = 175;
var sectionId = 'dynsection-1';
</script>
<script xlink:href="svgpan.js"/>
<svg id="graph" class="graph">
<g id="viewport">
<title>amr_wind::RayleighTaylor</title>
<polygon fill="#ffffff" stroke="transparent" points="-4,4 -4,-170.5 1350,-170.5 1350,4 -4,4"/>
<!-- Node2 -->
<g id="node1" class="node">
<title>Node2</title>
<polygon fill="#bfbfbf" stroke="#000000" points="1203,-97.5 1203,-116.5 1346,-116.5 1346,-97.5 1203,-97.5"/>
<text text-anchor="middle" x="1274.5" y="-104.5" font-family="Helvetica,sans-Serif" font-size="10.00" fill="#000000">amr_wind::RayleighTaylor</text>
</g>
<!-- Node3 -->
<g id="node2" class="node">
<title>Node3</title>
<polygon fill="#ffffff" stroke="#bfbfbf" points="1005,-136 1005,-166 1112,-166 1112,-136 1005,-136"/>
<text text-anchor="start" x="1013" y="-154" font-family="Helvetica,sans-Serif" font-size="10.00" fill="#000000">Physics::Register&lt;</text>
<text text-anchor="middle" x="1058.5" y="-143" font-family="Helvetica,sans-Serif" font-size="10.00" fill="#000000"> RayleighTaylor &gt;</text>
</g>
<!-- Node3&#45;&gt;Node2 -->
<g id="edge1" class="edge">
<title>Node3&#45;&gt;Node2</title>
<path fill="none" stroke="#191970" d="M1122.0799,-143.7412C1142.3005,-140.9558 1164.6857,-137.373 1185,-133 1205.4055,-128.6074 1227.972,-122.0397 1245.3403,-116.6044"/>
<polygon fill="#191970" stroke="#191970" points="1121.4845,-140.2896 1112.0369,-145.0846 1122.4127,-147.2278 1121.4845,-140.2896"/>
</g>
<!-- Node4 -->
<g id="node3" class="node">
<title>Node4</title>
<g id="a_node3"><a xlink:href="classamr__wind_1_1_field.html" target="_top" xlink:title="Computational fieldThis is an abstraction of a collection of MultiFabs over multiple levels...">
<polygon fill="#ffffff" stroke="#000000" points="1012,-97.5 1012,-116.5 1105,-116.5 1105,-97.5 1012,-97.5"/>
<text text-anchor="middle" x="1058.5" y="-104.5" font-family="Helvetica,sans-Serif" font-size="10.00" fill="#000000">amr_wind::Field</text>
</a>
</g>
</g>
<!-- Node4&#45;&gt;Node2 -->
<g id="edge2" class="edge">
<title>Node4&#45;&gt;Node2</title>
<path fill="none" stroke="#9a32cd" stroke-dasharray="5,2" d="M1115.1066,-107C1141.9658,-107 1174.3553,-107 1202.9021,-107"/>
<polygon fill="#9a32cd" stroke="#9a32cd" points="1115.1029,-103.5001 1105.1029,-107 1115.1028,-110.5001 1115.1029,-103.5001"/>
<text text-anchor="middle" x="1157.5" y="-121" font-family="Helvetica,sans-Serif" font-size="10.00" fill="#000000"> m_density</text>
<text text-anchor="middle" x="1157.5" y="-110" font-family="Helvetica,sans-Serif" font-size="10.00" fill="#000000">m_velocity</text>
</g>
<!-- Node5 -->
<g id="node4" class="node">
<title>Node5</title>
<g id="a_node4"><a xlink:title="STL class. ">
<polygon fill="#ffffff" stroke="#bfbfbf" points="228,-138.5 228,-157.5 293,-157.5 293,-138.5 228,-138.5"/>
<text text-anchor="middle" x="260.5" y="-145.5" font-family="Helvetica,sans-Serif" font-size="10.00" fill="#000000">std::string</text>
</a>
</g>
</g>
<!-- Node5&#45;&gt;Node4 -->
<g id="edge3" class="edge">
<title>Node5&#45;&gt;Node4</title>
<path fill="none" stroke="#9a32cd" stroke-dasharray="5,2" d="M303.595,-146.9539C349.9032,-145.812 425.6644,-143.8929 491,-142 711.531,-135.6107 768.2117,-150.3978 987,-122 997.3139,-120.6613 1008.3563,-118.6412 1018.6024,-116.5136"/>
<polygon fill="#9a32cd" stroke="#9a32cd" points="303.2394,-143.4615 293.3284,-147.2062 303.4114,-150.4593 303.2394,-143.4615"/>
<text text-anchor="middle" x="736.5" y="-144" font-family="Helvetica,sans-Serif" font-size="10.00" fill="#000000"> m_name</text>
</g>
<!-- Node8 -->
<g id="node7" class="node">
<title>Node8</title>
<polygon fill="#ffffff" stroke="#bfbfbf" points="534.5,-92 534.5,-122 656.5,-122 656.5,-92 534.5,-92"/>
<text text-anchor="start" x="542.5" y="-110" font-family="Helvetica,sans-Serif" font-size="10.00" fill="#000000">std::unordered_map</text>
<text text-anchor="middle" x="595.5" y="-99" font-family="Helvetica,sans-Serif" font-size="10.00" fill="#000000">&lt; std::string, size_t &gt;</text>
</g>
<!-- Node5&#45;&gt;Node8 -->
<g id="edge7" class="edge">
<title>Node5&#45;&gt;Node8</title>
<path fill="none" stroke="#9a32cd" stroke-dasharray="5,2" d="M303.0203,-139.1108C317.8393,-136.2291 334.6087,-133.2095 350,-131 412.5255,-122.0243 484.4997,-115.4243 534.2777,-111.4421"/>
<polygon fill="#9a32cd" stroke="#9a32cd" points="302.2433,-135.6966 293.1134,-141.0721 303.6028,-142.5633 302.2433,-135.6966"/>
<text text-anchor="middle" x="420.5" y="-134" font-family="Helvetica,sans-Serif" font-size="10.00" fill="#000000"> keys</text>
</g>
<!-- Node6 -->
<g id="node5" class="node">
<title>Node6</title>
<g id="a_node5"><a xlink:title="STL class. ">
<polygon fill="#ffffff" stroke="#bfbfbf" points="0,-133 0,-163 104,-163 104,-133 0,-133"/>
<text text-anchor="start" x="8" y="-151" font-family="Helvetica,sans-Serif" font-size="10.00" fill="#000000">std::basic_string&lt;</text>
<text text-anchor="middle" x="52" y="-140" font-family="Helvetica,sans-Serif" font-size="10.00" fill="#000000"> char &gt;</text>
</a>
</g>
</g>
<!-- Node6&#45;&gt;Node5 -->
<g id="edge4" class="edge">
<title>Node6&#45;&gt;Node5</title>
<path fill="none" stroke="#191970" d="M114.3569,-148C151.689,-148 197.6186,-148 227.9093,-148"/>
<polygon fill="#191970" stroke="#191970" points="114.0756,-144.5001 104.0755,-148 114.0755,-151.5001 114.0756,-144.5001"/>
</g>
<!-- Node7 -->
<g id="node6" class="node">
<title>Node7</title>
<g id="a_node6"><a xlink:href="classamr__wind_1_1_field_repo.html" target="_top" xlink:title="Field RepositoryFieldRepo is a database that manages handling of fields used during a simulation...">
<polygon fill="#ffffff" stroke="#000000" points="791,-97.5 791,-116.5 908,-116.5 908,-97.5 791,-97.5"/>
<text text-anchor="middle" x="849.5" y="-104.5" font-family="Helvetica,sans-Serif" font-size="10.00" fill="#000000">amr_wind::FieldRepo</text>
</a>
</g>
</g>
<!-- Node7&#45;&gt;Node4 -->
<g id="edge5" class="edge">
<title>Node7&#45;&gt;Node4</title>
<path fill="none" stroke="#9a32cd" stroke-dasharray="5,2" d="M918.4562,-107C949.0542,-107 984.2676,-107 1011.7295,-107"/>
<polygon fill="#9a32cd" stroke="#9a32cd" points="918.2744,-103.5001 908.2743,-107 918.2743,-110.5001 918.2744,-103.5001"/>
<text text-anchor="middle" x="956.5" y="-110" font-family="Helvetica,sans-Serif" font-size="10.00" fill="#000000"> m_repo</text>
</g>
<!-- Node8&#45;&gt;Node7 -->
<g id="edge6" class="edge">
<title>Node8&#45;&gt;Node7</title>
<path fill="none" stroke="#9a32cd" stroke-dasharray="5,2" d="M666.9064,-107C705.9504,-107 753.7284,-107 790.617,-107"/>
<polygon fill="#9a32cd" stroke="#9a32cd" points="666.6626,-103.5001 656.6626,-107 666.6625,-110.5001 666.6626,-103.5001"/>
<text text-anchor="middle" x="736.5" y="-121" font-family="Helvetica,sans-Serif" font-size="10.00" fill="#000000"> m_fid_map</text>
<text text-anchor="middle" x="736.5" y="-110" font-family="Helvetica,sans-Serif" font-size="10.00" fill="#000000">m_int_fid_map</text>
</g>
<!-- Node9 -->
<g id="node8" class="node">
<title>Node9</title>
<g id="a_node8"><a xlink:title="STL class. ">
<polygon fill="#ffffff" stroke="#bfbfbf" points="203.5,-88 203.5,-118 317.5,-118 317.5,-88 203.5,-88"/>
<text text-anchor="start" x="211.5" y="-106" font-family="Helvetica,sans-Serif" font-size="10.00" fill="#000000">std::unordered_map</text>
<text text-anchor="middle" x="260.5" y="-95" font-family="Helvetica,sans-Serif" font-size="10.00" fill="#000000">&lt; K, T &gt;</text>
</a>
</g>
</g>
<!-- Node9&#45;&gt;Node8 -->
<g id="edge8" class="edge">
<title>Node9&#45;&gt;Node8</title>
<path fill="none" stroke="#ffa500" stroke-dasharray="5,2" d="M327.8856,-97.9971C335.3437,-97.588 342.8307,-97.24 350,-97 412.6316,-94.903 428.4046,-94.0118 491,-97 505.0175,-97.6692 520.0566,-98.8405 534.2347,-100.1513"/>
<polygon fill="#ffa500" stroke="#ffa500" points="327.5444,-94.511 317.7657,-98.5887 327.953,-101.4991 327.5444,-94.511"/>
<text text-anchor="middle" x="420.5" y="-100" font-family="Helvetica,sans-Serif" font-size="10.00" fill="#000000"> &lt; std::string, size_t &gt;</text>
</g>
<!-- Node10 -->
<g id="node9" class="node">
<title>Node10</title>
<polygon fill="#ffffff" stroke="#bfbfbf" points="37.5,-93.5 37.5,-112.5 66.5,-112.5 66.5,-93.5 37.5,-93.5"/>
<text text-anchor="middle" x="52" y="-100.5" font-family="Helvetica,sans-Serif" font-size="10.00" fill="#000000">K</text>
</g>
<!-- Node10&#45;&gt;Node9 -->
<g id="edge9" class="edge">
<title>Node10&#45;&gt;Node9</title>
<path fill="none" stroke="#9a32cd" stroke-dasharray="5,2" d="M76.978,-103C107.9568,-103 161.7302,-103 203.0878,-103"/>
<polygon fill="#9a32cd" stroke="#9a32cd" points="76.6613,-99.5001 66.6613,-103 76.6613,-106.5001 76.6613,-99.5001"/>
<text text-anchor="middle" x="146.5" y="-106" font-family="Helvetica,sans-Serif" font-size="10.00" fill="#000000"> keys</text>
</g>
<!-- Node11 -->
<g id="node10" class="node">
<title>Node11</title>
<polygon fill="#ffffff" stroke="#bfbfbf" points="37.5,-40.5 37.5,-59.5 66.5,-59.5 66.5,-40.5 37.5,-40.5"/>
<text text-anchor="middle" x="52" y="-47.5" font-family="Helvetica,sans-Serif" font-size="10.00" fill="#000000">T</text>
</g>
<!-- Node11&#45;&gt;Node9 -->
<g id="edge10" class="edge">
<title>Node11&#45;&gt;Node9</title>
<path fill="none" stroke="#9a32cd" stroke-dasharray="5,2" d="M76.5717,-56.246C107.4849,-64.1041 161.5489,-77.847 203.0878,-88.406"/>
<polygon fill="#9a32cd" stroke="#9a32cd" points="77.2154,-52.7984 66.6613,-53.7269 75.4908,-59.5827 77.2154,-52.7984"/>
<text text-anchor="middle" x="146.5" y="-83" font-family="Helvetica,sans-Serif" font-size="10.00" fill="#000000"> elements</text>
</g>
<!-- Node14 -->
<g id="node13" class="node">
<title>Node14</title>
<g id="a_node13"><a xlink:title="STL class. ">
<polygon fill="#ffffff" stroke="#bfbfbf" points="201.5,-.5 201.5,-19.5 319.5,-19.5 319.5,-.5 201.5,-.5"/>
<text text-anchor="middle" x="260.5" y="-7.5" font-family="Helvetica,sans-Serif" font-size="10.00" fill="#000000">std::unique_ptr&lt; T &gt;</text>
</a>
</g>
</g>
<!-- Node11&#45;&gt;Node14 -->
<g id="edge14" class="edge">
<title>Node11&#45;&gt;Node14</title>
<path fill="none" stroke="#9a32cd" stroke-dasharray="5,2" d="M76.4544,-42.1362C89.8043,-38.066 106.6891,-33.2771 122,-30 147.7758,-24.483 176.5813,-20.0499 201.2184,-16.773"/>
<polygon fill="#9a32cd" stroke="#9a32cd" points="75.1106,-38.8888 66.6034,-45.2036 77.1918,-45.5722 75.1106,-38.8888"/>
<text text-anchor="middle" x="146.5" y="-33" font-family="Helvetica,sans-Serif" font-size="10.00" fill="#000000"> ptr</text>
</g>
<!-- Node12 -->
<g id="node11" class="node">
<title>Node12</title>
<polygon fill="#ffffff" stroke="#bfbfbf" points="509,-40 509,-70 682,-70 682,-40 509,-40"/>
<text text-anchor="start" x="517" y="-58" font-family="Helvetica,sans-Serif" font-size="10.00" fill="#000000">std::unique_ptr&lt; amr</text>
<text text-anchor="middle" x="595.5" y="-47" font-family="Helvetica,sans-Serif" font-size="10.00" fill="#000000">_wind::RayleighTaylorFieldInit &gt;</text>
</g>
<!-- Node12&#45;&gt;Node2 -->
<g id="edge11" class="edge">
<title>Node12&#45;&gt;Node2</title>
<path fill="none" stroke="#9a32cd" stroke-dasharray="5,2" d="M692.5822,-59.6767C796.4791,-65.0383 966.0712,-74.8162 1112,-88 1141.8447,-90.6963 1174.6888,-94.3971 1202.9916,-97.8166"/>
<polygon fill="#9a32cd" stroke="#9a32cd" points="692.591,-56.1726 682.4248,-59.1558 692.2324,-63.1634 692.591,-56.1726"/>
<text text-anchor="middle" x="956.5" y="-81" font-family="Helvetica,sans-Serif" font-size="10.00" fill="#000000"> m_field_init</text>
</g>
<!-- Node13 -->
<g id="node12" class="node">
<title>Node13</title>
<g id="a_node12"><a xlink:href="classamr__wind_1_1_rayleigh_taylor_field_init.html" target="_top" xlink:title="Initialize RayleighTaylor fields. ">
<polygon fill="#ffffff" stroke="#000000" points="189,-39 189,-69 332,-69 332,-39 189,-39"/>
<text text-anchor="start" x="197" y="-57" font-family="Helvetica,sans-Serif" font-size="10.00" fill="#000000">amr_wind::RayleighTaylor</text>
<text text-anchor="middle" x="260.5" y="-46" font-family="Helvetica,sans-Serif" font-size="10.00" fill="#000000">FieldInit</text>
</a>
</g>
</g>
<!-- Node13&#45;&gt;Node12 -->
<g id="edge12" class="edge">
<title>Node13&#45;&gt;Node12</title>
<path fill="none" stroke="#9a32cd" stroke-dasharray="5,2" d="M342.5847,-54.245C393.0435,-54.3957 457.6226,-54.5884 508.894,-54.7415"/>
<polygon fill="#9a32cd" stroke="#9a32cd" points="342.3763,-50.7445 332.3659,-54.2145 342.3554,-57.7445 342.3763,-50.7445"/>
<text text-anchor="middle" x="420.5" y="-58" font-family="Helvetica,sans-Serif" font-size="10.00" fill="#000000"> ptr</text>
</g>
<!-- Node14&#45;&gt;Node12 -->
<g id="edge13" class="edge">
<title>Node14&#45;&gt;Node12</title>
<path fill="none" stroke="#ffa500" stroke-dasharray="5,2" d="M329.7098,-12.7824C375.6715,-15.3462 437.2213,-20.153 491,-29 507.7872,-31.7616 525.8442,-35.8452 542.147,-39.962"/>
<polygon fill="#ffa500" stroke="#ffa500" points="329.7322,-9.2786 319.5592,-12.2384 329.3575,-16.2686 329.7322,-9.2786"/>
<text text-anchor="start" x="350" y="-43" font-family="Helvetica,sans-Serif" font-size="10.00" fill="#000000"> &lt; amr_wind::RayleighTaylor</text>
<text text-anchor="middle" x="420.5" y="-32" font-family="Helvetica,sans-Serif" font-size="10.00" fill="#000000">FieldInit &gt;</text>
</g>
</g>
</svg>
        <g id="navigator" transform="translate(0 0)" fill="#404254">
                <rect fill="#f2f5e9" fill-opacity="0.5" stroke="#606060" stroke-width=".5" x="0" y="0" width="60" height="60"/>
                <use id="zoomplus" xlink:href="#zoomPlus" x="17" y="9" onmousedown="handleZoom(evt,'in')"/>
                <use id="zoomminus" xlink:href="#zoomMin" x="42" y="9" onmousedown="handleZoom(evt,'out')"/>
                <use id="reset" xlink:href="#resetDef" x="30" y="36" onmousedown="handleReset()"/>
                <g id="arrowUp" xlink:href="#dirArrow" transform="translate(30 24)" onmousedown="handlePan(0,-1)">
                  <use xlink:href="#rim" fill="#404040">
                        <set attributeName="fill" to="#808080" begin="arrowUp.mouseover" end="arrowUp.mouseout"/>
                  </use>
                  <path fill="none" stroke="white" stroke-width="1.5" d="M0,-3.0v7 M-2.5,-0.5L0,-3.0L2.5,-0.5"/>
                </g>
                <g id="arrowRight" xlink:href="#dirArrow" transform="rotate(90) translate(36 -43)" onmousedown="handlePan(1,0)">
                  <use xlink:href="#rim" fill="#404040">
                        <set attributeName="fill" to="#808080" begin="arrowRight.mouseover" end="arrowRight.mouseout"/>
                  </use>
                  <path fill="none" stroke="white" stroke-width="1.5" d="M0,-3.0v7 M-2.5,-0.5L0,-3.0L2.5,-0.5"/>
                </g>
                <g id="arrowDown" xlink:href="#dirArrow" transform="rotate(180) translate(-30 -48)" onmousedown="handlePan(0,1)">
                  <use xlink:href="#rim" fill="#404040">
                        <set attributeName="fill" to="#808080" begin="arrowDown.mouseover" end="arrowDown.mouseout"/>
                  </use>
                  <path fill="none" stroke="white" stroke-width="1.5" d="M0,-3.0v7 M-2.5,-0.5L0,-3.0L2.5,-0.5"/>
                </g>
                <g id="arrowLeft" xlink:href="#dirArrow" transform="rotate(270) translate(-36 17)" onmousedown="handlePan(-1,0)">
                  <use xlink:href="#rim" fill="#404040">
                        <set attributeName="fill" to="#808080" begin="arrowLeft.mouseover" end="arrowLeft.mouseout"/>
                  </use>
                  <path fill="none" stroke="white" stroke-width="1.5" d="M0,-3.0v7 M-2.5,-0.5L0,-3.0L2.5,-0.5"/>
                </g>
        </g>
        <svg viewBox="0 0 15 15" width="100%" height="30px" preserveAspectRatio="xMaxYMin meet">
         <g id="arrow_out" transform="scale(0.3 0.3)">
          <a xlink:href="classamr__wind_1_1_rayleigh_taylor__coll__graph_org.svg" target="_base">
           <rect id="button" ry="5" rx="5" y="6" x="6" height="38" width="38"
                fill="#f2f5e9" fill-opacity="0.5" stroke="#606060" stroke-width="1.0"/>
           <path id="arrow"
             d="M 11.500037,31.436501 C 11.940474,20.09759 22.043105,11.32322 32.158766,21.979434 L 37.068811,17.246167 C 37.068811,17.246167 37.088388,32 37.088388,32 L 22.160133,31.978069 C 22.160133,31.978069 26.997745,27.140456 26.997745,27.140456 C 18.528582,18.264221 13.291696,25.230495 11.500037,31.436501 z"
             style="fill:#404040;"/>
          </a>
         </g>
        </svg>
</svg>
