<?xml version="1.0" encoding="UTF-8" standalone="no"?>
<!DOCTYPE svg PUBLIC "-//W3C//DTD SVG 1.1//EN"
 "http://www.w3.org/Graphics/SVG/1.1/DTD/svg11.dtd">
<!-- Generated by graphviz version 2.40.1 (20161225.0304)
 -->
<!-- Title: console_io.H Pages: 1 -->
<svg width="182pt" height="84pt"
 viewBox="0.00 0.00 181.50 84.00" xmlns="http://www.w3.org/2000/svg" xmlns:xlink="http://www.w3.org/1999/xlink">
<g id="graph0" class="graph" transform="scale(1 1) rotate(0) translate(4 80)">
<title>console_io.H</title>
<polygon fill="#ffffff" stroke="transparent" points="-4,4 -4,-80 177.5,-80 177.5,4 -4,4"/>
<!-- Node0 -->
<g id="node1" class="node">
<title>Node0</title>
<polygon fill="#bfbfbf" stroke="#000000" points="38.5,-56.5 38.5,-75.5 117.5,-75.5 117.5,-56.5 38.5,-56.5"/>
<text text-anchor="middle" x="78" y="-63.5" font-family="Helvetica,sans-Serif" font-size="10.00" fill="#000000">console_io.H</text>
</g>
<!-- Node1 -->
<g id="node2" class="node">
<title>Node1</title>
<polygon fill="#ffffff" stroke="#bfbfbf" points="0,-.5 0,-19.5 60,-19.5 60,-.5 0,-.5"/>
<text text-anchor="middle" x="30" y="-7.5" font-family="Helvetica,sans-Serif" font-size="10.00" fill="#000000">iostream</text>
</g>
<!-- Node0&#45;&gt;Node1 -->
<g id="edge1" class="edge">
<title>Node0&#45;&gt;Node1</title>
<path fill="none" stroke="#191970" d="M69.639,-56.2455C62.825,-48.2958 53.0319,-36.8706 44.8848,-27.3656"/>
<polygon fill="#191970" stroke="#191970" points="47.4305,-24.9575 38.2651,-19.6427 42.1157,-29.513 47.4305,-24.9575"/>
</g>
<!-- Node2 -->
<g id="node3" class="node">
<title>Node2</title>
<polygon fill="#ffffff" stroke="#bfbfbf" points="78.5,-.5 78.5,-19.5 173.5,-19.5 173.5,-.5 78.5,-.5"/>
<text text-anchor="middle" x="126" y="-7.5" font-family="Helvetica,sans-Serif" font-size="10.00" fill="#000000">AMReX_MLMG.H</text>
</g>
<!-- Node0&#45;&gt;Node2 -->
<g id="edge2" class="edge">
<title>Node0&#45;&gt;Node2</title>
<path fill="none" stroke="#191970" d="M86.361,-56.2455C93.175,-48.2958 102.9681,-36.8706 111.1152,-27.3656"/>
<polygon fill="#191970" stroke="#191970" points="113.8843,-29.513 117.7349,-19.6427 108.5695,-24.9575 113.8843,-29.513"/>
</g>
</g>
</svg>
