<?xml version="1.0" encoding="UTF-8" standalone="no"?>
<!DOCTYPE svg PUBLIC "-//W3C//DTD SVG 1.1//EN"
 "http://www.w3.org/Graphics/SVG/1.1/DTD/svg11.dtd">
<!-- Generated by graphviz version 2.40.1 (20161225.0304)
 -->
<!-- Title: console_io.cpp Pages: 1 -->
<svg width="641pt" height="151pt"
 viewBox="0.00 0.00 640.50 151.00" xmlns="http://www.w3.org/2000/svg" xmlns:xlink="http://www.w3.org/1999/xlink">
<g id="graph0" class="graph" transform="scale(1 1) rotate(0) translate(4 147)">
<title>console_io.cpp</title>
<polygon fill="#ffffff" stroke="transparent" points="-4,4 -4,-147 636.5,-147 636.5,4 -4,4"/>
<!-- Node0 -->
<g id="node1" class="node">
<title>Node0</title>
<polygon fill="#bfbfbf" stroke="#000000" points="284.5,-123.5 284.5,-142.5 373.5,-142.5 373.5,-123.5 284.5,-123.5"/>
<text text-anchor="middle" x="329" y="-130.5" font-family="Helvetica,sans-Serif" font-size="10.00" fill="#000000">console_io.cpp</text>
</g>
<!-- Node1 -->
<g id="node2" class="node">
<title>Node1</title>
<polygon fill="#ffffff" stroke="#bfbfbf" points="0,-62 0,-81 50,-81 50,-62 0,-62"/>
<text text-anchor="middle" x="25" y="-69" font-family="Helvetica,sans-Serif" font-size="10.00" fill="#000000">chrono</text>
</g>
<!-- Node0&#45;&gt;Node1 -->
<g id="edge1" class="edge">
<title>Node0&#45;&gt;Node1</title>
<path fill="none" stroke="#191970" d="M284.2204,-128.9558C229.9782,-123.244 136.2672,-110.7528 59,-87 57.0932,-86.4138 55.154,-85.7449 53.2176,-85.0214"/>
<polygon fill="#191970" stroke="#191970" points="54.3004,-81.6814 43.7225,-81.0816 51.6176,-88.1469 54.3004,-81.6814"/>
</g>
<!-- Node2 -->
<g id="node3" class="node">
<title>Node2</title>
<polygon fill="#ffffff" stroke="#bfbfbf" points="68,-62 68,-81 112,-81 112,-62 68,-62"/>
<text text-anchor="middle" x="90" y="-69" font-family="Helvetica,sans-Serif" font-size="10.00" fill="#000000">ctime</text>
</g>
<!-- Node0&#45;&gt;Node2 -->
<g id="edge2" class="edge">
<title>Node0&#45;&gt;Node2</title>
<path fill="none" stroke="#191970" d="M284.2929,-126.3862C241.5603,-119.3053 175.7278,-106.3992 121,-87 119.5821,-86.4974 118.1456,-85.9452 116.7075,-85.3578"/>
<polygon fill="#191970" stroke="#191970" points="117.9292,-82.0687 107.3765,-81.1246 115.0371,-88.4434 117.9292,-82.0687"/>
</g>
<!-- Node3 -->
<g id="node4" class="node">
<title>Node3</title>
<g id="a_node4"><a xlink:href="console__io_8_h.html" target="_top" xlink:title="amr&#45;wind/utilities\l/console_io.H">
<polygon fill="#ffffff" stroke="#000000" points="130,-56.5 130,-86.5 232,-86.5 232,-56.5 130,-56.5"/>
<text text-anchor="start" x="138" y="-74.5" font-family="Helvetica,sans-Serif" font-size="10.00" fill="#000000">amr&#45;wind/utilities</text>
<text text-anchor="middle" x="181" y="-63.5" font-family="Helvetica,sans-Serif" font-size="10.00" fill="#000000">/console_io.H</text>
</a>
</g>
</g>
<!-- Node0&#45;&gt;Node3 -->
<g id="edge3" class="edge">
<title>Node0&#45;&gt;Node3</title>
<path fill="none" stroke="#191970" d="M305.875,-123.3906C284.7322,-114.6049 252.8503,-101.3567 226.5936,-90.446"/>
<polygon fill="#191970" stroke="#191970" points="227.7824,-87.1499 217.2049,-86.5446 225.0963,-93.614 227.7824,-87.1499"/>
</g>
<!-- Node6 -->
<g id="node7" class="node">
<title>Node6</title>
<polygon fill="#ffffff" stroke="#bfbfbf" points="250,-62 250,-81 408,-81 408,-62 250,-62"/>
<text text-anchor="middle" x="329" y="-69" font-family="Helvetica,sans-Serif" font-size="10.00" fill="#000000">amr&#45;wind/AMRWindVersion.H</text>
</g>
<!-- Node0&#45;&gt;Node6 -->
<g id="edge6" class="edge">
<title>Node0&#45;&gt;Node6</title>
<path fill="none" stroke="#191970" d="M329,-123.3906C329,-114.8657 329,-102.1392 329,-91.4235"/>
<polygon fill="#191970" stroke="#191970" points="332.5001,-91.2448 329,-81.2449 325.5001,-91.2449 332.5001,-91.2448"/>
</g>
<!-- Node7 -->
<g id="node8" class="node">
<title>Node7</title>
<polygon fill="#ffffff" stroke="#bfbfbf" points="425.5,-62 425.5,-81 486.5,-81 486.5,-62 425.5,-62"/>
<text text-anchor="middle" x="456" y="-69" font-family="Helvetica,sans-Serif" font-size="10.00" fill="#000000">AMReX.H</text>
</g>
<!-- Node0&#45;&gt;Node7 -->
<g id="edge7" class="edge">
<title>Node0&#45;&gt;Node7</title>
<path fill="none" stroke="#191970" d="M348.8438,-123.3906C369.8136,-113.2359 403.0944,-97.1196 427.0036,-85.5416"/>
<polygon fill="#191970" stroke="#191970" points="428.8208,-88.5504 436.2956,-81.0419 425.7699,-82.2502 428.8208,-88.5504"/>
</g>
<!-- Node8 -->
<g id="node9" class="node">
<title>Node8</title>
<polygon fill="#ffffff" stroke="#bfbfbf" points="505,-62 505,-81 561,-81 561,-62 505,-62"/>
<text text-anchor="middle" x="533" y="-69" font-family="Helvetica,sans-Serif" font-size="10.00" fill="#000000">netcdf.h</text>
</g>
<!-- Node0&#45;&gt;Node8 -->
<g id="edge8" class="edge">
<title>Node0&#45;&gt;Node8</title>
<path fill="none" stroke="#191970" d="M369.2556,-123.4499C403.358,-114.9948 453.365,-101.7345 496,-87 497.876,-86.3517 499.7929,-85.6556 501.7183,-84.9304"/>
<polygon fill="#191970" stroke="#191970" points="503.2581,-88.0851 511.2665,-81.1486 500.6803,-81.577 503.2581,-88.0851"/>
</g>
<!-- Node9 -->
<g id="node10" class="node">
<title>Node9</title>
<polygon fill="#ffffff" stroke="#bfbfbf" points="579.5,-62 579.5,-81 632.5,-81 632.5,-62 579.5,-62"/>
<text text-anchor="middle" x="606" y="-69" font-family="Helvetica,sans-Serif" font-size="10.00" fill="#000000">masa.h</text>
</g>
<!-- Node0&#45;&gt;Node9 -->
<g id="edge9" class="edge">
<title>Node0&#45;&gt;Node9</title>
<path fill="none" stroke="#191970" d="M373.681,-127.4453C422.6021,-120.6804 503.01,-107.5453 570,-87 572.1143,-86.3516 574.272,-85.6179 576.428,-84.8312"/>
<polygon fill="#191970" stroke="#191970" points="577.7245,-88.0823 585.7294,-81.1417 575.1435,-81.5755 577.7245,-88.0823"/>
</g>
<!-- Node4 -->
<g id="node5" class="node">
<title>Node4</title>
<polygon fill="#ffffff" stroke="#bfbfbf" points="103,-.5 103,-19.5 163,-19.5 163,-.5 103,-.5"/>
<text text-anchor="middle" x="133" y="-7.5" font-family="Helvetica,sans-Serif" font-size="10.00" fill="#000000">iostream</text>
</g>
<!-- Node3&#45;&gt;Node4 -->
<g id="edge4" class="edge">
<title>Node3&#45;&gt;Node4</title>
<path fill="none" stroke="#191970" d="M169.1348,-56.2977C162.4025,-47.672 153.9415,-36.8312 146.8994,-27.8087"/>
<polygon fill="#191970" stroke="#191970" points="149.5973,-25.5766 140.6854,-19.8469 144.079,-29.8836 149.5973,-25.5766"/>
</g>
<!-- Node5 -->
<g id="node6" class="node">
<title>Node5</title>
<polygon fill="#ffffff" stroke="#bfbfbf" points="181.5,-.5 181.5,-19.5 276.5,-19.5 276.5,-.5 181.5,-.5"/>
<text text-anchor="middle" x="229" y="-7.5" font-family="Helvetica,sans-Serif" font-size="10.00" fill="#000000">AMReX_MLMG.H</text>
</g>
<!-- Node3&#45;&gt;Node5 -->
<g id="edge5" class="edge">
<title>Node3&#45;&gt;Node5</title>
<path fill="none" stroke="#191970" d="M192.8652,-56.2977C199.5975,-47.672 208.0585,-36.8312 215.1006,-27.8087"/>
<polygon fill="#191970" stroke="#191970" points="217.921,-29.8836 221.3146,-19.8469 212.4027,-25.5766 217.921,-29.8836"/>
</g>
</g>
</svg>
