<?xml version="1.0" encoding="UTF-8" standalone="no"?>
<!DOCTYPE svg PUBLIC "-//W3C//DTD SVG 1.1//EN"
 "http://www.w3.org/Graphics/SVG/1.1/DTD/svg11.dtd">
<!-- Generated by graphviz version 2.40.1 (20161225.0304)
 -->
<!-- Title: density.H Pages: 1 -->
<svg width="123pt" height="140pt"
 viewBox="0.00 0.00 122.50 140.00" xmlns="http://www.w3.org/2000/svg" xmlns:xlink="http://www.w3.org/1999/xlink">
<g id="graph0" class="graph" transform="scale(1 1) rotate(0) translate(4 136)">
<title>density.H</title>
<polygon fill="#ffffff" stroke="transparent" points="-4,4 -4,-136 118.5,-136 118.5,4 -4,4"/>
<!-- Node60 -->
<g id="node1" class="node">
<title>Node60</title>
<polygon fill="#bfbfbf" stroke="#000000" points="4.5,-112.5 4.5,-131.5 66.5,-131.5 66.5,-112.5 4.5,-112.5"/>
<text text-anchor="middle" x="35.5" y="-119.5" font-family="Helvetica,sans-Serif" font-size="10.00" fill="#000000">density.H</text>
</g>
<!-- Node61 -->
<g id="node2" class="node">
<title>Node61</title>
<g id="a_node2"><a xlink:href="density_8cpp.html" target="_top" xlink:title="density.cpp">
<polygon fill="#ffffff" stroke="#000000" points="0,-.5 0,-19.5 71,-19.5 71,-.5 0,-.5"/>
<text text-anchor="middle" x="35.5" y="-7.5" font-family="Helvetica,sans-Serif" font-size="10.00" fill="#000000">density.cpp</text>
</a>
</g>
</g>
<!-- Node60&#45;&gt;Node61 -->
<g id="edge1" class="edge">
<title>Node60&#45;&gt;Node61</title>
<path fill="none" stroke="#191970" d="M27.309,-103.0595C24.2034,-94.8981 21.045,-85.1449 19.5,-76 16.0824,-55.7717 24.7022,-32.5509 30.5749,-19.7505"/>
<polygon fill="#191970" stroke="#191970" points="24.0873,-104.4287 31.089,-112.3802 30.5742,-101.7979 24.0873,-104.4287"/>
</g>
<!-- Node62 -->
<g id="node3" class="node">
<title>Node62</title>
<g id="a_node3"><a xlink:href="density__ops_8_h.html" target="_top" xlink:title="density_ops.H">
<polygon fill="#ffffff" stroke="#000000" points="28.5,-56.5 28.5,-75.5 114.5,-75.5 114.5,-56.5 28.5,-56.5"/>
<text text-anchor="middle" x="71.5" y="-63.5" font-family="Helvetica,sans-Serif" font-size="10.00" fill="#000000">density_ops.H</text>
</a>
</g>
</g>
<!-- Node60&#45;&gt;Node62 -->
<g id="edge2" class="edge">
<title>Node60&#45;&gt;Node62</title>
<path fill="none" stroke="#191970" d="M47.3096,-103.6296C53.3144,-94.2887 60.3659,-83.3197 65.3011,-75.6427"/>
<polygon fill="#191970" stroke="#191970" points="44.2342,-101.9411 41.7707,-112.2455 50.1225,-105.7264 44.2342,-101.9411"/>
</g>
<!-- Node62&#45;&gt;Node61 -->
<g id="edge3" class="edge">
<title>Node62&#45;&gt;Node61</title>
<path fill="none" stroke="#191970" d="M59.6904,-47.6296C53.6856,-38.2887 46.6341,-27.3197 41.6989,-19.6427"/>
<polygon fill="#191970" stroke="#191970" points="56.8775,-49.7264 65.2293,-56.2455 62.7658,-45.9411 56.8775,-49.7264"/>
</g>
</g>
</svg>
