<?xml version="1.0" encoding="UTF-8" standalone="no"?>
<!DOCTYPE svg PUBLIC "-//W3C//DTD SVG 1.1//EN"
 "http://www.w3.org/Graphics/SVG/1.1/DTD/svg11.dtd">
<!-- Generated by graphviz version 2.40.1 (20161225.0304)
 -->
<!-- Title: diffusion.H Pages: 1 -->
<!--zoomable 308 -->
<svg id="main" version="1.1" xmlns="http://www.w3.org/2000/svg" xmlns:xlink="http://www.w3.org/1999/xlink" xml:space="preserve" onload="init(evt)">
<style type="text/css"><![CDATA[
.edge:hover path { stroke: red; }
.edge:hover polygon { stroke: red; fill: red; }
]]></style>
<script type="text/javascript"><![CDATA[
var edges = document.getElementsByTagName('g');
if (edges && edges.length) {
  for (var i=0;i<edges.length;i++) {
    if (edges[i].id.substr(0,4)=='edge') {
      edges[i].setAttribute('class','edge');
    }
  }
}
]]></script>
        <defs>
                <circle id="rim" cx="0" cy="0" r="7"/>
                <circle id="rim2" cx="0" cy="0" r="3.5"/>
                <g id="zoomPlus">
                        <use xlink:href="#rim" fill="#404040">
                                <set attributeName="fill" to="#808080" begin="zoomplus.mouseover" end="zoomplus.mouseout"/>
                        </use>
                        <path d="M-4,0h8M0,-4v8" fill="none" stroke="white" stroke-width="1.5" pointer-events="none"/>
                </g>
                <g id="zoomMin">
                        <use xlink:href="#rim" fill="#404040">
                                <set attributeName="fill" to="#808080" begin="zoomminus.mouseover" end="zoomminus.mouseout"/>
                        </use>
                        <path d="M-4,0h8" fill="none" stroke="white" stroke-width="1.5" pointer-events="none"/>
                </g>
                <g id="dirArrow">
                        <path fill="none" stroke="white" stroke-width="1.5" d="M0,-3.0v7 M-2.5,-0.5L0,-3.0L2.5,-0.5"/>
                </g>
               <g id="resetDef">
                       <use xlink:href="#rim2" fill="#404040">
                               <set attributeName="fill" to="#808080" begin="reset.mouseover" end="reset.mouseout"/>
                       </use>
               </g>
        </defs>

<script type="text/javascript">
var viewWidth = 1868;
var viewHeight = 308;
var sectionId = 'dynsection-1';
</script>
<script xlink:href="svgpan.js"/>
<svg id="graph" class="graph">
<g id="viewport">
<title>diffusion.H</title>
<polygon fill="#ffffff" stroke="transparent" points="-4,4 -4,-304 1864,-304 1864,4 -4,4"/>
<!-- Node22 -->
<g id="node1" class="node">
<title>Node22</title>
<polygon fill="#bfbfbf" stroke="#000000" points="1647.5,-280.5 1647.5,-299.5 1716.5,-299.5 1716.5,-280.5 1647.5,-280.5"/>
<text text-anchor="middle" x="1682" y="-287.5" font-family="Helvetica,sans-Serif" font-size="10.00" fill="#000000">diffusion.H</text>
</g>
<!-- Node23 -->
<g id="node2" class="node">
<title>Node23</title>
<g id="a_node2"><a xlink:href="incflo__diffusion_8cpp.html" target="_top" xlink:title="incflo_diffusion.cpp">
<polygon fill="#ffffff" stroke="#000000" points="1509,-224.5 1509,-243.5 1619,-243.5 1619,-224.5 1509,-224.5"/>
<text text-anchor="middle" x="1564" y="-231.5" font-family="Helvetica,sans-Serif" font-size="10.00" fill="#000000">incflo_diffusion.cpp</text>
</a>
</g>
</g>
<!-- Node22&#45;&gt;Node23 -->
<g id="edge1" class="edge">
<title>Node22&#45;&gt;Node23</title>
<path fill="none" stroke="#191970" d="M1652.4453,-275.9741C1631.0805,-265.8348 1602.7884,-252.408 1584.0202,-243.5011"/>
<polygon fill="#191970" stroke="#191970" points="1651.1802,-279.2478 1661.7151,-280.3733 1654.1814,-272.9238 1651.1802,-279.2478"/>
</g>
<!-- Node24 -->
<g id="node3" class="node">
<title>Node24</title>
<g id="a_node3"><a xlink:href="_diffusion_ops_8_h.html" target="_top" xlink:title="DiffusionOps.H">
<polygon fill="#ffffff" stroke="#000000" points="1637.5,-224.5 1637.5,-243.5 1726.5,-243.5 1726.5,-224.5 1637.5,-224.5"/>
<text text-anchor="middle" x="1682" y="-231.5" font-family="Helvetica,sans-Serif" font-size="10.00" fill="#000000">DiffusionOps.H</text>
</a>
</g>
</g>
<!-- Node22&#45;&gt;Node24 -->
<g id="edge2" class="edge">
<title>Node22&#45;&gt;Node24</title>
<path fill="none" stroke="#191970" d="M1682,-270.1575C1682,-261.155 1682,-250.9199 1682,-243.6427"/>
<polygon fill="#191970" stroke="#191970" points="1678.5001,-270.2455 1682,-280.2455 1685.5001,-270.2456 1678.5001,-270.2455"/>
</g>
<!-- Node57 -->
<g id="node36" class="node">
<title>Node57</title>
<g id="a_node36"><a xlink:href="_a_b_l_wall_function_8cpp.html" target="_top" xlink:title="ABLWallFunction.cpp">
<polygon fill="#ffffff" stroke="#000000" points="1744,-224.5 1744,-243.5 1860,-243.5 1860,-224.5 1744,-224.5"/>
<text text-anchor="middle" x="1802" y="-231.5" font-family="Helvetica,sans-Serif" font-size="10.00" fill="#000000">ABLWallFunction.cpp</text>
</a>
</g>
</g>
<!-- Node22&#45;&gt;Node57 -->
<g id="edge52" class="edge">
<title>Node22&#45;&gt;Node57</title>
<path fill="none" stroke="#191970" d="M1711.7624,-276.1109C1733.5232,-265.9559 1762.4682,-252.4482 1781.6405,-243.5011"/>
<polygon fill="#191970" stroke="#191970" points="1710.2105,-272.9727 1702.6287,-280.3733 1713.1707,-279.316 1710.2105,-272.9727"/>
</g>
<!-- Node25 -->
<g id="node4" class="node">
<title>Node25</title>
<g id="a_node4"><a xlink:href="_p_d_e_8_h.html" target="_top" xlink:title="PDE.H">
<polygon fill="#ffffff" stroke="#000000" points="915.5,-168.5 915.5,-187.5 962.5,-187.5 962.5,-168.5 915.5,-168.5"/>
<text text-anchor="middle" x="939" y="-175.5" font-family="Helvetica,sans-Serif" font-size="10.00" fill="#000000">PDE.H</text>
</a>
</g>
</g>
<!-- Node24&#45;&gt;Node25 -->
<g id="edge3" class="edge">
<title>Node24&#45;&gt;Node25</title>
<path fill="none" stroke="#191970" d="M1627.0098,-224.023C1360.3597,-191.1442 1049.5365,-180.924 962.5924,-178.5797"/>
<polygon fill="#191970" stroke="#191970" points="1626.9173,-227.5385 1637.2735,-225.3026 1627.7834,-220.5923 1626.9173,-227.5385"/>
</g>
<!-- Node31 -->
<g id="node10" class="node">
<title>Node31</title>
<g id="a_node10"><a xlink:href="icns__ops_8_h.html" target="_top" xlink:title="icns_ops.H">
<polygon fill="#ffffff" stroke="#000000" points="1628.5,-56.5 1628.5,-75.5 1697.5,-75.5 1697.5,-56.5 1628.5,-56.5"/>
<text text-anchor="middle" x="1663" y="-63.5" font-family="Helvetica,sans-Serif" font-size="10.00" fill="#000000">icns_ops.H</text>
</a>
</g>
</g>
<!-- Node24&#45;&gt;Node31 -->
<g id="edge50" class="edge">
<title>Node24&#45;&gt;Node31</title>
<path fill="none" stroke="#191970" d="M1679.7675,-214.2601C1675.6855,-178.1669 1667.158,-102.7656 1664.1115,-75.8279"/>
<polygon fill="#191970" stroke="#191970" points="1676.3223,-214.9429 1680.924,-224.4862 1683.278,-214.1562 1676.3223,-214.9429"/>
</g>
<!-- Node34 -->
<g id="node13" class="node">
<title>Node34</title>
<g id="a_node13"><a xlink:href="icns__diffusion_8_h.html" target="_top" xlink:title="icns_diffusion.H">
<polygon fill="#ffffff" stroke="#000000" points="1716,-56.5 1716,-75.5 1810,-75.5 1810,-56.5 1716,-56.5"/>
<text text-anchor="middle" x="1763" y="-63.5" font-family="Helvetica,sans-Serif" font-size="10.00" fill="#000000">icns_diffusion.H</text>
</a>
</g>
</g>
<!-- Node24&#45;&gt;Node34 -->
<g id="edge51" class="edge">
<title>Node24&#45;&gt;Node34</title>
<path fill="none" stroke="#191970" d="M1691.0697,-215.1887C1708.2882,-179.4762 1745.1613,-102.9988 1758.2616,-75.8279"/>
<polygon fill="#191970" stroke="#191970" points="1687.7773,-213.9585 1686.587,-224.4862 1694.0827,-216.9986 1687.7773,-213.9585"/>
</g>
<!-- Node56 -->
<g id="node35" class="node">
<title>Node56</title>
<g id="a_node35"><a xlink:href="_diffusion_ops_8cpp.html" target="_top" xlink:title="DiffusionOps.cpp">
<polygon fill="#ffffff" stroke="#000000" points="1729.5,-168.5 1729.5,-187.5 1828.5,-187.5 1828.5,-168.5 1729.5,-168.5"/>
<text text-anchor="middle" x="1779" y="-175.5" font-family="Helvetica,sans-Serif" font-size="10.00" fill="#000000">DiffusionOps.cpp</text>
</a>
</g>
</g>
<!-- Node24&#45;&gt;Node56 -->
<g id="edge49" class="edge">
<title>Node24&#45;&gt;Node56</title>
<path fill="none" stroke="#191970" d="M1707.9016,-219.0465C1725.1609,-209.0824 1747.3376,-196.2794 1762.2975,-187.6427"/>
<polygon fill="#191970" stroke="#191970" points="1705.8065,-216.2146 1698.8961,-224.2455 1709.3064,-222.2768 1705.8065,-216.2146"/>
</g>
<!-- Node26 -->
<g id="node5" class="node">
<title>Node26</title>
<g id="a_node5"><a xlink:href="density_8_h.html" target="_top" xlink:title="density.H">
<polygon fill="#ffffff" stroke="#000000" points="1081,-112.5 1081,-131.5 1143,-131.5 1143,-112.5 1081,-112.5"/>
<text text-anchor="middle" x="1112" y="-119.5" font-family="Helvetica,sans-Serif" font-size="10.00" fill="#000000">density.H</text>
</a>
</g>
</g>
<!-- Node25&#45;&gt;Node26 -->
<g id="edge4" class="edge">
<title>Node25&#45;&gt;Node26</title>
<path fill="none" stroke="#191970" d="M972.4632,-167.168C1004.3844,-156.8351 1051.9992,-141.4222 1082.525,-131.541"/>
<polygon fill="#191970" stroke="#191970" points="971.1282,-163.9212 962.6922,-170.3309 973.2841,-170.581 971.1282,-163.9212"/>
</g>
<!-- Node29 -->
<g id="node8" class="node">
<title>Node29</title>
<g id="a_node8"><a xlink:href="icns_8_h.html" target="_top" xlink:title="icns.H">
<polygon fill="#ffffff" stroke="#000000" points="1414.5,-112.5 1414.5,-131.5 1461.5,-131.5 1461.5,-112.5 1414.5,-112.5"/>
<text text-anchor="middle" x="1438" y="-119.5" font-family="Helvetica,sans-Serif" font-size="10.00" fill="#000000">icns.H</text>
</a>
</g>
</g>
<!-- Node25&#45;&gt;Node29 -->
<g id="edge8" class="edge">
<title>Node25&#45;&gt;Node29</title>
<path fill="none" stroke="#191970" d="M972.9047,-174.1951C1067.6619,-163.561 1333.601,-133.7161 1414.4131,-124.647"/>
<polygon fill="#191970" stroke="#191970" points="972.2794,-170.7432 962.7321,-175.3367 973.0601,-177.6995 972.2794,-170.7432"/>
</g>
<!-- Node37 -->
<g id="node16" class="node">
<title>Node37</title>
<g id="a_node16"><a xlink:href="levelset_8_h.html" target="_top" xlink:title="levelset.H">
<polygon fill="#ffffff" stroke="#000000" points="41,-112.5 41,-131.5 107,-131.5 107,-112.5 41,-112.5"/>
<text text-anchor="middle" x="74" y="-119.5" font-family="Helvetica,sans-Serif" font-size="10.00" fill="#000000">levelset.H</text>
</a>
</g>
</g>
<!-- Node25&#45;&gt;Node37 -->
<g id="edge20" class="edge">
<title>Node25&#45;&gt;Node37</title>
<path fill="none" stroke="#191970" d="M905.426,-175.8264C767.4238,-166.8922 244.69,-133.0505 107.2646,-124.1535"/>
<polygon fill="#191970" stroke="#191970" points="905.2095,-179.3196 915.4147,-176.4731 905.6618,-172.3343 905.2095,-179.3196"/>
</g>
<!-- Node40 -->
<g id="node19" class="node">
<title>Node40</title>
<g id="a_node19"><a xlink:href="_s_d_r_8_h.html" target="_top" xlink:title="SDR.H">
<polygon fill="#ffffff" stroke="#000000" points="281.5,-112.5 281.5,-131.5 328.5,-131.5 328.5,-112.5 281.5,-112.5"/>
<text text-anchor="middle" x="305" y="-119.5" font-family="Helvetica,sans-Serif" font-size="10.00" fill="#000000">SDR.H</text>
</a>
</g>
</g>
<!-- Node25&#45;&gt;Node40 -->
<g id="edge24" class="edge">
<title>Node25&#45;&gt;Node40</title>
<path fill="none" stroke="#191970" d="M905.1139,-175.0069C791.5092,-164.9724 425.8358,-132.6732 328.8154,-124.1036"/>
<polygon fill="#191970" stroke="#191970" points="905.0344,-178.5134 915.3036,-175.9069 905.6503,-171.5406 905.0344,-178.5134"/>
</g>
<!-- Node46 -->
<g id="node25" class="node">
<title>Node46</title>
<g id="a_node25"><a xlink:href="temperature_8_h.html" target="_top" xlink:title="temperature.H">
<polygon fill="#ffffff" stroke="#000000" points="956,-112.5 956,-131.5 1044,-131.5 1044,-112.5 956,-112.5"/>
<text text-anchor="middle" x="1000" y="-119.5" font-family="Helvetica,sans-Serif" font-size="10.00" fill="#000000">temperature.H</text>
</a>
</g>
</g>
<!-- Node25&#45;&gt;Node46 -->
<g id="edge33" class="edge">
<title>Node25&#45;&gt;Node46</title>
<path fill="none" stroke="#191970" d="M957.1249,-161.3607C967.678,-151.6727 980.6112,-139.7995 989.4964,-131.6427"/>
<polygon fill="#191970" stroke="#191970" points="954.625,-158.9045 949.6254,-168.2455 959.3589,-164.0611 954.625,-158.9045"/>
</g>
<!-- Node48 -->
<g id="node27" class="node">
<title>Node48</title>
<g id="a_node27"><a xlink:href="_t_k_e_8_h.html" target="_top" xlink:title="TKE.H">
<polygon fill="#ffffff" stroke="#000000" points="577,-112.5 577,-131.5 623,-131.5 623,-112.5 577,-112.5"/>
<text text-anchor="middle" x="600" y="-119.5" font-family="Helvetica,sans-Serif" font-size="10.00" fill="#000000">TKE.H</text>
</a>
</g>
</g>
<!-- Node25&#45;&gt;Node48 -->
<g id="edge35" class="edge">
<title>Node25&#45;&gt;Node48</title>
<path fill="none" stroke="#191970" d="M905.1711,-172.4118C836.4922,-161.0666 682.2504,-135.5871 623.4126,-125.8676"/>
<polygon fill="#191970" stroke="#191970" points="904.9946,-175.9299 915.4313,-174.1066 906.1355,-169.0235 904.9946,-175.9299"/>
</g>
<!-- Node52 -->
<g id="node31" class="node">
<title>Node52</title>
<g id="a_node31"><a xlink:href="vof_8_h.html" target="_top" xlink:title="vof.H">
<polygon fill="#ffffff" stroke="#000000" points="886,-112.5 886,-131.5 928,-131.5 928,-112.5 886,-112.5"/>
<text text-anchor="middle" x="907" y="-119.5" font-family="Helvetica,sans-Serif" font-size="10.00" fill="#000000">vof.H</text>
</a>
</g>
</g>
<!-- Node25&#45;&gt;Node52 -->
<g id="edge43" class="edge">
<title>Node25&#45;&gt;Node52</title>
<path fill="none" stroke="#191970" d="M928.3355,-159.3372C923.0346,-150.0605 916.8513,-139.2398 912.5101,-131.6427"/>
<polygon fill="#191970" stroke="#191970" points="925.4257,-161.2996 933.426,-168.2455 931.5034,-157.8266 925.4257,-161.2996"/>
</g>
<!-- Node27 -->
<g id="node6" class="node">
<title>Node27</title>
<g id="a_node6"><a xlink:href="density_8cpp.html" target="_top" xlink:title="density.cpp">
<polygon fill="#ffffff" stroke="#000000" points="1111.5,-.5 1111.5,-19.5 1182.5,-19.5 1182.5,-.5 1111.5,-.5"/>
<text text-anchor="middle" x="1147" y="-7.5" font-family="Helvetica,sans-Serif" font-size="10.00" fill="#000000">density.cpp</text>
</a>
</g>
</g>
<!-- Node26&#45;&gt;Node27 -->
<g id="edge5" class="edge">
<title>Node26&#45;&gt;Node27</title>
<path fill="none" stroke="#191970" d="M1117.38,-102.2595C1121.0406,-89.1002 1126.0937,-71.4484 1131,-56 1134.9927,-43.4283 1140.0607,-29.0969 1143.4108,-19.8187"/>
<polygon fill="#191970" stroke="#191970" points="1113.9481,-101.5392 1114.6664,-112.1097 1120.6967,-103.3984 1113.9481,-101.5392"/>
</g>
<!-- Node28 -->
<g id="node7" class="node">
<title>Node28</title>
<g id="a_node7"><a xlink:href="density__ops_8_h.html" target="_top" xlink:title="density_ops.H">
<polygon fill="#ffffff" stroke="#000000" points="1140,-56.5 1140,-75.5 1226,-75.5 1226,-56.5 1140,-56.5"/>
<text text-anchor="middle" x="1183" y="-63.5" font-family="Helvetica,sans-Serif" font-size="10.00" fill="#000000">density_ops.H</text>
</a>
</g>
</g>
<!-- Node26&#45;&gt;Node28 -->
<g id="edge6" class="edge">
<title>Node26&#45;&gt;Node28</title>
<path fill="none" stroke="#191970" d="M1132.377,-105.928C1144.7871,-96.1397 1160.23,-83.9595 1170.7745,-75.6427"/>
<polygon fill="#191970" stroke="#191970" points="1130.0514,-103.3046 1124.3673,-112.2455 1134.3864,-108.8007 1130.0514,-103.3046"/>
</g>
<!-- Node28&#45;&gt;Node27 -->
<g id="edge7" class="edge">
<title>Node28&#45;&gt;Node27</title>
<path fill="none" stroke="#191970" d="M1171.1904,-47.6296C1165.1856,-38.2887 1158.1341,-27.3197 1153.1989,-19.6427"/>
<polygon fill="#191970" stroke="#191970" points="1168.3775,-49.7264 1176.7293,-56.2455 1174.2658,-45.9411 1168.3775,-49.7264"/>
</g>
<!-- Node30 -->
<g id="node9" class="node">
<title>Node30</title>
<g id="a_node9"><a xlink:href="icns_8cpp.html" target="_top" xlink:title="icns.cpp">
<polygon fill="#ffffff" stroke="#000000" points="1410,-.5 1410,-19.5 1466,-19.5 1466,-.5 1410,-.5"/>
<text text-anchor="middle" x="1438" y="-7.5" font-family="Helvetica,sans-Serif" font-size="10.00" fill="#000000">icns.cpp</text>
</a>
</g>
</g>
<!-- Node29&#45;&gt;Node30 -->
<g id="edge9" class="edge">
<title>Node29&#45;&gt;Node30</title>
<path fill="none" stroke="#191970" d="M1414.9587,-105.8992C1399.8809,-93.2139 1384.2884,-74.6175 1392,-56 1398.3102,-40.7658 1412.3846,-27.9464 1423.3148,-19.7423"/>
<polygon fill="#191970" stroke="#191970" points="1413.1005,-108.8896 1423.131,-112.3011 1417.4172,-103.379 1413.1005,-108.8896"/>
</g>
<!-- Node29&#45;&gt;Node31 -->
<g id="edge10" class="edge">
<title>Node29&#45;&gt;Node31</title>
<path fill="none" stroke="#191970" d="M1471.4318,-113.6792C1513.564,-103.1929 1585.6213,-85.2587 1628.3301,-74.6289"/>
<polygon fill="#191970" stroke="#191970" points="1470.5123,-110.3012 1461.6537,-116.1129 1472.203,-117.094 1470.5123,-110.3012"/>
</g>
<!-- Node32 -->
<g id="node11" class="node">
<title>Node32</title>
<g id="a_node11"><a xlink:href="icns__advection_8_h.html" target="_top" xlink:title="icns_advection.H">
<polygon fill="#ffffff" stroke="#000000" points="1244,-56.5 1244,-75.5 1344,-75.5 1344,-56.5 1244,-56.5"/>
<text text-anchor="middle" x="1294" y="-63.5" font-family="Helvetica,sans-Serif" font-size="10.00" fill="#000000">icns_advection.H</text>
</a>
</g>
</g>
<!-- Node29&#45;&gt;Node32 -->
<g id="edge12" class="edge">
<title>Node29&#45;&gt;Node32</title>
<path fill="none" stroke="#191970" d="M1404.694,-109.0476C1378.4711,-98.8499 1342.5065,-84.8636 1318.7801,-75.6367"/>
<polygon fill="#191970" stroke="#191970" points="1403.6327,-112.3902 1414.2213,-112.7527 1406.1699,-105.8662 1403.6327,-112.3902"/>
</g>
<!-- Node29&#45;&gt;Node34 -->
<g id="edge15" class="edge">
<title>Node29&#45;&gt;Node34</title>
<path fill="none" stroke="#191970" d="M1471.886,-116.2874C1522.9023,-107.6684 1622.4694,-90.7747 1707,-76 1709.9186,-75.4899 1712.9221,-74.962 1715.9507,-74.4275"/>
<polygon fill="#191970" stroke="#191970" points="1471.0372,-112.8811 1461.7595,-117.9973 1472.2027,-119.7834 1471.0372,-112.8811"/>
</g>
<!-- Node35 -->
<g id="node14" class="node">
<title>Node35</title>
<g id="a_node14"><a xlink:href="icns__bcop_8_h.html" target="_top" xlink:title="icns_bcop.H">
<polygon fill="#ffffff" stroke="#000000" points="1400.5,-56.5 1400.5,-75.5 1475.5,-75.5 1475.5,-56.5 1400.5,-56.5"/>
<text text-anchor="middle" x="1438" y="-63.5" font-family="Helvetica,sans-Serif" font-size="10.00" fill="#000000">icns_bcop.H</text>
</a>
</g>
</g>
<!-- Node29&#45;&gt;Node35 -->
<g id="edge17" class="edge">
<title>Node29&#45;&gt;Node35</title>
<path fill="none" stroke="#191970" d="M1438,-102.1575C1438,-93.155 1438,-82.9199 1438,-75.6427"/>
<polygon fill="#191970" stroke="#191970" points="1434.5001,-102.2455 1438,-112.2455 1441.5001,-102.2456 1434.5001,-102.2455"/>
</g>
<!-- Node36 -->
<g id="node15" class="node">
<title>Node36</title>
<g id="a_node15"><a xlink:href="_power_law_profile_8cpp.html" target="_top" xlink:title="PowerLawProfile.cpp">
<polygon fill="#ffffff" stroke="#000000" points="1493.5,-56.5 1493.5,-75.5 1610.5,-75.5 1610.5,-56.5 1493.5,-56.5"/>
<text text-anchor="middle" x="1552" y="-63.5" font-family="Helvetica,sans-Serif" font-size="10.00" fill="#000000">PowerLawProfile.cpp</text>
</a>
</g>
</g>
<!-- Node29&#45;&gt;Node36 -->
<g id="edge19" class="edge">
<title>Node29&#45;&gt;Node36</title>
<path fill="none" stroke="#191970" d="M1466.8321,-107.8368C1487.4395,-97.7139 1514.6082,-84.3679 1532.6584,-75.5011"/>
<polygon fill="#191970" stroke="#191970" points="1465.0297,-104.8227 1457.5973,-112.3733 1468.116,-111.1056 1465.0297,-104.8227"/>
</g>
<!-- Node31&#45;&gt;Node30 -->
<g id="edge11" class="edge">
<title>Node31&#45;&gt;Node30</title>
<path fill="none" stroke="#191970" d="M1618.5006,-54.9246C1573.2707,-43.6674 1504.5701,-26.5686 1466.289,-17.0408"/>
<polygon fill="#191970" stroke="#191970" points="1617.7875,-58.3538 1628.3368,-57.3727 1619.4782,-51.5611 1617.7875,-58.3538"/>
</g>
<!-- Node32&#45;&gt;Node30 -->
<g id="edge13" class="edge">
<title>Node32&#45;&gt;Node30</title>
<path fill="none" stroke="#191970" d="M1328.3182,-52.6541C1354.578,-42.4419 1390.1492,-28.6086 1413.5685,-19.5011"/>
<polygon fill="#191970" stroke="#191970" points="1326.806,-49.4867 1318.7545,-56.3733 1329.3431,-56.0108 1326.806,-49.4867"/>
</g>
<!-- Node33 -->
<g id="node12" class="node">
<title>Node33</title>
<g id="a_node12"><a xlink:href="icns__advection_8cpp.html" target="_top" xlink:title="icns_advection.cpp">
<polygon fill="#ffffff" stroke="#000000" points="1239,-.5 1239,-19.5 1349,-19.5 1349,-.5 1239,-.5"/>
<text text-anchor="middle" x="1294" y="-7.5" font-family="Helvetica,sans-Serif" font-size="10.00" fill="#000000">icns_advection.cpp</text>
</a>
</g>
</g>
<!-- Node32&#45;&gt;Node33 -->
<g id="edge14" class="edge">
<title>Node32&#45;&gt;Node33</title>
<path fill="none" stroke="#191970" d="M1294,-46.1575C1294,-37.155 1294,-26.9199 1294,-19.6427"/>
<polygon fill="#191970" stroke="#191970" points="1290.5001,-46.2455 1294,-56.2455 1297.5001,-46.2456 1290.5001,-46.2455"/>
</g>
<!-- Node34&#45;&gt;Node30 -->
<g id="edge16" class="edge">
<title>Node34&#45;&gt;Node30</title>
<path fill="none" stroke="#191970" d="M1706.0129,-55.8366C1612.2157,-39.4703 1513.6373,-22.7616 1466.2837,-14.7664"/>
<polygon fill="#191970" stroke="#191970" points="1705.4976,-59.2995 1715.9507,-57.5725 1706.7021,-52.4039 1705.4976,-59.2995"/>
</g>
<!-- Node35&#45;&gt;Node30 -->
<g id="edge18" class="edge">
<title>Node35&#45;&gt;Node30</title>
<path fill="none" stroke="#191970" d="M1438,-46.1575C1438,-37.155 1438,-26.9199 1438,-19.6427"/>
<polygon fill="#191970" stroke="#191970" points="1434.5001,-46.2455 1438,-56.2455 1441.5001,-46.2456 1434.5001,-46.2455"/>
</g>
<!-- Node38 -->
<g id="node17" class="node">
<title>Node38</title>
<g id="a_node17"><a xlink:href="levelset_8cpp.html" target="_top" xlink:title="levelset.cpp">
<polygon fill="#ffffff" stroke="#000000" points="0,-.5 0,-19.5 76,-19.5 76,-.5 0,-.5"/>
<text text-anchor="middle" x="38" y="-7.5" font-family="Helvetica,sans-Serif" font-size="10.00" fill="#000000">levelset.cpp</text>
</a>
</g>
</g>
<!-- Node37&#45;&gt;Node38 -->
<g id="edge21" class="edge">
<title>Node37&#45;&gt;Node38</title>
<path fill="none" stroke="#191970" d="M47.6905,-106.7686C37.0069,-99.0472 25.8259,-88.616 20,-76 11.2364,-57.0225 23.0306,-32.9438 31.2577,-19.7478"/>
<polygon fill="#191970" stroke="#191970" points="45.7858,-109.7054 56.0401,-112.3701 49.6856,-103.8924 45.7858,-109.7054"/>
</g>
<!-- Node39 -->
<g id="node18" class="node">
<title>Node39</title>
<g id="a_node18"><a xlink:href="levelset__ops_8_h.html" target="_top" xlink:title="levelset_ops.H">
<polygon fill="#ffffff" stroke="#000000" points="29.5,-56.5 29.5,-75.5 118.5,-75.5 118.5,-56.5 29.5,-56.5"/>
<text text-anchor="middle" x="74" y="-63.5" font-family="Helvetica,sans-Serif" font-size="10.00" fill="#000000">levelset_ops.H</text>
</a>
</g>
</g>
<!-- Node37&#45;&gt;Node39 -->
<g id="edge22" class="edge">
<title>Node37&#45;&gt;Node39</title>
<path fill="none" stroke="#191970" d="M74,-102.1575C74,-93.155 74,-82.9199 74,-75.6427"/>
<polygon fill="#191970" stroke="#191970" points="70.5001,-102.2455 74,-112.2455 77.5001,-102.2456 70.5001,-102.2455"/>
</g>
<!-- Node39&#45;&gt;Node38 -->
<g id="edge23" class="edge">
<title>Node39&#45;&gt;Node38</title>
<path fill="none" stroke="#191970" d="M62.1904,-47.6296C56.1856,-38.2887 49.1341,-27.3197 44.1989,-19.6427"/>
<polygon fill="#191970" stroke="#191970" points="59.3775,-49.7264 67.7293,-56.2455 65.2658,-45.9411 59.3775,-49.7264"/>
</g>
<!-- Node41 -->
<g id="node20" class="node">
<title>Node41</title>
<g id="a_node20"><a xlink:href="_s_d_r_8cpp.html" target="_top" xlink:title="SDR.cpp">
<polygon fill="#ffffff" stroke="#000000" points="151.5,-.5 151.5,-19.5 208.5,-19.5 208.5,-.5 151.5,-.5"/>
<text text-anchor="middle" x="180" y="-7.5" font-family="Helvetica,sans-Serif" font-size="10.00" fill="#000000">SDR.cpp</text>
</a>
</g>
</g>
<!-- Node40&#45;&gt;Node41 -->
<g id="edge25" class="edge">
<title>Node40&#45;&gt;Node41</title>
<path fill="none" stroke="#191970" d="M286.8876,-105.7713C260.4211,-82.0573 212.0097,-38.6807 190.6305,-19.5249"/>
<polygon fill="#191970" stroke="#191970" points="284.5592,-108.3845 294.3426,-112.4509 289.2304,-103.171 284.5592,-108.3845"/>
</g>
<!-- Node42 -->
<g id="node21" class="node">
<title>Node42</title>
<g id="a_node21"><a xlink:href="sdr__ops_8_h.html" target="_top" xlink:title="sdr_ops.H">
<polygon fill="#ffffff" stroke="#000000" points="136.5,-56.5 136.5,-75.5 201.5,-75.5 201.5,-56.5 136.5,-56.5"/>
<text text-anchor="middle" x="169" y="-63.5" font-family="Helvetica,sans-Serif" font-size="10.00" fill="#000000">sdr_ops.H</text>
</a>
</g>
</g>
<!-- Node40&#45;&gt;Node42 -->
<g id="edge26" class="edge">
<title>Node40&#45;&gt;Node42</title>
<path fill="none" stroke="#191970" d="M272.2601,-108.5189C247.4917,-98.3201 214.095,-84.5685 192.0742,-75.5011"/>
<polygon fill="#191970" stroke="#191970" points="271.0413,-111.8021 281.6208,-112.3733 273.7066,-105.3293 271.0413,-111.8021"/>
</g>
<!-- Node43 -->
<g id="node22" class="node">
<title>Node43</title>
<g id="a_node22"><a xlink:href="_k_omega_s_s_t_i_8_h.html" target="_top" xlink:title="KOmegaSSTI.H">
<polygon fill="#ffffff" stroke="#000000" points="296.5,-56.5 296.5,-75.5 385.5,-75.5 385.5,-56.5 296.5,-56.5"/>
<text text-anchor="middle" x="341" y="-63.5" font-family="Helvetica,sans-Serif" font-size="10.00" fill="#000000">KOmegaSSTI.H</text>
</a>
</g>
</g>
<!-- Node40&#45;&gt;Node43 -->
<g id="edge28" class="edge">
<title>Node40&#45;&gt;Node43</title>
<path fill="none" stroke="#191970" d="M316.8096,-103.6296C322.8144,-94.2887 329.8659,-83.3197 334.8011,-75.6427"/>
<polygon fill="#191970" stroke="#191970" points="313.7342,-101.9411 311.2707,-112.2455 319.6225,-105.7264 313.7342,-101.9411"/>
</g>
<!-- Node44 -->
<g id="node23" class="node">
<title>Node44</title>
<g id="a_node23"><a xlink:href="_k_omega_s_s_t_8cpp.html" target="_top" xlink:title="KOmegaSST.cpp">
<polygon fill="#ffffff" stroke="#000000" points="265.5,-.5 265.5,-19.5 360.5,-19.5 360.5,-.5 265.5,-.5"/>
<text text-anchor="middle" x="313" y="-7.5" font-family="Helvetica,sans-Serif" font-size="10.00" fill="#000000">KOmegaSST.cpp</text>
</a>
</g>
</g>
<!-- Node40&#45;&gt;Node44 -->
<g id="edge31" class="edge">
<title>Node40&#45;&gt;Node44</title>
<path fill="none" stroke="#191970" d="M294.4806,-103.15C288.4398,-89.9619 282.8106,-71.9262 287,-56 290.5939,-42.3376 299.2727,-28.4664 305.6181,-19.5817"/>
<polygon fill="#191970" stroke="#191970" points="291.4013,-104.817 299.0245,-112.1749 297.6535,-101.6691 291.4013,-104.817"/>
</g>
<!-- Node45 -->
<g id="node24" class="node">
<title>Node45</title>
<g id="a_node24"><a xlink:href="_k_omega_s_s_t_i_d_d_e_s_8cpp.html" target="_top" xlink:title="KOmegaSSTIDDES.cpp">
<polygon fill="#ffffff" stroke="#000000" points="379,-.5 379,-19.5 505,-19.5 505,-.5 379,-.5"/>
<text text-anchor="middle" x="442" y="-7.5" font-family="Helvetica,sans-Serif" font-size="10.00" fill="#000000">KOmegaSSTIDDES.cpp</text>
</a>
</g>
</g>
<!-- Node40&#45;&gt;Node45 -->
<g id="edge32" class="edge">
<title>Node40&#45;&gt;Node45</title>
<path fill="none" stroke="#191970" d="M338.1598,-109.2947C355.9426,-101.4405 377.5218,-90.1498 394,-76 413.3483,-59.3857 429.2185,-33.5059 436.9362,-19.604"/>
<polygon fill="#191970" stroke="#191970" points="336.5635,-106.17 328.7276,-113.3009 339.3,-112.613 336.5635,-106.17"/>
</g>
<!-- Node42&#45;&gt;Node41 -->
<g id="edge27" class="edge">
<title>Node42&#45;&gt;Node41</title>
<path fill="none" stroke="#191970" d="M172.8976,-46.1575C174.666,-37.155 176.6765,-26.9199 178.1059,-19.6427"/>
<polygon fill="#191970" stroke="#191970" points="169.4092,-45.7584 170.9161,-56.2455 176.278,-47.1077 169.4092,-45.7584"/>
</g>
<!-- Node43&#45;&gt;Node44 -->
<g id="edge29" class="edge">
<title>Node43&#45;&gt;Node44</title>
<path fill="none" stroke="#191970" d="M331.5219,-47.0437C326.9165,-37.8331 321.5799,-27.1598 317.8213,-19.6427"/>
<polygon fill="#191970" stroke="#191970" points="328.5201,-48.8665 336.1228,-56.2455 334.7811,-45.736 328.5201,-48.8665"/>
</g>
<!-- Node43&#45;&gt;Node45 -->
<g id="edge30" class="edge">
<title>Node43&#45;&gt;Node45</title>
<path fill="none" stroke="#191970" d="M367.4719,-51.3225C385.5125,-41.3198 408.8877,-28.3593 424.6087,-19.6427"/>
<polygon fill="#191970" stroke="#191970" points="365.6413,-48.3354 358.5929,-56.2455 369.0357,-54.4574 365.6413,-48.3354"/>
</g>
<!-- Node47 -->
<g id="node26" class="node">
<title>Node47</title>
<g id="a_node26"><a xlink:href="temperature_8cpp.html" target="_top" xlink:title="temperature.cpp">
<polygon fill="#ffffff" stroke="#000000" points="986,-56.5 986,-75.5 1084,-75.5 1084,-56.5 986,-56.5"/>
<text text-anchor="middle" x="1035" y="-63.5" font-family="Helvetica,sans-Serif" font-size="10.00" fill="#000000">temperature.cpp</text>
</a>
</g>
</g>
<!-- Node46&#45;&gt;Node47 -->
<g id="edge34" class="edge">
<title>Node46&#45;&gt;Node47</title>
<path fill="none" stroke="#191970" d="M1011.4815,-103.6296C1017.3196,-94.2887 1024.1752,-83.3197 1028.9733,-75.6427"/>
<polygon fill="#191970" stroke="#191970" points="1008.4286,-101.9105 1006.0965,-112.2455 1014.3646,-105.6206 1008.4286,-101.9105"/>
</g>
<!-- Node48&#45;&gt;Node43 -->
<g id="edge40" class="edge">
<title>Node48&#45;&gt;Node43</title>
<path fill="none" stroke="#191970" d="M566.7385,-114.8083C520.4795,-104.8064 436.6196,-86.6745 385.1617,-75.5485"/>
<polygon fill="#191970" stroke="#191970" points="566.0448,-118.2391 576.5587,-116.9316 567.5242,-111.3972 566.0448,-118.2391"/>
</g>
<!-- Node48&#45;&gt;Node44 -->
<g id="edge41" class="edge">
<title>Node48&#45;&gt;Node44</title>
<path fill="none" stroke="#191970" d="M566.7681,-110.6945C540.6095,-101.6643 503.302,-88.4957 471,-76 421.9261,-57.0162 365.1815,-32.7326 334.8327,-19.5529"/>
<polygon fill="#191970" stroke="#191970" points="565.9635,-114.1188 576.5581,-114.0605 568.2395,-107.4992 565.9635,-114.1188"/>
</g>
<!-- Node48&#45;&gt;Node45 -->
<g id="edge42" class="edge">
<title>Node48&#45;&gt;Node45</title>
<path fill="none" stroke="#191970" d="M599.0855,-102.0918C597.389,-87.562 592.8538,-68.3289 581,-56 567.5227,-41.9824 520.5051,-28.2894 484.8524,-19.5399"/>
<polygon fill="#191970" stroke="#191970" points="595.5999,-102.4125 599.9037,-112.0938 602.5766,-101.8418 595.5999,-102.4125"/>
</g>
<!-- Node49 -->
<g id="node28" class="node">
<title>Node49</title>
<g id="a_node28"><a xlink:href="_t_k_e_8cpp.html" target="_top" xlink:title="TKE.cpp">
<polygon fill="#ffffff" stroke="#000000" points="640,-.5 640,-19.5 696,-19.5 696,-.5 640,-.5"/>
<text text-anchor="middle" x="668" y="-7.5" font-family="Helvetica,sans-Serif" font-size="10.00" fill="#000000">TKE.cpp</text>
</a>
</g>
</g>
<!-- Node48&#45;&gt;Node49 -->
<g id="edge36" class="edge">
<title>Node48&#45;&gt;Node49</title>
<path fill="none" stroke="#191970" d="M610.9937,-103.8927C625.6033,-79.8299 650.8875,-38.1853 662.217,-19.5249"/>
<polygon fill="#191970" stroke="#191970" points="607.9957,-102.0866 605.7976,-112.4509 613.9792,-105.7195 607.9957,-102.0866"/>
</g>
<!-- Node50 -->
<g id="node29" class="node">
<title>Node50</title>
<g id="a_node29"><a xlink:href="tke__ops_8_h.html" target="_top" xlink:title="tke_ops.H">
<polygon fill="#ffffff" stroke="#000000" points="666.5,-56.5 666.5,-75.5 731.5,-75.5 731.5,-56.5 666.5,-56.5"/>
<text text-anchor="middle" x="699" y="-63.5" font-family="Helvetica,sans-Serif" font-size="10.00" fill="#000000">tke_ops.H</text>
</a>
</g>
</g>
<!-- Node48&#45;&gt;Node50 -->
<g id="edge37" class="edge">
<title>Node48&#45;&gt;Node50</title>
<path fill="none" stroke="#191970" d="M626.4357,-107.0465C644.0508,-97.0824 666.6847,-84.2794 681.9531,-75.6427"/>
<polygon fill="#191970" stroke="#191970" points="624.2253,-104.2756 617.2445,-112.2455 627.6717,-110.3684 624.2253,-104.2756"/>
</g>
<!-- Node51 -->
<g id="node30" class="node">
<title>Node51</title>
<g id="a_node30"><a xlink:href="_one_eq_ksgs_8cpp.html" target="_top" xlink:title="OneEqKsgs.cpp">
<polygon fill="#ffffff" stroke="#000000" points="480,-56.5 480,-75.5 572,-75.5 572,-56.5 480,-56.5"/>
<text text-anchor="middle" x="526" y="-63.5" font-family="Helvetica,sans-Serif" font-size="10.00" fill="#000000">OneEqKsgs.cpp</text>
</a>
</g>
</g>
<!-- Node48&#45;&gt;Node51 -->
<g id="edge39" class="edge">
<title>Node48&#45;&gt;Node51</title>
<path fill="none" stroke="#191970" d="M579.1343,-106.2097C566.1375,-96.3743 549.8378,-84.0394 538.7421,-75.6427"/>
<polygon fill="#191970" stroke="#191970" points="577.024,-109.002 587.1102,-112.2455 581.2482,-103.4201 577.024,-109.002"/>
</g>
<!-- Node50&#45;&gt;Node49 -->
<g id="edge38" class="edge">
<title>Node50&#45;&gt;Node49</title>
<path fill="none" stroke="#191970" d="M688.6688,-47.3372C683.5335,-38.0605 677.5434,-27.2398 673.3379,-19.6427"/>
<polygon fill="#191970" stroke="#191970" points="685.6949,-49.1917 693.6002,-56.2455 691.8191,-45.8015 685.6949,-49.1917"/>
</g>
<!-- Node53 -->
<g id="node32" class="node">
<title>Node53</title>
<g id="a_node32"><a xlink:href="vof_8cpp.html" target="_top" xlink:title="vof.cpp">
<polygon fill="#ffffff" stroke="#000000" points="871,-.5 871,-19.5 923,-19.5 923,-.5 871,-.5"/>
<text text-anchor="middle" x="897" y="-7.5" font-family="Helvetica,sans-Serif" font-size="10.00" fill="#000000">vof.cpp</text>
</a>
</g>
</g>
<!-- Node52&#45;&gt;Node53 -->
<g id="edge44" class="edge">
<title>Node52&#45;&gt;Node53</title>
<path fill="none" stroke="#191970" d="M924.1093,-104.6248C934.8681,-91.5127 945.5725,-72.946 939,-56 933.2125,-41.078 920.0792,-28.0351 910.028,-19.6859"/>
<polygon fill="#191970" stroke="#191970" points="921.2414,-102.5829 917.2125,-112.3818 926.4727,-107.2341 921.2414,-102.5829"/>
</g>
<!-- Node54 -->
<g id="node33" class="node">
<title>Node54</title>
<g id="a_node33"><a xlink:href="vof__advection_8_h.html" target="_top" xlink:title="vof_advection.H">
<polygon fill="#ffffff" stroke="#000000" points="750,-56.5 750,-75.5 846,-75.5 846,-56.5 750,-56.5"/>
<text text-anchor="middle" x="798" y="-63.5" font-family="Helvetica,sans-Serif" font-size="10.00" fill="#000000">vof_advection.H</text>
</a>
</g>
</g>
<!-- Node52&#45;&gt;Node54 -->
<g id="edge45" class="edge">
<title>Node52&#45;&gt;Node54</title>
<path fill="none" stroke="#191970" d="M878.9658,-107.5971C859.4254,-97.558 833.8908,-84.4393 816.7688,-75.6427"/>
<polygon fill="#191970" stroke="#191970" points="877.5194,-110.7889 888.0136,-112.2455 880.7183,-104.5625 877.5194,-110.7889"/>
</g>
<!-- Node55 -->
<g id="node34" class="node">
<title>Node55</title>
<g id="a_node34"><a xlink:href="vof__ops_8_h.html" target="_top" xlink:title="vof_ops.H">
<polygon fill="#ffffff" stroke="#000000" points="864.5,-56.5 864.5,-75.5 929.5,-75.5 929.5,-56.5 864.5,-56.5"/>
<text text-anchor="middle" x="897" y="-63.5" font-family="Helvetica,sans-Serif" font-size="10.00" fill="#000000">vof_ops.H</text>
</a>
</g>
</g>
<!-- Node52&#45;&gt;Node55 -->
<g id="edge47" class="edge">
<title>Node52&#45;&gt;Node55</title>
<path fill="none" stroke="#191970" d="M903.4567,-102.1575C901.8491,-93.155 900.0214,-82.9199 898.7219,-75.6427"/>
<polygon fill="#191970" stroke="#191970" points="900.0546,-103.0166 905.2581,-112.2455 906.9456,-101.786 900.0546,-103.0166"/>
</g>
<!-- Node54&#45;&gt;Node53 -->
<g id="edge46" class="edge">
<title>Node54&#45;&gt;Node53</title>
<path fill="none" stroke="#191970" d="M824.4357,-51.0465C842.0508,-41.0824 864.6847,-28.2794 879.9531,-19.6427"/>
<polygon fill="#191970" stroke="#191970" points="822.2253,-48.2756 815.2445,-56.2455 825.6717,-54.3684 822.2253,-48.2756"/>
</g>
<!-- Node55&#45;&gt;Node53 -->
<g id="edge48" class="edge">
<title>Node55&#45;&gt;Node53</title>
<path fill="none" stroke="#191970" d="M897,-46.1575C897,-37.155 897,-26.9199 897,-19.6427"/>
<polygon fill="#191970" stroke="#191970" points="893.5001,-46.2455 897,-56.2455 900.5001,-46.2456 893.5001,-46.2455"/>
</g>
</g>
</svg>
        <g id="navigator" transform="translate(0 0)" fill="#404254">
                <rect fill="#f2f5e9" fill-opacity="0.5" stroke="#606060" stroke-width=".5" x="0" y="0" width="60" height="60"/>
                <use id="zoomplus" xlink:href="#zoomPlus" x="17" y="9" onmousedown="handleZoom(evt,'in')"/>
                <use id="zoomminus" xlink:href="#zoomMin" x="42" y="9" onmousedown="handleZoom(evt,'out')"/>
                <use id="reset" xlink:href="#resetDef" x="30" y="36" onmousedown="handleReset()"/>
                <g id="arrowUp" xlink:href="#dirArrow" transform="translate(30 24)" onmousedown="handlePan(0,-1)">
                  <use xlink:href="#rim" fill="#404040">
                        <set attributeName="fill" to="#808080" begin="arrowUp.mouseover" end="arrowUp.mouseout"/>
                  </use>
                  <path fill="none" stroke="white" stroke-width="1.5" d="M0,-3.0v7 M-2.5,-0.5L0,-3.0L2.5,-0.5"/>
                </g>
                <g id="arrowRight" xlink:href="#dirArrow" transform="rotate(90) translate(36 -43)" onmousedown="handlePan(1,0)">
                  <use xlink:href="#rim" fill="#404040">
                        <set attributeName="fill" to="#808080" begin="arrowRight.mouseover" end="arrowRight.mouseout"/>
                  </use>
                  <path fill="none" stroke="white" stroke-width="1.5" d="M0,-3.0v7 M-2.5,-0.5L0,-3.0L2.5,-0.5"/>
                </g>
                <g id="arrowDown" xlink:href="#dirArrow" transform="rotate(180) translate(-30 -48)" onmousedown="handlePan(0,1)">
                  <use xlink:href="#rim" fill="#404040">
                        <set attributeName="fill" to="#808080" begin="arrowDown.mouseover" end="arrowDown.mouseout"/>
                  </use>
                  <path fill="none" stroke="white" stroke-width="1.5" d="M0,-3.0v7 M-2.5,-0.5L0,-3.0L2.5,-0.5"/>
                </g>
                <g id="arrowLeft" xlink:href="#dirArrow" transform="rotate(270) translate(-36 17)" onmousedown="handlePan(-1,0)">
                  <use xlink:href="#rim" fill="#404040">
                        <set attributeName="fill" to="#808080" begin="arrowLeft.mouseover" end="arrowLeft.mouseout"/>
                  </use>
                  <path fill="none" stroke="white" stroke-width="1.5" d="M0,-3.0v7 M-2.5,-0.5L0,-3.0L2.5,-0.5"/>
                </g>
        </g>
        <svg viewBox="0 0 15 15" width="100%" height="30px" preserveAspectRatio="xMaxYMin meet">
         <g id="arrow_out" transform="scale(0.3 0.3)">
          <a xlink:href="diffusion_8_h__dep__incl_org.svg" target="_base">
           <rect id="button" ry="5" rx="5" y="6" x="6" height="38" width="38"
                fill="#f2f5e9" fill-opacity="0.5" stroke="#606060" stroke-width="1.0"/>
           <path id="arrow"
             d="M 11.500037,31.436501 C 11.940474,20.09759 22.043105,11.32322 32.158766,21.979434 L 37.068811,17.246167 C 37.068811,17.246167 37.088388,32 37.088388,32 L 22.160133,31.978069 C 22.160133,31.978069 26.997745,27.140456 26.997745,27.140456 C 18.528582,18.264221 13.291696,25.230495 11.500037,31.436501 z"
             style="fill:#404040;"/>
          </a>
         </g>
        </svg>
</svg>
