<?xml version="1.0" encoding="UTF-8" standalone="no"?>
<!DOCTYPE svg PUBLIC "-//W3C//DTD SVG 1.1//EN"
 "http://www.w3.org/Graphics/SVG/1.1/DTD/svg11.dtd">
<!-- Generated by graphviz version 2.40.1 (20161225.0304)
 -->
<!-- Title: mms Pages: 1 -->
<svg width="145pt" height="223pt"
 viewBox="0.00 0.00 145.00 223.00" xmlns="http://www.w3.org/2000/svg" xmlns:xlink="http://www.w3.org/1999/xlink">
<g id="graph0" class="graph" transform="scale(1 1) rotate(0) translate(4 219)">
<title>mms</title>
<polygon fill="#ffffff" stroke="transparent" points="-4,4 -4,-219 141,-219 141,4 -4,4"/>
<g id="clust1" class="cluster">
<title>clusterdir_d85575251dd712327fe3cf057fa568b4</title>
<g id="a_clust1"><a xlink:href="dir_d85575251dd712327fe3cf057fa568b4.html" target="_top" xlink:title="amr&#45;wind">
<polygon fill="#ddddee" stroke="#000000" points="59,-136 59,-207 129,-207 129,-136 59,-136"/>
<text text-anchor="middle" x="94" y="-195" font-family="Helvetica,sans-Serif" font-size="10.00" fill="#000000">amr&#45;wind</text>
</a>
</g>
</g>
<!-- dir_2635c1cadbb62984b11c32cfeb0f45eb -->
<g id="node1" class="node">
<title>dir_2635c1cadbb62984b11c32cfeb0f45eb</title>
<g id="a_node1"><a xlink:href="dir_2635c1cadbb62984b11c32cfeb0f45eb.html" target="_top" xlink:title="mms">
<polygon fill="#eeeeff" stroke="#000000" points="121,-180 67,-180 67,-144 121,-144 121,-180"/>
<text text-anchor="middle" x="94" y="-159.5" font-family="Helvetica,sans-Serif" font-size="10.00" fill="#000000">mms</text>
</a>
</g>
</g>
<!-- dir_4bb30ed846ea1df1fc4d16874a455d91 -->
<g id="node2" class="node">
<title>dir_4bb30ed846ea1df1fc4d16874a455d91</title>
<g id="a_node2"><a xlink:href="dir_4bb30ed846ea1df1fc4d16874a455d91.html" target="_top" xlink:title="equation_systems">
<polygon fill="#ffffff" stroke="#ff0000" points="106,-108 0,-108 0,-72 106,-72 106,-108"/>
<text text-anchor="middle" x="53" y="-87.5" font-family="Helvetica,sans-Serif" font-size="10.00" fill="#000000">equation_systems</text>
</a>
</g>
</g>
<!-- dir_2635c1cadbb62984b11c32cfeb0f45eb&#45;&gt;dir_4bb30ed846ea1df1fc4d16874a455d91 -->
<g id="edge1" class="edge">
<title>dir_2635c1cadbb62984b11c32cfeb0f45eb&#45;&gt;dir_4bb30ed846ea1df1fc4d16874a455d91</title>
<path fill="none" stroke="#000000" d="M83.654,-143.8314C79.0763,-135.7925 73.5948,-126.1666 68.5412,-117.2918"/>
<polygon fill="#000000" stroke="#000000" points="71.4752,-115.3712 63.4853,-108.4133 65.3923,-118.8351 71.4752,-115.3712"/>
<g id="a_edge1&#45;headlabel"><a xlink:href="dir_000033_000002.html" target="_top" xlink:title="1">
<text text-anchor="middle" x="75.7212" y="-114.5899" font-family="Helvetica,sans-Serif" font-size="10.00" fill="#000000">1</text>
</a>
</g>
</g>
<!-- dir_3d3615e9a999cab4f3407307569d6ced -->
<g id="node3" class="node">
<title>dir_3d3615e9a999cab4f3407307569d6ced</title>
<g id="a_node3"><a xlink:href="dir_3d3615e9a999cab4f3407307569d6ced.html" target="_top" xlink:title="core">
<polygon fill="#ffffff" stroke="#ff0000" points="120,-36 66,-36 66,0 120,0 120,-36"/>
<text text-anchor="middle" x="93" y="-15.5" font-family="Helvetica,sans-Serif" font-size="10.00" fill="#000000">core</text>
</a>
</g>
</g>
<!-- dir_2635c1cadbb62984b11c32cfeb0f45eb&#45;&gt;dir_3d3615e9a999cab4f3407307569d6ced -->
<g id="edge2" class="edge">
<title>dir_2635c1cadbb62984b11c32cfeb0f45eb&#45;&gt;dir_3d3615e9a999cab4f3407307569d6ced</title>
<path fill="none" stroke="#000000" d="M103.1577,-143.5129C107.7013,-133.3118 112.7002,-120.2593 115,-108 117.9502,-92.2743 118.0757,-87.7016 115,-72 113.2656,-63.146 110.0724,-53.9119 106.6462,-45.6355"/>
<polygon fill="#000000" stroke="#000000" points="109.8284,-44.1772 102.5908,-36.4398 103.4236,-47.0018 109.8284,-44.1772"/>
<g id="a_edge2&#45;headlabel"><a xlink:href="dir_000033_000012.html" target="_top" xlink:title="3">
<text text-anchor="middle" x="113.8767" y="-43.8205" font-family="Helvetica,sans-Serif" font-size="10.00" fill="#000000">3</text>
</a>
</g>
</g>
<!-- dir_4bb30ed846ea1df1fc4d16874a455d91&#45;&gt;dir_3d3615e9a999cab4f3407307569d6ced -->
<g id="edge3" class="edge">
<title>dir_4bb30ed846ea1df1fc4d16874a455d91&#45;&gt;dir_3d3615e9a999cab4f3407307569d6ced</title>
<path fill="none" stroke="#000000" d="M63.0937,-71.8314C67.5597,-63.7925 72.9075,-54.1666 77.8379,-45.2918"/>
<polygon fill="#000000" stroke="#000000" points="80.9735,-46.8546 82.7704,-36.4133 74.8544,-43.4551 80.9735,-46.8546"/>
<g id="a_edge3&#45;headlabel"><a xlink:href="dir_000002_000012.html" target="_top" xlink:title="54">
<text text-anchor="middle" x="81.7098" y="-48.8757" font-family="Helvetica,sans-Serif" font-size="10.00" fill="#000000">54</text>
</a>
</g>
</g>
</g>
</svg>
