<?xml version="1.0" encoding="UTF-8" standalone="no"?>
<!DOCTYPE svg PUBLIC "-//W3C//DTD SVG 1.1//EN"
 "http://www.w3.org/Graphics/SVG/1.1/DTD/svg11.dtd">
<!-- Generated by graphviz version 2.40.1 (20161225.0304)
 -->
<!-- Title: averaging Pages: 1 -->
<svg width="106pt" height="151pt"
 viewBox="0.00 0.00 106.00 151.00" xmlns="http://www.w3.org/2000/svg" xmlns:xlink="http://www.w3.org/1999/xlink">
<g id="graph0" class="graph" transform="scale(1 1) rotate(0) translate(4 147)">
<title>averaging</title>
<polygon fill="#ffffff" stroke="transparent" points="-4,4 -4,-147 102,-147 102,4 -4,4"/>
<g id="clust1" class="cluster">
<title>clusterdir_e4cd57caa88bf1f4e1bf9521bc47c3c0</title>
<g id="a_clust1"><a xlink:href="dir_e4cd57caa88bf1f4e1bf9521bc47c3c0.html" target="_top" xlink:title="utilities">
<polygon fill="#ddddee" stroke="#000000" points="8,-64 8,-135 90,-135 90,-64 8,-64"/>
<text text-anchor="middle" x="49" y="-123" font-family="Helvetica,sans-Serif" font-size="10.00" fill="#000000">utilities</text>
</a>
</g>
</g>
<!-- dir_a925f5bb87732fc4d72dcc12cc6db92b -->
<g id="node1" class="node">
<title>dir_a925f5bb87732fc4d72dcc12cc6db92b</title>
<g id="a_node1"><a xlink:href="dir_a925f5bb87732fc4d72dcc12cc6db92b.html" target="_top" xlink:title="averaging">
<polygon fill="#eeeeff" stroke="#000000" points="81.5,-108 16.5,-108 16.5,-72 81.5,-72 81.5,-108"/>
<text text-anchor="middle" x="49" y="-87.5" font-family="Helvetica,sans-Serif" font-size="10.00" fill="#000000">averaging</text>
</a>
</g>
</g>
<!-- dir_3d3615e9a999cab4f3407307569d6ced -->
<g id="node2" class="node">
<title>dir_3d3615e9a999cab4f3407307569d6ced</title>
<g id="a_node2"><a xlink:href="dir_3d3615e9a999cab4f3407307569d6ced.html" target="_top" xlink:title="core">
<polygon fill="#ffffff" stroke="#ff0000" points="76,-36 22,-36 22,0 76,0 76,-36"/>
<text text-anchor="middle" x="49" y="-15.5" font-family="Helvetica,sans-Serif" font-size="10.00" fill="#000000">core</text>
</a>
</g>
</g>
<!-- dir_a925f5bb87732fc4d72dcc12cc6db92b&#45;&gt;dir_3d3615e9a999cab4f3407307569d6ced -->
<g id="edge1" class="edge">
<title>dir_a925f5bb87732fc4d72dcc12cc6db92b&#45;&gt;dir_3d3615e9a999cab4f3407307569d6ced</title>
<path fill="none" stroke="#000000" d="M49,-71.8314C49,-64.131 49,-54.9743 49,-46.4166"/>
<polygon fill="#000000" stroke="#000000" points="52.5001,-46.4132 49,-36.4133 45.5001,-46.4133 52.5001,-46.4132"/>
<g id="a_edge1&#45;headlabel"><a xlink:href="dir_000037_000012.html" target="_top" xlink:title="3">
<text text-anchor="middle" x="55.3393" y="-47.5079" font-family="Helvetica,sans-Serif" font-size="10.00" fill="#000000">3</text>
</a>
</g>
</g>
</g>
</svg>
