<?xml version="1.0" encoding="UTF-8" standalone="no"?>
<!DOCTYPE svg PUBLIC "-//W3C//DTD SVG 1.1//EN"
 "http://www.w3.org/Graphics/SVG/1.1/DTD/svg11.dtd">
<!-- Generated by graphviz version 2.40.1 (20161225.0304)
 -->
<!-- Title: LES Pages: 1 -->
<svg width="224pt" height="223pt"
 viewBox="0.00 0.00 224.00 223.00" xmlns="http://www.w3.org/2000/svg" xmlns:xlink="http://www.w3.org/1999/xlink">
<g id="graph0" class="graph" transform="scale(1 1) rotate(0) translate(4 219)">
<title>LES</title>
<polygon fill="#ffffff" stroke="transparent" points="-4,4 -4,-219 220,-219 220,4 -4,4"/>
<g id="clust1" class="cluster">
<title>clusterdir_9ff815a534beac751fa88e427dbab695</title>
<g id="a_clust1"><a xlink:href="dir_9ff815a534beac751fa88e427dbab695.html" target="_top" xlink:title="turbulence">
<polygon fill="#ddddee" stroke="#000000" points="47,-136 47,-207 117,-207 117,-136 47,-136"/>
<text text-anchor="middle" x="82" y="-195" font-family="Helvetica,sans-Serif" font-size="10.00" fill="#000000">turbulence</text>
</a>
</g>
</g>
<!-- dir_d4759c65d88ac8462151b54b86eeee49 -->
<g id="node1" class="node">
<title>dir_d4759c65d88ac8462151b54b86eeee49</title>
<g id="a_node1"><a xlink:href="dir_d4759c65d88ac8462151b54b86eeee49.html" target="_top" xlink:title="LES">
<polygon fill="#eeeeff" stroke="#000000" points="109,-180 55,-180 55,-144 109,-144 109,-180"/>
<text text-anchor="middle" x="82" y="-159.5" font-family="Helvetica,sans-Serif" font-size="10.00" fill="#000000">LES</text>
</a>
</g>
</g>
<!-- dir_7f7a014517bfe31ea45620a6a947e37b -->
<g id="node2" class="node">
<title>dir_7f7a014517bfe31ea45620a6a947e37b</title>
<g id="a_node2"><a xlink:href="dir_7f7a014517bfe31ea45620a6a947e37b.html" target="_top" xlink:title="fvm">
<polygon fill="none" stroke="#000000" points="54,-108 0,-108 0,-72 54,-72 54,-108"/>
<text text-anchor="middle" x="27" y="-87.5" font-family="Helvetica,sans-Serif" font-size="10.00" fill="#000000">fvm</text>
</a>
</g>
</g>
<!-- dir_d4759c65d88ac8462151b54b86eeee49&#45;&gt;dir_7f7a014517bfe31ea45620a6a947e37b -->
<g id="edge1" class="edge">
<title>dir_d4759c65d88ac8462151b54b86eeee49&#45;&gt;dir_7f7a014517bfe31ea45620a6a947e37b</title>
<path fill="none" stroke="#000000" d="M68.1212,-143.8314C61.7864,-135.5386 54.1616,-125.557 47.2074,-116.4533"/>
<polygon fill="#000000" stroke="#000000" points="49.9175,-114.2353 41.0657,-108.4133 44.3548,-118.4847 49.9175,-114.2353"/>
<g id="a_edge1&#45;headlabel"><a xlink:href="dir_000035_000014.html" target="_top" xlink:title="3">
<text text-anchor="middle" x="54.3558" y="-112.8683" font-family="Helvetica,sans-Serif" font-size="10.00" fill="#000000">3</text>
</a>
</g>
</g>
<!-- dir_3d3615e9a999cab4f3407307569d6ced -->
<g id="node3" class="node">
<title>dir_3d3615e9a999cab4f3407307569d6ced</title>
<g id="a_node3"><a xlink:href="dir_3d3615e9a999cab4f3407307569d6ced.html" target="_top" xlink:title="core">
<polygon fill="#ffffff" stroke="#ff0000" points="109,-36 55,-36 55,0 109,0 109,-36"/>
<text text-anchor="middle" x="82" y="-15.5" font-family="Helvetica,sans-Serif" font-size="10.00" fill="#000000">core</text>
</a>
</g>
</g>
<!-- dir_d4759c65d88ac8462151b54b86eeee49&#45;&gt;dir_3d3615e9a999cab4f3407307569d6ced -->
<g id="edge2" class="edge">
<title>dir_d4759c65d88ac8462151b54b86eeee49&#45;&gt;dir_3d3615e9a999cab4f3407307569d6ced</title>
<path fill="none" stroke="#000000" d="M82,-143.7623C82,-119.201 82,-75.2474 82,-46.3541"/>
<polygon fill="#000000" stroke="#000000" points="85.5001,-46.0896 82,-36.0896 78.5001,-46.0897 85.5001,-46.0896"/>
<g id="a_edge2&#45;headlabel"><a xlink:href="dir_000035_000012.html" target="_top" xlink:title="1">
<text text-anchor="middle" x="88.3393" y="-47.1842" font-family="Helvetica,sans-Serif" font-size="10.00" fill="#000000">1</text>
</a>
</g>
</g>
<!-- dir_4bb30ed846ea1df1fc4d16874a455d91 -->
<g id="node4" class="node">
<title>dir_4bb30ed846ea1df1fc4d16874a455d91</title>
<g id="a_node4"><a xlink:href="dir_4bb30ed846ea1df1fc4d16874a455d91.html" target="_top" xlink:title="equation_systems">
<polygon fill="#ffffff" stroke="#ff0000" points="216,-108 110,-108 110,-72 216,-72 216,-108"/>
<text text-anchor="middle" x="163" y="-87.5" font-family="Helvetica,sans-Serif" font-size="10.00" fill="#000000">equation_systems</text>
</a>
</g>
</g>
<!-- dir_d4759c65d88ac8462151b54b86eeee49&#45;&gt;dir_4bb30ed846ea1df1fc4d16874a455d91 -->
<g id="edge3" class="edge">
<title>dir_d4759c65d88ac8462151b54b86eeee49&#45;&gt;dir_4bb30ed846ea1df1fc4d16874a455d91</title>
<path fill="none" stroke="#000000" d="M102.4397,-143.8314C112.3205,-135.0485 124.3324,-124.3712 135.045,-114.8489"/>
<polygon fill="#000000" stroke="#000000" points="137.418,-117.4224 142.5668,-108.1628 132.7674,-112.1906 137.418,-117.4224"/>
<g id="a_edge3&#45;headlabel"><a xlink:href="dir_000035_000002.html" target="_top" xlink:title="2">
<text text-anchor="middle" x="136.6177" y="-119.4326" font-family="Helvetica,sans-Serif" font-size="10.00" fill="#000000">2</text>
</a>
</g>
</g>
<!-- dir_7f7a014517bfe31ea45620a6a947e37b&#45;&gt;dir_3d3615e9a999cab4f3407307569d6ced -->
<g id="edge4" class="edge">
<title>dir_7f7a014517bfe31ea45620a6a947e37b&#45;&gt;dir_3d3615e9a999cab4f3407307569d6ced</title>
<path fill="none" stroke="#000000" d="M40.8788,-71.8314C47.2136,-63.5386 54.8384,-53.557 61.7926,-44.4533"/>
<polygon fill="#000000" stroke="#000000" points="64.6452,-46.4847 67.9343,-36.4133 59.0825,-42.2353 64.6452,-46.4847"/>
<g id="a_edge4&#45;headlabel"><a xlink:href="dir_000014_000012.html" target="_top" xlink:title="1">
<text text-anchor="middle" x="64.7195" y="-48.5647" font-family="Helvetica,sans-Serif" font-size="10.00" fill="#000000">1</text>
</a>
</g>
</g>
<!-- dir_4bb30ed846ea1df1fc4d16874a455d91&#45;&gt;dir_3d3615e9a999cab4f3407307569d6ced -->
<g id="edge5" class="edge">
<title>dir_4bb30ed846ea1df1fc4d16874a455d91&#45;&gt;dir_3d3615e9a999cab4f3407307569d6ced</title>
<path fill="none" stroke="#000000" d="M142.5603,-71.8314C132.6795,-63.0485 120.6676,-52.3712 109.955,-42.8489"/>
<polygon fill="#000000" stroke="#000000" points="112.2326,-40.1906 102.4332,-36.1628 107.582,-45.4224 112.2326,-40.1906"/>
<g id="a_edge5&#45;headlabel"><a xlink:href="dir_000002_000012.html" target="_top" xlink:title="54">
<text text-anchor="middle" x="116.8055" y="-37.9566" font-family="Helvetica,sans-Serif" font-size="10.00" fill="#000000">54</text>
</a>
</g>
</g>
</g>
</svg>
