<?xml version="1.0" encoding="UTF-8" standalone="no"?>
<!DOCTYPE svg PUBLIC "-//W3C//DTD SVG 1.1//EN"
 "http://www.w3.org/Graphics/SVG/1.1/DTD/svg11.dtd">
<!-- Generated by graphviz version 2.40.1 (20161225.0304)
 -->
<!-- Title: RANS Pages: 1 -->
<svg width="186pt" height="151pt"
 viewBox="0.00 0.00 186.00 151.00" xmlns="http://www.w3.org/2000/svg" xmlns:xlink="http://www.w3.org/1999/xlink">
<g id="graph0" class="graph" transform="scale(1 1) rotate(0) translate(4 147)">
<title>RANS</title>
<polygon fill="#ffffff" stroke="transparent" points="-4,4 -4,-147 182,-147 182,4 -4,4"/>
<g id="clust1" class="cluster">
<title>clusterdir_9ff815a534beac751fa88e427dbab695</title>
<g id="a_clust1"><a xlink:href="dir_9ff815a534beac751fa88e427dbab695.html" target="_top" xlink:title="turbulence">
<polygon fill="#ddddee" stroke="#000000" points="41,-64 41,-135 111,-135 111,-64 41,-64"/>
<text text-anchor="middle" x="76" y="-123" font-family="Helvetica,sans-Serif" font-size="10.00" fill="#000000">turbulence</text>
</a>
</g>
</g>
<!-- dir_a436074bb53309d43601d2a8b8d27ca7 -->
<g id="node1" class="node">
<title>dir_a436074bb53309d43601d2a8b8d27ca7</title>
<g id="a_node1"><a xlink:href="dir_a436074bb53309d43601d2a8b8d27ca7.html" target="_top" xlink:title="RANS">
<polygon fill="#eeeeff" stroke="#000000" points="103,-108 49,-108 49,-72 103,-72 103,-108"/>
<text text-anchor="middle" x="76" y="-87.5" font-family="Helvetica,sans-Serif" font-size="10.00" fill="#000000">RANS</text>
</a>
</g>
</g>
<!-- dir_7f7a014517bfe31ea45620a6a947e37b -->
<g id="node2" class="node">
<title>dir_7f7a014517bfe31ea45620a6a947e37b</title>
<g id="a_node2"><a xlink:href="dir_7f7a014517bfe31ea45620a6a947e37b.html" target="_top" xlink:title="fvm">
<polygon fill="none" stroke="#000000" points="54,-36 0,-36 0,0 54,0 54,-36"/>
<text text-anchor="middle" x="27" y="-15.5" font-family="Helvetica,sans-Serif" font-size="10.00" fill="#000000">fvm</text>
</a>
</g>
</g>
<!-- dir_a436074bb53309d43601d2a8b8d27ca7&#45;&gt;dir_7f7a014517bfe31ea45620a6a947e37b -->
<g id="edge1" class="edge">
<title>dir_a436074bb53309d43601d2a8b8d27ca7&#45;&gt;dir_7f7a014517bfe31ea45620a6a947e37b</title>
<path fill="none" stroke="#000000" d="M63.6352,-71.8314C58.0491,-63.6232 51.337,-53.7606 45.1928,-44.7323"/>
<polygon fill="#000000" stroke="#000000" points="48.051,-42.7112 39.5313,-36.4133 42.264,-46.6496 48.051,-42.7112"/>
<g id="a_edge1&#45;headlabel"><a xlink:href="dir_000028_000014.html" target="_top" xlink:title="5">
<text text-anchor="middle" x="52.4207" y="-41.5855" font-family="Helvetica,sans-Serif" font-size="10.00" fill="#000000">5</text>
</a>
</g>
</g>
<!-- dir_4bb30ed846ea1df1fc4d16874a455d91 -->
<g id="node3" class="node">
<title>dir_4bb30ed846ea1df1fc4d16874a455d91</title>
<g id="a_node3"><a xlink:href="dir_4bb30ed846ea1df1fc4d16874a455d91.html" target="_top" xlink:title="equation_systems">
<polygon fill="#ffffff" stroke="#ff0000" points="178,-36 72,-36 72,0 178,0 178,-36"/>
<text text-anchor="middle" x="125" y="-15.5" font-family="Helvetica,sans-Serif" font-size="10.00" fill="#000000">equation_systems</text>
</a>
</g>
</g>
<!-- dir_a436074bb53309d43601d2a8b8d27ca7&#45;&gt;dir_4bb30ed846ea1df1fc4d16874a455d91 -->
<g id="edge2" class="edge">
<title>dir_a436074bb53309d43601d2a8b8d27ca7&#45;&gt;dir_4bb30ed846ea1df1fc4d16874a455d91</title>
<path fill="none" stroke="#000000" d="M88.3648,-71.8314C93.9509,-63.6232 100.663,-53.7606 106.8072,-44.7323"/>
<polygon fill="#000000" stroke="#000000" points="109.736,-46.6496 112.4687,-36.4133 103.949,-42.7112 109.736,-46.6496"/>
<g id="a_edge2&#45;headlabel"><a xlink:href="dir_000028_000002.html" target="_top" xlink:title="9">
<text text-anchor="middle" x="110.0609" y="-48.7187" font-family="Helvetica,sans-Serif" font-size="10.00" fill="#000000">9</text>
</a>
</g>
</g>
</g>
</svg>
