<?xml version="1.0" encoding="UTF-8" standalone="no"?>
<!DOCTYPE svg PUBLIC "-//W3C//DTD SVG 1.1//EN"
 "http://www.w3.org/Graphics/SVG/1.1/DTD/svg11.dtd">
<!-- Generated by graphviz version 2.40.1 (20161225.0304)
 -->
<!-- Title: setup Pages: 1 -->
<svg width="212pt" height="367pt"
 viewBox="0.00 0.00 212.26 367.00" xmlns="http://www.w3.org/2000/svg" xmlns:xlink="http://www.w3.org/1999/xlink">
<g id="graph0" class="graph" transform="scale(1 1) rotate(0) translate(4 363)">
<title>setup</title>
<polygon fill="#ffffff" stroke="transparent" points="-4,4 -4,-363 208.2602,-363 208.2602,4 -4,4"/>
<g id="clust1" class="cluster">
<title>clusterdir_d85575251dd712327fe3cf057fa568b4</title>
<g id="a_clust1"><a xlink:href="dir_d85575251dd712327fe3cf057fa568b4.html" target="_top" xlink:title="amr&#45;wind">
<polygon fill="#ddddee" stroke="#000000" points="53.2602,-280 53.2602,-351 123.2602,-351 123.2602,-280 53.2602,-280"/>
<text text-anchor="middle" x="88.2602" y="-339" font-family="Helvetica,sans-Serif" font-size="10.00" fill="#000000">amr&#45;wind</text>
</a>
</g>
</g>
<!-- dir_073a3c37bc9e3eb3e412aa8cf4eda4c3 -->
<g id="node1" class="node">
<title>dir_073a3c37bc9e3eb3e412aa8cf4eda4c3</title>
<g id="a_node1"><a xlink:href="dir_073a3c37bc9e3eb3e412aa8cf4eda4c3.html" target="_top" xlink:title="setup">
<polygon fill="#eeeeff" stroke="#000000" points="115.2602,-324 61.2602,-324 61.2602,-288 115.2602,-288 115.2602,-324"/>
<text text-anchor="middle" x="88.2602" y="-303.5" font-family="Helvetica,sans-Serif" font-size="10.00" fill="#000000">setup</text>
</a>
</g>
</g>
<!-- dir_f2c65bfcbdc19ebacbfc0bbbfb0d01b6 -->
<g id="node2" class="node">
<title>dir_f2c65bfcbdc19ebacbfc0bbbfb0d01b6</title>
<g id="a_node2"><a xlink:href="dir_f2c65bfcbdc19ebacbfc0bbbfb0d01b6.html" target="_top" xlink:title="physics">
<polygon fill="#ffffff" stroke="#ff0000" points="143.2602,-252 89.2602,-252 89.2602,-216 143.2602,-216 143.2602,-252"/>
<text text-anchor="middle" x="116.2602" y="-231.5" font-family="Helvetica,sans-Serif" font-size="10.00" fill="#000000">physics</text>
</a>
</g>
</g>
<!-- dir_073a3c37bc9e3eb3e412aa8cf4eda4c3&#45;&gt;dir_f2c65bfcbdc19ebacbfc0bbbfb0d01b6 -->
<g id="edge7" class="edge">
<title>dir_073a3c37bc9e3eb3e412aa8cf4eda4c3&#45;&gt;dir_f2c65bfcbdc19ebacbfc0bbbfb0d01b6</title>
<path fill="none" stroke="#000000" d="M95.3258,-287.8314C98.3862,-279.9617 102.0381,-270.5712 105.4284,-261.8533"/>
<polygon fill="#000000" stroke="#000000" points="108.737,-263.0019 109.0995,-252.4133 102.213,-260.4647 108.737,-263.0019"/>
<g id="a_edge7&#45;headlabel"><a xlink:href="dir_000026_000010.html" target="_top" xlink:title="1">
<text text-anchor="middle" x="110.0804" y="-264.8812" font-family="Helvetica,sans-Serif" font-size="10.00" fill="#000000">1</text>
</a>
</g>
</g>
<!-- dir_0c368f76a33d967d5b838b5681461de6 -->
<g id="node3" class="node">
<title>dir_0c368f76a33d967d5b838b5681461de6</title>
<g id="a_node3"><a xlink:href="dir_0c368f76a33d967d5b838b5681461de6.html" target="_top" xlink:title="wind_energy">
<polygon fill="#ffffff" stroke="#ff0000" points="93.7602,-180 14.7602,-180 14.7602,-144 93.7602,-144 93.7602,-180"/>
<text text-anchor="middle" x="54.2602" y="-159.5" font-family="Helvetica,sans-Serif" font-size="10.00" fill="#000000">wind_energy</text>
</a>
</g>
</g>
<!-- dir_073a3c37bc9e3eb3e412aa8cf4eda4c3&#45;&gt;dir_0c368f76a33d967d5b838b5681461de6 -->
<g id="edge8" class="edge">
<title>dir_073a3c37bc9e3eb3e412aa8cf4eda4c3&#45;&gt;dir_0c368f76a33d967d5b838b5681461de6</title>
<path fill="none" stroke="#000000" d="M83.9541,-287.7623C78.1294,-263.0928 67.6855,-218.8598 60.865,-189.9731"/>
<polygon fill="#000000" stroke="#000000" points="64.2357,-189.0177 58.5314,-180.0896 57.4231,-190.6263 64.2357,-189.0177"/>
<g id="a_edge8&#45;headlabel"><a xlink:href="dir_000026_000001.html" target="_top" xlink:title="1">
<text text-anchor="middle" x="67.825" y="-189.3637" font-family="Helvetica,sans-Serif" font-size="10.00" fill="#000000">1</text>
</a>
</g>
</g>
<!-- dir_e4cd57caa88bf1f4e1bf9521bc47c3c0 -->
<g id="node4" class="node">
<title>dir_e4cd57caa88bf1f4e1bf9521bc47c3c0</title>
<g id="a_node4"><a xlink:href="dir_e4cd57caa88bf1f4e1bf9521bc47c3c0.html" target="_top" xlink:title="utilities">
<polygon fill="#ffffff" stroke="#ff0000" points="204.2602,-108 150.2602,-108 150.2602,-72 204.2602,-72 204.2602,-108"/>
<text text-anchor="middle" x="177.2602" y="-87.5" font-family="Helvetica,sans-Serif" font-size="10.00" fill="#000000">utilities</text>
</a>
</g>
</g>
<!-- dir_073a3c37bc9e3eb3e412aa8cf4eda4c3&#45;&gt;dir_e4cd57caa88bf1f4e1bf9521bc47c3c0 -->
<g id="edge9" class="edge">
<title>dir_073a3c37bc9e3eb3e412aa8cf4eda4c3&#45;&gt;dir_e4cd57caa88bf1f4e1bf9521bc47c3c0</title>
<path fill="none" stroke="#000000" d="M115.3723,-289.8153C128.6361,-280.4548 143.5782,-267.4658 152.2602,-252 175.8919,-209.9033 179.182,-152.4612 178.7125,-118.4966"/>
<polygon fill="#000000" stroke="#000000" points="182.2074,-118.2491 178.449,-108.3433 175.2098,-118.4308 182.2074,-118.2491"/>
<g id="a_edge9&#45;headlabel"><a xlink:href="dir_000026_000008.html" target="_top" xlink:title="2">
<text text-anchor="middle" x="185.1389" y="-119.2688" font-family="Helvetica,sans-Serif" font-size="10.00" fill="#000000">2</text>
</a>
</g>
</g>
<!-- dir_3d3615e9a999cab4f3407307569d6ced -->
<g id="node5" class="node">
<title>dir_3d3615e9a999cab4f3407307569d6ced</title>
<g id="a_node5"><a xlink:href="dir_3d3615e9a999cab4f3407307569d6ced.html" target="_top" xlink:title="core">
<polygon fill="#ffffff" stroke="#ff0000" points="149.2602,-36 95.2602,-36 95.2602,0 149.2602,0 149.2602,-36"/>
<text text-anchor="middle" x="122.2602" y="-15.5" font-family="Helvetica,sans-Serif" font-size="10.00" fill="#000000">core</text>
</a>
</g>
</g>
<!-- dir_073a3c37bc9e3eb3e412aa8cf4eda4c3&#45;&gt;dir_3d3615e9a999cab4f3407307569d6ced -->
<g id="edge10" class="edge">
<title>dir_073a3c37bc9e3eb3e412aa8cf4eda4c3&#45;&gt;dir_3d3615e9a999cab4f3407307569d6ced</title>
<path fill="none" stroke="#000000" d="M67.4659,-287.8481C36.4671,-258.46 -16.0512,-198.2704 5.2602,-144 21.8946,-101.64 60.2093,-65.0478 88.4834,-42.3762"/>
<polygon fill="#000000" stroke="#000000" points="90.8144,-44.9964 96.5324,-36.077 86.5002,-39.4838 90.8144,-44.9964"/>
<g id="a_edge10&#45;headlabel"><a xlink:href="dir_000026_000012.html" target="_top" xlink:title="1">
<text text-anchor="middle" x="89.7335" y="-46.9477" font-family="Helvetica,sans-Serif" font-size="10.00" fill="#000000">1</text>
</a>
</g>
</g>
<!-- dir_f2c65bfcbdc19ebacbfc0bbbfb0d01b6&#45;&gt;dir_0c368f76a33d967d5b838b5681461de6 -->
<g id="edge1" class="edge">
<title>dir_f2c65bfcbdc19ebacbfc0bbbfb0d01b6&#45;&gt;dir_0c368f76a33d967d5b838b5681461de6</title>
<path fill="none" stroke="#000000" d="M100.615,-215.8314C93.4012,-207.454 84.7032,-197.3531 76.7998,-188.1749"/>
<polygon fill="#000000" stroke="#000000" points="79.2936,-185.7071 70.1161,-180.4133 73.9892,-190.2748 79.2936,-185.7071"/>
<g id="a_edge1&#45;headlabel"><a xlink:href="dir_000010_000001.html" target="_top" xlink:title="1">
<text text-anchor="middle" x="83.7906" y="-184.0783" font-family="Helvetica,sans-Serif" font-size="10.00" fill="#000000">1</text>
</a>
</g>
</g>
<!-- dir_f2c65bfcbdc19ebacbfc0bbbfb0d01b6&#45;&gt;dir_e4cd57caa88bf1f4e1bf9521bc47c3c0 -->
<g id="edge2" class="edge">
<title>dir_f2c65bfcbdc19ebacbfc0bbbfb0d01b6&#45;&gt;dir_e4cd57caa88bf1f4e1bf9521bc47c3c0</title>
<path fill="none" stroke="#000000" d="M123.9859,-215.7623C134.482,-190.9846 153.3383,-146.4714 165.5712,-117.5939"/>
<polygon fill="#000000" stroke="#000000" points="168.9194,-118.6628 169.5973,-108.0896 162.4739,-115.9323 168.9194,-118.6628"/>
<g id="a_edge2&#45;headlabel"><a xlink:href="dir_000010_000008.html" target="_top" xlink:title="9">
<text text-anchor="middle" x="170.1317" y="-120.5801" font-family="Helvetica,sans-Serif" font-size="10.00" fill="#000000">9</text>
</a>
</g>
</g>
<!-- dir_f2c65bfcbdc19ebacbfc0bbbfb0d01b6&#45;&gt;dir_3d3615e9a999cab4f3407307569d6ced -->
<g id="edge3" class="edge">
<title>dir_f2c65bfcbdc19ebacbfc0bbbfb0d01b6&#45;&gt;dir_3d3615e9a999cab4f3407307569d6ced</title>
<path fill="none" stroke="#000000" d="M116.7615,-215.9555C117.8048,-178.3938 120.2171,-91.5541 121.4711,-46.4103"/>
<polygon fill="#000000" stroke="#000000" points="124.9771,-46.2384 121.7562,-36.1451 117.9798,-46.044 124.9771,-46.2384"/>
<g id="a_edge3&#45;headlabel"><a xlink:href="dir_000010_000012.html" target="_top" xlink:title="42">
<text text-anchor="middle" x="127.7155" y="-47.4105" font-family="Helvetica,sans-Serif" font-size="10.00" fill="#000000">42</text>
</a>
</g>
</g>
<!-- dir_0c368f76a33d967d5b838b5681461de6&#45;&gt;dir_e4cd57caa88bf1f4e1bf9521bc47c3c0 -->
<g id="edge4" class="edge">
<title>dir_0c368f76a33d967d5b838b5681461de6&#45;&gt;dir_e4cd57caa88bf1f4e1bf9521bc47c3c0</title>
<path fill="none" stroke="#000000" d="M85.2983,-143.8314C102.2673,-133.8983 123.3757,-121.5422 141.0879,-111.1741"/>
<polygon fill="#000000" stroke="#000000" points="143.1387,-114.0292 150.0007,-105.9568 139.6024,-107.9881 143.1387,-114.0292"/>
<g id="a_edge4&#45;headlabel"><a xlink:href="dir_000001_000008.html" target="_top" xlink:title="30">
<text text-anchor="middle" x="141.4708" y="-115.7954" font-family="Helvetica,sans-Serif" font-size="10.00" fill="#000000">30</text>
</a>
</g>
</g>
<!-- dir_0c368f76a33d967d5b838b5681461de6&#45;&gt;dir_3d3615e9a999cab4f3407307569d6ced -->
<g id="edge5" class="edge">
<title>dir_0c368f76a33d967d5b838b5681461de6&#45;&gt;dir_3d3615e9a999cab4f3407307569d6ced</title>
<path fill="none" stroke="#000000" d="M62.8725,-143.7623C74.6241,-118.8764 95.7769,-74.0822 109.408,-45.2165"/>
<polygon fill="#000000" stroke="#000000" points="112.6127,-46.6267 113.7179,-36.0896 106.2829,-43.6376 112.6127,-46.6267"/>
<g id="a_edge5&#45;headlabel"><a xlink:href="dir_000001_000012.html" target="_top" xlink:title="22">
<text text-anchor="middle" x="113.6452" y="-48.5894" font-family="Helvetica,sans-Serif" font-size="10.00" fill="#000000">22</text>
</a>
</g>
</g>
<!-- dir_e4cd57caa88bf1f4e1bf9521bc47c3c0&#45;&gt;dir_3d3615e9a999cab4f3407307569d6ced -->
<g id="edge6" class="edge">
<title>dir_e4cd57caa88bf1f4e1bf9521bc47c3c0&#45;&gt;dir_3d3615e9a999cab4f3407307569d6ced</title>
<path fill="none" stroke="#000000" d="M157.429,-71.8314C150.359,-63.6232 142.6268,-53.7606 136.1336,-44.7323"/>
<polygon fill="#000000" stroke="#000000" points="138.932,-42.626 130.3499,-36.4133 133.1846,-46.6219 138.932,-42.626"/>
<g id="a_edge6&#45;headlabel"><a xlink:href="dir_000008_000012.html" target="_top" xlink:title="17">
<text text-anchor="middle" x="143.3151" y="-41.4567" font-family="Helvetica,sans-Serif" font-size="10.00" fill="#000000">17</text>
</a>
</g>
</g>
<!-- dir_3d3615e9a999cab4f3407307569d6ced&#45;&gt;dir_e4cd57caa88bf1f4e1bf9521bc47c3c0 -->
<g id="edge11" class="edge">
<title>dir_3d3615e9a999cab4f3407307569d6ced&#45;&gt;dir_e4cd57caa88bf1f4e1bf9521bc47c3c0</title>
<path fill="none" stroke="#000000" d="M142.3019,-36.4133C149.3849,-44.654 157.1112,-54.5245 163.5796,-63.536"/>
<polygon fill="#000000" stroke="#000000" points="160.7583,-65.6095 169.3338,-71.8314 166.51,-61.6197 160.7583,-65.6095"/>
<g id="a_edge11&#45;headlabel"><a xlink:href="dir_000012_000008.html" target="_top" xlink:title="1">
<text text-anchor="middle" x="156.3766" y="-61.7742" font-family="Helvetica,sans-Serif" font-size="10.00" fill="#000000">1</text>
</a>
</g>
</g>
</g>
</svg>
