<?xml version="1.0" encoding="UTF-8" standalone="no"?>
<!DOCTYPE svg PUBLIC "-//W3C//DTD SVG 1.1//EN"
 "http://www.w3.org/Graphics/SVG/1.1/DTD/svg11.dtd">
<!-- Generated by graphviz version 2.40.1 (20161225.0304)
 -->
<!-- Title: equation_systems Pages: 1 -->
<!--zoomable 483 -->
<svg id="main" version="1.1" xmlns="http://www.w3.org/2000/svg" xmlns:xlink="http://www.w3.org/1999/xlink" xml:space="preserve" onload="init(evt)">
<style type="text/css"><![CDATA[
.edge:hover path { stroke: red; }
.edge:hover polygon { stroke: red; fill: red; }
]]></style>
<script type="text/javascript"><![CDATA[
var edges = document.getElementsByTagName('g');
if (edges && edges.length) {
  for (var i=0;i<edges.length;i++) {
    if (edges[i].id.substr(0,4)=='edge') {
      edges[i].setAttribute('class','edge');
    }
  }
}
]]></script>
        <defs>
                <circle id="rim" cx="0" cy="0" r="7"/>
                <circle id="rim2" cx="0" cy="0" r="3.5"/>
                <g id="zoomPlus">
                        <use xlink:href="#rim" fill="#404040">
                                <set attributeName="fill" to="#808080" begin="zoomplus.mouseover" end="zoomplus.mouseout"/>
                        </use>
                        <path d="M-4,0h8M0,-4v8" fill="none" stroke="white" stroke-width="1.5" pointer-events="none"/>
                </g>
                <g id="zoomMin">
                        <use xlink:href="#rim" fill="#404040">
                                <set attributeName="fill" to="#808080" begin="zoomminus.mouseover" end="zoomminus.mouseout"/>
                        </use>
                        <path d="M-4,0h8" fill="none" stroke="white" stroke-width="1.5" pointer-events="none"/>
                </g>
                <g id="dirArrow">
                        <path fill="none" stroke="white" stroke-width="1.5" d="M0,-3.0v7 M-2.5,-0.5L0,-3.0L2.5,-0.5"/>
                </g>
               <g id="resetDef">
                       <use xlink:href="#rim2" fill="#404040">
                               <set attributeName="fill" to="#808080" begin="reset.mouseover" end="reset.mouseout"/>
                       </use>
               </g>
        </defs>

<script type="text/javascript">
var viewWidth = 822;
var viewHeight = 483;
var sectionId = 'dynsection-0';
</script>
<script xlink:href="svgpan.js"/>
<svg id="graph" class="graph">
<g id="viewport">
<title>equation_systems</title>
<polygon fill="#ffffff" stroke="transparent" points="-4,4 -4,-479 818,-479 818,4 -4,4"/>
<g id="clust1" class="cluster">
<title>clusterdir_d85575251dd712327fe3cf057fa568b4</title>
<g id="a_clust1"><a xlink:href="dir_d85575251dd712327fe3cf057fa568b4.html" target="_top" xlink:title="amr&#45;wind">
<polygon fill="#ddddee" stroke="#000000" points="138,-344 138,-431 806,-431 806,-344 138,-344"/>
<text text-anchor="middle" x="472" y="-419" font-family="Helvetica,sans-Serif" font-size="10.00" fill="#000000">amr&#45;wind</text>
</a>
</g>
</g>
<g id="clust2" class="cluster">
<title>clusterdir_4bb30ed846ea1df1fc4d16874a455d91</title>
<g id="a_clust2"><a xlink:href="dir_4bb30ed846ea1df1fc4d16874a455d91.html" target="_top">
<polygon fill="#eeeeff" stroke="#000000" points="146,-352 146,-404 798,-404 798,-352 146,-352"/>
</a>
</g>
</g>
<!-- dir_4bb30ed846ea1df1fc4d16874a455d91 -->
<g id="node1" class="node">
<title>dir_4bb30ed846ea1df1fc4d16874a455d91</title>
<text text-anchor="middle" x="737" y="-375.5" font-family="Helvetica,sans-Serif" font-size="10.00" fill="#000000">equation_systems</text>
</g>
<!-- dir_9ff815a534beac751fa88e427dbab695 -->
<g id="node9" class="node">
<title>dir_9ff815a534beac751fa88e427dbab695</title>
<g id="a_node9"><a xlink:href="dir_9ff815a534beac751fa88e427dbab695.html" target="_top" xlink:title="turbulence">
<polygon fill="#ffffff" stroke="#ff0000" points="215,-475 147,-475 147,-439 215,-439 215,-475"/>
<text text-anchor="middle" x="181" y="-454.5" font-family="Helvetica,sans-Serif" font-size="10.00" fill="#000000">turbulence</text>
</a>
</g>
</g>
<!-- dir_4bb30ed846ea1df1fc4d16874a455d91&#45;&gt;dir_9ff815a534beac751fa88e427dbab695 -->
<g id="edge37" class="edge">
<title>dir_4bb30ed846ea1df1fc4d16874a455d91&#45;&gt;dir_9ff815a534beac751fa88e427dbab695</title>
<path fill="none" stroke="#000000" d="M721.6873,-396.2555C710.2277,-408.486 693.4113,-423.6476 675,-431 633.9113,-447.4085 338.8876,-454.2475 225.3613,-456.2912"/>
<polygon fill="#000000" stroke="#000000" points="225.2097,-452.7932 215.2729,-456.4687 225.3329,-459.7921 225.2097,-452.7932"/>
<g id="a_edge37&#45;headlabel"><a xlink:href="dir_000002_000027.html" target="_top" xlink:title="4">
<text text-anchor="middle" x="228.7538" y="-447.3912" font-family="Helvetica,sans-Serif" font-size="10.00" fill="#000000">4</text>
</a>
</g>
</g>
<!-- dir_35ffb1505af3943bdf99903da87524fe -->
<g id="node11" class="node">
<title>dir_35ffb1505af3943bdf99903da87524fe</title>
<g id="a_node11"><a xlink:href="dir_35ffb1505af3943bdf99903da87524fe.html" target="_top" xlink:title="convection">
<polygon fill="none" stroke="#000000" points="117,-475 47,-475 47,-439 117,-439 117,-475"/>
<text text-anchor="middle" x="82" y="-454.5" font-family="Helvetica,sans-Serif" font-size="10.00" fill="#000000">convection</text>
</a>
</g>
</g>
<!-- dir_4bb30ed846ea1df1fc4d16874a455d91&#45;&gt;dir_35ffb1505af3943bdf99903da87524fe -->
<g id="edge38" class="edge">
<title>dir_4bb30ed846ea1df1fc4d16874a455d91&#45;&gt;dir_35ffb1505af3943bdf99903da87524fe</title>
<path fill="none" stroke="#000000" d="M722.0145,-396.2062C710.5902,-408.5841 693.679,-423.9458 675,-431 647.0875,-441.5413 167.4414,-434.1597 138,-439 134.3597,-439.5985 130.6317,-440.3865 126.9132,-441.2986"/>
<polygon fill="#000000" stroke="#000000" points="125.8863,-437.9508 117.1592,-443.958 127.7277,-444.7042 125.8863,-437.9508"/>
<g id="a_edge38&#45;headlabel"><a xlink:href="dir_000002_000022.html" target="_top" xlink:title="2">
<text text-anchor="middle" x="128.6075" y="-431.766" font-family="Helvetica,sans-Serif" font-size="10.00" fill="#000000">2</text>
</a>
</g>
</g>
<!-- dir_ebb19deee3cd40f4ac122fef25c04ca8 -->
<g id="node13" class="node">
<title>dir_ebb19deee3cd40f4ac122fef25c04ca8</title>
<g id="a_node13"><a xlink:href="dir_ebb19deee3cd40f4ac122fef25c04ca8.html" target="_top" xlink:title="boundary_conditions">
<polygon fill="none" stroke="#000000" points="641,-252 523,-252 523,-216 641,-216 641,-252"/>
<text text-anchor="middle" x="582" y="-231.5" font-family="Helvetica,sans-Serif" font-size="10.00" fill="#000000">boundary_conditions</text>
</a>
</g>
</g>
<!-- dir_4bb30ed846ea1df1fc4d16874a455d91&#45;&gt;dir_ebb19deee3cd40f4ac122fef25c04ca8 -->
<g id="edge39" class="edge">
<title>dir_4bb30ed846ea1df1fc4d16874a455d91&#45;&gt;dir_ebb19deee3cd40f4ac122fef25c04ca8</title>
<path fill="none" stroke="#000000" d="M717.3691,-359.7623C689.8835,-334.2272 639.8361,-287.7316 608.8996,-258.9906"/>
<polygon fill="#000000" stroke="#000000" points="611.18,-256.3318 601.4715,-252.0896 606.4155,-261.4602 611.18,-256.3318"/>
<g id="a_edge39&#45;headlabel"><a xlink:href="dir_000002_000009.html" target="_top" xlink:title="2">
<text text-anchor="middle" x="615.7459" y="-254.1982" font-family="Helvetica,sans-Serif" font-size="10.00" fill="#000000">2</text>
</a>
</g>
</g>
<!-- dir_e4cd57caa88bf1f4e1bf9521bc47c3c0 -->
<g id="node14" class="node">
<title>dir_e4cd57caa88bf1f4e1bf9521bc47c3c0</title>
<g id="a_node14"><a xlink:href="dir_e4cd57caa88bf1f4e1bf9521bc47c3c0.html" target="_top" xlink:title="utilities">
<polygon fill="#ffffff" stroke="#ff0000" points="54,-396 0,-396 0,-360 54,-360 54,-396"/>
<text text-anchor="middle" x="27" y="-375.5" font-family="Helvetica,sans-Serif" font-size="10.00" fill="#000000">utilities</text>
</a>
</g>
</g>
<!-- dir_4bb30ed846ea1df1fc4d16874a455d91&#45;&gt;dir_e4cd57caa88bf1f4e1bf9521bc47c3c0 -->
<g id="edge40" class="edge">
<title>dir_4bb30ed846ea1df1fc4d16874a455d91&#45;&gt;dir_e4cd57caa88bf1f4e1bf9521bc47c3c0</title>
<path fill="none" stroke="#000000" d="M723.0044,-396.1088C710.1269,-410.8527 689.5035,-430.0122 666,-435 652.0061,-437.9697 164.9939,-437.9697 151,-435 119.7615,-428.3707 87.0448,-412.9221 63.0654,-399.7782"/>
<polygon fill="#000000" stroke="#000000" points="64.7584,-396.7148 54.3242,-394.8767 61.3347,-402.8205 64.7584,-396.7148"/>
<g id="a_edge40&#45;headlabel"><a xlink:href="dir_000002_000008.html" target="_top" xlink:title="10">
<text text-anchor="middle" x="69.2824" y="-393.4964" font-family="Helvetica,sans-Serif" font-size="10.00" fill="#000000">10</text>
</a>
</g>
</g>
<!-- dir_a816a247b59c90f95e41afe29b966a18 -->
<g id="node15" class="node">
<title>dir_a816a247b59c90f95e41afe29b966a18</title>
<g id="a_node15"><a xlink:href="dir_a816a247b59c90f95e41afe29b966a18.html" target="_top" xlink:title="diffusion">
<polygon fill="none" stroke="#000000" points="611.5,-36 552.5,-36 552.5,0 611.5,0 611.5,-36"/>
<text text-anchor="middle" x="582" y="-15.5" font-family="Helvetica,sans-Serif" font-size="10.00" fill="#000000">diffusion</text>
</a>
</g>
</g>
<!-- dir_4bb30ed846ea1df1fc4d16874a455d91&#45;&gt;dir_a816a247b59c90f95e41afe29b966a18 -->
<g id="edge41" class="edge">
<title>dir_4bb30ed846ea1df1fc4d16874a455d91&#45;&gt;dir_a816a247b59c90f95e41afe29b966a18</title>
<path fill="none" stroke="#000000" d="M746.7554,-359.9518C760.2583,-333.2403 783,-281.2402 783,-234 783,-234 783,-234 783,-162 783,-83.2761 679.8497,-43.4443 621.3366,-27.1823"/>
<polygon fill="#000000" stroke="#000000" points="622.223,-23.7965 611.6582,-24.5937 620.4143,-30.5588 622.223,-23.7965"/>
<g id="a_edge41&#45;headlabel"><a xlink:href="dir_000002_000018.html" target="_top" xlink:title="1">
<text text-anchor="middle" x="626.4292" y="-19.4823" font-family="Helvetica,sans-Serif" font-size="10.00" fill="#000000">1</text>
</a>
</g>
</g>
<!-- dir_70329d5a297148af2b67b1d844b9f654 -->
<g id="node2" class="node">
<title>dir_70329d5a297148af2b67b1d844b9f654</title>
<g id="a_node2"><a xlink:href="dir_70329d5a297148af2b67b1d844b9f654.html" target="_top" xlink:title="density">
<polygon fill="#ffffff" stroke="#000000" points="376,-396 322,-396 322,-360 376,-360 376,-396"/>
<text text-anchor="middle" x="349" y="-375.5" font-family="Helvetica,sans-Serif" font-size="10.00" fill="#000000">density</text>
</a>
</g>
</g>
<!-- dir_3d3615e9a999cab4f3407307569d6ced -->
<g id="node16" class="node">
<title>dir_3d3615e9a999cab4f3407307569d6ced</title>
<g id="a_node16"><a xlink:href="dir_3d3615e9a999cab4f3407307569d6ced.html" target="_top" xlink:title="core">
<polygon fill="#ffffff" stroke="#ff0000" points="332,-324 278,-324 278,-288 332,-288 332,-324"/>
<text text-anchor="middle" x="305" y="-303.5" font-family="Helvetica,sans-Serif" font-size="10.00" fill="#000000">core</text>
</a>
</g>
</g>
<!-- dir_70329d5a297148af2b67b1d844b9f654&#45;&gt;dir_3d3615e9a999cab4f3407307569d6ced -->
<g id="edge5" class="edge">
<title>dir_70329d5a297148af2b67b1d844b9f654&#45;&gt;dir_3d3615e9a999cab4f3407307569d6ced</title>
<path fill="none" stroke="#000000" d="M337.8969,-359.8314C332.9326,-351.7079 326.9778,-341.9637 321.5072,-333.0118"/>
<polygon fill="#000000" stroke="#000000" points="324.4536,-331.121 316.2526,-324.4133 318.4806,-334.7712 324.4536,-331.121"/>
<g id="a_edge5&#45;headlabel"><a xlink:href="dir_000016_000012.html" target="_top" xlink:title="4">
<text text-anchor="middle" x="328.7507" y="-330.2077" font-family="Helvetica,sans-Serif" font-size="10.00" fill="#000000">4</text>
</a>
</g>
</g>
<!-- dir_4012ff34c1bb5bd303e44a1c9cef6c8a -->
<g id="node3" class="node">
<title>dir_4012ff34c1bb5bd303e44a1c9cef6c8a</title>
<g id="a_node3"><a xlink:href="dir_4012ff34c1bb5bd303e44a1c9cef6c8a.html" target="_top" xlink:title="icns">
<polygon fill="#ffffff" stroke="#ff0000" points="666,-396 612,-396 612,-360 666,-360 666,-396"/>
<text text-anchor="middle" x="639" y="-375.5" font-family="Helvetica,sans-Serif" font-size="10.00" fill="#000000">icns</text>
</a>
</g>
</g>
<!-- dir_0c368f76a33d967d5b838b5681461de6 -->
<g id="node12" class="node">
<title>dir_0c368f76a33d967d5b838b5681461de6</title>
<g id="a_node12"><a xlink:href="dir_0c368f76a33d967d5b838b5681461de6.html" target="_top" xlink:title="wind_energy">
<polygon fill="#ffffff" stroke="#ff0000" points="621.5,-108 542.5,-108 542.5,-72 621.5,-72 621.5,-108"/>
<text text-anchor="middle" x="582" y="-87.5" font-family="Helvetica,sans-Serif" font-size="10.00" fill="#000000">wind_energy</text>
</a>
</g>
</g>
<!-- dir_4012ff34c1bb5bd303e44a1c9cef6c8a&#45;&gt;dir_0c368f76a33d967d5b838b5681461de6 -->
<g id="edge26" class="edge">
<title>dir_4012ff34c1bb5bd303e44a1c9cef6c8a&#45;&gt;dir_0c368f76a33d967d5b838b5681461de6</title>
<path fill="none" stroke="#000000" d="M643.8981,-359.6894C651.2163,-329.3196 662.8422,-266.8359 650,-216 640.6736,-179.0815 618.1601,-141.2295 601.5811,-116.7806"/>
<polygon fill="#000000" stroke="#000000" points="604.35,-114.6313 595.7769,-108.4061 598.5967,-118.6188 604.35,-114.6313"/>
<g id="a_edge26&#45;headlabel"><a xlink:href="dir_000003_000001.html" target="_top" xlink:title="3">
<text text-anchor="middle" x="608.7311" y="-113.4684" font-family="Helvetica,sans-Serif" font-size="10.00" fill="#000000">3</text>
</a>
</g>
</g>
<!-- dir_4012ff34c1bb5bd303e44a1c9cef6c8a&#45;&gt;dir_ebb19deee3cd40f4ac122fef25c04ca8 -->
<g id="edge27" class="edge">
<title>dir_4012ff34c1bb5bd303e44a1c9cef6c8a&#45;&gt;dir_ebb19deee3cd40f4ac122fef25c04ca8</title>
<path fill="none" stroke="#000000" d="M631.3921,-359.5351C627.1211,-349.1172 621.7179,-335.8506 617,-324 608.7579,-303.2974 599.6396,-279.8314 592.7767,-262.0522"/>
<polygon fill="#000000" stroke="#000000" points="595.8822,-260.3775 589.0202,-252.3051 589.3505,-262.8948 595.8822,-260.3775"/>
<g id="a_edge27&#45;headlabel"><a xlink:href="dir_000003_000009.html" target="_top" xlink:title="1">
<text text-anchor="middle" x="599.8242" y="-260.2106" font-family="Helvetica,sans-Serif" font-size="10.00" fill="#000000">1</text>
</a>
</g>
</g>
<!-- dir_4012ff34c1bb5bd303e44a1c9cef6c8a&#45;&gt;dir_e4cd57caa88bf1f4e1bf9521bc47c3c0 -->
<g id="edge28" class="edge">
<title>dir_4012ff34c1bb5bd303e44a1c9cef6c8a&#45;&gt;dir_e4cd57caa88bf1f4e1bf9521bc47c3c0</title>
<path fill="none" stroke="#000000" d="M632.3069,-396.0162C625.4199,-411.161 612.9934,-430.9693 594,-435 569.925,-440.1091 175.075,-440.1091 151,-435 119.7615,-428.3707 87.0448,-412.9221 63.0654,-399.7782"/>
<polygon fill="#000000" stroke="#000000" points="64.7584,-396.7148 54.3242,-394.8767 61.3347,-402.8205 64.7584,-396.7148"/>
<g id="a_edge28&#45;headlabel"><a xlink:href="dir_000003_000008.html" target="_top" xlink:title="8">
<text text-anchor="middle" x="69.2824" y="-393.4964" font-family="Helvetica,sans-Serif" font-size="10.00" fill="#000000">8</text>
</a>
</g>
</g>
<!-- dir_4012ff34c1bb5bd303e44a1c9cef6c8a&#45;&gt;dir_3d3615e9a999cab4f3407307569d6ced -->
<g id="edge29" class="edge">
<title>dir_4012ff34c1bb5bd303e44a1c9cef6c8a&#45;&gt;dir_3d3615e9a999cab4f3407307569d6ced</title>
<path fill="none" stroke="#000000" d="M624.1965,-359.9621C618.2519,-353.9087 610.9267,-347.7495 603,-344 591.3488,-338.4887 419.9658,-318.8266 342.512,-310.1571"/>
<polygon fill="#000000" stroke="#000000" points="342.5593,-306.6407 332.2327,-309.0094 341.7825,-313.5975 342.5593,-306.6407"/>
<g id="a_edge29&#45;headlabel"><a xlink:href="dir_000003_000012.html" target="_top" xlink:title="19">
<text text-anchor="middle" x="346.4468" y="-301.7178" font-family="Helvetica,sans-Serif" font-size="10.00" fill="#000000">19</text>
</a>
</g>
</g>
<!-- dir_ce0741f9b73f67c263a459724eeecf8b -->
<g id="node4" class="node">
<title>dir_ce0741f9b73f67c263a459724eeecf8b</title>
<g id="a_node4"><a xlink:href="dir_ce0741f9b73f67c263a459724eeecf8b.html" target="_top" xlink:title="levelset">
<polygon fill="#ffffff" stroke="#000000" points="522,-396 466,-396 466,-360 522,-360 522,-396"/>
<text text-anchor="middle" x="494" y="-375.5" font-family="Helvetica,sans-Serif" font-size="10.00" fill="#000000">levelset</text>
</a>
</g>
</g>
<!-- dir_f2c65bfcbdc19ebacbfc0bbbfb0d01b6 -->
<g id="node10" class="node">
<title>dir_f2c65bfcbdc19ebacbfc0bbbfb0d01b6</title>
<g id="a_node10"><a xlink:href="dir_f2c65bfcbdc19ebacbfc0bbbfb0d01b6.html" target="_top" xlink:title="physics">
<polygon fill="#ffffff" stroke="#ff0000" points="465,-180 411,-180 411,-144 465,-144 465,-180"/>
<text text-anchor="middle" x="438" y="-159.5" font-family="Helvetica,sans-Serif" font-size="10.00" fill="#000000">physics</text>
</a>
</g>
</g>
<!-- dir_ce0741f9b73f67c263a459724eeecf8b&#45;&gt;dir_f2c65bfcbdc19ebacbfc0bbbfb0d01b6 -->
<g id="edge13" class="edge">
<title>dir_ce0741f9b73f67c263a459724eeecf8b&#45;&gt;dir_f2c65bfcbdc19ebacbfc0bbbfb0d01b6</title>
<path fill="none" stroke="#000000" d="M477.0473,-359.9308C471.0995,-354.2991 464.1171,-348.4143 457,-344 435.9574,-330.9484 419.0184,-344.4113 405,-324 377.8255,-284.433 391.9993,-262.2059 405,-216 407.6661,-206.5243 412.5081,-197.067 417.6762,-188.7759"/>
<polygon fill="#000000" stroke="#000000" points="420.6966,-190.5549 423.3248,-180.2912 414.8697,-186.6757 420.6966,-190.5549"/>
<g id="a_edge13&#45;headlabel"><a xlink:href="dir_000031_000010.html" target="_top" xlink:title="1">
<text text-anchor="middle" x="421.068" y="-192.6205" font-family="Helvetica,sans-Serif" font-size="10.00" fill="#000000">1</text>
</a>
</g>
</g>
<!-- dir_9f8434f21d2c2598f33c85a8b98c6d56 -->
<g id="node5" class="node">
<title>dir_9f8434f21d2c2598f33c85a8b98c6d56</title>
<g id="a_node5"><a xlink:href="dir_9f8434f21d2c2598f33c85a8b98c6d56.html" target="_top" xlink:title="sdr">
<polygon fill="#ffffff" stroke="#ff0000" points="448,-396 394,-396 394,-360 448,-360 448,-396"/>
<text text-anchor="middle" x="421" y="-375.5" font-family="Helvetica,sans-Serif" font-size="10.00" fill="#000000">sdr</text>
</a>
</g>
</g>
<!-- dir_9f8434f21d2c2598f33c85a8b98c6d56&#45;&gt;dir_9ff815a534beac751fa88e427dbab695 -->
<g id="edge30" class="edge">
<title>dir_9f8434f21d2c2598f33c85a8b98c6d56&#45;&gt;dir_9ff815a534beac751fa88e427dbab695</title>
<path fill="none" stroke="#000000" d="M406.0128,-396.0245C398.6585,-407.9824 389.1776,-422.9126 376,-431 351.1424,-446.2558 274.9242,-452.6289 225.3659,-455.2435"/>
<polygon fill="#000000" stroke="#000000" points="225.0379,-451.7553 215.2234,-455.7462 225.3845,-458.7467 225.0379,-451.7553"/>
<g id="a_edge30&#45;headlabel"><a xlink:href="dir_000038_000027.html" target="_top" xlink:title="1">
<text text-anchor="middle" x="228.4875" y="-446.2417" font-family="Helvetica,sans-Serif" font-size="10.00" fill="#000000">1</text>
</a>
</g>
</g>
<!-- dir_9f8434f21d2c2598f33c85a8b98c6d56&#45;&gt;dir_3d3615e9a999cab4f3407307569d6ced -->
<g id="edge31" class="edge">
<title>dir_9f8434f21d2c2598f33c85a8b98c6d56&#45;&gt;dir_3d3615e9a999cab4f3407307569d6ced</title>
<path fill="none" stroke="#000000" d="M404.0085,-359.8686C398.2941,-354.3602 391.6689,-348.5638 385,-344 371.597,-334.8277 355.6352,-326.7554 341.5077,-320.4368"/>
<polygon fill="#000000" stroke="#000000" points="342.6415,-317.1137 332.0742,-316.3505 339.8592,-323.537 342.6415,-317.1137"/>
<g id="a_edge31&#45;headlabel"><a xlink:href="dir_000038_000012.html" target="_top" xlink:title="6">
<text text-anchor="middle" x="347.0685" y="-313.437" font-family="Helvetica,sans-Serif" font-size="10.00" fill="#000000">6</text>
</a>
</g>
</g>
<!-- dir_c96908905c9887b0bdc2167e5354d30c -->
<g id="node6" class="node">
<title>dir_c96908905c9887b0bdc2167e5354d30c</title>
<g id="a_node6"><a xlink:href="dir_c96908905c9887b0bdc2167e5354d30c.html" target="_top" xlink:title="temperature">
<polygon fill="#ffffff" stroke="#000000" points="303.5,-396 226.5,-396 226.5,-360 303.5,-360 303.5,-396"/>
<text text-anchor="middle" x="265" y="-375.5" font-family="Helvetica,sans-Serif" font-size="10.00" fill="#000000">temperature</text>
</a>
</g>
</g>
<!-- dir_c96908905c9887b0bdc2167e5354d30c&#45;&gt;dir_3d3615e9a999cab4f3407307569d6ced -->
<g id="edge14" class="edge">
<title>dir_c96908905c9887b0bdc2167e5354d30c&#45;&gt;dir_3d3615e9a999cab4f3407307569d6ced</title>
<path fill="none" stroke="#000000" d="M275.0937,-359.8314C279.5597,-351.7925 284.9075,-342.1666 289.8379,-333.2918"/>
<polygon fill="#000000" stroke="#000000" points="292.9735,-334.8546 294.7704,-324.4133 286.8544,-331.4551 292.9735,-334.8546"/>
<g id="a_edge14&#45;headlabel"><a xlink:href="dir_000040_000012.html" target="_top" xlink:title="4">
<text text-anchor="middle" x="293.7098" y="-336.8757" font-family="Helvetica,sans-Serif" font-size="10.00" fill="#000000">4</text>
</a>
</g>
</g>
<!-- dir_be932497d8c26b6aa8596ee64638838f -->
<g id="node7" class="node">
<title>dir_be932497d8c26b6aa8596ee64638838f</title>
<g id="a_node7"><a xlink:href="dir_be932497d8c26b6aa8596ee64638838f.html" target="_top" xlink:title="tke">
<polygon fill="#ffffff" stroke="#ff0000" points="208,-396 154,-396 154,-360 208,-360 208,-396"/>
<text text-anchor="middle" x="181" y="-375.5" font-family="Helvetica,sans-Serif" font-size="10.00" fill="#000000">tke</text>
</a>
</g>
</g>
<!-- dir_be932497d8c26b6aa8596ee64638838f&#45;&gt;dir_9ff815a534beac751fa88e427dbab695 -->
<g id="edge6" class="edge">
<title>dir_be932497d8c26b6aa8596ee64638838f&#45;&gt;dir_9ff815a534beac751fa88e427dbab695</title>
<path fill="none" stroke="#000000" d="M175.2091,-396.2234C174.2525,-405.779 174.0115,-417.7025 174.4861,-428.4513"/>
<polygon fill="#000000" stroke="#000000" points="171.0119,-428.945 175.1992,-438.6772 177.9949,-428.4579 171.0119,-428.945"/>
<g id="a_edge6&#45;headlabel"><a xlink:href="dir_000029_000027.html" target="_top" xlink:title="2">
<text text-anchor="middle" x="167.9295" y="-423.0566" font-family="Helvetica,sans-Serif" font-size="10.00" fill="#000000">2</text>
</a>
</g>
</g>
<!-- dir_be932497d8c26b6aa8596ee64638838f&#45;&gt;dir_3d3615e9a999cab4f3407307569d6ced -->
<g id="edge7" class="edge">
<title>dir_be932497d8c26b6aa8596ee64638838f&#45;&gt;dir_3d3615e9a999cab4f3407307569d6ced</title>
<path fill="none" stroke="#000000" d="M198.4437,-359.7641C204.3158,-354.25 211.1294,-348.4768 218,-344 233.5527,-333.8661 252.2596,-325.294 268.3351,-318.8709"/>
<polygon fill="#000000" stroke="#000000" points="269.8863,-322.0238 277.9526,-315.1546 267.3632,-315.4943 269.8863,-322.0238"/>
<g id="a_edge7&#45;headlabel"><a xlink:href="dir_000029_000012.html" target="_top" xlink:title="6">
<text text-anchor="middle" x="267.5567" y="-323.4678" font-family="Helvetica,sans-Serif" font-size="10.00" fill="#000000">6</text>
</a>
</g>
</g>
<!-- dir_bfcf7e25e8a41bb3b30f8e11e2280479 -->
<g id="node8" class="node">
<title>dir_bfcf7e25e8a41bb3b30f8e11e2280479</title>
<g id="a_node8"><a xlink:href="dir_bfcf7e25e8a41bb3b30f8e11e2280479.html" target="_top" xlink:title="vof">
<polygon fill="#ffffff" stroke="#000000" points="594,-396 540,-396 540,-360 594,-360 594,-396"/>
<text text-anchor="middle" x="567" y="-375.5" font-family="Helvetica,sans-Serif" font-size="10.00" fill="#000000">vof</text>
</a>
</g>
</g>
<!-- dir_bfcf7e25e8a41bb3b30f8e11e2280479&#45;&gt;dir_f2c65bfcbdc19ebacbfc0bbbfb0d01b6 -->
<g id="edge33" class="edge">
<title>dir_bfcf7e25e8a41bb3b30f8e11e2280479&#45;&gt;dir_f2c65bfcbdc19ebacbfc0bbbfb0d01b6</title>
<path fill="none" stroke="#000000" d="M551.2114,-359.7948C545.3746,-354.0182 538.3713,-348.0796 531,-344 500.064,-326.8788 478.8871,-349.1158 454,-324 419.2378,-288.9184 424.4787,-226.2449 431.3071,-189.9957"/>
<polygon fill="#000000" stroke="#000000" points="434.7591,-190.5846 433.3387,-180.0854 427.9017,-189.1788 434.7591,-190.5846"/>
<g id="a_edge33&#45;headlabel"><a xlink:href="dir_000023_000010.html" target="_top" xlink:title="1">
<text text-anchor="middle" x="436.8187" y="-192.1761" font-family="Helvetica,sans-Serif" font-size="10.00" fill="#000000">1</text>
</a>
</g>
</g>
<!-- dir_bfcf7e25e8a41bb3b30f8e11e2280479&#45;&gt;dir_3d3615e9a999cab4f3407307569d6ced -->
<g id="edge34" class="edge">
<title>dir_bfcf7e25e8a41bb3b30f8e11e2280479&#45;&gt;dir_3d3615e9a999cab4f3407307569d6ced</title>
<path fill="none" stroke="#000000" d="M551.7816,-359.7378C545.8948,-353.8124 538.7141,-347.7944 531,-344 480.1207,-318.9738 460.9051,-333.4673 405,-324 384.1616,-320.4711 360.9247,-316.3026 342.0987,-312.8663"/>
<polygon fill="#000000" stroke="#000000" points="342.6039,-309.4006 332.1369,-311.0412 341.3424,-316.286 342.6039,-309.4006"/>
<g id="a_edge34&#45;headlabel"><a xlink:href="dir_000023_000012.html" target="_top" xlink:title="1">
<text text-anchor="middle" x="346.6513" y="-304.7555" font-family="Helvetica,sans-Serif" font-size="10.00" fill="#000000">1</text>
</a>
</g>
</g>
<!-- dir_9ff815a534beac751fa88e427dbab695&#45;&gt;dir_9f8434f21d2c2598f33c85a8b98c6d56 -->
<g id="edge3" class="edge">
<title>dir_9ff815a534beac751fa88e427dbab695&#45;&gt;dir_9f8434f21d2c2598f33c85a8b98c6d56</title>
<path fill="none" stroke="#000000" d="M215.0751,-456.216C267.7561,-454.4093 365.2442,-448.6482 394,-431 403.8832,-424.9344 411.687,-415.0198 416.8582,-405.3969"/>
<polygon fill="#000000" stroke="#000000" points="420.1674,-406.5754 421.1314,-396.0245 413.7982,-403.6714 420.1674,-406.5754"/>
<g id="a_edge3&#45;headlabel"><a xlink:href="dir_000027_000038.html" target="_top" xlink:title="3">
<text text-anchor="middle" x="421.2597" y="-408.524" font-family="Helvetica,sans-Serif" font-size="10.00" fill="#000000">3</text>
</a>
</g>
</g>
<!-- dir_9ff815a534beac751fa88e427dbab695&#45;&gt;dir_be932497d8c26b6aa8596ee64638838f -->
<g id="edge1" class="edge">
<title>dir_9ff815a534beac751fa88e427dbab695&#45;&gt;dir_be932497d8c26b6aa8596ee64638838f</title>
<path fill="none" stroke="#000000" d="M186.8008,-438.6772C187.7525,-429.1053 187.9885,-417.1777 187.509,-406.4371"/>
<polygon fill="#000000" stroke="#000000" points="190.9837,-405.9533 186.7909,-396.2234 184.0009,-406.4443 190.9837,-405.9533"/>
<g id="a_edge1&#45;headlabel"><a xlink:href="dir_000027_000029.html" target="_top" xlink:title="4">
<text text-anchor="middle" x="194.068" y="-406.8399" font-family="Helvetica,sans-Serif" font-size="10.00" fill="#000000">4</text>
</a>
</g>
</g>
<!-- dir_9ff815a534beac751fa88e427dbab695&#45;&gt;dir_e4cd57caa88bf1f4e1bf9521bc47c3c0 -->
<g id="edge2" class="edge">
<title>dir_9ff815a534beac751fa88e427dbab695&#45;&gt;dir_e4cd57caa88bf1f4e1bf9521bc47c3c0</title>
<path fill="none" stroke="#000000" d="M146.6525,-446.0371C130.6257,-440.7305 113.4623,-434.7187 106,-431 89.7189,-422.8866 72.824,-411.9441 58.8573,-402.1087"/>
<polygon fill="#000000" stroke="#000000" points="60.7363,-399.1492 50.571,-396.163 56.6554,-404.8366 60.7363,-399.1492"/>
<g id="a_edge2&#45;headlabel"><a xlink:href="dir_000027_000008.html" target="_top" xlink:title="1">
<text text-anchor="middle" x="65.3121" y="-396.4379" font-family="Helvetica,sans-Serif" font-size="10.00" fill="#000000">1</text>
</a>
</g>
</g>
<!-- dir_9ff815a534beac751fa88e427dbab695&#45;&gt;dir_3d3615e9a999cab4f3407307569d6ced -->
<g id="edge4" class="edge">
<title>dir_9ff815a534beac751fa88e427dbab695&#45;&gt;dir_3d3615e9a999cab4f3407307569d6ced</title>
<path fill="none" stroke="#000000" d="M147.8392,-438.8352C145.544,-436.4777 143.5359,-433.8699 142,-431 123.7548,-396.9086 117.9619,-374.2866 142,-344 142.9966,-342.7443 220.1403,-325.148 267.9301,-314.3463"/>
<polygon fill="#000000" stroke="#000000" points="268.9505,-317.7041 277.934,-312.0875 267.4087,-310.876 268.9505,-317.7041"/>
<g id="a_edge4&#45;headlabel"><a xlink:href="dir_000027_000012.html" target="_top" xlink:title="5">
<text text-anchor="middle" x="266.0695" y="-318.7653" font-family="Helvetica,sans-Serif" font-size="10.00" fill="#000000">5</text>
</a>
</g>
</g>
<!-- dir_f2c65bfcbdc19ebacbfc0bbbfb0d01b6&#45;&gt;dir_4012ff34c1bb5bd303e44a1c9cef6c8a -->
<g id="edge10" class="edge">
<title>dir_f2c65bfcbdc19ebacbfc0bbbfb0d01b6&#45;&gt;dir_4012ff34c1bb5bd303e44a1c9cef6c8a</title>
<path fill="none" stroke="#000000" d="M452.7252,-180.295C467.7406,-198.7432 491.9042,-227.8659 514,-252 546.9523,-287.992 586.9712,-327.6724 612.703,-352.7039"/>
<polygon fill="#000000" stroke="#000000" points="610.2702,-355.2202 619.8849,-359.6708 615.1442,-350.1958 610.2702,-355.2202"/>
<g id="a_edge10&#45;headlabel"><a xlink:href="dir_000010_000003.html" target="_top" xlink:title="1">
<text text-anchor="middle" x="605.7132" y="-352.2553" font-family="Helvetica,sans-Serif" font-size="10.00" fill="#000000">1</text>
</a>
</g>
</g>
<!-- dir_f2c65bfcbdc19ebacbfc0bbbfb0d01b6&#45;&gt;dir_bfcf7e25e8a41bb3b30f8e11e2280479 -->
<g id="edge11" class="edge">
<title>dir_f2c65bfcbdc19ebacbfc0bbbfb0d01b6&#45;&gt;dir_bfcf7e25e8a41bb3b30f8e11e2280479</title>
<path fill="none" stroke="#000000" d="M437.7861,-180.239C438.381,-213.0586 444.2456,-282.5033 481,-324 496.8692,-341.9167 510.8327,-331.1112 531,-344 535.129,-346.6388 539.204,-349.7881 543.0444,-353.0897"/>
<polygon fill="#000000" stroke="#000000" points="540.8049,-355.785 550.5399,-359.966 545.537,-350.6267 540.8049,-355.785"/>
<g id="a_edge11&#45;headlabel"><a xlink:href="dir_000010_000023.html" target="_top" xlink:title="1">
<text text-anchor="middle" x="536.2368" y="-352.9472" font-family="Helvetica,sans-Serif" font-size="10.00" fill="#000000">1</text>
</a>
</g>
</g>
<!-- dir_f2c65bfcbdc19ebacbfc0bbbfb0d01b6&#45;&gt;dir_0c368f76a33d967d5b838b5681461de6 -->
<g id="edge8" class="edge">
<title>dir_f2c65bfcbdc19ebacbfc0bbbfb0d01b6&#45;&gt;dir_0c368f76a33d967d5b838b5681461de6</title>
<path fill="none" stroke="#000000" d="M465.0853,-148.4574C485.224,-138.388 513.1682,-124.4159 536.6871,-112.6564"/>
<polygon fill="#000000" stroke="#000000" points="538.4115,-115.7074 545.7905,-108.1047 535.281,-109.4464 538.4115,-115.7074"/>
<g id="a_edge8&#45;headlabel"><a xlink:href="dir_000010_000001.html" target="_top" xlink:title="1">
<text text-anchor="middle" x="536.4662" y="-117.3544" font-family="Helvetica,sans-Serif" font-size="10.00" fill="#000000">1</text>
</a>
</g>
</g>
<!-- dir_f2c65bfcbdc19ebacbfc0bbbfb0d01b6&#45;&gt;dir_e4cd57caa88bf1f4e1bf9521bc47c3c0 -->
<g id="edge9" class="edge">
<title>dir_f2c65bfcbdc19ebacbfc0bbbfb0d01b6&#45;&gt;dir_e4cd57caa88bf1f4e1bf9521bc47c3c0</title>
<path fill="none" stroke="#000000" d="M410.8821,-174.6776C389.5257,-184.9929 359.2498,-200.357 334,-216 264.7786,-258.8849 260.7028,-291.593 186,-324 142.4185,-342.9062 125.2032,-326.5968 81,-344 73.9839,-346.7623 66.8814,-350.4591 60.2345,-354.3983"/>
<polygon fill="#000000" stroke="#000000" points="58.1287,-351.587 51.5038,-359.8551 61.8388,-357.523 58.1287,-351.587"/>
<g id="a_edge9&#45;headlabel"><a xlink:href="dir_000010_000008.html" target="_top" xlink:title="9">
<text text-anchor="middle" x="59.6721" y="-344.7742" font-family="Helvetica,sans-Serif" font-size="10.00" fill="#000000">9</text>
</a>
</g>
</g>
<!-- dir_f2c65bfcbdc19ebacbfc0bbbfb0d01b6&#45;&gt;dir_3d3615e9a999cab4f3407307569d6ced -->
<g id="edge12" class="edge">
<title>dir_f2c65bfcbdc19ebacbfc0bbbfb0d01b6&#45;&gt;dir_3d3615e9a999cab4f3407307569d6ced</title>
<path fill="none" stroke="#000000" d="M410.7258,-179.6609C396.7784,-189.4253 380.0421,-202.3301 367,-216 348.6533,-235.2299 331.8213,-260.3619 320.3395,-279.1794"/>
<polygon fill="#000000" stroke="#000000" points="317.2791,-277.4777 315.1496,-287.8564 323.2865,-281.071 317.2791,-277.4777"/>
<g id="a_edge12&#45;headlabel"><a xlink:href="dir_000010_000012.html" target="_top" xlink:title="42">
<text text-anchor="middle" x="316.6875" y="-270.4354" font-family="Helvetica,sans-Serif" font-size="10.00" fill="#000000">42</text>
</a>
</g>
</g>
<!-- dir_35ffb1505af3943bdf99903da87524fe&#45;&gt;dir_e4cd57caa88bf1f4e1bf9521bc47c3c0 -->
<g id="edge15" class="edge">
<title>dir_35ffb1505af3943bdf99903da87524fe&#45;&gt;dir_e4cd57caa88bf1f4e1bf9521bc47c3c0</title>
<path fill="none" stroke="#000000" d="M69.2437,-438.6772C62.1631,-428.507 53.2312,-415.6775 45.4062,-404.438"/>
<polygon fill="#000000" stroke="#000000" points="48.2733,-402.4305 39.6872,-396.2234 42.5285,-406.4301 48.2733,-402.4305"/>
<g id="a_edge15&#45;headlabel"><a xlink:href="dir_000022_000008.html" target="_top" xlink:title="3">
<text text-anchor="middle" x="52.6573" y="-401.2583" font-family="Helvetica,sans-Serif" font-size="10.00" fill="#000000">3</text>
</a>
</g>
</g>
<!-- dir_35ffb1505af3943bdf99903da87524fe&#45;&gt;dir_3d3615e9a999cab4f3407307569d6ced -->
<g id="edge16" class="edge">
<title>dir_35ffb1505af3943bdf99903da87524fe&#45;&gt;dir_3d3615e9a999cab4f3407307569d6ced</title>
<path fill="none" stroke="#000000" d="M83.2474,-438.6584C85.9982,-413.3712 94.8072,-368.1891 123,-344 157.7295,-314.2025 179.2171,-333.4085 224,-324 238.2674,-321.0025 253.9131,-317.562 267.6176,-314.497"/>
<polygon fill="#000000" stroke="#000000" points="268.6745,-317.8469 277.6642,-312.2401 267.1401,-311.0171 268.6745,-317.8469"/>
<g id="a_edge16&#45;headlabel"><a xlink:href="dir_000022_000012.html" target="_top" xlink:title="2">
<text text-anchor="middle" x="265.7896" y="-318.905" font-family="Helvetica,sans-Serif" font-size="10.00" fill="#000000">2</text>
</a>
</g>
</g>
<!-- dir_0c368f76a33d967d5b838b5681461de6&#45;&gt;dir_4bb30ed846ea1df1fc4d16874a455d91 -->
<g id="edge20" class="edge">
<title>dir_0c368f76a33d967d5b838b5681461de6&#45;&gt;dir_4bb30ed846ea1df1fc4d16874a455d91</title>
<path fill="none" stroke="#000000" d="M621.7579,-97.3172C648.9578,-104.4762 683.5002,-118.2245 703,-144 749.4148,-205.3526 746.0946,-302.2767 740.9826,-349.8149"/>
<polygon fill="#000000" stroke="#000000" points="737.4786,-349.6424 739.778,-359.9847 744.43,-350.4659 737.4786,-349.6424"/>
<g id="a_edge20&#45;headlabel"><a xlink:href="dir_000001_000002.html" target="_top" xlink:title="4">
<text text-anchor="middle" x="735.0818" y="-343.2388" font-family="Helvetica,sans-Serif" font-size="10.00" fill="#000000">4</text>
</a>
</g>
</g>
<!-- dir_0c368f76a33d967d5b838b5681461de6&#45;&gt;dir_4012ff34c1bb5bd303e44a1c9cef6c8a -->
<g id="edge18" class="edge">
<title>dir_0c368f76a33d967d5b838b5681461de6&#45;&gt;dir_4012ff34c1bb5bd303e44a1c9cef6c8a</title>
<path fill="none" stroke="#000000" d="M621.6598,-100.2539C643.8747,-108.2494 669.7124,-121.8281 683,-144 722.8592,-210.5093 680.684,-305.1835 655.2917,-351.0407"/>
<polygon fill="#000000" stroke="#000000" points="652.2128,-349.3747 650.3149,-359.7982 658.2987,-352.8333 652.2128,-349.3747"/>
<g id="a_edge18&#45;headlabel"><a xlink:href="dir_000001_000003.html" target="_top" xlink:title="3">
<text text-anchor="middle" x="651.5202" y="-342.3467" font-family="Helvetica,sans-Serif" font-size="10.00" fill="#000000">3</text>
</a>
</g>
</g>
<!-- dir_0c368f76a33d967d5b838b5681461de6&#45;&gt;dir_e4cd57caa88bf1f4e1bf9521bc47c3c0 -->
<g id="edge17" class="edge">
<title>dir_0c368f76a33d967d5b838b5681461de6&#45;&gt;dir_e4cd57caa88bf1f4e1bf9521bc47c3c0</title>
<path fill="none" stroke="#000000" d="M542.4022,-94.5639C495.5056,-101.0318 415.8317,-115.4064 353,-144 230.2602,-199.8567 106.7557,-305.0235 53.813,-352.9997"/>
<polygon fill="#000000" stroke="#000000" points="51.2549,-350.5958 46.2271,-359.9217 55.9732,-355.7667 51.2549,-350.5958"/>
<g id="a_edge17&#45;headlabel"><a xlink:href="dir_000001_000008.html" target="_top" xlink:title="30">
<text text-anchor="middle" x="51.9964" y="-343.5756" font-family="Helvetica,sans-Serif" font-size="10.00" fill="#000000">30</text>
</a>
</g>
</g>
<!-- dir_0c368f76a33d967d5b838b5681461de6&#45;&gt;dir_a816a247b59c90f95e41afe29b966a18 -->
<g id="edge19" class="edge">
<title>dir_0c368f76a33d967d5b838b5681461de6&#45;&gt;dir_a816a247b59c90f95e41afe29b966a18</title>
<path fill="none" stroke="#000000" d="M582,-71.8314C582,-64.131 582,-54.9743 582,-46.4166"/>
<polygon fill="#000000" stroke="#000000" points="585.5001,-46.4132 582,-36.4133 578.5001,-46.4133 585.5001,-46.4132"/>
<g id="a_edge19&#45;headlabel"><a xlink:href="dir_000001_000018.html" target="_top" xlink:title="1">
<text text-anchor="middle" x="588.3393" y="-47.5079" font-family="Helvetica,sans-Serif" font-size="10.00" fill="#000000">1</text>
</a>
</g>
</g>
<!-- dir_0c368f76a33d967d5b838b5681461de6&#45;&gt;dir_3d3615e9a999cab4f3407307569d6ced -->
<g id="edge21" class="edge">
<title>dir_0c368f76a33d967d5b838b5681461de6&#45;&gt;dir_3d3615e9a999cab4f3407307569d6ced</title>
<path fill="none" stroke="#000000" d="M542.3497,-95.7838C504.1564,-102.7102 445.8736,-116.937 402,-144 364.538,-167.108 356.4136,-178.1184 334,-216 322.6267,-235.2223 315.1512,-259.4335 310.6429,-277.9014"/>
<polygon fill="#000000" stroke="#000000" points="307.2046,-277.2364 308.381,-287.7657 314.0275,-278.8009 307.2046,-277.2364"/>
<g id="a_edge21&#45;headlabel"><a xlink:href="dir_000001_000012.html" target="_top" xlink:title="22">
<text text-anchor="middle" x="305.2405" y="-270.5981" font-family="Helvetica,sans-Serif" font-size="10.00" fill="#000000">22</text>
</a>
</g>
</g>
<!-- dir_ebb19deee3cd40f4ac122fef25c04ca8&#45;&gt;dir_f2c65bfcbdc19ebacbfc0bbbfb0d01b6 -->
<g id="edge22" class="edge">
<title>dir_ebb19deee3cd40f4ac122fef25c04ca8&#45;&gt;dir_f2c65bfcbdc19ebacbfc0bbbfb0d01b6</title>
<path fill="none" stroke="#000000" d="M545.6627,-215.8314C523.7917,-204.8959 496.0472,-191.0236 474.2008,-180.1004"/>
<polygon fill="#000000" stroke="#000000" points="475.743,-176.9584 465.2334,-175.6167 472.6124,-183.2194 475.743,-176.9584"/>
<g id="a_edge22&#45;headlabel"><a xlink:href="dir_000009_000010.html" target="_top" xlink:title="2">
<text text-anchor="middle" x="480.2278" y="-173.5264" font-family="Helvetica,sans-Serif" font-size="10.00" fill="#000000">2</text>
</a>
</g>
</g>
<!-- dir_ebb19deee3cd40f4ac122fef25c04ca8&#45;&gt;dir_0c368f76a33d967d5b838b5681461de6 -->
<g id="edge23" class="edge">
<title>dir_ebb19deee3cd40f4ac122fef25c04ca8&#45;&gt;dir_0c368f76a33d967d5b838b5681461de6</title>
<path fill="none" stroke="#000000" d="M582,-215.7623C582,-191.201 582,-147.2474 582,-118.3541"/>
<polygon fill="#000000" stroke="#000000" points="585.5001,-118.0896 582,-108.0896 578.5001,-118.0897 585.5001,-118.0896"/>
<g id="a_edge23&#45;headlabel"><a xlink:href="dir_000009_000001.html" target="_top" xlink:title="1">
<text text-anchor="middle" x="588.3393" y="-119.1842" font-family="Helvetica,sans-Serif" font-size="10.00" fill="#000000">1</text>
</a>
</g>
</g>
<!-- dir_ebb19deee3cd40f4ac122fef25c04ca8&#45;&gt;dir_3d3615e9a999cab4f3407307569d6ced -->
<g id="edge24" class="edge">
<title>dir_ebb19deee3cd40f4ac122fef25c04ca8&#45;&gt;dir_3d3615e9a999cab4f3407307569d6ced</title>
<path fill="none" stroke="#000000" d="M522.7646,-250.9107C467.9598,-265.5648 388.309,-286.1564 341.9969,-297.5616"/>
<polygon fill="#000000" stroke="#000000" points="340.9687,-294.2098 332.0863,-299.9852 342.6315,-301.0095 340.9687,-294.2098"/>
<g id="a_edge24&#45;headlabel"><a xlink:href="dir_000009_000012.html" target="_top" xlink:title="8">
<text text-anchor="middle" x="343.786" y="-288.098" font-family="Helvetica,sans-Serif" font-size="10.00" fill="#000000">8</text>
</a>
</g>
</g>
<!-- dir_e4cd57caa88bf1f4e1bf9521bc47c3c0&#45;&gt;dir_3d3615e9a999cab4f3407307569d6ced -->
<g id="edge25" class="edge">
<title>dir_e4cd57caa88bf1f4e1bf9521bc47c3c0&#45;&gt;dir_3d3615e9a999cab4f3407307569d6ced</title>
<path fill="none" stroke="#000000" d="M35.838,-359.9725C42.0833,-353.9202 50.3494,-347.759 59,-344 123.1097,-316.1419 146.1437,-336.0388 215,-324 232.392,-320.9592 251.6969,-316.7042 268.0842,-313.0947"/>
<polygon fill="#000000" stroke="#000000" points="268.8504,-316.5099 277.8675,-310.9472 267.3496,-309.6727 268.8504,-316.5099"/>
<g id="a_edge25&#45;headlabel"><a xlink:href="dir_000008_000012.html" target="_top" xlink:title="17">
<text text-anchor="middle" x="265.9481" y="-317.5537" font-family="Helvetica,sans-Serif" font-size="10.00" fill="#000000">17</text>
</a>
</g>
</g>
<!-- dir_a816a247b59c90f95e41afe29b966a18&#45;&gt;dir_3d3615e9a999cab4f3407307569d6ced -->
<g id="edge32" class="edge">
<title>dir_a816a247b59c90f95e41afe29b966a18&#45;&gt;dir_3d3615e9a999cab4f3407307569d6ced</title>
<path fill="none" stroke="#000000" d="M552.1962,-28.0966C504.9053,-45.3763 412.0049,-84.6051 353,-144 327.3512,-169.8183 324.6869,-181.2116 314,-216 307.8613,-235.9829 305.6733,-259.5206 304.9872,-277.5122"/>
<polygon fill="#000000" stroke="#000000" points="301.4847,-277.5717 304.7351,-287.6556 308.4826,-277.7457 301.4847,-277.5717"/>
<g id="a_edge32&#45;headlabel"><a xlink:href="dir_000018_000012.html" target="_top" xlink:title="1">
<text text-anchor="middle" x="298.7355" y="-271.4077" font-family="Helvetica,sans-Serif" font-size="10.00" fill="#000000">1</text>
</a>
</g>
</g>
<!-- dir_3d3615e9a999cab4f3407307569d6ced&#45;&gt;dir_ebb19deee3cd40f4ac122fef25c04ca8 -->
<g id="edge35" class="edge">
<title>dir_3d3615e9a999cab4f3407307569d6ced&#45;&gt;dir_ebb19deee3cd40f4ac122fef25c04ca8</title>
<path fill="none" stroke="#000000" d="M332.027,-297.8108C373.6225,-286.3478 454.2961,-265.266 512.8186,-250.4806"/>
<polygon fill="#000000" stroke="#000000" points="513.8992,-253.8178 522.7411,-247.9809 512.1891,-247.0299 513.8992,-253.8178"/>
<g id="a_edge35&#45;headlabel"><a xlink:href="dir_000012_000009.html" target="_top" xlink:title="1">
<text text-anchor="middle" x="511.1071" y="-254.9492" font-family="Helvetica,sans-Serif" font-size="10.00" fill="#000000">1</text>
</a>
</g>
</g>
<!-- dir_3d3615e9a999cab4f3407307569d6ced&#45;&gt;dir_e4cd57caa88bf1f4e1bf9521bc47c3c0 -->
<g id="edge36" class="edge">
<title>dir_3d3615e9a999cab4f3407307569d6ced&#45;&gt;dir_e4cd57caa88bf1f4e1bf9521bc47c3c0</title>
<path fill="none" stroke="#000000" d="M277.6321,-314.6806C264.2036,-317.8987 247.8998,-321.3949 233,-324 164.1437,-336.0388 141.1097,-316.1419 77,-344 71.323,-346.4669 65.8117,-349.9682 60.6066,-353.7945"/>
<polygon fill="#000000" stroke="#000000" points="58.4246,-351.0576 52.6995,-359.9725 62.7344,-356.5736 58.4246,-351.0576"/>
<g id="a_edge36&#45;headlabel"><a xlink:href="dir_000012_000008.html" target="_top" xlink:title="1">
<text text-anchor="middle" x="59.509" y="-344.1072" font-family="Helvetica,sans-Serif" font-size="10.00" fill="#000000">1</text>
</a>
</g>
</g>
</g>
</svg>
        <g id="navigator" transform="translate(0 0)" fill="#404254">
                <rect fill="#f2f5e9" fill-opacity="0.5" stroke="#606060" stroke-width=".5" x="0" y="0" width="60" height="60"/>
                <use id="zoomplus" xlink:href="#zoomPlus" x="17" y="9" onmousedown="handleZoom(evt,'in')"/>
                <use id="zoomminus" xlink:href="#zoomMin" x="42" y="9" onmousedown="handleZoom(evt,'out')"/>
                <use id="reset" xlink:href="#resetDef" x="30" y="36" onmousedown="handleReset()"/>
                <g id="arrowUp" xlink:href="#dirArrow" transform="translate(30 24)" onmousedown="handlePan(0,-1)">
                  <use xlink:href="#rim" fill="#404040">
                        <set attributeName="fill" to="#808080" begin="arrowUp.mouseover" end="arrowUp.mouseout"/>
                  </use>
                  <path fill="none" stroke="white" stroke-width="1.5" d="M0,-3.0v7 M-2.5,-0.5L0,-3.0L2.5,-0.5"/>
                </g>
                <g id="arrowRight" xlink:href="#dirArrow" transform="rotate(90) translate(36 -43)" onmousedown="handlePan(1,0)">
                  <use xlink:href="#rim" fill="#404040">
                        <set attributeName="fill" to="#808080" begin="arrowRight.mouseover" end="arrowRight.mouseout"/>
                  </use>
                  <path fill="none" stroke="white" stroke-width="1.5" d="M0,-3.0v7 M-2.5,-0.5L0,-3.0L2.5,-0.5"/>
                </g>
                <g id="arrowDown" xlink:href="#dirArrow" transform="rotate(180) translate(-30 -48)" onmousedown="handlePan(0,1)">
                  <use xlink:href="#rim" fill="#404040">
                        <set attributeName="fill" to="#808080" begin="arrowDown.mouseover" end="arrowDown.mouseout"/>
                  </use>
                  <path fill="none" stroke="white" stroke-width="1.5" d="M0,-3.0v7 M-2.5,-0.5L0,-3.0L2.5,-0.5"/>
                </g>
                <g id="arrowLeft" xlink:href="#dirArrow" transform="rotate(270) translate(-36 17)" onmousedown="handlePan(-1,0)">
                  <use xlink:href="#rim" fill="#404040">
                        <set attributeName="fill" to="#808080" begin="arrowLeft.mouseover" end="arrowLeft.mouseout"/>
                  </use>
                  <path fill="none" stroke="white" stroke-width="1.5" d="M0,-3.0v7 M-2.5,-0.5L0,-3.0L2.5,-0.5"/>
                </g>
        </g>
        <svg viewBox="0 0 15 15" width="100%" height="30px" preserveAspectRatio="xMaxYMin meet">
         <g id="arrow_out" transform="scale(0.3 0.3)">
          <a xlink:href="dir_4bb30ed846ea1df1fc4d16874a455d91_dep_org.svg" target="_base">
           <rect id="button" ry="5" rx="5" y="6" x="6" height="38" width="38"
                fill="#f2f5e9" fill-opacity="0.5" stroke="#606060" stroke-width="1.0"/>
           <path id="arrow"
             d="M 11.500037,31.436501 C 11.940474,20.09759 22.043105,11.32322 32.158766,21.979434 L 37.068811,17.246167 C 37.068811,17.246167 37.088388,32 37.088388,32 L 22.160133,31.978069 C 22.160133,31.978069 26.997745,27.140456 26.997745,27.140456 C 18.528582,18.264221 13.291696,25.230495 11.500037,31.436501 z"
             style="fill:#404040;"/>
          </a>
         </g>
        </svg>
</svg>
