<?xml version="1.0" encoding="UTF-8" standalone="no"?>
<!DOCTYPE svg PUBLIC "-//W3C//DTD SVG 1.1//EN"
 "http://www.w3.org/Graphics/SVG/1.1/DTD/svg11.dtd">
<!-- Generated by graphviz version 2.40.1 (20161225.0304)
 -->
<!-- Title: core Pages: 1 -->
<svg width="206pt" height="159pt"
 viewBox="0.00 0.00 206.00 159.00" xmlns="http://www.w3.org/2000/svg" xmlns:xlink="http://www.w3.org/1999/xlink">
<g id="graph0" class="graph" transform="scale(1 1) rotate(0) translate(4 155)">
<title>core</title>
<polygon fill="#ffffff" stroke="transparent" points="-4,4 -4,-155 202,-155 202,4 -4,4"/>
<g id="clust1" class="cluster">
<title>clusterdir_d85575251dd712327fe3cf057fa568b4</title>
<g id="a_clust1"><a xlink:href="dir_d85575251dd712327fe3cf057fa568b4.html" target="_top" xlink:title="amr&#45;wind">
<polygon fill="#ddddee" stroke="#000000" points="32,-56 32,-143 190,-143 190,-56 32,-56"/>
<text text-anchor="middle" x="111" y="-131" font-family="Helvetica,sans-Serif" font-size="10.00" fill="#000000">amr&#45;wind</text>
</a>
</g>
</g>
<g id="clust2" class="cluster">
<title>clusterdir_3d3615e9a999cab4f3407307569d6ced</title>
<g id="a_clust2"><a xlink:href="dir_3d3615e9a999cab4f3407307569d6ced.html" target="_top">
<polygon fill="#eeeeff" stroke="#000000" points="40,-64 40,-116 182,-116 182,-64 40,-64"/>
</a>
</g>
</g>
<!-- dir_3d3615e9a999cab4f3407307569d6ced -->
<g id="node1" class="node">
<title>dir_3d3615e9a999cab4f3407307569d6ced</title>
<text text-anchor="middle" x="75" y="-87.5" font-family="Helvetica,sans-Serif" font-size="10.00" fill="#000000">core</text>
</g>
<!-- dir_ebb19deee3cd40f4ac122fef25c04ca8 -->
<g id="node3" class="node">
<title>dir_ebb19deee3cd40f4ac122fef25c04ca8</title>
<g id="a_node3"><a xlink:href="dir_ebb19deee3cd40f4ac122fef25c04ca8.html" target="_top" xlink:title="boundary_conditions">
<polygon fill="none" stroke="#000000" points="118,-36 0,-36 0,0 118,0 118,-36"/>
<text text-anchor="middle" x="59" y="-15.5" font-family="Helvetica,sans-Serif" font-size="10.00" fill="#000000">boundary_conditions</text>
</a>
</g>
</g>
<!-- dir_3d3615e9a999cab4f3407307569d6ced&#45;&gt;dir_ebb19deee3cd40f4ac122fef25c04ca8 -->
<g id="edge4" class="edge">
<title>dir_3d3615e9a999cab4f3407307569d6ced&#45;&gt;dir_ebb19deee3cd40f4ac122fef25c04ca8</title>
<path fill="none" stroke="#000000" d="M65.0101,-71.8314C62.5485,-64.131 60.2928,-54.9743 58.6997,-46.4166"/>
<polygon fill="#000000" stroke="#000000" points="62.1367,-45.7428 57.1158,-36.4133 55.2229,-46.8376 62.1367,-45.7428"/>
<g id="a_edge4&#45;headlabel"><a xlink:href="dir_000012_000009.html" target="_top" xlink:title="1">
<text text-anchor="middle" x="65.5031" y="-46.3492" font-family="Helvetica,sans-Serif" font-size="10.00" fill="#000000">1</text>
</a>
</g>
</g>
<!-- dir_746f6964e321f098213c94f0f6cc69fe -->
<g id="node2" class="node">
<title>dir_746f6964e321f098213c94f0f6cc69fe</title>
<g id="a_node2"><a xlink:href="dir_746f6964e321f098213c94f0f6cc69fe.html" target="_top" xlink:title="vs">
<polygon fill="#ffffff" stroke="#000000" points="174,-108 120,-108 120,-72 174,-72 174,-108"/>
<text text-anchor="middle" x="147" y="-87.5" font-family="Helvetica,sans-Serif" font-size="10.00" fill="#000000">vs</text>
</a>
</g>
</g>
<!-- dir_e4cd57caa88bf1f4e1bf9521bc47c3c0 -->
<g id="node4" class="node">
<title>dir_e4cd57caa88bf1f4e1bf9521bc47c3c0</title>
<g id="a_node4"><a xlink:href="dir_e4cd57caa88bf1f4e1bf9521bc47c3c0.html" target="_top" xlink:title="utilities">
<polygon fill="#ffffff" stroke="#ff0000" points="190,-36 136,-36 136,0 190,0 190,-36"/>
<text text-anchor="middle" x="163" y="-15.5" font-family="Helvetica,sans-Serif" font-size="10.00" fill="#000000">utilities</text>
</a>
</g>
</g>
<!-- dir_746f6964e321f098213c94f0f6cc69fe&#45;&gt;dir_e4cd57caa88bf1f4e1bf9521bc47c3c0 -->
<g id="edge2" class="edge">
<title>dir_746f6964e321f098213c94f0f6cc69fe&#45;&gt;dir_e4cd57caa88bf1f4e1bf9521bc47c3c0</title>
<path fill="none" stroke="#000000" d="M145.0851,-71.8314C146.0564,-64.0463 147.8997,-54.7729 150.1431,-46.1347"/>
<polygon fill="#000000" stroke="#000000" points="153.5387,-46.9907 152.9322,-36.4133 146.8101,-45.0603 153.5387,-46.9907"/>
<g id="a_edge2&#45;headlabel"><a xlink:href="dir_000041_000008.html" target="_top" xlink:title="1">
<text text-anchor="middle" x="155.2766" y="-48.7289" font-family="Helvetica,sans-Serif" font-size="10.00" fill="#000000">1</text>
</a>
</g>
</g>
<!-- dir_ebb19deee3cd40f4ac122fef25c04ca8&#45;&gt;dir_3d3615e9a999cab4f3407307569d6ced -->
<g id="edge1" class="edge">
<title>dir_ebb19deee3cd40f4ac122fef25c04ca8&#45;&gt;dir_3d3615e9a999cab4f3407307569d6ced</title>
<path fill="none" stroke="#000000" d="M69.0678,-36.4133C71.5251,-44.1442 73.7715,-53.3097 75.3506,-61.8545"/>
<polygon fill="#000000" stroke="#000000" points="71.908,-62.4943 76.9149,-71.8314 78.8235,-61.4099 71.908,-62.4943"/>
<g id="a_edge1&#45;headlabel"><a xlink:href="dir_000009_000012.html" target="_top" xlink:title="8">
<text text-anchor="middle" x="68.5463" y="-56.8828" font-family="Helvetica,sans-Serif" font-size="10.00" fill="#000000">8</text>
</a>
</g>
</g>
<!-- dir_e4cd57caa88bf1f4e1bf9521bc47c3c0&#45;&gt;dir_746f6964e321f098213c94f0f6cc69fe -->
<g id="edge3" class="edge">
<title>dir_e4cd57caa88bf1f4e1bf9521bc47c3c0&#45;&gt;dir_746f6964e321f098213c94f0f6cc69fe</title>
<path fill="none" stroke="#000000" d="M164.8842,-36.4133C163.8947,-44.2292 162.0381,-53.5113 159.7864,-62.136"/>
<polygon fill="#000000" stroke="#000000" points="156.3984,-61.253 156.9899,-71.8314 163.1243,-63.1931 156.3984,-61.253"/>
<g id="a_edge3&#45;headlabel"><a xlink:href="dir_000008_000041.html" target="_top" xlink:title="2">
<text text-anchor="middle" x="154.6665" y="-54.5124" font-family="Helvetica,sans-Serif" font-size="10.00" fill="#000000">2</text>
</a>
</g>
</g>
</g>
</svg>
