<?xml version="1.0" encoding="UTF-8" standalone="no"?>
<!DOCTYPE svg PUBLIC "-//W3C//DTD SVG 1.1//EN"
 "http://www.w3.org/Graphics/SVG/1.1/DTD/svg11.dtd">
<!-- Generated by graphviz version 2.40.1 (20161225.0304)
 -->
<!-- Title: wind_energy Pages: 1 -->
<svg width="316pt" height="325pt"
 viewBox="0.00 0.00 316.00 324.65" xmlns="http://www.w3.org/2000/svg" xmlns:xlink="http://www.w3.org/1999/xlink">
<g id="graph0" class="graph" transform="scale(1 1) rotate(0) translate(4 320.6518)">
<title>wind_energy</title>
<polygon fill="#ffffff" stroke="transparent" points="-4,4 -4,-320.6518 312,-320.6518 312,4 -4,4"/>
<g id="clust1" class="cluster">
<title>clusterdir_d85575251dd712327fe3cf057fa568b4</title>
<g id="a_clust1"><a xlink:href="dir_d85575251dd712327fe3cf057fa568b4.html" target="_top" xlink:title="amr&#45;wind">
<polygon fill="#ddddee" stroke="#000000" points="8,-200 8,-287 194,-287 194,-200 8,-200"/>
<text text-anchor="middle" x="101" y="-275" font-family="Helvetica,sans-Serif" font-size="10.00" fill="#000000">amr&#45;wind</text>
</a>
</g>
</g>
<g id="clust2" class="cluster">
<title>clusterdir_0c368f76a33d967d5b838b5681461de6</title>
<g id="a_clust2"><a xlink:href="dir_0c368f76a33d967d5b838b5681461de6.html" target="_top">
<polygon fill="#eeeeff" stroke="#000000" points="16,-208 16,-260 186,-260 186,-208 16,-208"/>
</a>
</g>
</g>
<!-- dir_0c368f76a33d967d5b838b5681461de6 -->
<g id="node1" class="node">
<title>dir_0c368f76a33d967d5b838b5681461de6</title>
<text text-anchor="middle" x="139" y="-231.5" font-family="Helvetica,sans-Serif" font-size="10.00" fill="#000000">wind_energy</text>
</g>
<!-- dir_7f7a014517bfe31ea45620a6a947e37b -->
<g id="node4" class="node">
<title>dir_7f7a014517bfe31ea45620a6a947e37b</title>
<g id="a_node4"><a xlink:href="dir_7f7a014517bfe31ea45620a6a947e37b.html" target="_top" xlink:title="fvm">
<polygon fill="none" stroke="#000000" points="149,-180 95,-180 95,-144 149,-144 149,-180"/>
<text text-anchor="middle" x="122" y="-159.5" font-family="Helvetica,sans-Serif" font-size="10.00" fill="#000000">fvm</text>
</a>
</g>
</g>
<!-- dir_0c368f76a33d967d5b838b5681461de6&#45;&gt;dir_7f7a014517bfe31ea45620a6a947e37b -->
<g id="edge1" class="edge">
<title>dir_0c368f76a33d967d5b838b5681461de6&#45;&gt;dir_7f7a014517bfe31ea45620a6a947e37b</title>
<path fill="none" stroke="#000000" d="M134.7102,-215.8314C132.892,-208.131 130.7301,-198.9743 128.7095,-190.4166"/>
<polygon fill="#000000" stroke="#000000" points="132.0519,-189.3414 126.3476,-180.4133 125.2392,-190.95 132.0519,-189.3414"/>
<g id="a_edge1&#45;headlabel"><a xlink:href="dir_000001_000014.html" target="_top" xlink:title="1">
<text text-anchor="middle" x="135.6412" y="-189.6874" font-family="Helvetica,sans-Serif" font-size="10.00" fill="#000000">1</text>
</a>
</g>
</g>
<!-- dir_a816a247b59c90f95e41afe29b966a18 -->
<g id="node5" class="node">
<title>dir_a816a247b59c90f95e41afe29b966a18</title>
<g id="a_node5"><a xlink:href="dir_a816a247b59c90f95e41afe29b966a18.html" target="_top" xlink:title="diffusion">
<polygon fill="none" stroke="#000000" points="226.5,-180 167.5,-180 167.5,-144 226.5,-144 226.5,-180"/>
<text text-anchor="middle" x="197" y="-159.5" font-family="Helvetica,sans-Serif" font-size="10.00" fill="#000000">diffusion</text>
</a>
</g>
</g>
<!-- dir_0c368f76a33d967d5b838b5681461de6&#45;&gt;dir_a816a247b59c90f95e41afe29b966a18 -->
<g id="edge2" class="edge">
<title>dir_0c368f76a33d967d5b838b5681461de6&#45;&gt;dir_a816a247b59c90f95e41afe29b966a18</title>
<path fill="none" stroke="#000000" d="M153.6358,-215.8314C160.3161,-207.5386 168.3568,-197.557 175.6904,-188.4533"/>
<polygon fill="#000000" stroke="#000000" points="178.6194,-190.3965 182.1671,-180.4133 173.1681,-186.0052 178.6194,-190.3965"/>
<g id="a_edge2&#45;headlabel"><a xlink:href="dir_000001_000018.html" target="_top" xlink:title="1">
<text text-anchor="middle" x="178.5755" y="-192.4769" font-family="Helvetica,sans-Serif" font-size="10.00" fill="#000000">1</text>
</a>
</g>
</g>
<!-- dir_4bb30ed846ea1df1fc4d16874a455d91 -->
<g id="node6" class="node">
<title>dir_4bb30ed846ea1df1fc4d16874a455d91</title>
<g id="a_node6"><a xlink:href="dir_4bb30ed846ea1df1fc4d16874a455d91.html" target="_top" xlink:title="equation_systems">
<polygon fill="#ffffff" stroke="#ff0000" points="308,-252 202,-252 202,-216 308,-216 308,-252"/>
<text text-anchor="middle" x="255" y="-231.5" font-family="Helvetica,sans-Serif" font-size="10.00" fill="#000000">equation_systems</text>
</a>
</g>
</g>
<!-- dir_0c368f76a33d967d5b838b5681461de6&#45;&gt;dir_4bb30ed846ea1df1fc4d16874a455d91 -->
<g id="edge3" class="edge">
<title>dir_0c368f76a33d967d5b838b5681461de6&#45;&gt;dir_4bb30ed846ea1df1fc4d16874a455d91</title>
<path fill="none" stroke="#000000" d="M178.875,-234C183.1682,-234 187.4614,-234 191.7545,-234"/>
<polygon fill="#000000" stroke="#000000" points="191.772,-237.5001 201.772,-234 191.7719,-230.5001 191.772,-237.5001"/>
<g id="a_edge3&#45;headlabel"><a xlink:href="dir_000001_000002.html" target="_top" xlink:title="4">
<text text-anchor="middle" x="188.1774" y="-237.8393" font-family="Helvetica,sans-Serif" font-size="10.00" fill="#000000">4</text>
</a>
</g>
</g>
<!-- dir_7ecfdf414f04b0541a95d392dbc1e5c0 -->
<g id="node2" class="node">
<title>dir_7ecfdf414f04b0541a95d392dbc1e5c0</title>
<g id="a_node2"><a xlink:href="dir_7ecfdf414f04b0541a95d392dbc1e5c0.html" target="_top" xlink:title="actuator">
<polygon fill="#ffffff" stroke="#ff0000" points="81.5,-252 24.5,-252 24.5,-216 81.5,-216 81.5,-252"/>
<text text-anchor="middle" x="53" y="-231.5" font-family="Helvetica,sans-Serif" font-size="10.00" fill="#000000">actuator</text>
</a>
</g>
</g>
<!-- dir_e4cd57caa88bf1f4e1bf9521bc47c3c0 -->
<g id="node3" class="node">
<title>dir_e4cd57caa88bf1f4e1bf9521bc47c3c0</title>
<g id="a_node3"><a xlink:href="dir_e4cd57caa88bf1f4e1bf9521bc47c3c0.html" target="_top" xlink:title="utilities">
<polygon fill="#ffffff" stroke="#ff0000" points="204,-36 150,-36 150,0 204,0 204,-36"/>
<text text-anchor="middle" x="177" y="-15.5" font-family="Helvetica,sans-Serif" font-size="10.00" fill="#000000">utilities</text>
</a>
</g>
</g>
<!-- dir_7ecfdf414f04b0541a95d392dbc1e5c0&#45;&gt;dir_e4cd57caa88bf1f4e1bf9521bc47c3c0 -->
<g id="edge6" class="edge">
<title>dir_7ecfdf414f04b0541a95d392dbc1e5c0&#45;&gt;dir_e4cd57caa88bf1f4e1bf9521bc47c3c0</title>
<path fill="none" stroke="#000000" d="M51.8669,-215.9198C51.3921,-197.1287 52.6465,-167.2688 63,-144 81.2584,-102.9656 118.1211,-66.1736 145.0011,-43.0916"/>
<polygon fill="#000000" stroke="#000000" points="147.5859,-45.4913 152.991,-36.3789 143.0831,-40.1317 147.5859,-45.4913"/>
<g id="a_edge6&#45;headlabel"><a xlink:href="dir_000005_000008.html" target="_top" xlink:title="9">
<text text-anchor="middle" x="146.6601" y="-47.4774" font-family="Helvetica,sans-Serif" font-size="10.00" fill="#000000">9</text>
</a>
</g>
</g>
<!-- dir_3d3615e9a999cab4f3407307569d6ced -->
<g id="node7" class="node">
<title>dir_3d3615e9a999cab4f3407307569d6ced</title>
<g id="a_node7"><a xlink:href="dir_3d3615e9a999cab4f3407307569d6ced.html" target="_top" xlink:title="core">
<polygon fill="#ffffff" stroke="#ff0000" points="204,-108 150,-108 150,-72 204,-72 204,-108"/>
<text text-anchor="middle" x="177" y="-87.5" font-family="Helvetica,sans-Serif" font-size="10.00" fill="#000000">core</text>
</a>
</g>
</g>
<!-- dir_7ecfdf414f04b0541a95d392dbc1e5c0&#45;&gt;dir_3d3615e9a999cab4f3407307569d6ced -->
<g id="edge7" class="edge">
<title>dir_7ecfdf414f04b0541a95d392dbc1e5c0&#45;&gt;dir_3d3615e9a999cab4f3407307569d6ced</title>
<path fill="none" stroke="#000000" d="M55.8923,-215.9742C59.8143,-196.4026 68.4502,-165.1196 86,-144 100.4634,-126.5945 122.0787,-113.4362 140.6138,-104.4678"/>
<polygon fill="#000000" stroke="#000000" points="142.0794,-107.6462 149.6951,-100.2807 139.1484,-101.2894 142.0794,-107.6462"/>
<g id="a_edge7&#45;headlabel"><a xlink:href="dir_000005_000012.html" target="_top" xlink:title="15">
<text text-anchor="middle" x="140.0038" y="-109.2297" font-family="Helvetica,sans-Serif" font-size="10.00" fill="#000000">15</text>
</a>
</g>
</g>
<!-- dir_e4cd57caa88bf1f4e1bf9521bc47c3c0&#45;&gt;dir_7f7a014517bfe31ea45620a6a947e37b -->
<g id="edge4" class="edge">
<title>dir_e4cd57caa88bf1f4e1bf9521bc47c3c0&#45;&gt;dir_7f7a014517bfe31ea45620a6a947e37b</title>
<path fill="none" stroke="#000000" d="M162.1147,-36.4815C154.7538,-46.4704 146.328,-59.3284 141,-72 132.6694,-91.8124 127.8467,-115.6679 125.1459,-133.8395"/>
<polygon fill="#000000" stroke="#000000" points="121.6698,-133.4279 123.7905,-143.8083 128.6059,-134.3711 121.6698,-133.4279"/>
<g id="a_edge4&#45;headlabel"><a xlink:href="dir_000008_000014.html" target="_top" xlink:title="1">
<text text-anchor="middle" x="119.3406" y="-126.9836" font-family="Helvetica,sans-Serif" font-size="10.00" fill="#000000">1</text>
</a>
</g>
</g>
<!-- dir_e4cd57caa88bf1f4e1bf9521bc47c3c0&#45;&gt;dir_3d3615e9a999cab4f3407307569d6ced -->
<g id="edge5" class="edge">
<title>dir_e4cd57caa88bf1f4e1bf9521bc47c3c0&#45;&gt;dir_3d3615e9a999cab4f3407307569d6ced</title>
<path fill="none" stroke="#000000" d="M182.976,-36.4133C183.7071,-44.0593 183.9203,-53.1084 183.6155,-61.5726"/>
<polygon fill="#000000" stroke="#000000" points="180.1048,-61.6264 182.9524,-71.8314 187.0902,-62.078 180.1048,-61.6264"/>
<g id="a_edge5&#45;headlabel"><a xlink:href="dir_000008_000012.html" target="_top" xlink:title="17">
<text text-anchor="middle" x="177.5032" y="-55.3562" font-family="Helvetica,sans-Serif" font-size="10.00" fill="#000000">17</text>
</a>
</g>
</g>
<!-- dir_7f7a014517bfe31ea45620a6a947e37b&#45;&gt;dir_3d3615e9a999cab4f3407307569d6ced -->
<g id="edge8" class="edge">
<title>dir_7f7a014517bfe31ea45620a6a947e37b&#45;&gt;dir_3d3615e9a999cab4f3407307569d6ced</title>
<path fill="none" stroke="#000000" d="M135.8788,-143.8314C142.2136,-135.5386 149.8384,-125.557 156.7926,-116.4533"/>
<polygon fill="#000000" stroke="#000000" points="159.6452,-118.4847 162.9343,-108.4133 154.0825,-114.2353 159.6452,-118.4847"/>
<g id="a_edge8&#45;headlabel"><a xlink:href="dir_000014_000012.html" target="_top" xlink:title="1">
<text text-anchor="middle" x="159.7195" y="-120.5647" font-family="Helvetica,sans-Serif" font-size="10.00" fill="#000000">1</text>
</a>
</g>
</g>
<!-- dir_a816a247b59c90f95e41afe29b966a18&#45;&gt;dir_3d3615e9a999cab4f3407307569d6ced -->
<g id="edge9" class="edge">
<title>dir_a816a247b59c90f95e41afe29b966a18&#45;&gt;dir_3d3615e9a999cab4f3407307569d6ced</title>
<path fill="none" stroke="#000000" d="M191.9532,-143.8314C189.7906,-136.0463 187.2147,-126.7729 184.8152,-118.1347"/>
<polygon fill="#000000" stroke="#000000" points="188.1636,-117.1117 182.1148,-108.4133 181.419,-118.9852 188.1636,-117.1117"/>
<g id="a_edge9&#45;headlabel"><a xlink:href="dir_000018_000012.html" target="_top" xlink:title="1">
<text text-anchor="middle" x="191.8613" y="-117.3153" font-family="Helvetica,sans-Serif" font-size="10.00" fill="#000000">1</text>
</a>
</g>
</g>
<!-- dir_4bb30ed846ea1df1fc4d16874a455d91&#45;&gt;dir_7ecfdf414f04b0541a95d392dbc1e5c0 -->
<g id="edge12" class="edge">
<title>dir_4bb30ed846ea1df1fc4d16874a455d91&#45;&gt;dir_7ecfdf414f04b0541a95d392dbc1e5c0</title>
<path fill="none" stroke="#000000" d="M242.491,-252.3064C229.4496,-269.6071 207.2645,-294.4378 181,-305 147.5996,-318.4319 131.7126,-322.0386 100,-305 82.8538,-295.7877 70.9118,-277.269 63.3566,-261.4543"/>
<polygon fill="#000000" stroke="#000000" points="66.452,-259.7995 59.212,-252.0643 60.0481,-262.6261 66.452,-259.7995"/>
<g id="a_edge12&#45;headlabel"><a xlink:href="dir_000002_000005.html" target="_top" xlink:title="1">
<text text-anchor="middle" x="70.501" y="-259.4415" font-family="Helvetica,sans-Serif" font-size="10.00" fill="#000000">1</text>
</a>
</g>
</g>
<!-- dir_4bb30ed846ea1df1fc4d16874a455d91&#45;&gt;dir_e4cd57caa88bf1f4e1bf9521bc47c3c0 -->
<g id="edge11" class="edge">
<title>dir_4bb30ed846ea1df1fc4d16874a455d91&#45;&gt;dir_e4cd57caa88bf1f4e1bf9521bc47c3c0</title>
<path fill="none" stroke="#000000" d="M258.1215,-215.6911C260.5962,-197.2321 262.6491,-168.1012 256,-144 245.4966,-105.9282 219.3399,-68.368 199.9862,-44.3008"/>
<polygon fill="#000000" stroke="#000000" points="202.5181,-41.8693 193.4611,-36.3719 197.113,-46.3174 202.5181,-41.8693"/>
<g id="a_edge11&#45;headlabel"><a xlink:href="dir_000002_000008.html" target="_top" xlink:title="10">
<text text-anchor="middle" x="206.9945" y="-40.3407" font-family="Helvetica,sans-Serif" font-size="10.00" fill="#000000">10</text>
</a>
</g>
</g>
<!-- dir_4bb30ed846ea1df1fc4d16874a455d91&#45;&gt;dir_a816a247b59c90f95e41afe29b966a18 -->
<g id="edge13" class="edge">
<title>dir_4bb30ed846ea1df1fc4d16874a455d91&#45;&gt;dir_a816a247b59c90f95e41afe29b966a18</title>
<path fill="none" stroke="#000000" d="M240.3642,-215.8314C233.6839,-207.5386 225.6432,-197.557 218.3096,-188.4533"/>
<polygon fill="#000000" stroke="#000000" points="220.8319,-186.0052 211.8329,-180.4133 215.3806,-190.3965 220.8319,-186.0052"/>
<g id="a_edge13&#45;headlabel"><a xlink:href="dir_000002_000018.html" target="_top" xlink:title="1">
<text text-anchor="middle" x="225.2979" y="-184.5233" font-family="Helvetica,sans-Serif" font-size="10.00" fill="#000000">1</text>
</a>
</g>
</g>
<!-- dir_4bb30ed846ea1df1fc4d16874a455d91&#45;&gt;dir_3d3615e9a999cab4f3407307569d6ced -->
<g id="edge14" class="edge">
<title>dir_4bb30ed846ea1df1fc4d16874a455d91&#45;&gt;dir_3d3615e9a999cab4f3407307569d6ced</title>
<path fill="none" stroke="#000000" d="M254.4097,-215.9466C253.0809,-196.9105 248.9076,-166.6045 236,-144 229.76,-133.0722 220.5442,-123.1142 211.2414,-114.8088"/>
<polygon fill="#000000" stroke="#000000" points="213.3656,-112.0213 203.4701,-108.2359 208.8451,-117.366 213.3656,-112.0213"/>
<g id="a_edge14&#45;headlabel"><a xlink:href="dir_000002_000012.html" target="_top" xlink:title="54">
<text text-anchor="middle" x="217.9437" y="-109.6748" font-family="Helvetica,sans-Serif" font-size="10.00" fill="#000000">54</text>
</a>
</g>
</g>
<!-- dir_3d3615e9a999cab4f3407307569d6ced&#45;&gt;dir_e4cd57caa88bf1f4e1bf9521bc47c3c0 -->
<g id="edge10" class="edge">
<title>dir_3d3615e9a999cab4f3407307569d6ced&#45;&gt;dir_e4cd57caa88bf1f4e1bf9521bc47c3c0</title>
<path fill="none" stroke="#000000" d="M171.0476,-71.8314C170.2972,-64.131 170.0763,-54.9743 170.3849,-46.4166"/>
<polygon fill="#000000" stroke="#000000" points="173.8792,-46.6161 171.024,-36.4133 166.8935,-46.1697 173.8792,-46.6161"/>
<g id="a_edge10&#45;headlabel"><a xlink:href="dir_000012_000008.html" target="_top" xlink:title="1">
<text text-anchor="middle" x="176.4836" y="-47.8844" font-family="Helvetica,sans-Serif" font-size="10.00" fill="#000000">1</text>
</a>
</g>
</g>
</g>
</svg>
