<?xml version="1.0" encoding="UTF-8" standalone="no"?>
<!DOCTYPE svg PUBLIC "-//W3C//DTD SVG 1.1//EN"
 "http://www.w3.org/Graphics/SVG/1.1/DTD/svg11.dtd">
<!-- Generated by graphviz version 2.40.1 (20161225.0304)
 -->
<!-- Title: utilities Pages: 1 -->
<svg width="367pt" height="231pt"
 viewBox="0.00 0.00 366.72 231.00" xmlns="http://www.w3.org/2000/svg" xmlns:xlink="http://www.w3.org/1999/xlink">
<g id="graph0" class="graph" transform="scale(1 1) rotate(0) translate(4 227)">
<title>utilities</title>
<polygon fill="#ffffff" stroke="transparent" points="-4,4 -4,-227 362.7168,-227 362.7168,4 -4,4"/>
<g id="clust1" class="cluster">
<title>clusterdir_d85575251dd712327fe3cf057fa568b4</title>
<g id="a_clust1"><a xlink:href="dir_d85575251dd712327fe3cf057fa568b4.html" target="_top" xlink:title="amr&#45;wind">
<polygon fill="#ddddee" stroke="#000000" points="8,-56 8,-215 246,-215 246,-56 8,-56"/>
<text text-anchor="middle" x="127" y="-203" font-family="Helvetica,sans-Serif" font-size="10.00" fill="#000000">amr&#45;wind</text>
</a>
</g>
</g>
<g id="clust2" class="cluster">
<title>clusterdir_e4cd57caa88bf1f4e1bf9521bc47c3c0</title>
<g id="a_clust2"><a xlink:href="dir_e4cd57caa88bf1f4e1bf9521bc47c3c0.html" target="_top">
<polygon fill="#eeeeff" stroke="#000000" points="16,-64 16,-188 238,-188 238,-64 16,-64"/>
</a>
</g>
</g>
<!-- dir_e4cd57caa88bf1f4e1bf9521bc47c3c0 -->
<g id="node1" class="node">
<title>dir_e4cd57caa88bf1f4e1bf9521bc47c3c0</title>
<text text-anchor="middle" x="51" y="-159.5" font-family="Helvetica,sans-Serif" font-size="10.00" fill="#000000">utilities</text>
</g>
<!-- dir_a925f5bb87732fc4d72dcc12cc6db92b -->
<g id="node2" class="node">
<title>dir_a925f5bb87732fc4d72dcc12cc6db92b</title>
<g id="a_node2"><a xlink:href="dir_a925f5bb87732fc4d72dcc12cc6db92b.html" target="_top" xlink:title="averaging">
<polygon fill="#ffffff" stroke="#000000" points="89.5,-108 24.5,-108 24.5,-72 89.5,-72 89.5,-108"/>
<text text-anchor="middle" x="57" y="-87.5" font-family="Helvetica,sans-Serif" font-size="10.00" fill="#000000">averaging</text>
</a>
</g>
</g>
<!-- dir_e4cd57caa88bf1f4e1bf9521bc47c3c0&#45;&gt;dir_a925f5bb87732fc4d72dcc12cc6db92b -->
<g id="edge5" class="edge">
<title>dir_e4cd57caa88bf1f4e1bf9521bc47c3c0&#45;&gt;dir_a925f5bb87732fc4d72dcc12cc6db92b</title>
<path fill="none" stroke="#000000" d="M52.5141,-143.8314C53.1558,-136.131 53.9188,-126.9743 54.6319,-118.4166"/>
<polygon fill="#000000" stroke="#000000" points="58.1229,-118.6694 55.4656,-108.4133 51.1471,-118.088 58.1229,-118.6694"/>
<g id="a_edge5&#45;headlabel"><a xlink:href="dir_000008_000037.html" target="_top" xlink:title="1">
<text text-anchor="middle" x="60.654" y="-119.9874" font-family="Helvetica,sans-Serif" font-size="10.00" fill="#000000">1</text>
</a>
</g>
</g>
<!-- dir_7f7a014517bfe31ea45620a6a947e37b -->
<g id="node6" class="node">
<title>dir_7f7a014517bfe31ea45620a6a947e37b</title>
<g id="a_node6"><a xlink:href="dir_7f7a014517bfe31ea45620a6a947e37b.html" target="_top" xlink:title="fvm">
<polygon fill="none" stroke="#000000" points="308,-108 254,-108 254,-72 308,-72 308,-108"/>
<text text-anchor="middle" x="281" y="-87.5" font-family="Helvetica,sans-Serif" font-size="10.00" fill="#000000">fvm</text>
</a>
</g>
</g>
<!-- dir_e4cd57caa88bf1f4e1bf9521bc47c3c0&#45;&gt;dir_7f7a014517bfe31ea45620a6a947e37b -->
<g id="edge6" class="edge">
<title>dir_e4cd57caa88bf1f4e1bf9521bc47c3c0&#45;&gt;dir_7f7a014517bfe31ea45620a6a947e37b</title>
<path fill="none" stroke="#000000" d="M78.2243,-147.5573C81.1459,-146.2584 84.1075,-145.0425 87,-144 153.533,-120.02 175.1006,-130.9379 242,-108 242.7142,-107.7551 243.433,-107.5014 244.1547,-107.2401"/>
<polygon fill="#000000" stroke="#000000" points="245.5854,-110.4379 253.5888,-103.4956 243.003,-103.9316 245.5854,-110.4379"/>
<g id="a_edge6&#45;headlabel"><a xlink:href="dir_000008_000014.html" target="_top" xlink:title="1">
<text text-anchor="middle" x="243.2917" y="-111.9029" font-family="Helvetica,sans-Serif" font-size="10.00" fill="#000000">1</text>
</a>
</g>
</g>
<!-- dir_3d3615e9a999cab4f3407307569d6ced -->
<g id="node7" class="node">
<title>dir_3d3615e9a999cab4f3407307569d6ced</title>
<g id="a_node7"><a xlink:href="dir_3d3615e9a999cab4f3407307569d6ced.html" target="_top" xlink:title="core">
<polygon fill="#ffffff" stroke="#ff0000" points="335,-36 281,-36 281,0 335,0 335,-36"/>
<text text-anchor="middle" x="308" y="-15.5" font-family="Helvetica,sans-Serif" font-size="10.00" fill="#000000">core</text>
</a>
</g>
</g>
<!-- dir_a925f5bb87732fc4d72dcc12cc6db92b&#45;&gt;dir_3d3615e9a999cab4f3407307569d6ced -->
<g id="edge4" class="edge">
<title>dir_a925f5bb87732fc4d72dcc12cc6db92b&#45;&gt;dir_3d3615e9a999cab4f3407307569d6ced</title>
<path fill="none" stroke="#000000" d="M75.2819,-71.8694C82.1994,-65.9563 90.4733,-59.9124 99,-56 129.0262,-42.2225 219.3869,-29.1178 270.9281,-22.4919"/>
<polygon fill="#000000" stroke="#000000" points="271.5147,-25.9457 280.9955,-21.2167 270.6349,-19.0012 271.5147,-25.9457"/>
<g id="a_edge4&#45;headlabel"><a xlink:href="dir_000037_000012.html" target="_top" xlink:title="3">
<text text-anchor="middle" x="268.3053" y="-26.7141" font-family="Helvetica,sans-Serif" font-size="10.00" fill="#000000">3</text>
</a>
</g>
</g>
<!-- dir_e4878a39f7a1ff4e13f4c83bf1db7931 -->
<g id="node3" class="node">
<title>dir_e4878a39f7a1ff4e13f4c83bf1db7931</title>
<g id="a_node3"><a xlink:href="dir_e4878a39f7a1ff4e13f4c83bf1db7931.html" target="_top" xlink:title="ncutils">
<polygon fill="#ffffff" stroke="#000000" points="162,-108 108,-108 108,-72 162,-72 162,-108"/>
<text text-anchor="middle" x="135" y="-87.5" font-family="Helvetica,sans-Serif" font-size="10.00" fill="#000000">ncutils</text>
</a>
</g>
</g>
<!-- dir_0ad5cc9f0732862bd2f85bb38c1084f0 -->
<g id="node4" class="node">
<title>dir_0ad5cc9f0732862bd2f85bb38c1084f0</title>
<g id="a_node4"><a xlink:href="dir_0ad5cc9f0732862bd2f85bb38c1084f0.html" target="_top" xlink:title="sampling">
<polygon fill="#ffffff" stroke="#000000" points="158,-180 96,-180 96,-144 158,-144 158,-180"/>
<text text-anchor="middle" x="127" y="-159.5" font-family="Helvetica,sans-Serif" font-size="10.00" fill="#000000">sampling</text>
</a>
</g>
</g>
<!-- dir_0ad5cc9f0732862bd2f85bb38c1084f0&#45;&gt;dir_e4878a39f7a1ff4e13f4c83bf1db7931 -->
<g id="edge2" class="edge">
<title>dir_0ad5cc9f0732862bd2f85bb38c1084f0&#45;&gt;dir_e4878a39f7a1ff4e13f4c83bf1db7931</title>
<path fill="none" stroke="#000000" d="M129.0187,-143.8314C129.8743,-136.131 130.8917,-126.9743 131.8426,-118.4166"/>
<polygon fill="#000000" stroke="#000000" points="135.3283,-118.7386 132.9541,-108.4133 128.3711,-117.9656 135.3283,-118.7386"/>
<g id="a_edge2&#45;headlabel"><a xlink:href="dir_000021_000034.html" target="_top" xlink:title="3">
<text text-anchor="middle" x="137.7533" y="-120.1248" font-family="Helvetica,sans-Serif" font-size="10.00" fill="#000000">3</text>
</a>
</g>
</g>
<!-- dir_0ad5cc9f0732862bd2f85bb38c1084f0&#45;&gt;dir_3d3615e9a999cab4f3407307569d6ced -->
<g id="edge3" class="edge">
<title>dir_0ad5cc9f0732862bd2f85bb38c1084f0&#45;&gt;dir_3d3615e9a999cab4f3407307569d6ced</title>
<path fill="none" stroke="#000000" d="M158.2192,-147.2842C161.1592,-146.1012 164.1175,-144.9848 167,-144 231.8782,-121.8356 274.553,-161.8396 317,-108 330.6602,-90.6734 326.6142,-65.2544 320.1833,-45.8457"/>
<polygon fill="#000000" stroke="#000000" points="323.4173,-44.4989 316.684,-36.3188 316.8465,-46.9124 323.4173,-44.4989"/>
<g id="a_edge3&#45;headlabel"><a xlink:href="dir_000021_000012.html" target="_top" xlink:title="2">
<text text-anchor="middle" x="327.3217" y="-44.3942" font-family="Helvetica,sans-Serif" font-size="10.00" fill="#000000">2</text>
</a>
</g>
</g>
<!-- dir_840c4e0daa8df97bd9a0df29e85df46b -->
<g id="node5" class="node">
<title>dir_840c4e0daa8df97bd9a0df29e85df46b</title>
<g id="a_node5"><a xlink:href="dir_840c4e0daa8df97bd9a0df29e85df46b.html" target="_top" xlink:title="tagging">
<polygon fill="#ffffff" stroke="#000000" points="230,-180 176,-180 176,-144 230,-144 230,-180"/>
<text text-anchor="middle" x="203" y="-159.5" font-family="Helvetica,sans-Serif" font-size="10.00" fill="#000000">tagging</text>
</a>
</g>
</g>
<!-- dir_840c4e0daa8df97bd9a0df29e85df46b&#45;&gt;dir_3d3615e9a999cab4f3407307569d6ced -->
<g id="edge1" class="edge">
<title>dir_840c4e0daa8df97bd9a0df29e85df46b&#45;&gt;dir_3d3615e9a999cab4f3407307569d6ced</title>
<path fill="none" stroke="#000000" d="M230.1514,-155.9301C268.6373,-146.7134 335.9559,-128.1208 350,-108 363.2278,-89.0488 359.3748,-77.1243 350,-56 348.0106,-51.5173 345.2022,-47.3389 341.9695,-43.5165"/>
<polygon fill="#000000" stroke="#000000" points="344.3375,-40.9308 334.8642,-36.1867 339.3114,-45.803 344.3375,-40.9308"/>
<g id="a_edge1&#45;headlabel"><a xlink:href="dir_000011_000012.html" target="_top" xlink:title="3">
<text text-anchor="middle" x="348.8781" y="-39.0355" font-family="Helvetica,sans-Serif" font-size="10.00" fill="#000000">3</text>
</a>
</g>
</g>
<!-- dir_7f7a014517bfe31ea45620a6a947e37b&#45;&gt;dir_3d3615e9a999cab4f3407307569d6ced -->
<g id="edge7" class="edge">
<title>dir_7f7a014517bfe31ea45620a6a947e37b&#45;&gt;dir_3d3615e9a999cab4f3407307569d6ced</title>
<path fill="none" stroke="#000000" d="M287.8132,-71.8314C290.7644,-63.9617 294.2858,-54.5712 297.555,-45.8533"/>
<polygon fill="#000000" stroke="#000000" points="300.8609,-47.0055 301.095,-36.4133 294.3066,-44.5476 300.8609,-47.0055"/>
<g id="a_edge7&#45;headlabel"><a xlink:href="dir_000014_000012.html" target="_top" xlink:title="1">
<text text-anchor="middle" x="302.2573" y="-48.8682" font-family="Helvetica,sans-Serif" font-size="10.00" fill="#000000">1</text>
</a>
</g>
</g>
</g>
</svg>
