<?xml version="1.0" encoding="UTF-8" standalone="no"?>
<!DOCTYPE svg PUBLIC "-//W3C//DTD SVG 1.1//EN"
 "http://www.w3.org/Graphics/SVG/1.1/DTD/svg11.dtd">
<!-- Generated by graphviz version 2.40.1 (20161225.0304)
 -->
<!-- Title: source_terms Pages: 1 -->
<svg width="205pt" height="223pt"
 viewBox="0.00 0.00 204.50 223.00" xmlns="http://www.w3.org/2000/svg" xmlns:xlink="http://www.w3.org/1999/xlink">
<g id="graph0" class="graph" transform="scale(1 1) rotate(0) translate(4 219)">
<title>source_terms</title>
<polygon fill="#ffffff" stroke="transparent" points="-4,4 -4,-219 200.5,-219 200.5,4 -4,4"/>
<g id="clust1" class="cluster">
<title>clusterdir_4012ff34c1bb5bd303e44a1c9cef6c8a</title>
<g id="a_clust1"><a xlink:href="dir_4012ff34c1bb5bd303e44a1c9cef6c8a.html" target="_top" xlink:title="icns">
<polygon fill="#ddddee" stroke="#000000" points="8,-136 8,-207 108,-207 108,-136 8,-136"/>
<text text-anchor="middle" x="58" y="-195" font-family="Helvetica,sans-Serif" font-size="10.00" fill="#000000">icns</text>
</a>
</g>
</g>
<!-- dir_5d2cf0e24161a778738de20190787a10 -->
<g id="node1" class="node">
<title>dir_5d2cf0e24161a778738de20190787a10</title>
<g id="a_node1"><a xlink:href="dir_5d2cf0e24161a778738de20190787a10.html" target="_top" xlink:title="source_terms">
<polygon fill="#eeeeff" stroke="#000000" points="99.5,-180 16.5,-180 16.5,-144 99.5,-144 99.5,-180"/>
<text text-anchor="middle" x="58" y="-159.5" font-family="Helvetica,sans-Serif" font-size="10.00" fill="#000000">source_terms</text>
</a>
</g>
</g>
<!-- dir_0c368f76a33d967d5b838b5681461de6 -->
<g id="node2" class="node">
<title>dir_0c368f76a33d967d5b838b5681461de6</title>
<g id="a_node2"><a xlink:href="dir_0c368f76a33d967d5b838b5681461de6.html" target="_top" xlink:title="wind_energy">
<polygon fill="#ffffff" stroke="#ff0000" points="196.5,-180 117.5,-180 117.5,-144 196.5,-144 196.5,-180"/>
<text text-anchor="middle" x="157" y="-159.5" font-family="Helvetica,sans-Serif" font-size="10.00" fill="#000000">wind_energy</text>
</a>
</g>
</g>
<!-- dir_5d2cf0e24161a778738de20190787a10&#45;&gt;dir_0c368f76a33d967d5b838b5681461de6 -->
<g id="edge1" class="edge">
<title>dir_5d2cf0e24161a778738de20190787a10&#45;&gt;dir_0c368f76a33d967d5b838b5681461de6</title>
<path fill="none" stroke="#000000" d="M99.7656,-162C102.2179,-162 104.6702,-162 107.1225,-162"/>
<polygon fill="#000000" stroke="#000000" points="107.2043,-165.5001 117.2042,-162 107.2042,-158.5001 107.2043,-165.5001"/>
<g id="a_edge1&#45;headlabel"><a xlink:href="dir_000004_000001.html" target="_top" xlink:title="3">
<text text-anchor="middle" x="103.6096" y="-165.8393" font-family="Helvetica,sans-Serif" font-size="10.00" fill="#000000">3</text>
</a>
</g>
</g>
<!-- dir_e4cd57caa88bf1f4e1bf9521bc47c3c0 -->
<g id="node3" class="node">
<title>dir_e4cd57caa88bf1f4e1bf9521bc47c3c0</title>
<g id="a_node3"><a xlink:href="dir_e4cd57caa88bf1f4e1bf9521bc47c3c0.html" target="_top" xlink:title="utilities">
<polygon fill="#ffffff" stroke="#ff0000" points="135,-108 81,-108 81,-72 135,-72 135,-108"/>
<text text-anchor="middle" x="108" y="-87.5" font-family="Helvetica,sans-Serif" font-size="10.00" fill="#000000">utilities</text>
</a>
</g>
</g>
<!-- dir_5d2cf0e24161a778738de20190787a10&#45;&gt;dir_e4cd57caa88bf1f4e1bf9521bc47c3c0 -->
<g id="edge2" class="edge">
<title>dir_5d2cf0e24161a778738de20190787a10&#45;&gt;dir_e4cd57caa88bf1f4e1bf9521bc47c3c0</title>
<path fill="none" stroke="#000000" d="M70.6171,-143.8314C76.3172,-135.6232 83.1663,-125.7606 89.4359,-116.7323"/>
<polygon fill="#000000" stroke="#000000" points="92.3838,-118.6234 95.213,-108.4133 86.6342,-114.6306 92.3838,-118.6234"/>
<g id="a_edge2&#45;headlabel"><a xlink:href="dir_000004_000008.html" target="_top" xlink:title="7">
<text text-anchor="middle" x="92.6656" y="-120.6954" font-family="Helvetica,sans-Serif" font-size="10.00" fill="#000000">7</text>
</a>
</g>
</g>
<!-- dir_3d3615e9a999cab4f3407307569d6ced -->
<g id="node4" class="node">
<title>dir_3d3615e9a999cab4f3407307569d6ced</title>
<g id="a_node4"><a xlink:href="dir_3d3615e9a999cab4f3407307569d6ced.html" target="_top" xlink:title="core">
<polygon fill="#ffffff" stroke="#ff0000" points="135,-36 81,-36 81,0 135,0 135,-36"/>
<text text-anchor="middle" x="108" y="-15.5" font-family="Helvetica,sans-Serif" font-size="10.00" fill="#000000">core</text>
</a>
</g>
</g>
<!-- dir_5d2cf0e24161a778738de20190787a10&#45;&gt;dir_3d3615e9a999cab4f3407307569d6ced -->
<g id="edge3" class="edge">
<title>dir_5d2cf0e24161a778738de20190787a10&#45;&gt;dir_3d3615e9a999cab4f3407307569d6ced</title>
<path fill="none" stroke="#000000" d="M58.5382,-143.8184C59.6094,-125.2056 62.7662,-95.7252 72,-72 75.7003,-62.4925 81.2867,-52.955 86.9621,-44.5982"/>
<polygon fill="#000000" stroke="#000000" points="89.8753,-46.5412 92.8333,-36.3676 84.1767,-42.476 89.8753,-46.5412"/>
<g id="a_edge3&#45;headlabel"><a xlink:href="dir_000004_000012.html" target="_top" xlink:title="14">
<text text-anchor="middle" x="90.0993" y="-48.6163" font-family="Helvetica,sans-Serif" font-size="10.00" fill="#000000">14</text>
</a>
</g>
</g>
<!-- dir_0c368f76a33d967d5b838b5681461de6&#45;&gt;dir_5d2cf0e24161a778738de20190787a10 -->
<g id="edge4" class="edge">
<title>dir_0c368f76a33d967d5b838b5681461de6&#45;&gt;dir_5d2cf0e24161a778738de20190787a10</title>
<path fill="none" stroke="#000000" d="M117.2042,-162C114.7519,-162 112.2996,-162 109.8473,-162"/>
<polygon fill="#000000" stroke="#000000" points="109.7657,-158.5001 99.7656,-162 109.7656,-165.5001 109.7657,-158.5001"/>
<g id="a_edge4&#45;headlabel"><a xlink:href="dir_000001_000004.html" target="_top" xlink:title="3">
<text text-anchor="middle" x="113.3602" y="-153.1607" font-family="Helvetica,sans-Serif" font-size="10.00" fill="#000000">3</text>
</a>
</g>
</g>
<!-- dir_0c368f76a33d967d5b838b5681461de6&#45;&gt;dir_e4cd57caa88bf1f4e1bf9521bc47c3c0 -->
<g id="edge5" class="edge">
<title>dir_0c368f76a33d967d5b838b5681461de6&#45;&gt;dir_e4cd57caa88bf1f4e1bf9521bc47c3c0</title>
<path fill="none" stroke="#000000" d="M144.6352,-143.8314C139.0491,-135.6232 132.337,-125.7606 126.1928,-116.7323"/>
<polygon fill="#000000" stroke="#000000" points="129.051,-114.7112 120.5313,-108.4133 123.264,-118.6496 129.051,-114.7112"/>
<g id="a_edge5&#45;headlabel"><a xlink:href="dir_000001_000008.html" target="_top" xlink:title="30">
<text text-anchor="middle" x="133.4207" y="-113.5855" font-family="Helvetica,sans-Serif" font-size="10.00" fill="#000000">30</text>
</a>
</g>
</g>
<!-- dir_0c368f76a33d967d5b838b5681461de6&#45;&gt;dir_3d3615e9a999cab4f3407307569d6ced -->
<g id="edge6" class="edge">
<title>dir_0c368f76a33d967d5b838b5681461de6&#45;&gt;dir_3d3615e9a999cab4f3407307569d6ced</title>
<path fill="none" stroke="#000000" d="M156.7133,-143.823C155.8883,-125.2139 153.09,-95.7363 144,-72 140.3514,-62.4725 134.7801,-52.9292 129.1027,-44.5732"/>
<polygon fill="#000000" stroke="#000000" points="131.8853,-42.4472 123.2239,-36.3455 126.1898,-46.5168 131.8853,-42.4472"/>
<g id="a_edge6&#45;headlabel"><a xlink:href="dir_000001_000012.html" target="_top" xlink:title="22">
<text text-anchor="middle" x="136.2852" y="-41.2213" font-family="Helvetica,sans-Serif" font-size="10.00" fill="#000000">22</text>
</a>
</g>
</g>
<!-- dir_e4cd57caa88bf1f4e1bf9521bc47c3c0&#45;&gt;dir_3d3615e9a999cab4f3407307569d6ced -->
<g id="edge7" class="edge">
<title>dir_e4cd57caa88bf1f4e1bf9521bc47c3c0&#45;&gt;dir_3d3615e9a999cab4f3407307569d6ced</title>
<path fill="none" stroke="#000000" d="M102.0476,-71.8314C101.2972,-64.131 101.0763,-54.9743 101.3849,-46.4166"/>
<polygon fill="#000000" stroke="#000000" points="104.8792,-46.6161 102.024,-36.4133 97.8935,-46.1697 104.8792,-46.6161"/>
<g id="a_edge7&#45;headlabel"><a xlink:href="dir_000008_000012.html" target="_top" xlink:title="17">
<text text-anchor="middle" x="107.4836" y="-47.8844" font-family="Helvetica,sans-Serif" font-size="10.00" fill="#000000">17</text>
</a>
</g>
</g>
<!-- dir_3d3615e9a999cab4f3407307569d6ced&#45;&gt;dir_e4cd57caa88bf1f4e1bf9521bc47c3c0 -->
<g id="edge8" class="edge">
<title>dir_3d3615e9a999cab4f3407307569d6ced&#45;&gt;dir_e4cd57caa88bf1f4e1bf9521bc47c3c0</title>
<path fill="none" stroke="#000000" d="M113.976,-36.4133C114.7071,-44.0593 114.9203,-53.1084 114.6155,-61.5726"/>
<polygon fill="#000000" stroke="#000000" points="111.1048,-61.6264 113.9524,-71.8314 118.0902,-62.078 111.1048,-61.6264"/>
<g id="a_edge8&#45;headlabel"><a xlink:href="dir_000012_000008.html" target="_top" xlink:title="1">
<text text-anchor="middle" x="108.5032" y="-55.3562" font-family="Helvetica,sans-Serif" font-size="10.00" fill="#000000">1</text>
</a>
</g>
</g>
</g>
</svg>
