<?xml version="1.0" encoding="UTF-8" standalone="no"?>
<!DOCTYPE svg PUBLIC "-//W3C//DTD SVG 1.1//EN"
 "http://www.w3.org/Graphics/SVG/1.1/DTD/svg11.dtd">
<!-- Generated by graphviz version 2.40.1 (20161225.0304)
 -->
<!-- Title: physics Pages: 1 -->
<svg width="390pt" height="447pt"
 viewBox="0.00 0.00 390.00 447.00" xmlns="http://www.w3.org/2000/svg" xmlns:xlink="http://www.w3.org/1999/xlink">
<g id="graph0" class="graph" transform="scale(1 1) rotate(0) translate(4 443)">
<title>physics</title>
<polygon fill="#ffffff" stroke="transparent" points="-4,4 -4,-443 386,-443 386,4 -4,4"/>
<g id="clust1" class="cluster">
<title>clusterdir_d85575251dd712327fe3cf057fa568b4</title>
<g id="a_clust1"><a xlink:href="dir_d85575251dd712327fe3cf057fa568b4.html" target="_top" xlink:title="amr&#45;wind">
<polygon fill="#ddddee" stroke="#000000" points="8,-272 8,-431 184,-431 184,-272 8,-272"/>
<text text-anchor="middle" x="96" y="-419" font-family="Helvetica,sans-Serif" font-size="10.00" fill="#000000">amr&#45;wind</text>
</a>
</g>
</g>
<g id="clust2" class="cluster">
<title>clusterdir_f2c65bfcbdc19ebacbfc0bbbfb0d01b6</title>
<g id="a_clust2"><a xlink:href="dir_f2c65bfcbdc19ebacbfc0bbbfb0d01b6.html" target="_top">
<polygon fill="#eeeeff" stroke="#000000" points="16,-280 16,-404 176,-404 176,-280 16,-280"/>
</a>
</g>
</g>
<!-- dir_f2c65bfcbdc19ebacbfc0bbbfb0d01b6 -->
<g id="node1" class="node">
<title>dir_f2c65bfcbdc19ebacbfc0bbbfb0d01b6</title>
<text text-anchor="middle" x="51" y="-375.5" font-family="Helvetica,sans-Serif" font-size="10.00" fill="#000000">physics</text>
</g>
<!-- dir_112afea7a726e6a1d518c2be02377acb -->
<g id="node3" class="node">
<title>dir_112afea7a726e6a1d518c2be02377acb</title>
<g id="a_node3"><a xlink:href="dir_112afea7a726e6a1d518c2be02377acb.html" target="_top" xlink:title="udfs">
<polygon fill="#ffffff" stroke="#000000" points="78,-324 24,-324 24,-288 78,-288 78,-324"/>
<text text-anchor="middle" x="51" y="-303.5" font-family="Helvetica,sans-Serif" font-size="10.00" fill="#000000">udfs</text>
</a>
</g>
</g>
<!-- dir_f2c65bfcbdc19ebacbfc0bbbfb0d01b6&#45;&gt;dir_112afea7a726e6a1d518c2be02377acb -->
<g id="edge1" class="edge">
<title>dir_f2c65bfcbdc19ebacbfc0bbbfb0d01b6&#45;&gt;dir_112afea7a726e6a1d518c2be02377acb</title>
<path fill="none" stroke="#000000" d="M51,-359.8314C51,-352.131 51,-342.9743 51,-334.4166"/>
<polygon fill="#000000" stroke="#000000" points="54.5001,-334.4132 51,-324.4133 47.5001,-334.4133 54.5001,-334.4132"/>
<g id="a_edge1&#45;headlabel"><a xlink:href="dir_000010_000032.html" target="_top" xlink:title="2">
<text text-anchor="middle" x="57.3393" y="-335.5079" font-family="Helvetica,sans-Serif" font-size="10.00" fill="#000000">2</text>
</a>
</g>
</g>
<!-- dir_0c368f76a33d967d5b838b5681461de6 -->
<g id="node4" class="node">
<title>dir_0c368f76a33d967d5b838b5681461de6</title>
<g id="a_node4"><a xlink:href="dir_0c368f76a33d967d5b838b5681461de6.html" target="_top" xlink:title="wind_energy">
<polygon fill="#ffffff" stroke="#ff0000" points="270.5,-324 191.5,-324 191.5,-288 270.5,-288 270.5,-324"/>
<text text-anchor="middle" x="231" y="-303.5" font-family="Helvetica,sans-Serif" font-size="10.00" fill="#000000">wind_energy</text>
</a>
</g>
</g>
<!-- dir_f2c65bfcbdc19ebacbfc0bbbfb0d01b6&#45;&gt;dir_0c368f76a33d967d5b838b5681461de6 -->
<g id="edge2" class="edge">
<title>dir_f2c65bfcbdc19ebacbfc0bbbfb0d01b6&#45;&gt;dir_0c368f76a33d967d5b838b5681461de6</title>
<path fill="none" stroke="#000000" d="M78.3769,-363.9409C81.2687,-362.5672 84.1817,-361.229 87,-360 104.5053,-352.3665 147.4108,-336.4026 181.8635,-323.8019"/>
<polygon fill="#000000" stroke="#000000" points="183.1352,-327.0636 191.3287,-320.3467 180.7348,-320.488 183.1352,-327.0636"/>
<g id="a_edge2&#45;headlabel"><a xlink:href="dir_000010_000001.html" target="_top" xlink:title="1">
<text text-anchor="middle" x="180.7321" y="-328.4633" font-family="Helvetica,sans-Serif" font-size="10.00" fill="#000000">1</text>
</a>
</g>
</g>
<!-- dir_e4cd57caa88bf1f4e1bf9521bc47c3c0 -->
<g id="node5" class="node">
<title>dir_e4cd57caa88bf1f4e1bf9521bc47c3c0</title>
<g id="a_node5"><a xlink:href="dir_e4cd57caa88bf1f4e1bf9521bc47c3c0.html" target="_top" xlink:title="utilities">
<polygon fill="#ffffff" stroke="#ff0000" points="257,-180 203,-180 203,-144 257,-144 257,-180"/>
<text text-anchor="middle" x="230" y="-159.5" font-family="Helvetica,sans-Serif" font-size="10.00" fill="#000000">utilities</text>
</a>
</g>
</g>
<!-- dir_f2c65bfcbdc19ebacbfc0bbbfb0d01b6&#45;&gt;dir_e4cd57caa88bf1f4e1bf9521bc47c3c0 -->
<g id="edge3" class="edge">
<title>dir_f2c65bfcbdc19ebacbfc0bbbfb0d01b6&#45;&gt;dir_e4cd57caa88bf1f4e1bf9521bc47c3c0</title>
<path fill="none" stroke="#000000" d="M78.1787,-363.4264C81.1092,-362.1531 84.0854,-360.9789 87,-360 169.7164,-332.2183 224.2429,-391.1191 280,-324 312.9439,-284.3429 277.4004,-223.115 251.6659,-188.3988"/>
<polygon fill="#000000" stroke="#000000" points="254.2341,-185.9951 245.3823,-180.1732 248.6715,-190.2445 254.2341,-185.9951"/>
<g id="a_edge3&#45;headlabel"><a xlink:href="dir_000010_000008.html" target="_top" xlink:title="9">
<text text-anchor="middle" x="258.6725" y="-184.628" font-family="Helvetica,sans-Serif" font-size="10.00" fill="#000000">9</text>
</a>
</g>
</g>
<!-- dir_e037da66ad872c58acfc861df6f5c212 -->
<g id="node2" class="node">
<title>dir_e037da66ad872c58acfc861df6f5c212</title>
<g id="a_node2"><a xlink:href="dir_e037da66ad872c58acfc861df6f5c212.html" target="_top" xlink:title="multiphase">
<polygon fill="#ffffff" stroke="#000000" points="167.5,-396 96.5,-396 96.5,-360 167.5,-360 167.5,-396"/>
<text text-anchor="middle" x="132" y="-375.5" font-family="Helvetica,sans-Serif" font-size="10.00" fill="#000000">multiphase</text>
</a>
</g>
</g>
<!-- dir_7f7a014517bfe31ea45620a6a947e37b -->
<g id="node6" class="node">
<title>dir_7f7a014517bfe31ea45620a6a947e37b</title>
<g id="a_node6"><a xlink:href="dir_7f7a014517bfe31ea45620a6a947e37b.html" target="_top" xlink:title="fvm">
<polygon fill="none" stroke="#000000" points="313,-108 259,-108 259,-72 313,-72 313,-108"/>
<text text-anchor="middle" x="286" y="-87.5" font-family="Helvetica,sans-Serif" font-size="10.00" fill="#000000">fvm</text>
</a>
</g>
</g>
<!-- dir_e037da66ad872c58acfc861df6f5c212&#45;&gt;dir_7f7a014517bfe31ea45620a6a947e37b -->
<g id="edge6" class="edge">
<title>dir_e037da66ad872c58acfc861df6f5c212&#45;&gt;dir_7f7a014517bfe31ea45620a6a947e37b</title>
<path fill="none" stroke="#000000" d="M167.8354,-371.5576C212.3299,-362.7447 284.2993,-345.5384 300,-324 345.0987,-262.1328 316.3568,-164.8329 297.9436,-117.5827"/>
<polygon fill="#000000" stroke="#000000" points="301.1838,-116.2591 294.2015,-108.2905 294.6905,-118.874 301.1838,-116.2591"/>
<g id="a_edge6&#45;headlabel"><a xlink:href="dir_000015_000014.html" target="_top" xlink:title="4">
<text text-anchor="middle" x="305.1603" y="-116.0328" font-family="Helvetica,sans-Serif" font-size="10.00" fill="#000000">4</text>
</a>
</g>
</g>
<!-- dir_4bb30ed846ea1df1fc4d16874a455d91 -->
<g id="node7" class="node">
<title>dir_4bb30ed846ea1df1fc4d16874a455d91</title>
<g id="a_node7"><a xlink:href="dir_4bb30ed846ea1df1fc4d16874a455d91.html" target="_top" xlink:title="equation_systems">
<polygon fill="#ffffff" stroke="#ff0000" points="164,-252 58,-252 58,-216 164,-216 164,-252"/>
<text text-anchor="middle" x="111" y="-231.5" font-family="Helvetica,sans-Serif" font-size="10.00" fill="#000000">equation_systems</text>
</a>
</g>
</g>
<!-- dir_e037da66ad872c58acfc861df6f5c212&#45;&gt;dir_4bb30ed846ea1df1fc4d16874a455d91 -->
<g id="edge7" class="edge">
<title>dir_e037da66ad872c58acfc861df6f5c212&#45;&gt;dir_4bb30ed846ea1df1fc4d16874a455d91</title>
<path fill="none" stroke="#000000" d="M131.6751,-359.8251C131.0154,-338.5766 129.021,-302.4381 123,-272 122.3556,-268.7423 121.531,-265.3703 120.6163,-262.0414"/>
<polygon fill="#000000" stroke="#000000" points="123.9297,-260.9059 117.6928,-252.3414 117.2275,-262.926 123.9297,-260.9059"/>
<g id="a_edge7&#45;headlabel"><a xlink:href="dir_000015_000002.html" target="_top" xlink:title="2">
<text text-anchor="middle" x="127.6854" y="-261.0283" font-family="Helvetica,sans-Serif" font-size="10.00" fill="#000000">2</text>
</a>
</g>
</g>
<!-- dir_3d3615e9a999cab4f3407307569d6ced -->
<g id="node8" class="node">
<title>dir_3d3615e9a999cab4f3407307569d6ced</title>
<g id="a_node8"><a xlink:href="dir_3d3615e9a999cab4f3407307569d6ced.html" target="_top" xlink:title="core">
<polygon fill="#ffffff" stroke="#ff0000" points="249,-36 195,-36 195,0 249,0 249,-36"/>
<text text-anchor="middle" x="222" y="-15.5" font-family="Helvetica,sans-Serif" font-size="10.00" fill="#000000">core</text>
</a>
</g>
</g>
<!-- dir_e037da66ad872c58acfc861df6f5c212&#45;&gt;dir_3d3615e9a999cab4f3407307569d6ced -->
<g id="edge8" class="edge">
<title>dir_e037da66ad872c58acfc861df6f5c212&#45;&gt;dir_3d3615e9a999cab4f3407307569d6ced</title>
<path fill="none" stroke="#000000" d="M167.5534,-374.0431C236.574,-364.1806 382,-331.7967 382,-234 382,-234 382,-234 382,-162 382,-95.9209 305.6701,-52.4261 258.4519,-31.8416"/>
<polygon fill="#000000" stroke="#000000" points="259.7159,-28.5762 249.1418,-27.9136 256.9947,-35.0257 259.7159,-28.5762"/>
<g id="a_edge8&#45;headlabel"><a xlink:href="dir_000015_000012.html" target="_top" xlink:title="17">
<text text-anchor="middle" x="264.1315" y="-24.8575" font-family="Helvetica,sans-Serif" font-size="10.00" fill="#000000">17</text>
</a>
</g>
</g>
<!-- dir_112afea7a726e6a1d518c2be02377acb&#45;&gt;dir_4bb30ed846ea1df1fc4d16874a455d91 -->
<g id="edge4" class="edge">
<title>dir_112afea7a726e6a1d518c2be02377acb&#45;&gt;dir_4bb30ed846ea1df1fc4d16874a455d91</title>
<path fill="none" stroke="#000000" d="M66.1405,-287.8314C73.1217,-279.454 81.5391,-269.3531 89.1876,-260.1749"/>
<polygon fill="#000000" stroke="#000000" points="91.9425,-262.3362 95.6556,-252.4133 86.5649,-257.8548 91.9425,-262.3362"/>
<g id="a_edge4&#45;headlabel"><a xlink:href="dir_000032_000002.html" target="_top" xlink:title="1">
<text text-anchor="middle" x="91.8225" y="-264.4152" font-family="Helvetica,sans-Serif" font-size="10.00" fill="#000000">1</text>
</a>
</g>
</g>
<!-- dir_112afea7a726e6a1d518c2be02377acb&#45;&gt;dir_3d3615e9a999cab4f3407307569d6ced -->
<g id="edge5" class="edge">
<title>dir_112afea7a726e6a1d518c2be02377acb&#45;&gt;dir_3d3615e9a999cab4f3407307569d6ced</title>
<path fill="none" stroke="#000000" d="M47.4843,-287.6714C44.6561,-269.197 42.1665,-240.0543 49,-216 69.5604,-143.6266 85.2734,-125.6708 138,-72 151.8127,-57.94 169.9234,-45.7181 185.7907,-36.4746"/>
<polygon fill="#000000" stroke="#000000" points="187.83,-39.343 194.8244,-31.385 184.394,-33.2443 187.83,-39.343"/>
<g id="a_edge5&#45;headlabel"><a xlink:href="dir_000032_000012.html" target="_top" xlink:title="8">
<text text-anchor="middle" x="186.0919" y="-41.0811" font-family="Helvetica,sans-Serif" font-size="10.00" fill="#000000">8</text>
</a>
</g>
</g>
<!-- dir_0c368f76a33d967d5b838b5681461de6&#45;&gt;dir_e4cd57caa88bf1f4e1bf9521bc47c3c0 -->
<g id="edge9" class="edge">
<title>dir_0c368f76a33d967d5b838b5681461de6&#45;&gt;dir_e4cd57caa88bf1f4e1bf9521bc47c3c0</title>
<path fill="none" stroke="#000000" d="M230.8733,-287.7623C230.7028,-263.201 230.3976,-219.2474 230.1969,-190.3541"/>
<polygon fill="#000000" stroke="#000000" points="233.6951,-190.065 230.1256,-180.0896 226.6952,-190.1137 233.6951,-190.065"/>
<g id="a_edge9&#45;headlabel"><a xlink:href="dir_000001_000008.html" target="_top" xlink:title="30">
<text text-anchor="middle" x="236.5591" y="-191.1399" font-family="Helvetica,sans-Serif" font-size="10.00" fill="#000000">30</text>
</a>
</g>
</g>
<!-- dir_0c368f76a33d967d5b838b5681461de6&#45;&gt;dir_7f7a014517bfe31ea45620a6a947e37b -->
<g id="edge10" class="edge">
<title>dir_0c368f76a33d967d5b838b5681461de6&#45;&gt;dir_7f7a014517bfe31ea45620a6a947e37b</title>
<path fill="none" stroke="#000000" d="M236.4024,-287.7166C243.5508,-263.2723 256.3705,-218.5461 266,-180 271.1322,-159.4563 276.3011,-136.1108 280.0982,-118.3454"/>
<polygon fill="#000000" stroke="#000000" points="283.5698,-118.8456 282.2185,-108.3373 276.7218,-117.3947 283.5698,-118.8456"/>
<g id="a_edge10&#45;headlabel"><a xlink:href="dir_000001_000014.html" target="_top" xlink:title="1">
<text text-anchor="middle" x="285.6025" y="-120.4506" font-family="Helvetica,sans-Serif" font-size="10.00" fill="#000000">1</text>
</a>
</g>
</g>
<!-- dir_0c368f76a33d967d5b838b5681461de6&#45;&gt;dir_4bb30ed846ea1df1fc4d16874a455d91 -->
<g id="edge11" class="edge">
<title>dir_0c368f76a33d967d5b838b5681461de6&#45;&gt;dir_4bb30ed846ea1df1fc4d16874a455d91</title>
<path fill="none" stroke="#000000" d="M196.1955,-287.9223C187.92,-282.6487 179.1863,-276.9708 171,-272 162.8448,-267.0481 154.01,-261.973 145.6539,-257.2096"/>
<polygon fill="#000000" stroke="#000000" points="147.251,-254.0914 136.8293,-252.1838 143.7867,-260.1741 147.251,-254.0914"/>
<g id="a_edge11&#45;headlabel"><a xlink:href="dir_000001_000002.html" target="_top" xlink:title="4">
<text text-anchor="middle" x="151.7797" y="-250.9031" font-family="Helvetica,sans-Serif" font-size="10.00" fill="#000000">4</text>
</a>
</g>
</g>
<!-- dir_0c368f76a33d967d5b838b5681461de6&#45;&gt;dir_3d3615e9a999cab4f3407307569d6ced -->
<g id="edge12" class="edge">
<title>dir_0c368f76a33d967d5b838b5681461de6&#45;&gt;dir_3d3615e9a999cab4f3407307569d6ced</title>
<path fill="none" stroke="#000000" d="M223.7812,-287.5849C214.7101,-263.3635 199.646,-219.2658 194,-180 187.2187,-132.8389 201.1874,-78.2991 211.728,-46.0573"/>
<polygon fill="#000000" stroke="#000000" points="215.1025,-47.0047 214.9992,-36.4103 208.4732,-44.7567 215.1025,-47.0047"/>
<g id="a_edge12&#45;headlabel"><a xlink:href="dir_000001_000012.html" target="_top" xlink:title="22">
<text text-anchor="middle" x="216.6371" y="-48.8206" font-family="Helvetica,sans-Serif" font-size="10.00" fill="#000000">22</text>
</a>
</g>
</g>
<!-- dir_e4cd57caa88bf1f4e1bf9521bc47c3c0&#45;&gt;dir_7f7a014517bfe31ea45620a6a947e37b -->
<g id="edge13" class="edge">
<title>dir_e4cd57caa88bf1f4e1bf9521bc47c3c0&#45;&gt;dir_7f7a014517bfe31ea45620a6a947e37b</title>
<path fill="none" stroke="#000000" d="M244.1312,-143.8314C250.5811,-135.5386 258.3445,-125.557 265.4252,-116.4533"/>
<polygon fill="#000000" stroke="#000000" points="268.3019,-118.4556 271.6786,-108.4133 262.7764,-114.158 268.3019,-118.4556"/>
<g id="a_edge13&#45;headlabel"><a xlink:href="dir_000008_000014.html" target="_top" xlink:title="1">
<text text-anchor="middle" x="268.3362" y="-120.5361" font-family="Helvetica,sans-Serif" font-size="10.00" fill="#000000">1</text>
</a>
</g>
</g>
<!-- dir_e4cd57caa88bf1f4e1bf9521bc47c3c0&#45;&gt;dir_3d3615e9a999cab4f3407307569d6ced -->
<g id="edge14" class="edge">
<title>dir_e4cd57caa88bf1f4e1bf9521bc47c3c0&#45;&gt;dir_3d3615e9a999cab4f3407307569d6ced</title>
<path fill="none" stroke="#000000" d="M224.3136,-143.7623C220.4893,-119.201 217.7727,-75.2474 218.0778,-46.3541"/>
<polygon fill="#000000" stroke="#000000" points="221.5835,-46.1779 218.3467,-36.0896 214.5859,-45.9945 221.5835,-46.1779"/>
<g id="a_edge14&#45;headlabel"><a xlink:href="dir_000008_000012.html" target="_top" xlink:title="17">
<text text-anchor="middle" x="224.3278" y="-47.3456" font-family="Helvetica,sans-Serif" font-size="10.00" fill="#000000">17</text>
</a>
</g>
</g>
<!-- dir_7f7a014517bfe31ea45620a6a947e37b&#45;&gt;dir_3d3615e9a999cab4f3407307569d6ced -->
<g id="edge15" class="edge">
<title>dir_7f7a014517bfe31ea45620a6a947e37b&#45;&gt;dir_3d3615e9a999cab4f3407307569d6ced</title>
<path fill="none" stroke="#000000" d="M269.8501,-71.8314C262.3283,-63.3694 253.2435,-53.1489 245.0196,-43.8971"/>
<polygon fill="#000000" stroke="#000000" points="247.627,-41.5621 238.3673,-36.4133 242.3951,-46.2127 247.627,-41.5621"/>
<g id="a_edge15&#45;headlabel"><a xlink:href="dir_000014_000012.html" target="_top" xlink:title="1">
<text text-anchor="middle" x="252.1372" y="-39.8624" font-family="Helvetica,sans-Serif" font-size="10.00" fill="#000000">1</text>
</a>
</g>
</g>
<!-- dir_4bb30ed846ea1df1fc4d16874a455d91&#45;&gt;dir_e037da66ad872c58acfc861df6f5c212 -->
<g id="edge17" class="edge">
<title>dir_4bb30ed846ea1df1fc4d16874a455d91&#45;&gt;dir_e037da66ad872c58acfc861df6f5c212</title>
<path fill="none" stroke="#000000" d="M113.262,-252.2962C115.5542,-270.4983 119.283,-299.2135 123,-324 124.2487,-332.3271 125.711,-341.358 127.0896,-349.6082"/>
<polygon fill="#000000" stroke="#000000" points="123.6489,-350.2534 128.7685,-359.5292 130.5508,-349.0854 123.6489,-350.2534"/>
<g id="a_edge17&#45;headlabel"><a xlink:href="dir_000002_000015.html" target="_top" xlink:title="2">
<text text-anchor="middle" x="120.2497" y="-344.6829" font-family="Helvetica,sans-Serif" font-size="10.00" fill="#000000">2</text>
</a>
</g>
</g>
<!-- dir_4bb30ed846ea1df1fc4d16874a455d91&#45;&gt;dir_0c368f76a33d967d5b838b5681461de6 -->
<g id="edge18" class="edge">
<title>dir_4bb30ed846ea1df1fc4d16874a455d91&#45;&gt;dir_0c368f76a33d967d5b838b5681461de6</title>
<path fill="none" stroke="#000000" d="M153.9094,-252.1838C165.53,-258.2856 177.895,-265.257 189,-272 194.2443,-275.1844 199.7133,-278.659 204.937,-282.1316"/>
<polygon fill="#000000" stroke="#000000" points="203.1819,-285.1714 213.4134,-287.9223 207.1305,-279.3913 203.1819,-285.1714"/>
<g id="a_edge18&#45;headlabel"><a xlink:href="dir_000002_000001.html" target="_top" xlink:title="3">
<text text-anchor="middle" x="198.6122" y="-282.9882" font-family="Helvetica,sans-Serif" font-size="10.00" fill="#000000">3</text>
</a>
</g>
</g>
<!-- dir_4bb30ed846ea1df1fc4d16874a455d91&#45;&gt;dir_e4cd57caa88bf1f4e1bf9521bc47c3c0 -->
<g id="edge19" class="edge">
<title>dir_4bb30ed846ea1df1fc4d16874a455d91&#45;&gt;dir_e4cd57caa88bf1f4e1bf9521bc47c3c0</title>
<path fill="none" stroke="#000000" d="M141.0287,-215.8314C157.2113,-206.0402 177.2851,-193.8947 194.2676,-183.6196"/>
<polygon fill="#000000" stroke="#000000" points="196.0855,-186.6105 202.8295,-178.4393 192.4618,-180.6214 196.0855,-186.6105"/>
<g id="a_edge19&#45;headlabel"><a xlink:href="dir_000002_000008.html" target="_top" xlink:title="10">
<text text-anchor="middle" x="194.4798" y="-188.4005" font-family="Helvetica,sans-Serif" font-size="10.00" fill="#000000">10</text>
</a>
</g>
</g>
<!-- dir_4bb30ed846ea1df1fc4d16874a455d91&#45;&gt;dir_3d3615e9a999cab4f3407307569d6ced -->
<g id="edge20" class="edge">
<title>dir_4bb30ed846ea1df1fc4d16874a455d91&#45;&gt;dir_3d3615e9a999cab4f3407307569d6ced</title>
<path fill="none" stroke="#000000" d="M113.3612,-215.6253C118.1022,-184.0731 131.0095,-118.5044 161,-72 168.0768,-61.0265 177.9825,-50.9449 187.7565,-42.539"/>
<polygon fill="#000000" stroke="#000000" points="190.0032,-45.223 195.5103,-36.1719 185.5608,-39.8132 190.0032,-45.223"/>
<g id="a_edge20&#45;headlabel"><a xlink:href="dir_000002_000012.html" target="_top" xlink:title="54">
<text text-anchor="middle" x="189.027" y="-47.1984" font-family="Helvetica,sans-Serif" font-size="10.00" fill="#000000">54</text>
</a>
</g>
</g>
<!-- dir_3d3615e9a999cab4f3407307569d6ced&#45;&gt;dir_e4cd57caa88bf1f4e1bf9521bc47c3c0 -->
<g id="edge16" class="edge">
<title>dir_3d3615e9a999cab4f3407307569d6ced&#45;&gt;dir_e4cd57caa88bf1f4e1bf9521bc47c3c0</title>
<path fill="none" stroke="#000000" d="M227.6633,-36.0896C231.492,-60.5727 234.217,-104.5174 233.924,-133.4713"/>
<polygon fill="#000000" stroke="#000000" points="230.4177,-133.6758 233.66,-143.7623 237.4154,-133.8554 230.4177,-133.6758"/>
<g id="a_edge16&#45;headlabel"><a xlink:href="dir_000012_000008.html" target="_top" xlink:title="1">
<text text-anchor="middle" x="227.6715" y="-127.5096" font-family="Helvetica,sans-Serif" font-size="10.00" fill="#000000">1</text>
</a>
</g>
</g>
</g>
</svg>
