<?xml version="1.0" encoding="UTF-8" standalone="no"?>
<!DOCTYPE svg PUBLIC "-//W3C//DTD SVG 1.1//EN"
 "http://www.w3.org/Graphics/SVG/1.1/DTD/svg11.dtd">
<!-- Generated by graphviz version 2.40.1 (20161225.0304)
 -->
<!-- Title: divergence.H Pages: 1 -->
<svg width="2241pt" height="308pt"
 viewBox="0.00 0.00 2240.50 308.00" xmlns="http://www.w3.org/2000/svg" xmlns:xlink="http://www.w3.org/1999/xlink">
<g id="graph0" class="graph" transform="scale(1 1) rotate(0) translate(4 304)">
<title>divergence.H</title>
<polygon fill="#ffffff" stroke="transparent" points="-4,4 -4,-304 2236.5,-304 2236.5,4 -4,4"/>
<!-- Node0 -->
<g id="node1" class="node">
<title>Node0</title>
<polygon fill="#bfbfbf" stroke="#000000" points="2047,-280.5 2047,-299.5 2128,-299.5 2128,-280.5 2047,-280.5"/>
<text text-anchor="middle" x="2087.5" y="-287.5" font-family="Helvetica,sans-Serif" font-size="10.00" fill="#000000">divergence.H</text>
</g>
<!-- Node1 -->
<g id="node2" class="node">
<title>Node1</title>
<g id="a_node2"><a xlink:href="fvm__utils_8_h.html" target="_top" xlink:title="amr&#45;wind/fvm/fvm_utils.H">
<polygon fill="#ffffff" stroke="#000000" points="1860.5,-224.5 1860.5,-243.5 2004.5,-243.5 2004.5,-224.5 1860.5,-224.5"/>
<text text-anchor="middle" x="1932.5" y="-231.5" font-family="Helvetica,sans-Serif" font-size="10.00" fill="#000000">amr&#45;wind/fvm/fvm_utils.H</text>
</a>
</g>
</g>
<!-- Node0&#45;&gt;Node1 -->
<g id="edge1" class="edge">
<title>Node0&#45;&gt;Node1</title>
<path fill="none" stroke="#191970" d="M2060.8546,-280.3733C2035.3036,-271.1419 1996.5488,-257.1402 1968.3091,-246.9375"/>
<polygon fill="#191970" stroke="#191970" points="1969.3921,-243.6074 1958.7978,-243.5011 1967.0135,-250.1909 1969.3921,-243.6074"/>
</g>
<!-- Node26 -->
<g id="node27" class="node">
<title>Node26</title>
<polygon fill="#ffffff" stroke="#bfbfbf" points="2057,-112.5 2057,-131.5 2170,-131.5 2170,-112.5 2057,-112.5"/>
<text text-anchor="middle" x="2113.5" y="-119.5" font-family="Helvetica,sans-Serif" font-size="10.00" fill="#000000">AMReX_Geometry.H</text>
</g>
<!-- Node0&#45;&gt;Node26 -->
<g id="edge46" class="edge">
<title>Node0&#45;&gt;Node26</title>
<path fill="none" stroke="#191970" d="M2088.9724,-280.4862C2093.0824,-253.9293 2104.7459,-178.5651 2110.3791,-142.1655"/>
<polygon fill="#191970" stroke="#191970" points="2113.9083,-142.2456 2111.979,-131.8279 2106.9907,-141.1749 2113.9083,-142.2456"/>
</g>
<!-- Node27 -->
<g id="node28" class="node">
<title>Node27</title>
<polygon fill="#ffffff" stroke="#bfbfbf" points="1983,-168.5 1983,-187.5 2078,-187.5 2078,-168.5 1983,-168.5"/>
<text text-anchor="middle" x="2030.5" y="-175.5" font-family="Helvetica,sans-Serif" font-size="10.00" fill="#000000">AMReX_MFIter.H</text>
</g>
<!-- Node0&#45;&gt;Node27 -->
<g id="edge47" class="edge">
<title>Node0&#45;&gt;Node27</title>
<path fill="none" stroke="#191970" d="M2082.6402,-280.4509C2073.2174,-261.936 2052.3122,-220.8591 2040.0265,-196.7187"/>
<polygon fill="#191970" stroke="#191970" points="2043.0025,-194.8496 2035.3475,-187.5249 2036.7639,-198.0246 2043.0025,-194.8496"/>
</g>
<!-- Node28 -->
<g id="node29" class="node">
<title>Node28</title>
<polygon fill="#ffffff" stroke="#bfbfbf" points="2134.5,-224.5 2134.5,-243.5 2232.5,-243.5 2232.5,-224.5 2134.5,-224.5"/>
<text text-anchor="middle" x="2183.5" y="-231.5" font-family="Helvetica,sans-Serif" font-size="10.00" fill="#000000">AMReX_Array4.H</text>
</g>
<!-- Node0&#45;&gt;Node28 -->
<g id="edge45" class="edge">
<title>Node0&#45;&gt;Node28</title>
<path fill="none" stroke="#191970" d="M2104.2219,-280.2455C2119.0889,-271.5731 2141.0466,-258.7645 2158.0858,-248.825"/>
<polygon fill="#191970" stroke="#191970" points="2160.0955,-251.7047 2166.9697,-243.6427 2156.5683,-245.6582 2160.0955,-251.7047"/>
</g>
<!-- Node2 -->
<g id="node3" class="node">
<title>Node2</title>
<g id="a_node3"><a xlink:href="_field_repo_8_h.html" target="_top" xlink:title="amr&#45;wind/core/FieldRepo.H">
<polygon fill="#ffffff" stroke="#000000" points="1099.5,-168.5 1099.5,-187.5 1245.5,-187.5 1245.5,-168.5 1099.5,-168.5"/>
<text text-anchor="middle" x="1172.5" y="-175.5" font-family="Helvetica,sans-Serif" font-size="10.00" fill="#000000">amr&#45;wind/core/FieldRepo.H</text>
</a>
</g>
</g>
<!-- Node1&#45;&gt;Node2 -->
<g id="edge2" class="edge">
<title>Node1&#45;&gt;Node2</title>
<path fill="none" stroke="#191970" d="M1860.3159,-228.6812C1718.7852,-218.2526 1405.6067,-195.1763 1255.6662,-184.128"/>
<polygon fill="#191970" stroke="#191970" points="1255.8234,-180.6302 1245.5932,-183.3858 1255.309,-187.6113 1255.8234,-180.6302"/>
</g>
<!-- Node22 -->
<g id="node23" class="node">
<title>Node22</title>
<g id="a_node23"><a xlink:href="stencils_8_h.html" target="_top" xlink:title="Second&#45;order finite volume discretization stencil coefficients. ">
<polygon fill="#ffffff" stroke="#000000" points="1828.5,-168.5 1828.5,-187.5 1964.5,-187.5 1964.5,-168.5 1828.5,-168.5"/>
<text text-anchor="middle" x="1896.5" y="-175.5" font-family="Helvetica,sans-Serif" font-size="10.00" fill="#000000">amr&#45;wind/fvm/stencils.H</text>
</a>
</g>
</g>
<!-- Node1&#45;&gt;Node22 -->
<g id="edge39" class="edge">
<title>Node1&#45;&gt;Node22</title>
<path fill="none" stroke="#191970" d="M1926.2293,-224.2455C1921.2736,-216.5367 1914.217,-205.5598 1908.2224,-196.2348"/>
<polygon fill="#191970" stroke="#191970" points="1911.0506,-194.1618 1902.6989,-187.6427 1905.1624,-197.9471 1911.0506,-194.1618"/>
</g>
<!-- Node1&#45;&gt;Node27 -->
<g id="edge44" class="edge">
<title>Node1&#45;&gt;Node27</title>
<path fill="none" stroke="#191970" d="M1949.5703,-224.2455C1964.747,-215.5731 1987.1621,-202.7645 2004.5563,-192.825"/>
<polygon fill="#191970" stroke="#191970" points="2006.6794,-195.643 2013.6253,-187.6427 2003.2064,-189.5653 2006.6794,-195.643"/>
</g>
<!-- Node3 -->
<g id="node4" class="node">
<title>Node3</title>
<polygon fill="#ffffff" stroke="#bfbfbf" points="1301.5,-.5 1301.5,-19.5 1345.5,-19.5 1345.5,-.5 1301.5,-.5"/>
<text text-anchor="middle" x="1323.5" y="-7.5" font-family="Helvetica,sans-Serif" font-size="10.00" fill="#000000">string</text>
</g>
<!-- Node2&#45;&gt;Node3 -->
<g id="edge3" class="edge">
<title>Node2&#45;&gt;Node3</title>
<path fill="none" stroke="#191970" d="M1245.7817,-175.4836C1367.0767,-170.6024 1598.926,-157.9656 1625.5,-132 1649.7617,-108.2937 1654.6494,-81.6909 1632.5,-56 1614.5675,-35.2003 1431.5926,-18.5191 1355.9527,-12.4591"/>
<polygon fill="#191970" stroke="#191970" points="1355.8482,-8.9401 1345.6039,-11.6429 1355.2977,-15.9184 1355.8482,-8.9401"/>
</g>
<!-- Node4 -->
<g id="node5" class="node">
<title>Node4</title>
<polygon fill="#ffffff" stroke="#bfbfbf" points="1352,-56.5 1352,-75.5 1445,-75.5 1445,-56.5 1352,-56.5"/>
<text text-anchor="middle" x="1398.5" y="-63.5" font-family="Helvetica,sans-Serif" font-size="10.00" fill="#000000">unordered_map</text>
</g>
<!-- Node2&#45;&gt;Node4 -->
<g id="edge4" class="edge">
<title>Node2&#45;&gt;Node4</title>
<path fill="none" stroke="#191970" d="M1191.7686,-168.4509C1231.631,-148.6961 1323.3216,-103.2565 1370.0305,-80.1088"/>
<polygon fill="#191970" stroke="#191970" points="1371.8742,-83.1014 1379.2801,-75.5249 1368.7659,-76.8293 1371.8742,-83.1014"/>
</g>
<!-- Node5 -->
<g id="node6" class="node">
<title>Node5</title>
<g id="a_node6"><a xlink:href="_field_desc_types_8_h.html" target="_top" xlink:title="amr&#45;wind/core/FieldDescTypes.H">
<polygon fill="#ffffff" stroke="#000000" points="535.5,-.5 535.5,-19.5 709.5,-19.5 709.5,-.5 535.5,-.5"/>
<text text-anchor="middle" x="622.5" y="-7.5" font-family="Helvetica,sans-Serif" font-size="10.00" fill="#000000">amr&#45;wind/core/FieldDescTypes.H</text>
</a>
</g>
</g>
<!-- Node2&#45;&gt;Node5 -->
<g id="edge5" class="edge">
<title>Node2&#45;&gt;Node5</title>
<path fill="none" stroke="#191970" d="M1099.1462,-171.8639C1006.0115,-161.8252 842.2106,-136.5457 715.5,-76 687.7132,-62.7227 659.3591,-41.214 641.3855,-26.3785"/>
<polygon fill="#191970" stroke="#191970" points="643.3493,-23.4567 633.444,-19.697 638.8427,-28.8132 643.3493,-23.4567"/>
</g>
<!-- Node6 -->
<g id="node7" class="node">
<title>Node6</title>
<g id="a_node7"><a xlink:href="_field_utils_8_h.html" target="_top" xlink:title="amr&#45;wind/core/FieldUtils.H">
<polygon fill="#ffffff" stroke="#000000" points="0,-56.5 0,-75.5 145,-75.5 145,-56.5 0,-56.5"/>
<text text-anchor="middle" x="72.5" y="-63.5" font-family="Helvetica,sans-Serif" font-size="10.00" fill="#000000">amr&#45;wind/core/FieldUtils.H</text>
</a>
</g>
</g>
<!-- Node2&#45;&gt;Node6 -->
<g id="edge6" class="edge">
<title>Node2&#45;&gt;Node6</title>
<path fill="none" stroke="#191970" d="M1099.249,-177.1845C881.3643,-174.409 247.0319,-163.6729 159.5,-132 131.3104,-121.7998 104.7523,-99.0199 88.5653,-83.0922"/>
<polygon fill="#191970" stroke="#191970" points="91.001,-80.5775 81.4903,-75.9088 86.0138,-85.4895 91.001,-80.5775"/>
</g>
<!-- Node7 -->
<g id="node8" class="node">
<title>Node7</title>
<polygon fill="#ffffff" stroke="#bfbfbf" points="158,-.5 158,-19.5 265,-19.5 265,-.5 158,-.5"/>
<text text-anchor="middle" x="211.5" y="-7.5" font-family="Helvetica,sans-Serif" font-size="10.00" fill="#000000">AMReX_MultiFab.H</text>
</g>
<!-- Node2&#45;&gt;Node7 -->
<g id="edge37" class="edge">
<title>Node2&#45;&gt;Node7</title>
<path fill="none" stroke="#191970" d="M1099.4671,-176.5249C930.9331,-172.6707 518.9355,-160.5518 383.5,-132 313.8694,-117.3209 282.916,-127.2051 233.5,-76 221.4694,-63.5338 216.0137,-44.3173 213.5419,-29.8286"/>
<polygon fill="#191970" stroke="#191970" points="217.0011,-29.2918 212.1739,-19.8606 210.0661,-30.2437 217.0011,-29.2918"/>
</g>
<!-- Node9 -->
<g id="node10" class="node">
<title>Node9</title>
<g id="a_node10"><a xlink:href="_field_8_h.html" target="_top" xlink:title="amr&#45;wind/core/Field.H">
<polygon fill="#ffffff" stroke="#000000" points="923.5,-112.5 923.5,-131.5 1045.5,-131.5 1045.5,-112.5 923.5,-112.5"/>
<text text-anchor="middle" x="984.5" y="-119.5" font-family="Helvetica,sans-Serif" font-size="10.00" fill="#000000">amr&#45;wind/core/Field.H</text>
</a>
</g>
</g>
<!-- Node2&#45;&gt;Node9 -->
<g id="edge10" class="edge">
<title>Node2&#45;&gt;Node9</title>
<path fill="none" stroke="#191970" d="M1140.1816,-168.3733C1108.6494,-158.9807 1060.5379,-144.6496 1026.1499,-134.4064"/>
<polygon fill="#191970" stroke="#191970" points="1026.9797,-131.0016 1016.3966,-131.5011 1024.9813,-137.7103 1026.9797,-131.0016"/>
</g>
<!-- Node17 -->
<g id="node18" class="node">
<title>Node17</title>
<g id="a_node18"><a xlink:href="_int_field_8_h.html" target="_top" xlink:title="amr&#45;wind/core/IntField.H">
<polygon fill="#ffffff" stroke="#000000" points="1482,-112.5 1482,-131.5 1617,-131.5 1617,-112.5 1482,-112.5"/>
<text text-anchor="middle" x="1549.5" y="-119.5" font-family="Helvetica,sans-Serif" font-size="10.00" fill="#000000">amr&#45;wind/core/IntField.H</text>
</a>
</g>
</g>
<!-- Node2&#45;&gt;Node17 -->
<g id="edge25" class="edge">
<title>Node2&#45;&gt;Node17</title>
<path fill="none" stroke="#191970" d="M1236.8802,-168.4369C1303.0275,-158.6113 1405.8825,-143.3331 1475.3817,-133.0096"/>
<polygon fill="#191970" stroke="#191970" points="1476.0081,-136.4551 1485.3853,-131.5237 1474.9795,-129.531 1476.0081,-136.4551"/>
</g>
<!-- Node18 -->
<g id="node19" class="node">
<title>Node18</title>
<polygon fill="#ffffff" stroke="#bfbfbf" points="1463.5,-56.5 1463.5,-75.5 1573.5,-75.5 1573.5,-56.5 1463.5,-56.5"/>
<text text-anchor="middle" x="1518.5" y="-63.5" font-family="Helvetica,sans-Serif" font-size="10.00" fill="#000000">AMReX_iMultiFab.H</text>
</g>
<!-- Node2&#45;&gt;Node18 -->
<g id="edge38" class="edge">
<title>Node2&#45;&gt;Node18</title>
<path fill="none" stroke="#191970" d="M1201.9998,-168.4509C1264.3047,-148.2829 1409.3121,-101.3441 1479.3103,-78.6857"/>
<polygon fill="#191970" stroke="#191970" points="1480.6388,-81.9345 1489.0749,-75.5249 1478.483,-75.2747 1480.6388,-81.9345"/>
</g>
<!-- Node19 -->
<g id="node20" class="node">
<title>Node19</title>
<g id="a_node20"><a xlink:href="_scratch_field_8_h.html" target="_top" xlink:title="amr&#45;wind/core/ScratchField.H">
<polygon fill="#ffffff" stroke="#000000" points="392.5,-112.5 392.5,-131.5 550.5,-131.5 550.5,-112.5 392.5,-112.5"/>
<text text-anchor="middle" x="471.5" y="-119.5" font-family="Helvetica,sans-Serif" font-size="10.00" fill="#000000">amr&#45;wind/core/ScratchField.H</text>
</a>
</g>
</g>
<!-- Node2&#45;&gt;Node19 -->
<g id="edge29" class="edge">
<title>Node2&#45;&gt;Node19</title>
<path fill="none" stroke="#191970" d="M1099.4645,-172.1655C970.0615,-161.828 700.9885,-140.3329 560.7942,-129.1333"/>
<polygon fill="#191970" stroke="#191970" points="560.7625,-125.6197 550.5155,-128.3122 560.205,-132.5975 560.7625,-125.6197"/>
</g>
<!-- Node21 -->
<g id="node22" class="node">
<title>Node21</title>
<polygon fill="#ffffff" stroke="#bfbfbf" points="1118,-112.5 1118,-131.5 1227,-131.5 1227,-112.5 1118,-112.5"/>
<text text-anchor="middle" x="1172.5" y="-119.5" font-family="Helvetica,sans-Serif" font-size="10.00" fill="#000000">AMReX_AmrCore.H</text>
</g>
<!-- Node2&#45;&gt;Node21 -->
<g id="edge36" class="edge">
<title>Node2&#45;&gt;Node21</title>
<path fill="none" stroke="#191970" d="M1172.5,-168.2455C1172.5,-160.9382 1172.5,-150.6944 1172.5,-141.7046"/>
<polygon fill="#191970" stroke="#191970" points="1176.0001,-141.6426 1172.5,-131.6427 1169.0001,-141.6427 1176.0001,-141.6426"/>
</g>
<!-- Node6&#45;&gt;Node5 -->
<g id="edge7" class="edge">
<title>Node6&#45;&gt;Node5</title>
<path fill="none" stroke="#191970" d="M145.2519,-58.5925C242.9265,-48.6475 416.7247,-30.9517 525.4596,-19.8805"/>
<polygon fill="#191970" stroke="#191970" points="525.8547,-23.3584 535.4487,-18.8634 525.1456,-16.3944 525.8547,-23.3584"/>
</g>
<!-- Node6&#45;&gt;Node7 -->
<g id="edge8" class="edge">
<title>Node6&#45;&gt;Node7</title>
<path fill="none" stroke="#191970" d="M96.395,-56.3733C119.0082,-47.2629 153.1542,-33.5062 178.3873,-23.3404"/>
<polygon fill="#191970" stroke="#191970" points="179.9493,-26.4845 187.9169,-19.5011 177.3334,-19.9917 179.9493,-26.4845"/>
</g>
<!-- Node8 -->
<g id="node9" class="node">
<title>Node8</title>
<polygon fill="#ffffff" stroke="#bfbfbf" points="11.5,-.5 11.5,-19.5 133.5,-19.5 133.5,-.5 11.5,-.5"/>
<text text-anchor="middle" x="72.5" y="-7.5" font-family="Helvetica,sans-Serif" font-size="10.00" fill="#000000">AMReX_Interpolater.H</text>
</g>
<!-- Node6&#45;&gt;Node8 -->
<g id="edge9" class="edge">
<title>Node6&#45;&gt;Node8</title>
<path fill="none" stroke="#191970" d="M72.5,-56.2455C72.5,-48.9382 72.5,-38.6944 72.5,-29.7046"/>
<polygon fill="#191970" stroke="#191970" points="76.0001,-29.6426 72.5,-19.6427 69.0001,-29.6427 76.0001,-29.6426"/>
</g>
<!-- Node9&#45;&gt;Node3 -->
<g id="edge11" class="edge">
<title>Node9&#45;&gt;Node3</title>
<path fill="none" stroke="#191970" d="M1045.5113,-116.7974C1132.8932,-108.8143 1285.3235,-92.7053 1304.5,-76 1317.5393,-64.641 1321.9025,-44.9694 1323.235,-30.0496"/>
<polygon fill="#191970" stroke="#191970" points="1326.7447,-29.9477 1323.7568,-19.7829 1319.7537,-29.5923 1326.7447,-29.9477"/>
</g>
<!-- Node9&#45;&gt;Node4 -->
<g id="edge13" class="edge">
<title>Node9&#45;&gt;Node4</title>
<path fill="none" stroke="#191970" d="M1045.8048,-114.6322C1116.2801,-106.0182 1235.3878,-91.0189 1337.5,-76 1338.9599,-75.7853 1340.4389,-75.5648 1341.9309,-75.3397"/>
<polygon fill="#191970" stroke="#191970" points="1342.5487,-78.7859 1351.8979,-73.8017 1341.4811,-71.8678 1342.5487,-78.7859"/>
</g>
<!-- Node9&#45;&gt;Node5 -->
<g id="edge19" class="edge">
<title>Node9&#45;&gt;Node5</title>
<path fill="none" stroke="#191970" d="M923.0571,-112.5375C879.318,-104.9298 819.4996,-92.7421 768.5,-76 725.5217,-61.8911 678.2327,-39.0752 649.4517,-24.3072"/>
<polygon fill="#191970" stroke="#191970" points="650.9225,-21.1273 640.4337,-19.6316 647.7004,-27.3417 650.9225,-21.1273"/>
</g>
<!-- Node9&#45;&gt;Node7 -->
<g id="edge15" class="edge">
<title>Node9&#45;&gt;Node7</title>
<path fill="none" stroke="#191970" d="M923.2276,-119.5364C829.4279,-115.037 644.8688,-103.3075 490.5,-76 456.1062,-69.9158 448.426,-64.3052 414.5,-56 364.0768,-43.6563 306.3206,-30.6809 265.3392,-21.6698"/>
<polygon fill="#191970" stroke="#191970" points="266.0755,-18.2481 255.5578,-19.5242 264.5756,-25.0856 266.0755,-18.2481"/>
</g>
<!-- Node10 -->
<g id="node11" class="node">
<title>Node10</title>
<polygon fill="#ffffff" stroke="#bfbfbf" points="777.5,-56.5 777.5,-75.5 835.5,-75.5 835.5,-56.5 777.5,-56.5"/>
<text text-anchor="middle" x="806.5" y="-63.5" font-family="Helvetica,sans-Serif" font-size="10.00" fill="#000000">memory</text>
</g>
<!-- Node9&#45;&gt;Node10 -->
<g id="edge12" class="edge">
<title>Node9&#45;&gt;Node10</title>
<path fill="none" stroke="#191970" d="M953.9007,-112.3733C923.8136,-102.9076 877.7839,-88.4264 845.1772,-78.1681"/>
<polygon fill="#191970" stroke="#191970" points="846.1108,-74.7927 835.5213,-75.1303 844.01,-81.4701 846.1108,-74.7927"/>
</g>
<!-- Node11 -->
<g id="node12" class="node">
<title>Node11</title>
<polygon fill="#ffffff" stroke="#bfbfbf" points="853.5,-56.5 853.5,-75.5 917.5,-75.5 917.5,-56.5 853.5,-56.5"/>
<text text-anchor="middle" x="885.5" y="-63.5" font-family="Helvetica,sans-Serif" font-size="10.00" fill="#000000">algorithm</text>
</g>
<!-- Node9&#45;&gt;Node11 -->
<g id="edge14" class="edge">
<title>Node9&#45;&gt;Node11</title>
<path fill="none" stroke="#191970" d="M967.2555,-112.2455C951.9239,-103.5731 929.2801,-90.7645 911.7084,-80.825"/>
<polygon fill="#191970" stroke="#191970" points="912.9741,-77.5198 902.5469,-75.6427 909.5276,-83.6126 912.9741,-77.5198"/>
</g>
<!-- Node12 -->
<g id="node13" class="node">
<title>Node12</title>
<polygon fill="#ffffff" stroke="#bfbfbf" points="936,-56.5 936,-75.5 1033,-75.5 1033,-56.5 936,-56.5"/>
<text text-anchor="middle" x="984.5" y="-63.5" font-family="Helvetica,sans-Serif" font-size="10.00" fill="#000000">AMReX_BCRec.H</text>
</g>
<!-- Node9&#45;&gt;Node12 -->
<g id="edge16" class="edge">
<title>Node9&#45;&gt;Node12</title>
<path fill="none" stroke="#191970" d="M984.5,-112.2455C984.5,-104.9382 984.5,-94.6944 984.5,-85.7046"/>
<polygon fill="#191970" stroke="#191970" points="988.0001,-85.6426 984.5,-75.6427 981.0001,-85.6427 988.0001,-85.6426"/>
</g>
<!-- Node13 -->
<g id="node14" class="node">
<title>Node13</title>
<polygon fill="#ffffff" stroke="#bfbfbf" points="1051.5,-56.5 1051.5,-75.5 1137.5,-75.5 1137.5,-56.5 1051.5,-56.5"/>
<text text-anchor="middle" x="1094.5" y="-63.5" font-family="Helvetica,sans-Serif" font-size="10.00" fill="#000000">AMReX_Gpu.H</text>
</g>
<!-- Node9&#45;&gt;Node13 -->
<g id="edge17" class="edge">
<title>Node9&#45;&gt;Node13</title>
<path fill="none" stroke="#191970" d="M1003.6605,-112.2455C1021.0111,-103.4125 1046.7901,-90.2887 1066.4583,-80.2758"/>
<polygon fill="#191970" stroke="#191970" points="1068.2353,-83.2986 1075.559,-75.6427 1065.0595,-77.0605 1068.2353,-83.2986"/>
</g>
<!-- Node14 -->
<g id="node15" class="node">
<title>Node14</title>
<g id="a_node15"><a xlink:href="incflo__enums_8_h.html" target="_top" xlink:title="amr&#45;wind/incflo_enums.H">
<polygon fill="#ffffff" stroke="#000000" points="1155.5,-56.5 1155.5,-75.5 1295.5,-75.5 1295.5,-56.5 1155.5,-56.5"/>
<text text-anchor="middle" x="1225.5" y="-63.5" font-family="Helvetica,sans-Serif" font-size="10.00" fill="#000000">amr&#45;wind/incflo_enums.H</text>
</a>
</g>
</g>
<!-- Node9&#45;&gt;Node14 -->
<g id="edge18" class="edge">
<title>Node9&#45;&gt;Node14</title>
<path fill="none" stroke="#191970" d="M1025.6555,-112.4369C1066.8142,-102.8731 1130.205,-88.1432 1174.5242,-77.845"/>
<polygon fill="#191970" stroke="#191970" points="1175.5659,-81.1963 1184.5142,-75.5237 1173.9815,-74.3779 1175.5659,-81.1963"/>
</g>
<!-- Node15 -->
<g id="node16" class="node">
<title>Node15</title>
<g id="a_node16"><a xlink:href="_view_field_8_h.html" target="_top" xlink:title="amr&#45;wind/core/ViewField.H">
<polygon fill="#ffffff" stroke="#000000" points="499.5,-56.5 499.5,-75.5 645.5,-75.5 645.5,-56.5 499.5,-56.5"/>
<text text-anchor="middle" x="572.5" y="-63.5" font-family="Helvetica,sans-Serif" font-size="10.00" fill="#000000">amr&#45;wind/core/ViewField.H</text>
</a>
</g>
</g>
<!-- Node9&#45;&gt;Node15 -->
<g id="edge20" class="edge">
<title>Node9&#45;&gt;Node15</title>
<path fill="none" stroke="#191970" d="M923.2643,-113.6767C851.3579,-103.903 731.8673,-87.6616 652.6434,-76.8933"/>
<polygon fill="#191970" stroke="#191970" points="653.0864,-73.4214 642.7061,-75.5426 652.1436,-80.3576 653.0864,-73.4214"/>
</g>
<!-- Node15&#45;&gt;Node3 -->
<g id="edge21" class="edge">
<title>Node15&#45;&gt;Node3</title>
<path fill="none" stroke="#191970" d="M645.5315,-60.0775C662.584,-58.7168 680.6772,-57.291 697.5,-56 924.8221,-38.5552 1198.6908,-18.9006 1291.1972,-12.2995"/>
<polygon fill="#191970" stroke="#191970" points="1291.5925,-15.7803 1301.3182,-11.5777 1291.0945,-8.798 1291.5925,-15.7803"/>
</g>
<!-- Node15&#45;&gt;Node5 -->
<g id="edge22" class="edge">
<title>Node15&#45;&gt;Node5</title>
<path fill="none" stroke="#191970" d="M581.2093,-56.2455C588.3073,-48.2958 598.5084,-36.8706 606.995,-27.3656"/>
<polygon fill="#191970" stroke="#191970" points="609.8411,-29.4331 613.8905,-19.6427 604.6195,-24.771 609.8411,-29.4331"/>
</g>
<!-- Node15&#45;&gt;Node7 -->
<g id="edge23" class="edge">
<title>Node15&#45;&gt;Node7</title>
<path fill="none" stroke="#191970" d="M510.8521,-56.4369C445.1519,-46.2452 341.6332,-30.1869 275.1695,-19.8767"/>
<polygon fill="#191970" stroke="#191970" points="275.6553,-16.4103 265.2369,-18.3359 274.5822,-23.3276 275.6553,-16.4103"/>
</g>
<!-- Node16 -->
<g id="node17" class="node">
<title>Node16</title>
<polygon fill="#ffffff" stroke="#bfbfbf" points="377.5,-.5 377.5,-19.5 473.5,-19.5 473.5,-.5 377.5,-.5"/>
<text text-anchor="middle" x="425.5" y="-7.5" font-family="Helvetica,sans-Serif" font-size="10.00" fill="#000000">AMReX_Vector.H</text>
</g>
<!-- Node15&#45;&gt;Node16 -->
<g id="edge24" class="edge">
<title>Node15&#45;&gt;Node16</title>
<path fill="none" stroke="#191970" d="M547.2298,-56.3733C523.1034,-47.1822 486.5638,-33.2624 459.8123,-23.0713"/>
<polygon fill="#191970" stroke="#191970" points="461.0313,-19.7904 450.4404,-19.5011 458.5393,-26.3318 461.0313,-19.7904"/>
</g>
<!-- Node17&#45;&gt;Node3 -->
<g id="edge26" class="edge">
<title>Node17&#45;&gt;Node3</title>
<path fill="none" stroke="#191970" d="M1571.5589,-112.4054C1597.1706,-99.9588 1633.7154,-77.3095 1615.5,-56 1598.7691,-36.427 1428.8038,-19.2712 1356.1507,-12.7724"/>
<polygon fill="#191970" stroke="#191970" points="1356.0338,-9.2486 1345.7651,-11.8569 1355.4191,-16.2215 1356.0338,-9.2486"/>
</g>
<!-- Node17&#45;&gt;Node5 -->
<g id="edge27" class="edge">
<title>Node17&#45;&gt;Node5</title>
<path fill="none" stroke="#191970" d="M1560.7053,-112.4163C1575.6322,-98.5398 1598.4105,-72.6911 1582.5,-56 1553.0615,-25.1171 957.6984,-14.2178 719.6336,-11.0846"/>
<polygon fill="#191970" stroke="#191970" points="719.6437,-7.5846 709.5991,-10.9544 719.5528,-14.584 719.6437,-7.5846"/>
</g>
<!-- Node17&#45;&gt;Node18 -->
<g id="edge28" class="edge">
<title>Node17&#45;&gt;Node18</title>
<path fill="none" stroke="#191970" d="M1544.1002,-112.2455C1539.8773,-104.617 1533.8827,-93.7881 1528.7559,-84.5267"/>
<polygon fill="#191970" stroke="#191970" points="1531.7432,-82.6965 1523.8379,-75.6427 1525.619,-86.0867 1531.7432,-82.6965"/>
</g>
<!-- Node19&#45;&gt;Node3 -->
<g id="edge30" class="edge">
<title>Node19&#45;&gt;Node3</title>
<path fill="none" stroke="#191970" d="M507.3201,-112.381C562.8349,-97.8512 673.1952,-70.4703 768.5,-56 965.8162,-26.041 1205.7735,-14.4879 1291.3162,-11.1367"/>
<polygon fill="#191970" stroke="#191970" points="1291.57,-14.6296 1301.4293,-10.7509 1291.3031,-7.6347 1291.57,-14.6296"/>
</g>
<!-- Node19&#45;&gt;Node5 -->
<g id="edge31" class="edge">
<title>Node19&#45;&gt;Node5</title>
<path fill="none" stroke="#191970" d="M471.6286,-112.1247C472.347,-97.8848 475.7469,-71.5881 490.5,-56 505.9065,-39.7216 527.3766,-29.2015 548.5302,-22.4037"/>
<polygon fill="#191970" stroke="#191970" points="549.6119,-25.7337 558.2042,-19.535 547.6217,-19.0225 549.6119,-25.7337"/>
</g>
<!-- Node19&#45;&gt;Node7 -->
<g id="edge33" class="edge">
<title>Node19&#45;&gt;Node7</title>
<path fill="none" stroke="#191970" d="M400.7979,-112.4961C347.8662,-104.3396 280.7568,-91.4682 257.5,-76 240.3029,-64.5622 227.6246,-44.3163 219.9827,-29.2545"/>
<polygon fill="#191970" stroke="#191970" points="222.9563,-27.3573 215.5032,-19.8273 216.6338,-30.3616 222.9563,-27.3573"/>
</g>
<!-- Node19&#45;&gt;Node15 -->
<g id="edge32" class="edge">
<title>Node19&#45;&gt;Node15</title>
<path fill="none" stroke="#191970" d="M489.0929,-112.2455C504.879,-103.4928 528.2639,-90.527 546.2587,-80.5496"/>
<polygon fill="#191970" stroke="#191970" points="548.0603,-83.5528 555.1087,-75.6427 544.6659,-77.4308 548.0603,-83.5528"/>
</g>
<!-- Node19&#45;&gt;Node16 -->
<g id="edge34" class="edge">
<title>Node19&#45;&gt;Node16</title>
<path fill="none" stroke="#191970" d="M392.3317,-114.1811C342.2544,-107.413 284.1178,-95.5528 268.5,-76 238.2974,-38.1877 310.8907,-21.7473 367.1812,-14.807"/>
<polygon fill="#191970" stroke="#191970" points="367.587,-18.2835 377.1184,-13.6571 366.7823,-11.3299 367.587,-18.2835"/>
</g>
<!-- Node20 -->
<g id="node21" class="node">
<title>Node20</title>
<polygon fill="#ffffff" stroke="#bfbfbf" points="277.5,-56.5 277.5,-75.5 405.5,-75.5 405.5,-56.5 277.5,-56.5"/>
<text text-anchor="middle" x="341.5" y="-63.5" font-family="Helvetica,sans-Serif" font-size="10.00" fill="#000000">AMReX_PhysBCFunct.H</text>
</g>
<!-- Node19&#45;&gt;Node20 -->
<g id="edge35" class="edge">
<title>Node19&#45;&gt;Node20</title>
<path fill="none" stroke="#191970" d="M449.1522,-112.3733C428.0967,-103.3032 396.3505,-89.6279 372.7825,-79.4755"/>
<polygon fill="#191970" stroke="#191970" points="374.125,-76.243 363.5562,-75.5011 371.3556,-82.6719 374.125,-76.243"/>
</g>
<!-- Node23 -->
<g id="node24" class="node">
<title>Node23</title>
<polygon fill="#ffffff" stroke="#bfbfbf" points="1845,-112.5 1845,-131.5 1936,-131.5 1936,-112.5 1845,-112.5"/>
<text text-anchor="middle" x="1890.5" y="-119.5" font-family="Helvetica,sans-Serif" font-size="10.00" fill="#000000">AMReX_REAL.H</text>
</g>
<!-- Node22&#45;&gt;Node23 -->
<g id="edge40" class="edge">
<title>Node22&#45;&gt;Node23</title>
<path fill="none" stroke="#191970" d="M1895.4549,-168.2455C1894.672,-160.9382 1893.5744,-150.6944 1892.6112,-141.7046"/>
<polygon fill="#191970" stroke="#191970" points="1896.0786,-141.2129 1891.5331,-131.6427 1889.1185,-141.9587 1896.0786,-141.2129"/>
</g>
<!-- Node24 -->
<g id="node25" class="node">
<title>Node24</title>
<polygon fill="#ffffff" stroke="#bfbfbf" points="1954,-112.5 1954,-131.5 2039,-131.5 2039,-112.5 1954,-112.5"/>
<text text-anchor="middle" x="1996.5" y="-119.5" font-family="Helvetica,sans-Serif" font-size="10.00" fill="#000000">AMReX_Box.H</text>
</g>
<!-- Node22&#45;&gt;Node24 -->
<g id="edge41" class="edge">
<title>Node22&#45;&gt;Node24</title>
<path fill="none" stroke="#191970" d="M1913.9187,-168.2455C1929.5485,-159.4928 1952.7019,-146.527 1970.5185,-136.5496"/>
<polygon fill="#191970" stroke="#191970" points="1972.266,-139.5825 1979.2809,-131.6427 1968.8457,-133.475 1972.266,-139.5825"/>
</g>
<!-- Node25 -->
<g id="node26" class="node">
<title>Node25</title>
<polygon fill="#ffffff" stroke="#bfbfbf" points="1706,-112.5 1706,-131.5 1827,-131.5 1827,-112.5 1706,-112.5"/>
<text text-anchor="middle" x="1766.5" y="-119.5" font-family="Helvetica,sans-Serif" font-size="10.00" fill="#000000">AMReX_Orientation.H</text>
</g>
<!-- Node22&#45;&gt;Node25 -->
<g id="edge42" class="edge">
<title>Node22&#45;&gt;Node25</title>
<path fill="none" stroke="#191970" d="M1874.1522,-168.3733C1853.0967,-159.3032 1821.3505,-145.6279 1797.7825,-135.4755"/>
<polygon fill="#191970" stroke="#191970" points="1799.125,-132.243 1788.5562,-131.5011 1796.3556,-138.6719 1799.125,-132.243"/>
</g>
<!-- Node22&#45;&gt;Node26 -->
<g id="edge43" class="edge">
<title>Node22&#45;&gt;Node26</title>
<path fill="none" stroke="#191970" d="M1933.8036,-168.3733C1970.6685,-158.8598 2027.166,-144.2797 2066.9506,-134.0127"/>
<polygon fill="#191970" stroke="#191970" points="2067.875,-137.3889 2076.6831,-131.5011 2066.1258,-130.611 2067.875,-137.3889"/>
</g>
</g>
</svg>
