<?xml version="1.0" encoding="UTF-8" standalone="no"?>
<!DOCTYPE svg PUBLIC "-//W3C//DTD SVG 1.1//EN"
 "http://www.w3.org/Graphics/SVG/1.1/DTD/svg11.dtd">
<!-- Generated by graphviz version 2.40.1 (20161225.0304)
 -->
<!-- Title: fast_types.H Pages: 1 -->
<svg width="198pt" height="106pt"
 viewBox="0.00 0.00 198.00 106.00" xmlns="http://www.w3.org/2000/svg" xmlns:xlink="http://www.w3.org/1999/xlink">
<g id="graph0" class="graph" transform="scale(1 1) rotate(0) translate(4 102)">
<title>fast_types.H</title>
<polygon fill="#ffffff" stroke="transparent" points="-4,4 -4,-102 194,-102 194,4 -4,4"/>
<!-- Node0 -->
<g id="node1" class="node">
<title>Node0</title>
<polygon fill="#bfbfbf" stroke="#000000" points="77,-78.5 77,-97.5 155,-97.5 155,-78.5 77,-78.5"/>
<text text-anchor="middle" x="116" y="-85.5" font-family="Helvetica,sans-Serif" font-size="10.00" fill="#000000">fast_types.H</text>
</g>
<!-- Node1 -->
<g id="node2" class="node">
<title>Node1</title>
<g id="a_node2"><a xlink:href="fast__wrapper_8_h.html" target="_top" xlink:title="amr&#45;wind/wind_energy\l/actuator/turbine/fast\l/fast_wrapper.H">
<polygon fill="#ffffff" stroke="#000000" points="0,-.5 0,-41.5 128,-41.5 128,-.5 0,-.5"/>
<text text-anchor="start" x="8" y="-29.5" font-family="Helvetica,sans-Serif" font-size="10.00" fill="#000000">amr&#45;wind/wind_energy</text>
<text text-anchor="start" x="8" y="-18.5" font-family="Helvetica,sans-Serif" font-size="10.00" fill="#000000">/actuator/turbine/fast</text>
<text text-anchor="middle" x="64" y="-7.5" font-family="Helvetica,sans-Serif" font-size="10.00" fill="#000000">/fast_wrapper.H</text>
</a>
</g>
</g>
<!-- Node0&#45;&gt;Node1 -->
<g id="edge1" class="edge">
<title>Node0&#45;&gt;Node1</title>
<path fill="none" stroke="#191970" d="M108.5497,-78.4005C102.6996,-70.863 94.2354,-59.9571 86.2525,-49.6715"/>
<polygon fill="#191970" stroke="#191970" points="88.909,-47.3857 80.0127,-41.6318 83.379,-51.6776 88.909,-47.3857"/>
</g>
<!-- Node2 -->
<g id="node3" class="node">
<title>Node2</title>
<polygon fill="#ffffff" stroke="#bfbfbf" points="146,-11.5 146,-30.5 190,-30.5 190,-11.5 146,-11.5"/>
<text text-anchor="middle" x="168" y="-18.5" font-family="Helvetica,sans-Serif" font-size="10.00" fill="#000000">string</text>
</g>
<!-- Node0&#45;&gt;Node2 -->
<g id="edge2" class="edge">
<title>Node0&#45;&gt;Node2</title>
<path fill="none" stroke="#191970" d="M123.4503,-78.4005C131.4821,-68.052 144.4415,-51.3542 154.3174,-38.6295"/>
<polygon fill="#191970" stroke="#191970" points="157.1972,-40.6275 160.5635,-30.5817 151.6672,-36.3356 157.1972,-40.6275"/>
</g>
</g>
</svg>
