<?xml version="1.0" encoding="UTF-8" standalone="no"?>
<!DOCTYPE svg PUBLIC "-//W3C//DTD SVG 1.1//EN"
 "http://www.w3.org/Graphics/SVG/1.1/DTD/svg11.dtd">
<!-- Generated by graphviz version 2.40.1 (20161225.0304)
 -->
<!-- Title: fast_types.H Pages: 1 -->
<svg width="193pt" height="252pt"
 viewBox="0.00 0.00 193.00 252.00" xmlns="http://www.w3.org/2000/svg" xmlns:xlink="http://www.w3.org/1999/xlink">
<g id="graph0" class="graph" transform="scale(1 1) rotate(0) translate(4 248)">
<title>fast_types.H</title>
<polygon fill="#ffffff" stroke="transparent" points="-4,4 -4,-248 189,-248 189,4 -4,4"/>
<!-- Node3 -->
<g id="node1" class="node">
<title>Node3</title>
<polygon fill="#bfbfbf" stroke="#000000" points="68,-224.5 68,-243.5 146,-243.5 146,-224.5 68,-224.5"/>
<text text-anchor="middle" x="107" y="-231.5" font-family="Helvetica,sans-Serif" font-size="10.00" fill="#000000">fast_types.H</text>
</g>
<!-- Node4 -->
<g id="node2" class="node">
<title>Node4</title>
<g id="a_node2"><a xlink:href="_fast_iface_8_h.html" target="_top" xlink:title="FastIface.H">
<polygon fill="#ffffff" stroke="#000000" points="39.5,-168.5 39.5,-187.5 110.5,-187.5 110.5,-168.5 39.5,-168.5"/>
<text text-anchor="middle" x="75" y="-175.5" font-family="Helvetica,sans-Serif" font-size="10.00" fill="#000000">FastIface.H</text>
</a>
</g>
</g>
<!-- Node3&#45;&gt;Node4 -->
<g id="edge1" class="edge">
<title>Node3&#45;&gt;Node4</title>
<path fill="none" stroke="#191970" d="M96.3355,-215.3372C91.0346,-206.0605 84.8513,-195.2398 80.5101,-187.6427"/>
<polygon fill="#191970" stroke="#191970" points="93.4257,-217.2996 101.426,-224.2455 99.5034,-213.8266 93.4257,-217.2996"/>
</g>
<!-- Node6 -->
<g id="node4" class="node">
<title>Node6</title>
<g id="a_node4"><a xlink:href="_turbine_fast_8_h.html" target="_top" xlink:title="TurbineFast.H">
<polygon fill="#ffffff" stroke="#000000" points="98,-112.5 98,-131.5 180,-131.5 180,-112.5 98,-112.5"/>
<text text-anchor="middle" x="139" y="-119.5" font-family="Helvetica,sans-Serif" font-size="10.00" fill="#000000">TurbineFast.H</text>
</a>
</g>
</g>
<!-- Node3&#45;&gt;Node6 -->
<g id="edge7" class="edge">
<title>Node3&#45;&gt;Node6</title>
<path fill="none" stroke="#191970" d="M112.5432,-214.5987C119.4677,-190.363 131.0414,-149.8551 136.2786,-131.5249"/>
<polygon fill="#191970" stroke="#191970" points="109.1102,-213.8742 109.7283,-224.4509 115.8409,-215.7972 109.1102,-213.8742"/>
</g>
<!-- Node5 -->
<g id="node3" class="node">
<title>Node5</title>
<g id="a_node3"><a xlink:href="_fast_iface_8cpp.html" target="_top" xlink:title="FastIface.cpp">
<polygon fill="#ffffff" stroke="#000000" points="0,-112.5 0,-131.5 80,-131.5 80,-112.5 0,-112.5"/>
<text text-anchor="middle" x="40" y="-119.5" font-family="Helvetica,sans-Serif" font-size="10.00" fill="#000000">FastIface.cpp</text>
</a>
</g>
</g>
<!-- Node4&#45;&gt;Node5 -->
<g id="edge2" class="edge">
<title>Node4&#45;&gt;Node5</title>
<path fill="none" stroke="#191970" d="M63.5185,-159.6296C57.6804,-150.2887 50.8248,-139.3197 46.0267,-131.6427"/>
<polygon fill="#191970" stroke="#191970" points="60.6354,-161.6206 68.9035,-168.2455 66.5714,-157.9105 60.6354,-161.6206"/>
</g>
<!-- Node4&#45;&gt;Node6 -->
<g id="edge3" class="edge">
<title>Node4&#45;&gt;Node6</title>
<path fill="none" stroke="#191970" d="M93.6914,-161.645C104.8219,-151.9058 118.5663,-139.8795 127.9798,-131.6427"/>
<polygon fill="#191970" stroke="#191970" points="91.369,-159.0264 86.1479,-168.2455 95.9785,-164.2945 91.369,-159.0264"/>
</g>
<!-- Node7 -->
<g id="node5" class="node">
<title>Node7</title>
<g id="a_node5"><a xlink:href="turbine__fast__ops_8_h.html" target="_top" xlink:title="turbine_fast_ops.H">
<polygon fill="#ffffff" stroke="#000000" points="44,-56.5 44,-75.5 152,-75.5 152,-56.5 44,-56.5"/>
<text text-anchor="middle" x="98" y="-63.5" font-family="Helvetica,sans-Serif" font-size="10.00" fill="#000000">turbine_fast_ops.H</text>
</a>
</g>
</g>
<!-- Node6&#45;&gt;Node7 -->
<g id="edge4" class="edge">
<title>Node6&#45;&gt;Node7</title>
<path fill="none" stroke="#191970" d="M125.7636,-103.9209C118.8789,-94.5176 110.7391,-83.3997 105.0598,-75.6427"/>
<polygon fill="#191970" stroke="#191970" points="123.1269,-106.2445 131.8583,-112.2455 128.7749,-102.1093 123.1269,-106.2445"/>
</g>
<!-- Node8 -->
<g id="node6" class="node">
<title>Node8</title>
<g id="a_node6"><a xlink:href="_turbine_fast_8cpp.html" target="_top" xlink:title="TurbineFast.cpp">
<polygon fill="#ffffff" stroke="#000000" points="93,-.5 93,-19.5 185,-19.5 185,-.5 93,-.5"/>
<text text-anchor="middle" x="139" y="-7.5" font-family="Helvetica,sans-Serif" font-size="10.00" fill="#000000">TurbineFast.cpp</text>
</a>
</g>
</g>
<!-- Node6&#45;&gt;Node8 -->
<g id="edge6" class="edge">
<title>Node6&#45;&gt;Node8</title>
<path fill="none" stroke="#191970" d="M150.2633,-103.3325C154.522,-95.2328 158.856,-85.452 161,-76 165.6489,-55.5047 153.8147,-32.3798 145.7565,-19.6683"/>
<polygon fill="#191970" stroke="#191970" points="147.1039,-101.8105 145.2583,-112.2433 153.2071,-105.2385 147.1039,-101.8105"/>
</g>
<!-- Node7&#45;&gt;Node8 -->
<g id="edge5" class="edge">
<title>Node7&#45;&gt;Node8</title>
<path fill="none" stroke="#191970" d="M111.2364,-47.9209C118.1211,-38.5176 126.2609,-27.3997 131.9402,-19.6427"/>
<polygon fill="#191970" stroke="#191970" points="108.2251,-46.1093 105.1417,-56.2455 113.8731,-50.2445 108.2251,-46.1093"/>
</g>
</g>
</svg>
