<?xml version="1.0" encoding="UTF-8" standalone="no"?>
<!DOCTYPE svg PUBLIC "-//W3C//DTD SVG 1.1//EN"
 "http://www.w3.org/Graphics/SVG/1.1/DTD/svg11.dtd">
<!-- Generated by graphviz version 2.40.1 (20161225.0304)
 -->
<!-- Title: field_ops.H Pages: 1 -->
<svg width="972pt" height="196pt"
 viewBox="0.00 0.00 971.50 196.00" xmlns="http://www.w3.org/2000/svg" xmlns:xlink="http://www.w3.org/1999/xlink">
<g id="graph0" class="graph" transform="scale(1 1) rotate(0) translate(4 192)">
<title>field_ops.H</title>
<polygon fill="#ffffff" stroke="transparent" points="-4,4 -4,-192 967.5,-192 967.5,4 -4,4"/>
<!-- Node0 -->
<g id="node1" class="node">
<title>Node0</title>
<polygon fill="#bfbfbf" stroke="#000000" points="172,-168.5 172,-187.5 243,-187.5 243,-168.5 172,-168.5"/>
<text text-anchor="middle" x="207.5" y="-175.5" font-family="Helvetica,sans-Serif" font-size="10.00" fill="#000000">field_ops.H</text>
</g>
<!-- Node1 -->
<g id="node2" class="node">
<title>Node1</title>
<g id="a_node2"><a xlink:href="_field_8_h.html" target="_top" xlink:title="amr&#45;wind/core/Field.H">
<polygon fill="#ffffff" stroke="#000000" points="339.5,-112.5 339.5,-131.5 461.5,-131.5 461.5,-112.5 339.5,-112.5"/>
<text text-anchor="middle" x="400.5" y="-119.5" font-family="Helvetica,sans-Serif" font-size="10.00" fill="#000000">amr&#45;wind/core/Field.H</text>
</a>
</g>
</g>
<!-- Node0&#45;&gt;Node1 -->
<g id="edge1" class="edge">
<title>Node0&#45;&gt;Node1</title>
<path fill="none" stroke="#191970" d="M240.6779,-168.3733C273.0487,-158.9807 322.4398,-144.6496 357.7424,-134.4064"/>
<polygon fill="#191970" stroke="#191970" points="359.1265,-137.6492 367.7551,-131.5011 357.1758,-130.9264 359.1265,-137.6492"/>
</g>
<!-- Node6 -->
<g id="node7" class="node">
<title>Node6</title>
<polygon fill="#ffffff" stroke="#bfbfbf" points="0,-.5 0,-19.5 107,-19.5 107,-.5 0,-.5"/>
<text text-anchor="middle" x="53.5" y="-7.5" font-family="Helvetica,sans-Serif" font-size="10.00" fill="#000000">AMReX_MultiFab.H</text>
</g>
<!-- Node0&#45;&gt;Node6 -->
<g id="edge16" class="edge">
<title>Node0&#45;&gt;Node6</title>
<path fill="none" stroke="#191970" d="M179.5597,-168.4455C143.5575,-154.4648 82.4082,-124.6718 55.5,-76 47.7098,-61.9091 47.8657,-43.4132 49.5935,-29.5875"/>
<polygon fill="#191970" stroke="#191970" points="53.0553,-30.1042 51.1943,-19.6741 46.1448,-28.9882 53.0553,-30.1042"/>
</g>
<!-- Node2 -->
<g id="node3" class="node">
<title>Node2</title>
<polygon fill="#ffffff" stroke="#bfbfbf" points="919.5,-.5 919.5,-19.5 963.5,-19.5 963.5,-.5 919.5,-.5"/>
<text text-anchor="middle" x="941.5" y="-7.5" font-family="Helvetica,sans-Serif" font-size="10.00" fill="#000000">string</text>
</g>
<!-- Node1&#45;&gt;Node2 -->
<g id="edge2" class="edge">
<title>Node1&#45;&gt;Node2</title>
<path fill="none" stroke="#191970" d="M461.635,-119.4133C586.8728,-113.6782 863.9278,-98.5907 900.5,-76 917.6572,-65.402 928.7578,-44.6736 935.0246,-29.2612"/>
<polygon fill="#191970" stroke="#191970" points="938.401,-30.223 938.6058,-19.6301 931.8399,-27.7832 938.401,-30.223"/>
</g>
<!-- Node3 -->
<g id="node4" class="node">
<title>Node3</title>
<polygon fill="#ffffff" stroke="#bfbfbf" points="81.5,-56.5 81.5,-75.5 139.5,-75.5 139.5,-56.5 81.5,-56.5"/>
<text text-anchor="middle" x="110.5" y="-63.5" font-family="Helvetica,sans-Serif" font-size="10.00" fill="#000000">memory</text>
</g>
<!-- Node1&#45;&gt;Node3 -->
<g id="edge3" class="edge">
<title>Node1&#45;&gt;Node3</title>
<path fill="none" stroke="#191970" d="M341.178,-112.4935C292.2485,-104.3517 220.8201,-91.778 149.9047,-76.1949"/>
<polygon fill="#191970" stroke="#191970" points="150.4248,-72.7253 139.904,-73.9763 148.9086,-79.5591 150.4248,-72.7253"/>
</g>
<!-- Node4 -->
<g id="node5" class="node">
<title>Node4</title>
<polygon fill="#ffffff" stroke="#bfbfbf" points="158,-56.5 158,-75.5 251,-75.5 251,-56.5 158,-56.5"/>
<text text-anchor="middle" x="204.5" y="-63.5" font-family="Helvetica,sans-Serif" font-size="10.00" fill="#000000">unordered_map</text>
</g>
<!-- Node1&#45;&gt;Node4 -->
<g id="edge4" class="edge">
<title>Node1&#45;&gt;Node4</title>
<path fill="none" stroke="#191970" d="M366.8064,-112.3733C333.7913,-102.9404 283.3427,-88.5265 247.4614,-78.2747"/>
<polygon fill="#191970" stroke="#191970" points="248.3307,-74.8831 237.7539,-75.5011 246.4076,-81.6137 248.3307,-74.8831"/>
</g>
<!-- Node5 -->
<g id="node6" class="node">
<title>Node5</title>
<polygon fill="#ffffff" stroke="#bfbfbf" points="269.5,-56.5 269.5,-75.5 333.5,-75.5 333.5,-56.5 269.5,-56.5"/>
<text text-anchor="middle" x="301.5" y="-63.5" font-family="Helvetica,sans-Serif" font-size="10.00" fill="#000000">algorithm</text>
</g>
<!-- Node1&#45;&gt;Node5 -->
<g id="edge5" class="edge">
<title>Node1&#45;&gt;Node5</title>
<path fill="none" stroke="#191970" d="M383.2555,-112.2455C367.9239,-103.5731 345.2801,-90.7645 327.7084,-80.825"/>
<polygon fill="#191970" stroke="#191970" points="328.9741,-77.5198 318.5469,-75.6427 325.5276,-83.6126 328.9741,-77.5198"/>
</g>
<!-- Node1&#45;&gt;Node6 -->
<g id="edge6" class="edge">
<title>Node1&#45;&gt;Node6</title>
<path fill="none" stroke="#191970" d="M339.4448,-117.0228C250.1367,-109.2095 92.2843,-93.175 72.5,-76 59.4412,-64.6635 55.0806,-44.9889 53.754,-30.0622"/>
<polygon fill="#191970" stroke="#191970" points="57.2353,-29.6014 53.237,-19.79 50.2441,-29.9533 57.2353,-29.6014"/>
</g>
<!-- Node7 -->
<g id="node8" class="node">
<title>Node7</title>
<polygon fill="#ffffff" stroke="#bfbfbf" points="352,-56.5 352,-75.5 449,-75.5 449,-56.5 352,-56.5"/>
<text text-anchor="middle" x="400.5" y="-63.5" font-family="Helvetica,sans-Serif" font-size="10.00" fill="#000000">AMReX_BCRec.H</text>
</g>
<!-- Node1&#45;&gt;Node7 -->
<g id="edge7" class="edge">
<title>Node1&#45;&gt;Node7</title>
<path fill="none" stroke="#191970" d="M400.5,-112.2455C400.5,-104.9382 400.5,-94.6944 400.5,-85.7046"/>
<polygon fill="#191970" stroke="#191970" points="404.0001,-85.6426 400.5,-75.6427 397.0001,-85.6427 404.0001,-85.6426"/>
</g>
<!-- Node8 -->
<g id="node9" class="node">
<title>Node8</title>
<polygon fill="#ffffff" stroke="#bfbfbf" points="467.5,-56.5 467.5,-75.5 553.5,-75.5 553.5,-56.5 467.5,-56.5"/>
<text text-anchor="middle" x="510.5" y="-63.5" font-family="Helvetica,sans-Serif" font-size="10.00" fill="#000000">AMReX_Gpu.H</text>
</g>
<!-- Node1&#45;&gt;Node8 -->
<g id="edge8" class="edge">
<title>Node1&#45;&gt;Node8</title>
<path fill="none" stroke="#191970" d="M419.6605,-112.2455C437.0111,-103.4125 462.7901,-90.2887 482.4583,-80.2758"/>
<polygon fill="#191970" stroke="#191970" points="484.2353,-83.2986 491.559,-75.6427 481.0595,-77.0605 484.2353,-83.2986"/>
</g>
<!-- Node9 -->
<g id="node10" class="node">
<title>Node9</title>
<g id="a_node10"><a xlink:href="incflo__enums_8_h.html" target="_top" xlink:title="amr&#45;wind/incflo_enums.H">
<polygon fill="#ffffff" stroke="#000000" points="571.5,-56.5 571.5,-75.5 711.5,-75.5 711.5,-56.5 571.5,-56.5"/>
<text text-anchor="middle" x="641.5" y="-63.5" font-family="Helvetica,sans-Serif" font-size="10.00" fill="#000000">amr&#45;wind/incflo_enums.H</text>
</a>
</g>
</g>
<!-- Node1&#45;&gt;Node9 -->
<g id="edge9" class="edge">
<title>Node1&#45;&gt;Node9</title>
<path fill="none" stroke="#191970" d="M441.6555,-112.4369C482.8142,-102.8731 546.205,-88.1432 590.5242,-77.845"/>
<polygon fill="#191970" stroke="#191970" points="591.5659,-81.1963 600.5142,-75.5237 589.9815,-74.3779 591.5659,-81.1963"/>
</g>
<!-- Node10 -->
<g id="node11" class="node">
<title>Node10</title>
<g id="a_node11"><a xlink:href="_field_desc_types_8_h.html" target="_top" xlink:title="amr&#45;wind/core/FieldDescTypes.H">
<polygon fill="#ffffff" stroke="#000000" points="727.5,-.5 727.5,-19.5 901.5,-19.5 901.5,-.5 727.5,-.5"/>
<text text-anchor="middle" x="814.5" y="-7.5" font-family="Helvetica,sans-Serif" font-size="10.00" fill="#000000">amr&#45;wind/core/FieldDescTypes.H</text>
</a>
</g>
</g>
<!-- Node1&#45;&gt;Node10 -->
<g id="edge10" class="edge">
<title>Node1&#45;&gt;Node10</title>
<path fill="none" stroke="#191970" d="M461.7891,-120.6842C585.6823,-117.3886 856.5661,-106.7147 884.5,-76 901.8154,-56.9609 872.9305,-36.9317 847.1858,-24.001"/>
<polygon fill="#191970" stroke="#191970" points="848.4656,-20.7333 837.9344,-19.5732 845.4436,-27.0474 848.4656,-20.7333"/>
</g>
<!-- Node11 -->
<g id="node12" class="node">
<title>Node11</title>
<g id="a_node12"><a xlink:href="_view_field_8_h.html" target="_top" xlink:title="amr&#45;wind/core/ViewField.H">
<polygon fill="#ffffff" stroke="#000000" points="729.5,-56.5 729.5,-75.5 875.5,-75.5 875.5,-56.5 729.5,-56.5"/>
<text text-anchor="middle" x="802.5" y="-63.5" font-family="Helvetica,sans-Serif" font-size="10.00" fill="#000000">amr&#45;wind/core/ViewField.H</text>
</a>
</g>
</g>
<!-- Node1&#45;&gt;Node11 -->
<g id="edge11" class="edge">
<title>Node1&#45;&gt;Node11</title>
<path fill="none" stroke="#191970" d="M461.5551,-113.4948C531.7643,-103.7144 647.1976,-87.6342 724.0217,-76.9323"/>
<polygon fill="#191970" stroke="#191970" points="724.7069,-80.3707 734.1283,-75.5244 723.741,-73.4377 724.7069,-80.3707"/>
</g>
<!-- Node11&#45;&gt;Node2 -->
<g id="edge12" class="edge">
<title>Node11&#45;&gt;Node2</title>
<path fill="none" stroke="#191970" d="M826.395,-56.3733C849.4194,-47.0972 884.3996,-33.0045 909.7546,-22.7895"/>
<polygon fill="#191970" stroke="#191970" points="911.3249,-25.9303 919.2925,-18.9469 908.709,-19.4374 911.3249,-25.9303"/>
</g>
<!-- Node11&#45;&gt;Node6 -->
<g id="edge14" class="edge">
<title>Node11&#45;&gt;Node6</title>
<path fill="none" stroke="#191970" d="M729.2032,-56.868C726.265,-56.5632 723.3554,-56.2724 720.5,-56 499.3148,-34.9007 235.979,-19.6357 117.1952,-13.2769"/>
<polygon fill="#191970" stroke="#191970" points="117.354,-9.7805 107.182,-12.7437 116.9817,-16.7706 117.354,-9.7805"/>
</g>
<!-- Node11&#45;&gt;Node10 -->
<g id="edge13" class="edge">
<title>Node11&#45;&gt;Node10</title>
<path fill="none" stroke="#191970" d="M804.5902,-56.2455C806.1561,-48.9382 808.3512,-38.6944 810.2776,-29.7046"/>
<polygon fill="#191970" stroke="#191970" points="813.7607,-30.1541 812.4337,-19.6427 806.916,-28.6873 813.7607,-30.1541"/>
</g>
<!-- Node12 -->
<g id="node13" class="node">
<title>Node12</title>
<polygon fill="#ffffff" stroke="#bfbfbf" points="613.5,-.5 613.5,-19.5 709.5,-19.5 709.5,-.5 613.5,-.5"/>
<text text-anchor="middle" x="661.5" y="-7.5" font-family="Helvetica,sans-Serif" font-size="10.00" fill="#000000">AMReX_Vector.H</text>
</g>
<!-- Node11&#45;&gt;Node12 -->
<g id="edge15" class="edge">
<title>Node11&#45;&gt;Node12</title>
<path fill="none" stroke="#191970" d="M778.2612,-56.3733C755.2211,-47.2226 720.3786,-33.3844 694.7499,-23.2057"/>
<polygon fill="#191970" stroke="#191970" points="696.0082,-19.9395 685.4225,-19.5011 693.4244,-26.4452 696.0082,-19.9395"/>
</g>
</g>
</svg>
