<?xml version="1.0" encoding="UTF-8" standalone="no"?>
<!DOCTYPE svg PUBLIC "-//W3C//DTD SVG 1.1//EN"
 "http://www.w3.org/Graphics/SVG/1.1/DTD/svg11.dtd">
<!-- Generated by graphviz version 2.40.1 (20161225.0304)
 -->
<!-- Title: fvm_utils.H Pages: 1 -->
<svg width="1187pt" height="196pt"
 viewBox="0.00 0.00 1186.50 196.00" xmlns="http://www.w3.org/2000/svg" xmlns:xlink="http://www.w3.org/1999/xlink">
<g id="graph0" class="graph" transform="scale(1 1) rotate(0) translate(4 192)">
<title>fvm_utils.H</title>
<polygon fill="#ffffff" stroke="transparent" points="-4,4 -4,-192 1182.5,-192 1182.5,4 -4,4"/>
<!-- Node27 -->
<g id="node1" class="node">
<title>Node27</title>
<polygon fill="#bfbfbf" stroke="#000000" points="332.5,-168.5 332.5,-187.5 405.5,-187.5 405.5,-168.5 332.5,-168.5"/>
<text text-anchor="middle" x="369" y="-175.5" font-family="Helvetica,sans-Serif" font-size="10.00" fill="#000000">fvm_utils.H</text>
</g>
<!-- Node28 -->
<g id="node2" class="node">
<title>Node28</title>
<g id="a_node2"><a xlink:href="curvature_8_h.html" target="_top" xlink:title="curvature.H">
<polygon fill="#ffffff" stroke="#000000" points="92,-112.5 92,-131.5 166,-131.5 166,-112.5 92,-112.5"/>
<text text-anchor="middle" x="129" y="-119.5" font-family="Helvetica,sans-Serif" font-size="10.00" fill="#000000">curvature.H</text>
</a>
</g>
</g>
<!-- Node27&#45;&gt;Node28 -->
<g id="edge1" class="edge">
<title>Node27&#45;&gt;Node28</title>
<path fill="none" stroke="#191970" d="M322.3507,-167.1152C276.7227,-156.4686 208.1407,-140.4662 166.1027,-130.6573"/>
<polygon fill="#191970" stroke="#191970" points="321.7542,-170.5699 332.2879,-169.4338 323.3448,-163.753 321.7542,-170.5699"/>
</g>
<!-- Node31 -->
<g id="node5" class="node">
<title>Node31</title>
<g id="a_node5"><a xlink:href="divergence_8_h.html" target="_top" xlink:title="divergence.H">
<polygon fill="#ffffff" stroke="#000000" points="184.5,-112.5 184.5,-131.5 265.5,-131.5 265.5,-112.5 184.5,-112.5"/>
<text text-anchor="middle" x="225" y="-119.5" font-family="Helvetica,sans-Serif" font-size="10.00" fill="#000000">divergence.H</text>
</a>
</g>
</g>
<!-- Node27&#45;&gt;Node31 -->
<g id="edge4" class="edge">
<title>Node27&#45;&gt;Node31</title>
<path fill="none" stroke="#191970" d="M334.6818,-164.6541C308.422,-154.4419 272.8508,-140.6086 249.4315,-131.5011"/>
<polygon fill="#191970" stroke="#191970" points="333.6569,-168.0108 344.2455,-168.3733 336.194,-161.4867 333.6569,-168.0108"/>
</g>
<!-- Node32 -->
<g id="node6" class="node">
<title>Node32</title>
<g id="a_node6"><a xlink:href="gradient_8_h.html" target="_top" xlink:title="gradient.H">
<polygon fill="#ffffff" stroke="#000000" points="503,-112.5 503,-131.5 571,-131.5 571,-112.5 503,-112.5"/>
<text text-anchor="middle" x="537" y="-119.5" font-family="Helvetica,sans-Serif" font-size="10.00" fill="#000000">gradient.H</text>
</a>
</g>
</g>
<!-- Node27&#45;&gt;Node32 -->
<g id="edge6" class="edge">
<title>Node27&#45;&gt;Node32</title>
<path fill="none" stroke="#191970" d="M407.4286,-165.1905C438.2073,-154.9309 480.6926,-140.7691 508.4966,-131.5011"/>
<polygon fill="#191970" stroke="#191970" points="406.2602,-161.8905 397.8802,-168.3733 408.4739,-168.5313 406.2602,-161.8905"/>
</g>
<!-- Node41 -->
<g id="node15" class="node">
<title>Node41</title>
<g id="a_node15"><a xlink:href="laplacian_8_h.html" target="_top" xlink:title="laplacian.H">
<polygon fill="#ffffff" stroke="#000000" points="283.5,-112.5 283.5,-131.5 354.5,-131.5 354.5,-112.5 283.5,-112.5"/>
<text text-anchor="middle" x="319" y="-119.5" font-family="Helvetica,sans-Serif" font-size="10.00" fill="#000000">laplacian.H</text>
</a>
</g>
</g>
<!-- Node27&#45;&gt;Node41 -->
<g id="edge16" class="edge">
<title>Node27&#45;&gt;Node41</title>
<path fill="none" stroke="#191970" d="M353.3753,-160.5004C344.8727,-150.9775 334.6782,-139.5596 327.6095,-131.6427"/>
<polygon fill="#191970" stroke="#191970" points="351.0197,-163.1172 360.2907,-168.2455 356.2413,-158.4551 351.0197,-163.1172"/>
</g>
<!-- Node42 -->
<g id="node16" class="node">
<title>Node42</title>
<g id="a_node16"><a xlink:href="strainrate_8_h.html" target="_top" xlink:title="strainrate.H">
<polygon fill="#ffffff" stroke="#000000" points="758,-112.5 758,-131.5 832,-131.5 832,-112.5 758,-112.5"/>
<text text-anchor="middle" x="795" y="-119.5" font-family="Helvetica,sans-Serif" font-size="10.00" fill="#000000">strainrate.H</text>
</a>
</g>
</g>
<!-- Node27&#45;&gt;Node42 -->
<g id="edge18" class="edge">
<title>Node27&#45;&gt;Node42</title>
<path fill="none" stroke="#191970" d="M415.6074,-171.8732C500.8737,-160.6645 680.339,-137.0728 757.9445,-126.8711"/>
<polygon fill="#191970" stroke="#191970" points="415.1477,-168.4034 405.6892,-173.177 416.0601,-175.3437 415.1477,-168.4034"/>
</g>
<!-- Node44 -->
<g id="node18" class="node">
<title>Node44</title>
<g id="a_node18"><a xlink:href="vorticity__mag_8_h.html" target="_top" xlink:title="vorticity_mag.H">
<polygon fill="#ffffff" stroke="#000000" points="372.5,-112.5 372.5,-131.5 467.5,-131.5 467.5,-112.5 372.5,-112.5"/>
<text text-anchor="middle" x="420" y="-119.5" font-family="Helvetica,sans-Serif" font-size="10.00" fill="#000000">vorticity_mag.H</text>
</a>
</g>
</g>
<!-- Node27&#45;&gt;Node44 -->
<g id="edge24" class="edge">
<title>Node27&#45;&gt;Node44</title>
<path fill="none" stroke="#191970" d="M384.6749,-160.7884C393.3994,-151.2085 403.9354,-139.6396 411.2183,-131.6427"/>
<polygon fill="#191970" stroke="#191970" points="382.0291,-158.4954 377.8835,-168.2455 387.2046,-163.2088 382.0291,-158.4954"/>
</g>
<!-- Node45 -->
<g id="node19" class="node">
<title>Node45</title>
<g id="a_node19"><a xlink:href="qcriterion_8_h.html" target="_top" xlink:title="qcriterion.H">
<polygon fill="#ffffff" stroke="#000000" points="0,-112.5 0,-131.5 74,-131.5 74,-112.5 0,-112.5"/>
<text text-anchor="middle" x="37" y="-119.5" font-family="Helvetica,sans-Serif" font-size="10.00" fill="#000000">qcriterion.H</text>
</a>
</g>
</g>
<!-- Node27&#45;&gt;Node45 -->
<g id="edge26" class="edge">
<title>Node27&#45;&gt;Node45</title>
<path fill="none" stroke="#191970" d="M322.2224,-171.2775C265.4744,-162.9375 166.9701,-147.8678 83,-132 80.109,-131.4537 77.1215,-130.8633 74.1216,-130.252"/>
<polygon fill="#191970" stroke="#191970" points="321.9182,-174.7702 332.3197,-172.7551 322.9319,-167.8439 321.9182,-174.7702"/>
</g>
<!-- Node46 -->
<g id="node20" class="node">
<title>Node46</title>
<g id="a_node20"><a xlink:href="vorticity_8_h.html" target="_top" xlink:title="vorticity.H">
<polygon fill="#ffffff" stroke="#000000" points="926,-112.5 926,-131.5 992,-131.5 992,-112.5 926,-112.5"/>
<text text-anchor="middle" x="959" y="-119.5" font-family="Helvetica,sans-Serif" font-size="10.00" fill="#000000">vorticity.H</text>
</a>
</g>
</g>
<!-- Node27&#45;&gt;Node46 -->
<g id="edge28" class="edge">
<title>Node27&#45;&gt;Node46</title>
<path fill="none" stroke="#191970" d="M416.1917,-173.5208C531.7227,-162.5551 826.5406,-134.5724 925.8053,-125.1507"/>
<polygon fill="#191970" stroke="#191970" points="415.5317,-170.0676 405.9071,-174.4969 416.1931,-177.0363 415.5317,-170.0676"/>
</g>
<!-- Node29 -->
<g id="node3" class="node">
<title>Node29</title>
<g id="a_node3"><a xlink:href="fvm_8_h.html" target="_top" xlink:title="fvm.H">
<polygon fill="#ffffff" stroke="#000000" points="96.5,-56.5 96.5,-75.5 143.5,-75.5 143.5,-56.5 96.5,-56.5"/>
<text text-anchor="middle" x="120" y="-63.5" font-family="Helvetica,sans-Serif" font-size="10.00" fill="#000000">fvm.H</text>
</a>
</g>
</g>
<!-- Node28&#45;&gt;Node29 -->
<g id="edge2" class="edge">
<title>Node28&#45;&gt;Node29</title>
<path fill="none" stroke="#191970" d="M125.811,-102.1575C124.3642,-93.155 122.7193,-82.9199 121.5497,-75.6427"/>
<polygon fill="#191970" stroke="#191970" points="122.3898,-102.9276 127.4323,-112.2455 129.3011,-101.8168 122.3898,-102.9276"/>
</g>
<!-- Node30 -->
<g id="node4" class="node">
<title>Node30</title>
<g id="a_node4"><a xlink:href="_derived_qty_defs_8cpp.html" target="_top" xlink:title="DerivedQtyDefs.cpp">
<polygon fill="#ffffff" stroke="#000000" points="62.5,-.5 62.5,-19.5 177.5,-19.5 177.5,-.5 62.5,-.5"/>
<text text-anchor="middle" x="120" y="-7.5" font-family="Helvetica,sans-Serif" font-size="10.00" fill="#000000">DerivedQtyDefs.cpp</text>
</a>
</g>
</g>
<!-- Node29&#45;&gt;Node30 -->
<g id="edge3" class="edge">
<title>Node29&#45;&gt;Node30</title>
<path fill="none" stroke="#191970" d="M120,-46.1575C120,-37.155 120,-26.9199 120,-19.6427"/>
<polygon fill="#191970" stroke="#191970" points="116.5001,-46.2455 120,-56.2455 123.5001,-46.2456 116.5001,-46.2455"/>
</g>
<!-- Node31&#45;&gt;Node29 -->
<g id="edge5" class="edge">
<title>Node31&#45;&gt;Node29</title>
<path fill="none" stroke="#191970" d="M197.7375,-107.46C178.9478,-97.4388 154.4987,-84.3993 138.08,-75.6427"/>
<polygon fill="#191970" stroke="#191970" points="196.2398,-110.6278 206.7104,-112.2455 199.5339,-104.4514 196.2398,-110.6278"/>
</g>
<!-- Node32&#45;&gt;Node29 -->
<g id="edge7" class="edge">
<title>Node32&#45;&gt;Node29</title>
<path fill="none" stroke="#191970" d="M492.8119,-114.4789C487.1606,-113.5986 481.4488,-112.7488 476,-112 332.463,-92.2739 293.7999,-105.7452 152,-76 149.2657,-75.4264 146.4317,-74.7164 143.6316,-73.9412"/>
<polygon fill="#191970" stroke="#191970" points="492.4222,-117.9609 502.8489,-116.0812 493.5257,-111.0484 492.4222,-117.9609"/>
</g>
<!-- Node33 -->
<g id="node7" class="node">
<title>Node33</title>
<g id="a_node7"><a xlink:href="_dam_break_8cpp.html" target="_top" xlink:title="DamBreak.cpp">
<polygon fill="#ffffff" stroke="#000000" points="161.5,-56.5 161.5,-75.5 250.5,-75.5 250.5,-56.5 161.5,-56.5"/>
<text text-anchor="middle" x="206" y="-63.5" font-family="Helvetica,sans-Serif" font-size="10.00" fill="#000000">DamBreak.cpp</text>
</a>
</g>
</g>
<!-- Node32&#45;&gt;Node33 -->
<g id="edge8" class="edge">
<title>Node32&#45;&gt;Node33</title>
<path fill="none" stroke="#191970" d="M492.7056,-114.6906C420.3283,-102.7401 282.4813,-79.9479 260,-76 256.995,-75.4723 253.8975,-74.9203 250.7775,-74.3582"/>
<polygon fill="#191970" stroke="#191970" points="492.451,-118.1959 502.8876,-116.3716 493.5913,-111.2894 492.451,-118.1959"/>
</g>
<!-- Node34 -->
<g id="node8" class="node">
<title>Node34</title>
<g id="a_node8"><a xlink:href="_multi_phase_8cpp.html" target="_top" xlink:title="MultiPhase.cpp">
<polygon fill="#ffffff" stroke="#000000" points="269,-56.5 269,-75.5 359,-75.5 359,-56.5 269,-56.5"/>
<text text-anchor="middle" x="314" y="-63.5" font-family="Helvetica,sans-Serif" font-size="10.00" fill="#000000">MultiPhase.cpp</text>
</a>
</g>
</g>
<!-- Node32&#45;&gt;Node34 -->
<g id="edge9" class="edge">
<title>Node32&#45;&gt;Node34</title>
<path fill="none" stroke="#191970" d="M492.9032,-110.9264C451.8151,-100.6083 391.18,-85.3815 352.1321,-75.5758"/>
<polygon fill="#191970" stroke="#191970" points="492.0936,-114.3317 502.645,-113.3727 493.7986,-107.5425 492.0936,-114.3317"/>
</g>
<!-- Node35 -->
<g id="node9" class="node">
<title>Node35</title>
<g id="a_node9"><a xlink:href="_sloshing_tank_8cpp.html" target="_top" xlink:title="SloshingTank.cpp">
<polygon fill="#ffffff" stroke="#000000" points="377.5,-56.5 377.5,-75.5 478.5,-75.5 478.5,-56.5 377.5,-56.5"/>
<text text-anchor="middle" x="428" y="-63.5" font-family="Helvetica,sans-Serif" font-size="10.00" fill="#000000">SloshingTank.cpp</text>
</a>
</g>
</g>
<!-- Node32&#45;&gt;Node35 -->
<g id="edge10" class="edge">
<title>Node32&#45;&gt;Node35</title>
<path fill="none" stroke="#191970" d="M508.9658,-107.5971C489.4254,-97.558 463.8908,-84.4393 446.7688,-75.6427"/>
<polygon fill="#191970" stroke="#191970" points="507.5194,-110.7889 518.0136,-112.2455 510.7183,-104.5625 507.5194,-110.7889"/>
</g>
<!-- Node36 -->
<g id="node10" class="node">
<title>Node36</title>
<g id="a_node10"><a xlink:href="_zalesak_disk_8cpp.html" target="_top" xlink:title="ZalesakDisk.cpp">
<polygon fill="#ffffff" stroke="#000000" points="497,-56.5 497,-75.5 595,-75.5 595,-56.5 497,-56.5"/>
<text text-anchor="middle" x="546" y="-63.5" font-family="Helvetica,sans-Serif" font-size="10.00" fill="#000000">ZalesakDisk.cpp</text>
</a>
</g>
</g>
<!-- Node32&#45;&gt;Node36 -->
<g id="edge11" class="edge">
<title>Node32&#45;&gt;Node36</title>
<path fill="none" stroke="#191970" d="M540.189,-102.1575C541.6358,-93.155 543.2807,-82.9199 544.4503,-75.6427"/>
<polygon fill="#191970" stroke="#191970" points="536.6989,-101.8168 538.5677,-112.2455 543.6102,-102.9276 536.6989,-101.8168"/>
</g>
<!-- Node37 -->
<g id="node11" class="node">
<title>Node37</title>
<g id="a_node11"><a xlink:href="_one_eq_ksgs_8cpp.html" target="_top" xlink:title="OneEqKsgs.cpp">
<polygon fill="#ffffff" stroke="#000000" points="711,-56.5 711,-75.5 803,-75.5 803,-56.5 711,-56.5"/>
<text text-anchor="middle" x="757" y="-63.5" font-family="Helvetica,sans-Serif" font-size="10.00" fill="#000000">OneEqKsgs.cpp</text>
</a>
</g>
</g>
<!-- Node32&#45;&gt;Node37 -->
<g id="edge12" class="edge">
<title>Node32&#45;&gt;Node37</title>
<path fill="none" stroke="#191970" d="M581.2618,-110.7334C621.8436,-100.4035 681.2783,-85.2746 719.5554,-75.5314"/>
<polygon fill="#191970" stroke="#191970" points="580.2026,-107.3913 571.375,-113.25 581.9294,-114.175 580.2026,-107.3913"/>
</g>
<!-- Node38 -->
<g id="node12" class="node">
<title>Node38</title>
<g id="a_node12"><a xlink:href="_k_omega_s_s_t_8cpp.html" target="_top" xlink:title="KOmegaSST.cpp">
<polygon fill="#ffffff" stroke="#000000" points="821.5,-56.5 821.5,-75.5 916.5,-75.5 916.5,-56.5 821.5,-56.5"/>
<text text-anchor="middle" x="869" y="-63.5" font-family="Helvetica,sans-Serif" font-size="10.00" fill="#000000">KOmegaSST.cpp</text>
</a>
</g>
</g>
<!-- Node32&#45;&gt;Node38 -->
<g id="edge13" class="edge">
<title>Node32&#45;&gt;Node38</title>
<path fill="none" stroke="#191970" d="M581.3031,-114.7004C635.667,-105.7174 730.6476,-89.94 812,-76 815.0698,-75.474 818.232,-74.9287 821.4192,-74.3766"/>
<polygon fill="#191970" stroke="#191970" points="580.6087,-111.2675 571.3126,-116.3502 581.7493,-118.174 580.6087,-111.2675"/>
</g>
<!-- Node39 -->
<g id="node13" class="node">
<title>Node39</title>
<g id="a_node13"><a xlink:href="_k_omega_s_s_t_i_d_d_e_s_8cpp.html" target="_top" xlink:title="KOmegaSSTIDDES.cpp">
<polygon fill="#ffffff" stroke="#000000" points="935,-56.5 935,-75.5 1061,-75.5 1061,-56.5 935,-56.5"/>
<text text-anchor="middle" x="998" y="-63.5" font-family="Helvetica,sans-Serif" font-size="10.00" fill="#000000">KOmegaSSTIDDES.cpp</text>
</a>
</g>
</g>
<!-- Node32&#45;&gt;Node39 -->
<g id="edge14" class="edge">
<title>Node32&#45;&gt;Node39</title>
<path fill="none" stroke="#191970" d="M581.204,-117.0685C653.4056,-108.9472 801.1197,-92.0542 926,-76 928.8789,-75.6299 931.8217,-75.2456 934.7936,-74.8526"/>
<polygon fill="#191970" stroke="#191970" points="580.6578,-113.6078 571.1109,-118.202 581.4391,-120.5641 580.6578,-113.6078"/>
</g>
<!-- Node40 -->
<g id="node14" class="node">
<title>Node40</title>
<g id="a_node14"><a xlink:href="_a_b_l_stats_8cpp.html" target="_top" xlink:title="ABLStats.cpp">
<polygon fill="#ffffff" stroke="#000000" points="613,-56.5 613,-75.5 693,-75.5 693,-56.5 613,-56.5"/>
<text text-anchor="middle" x="653" y="-63.5" font-family="Helvetica,sans-Serif" font-size="10.00" fill="#000000">ABLStats.cpp</text>
</a>
</g>
</g>
<!-- Node32&#45;&gt;Node40 -->
<g id="edge15" class="edge">
<title>Node32&#45;&gt;Node40</title>
<path fill="none" stroke="#191970" d="M566.0537,-107.9741C587.0565,-97.8348 614.8691,-84.408 633.3191,-75.5011"/>
<polygon fill="#191970" stroke="#191970" points="564.425,-104.8738 556.9411,-112.3733 567.4683,-111.1776 564.425,-104.8738"/>
</g>
<!-- Node41&#45;&gt;Node29 -->
<g id="edge17" class="edge">
<title>Node41&#45;&gt;Node29</title>
<path fill="none" stroke="#191970" d="M273.3963,-109.8886C239.7584,-100.8458 192.9212,-88.026 152,-76 149.3195,-75.2123 146.5192,-74.3683 143.7383,-73.517"/>
<polygon fill="#191970" stroke="#191970" points="272.8254,-113.3591 283.3907,-112.5687 274.6385,-106.598 272.8254,-113.3591"/>
</g>
<!-- Node42&#45;&gt;Node29 -->
<g id="edge19" class="edge">
<title>Node42&#45;&gt;Node29</title>
<path fill="none" stroke="#191970" d="M747.5467,-120.0314C619.0445,-114.473 266.3094,-97.6465 152,-76 149.2549,-75.4802 146.4143,-74.8037 143.6104,-74.0477"/>
<polygon fill="#191970" stroke="#191970" points="747.7014,-123.5411 757.8423,-120.4733 748.0016,-116.5476 747.7014,-123.5411"/>
</g>
<!-- Node42&#45;&gt;Node37 -->
<g id="edge20" class="edge">
<title>Node42&#45;&gt;Node37</title>
<path fill="none" stroke="#191970" d="M782.7321,-103.9209C776.3512,-94.5176 768.8069,-83.3997 763.5432,-75.6427"/>
<polygon fill="#191970" stroke="#191970" points="779.8697,-105.936 788.3809,-112.2455 785.662,-102.0055 779.8697,-105.936"/>
</g>
<!-- Node42&#45;&gt;Node38 -->
<g id="edge22" class="edge">
<title>Node42&#45;&gt;Node38</title>
<path fill="none" stroke="#191970" d="M815.8657,-106.2097C828.8625,-96.3743 845.1622,-84.0394 856.2579,-75.6427"/>
<polygon fill="#191970" stroke="#191970" points="813.7518,-103.4201 807.8898,-112.2455 817.976,-109.002 813.7518,-103.4201"/>
</g>
<!-- Node42&#45;&gt;Node39 -->
<g id="edge23" class="edge">
<title>Node42&#45;&gt;Node39</title>
<path fill="none" stroke="#191970" d="M839.9927,-109.5882C877.2891,-99.2996 929.5256,-84.8895 963.5584,-75.5011"/>
<polygon fill="#191970" stroke="#191970" points="838.6061,-106.3399 829.8969,-112.3733 840.4676,-113.0879 838.6061,-106.3399"/>
</g>
<!-- Node43 -->
<g id="node17" class="node">
<title>Node43</title>
<g id="a_node17"><a xlink:href="_smagorinsky_8cpp.html" target="_top" xlink:title="Smagorinsky.cpp">
<polygon fill="#ffffff" stroke="#000000" points="1079.5,-56.5 1079.5,-75.5 1178.5,-75.5 1178.5,-56.5 1079.5,-56.5"/>
<text text-anchor="middle" x="1129" y="-63.5" font-family="Helvetica,sans-Serif" font-size="10.00" fill="#000000">Smagorinsky.cpp</text>
</a>
</g>
</g>
<!-- Node42&#45;&gt;Node43 -->
<g id="edge21" class="edge">
<title>Node42&#45;&gt;Node43</title>
<path fill="none" stroke="#191970" d="M842.4789,-114.09C897.2979,-104.9498 990.1772,-89.4407 1070,-76 1073.0735,-75.4825 1076.2368,-74.9489 1079.4268,-74.4102"/>
<polygon fill="#191970" stroke="#191970" points="841.656,-110.6788 832.3677,-115.7756 842.8072,-117.5835 841.656,-110.6788"/>
</g>
<!-- Node44&#45;&gt;Node29 -->
<g id="edge25" class="edge">
<title>Node44&#45;&gt;Node29</title>
<path fill="none" stroke="#191970" d="M362.3957,-111.922C267.5409,-95.9164 241.4261,-97.4993 152,-76 149.2836,-75.3469 146.4608,-74.5872 143.667,-73.7838"/>
<polygon fill="#191970" stroke="#191970" points="361.9704,-115.4 372.4172,-113.635 363.1498,-108.5001 361.9704,-115.4"/>
</g>
<!-- Node45&#45;&gt;Node29 -->
<g id="edge27" class="edge">
<title>Node45&#45;&gt;Node29</title>
<path fill="none" stroke="#191970" d="M59.988,-106.49C74.6322,-96.6096 93.1444,-84.1194 105.7082,-75.6427"/>
<polygon fill="#191970" stroke="#191970" points="57.7896,-103.7511 51.4575,-112.2455 61.7047,-109.5539 57.7896,-103.7511"/>
</g>
<!-- Node46&#45;&gt;Node39 -->
<g id="edge29" class="edge">
<title>Node46&#45;&gt;Node39</title>
<path fill="none" stroke="#191970" d="M971.5908,-103.9209C978.1395,-94.5176 985.8824,-83.3997 991.2846,-75.6427"/>
<polygon fill="#191970" stroke="#191970" points="968.6361,-102.0392 965.7933,-112.2455 974.3804,-106.0397 968.6361,-102.0392"/>
</g>
</g>
</svg>
