<?xml version="1.0" encoding="UTF-8" standalone="no"?>
<!DOCTYPE svg PUBLIC "-//W3C//DTD SVG 1.1//EN"
 "http://www.w3.org/Graphics/SVG/1.1/DTD/svg11.dtd">
<!-- Generated by graphviz version 2.40.1 (20161225.0304)
 -->
<!-- Title: fvm.H Pages: 1 -->
<svg width="2308pt" height="375pt"
 viewBox="0.00 0.00 2307.81 375.00" xmlns="http://www.w3.org/2000/svg" xmlns:xlink="http://www.w3.org/1999/xlink">
<g id="graph0" class="graph" transform="scale(1 1) rotate(0) translate(4 371)">
<title>fvm.H</title>
<polygon fill="#ffffff" stroke="transparent" points="-4,4 -4,-371 2303.812,-371 2303.812,4 -4,4"/>
<!-- Node0 -->
<g id="node1" class="node">
<title>Node0</title>
<polygon fill="#bfbfbf" stroke="#000000" points="1729.812,-347.5 1729.812,-366.5 1776.812,-366.5 1776.812,-347.5 1729.812,-347.5"/>
<text text-anchor="middle" x="1753.312" y="-354.5" font-family="Helvetica,sans-Serif" font-size="10.00" fill="#000000">fvm.H</text>
</g>
<!-- Node1 -->
<g id="node2" class="node">
<title>Node1</title>
<g id="a_node2"><a xlink:href="curvature_8_h.html" target="_top" xlink:title="amr&#45;wind/fvm/curvature.H">
<polygon fill="#ffffff" stroke="#000000" points="1355.812,-286 1355.812,-305 1500.812,-305 1500.812,-286 1355.812,-286"/>
<text text-anchor="middle" x="1428.312" y="-293" font-family="Helvetica,sans-Serif" font-size="10.00" fill="#000000">amr&#45;wind/fvm/curvature.H</text>
</a>
</g>
</g>
<!-- Node0&#45;&gt;Node1 -->
<g id="edge1" class="edge">
<title>Node0&#45;&gt;Node1</title>
<path fill="none" stroke="#191970" d="M1729.7535,-352.5808C1686.2124,-344.4082 1590.2008,-326.3641 1509.312,-311 1502.5075,-309.7075 1495.3823,-308.3501 1488.3005,-306.9983"/>
<polygon fill="#191970" stroke="#191970" points="1488.4777,-303.4689 1477.9985,-305.0302 1487.1641,-310.3446 1488.4777,-303.4689"/>
</g>
<!-- Node29 -->
<g id="node30" class="node">
<title>Node29</title>
<g id="a_node30"><a xlink:href="divergence_8_h.html" target="_top" xlink:title="amr&#45;wind/fvm/divergence.H">
<polygon fill="#ffffff" stroke="#000000" points="1990.312,-286 1990.312,-305 2142.312,-305 2142.312,-286 1990.312,-286"/>
<text text-anchor="middle" x="2066.312" y="-293" font-family="Helvetica,sans-Serif" font-size="10.00" fill="#000000">amr&#45;wind/fvm/divergence.H</text>
</a>
</g>
</g>
<!-- Node0&#45;&gt;Node29 -->
<g id="edge46" class="edge">
<title>Node0&#45;&gt;Node29</title>
<path fill="none" stroke="#191970" d="M1776.8379,-352.3775C1825.4849,-342.8191 1938.3979,-320.6333 2007.9512,-306.9671"/>
<polygon fill="#191970" stroke="#191970" points="2008.7482,-310.3775 2017.8857,-305.0151 2007.3985,-303.5088 2008.7482,-310.3775"/>
</g>
<!-- Node31 -->
<g id="node32" class="node">
<title>Node31</title>
<g id="a_node32"><a xlink:href="gradient_8_h.html" target="_top" xlink:title="amr&#45;wind/fvm/gradient.H">
<polygon fill="#ffffff" stroke="#000000" points="2160.812,-286 2160.812,-305 2299.812,-305 2299.812,-286 2160.812,-286"/>
<text text-anchor="middle" x="2230.312" y="-293" font-family="Helvetica,sans-Serif" font-size="10.00" fill="#000000">amr&#45;wind/fvm/gradient.H</text>
</a>
</g>
</g>
<!-- Node0&#45;&gt;Node31 -->
<g id="edge51" class="edge">
<title>Node0&#45;&gt;Node31</title>
<path fill="none" stroke="#191970" d="M1777.1761,-354.9024C1839.1243,-349.3146 2010.0725,-332.983 2151.312,-311 2158.9833,-309.806 2167.0449,-308.4004 2174.9663,-306.9313"/>
<polygon fill="#191970" stroke="#191970" points="2175.7137,-310.352 2184.8851,-305.0475 2174.4076,-303.4749 2175.7137,-310.352"/>
</g>
<!-- Node32 -->
<g id="node33" class="node">
<title>Node32</title>
<g id="a_node33"><a xlink:href="laplacian_8_h.html" target="_top" xlink:title="amr&#45;wind/fvm/laplacian.H">
<polygon fill="#ffffff" stroke="#000000" points="1518.812,-286 1518.812,-305 1661.812,-305 1661.812,-286 1518.812,-286"/>
<text text-anchor="middle" x="1590.312" y="-293" font-family="Helvetica,sans-Serif" font-size="10.00" fill="#000000">amr&#45;wind/fvm/laplacian.H</text>
</a>
</g>
</g>
<!-- Node0&#45;&gt;Node32 -->
<g id="edge56" class="edge">
<title>Node0&#45;&gt;Node32</title>
<path fill="none" stroke="#191970" d="M1729.6104,-348.0574C1702.2027,-337.7164 1656.8278,-320.5965 1625.3452,-308.7181"/>
<polygon fill="#191970" stroke="#191970" points="1626.2439,-305.3163 1615.6521,-305.0609 1623.7728,-311.8657 1626.2439,-305.3163"/>
</g>
<!-- Node33 -->
<g id="node34" class="node">
<title>Node33</title>
<g id="a_node34"><a xlink:href="strainrate_8_h.html" target="_top" xlink:title="amr&#45;wind/fvm/strainrate.H">
<polygon fill="#ffffff" stroke="#000000" points="1680.312,-286 1680.312,-305 1826.312,-305 1826.312,-286 1680.312,-286"/>
<text text-anchor="middle" x="1753.312" y="-293" font-family="Helvetica,sans-Serif" font-size="10.00" fill="#000000">amr&#45;wind/fvm/strainrate.H</text>
</a>
</g>
</g>
<!-- Node0&#45;&gt;Node33 -->
<g id="edge58" class="edge">
<title>Node0&#45;&gt;Node33</title>
<path fill="none" stroke="#191970" d="M1753.312,-347.3906C1753.312,-338.8657 1753.312,-326.1392 1753.312,-315.4235"/>
<polygon fill="#191970" stroke="#191970" points="1756.8121,-315.2448 1753.312,-305.2449 1749.8121,-315.2449 1756.8121,-315.2448"/>
</g>
<!-- Node34 -->
<g id="node35" class="node">
<title>Node34</title>
<g id="a_node35"><a xlink:href="vorticity__mag_8_h.html" target="_top" xlink:title="amr&#45;wind/fvm/vorticity\l_mag.H">
<polygon fill="#ffffff" stroke="#000000" points="1844.312,-280.5 1844.312,-310.5 1972.312,-310.5 1972.312,-280.5 1844.312,-280.5"/>
<text text-anchor="start" x="1852.312" y="-298.5" font-family="Helvetica,sans-Serif" font-size="10.00" fill="#000000">amr&#45;wind/fvm/vorticity</text>
<text text-anchor="middle" x="1908.312" y="-287.5" font-family="Helvetica,sans-Serif" font-size="10.00" fill="#000000">_mag.H</text>
</a>
</g>
</g>
<!-- Node0&#45;&gt;Node34 -->
<g id="edge60" class="edge">
<title>Node0&#45;&gt;Node34</title>
<path fill="none" stroke="#191970" d="M1776.8531,-347.6595C1799.0499,-338.8524 1832.9702,-325.3937 1860.7945,-314.3537"/>
<polygon fill="#191970" stroke="#191970" points="1862.3486,-317.5026 1870.3529,-310.5612 1859.767,-310.996 1862.3486,-317.5026"/>
</g>
<!-- Node35 -->
<g id="node36" class="node">
<title>Node35</title>
<g id="a_node36"><a xlink:href="qcriterion_8_h.html" target="_top" xlink:title="amr&#45;wind/fvm/qcriterion.H">
<polygon fill="#ffffff" stroke="#000000" points="1192.812,-286 1192.812,-305 1337.812,-305 1337.812,-286 1192.812,-286"/>
<text text-anchor="middle" x="1265.312" y="-293" font-family="Helvetica,sans-Serif" font-size="10.00" fill="#000000">amr&#45;wind/fvm/qcriterion.H</text>
</a>
</g>
</g>
<!-- Node0&#45;&gt;Node35 -->
<g id="edge62" class="edge">
<title>Node0&#45;&gt;Node35</title>
<path fill="none" stroke="#191970" d="M1729.373,-354.9397C1666.425,-349.3827 1491.1351,-333.0076 1346.312,-311 1338.3619,-309.7919 1330.0014,-308.3678 1321.7933,-306.8807"/>
<polygon fill="#191970" stroke="#191970" points="1322.3651,-303.4271 1311.8946,-305.0458 1321.0891,-310.3099 1322.3651,-303.4271"/>
</g>
<!-- Node2 -->
<g id="node3" class="node">
<title>Node2</title>
<g id="a_node3"><a xlink:href="fvm__utils_8_h.html" target="_top" xlink:title="amr&#45;wind/fvm/fvm_utils.H">
<polygon fill="#ffffff" stroke="#000000" points="1721.312,-224.5 1721.312,-243.5 1865.312,-243.5 1865.312,-224.5 1721.312,-224.5"/>
<text text-anchor="middle" x="1793.312" y="-231.5" font-family="Helvetica,sans-Serif" font-size="10.00" fill="#000000">amr&#45;wind/fvm/fvm_utils.H</text>
</a>
</g>
</g>
<!-- Node1&#45;&gt;Node2 -->
<g id="edge2" class="edge">
<title>Node1&#45;&gt;Node2</title>
<path fill="none" stroke="#191970" d="M1477.1001,-285.931C1487.7086,-283.9155 1498.8784,-281.8429 1509.312,-280 1581.2332,-267.2967 1663.6476,-254.0979 1721.1046,-245.114"/>
<polygon fill="#191970" stroke="#191970" points="1721.8357,-248.5424 1731.1765,-243.5424 1720.7564,-241.6261 1721.8357,-248.5424"/>
</g>
<!-- Node3 -->
<g id="node4" class="node">
<title>Node3</title>
<g id="a_node4"><a xlink:href="_field_repo_8_h.html" target="_top" xlink:title="amr&#45;wind/core/FieldRepo.H">
<polygon fill="#ffffff" stroke="#000000" points="971.312,-168.5 971.312,-187.5 1117.312,-187.5 1117.312,-168.5 971.312,-168.5"/>
<text text-anchor="middle" x="1044.312" y="-175.5" font-family="Helvetica,sans-Serif" font-size="10.00" fill="#000000">amr&#45;wind/core/FieldRepo.H</text>
</a>
</g>
</g>
<!-- Node2&#45;&gt;Node3 -->
<g id="edge3" class="edge">
<title>Node2&#45;&gt;Node3</title>
<path fill="none" stroke="#191970" d="M1721.1548,-228.6051C1581.6953,-218.1782 1275.886,-195.3139 1127.8638,-184.2469"/>
<polygon fill="#191970" stroke="#191970" points="1127.7165,-180.7262 1117.4833,-183.4708 1127.1945,-187.7067 1127.7165,-180.7262"/>
</g>
<!-- Node23 -->
<g id="node24" class="node">
<title>Node23</title>
<g id="a_node24"><a xlink:href="stencils_8_h.html" target="_top" xlink:title="Second&#45;order finite volume discretization stencil coefficients. ">
<polygon fill="#ffffff" stroke="#000000" points="1765.312,-168.5 1765.312,-187.5 1901.312,-187.5 1901.312,-168.5 1765.312,-168.5"/>
<text text-anchor="middle" x="1833.312" y="-175.5" font-family="Helvetica,sans-Serif" font-size="10.00" fill="#000000">amr&#45;wind/fvm/stencils.H</text>
</a>
</g>
</g>
<!-- Node2&#45;&gt;Node23 -->
<g id="edge40" class="edge">
<title>Node2&#45;&gt;Node23</title>
<path fill="none" stroke="#191970" d="M1800.2795,-224.2455C1805.8431,-216.4564 1813.79,-205.3308 1820.4949,-195.9439"/>
<polygon fill="#191970" stroke="#191970" points="1823.46,-197.8144 1826.4244,-187.6427 1817.7639,-193.7457 1823.46,-197.8144"/>
</g>
<!-- Node28 -->
<g id="node29" class="node">
<title>Node28</title>
<polygon fill="#ffffff" stroke="#bfbfbf" points="1942.812,-168.5 1942.812,-187.5 2037.812,-187.5 2037.812,-168.5 1942.812,-168.5"/>
<text text-anchor="middle" x="1990.312" y="-175.5" font-family="Helvetica,sans-Serif" font-size="10.00" fill="#000000">AMReX_MFIter.H</text>
</g>
<!-- Node2&#45;&gt;Node28 -->
<g id="edge45" class="edge">
<title>Node2&#45;&gt;Node28</title>
<path fill="none" stroke="#191970" d="M1827.1775,-224.3733C1860.361,-214.9404 1911.067,-200.5265 1947.1314,-190.2747"/>
<polygon fill="#191970" stroke="#191970" points="1948.2265,-193.6021 1956.8884,-187.5011 1946.3124,-186.8689 1948.2265,-193.6021"/>
</g>
<!-- Node4 -->
<g id="node5" class="node">
<title>Node4</title>
<polygon fill="#ffffff" stroke="#bfbfbf" points="1277.312,-.5 1277.312,-19.5 1321.312,-19.5 1321.312,-.5 1277.312,-.5"/>
<text text-anchor="middle" x="1299.312" y="-7.5" font-family="Helvetica,sans-Serif" font-size="10.00" fill="#000000">string</text>
</g>
<!-- Node3&#45;&gt;Node4 -->
<g id="edge4" class="edge">
<title>Node3&#45;&gt;Node4</title>
<path fill="none" stroke="#191970" d="M1117.6628,-176.0866C1239.2598,-172.135 1476.9603,-160.8862 1555.312,-132 1595.6928,-117.1126 1614.5498,-114.2322 1634.312,-76 1638.3936,-68.1036 1640.1542,-62.6993 1634.312,-56 1614.5563,-33.3463 1412.0006,-17.498 1331.7759,-12.0652"/>
<polygon fill="#191970" stroke="#191970" points="1331.948,-8.569 1321.7375,-11.3968 1331.4828,-15.5536 1331.948,-8.569"/>
</g>
<!-- Node5 -->
<g id="node6" class="node">
<title>Node5</title>
<polygon fill="#ffffff" stroke="#bfbfbf" points="1327.812,-56.5 1327.812,-75.5 1420.812,-75.5 1420.812,-56.5 1327.812,-56.5"/>
<text text-anchor="middle" x="1374.312" y="-63.5" font-family="Helvetica,sans-Serif" font-size="10.00" fill="#000000">unordered_map</text>
</g>
<!-- Node3&#45;&gt;Node5 -->
<g id="edge5" class="edge">
<title>Node3&#45;&gt;Node5</title>
<path fill="none" stroke="#191970" d="M1072.4476,-168.4509C1131.7496,-148.3242 1269.6068,-101.5363 1336.5232,-78.8253"/>
<polygon fill="#191970" stroke="#191970" points="1337.903,-82.0532 1346.2476,-75.5249 1335.6532,-75.4245 1337.903,-82.0532"/>
</g>
<!-- Node6 -->
<g id="node7" class="node">
<title>Node6</title>
<g id="a_node7"><a xlink:href="_field_desc_types_8_h.html" target="_top" xlink:title="amr&#45;wind/core/FieldDescTypes.H">
<polygon fill="#ffffff" stroke="#000000" points="560.312,-.5 560.312,-19.5 734.312,-19.5 734.312,-.5 560.312,-.5"/>
<text text-anchor="middle" x="647.312" y="-7.5" font-family="Helvetica,sans-Serif" font-size="10.00" fill="#000000">amr&#45;wind/core/FieldDescTypes.H</text>
</a>
</g>
</g>
<!-- Node3&#45;&gt;Node6 -->
<g id="edge6" class="edge">
<title>Node3&#45;&gt;Node6</title>
<path fill="none" stroke="#191970" d="M971.004,-169.8484C897.7918,-158.714 784.8577,-133.1431 704.312,-76 685.9055,-62.9416 669.6088,-42.7134 659.2055,-28.0924"/>
<polygon fill="#191970" stroke="#191970" points="662.0729,-26.0851 653.5234,-19.8276 656.3046,-30.0509 662.0729,-26.0851"/>
</g>
<!-- Node7 -->
<g id="node8" class="node">
<title>Node7</title>
<g id="a_node8"><a xlink:href="_field_utils_8_h.html" target="_top" xlink:title="amr&#45;wind/core/FieldUtils.H">
<polygon fill="#ffffff" stroke="#000000" points="13.812,-56.5 13.812,-75.5 158.812,-75.5 158.812,-56.5 13.812,-56.5"/>
<text text-anchor="middle" x="86.312" y="-63.5" font-family="Helvetica,sans-Serif" font-size="10.00" fill="#000000">amr&#45;wind/core/FieldUtils.H</text>
</a>
</g>
</g>
<!-- Node3&#45;&gt;Node7 -->
<g id="edge7" class="edge">
<title>Node3&#45;&gt;Node7</title>
<path fill="none" stroke="#191970" d="M971.092,-175.2986C813.1325,-169.1513 444.6818,-153.0081 321.312,-132 249.6992,-119.8054 168.6218,-94.3487 122.8653,-78.8588"/>
<polygon fill="#191970" stroke="#191970" points="123.9759,-75.5397 113.3814,-75.6193 121.7131,-82.1639 123.9759,-75.5397"/>
</g>
<!-- Node8 -->
<g id="node9" class="node">
<title>Node8</title>
<polygon fill="#ffffff" stroke="#bfbfbf" points="317.812,-.5 317.812,-19.5 424.812,-19.5 424.812,-.5 317.812,-.5"/>
<text text-anchor="middle" x="371.312" y="-7.5" font-family="Helvetica,sans-Serif" font-size="10.00" fill="#000000">AMReX_MultiFab.H</text>
</g>
<!-- Node3&#45;&gt;Node8 -->
<g id="edge38" class="edge">
<title>Node3&#45;&gt;Node8</title>
<path fill="none" stroke="#191970" d="M971.1884,-176.7681C744.3044,-172.1512 63.9224,-152.0233 4.312,-76 -1.1728,-69.005 -1.5696,-62.6648 4.312,-56 24.0095,-33.6794 207.7374,-19.5589 307.5244,-13.4705"/>
<polygon fill="#191970" stroke="#191970" points="308.0199,-16.9472 317.7922,-12.8543 307.6005,-9.9597 308.0199,-16.9472"/>
</g>
<!-- Node10 -->
<g id="node11" class="node">
<title>Node10</title>
<g id="a_node11"><a xlink:href="_field_8_h.html" target="_top" xlink:title="amr&#45;wind/core/Field.H">
<polygon fill="#ffffff" stroke="#000000" points="983.312,-112.5 983.312,-131.5 1105.312,-131.5 1105.312,-112.5 983.312,-112.5"/>
<text text-anchor="middle" x="1044.312" y="-119.5" font-family="Helvetica,sans-Serif" font-size="10.00" fill="#000000">amr&#45;wind/core/Field.H</text>
</a>
</g>
</g>
<!-- Node3&#45;&gt;Node10 -->
<g id="edge11" class="edge">
<title>Node3&#45;&gt;Node10</title>
<path fill="none" stroke="#191970" d="M1044.312,-168.2455C1044.312,-160.9382 1044.312,-150.6944 1044.312,-141.7046"/>
<polygon fill="#191970" stroke="#191970" points="1047.8121,-141.6426 1044.312,-131.6427 1040.8121,-141.6427 1047.8121,-141.6426"/>
</g>
<!-- Node18 -->
<g id="node19" class="node">
<title>Node18</title>
<g id="a_node19"><a xlink:href="_int_field_8_h.html" target="_top" xlink:title="amr&#45;wind/core/IntField.H">
<polygon fill="#ffffff" stroke="#000000" points="1387.812,-112.5 1387.812,-131.5 1522.812,-131.5 1522.812,-112.5 1387.812,-112.5"/>
<text text-anchor="middle" x="1455.312" y="-119.5" font-family="Helvetica,sans-Serif" font-size="10.00" fill="#000000">amr&#45;wind/core/IntField.H</text>
</a>
</g>
</g>
<!-- Node3&#45;&gt;Node18 -->
<g id="edge26" class="edge">
<title>Node3&#45;&gt;Node18</title>
<path fill="none" stroke="#191970" d="M1114.4984,-168.4369C1187.6747,-158.4664 1302.0584,-142.8813 1377.8375,-132.5561"/>
<polygon fill="#191970" stroke="#191970" points="1378.3679,-136.0163 1387.8038,-131.1982 1377.4228,-129.0804 1378.3679,-136.0163"/>
</g>
<!-- Node19 -->
<g id="node20" class="node">
<title>Node19</title>
<polygon fill="#ffffff" stroke="#bfbfbf" points="1515.312,-56.5 1515.312,-75.5 1625.312,-75.5 1625.312,-56.5 1515.312,-56.5"/>
<text text-anchor="middle" x="1570.312" y="-63.5" font-family="Helvetica,sans-Serif" font-size="10.00" fill="#000000">AMReX_iMultiFab.H</text>
</g>
<!-- Node3&#45;&gt;Node19 -->
<g id="edge39" class="edge">
<title>Node3&#45;&gt;Node19</title>
<path fill="none" stroke="#191970" d="M1117.4364,-174.7396C1244.8285,-168.5256 1497.2107,-153.6483 1531.312,-132 1548.1104,-121.336 1558.5892,-100.6187 1564.4007,-85.2269"/>
<polygon fill="#191970" stroke="#191970" points="1567.7652,-86.2055 1567.6987,-75.6109 1561.1437,-83.9345 1567.7652,-86.2055"/>
</g>
<!-- Node20 -->
<g id="node21" class="node">
<title>Node20</title>
<g id="a_node21"><a xlink:href="_scratch_field_8_h.html" target="_top" xlink:title="amr&#45;wind/core/ScratchField.H">
<polygon fill="#ffffff" stroke="#000000" points="330.312,-112.5 330.312,-131.5 488.312,-131.5 488.312,-112.5 330.312,-112.5"/>
<text text-anchor="middle" x="409.312" y="-119.5" font-family="Helvetica,sans-Serif" font-size="10.00" fill="#000000">amr&#45;wind/core/ScratchField.H</text>
</a>
</g>
</g>
<!-- Node3&#45;&gt;Node20 -->
<g id="edge30" class="edge">
<title>Node3&#45;&gt;Node20</title>
<path fill="none" stroke="#191970" d="M971.1595,-171.5488C854.0737,-161.2231 624.9253,-141.0147 498.4494,-129.8609"/>
<polygon fill="#191970" stroke="#191970" points="498.6731,-126.3672 488.4042,-128.9751 498.0581,-133.3401 498.6731,-126.3672"/>
</g>
<!-- Node22 -->
<g id="node23" class="node">
<title>Node22</title>
<polygon fill="#ffffff" stroke="#bfbfbf" points="855.812,-112.5 855.812,-131.5 964.812,-131.5 964.812,-112.5 855.812,-112.5"/>
<text text-anchor="middle" x="910.312" y="-119.5" font-family="Helvetica,sans-Serif" font-size="10.00" fill="#000000">AMReX_AmrCore.H</text>
</g>
<!-- Node3&#45;&gt;Node22 -->
<g id="edge37" class="edge">
<title>Node3&#45;&gt;Node22</title>
<path fill="none" stroke="#191970" d="M1021.2766,-168.3733C999.5732,-159.3032 966.8501,-145.6279 942.557,-135.4755"/>
<polygon fill="#191970" stroke="#191970" points="943.6231,-132.1278 933.0468,-131.5011 940.9239,-138.5865 943.6231,-132.1278"/>
</g>
<!-- Node7&#45;&gt;Node6 -->
<g id="edge8" class="edge">
<title>Node7&#45;&gt;Node6</title>
<path fill="none" stroke="#191970" d="M159.0529,-58.8775C248.364,-50.1125 404.7624,-34.6988 550.0668,-20.0214"/>
<polygon fill="#191970" stroke="#191970" points="550.4669,-23.4988 560.0643,-19.0109 549.763,-16.5343 550.4669,-23.4988"/>
</g>
<!-- Node7&#45;&gt;Node8 -->
<g id="edge9" class="edge">
<title>Node7&#45;&gt;Node8</title>
<path fill="none" stroke="#191970" d="M134.9814,-56.4369C184.2693,-46.7522 260.5168,-31.7703 313.0046,-21.4569"/>
<polygon fill="#191970" stroke="#191970" points="313.7058,-24.8861 322.8433,-19.5237 312.3561,-18.0175 313.7058,-24.8861"/>
</g>
<!-- Node9 -->
<g id="node10" class="node">
<title>Node9</title>
<polygon fill="#ffffff" stroke="#bfbfbf" points="25.312,-.5 25.312,-19.5 147.312,-19.5 147.312,-.5 25.312,-.5"/>
<text text-anchor="middle" x="86.312" y="-7.5" font-family="Helvetica,sans-Serif" font-size="10.00" fill="#000000">AMReX_Interpolater.H</text>
</g>
<!-- Node7&#45;&gt;Node9 -->
<g id="edge10" class="edge">
<title>Node7&#45;&gt;Node9</title>
<path fill="none" stroke="#191970" d="M86.312,-56.2455C86.312,-48.9382 86.312,-38.6944 86.312,-29.7046"/>
<polygon fill="#191970" stroke="#191970" points="89.8121,-29.6426 86.312,-19.6427 82.8121,-29.6427 89.8121,-29.6426"/>
</g>
<!-- Node10&#45;&gt;Node4 -->
<g id="edge12" class="edge">
<title>Node10&#45;&gt;Node4</title>
<path fill="none" stroke="#191970" d="M1105.4291,-117.1377C1166.3192,-111.0793 1254.2529,-98.6493 1279.312,-76 1292.1942,-64.3565 1296.8993,-44.7228 1298.5577,-29.8892"/>
<polygon fill="#191970" stroke="#191970" points="1302.0646,-29.9258 1299.317,-19.6934 1295.0839,-29.4058 1302.0646,-29.9258"/>
</g>
<!-- Node10&#45;&gt;Node5 -->
<g id="edge14" class="edge">
<title>Node10&#45;&gt;Node5</title>
<path fill="none" stroke="#191970" d="M1100.666,-112.4369C1161.2245,-102.1603 1256.9321,-85.919 1317.6206,-75.6203"/>
<polygon fill="#191970" stroke="#191970" points="1318.5147,-79.0187 1327.7882,-73.8949 1317.3435,-72.1174 1318.5147,-79.0187"/>
</g>
<!-- Node10&#45;&gt;Node6 -->
<g id="edge20" class="edge">
<title>Node10&#45;&gt;Node6</title>
<path fill="none" stroke="#191970" d="M983.2547,-113.3418C898.7788,-101.2605 755.3293,-80.3342 744.312,-76 714.2316,-64.1664 684.1699,-41.6417 665.663,-26.2282"/>
<polygon fill="#191970" stroke="#191970" points="667.8959,-23.5325 658.0144,-19.7106 663.3558,-28.8605 667.8959,-23.5325"/>
</g>
<!-- Node10&#45;&gt;Node8 -->
<g id="edge16" class="edge">
<title>Node10&#45;&gt;Node8</title>
<path fill="none" stroke="#191970" d="M983.1542,-113.1131C979.8276,-112.715 976.5305,-112.3405 973.312,-112 860.9885,-100.1164 572.8327,-113.5648 466.312,-76 436.2011,-65.3813 406.8502,-42.4968 388.9285,-26.6768"/>
<polygon fill="#191970" stroke="#191970" points="390.8512,-23.695 381.0954,-19.5628 386.145,-28.8769 390.8512,-23.695"/>
</g>
<!-- Node11 -->
<g id="node12" class="node">
<title>Node11</title>
<polygon fill="#ffffff" stroke="#bfbfbf" points="1015.312,-56.5 1015.312,-75.5 1073.312,-75.5 1073.312,-56.5 1015.312,-56.5"/>
<text text-anchor="middle" x="1044.312" y="-63.5" font-family="Helvetica,sans-Serif" font-size="10.00" fill="#000000">memory</text>
</g>
<!-- Node10&#45;&gt;Node11 -->
<g id="edge13" class="edge">
<title>Node10&#45;&gt;Node11</title>
<path fill="none" stroke="#191970" d="M1044.312,-112.2455C1044.312,-104.9382 1044.312,-94.6944 1044.312,-85.7046"/>
<polygon fill="#191970" stroke="#191970" points="1047.8121,-85.6426 1044.312,-75.6427 1040.8121,-85.6427 1047.8121,-85.6426"/>
</g>
<!-- Node12 -->
<g id="node13" class="node">
<title>Node12</title>
<polygon fill="#ffffff" stroke="#bfbfbf" points="1091.312,-56.5 1091.312,-75.5 1155.312,-75.5 1155.312,-56.5 1091.312,-56.5"/>
<text text-anchor="middle" x="1123.312" y="-63.5" font-family="Helvetica,sans-Serif" font-size="10.00" fill="#000000">algorithm</text>
</g>
<!-- Node10&#45;&gt;Node12 -->
<g id="edge15" class="edge">
<title>Node10&#45;&gt;Node12</title>
<path fill="none" stroke="#191970" d="M1058.0727,-112.2455C1069.9672,-103.814 1087.377,-91.4729 1101.2205,-81.6598"/>
<polygon fill="#191970" stroke="#191970" points="1103.5748,-84.2811 1109.7089,-75.6427 1099.5266,-78.5704 1103.5748,-84.2811"/>
</g>
<!-- Node13 -->
<g id="node14" class="node">
<title>Node13</title>
<polygon fill="#ffffff" stroke="#bfbfbf" points="1173.812,-56.5 1173.812,-75.5 1270.812,-75.5 1270.812,-56.5 1173.812,-56.5"/>
<text text-anchor="middle" x="1222.312" y="-63.5" font-family="Helvetica,sans-Serif" font-size="10.00" fill="#000000">AMReX_BCRec.H</text>
</g>
<!-- Node10&#45;&gt;Node13 -->
<g id="edge17" class="edge">
<title>Node10&#45;&gt;Node13</title>
<path fill="none" stroke="#191970" d="M1074.9113,-112.3733C1104.6381,-103.021 1149.9279,-88.7725 1182.4576,-78.5385"/>
<polygon fill="#191970" stroke="#191970" points="1183.6233,-81.8409 1192.112,-75.5011 1181.5225,-75.1636 1183.6233,-81.8409"/>
</g>
<!-- Node14 -->
<g id="node15" class="node">
<title>Node14</title>
<polygon fill="#ffffff" stroke="#bfbfbf" points="753.312,-56.5 753.312,-75.5 839.312,-75.5 839.312,-56.5 753.312,-56.5"/>
<text text-anchor="middle" x="796.312" y="-63.5" font-family="Helvetica,sans-Serif" font-size="10.00" fill="#000000">AMReX_Gpu.H</text>
</g>
<!-- Node10&#45;&gt;Node14 -->
<g id="edge18" class="edge">
<title>Node10&#45;&gt;Node14</title>
<path fill="none" stroke="#191970" d="M1001.9611,-112.4369C959.5178,-102.8529 894.1001,-88.0812 848.4806,-77.78"/>
<polygon fill="#191970" stroke="#191970" points="849.0136,-74.3123 838.4882,-75.5237 847.4717,-81.1404 849.0136,-74.3123"/>
</g>
<!-- Node15 -->
<g id="node16" class="node">
<title>Node15</title>
<g id="a_node16"><a xlink:href="incflo__enums_8_h.html" target="_top" xlink:title="amr&#45;wind/incflo_enums.H">
<polygon fill="#ffffff" stroke="#000000" points="857.312,-56.5 857.312,-75.5 997.312,-75.5 997.312,-56.5 857.312,-56.5"/>
<text text-anchor="middle" x="927.312" y="-63.5" font-family="Helvetica,sans-Serif" font-size="10.00" fill="#000000">amr&#45;wind/incflo_enums.H</text>
</a>
</g>
</g>
<!-- Node10&#45;&gt;Node15 -->
<g id="edge19" class="edge">
<title>Node10&#45;&gt;Node15</title>
<path fill="none" stroke="#191970" d="M1024.199,-112.3733C1005.5016,-103.4241 977.4376,-89.9917 956.3186,-79.8835"/>
<polygon fill="#191970" stroke="#191970" points="957.6937,-76.6614 947.1625,-75.5011 954.6715,-82.9755 957.6937,-76.6614"/>
</g>
<!-- Node16 -->
<g id="node17" class="node">
<title>Node16</title>
<g id="a_node17"><a xlink:href="_view_field_8_h.html" target="_top" xlink:title="amr&#45;wind/core/ViewField.H">
<polygon fill="#ffffff" stroke="#000000" points="475.312,-56.5 475.312,-75.5 621.312,-75.5 621.312,-56.5 475.312,-56.5"/>
<text text-anchor="middle" x="548.312" y="-63.5" font-family="Helvetica,sans-Serif" font-size="10.00" fill="#000000">amr&#45;wind/core/ViewField.H</text>
</a>
</g>
</g>
<!-- Node10&#45;&gt;Node16 -->
<g id="edge21" class="edge">
<title>Node10&#45;&gt;Node16</title>
<path fill="none" stroke="#191970" d="M983.1376,-113.2568C979.8154,-112.8217 976.5237,-112.3999 973.312,-112 854.772,-97.2409 717.2857,-82.8566 631.5379,-74.2104"/>
<polygon fill="#191970" stroke="#191970" points="631.6422,-70.7033 621.3421,-73.1847 630.9415,-77.6681 631.6422,-70.7033"/>
</g>
<!-- Node16&#45;&gt;Node4 -->
<g id="edge22" class="edge">
<title>Node16&#45;&gt;Node4</title>
<path fill="none" stroke="#191970" d="M621.3434,-60.0775C638.396,-58.7168 656.4891,-57.291 673.312,-56 900.6341,-38.5552 1174.5028,-18.9006 1267.0092,-12.2995"/>
<polygon fill="#191970" stroke="#191970" points="1267.4045,-15.7803 1277.1302,-11.5777 1266.9065,-8.798 1267.4045,-15.7803"/>
</g>
<!-- Node16&#45;&gt;Node6 -->
<g id="edge23" class="edge">
<title>Node16&#45;&gt;Node6</title>
<path fill="none" stroke="#191970" d="M565.5565,-56.2455C580.8881,-47.5731 603.5319,-34.7645 621.1035,-24.825"/>
<polygon fill="#191970" stroke="#191970" points="623.2843,-27.6126 630.2651,-19.6427 619.8379,-21.5198 623.2843,-27.6126"/>
</g>
<!-- Node16&#45;&gt;Node8 -->
<g id="edge24" class="edge">
<title>Node16&#45;&gt;Node8</title>
<path fill="none" stroke="#191970" d="M517.8846,-56.3733C488.3248,-47.021 443.2894,-32.7725 410.9425,-22.5385"/>
<polygon fill="#191970" stroke="#191970" points="411.9323,-19.1807 401.3423,-19.5011 409.8207,-25.8546 411.9323,-19.1807"/>
</g>
<!-- Node17 -->
<g id="node18" class="node">
<title>Node17</title>
<polygon fill="#ffffff" stroke="#bfbfbf" points="445.312,-.5 445.312,-19.5 541.312,-19.5 541.312,-.5 445.312,-.5"/>
<text text-anchor="middle" x="493.312" y="-7.5" font-family="Helvetica,sans-Serif" font-size="10.00" fill="#000000">AMReX_Vector.H</text>
</g>
<!-- Node16&#45;&gt;Node17 -->
<g id="edge25" class="edge">
<title>Node16&#45;&gt;Node17</title>
<path fill="none" stroke="#191970" d="M538.7317,-56.2455C530.7662,-48.1352 519.2479,-36.4075 509.804,-26.7919"/>
<polygon fill="#191970" stroke="#191970" points="512.2867,-24.3247 502.7825,-19.6427 507.2925,-29.2297 512.2867,-24.3247"/>
</g>
<!-- Node18&#45;&gt;Node4 -->
<g id="edge27" class="edge">
<title>Node18&#45;&gt;Node4</title>
<path fill="none" stroke="#191970" d="M1460.3272,-112.3806C1466.8092,-98.4596 1475.8633,-72.5561 1463.312,-56 1447.4271,-35.0465 1374.4697,-21.0064 1331.3993,-14.3861"/>
<polygon fill="#191970" stroke="#191970" points="1331.8097,-10.9088 1321.4038,-12.9002 1330.7804,-17.8327 1331.8097,-10.9088"/>
</g>
<!-- Node18&#45;&gt;Node6 -->
<g id="edge28" class="edge">
<title>Node18&#45;&gt;Node6</title>
<path fill="none" stroke="#191970" d="M1454.653,-112.4302C1453.0645,-97.5757 1447.6602,-69.2978 1429.312,-56 1402.0192,-36.2197 947.8943,-19.4853 744.4917,-12.9444"/>
<polygon fill="#191970" stroke="#191970" points="744.5147,-9.4435 734.4079,-12.6219 744.2909,-16.4399 744.5147,-9.4435"/>
</g>
<!-- Node18&#45;&gt;Node19 -->
<g id="edge29" class="edge">
<title>Node18&#45;&gt;Node19</title>
<path fill="none" stroke="#191970" d="M1475.0812,-112.3733C1493.4589,-103.4241 1521.0432,-89.9917 1541.8012,-79.8835"/>
<polygon fill="#191970" stroke="#191970" points="1543.3424,-83.026 1550.8008,-75.5011 1540.2777,-76.7325 1543.3424,-83.026"/>
</g>
<!-- Node20&#45;&gt;Node4 -->
<g id="edge31" class="edge">
<title>Node20&#45;&gt;Node4</title>
<path fill="none" stroke="#191970" d="M454.4307,-112.4593C532.2635,-96.1106 688.7584,-63.7499 744.312,-56 941.9755,-28.4253 1181.72,-15.4114 1267.1673,-11.4049"/>
<polygon fill="#191970" stroke="#191970" points="1267.4404,-14.8962 1277.2688,-10.9399 1267.1184,-7.9036 1267.4404,-14.8962"/>
</g>
<!-- Node20&#45;&gt;Node6 -->
<g id="edge32" class="edge">
<title>Node20&#45;&gt;Node6</title>
<path fill="none" stroke="#191970" d="M414.9715,-112.2757C423.952,-97.7346 442.8736,-70.4884 466.312,-56 493.6862,-39.0787 527.0429,-28.3638 557.6279,-21.5864"/>
<polygon fill="#191970" stroke="#191970" points="558.3837,-25.0041 567.4496,-19.5214 556.9434,-18.1538 558.3837,-25.0041"/>
</g>
<!-- Node20&#45;&gt;Node8 -->
<g id="edge34" class="edge">
<title>Node20&#45;&gt;Node8</title>
<path fill="none" stroke="#191970" d="M406.0721,-112.4509C399.8183,-94.0186 385.9777,-53.2254 377.773,-29.043"/>
<polygon fill="#191970" stroke="#191970" points="381.0711,-27.8701 374.5436,-19.5249 374.4422,-30.1192 381.0711,-27.8701"/>
</g>
<!-- Node20&#45;&gt;Node16 -->
<g id="edge33" class="edge">
<title>Node20&#45;&gt;Node16</title>
<path fill="none" stroke="#191970" d="M433.2069,-112.3733C455.8202,-103.2629 489.9661,-89.5062 515.1992,-79.3404"/>
<polygon fill="#191970" stroke="#191970" points="516.7612,-82.4845 524.7288,-75.5011 514.1454,-75.9917 516.7612,-82.4845"/>
</g>
<!-- Node20&#45;&gt;Node17 -->
<g id="edge35" class="edge">
<title>Node20&#45;&gt;Node17</title>
<path fill="none" stroke="#191970" d="M330.1437,-114.1811C280.0663,-107.413 221.9298,-95.5528 206.312,-76 200.7644,-69.0547 200.5398,-62.7597 206.312,-56 239.4786,-17.159 382.8994,-28.1984 433.312,-20 433.9146,-19.902 434.5206,-19.8033 435.1295,-19.7041"/>
<polygon fill="#191970" stroke="#191970" points="435.8751,-23.1286 445.177,-18.0567 434.7424,-16.2209 435.8751,-23.1286"/>
</g>
<!-- Node21 -->
<g id="node22" class="node">
<title>Node21</title>
<polygon fill="#ffffff" stroke="#bfbfbf" points="215.312,-56.5 215.312,-75.5 343.312,-75.5 343.312,-56.5 215.312,-56.5"/>
<text text-anchor="middle" x="279.312" y="-63.5" font-family="Helvetica,sans-Serif" font-size="10.00" fill="#000000">AMReX_PhysBCFunct.H</text>
</g>
<!-- Node20&#45;&gt;Node21 -->
<g id="edge36" class="edge">
<title>Node20&#45;&gt;Node21</title>
<path fill="none" stroke="#191970" d="M386.9642,-112.3733C365.9086,-103.3032 334.1624,-89.6279 310.5945,-79.4755"/>
<polygon fill="#191970" stroke="#191970" points="311.937,-76.243 301.3682,-75.5011 309.1676,-82.6719 311.937,-76.243"/>
</g>
<!-- Node24 -->
<g id="node25" class="node">
<title>Node24</title>
<polygon fill="#ffffff" stroke="#bfbfbf" points="1681.812,-112.5 1681.812,-131.5 1772.812,-131.5 1772.812,-112.5 1681.812,-112.5"/>
<text text-anchor="middle" x="1727.312" y="-119.5" font-family="Helvetica,sans-Serif" font-size="10.00" fill="#000000">AMReX_REAL.H</text>
</g>
<!-- Node23&#45;&gt;Node24 -->
<g id="edge41" class="edge">
<title>Node23&#45;&gt;Node24</title>
<path fill="none" stroke="#191970" d="M1814.8482,-168.2455C1798.2045,-159.4527 1773.5127,-146.4079 1754.5928,-136.4125"/>
<polygon fill="#191970" stroke="#191970" points="1756.0411,-133.2193 1745.5642,-131.6427 1752.7712,-139.4086 1756.0411,-133.2193"/>
</g>
<!-- Node25 -->
<g id="node26" class="node">
<title>Node25</title>
<polygon fill="#ffffff" stroke="#bfbfbf" points="1790.812,-112.5 1790.812,-131.5 1875.812,-131.5 1875.812,-112.5 1790.812,-112.5"/>
<text text-anchor="middle" x="1833.312" y="-119.5" font-family="Helvetica,sans-Serif" font-size="10.00" fill="#000000">AMReX_Box.H</text>
</g>
<!-- Node23&#45;&gt;Node25 -->
<g id="edge42" class="edge">
<title>Node23&#45;&gt;Node25</title>
<path fill="none" stroke="#191970" d="M1833.312,-168.2455C1833.312,-160.9382 1833.312,-150.6944 1833.312,-141.7046"/>
<polygon fill="#191970" stroke="#191970" points="1836.8121,-141.6426 1833.312,-131.6427 1829.8121,-141.6427 1836.8121,-141.6426"/>
</g>
<!-- Node26 -->
<g id="node27" class="node">
<title>Node26</title>
<polygon fill="#ffffff" stroke="#bfbfbf" points="1893.812,-112.5 1893.812,-131.5 2014.812,-131.5 2014.812,-112.5 1893.812,-112.5"/>
<text text-anchor="middle" x="1954.312" y="-119.5" font-family="Helvetica,sans-Serif" font-size="10.00" fill="#000000">AMReX_Orientation.H</text>
</g>
<!-- Node23&#45;&gt;Node26 -->
<g id="edge43" class="edge">
<title>Node23&#45;&gt;Node26</title>
<path fill="none" stroke="#191970" d="M1854.1126,-168.3733C1873.5363,-159.3838 1902.7344,-145.8706 1924.6084,-135.7471"/>
<polygon fill="#191970" stroke="#191970" points="1926.1776,-138.8776 1933.7828,-131.5011 1923.2375,-132.5249 1926.1776,-138.8776"/>
</g>
<!-- Node27 -->
<g id="node28" class="node">
<title>Node27</title>
<polygon fill="#ffffff" stroke="#bfbfbf" points="2032.812,-112.5 2032.812,-131.5 2145.812,-131.5 2145.812,-112.5 2032.812,-112.5"/>
<text text-anchor="middle" x="2089.312" y="-119.5" font-family="Helvetica,sans-Serif" font-size="10.00" fill="#000000">AMReX_Geometry.H</text>
</g>
<!-- Node23&#45;&gt;Node27 -->
<g id="edge44" class="edge">
<title>Node23&#45;&gt;Node27</title>
<path fill="none" stroke="#191970" d="M1877.0291,-168.4369C1920.9335,-158.8328 1988.6532,-144.0191 2035.757,-133.7152"/>
<polygon fill="#191970" stroke="#191970" points="2036.7542,-137.0799 2045.7752,-131.5237 2035.2582,-130.2416 2036.7542,-137.0799"/>
</g>
<!-- Node29&#45;&gt;Node2 -->
<g id="edge47" class="edge">
<title>Node29&#45;&gt;Node2</title>
<path fill="none" stroke="#191970" d="M2023.9553,-285.9581C1975.9363,-275.1406 1897.6109,-257.4959 1845.767,-245.8168"/>
<polygon fill="#191970" stroke="#191970" points="1846.2928,-242.3476 1835.7681,-243.5643 1844.7544,-249.1765 1846.2928,-242.3476"/>
</g>
<!-- Node29&#45;&gt;Node27 -->
<g id="edge49" class="edge">
<title>Node29&#45;&gt;Node27</title>
<path fill="none" stroke="#191970" d="M2067.5813,-285.9248C2071.217,-258.499 2081.725,-179.232 2086.6744,-141.8964"/>
<polygon fill="#191970" stroke="#191970" points="2090.1736,-142.1328 2088.0182,-131.7595 2083.2343,-141.2128 2090.1736,-142.1328"/>
</g>
<!-- Node29&#45;&gt;Node28 -->
<g id="edge50" class="edge">
<title>Node29&#45;&gt;Node28</title>
<path fill="none" stroke="#191970" d="M2060.0926,-285.8845C2047.4556,-266.3471 2018.5912,-221.7211 2002.2201,-196.4106"/>
<polygon fill="#191970" stroke="#191970" points="2004.9872,-194.2442 1996.6173,-187.7484 1999.1096,-198.0459 2004.9872,-194.2442"/>
</g>
<!-- Node30 -->
<g id="node31" class="node">
<title>Node30</title>
<polygon fill="#ffffff" stroke="#bfbfbf" points="2094.312,-224.5 2094.312,-243.5 2192.312,-243.5 2192.312,-224.5 2094.312,-224.5"/>
<text text-anchor="middle" x="2143.312" y="-231.5" font-family="Helvetica,sans-Serif" font-size="10.00" fill="#000000">AMReX_Array4.H</text>
</g>
<!-- Node29&#45;&gt;Node30 -->
<g id="edge48" class="edge">
<title>Node29&#45;&gt;Node30</title>
<path fill="none" stroke="#191970" d="M2078.3432,-285.8906C2090.3226,-276.3227 2108.9286,-261.4621 2123.1644,-250.0919"/>
<polygon fill="#191970" stroke="#191970" points="2125.7358,-252.5175 2131.3652,-243.5419 2121.3673,-247.0479 2125.7358,-252.5175"/>
</g>
<!-- Node31&#45;&gt;Node2 -->
<g id="edge52" class="edge">
<title>Node31&#45;&gt;Node2</title>
<path fill="none" stroke="#191970" d="M2184.4526,-285.971C2173.6108,-283.8657 2162.0733,-281.7451 2151.312,-280 2057.0841,-264.7194 1948.2326,-251.3362 1875.5268,-243.003"/>
<polygon fill="#191970" stroke="#191970" points="1875.8451,-239.5167 1865.5129,-241.861 1875.0519,-246.4716 1875.8451,-239.5167"/>
</g>
<!-- Node31&#45;&gt;Node27 -->
<g id="edge54" class="edge">
<title>Node31&#45;&gt;Node27</title>
<path fill="none" stroke="#191970" d="M2231.4948,-285.9931C2232.817,-271.5828 2233.4888,-243.7957 2222.312,-224 2198.9743,-182.6657 2151.3761,-152.5931 2119.9112,-136.2132"/>
<polygon fill="#191970" stroke="#191970" points="2121.2138,-132.9502 2110.7089,-131.572 2118.0615,-139.2003 2121.2138,-132.9502"/>
</g>
<!-- Node31&#45;&gt;Node28 -->
<g id="edge55" class="edge">
<title>Node31&#45;&gt;Node28</title>
<path fill="none" stroke="#191970" d="M2229.2671,-285.9864C2227.0418,-270.5229 2220.3673,-240.0521 2201.312,-224 2178.482,-204.7681 2102.4155,-191.6636 2048.174,-184.5048"/>
<polygon fill="#191970" stroke="#191970" points="2048.3432,-180.9979 2037.9787,-183.1947 2047.451,-187.9408 2048.3432,-180.9979"/>
</g>
<!-- Node31&#45;&gt;Node30 -->
<g id="edge53" class="edge">
<title>Node31&#45;&gt;Node30</title>
<path fill="none" stroke="#191970" d="M2216.7182,-285.8906C2202.9277,-276.1421 2181.3648,-260.8994 2165.171,-249.4521"/>
<polygon fill="#191970" stroke="#191970" points="2166.9964,-246.4563 2156.8103,-243.5419 2162.9557,-252.1723 2166.9964,-246.4563"/>
</g>
<!-- Node32&#45;&gt;Node2 -->
<g id="edge57" class="edge">
<title>Node32&#45;&gt;Node2</title>
<path fill="none" stroke="#191970" d="M1622.0307,-285.8906C1657.0392,-275.2846 1713.5139,-258.1753 1751.9671,-246.5257"/>
<polygon fill="#191970" stroke="#191970" points="1753.2603,-249.791 1761.816,-243.5419 1751.2307,-243.0917 1753.2603,-249.791"/>
</g>
<!-- Node33&#45;&gt;Node2 -->
<g id="edge59" class="edge">
<title>Node33&#45;&gt;Node2</title>
<path fill="none" stroke="#191970" d="M1759.562,-285.8906C1765.3985,-276.917 1774.2629,-263.2879 1781.4426,-252.2491"/>
<polygon fill="#191970" stroke="#191970" points="1784.4556,-254.0361 1786.9739,-243.7449 1778.5875,-250.2194 1784.4556,-254.0361"/>
</g>
<!-- Node34&#45;&gt;Node2 -->
<g id="edge61" class="edge">
<title>Node34&#45;&gt;Node2</title>
<path fill="none" stroke="#191970" d="M1880.1798,-280.4554C1861.8334,-270.644 1838.0343,-257.9167 1819.9869,-248.2653"/>
<polygon fill="#191970" stroke="#191970" points="1821.6017,-245.1598 1811.1329,-243.5303 1818.3006,-251.3326 1821.6017,-245.1598"/>
</g>
<!-- Node35&#45;&gt;Node2 -->
<g id="edge63" class="edge">
<title>Node35&#45;&gt;Node2</title>
<path fill="none" stroke="#191970" d="M1311.4561,-285.9548C1322.8195,-283.802 1334.9794,-281.6642 1346.312,-280 1473.0307,-261.3911 1621.0558,-247.7317 1710.9447,-240.3269"/>
<polygon fill="#191970" stroke="#191970" points="1711.3924,-243.802 1721.0739,-239.4987 1710.8219,-236.8253 1711.3924,-243.802"/>
</g>
</g>
</svg>
