<?xml version="1.0" encoding="UTF-8" standalone="no"?>
<!DOCTYPE svg PUBLIC "-//W3C//DTD SVG 1.1//EN"
 "http://www.w3.org/Graphics/SVG/1.1/DTD/svg11.dtd">
<!-- Generated by graphviz version 2.40.1 (20161225.0304)
 -->
<!-- Title: TKE Source terms Pages: 1 -->
<svg width="525pt" height="119pt"
 viewBox="0.00 0.00 525.00 119.00" xmlns="http://www.w3.org/2000/svg" xmlns:xlink="http://www.w3.org/1999/xlink">
<g id="graph0" class="graph" transform="scale(1 1) rotate(0) translate(4 115)">
<title>TKE Source terms</title>
<polygon fill="#ffffff" stroke="transparent" points="-4,4 -4,-115 521,-115 521,4 -4,4"/>
<!-- Node2 -->
<g id="node1" class="node">
<title>Node2</title>
<g id="a_node1"><a xlink:href="group__turb__model.html" target="_top" xlink:title="Turbulence models available in AMR&#45;Wind. ">
<polygon fill="#ffffff" stroke="#000000" points="409,-67.5 409,-86.5 517,-86.5 517,-67.5 409,-67.5"/>
<text text-anchor="middle" x="463" y="-74.5" font-family="Helvetica,sans-Serif" font-size="10.00" fill="#000000">Turbulence models</text>
</a>
</g>
</g>
<!-- Node0 -->
<g id="node2" class="node">
<title>Node0</title>
<polygon fill="#bfbfbf" stroke="#000000" points="176,-33.5 176,-52.5 279,-52.5 279,-33.5 176,-33.5"/>
<text text-anchor="middle" x="227.5" y="-40.5" font-family="Helvetica,sans-Serif" font-size="10.00" fill="#000000">TKE Source terms</text>
</g>
<!-- Node0&#45;&gt;Node2 -->
<g id="edge2" class="edge">
<title>Node0&#45;&gt;Node2</title>
<path fill="none" stroke="#ffa500" stroke-dasharray="5,2" d="M279.0793,-52.1374C285.1151,-53.138 291.1898,-54.1137 297,-55 334.217,-60.6769 376.2593,-66.2401 408.7213,-70.3518"/>
<text text-anchor="start" x="297" y="-103" font-family="Helvetica,sans-Serif" font-size="10.00" fill="#000000">amr_wind::pde::tke</text>
<text text-anchor="middle" x="344" y="-92" font-family="Helvetica,sans-Serif" font-size="10.00" fill="#000000">::KsgsM84Src</text>
<text text-anchor="start" x="297" y="-81" font-family="Helvetica,sans-Serif" font-size="10.00" fill="#000000">amr_wind::pde::tke</text>
<text text-anchor="middle" x="344" y="-70" font-family="Helvetica,sans-Serif" font-size="10.00" fill="#000000">::KsgsS94Src</text>
</g>
<!-- Node3 -->
<g id="node4" class="node">
<title>Node3</title>
<g id="a_node4"><a xlink:href="group__we__abl.html" target="_top" xlink:title="Atmospheric boundary layer (ABL) modeling. ">
<polygon fill="#ffffff" stroke="#000000" points="445.5,-.5 445.5,-19.5 480.5,-19.5 480.5,-.5 445.5,-.5"/>
<text text-anchor="middle" x="463" y="-7.5" font-family="Helvetica,sans-Serif" font-size="10.00" fill="#000000">ABL</text>
</a>
</g>
</g>
<!-- Node0&#45;&gt;Node3 -->
<g id="edge3" class="edge">
<title>Node0&#45;&gt;Node3</title>
<path fill="none" stroke="#ffa500" stroke-dasharray="5,2" d="M243.1028,-33.463C256.7581,-25.7041 277.4199,-15.353 297,-11 349.8903,.7584 414.6228,-4.214 445.2803,-7.6853"/>
<text text-anchor="start" x="297" y="-47" font-family="Helvetica,sans-Serif" font-size="10.00" fill="#000000">amr_wind::pde::tke</text>
<text text-anchor="middle" x="344" y="-36" font-family="Helvetica,sans-Serif" font-size="10.00" fill="#000000">::KsgsM84Src</text>
<text text-anchor="start" x="297" y="-25" font-family="Helvetica,sans-Serif" font-size="10.00" fill="#000000">amr_wind::pde::tke</text>
<text text-anchor="middle" x="344" y="-14" font-family="Helvetica,sans-Serif" font-size="10.00" fill="#000000">::KsgsS94Src</text>
</g>
<!-- Node1 -->
<g id="node3" class="node">
<title>Node1</title>
<g id="a_node3"><a xlink:href="group__tke__eqn.html" target="_top" xlink:title="TKE transport equation ">
<polygon fill="#ffffff" stroke="#000000" points="0,-28 0,-58 139,-58 139,-28 0,-28"/>
<text text-anchor="start" x="8" y="-46" font-family="Helvetica,sans-Serif" font-size="10.00" fill="#000000">Turbulent Kinetic Energy</text>
<text text-anchor="middle" x="69.5" y="-35" font-family="Helvetica,sans-Serif" font-size="10.00" fill="#000000"> (TKE) transport equation</text>
</a>
</g>
</g>
<!-- Node1&#45;&gt;Node0 -->
<g id="edge1" class="edge">
<title>Node1&#45;&gt;Node0</title>
<path fill="none" stroke="#000000" d="M149.3402,-43C158.2838,-43 167.2129,-43 175.6692,-43"/>
<polygon fill="#000000" stroke="#000000" points="149.2611,-39.5001 139.261,-43 149.261,-46.5001 149.2611,-39.5001"/>
</g>
</g>
</svg>
