<?xml version="1.0" encoding="UTF-8" standalone="no"?>
<!DOCTYPE svg PUBLIC "-//W3C//DTD SVG 1.1//EN"
 "http://www.w3.org/Graphics/SVG/1.1/DTD/svg11.dtd">
<!-- Generated by graphviz version 2.40.1 (20161225.0304)
 -->
<!-- Title: Turbulence models Pages: 1 -->
<svg width="361pt" height="170pt"
 viewBox="0.00 0.00 361.00 169.52" xmlns="http://www.w3.org/2000/svg" xmlns:xlink="http://www.w3.org/1999/xlink">
<g id="graph0" class="graph" transform="scale(1 1) rotate(0) translate(4 165.5164)">
<title>Turbulence models</title>
<polygon fill="#ffffff" stroke="transparent" points="-4,4 -4,-165.5164 357,-165.5164 357,4 -4,4"/>
<!-- Node0 -->
<g id="node1" class="node">
<title>Node0</title>
<polygon fill="#bfbfbf" stroke="#000000" points="0,-56.0164 0,-75.0164 108,-75.0164 108,-56.0164 0,-56.0164"/>
<text text-anchor="middle" x="54" y="-63.0164" font-family="Helvetica,sans-Serif" font-size="10.00" fill="#000000">Turbulence models</text>
</g>
<!-- Node1 -->
<g id="node2" class="node">
<title>Node1</title>
<g id="a_node2"><a xlink:href="group__tke__src.html" target="_top" xlink:title="Source terms used with TKE transport equation. ">
<polygon fill="#ffffff" stroke="#000000" points="250,-112.0164 250,-131.0164 353,-131.0164 353,-112.0164 250,-112.0164"/>
<text text-anchor="middle" x="301.5" y="-119.0164" font-family="Helvetica,sans-Serif" font-size="10.00" fill="#000000">TKE Source terms</text>
</a>
</g>
</g>
<!-- Node0&#45;&gt;Node1 -->
<g id="edge1" class="edge">
<title>Node0&#45;&gt;Node1</title>
<path fill="none" stroke="#ffa500" stroke-dasharray="5,2" d="M70.2856,-75.0426C84.508,-82.9068 105.9563,-93.6888 126,-99.5164 166.691,-111.347 214.5103,-116.8157 249.9483,-119.3435"/>
<text text-anchor="start" x="132" y="-153.5164" font-family="Helvetica,sans-Serif" font-size="10.00" fill="#000000">amr_wind::pde::tke</text>
<text text-anchor="middle" x="179" y="-142.5164" font-family="Helvetica,sans-Serif" font-size="10.00" fill="#000000">::KsgsM84Src</text>
<text text-anchor="start" x="132" y="-131.5164" font-family="Helvetica,sans-Serif" font-size="10.00" fill="#000000">amr_wind::pde::tke</text>
<text text-anchor="middle" x="179" y="-120.5164" font-family="Helvetica,sans-Serif" font-size="10.00" fill="#000000">::KsgsS94Src</text>
</g>
<!-- Node2 -->
<g id="node3" class="node">
<title>Node2</title>
<g id="a_node3"><a xlink:href="group__we__abl.html" target="_top" xlink:title="Atmospheric boundary layer (ABL) modeling. ">
<polygon fill="#ffffff" stroke="#000000" points="284,-1.0164 284,-20.0164 319,-20.0164 319,-1.0164 284,-1.0164"/>
<text text-anchor="middle" x="301.5" y="-8.0164" font-family="Helvetica,sans-Serif" font-size="10.00" fill="#000000">ABL</text>
</a>
</g>
</g>
<!-- Node0&#45;&gt;Node2 -->
<g id="edge2" class="edge">
<title>Node0&#45;&gt;Node2</title>
<path fill="none" stroke="#ffa500" stroke-dasharray="5,2" d="M62.6378,-56.0024C75.1277,-43.0285 99.6399,-20.3866 126,-11.5164 181.1572,7.0441 251.7026,-1.5345 283.9706,-7.0873"/>
<text text-anchor="start" x="126" y="-91.5164" font-family="Helvetica,sans-Serif" font-size="10.00" fill="#000000">amr_wind::pde::tke</text>
<text text-anchor="middle" x="179" y="-80.5164" font-family="Helvetica,sans-Serif" font-size="10.00" fill="#000000">::KsgsM84Src</text>
<text text-anchor="start" x="126" y="-69.5164" font-family="Helvetica,sans-Serif" font-size="10.00" fill="#000000">amr_wind::pde::tke</text>
<text text-anchor="middle" x="179" y="-58.5164" font-family="Helvetica,sans-Serif" font-size="10.00" fill="#000000">::KsgsS94Src</text>
<text text-anchor="start" x="126" y="-47.5164" font-family="Helvetica,sans-Serif" font-size="10.00" fill="#000000">amr_wind::turbulence</text>
<text text-anchor="middle" x="179" y="-36.5164" font-family="Helvetica,sans-Serif" font-size="10.00" fill="#000000">::OneEqKsgsM84</text>
<text text-anchor="start" x="126" y="-25.5164" font-family="Helvetica,sans-Serif" font-size="10.00" fill="#000000">amr_wind::turbulence</text>
<text text-anchor="middle" x="179" y="-14.5164" font-family="Helvetica,sans-Serif" font-size="10.00" fill="#000000">::OneEqKsgsS94</text>
</g>
</g>
</svg>
