<?xml version="1.0" encoding="UTF-8" standalone="no"?>
<!DOCTYPE svg PUBLIC "-//W3C//DTD SVG 1.1//EN"
 "http://www.w3.org/Graphics/SVG/1.1/DTD/svg11.dtd">
<!-- Generated by graphviz version 2.40.1 (20161225.0304)
 -->
<!-- Title: Mesh refinement Pages: 1 -->
<svg width="510pt" height="29pt"
 viewBox="0.00 0.00 510.00 29.00" xmlns="http://www.w3.org/2000/svg" xmlns:xlink="http://www.w3.org/1999/xlink">
<g id="graph0" class="graph" transform="scale(1 1) rotate(0) translate(4 25)">
<title>Mesh refinement</title>
<polygon fill="#ffffff" stroke="transparent" points="-4,4 -4,-25 506,-25 506,4 -4,4"/>
<!-- Node0 -->
<g id="node1" class="node">
<title>Node0</title>
<polygon fill="#bfbfbf" stroke="#000000" points="92,-.5 92,-19.5 190,-19.5 190,-.5 92,-.5"/>
<text text-anchor="middle" x="141" y="-7.5" font-family="Helvetica,sans-Serif" font-size="10.00" fill="#000000">Mesh refinement</text>
</g>
<!-- Node2 -->
<g id="node3" class="node">
<title>Node2</title>
<g id="a_node3"><a xlink:href="group__wind.html" target="_top" xlink:title="Wind energy modeling. ">
<polygon fill="#ffffff" stroke="#000000" points="375,-.5 375,-19.5 502,-19.5 502,-.5 375,-.5"/>
<text text-anchor="middle" x="438.5" y="-7.5" font-family="Helvetica,sans-Serif" font-size="10.00" fill="#000000">Wind energy modeling</text>
</a>
</g>
</g>
<!-- Node0&#45;&gt;Node2 -->
<g id="edge2" class="edge">
<title>Node0&#45;&gt;Node2</title>
<path fill="none" stroke="#ffa500" stroke-dasharray="5,2" d="M190.1261,-10C240.627,-10 319.481,-10 374.7587,-10"/>
<text text-anchor="middle" x="282.5" y="-13" font-family="Helvetica,sans-Serif" font-size="10.00" fill="#000000">amr_wind::CartBoxRefinement</text>
</g>
<!-- Node1 -->
<g id="node2" class="node">
<title>Node1</title>
<g id="a_node2"><a xlink:href="group__utilities.html" target="_top" xlink:title="Utilities. ">
<polygon fill="#ffffff" stroke="#000000" points="0,-.5 0,-19.5 55,-19.5 55,-.5 0,-.5"/>
<text text-anchor="middle" x="27.5" y="-7.5" font-family="Helvetica,sans-Serif" font-size="10.00" fill="#000000">Utilities</text>
</a>
</g>
</g>
<!-- Node1&#45;&gt;Node0 -->
<g id="edge1" class="edge">
<title>Node1&#45;&gt;Node0</title>
<path fill="none" stroke="#000000" d="M65.2662,-10C73.7765,-10 82.9304,-10 91.831,-10"/>
<polygon fill="#000000" stroke="#000000" points="65.2653,-6.5001 55.2652,-10 65.2652,-13.5001 65.2653,-6.5001"/>
</g>
</g>
</svg>
