<?xml version="1.0" encoding="UTF-8" standalone="no"?>
<!DOCTYPE svg PUBLIC "-//W3C//DTD SVG 1.1//EN"
 "http://www.w3.org/Graphics/SVG/1.1/DTD/svg11.dtd">
<!-- Generated by graphviz version 2.40.1 (20161225.0304)
 -->
<!-- Title: ICNS Source terms Pages: 1 -->
<svg width="549pt" height="212pt"
 viewBox="0.00 0.00 549.00 212.00" xmlns="http://www.w3.org/2000/svg" xmlns:xlink="http://www.w3.org/1999/xlink">
<g id="graph0" class="graph" transform="scale(1 1) rotate(0) translate(4 208)">
<title>ICNS Source terms</title>
<polygon fill="#ffffff" stroke="transparent" points="-4,4 -4,-208 545,-208 545,4 -4,4"/>
<!-- Node4 -->
<g id="node1" class="node">
<title>Node4</title>
<g id="a_node1"><a xlink:href="group__synth__turb.html" target="_top" xlink:title="SyntheticTurbulence contains functions to inject turbulence into a CFD simulation. ">
<polygon fill="#ffffff" stroke="#000000" points="419.5,-178.5 419.5,-197.5 537.5,-197.5 537.5,-178.5 419.5,-178.5"/>
<text text-anchor="middle" x="478.5" y="-185.5" font-family="Helvetica,sans-Serif" font-size="10.00" fill="#000000">Synthetic Turbulence</text>
</a>
</g>
</g>
<!-- Node1 -->
<g id="node2" class="node">
<title>Node1</title>
<g id="a_node2"><a xlink:href="group__icns.html" target="_top" xlink:title="Incompressible Navier&#45;Stokes equation system. ">
<polygon fill="#ffffff" stroke="#000000" points="0,-128 0,-158 126,-158 126,-128 0,-128"/>
<text text-anchor="start" x="8" y="-146" font-family="Helvetica,sans-Serif" font-size="10.00" fill="#000000">Incompressible Navier</text>
<text text-anchor="middle" x="63" y="-135" font-family="Helvetica,sans-Serif" font-size="10.00" fill="#000000">&#45;Stokes</text>
</a>
</g>
</g>
<!-- Node0 -->
<g id="node5" class="node">
<title>Node0</title>
<polygon fill="#bfbfbf" stroke="#000000" points="163,-133.5 163,-152.5 270,-152.5 270,-133.5 163,-133.5"/>
<text text-anchor="middle" x="216.5" y="-140.5" font-family="Helvetica,sans-Serif" font-size="10.00" fill="#000000">ICNS Source terms</text>
</g>
<!-- Node1&#45;&gt;Node0 -->
<g id="edge1" class="edge">
<title>Node1&#45;&gt;Node0</title>
<path fill="none" stroke="#000000" d="M136.5746,-143C145.3548,-143 154.1906,-143 162.6211,-143"/>
<polygon fill="#000000" stroke="#000000" points="136.3206,-139.5001 126.3205,-143 136.3205,-146.5001 136.3206,-139.5001"/>
</g>
<!-- Node3 -->
<g id="node3" class="node">
<title>Node3</title>
<g id="a_node3"><a xlink:href="group__actuator.html" target="_top" xlink:title="Actuator source modeling for wind turbines. ">
<polygon fill="#ffffff" stroke="#000000" points="416,-133.5 416,-152.5 541,-152.5 541,-133.5 416,-133.5"/>
<text text-anchor="middle" x="478.5" y="-140.5" font-family="Helvetica,sans-Serif" font-size="10.00" fill="#000000">Actuator source terms</text>
</a>
</g>
</g>
<!-- Node2 -->
<g id="node4" class="node">
<title>Node2</title>
<g id="a_node4"><a xlink:href="group__we__abl.html" target="_top" xlink:title="Atmospheric boundary layer (ABL) modeling. ">
<polygon fill="#ffffff" stroke="#000000" points="461,-.5 461,-19.5 496,-19.5 496,-.5 461,-.5"/>
<text text-anchor="middle" x="478.5" y="-7.5" font-family="Helvetica,sans-Serif" font-size="10.00" fill="#000000">ABL</text>
</a>
</g>
</g>
<!-- Node0&#45;&gt;Node4 -->
<g id="edge4" class="edge">
<title>Node0&#45;&gt;Node4</title>
<path fill="none" stroke="#ffa500" stroke-dasharray="5,2" d="M241.9816,-152.5425C255.4842,-157.2542 272.4515,-162.6355 288,-166 331.4404,-175.3999 381.3796,-180.9788 419.226,-184.1656"/>
<text text-anchor="start" x="294" y="-196" font-family="Helvetica,sans-Serif" font-size="10.00" fill="#000000">amr_wind::pde::icns</text>
<text text-anchor="middle" x="343" y="-185" font-family="Helvetica,sans-Serif" font-size="10.00" fill="#000000">::SynthTurbForcing</text>
</g>
<!-- Node0&#45;&gt;Node3 -->
<g id="edge3" class="edge">
<title>Node0&#45;&gt;Node3</title>
<path fill="none" stroke="#ffa500" stroke-dasharray="5,2" d="M270.1518,-143C312.3701,-143 371.2868,-143 415.7002,-143"/>
<text text-anchor="start" x="294" y="-157" font-family="Helvetica,sans-Serif" font-size="10.00" fill="#000000">amr_wind::pde::icns</text>
<text text-anchor="middle" x="343" y="-146" font-family="Helvetica,sans-Serif" font-size="10.00" fill="#000000">::ActuatorForcing</text>
</g>
<!-- Node0&#45;&gt;Node2 -->
<g id="edge2" class="edge">
<title>Node0&#45;&gt;Node2</title>
<path fill="none" stroke="#ffa500" stroke-dasharray="5,2" d="M219.3482,-133.2422C226.5621,-110.4698 247.892,-53.868 288,-29 343.2246,5.2407 425.2009,-1.7352 460.8631,-6.9448"/>
<text text-anchor="start" x="288" y="-131" font-family="Helvetica,sans-Serif" font-size="10.00" fill="#000000">amr_wind::pde::icns</text>
<text text-anchor="middle" x="343" y="-120" font-family="Helvetica,sans-Serif" font-size="10.00" fill="#000000">::ABLForcing</text>
<text text-anchor="start" x="288" y="-109" font-family="Helvetica,sans-Serif" font-size="10.00" fill="#000000">amr_wind::pde::icns</text>
<text text-anchor="middle" x="343" y="-98" font-family="Helvetica,sans-Serif" font-size="10.00" fill="#000000">::ABLMeanBoussinesq</text>
<text text-anchor="start" x="288" y="-87" font-family="Helvetica,sans-Serif" font-size="10.00" fill="#000000">amr_wind::pde::icns</text>
<text text-anchor="middle" x="343" y="-76" font-family="Helvetica,sans-Serif" font-size="10.00" fill="#000000">::BoussinesqBuoyancy</text>
<text text-anchor="start" x="288" y="-65" font-family="Helvetica,sans-Serif" font-size="10.00" fill="#000000">amr_wind::pde::icns</text>
<text text-anchor="middle" x="343" y="-54" font-family="Helvetica,sans-Serif" font-size="10.00" fill="#000000">::CoriolisForcing</text>
<text text-anchor="start" x="288" y="-43" font-family="Helvetica,sans-Serif" font-size="10.00" fill="#000000">amr_wind::pde::icns</text>
<text text-anchor="middle" x="343" y="-32" font-family="Helvetica,sans-Serif" font-size="10.00" fill="#000000">::GeostrophicForcing</text>
</g>
</g>
</svg>
