<?xml version="1.0" encoding="UTF-8" standalone="no"?>
<!DOCTYPE svg PUBLIC "-//W3C//DTD SVG 1.1//EN"
 "http://www.w3.org/Graphics/SVG/1.1/DTD/svg11.dtd">
<!-- Generated by graphviz version 2.40.1 (20161225.0304)
 -->
<!-- Title: Utilities Pages: 1 -->
<svg width="227pt" height="104pt"
 viewBox="0.00 0.00 227.00 104.00" xmlns="http://www.w3.org/2000/svg" xmlns:xlink="http://www.w3.org/1999/xlink">
<g id="graph0" class="graph" transform="scale(1 1) rotate(0) translate(4 100)">
<title>Utilities</title>
<polygon fill="#ffffff" stroke="transparent" points="-4,4 -4,-100 223,-100 223,4 -4,4"/>
<!-- Node3 -->
<g id="node1" class="node">
<title>Node3</title>
<g id="a_node1"><a xlink:href="group__amr__utils.html" target="_top" xlink:title="Mesh refinement. ">
<polygon fill="#ffffff" stroke="#000000" points="106,-76.5 106,-95.5 204,-95.5 204,-76.5 106,-76.5"/>
<text text-anchor="middle" x="155" y="-83.5" font-family="Helvetica,sans-Serif" font-size="10.00" fill="#000000">Mesh refinement</text>
</a>
</g>
</g>
<!-- Node0 -->
<g id="node2" class="node">
<title>Node0</title>
<polygon fill="#bfbfbf" stroke="#000000" points="0,-38.5 0,-57.5 55,-57.5 55,-38.5 0,-38.5"/>
<text text-anchor="middle" x="27.5" y="-45.5" font-family="Helvetica,sans-Serif" font-size="10.00" fill="#000000">Utilities</text>
</g>
<!-- Node0&#45;&gt;Node3 -->
<g id="edge3" class="edge">
<title>Node0&#45;&gt;Node3</title>
<path fill="none" stroke="#000000" d="M64.7983,-59.1747C73.4027,-61.7485 82.5189,-64.4723 91,-67 101.33,-70.0788 112.6009,-73.4281 122.7658,-76.4452"/>
<polygon fill="#000000" stroke="#000000" points="65.5852,-55.7568 55.0015,-56.2428 63.5782,-62.463 65.5852,-55.7568"/>
</g>
<!-- Node2 -->
<g id="node3" class="node">
<title>Node2</title>
<g id="a_node3"><a xlink:href="group__sampling.html" target="_top" xlink:title="Data&#45;sampling utilities. ">
<polygon fill="#ffffff" stroke="#000000" points="91,-38.5 91,-57.5 219,-57.5 219,-38.5 91,-38.5"/>
<text text-anchor="middle" x="155" y="-45.5" font-family="Helvetica,sans-Serif" font-size="10.00" fill="#000000">Data&#45;sampling utilities</text>
</a>
</g>
</g>
<!-- Node0&#45;&gt;Node2 -->
<g id="edge2" class="edge">
<title>Node0&#45;&gt;Node2</title>
<path fill="none" stroke="#000000" d="M65.2981,-48C73.3385,-48 82.043,-48 90.7597,-48"/>
<polygon fill="#000000" stroke="#000000" points="65.1656,-44.5001 55.1656,-48 65.1656,-51.5001 65.1656,-44.5001"/>
</g>
<!-- Node1 -->
<g id="node4" class="node">
<title>Node1</title>
<g id="a_node4"><a xlink:href="group__statistics.html" target="_top" xlink:title="Field statistics. ">
<polygon fill="#ffffff" stroke="#000000" points="112,-.5 112,-19.5 198,-19.5 198,-.5 112,-.5"/>
<text text-anchor="middle" x="155" y="-7.5" font-family="Helvetica,sans-Serif" font-size="10.00" fill="#000000">Field statistics</text>
</a>
</g>
</g>
<!-- Node0&#45;&gt;Node1 -->
<g id="edge1" class="edge">
<title>Node0&#45;&gt;Node1</title>
<path fill="none" stroke="#000000" d="M64.7983,-36.8253C73.4027,-34.2515 82.5189,-31.5277 91,-29 101.33,-25.9212 112.6009,-22.5719 122.7658,-19.5548"/>
<polygon fill="#000000" stroke="#000000" points="63.5782,-33.537 55.0015,-39.7572 65.5852,-40.2432 63.5782,-33.537"/>
</g>
</g>
</svg>
