<?xml version="1.0" encoding="UTF-8" standalone="no"?>
<!DOCTYPE svg PUBLIC "-//W3C//DTD SVG 1.1//EN"
 "http://www.w3.org/Graphics/SVG/1.1/DTD/svg11.dtd">
<!-- Generated by graphviz version 2.40.1 (20161225.0304)
 -->
<!-- Title: Specific Dissipation Rate (SDR) transport equation Pages: 1 -->
<svg width="408pt" height="50pt"
 viewBox="0.00 0.00 408.00 50.00" xmlns="http://www.w3.org/2000/svg" xmlns:xlink="http://www.w3.org/1999/xlink">
<g id="graph0" class="graph" transform="scale(1 1) rotate(0) translate(4 46)">
<title>Specific Dissipation Rate (SDR) transport equation</title>
<polygon fill="#ffffff" stroke="transparent" points="-4,4 -4,-46 404,-46 404,4 -4,4"/>
<!-- Node1 -->
<g id="node1" class="node">
<title>Node1</title>
<g id="a_node1"><a xlink:href="group__eqsys.html" target="_top" xlink:title="Governing partial&#45;differential equations. ">
<polygon fill="#ffffff" stroke="#000000" points="0,-11.5 0,-30.5 104,-30.5 104,-11.5 0,-11.5"/>
<text text-anchor="middle" x="52" y="-18.5" font-family="Helvetica,sans-Serif" font-size="10.00" fill="#000000">Equation Systems</text>
</a>
</g>
</g>
<!-- Node0 -->
<g id="node3" class="node">
<title>Node0</title>
<polygon fill="#bfbfbf" stroke="#000000" points="140,-.5 140,-41.5 260,-41.5 260,-.5 140,-.5"/>
<text text-anchor="start" x="148" y="-29.5" font-family="Helvetica,sans-Serif" font-size="10.00" fill="#000000">Specific Dissipation</text>
<text text-anchor="start" x="148" y="-18.5" font-family="Helvetica,sans-Serif" font-size="10.00" fill="#000000"> Rate (SDR) transport</text>
<text text-anchor="middle" x="200" y="-7.5" font-family="Helvetica,sans-Serif" font-size="10.00" fill="#000000"> equation</text>
</g>
<!-- Node1&#45;&gt;Node0 -->
<g id="edge1" class="edge">
<title>Node1&#45;&gt;Node0</title>
<path fill="none" stroke="#000000" d="M114.3759,-21C122.8453,-21 131.523,-21 139.9503,-21"/>
<polygon fill="#000000" stroke="#000000" points="114.1793,-17.5001 104.1793,-21 114.1792,-24.5001 114.1793,-17.5001"/>
</g>
<!-- Node2 -->
<g id="node2" class="node">
<title>Node2</title>
<g id="a_node2"><a xlink:href="group__sdr__src.html" target="_top" xlink:title="Source terms used with SDR transport equation. ">
<polygon fill="#ffffff" stroke="#000000" points="296,-11.5 296,-30.5 400,-30.5 400,-11.5 296,-11.5"/>
<text text-anchor="middle" x="348" y="-18.5" font-family="Helvetica,sans-Serif" font-size="10.00" fill="#000000">SDR source terms</text>
</a>
</g>
</g>
<!-- Node0&#45;&gt;Node2 -->
<g id="edge2" class="edge">
<title>Node0&#45;&gt;Node2</title>
<path fill="none" stroke="#000000" d="M270.2786,-21C278.917,-21 287.6233,-21 295.9248,-21"/>
<polygon fill="#000000" stroke="#000000" points="270.1973,-17.5001 260.1973,-21 270.1972,-24.5001 270.1973,-17.5001"/>
</g>
</g>
</svg>
