<?xml version="1.0" encoding="UTF-8" standalone="no"?>
<!DOCTYPE svg PUBLIC "-//W3C//DTD SVG 1.1//EN"
 "http://www.w3.org/Graphics/SVG/1.1/DTD/svg11.dtd">
<!-- Generated by graphviz version 2.40.1 (20161225.0304)
 -->
<!-- Title: Actuator source terms Pages: 1 -->
<svg width="538pt" height="40pt"
 viewBox="0.00 0.00 538.00 40.00" xmlns="http://www.w3.org/2000/svg" xmlns:xlink="http://www.w3.org/1999/xlink">
<g id="graph0" class="graph" transform="scale(1 1) rotate(0) translate(4 36)">
<title>Actuator source terms</title>
<polygon fill="#ffffff" stroke="transparent" points="-4,4 -4,-36 534,-36 534,4 -4,4"/>
<!-- Node0 -->
<g id="node1" class="node">
<title>Node0</title>
<polygon fill="#bfbfbf" stroke="#000000" points="164,-.5 164,-19.5 289,-19.5 289,-.5 164,-.5"/>
<text text-anchor="middle" x="226.5" y="-7.5" font-family="Helvetica,sans-Serif" font-size="10.00" fill="#000000">Actuator source terms</text>
</g>
<!-- Node2 -->
<g id="node3" class="node">
<title>Node2</title>
<g id="a_node3"><a xlink:href="group__icns__src.html" target="_top" xlink:title="Source terms used with incompressible Navier&#45;Stokes momentum equation. ">
<polygon fill="#ffffff" stroke="#000000" points="423,-.5 423,-19.5 530,-19.5 530,-.5 423,-.5"/>
<text text-anchor="middle" x="476.5" y="-7.5" font-family="Helvetica,sans-Serif" font-size="10.00" fill="#000000">ICNS Source terms</text>
</a>
</g>
</g>
<!-- Node0&#45;&gt;Node2 -->
<g id="edge2" class="edge">
<title>Node0&#45;&gt;Node2</title>
<path fill="none" stroke="#ffa500" stroke-dasharray="5,2" d="M289.2629,-10C330.3402,-10 383.4561,-10 422.6168,-10"/>
<text text-anchor="start" x="307" y="-24" font-family="Helvetica,sans-Serif" font-size="10.00" fill="#000000">amr_wind::pde::icns</text>
<text text-anchor="middle" x="356" y="-13" font-family="Helvetica,sans-Serif" font-size="10.00" fill="#000000">::ActuatorForcing</text>
</g>
<!-- Node1 -->
<g id="node2" class="node">
<title>Node1</title>
<g id="a_node2"><a xlink:href="group__wind.html" target="_top" xlink:title="Wind energy modeling. ">
<polygon fill="#ffffff" stroke="#000000" points="0,-.5 0,-19.5 127,-19.5 127,-.5 0,-.5"/>
<text text-anchor="middle" x="63.5" y="-7.5" font-family="Helvetica,sans-Serif" font-size="10.00" fill="#000000">Wind energy modeling</text>
</a>
</g>
</g>
<!-- Node1&#45;&gt;Node0 -->
<g id="edge1" class="edge">
<title>Node1&#45;&gt;Node0</title>
<path fill="none" stroke="#000000" d="M137.6392,-10C146.3807,-10 155.2361,-10 163.7987,-10"/>
<polygon fill="#000000" stroke="#000000" points="137.4541,-6.5001 127.4541,-10 137.4541,-13.5001 137.4541,-6.5001"/>
</g>
</g>
</svg>
