<?xml version="1.0" encoding="UTF-8" standalone="no"?>
<!DOCTYPE svg PUBLIC "-//W3C//DTD SVG 1.1//EN"
 "http://www.w3.org/Graphics/SVG/1.1/DTD/svg11.dtd">
<!-- Generated by graphviz version 2.40.1 (20161225.0304)
 -->
<!-- Title: icns.H Pages: 1 -->
<!--zoomable 140 -->
<svg id="main" version="1.1" xmlns="http://www.w3.org/2000/svg" xmlns:xlink="http://www.w3.org/1999/xlink" xml:space="preserve" onload="init(evt)">
<style type="text/css"><![CDATA[
.edge:hover path { stroke: red; }
.edge:hover polygon { stroke: red; fill: red; }
]]></style>
<script type="text/javascript"><![CDATA[
var edges = document.getElementsByTagName('g');
if (edges && edges.length) {
  for (var i=0;i<edges.length;i++) {
    if (edges[i].id.substr(0,4)=='edge') {
      edges[i].setAttribute('class','edge');
    }
  }
}
]]></script>
        <defs>
                <circle id="rim" cx="0" cy="0" r="7"/>
                <circle id="rim2" cx="0" cy="0" r="3.5"/>
                <g id="zoomPlus">
                        <use xlink:href="#rim" fill="#404040">
                                <set attributeName="fill" to="#808080" begin="zoomplus.mouseover" end="zoomplus.mouseout"/>
                        </use>
                        <path d="M-4,0h8M0,-4v8" fill="none" stroke="white" stroke-width="1.5" pointer-events="none"/>
                </g>
                <g id="zoomMin">
                        <use xlink:href="#rim" fill="#404040">
                                <set attributeName="fill" to="#808080" begin="zoomminus.mouseover" end="zoomminus.mouseout"/>
                        </use>
                        <path d="M-4,0h8" fill="none" stroke="white" stroke-width="1.5" pointer-events="none"/>
                </g>
                <g id="dirArrow">
                        <path fill="none" stroke="white" stroke-width="1.5" d="M0,-3.0v7 M-2.5,-0.5L0,-3.0L2.5,-0.5"/>
                </g>
               <g id="resetDef">
                       <use xlink:href="#rim2" fill="#404040">
                               <set attributeName="fill" to="#808080" begin="reset.mouseover" end="reset.mouseout"/>
                       </use>
               </g>
        </defs>

<script type="text/javascript">
var viewWidth = 553;
var viewHeight = 140;
var sectionId = 'dynsection-1';
</script>
<script xlink:href="svgpan.js"/>
<svg id="graph" class="graph">
<g id="viewport">
<title>icns.H</title>
<polygon fill="#ffffff" stroke="transparent" points="-4,4 -4,-136 549.4027,-136 549.4027,4 -4,4"/>
<!-- Node60 -->
<g id="node1" class="node">
<title>Node60</title>
<polygon fill="#bfbfbf" stroke="#000000" points="178.4027,-112.5 178.4027,-131.5 225.4027,-131.5 225.4027,-112.5 178.4027,-112.5"/>
<text text-anchor="middle" x="201.9027" y="-119.5" font-family="Helvetica,sans-Serif" font-size="10.00" fill="#000000">icns.H</text>
</g>
<!-- Node61 -->
<g id="node2" class="node">
<title>Node61</title>
<g id="a_node2"><a xlink:href="icns_8cpp.html" target="_top" xlink:title="icns.cpp">
<polygon fill="#ffffff" stroke="#000000" points="122.9027,-.5 122.9027,-19.5 178.9027,-19.5 178.9027,-.5 122.9027,-.5"/>
<text text-anchor="middle" x="150.9027" y="-7.5" font-family="Helvetica,sans-Serif" font-size="10.00" fill="#000000">icns.cpp</text>
</a>
</g>
</g>
<!-- Node60&#45;&gt;Node61 -->
<g id="edge1" class="edge">
<title>Node60&#45;&gt;Node61</title>
<path fill="none" stroke="#191970" d="M168.1827,-118.9981C117.798,-113.7361 26.6542,-100.9529 6.9027,-76 -25.9537,-34.491 72.0253,-18.089 122.6536,-12.5061"/>
<polygon fill="#191970" stroke="#191970" points="167.9763,-122.4949 178.2753,-120.0085 168.6737,-115.5297 167.9763,-122.4949"/>
</g>
<!-- Node62 -->
<g id="node3" class="node">
<title>Node62</title>
<g id="a_node3"><a xlink:href="icns__ops_8_h.html" target="_top" xlink:title="icns_ops.H">
<polygon fill="#ffffff" stroke="#000000" points="16.4027,-56.5 16.4027,-75.5 85.4027,-75.5 85.4027,-56.5 16.4027,-56.5"/>
<text text-anchor="middle" x="50.9027" y="-63.5" font-family="Helvetica,sans-Serif" font-size="10.00" fill="#000000">icns_ops.H</text>
</a>
</g>
</g>
<!-- Node60&#45;&gt;Node62 -->
<g id="edge2" class="edge">
<title>Node60&#45;&gt;Node62</title>
<path fill="none" stroke="#191970" d="M168.6469,-109.6667C140.9202,-99.384 101.9848,-84.9443 76.6034,-75.5314"/>
<polygon fill="#191970" stroke="#191970" points="167.716,-113.0543 178.309,-113.25 170.15,-106.4912 167.716,-113.0543"/>
</g>
<!-- Node63 -->
<g id="node4" class="node">
<title>Node63</title>
<g id="a_node4"><a xlink:href="icns__advection_8_h.html" target="_top" xlink:title="icns_advection.H">
<polygon fill="#ffffff" stroke="#000000" points="309.9027,-56.5 309.9027,-75.5 409.9027,-75.5 409.9027,-56.5 309.9027,-56.5"/>
<text text-anchor="middle" x="359.9027" y="-63.5" font-family="Helvetica,sans-Serif" font-size="10.00" fill="#000000">icns_advection.H</text>
</a>
</g>
</g>
<!-- Node60&#45;&gt;Node63 -->
<g id="edge4" class="edge">
<title>Node60&#45;&gt;Node63</title>
<path fill="none" stroke="#191970" d="M235.2661,-110.175C264.3189,-99.8778 305.9041,-85.1387 332.9057,-75.5686"/>
<polygon fill="#191970" stroke="#191970" points="233.8132,-106.9766 225.5569,-113.6162 236.1517,-113.5744 233.8132,-106.9766"/>
</g>
<!-- Node65 -->
<g id="node6" class="node">
<title>Node65</title>
<g id="a_node6"><a xlink:href="icns__diffusion_8_h.html" target="_top" xlink:title="icns_diffusion.H">
<polygon fill="#ffffff" stroke="#000000" points="103.9027,-56.5 103.9027,-75.5 197.9027,-75.5 197.9027,-56.5 103.9027,-56.5"/>
<text text-anchor="middle" x="150.9027" y="-63.5" font-family="Helvetica,sans-Serif" font-size="10.00" fill="#000000">icns_diffusion.H</text>
</a>
</g>
</g>
<!-- Node60&#45;&gt;Node65 -->
<g id="edge7" class="edge">
<title>Node60&#45;&gt;Node65</title>
<path fill="none" stroke="#191970" d="M186.2278,-104.7884C177.5033,-95.2085 166.9674,-83.6396 159.6845,-75.6427"/>
<polygon fill="#191970" stroke="#191970" points="183.6982,-107.2088 193.0192,-112.2455 188.8736,-102.4954 183.6982,-107.2088"/>
</g>
<!-- Node66 -->
<g id="node7" class="node">
<title>Node66</title>
<g id="a_node7"><a xlink:href="icns__bcop_8_h.html" target="_top" xlink:title="icns_bcop.H">
<polygon fill="#ffffff" stroke="#000000" points="216.4027,-56.5 216.4027,-75.5 291.4027,-75.5 291.4027,-56.5 216.4027,-56.5"/>
<text text-anchor="middle" x="253.9027" y="-63.5" font-family="Helvetica,sans-Serif" font-size="10.00" fill="#000000">icns_bcop.H</text>
</a>
</g>
</g>
<!-- Node60&#45;&gt;Node66 -->
<g id="edge9" class="edge">
<title>Node60&#45;&gt;Node66</title>
<path fill="none" stroke="#191970" d="M217.885,-104.7884C226.7806,-95.2085 237.5231,-83.6396 244.9488,-75.6427"/>
<polygon fill="#191970" stroke="#191970" points="215.2002,-102.536 210.9604,-112.2455 220.3298,-107.2992 215.2002,-102.536"/>
</g>
<!-- Node67 -->
<g id="node8" class="node">
<title>Node67</title>
<g id="a_node8"><a xlink:href="_power_law_profile_8cpp.html" target="_top" xlink:title="PowerLawProfile.cpp">
<polygon fill="#ffffff" stroke="#000000" points="428.4027,-56.5 428.4027,-75.5 545.4027,-75.5 545.4027,-56.5 428.4027,-56.5"/>
<text text-anchor="middle" x="486.9027" y="-63.5" font-family="Helvetica,sans-Serif" font-size="10.00" fill="#000000">PowerLawProfile.cpp</text>
</a>
</g>
</g>
<!-- Node60&#45;&gt;Node67 -->
<g id="edge11" class="edge">
<title>Node60&#45;&gt;Node67</title>
<path fill="none" stroke="#191970" d="M235.7471,-115.3499C286.0788,-105.4601 380.8982,-86.829 438.5375,-75.5034"/>
<polygon fill="#191970" stroke="#191970" points="234.849,-111.9593 225.7115,-117.3218 236.1987,-118.828 234.849,-111.9593"/>
</g>
<!-- Node62&#45;&gt;Node61 -->
<g id="edge3" class="edge">
<title>Node62&#45;&gt;Node61</title>
<path fill="none" stroke="#191970" d="M77.1125,-51.3225C94.9745,-41.3198 118.1182,-28.3593 133.6837,-19.6427"/>
<polygon fill="#191970" stroke="#191970" points="75.3363,-48.3057 68.3214,-56.2455 78.7566,-54.4132 75.3363,-48.3057"/>
</g>
<!-- Node63&#45;&gt;Node61 -->
<g id="edge5" class="edge">
<title>Node63&#45;&gt;Node61</title>
<path fill="none" stroke="#191970" d="M314.1697,-53.7462C272.9445,-42.7002 213.6391,-26.8097 179.008,-17.5306"/>
<polygon fill="#191970" stroke="#191970" points="313.4092,-57.1658 323.9744,-56.3733 315.2209,-50.4043 313.4092,-57.1658"/>
</g>
<!-- Node64 -->
<g id="node5" class="node">
<title>Node64</title>
<g id="a_node5"><a xlink:href="icns__advection_8cpp.html" target="_top" xlink:title="icns_advection.cpp">
<polygon fill="#ffffff" stroke="#000000" points="304.9027,-.5 304.9027,-19.5 414.9027,-19.5 414.9027,-.5 304.9027,-.5"/>
<text text-anchor="middle" x="359.9027" y="-7.5" font-family="Helvetica,sans-Serif" font-size="10.00" fill="#000000">icns_advection.cpp</text>
</a>
</g>
</g>
<!-- Node63&#45;&gt;Node64 -->
<g id="edge6" class="edge">
<title>Node63&#45;&gt;Node64</title>
<path fill="none" stroke="#191970" d="M359.9027,-46.1575C359.9027,-37.155 359.9027,-26.9199 359.9027,-19.6427"/>
<polygon fill="#191970" stroke="#191970" points="356.4028,-46.2455 359.9027,-56.2455 363.4028,-46.2456 356.4028,-46.2455"/>
</g>
<!-- Node65&#45;&gt;Node61 -->
<g id="edge8" class="edge">
<title>Node65&#45;&gt;Node61</title>
<path fill="none" stroke="#191970" d="M150.9027,-46.1575C150.9027,-37.155 150.9027,-26.9199 150.9027,-19.6427"/>
<polygon fill="#191970" stroke="#191970" points="147.4028,-46.2455 150.9027,-56.2455 154.4028,-46.2456 147.4028,-46.2455"/>
</g>
<!-- Node66&#45;&gt;Node61 -->
<g id="edge10" class="edge">
<title>Node66&#45;&gt;Node61</title>
<path fill="none" stroke="#191970" d="M227.1595,-51.46C208.7277,-41.4388 184.7443,-28.3993 168.6384,-19.6427"/>
<polygon fill="#191970" stroke="#191970" points="225.5042,-54.5438 235.9615,-56.2455 228.8478,-48.394 225.5042,-54.5438"/>
</g>
</g>
</svg>
        <g id="navigator" transform="translate(0 0)" fill="#404254">
                <rect fill="#f2f5e9" fill-opacity="0.5" stroke="#606060" stroke-width=".5" x="0" y="0" width="60" height="60"/>
                <use id="zoomplus" xlink:href="#zoomPlus" x="17" y="9" onmousedown="handleZoom(evt,'in')"/>
                <use id="zoomminus" xlink:href="#zoomMin" x="42" y="9" onmousedown="handleZoom(evt,'out')"/>
                <use id="reset" xlink:href="#resetDef" x="30" y="36" onmousedown="handleReset()"/>
                <g id="arrowUp" xlink:href="#dirArrow" transform="translate(30 24)" onmousedown="handlePan(0,-1)">
                  <use xlink:href="#rim" fill="#404040">
                        <set attributeName="fill" to="#808080" begin="arrowUp.mouseover" end="arrowUp.mouseout"/>
                  </use>
                  <path fill="none" stroke="white" stroke-width="1.5" d="M0,-3.0v7 M-2.5,-0.5L0,-3.0L2.5,-0.5"/>
                </g>
                <g id="arrowRight" xlink:href="#dirArrow" transform="rotate(90) translate(36 -43)" onmousedown="handlePan(1,0)">
                  <use xlink:href="#rim" fill="#404040">
                        <set attributeName="fill" to="#808080" begin="arrowRight.mouseover" end="arrowRight.mouseout"/>
                  </use>
                  <path fill="none" stroke="white" stroke-width="1.5" d="M0,-3.0v7 M-2.5,-0.5L0,-3.0L2.5,-0.5"/>
                </g>
                <g id="arrowDown" xlink:href="#dirArrow" transform="rotate(180) translate(-30 -48)" onmousedown="handlePan(0,1)">
                  <use xlink:href="#rim" fill="#404040">
                        <set attributeName="fill" to="#808080" begin="arrowDown.mouseover" end="arrowDown.mouseout"/>
                  </use>
                  <path fill="none" stroke="white" stroke-width="1.5" d="M0,-3.0v7 M-2.5,-0.5L0,-3.0L2.5,-0.5"/>
                </g>
                <g id="arrowLeft" xlink:href="#dirArrow" transform="rotate(270) translate(-36 17)" onmousedown="handlePan(-1,0)">
                  <use xlink:href="#rim" fill="#404040">
                        <set attributeName="fill" to="#808080" begin="arrowLeft.mouseover" end="arrowLeft.mouseout"/>
                  </use>
                  <path fill="none" stroke="white" stroke-width="1.5" d="M0,-3.0v7 M-2.5,-0.5L0,-3.0L2.5,-0.5"/>
                </g>
        </g>
        <svg viewBox="0 0 15 15" width="100%" height="30px" preserveAspectRatio="xMaxYMin meet">
         <g id="arrow_out" transform="scale(0.3 0.3)">
          <a xlink:href="icns_8_h__dep__incl_org.svg" target="_base">
           <rect id="button" ry="5" rx="5" y="6" x="6" height="38" width="38"
                fill="#f2f5e9" fill-opacity="0.5" stroke="#606060" stroke-width="1.0"/>
           <path id="arrow"
             d="M 11.500037,31.436501 C 11.940474,20.09759 22.043105,11.32322 32.158766,21.979434 L 37.068811,17.246167 C 37.068811,17.246167 37.088388,32 37.088388,32 L 22.160133,31.978069 C 22.160133,31.978069 26.997745,27.140456 26.997745,27.140456 C 18.528582,18.264221 13.291696,25.230495 11.500037,31.436501 z"
             style="fill:#404040;"/>
          </a>
         </g>
        </svg>
</svg>
