<?xml version="1.0" encoding="UTF-8" standalone="no"?>
<!DOCTYPE svg PUBLIC "-//W3C//DTD SVG 1.1//EN"
 "http://www.w3.org/Graphics/SVG/1.1/DTD/svg11.dtd">
<!-- Generated by graphviz version 2.40.1 (20161225.0304)
 -->
<!-- Title: incflo_godunov_advection.cpp Pages: 1 -->
<!--zoomable 352 -->
<svg id="main" version="1.1" xmlns="http://www.w3.org/2000/svg" xmlns:xlink="http://www.w3.org/1999/xlink" xml:space="preserve" onload="init(evt)">
<style type="text/css"><![CDATA[
.edge:hover path { stroke: red; }
.edge:hover polygon { stroke: red; fill: red; }
]]></style>
<script type="text/javascript"><![CDATA[
var edges = document.getElementsByTagName('g');
if (edges && edges.length) {
  for (var i=0;i<edges.length;i++) {
    if (edges[i].id.substr(0,4)=='edge') {
      edges[i].setAttribute('class','edge');
    }
  }
}
]]></script>
        <defs>
                <circle id="rim" cx="0" cy="0" r="7"/>
                <circle id="rim2" cx="0" cy="0" r="3.5"/>
                <g id="zoomPlus">
                        <use xlink:href="#rim" fill="#404040">
                                <set attributeName="fill" to="#808080" begin="zoomplus.mouseover" end="zoomplus.mouseout"/>
                        </use>
                        <path d="M-4,0h8M0,-4v8" fill="none" stroke="white" stroke-width="1.5" pointer-events="none"/>
                </g>
                <g id="zoomMin">
                        <use xlink:href="#rim" fill="#404040">
                                <set attributeName="fill" to="#808080" begin="zoomminus.mouseover" end="zoomminus.mouseout"/>
                        </use>
                        <path d="M-4,0h8" fill="none" stroke="white" stroke-width="1.5" pointer-events="none"/>
                </g>
                <g id="dirArrow">
                        <path fill="none" stroke="white" stroke-width="1.5" d="M0,-3.0v7 M-2.5,-0.5L0,-3.0L2.5,-0.5"/>
                </g>
               <g id="resetDef">
                       <use xlink:href="#rim2" fill="#404040">
                               <set attributeName="fill" to="#808080" begin="reset.mouseover" end="reset.mouseout"/>
                       </use>
               </g>
        </defs>

<script type="text/javascript">
var viewWidth = 2022;
var viewHeight = 352;
var sectionId = 'dynsection-0';
</script>
<script xlink:href="svgpan.js"/>
<svg id="graph" class="graph">
<g id="viewport">
<title>incflo_godunov_advection.cpp</title>
<polygon fill="#ffffff" stroke="transparent" points="-4,4 -4,-348 2017.5,-348 2017.5,4 -4,4"/>
<!-- Node0 -->
<g id="node1" class="node">
<title>Node0</title>
<polygon fill="#bfbfbf" stroke="#000000" points="293,-324.5 293,-343.5 457,-343.5 457,-324.5 293,-324.5"/>
<text text-anchor="middle" x="375" y="-331.5" font-family="Helvetica,sans-Serif" font-size="10.00" fill="#000000">incflo_godunov_advection.cpp</text>
</g>
<!-- Node1 -->
<g id="node2" class="node">
<title>Node1</title>
<g id="a_node2"><a xlink:href="incflo__godunov__plm_8_h.html" target="_top" xlink:title="amr&#45;wind/convection\l/incflo_godunov_plm.H">
<polygon fill="#ffffff" stroke="#000000" points="0,-129 0,-159 128,-159 128,-129 0,-129"/>
<text text-anchor="start" x="8" y="-147" font-family="Helvetica,sans-Serif" font-size="10.00" fill="#000000">amr&#45;wind/convection</text>
<text text-anchor="middle" x="64" y="-136" font-family="Helvetica,sans-Serif" font-size="10.00" fill="#000000">/incflo_godunov_plm.H</text>
</a>
</g>
</g>
<!-- Node0&#45;&gt;Node1 -->
<g id="edge1" class="edge">
<title>Node0&#45;&gt;Node1</title>
<path fill="none" stroke="#191970" d="M359.1499,-324.3167C310.7978,-294.7768 164.4239,-205.3523 97.7433,-164.6149"/>
<polygon fill="#191970" stroke="#191970" points="99.24,-161.4278 88.8818,-159.2011 95.5906,-167.4013 99.24,-161.4278"/>
</g>
<!-- Node6 -->
<g id="node7" class="node">
<title>Node6</title>
<g id="a_node7"><a xlink:href="incflo__godunov__ppm_8_h.html" target="_top" xlink:title="amr&#45;wind/convection\l/incflo_godunov_ppm.H">
<polygon fill="#ffffff" stroke="#000000" points="146.5,-129 146.5,-159 277.5,-159 277.5,-129 146.5,-129"/>
<text text-anchor="start" x="154.5" y="-147" font-family="Helvetica,sans-Serif" font-size="10.00" fill="#000000">amr&#45;wind/convection</text>
<text text-anchor="middle" x="212" y="-136" font-family="Helvetica,sans-Serif" font-size="10.00" fill="#000000">/incflo_godunov_ppm.H</text>
</a>
</g>
</g>
<!-- Node0&#45;&gt;Node6 -->
<g id="edge6" class="edge">
<title>Node0&#45;&gt;Node6</title>
<path fill="none" stroke="#191970" d="M366.6927,-324.3167C341.817,-295.3205 267.4403,-208.6237 231.6569,-166.913"/>
<polygon fill="#191970" stroke="#191970" points="234.2086,-164.5119 225.0409,-159.2011 228.8958,-169.0698 234.2086,-164.5119"/>
</g>
<!-- Node7 -->
<g id="node8" class="node">
<title>Node7</title>
<g id="a_node8"><a xlink:href="incflo__godunov__ppm__nolim_8_h.html" target="_top" xlink:title="amr&#45;wind/convection\l/incflo_godunov_ppm\l_nolim.H">
<polygon fill="#ffffff" stroke="#000000" points="296,-123.5 296,-164.5 416,-164.5 416,-123.5 296,-123.5"/>
<text text-anchor="start" x="304" y="-152.5" font-family="Helvetica,sans-Serif" font-size="10.00" fill="#000000">amr&#45;wind/convection</text>
<text text-anchor="start" x="304" y="-141.5" font-family="Helvetica,sans-Serif" font-size="10.00" fill="#000000">/incflo_godunov_ppm</text>
<text text-anchor="middle" x="356" y="-130.5" font-family="Helvetica,sans-Serif" font-size="10.00" fill="#000000">_nolim.H</text>
</a>
</g>
</g>
<!-- Node0&#45;&gt;Node7 -->
<g id="edge9" class="edge">
<title>Node0&#45;&gt;Node7</title>
<path fill="none" stroke="#191970" d="M374.0317,-324.3167C371.3071,-297.0707 363.488,-218.8796 359.0935,-174.9352"/>
<polygon fill="#191970" stroke="#191970" points="362.5589,-174.4135 358.0811,-164.8114 355.5936,-175.1101 362.5589,-174.4135"/>
</g>
<!-- Node8 -->
<g id="node9" class="node">
<title>Node8</title>
<g id="a_node9"><a xlink:href="incflo__godunov__weno_8_h.html" target="_top" xlink:title="amr&#45;wind/convection\l/incflo_godunov_weno.H">
<polygon fill="#ffffff" stroke="#000000" points="434.5,-129 434.5,-159 569.5,-159 569.5,-129 434.5,-129"/>
<text text-anchor="start" x="442.5" y="-147" font-family="Helvetica,sans-Serif" font-size="10.00" fill="#000000">amr&#45;wind/convection</text>
<text text-anchor="middle" x="502" y="-136" font-family="Helvetica,sans-Serif" font-size="10.00" fill="#000000">/incflo_godunov_weno.H</text>
</a>
</g>
</g>
<!-- Node0&#45;&gt;Node8 -->
<g id="edge12" class="edge">
<title>Node0&#45;&gt;Node8</title>
<path fill="none" stroke="#191970" d="M379.2305,-324.191C385.843,-309.2328 399.3922,-280.0306 414,-257 434.903,-224.0444 463.2521,-189.0244 482.0603,-166.8584"/>
<polygon fill="#191970" stroke="#191970" points="484.9227,-168.8967 488.7661,-159.0235 479.6046,-164.3449 484.9227,-168.8967"/>
</g>
<!-- Node9 -->
<g id="node10" class="node">
<title>Node9</title>
<g id="a_node10"><a xlink:href="_godunov_8_h.html" target="_top" xlink:title="amr&#45;wind/convection\l/Godunov.H">
<polygon fill="#ffffff" stroke="#000000" points="422.5,-257.5 422.5,-287.5 541.5,-287.5 541.5,-257.5 422.5,-257.5"/>
<text text-anchor="start" x="430.5" y="-275.5" font-family="Helvetica,sans-Serif" font-size="10.00" fill="#000000">amr&#45;wind/convection</text>
<text text-anchor="middle" x="482" y="-264.5" font-family="Helvetica,sans-Serif" font-size="10.00" fill="#000000">/Godunov.H</text>
</a>
</g>
</g>
<!-- Node0&#45;&gt;Node9 -->
<g id="edge15" class="edge">
<title>Node0&#45;&gt;Node9</title>
<path fill="none" stroke="#191970" d="M391.7188,-324.3906C406.4681,-315.9132 428.4462,-303.2809 447.0244,-292.6028"/>
<polygon fill="#191970" stroke="#191970" points="448.899,-295.5623 455.8249,-287.5446 445.4108,-289.4933 448.899,-295.5623"/>
</g>
<!-- Node28 -->
<g id="node29" class="node">
<title>Node28</title>
<polygon fill="#ffffff" stroke="#bfbfbf" points="559.5,-263 559.5,-282 672.5,-282 672.5,-263 559.5,-263"/>
<text text-anchor="middle" x="616" y="-270" font-family="Helvetica,sans-Serif" font-size="10.00" fill="#000000">AMReX_Geometry.H</text>
</g>
<!-- Node0&#45;&gt;Node28 -->
<g id="edge53" class="edge">
<title>Node0&#45;&gt;Node28</title>
<path fill="none" stroke="#191970" d="M412.3918,-324.4581C454.429,-313.7308 522.776,-296.2895 568.5446,-284.61"/>
<polygon fill="#191970" stroke="#191970" points="569.6964,-287.9283 578.5205,-282.0643 567.9655,-281.1457 569.6964,-287.9283"/>
</g>
<!-- Node2 -->
<g id="node3" class="node">
<title>Node2</title>
<g id="a_node3"><a xlink:href="incflo__convection___k_8_h.html" target="_top" xlink:title="amr&#45;wind/convection\l/incflo_convection_K.H">
<polygon fill="#ffffff" stroke="#000000" points=".5,-56.5 .5,-86.5 127.5,-86.5 127.5,-56.5 .5,-56.5"/>
<text text-anchor="start" x="8.5" y="-74.5" font-family="Helvetica,sans-Serif" font-size="10.00" fill="#000000">amr&#45;wind/convection</text>
<text text-anchor="middle" x="64" y="-63.5" font-family="Helvetica,sans-Serif" font-size="10.00" fill="#000000">/incflo_convection_K.H</text>
</a>
</g>
</g>
<!-- Node1&#45;&gt;Node2 -->
<g id="edge2" class="edge">
<title>Node1&#45;&gt;Node2</title>
<path fill="none" stroke="#191970" d="M64,-128.978C64,-119.6459 64,-107.4157 64,-96.6368"/>
<polygon fill="#191970" stroke="#191970" points="67.5001,-96.5028 64,-86.5028 60.5001,-96.5028 67.5001,-96.5028"/>
</g>
<!-- Node4 -->
<g id="node5" class="node">
<title>Node4</title>
<polygon fill="#ffffff" stroke="#bfbfbf" points="244,-62 244,-81 330,-81 330,-62 244,-62"/>
<text text-anchor="middle" x="287" y="-69" font-family="Helvetica,sans-Serif" font-size="10.00" fill="#000000">AMReX_Gpu.H</text>
</g>
<!-- Node1&#45;&gt;Node4 -->
<g id="edge4" class="edge">
<title>Node1&#45;&gt;Node4</title>
<path fill="none" stroke="#191970" d="M110.2057,-128.978C150.8427,-115.7664 209.3454,-96.7465 247.7551,-84.259"/>
<polygon fill="#191970" stroke="#191970" points="249.1159,-87.497 257.5437,-81.0766 246.9515,-80.84 249.1159,-87.497"/>
</g>
<!-- Node5 -->
<g id="node6" class="node">
<title>Node5</title>
<polygon fill="#ffffff" stroke="#bfbfbf" points="348.5,-62 348.5,-81 445.5,-81 445.5,-62 348.5,-62"/>
<text text-anchor="middle" x="397" y="-69" font-family="Helvetica,sans-Serif" font-size="10.00" fill="#000000">AMReX_BCRec.H</text>
</g>
<!-- Node1&#45;&gt;Node5 -->
<g id="edge5" class="edge">
<title>Node1&#45;&gt;Node5</title>
<path fill="none" stroke="#191970" d="M113.6907,-128.9597C121.4581,-126.8249 129.4211,-124.7605 137,-123 225.8275,-102.3668 249.9808,-106.7898 339,-87 343.712,-85.9525 348.6174,-84.7767 353.4919,-83.5533"/>
<polygon fill="#191970" stroke="#191970" points="354.574,-86.8888 363.3824,-81.0012 352.825,-80.1108 354.574,-86.8888"/>
</g>
<!-- Node3 -->
<g id="node4" class="node">
<title>Node3</title>
<polygon fill="#ffffff" stroke="#bfbfbf" points="6,-.5 6,-19.5 122,-19.5 122,-.5 6,-.5"/>
<text text-anchor="middle" x="64" y="-7.5" font-family="Helvetica,sans-Serif" font-size="10.00" fill="#000000">AMReX_FArrayBox.H</text>
</g>
<!-- Node2&#45;&gt;Node3 -->
<g id="edge3" class="edge">
<title>Node2&#45;&gt;Node3</title>
<path fill="none" stroke="#191970" d="M64,-56.2977C64,-48.3834 64,-38.6043 64,-30.0759"/>
<polygon fill="#191970" stroke="#191970" points="67.5001,-29.8469 64,-19.8469 60.5001,-29.847 67.5001,-29.8469"/>
</g>
<!-- Node6&#45;&gt;Node4 -->
<g id="edge7" class="edge">
<title>Node6&#45;&gt;Node4</title>
<path fill="none" stroke="#191970" d="M227.54,-128.978C239.7629,-117.1625 256.7917,-100.7013 269.4945,-88.422"/>
<polygon fill="#191970" stroke="#191970" points="272.0058,-90.8624 276.7631,-81.3957 267.1406,-85.8294 272.0058,-90.8624"/>
</g>
<!-- Node6&#45;&gt;Node5 -->
<g id="edge8" class="edge">
<title>Node6&#45;&gt;Node5</title>
<path fill="none" stroke="#191970" d="M250.3321,-128.978C283.614,-115.9351 331.3413,-97.2311 363.2141,-84.7404"/>
<polygon fill="#191970" stroke="#191970" points="364.5297,-87.9841 372.5632,-81.0766 361.9755,-81.4667 364.5297,-87.9841"/>
</g>
<!-- Node7&#45;&gt;Node4 -->
<g id="edge10" class="edge">
<title>Node7&#45;&gt;Node4</title>
<path fill="none" stroke="#191970" d="M336.4119,-123.4183C325.8711,-112.3428 313.0305,-98.8509 303.0813,-88.397"/>
<polygon fill="#191970" stroke="#191970" points="305.552,-85.9162 296.1226,-81.0853 300.4814,-90.7421 305.552,-85.9162"/>
</g>
<!-- Node7&#45;&gt;Node5 -->
<g id="edge11" class="edge">
<title>Node7&#45;&gt;Node5</title>
<path fill="none" stroke="#191970" d="M367.6393,-123.4183C373.5957,-112.8857 380.7879,-100.1678 386.5631,-89.9556"/>
<polygon fill="#191970" stroke="#191970" points="389.7033,-91.5128 391.5793,-81.0853 383.6101,-88.067 389.7033,-91.5128"/>
</g>
<!-- Node8&#45;&gt;Node4 -->
<g id="edge13" class="edge">
<title>Node8&#45;&gt;Node4</title>
<path fill="none" stroke="#191970" d="M457.4519,-128.978C418.4395,-115.8226 362.3485,-96.9082 325.3108,-84.4188"/>
<polygon fill="#191970" stroke="#191970" points="325.9937,-80.9555 315.3995,-81.0766 323.7569,-87.5885 325.9937,-80.9555"/>
</g>
<!-- Node8&#45;&gt;Node5 -->
<g id="edge14" class="edge">
<title>Node8&#45;&gt;Node5</title>
<path fill="none" stroke="#191970" d="M480.2439,-128.978C462.5453,-116.7574 437.6492,-99.5673 419.7006,-87.1743"/>
<polygon fill="#191970" stroke="#191970" points="421.2406,-83.9843 411.0229,-81.1825 417.2632,-89.7446 421.2406,-83.9843"/>
</g>
<!-- Node10 -->
<g id="node11" class="node">
<title>Node10</title>
<g id="a_node11"><a xlink:href="_field_repo_8_h.html" target="_top" xlink:title="amr&#45;wind/core/FieldRepo.H">
<polygon fill="#ffffff" stroke="#000000" points="1534,-201.5 1534,-220.5 1680,-220.5 1680,-201.5 1534,-201.5"/>
<text text-anchor="middle" x="1607" y="-208.5" font-family="Helvetica,sans-Serif" font-size="10.00" fill="#000000">amr&#45;wind/core/FieldRepo.H</text>
</a>
</g>
</g>
<!-- Node9&#45;&gt;Node10 -->
<g id="edge16" class="edge">
<title>Node9&#45;&gt;Node10</title>
<path fill="none" stroke="#191970" d="M541.7223,-258.4033C544.851,-257.8783 547.9574,-257.4048 551,-257 738.4749,-232.0606 1308.6588,-217.4603 1523.7172,-212.7179"/>
<polygon fill="#191970" stroke="#191970" points="1524.0735,-216.211 1533.9944,-212.4928 1523.9201,-209.2127 1524.0735,-216.211"/>
</g>
<!-- Node11 -->
<g id="node12" class="node">
<title>Node11</title>
<polygon fill="#ffffff" stroke="#bfbfbf" points="857,-.5 857,-19.5 901,-19.5 901,-.5 857,-.5"/>
<text text-anchor="middle" x="879" y="-7.5" font-family="Helvetica,sans-Serif" font-size="10.00" fill="#000000">string</text>
</g>
<!-- Node10&#45;&gt;Node11 -->
<g id="edge17" class="edge">
<title>Node10&#45;&gt;Node11</title>
<path fill="none" stroke="#191970" d="M1533.929,-210.1983C1361.0381,-207.7671 930.9005,-198.4447 791,-165 706.9938,-144.9175 660.255,-159.3001 613,-87 605.4621,-75.4671 604.1264,-66.5398 613,-56 627.9702,-38.2187 779.483,-20.3715 846.9213,-13.239"/>
<polygon fill="#191970" stroke="#191970" points="847.4066,-16.7075 856.9891,-12.188 846.6797,-9.7453 847.4066,-16.7075"/>
</g>
<!-- Node12 -->
<g id="node13" class="node">
<title>Node12</title>
<polygon fill="#ffffff" stroke="#bfbfbf" points="1476.5,-62 1476.5,-81 1569.5,-81 1569.5,-62 1476.5,-62"/>
<text text-anchor="middle" x="1523" y="-69" font-family="Helvetica,sans-Serif" font-size="10.00" fill="#000000">unordered_map</text>
</g>
<!-- Node10&#45;&gt;Node12 -->
<g id="edge18" class="edge">
<title>Node10&#45;&gt;Node12</title>
<path fill="none" stroke="#191970" d="M1601.2263,-201.4116C1587.3794,-178.4159 1552.0942,-119.8172 1534.0263,-89.8115"/>
<polygon fill="#191970" stroke="#191970" points="1536.971,-87.9168 1528.8141,-81.1555 1530.9742,-91.5278 1536.971,-87.9168"/>
</g>
<!-- Node13 -->
<g id="node14" class="node">
<title>Node13</title>
<g id="a_node14"><a xlink:href="_field_desc_types_8_h.html" target="_top" xlink:title="amr&#45;wind/core/FieldDescTypes.H">
<polygon fill="#ffffff" stroke="#000000" points="1474,-.5 1474,-19.5 1648,-19.5 1648,-.5 1474,-.5"/>
<text text-anchor="middle" x="1561" y="-7.5" font-family="Helvetica,sans-Serif" font-size="10.00" fill="#000000">amr&#45;wind/core/FieldDescTypes.H</text>
</a>
</g>
</g>
<!-- Node10&#45;&gt;Node13 -->
<g id="edge19" class="edge">
<title>Node10&#45;&gt;Node13</title>
<path fill="none" stroke="#191970" d="M1614.7038,-201.1947C1633.8424,-175.5602 1679.9157,-105.1373 1650,-56 1640.7,-40.7246 1624.5134,-30.2991 1608.4724,-23.2919"/>
<polygon fill="#191970" stroke="#191970" points="1609.6826,-20.0065 1599.0976,-19.5503 1607.0878,-26.5078 1609.6826,-20.0065"/>
</g>
<!-- Node14 -->
<g id="node15" class="node">
<title>Node14</title>
<g id="a_node15"><a xlink:href="_field_utils_8_h.html" target="_top" xlink:title="amr&#45;wind/core/FieldUtils.H">
<polygon fill="#ffffff" stroke="#000000" points="1868.5,-62 1868.5,-81 2013.5,-81 2013.5,-62 1868.5,-62"/>
<text text-anchor="middle" x="1941" y="-69" font-family="Helvetica,sans-Serif" font-size="10.00" fill="#000000">amr&#45;wind/core/FieldUtils.H</text>
</a>
</g>
</g>
<!-- Node10&#45;&gt;Node14 -->
<g id="edge20" class="edge">
<title>Node10&#45;&gt;Node14</title>
<path fill="none" stroke="#191970" d="M1680.0773,-206.6478C1778.8028,-200.0105 1944.6385,-185.8867 1963,-165 1981.523,-143.9296 1966.1996,-110.1732 1953.5157,-89.5039"/>
<polygon fill="#191970" stroke="#191970" points="1956.3876,-87.4999 1948.0047,-81.0208 1950.5175,-91.3133 1956.3876,-87.4999"/>
</g>
<!-- Node15 -->
<g id="node16" class="node">
<title>Node15</title>
<polygon fill="#ffffff" stroke="#bfbfbf" points="1040.5,-.5 1040.5,-19.5 1147.5,-19.5 1147.5,-.5 1040.5,-.5"/>
<text text-anchor="middle" x="1094" y="-7.5" font-family="Helvetica,sans-Serif" font-size="10.00" fill="#000000">AMReX_MultiFab.H</text>
</g>
<!-- Node10&#45;&gt;Node15 -->
<g id="edge51" class="edge">
<title>Node10&#45;&gt;Node15</title>
<path fill="none" stroke="#191970" d="M1608.77,-201.1558C1613.1125,-173.512 1621.0765,-94.6766 1579,-56 1548.6031,-28.0592 1282.4183,-15.9801 1157.818,-11.8211"/>
<polygon fill="#191970" stroke="#191970" points="1157.7627,-8.3175 1147.6537,-11.4889 1157.534,-15.3138 1157.7627,-8.3175"/>
</g>
<!-- Node17 -->
<g id="node18" class="node">
<title>Node17</title>
<g id="a_node18"><a xlink:href="_field_8_h.html" target="_top" xlink:title="amr&#45;wind/core/Field.H">
<polygon fill="#ffffff" stroke="#000000" points="1090,-134.5 1090,-153.5 1212,-153.5 1212,-134.5 1090,-134.5"/>
<text text-anchor="middle" x="1151" y="-141.5" font-family="Helvetica,sans-Serif" font-size="10.00" fill="#000000">amr&#45;wind/core/Field.H</text>
</a>
</g>
</g>
<!-- Node10&#45;&gt;Node17 -->
<g id="edge24" class="edge">
<title>Node10&#45;&gt;Node17</title>
<path fill="none" stroke="#191970" d="M1542.1506,-201.4717C1457.5943,-189.0479 1310.1695,-167.3867 1222.4716,-154.5013"/>
<polygon fill="#191970" stroke="#191970" points="1222.7458,-151.0041 1212.3432,-153.0132 1221.7282,-157.9297 1222.7458,-151.0041"/>
</g>
<!-- Node23 -->
<g id="node24" class="node">
<title>Node23</title>
<g id="a_node24"><a xlink:href="_int_field_8_h.html" target="_top" xlink:title="amr&#45;wind/core/IntField.H">
<polygon fill="#ffffff" stroke="#000000" points="1673.5,-134.5 1673.5,-153.5 1808.5,-153.5 1808.5,-134.5 1673.5,-134.5"/>
<text text-anchor="middle" x="1741" y="-141.5" font-family="Helvetica,sans-Serif" font-size="10.00" fill="#000000">amr&#45;wind/core/IntField.H</text>
</a>
</g>
</g>
<!-- Node10&#45;&gt;Node23 -->
<g id="edge39" class="edge">
<title>Node10&#45;&gt;Node23</title>
<path fill="none" stroke="#191970" d="M1626.1989,-201.4005C1648.8862,-190.0569 1686.8313,-171.0844 1712.8435,-158.0783"/>
<polygon fill="#191970" stroke="#191970" points="1714.4577,-161.1843 1721.8367,-153.5817 1711.3271,-154.9234 1714.4577,-161.1843"/>
</g>
<!-- Node24 -->
<g id="node25" class="node">
<title>Node24</title>
<polygon fill="#ffffff" stroke="#bfbfbf" points="1740,-62 1740,-81 1850,-81 1850,-62 1740,-62"/>
<text text-anchor="middle" x="1795" y="-69" font-family="Helvetica,sans-Serif" font-size="10.00" fill="#000000">AMReX_iMultiFab.H</text>
</g>
<!-- Node10&#45;&gt;Node24 -->
<g id="edge52" class="edge">
<title>Node10&#45;&gt;Node24</title>
<path fill="none" stroke="#191970" d="M1680.3726,-206.0816C1774.5309,-199.01 1927.8619,-184.6285 1945,-165 1957.2771,-150.9388 1955.8465,-138.192 1945,-123 1938.5755,-114.0017 1881.1619,-96.0209 1839.273,-83.8718"/>
<polygon fill="#191970" stroke="#191970" points="1840.1099,-80.4707 1829.532,-81.07 1838.1748,-87.198 1840.1099,-80.4707"/>
</g>
<!-- Node25 -->
<g id="node26" class="node">
<title>Node25</title>
<g id="a_node26"><a xlink:href="_scratch_field_8_h.html" target="_top" xlink:title="amr&#45;wind/core/ScratchField.H">
<polygon fill="#ffffff" stroke="#000000" points="800,-134.5 800,-153.5 958,-153.5 958,-134.5 800,-134.5"/>
<text text-anchor="middle" x="879" y="-141.5" font-family="Helvetica,sans-Serif" font-size="10.00" fill="#000000">amr&#45;wind/core/ScratchField.H</text>
</a>
</g>
</g>
<!-- Node10&#45;&gt;Node25 -->
<g id="edge43" class="edge">
<title>Node10&#45;&gt;Node25</title>
<path fill="none" stroke="#191970" d="M1533.7856,-204.9778C1432.1351,-196.5298 1242.5144,-180.4569 1081,-165 1044.1038,-161.469 1003.4477,-157.2969 968.3412,-153.6055"/>
<polygon fill="#191970" stroke="#191970" points="968.4279,-150.0954 958.116,-152.5275 967.6939,-157.0568 968.4279,-150.0954"/>
</g>
<!-- Node27 -->
<g id="node28" class="node">
<title>Node27</title>
<polygon fill="#ffffff" stroke="#bfbfbf" points="1826.5,-134.5 1826.5,-153.5 1935.5,-153.5 1935.5,-134.5 1826.5,-134.5"/>
<text text-anchor="middle" x="1881" y="-141.5" font-family="Helvetica,sans-Serif" font-size="10.00" fill="#000000">AMReX_AmrCore.H</text>
</g>
<!-- Node10&#45;&gt;Node27 -->
<g id="edge50" class="edge">
<title>Node10&#45;&gt;Node27</title>
<path fill="none" stroke="#191970" d="M1658.1072,-201.4524C1701.0721,-193.0462 1763.9528,-179.8534 1818,-165 1826.8041,-162.5804 1836.1902,-159.6482 1844.9556,-156.7519"/>
<polygon fill="#191970" stroke="#191970" points="1846.1661,-160.0375 1854.5242,-153.5266 1843.9301,-153.4042 1846.1661,-160.0375"/>
</g>
<!-- Node14&#45;&gt;Node13 -->
<g id="edge21" class="edge">
<title>Node14&#45;&gt;Node13</title>
<path fill="none" stroke="#191970" d="M1892.0513,-61.9684C1881.1821,-59.9297 1869.7095,-57.8382 1859,-56 1783.646,-43.066 1697.2788,-29.9178 1636.991,-21.0095"/>
<polygon fill="#191970" stroke="#191970" points="1637.2004,-17.5027 1626.7969,-19.5069 1636.1796,-24.4278 1637.2004,-17.5027"/>
</g>
<!-- Node14&#45;&gt;Node15 -->
<g id="edge22" class="edge">
<title>Node14&#45;&gt;Node15</title>
<path fill="none" stroke="#191970" d="M1896.048,-61.9406C1884.0577,-59.6824 1871.0775,-57.4985 1859,-56 1600.2761,-23.9001 1289.4382,-13.9902 1157.8349,-11.1072"/>
<polygon fill="#191970" stroke="#191970" points="1157.6141,-7.6018 1147.5419,-10.8881 1157.4651,-14.6002 1157.6141,-7.6018"/>
</g>
<!-- Node16 -->
<g id="node17" class="node">
<title>Node16</title>
<polygon fill="#ffffff" stroke="#bfbfbf" points="1880,-.5 1880,-19.5 2002,-19.5 2002,-.5 1880,-.5"/>
<text text-anchor="middle" x="1941" y="-7.5" font-family="Helvetica,sans-Serif" font-size="10.00" fill="#000000">AMReX_Interpolater.H</text>
</g>
<!-- Node14&#45;&gt;Node16 -->
<g id="edge23" class="edge">
<title>Node14&#45;&gt;Node16</title>
<path fill="none" stroke="#191970" d="M1941,-61.8906C1941,-53.3657 1941,-40.6392 1941,-29.9235"/>
<polygon fill="#191970" stroke="#191970" points="1944.5001,-29.7448 1941,-19.7449 1937.5001,-29.7449 1944.5001,-29.7448"/>
</g>
<!-- Node17&#45;&gt;Node4 -->
<g id="edge31" class="edge">
<title>Node17&#45;&gt;Node4</title>
<path fill="none" stroke="#191970" d="M1089.753,-136.1357C1054.004,-131.7642 1008.004,-126.5142 967,-123 688.8939,-99.1649 615.0576,-134.4806 340,-87 335.1761,-86.1673 330.1679,-85.0501 325.2409,-83.795"/>
<polygon fill="#191970" stroke="#191970" points="325.8966,-80.3456 315.3267,-81.0722 324.0427,-87.0956 325.8966,-80.3456"/>
</g>
<!-- Node17&#45;&gt;Node5 -->
<g id="edge30" class="edge">
<title>Node17&#45;&gt;Node5</title>
<path fill="none" stroke="#191970" d="M1089.7057,-136.6389C1053.941,-132.4352 1007.941,-127.1852 967,-123 780.6497,-103.9501 559.6409,-85.0282 456.0831,-76.377"/>
<polygon fill="#191970" stroke="#191970" points="456.0915,-72.8656 445.8352,-75.5224 455.5097,-79.8414 456.0915,-72.8656"/>
</g>
<!-- Node17&#45;&gt;Node11 -->
<g id="edge25" class="edge">
<title>Node17&#45;&gt;Node11</title>
<path fill="none" stroke="#191970" d="M1131.4384,-134.3631C1084.0949,-111.0394 963.1623,-51.4623 907.6465,-24.1126"/>
<polygon fill="#191970" stroke="#191970" points="908.9016,-20.8293 898.3843,-19.5496 905.8081,-27.1087 908.9016,-20.8293"/>
</g>
<!-- Node17&#45;&gt;Node12 -->
<g id="edge27" class="edge">
<title>Node17&#45;&gt;Node12</title>
<path fill="none" stroke="#191970" d="M1209.7015,-134.4576C1272.4058,-123.9811 1374.5863,-106.0936 1462,-87 1467.009,-85.9059 1472.231,-84.6922 1477.4198,-83.4394"/>
<polygon fill="#191970" stroke="#191970" points="1478.422,-86.7971 1487.2923,-81.0033 1476.745,-80.001 1478.422,-86.7971"/>
</g>
<!-- Node17&#45;&gt;Node13 -->
<g id="edge33" class="edge">
<title>Node17&#45;&gt;Node13</title>
<path fill="none" stroke="#191970" d="M1212.1264,-139.7047C1270.2345,-133.7539 1358.9157,-119.731 1429,-87 1449.062,-77.6306 1449.3046,-67.864 1468,-56 1487.5566,-43.5894 1510.9304,-32.0407 1529.3528,-23.6192"/>
<polygon fill="#191970" stroke="#191970" points="1530.8029,-26.8047 1538.4887,-19.5123 1527.9328,-20.4201 1530.8029,-26.8047"/>
</g>
<!-- Node17&#45;&gt;Node15 -->
<g id="edge29" class="edge">
<title>Node17&#45;&gt;Node15</title>
<path fill="none" stroke="#191970" d="M1142.851,-134.1223C1134.2471,-123.2223 1120.8635,-104.8497 1113,-87 1104.8703,-68.5462 1099.824,-46.0062 1096.9939,-30.0948"/>
<polygon fill="#191970" stroke="#191970" points="1100.3836,-29.1359 1095.3124,-19.8335 1093.4757,-30.2679 1100.3836,-29.1359"/>
</g>
<!-- Node18 -->
<g id="node19" class="node">
<title>Node18</title>
<polygon fill="#ffffff" stroke="#bfbfbf" points="1122,-62 1122,-81 1180,-81 1180,-62 1122,-62"/>
<text text-anchor="middle" x="1151" y="-69" font-family="Helvetica,sans-Serif" font-size="10.00" fill="#000000">memory</text>
</g>
<!-- Node17&#45;&gt;Node18 -->
<g id="edge26" class="edge">
<title>Node17&#45;&gt;Node18</title>
<path fill="none" stroke="#191970" d="M1151,-134.2223C1151,-123.243 1151,-105.1397 1151,-91.197"/>
<polygon fill="#191970" stroke="#191970" points="1154.5001,-91.1227 1151,-81.1228 1147.5001,-91.1228 1154.5001,-91.1227"/>
</g>
<!-- Node19 -->
<g id="node20" class="node">
<title>Node19</title>
<polygon fill="#ffffff" stroke="#bfbfbf" points="1198,-62 1198,-81 1262,-81 1262,-62 1198,-62"/>
<text text-anchor="middle" x="1230" y="-69" font-family="Helvetica,sans-Serif" font-size="10.00" fill="#000000">algorithm</text>
</g>
<!-- Node17&#45;&gt;Node19 -->
<g id="edge28" class="edge">
<title>Node17&#45;&gt;Node19</title>
<path fill="none" stroke="#191970" d="M1161.6543,-134.2223C1174.5656,-122.3733 1196.5179,-102.2272 1212.0558,-87.9678"/>
<polygon fill="#191970" stroke="#191970" points="1214.5133,-90.463 1219.5145,-81.1228 1209.7803,-85.3056 1214.5133,-90.463"/>
</g>
<!-- Node20 -->
<g id="node21" class="node">
<title>Node20</title>
<g id="a_node21"><a xlink:href="incflo__enums_8_h.html" target="_top" xlink:title="amr&#45;wind/incflo_enums.H">
<polygon fill="#ffffff" stroke="#000000" points="1280,-62 1280,-81 1420,-81 1420,-62 1280,-62"/>
<text text-anchor="middle" x="1350" y="-69" font-family="Helvetica,sans-Serif" font-size="10.00" fill="#000000">amr&#45;wind/incflo_enums.H</text>
</a>
</g>
</g>
<!-- Node17&#45;&gt;Node20 -->
<g id="edge32" class="edge">
<title>Node17&#45;&gt;Node20</title>
<path fill="none" stroke="#191970" d="M1177.4257,-134.3726C1212.6111,-121.5538 1274.9672,-98.8361 1314.3068,-84.5038"/>
<polygon fill="#191970" stroke="#191970" points="1315.5842,-87.7635 1323.782,-81.0518 1313.188,-81.1864 1315.5842,-87.7635"/>
</g>
<!-- Node21 -->
<g id="node22" class="node">
<title>Node21</title>
<g id="a_node22"><a xlink:href="_view_field_8_h.html" target="_top" xlink:title="amr&#45;wind/core/ViewField.H">
<polygon fill="#ffffff" stroke="#000000" points="806,-62 806,-81 952,-81 952,-62 806,-62"/>
<text text-anchor="middle" x="879" y="-69" font-family="Helvetica,sans-Serif" font-size="10.00" fill="#000000">amr&#45;wind/core/ViewField.H</text>
</a>
</g>
</g>
<!-- Node17&#45;&gt;Node21 -->
<g id="edge34" class="edge">
<title>Node17&#45;&gt;Node21</title>
<path fill="none" stroke="#191970" d="M1115.161,-134.4473C1066.2372,-121.407 978.509,-98.0235 924.8492,-83.7208"/>
<polygon fill="#191970" stroke="#191970" points="925.4824,-80.2675 914.9183,-81.0738 923.6795,-87.0313 925.4824,-80.2675"/>
</g>
<!-- Node21&#45;&gt;Node11 -->
<g id="edge35" class="edge">
<title>Node21&#45;&gt;Node11</title>
<path fill="none" stroke="#191970" d="M879,-61.8906C879,-53.3657 879,-40.6392 879,-29.9235"/>
<polygon fill="#191970" stroke="#191970" points="882.5001,-29.7448 879,-19.7449 875.5001,-29.7449 882.5001,-29.7448"/>
</g>
<!-- Node21&#45;&gt;Node13 -->
<g id="edge36" class="edge">
<title>Node21&#45;&gt;Node13</title>
<path fill="none" stroke="#191970" d="M952.0177,-64.456C980.1394,-61.7695 1012.5606,-58.7043 1042,-56 1188.8902,-42.5065 1359.2333,-27.5386 1463.5488,-18.4498"/>
<polygon fill="#191970" stroke="#191970" points="1464.0882,-21.9161 1473.7468,-17.5616 1463.4809,-14.9425 1464.0882,-21.9161"/>
</g>
<!-- Node21&#45;&gt;Node15 -->
<g id="edge37" class="edge">
<title>Node21&#45;&gt;Node15</title>
<path fill="none" stroke="#191970" d="M912.5938,-61.8906C949.9083,-51.2169 1010.2492,-33.9566 1050.9886,-22.3033"/>
<polygon fill="#191970" stroke="#191970" points="1051.9903,-25.6572 1060.6421,-19.5419 1050.0652,-18.9271 1051.9903,-25.6572"/>
</g>
<!-- Node22 -->
<g id="node23" class="node">
<title>Node22</title>
<polygon fill="#ffffff" stroke="#bfbfbf" points="644,-.5 644,-19.5 740,-19.5 740,-.5 644,-.5"/>
<text text-anchor="middle" x="692" y="-7.5" font-family="Helvetica,sans-Serif" font-size="10.00" fill="#000000">AMReX_Vector.H</text>
</g>
<!-- Node21&#45;&gt;Node22 -->
<g id="edge38" class="edge">
<title>Node21&#45;&gt;Node22</title>
<path fill="none" stroke="#191970" d="M849.7813,-61.8906C817.6693,-51.3298 765.951,-34.3208 730.5392,-22.6747"/>
<polygon fill="#191970" stroke="#191970" points="731.6065,-19.3413 721.0136,-19.5419 729.4196,-25.9909 731.6065,-19.3413"/>
</g>
<!-- Node23&#45;&gt;Node11 -->
<g id="edge40" class="edge">
<title>Node23&#45;&gt;Node11</title>
<path fill="none" stroke="#191970" d="M1728.0016,-134.3462C1701.5669,-115.325 1638.9544,-73.3452 1579,-56 1577.9822,-55.7055 1048.9125,-21.1065 911.3654,-12.1153"/>
<polygon fill="#191970" stroke="#191970" points="911.2772,-8.6022 901.0702,-11.4424 910.8206,-15.5873 911.2772,-8.6022"/>
</g>
<!-- Node23&#45;&gt;Node13 -->
<g id="edge41" class="edge">
<title>Node23&#45;&gt;Node13</title>
<path fill="none" stroke="#191970" d="M1737.6783,-134.3275C1731.0378,-116.3733 1714.4507,-77.7466 1688,-56 1668.5046,-39.9717 1642.9547,-29.29 1619.8868,-22.2924"/>
<polygon fill="#191970" stroke="#191970" points="1620.7545,-18.9003 1610.1774,-19.5141 1618.8287,-25.6302 1620.7545,-18.9003"/>
</g>
<!-- Node23&#45;&gt;Node24 -->
<g id="edge42" class="edge">
<title>Node23&#45;&gt;Node24</title>
<path fill="none" stroke="#191970" d="M1748.2827,-134.2223C1756.8652,-122.6994 1771.2922,-103.3299 1781.8476,-89.1583"/>
<polygon fill="#191970" stroke="#191970" points="1784.6662,-91.2334 1787.8327,-81.1228 1779.0523,-87.0519 1784.6662,-91.2334"/>
</g>
<!-- Node25&#45;&gt;Node11 -->
<g id="edge44" class="edge">
<title>Node25&#45;&gt;Node11</title>
<path fill="none" stroke="#191970" d="M854.2714,-134.4492C834.7825,-125.4471 808.9676,-109.8938 797,-87 790.6172,-74.7899 790.0375,-67.8891 797,-56 807.7879,-37.5788 828.9541,-25.9739 847.0792,-19.0285"/>
<polygon fill="#191970" stroke="#191970" points="848.4732,-22.2486 856.7507,-15.6356 846.1559,-15.6433 848.4732,-22.2486"/>
</g>
<!-- Node25&#45;&gt;Node13 -->
<g id="edge45" class="edge">
<title>Node25&#45;&gt;Node13</title>
<path fill="none" stroke="#191970" d="M899.1047,-134.4077C938.9169,-115.8749 1031.0354,-75.2791 1113,-56 1231.6592,-28.0899 1371.948,-17.1137 1463.512,-12.7974"/>
<polygon fill="#191970" stroke="#191970" points="1463.7694,-16.2894 1473.6003,-12.3395 1463.4519,-9.2966 1463.7694,-16.2894"/>
</g>
<!-- Node25&#45;&gt;Node15 -->
<g id="edge47" class="edge">
<title>Node25&#45;&gt;Node15</title>
<path fill="none" stroke="#191970" d="M894.4623,-134.3631C931.4971,-111.2809 1025.5018,-52.6919 1069.9773,-24.9723"/>
<polygon fill="#191970" stroke="#191970" points="1072.0425,-27.8093 1078.6778,-19.5496 1068.3399,-21.8687 1072.0425,-27.8093"/>
</g>
<!-- Node25&#45;&gt;Node21 -->
<g id="edge46" class="edge">
<title>Node25&#45;&gt;Node21</title>
<path fill="none" stroke="#191970" d="M879,-134.2223C879,-123.243 879,-105.1397 879,-91.197"/>
<polygon fill="#191970" stroke="#191970" points="882.5001,-91.1227 879,-81.1228 875.5001,-91.1228 882.5001,-91.1227"/>
</g>
<!-- Node25&#45;&gt;Node22 -->
<g id="edge48" class="edge">
<title>Node25&#45;&gt;Node22</title>
<path fill="none" stroke="#191970" d="M799.8809,-137.8513C730.1698,-130.5953 636.1967,-115.694 613,-87 604.3382,-76.2855 606.1331,-67.9446 613,-56 621.3705,-41.4399 636.3194,-31.0571 650.978,-23.8859"/>
<polygon fill="#191970" stroke="#191970" points="652.7991,-26.9055 660.4968,-19.6256 649.9395,-20.5162 652.7991,-26.9055"/>
</g>
<!-- Node26 -->
<g id="node27" class="node">
<title>Node26</title>
<polygon fill="#ffffff" stroke="#bfbfbf" points="622,-62 622,-81 750,-81 750,-62 622,-62"/>
<text text-anchor="middle" x="686" y="-69" font-family="Helvetica,sans-Serif" font-size="10.00" fill="#000000">AMReX_PhysBCFunct.H</text>
</g>
<!-- Node25&#45;&gt;Node26 -->
<g id="edge49" class="edge">
<title>Node25&#45;&gt;Node26</title>
<path fill="none" stroke="#191970" d="M853.3711,-134.3726C819.3911,-121.6081 759.2826,-99.0284 721.1032,-84.6864"/>
<polygon fill="#191970" stroke="#191970" points="722.0196,-81.2919 711.4275,-81.0518 719.558,-87.8449 722.0196,-81.2919"/>
</g>
</g>
</svg>
        <g id="navigator" transform="translate(0 0)" fill="#404254">
                <rect fill="#f2f5e9" fill-opacity="0.5" stroke="#606060" stroke-width=".5" x="0" y="0" width="60" height="60"/>
                <use id="zoomplus" xlink:href="#zoomPlus" x="17" y="9" onmousedown="handleZoom(evt,'in')"/>
                <use id="zoomminus" xlink:href="#zoomMin" x="42" y="9" onmousedown="handleZoom(evt,'out')"/>
                <use id="reset" xlink:href="#resetDef" x="30" y="36" onmousedown="handleReset()"/>
                <g id="arrowUp" xlink:href="#dirArrow" transform="translate(30 24)" onmousedown="handlePan(0,-1)">
                  <use xlink:href="#rim" fill="#404040">
                        <set attributeName="fill" to="#808080" begin="arrowUp.mouseover" end="arrowUp.mouseout"/>
                  </use>
                  <path fill="none" stroke="white" stroke-width="1.5" d="M0,-3.0v7 M-2.5,-0.5L0,-3.0L2.5,-0.5"/>
                </g>
                <g id="arrowRight" xlink:href="#dirArrow" transform="rotate(90) translate(36 -43)" onmousedown="handlePan(1,0)">
                  <use xlink:href="#rim" fill="#404040">
                        <set attributeName="fill" to="#808080" begin="arrowRight.mouseover" end="arrowRight.mouseout"/>
                  </use>
                  <path fill="none" stroke="white" stroke-width="1.5" d="M0,-3.0v7 M-2.5,-0.5L0,-3.0L2.5,-0.5"/>
                </g>
                <g id="arrowDown" xlink:href="#dirArrow" transform="rotate(180) translate(-30 -48)" onmousedown="handlePan(0,1)">
                  <use xlink:href="#rim" fill="#404040">
                        <set attributeName="fill" to="#808080" begin="arrowDown.mouseover" end="arrowDown.mouseout"/>
                  </use>
                  <path fill="none" stroke="white" stroke-width="1.5" d="M0,-3.0v7 M-2.5,-0.5L0,-3.0L2.5,-0.5"/>
                </g>
                <g id="arrowLeft" xlink:href="#dirArrow" transform="rotate(270) translate(-36 17)" onmousedown="handlePan(-1,0)">
                  <use xlink:href="#rim" fill="#404040">
                        <set attributeName="fill" to="#808080" begin="arrowLeft.mouseover" end="arrowLeft.mouseout"/>
                  </use>
                  <path fill="none" stroke="white" stroke-width="1.5" d="M0,-3.0v7 M-2.5,-0.5L0,-3.0L2.5,-0.5"/>
                </g>
        </g>
        <svg viewBox="0 0 15 15" width="100%" height="30px" preserveAspectRatio="xMaxYMin meet">
         <g id="arrow_out" transform="scale(0.3 0.3)">
          <a xlink:href="incflo__godunov__advection_8cpp__incl_org.svg" target="_base">
           <rect id="button" ry="5" rx="5" y="6" x="6" height="38" width="38"
                fill="#f2f5e9" fill-opacity="0.5" stroke="#606060" stroke-width="1.0"/>
           <path id="arrow"
             d="M 11.500037,31.436501 C 11.940474,20.09759 22.043105,11.32322 32.158766,21.979434 L 37.068811,17.246167 C 37.068811,17.246167 37.088388,32 37.088388,32 L 22.160133,31.978069 C 22.160133,31.978069 26.997745,27.140456 26.997745,27.140456 C 18.528582,18.264221 13.291696,25.230495 11.500037,31.436501 z"
             style="fill:#404040;"/>
          </a>
         </g>
        </svg>
</svg>
