<?xml version="1.0" encoding="UTF-8" standalone="no"?>
<!DOCTYPE svg PUBLIC "-//W3C//DTD SVG 1.1//EN"
 "http://www.w3.org/Graphics/SVG/1.1/DTD/svg11.dtd">
<!-- Generated by graphviz version 2.40.1 (20161225.0304)
 -->
<!-- Title: incflo_godunov_predict.cpp Pages: 1 -->
<svg width="1817pt" height="341pt"
 viewBox="0.00 0.00 1817.19 341.00" xmlns="http://www.w3.org/2000/svg" xmlns:xlink="http://www.w3.org/1999/xlink">
<g id="graph0" class="graph" transform="scale(1 1) rotate(0) translate(4 337)">
<title>incflo_godunov_predict.cpp</title>
<polygon fill="#ffffff" stroke="transparent" points="-4,4 -4,-337 1813.1927,-337 1813.1927,4 -4,4"/>
<!-- Node0 -->
<g id="node1" class="node">
<title>Node0</title>
<polygon fill="#bfbfbf" stroke="#000000" points="216,-313.5 216,-332.5 365,-332.5 365,-313.5 216,-313.5"/>
<text text-anchor="middle" x="290.5" y="-320.5" font-family="Helvetica,sans-Serif" font-size="10.00" fill="#000000">incflo_godunov_predict.cpp</text>
</g>
<!-- Node1 -->
<g id="node2" class="node">
<title>Node1</title>
<g id="a_node2"><a xlink:href="incflo__godunov__plm_8_h.html" target="_top" xlink:title="amr&#45;wind/convection\l/incflo_godunov_plm.H">
<polygon fill="#ffffff" stroke="#000000" points="31.5,-123.5 31.5,-153.5 159.5,-153.5 159.5,-123.5 31.5,-123.5"/>
<text text-anchor="start" x="39.5" y="-141.5" font-family="Helvetica,sans-Serif" font-size="10.00" fill="#000000">amr&#45;wind/convection</text>
<text text-anchor="middle" x="95.5" y="-130.5" font-family="Helvetica,sans-Serif" font-size="10.00" fill="#000000">/incflo_godunov_plm.H</text>
</a>
</g>
</g>
<!-- Node0&#45;&gt;Node1 -->
<g id="edge1" class="edge">
<title>Node0&#45;&gt;Node1</title>
<path fill="none" stroke="#191970" d="M280.2905,-313.3402C250.2649,-284.9314 161.692,-201.1278 119.0138,-160.7477"/>
<polygon fill="#191970" stroke="#191970" points="121.2729,-158.0668 111.6034,-153.7363 116.4619,-163.1515 121.2729,-158.0668"/>
</g>
<!-- Node5 -->
<g id="node6" class="node">
<title>Node5</title>
<polygon fill="#ffffff" stroke="#bfbfbf" points="250,-62 250,-81 347,-81 347,-62 250,-62"/>
<text text-anchor="middle" x="298.5" y="-69" font-family="Helvetica,sans-Serif" font-size="10.00" fill="#000000">AMReX_BCRec.H</text>
</g>
<!-- Node0&#45;&gt;Node5 -->
<g id="edge9" class="edge">
<title>Node0&#45;&gt;Node5</title>
<path fill="none" stroke="#191970" d="M294.0542,-313.3735C304.2681,-284.4305 332.1234,-195.7132 318.5,-123 316.3986,-111.7842 311.931,-99.8706 307.7503,-90.33"/>
<polygon fill="#191970" stroke="#191970" points="310.8321,-88.6557 303.4519,-81.0541 304.4808,-91.5989 310.8321,-88.6557"/>
</g>
<!-- Node6 -->
<g id="node7" class="node">
<title>Node6</title>
<g id="a_node7"><a xlink:href="incflo__godunov__ppm_8_h.html" target="_top" xlink:title="amr&#45;wind/convection\l/incflo_godunov_ppm.H">
<polygon fill="#ffffff" stroke="#000000" points="178,-123.5 178,-153.5 309,-153.5 309,-123.5 178,-123.5"/>
<text text-anchor="start" x="186" y="-141.5" font-family="Helvetica,sans-Serif" font-size="10.00" fill="#000000">amr&#45;wind/convection</text>
<text text-anchor="middle" x="243.5" y="-130.5" font-family="Helvetica,sans-Serif" font-size="10.00" fill="#000000">/incflo_godunov_ppm.H</text>
</a>
</g>
</g>
<!-- Node0&#45;&gt;Node6 -->
<g id="edge6" class="edge">
<title>Node0&#45;&gt;Node6</title>
<path fill="none" stroke="#191970" d="M288.0393,-313.3402C280.9675,-285.5797 260.421,-204.924 249.8887,-163.579"/>
<polygon fill="#191970" stroke="#191970" points="253.2417,-162.5628 247.3813,-153.7363 246.4583,-164.2909 253.2417,-162.5628"/>
</g>
<!-- Node7 -->
<g id="node8" class="node">
<title>Node7</title>
<g id="a_node8"><a xlink:href="_godunov_8_h.html" target="_top" xlink:title="amr&#45;wind/convection\l/Godunov.H">
<polygon fill="#ffffff" stroke="#000000" points="867,-246.5 867,-276.5 986,-276.5 986,-246.5 867,-246.5"/>
<text text-anchor="start" x="875" y="-264.5" font-family="Helvetica,sans-Serif" font-size="10.00" fill="#000000">amr&#45;wind/convection</text>
<text text-anchor="middle" x="926.5" y="-253.5" font-family="Helvetica,sans-Serif" font-size="10.00" fill="#000000">/Godunov.H</text>
</a>
</g>
</g>
<!-- Node0&#45;&gt;Node7 -->
<g id="edge10" class="edge">
<title>Node0&#45;&gt;Node7</title>
<path fill="none" stroke="#191970" d="M365.0145,-315.7946C489.0005,-303.8054 735.9374,-279.927 856.7147,-268.2481"/>
<polygon fill="#191970" stroke="#191970" points="857.3308,-271.7049 866.9475,-267.2586 856.657,-264.7374 857.3308,-271.7049"/>
</g>
<!-- Node2 -->
<g id="node3" class="node">
<title>Node2</title>
<g id="a_node3"><a xlink:href="incflo__convection___k_8_h.html" target="_top" xlink:title="amr&#45;wind/convection\l/incflo_convection_K.H">
<polygon fill="#ffffff" stroke="#000000" points="0,-56.5 0,-86.5 127,-86.5 127,-56.5 0,-56.5"/>
<text text-anchor="start" x="8" y="-74.5" font-family="Helvetica,sans-Serif" font-size="10.00" fill="#000000">amr&#45;wind/convection</text>
<text text-anchor="middle" x="63.5" y="-63.5" font-family="Helvetica,sans-Serif" font-size="10.00" fill="#000000">/incflo_convection_K.H</text>
</a>
</g>
</g>
<!-- Node1&#45;&gt;Node2 -->
<g id="edge2" class="edge">
<title>Node1&#45;&gt;Node2</title>
<path fill="none" stroke="#191970" d="M88.2387,-123.2967C84.3519,-115.1586 79.4726,-104.9425 75.0767,-95.7386"/>
<polygon fill="#191970" stroke="#191970" points="78.2007,-94.1584 70.7326,-86.6432 71.8841,-97.1752 78.2007,-94.1584"/>
</g>
<!-- Node4 -->
<g id="node5" class="node">
<title>Node4</title>
<polygon fill="#ffffff" stroke="#bfbfbf" points="145.5,-62 145.5,-81 231.5,-81 231.5,-62 145.5,-62"/>
<text text-anchor="middle" x="188.5" y="-69" font-family="Helvetica,sans-Serif" font-size="10.00" fill="#000000">AMReX_Gpu.H</text>
</g>
<!-- Node1&#45;&gt;Node4 -->
<g id="edge4" class="edge">
<title>Node1&#45;&gt;Node4</title>
<path fill="none" stroke="#191970" d="M116.6031,-123.2967C131.6557,-112.4524 151.83,-97.9182 166.9767,-87.006"/>
<polygon fill="#191970" stroke="#191970" points="169.1693,-89.7402 175.2371,-81.055 165.0775,-84.0606 169.1693,-89.7402"/>
</g>
<!-- Node1&#45;&gt;Node5 -->
<g id="edge5" class="edge">
<title>Node1&#45;&gt;Node5</title>
<path fill="none" stroke="#191970" d="M141.0572,-123.4639C176.9121,-111.63 226.3113,-95.3258 260.1593,-84.1543"/>
<polygon fill="#191970" stroke="#191970" points="261.3012,-87.4632 269.7004,-81.0053 259.1073,-80.8159 261.3012,-87.4632"/>
</g>
<!-- Node3 -->
<g id="node4" class="node">
<title>Node3</title>
<polygon fill="#ffffff" stroke="#bfbfbf" points="5.5,-.5 5.5,-19.5 121.5,-19.5 121.5,-.5 5.5,-.5"/>
<text text-anchor="middle" x="63.5" y="-7.5" font-family="Helvetica,sans-Serif" font-size="10.00" fill="#000000">AMReX_FArrayBox.H</text>
</g>
<!-- Node2&#45;&gt;Node3 -->
<g id="edge3" class="edge">
<title>Node2&#45;&gt;Node3</title>
<path fill="none" stroke="#191970" d="M63.5,-56.2977C63.5,-48.3834 63.5,-38.6043 63.5,-30.0759"/>
<polygon fill="#191970" stroke="#191970" points="67.0001,-29.8469 63.5,-19.8469 60.0001,-29.847 67.0001,-29.8469"/>
</g>
<!-- Node6&#45;&gt;Node4 -->
<g id="edge7" class="edge">
<title>Node6&#45;&gt;Node4</title>
<path fill="none" stroke="#191970" d="M231.0196,-123.2967C222.6168,-113.0605 211.5151,-99.5366 202.7627,-88.8746"/>
<polygon fill="#191970" stroke="#191970" points="205.3939,-86.5635 196.3436,-81.055 199.9833,-91.005 205.3939,-86.5635"/>
</g>
<!-- Node6&#45;&gt;Node5 -->
<g id="edge8" class="edge">
<title>Node6&#45;&gt;Node5</title>
<path fill="none" stroke="#191970" d="M255.9804,-123.2967C264.3832,-113.0605 275.4849,-99.5366 284.2373,-88.8746"/>
<polygon fill="#191970" stroke="#191970" points="287.0167,-91.005 290.6564,-81.055 281.6061,-86.5635 287.0167,-91.005"/>
</g>
<!-- Node8 -->
<g id="node9" class="node">
<title>Node8</title>
<g id="a_node9"><a xlink:href="_field_repo_8_h.html" target="_top" xlink:title="amr&#45;wind/core/FieldRepo.H">
<polygon fill="#ffffff" stroke="#000000" points="1355.5,-190.5 1355.5,-209.5 1501.5,-209.5 1501.5,-190.5 1355.5,-190.5"/>
<text text-anchor="middle" x="1428.5" y="-197.5" font-family="Helvetica,sans-Serif" font-size="10.00" fill="#000000">amr&#45;wind/core/FieldRepo.H</text>
</a>
</g>
</g>
<!-- Node7&#45;&gt;Node8 -->
<g id="edge11" class="edge">
<title>Node7&#45;&gt;Node8</title>
<path fill="none" stroke="#191970" d="M986.0573,-254.2036C1075.1952,-243.2834 1243.6409,-222.6471 1345.014,-210.2279"/>
<polygon fill="#191970" stroke="#191970" points="1345.7151,-213.6682 1355.2153,-208.9781 1344.8638,-206.7202 1345.7151,-213.6682"/>
</g>
<!-- Node9 -->
<g id="node10" class="node">
<title>Node9</title>
<polygon fill="#ffffff" stroke="#bfbfbf" points="895.5,-.5 895.5,-19.5 939.5,-19.5 939.5,-.5 895.5,-.5"/>
<text text-anchor="middle" x="917.5" y="-7.5" font-family="Helvetica,sans-Serif" font-size="10.00" fill="#000000">string</text>
</g>
<!-- Node8&#45;&gt;Node9 -->
<g id="edge12" class="edge">
<title>Node8&#45;&gt;Node9</title>
<path fill="none" stroke="#191970" d="M1355.4274,-198.3821C1180.8523,-194.1237 743.3814,-181.024 599.5,-154 505.2935,-136.306 450.7745,-164.596 394.5,-87 386.4112,-75.8466 385.1942,-66.1602 394.5,-56 427.7158,-19.7345 776.6166,-11.9227 885.3381,-10.3638"/>
<polygon fill="#191970" stroke="#191970" points="885.428,-13.863 895.3797,-10.228 885.3333,-6.8636 885.428,-13.863"/>
</g>
<!-- Node10 -->
<g id="node11" class="node">
<title>Node10</title>
<polygon fill="#ffffff" stroke="#bfbfbf" points="796,-62 796,-81 889,-81 889,-62 796,-62"/>
<text text-anchor="middle" x="842.5" y="-69" font-family="Helvetica,sans-Serif" font-size="10.00" fill="#000000">unordered_map</text>
</g>
<!-- Node8&#45;&gt;Node10 -->
<g id="edge13" class="edge">
<title>Node8&#45;&gt;Node10</title>
<path fill="none" stroke="#191970" d="M1378.8294,-190.4517C1332.3863,-181.4223 1261.1364,-167.3095 1199.5,-154 1089.4934,-130.2456 961.0317,-99.9219 892.1622,-83.4539"/>
<polygon fill="#191970" stroke="#191970" points="892.5778,-79.9545 882.0377,-81.03 890.948,-86.7622 892.5778,-79.9545"/>
</g>
<!-- Node11 -->
<g id="node12" class="node">
<title>Node11</title>
<g id="a_node12"><a xlink:href="_field_desc_types_8_h.html" target="_top" xlink:title="amr&#45;wind/core/FieldDescTypes.H">
<polygon fill="#ffffff" stroke="#000000" points="1390.5,-.5 1390.5,-19.5 1564.5,-19.5 1564.5,-.5 1390.5,-.5"/>
<text text-anchor="middle" x="1477.5" y="-7.5" font-family="Helvetica,sans-Serif" font-size="10.00" fill="#000000">amr&#45;wind/core/FieldDescTypes.H</text>
</a>
</g>
</g>
<!-- Node8&#45;&gt;Node11 -->
<g id="edge14" class="edge">
<title>Node8&#45;&gt;Node11</title>
<path fill="none" stroke="#191970" d="M1501.7965,-194.7086C1599.4188,-187.0266 1762.3414,-171.748 1783.5,-154 1807.4088,-133.9451 1799.779,-117.847 1804.5,-87 1806.5844,-73.3808 1813.5384,-66.3988 1804.5,-56 1796.9025,-47.2589 1668.5774,-31.2217 1574.9818,-20.584"/>
<polygon fill="#191970" stroke="#191970" points="1575.2266,-17.0895 1564.8966,-19.4433 1574.4398,-24.0451 1575.2266,-17.0895"/>
</g>
<!-- Node12 -->
<g id="node13" class="node">
<title>Node12</title>
<g id="a_node13"><a xlink:href="_field_utils_8_h.html" target="_top" xlink:title="amr&#45;wind/core/FieldUtils.H">
<polygon fill="#ffffff" stroke="#000000" points="1484,-62 1484,-81 1629,-81 1629,-62 1484,-62"/>
<text text-anchor="middle" x="1556.5" y="-69" font-family="Helvetica,sans-Serif" font-size="10.00" fill="#000000">amr&#45;wind/core/FieldUtils.H</text>
</a>
</g>
</g>
<!-- Node8&#45;&gt;Node12 -->
<g id="edge15" class="edge">
<title>Node8&#45;&gt;Node12</title>
<path fill="none" stroke="#191970" d="M1434.4866,-190.2917C1444.2198,-174.9575 1464.6025,-144.6518 1486.5,-123 1500.3171,-109.3379 1517.9483,-96.3879 1532.0591,-86.8913"/>
<polygon fill="#191970" stroke="#191970" points="1534.3163,-89.5959 1540.748,-81.1766 1530.4698,-83.7474 1534.3163,-89.5959"/>
</g>
<!-- Node13 -->
<g id="node14" class="node">
<title>Node13</title>
<polygon fill="#ffffff" stroke="#bfbfbf" points="1265,-.5 1265,-19.5 1372,-19.5 1372,-.5 1265,-.5"/>
<text text-anchor="middle" x="1318.5" y="-7.5" font-family="Helvetica,sans-Serif" font-size="10.00" fill="#000000">AMReX_MultiFab.H</text>
</g>
<!-- Node8&#45;&gt;Node13 -->
<g id="edge46" class="edge">
<title>Node8&#45;&gt;Node13</title>
<path fill="none" stroke="#191970" d="M1426.9185,-190.3992C1422.5197,-165.9667 1408.311,-100.2394 1376.5,-56 1367.7109,-43.7771 1354.8212,-33.1086 1343.4239,-25.1313"/>
<polygon fill="#191970" stroke="#191970" points="1345.3533,-22.2111 1335.0918,-19.5744 1341.4693,-28.0348 1345.3533,-22.2111"/>
</g>
<!-- Node15 -->
<g id="node16" class="node">
<title>Node15</title>
<g id="a_node16"><a xlink:href="_field_8_h.html" target="_top" xlink:title="amr&#45;wind/core/Field.H">
<polygon fill="#ffffff" stroke="#000000" points="608.5,-129 608.5,-148 730.5,-148 730.5,-129 608.5,-129"/>
<text text-anchor="middle" x="669.5" y="-136" font-family="Helvetica,sans-Serif" font-size="10.00" fill="#000000">amr&#45;wind/core/Field.H</text>
</a>
</g>
</g>
<!-- Node8&#45;&gt;Node15 -->
<g id="edge19" class="edge">
<title>Node8&#45;&gt;Node15</title>
<path fill="none" stroke="#191970" d="M1355.3794,-194.0752C1209.704,-182.2715 884.911,-155.9542 740.7684,-144.2747"/>
<polygon fill="#191970" stroke="#191970" points="740.9573,-140.7786 730.7073,-143.4595 740.3919,-147.7558 740.9573,-140.7786"/>
</g>
<!-- Node21 -->
<g id="node22" class="node">
<title>Node21</title>
<g id="a_node22"><a xlink:href="_int_field_8_h.html" target="_top" xlink:title="amr&#45;wind/core/IntField.H">
<polygon fill="#ffffff" stroke="#000000" points="1495,-129 1495,-148 1630,-148 1630,-129 1495,-129"/>
<text text-anchor="middle" x="1562.5" y="-136" font-family="Helvetica,sans-Serif" font-size="10.00" fill="#000000">amr&#45;wind/core/IntField.H</text>
</a>
</g>
</g>
<!-- Node8&#45;&gt;Node21 -->
<g id="edge34" class="edge">
<title>Node8&#45;&gt;Node21</title>
<path fill="none" stroke="#191970" d="M1449.4375,-190.3906C1471.7598,-180.1457 1507.3037,-163.8326 1532.5757,-152.2339"/>
<polygon fill="#191970" stroke="#191970" points="1534.081,-155.3942 1541.7095,-148.0419 1531.1611,-149.0322 1534.081,-155.3942"/>
</g>
<!-- Node22 -->
<g id="node23" class="node">
<title>Node22</title>
<polygon fill="#ffffff" stroke="#bfbfbf" points="1685.5,-62 1685.5,-81 1795.5,-81 1795.5,-62 1685.5,-62"/>
<text text-anchor="middle" x="1740.5" y="-69" font-family="Helvetica,sans-Serif" font-size="10.00" fill="#000000">AMReX_iMultiFab.H</text>
</g>
<!-- Node8&#45;&gt;Node22 -->
<g id="edge47" class="edge">
<title>Node8&#45;&gt;Node22</title>
<path fill="none" stroke="#191970" d="M1501.8726,-195.0816C1596.0309,-188.01 1749.3619,-173.6285 1766.5,-154 1782.5424,-135.6265 1767.7622,-107.3579 1754.8132,-89.1465"/>
<polygon fill="#191970" stroke="#191970" points="1757.562,-86.9785 1748.7465,-81.1016 1751.973,-91.1932 1757.562,-86.9785"/>
</g>
<!-- Node23 -->
<g id="node24" class="node">
<title>Node23</title>
<g id="a_node24"><a xlink:href="_scratch_field_8_h.html" target="_top" xlink:title="amr&#45;wind/core/ScratchField.H">
<polygon fill="#ffffff" stroke="#000000" points="1208.5,-129 1208.5,-148 1366.5,-148 1366.5,-129 1208.5,-129"/>
<text text-anchor="middle" x="1287.5" y="-136" font-family="Helvetica,sans-Serif" font-size="10.00" fill="#000000">amr&#45;wind/core/ScratchField.H</text>
</a>
</g>
</g>
<!-- Node8&#45;&gt;Node23 -->
<g id="edge38" class="edge">
<title>Node8&#45;&gt;Node23</title>
<path fill="none" stroke="#191970" d="M1406.4688,-190.3906C1382.8769,-180.1005 1345.2499,-163.6888 1318.6367,-152.0809"/>
<polygon fill="#191970" stroke="#191970" points="1319.9419,-148.8318 1309.3765,-148.0419 1317.1433,-155.248 1319.9419,-148.8318"/>
</g>
<!-- Node25 -->
<g id="node26" class="node">
<title>Node25</title>
<polygon fill="#ffffff" stroke="#bfbfbf" points="1648,-129 1648,-148 1757,-148 1757,-129 1648,-129"/>
<text text-anchor="middle" x="1702.5" y="-136" font-family="Helvetica,sans-Serif" font-size="10.00" fill="#000000">AMReX_AmrCore.H</text>
</g>
<!-- Node8&#45;&gt;Node25 -->
<g id="edge45" class="edge">
<title>Node8&#45;&gt;Node25</title>
<path fill="none" stroke="#191970" d="M1473.8538,-190.4767C1516.6359,-181.4073 1582.5248,-167.2169 1639.5,-154 1644.4478,-152.8522 1649.6073,-151.6279 1654.7504,-150.3895"/>
<polygon fill="#191970" stroke="#191970" points="1655.6689,-153.7683 1664.5606,-148.0073 1654.017,-146.9659 1655.6689,-153.7683"/>
</g>
<!-- Node12&#45;&gt;Node11 -->
<g id="edge16" class="edge">
<title>Node12&#45;&gt;Node11</title>
<path fill="none" stroke="#191970" d="M1544.1563,-61.8906C1531.7497,-52.2324 1512.4157,-37.1812 1497.7587,-25.771"/>
<polygon fill="#191970" stroke="#191970" points="1499.7979,-22.923 1489.7571,-19.5419 1495.4979,-28.4466 1499.7979,-22.923"/>
</g>
<!-- Node12&#45;&gt;Node13 -->
<g id="edge17" class="edge">
<title>Node12&#45;&gt;Node13</title>
<path fill="none" stroke="#191970" d="M1519.5736,-61.9581C1478.0598,-51.2308 1410.5635,-33.7895 1365.3647,-22.11"/>
<polygon fill="#191970" stroke="#191970" points="1366.0707,-18.6775 1355.513,-19.5643 1364.3193,-25.4549 1366.0707,-18.6775"/>
</g>
<!-- Node14 -->
<g id="node15" class="node">
<title>Node14</title>
<polygon fill="#ffffff" stroke="#bfbfbf" points="1582.5,-.5 1582.5,-19.5 1704.5,-19.5 1704.5,-.5 1582.5,-.5"/>
<text text-anchor="middle" x="1643.5" y="-7.5" font-family="Helvetica,sans-Serif" font-size="10.00" fill="#000000">AMReX_Interpolater.H</text>
</g>
<!-- Node12&#45;&gt;Node14 -->
<g id="edge18" class="edge">
<title>Node12&#45;&gt;Node14</title>
<path fill="none" stroke="#191970" d="M1570.0938,-61.8906C1583.8843,-52.1421 1605.4472,-36.8994 1621.641,-25.4521"/>
<polygon fill="#191970" stroke="#191970" points="1623.8563,-28.1723 1630.0017,-19.5419 1619.8156,-22.4563 1623.8563,-28.1723"/>
</g>
<!-- Node15&#45;&gt;Node4 -->
<g id="edge26" class="edge">
<title>Node15&#45;&gt;Node4</title>
<path fill="none" stroke="#191970" d="M608.3927,-134.3302C524.8837,-127.9106 370.7226,-113.4821 241.5,-87 237.0478,-86.0876 232.427,-84.9816 227.8528,-83.785"/>
<polygon fill="#191970" stroke="#191970" points="228.5681,-80.3515 217.997,-81.0606 226.703,-87.0985 228.5681,-80.3515"/>
</g>
<!-- Node15&#45;&gt;Node5 -->
<g id="edge25" class="edge">
<title>Node15&#45;&gt;Node5</title>
<path fill="none" stroke="#191970" d="M616.7387,-128.9717C548.1913,-116.5925 428.8612,-95.0423 357.4202,-82.1406"/>
<polygon fill="#191970" stroke="#191970" points="357.7018,-78.6349 347.239,-80.3019 356.4577,-85.5235 357.7018,-78.6349"/>
</g>
<!-- Node15&#45;&gt;Node9 -->
<g id="edge20" class="edge">
<title>Node15&#45;&gt;Node9</title>
<path fill="none" stroke="#191970" d="M608.4965,-129.0197C549.6719,-117.39 474.2262,-94.3447 508.5,-56 533.5211,-28.007 793.1457,-14.9724 885.2852,-11.2031"/>
<polygon fill="#191970" stroke="#191970" points="885.5647,-14.6949 895.417,-10.7986 885.2853,-7.7004 885.5647,-14.6949"/>
</g>
<!-- Node15&#45;&gt;Node10 -->
<g id="edge22" class="edge">
<title>Node15&#45;&gt;Node10</title>
<path fill="none" stroke="#191970" d="M694.2867,-128.9005C724.2192,-117.3082 774.7239,-97.7486 808.3355,-84.7313"/>
<polygon fill="#191970" stroke="#191970" points="809.6982,-87.957 817.7593,-81.0817 807.1702,-81.4294 809.6982,-87.957"/>
</g>
<!-- Node15&#45;&gt;Node11 -->
<g id="edge28" class="edge">
<title>Node15&#45;&gt;Node11</title>
<path fill="none" stroke="#191970" d="M730.6151,-133.9108C839.5078,-125.3813 1062.772,-106.202 1138.5,-87 1173.8606,-78.0338 1179.4433,-66.0892 1214.5,-56 1270.877,-39.7749 1335.7917,-28.3495 1387.0227,-20.9438"/>
<polygon fill="#191970" stroke="#191970" points="1387.6711,-24.3869 1397.0799,-19.516 1386.6872,-17.4564 1387.6711,-24.3869"/>
</g>
<!-- Node15&#45;&gt;Node13 -->
<g id="edge24" class="edge">
<title>Node15&#45;&gt;Node13</title>
<path fill="none" stroke="#191970" d="M685.2296,-128.856C701.3845,-118.8106 727.1183,-102.4154 748.5,-87 766.4608,-74.0509 766.9293,-64.1926 787.5,-56 808.8909,-47.4808 1118.0851,-24.3966 1254.5605,-14.5498"/>
<polygon fill="#191970" stroke="#191970" points="1255.1443,-18.0169 1264.8671,-13.8077 1254.6415,-11.035 1255.1443,-18.0169"/>
</g>
<!-- Node16 -->
<g id="node17" class="node">
<title>Node16</title>
<polygon fill="#ffffff" stroke="#bfbfbf" points="403.5,-62 403.5,-81 461.5,-81 461.5,-62 403.5,-62"/>
<text text-anchor="middle" x="432.5" y="-69" font-family="Helvetica,sans-Serif" font-size="10.00" fill="#000000">memory</text>
</g>
<!-- Node15&#45;&gt;Node16 -->
<g id="edge21" class="edge">
<title>Node15&#45;&gt;Node16</title>
<path fill="none" stroke="#191970" d="M629.456,-128.9448C590.0257,-119.2842 528.2211,-103.466 475.5,-87 472.8915,-86.1853 470.2066,-85.3093 467.5132,-84.4032"/>
<polygon fill="#191970" stroke="#191970" points="468.4375,-81.0193 457.8427,-81.0462 466.1419,-87.6322 468.4375,-81.0193"/>
</g>
<!-- Node17 -->
<g id="node18" class="node">
<title>Node17</title>
<polygon fill="#ffffff" stroke="#bfbfbf" points="517.5,-62 517.5,-81 581.5,-81 581.5,-62 517.5,-62"/>
<text text-anchor="middle" x="549.5" y="-69" font-family="Helvetica,sans-Serif" font-size="10.00" fill="#000000">algorithm</text>
</g>
<!-- Node15&#45;&gt;Node17 -->
<g id="edge23" class="edge">
<title>Node15&#45;&gt;Node17</title>
<path fill="none" stroke="#191970" d="M652.3069,-128.9005C632.2573,-117.7062 598.9012,-99.0823 575.6398,-86.0947"/>
<polygon fill="#191970" stroke="#191970" points="577.0987,-82.9007 566.6612,-81.0817 573.6862,-89.0126 577.0987,-82.9007"/>
</g>
<!-- Node18 -->
<g id="node19" class="node">
<title>Node18</title>
<g id="a_node19"><a xlink:href="incflo__enums_8_h.html" target="_top" xlink:title="amr&#45;wind/incflo_enums.H">
<polygon fill="#ffffff" stroke="#000000" points="599.5,-62 599.5,-81 739.5,-81 739.5,-62 599.5,-62"/>
<text text-anchor="middle" x="669.5" y="-69" font-family="Helvetica,sans-Serif" font-size="10.00" fill="#000000">amr&#45;wind/incflo_enums.H</text>
</a>
</g>
</g>
<!-- Node15&#45;&gt;Node18 -->
<g id="edge27" class="edge">
<title>Node15&#45;&gt;Node18</title>
<path fill="none" stroke="#191970" d="M669.5,-128.9005C669.5,-119.149 669.5,-103.7597 669.5,-91.3695"/>
<polygon fill="#191970" stroke="#191970" points="673.0001,-91.0816 669.5,-81.0817 666.0001,-91.0817 673.0001,-91.0816"/>
</g>
<!-- Node19 -->
<g id="node20" class="node">
<title>Node19</title>
<g id="a_node20"><a xlink:href="_view_field_8_h.html" target="_top" xlink:title="amr&#45;wind/core/ViewField.H">
<polygon fill="#ffffff" stroke="#000000" points="983.5,-62 983.5,-81 1129.5,-81 1129.5,-62 983.5,-62"/>
<text text-anchor="middle" x="1056.5" y="-69" font-family="Helvetica,sans-Serif" font-size="10.00" fill="#000000">amr&#45;wind/core/ViewField.H</text>
</a>
</g>
</g>
<!-- Node15&#45;&gt;Node19 -->
<g id="edge29" class="edge">
<title>Node15&#45;&gt;Node19</title>
<path fill="none" stroke="#191970" d="M724.5367,-128.9717C794.7917,-116.8087 916.1857,-95.7921 991.0897,-82.8243"/>
<polygon fill="#191970" stroke="#191970" points="992.0839,-86.2043 1001.3402,-81.0496 990.8897,-79.3069 992.0839,-86.2043"/>
</g>
<!-- Node19&#45;&gt;Node9 -->
<g id="edge30" class="edge">
<title>Node19&#45;&gt;Node9</title>
<path fill="none" stroke="#191970" d="M1034.7813,-61.8906C1011.626,-51.6457 974.7559,-35.3326 948.5409,-23.7339"/>
<polygon fill="#191970" stroke="#191970" points="949.6273,-20.3874 939.0662,-19.5419 946.795,-26.7888 949.6273,-20.3874"/>
</g>
<!-- Node19&#45;&gt;Node11 -->
<g id="edge31" class="edge">
<title>Node19&#45;&gt;Node11</title>
<path fill="none" stroke="#191970" d="M1107.9677,-61.984C1119.6361,-59.9231 1131.9827,-57.8183 1143.5,-56 1227.7786,-42.6941 1324.3696,-29.6269 1391.9268,-20.8407"/>
<polygon fill="#191970" stroke="#191970" points="1392.6289,-24.279 1402.0957,-19.5219 1391.7286,-17.3371 1392.6289,-24.279"/>
</g>
<!-- Node19&#45;&gt;Node13 -->
<g id="edge32" class="edge">
<title>Node19&#45;&gt;Node13</title>
<path fill="none" stroke="#191970" d="M1097.15,-61.9581C1143.1382,-51.1632 1218.0905,-33.5694 1267.8473,-21.8899"/>
<polygon fill="#191970" stroke="#191970" points="1268.8191,-25.257 1277.7546,-19.5643 1267.2194,-18.4422 1268.8191,-25.257"/>
</g>
<!-- Node20 -->
<g id="node21" class="node">
<title>Node20</title>
<polygon fill="#ffffff" stroke="#bfbfbf" points="1049.5,-.5 1049.5,-19.5 1145.5,-19.5 1145.5,-.5 1049.5,-.5"/>
<text text-anchor="middle" x="1097.5" y="-7.5" font-family="Helvetica,sans-Serif" font-size="10.00" fill="#000000">AMReX_Vector.H</text>
</g>
<!-- Node19&#45;&gt;Node20 -->
<g id="edge33" class="edge">
<title>Node19&#45;&gt;Node20</title>
<path fill="none" stroke="#191970" d="M1062.9063,-61.8906C1068.8886,-52.917 1077.9747,-39.2879 1085.3339,-28.2491"/>
<polygon fill="#191970" stroke="#191970" points="1088.3686,-30.0068 1091.0034,-19.7449 1082.5442,-26.1239 1088.3686,-30.0068"/>
</g>
<!-- Node21&#45;&gt;Node9 -->
<g id="edge35" class="edge">
<title>Node21&#45;&gt;Node9</title>
<path fill="none" stroke="#191970" d="M1494.8542,-132.7546C1340.8893,-119.6545 977.3185,-88.5783 974.5,-87 951.2355,-73.9727 934.7557,-47.0656 925.6864,-28.771"/>
<polygon fill="#191970" stroke="#191970" points="928.8212,-27.2119 921.4143,-19.6363 922.4803,-30.1774 928.8212,-27.2119"/>
</g>
<!-- Node21&#45;&gt;Node11 -->
<g id="edge36" class="edge">
<title>Node21&#45;&gt;Node11</title>
<path fill="none" stroke="#191970" d="M1587.9821,-128.8529C1605.6723,-120.6533 1627.8961,-106.9948 1638.5,-87 1644.9552,-74.828 1646.7969,-66.9995 1638.5,-56 1627.1307,-40.9273 1585.8497,-29.3076 1547.938,-21.5172"/>
<polygon fill="#191970" stroke="#191970" points="1548.369,-18.0346 1537.8789,-19.5208 1547.0062,-24.9007 1548.369,-18.0346"/>
</g>
<!-- Node21&#45;&gt;Node22 -->
<g id="edge37" class="edge">
<title>Node21&#45;&gt;Node22</title>
<path fill="none" stroke="#191970" d="M1588.0031,-128.9005C1618.8007,-117.3082 1670.765,-97.7486 1705.3481,-84.7313"/>
<polygon fill="#191970" stroke="#191970" points="1706.9183,-87.8801 1715.0442,-81.0817 1704.4523,-81.3288 1706.9183,-87.8801"/>
</g>
<!-- Node23&#45;&gt;Node9 -->
<g id="edge39" class="edge">
<title>Node23&#45;&gt;Node9</title>
<path fill="none" stroke="#191970" d="M1208.2833,-136.2648C1118.7815,-132.1325 980.4775,-120.3808 941.5,-87 924.9327,-72.8116 919.6413,-47.3792 918.0374,-29.6405"/>
<polygon fill="#191970" stroke="#191970" points="921.5236,-29.3012 917.4408,-19.5246 914.5357,-29.7134 921.5236,-29.3012"/>
</g>
<!-- Node23&#45;&gt;Node11 -->
<g id="edge40" class="edge">
<title>Node23&#45;&gt;Node11</title>
<path fill="none" stroke="#191970" d="M1305.6338,-128.8889C1323.9097,-118.9996 1352.7338,-102.8432 1376.5,-87 1405.9059,-67.3972 1438.0818,-42.157 1458.032,-26.0229"/>
<polygon fill="#191970" stroke="#191970" points="1460.4915,-28.5338 1466.037,-19.5062 1456.0722,-23.1052 1460.4915,-28.5338"/>
</g>
<!-- Node23&#45;&gt;Node13 -->
<g id="edge42" class="edge">
<title>Node23&#45;&gt;Node13</title>
<path fill="none" stroke="#191970" d="M1311.2901,-128.9392C1328.4091,-120.6454 1350.2221,-106.8291 1360.5,-87 1366.8403,-74.7678 1365.4821,-68.8455 1360.5,-56 1356.1142,-44.692 1347.5098,-34.463 1339.2251,-26.5381"/>
<polygon fill="#191970" stroke="#191970" points="1341.3244,-23.721 1331.528,-19.6859 1336.6699,-28.9494 1341.3244,-23.721"/>
</g>
<!-- Node23&#45;&gt;Node19 -->
<g id="edge41" class="edge">
<title>Node23&#45;&gt;Node19</title>
<path fill="none" stroke="#191970" d="M1254.4033,-128.9005C1213.5779,-117.0594 1144.0918,-96.9054 1099.2609,-83.9025"/>
<polygon fill="#191970" stroke="#191970" points="1100.1145,-80.5059 1089.5353,-81.0817 1098.1645,-87.2288 1100.1145,-80.5059"/>
</g>
<!-- Node23&#45;&gt;Node20 -->
<g id="edge43" class="edge">
<title>Node23&#45;&gt;Node20</title>
<path fill="none" stroke="#191970" d="M1273.2191,-128.8416C1240.4724,-106.6945 1159.7527,-52.1025 1120.1511,-25.3193"/>
<polygon fill="#191970" stroke="#191970" points="1121.9317,-22.2982 1111.6874,-19.5952 1118.0101,-28.0966 1121.9317,-22.2982"/>
</g>
<!-- Node24 -->
<g id="node25" class="node">
<title>Node24</title>
<polygon fill="#ffffff" stroke="#bfbfbf" points="1223.5,-62 1223.5,-81 1351.5,-81 1351.5,-62 1223.5,-62"/>
<text text-anchor="middle" x="1287.5" y="-69" font-family="Helvetica,sans-Serif" font-size="10.00" fill="#000000">AMReX_PhysBCFunct.H</text>
</g>
<!-- Node23&#45;&gt;Node24 -->
<g id="edge44" class="edge">
<title>Node23&#45;&gt;Node24</title>
<path fill="none" stroke="#191970" d="M1287.5,-128.9005C1287.5,-119.149 1287.5,-103.7597 1287.5,-91.3695"/>
<polygon fill="#191970" stroke="#191970" points="1291.0001,-91.0816 1287.5,-81.0817 1284.0001,-91.0817 1291.0001,-91.0816"/>
</g>
</g>
</svg>
