<?xml version="1.0" encoding="UTF-8" standalone="no"?>
<!DOCTYPE svg PUBLIC "-//W3C//DTD SVG 1.1//EN"
 "http://www.w3.org/Graphics/SVG/1.1/DTD/svg11.dtd">
<!-- Generated by graphviz version 2.40.1 (20161225.0304)
 -->
<!-- Title: incflo_godunov_weno.cpp Pages: 1 -->
<svg width="1648pt" height="330pt"
 viewBox="0.00 0.00 1647.58 330.00" xmlns="http://www.w3.org/2000/svg" xmlns:xlink="http://www.w3.org/1999/xlink">
<g id="graph0" class="graph" transform="scale(1 1) rotate(0) translate(4 326)">
<title>incflo_godunov_weno.cpp</title>
<polygon fill="#ffffff" stroke="transparent" points="-4,4 -4,-326 1643.5803,-326 1643.5803,4 -4,4"/>
<!-- Node0 -->
<g id="node1" class="node">
<title>Node0</title>
<polygon fill="#bfbfbf" stroke="#000000" points="550.5,-302.5 550.5,-321.5 692.5,-321.5 692.5,-302.5 550.5,-302.5"/>
<text text-anchor="middle" x="621.5" y="-309.5" font-family="Helvetica,sans-Serif" font-size="10.00" fill="#000000">incflo_godunov_weno.cpp</text>
</g>
<!-- Node1 -->
<g id="node2" class="node">
<title>Node1</title>
<g id="a_node2"><a xlink:href="incflo__godunov__weno_8_h.html" target="_top" xlink:title="amr&#45;wind/convection\l/incflo_godunov_weno.H">
<polygon fill="#ffffff" stroke="#000000" points="254,-112.5 254,-142.5 389,-142.5 389,-112.5 254,-112.5"/>
<text text-anchor="start" x="262" y="-130.5" font-family="Helvetica,sans-Serif" font-size="10.00" fill="#000000">amr&#45;wind/convection</text>
<text text-anchor="middle" x="321.5" y="-119.5" font-family="Helvetica,sans-Serif" font-size="10.00" fill="#000000">/incflo_godunov_weno.H</text>
</a>
</g>
</g>
<!-- Node0&#45;&gt;Node1 -->
<g id="edge1" class="edge">
<title>Node0&#45;&gt;Node1</title>
<path fill="none" stroke="#191970" d="M605.7931,-302.3402C558.929,-273.5188 419.3569,-187.682 354.8597,-148.0162"/>
<polygon fill="#191970" stroke="#191970" points="356.6261,-144.9937 346.2745,-142.7363 352.9591,-150.9563 356.6261,-144.9937"/>
</g>
<!-- Node4 -->
<g id="node5" class="node">
<title>Node4</title>
<g id="a_node5"><a xlink:href="_godunov_8_h.html" target="_top" xlink:title="amr&#45;wind/convection\l/Godunov.H">
<polygon fill="#ffffff" stroke="#000000" points="612,-235.5 612,-265.5 731,-265.5 731,-235.5 612,-235.5"/>
<text text-anchor="start" x="620" y="-253.5" font-family="Helvetica,sans-Serif" font-size="10.00" fill="#000000">amr&#45;wind/convection</text>
<text text-anchor="middle" x="671.5" y="-242.5" font-family="Helvetica,sans-Serif" font-size="10.00" fill="#000000">/Godunov.H</text>
</a>
</g>
</g>
<!-- Node0&#45;&gt;Node4 -->
<g id="edge4" class="edge">
<title>Node0&#45;&gt;Node4</title>
<path fill="none" stroke="#191970" d="M629.3125,-302.3906C635.5781,-294.6839 644.6355,-283.5434 652.7529,-273.5589"/>
<polygon fill="#191970" stroke="#191970" points="655.676,-275.5117 659.2686,-265.5446 650.2446,-271.0959 655.676,-275.5117"/>
</g>
<!-- Node2 -->
<g id="node3" class="node">
<title>Node2</title>
<polygon fill="#ffffff" stroke="#bfbfbf" points="278.5,-56.5 278.5,-75.5 364.5,-75.5 364.5,-56.5 278.5,-56.5"/>
<text text-anchor="middle" x="321.5" y="-63.5" font-family="Helvetica,sans-Serif" font-size="10.00" fill="#000000">AMReX_Gpu.H</text>
</g>
<!-- Node1&#45;&gt;Node2 -->
<g id="edge2" class="edge">
<title>Node1&#45;&gt;Node2</title>
<path fill="none" stroke="#191970" d="M321.5,-112.2977C321.5,-104.3834 321.5,-94.6043 321.5,-86.0759"/>
<polygon fill="#191970" stroke="#191970" points="325.0001,-85.8469 321.5,-75.8469 318.0001,-85.847 325.0001,-85.8469"/>
</g>
<!-- Node3 -->
<g id="node4" class="node">
<title>Node3</title>
<polygon fill="#ffffff" stroke="#bfbfbf" points="163,-56.5 163,-75.5 260,-75.5 260,-56.5 163,-56.5"/>
<text text-anchor="middle" x="211.5" y="-63.5" font-family="Helvetica,sans-Serif" font-size="10.00" fill="#000000">AMReX_BCRec.H</text>
</g>
<!-- Node1&#45;&gt;Node3 -->
<g id="edge3" class="edge">
<title>Node1&#45;&gt;Node3</title>
<path fill="none" stroke="#191970" d="M294.591,-112.4554C277.2032,-102.734 254.6951,-90.15 237.4916,-80.5317"/>
<polygon fill="#191970" stroke="#191970" points="238.9826,-77.3554 228.5461,-75.5303 235.5665,-83.4653 238.9826,-77.3554"/>
</g>
<!-- Node5 -->
<g id="node6" class="node">
<title>Node5</title>
<g id="a_node6"><a xlink:href="_field_repo_8_h.html" target="_top" xlink:title="amr&#45;wind/core/FieldRepo.H">
<polygon fill="#ffffff" stroke="#000000" points="861.5,-179.5 861.5,-198.5 1007.5,-198.5 1007.5,-179.5 861.5,-179.5"/>
<text text-anchor="middle" x="934.5" y="-186.5" font-family="Helvetica,sans-Serif" font-size="10.00" fill="#000000">amr&#45;wind/core/FieldRepo.H</text>
</a>
</g>
</g>
<!-- Node4&#45;&gt;Node5 -->
<g id="edge5" class="edge">
<title>Node4&#45;&gt;Node5</title>
<path fill="none" stroke="#191970" d="M731.1788,-236.5447C777.2964,-225.7605 840.4146,-211.001 884.0355,-200.8006"/>
<polygon fill="#191970" stroke="#191970" points="884.9164,-204.1891 893.8568,-198.504 883.3225,-197.373 884.9164,-204.1891"/>
</g>
<!-- Node6 -->
<g id="node7" class="node">
<title>Node6</title>
<polygon fill="#ffffff" stroke="#bfbfbf" points="1394.5,-.5 1394.5,-19.5 1438.5,-19.5 1438.5,-.5 1394.5,-.5"/>
<text text-anchor="middle" x="1416.5" y="-7.5" font-family="Helvetica,sans-Serif" font-size="10.00" fill="#000000">string</text>
</g>
<!-- Node5&#45;&gt;Node6 -->
<g id="edge6" class="edge">
<title>Node5&#45;&gt;Node6</title>
<path fill="none" stroke="#191970" d="M1007.5902,-184.7601C1128.8702,-177.3385 1366.4703,-161.055 1448.5,-143 1534.7208,-124.0226 1584.6805,-148.191 1635.5,-76 1640.6167,-68.7315 1641.1023,-62.9012 1635.5,-56 1612.3725,-27.51 1504.1277,-16.0185 1448.9776,-11.952"/>
<polygon fill="#191970" stroke="#191970" points="1448.9158,-8.4393 1438.6965,-11.2349 1448.4287,-15.4223 1448.9158,-8.4393"/>
</g>
<!-- Node7 -->
<g id="node8" class="node">
<title>Node7</title>
<polygon fill="#ffffff" stroke="#bfbfbf" points="775,-56.5 775,-75.5 868,-75.5 868,-56.5 775,-56.5"/>
<text text-anchor="middle" x="821.5" y="-63.5" font-family="Helvetica,sans-Serif" font-size="10.00" fill="#000000">unordered_map</text>
</g>
<!-- Node5&#45;&gt;Node7 -->
<g id="edge7" class="edge">
<title>Node5&#45;&gt;Node7</title>
<path fill="none" stroke="#191970" d="M922.392,-179.3297C911.4891,-170.3855 895.2642,-156.4766 882.5,-143 864.5593,-124.0581 846.278,-100.2588 834.4694,-84.1711"/>
<polygon fill="#191970" stroke="#191970" points="837.02,-81.7263 828.3162,-75.6851 831.353,-85.8354 837.02,-81.7263"/>
</g>
<!-- Node8 -->
<g id="node9" class="node">
<title>Node8</title>
<g id="a_node9"><a xlink:href="_field_desc_types_8_h.html" target="_top" xlink:title="amr&#45;wind/core/FieldDescTypes.H">
<polygon fill="#ffffff" stroke="#000000" points="1017.5,-.5 1017.5,-19.5 1191.5,-19.5 1191.5,-.5 1017.5,-.5"/>
<text text-anchor="middle" x="1104.5" y="-7.5" font-family="Helvetica,sans-Serif" font-size="10.00" fill="#000000">amr&#45;wind/core/FieldDescTypes.H</text>
</a>
</g>
</g>
<!-- Node5&#45;&gt;Node8 -->
<g id="edge8" class="edge">
<title>Node5&#45;&gt;Node8</title>
<path fill="none" stroke="#191970" d="M932.7009,-179.239C928.8567,-155.1347 922.5385,-92.1313 953.5,-56 965.5209,-41.9718 1006.7626,-29.9608 1043.1121,-21.7332"/>
<polygon fill="#191970" stroke="#191970" points="1044.191,-25.0797 1053.2065,-19.5144 1042.6882,-18.2429 1044.191,-25.0797"/>
</g>
<!-- Node9 -->
<g id="node10" class="node">
<title>Node9</title>
<g id="a_node10"><a xlink:href="_field_utils_8_h.html" target="_top" xlink:title="amr&#45;wind/core/FieldUtils.H">
<polygon fill="#ffffff" stroke="#000000" points="0,-56.5 0,-75.5 145,-75.5 145,-56.5 0,-56.5"/>
<text text-anchor="middle" x="72.5" y="-63.5" font-family="Helvetica,sans-Serif" font-size="10.00" fill="#000000">amr&#45;wind/core/FieldUtils.H</text>
</a>
</g>
</g>
<!-- Node5&#45;&gt;Node9 -->
<g id="edge9" class="edge">
<title>Node5&#45;&gt;Node9</title>
<path fill="none" stroke="#191970" d="M861.4778,-187.3887C708.6443,-183.4853 359.6981,-171.6484 244.5,-143 189.5952,-129.3459 130.3824,-99.0028 97.7352,-80.7483"/>
<polygon fill="#191970" stroke="#191970" points="99.2988,-77.6114 88.8735,-75.7236 95.846,-83.7007 99.2988,-77.6114"/>
</g>
<!-- Node10 -->
<g id="node11" class="node">
<title>Node10</title>
<polygon fill="#ffffff" stroke="#bfbfbf" points="843,-.5 843,-19.5 950,-19.5 950,-.5 843,-.5"/>
<text text-anchor="middle" x="896.5" y="-7.5" font-family="Helvetica,sans-Serif" font-size="10.00" fill="#000000">AMReX_MultiFab.H</text>
</g>
<!-- Node5&#45;&gt;Node10 -->
<g id="edge40" class="edge">
<title>Node5&#45;&gt;Node10</title>
<path fill="none" stroke="#191970" d="M931.1598,-179.2211C928.0873,-169.9711 923.5573,-155.6586 920.5,-143 910.9031,-103.2652 903.2531,-56.0155 899.3448,-29.882"/>
<polygon fill="#191970" stroke="#191970" points="902.7745,-29.1469 897.8613,-19.7602 895.8485,-30.1621 902.7745,-29.1469"/>
</g>
<!-- Node12 -->
<g id="node13" class="node">
<title>Node12</title>
<g id="a_node13"><a xlink:href="_field_8_h.html" target="_top" xlink:title="amr&#45;wind/core/Field.H">
<polygon fill="#ffffff" stroke="#000000" points="587.5,-118 587.5,-137 709.5,-137 709.5,-118 587.5,-118"/>
<text text-anchor="middle" x="648.5" y="-125" font-family="Helvetica,sans-Serif" font-size="10.00" fill="#000000">amr&#45;wind/core/Field.H</text>
</a>
</g>
</g>
<!-- Node5&#45;&gt;Node12 -->
<g id="edge13" class="edge">
<title>Node5&#45;&gt;Node12</title>
<path fill="none" stroke="#191970" d="M890.1263,-179.4581C839.6111,-168.5956 757.0812,-150.8488 702.7754,-139.1711"/>
<polygon fill="#191970" stroke="#191970" points="703.4902,-135.7449 692.9778,-137.0643 702.0185,-142.5884 703.4902,-135.7449"/>
</g>
<!-- Node18 -->
<g id="node19" class="node">
<title>Node18</title>
<g id="a_node19"><a xlink:href="_int_field_8_h.html" target="_top" xlink:title="amr&#45;wind/core/IntField.H">
<polygon fill="#ffffff" stroke="#000000" points="1128,-118 1128,-137 1263,-137 1263,-118 1128,-118"/>
<text text-anchor="middle" x="1195.5" y="-125" font-family="Helvetica,sans-Serif" font-size="10.00" fill="#000000">amr&#45;wind/core/IntField.H</text>
</a>
</g>
</g>
<!-- Node5&#45;&gt;Node18 -->
<g id="edge28" class="edge">
<title>Node5&#45;&gt;Node18</title>
<path fill="none" stroke="#191970" d="M974.9949,-179.4581C1020.8075,-168.6632 1095.4737,-151.0694 1145.0406,-139.3899"/>
<polygon fill="#191970" stroke="#191970" points="1145.9794,-142.7646 1154.9101,-137.0643 1144.3739,-135.9512 1145.9794,-142.7646"/>
</g>
<!-- Node19 -->
<g id="node20" class="node">
<title>Node19</title>
<polygon fill="#ffffff" stroke="#bfbfbf" points="962.5,-56.5 962.5,-75.5 1072.5,-75.5 1072.5,-56.5 962.5,-56.5"/>
<text text-anchor="middle" x="1017.5" y="-63.5" font-family="Helvetica,sans-Serif" font-size="10.00" fill="#000000">AMReX_iMultiFab.H</text>
</g>
<!-- Node5&#45;&gt;Node19 -->
<g id="edge41" class="edge">
<title>Node5&#45;&gt;Node19</title>
<path fill="none" stroke="#191970" d="M941.0129,-179.3484C954.8921,-158.7804 987.5663,-110.3596 1005.3881,-83.9489"/>
<polygon fill="#191970" stroke="#191970" points="1008.325,-85.8538 1011.0174,-75.6068 1002.5225,-81.9383 1008.325,-85.8538"/>
</g>
<!-- Node20 -->
<g id="node21" class="node">
<title>Node20</title>
<g id="a_node21"><a xlink:href="_scratch_field_8_h.html" target="_top" xlink:title="amr&#45;wind/core/ScratchField.H">
<polygon fill="#ffffff" stroke="#000000" points="1281.5,-118 1281.5,-137 1439.5,-137 1439.5,-118 1281.5,-118"/>
<text text-anchor="middle" x="1360.5" y="-125" font-family="Helvetica,sans-Serif" font-size="10.00" fill="#000000">amr&#45;wind/core/ScratchField.H</text>
</a>
</g>
</g>
<!-- Node5&#45;&gt;Node20 -->
<g id="edge32" class="edge">
<title>Node5&#45;&gt;Node20</title>
<path fill="none" stroke="#191970" d="M1007.8064,-179.8631C1076.3511,-171.1207 1181.5118,-157.1991 1272.5,-143 1280.8726,-141.6934 1289.6788,-140.2387 1298.3524,-138.7586"/>
<polygon fill="#191970" stroke="#191970" points="1299.181,-142.1674 1308.4396,-137.0167 1297.9898,-135.2695 1299.181,-142.1674"/>
</g>
<!-- Node22 -->
<g id="node23" class="node">
<title>Node22</title>
<polygon fill="#ffffff" stroke="#bfbfbf" points="1001,-118 1001,-137 1110,-137 1110,-118 1001,-118"/>
<text text-anchor="middle" x="1055.5" y="-125" font-family="Helvetica,sans-Serif" font-size="10.00" fill="#000000">AMReX_AmrCore.H</text>
</g>
<!-- Node5&#45;&gt;Node22 -->
<g id="edge39" class="edge">
<title>Node5&#45;&gt;Node22</title>
<path fill="none" stroke="#191970" d="M953.4063,-179.3906C973.2966,-169.2811 1004.8123,-153.2628 1027.5692,-141.6962"/>
<polygon fill="#191970" stroke="#191970" points="1029.3978,-144.693 1036.7265,-137.0419 1026.226,-138.4528 1029.3978,-144.693"/>
</g>
<!-- Node9&#45;&gt;Node8 -->
<g id="edge10" class="edge">
<title>Node9&#45;&gt;Node8</title>
<path fill="none" stroke="#191970" d="M145.3298,-56.7362C148.0866,-56.4721 150.8173,-56.2252 153.5,-56 510.3797,-26.0366 600.9369,-40.2377 958.5,-20 974.2547,-19.1083 990.9586,-18.0607 1007.2237,-16.9852"/>
<polygon fill="#191970" stroke="#191970" points="1007.5376,-20.4722 1017.282,-16.3132 1007.0708,-13.4877 1007.5376,-20.4722"/>
</g>
<!-- Node9&#45;&gt;Node10 -->
<g id="edge11" class="edge">
<title>Node9&#45;&gt;Node10</title>
<path fill="none" stroke="#191970" d="M145.3351,-56.7953C148.0903,-56.5147 150.8193,-56.2482 153.5,-56 404.4059,-32.7669 704.0985,-18.2408 832.7311,-12.6353"/>
<polygon fill="#191970" stroke="#191970" points="832.9617,-16.1287 842.801,-12.1995 832.659,-9.1352 832.9617,-16.1287"/>
</g>
<!-- Node11 -->
<g id="node12" class="node">
<title>Node11</title>
<polygon fill="#ffffff" stroke="#bfbfbf" points="11.5,-.5 11.5,-19.5 133.5,-19.5 133.5,-.5 11.5,-.5"/>
<text text-anchor="middle" x="72.5" y="-7.5" font-family="Helvetica,sans-Serif" font-size="10.00" fill="#000000">AMReX_Interpolater.H</text>
</g>
<!-- Node9&#45;&gt;Node11 -->
<g id="edge12" class="edge">
<title>Node9&#45;&gt;Node11</title>
<path fill="none" stroke="#191970" d="M72.5,-56.2455C72.5,-48.9382 72.5,-38.6944 72.5,-29.7046"/>
<polygon fill="#191970" stroke="#191970" points="76.0001,-29.6426 72.5,-19.6427 69.0001,-29.6427 76.0001,-29.6426"/>
</g>
<!-- Node12&#45;&gt;Node2 -->
<g id="edge20" class="edge">
<title>Node12&#45;&gt;Node2</title>
<path fill="none" stroke="#191970" d="M597.2955,-117.9877C544.1614,-108.0996 458.3691,-92.0858 374.5695,-76.1968"/>
<polygon fill="#191970" stroke="#191970" points="375.1043,-72.7359 364.6271,-74.3104 373.7994,-79.6132 375.1043,-72.7359"/>
</g>
<!-- Node12&#45;&gt;Node3 -->
<g id="edge19" class="edge">
<title>Node12&#45;&gt;Node3</title>
<path fill="none" stroke="#191970" d="M587.3564,-119.8736C514.4099,-110.6222 388.517,-94.1737 270.175,-76.0601"/>
<polygon fill="#191970" stroke="#191970" points="270.6294,-72.5889 260.2136,-74.5286 269.5656,-79.5076 270.6294,-72.5889"/>
</g>
<!-- Node12&#45;&gt;Node6 -->
<g id="edge14" class="edge">
<title>Node12&#45;&gt;Node6</title>
<path fill="none" stroke="#191970" d="M709.547,-124.6613C864.4806,-117.1974 1264.7109,-96.2022 1321.5,-76 1351.5816,-65.2988 1380.9396,-42.4342 1398.8709,-26.6412"/>
<polygon fill="#191970" stroke="#191970" points="1401.6476,-28.8484 1406.7087,-19.5406 1396.9478,-23.6607 1401.6476,-28.8484"/>
</g>
<!-- Node12&#45;&gt;Node7 -->
<g id="edge16" class="edge">
<title>Node12&#45;&gt;Node7</title>
<path fill="none" stroke="#191970" d="M675.5313,-117.8906C704.9851,-107.42 752.2689,-90.6111 785.0027,-78.9745"/>
<polygon fill="#191970" stroke="#191970" points="786.4086,-82.1893 794.6586,-75.5419 784.0639,-75.5937 786.4086,-82.1893"/>
</g>
<!-- Node12&#45;&gt;Node8 -->
<g id="edge22" class="edge">
<title>Node12&#45;&gt;Node8</title>
<path fill="none" stroke="#191970" d="M662.7441,-117.764C688.9217,-100.0477 743.9683,-63.658 765.5,-56 808.7206,-40.6281 923.21,-27.0588 1007.2245,-18.7135"/>
<polygon fill="#191970" stroke="#191970" points="1007.7027,-22.1834 1017.3123,-17.7219 1007.0178,-15.217 1007.7027,-22.1834"/>
</g>
<!-- Node12&#45;&gt;Node10 -->
<g id="edge18" class="edge">
<title>Node12&#45;&gt;Node10</title>
<path fill="none" stroke="#191970" d="M623.3999,-117.8937C592.9779,-104.8736 548.2633,-80.4332 569.5,-56 586.4976,-36.4439 742.5612,-21.5683 832.8023,-14.515"/>
<polygon fill="#191970" stroke="#191970" points="833.2293,-17.9926 842.9308,-13.7346 832.6915,-11.0133 833.2293,-17.9926"/>
</g>
<!-- Node13 -->
<g id="node14" class="node">
<title>Node13</title>
<polygon fill="#ffffff" stroke="#bfbfbf" points="382.5,-56.5 382.5,-75.5 440.5,-75.5 440.5,-56.5 382.5,-56.5"/>
<text text-anchor="middle" x="411.5" y="-63.5" font-family="Helvetica,sans-Serif" font-size="10.00" fill="#000000">memory</text>
</g>
<!-- Node12&#45;&gt;Node13 -->
<g id="edge15" class="edge">
<title>Node12&#45;&gt;Node13</title>
<path fill="none" stroke="#191970" d="M611.445,-117.9586C573.5014,-108.1777 512.5449,-92.4353 450.5058,-76.2556"/>
<polygon fill="#191970" stroke="#191970" points="451.1026,-72.7942 440.5429,-73.6559 449.3352,-79.5674 451.1026,-72.7942"/>
</g>
<!-- Node14 -->
<g id="node15" class="node">
<title>Node14</title>
<polygon fill="#ffffff" stroke="#bfbfbf" points="458.5,-56.5 458.5,-75.5 522.5,-75.5 522.5,-56.5 458.5,-56.5"/>
<text text-anchor="middle" x="490.5" y="-63.5" font-family="Helvetica,sans-Serif" font-size="10.00" fill="#000000">algorithm</text>
</g>
<!-- Node12&#45;&gt;Node14 -->
<g id="edge17" class="edge">
<title>Node12&#45;&gt;Node14</title>
<path fill="none" stroke="#191970" d="M623.8125,-117.8906C597.1443,-107.5103 554.4718,-90.9004 524.6089,-79.2766"/>
<polygon fill="#191970" stroke="#191970" points="525.6027,-75.9076 515.0141,-75.5419 523.0635,-82.4309 525.6027,-75.9076"/>
</g>
<!-- Node15 -->
<g id="node16" class="node">
<title>Node15</title>
<g id="a_node16"><a xlink:href="incflo__enums_8_h.html" target="_top" xlink:title="amr&#45;wind/incflo_enums.H">
<polygon fill="#ffffff" stroke="#000000" points="578.5,-56.5 578.5,-75.5 718.5,-75.5 718.5,-56.5 578.5,-56.5"/>
<text text-anchor="middle" x="648.5" y="-63.5" font-family="Helvetica,sans-Serif" font-size="10.00" fill="#000000">amr&#45;wind/incflo_enums.H</text>
</a>
</g>
</g>
<!-- Node12&#45;&gt;Node15 -->
<g id="edge21" class="edge">
<title>Node12&#45;&gt;Node15</title>
<path fill="none" stroke="#191970" d="M648.5,-117.8906C648.5,-109.3657 648.5,-96.6392 648.5,-85.9235"/>
<polygon fill="#191970" stroke="#191970" points="652.0001,-85.7448 648.5,-75.7449 645.0001,-85.7449 652.0001,-85.7448"/>
</g>
<!-- Node16 -->
<g id="node17" class="node">
<title>Node16</title>
<g id="a_node17"><a xlink:href="_view_field_8_h.html" target="_top" xlink:title="amr&#45;wind/core/ViewField.H">
<polygon fill="#ffffff" stroke="#000000" points="1166.5,-56.5 1166.5,-75.5 1312.5,-75.5 1312.5,-56.5 1166.5,-56.5"/>
<text text-anchor="middle" x="1239.5" y="-63.5" font-family="Helvetica,sans-Serif" font-size="10.00" fill="#000000">amr&#45;wind/core/ViewField.H</text>
</a>
</g>
</g>
<!-- Node12&#45;&gt;Node16 -->
<g id="edge23" class="edge">
<title>Node12&#45;&gt;Node16</title>
<path fill="none" stroke="#191970" d="M709.5214,-121.1501C815.9816,-110.0717 1035.7654,-87.2008 1156.1591,-74.6725"/>
<polygon fill="#191970" stroke="#191970" points="1156.8434,-78.1203 1166.4275,-73.604 1156.1189,-71.1579 1156.8434,-78.1203"/>
</g>
<!-- Node16&#45;&gt;Node6 -->
<g id="edge24" class="edge">
<title>Node16&#45;&gt;Node6</title>
<path fill="none" stroke="#191970" d="M1269.9274,-56.3733C1301.8571,-46.2712 1351.8432,-30.4564 1384.3903,-20.159"/>
<polygon fill="#191970" stroke="#191970" points="1385.8214,-23.3773 1394.2998,-17.0238 1383.7098,-16.7034 1385.8214,-23.3773"/>
</g>
<!-- Node16&#45;&gt;Node8 -->
<g id="edge25" class="edge">
<title>Node16&#45;&gt;Node8</title>
<path fill="none" stroke="#191970" d="M1216.2927,-56.3733C1194.3301,-47.2629 1161.1668,-33.5062 1136.6599,-23.3404"/>
<polygon fill="#191970" stroke="#191970" points="1137.9824,-20.0999 1127.4045,-19.5011 1135.3003,-26.5657 1137.9824,-20.0999"/>
</g>
<!-- Node16&#45;&gt;Node10 -->
<g id="edge26" class="edge">
<title>Node16&#45;&gt;Node10</title>
<path fill="none" stroke="#191970" d="M1180.9259,-56.4369C1119.5736,-46.4202 1023.512,-30.7367 960.279,-20.4129"/>
<polygon fill="#191970" stroke="#191970" points="960.4686,-16.8976 950.0352,-18.7404 959.3406,-23.8061 960.4686,-16.8976"/>
</g>
<!-- Node17 -->
<g id="node18" class="node">
<title>Node17</title>
<polygon fill="#ffffff" stroke="#bfbfbf" points="1224.5,-.5 1224.5,-19.5 1320.5,-19.5 1320.5,-.5 1224.5,-.5"/>
<text text-anchor="middle" x="1272.5" y="-7.5" font-family="Helvetica,sans-Serif" font-size="10.00" fill="#000000">AMReX_Vector.H</text>
</g>
<!-- Node16&#45;&gt;Node17 -->
<g id="edge27" class="edge">
<title>Node16&#45;&gt;Node17</title>
<path fill="none" stroke="#191970" d="M1245.2482,-56.2455C1249.7435,-48.617 1256.1248,-37.7881 1261.5825,-28.5267"/>
<polygon fill="#191970" stroke="#191970" points="1264.7561,-30.035 1266.8177,-19.6427 1258.7253,-26.4811 1264.7561,-30.035"/>
</g>
<!-- Node18&#45;&gt;Node6 -->
<g id="edge29" class="edge">
<title>Node18&#45;&gt;Node6</title>
<path fill="none" stroke="#191970" d="M1241.1064,-117.914C1295.7016,-106.0807 1381.2303,-86.2667 1392.5,-76 1405.5717,-64.0916 1411.5354,-44.4931 1414.2493,-29.7399"/>
<polygon fill="#191970" stroke="#191970" points="1417.7467,-30.0161 1415.7552,-19.6101 1410.8227,-28.9867 1417.7467,-30.0161"/>
</g>
<!-- Node18&#45;&gt;Node8 -->
<g id="edge30" class="edge">
<title>Node18&#45;&gt;Node8</title>
<path fill="none" stroke="#191970" d="M1188.0531,-117.8845C1172.7887,-98.1749 1137.7501,-52.9328 1118.2438,-27.7461"/>
<polygon fill="#191970" stroke="#191970" points="1120.9401,-25.5115 1112.0498,-19.7484 1115.4058,-29.7977 1120.9401,-25.5115"/>
</g>
<!-- Node18&#45;&gt;Node19 -->
<g id="edge31" class="edge">
<title>Node18&#45;&gt;Node19</title>
<path fill="none" stroke="#191970" d="M1167.6875,-117.8906C1137.2517,-107.3749 1088.3123,-90.466 1054.6174,-78.8243"/>
<polygon fill="#191970" stroke="#191970" points="1055.712,-75.4995 1045.1172,-75.5419 1053.426,-82.1157 1055.712,-75.4995"/>
</g>
<!-- Node20&#45;&gt;Node6 -->
<g id="edge33" class="edge">
<title>Node20&#45;&gt;Node6</title>
<path fill="none" stroke="#191970" d="M1439.7627,-122.5428C1507.3474,-116.4662 1597.0316,-103.376 1619.5,-76 1625.1393,-69.129 1625.0476,-62.9453 1619.5,-56 1598.4535,-29.6508 1500.1928,-17.2714 1448.4939,-12.4977"/>
<polygon fill="#191970" stroke="#191970" points="1448.7811,-9.0095 1438.5122,-11.6173 1448.166,-15.9824 1448.7811,-9.0095"/>
</g>
<!-- Node20&#45;&gt;Node8 -->
<g id="edge34" class="edge">
<title>Node20&#45;&gt;Node8</title>
<path fill="none" stroke="#191970" d="M1358.0779,-117.9096C1353.6227,-102.3356 1342.5924,-71.7097 1321.5,-56 1300.9419,-40.6882 1243.0838,-28.8619 1192.2785,-21.0367"/>
<polygon fill="#191970" stroke="#191970" points="1192.6339,-17.5509 1182.2246,-19.5252 1191.5931,-24.4731 1192.6339,-17.5509"/>
</g>
<!-- Node20&#45;&gt;Node10 -->
<g id="edge36" class="edge">
<title>Node20&#45;&gt;Node10</title>
<path fill="none" stroke="#191970" d="M1322.3116,-117.9192C1281.4893,-107.6524 1214.881,-90.8284 1157.5,-76 1123.6831,-67.261 1115.3375,-64.6587 1081.5,-56 1035.4872,-44.2258 982.9262,-31.1969 945.6179,-22.0201"/>
<polygon fill="#191970" stroke="#191970" points="946.0639,-18.5256 935.5176,-19.5381 944.3935,-25.3234 946.0639,-18.5256"/>
</g>
<!-- Node20&#45;&gt;Node16 -->
<g id="edge35" class="edge">
<title>Node20&#45;&gt;Node16</title>
<path fill="none" stroke="#191970" d="M1341.5938,-117.8906C1321.7034,-107.7811 1290.1877,-91.7628 1267.4308,-80.1962"/>
<polygon fill="#191970" stroke="#191970" points="1268.774,-76.9528 1258.2735,-75.5419 1265.6022,-83.193 1268.774,-76.9528"/>
</g>
<!-- Node20&#45;&gt;Node17 -->
<g id="edge37" class="edge">
<title>Node20&#45;&gt;Node17</title>
<path fill="none" stroke="#191970" d="M1362.3604,-117.8105C1364.6236,-103.1615 1366.7656,-75.067 1354.5,-56 1345.066,-41.3347 1329.2263,-30.8986 1313.9699,-23.7159"/>
<polygon fill="#191970" stroke="#191970" points="1315.1754,-20.4238 1304.6085,-19.6554 1312.3898,-26.8457 1315.1754,-20.4238"/>
</g>
<!-- Node21 -->
<g id="node22" class="node">
<title>Node21</title>
<polygon fill="#ffffff" stroke="#bfbfbf" points="1482.5,-56.5 1482.5,-75.5 1610.5,-75.5 1610.5,-56.5 1482.5,-56.5"/>
<text text-anchor="middle" x="1546.5" y="-63.5" font-family="Helvetica,sans-Serif" font-size="10.00" fill="#000000">AMReX_PhysBCFunct.H</text>
</g>
<!-- Node20&#45;&gt;Node21 -->
<g id="edge38" class="edge">
<title>Node20&#45;&gt;Node21</title>
<path fill="none" stroke="#191970" d="M1389.5625,-117.8906C1421.3662,-107.3749 1472.5051,-90.466 1507.7144,-78.8243"/>
<polygon fill="#191970" stroke="#191970" points="1509.2459,-82.0043 1517.6416,-75.5419 1507.0483,-75.3582 1509.2459,-82.0043"/>
</g>
</g>
</svg>
