<?xml version="1.0" encoding="UTF-8" standalone="no"?>
<!DOCTYPE svg PUBLIC "-//W3C//DTD SVG 1.1//EN"
 "http://www.w3.org/Graphics/SVG/1.1/DTD/svg11.dtd">
<!-- Generated by graphviz version 2.40.1 (20161225.0304)
 -->
<!-- Title: incflo_enums.H Pages: 1 -->
<svg width="3367pt" height="263pt"
 viewBox="0.00 0.00 3367.14 263.00" xmlns="http://www.w3.org/2000/svg" xmlns:xlink="http://www.w3.org/1999/xlink">
<g id="graph0" class="graph" transform="scale(1 1) rotate(0) translate(4 259)">
<title>incflo_enums.H</title>
<polygon fill="#ffffff" stroke="transparent" points="-4,4 -4,-259 3363.1356,-259 3363.1356,4 -4,4"/>
<!-- Node1 -->
<g id="node1" class="node">
<title>Node1</title>
<polygon fill="#bfbfbf" stroke="#000000" points="3071.6356,-235.5 3071.6356,-254.5 3163.6356,-254.5 3163.6356,-235.5 3071.6356,-235.5"/>
<text text-anchor="middle" x="3117.6356" y="-242.5" font-family="Helvetica,sans-Serif" font-size="10.00" fill="#000000">incflo_enums.H</text>
</g>
<!-- Node2 -->
<g id="node2" class="node">
<title>Node2</title>
<g id="a_node2"><a xlink:href="_field_8_h.html" target="_top" xlink:title="Field.H">
<polygon fill="#ffffff" stroke="#000000" points="1849.6356,-179.5 1849.6356,-198.5 1899.6356,-198.5 1899.6356,-179.5 1849.6356,-179.5"/>
<text text-anchor="middle" x="1874.6356" y="-186.5" font-family="Helvetica,sans-Serif" font-size="10.00" fill="#000000">Field.H</text>
</a>
</g>
</g>
<!-- Node1&#45;&gt;Node2 -->
<g id="edge1" class="edge">
<title>Node1&#45;&gt;Node2</title>
<path fill="none" stroke="#191970" d="M3061.2463,-242.4595C2842.0536,-232.5844 2051.3514,-196.9615 1899.8356,-190.1353"/>
<polygon fill="#191970" stroke="#191970" points="3061.403,-245.9701 3071.5504,-242.9238 3061.7181,-238.9771 3061.403,-245.9701"/>
</g>
<!-- Node3 -->
<g id="node3" class="node">
<title>Node3</title>
<g id="a_node3"><a xlink:href="_b_c_interface_8_h.html" target="_top" xlink:title="BCInterface.H">
<polygon fill="#ffffff" stroke="#000000" points="2430.6356,-123.5 2430.6356,-142.5 2514.6356,-142.5 2514.6356,-123.5 2430.6356,-123.5"/>
<text text-anchor="middle" x="2472.6356" y="-130.5" font-family="Helvetica,sans-Serif" font-size="10.00" fill="#000000">BCInterface.H</text>
</a>
</g>
</g>
<!-- Node1&#45;&gt;Node3 -->
<g id="edge61" class="edge">
<title>Node1&#45;&gt;Node3</title>
<path fill="none" stroke="#191970" d="M3061.5968,-235.2692C2934.6329,-213.2228 2627.3613,-159.8671 2514.835,-140.3277"/>
<polygon fill="#191970" stroke="#191970" points="3061.0563,-238.7277 3071.5076,-236.9902 3062.2539,-231.8309 3061.0563,-238.7277"/>
</g>
<!-- Node20 -->
<g id="node8" class="node">
<title>Node20</title>
<g id="a_node8"><a xlink:href="incflo_8_h.html" target="_top" xlink:title="incflo.H">
<polygon fill="#ffffff" stroke="#ff0000" points="2976.1356,-67.5 2976.1356,-86.5 3029.1356,-86.5 3029.1356,-67.5 2976.1356,-67.5"/>
<text text-anchor="middle" x="3002.6356" y="-74.5" font-family="Helvetica,sans-Serif" font-size="10.00" fill="#000000">incflo.H</text>
</a>
</g>
</g>
<!-- Node1&#45;&gt;Node20 -->
<g id="edge62" class="edge">
<title>Node1&#45;&gt;Node20</title>
<path fill="none" stroke="#191970" d="M3107.1195,-226.2748C3093.1444,-201.846 3067.2261,-158.0849 3041.6356,-123 3032.0106,-109.804 3019.6339,-95.609 3011.4332,-86.5328"/>
<polygon fill="#191970" stroke="#191970" points="3104.2038,-228.2284 3112.1836,-235.1978 3110.2916,-224.7732 3104.2038,-228.2284"/>
</g>
<!-- Node95 -->
<g id="node19" class="node">
<title>Node95</title>
<g id="a_node19"><a xlink:href="_p_d_e_base_8cpp.html" target="_top" xlink:title="PDEBase.cpp">
<polygon fill="#ffffff" stroke="#000000" points="3136.6356,-67.5 3136.6356,-86.5 3216.6356,-86.5 3216.6356,-67.5 3136.6356,-67.5"/>
<text text-anchor="middle" x="3176.6356" y="-74.5" font-family="Helvetica,sans-Serif" font-size="10.00" fill="#000000">PDEBase.cpp</text>
</a>
</g>
</g>
<!-- Node1&#45;&gt;Node95 -->
<g id="edge68" class="edge">
<title>Node1&#45;&gt;Node95</title>
<path fill="none" stroke="#191970" d="M3124.4042,-225.7267C3137.0141,-189.8207 3163.6829,-113.8822 3173.1841,-86.8279"/>
<polygon fill="#191970" stroke="#191970" points="3120.988,-224.8914 3120.9767,-235.4862 3127.5926,-227.2109 3120.988,-224.8914"/>
</g>
<!-- Node236 -->
<g id="node49" class="node">
<title>Node236</title>
<g id="a_node49"><a xlink:href="_p_d_e_base_8_h.html" target="_top" xlink:title="PDEBase.H">
<polygon fill="#ffffff" stroke="#ff0000" points="3188.1356,-123.5 3188.1356,-142.5 3259.1356,-142.5 3259.1356,-123.5 3188.1356,-123.5"/>
<text text-anchor="middle" x="3223.6356" y="-130.5" font-family="Helvetica,sans-Serif" font-size="10.00" fill="#000000">PDEBase.H</text>
</a>
</g>
</g>
<!-- Node1&#45;&gt;Node236 -->
<g id="edge63" class="edge">
<title>Node1&#45;&gt;Node236</title>
<path fill="none" stroke="#191970" d="M3133.5795,-228.1536C3156.1446,-204.3113 3196.6476,-161.5156 3214.621,-142.5249"/>
<polygon fill="#191970" stroke="#191970" points="3131.0049,-225.7821 3126.6731,-235.4509 3136.089,-230.5938 3131.0049,-225.7821"/>
</g>
<!-- Node64 -->
<g id="node50" class="node">
<title>Node64</title>
<g id="a_node50"><a xlink:href="_comp_r_h_s_ops_8_h.html" target="_top" xlink:title="CompRHSOps.H">
<polygon fill="#ffffff" stroke="#ff0000" points="3203.1356,-179.5 3203.1356,-198.5 3298.1356,-198.5 3298.1356,-179.5 3203.1356,-179.5"/>
<text text-anchor="middle" x="3250.6356" y="-186.5" font-family="Helvetica,sans-Serif" font-size="10.00" fill="#000000">CompRHSOps.H</text>
</a>
</g>
</g>
<!-- Node1&#45;&gt;Node64 -->
<g id="edge67" class="edge">
<title>Node1&#45;&gt;Node64</title>
<path fill="none" stroke="#191970" d="M3149.9753,-231.3833C3174.1641,-221.1985 3206.6306,-207.5284 3228.0704,-198.5011"/>
<polygon fill="#191970" stroke="#191970" points="3148.3573,-228.2669 3140.4991,-235.3733 3151.0737,-234.7184 3148.3573,-228.2669"/>
</g>
<!-- Node2&#45;&gt;Node3 -->
<g id="edge2" class="edge">
<title>Node2&#45;&gt;Node3</title>
<path fill="none" stroke="#191970" d="M1909.9664,-187.3748C1997.1794,-183.0711 2229.5521,-169.8259 2421.6356,-143 2424.4951,-142.6006 2427.4367,-142.1449 2430.395,-141.653"/>
<polygon fill="#191970" stroke="#191970" points="1909.6433,-183.8863 1899.8247,-187.867 1909.9827,-190.8781 1909.6433,-183.8863"/>
</g>
<!-- Node5 -->
<g id="node5" class="node">
<title>Node5</title>
<g id="a_node5"><a xlink:href="_field_8cpp.html" target="_top" xlink:title="Field.cpp">
<polygon fill="#ffffff" stroke="#000000" points="2165.1356,-67.5 2165.1356,-86.5 2224.1356,-86.5 2224.1356,-67.5 2165.1356,-67.5"/>
<text text-anchor="middle" x="2194.6356" y="-74.5" font-family="Helvetica,sans-Serif" font-size="10.00" fill="#000000">Field.cpp</text>
</a>
</g>
</g>
<!-- Node2&#45;&gt;Node5 -->
<g id="edge36" class="edge">
<title>Node2&#45;&gt;Node5</title>
<path fill="none" stroke="#191970" d="M1909.9874,-186.9167C1976.2993,-182.4178 2116.2213,-169.946 2155.6356,-143 2175.6321,-129.3292 2186.9079,-101.738 2191.7559,-86.9292"/>
<polygon fill="#191970" stroke="#191970" points="1909.753,-183.4245 1900.0035,-187.5713 1910.211,-190.4095 1909.753,-183.4245"/>
</g>
<!-- Node16 -->
<g id="node7" class="node">
<title>Node16</title>
<g id="a_node7"><a xlink:href="_field_repo_8_h.html" target="_top" xlink:title="FieldRepo.H">
<polygon fill="#ffffff" stroke="#ff0000" points="2608.6356,-123.5 2608.6356,-142.5 2682.6356,-142.5 2682.6356,-123.5 2608.6356,-123.5"/>
<text text-anchor="middle" x="2645.6356" y="-130.5" font-family="Helvetica,sans-Serif" font-size="10.00" fill="#000000">FieldRepo.H</text>
</a>
</g>
</g>
<!-- Node2&#45;&gt;Node16 -->
<g id="edge6" class="edge">
<title>Node2&#45;&gt;Node16</title>
<path fill="none" stroke="#191970" d="M1909.974,-188.3651C2014.82,-186.1334 2333.1303,-176.846 2594.6356,-143 2599.1097,-142.4209 2603.7815,-141.6866 2608.4033,-140.8797"/>
<polygon fill="#191970" stroke="#191970" points="1909.8641,-184.8665 1899.9379,-188.5707 1910.0076,-191.865 1909.8641,-184.8665"/>
</g>
<!-- Node177 -->
<g id="node18" class="node">
<title>Node177</title>
<g id="a_node18"><a xlink:href="_view_field_8cpp.html" target="_top" xlink:title="ViewField.cpp">
<polygon fill="#ffffff" stroke="#000000" points="2432.1356,-67.5 2432.1356,-86.5 2515.1356,-86.5 2515.1356,-67.5 2432.1356,-67.5"/>
<text text-anchor="middle" x="2473.6356" y="-74.5" font-family="Helvetica,sans-Serif" font-size="10.00" fill="#000000">ViewField.cpp</text>
</a>
</g>
</g>
<!-- Node2&#45;&gt;Node177 -->
<g id="edge39" class="edge">
<title>Node2&#45;&gt;Node177</title>
<path fill="none" stroke="#191970" d="M1909.945,-187.8171C2042.3041,-183.2148 2502.5512,-165.6317 2523.6356,-143 2540.9796,-124.3832 2510.438,-99.9591 2489.9364,-86.6578"/>
<polygon fill="#191970" stroke="#191970" points="1909.8018,-184.3199 1899.9283,-188.1623 1910.043,-191.3157 1909.8018,-184.3199"/>
</g>
<!-- Node213 -->
<g id="node20" class="node">
<title>Node213</title>
<g id="a_node20"><a xlink:href="_linear_profile_8cpp.html" target="_top" xlink:title="LinearProfile.cpp">
<polygon fill="#ffffff" stroke="#000000" points="2533.6356,-67.5 2533.6356,-86.5 2631.6356,-86.5 2631.6356,-67.5 2533.6356,-67.5"/>
<text text-anchor="middle" x="2582.6356" y="-74.5" font-family="Helvetica,sans-Serif" font-size="10.00" fill="#000000">LinearProfile.cpp</text>
</a>
</g>
</g>
<!-- Node2&#45;&gt;Node213 -->
<g id="edge55" class="edge">
<title>Node2&#45;&gt;Node213</title>
<path fill="none" stroke="#191970" d="M1910.0014,-188.3847C2039.7882,-185.8787 2485.1657,-175.0034 2539.6356,-143 2561.3312,-130.2529 2574.0532,-101.7341 2579.4932,-86.7005"/>
<polygon fill="#191970" stroke="#191970" points="1909.7518,-184.8887 1899.8195,-188.5765 1909.8837,-191.8875 1909.7518,-184.8887"/>
</g>
<!-- Node70 -->
<g id="node21" class="node">
<title>Node70</title>
<g id="a_node21"><a xlink:href="_power_law_profile_8cpp.html" target="_top" xlink:title="PowerLawProfile.cpp">
<polygon fill="#ffffff" stroke="#000000" points="2650.1356,-67.5 2650.1356,-86.5 2767.1356,-86.5 2767.1356,-67.5 2650.1356,-67.5"/>
<text text-anchor="middle" x="2708.6356" y="-74.5" font-family="Helvetica,sans-Serif" font-size="10.00" fill="#000000">PowerLawProfile.cpp</text>
</a>
</g>
</g>
<!-- Node2&#45;&gt;Node70 -->
<g id="edge56" class="edge">
<title>Node2&#45;&gt;Node70</title>
<path fill="none" stroke="#191970" d="M1910.0399,-188.164C2063.0276,-184.4049 2661.0103,-168.1463 2691.6356,-143 2708.2789,-129.3343 2709.8498,-101.741 2709.3674,-86.9305"/>
<polygon fill="#191970" stroke="#191970" points="1909.7195,-184.6707 1899.8077,-188.413 1909.8899,-191.6686 1909.7195,-184.6707"/>
</g>
<!-- Node214 -->
<g id="node22" class="node">
<title>Node214</title>
<g id="a_node22"><a xlink:href="_u_d_f_8cpp.html" target="_top" xlink:title="UDF.cpp">
<polygon fill="#ffffff" stroke="#000000" points="2785.6356,-67.5 2785.6356,-86.5 2841.6356,-86.5 2841.6356,-67.5 2785.6356,-67.5"/>
<text text-anchor="middle" x="2813.6356" y="-74.5" font-family="Helvetica,sans-Serif" font-size="10.00" fill="#000000">UDF.cpp</text>
</a>
</g>
</g>
<!-- Node2&#45;&gt;Node214 -->
<g id="edge57" class="edge">
<title>Node2&#45;&gt;Node214</title>
<path fill="none" stroke="#191970" d="M1910.0624,-188.1265C2059.5579,-184.2949 2634.6797,-168.0423 2711.6356,-143 2748.7409,-130.9255 2785.4851,-101.8351 2803.0125,-86.6278"/>
<polygon fill="#191970" stroke="#191970" points="1909.561,-184.638 1899.6531,-188.3907 1909.7388,-191.6357 1909.561,-184.638"/>
</g>
<!-- Node129 -->
<g id="node23" class="node">
<title>Node129</title>
<g id="a_node23"><a xlink:href="_re_averaging_8cpp.html" target="_top" xlink:title="ReAveraging.cpp">
<polygon fill="#ffffff" stroke="#000000" points="2859.6356,-67.5 2859.6356,-86.5 2957.6356,-86.5 2957.6356,-67.5 2859.6356,-67.5"/>
<text text-anchor="middle" x="2908.6356" y="-74.5" font-family="Helvetica,sans-Serif" font-size="10.00" fill="#000000">ReAveraging.cpp</text>
</a>
</g>
</g>
<!-- Node2&#45;&gt;Node129 -->
<g id="edge58" class="edge">
<title>Node2&#45;&gt;Node129</title>
<path fill="none" stroke="#191970" d="M1909.687,-188.7483C2086.0808,-187.3179 2869.6539,-178.9516 2905.6356,-143 2920.4031,-128.2448 2915.6894,-101.1111 2911.7303,-86.6574"/>
<polygon fill="#191970" stroke="#191970" points="1909.6204,-185.2486 1899.6484,-188.8275 1909.6757,-192.2484 1909.6204,-185.2486"/>
</g>
<!-- Node219 -->
<g id="node24" class="node">
<title>Node219</title>
<g id="a_node24"><a xlink:href="_field_b_c_ops_8_h.html" target="_top" xlink:title="FieldBCOps.H">
<polygon fill="#ffffff" stroke="#ff0000" points="2064.6356,-123.5 2064.6356,-142.5 2146.6356,-142.5 2146.6356,-123.5 2064.6356,-123.5"/>
<text text-anchor="middle" x="2105.6356" y="-130.5" font-family="Helvetica,sans-Serif" font-size="10.00" fill="#000000">FieldBCOps.H</text>
</a>
</g>
</g>
<!-- Node2&#45;&gt;Node219 -->
<g id="edge25" class="edge">
<title>Node2&#45;&gt;Node219</title>
<path fill="none" stroke="#191970" d="M1909.6035,-180.5229C1951.721,-170.3126 2022.2809,-153.2072 2066.2707,-142.543"/>
<polygon fill="#191970" stroke="#191970" points="1908.6903,-177.1429 1899.7964,-182.9004 1910.3395,-183.9458 1908.6903,-177.1429"/>
</g>
<!-- Node220 -->
<g id="node25" class="node">
<title>Node220</title>
<g id="a_node25"><a xlink:href="_a_b_l_field_init_8_h.html" target="_top" xlink:title="ABLFieldInit.H">
<polygon fill="#ffffff" stroke="#ff0000" points="2328.6356,-123.5 2328.6356,-142.5 2412.6356,-142.5 2412.6356,-123.5 2328.6356,-123.5"/>
<text text-anchor="middle" x="2370.6356" y="-130.5" font-family="Helvetica,sans-Serif" font-size="10.00" fill="#000000">ABLFieldInit.H</text>
</a>
</g>
</g>
<!-- Node2&#45;&gt;Node220 -->
<g id="edge27" class="edge">
<title>Node2&#45;&gt;Node220</title>
<path fill="none" stroke="#191970" d="M1910.1945,-186.4249C1985.8153,-180.7073 2168.0801,-165.644 2319.6356,-143 2322.4912,-142.5733 2325.4298,-142.0971 2328.3859,-141.5903"/>
<polygon fill="#191970" stroke="#191970" points="1909.5385,-182.9641 1899.8275,-187.2005 1910.0608,-189.9446 1909.5385,-182.9641"/>
</g>
<!-- Node47 -->
<g id="node26" class="node">
<title>Node47</title>
<g id="a_node26"><a xlink:href="_field_plane_averaging_8_h.html" target="_top" xlink:title="FieldPlaneAveraging.H">
<polygon fill="#ffffff" stroke="#ff0000" points="1883.1356,-123.5 1883.1356,-142.5 2008.1356,-142.5 2008.1356,-123.5 1883.1356,-123.5"/>
<text text-anchor="middle" x="1945.6356" y="-130.5" font-family="Helvetica,sans-Serif" font-size="10.00" fill="#000000">FieldPlaneAveraging.H</text>
</a>
</g>
</g>
<!-- Node2&#45;&gt;Node47 -->
<g id="edge28" class="edge">
<title>Node2&#45;&gt;Node47</title>
<path fill="none" stroke="#191970" d="M1895.0126,-172.928C1907.4227,-163.1397 1922.8656,-150.9595 1933.4101,-142.6427"/>
<polygon fill="#191970" stroke="#191970" points="1892.687,-170.3046 1887.0029,-179.2455 1897.022,-175.8007 1892.687,-170.3046"/>
</g>
<!-- Node48 -->
<g id="node27" class="node">
<title>Node48</title>
<g id="a_node27"><a xlink:href="_second_moment_averaging_8_h.html" target="_top" xlink:title="SecondMomentAveraging.H">
<polygon fill="#ffffff" stroke="#ff0000" points="853.1356,-67.5 853.1356,-86.5 1004.1356,-86.5 1004.1356,-67.5 853.1356,-67.5"/>
<text text-anchor="middle" x="928.6356" y="-74.5" font-family="Helvetica,sans-Serif" font-size="10.00" fill="#000000">SecondMomentAveraging.H</text>
</a>
</g>
</g>
<!-- Node2&#45;&gt;Node48 -->
<g id="edge32" class="edge">
<title>Node2&#45;&gt;Node48</title>
<path fill="none" stroke="#191970" d="M1839.2205,-188.8091C1584.2585,-187.3529 37.9282,-177.1217 4.6356,-143 -1.572,-136.6378 -1.4915,-129.4398 4.6356,-123 33.715,-92.4369 637.5693,-81.0554 853.0559,-77.9577"/>
<polygon fill="#191970" stroke="#191970" points="1839.3798,-192.3099 1849.3994,-188.8664 1839.4193,-185.31 1839.3798,-192.3099"/>
</g>
<!-- Node50 -->
<g id="node28" class="node">
<title>Node50</title>
<g id="a_node28"><a xlink:href="_third_moment_averaging_8_h.html" target="_top" xlink:title="ThirdMomentAveraging.H">
<polygon fill="#ffffff" stroke="#ff0000" points="1920.6356,-67.5 1920.6356,-86.5 2060.6356,-86.5 2060.6356,-67.5 1920.6356,-67.5"/>
<text text-anchor="middle" x="1990.6356" y="-74.5" font-family="Helvetica,sans-Serif" font-size="10.00" fill="#000000">ThirdMomentAveraging.H</text>
</a>
</g>
</g>
<!-- Node2&#45;&gt;Node50 -->
<g id="edge33" class="edge">
<title>Node2&#45;&gt;Node50</title>
<path fill="none" stroke="#191970" d="M1909.9441,-182.542C1947.989,-174.7806 2004.8241,-160.5792 2017.6356,-143 2030.6145,-125.1911 2012.4912,-100.2394 2000.2424,-86.6877"/>
<polygon fill="#191970" stroke="#191970" points="1908.8937,-179.1819 1899.764,-184.5577 1910.2534,-186.0486 1908.8937,-179.1819"/>
</g>
<!-- Node53 -->
<g id="node29" class="node">
<title>Node53</title>
<g id="a_node29"><a xlink:href="_a_b_l_boundary_plane_8_h.html" target="_top" xlink:title="ABLBoundaryPlane.H">
<polygon fill="#ffffff" stroke="#ff0000" points="2777.1356,-123.5 2777.1356,-142.5 2896.1356,-142.5 2896.1356,-123.5 2777.1356,-123.5"/>
<text text-anchor="middle" x="2836.6356" y="-130.5" font-family="Helvetica,sans-Serif" font-size="10.00" fill="#000000">ABLBoundaryPlane.H</text>
</a>
</g>
</g>
<!-- Node2&#45;&gt;Node53 -->
<g id="edge31" class="edge">
<title>Node2&#45;&gt;Node53</title>
<path fill="none" stroke="#191970" d="M1909.8181,-188.2212C2029.496,-185.3495 2431.7788,-173.8715 2762.6356,-143 2767.2825,-142.5664 2772.0858,-142.057 2776.9096,-141.5017"/>
<polygon fill="#191970" stroke="#191970" points="1909.6789,-184.7234 1899.7641,-188.458 1909.8437,-191.7215 1909.6789,-184.7234"/>
</g>
<!-- Node222 -->
<g id="node30" class="node">
<title>Node222</title>
<g id="a_node30"><a xlink:href="_field_fill_patch_ops_8_h.html" target="_top" xlink:title="FieldFillPatchOps.H">
<polygon fill="#ffffff" stroke="#ff0000" points="2202.6356,-123.5 2202.6356,-142.5 2310.6356,-142.5 2310.6356,-123.5 2202.6356,-123.5"/>
<text text-anchor="middle" x="2256.6356" y="-130.5" font-family="Helvetica,sans-Serif" font-size="10.00" fill="#000000">FieldFillPatchOps.H</text>
</a>
</g>
</g>
<!-- Node2&#45;&gt;Node222 -->
<g id="edge34" class="edge">
<title>Node2&#45;&gt;Node222</title>
<path fill="none" stroke="#191970" d="M1909.9945,-183.8265C1968.1279,-175.3193 2087.5398,-157.8386 2188.6356,-143 2193.1219,-142.3415 2197.7746,-141.6582 2202.4455,-140.9719"/>
<polygon fill="#191970" stroke="#191970" points="1909.2588,-180.3968 1899.871,-185.3079 1910.2724,-187.323 1909.2588,-180.3968"/>
</g>
<!-- Node223 -->
<g id="node31" class="node">
<title>Node223</title>
<g id="a_node31"><a xlink:href="field__ops_8_h.html" target="_top" xlink:title="field_ops.H">
<polygon fill="#ffffff" stroke="#ff0000" points="3047.1356,-67.5 3047.1356,-86.5 3118.1356,-86.5 3118.1356,-67.5 3047.1356,-67.5"/>
<text text-anchor="middle" x="3082.6356" y="-74.5" font-family="Helvetica,sans-Serif" font-size="10.00" fill="#000000">field_ops.H</text>
</a>
</g>
</g>
<!-- Node2&#45;&gt;Node223 -->
<g id="edge37" class="edge">
<title>Node2&#45;&gt;Node223</title>
<path fill="none" stroke="#191970" d="M1909.946,-188.5366C2099.6913,-185.9299 2991.5436,-172.159 3041.6356,-143 3063.0862,-130.5134 3074.8822,-101.8806 3079.8207,-86.7623"/>
<polygon fill="#191970" stroke="#191970" points="1909.6521,-185.0402 1899.7006,-188.6758 1909.7473,-192.0395 1909.6521,-185.0402"/>
</g>
<!-- Node224 -->
<g id="node32" class="node">
<title>Node224</title>
<g id="a_node32"><a xlink:href="_multi_phase_8_h.html" target="_top" xlink:title="MultiPhase.H">
<polygon fill="#ffffff" stroke="#ff0000" points="2952.6356,-123.5 2952.6356,-142.5 3032.6356,-142.5 3032.6356,-123.5 2952.6356,-123.5"/>
<text text-anchor="middle" x="2992.6356" y="-130.5" font-family="Helvetica,sans-Serif" font-size="10.00" fill="#000000">MultiPhase.H</text>
</a>
</g>
</g>
<!-- Node2&#45;&gt;Node224 -->
<g id="edge40" class="edge">
<title>Node2&#45;&gt;Node224</title>
<path fill="none" stroke="#191970" d="M1909.9647,-188.1382C2070.5348,-184.119 2732.5608,-166.4192 2938.6356,-143 2943.1828,-142.4832 2947.9233,-141.8087 2952.6247,-141.0537"/>
<polygon fill="#191970" stroke="#191970" points="1909.6121,-184.6458 1899.7022,-188.3935 1909.7862,-191.6436 1909.6121,-184.6458"/>
</g>
<!-- Node99 -->
<g id="node33" class="node">
<title>Node99</title>
<g id="a_node33"><a xlink:href="_m_m_s_8_h.html" target="_top" xlink:title="MMS.H">
<polygon fill="#ffffff" stroke="#ff0000" points="13.6356,-123.5 13.6356,-142.5 63.6356,-142.5 63.6356,-123.5 13.6356,-123.5"/>
<text text-anchor="middle" x="38.6356" y="-130.5" font-family="Helvetica,sans-Serif" font-size="10.00" fill="#000000">MMS.H</text>
</a>
</g>
</g>
<!-- Node2&#45;&gt;Node99 -->
<g id="edge41" class="edge">
<title>Node2&#45;&gt;Node99</title>
<path fill="none" stroke="#191970" d="M1839.2393,-188.6506C1602.5106,-186.2407 253.0398,-171.3341 72.6356,-143 69.718,-142.5418 66.6992,-141.9038 63.7197,-141.1696"/>
<polygon fill="#191970" stroke="#191970" points="1839.3226,-192.1515 1849.3575,-188.7529 1839.3934,-185.1519 1839.3226,-192.1515"/>
</g>
<!-- Node225 -->
<g id="node34" class="node">
<title>Node225</title>
<g id="a_node34"><a xlink:href="_boussinesq_bubble_8_h.html" target="_top" xlink:title="BoussinesqBubble.H">
<polygon fill="#ffffff" stroke="#ff0000" points="81.6356,-123.5 81.6356,-142.5 197.6356,-142.5 197.6356,-123.5 81.6356,-123.5"/>
<text text-anchor="middle" x="139.6356" y="-130.5" font-family="Helvetica,sans-Serif" font-size="10.00" fill="#000000">BoussinesqBubble.H</text>
</a>
</g>
</g>
<!-- Node2&#45;&gt;Node225 -->
<g id="edge42" class="edge">
<title>Node2&#45;&gt;Node225</title>
<path fill="none" stroke="#191970" d="M1839.1771,-188.6053C1628.5491,-186.1724 539.7402,-172.344 206.6356,-143 203.7067,-142.742 200.711,-142.439 197.6893,-142.1023"/>
<polygon fill="#191970" stroke="#191970" points="1839.3192,-192.107 1849.3587,-188.7219 1839.3994,-185.1075 1839.3192,-192.107"/>
</g>
<!-- Node103 -->
<g id="node35" class="node">
<title>Node103</title>
<g id="a_node35"><a xlink:href="_channel_flow_8_h.html" target="_top" xlink:title="ChannelFlow.H">
<polygon fill="#ffffff" stroke="#ff0000" points="216.1356,-123.5 216.1356,-142.5 305.1356,-142.5 305.1356,-123.5 216.1356,-123.5"/>
<text text-anchor="middle" x="260.6356" y="-130.5" font-family="Helvetica,sans-Serif" font-size="10.00" fill="#000000">ChannelFlow.H</text>
</a>
</g>
</g>
<!-- Node2&#45;&gt;Node103 -->
<g id="edge43" class="edge">
<title>Node2&#45;&gt;Node103</title>
<path fill="none" stroke="#191970" d="M1839.5424,-188.7157C1637.7891,-186.9676 623.7915,-176.6193 313.6356,-143 310.9359,-142.7074 308.1678,-142.3527 305.3813,-141.9538"/>
<polygon fill="#191970" stroke="#191970" points="1839.5538,-192.2158 1849.5833,-188.8013 1839.6136,-185.2161 1839.5538,-192.2158"/>
</g>
<!-- Node105 -->
<g id="node36" class="node">
<title>Node105</title>
<g id="a_node36"><a xlink:href="_convecting_taylor_vortex_8_h.html" target="_top" xlink:title="ConvectingTaylorVortex.H">
<polygon fill="#ffffff" stroke="#ff0000" points="323.1356,-123.5 323.1356,-142.5 466.1356,-142.5 466.1356,-123.5 323.1356,-123.5"/>
<text text-anchor="middle" x="394.6356" y="-130.5" font-family="Helvetica,sans-Serif" font-size="10.00" fill="#000000">ConvectingTaylorVortex.H</text>
</a>
</g>
</g>
<!-- Node2&#45;&gt;Node105 -->
<g id="edge44" class="edge">
<title>Node2&#45;&gt;Node105</title>
<path fill="none" stroke="#191970" d="M1839.3862,-188.2801C1650.0127,-184.3458 751.695,-164.8219 474.6356,-143 471.9844,-142.7912 469.286,-142.5583 466.5622,-142.306"/>
<polygon fill="#191970" stroke="#191970" points="1839.5333,-191.7838 1849.6036,-188.4915 1839.6782,-184.7853 1839.5333,-191.7838"/>
</g>
<!-- Node107 -->
<g id="node37" class="node">
<title>Node107</title>
<g id="a_node37"><a xlink:href="_ekman_spiral_8_h.html" target="_top" xlink:title="EkmanSpiral.H">
<polygon fill="#ffffff" stroke="#ff0000" points="484.1356,-123.5 484.1356,-142.5 573.1356,-142.5 573.1356,-123.5 484.1356,-123.5"/>
<text text-anchor="middle" x="528.6356" y="-130.5" font-family="Helvetica,sans-Serif" font-size="10.00" fill="#000000">EkmanSpiral.H</text>
</a>
</g>
</g>
<!-- Node2&#45;&gt;Node107 -->
<g id="edge45" class="edge">
<title>Node2&#45;&gt;Node107</title>
<path fill="none" stroke="#191970" d="M1839.495,-188.468C1659.08,-185.6272 835.5342,-171.3052 581.6356,-143 578.9368,-142.6991 576.1694,-142.3381 573.3834,-141.9344"/>
<polygon fill="#191970" stroke="#191970" points="1839.4482,-191.9676 1849.5016,-188.6241 1839.5574,-184.9684 1839.4482,-191.9676"/>
</g>
<!-- Node226 -->
<g id="node38" class="node">
<title>Node226</title>
<g id="a_node38"><a xlink:href="_free_stream_8_h.html" target="_top" xlink:title="FreeStream.H">
<polygon fill="#ffffff" stroke="#ff0000" points="591.1356,-123.5 591.1356,-142.5 674.1356,-142.5 674.1356,-123.5 591.1356,-123.5"/>
<text text-anchor="middle" x="632.6356" y="-130.5" font-family="Helvetica,sans-Serif" font-size="10.00" fill="#000000">FreeStream.H</text>
</a>
</g>
</g>
<!-- Node2&#45;&gt;Node226 -->
<g id="edge46" class="edge">
<title>Node2&#45;&gt;Node226</title>
<path fill="none" stroke="#191970" d="M1839.5381,-188.3985C1667.8444,-185.341 915.3001,-170.5787 682.6356,-143 679.9104,-142.677 677.112,-142.2855 674.2982,-141.847"/>
<polygon fill="#191970" stroke="#191970" points="1839.4882,-191.8981 1849.5484,-188.5752 1839.6118,-184.8992 1839.4882,-191.8981"/>
</g>
<!-- Node227 -->
<g id="node39" class="node">
<title>Node227</title>
<g id="a_node39"><a xlink:href="_dam_break_8_h.html" target="_top" xlink:title="DamBreak.H">
<polygon fill="#ffffff" stroke="#ff0000" points="692.1356,-123.5 692.1356,-142.5 771.1356,-142.5 771.1356,-123.5 692.1356,-123.5"/>
<text text-anchor="middle" x="731.6356" y="-130.5" font-family="Helvetica,sans-Serif" font-size="10.00" fill="#000000">DamBreak.H</text>
</a>
</g>
</g>
<!-- Node2&#45;&gt;Node227 -->
<g id="edge47" class="edge">
<title>Node2&#45;&gt;Node227</title>
<path fill="none" stroke="#191970" d="M1838.838,-188.2626C1674.6416,-184.7623 992.5281,-168.9089 780.6356,-143 777.6193,-142.6312 774.5118,-142.1763 771.3945,-141.6658"/>
<polygon fill="#191970" stroke="#191970" points="1839.2522,-191.772 1849.324,-188.4842 1839.4002,-184.7736 1839.2522,-191.772"/>
</g>
<!-- Node228 -->
<g id="node40" class="node">
<title>Node228</title>
<g id="a_node40"><a xlink:href="_rain_drop_8_h.html" target="_top" xlink:title="RainDrop.H">
<polygon fill="#ffffff" stroke="#ff0000" points="789.6356,-123.5 789.6356,-142.5 861.6356,-142.5 861.6356,-123.5 789.6356,-123.5"/>
<text text-anchor="middle" x="825.6356" y="-130.5" font-family="Helvetica,sans-Serif" font-size="10.00" fill="#000000">RainDrop.H</text>
</a>
</g>
</g>
<!-- Node2&#45;&gt;Node228 -->
<g id="edge48" class="edge">
<title>Node2&#45;&gt;Node228</title>
<path fill="none" stroke="#191970" d="M1838.8042,-188.1897C1682.9981,-184.5386 1063.6169,-168.6671 870.6356,-143 867.7796,-142.6201 864.837,-142.1494 861.8886,-141.6208"/>
<polygon fill="#191970" stroke="#191970" points="1839.1303,-191.6982 1849.2089,-188.4315 1839.2929,-184.7001 1839.1303,-191.6982"/>
</g>
<!-- Node229 -->
<g id="node41" class="node">
<title>Node229</title>
<g id="a_node41"><a xlink:href="_sloshing_tank_8_h.html" target="_top" xlink:title="SloshingTank.H">
<polygon fill="#ffffff" stroke="#ff0000" points="880.1356,-123.5 880.1356,-142.5 971.1356,-142.5 971.1356,-123.5 880.1356,-123.5"/>
<text text-anchor="middle" x="925.6356" y="-130.5" font-family="Helvetica,sans-Serif" font-size="10.00" fill="#000000">SloshingTank.H</text>
</a>
</g>
</g>
<!-- Node2&#45;&gt;Node229 -->
<g id="edge49" class="edge">
<title>Node2&#45;&gt;Node229</title>
<path fill="none" stroke="#191970" d="M1839.4947,-187.8141C1695.5781,-182.8617 1150.7331,-163.1503 979.6356,-143 976.8896,-142.6766 974.0728,-142.2981 971.2364,-141.8813"/>
<polygon fill="#191970" stroke="#191970" points="1839.4198,-191.3135 1849.5338,-188.158 1839.6595,-184.3176 1839.4198,-191.3135"/>
</g>
<!-- Node230 -->
<g id="node42" class="node">
<title>Node230</title>
<g id="a_node42"><a xlink:href="_vortex_patch_8_h.html" target="_top" xlink:title="VortexPatch.H">
<polygon fill="#ffffff" stroke="#ff0000" points="989.1356,-123.5 989.1356,-142.5 1074.1356,-142.5 1074.1356,-123.5 989.1356,-123.5"/>
<text text-anchor="middle" x="1031.6356" y="-130.5" font-family="Helvetica,sans-Serif" font-size="10.00" fill="#000000">VortexPatch.H</text>
</a>
</g>
</g>
<!-- Node2&#45;&gt;Node230 -->
<g id="edge50" class="edge">
<title>Node2&#45;&gt;Node230</title>
<path fill="none" stroke="#191970" d="M1839.2711,-188.6033C1727.7949,-186.9982 1373.931,-179.1936 1083.6356,-143 1080.6252,-142.6247 1077.5268,-142.1799 1074.4131,-141.6899"/>
<polygon fill="#191970" stroke="#191970" points="1839.5431,-192.1072 1849.5899,-188.7438 1839.6385,-185.1079 1839.5431,-192.1072"/>
</g>
<!-- Node231 -->
<g id="node43" class="node">
<title>Node231</title>
<g id="a_node43"><a xlink:href="_zalesak_disk_8_h.html" target="_top" xlink:title="ZalesakDisk.H">
<polygon fill="#ffffff" stroke="#ff0000" points="1092.6356,-123.5 1092.6356,-142.5 1180.6356,-142.5 1180.6356,-123.5 1092.6356,-123.5"/>
<text text-anchor="middle" x="1136.6356" y="-130.5" font-family="Helvetica,sans-Serif" font-size="10.00" fill="#000000">ZalesakDisk.H</text>
</a>
</g>
</g>
<!-- Node2&#45;&gt;Node231 -->
<g id="edge51" class="edge">
<title>Node2&#45;&gt;Node231</title>
<path fill="none" stroke="#191970" d="M1839.3323,-188.1166C1737.9187,-185.2595 1437.1506,-174.5466 1189.6356,-143 1186.7561,-142.633 1183.7969,-142.2083 1180.8193,-141.7451"/>
<polygon fill="#191970" stroke="#191970" points="1839.2467,-191.6155 1849.3389,-188.391 1839.4387,-184.6181 1839.2467,-191.6155"/>
</g>
<!-- Node232 -->
<g id="node44" class="node">
<title>Node232</title>
<g id="a_node44"><a xlink:href="_rayleigh_taylor_8_h.html" target="_top" xlink:title="RayleighTaylor.H">
<polygon fill="#ffffff" stroke="#ff0000" points="1198.6356,-123.5 1198.6356,-142.5 1296.6356,-142.5 1296.6356,-123.5 1198.6356,-123.5"/>
<text text-anchor="middle" x="1247.6356" y="-130.5" font-family="Helvetica,sans-Serif" font-size="10.00" fill="#000000">RayleighTaylor.H</text>
</a>
</g>
</g>
<!-- Node2&#45;&gt;Node232 -->
<g id="edge52" class="edge">
<title>Node2&#45;&gt;Node232</title>
<path fill="none" stroke="#191970" d="M1839.4665,-187.2614C1750.0576,-182.602 1506.887,-168.4317 1305.6356,-143 1302.6958,-142.6285 1299.6777,-142.2128 1296.6368,-141.7678"/>
<polygon fill="#191970" stroke="#191970" points="1839.4279,-190.7639 1849.5946,-187.7826 1839.7877,-183.7732 1839.4279,-190.7639"/>
</g>
<!-- Node116 -->
<g id="node45" class="node">
<title>Node116</title>
<g id="a_node45"><a xlink:href="_synthetic_turbulence_8_h.html" target="_top" xlink:title="SyntheticTurbulence.H">
<polygon fill="#ffffff" stroke="#ff0000" points="1315.1356,-123.5 1315.1356,-142.5 1440.1356,-142.5 1440.1356,-123.5 1315.1356,-123.5"/>
<text text-anchor="middle" x="1377.6356" y="-130.5" font-family="Helvetica,sans-Serif" font-size="10.00" fill="#000000">SyntheticTurbulence.H</text>
</a>
</g>
</g>
<!-- Node2&#45;&gt;Node116 -->
<g id="edge53" class="edge">
<title>Node2&#45;&gt;Node116</title>
<path fill="none" stroke="#191970" d="M1839.6292,-185.6072C1766.777,-178.4611 1593.5755,-161.0276 1448.6356,-143 1445.918,-142.662 1443.1431,-142.3082 1440.3408,-141.9439"/>
<polygon fill="#191970" stroke="#191970" points="1839.3412,-189.0956 1849.6345,-186.5857 1840.0227,-182.1289 1839.3412,-189.0956"/>
</g>
<!-- Node233 -->
<g id="node46" class="node">
<title>Node233</title>
<g id="a_node46"><a xlink:href="_taylor_green_vortex_8_h.html" target="_top" xlink:title="TaylorGreenVortex.H">
<polygon fill="#ffffff" stroke="#ff0000" points="1458.1356,-123.5 1458.1356,-142.5 1575.1356,-142.5 1575.1356,-123.5 1458.1356,-123.5"/>
<text text-anchor="middle" x="1516.6356" y="-130.5" font-family="Helvetica,sans-Serif" font-size="10.00" fill="#000000">TaylorGreenVortex.H</text>
</a>
</g>
</g>
<!-- Node2&#45;&gt;Node233 -->
<g id="edge54" class="edge">
<title>Node2&#45;&gt;Node233</title>
<path fill="none" stroke="#191970" d="M1839.4824,-183.5012C1778.0259,-173.8879 1650.4626,-153.9338 1575.3902,-142.1907"/>
<polygon fill="#191970" stroke="#191970" points="1839.0409,-186.9746 1849.4617,-185.0622 1840.1228,-180.0587 1839.0409,-186.9746"/>
</g>
<!-- Node234 -->
<g id="node47" class="node">
<title>Node234</title>
<g id="a_node47"><a xlink:href="_sampling_container_8cpp.html" target="_top" xlink:title="SamplingContainer.cpp">
<polygon fill="#ffffff" stroke="#000000" points="1593.1356,-123.5 1593.1356,-142.5 1722.1356,-142.5 1722.1356,-123.5 1593.1356,-123.5"/>
<text text-anchor="middle" x="1657.6356" y="-130.5" font-family="Helvetica,sans-Serif" font-size="10.00" fill="#000000">SamplingContainer.cpp</text>
</a>
</g>
</g>
<!-- Node2&#45;&gt;Node234 -->
<g id="edge59" class="edge">
<title>Node2&#45;&gt;Node234</title>
<path fill="none" stroke="#191970" d="M1839.5329,-179.9412C1799.7853,-169.6838 1735.2961,-153.0414 1694.7398,-142.5753"/>
<polygon fill="#191970" stroke="#191970" points="1838.7609,-183.3566 1849.3182,-182.4665 1840.5101,-176.5787 1838.7609,-183.3566"/>
</g>
<!-- Node235 -->
<g id="node48" class="node">
<title>Node235</title>
<g id="a_node48"><a xlink:href="_actuator_container_8cpp.html" target="_top" xlink:title="ActuatorContainer.cpp">
<polygon fill="#ffffff" stroke="#000000" points="1740.1356,-123.5 1740.1356,-142.5 1865.1356,-142.5 1865.1356,-123.5 1740.1356,-123.5"/>
<text text-anchor="middle" x="1802.6356" y="-130.5" font-family="Helvetica,sans-Serif" font-size="10.00" fill="#000000">ActuatorContainer.cpp</text>
</a>
</g>
</g>
<!-- Node2&#45;&gt;Node235 -->
<g id="edge60" class="edge">
<title>Node2&#45;&gt;Node235</title>
<path fill="none" stroke="#191970" d="M1853.9716,-172.928C1841.3867,-163.1397 1825.7264,-150.9595 1815.0333,-142.6427"/>
<polygon fill="#191970" stroke="#191970" points="1852.0518,-175.8688 1862.0942,-179.2455 1856.3494,-170.3434 1852.0518,-175.8688"/>
</g>
<!-- Node4 -->
<g id="node4" class="node">
<title>Node4</title>
<g id="a_node4"><a xlink:href="_b_c_interface_8cpp.html" target="_top" xlink:title="BCInterface.cpp">
<polygon fill="#ffffff" stroke="#000000" points="2319.6356,-67.5 2319.6356,-86.5 2413.6356,-86.5 2413.6356,-67.5 2319.6356,-67.5"/>
<text text-anchor="middle" x="2366.6356" y="-74.5" font-family="Helvetica,sans-Serif" font-size="10.00" fill="#000000">BCInterface.cpp</text>
</a>
</g>
</g>
<!-- Node3&#45;&gt;Node4 -->
<g id="edge3" class="edge">
<title>Node3&#45;&gt;Node4</title>
<path fill="none" stroke="#191970" d="M2445.1134,-118.46C2426.1448,-108.4388 2401.4629,-95.3993 2384.8878,-86.6427"/>
<polygon fill="#191970" stroke="#191970" points="2443.6949,-121.669 2454.1718,-123.2455 2446.9648,-115.4796 2443.6949,-121.669"/>
</g>
<!-- Node3&#45;&gt;Node5 -->
<g id="edge4" class="edge">
<title>Node3&#45;&gt;Node5</title>
<path fill="none" stroke="#191970" d="M2420.6028,-122.8163C2336.4382,-106.6993 2313.576,-104.8847 2233.6356,-87 2230.6343,-86.3285 2227.5125,-85.5925 2224.4004,-84.8338"/>
<polygon fill="#191970" stroke="#191970" points="2420.1321,-126.2899 2430.6138,-124.7451 2421.4566,-119.4163 2420.1321,-126.2899"/>
</g>
<!-- Node6 -->
<g id="node6" class="node">
<title>Node6</title>
<g id="a_node6"><a xlink:href="_b_c_ops_8_h.html" target="_top" xlink:title="BCOps.H">
<polygon fill="#ffffff" stroke="#ff0000" points="2242.1356,-67.5 2242.1356,-86.5 2301.1356,-86.5 2301.1356,-67.5 2242.1356,-67.5"/>
<text text-anchor="middle" x="2271.6356" y="-74.5" font-family="Helvetica,sans-Serif" font-size="10.00" fill="#000000">BCOps.H</text>
</a>
</g>
</g>
<!-- Node3&#45;&gt;Node6 -->
<g id="edge5" class="edge">
<title>Node3&#45;&gt;Node6</title>
<path fill="none" stroke="#191970" d="M2428.1378,-120.6026C2389.4921,-109.8356 2334.6173,-94.5471 2301.1656,-85.2273"/>
<polygon fill="#191970" stroke="#191970" points="2427.51,-124.0609 2438.0825,-123.3733 2429.3887,-117.3177 2427.51,-124.0609"/>
</g>
<!-- Node16&#45;&gt;Node4 -->
<g id="edge7" class="edge">
<title>Node16&#45;&gt;Node4</title>
<path fill="none" stroke="#191970" d="M2598.75,-123.5893C2547.445,-113.2915 2465.6535,-96.8746 2414.1148,-86.5299"/>
<polygon fill="#191970" stroke="#191970" points="2598.0933,-127.0272 2608.5866,-125.5636 2599.4709,-120.1641 2598.0933,-127.0272"/>
</g>
<!-- Node16&#45;&gt;Node5 -->
<g id="edge18" class="edge">
<title>Node16&#45;&gt;Node5</title>
<path fill="none" stroke="#191970" d="M2598.3425,-128.5601C2505.5488,-119.71 2302.6558,-99.6378 2233.6356,-87 2230.6104,-86.4461 2227.4729,-85.7871 2224.3513,-85.0757"/>
<polygon fill="#191970" stroke="#191970" points="2598.2802,-132.0699 2608.5666,-129.5323 2598.9429,-125.1013 2598.2802,-132.0699"/>
</g>
<!-- Node16&#45;&gt;Node20 -->
<g id="edge8" class="edge">
<title>Node16&#45;&gt;Node20</title>
<path fill="none" stroke="#191970" d="M2692.9951,-128.1426C2755.9129,-121.2506 2870.3357,-107.1876 2966.6356,-87 2969.683,-86.3612 2972.8532,-85.6103 2975.993,-84.812"/>
<polygon fill="#191970" stroke="#191970" points="2692.5434,-124.671 2682.9781,-129.2268 2693.2967,-131.6303 2692.5434,-124.671"/>
</g>
<!-- Node16&#45;&gt;Node177 -->
<g id="edge19" class="edge">
<title>Node16&#45;&gt;Node177</title>
<path fill="none" stroke="#191970" d="M2606.2921,-120.1905C2574.7805,-109.9309 2531.2837,-95.7691 2502.8176,-86.5011"/>
<polygon fill="#191970" stroke="#191970" points="2605.4755,-123.6054 2616.0677,-123.3733 2607.6426,-116.9493 2605.4755,-123.6054"/>
</g>
<!-- Node16&#45;&gt;Node95 -->
<g id="edge20" class="edge">
<title>Node16&#45;&gt;Node95</title>
<path fill="none" stroke="#191970" d="M2692.9829,-129.1268C2797.3567,-120.4835 3044.5444,-99.4078 3127.6356,-87 3130.5552,-86.564 3133.5636,-86.0675 3136.5857,-85.5341"/>
<polygon fill="#191970" stroke="#191970" points="2692.4248,-125.6609 2682.747,-129.9725 2693.0012,-132.6372 2692.4248,-125.6609"/>
</g>
<!-- Node16&#45;&gt;Node213 -->
<g id="edge21" class="edge">
<title>Node16&#45;&gt;Node213</title>
<path fill="none" stroke="#191970" d="M2626.9164,-116.3607C2616.0174,-106.6727 2602.6601,-94.7995 2593.4836,-86.6427"/>
<polygon fill="#191970" stroke="#191970" points="2624.8624,-119.2178 2634.6618,-123.2455 2629.513,-113.9859 2624.8624,-119.2178"/>
</g>
<!-- Node16&#45;&gt;Node70 -->
<g id="edge22" class="edge">
<title>Node16&#45;&gt;Node70</title>
<path fill="none" stroke="#191970" d="M2664.3548,-116.3607C2675.2538,-106.6727 2688.6111,-94.7995 2697.7876,-86.6427"/>
<polygon fill="#191970" stroke="#191970" points="2661.7582,-113.9859 2656.6094,-123.2455 2666.4088,-119.2178 2661.7582,-113.9859"/>
</g>
<!-- Node16&#45;&gt;Node214 -->
<g id="edge23" class="edge">
<title>Node16&#45;&gt;Node214</title>
<path fill="none" stroke="#191970" d="M2684.0944,-120.1804C2714.9742,-109.8871 2757.6228,-95.6709 2785.4119,-86.4079"/>
<polygon fill="#191970" stroke="#191970" points="2682.8958,-116.8905 2674.5158,-123.3733 2685.1095,-123.5313 2682.8958,-116.8905"/>
</g>
<!-- Node16&#45;&gt;Node129 -->
<g id="edge24" class="edge">
<title>Node16&#45;&gt;Node129</title>
<path fill="none" stroke="#191970" d="M2692.6787,-122.9832C2741.1415,-112.6641 2816.1333,-96.6963 2863.7791,-86.5512"/>
<polygon fill="#191970" stroke="#191970" points="2691.8111,-119.5894 2682.7593,-125.0953 2693.2689,-126.4359 2691.8111,-119.5894"/>
</g>
<!-- Node21 -->
<g id="node9" class="node">
<title>Node21</title>
<g id="a_node9"><a xlink:href="incflo__set__velocity__bcs_8cpp.html" target="_top" xlink:title="incflo_set_velocity\l_bcs.cpp">
<polygon fill="#ffffff" stroke="#000000" points="2394.1356,-.5 2394.1356,-30.5 2501.1356,-30.5 2501.1356,-.5 2394.1356,-.5"/>
<text text-anchor="start" x="2402.1356" y="-18.5" font-family="Helvetica,sans-Serif" font-size="10.00" fill="#000000">incflo_set_velocity</text>
<text text-anchor="middle" x="2447.6356" y="-7.5" font-family="Helvetica,sans-Serif" font-size="10.00" fill="#000000">_bcs.cpp</text>
</a>
</g>
</g>
<!-- Node20&#45;&gt;Node21 -->
<g id="edge9" class="edge">
<title>Node20&#45;&gt;Node21</title>
<path fill="none" stroke="#191970" d="M2966.0177,-67.2427C2764.625,-32.6381 2708.1019,-62.8695 2510.6356,-31 2507.6333,-30.5154 2504.5634,-29.9607 2501.4738,-29.3559"/>
<polygon fill="#191970" stroke="#191970" points="2965.5764,-70.7187 2976.0302,-68.9956 2966.7836,-63.8235 2965.5764,-70.7187"/>
</g>
<!-- Node22 -->
<g id="node10" class="node">
<title>Node22</title>
<g id="a_node10"><a xlink:href="derive_8cpp.html" target="_top" xlink:title="derive.cpp">
<polygon fill="#ffffff" stroke="#000000" points="2519.6356,-6 2519.6356,-25 2587.6356,-25 2587.6356,-6 2519.6356,-6"/>
<text text-anchor="middle" x="2553.6356" y="-13" font-family="Helvetica,sans-Serif" font-size="10.00" fill="#000000">derive.cpp</text>
</a>
</g>
</g>
<!-- Node20&#45;&gt;Node22 -->
<g id="edge10" class="edge">
<title>Node20&#45;&gt;Node22</title>
<path fill="none" stroke="#191970" d="M2966.0945,-67.2307C2802.3471,-37.9422 2754.6727,-66.5858 2596.6356,-31 2590.1326,-29.5357 2583.2676,-27.3635 2576.9782,-25.1057"/>
<polygon fill="#191970" stroke="#191970" points="2965.5529,-70.6896 2976.0202,-69.0509 2966.8156,-63.8044 2965.5529,-70.6896"/>
</g>
<!-- Node23 -->
<g id="node11" class="node">
<title>Node23</title>
<g id="a_node11"><a xlink:href="incflo__diffusion_8cpp.html" target="_top" xlink:title="incflo_diffusion.cpp">
<polygon fill="#ffffff" stroke="#000000" points="2605.6356,-6 2605.6356,-25 2715.6356,-25 2715.6356,-6 2605.6356,-6"/>
<text text-anchor="middle" x="2660.6356" y="-13" font-family="Helvetica,sans-Serif" font-size="10.00" fill="#000000">incflo_diffusion.cpp</text>
</a>
</g>
</g>
<!-- Node20&#45;&gt;Node23 -->
<g id="edge11" class="edge">
<title>Node20&#45;&gt;Node23</title>
<path fill="none" stroke="#191970" d="M2966.0384,-67.106C2858.5093,-44.8156 2828.2364,-51.2088 2724.6356,-31 2715.7711,-29.2709 2706.283,-27.1329 2697.4002,-25.003"/>
<polygon fill="#191970" stroke="#191970" points="2965.4827,-70.5657 2975.9896,-69.2041 2966.9269,-63.7163 2965.4827,-70.5657"/>
</g>
<!-- Node24 -->
<g id="node12" class="node">
<title>Node24</title>
<g id="a_node12"><a xlink:href="incflo_8cpp.html" target="_top" xlink:title="incflo.cpp">
<polygon fill="#ffffff" stroke="#000000" points="3296.1356,-6 3296.1356,-25 3359.1356,-25 3359.1356,-6 3296.1356,-6"/>
<text text-anchor="middle" x="3327.6356" y="-13" font-family="Helvetica,sans-Serif" font-size="10.00" fill="#000000">incflo.cpp</text>
</a>
</g>
</g>
<!-- Node20&#45;&gt;Node24 -->
<g id="edge12" class="edge">
<title>Node20&#45;&gt;Node24</title>
<path fill="none" stroke="#191970" d="M3039.1279,-67.1515C3149.45,-44.8537 3181.8521,-58.0681 3286.6356,-31 3292.6773,-29.4393 3299.0551,-27.2881 3304.9338,-25.0849"/>
<polygon fill="#191970" stroke="#191970" points="3038.3604,-63.7361 3029.2793,-69.1935 3039.7817,-70.5903 3038.3604,-63.7361"/>
</g>
<!-- Node25 -->
<g id="node13" class="node">
<title>Node25</title>
<g id="a_node13"><a xlink:href="incflo__advance_8cpp.html" target="_top" xlink:title="incflo_advance.cpp">
<polygon fill="#ffffff" stroke="#000000" points="3167.6356,-6 3167.6356,-25 3277.6356,-25 3277.6356,-6 3167.6356,-6"/>
<text text-anchor="middle" x="3222.6356" y="-13" font-family="Helvetica,sans-Serif" font-size="10.00" fill="#000000">incflo_advance.cpp</text>
</a>
</g>
</g>
<!-- Node20&#45;&gt;Node25 -->
<g id="edge13" class="edge">
<title>Node20&#45;&gt;Node25</title>
<path fill="none" stroke="#191970" d="M3038.8757,-66.8692C3080.3621,-55.2719 3147.8067,-36.4181 3188.4238,-25.0638"/>
<polygon fill="#191970" stroke="#191970" points="3037.8612,-63.5186 3029.1727,-69.5817 3039.7458,-70.2601 3037.8612,-63.5186"/>
</g>
<!-- Node26 -->
<g id="node14" class="node">
<title>Node26</title>
<g id="a_node14"><a xlink:href="incflo__compute__dt_8cpp.html" target="_top" xlink:title="incflo_compute_dt.cpp">
<polygon fill="#ffffff" stroke="#000000" points="2733.6356,-6 2733.6356,-25 2859.6356,-25 2859.6356,-6 2733.6356,-6"/>
<text text-anchor="middle" x="2796.6356" y="-13" font-family="Helvetica,sans-Serif" font-size="10.00" fill="#000000">incflo_compute_dt.cpp</text>
</a>
</g>
</g>
<!-- Node20&#45;&gt;Node26 -->
<g id="edge14" class="edge">
<title>Node20&#45;&gt;Node26</title>
<path fill="none" stroke="#191970" d="M2966.2474,-66.1365C2927.2836,-54.5041 2866.0494,-36.2231 2828.7957,-25.1012"/>
<polygon fill="#191970" stroke="#191970" points="2965.5431,-69.5788 2976.1264,-69.0859 2967.5456,-62.8714 2965.5431,-69.5788"/>
</g>
<!-- Node27 -->
<g id="node15" class="node">
<title>Node27</title>
<g id="a_node15"><a xlink:href="incflo__regrid_8cpp.html" target="_top" xlink:title="incflo_regrid.cpp">
<polygon fill="#ffffff" stroke="#000000" points="2878.1356,-6 2878.1356,-25 2975.1356,-25 2975.1356,-6 2878.1356,-6"/>
<text text-anchor="middle" x="2926.6356" y="-13" font-family="Helvetica,sans-Serif" font-size="10.00" fill="#000000">incflo_regrid.cpp</text>
</a>
</g>
</g>
<!-- Node20&#45;&gt;Node27 -->
<g id="edge15" class="edge">
<title>Node20&#45;&gt;Node27</title>
<path fill="none" stroke="#191970" d="M2982.7016,-60.8692C2968.7231,-49.5576 2950.4937,-34.8062 2938.678,-25.2449"/>
<polygon fill="#191970" stroke="#191970" points="2980.7852,-63.8209 2990.7606,-67.3906 2985.1886,-58.3793 2980.7852,-63.8209"/>
</g>
<!-- Node28 -->
<g id="node16" class="node">
<title>Node28</title>
<g id="a_node16"><a xlink:href="main_8cpp.html" target="_top" xlink:title="main.cpp">
<polygon fill="#ffffff" stroke="#000000" points="2993.6356,-6 2993.6356,-25 3055.6356,-25 3055.6356,-6 2993.6356,-6"/>
<text text-anchor="middle" x="3024.6356" y="-13" font-family="Helvetica,sans-Serif" font-size="10.00" fill="#000000">main.cpp</text>
</a>
</g>
</g>
<!-- Node20&#45;&gt;Node28 -->
<g id="edge16" class="edge">
<title>Node20&#45;&gt;Node28</title>
<path fill="none" stroke="#191970" d="M3009.4614,-57.9189C3013.3351,-47.0901 3018.0197,-33.9944 3021.1496,-25.2449"/>
<polygon fill="#191970" stroke="#191970" points="3006.1459,-56.796 3006.0731,-67.3906 3012.7369,-59.1538 3006.1459,-56.796"/>
</g>
<!-- Node29 -->
<g id="node17" class="node">
<title>Node29</title>
<g id="a_node17"><a xlink:href="prob__bc_8cpp.html" target="_top" xlink:title="prob_bc.cpp">
<polygon fill="#ffffff" stroke="#000000" points="3074.1356,-6 3074.1356,-25 3149.1356,-25 3149.1356,-6 3074.1356,-6"/>
<text text-anchor="middle" x="3111.6356" y="-13" font-family="Helvetica,sans-Serif" font-size="10.00" fill="#000000">prob_bc.cpp</text>
</a>
</g>
</g>
<!-- Node20&#45;&gt;Node29 -->
<g id="edge17" class="edge">
<title>Node20&#45;&gt;Node29</title>
<path fill="none" stroke="#191970" d="M3028.4854,-62.415C3048.9747,-50.8546 3077.0125,-35.035 3094.7239,-25.0419"/>
<polygon fill="#191970" stroke="#191970" points="3026.6563,-59.4283 3019.6668,-67.3906 3030.0961,-65.5249 3026.6563,-59.4283"/>
</g>
<!-- Node219&#45;&gt;Node5 -->
<g id="edge26" class="edge">
<title>Node219&#45;&gt;Node5</title>
<path fill="none" stroke="#191970" d="M2129.842,-117.769C2145.6131,-107.8456 2165.7116,-95.1994 2179.3106,-86.6427"/>
<polygon fill="#191970" stroke="#191970" points="2127.7382,-114.9575 2121.1382,-123.2455 2131.4661,-120.8823 2127.7382,-114.9575"/>
</g>
<!-- Node47&#45;&gt;Node48 -->
<g id="edge29" class="edge">
<title>Node47&#45;&gt;Node48</title>
<path fill="none" stroke="#191970" d="M1872.6282,-122.9918C1543.3566,-92.6025 1163.3867,-81.8113 1004.4385,-78.3922"/>
<polygon fill="#191970" stroke="#191970" points="1872.5641,-126.5008 1882.8455,-123.9426 1873.2128,-119.531 1872.5641,-126.5008"/>
</g>
<!-- Node47&#45;&gt;Node50 -->
<g id="edge30" class="edge">
<title>Node47&#45;&gt;Node50</title>
<path fill="none" stroke="#191970" d="M1959.9302,-115.2112C1967.5352,-105.7472 1976.5894,-94.4797 1982.887,-86.6427"/>
<polygon fill="#191970" stroke="#191970" points="1957.0097,-113.2581 1953.474,-123.2455 1962.4662,-117.6428 1957.0097,-113.2581"/>
</g>
<!-- Node222&#45;&gt;Node5 -->
<g id="edge35" class="edge">
<title>Node222&#45;&gt;Node5</title>
<path fill="none" stroke="#191970" d="M2238.2135,-116.3607C2227.4875,-106.6727 2214.3422,-94.7995 2205.3114,-86.6427"/>
<polygon fill="#191970" stroke="#191970" points="2236.069,-119.14 2245.836,-123.2455 2240.761,-113.9453 2236.069,-119.14"/>
</g>
<!-- Node223&#45;&gt;Node25 -->
<g id="edge38" class="edge">
<title>Node223&#45;&gt;Node25</title>
<path fill="none" stroke="#191970" d="M3113.7251,-63.3428C3140.1974,-51.7139 3177.5508,-35.3051 3200.9142,-25.0419"/>
<polygon fill="#191970" stroke="#191970" points="3112.2585,-60.1642 3104.5106,-67.3906 3115.0739,-66.5731 3112.2585,-60.1642"/>
</g>
<!-- Node236&#45;&gt;Node24 -->
<g id="edge65" class="edge">
<title>Node236&#45;&gt;Node24</title>
<path fill="none" stroke="#191970" d="M3238.9032,-115.7505C3261.0561,-90.722 3301.3845,-45.1587 3319.0072,-25.2484"/>
<polygon fill="#191970" stroke="#191970" points="3236.1533,-113.5766 3232.1464,-123.3845 3241.395,-118.2161 3236.1533,-113.5766"/>
</g>
<!-- Node236&#45;&gt;Node25 -->
<g id="edge66" class="edge">
<title>Node236&#45;&gt;Node25</title>
<path fill="none" stroke="#191970" d="M3224.6734,-113.4487C3225.0583,-105.2771 3225.447,-95.6811 3225.6356,-87 3225.8287,-78.1132 3225.8942,-75.8851 3225.6356,-67 3225.2135,-52.4972 3224.1243,-35.7263 3223.3813,-25.3654"/>
<polygon fill="#191970" stroke="#191970" points="3221.1752,-113.3264 3224.1699,-123.4892 3228.1664,-113.6771 3221.1752,-113.3264"/>
</g>
<!-- Node236&#45;&gt;Node95 -->
<g id="edge64" class="edge">
<title>Node236&#45;&gt;Node95</title>
<path fill="none" stroke="#191970" d="M3208.9484,-115.5004C3200.956,-105.9775 3191.3731,-94.5596 3184.7286,-86.6427"/>
<polygon fill="#191970" stroke="#191970" points="3206.3392,-117.8358 3215.4488,-123.2455 3211.701,-113.3357 3206.3392,-117.8358"/>
</g>
</g>
</svg>
