<?xml version="1.0" encoding="UTF-8" standalone="no"?>
<!DOCTYPE svg PUBLIC "-//W3C//DTD SVG 1.1//EN"
 "http://www.w3.org/Graphics/SVG/1.1/DTD/svg11.dtd">
<!-- Generated by graphviz version 2.40.1 (20161225.0304)
 -->
<!-- Title: incflo_convection_K.H Pages: 1 -->
<svg width="676pt" height="140pt"
 viewBox="0.00 0.00 676.00 140.00" xmlns="http://www.w3.org/2000/svg" xmlns:xlink="http://www.w3.org/1999/xlink">
<g id="graph0" class="graph" transform="scale(1 1) rotate(0) translate(4 136)">
<title>incflo_convection_K.H</title>
<polygon fill="#ffffff" stroke="transparent" points="-4,4 -4,-136 672,-136 672,4 -4,4"/>
<!-- Node2 -->
<g id="node1" class="node">
<title>Node2</title>
<polygon fill="#bfbfbf" stroke="#000000" points="328,-112.5 328,-131.5 452,-131.5 452,-112.5 328,-112.5"/>
<text text-anchor="middle" x="390" y="-119.5" font-family="Helvetica,sans-Serif" font-size="10.00" fill="#000000">incflo_convection_K.H</text>
</g>
<!-- Node3 -->
<g id="node2" class="node">
<title>Node3</title>
<g id="a_node2"><a xlink:href="incflo__godunov__plm_8_h.html" target="_top" xlink:title="incflo_godunov_plm.H">
<polygon fill="#ffffff" stroke="#000000" points="106.5,-56.5 106.5,-75.5 231.5,-75.5 231.5,-56.5 106.5,-56.5"/>
<text text-anchor="middle" x="169" y="-63.5" font-family="Helvetica,sans-Serif" font-size="10.00" fill="#000000">incflo_godunov_plm.H</text>
</a>
</g>
</g>
<!-- Node2&#45;&gt;Node3 -->
<g id="edge1" class="edge">
<title>Node2&#45;&gt;Node3</title>
<path fill="none" stroke="#191970" d="M342.3137,-109.9166C301.664,-99.6162 244.0333,-85.013 206.5845,-75.5237"/>
<polygon fill="#191970" stroke="#191970" points="341.7065,-113.3733 352.2599,-112.4369 343.4259,-106.5877 341.7065,-113.3733"/>
</g>
<!-- Node6 -->
<g id="node5" class="node">
<title>Node6</title>
<g id="a_node5"><a xlink:href="incflo__godunov__plm_8cpp.html" target="_top" xlink:title="incflo_godunov_plm.cpp">
<polygon fill="#ffffff" stroke="#000000" points="250,-56.5 250,-75.5 384,-75.5 384,-56.5 250,-56.5"/>
<text text-anchor="middle" x="317" y="-63.5" font-family="Helvetica,sans-Serif" font-size="10.00" fill="#000000">incflo_godunov_plm.cpp</text>
</a>
</g>
</g>
<!-- Node2&#45;&gt;Node6 -->
<g id="edge4" class="edge">
<title>Node2&#45;&gt;Node6</title>
<path fill="none" stroke="#191970" d="M369.049,-105.928C356.2893,-96.1397 340.4115,-83.9595 329.5699,-75.6427"/>
<polygon fill="#191970" stroke="#191970" points="367.2197,-108.9359 377.2844,-112.2455 371.4804,-103.3819 367.2197,-108.9359"/>
</g>
<!-- Node7 -->
<g id="node6" class="node">
<title>Node7</title>
<g id="a_node6"><a xlink:href="incflo__mol__fluxes_8cpp.html" target="_top" xlink:title="incflo_mol_fluxes.cpp">
<polygon fill="#ffffff" stroke="#000000" points="402,-56.5 402,-75.5 524,-75.5 524,-56.5 402,-56.5"/>
<text text-anchor="middle" x="463" y="-63.5" font-family="Helvetica,sans-Serif" font-size="10.00" fill="#000000">incflo_mol_fluxes.cpp</text>
</a>
</g>
</g>
<!-- Node2&#45;&gt;Node7 -->
<g id="edge5" class="edge">
<title>Node2&#45;&gt;Node7</title>
<path fill="none" stroke="#191970" d="M410.951,-105.928C423.7107,-96.1397 439.5885,-83.9595 450.4301,-75.6427"/>
<polygon fill="#191970" stroke="#191970" points="408.5196,-103.3819 402.7156,-112.2455 412.7803,-108.9359 408.5196,-103.3819"/>
</g>
<!-- Node8 -->
<g id="node7" class="node">
<title>Node8</title>
<g id="a_node7"><a xlink:href="incflo__mol__predict_8cpp.html" target="_top" xlink:title="incflo_mol_predict.cpp">
<polygon fill="#ffffff" stroke="#000000" points="542,-56.5 542,-75.5 668,-75.5 668,-56.5 542,-56.5"/>
<text text-anchor="middle" x="605" y="-63.5" font-family="Helvetica,sans-Serif" font-size="10.00" fill="#000000">incflo_mol_predict.cpp</text>
</a>
</g>
</g>
<!-- Node2&#45;&gt;Node8 -->
<g id="edge6" class="edge">
<title>Node2&#45;&gt;Node8</title>
<path fill="none" stroke="#191970" d="M436.643,-109.8511C476.2064,-99.5462 532.1697,-84.9697 568.5225,-75.5011"/>
<polygon fill="#191970" stroke="#191970" points="435.7547,-106.4656 426.9598,-112.3733 437.5192,-113.2396 435.7547,-106.4656"/>
</g>
<!-- Node4 -->
<g id="node3" class="node">
<title>Node4</title>
<g id="a_node3"><a xlink:href="incflo__godunov__advection_8cpp.html" target="_top" xlink:title="incflo_godunov_advection.cpp">
<polygon fill="#ffffff" stroke="#000000" points="0,-.5 0,-19.5 164,-19.5 164,-.5 0,-.5"/>
<text text-anchor="middle" x="82" y="-7.5" font-family="Helvetica,sans-Serif" font-size="10.00" fill="#000000">incflo_godunov_advection.cpp</text>
</a>
</g>
</g>
<!-- Node3&#45;&gt;Node4 -->
<g id="edge2" class="edge">
<title>Node3&#45;&gt;Node4</title>
<path fill="none" stroke="#191970" d="M145.3375,-50.769C129.9209,-40.8456 110.274,-28.1994 96.9806,-19.6427"/>
<polygon fill="#191970" stroke="#191970" points="143.5427,-53.7761 153.8458,-56.2455 147.3315,-47.89 143.5427,-53.7761"/>
</g>
<!-- Node5 -->
<g id="node4" class="node">
<title>Node5</title>
<g id="a_node4"><a xlink:href="incflo__godunov__predict_8cpp.html" target="_top" xlink:title="incflo_godunov_predict.cpp">
<polygon fill="#ffffff" stroke="#000000" points="182.5,-.5 182.5,-19.5 331.5,-19.5 331.5,-.5 182.5,-.5"/>
<text text-anchor="middle" x="257" y="-7.5" font-family="Helvetica,sans-Serif" font-size="10.00" fill="#000000">incflo_godunov_predict.cpp</text>
</a>
</g>
</g>
<!-- Node3&#45;&gt;Node5 -->
<g id="edge3" class="edge">
<title>Node3&#45;&gt;Node5</title>
<path fill="none" stroke="#191970" d="M192.9345,-50.769C208.5283,-40.8456 228.401,-28.1994 241.8472,-19.6427"/>
<polygon fill="#191970" stroke="#191970" points="190.886,-47.9239 184.3284,-56.2455 194.6441,-53.8296 190.886,-47.9239"/>
</g>
</g>
</svg>
