<?xml version="1.0" encoding="UTF-8" standalone="no"?>
<!DOCTYPE svg PUBLIC "-//W3C//DTD SVG 1.1//EN"
 "http://www.w3.org/Graphics/SVG/1.1/DTD/svg11.dtd">
<!-- Generated by graphviz version 2.40.1 (20161225.0304)
 -->
<!-- Title: incflo_godunov_ppm_nolim.H Pages: 1 -->
<svg width="328pt" height="95pt"
 viewBox="0.00 0.00 327.50 95.00" xmlns="http://www.w3.org/2000/svg" xmlns:xlink="http://www.w3.org/1999/xlink">
<g id="graph0" class="graph" transform="scale(1 1) rotate(0) translate(4 91)">
<title>incflo_godunov_ppm_nolim.H</title>
<polygon fill="#ffffff" stroke="transparent" points="-4,4 -4,-91 323.5,-91 323.5,4 -4,4"/>
<!-- Node3 -->
<g id="node1" class="node">
<title>Node3</title>
<polygon fill="#bfbfbf" stroke="#000000" points="107.5,-56.5 107.5,-86.5 224.5,-86.5 224.5,-56.5 107.5,-56.5"/>
<text text-anchor="start" x="115.5" y="-74.5" font-family="Helvetica,sans-Serif" font-size="10.00" fill="#000000">incflo_godunov_ppm</text>
<text text-anchor="middle" x="166" y="-63.5" font-family="Helvetica,sans-Serif" font-size="10.00" fill="#000000">_nolim.H</text>
</g>
<!-- Node4 -->
<g id="node2" class="node">
<title>Node4</title>
<g id="a_node2"><a xlink:href="incflo__godunov__advection_8cpp.html" target="_top" xlink:title="incflo_godunov_advection.cpp">
<polygon fill="#ffffff" stroke="#000000" points="0,-.5 0,-19.5 164,-19.5 164,-.5 0,-.5"/>
<text text-anchor="middle" x="82" y="-7.5" font-family="Helvetica,sans-Serif" font-size="10.00" fill="#000000">incflo_godunov_advection.cpp</text>
</a>
</g>
</g>
<!-- Node3&#45;&gt;Node4 -->
<g id="edge1" class="edge">
<title>Node3&#45;&gt;Node4</title>
<path fill="none" stroke="#191970" d="M136.817,-50.1339C122.7524,-39.8366 106.5669,-27.9865 95.4495,-19.8469"/>
<polygon fill="#191970" stroke="#191970" points="135.0997,-53.2143 145.2359,-56.2977 139.2349,-47.5663 135.0997,-53.2143"/>
</g>
<!-- Node5 -->
<g id="node3" class="node">
<title>Node5</title>
<g id="a_node3"><a xlink:href="incflo__godunov__ppm_8cpp.html" target="_top" xlink:title="incflo_godunov_ppm.cpp">
<polygon fill="#ffffff" stroke="#000000" points="182.5,-.5 182.5,-19.5 319.5,-19.5 319.5,-.5 182.5,-.5"/>
<text text-anchor="middle" x="251" y="-7.5" font-family="Helvetica,sans-Serif" font-size="10.00" fill="#000000">incflo_godunov_ppm.cpp</text>
</a>
</g>
</g>
<!-- Node3&#45;&gt;Node5 -->
<g id="edge2" class="edge">
<title>Node3&#45;&gt;Node5</title>
<path fill="none" stroke="#191970" d="M195.1282,-50.4249C209.453,-40.0605 226.0345,-28.0633 237.3904,-19.8469"/>
<polygon fill="#191970" stroke="#191970" points="193.0614,-47.6002 187.0112,-56.2977 197.1647,-53.2715 193.0614,-47.6002"/>
</g>
</g>
</svg>
