<?xml version="1.0" encoding="UTF-8" standalone="no"?>
<!DOCTYPE svg PUBLIC "-//W3C//DTD SVG 1.1//EN"
 "http://www.w3.org/Graphics/SVG/1.1/DTD/svg11.dtd">
<!-- Generated by graphviz version 2.40.1 (20161225.0304)
 -->
<!-- Title: incflo_godunov_ppm.cpp Pages: 1 -->
<!--zoomable 341 -->
<svg id="main" version="1.1" xmlns="http://www.w3.org/2000/svg" xmlns:xlink="http://www.w3.org/1999/xlink" xml:space="preserve" onload="init(evt)">
<style type="text/css"><![CDATA[
.edge:hover path { stroke: red; }
.edge:hover polygon { stroke: red; fill: red; }
]]></style>
<script type="text/javascript"><![CDATA[
var edges = document.getElementsByTagName('g');
if (edges && edges.length) {
  for (var i=0;i<edges.length;i++) {
    if (edges[i].id.substr(0,4)=='edge') {
      edges[i].setAttribute('class','edge');
    }
  }
}
]]></script>
        <defs>
                <circle id="rim" cx="0" cy="0" r="7"/>
                <circle id="rim2" cx="0" cy="0" r="3.5"/>
                <g id="zoomPlus">
                        <use xlink:href="#rim" fill="#404040">
                                <set attributeName="fill" to="#808080" begin="zoomplus.mouseover" end="zoomplus.mouseout"/>
                        </use>
                        <path d="M-4,0h8M0,-4v8" fill="none" stroke="white" stroke-width="1.5" pointer-events="none"/>
                </g>
                <g id="zoomMin">
                        <use xlink:href="#rim" fill="#404040">
                                <set attributeName="fill" to="#808080" begin="zoomminus.mouseover" end="zoomminus.mouseout"/>
                        </use>
                        <path d="M-4,0h8" fill="none" stroke="white" stroke-width="1.5" pointer-events="none"/>
                </g>
                <g id="dirArrow">
                        <path fill="none" stroke="white" stroke-width="1.5" d="M0,-3.0v7 M-2.5,-0.5L0,-3.0L2.5,-0.5"/>
                </g>
               <g id="resetDef">
                       <use xlink:href="#rim2" fill="#404040">
                               <set attributeName="fill" to="#808080" begin="reset.mouseover" end="reset.mouseout"/>
                       </use>
               </g>
        </defs>

<script type="text/javascript">
var viewWidth = 1694;
var viewHeight = 341;
var sectionId = 'dynsection-0';
</script>
<script xlink:href="svgpan.js"/>
<svg id="graph" class="graph">
<g id="viewport">
<title>incflo_godunov_ppm.cpp</title>
<polygon fill="#ffffff" stroke="transparent" points="-4,4 -4,-337 1689.6128,-337 1689.6128,4 -4,4"/>
<!-- Node0 -->
<g id="node1" class="node">
<title>Node0</title>
<polygon fill="#bfbfbf" stroke="#000000" points="141,-313.5 141,-332.5 278,-332.5 278,-313.5 141,-313.5"/>
<text text-anchor="middle" x="209.5" y="-320.5" font-family="Helvetica,sans-Serif" font-size="10.00" fill="#000000">incflo_godunov_ppm.cpp</text>
</g>
<!-- Node1 -->
<g id="node2" class="node">
<title>Node1</title>
<g id="a_node2"><a xlink:href="incflo__godunov__ppm_8_h.html" target="_top" xlink:title="amr&#45;wind/convection\l/incflo_godunov_ppm.H">
<polygon fill="#ffffff" stroke="#000000" points="0,-118 0,-148 131,-148 131,-118 0,-118"/>
<text text-anchor="start" x="8" y="-136" font-family="Helvetica,sans-Serif" font-size="10.00" fill="#000000">amr&#45;wind/convection</text>
<text text-anchor="middle" x="65.5" y="-125" font-family="Helvetica,sans-Serif" font-size="10.00" fill="#000000">/incflo_godunov_ppm.H</text>
</a>
</g>
</g>
<!-- Node0&#45;&gt;Node1 -->
<g id="edge1" class="edge">
<title>Node0&#45;&gt;Node1</title>
<path fill="none" stroke="#191970" d="M202.161,-313.3167C180.2308,-284.3809 114.7515,-197.9847 83.0637,-156.1743"/>
<polygon fill="#191970" stroke="#191970" points="85.8505,-154.0567 77.0208,-148.2011 80.2717,-158.2849 85.8505,-154.0567"/>
</g>
<!-- Node4 -->
<g id="node5" class="node">
<title>Node4</title>
<g id="a_node5"><a xlink:href="incflo__godunov__ppm__nolim_8_h.html" target="_top" xlink:title="amr&#45;wind/convection\l/incflo_godunov_ppm\l_nolim.H">
<polygon fill="#ffffff" stroke="#000000" points="149.5,-112.5 149.5,-153.5 269.5,-153.5 269.5,-112.5 149.5,-112.5"/>
<text text-anchor="start" x="157.5" y="-141.5" font-family="Helvetica,sans-Serif" font-size="10.00" fill="#000000">amr&#45;wind/convection</text>
<text text-anchor="start" x="157.5" y="-130.5" font-family="Helvetica,sans-Serif" font-size="10.00" fill="#000000">/incflo_godunov_ppm</text>
<text text-anchor="middle" x="209.5" y="-119.5" font-family="Helvetica,sans-Serif" font-size="10.00" fill="#000000">_nolim.H</text>
</a>
</g>
</g>
<!-- Node0&#45;&gt;Node4 -->
<g id="edge4" class="edge">
<title>Node0&#45;&gt;Node4</title>
<path fill="none" stroke="#191970" d="M209.5,-313.3167C209.5,-286.0707 209.5,-207.8796 209.5,-163.9352"/>
<polygon fill="#191970" stroke="#191970" points="213.0001,-163.8114 209.5,-153.8114 206.0001,-163.8115 213.0001,-163.8114"/>
</g>
<!-- Node5 -->
<g id="node6" class="node">
<title>Node5</title>
<g id="a_node6"><a xlink:href="_godunov_8_h.html" target="_top" xlink:title="amr&#45;wind/convection\l/Godunov.H">
<polygon fill="#ffffff" stroke="#000000" points="534,-246.5 534,-276.5 653,-276.5 653,-246.5 534,-246.5"/>
<text text-anchor="start" x="542" y="-264.5" font-family="Helvetica,sans-Serif" font-size="10.00" fill="#000000">amr&#45;wind/convection</text>
<text text-anchor="middle" x="593.5" y="-253.5" font-family="Helvetica,sans-Serif" font-size="10.00" fill="#000000">/Godunov.H</text>
</a>
</g>
</g>
<!-- Node0&#45;&gt;Node5 -->
<g id="edge7" class="edge">
<title>Node0&#45;&gt;Node5</title>
<path fill="none" stroke="#191970" d="M269.0787,-313.4581C337.8883,-302.4378 450.9402,-284.3318 523.7793,-272.6662"/>
<polygon fill="#191970" stroke="#191970" points="524.4609,-276.1017 533.7816,-271.0643 523.3539,-269.1898 524.4609,-276.1017"/>
</g>
<!-- Node2 -->
<g id="node3" class="node">
<title>Node2</title>
<polygon fill="#ffffff" stroke="#bfbfbf" points="22.5,-56.5 22.5,-75.5 108.5,-75.5 108.5,-56.5 22.5,-56.5"/>
<text text-anchor="middle" x="65.5" y="-63.5" font-family="Helvetica,sans-Serif" font-size="10.00" fill="#000000">AMReX_Gpu.H</text>
</g>
<!-- Node1&#45;&gt;Node2 -->
<g id="edge2" class="edge">
<title>Node1&#45;&gt;Node2</title>
<path fill="none" stroke="#191970" d="M65.5,-117.7967C65.5,-108.2699 65.5,-95.8954 65.5,-85.6306"/>
<polygon fill="#191970" stroke="#191970" points="69.0001,-85.5549 65.5,-75.555 62.0001,-85.555 69.0001,-85.5549"/>
</g>
<!-- Node3 -->
<g id="node4" class="node">
<title>Node3</title>
<polygon fill="#ffffff" stroke="#bfbfbf" points="127,-56.5 127,-75.5 224,-75.5 224,-56.5 127,-56.5"/>
<text text-anchor="middle" x="175.5" y="-63.5" font-family="Helvetica,sans-Serif" font-size="10.00" fill="#000000">AMReX_BCRec.H</text>
</g>
<!-- Node1&#45;&gt;Node3 -->
<g id="edge3" class="edge">
<title>Node1&#45;&gt;Node3</title>
<path fill="none" stroke="#191970" d="M90.1861,-117.9639C108.3102,-106.9247 132.8209,-91.9954 150.92,-80.9715"/>
<polygon fill="#191970" stroke="#191970" points="153.0126,-83.7951 159.7324,-75.6039 149.3712,-77.8167 153.0126,-83.7951"/>
</g>
<!-- Node4&#45;&gt;Node2 -->
<g id="edge5" class="edge">
<title>Node4&#45;&gt;Node2</title>
<path fill="none" stroke="#191970" d="M165.1203,-112.3511C142.5369,-101.8435 115.6804,-89.3478 95.5462,-79.9798"/>
<polygon fill="#191970" stroke="#191970" points="96.7934,-76.6999 86.2503,-75.6546 93.8404,-83.0465 96.7934,-76.6999"/>
</g>
<!-- Node4&#45;&gt;Node3 -->
<g id="edge6" class="edge">
<title>Node4&#45;&gt;Node3</title>
<path fill="none" stroke="#191970" d="M198.9286,-112.168C194.5011,-103.4433 189.3913,-93.374 185.0758,-84.87"/>
<polygon fill="#191970" stroke="#191970" points="188.1097,-83.1141 180.4632,-75.7805 181.8674,-86.2818 188.1097,-83.1141"/>
</g>
<!-- Node6 -->
<g id="node7" class="node">
<title>Node6</title>
<g id="a_node7"><a xlink:href="_field_repo_8_h.html" target="_top" xlink:title="amr&#45;wind/core/FieldRepo.H">
<polygon fill="#ffffff" stroke="#000000" points="817.5,-190.5 817.5,-209.5 963.5,-209.5 963.5,-190.5 817.5,-190.5"/>
<text text-anchor="middle" x="890.5" y="-197.5" font-family="Helvetica,sans-Serif" font-size="10.00" fill="#000000">amr&#45;wind/core/FieldRepo.H</text>
</a>
</g>
</g>
<!-- Node5&#45;&gt;Node6 -->
<g id="edge8" class="edge">
<title>Node5&#45;&gt;Node6</title>
<path fill="none" stroke="#191970" d="M653.2451,-249.1285C706.1273,-238.1782 782.7282,-222.3164 834.4626,-211.6037"/>
<polygon fill="#191970" stroke="#191970" points="835.3809,-214.9879 844.4635,-209.5328 833.9615,-208.1333 835.3809,-214.9879"/>
</g>
<!-- Node7 -->
<g id="node8" class="node">
<title>Node7</title>
<polygon fill="#ffffff" stroke="#bfbfbf" points="810.5,-.5 810.5,-19.5 854.5,-19.5 854.5,-.5 810.5,-.5"/>
<text text-anchor="middle" x="832.5" y="-7.5" font-family="Helvetica,sans-Serif" font-size="10.00" fill="#000000">string</text>
</g>
<!-- Node6&#45;&gt;Node7 -->
<g id="edge9" class="edge">
<title>Node6&#45;&gt;Node7</title>
<path fill="none" stroke="#191970" d="M835.712,-190.4948C814.8013,-183.9086 793.0035,-172.7814 780.5,-154 756.3631,-117.744 762.6097,-95.7118 780.5,-56 786.0697,-43.6369 796.7863,-33.2563 807.0506,-25.5033"/>
<polygon fill="#191970" stroke="#191970" points="809.2618,-28.2277 815.4433,-19.623 805.2451,-22.4948 809.2618,-28.2277"/>
</g>
<!-- Node8 -->
<g id="node9" class="node">
<title>Node8</title>
<polygon fill="#ffffff" stroke="#bfbfbf" points="635,-56.5 635,-75.5 728,-75.5 728,-56.5 635,-56.5"/>
<text text-anchor="middle" x="681.5" y="-63.5" font-family="Helvetica,sans-Serif" font-size="10.00" fill="#000000">unordered_map</text>
</g>
<!-- Node6&#45;&gt;Node8 -->
<g id="edge10" class="edge">
<title>Node6&#45;&gt;Node8</title>
<path fill="none" stroke="#191970" d="M829.0681,-190.4278C800.6942,-183.7361 767.7733,-172.5436 742.5,-154 717.8674,-135.9264 699.7211,-104.789 689.8853,-84.8109"/>
<polygon fill="#191970" stroke="#191970" points="692.9333,-83.0677 685.5091,-75.5092 686.5993,-86.0478 692.9333,-83.0677"/>
</g>
<!-- Node9 -->
<g id="node10" class="node">
<title>Node9</title>
<g id="a_node10"><a xlink:href="_field_desc_types_8_h.html" target="_top" xlink:title="amr&#45;wind/core/FieldDescTypes.H">
<polygon fill="#ffffff" stroke="#000000" points="945.5,-.5 945.5,-19.5 1119.5,-19.5 1119.5,-.5 945.5,-.5"/>
<text text-anchor="middle" x="1032.5" y="-7.5" font-family="Helvetica,sans-Serif" font-size="10.00" fill="#000000">amr&#45;wind/core/FieldDescTypes.H</text>
</a>
</g>
</g>
<!-- Node6&#45;&gt;Node9 -->
<g id="edge11" class="edge">
<title>Node6&#45;&gt;Node9</title>
<path fill="none" stroke="#191970" d="M860.9315,-190.3976C844.0892,-183.2338 824.4206,-171.6009 814.5,-154 805.3343,-137.7385 806.8531,-129.0285 814.5,-112 837.9382,-59.8067 898.6693,-34.2659 950.0949,-21.7982"/>
<polygon fill="#191970" stroke="#191970" points="950.9451,-25.1941 959.9094,-19.5468 949.38,-18.3713 950.9451,-25.1941"/>
</g>
<!-- Node10 -->
<g id="node11" class="node">
<title>Node10</title>
<g id="a_node11"><a xlink:href="_field_utils_8_h.html" target="_top" xlink:title="amr&#45;wind/core/FieldUtils.H">
<polygon fill="#ffffff" stroke="#000000" points="1527,-56.5 1527,-75.5 1672,-75.5 1672,-56.5 1527,-56.5"/>
<text text-anchor="middle" x="1599.5" y="-63.5" font-family="Helvetica,sans-Serif" font-size="10.00" fill="#000000">amr&#45;wind/core/FieldUtils.H</text>
</a>
</g>
</g>
<!-- Node6&#45;&gt;Node10 -->
<g id="edge12" class="edge">
<title>Node6&#45;&gt;Node10</title>
<path fill="none" stroke="#191970" d="M963.6235,-196.0401C1047.5623,-190.5532 1189.0475,-178.4176 1308.5,-154 1402.6979,-134.7448 1510.1818,-98.3352 1564.3483,-78.9338"/>
<polygon fill="#191970" stroke="#191970" points="1565.6061,-82.2009 1573.8266,-75.5171 1563.2323,-75.6157 1565.6061,-82.2009"/>
</g>
<!-- Node11 -->
<g id="node12" class="node">
<title>Node11</title>
<polygon fill="#ffffff" stroke="#bfbfbf" points="1429,-.5 1429,-19.5 1536,-19.5 1536,-.5 1429,-.5"/>
<text text-anchor="middle" x="1482.5" y="-7.5" font-family="Helvetica,sans-Serif" font-size="10.00" fill="#000000">AMReX_MultiFab.H</text>
</g>
<!-- Node6&#45;&gt;Node11 -->
<g id="edge43" class="edge">
<title>Node6&#45;&gt;Node11</title>
<path fill="none" stroke="#191970" d="M963.8186,-197.4703C1063.0657,-193.1133 1245.3681,-181.8057 1398.5,-154 1526.8686,-130.6908 1602.4464,-179.79 1681.5,-76 1686.886,-68.9287 1687.0325,-62.9573 1681.5,-56 1672.9035,-45.1896 1601.0612,-30.4994 1546.1407,-20.656"/>
<polygon fill="#191970" stroke="#191970" points="1546.5592,-17.1757 1536.1018,-18.8765 1545.3374,-24.0683 1546.5592,-17.1757"/>
</g>
<!-- Node13 -->
<g id="node14" class="node">
<title>Node13</title>
<g id="a_node14"><a xlink:href="_field_8_h.html" target="_top" xlink:title="amr&#45;wind/core/Field.H">
<polygon fill="#ffffff" stroke="#000000" points="485.5,-123.5 485.5,-142.5 607.5,-142.5 607.5,-123.5 485.5,-123.5"/>
<text text-anchor="middle" x="546.5" y="-130.5" font-family="Helvetica,sans-Serif" font-size="10.00" fill="#000000">amr&#45;wind/core/Field.H</text>
</a>
</g>
</g>
<!-- Node6&#45;&gt;Node13 -->
<g id="edge16" class="edge">
<title>Node6&#45;&gt;Node13</title>
<path fill="none" stroke="#191970" d="M841.5785,-190.4717C779.385,-178.3584 672.1057,-157.4639 605.4615,-144.4838"/>
<polygon fill="#191970" stroke="#191970" points="606.0156,-141.026 595.5309,-142.5496 604.6773,-147.8969 606.0156,-141.026"/>
</g>
<!-- Node19 -->
<g id="node20" class="node">
<title>Node19</title>
<g id="a_node20"><a xlink:href="_int_field_8_h.html" target="_top" xlink:title="amr&#45;wind/core/IntField.H">
<polygon fill="#ffffff" stroke="#000000" points="823,-123.5 823,-142.5 958,-142.5 958,-123.5 823,-123.5"/>
<text text-anchor="middle" x="890.5" y="-130.5" font-family="Helvetica,sans-Serif" font-size="10.00" fill="#000000">amr&#45;wind/core/IntField.H</text>
</a>
</g>
</g>
<!-- Node6&#45;&gt;Node19 -->
<g id="edge31" class="edge">
<title>Node6&#45;&gt;Node19</title>
<path fill="none" stroke="#191970" d="M890.5,-190.4005C890.5,-180.649 890.5,-165.2597 890.5,-152.8695"/>
<polygon fill="#191970" stroke="#191970" points="894.0001,-152.5816 890.5,-142.5817 887.0001,-152.5817 894.0001,-152.5816"/>
</g>
<!-- Node20 -->
<g id="node21" class="node">
<title>Node20</title>
<polygon fill="#ffffff" stroke="#bfbfbf" points="898.5,-56.5 898.5,-75.5 1008.5,-75.5 1008.5,-56.5 898.5,-56.5"/>
<text text-anchor="middle" x="953.5" y="-63.5" font-family="Helvetica,sans-Serif" font-size="10.00" fill="#000000">AMReX_iMultiFab.H</text>
</g>
<!-- Node6&#45;&gt;Node20 -->
<g id="edge44" class="edge">
<title>Node6&#45;&gt;Node20</title>
<path fill="none" stroke="#191970" d="M963.5638,-193.0817C1015.2342,-186.5019 1078.1184,-174.4868 1094.5,-154 1106.1576,-139.4211 1105.463,-127.1082 1094.5,-112 1084.3492,-98.0111 1046.0694,-86.0439 1011.9542,-77.8249"/>
<polygon fill="#191970" stroke="#191970" points="1012.538,-74.3671 1002.0042,-75.5022 1010.9467,-81.1839 1012.538,-74.3671"/>
</g>
<!-- Node21 -->
<g id="node22" class="node">
<title>Node21</title>
<g id="a_node22"><a xlink:href="_scratch_field_8_h.html" target="_top" xlink:title="amr&#45;wind/core/ScratchField.H">
<polygon fill="#ffffff" stroke="#000000" points="1141.5,-123.5 1141.5,-142.5 1299.5,-142.5 1299.5,-123.5 1141.5,-123.5"/>
<text text-anchor="middle" x="1220.5" y="-130.5" font-family="Helvetica,sans-Serif" font-size="10.00" fill="#000000">amr&#45;wind/core/ScratchField.H</text>
</a>
</g>
</g>
<!-- Node6&#45;&gt;Node21 -->
<g id="edge35" class="edge">
<title>Node6&#45;&gt;Node21</title>
<path fill="none" stroke="#191970" d="M941.9075,-190.4883C989.9743,-181.4844 1063.7142,-167.3886 1127.5,-154 1141.0543,-151.155 1155.6832,-147.9263 1169.2363,-144.8688"/>
<polygon fill="#191970" stroke="#191970" points="1170.3773,-148.199 1179.3551,-142.5732 1168.8285,-141.3724 1170.3773,-148.199"/>
</g>
<!-- Node23 -->
<g id="node24" class="node">
<title>Node23</title>
<polygon fill="#ffffff" stroke="#bfbfbf" points="976,-123.5 976,-142.5 1085,-142.5 1085,-123.5 976,-123.5"/>
<text text-anchor="middle" x="1030.5" y="-130.5" font-family="Helvetica,sans-Serif" font-size="10.00" fill="#000000">AMReX_AmrCore.H</text>
</g>
<!-- Node6&#45;&gt;Node23 -->
<g id="edge42" class="edge">
<title>Node6&#45;&gt;Node23</title>
<path fill="none" stroke="#191970" d="M910.5586,-190.4005C934.3656,-179.0072 974.2539,-159.9178 1001.4396,-146.9075"/>
<polygon fill="#191970" stroke="#191970" points="1002.9693,-150.0556 1010.4786,-142.5817 999.9474,-143.7415 1002.9693,-150.0556"/>
</g>
<!-- Node10&#45;&gt;Node9 -->
<g id="edge13" class="edge">
<title>Node10&#45;&gt;Node9</title>
<path fill="none" stroke="#191970" d="M1526.8245,-58.8222C1425.7357,-48.8381 1242.4307,-30.7339 1129.6844,-19.5985"/>
<polygon fill="#191970" stroke="#191970" points="1129.9686,-16.1096 1119.673,-18.6097 1129.2806,-23.0757 1129.9686,-16.1096"/>
</g>
<!-- Node10&#45;&gt;Node11 -->
<g id="edge14" class="edge">
<title>Node10&#45;&gt;Node11</title>
<path fill="none" stroke="#191970" d="M1579.387,-56.3733C1560.6897,-47.4241 1532.6256,-33.9917 1511.5066,-23.8835"/>
<polygon fill="#191970" stroke="#191970" points="1512.8817,-20.6614 1502.3506,-19.5011 1509.8595,-26.9755 1512.8817,-20.6614"/>
</g>
<!-- Node12 -->
<g id="node13" class="node">
<title>Node12</title>
<polygon fill="#ffffff" stroke="#bfbfbf" points="1554.5,-.5 1554.5,-19.5 1676.5,-19.5 1676.5,-.5 1554.5,-.5"/>
<text text-anchor="middle" x="1615.5" y="-7.5" font-family="Helvetica,sans-Serif" font-size="10.00" fill="#000000">AMReX_Interpolater.H</text>
</g>
<!-- Node10&#45;&gt;Node12 -->
<g id="edge15" class="edge">
<title>Node10&#45;&gt;Node12</title>
<path fill="none" stroke="#191970" d="M1602.287,-56.2455C1604.3977,-48.8579 1607.366,-38.4689 1609.9547,-29.4087"/>
<polygon fill="#191970" stroke="#191970" points="1613.363,-30.2195 1612.745,-19.6427 1606.6323,-28.2964 1613.363,-30.2195"/>
</g>
<!-- Node13&#45;&gt;Node2 -->
<g id="edge23" class="edge">
<title>Node13&#45;&gt;Node2</title>
<path fill="none" stroke="#191970" d="M485.24,-125.9917C403.8832,-116.4327 255.4932,-98.1251 118.8326,-76.1439"/>
<polygon fill="#191970" stroke="#191970" points="119.0269,-72.6299 108.5961,-74.4869 117.9082,-79.5399 119.0269,-72.6299"/>
</g>
<!-- Node13&#45;&gt;Node3 -->
<g id="edge22" class="edge">
<title>Node13&#45;&gt;Node3</title>
<path fill="none" stroke="#191970" d="M493.7387,-123.4717C425.1913,-111.0925 305.8612,-89.5423 234.4202,-76.6406"/>
<polygon fill="#191970" stroke="#191970" points="234.7018,-73.1349 224.239,-74.8019 233.4577,-80.0235 234.7018,-73.1349"/>
</g>
<!-- Node13&#45;&gt;Node7 -->
<g id="edge17" class="edge">
<title>Node13&#45;&gt;Node7</title>
<path fill="none" stroke="#191970" d="M485.3389,-129.094C412.6767,-123.0298 297.9324,-108.4729 271.5,-76 265.8886,-69.1062 265.4769,-62.5372 271.5,-56 307.4627,-16.9678 686.3799,-11.0555 800.29,-10.1599"/>
<polygon fill="#191970" stroke="#191970" points="800.4909,-13.6586 810.4659,-10.0879 800.4414,-6.6588 800.4909,-13.6586"/>
</g>
<!-- Node13&#45;&gt;Node8 -->
<g id="edge19" class="edge">
<title>Node13&#45;&gt;Node8</title>
<path fill="none" stroke="#191970" d="M565.8422,-123.4005C588.6987,-112.0569 626.927,-93.0844 653.1334,-80.0783"/>
<polygon fill="#191970" stroke="#191970" points="654.7921,-83.1624 662.1937,-75.5817 651.6802,-76.8922 654.7921,-83.1624"/>
</g>
<!-- Node13&#45;&gt;Node9 -->
<g id="edge25" class="edge">
<title>Node13&#45;&gt;Node9</title>
<path fill="none" stroke="#191970" d="M553.1012,-123.3929C565.3423,-106.4514 593.3552,-71.5859 626.5,-56 653.7735,-43.175 823.757,-27.1058 934.9563,-17.7516"/>
<polygon fill="#191970" stroke="#191970" points="935.5193,-21.2168 945.1927,-16.8955 934.9358,-14.2412 935.5193,-21.2168"/>
</g>
<!-- Node13&#45;&gt;Node11 -->
<g id="edge21" class="edge">
<title>Node13&#45;&gt;Node11</title>
<path fill="none" stroke="#191970" d="M607.5637,-128.1871C778.4385,-114.7086 1249.5277,-77.4727 1257.5,-76 1275.7114,-72.6359 1381.7204,-40.7059 1441.5067,-22.5209"/>
<polygon fill="#191970" stroke="#191970" points="1442.8458,-25.7719 1451.3928,-19.511 1440.8069,-19.0754 1442.8458,-25.7719"/>
</g>
<!-- Node14 -->
<g id="node15" class="node">
<title>Node14</title>
<polygon fill="#ffffff" stroke="#bfbfbf" points="438.5,-56.5 438.5,-75.5 496.5,-75.5 496.5,-56.5 438.5,-56.5"/>
<text text-anchor="middle" x="467.5" y="-63.5" font-family="Helvetica,sans-Serif" font-size="10.00" fill="#000000">memory</text>
</g>
<!-- Node13&#45;&gt;Node14 -->
<g id="edge18" class="edge">
<title>Node13&#45;&gt;Node14</title>
<path fill="none" stroke="#191970" d="M535.1812,-123.4005C522.5099,-112.6539 501.7652,-95.0603 486.5773,-82.1794"/>
<polygon fill="#191970" stroke="#191970" points="488.6882,-79.3805 478.7978,-75.5817 484.1605,-84.7191 488.6882,-79.3805"/>
</g>
<!-- Node15 -->
<g id="node16" class="node">
<title>Node15</title>
<polygon fill="#ffffff" stroke="#bfbfbf" points="514.5,-56.5 514.5,-75.5 578.5,-75.5 578.5,-56.5 514.5,-56.5"/>
<text text-anchor="middle" x="546.5" y="-63.5" font-family="Helvetica,sans-Serif" font-size="10.00" fill="#000000">algorithm</text>
</g>
<!-- Node13&#45;&gt;Node15 -->
<g id="edge20" class="edge">
<title>Node13&#45;&gt;Node15</title>
<path fill="none" stroke="#191970" d="M546.5,-123.4005C546.5,-113.649 546.5,-98.2597 546.5,-85.8695"/>
<polygon fill="#191970" stroke="#191970" points="550.0001,-85.5816 546.5,-75.5817 543.0001,-85.5817 550.0001,-85.5816"/>
</g>
<!-- Node16 -->
<g id="node17" class="node">
<title>Node16</title>
<g id="a_node17"><a xlink:href="incflo__enums_8_h.html" target="_top" xlink:title="amr&#45;wind/incflo_enums.H">
<polygon fill="#ffffff" stroke="#000000" points="280.5,-56.5 280.5,-75.5 420.5,-75.5 420.5,-56.5 280.5,-56.5"/>
<text text-anchor="middle" x="350.5" y="-63.5" font-family="Helvetica,sans-Serif" font-size="10.00" fill="#000000">amr&#45;wind/incflo_enums.H</text>
</a>
</g>
</g>
<!-- Node13&#45;&gt;Node16 -->
<g id="edge24" class="edge">
<title>Node13&#45;&gt;Node16</title>
<path fill="none" stroke="#191970" d="M518.418,-123.4005C484.2149,-111.7086 426.3028,-91.9122 388.2303,-78.8976"/>
<polygon fill="#191970" stroke="#191970" points="389.1245,-75.5045 378.5299,-75.5817 386.8602,-82.1282 389.1245,-75.5045"/>
</g>
<!-- Node17 -->
<g id="node18" class="node">
<title>Node17</title>
<g id="a_node18"><a xlink:href="_view_field_8_h.html" target="_top" xlink:title="amr&#45;wind/core/ViewField.H">
<polygon fill="#ffffff" stroke="#000000" points="1102.5,-56.5 1102.5,-75.5 1248.5,-75.5 1248.5,-56.5 1102.5,-56.5"/>
<text text-anchor="middle" x="1175.5" y="-63.5" font-family="Helvetica,sans-Serif" font-size="10.00" fill="#000000">amr&#45;wind/core/ViewField.H</text>
</a>
</g>
</g>
<!-- Node13&#45;&gt;Node17 -->
<g id="edge26" class="edge">
<title>Node13&#45;&gt;Node17</title>
<path fill="none" stroke="#191970" d="M607.6693,-126.4844C720.9876,-114.4139 963.672,-88.5636 1091.9924,-74.8951"/>
<polygon fill="#191970" stroke="#191970" points="1092.5881,-78.3515 1102.1611,-73.8119 1091.8466,-71.3909 1092.5881,-78.3515"/>
</g>
<!-- Node17&#45;&gt;Node7 -->
<g id="edge27" class="edge">
<title>Node17&#45;&gt;Node7</title>
<path fill="none" stroke="#191970" d="M1116.9259,-56.4369C1044.1548,-44.5559 922.5521,-24.7024 864.8194,-15.2766"/>
<polygon fill="#191970" stroke="#191970" points="865.2422,-11.7994 854.8089,-13.6423 864.1142,-18.7079 865.2422,-11.7994"/>
</g>
<!-- Node17&#45;&gt;Node9 -->
<g id="edge28" class="edge">
<title>Node17&#45;&gt;Node9</title>
<path fill="none" stroke="#191970" d="M1150.9174,-56.3733C1127.5504,-47.2226 1092.2138,-33.3844 1066.2216,-23.2057"/>
<polygon fill="#191970" stroke="#191970" points="1067.3495,-19.8886 1056.7618,-19.5011 1064.797,-26.4066 1067.3495,-19.8886"/>
</g>
<!-- Node17&#45;&gt;Node11 -->
<g id="edge29" class="edge">
<title>Node17&#45;&gt;Node11</title>
<path fill="none" stroke="#191970" d="M1227.9264,-56.4369C1281.2397,-46.712 1363.8357,-31.6456 1420.3956,-21.3285"/>
<polygon fill="#191970" stroke="#191970" points="1421.0803,-24.7614 1430.2899,-19.5237 1419.8241,-17.8751 1421.0803,-24.7614"/>
</g>
<!-- Node18 -->
<g id="node19" class="node">
<title>Node18</title>
<polygon fill="#ffffff" stroke="#bfbfbf" points="1168.5,-.5 1168.5,-19.5 1264.5,-19.5 1264.5,-.5 1168.5,-.5"/>
<text text-anchor="middle" x="1216.5" y="-7.5" font-family="Helvetica,sans-Serif" font-size="10.00" fill="#000000">AMReX_Vector.H</text>
</g>
<!-- Node17&#45;&gt;Node18 -->
<g id="edge30" class="edge">
<title>Node17&#45;&gt;Node18</title>
<path fill="none" stroke="#191970" d="M1182.6417,-56.2455C1188.3444,-48.4564 1196.49,-37.3308 1203.3625,-27.9439"/>
<polygon fill="#191970" stroke="#191970" points="1206.3568,-29.7789 1209.4402,-19.6427 1200.7087,-25.6437 1206.3568,-29.7789"/>
</g>
<!-- Node19&#45;&gt;Node7 -->
<g id="edge32" class="edge">
<title>Node19&#45;&gt;Node7</title>
<path fill="none" stroke="#191970" d="M883.89,-123.2253C876.5647,-112.1159 864.7043,-93.2786 856.5,-76 849.2373,-60.7045 842.7915,-42.5812 838.4136,-29.1994"/>
<polygon fill="#191970" stroke="#191970" points="841.736,-28.0975 835.3699,-19.6286 835.0652,-30.219 841.736,-28.0975"/>
</g>
<!-- Node19&#45;&gt;Node9 -->
<g id="edge33" class="edge">
<title>Node19&#45;&gt;Node9</title>
<path fill="none" stroke="#191970" d="M887.0315,-123.3847C882.0185,-107.6378 874.8542,-76.0961 889.5,-56 899.7403,-41.9488 938.1072,-30.0556 972.523,-21.8843"/>
<polygon fill="#191970" stroke="#191970" points="973.607,-25.2265 982.5685,-19.5748 972.0385,-18.4045 973.607,-25.2265"/>
</g>
<!-- Node19&#45;&gt;Node20 -->
<g id="edge34" class="edge">
<title>Node19&#45;&gt;Node20</title>
<path fill="none" stroke="#191970" d="M899.5264,-123.4005C909.4442,-112.853 925.5641,-95.7096 937.6091,-82.8998"/>
<polygon fill="#191970" stroke="#191970" points="940.1899,-85.2645 944.4904,-75.5817 935.0903,-80.4693 940.1899,-85.2645"/>
</g>
<!-- Node21&#45;&gt;Node7 -->
<g id="edge36" class="edge">
<title>Node21&#45;&gt;Node7</title>
<path fill="none" stroke="#191970" d="M1193.967,-123.4808C1163.1978,-112.3721 1111.0031,-93.3128 1066.5,-76 1044.5784,-67.472 1039.8601,-63.3013 1017.5,-56 964.9554,-38.8426 902.2306,-24.4935 864.9728,-16.591"/>
<polygon fill="#191970" stroke="#191970" points="865.2234,-13.0675 854.7182,-14.4427 863.788,-19.9188 865.2234,-13.0675"/>
</g>
<!-- Node21&#45;&gt;Node9 -->
<g id="edge37" class="edge">
<title>Node21&#45;&gt;Node9</title>
<path fill="none" stroke="#191970" d="M1190.4737,-123.4109C1163.5393,-113.9392 1123.7192,-97.7251 1093.5,-76 1074.6157,-62.4238 1057.0414,-42.2808 1045.6542,-27.8213"/>
<polygon fill="#191970" stroke="#191970" points="1048.2654,-25.4745 1039.4071,-19.6623 1042.7074,-29.73 1048.2654,-25.4745"/>
</g>
<!-- Node21&#45;&gt;Node11 -->
<g id="edge39" class="edge">
<title>Node21&#45;&gt;Node11</title>
<path fill="none" stroke="#191970" d="M1299.5557,-126.0553C1366.9993,-118.336 1456.5927,-103.2077 1479.5,-76 1490.0965,-63.4143 1489.7603,-44.2122 1487.416,-29.7592"/>
<polygon fill="#191970" stroke="#191970" points="1490.8158,-28.9149 1485.3797,-19.8209 1483.9583,-30.32 1490.8158,-28.9149"/>
</g>
<!-- Node21&#45;&gt;Node17 -->
<g id="edge38" class="edge">
<title>Node21&#45;&gt;Node17</title>
<path fill="none" stroke="#191970" d="M1214.0526,-123.4005C1207.1689,-113.1515 1196.1024,-96.6747 1187.588,-83.9976"/>
<polygon fill="#191970" stroke="#191970" points="1190.4165,-81.9316 1181.9354,-75.5817 1184.6056,-85.8345 1190.4165,-81.9316"/>
</g>
<!-- Node21&#45;&gt;Node18 -->
<g id="edge40" class="edge">
<title>Node21&#45;&gt;Node18</title>
<path fill="none" stroke="#191970" d="M1230.8597,-123.2664C1244.8509,-108.8801 1267.0042,-80.9473 1257.5,-56 1253.2725,-44.9034 1245.0029,-34.7814 1236.9912,-26.8751"/>
<polygon fill="#191970" stroke="#191970" points="1238.9607,-23.9323 1229.2248,-19.7534 1234.2297,-29.0916 1238.9607,-23.9323"/>
</g>
<!-- Node22 -->
<g id="node23" class="node">
<title>Node22</title>
<polygon fill="#ffffff" stroke="#bfbfbf" points="1342.5,-56.5 1342.5,-75.5 1470.5,-75.5 1470.5,-56.5 1342.5,-56.5"/>
<text text-anchor="middle" x="1406.5" y="-63.5" font-family="Helvetica,sans-Serif" font-size="10.00" fill="#000000">AMReX_PhysBCFunct.H</text>
</g>
<!-- Node21&#45;&gt;Node22 -->
<g id="edge41" class="edge">
<title>Node21&#45;&gt;Node22</title>
<path fill="none" stroke="#191970" d="M1247.1493,-123.4005C1279.4692,-111.7584 1334.0974,-92.0805 1370.2325,-79.0641"/>
<polygon fill="#191970" stroke="#191970" points="1371.6781,-82.2636 1379.9002,-75.5817 1369.3058,-75.6778 1371.6781,-82.2636"/>
</g>
</g>
</svg>
        <g id="navigator" transform="translate(0 0)" fill="#404254">
                <rect fill="#f2f5e9" fill-opacity="0.5" stroke="#606060" stroke-width=".5" x="0" y="0" width="60" height="60"/>
                <use id="zoomplus" xlink:href="#zoomPlus" x="17" y="9" onmousedown="handleZoom(evt,'in')"/>
                <use id="zoomminus" xlink:href="#zoomMin" x="42" y="9" onmousedown="handleZoom(evt,'out')"/>
                <use id="reset" xlink:href="#resetDef" x="30" y="36" onmousedown="handleReset()"/>
                <g id="arrowUp" xlink:href="#dirArrow" transform="translate(30 24)" onmousedown="handlePan(0,-1)">
                  <use xlink:href="#rim" fill="#404040">
                        <set attributeName="fill" to="#808080" begin="arrowUp.mouseover" end="arrowUp.mouseout"/>
                  </use>
                  <path fill="none" stroke="white" stroke-width="1.5" d="M0,-3.0v7 M-2.5,-0.5L0,-3.0L2.5,-0.5"/>
                </g>
                <g id="arrowRight" xlink:href="#dirArrow" transform="rotate(90) translate(36 -43)" onmousedown="handlePan(1,0)">
                  <use xlink:href="#rim" fill="#404040">
                        <set attributeName="fill" to="#808080" begin="arrowRight.mouseover" end="arrowRight.mouseout"/>
                  </use>
                  <path fill="none" stroke="white" stroke-width="1.5" d="M0,-3.0v7 M-2.5,-0.5L0,-3.0L2.5,-0.5"/>
                </g>
                <g id="arrowDown" xlink:href="#dirArrow" transform="rotate(180) translate(-30 -48)" onmousedown="handlePan(0,1)">
                  <use xlink:href="#rim" fill="#404040">
                        <set attributeName="fill" to="#808080" begin="arrowDown.mouseover" end="arrowDown.mouseout"/>
                  </use>
                  <path fill="none" stroke="white" stroke-width="1.5" d="M0,-3.0v7 M-2.5,-0.5L0,-3.0L2.5,-0.5"/>
                </g>
                <g id="arrowLeft" xlink:href="#dirArrow" transform="rotate(270) translate(-36 17)" onmousedown="handlePan(-1,0)">
                  <use xlink:href="#rim" fill="#404040">
                        <set attributeName="fill" to="#808080" begin="arrowLeft.mouseover" end="arrowLeft.mouseout"/>
                  </use>
                  <path fill="none" stroke="white" stroke-width="1.5" d="M0,-3.0v7 M-2.5,-0.5L0,-3.0L2.5,-0.5"/>
                </g>
        </g>
        <svg viewBox="0 0 15 15" width="100%" height="30px" preserveAspectRatio="xMaxYMin meet">
         <g id="arrow_out" transform="scale(0.3 0.3)">
          <a xlink:href="incflo__godunov__ppm_8cpp__incl_org.svg" target="_base">
           <rect id="button" ry="5" rx="5" y="6" x="6" height="38" width="38"
                fill="#f2f5e9" fill-opacity="0.5" stroke="#606060" stroke-width="1.0"/>
           <path id="arrow"
             d="M 11.500037,31.436501 C 11.940474,20.09759 22.043105,11.32322 32.158766,21.979434 L 37.068811,17.246167 C 37.068811,17.246167 37.088388,32 37.088388,32 L 22.160133,31.978069 C 22.160133,31.978069 26.997745,27.140456 26.997745,27.140456 C 18.528582,18.264221 13.291696,25.230495 11.500037,31.436501 z"
             style="fill:#404040;"/>
          </a>
         </g>
        </svg>
</svg>
