<?xml version="1.0" encoding="UTF-8" standalone="no"?>
<!DOCTYPE svg PUBLIC "-//W3C//DTD SVG 1.1//EN"
 "http://www.w3.org/Graphics/SVG/1.1/DTD/svg11.dtd">
<!-- Generated by graphviz version 2.40.1 (20161225.0304)
 -->
<!-- Title: incflo.H Pages: 1 -->
<!--zoomable 95 -->
<svg id="main" version="1.1" xmlns="http://www.w3.org/2000/svg" xmlns:xlink="http://www.w3.org/1999/xlink" xml:space="preserve" onload="init(evt)">
<style type="text/css"><![CDATA[
.edge:hover path { stroke: red; }
.edge:hover polygon { stroke: red; fill: red; }
]]></style>
<script type="text/javascript"><![CDATA[
var edges = document.getElementsByTagName('g');
if (edges && edges.length) {
  for (var i=0;i<edges.length;i++) {
    if (edges[i].id.substr(0,4)=='edge') {
      edges[i].setAttribute('class','edge');
    }
  }
}
]]></script>
        <defs>
                <circle id="rim" cx="0" cy="0" r="7"/>
                <circle id="rim2" cx="0" cy="0" r="3.5"/>
                <g id="zoomPlus">
                        <use xlink:href="#rim" fill="#404040">
                                <set attributeName="fill" to="#808080" begin="zoomplus.mouseover" end="zoomplus.mouseout"/>
                        </use>
                        <path d="M-4,0h8M0,-4v8" fill="none" stroke="white" stroke-width="1.5" pointer-events="none"/>
                </g>
                <g id="zoomMin">
                        <use xlink:href="#rim" fill="#404040">
                                <set attributeName="fill" to="#808080" begin="zoomminus.mouseover" end="zoomminus.mouseout"/>
                        </use>
                        <path d="M-4,0h8" fill="none" stroke="white" stroke-width="1.5" pointer-events="none"/>
                </g>
                <g id="dirArrow">
                        <path fill="none" stroke="white" stroke-width="1.5" d="M0,-3.0v7 M-2.5,-0.5L0,-3.0L2.5,-0.5"/>
                </g>
               <g id="resetDef">
                       <use xlink:href="#rim2" fill="#404040">
                               <set attributeName="fill" to="#808080" begin="reset.mouseover" end="reset.mouseout"/>
                       </use>
               </g>
        </defs>

<script type="text/javascript">
var viewWidth = 2007;
var viewHeight = 95;
var sectionId = 'dynsection-1';
</script>
<script xlink:href="svgpan.js"/>
<svg id="graph" class="graph">
<g id="viewport">
<title>incflo.H</title>
<polygon fill="#ffffff" stroke="transparent" points="-4,4 -4,-91 2002.5,-91 2002.5,4 -4,4"/>
<!-- Node40 -->
<g id="node1" class="node">
<title>Node40</title>
<polygon fill="#bfbfbf" stroke="#000000" points="955,-67.5 955,-86.5 1008,-86.5 1008,-67.5 955,-67.5"/>
<text text-anchor="middle" x="981.5" y="-74.5" font-family="Helvetica,sans-Serif" font-size="10.00" fill="#000000">incflo.H</text>
</g>
<!-- Node41 -->
<g id="node2" class="node">
<title>Node41</title>
<g id="a_node2"><a xlink:href="incflo__set__velocity__bcs_8cpp.html" target="_top" xlink:title="incflo_set_velocity\l_bcs.cpp">
<polygon fill="#ffffff" stroke="#000000" points="0,-.5 0,-30.5 107,-30.5 107,-.5 0,-.5"/>
<text text-anchor="start" x="8" y="-18.5" font-family="Helvetica,sans-Serif" font-size="10.00" fill="#000000">incflo_set_velocity</text>
<text text-anchor="middle" x="53.5" y="-7.5" font-family="Helvetica,sans-Serif" font-size="10.00" fill="#000000">_bcs.cpp</text>
</a>
</g>
</g>
<!-- Node40&#45;&gt;Node41 -->
<g id="edge1" class="edge">
<title>Node40&#45;&gt;Node41</title>
<path fill="none" stroke="#191970" d="M944.6912,-75.9658C801.3216,-71.7945 280.1318,-55.2595 116.5,-31 113.4917,-30.554 110.4172,-30.0297 107.3238,-29.4485"/>
<polygon fill="#191970" stroke="#191970" points="944.6365,-79.4656 954.7334,-76.2557 944.8385,-72.4685 944.6365,-79.4656"/>
</g>
<!-- Node42 -->
<g id="node3" class="node">
<title>Node42</title>
<g id="a_node3"><a xlink:href="derive_8cpp.html" target="_top" xlink:title="derive.cpp">
<polygon fill="#ffffff" stroke="#000000" points="125.5,-6 125.5,-25 193.5,-25 193.5,-6 125.5,-6"/>
<text text-anchor="middle" x="159.5" y="-13" font-family="Helvetica,sans-Serif" font-size="10.00" fill="#000000">derive.cpp</text>
</a>
</g>
</g>
<!-- Node40&#45;&gt;Node42 -->
<g id="edge2" class="edge">
<title>Node40&#45;&gt;Node42</title>
<path fill="none" stroke="#191970" d="M944.8379,-76.2271C810.7415,-73.184 347.2173,-60.7086 202.5,-31 195.8149,-29.6276 188.7686,-27.4281 182.3583,-25.112"/>
<polygon fill="#191970" stroke="#191970" points="944.9191,-79.7297 954.9947,-76.4537 945.0753,-72.7314 944.9191,-79.7297"/>
</g>
<!-- Node43 -->
<g id="node4" class="node">
<title>Node43</title>
<g id="a_node4"><a xlink:href="incflo__diffusion_8cpp.html" target="_top" xlink:title="incflo_diffusion.cpp">
<polygon fill="#ffffff" stroke="#000000" points="211.5,-6 211.5,-25 321.5,-25 321.5,-6 211.5,-6"/>
<text text-anchor="middle" x="266.5" y="-13" font-family="Helvetica,sans-Serif" font-size="10.00" fill="#000000">incflo_diffusion.cpp</text>
</a>
</g>
</g>
<!-- Node40&#45;&gt;Node43 -->
<g id="edge3" class="edge">
<title>Node40&#45;&gt;Node43</title>
<path fill="none" stroke="#191970" d="M944.8404,-76.5503C845.4059,-74.87 562.4822,-67.0289 330.5,-31 320.8976,-29.5087 310.6162,-27.2989 301.1652,-25.0121"/>
<polygon fill="#191970" stroke="#191970" points="944.9135,-80.0518 954.9676,-76.7105 945.0242,-73.0527 944.9135,-80.0518"/>
</g>
<!-- Node44 -->
<g id="node5" class="node">
<title>Node44</title>
<g id="a_node5"><a xlink:href="incflo_8cpp.html" target="_top" xlink:title="incflo.cpp">
<polygon fill="#ffffff" stroke="#000000" points="340,-6 340,-25 403,-25 403,-6 340,-6"/>
<text text-anchor="middle" x="371.5" y="-13" font-family="Helvetica,sans-Serif" font-size="10.00" fill="#000000">incflo.cpp</text>
</a>
</g>
</g>
<!-- Node40&#45;&gt;Node44 -->
<g id="edge4" class="edge">
<title>Node40&#45;&gt;Node44</title>
<path fill="none" stroke="#191970" d="M944.7292,-75.3762C835.5646,-70.3428 514.6184,-53.9487 412.5,-31 406.1149,-29.5651 399.3927,-27.345 393.2806,-25.0293"/>
<polygon fill="#191970" stroke="#191970" points="944.765,-78.8814 954.9142,-75.8411 945.0842,-71.8887 944.765,-78.8814"/>
</g>
<!-- Node45 -->
<g id="node6" class="node">
<title>Node45</title>
<g id="a_node6"><a xlink:href="incflo__advance_8cpp.html" target="_top" xlink:title="incflo_advance.cpp">
<polygon fill="#ffffff" stroke="#000000" points="421.5,-6 421.5,-25 531.5,-25 531.5,-6 421.5,-6"/>
<text text-anchor="middle" x="476.5" y="-13" font-family="Helvetica,sans-Serif" font-size="10.00" fill="#000000">incflo_advance.cpp</text>
</a>
</g>
</g>
<!-- Node40&#45;&gt;Node45 -->
<g id="edge5" class="edge">
<title>Node40&#45;&gt;Node45</title>
<path fill="none" stroke="#191970" d="M944.9946,-74.8492C869.1928,-70.0199 689.3857,-56.6757 540.5,-31 531.2619,-29.4069 521.3755,-27.244 512.204,-25.0399"/>
<polygon fill="#191970" stroke="#191970" points="944.7872,-78.343 954.9863,-75.4745 945.2245,-71.3566 944.7872,-78.343"/>
</g>
<!-- Node46 -->
<g id="node7" class="node">
<title>Node46</title>
<g id="a_node7"><a xlink:href="incflo__compute__dt_8cpp.html" target="_top" xlink:title="incflo_compute_dt.cpp">
<polygon fill="#ffffff" stroke="#000000" points="549.5,-6 549.5,-25 675.5,-25 675.5,-6 549.5,-6"/>
<text text-anchor="middle" x="612.5" y="-13" font-family="Helvetica,sans-Serif" font-size="10.00" fill="#000000">incflo_compute_dt.cpp</text>
</a>
</g>
</g>
<!-- Node40&#45;&gt;Node46 -->
<g id="edge6" class="edge">
<title>Node40&#45;&gt;Node46</title>
<path fill="none" stroke="#191970" d="M944.605,-71.9919C888.3358,-64.1948 777.7688,-48.247 684.5,-31 674.8186,-29.2098 664.4474,-27.0942 654.6772,-25.0109"/>
<polygon fill="#191970" stroke="#191970" points="944.4044,-75.4973 954.7887,-73.3961 945.3606,-68.5629 944.4044,-75.4973"/>
</g>
<!-- Node47 -->
<g id="node8" class="node">
<title>Node47</title>
<g id="a_node8"><a xlink:href="incflo__regrid_8cpp.html" target="_top" xlink:title="incflo_regrid.cpp">
<polygon fill="#ffffff" stroke="#000000" points="694,-6 694,-25 791,-25 791,-6 694,-6"/>
<text text-anchor="middle" x="742.5" y="-13" font-family="Helvetica,sans-Serif" font-size="10.00" fill="#000000">incflo_regrid.cpp</text>
</a>
</g>
</g>
<!-- Node40&#45;&gt;Node47 -->
<g id="edge7" class="edge">
<title>Node40&#45;&gt;Node47</title>
<path fill="none" stroke="#191970" d="M945.0673,-67.8803C908.4914,-58.692 850.5428,-44.0453 800.5,-31 793.2383,-29.107 785.4734,-27.0527 778.0627,-25.0777"/>
<polygon fill="#191970" stroke="#191970" points="944.2412,-71.2815 954.7925,-70.3213 945.9454,-64.4921 944.2412,-71.2815"/>
</g>
<!-- Node48 -->
<g id="node9" class="node">
<title>Node48</title>
<g id="a_node9"><a xlink:href="main_8cpp.html" target="_top" xlink:title="main.cpp">
<polygon fill="#ffffff" stroke="#000000" points="809.5,-6 809.5,-25 871.5,-25 871.5,-6 809.5,-6"/>
<text text-anchor="middle" x="840.5" y="-13" font-family="Helvetica,sans-Serif" font-size="10.00" fill="#000000">main.cpp</text>
</a>
</g>
</g>
<!-- Node40&#45;&gt;Node48 -->
<g id="edge8" class="edge">
<title>Node40&#45;&gt;Node48</title>
<path fill="none" stroke="#191970" d="M950.1884,-63.3428C923.5271,-51.7139 885.9069,-35.3051 862.3765,-25.0419"/>
<polygon fill="#191970" stroke="#191970" points="948.9034,-66.6007 959.4688,-67.3906 951.702,-60.1845 948.9034,-66.6007"/>
</g>
<!-- Node49 -->
<g id="node10" class="node">
<title>Node49</title>
<g id="a_node10"><a xlink:href="prob__bc_8cpp.html" target="_top" xlink:title="prob_bc.cpp">
<polygon fill="#ffffff" stroke="#000000" points="890,-6 890,-25 965,-25 965,-6 890,-6"/>
<text text-anchor="middle" x="927.5" y="-13" font-family="Helvetica,sans-Serif" font-size="10.00" fill="#000000">prob_bc.cpp</text>
</a>
</g>
</g>
<!-- Node40&#45;&gt;Node49 -->
<g id="edge9" class="edge">
<title>Node40&#45;&gt;Node49</title>
<path fill="none" stroke="#191970" d="M966.1995,-59.5744C956.4332,-48.4517 944.135,-34.4454 936.0565,-25.2449"/>
<polygon fill="#191970" stroke="#191970" points="963.8344,-62.1855 973.0625,-67.3906 969.0945,-57.5669 963.8344,-62.1855"/>
</g>
<!-- Node50 -->
<g id="node11" class="node">
<title>Node50</title>
<g id="a_node11"><a xlink:href="prob__init__fluid_8cpp.html" target="_top" xlink:title="prob_init_fluid.cpp">
<polygon fill="#ffffff" stroke="#000000" points="982.5,-6 982.5,-25 1088.5,-25 1088.5,-6 982.5,-6"/>
<text text-anchor="middle" x="1035.5" y="-13" font-family="Helvetica,sans-Serif" font-size="10.00" fill="#000000">prob_init_fluid.cpp</text>
</a>
</g>
</g>
<!-- Node40&#45;&gt;Node50 -->
<g id="edge10" class="edge">
<title>Node40&#45;&gt;Node50</title>
<path fill="none" stroke="#191970" d="M996.8005,-59.5744C1006.5668,-48.4517 1018.865,-34.4454 1026.9435,-25.2449"/>
<polygon fill="#191970" stroke="#191970" points="993.9055,-57.5669 989.9375,-67.3906 999.1656,-62.1855 993.9055,-57.5669"/>
</g>
<!-- Node51 -->
<g id="node12" class="node">
<title>Node51</title>
<g id="a_node12"><a xlink:href="incflo__apply__nodal__projection_8cpp.html" target="_top" xlink:title="incflo_apply_nodal\l_projection.cpp">
<polygon fill="#ffffff" stroke="#000000" points="1107,-.5 1107,-30.5 1214,-30.5 1214,-.5 1107,-.5"/>
<text text-anchor="start" x="1115" y="-18.5" font-family="Helvetica,sans-Serif" font-size="10.00" fill="#000000">incflo_apply_nodal</text>
<text text-anchor="middle" x="1160.5" y="-7.5" font-family="Helvetica,sans-Serif" font-size="10.00" fill="#000000">_projection.cpp</text>
</a>
</g>
</g>
<!-- Node40&#45;&gt;Node51 -->
<g id="edge11" class="edge">
<title>Node40&#45;&gt;Node51</title>
<path fill="none" stroke="#191970" d="M1017.9121,-64.4897C1046.5262,-54.6586 1086.4774,-40.9324 1116.8136,-30.5096"/>
<polygon fill="#191970" stroke="#191970" points="1016.6182,-61.2334 1008.2981,-67.7928 1018.8928,-67.8535 1016.6182,-61.2334"/>
</g>
<!-- Node52 -->
<g id="node13" class="node">
<title>Node52</title>
<g id="a_node13"><a xlink:href="init_8cpp.html" target="_top" xlink:title="init.cpp">
<polygon fill="#ffffff" stroke="#000000" points="1232,-6 1232,-25 1285,-25 1285,-6 1232,-6"/>
<text text-anchor="middle" x="1258.5" y="-13" font-family="Helvetica,sans-Serif" font-size="10.00" fill="#000000">init.cpp</text>
</a>
</g>
</g>
<!-- Node40&#45;&gt;Node52 -->
<g id="edge12" class="edge">
<title>Node40&#45;&gt;Node52</title>
<path fill="none" stroke="#191970" d="M1018.339,-72.6692C1066.341,-66.4238 1152.5233,-53.1401 1223.5,-31 1228.5753,-29.4168 1233.8965,-27.3095 1238.8143,-25.1602"/>
<polygon fill="#191970" stroke="#191970" points="1017.6054,-69.2342 1008.1261,-73.9663 1018.4874,-76.1784 1017.6054,-69.2342"/>
</g>
<!-- Node53 -->
<g id="node14" class="node">
<title>Node53</title>
<g id="a_node14"><a xlink:href="set__background__pressure_8cpp.html" target="_top" xlink:title="set_background_pressure.cpp">
<polygon fill="#ffffff" stroke="#000000" points="1303,-6 1303,-25 1464,-25 1464,-6 1303,-6"/>
<text text-anchor="middle" x="1383.5" y="-13" font-family="Helvetica,sans-Serif" font-size="10.00" fill="#000000">set_background_pressure.cpp</text>
</a>
</g>
</g>
<!-- Node40&#45;&gt;Node53 -->
<g id="edge13" class="edge">
<title>Node40&#45;&gt;Node53</title>
<path fill="none" stroke="#191970" d="M1018.5778,-71.8752C1077.2222,-63.6964 1194.9483,-46.9812 1294.5,-31 1305.9594,-29.1604 1318.2304,-27.0892 1329.8863,-25.074"/>
<polygon fill="#191970" stroke="#191970" points="1017.7549,-68.4559 1008.3328,-73.3009 1018.7198,-75.3891 1017.7549,-68.4559"/>
</g>
<!-- Node54 -->
<g id="node15" class="node">
<title>Node54</title>
<g id="a_node15"><a xlink:href="diagnostics_8cpp.html" target="_top" xlink:title="diagnostics.cpp">
<polygon fill="#ffffff" stroke="#000000" points="1482.5,-6 1482.5,-25 1574.5,-25 1574.5,-6 1482.5,-6"/>
<text text-anchor="middle" x="1528.5" y="-13" font-family="Helvetica,sans-Serif" font-size="10.00" fill="#000000">diagnostics.cpp</text>
</a>
</g>
</g>
<!-- Node40&#45;&gt;Node54 -->
<g id="edge14" class="edge">
<title>Node40&#45;&gt;Node54</title>
<path fill="none" stroke="#191970" d="M1018.223,-75.8422C1100.4243,-72.7557 1305.234,-62.3081 1473.5,-31 1481.6927,-29.4756 1490.4305,-27.2828 1498.4737,-25.0243"/>
<polygon fill="#191970" stroke="#191970" points="1018.0008,-72.3479 1008.1338,-76.2068 1018.2537,-79.3433 1018.0008,-72.3479"/>
</g>
<!-- Node55 -->
<g id="node16" class="node">
<title>Node55</title>
<g id="a_node16"><a xlink:href="_field_plane_averaging_8cpp.html" target="_top" xlink:title="FieldPlaneAveraging.cpp">
<polygon fill="#ffffff" stroke="#000000" points="1593,-6 1593,-25 1728,-25 1728,-6 1593,-6"/>
<text text-anchor="middle" x="1660.5" y="-13" font-family="Helvetica,sans-Serif" font-size="10.00" fill="#000000">FieldPlaneAveraging.cpp</text>
</a>
</g>
</g>
<!-- Node40&#45;&gt;Node55 -->
<g id="edge15" class="edge">
<title>Node40&#45;&gt;Node55</title>
<path fill="none" stroke="#191970" d="M1018.1821,-75.761C1112.4183,-72.2397 1370.5493,-60.4566 1583.5,-31 1594.7113,-29.4492 1606.7468,-27.2746 1617.8937,-25.0439"/>
<polygon fill="#191970" stroke="#191970" points="1017.8945,-72.2691 1008.0289,-76.1318 1018.1501,-79.2644 1017.8945,-72.2691"/>
</g>
<!-- Node56 -->
<g id="node17" class="node">
<title>Node56</title>
<g id="a_node17"><a xlink:href="io_8cpp.html" target="_top" xlink:title="io.cpp">
<polygon fill="#ffffff" stroke="#000000" points="1746.5,-6 1746.5,-25 1792.5,-25 1792.5,-6 1746.5,-6"/>
<text text-anchor="middle" x="1769.5" y="-13" font-family="Helvetica,sans-Serif" font-size="10.00" fill="#000000">io.cpp</text>
</a>
</g>
</g>
<!-- Node40&#45;&gt;Node56 -->
<g id="edge16" class="edge">
<title>Node40&#45;&gt;Node56</title>
<path fill="none" stroke="#191970" d="M1018.4693,-76.6455C1150.6411,-75.0841 1599.2298,-67.1795 1737.5,-31 1742.6358,-29.6562 1747.9324,-27.466 1752.702,-25.1497"/>
<polygon fill="#191970" stroke="#191970" points="1018.0462,-73.1499 1008.0864,-76.7626 1018.1252,-80.1495 1018.0462,-73.1499"/>
</g>
<!-- Node57 -->
<g id="node18" class="node">
<title>Node57</title>
<g id="a_node18"><a xlink:href="_plane_averaging_8cpp.html" target="_top" xlink:title="PlaneAveraging.cpp">
<polygon fill="#ffffff" stroke="#000000" points="1811,-6 1811,-25 1924,-25 1924,-6 1811,-6"/>
<text text-anchor="middle" x="1867.5" y="-13" font-family="Helvetica,sans-Serif" font-size="10.00" fill="#000000">PlaneAveraging.cpp</text>
</a>
</g>
</g>
<!-- Node40&#45;&gt;Node57 -->
<g id="edge17" class="edge">
<title>Node40&#45;&gt;Node57</title>
<path fill="none" stroke="#191970" d="M1018.1698,-75.7957C1156.5389,-71.1187 1646.9403,-53.3097 1801.5,-31 1811.5184,-29.5539 1822.2541,-27.3302 1832.0945,-25.0145"/>
<polygon fill="#191970" stroke="#191970" points="1017.9612,-72.3006 1008.0844,-76.1343 1018.1962,-79.2966 1017.9612,-72.3006"/>
</g>
<!-- Node58 -->
<g id="node19" class="node">
<title>Node58</title>
<g id="a_node19"><a xlink:href="_a_b_l_8cpp.html" target="_top" xlink:title="ABL.cpp">
<polygon fill="#ffffff" stroke="#000000" points="1942.5,-6 1942.5,-25 1998.5,-25 1998.5,-6 1942.5,-6"/>
<text text-anchor="middle" x="1970.5" y="-13" font-family="Helvetica,sans-Serif" font-size="10.00" fill="#000000">ABL.cpp</text>
</a>
</g>
</g>
<!-- Node40&#45;&gt;Node58 -->
<g id="edge18" class="edge">
<title>Node40&#45;&gt;Node58</title>
<path fill="none" stroke="#191970" d="M1018.5316,-75.9716C1183.0011,-71.3014 1843.187,-51.4325 1933.5,-31 1939.4777,-29.6476 1945.7178,-27.3934 1951.3335,-25.0173"/>
<polygon fill="#191970" stroke="#191970" points="1018.3236,-72.476 1008.4265,-76.2571 1018.5214,-79.4732 1018.3236,-72.476"/>
</g>
</g>
</svg>
        <g id="navigator" transform="translate(0 0)" fill="#404254">
                <rect fill="#f2f5e9" fill-opacity="0.5" stroke="#606060" stroke-width=".5" x="0" y="0" width="60" height="60"/>
                <use id="zoomplus" xlink:href="#zoomPlus" x="17" y="9" onmousedown="handleZoom(evt,'in')"/>
                <use id="zoomminus" xlink:href="#zoomMin" x="42" y="9" onmousedown="handleZoom(evt,'out')"/>
                <use id="reset" xlink:href="#resetDef" x="30" y="36" onmousedown="handleReset()"/>
                <g id="arrowUp" xlink:href="#dirArrow" transform="translate(30 24)" onmousedown="handlePan(0,-1)">
                  <use xlink:href="#rim" fill="#404040">
                        <set attributeName="fill" to="#808080" begin="arrowUp.mouseover" end="arrowUp.mouseout"/>
                  </use>
                  <path fill="none" stroke="white" stroke-width="1.5" d="M0,-3.0v7 M-2.5,-0.5L0,-3.0L2.5,-0.5"/>
                </g>
                <g id="arrowRight" xlink:href="#dirArrow" transform="rotate(90) translate(36 -43)" onmousedown="handlePan(1,0)">
                  <use xlink:href="#rim" fill="#404040">
                        <set attributeName="fill" to="#808080" begin="arrowRight.mouseover" end="arrowRight.mouseout"/>
                  </use>
                  <path fill="none" stroke="white" stroke-width="1.5" d="M0,-3.0v7 M-2.5,-0.5L0,-3.0L2.5,-0.5"/>
                </g>
                <g id="arrowDown" xlink:href="#dirArrow" transform="rotate(180) translate(-30 -48)" onmousedown="handlePan(0,1)">
                  <use xlink:href="#rim" fill="#404040">
                        <set attributeName="fill" to="#808080" begin="arrowDown.mouseover" end="arrowDown.mouseout"/>
                  </use>
                  <path fill="none" stroke="white" stroke-width="1.5" d="M0,-3.0v7 M-2.5,-0.5L0,-3.0L2.5,-0.5"/>
                </g>
                <g id="arrowLeft" xlink:href="#dirArrow" transform="rotate(270) translate(-36 17)" onmousedown="handlePan(-1,0)">
                  <use xlink:href="#rim" fill="#404040">
                        <set attributeName="fill" to="#808080" begin="arrowLeft.mouseover" end="arrowLeft.mouseout"/>
                  </use>
                  <path fill="none" stroke="white" stroke-width="1.5" d="M0,-3.0v7 M-2.5,-0.5L0,-3.0L2.5,-0.5"/>
                </g>
        </g>
        <svg viewBox="0 0 15 15" width="100%" height="30px" preserveAspectRatio="xMaxYMin meet">
         <g id="arrow_out" transform="scale(0.3 0.3)">
          <a xlink:href="incflo_8_h__dep__incl_org.svg" target="_base">
           <rect id="button" ry="5" rx="5" y="6" x="6" height="38" width="38"
                fill="#f2f5e9" fill-opacity="0.5" stroke="#606060" stroke-width="1.0"/>
           <path id="arrow"
             d="M 11.500037,31.436501 C 11.940474,20.09759 22.043105,11.32322 32.158766,21.979434 L 37.068811,17.246167 C 37.068811,17.246167 37.088388,32 37.088388,32 L 22.160133,31.978069 C 22.160133,31.978069 26.997745,27.140456 26.997745,27.140456 C 18.528582,18.264221 13.291696,25.230495 11.500037,31.436501 z"
             style="fill:#404040;"/>
          </a>
         </g>
        </svg>
</svg>
