<?xml version="1.0" encoding="UTF-8" standalone="no"?>
<!DOCTYPE svg PUBLIC "-//W3C//DTD SVG 1.1//EN"
 "http://www.w3.org/Graphics/SVG/1.1/DTD/svg11.dtd">
<!-- Generated by graphviz version 2.40.1 (20161225.0304)
 -->
<!-- Title: incflo_mol_predict.cpp Pages: 1 -->
<!--zoomable 330 -->
<svg id="main" version="1.1" xmlns="http://www.w3.org/2000/svg" xmlns:xlink="http://www.w3.org/1999/xlink" xml:space="preserve" onload="init(evt)">
<style type="text/css"><![CDATA[
.edge:hover path { stroke: red; }
.edge:hover polygon { stroke: red; fill: red; }
]]></style>
<script type="text/javascript"><![CDATA[
var edges = document.getElementsByTagName('g');
if (edges && edges.length) {
  for (var i=0;i<edges.length;i++) {
    if (edges[i].id.substr(0,4)=='edge') {
      edges[i].setAttribute('class','edge');
    }
  }
}
]]></script>
        <defs>
                <circle id="rim" cx="0" cy="0" r="7"/>
                <circle id="rim2" cx="0" cy="0" r="3.5"/>
                <g id="zoomPlus">
                        <use xlink:href="#rim" fill="#404040">
                                <set attributeName="fill" to="#808080" begin="zoomplus.mouseover" end="zoomplus.mouseout"/>
                        </use>
                        <path d="M-4,0h8M0,-4v8" fill="none" stroke="white" stroke-width="1.5" pointer-events="none"/>
                </g>
                <g id="zoomMin">
                        <use xlink:href="#rim" fill="#404040">
                                <set attributeName="fill" to="#808080" begin="zoomminus.mouseover" end="zoomminus.mouseout"/>
                        </use>
                        <path d="M-4,0h8" fill="none" stroke="white" stroke-width="1.5" pointer-events="none"/>
                </g>
                <g id="dirArrow">
                        <path fill="none" stroke="white" stroke-width="1.5" d="M0,-3.0v7 M-2.5,-0.5L0,-3.0L2.5,-0.5"/>
                </g>
               <g id="resetDef">
                       <use xlink:href="#rim2" fill="#404040">
                               <set attributeName="fill" to="#808080" begin="reset.mouseover" end="reset.mouseout"/>
                       </use>
               </g>
        </defs>

<script type="text/javascript">
var viewWidth = 1654;
var viewHeight = 330;
var sectionId = 'dynsection-0';
</script>
<script xlink:href="svgpan.js"/>
<svg id="graph" class="graph">
<g id="viewport">
<title>incflo_mol_predict.cpp</title>
<polygon fill="#ffffff" stroke="transparent" points="-4,4 -4,-326 1650.2955,-326 1650.2955,4 -4,4"/>
<!-- Node0 -->
<g id="node1" class="node">
<title>Node0</title>
<polygon fill="#bfbfbf" stroke="#000000" points="1022.5,-302.5 1022.5,-321.5 1148.5,-321.5 1148.5,-302.5 1022.5,-302.5"/>
<text text-anchor="middle" x="1085.5" y="-309.5" font-family="Helvetica,sans-Serif" font-size="10.00" fill="#000000">incflo_mol_predict.cpp</text>
</g>
<!-- Node1 -->
<g id="node2" class="node">
<title>Node1</title>
<g id="a_node2"><a xlink:href="incflo__convection___k_8_h.html" target="_top" xlink:title="amr&#45;wind/convection\l/incflo_convection_K.H">
<polygon fill="#ffffff" stroke="#000000" points="877,-235.5 877,-265.5 1004,-265.5 1004,-235.5 877,-235.5"/>
<text text-anchor="start" x="885" y="-253.5" font-family="Helvetica,sans-Serif" font-size="10.00" fill="#000000">amr&#45;wind/convection</text>
<text text-anchor="middle" x="940.5" y="-242.5" font-family="Helvetica,sans-Serif" font-size="10.00" fill="#000000">/incflo_convection_K.H</text>
</a>
</g>
</g>
<!-- Node0&#45;&gt;Node1 -->
<g id="edge1" class="edge">
<title>Node0&#45;&gt;Node1</title>
<path fill="none" stroke="#191970" d="M1062.8438,-302.3906C1042.2204,-293.6435 1011.1677,-280.4728 985.5082,-269.5897"/>
<polygon fill="#191970" stroke="#191970" points="986.5438,-266.2272 975.971,-265.5446 983.8105,-272.6715 986.5438,-266.2272"/>
</g>
<!-- Node3 -->
<g id="node4" class="node">
<title>Node3</title>
<g id="a_node4"><a xlink:href="_m_o_l_8_h.html" target="_top" xlink:title="amr&#45;wind/convection\l/MOL.H">
<polygon fill="#ffffff" stroke="#000000" points="1026,-235.5 1026,-265.5 1145,-265.5 1145,-235.5 1026,-235.5"/>
<text text-anchor="start" x="1034" y="-253.5" font-family="Helvetica,sans-Serif" font-size="10.00" fill="#000000">amr&#45;wind/convection</text>
<text text-anchor="middle" x="1085.5" y="-242.5" font-family="Helvetica,sans-Serif" font-size="10.00" fill="#000000">/MOL.H</text>
</a>
</g>
</g>
<!-- Node0&#45;&gt;Node3 -->
<g id="edge3" class="edge">
<title>Node0&#45;&gt;Node3</title>
<path fill="none" stroke="#191970" d="M1085.5,-302.3906C1085.5,-295.2234 1085.5,-285.0862 1085.5,-275.671"/>
<polygon fill="#191970" stroke="#191970" points="1089.0001,-275.5446 1085.5,-265.5446 1082.0001,-275.5446 1089.0001,-275.5446"/>
</g>
<!-- Node24 -->
<g id="node25" class="node">
<title>Node24</title>
<g id="a_node25"><a xlink:href="bc__ops_8_h.html" target="_top" xlink:title="Boundary condition utilities. ">
<polygon fill="#ffffff" stroke="#000000" points="1241.5,-168.5 1241.5,-198.5 1343.5,-198.5 1343.5,-168.5 1241.5,-168.5"/>
<text text-anchor="start" x="1249.5" y="-186.5" font-family="Helvetica,sans-Serif" font-size="10.00" fill="#000000">amr&#45;wind/utilities</text>
<text text-anchor="middle" x="1292.5" y="-175.5" font-family="Helvetica,sans-Serif" font-size="10.00" fill="#000000">/bc_ops.H</text>
</a>
</g>
</g>
<!-- Node0&#45;&gt;Node24 -->
<g id="edge41" class="edge">
<title>Node0&#45;&gt;Node24</title>
<path fill="none" stroke="#191970" d="M1101.0586,-302.3416C1134.5546,-281.5482 1214.1217,-232.1551 1259.4306,-204.0286"/>
<polygon fill="#191970" stroke="#191970" points="1261.3617,-206.9494 1268.0118,-198.7016 1257.6697,-201.0022 1261.3617,-206.9494"/>
</g>
<!-- Node2 -->
<g id="node3" class="node">
<title>Node2</title>
<polygon fill="#ffffff" stroke="#bfbfbf" points="878.5,-174 878.5,-193 994.5,-193 994.5,-174 878.5,-174"/>
<text text-anchor="middle" x="936.5" y="-181" font-family="Helvetica,sans-Serif" font-size="10.00" fill="#000000">AMReX_FArrayBox.H</text>
</g>
<!-- Node1&#45;&gt;Node2 -->
<g id="edge2" class="edge">
<title>Node1&#45;&gt;Node2</title>
<path fill="none" stroke="#191970" d="M939.5923,-235.2967C939.0236,-225.7699 938.2848,-213.3954 937.672,-203.1306"/>
<polygon fill="#191970" stroke="#191970" points="941.1603,-202.8286 937.0704,-193.055 934.1727,-203.2458 941.1603,-202.8286"/>
</g>
<!-- Node4 -->
<g id="node5" class="node">
<title>Node4</title>
<g id="a_node5"><a xlink:href="_field_repo_8_h.html" target="_top" xlink:title="amr&#45;wind/core/FieldRepo.H">
<polygon fill="#ffffff" stroke="#000000" points="1012.5,-174 1012.5,-193 1158.5,-193 1158.5,-174 1012.5,-174"/>
<text text-anchor="middle" x="1085.5" y="-181" font-family="Helvetica,sans-Serif" font-size="10.00" fill="#000000">amr&#45;wind/core/FieldRepo.H</text>
</a>
</g>
</g>
<!-- Node3&#45;&gt;Node4 -->
<g id="edge4" class="edge">
<title>Node3&#45;&gt;Node4</title>
<path fill="none" stroke="#191970" d="M1085.5,-235.2967C1085.5,-225.7699 1085.5,-213.3954 1085.5,-203.1306"/>
<polygon fill="#191970" stroke="#191970" points="1089.0001,-203.0549 1085.5,-193.055 1082.0001,-203.055 1089.0001,-203.0549"/>
</g>
<!-- Node5 -->
<g id="node6" class="node">
<title>Node5</title>
<polygon fill="#ffffff" stroke="#bfbfbf" points="1413.5,-.5 1413.5,-19.5 1457.5,-19.5 1457.5,-.5 1413.5,-.5"/>
<text text-anchor="middle" x="1435.5" y="-7.5" font-family="Helvetica,sans-Serif" font-size="10.00" fill="#000000">string</text>
</g>
<!-- Node4&#45;&gt;Node5 -->
<g id="edge5" class="edge">
<title>Node4&#45;&gt;Node5</title>
<path fill="none" stroke="#191970" d="M1158.7559,-175.5727C1182.2971,-173.0796 1208.4934,-170.3623 1232.5,-168 1276.2488,-163.695 1595.4476,-163.1166 1626.5,-132 1650.4114,-108.0391 1652.5245,-82.5301 1631.5,-56 1611.4356,-30.6814 1518.154,-17.9426 1467.8534,-12.8174"/>
<polygon fill="#191970" stroke="#191970" points="1468.1068,-9.3256 1457.814,-11.8375 1467.4267,-16.2925 1468.1068,-9.3256"/>
</g>
<!-- Node6 -->
<g id="node7" class="node">
<title>Node6</title>
<polygon fill="#ffffff" stroke="#bfbfbf" points="202,-56.5 202,-75.5 295,-75.5 295,-56.5 202,-56.5"/>
<text text-anchor="middle" x="248.5" y="-63.5" font-family="Helvetica,sans-Serif" font-size="10.00" fill="#000000">unordered_map</text>
</g>
<!-- Node4&#45;&gt;Node6 -->
<g id="edge6" class="edge">
<title>Node4&#45;&gt;Node6</title>
<path fill="none" stroke="#191970" d="M1039.2251,-173.9598C1027.5981,-171.7817 1015.1216,-169.631 1003.5,-168 831.1191,-143.8073 785.9754,-155.5089 613.5,-132 503.1211,-116.9551 375.2462,-92.1052 303.9245,-77.5719"/>
<polygon fill="#191970" stroke="#191970" points="304.3194,-74.0803 293.8208,-75.5049 302.9163,-80.9382 304.3194,-74.0803"/>
</g>
<!-- Node7 -->
<g id="node8" class="node">
<title>Node7</title>
<g id="a_node8"><a xlink:href="_field_desc_types_8_h.html" target="_top" xlink:title="amr&#45;wind/core/FieldDescTypes.H">
<polygon fill="#ffffff" stroke="#000000" points="773.5,-.5 773.5,-19.5 947.5,-19.5 947.5,-.5 773.5,-.5"/>
<text text-anchor="middle" x="860.5" y="-7.5" font-family="Helvetica,sans-Serif" font-size="10.00" fill="#000000">amr&#45;wind/core/FieldDescTypes.H</text>
</a>
</g>
</g>
<!-- Node4&#45;&gt;Node7 -->
<g id="edge7" class="edge">
<title>Node4&#45;&gt;Node7</title>
<path fill="none" stroke="#191970" d="M1045.9492,-173.9499C998.4078,-160.3744 919.6522,-130.8289 876.5,-76 866.1434,-62.8409 862.3536,-43.9677 861.032,-29.7714"/>
<polygon fill="#191970" stroke="#191970" points="864.5137,-29.3606 860.4228,-19.5875 857.5262,-29.7786 864.5137,-29.3606"/>
</g>
<!-- Node8 -->
<g id="node9" class="node">
<title>Node8</title>
<g id="a_node9"><a xlink:href="_field_utils_8_h.html" target="_top" xlink:title="amr&#45;wind/core/FieldUtils.H">
<polygon fill="#ffffff" stroke="#000000" points="0,-56.5 0,-75.5 145,-75.5 145,-56.5 0,-56.5"/>
<text text-anchor="middle" x="72.5" y="-63.5" font-family="Helvetica,sans-Serif" font-size="10.00" fill="#000000">amr&#45;wind/core/FieldUtils.H</text>
</a>
</g>
</g>
<!-- Node4&#45;&gt;Node8 -->
<g id="edge8" class="edge">
<title>Node4&#45;&gt;Node8</title>
<path fill="none" stroke="#191970" d="M1041.4198,-173.9594C1029.1935,-171.6436 1015.878,-169.4263 1003.5,-168 817.0079,-146.5105 336.1128,-195.6317 159.5,-132 131.2964,-121.8385 104.7416,-99.0495 88.5591,-83.1092"/>
<polygon fill="#191970" stroke="#191970" points="90.9944,-80.5939 81.4864,-75.9195 86.0042,-85.5029 90.9944,-80.5939"/>
</g>
<!-- Node9 -->
<g id="node10" class="node">
<title>Node9</title>
<polygon fill="#ffffff" stroke="#bfbfbf" points="270,-.5 270,-19.5 377,-19.5 377,-.5 270,-.5"/>
<text text-anchor="middle" x="323.5" y="-7.5" font-family="Helvetica,sans-Serif" font-size="10.00" fill="#000000">AMReX_MultiFab.H</text>
</g>
<!-- Node4&#45;&gt;Node9 -->
<g id="edge39" class="edge">
<title>Node4&#45;&gt;Node9</title>
<path fill="none" stroke="#191970" d="M1040.1091,-173.9406C1028.2388,-171.71 1015.4263,-169.5395 1003.5,-168 823.6143,-144.7799 308.2636,-215.631 192.5,-76 168.5491,-47.1111 215.5742,-29.6121 259.8023,-19.9624"/>
<polygon fill="#191970" stroke="#191970" points="260.672,-23.3568 269.7573,-17.9062 259.256,-16.5015 260.672,-23.3568"/>
</g>
<!-- Node11 -->
<g id="node12" class="node">
<title>Node11</title>
<g id="a_node12"><a xlink:href="_field_8_h.html" target="_top" xlink:title="amr&#45;wind/core/Field.H">
<polygon fill="#ffffff" stroke="#000000" points="622.5,-112.5 622.5,-131.5 744.5,-131.5 744.5,-112.5 622.5,-112.5"/>
<text text-anchor="middle" x="683.5" y="-119.5" font-family="Helvetica,sans-Serif" font-size="10.00" fill="#000000">amr&#45;wind/core/Field.H</text>
</a>
</g>
</g>
<!-- Node4&#45;&gt;Node11 -->
<g id="edge12" class="edge">
<title>Node4&#45;&gt;Node11</title>
<path fill="none" stroke="#191970" d="M1036.9999,-173.9663C1026.0015,-171.9063 1014.3619,-169.8064 1003.5,-168 918.2301,-153.8192 819.7408,-140.0522 754.7993,-131.3335"/>
<polygon fill="#191970" stroke="#191970" points="755.0477,-127.8357 744.6718,-129.9783 754.1192,-134.7738 755.0477,-127.8357"/>
</g>
<!-- Node19 -->
<g id="node20" class="node">
<title>Node19</title>
<g id="a_node20"><a xlink:href="_int_field_8_h.html" target="_top" xlink:title="amr&#45;wind/core/IntField.H">
<polygon fill="#ffffff" stroke="#000000" points="1482,-112.5 1482,-131.5 1617,-131.5 1617,-112.5 1482,-112.5"/>
<text text-anchor="middle" x="1549.5" y="-119.5" font-family="Helvetica,sans-Serif" font-size="10.00" fill="#000000">amr&#45;wind/core/IntField.H</text>
</a>
</g>
</g>
<!-- Node4&#45;&gt;Node19 -->
<g id="edge27" class="edge">
<title>Node4&#45;&gt;Node19</title>
<path fill="none" stroke="#191970" d="M1157.2368,-173.9918C1242.3896,-162.7054 1383.8716,-143.9529 1471.6275,-132.3215"/>
<polygon fill="#191970" stroke="#191970" points="1472.3384,-135.7579 1481.7918,-130.9743 1471.4186,-128.8186 1472.3384,-135.7579"/>
</g>
<!-- Node20 -->
<g id="node21" class="node">
<title>Node20</title>
<polygon fill="#ffffff" stroke="#bfbfbf" points="1463.5,-56.5 1463.5,-75.5 1573.5,-75.5 1573.5,-56.5 1463.5,-56.5"/>
<text text-anchor="middle" x="1518.5" y="-63.5" font-family="Helvetica,sans-Serif" font-size="10.00" fill="#000000">AMReX_iMultiFab.H</text>
</g>
<!-- Node4&#45;&gt;Node20 -->
<g id="edge40" class="edge">
<title>Node4&#45;&gt;Node20</title>
<path fill="none" stroke="#191970" d="M1101.5785,-173.9374C1132.8695,-155.3924 1199.9099,-116.0015 1211.5,-112 1233.8426,-104.2861 1369.7349,-85.5424 1453.0568,-74.5085"/>
<polygon fill="#191970" stroke="#191970" points="1453.7406,-77.9487 1463.1962,-73.1694 1452.824,-71.0089 1453.7406,-77.9487"/>
</g>
<!-- Node21 -->
<g id="node22" class="node">
<title>Node21</title>
<g id="a_node22"><a xlink:href="_scratch_field_8_h.html" target="_top" xlink:title="amr&#45;wind/core/ScratchField.H">
<polygon fill="#ffffff" stroke="#000000" points="1006.5,-112.5 1006.5,-131.5 1164.5,-131.5 1164.5,-112.5 1006.5,-112.5"/>
<text text-anchor="middle" x="1085.5" y="-119.5" font-family="Helvetica,sans-Serif" font-size="10.00" fill="#000000">amr&#45;wind/core/ScratchField.H</text>
</a>
</g>
</g>
<!-- Node4&#45;&gt;Node21 -->
<g id="edge31" class="edge">
<title>Node4&#45;&gt;Node21</title>
<path fill="none" stroke="#191970" d="M1085.5,-173.8906C1085.5,-165.3657 1085.5,-152.6392 1085.5,-141.9235"/>
<polygon fill="#191970" stroke="#191970" points="1089.0001,-141.7448 1085.5,-131.7449 1082.0001,-141.7449 1089.0001,-141.7448"/>
</g>
<!-- Node23 -->
<g id="node24" class="node">
<title>Node23</title>
<polygon fill="#ffffff" stroke="#bfbfbf" points="1221,-112.5 1221,-131.5 1330,-131.5 1330,-112.5 1221,-112.5"/>
<text text-anchor="middle" x="1275.5" y="-119.5" font-family="Helvetica,sans-Serif" font-size="10.00" fill="#000000">AMReX_AmrCore.H</text>
</g>
<!-- Node4&#45;&gt;Node23 -->
<g id="edge38" class="edge">
<title>Node4&#45;&gt;Node23</title>
<path fill="none" stroke="#191970" d="M1115.1875,-173.8906C1147.8146,-163.3298 1200.3626,-146.3208 1236.3425,-134.6747"/>
<polygon fill="#191970" stroke="#191970" points="1237.5848,-137.9514 1246.021,-131.5419 1235.4291,-131.2916 1237.5848,-137.9514"/>
</g>
<!-- Node8&#45;&gt;Node7 -->
<g id="edge9" class="edge">
<title>Node8&#45;&gt;Node7</title>
<path fill="none" stroke="#191970" d="M145.1452,-59.7771C160.7634,-58.4866 177.1787,-57.1659 192.5,-56 395.3578,-40.5638 633.0484,-24.7346 763.1391,-16.264"/>
<polygon fill="#191970" stroke="#191970" points="763.7169,-19.7339 773.4686,-15.5922 763.2625,-12.7487 763.7169,-19.7339"/>
</g>
<!-- Node8&#45;&gt;Node9 -->
<g id="edge10" class="edge">
<title>Node8&#45;&gt;Node9</title>
<path fill="none" stroke="#191970" d="M115.3632,-56.4369C158.4102,-46.8328 224.8073,-32.0191 270.991,-21.7152"/>
<polygon fill="#191970" stroke="#191970" points="271.8157,-25.1173 280.8135,-19.5237 270.2913,-18.2853 271.8157,-25.1173"/>
</g>
<!-- Node10 -->
<g id="node11" class="node">
<title>Node10</title>
<polygon fill="#ffffff" stroke="#bfbfbf" points="11.5,-.5 11.5,-19.5 133.5,-19.5 133.5,-.5 11.5,-.5"/>
<text text-anchor="middle" x="72.5" y="-7.5" font-family="Helvetica,sans-Serif" font-size="10.00" fill="#000000">AMReX_Interpolater.H</text>
</g>
<!-- Node8&#45;&gt;Node10 -->
<g id="edge11" class="edge">
<title>Node8&#45;&gt;Node10</title>
<path fill="none" stroke="#191970" d="M72.5,-56.2455C72.5,-48.9382 72.5,-38.6944 72.5,-29.7046"/>
<polygon fill="#191970" stroke="#191970" points="76.0001,-29.6426 72.5,-19.6427 69.0001,-29.6427 76.0001,-29.6426"/>
</g>
<!-- Node11&#45;&gt;Node5 -->
<g id="edge13" class="edge">
<title>Node11&#45;&gt;Node5</title>
<path fill="none" stroke="#191970" d="M744.576,-114.9879C815.7565,-106.6172 936.8618,-91.7597 1040.5,-76 1091.3559,-68.2666 1103.7834,-64.5997 1154.5,-56 1244.5541,-40.73 1350.9967,-23.5395 1403.2582,-15.1554"/>
<polygon fill="#191970" stroke="#191970" points="1403.945,-18.5901 1413.265,-13.5515 1402.8371,-11.6783 1403.945,-18.5901"/>
</g>
<!-- Node11&#45;&gt;Node6 -->
<g id="edge15" class="edge">
<title>Node11&#45;&gt;Node6</title>
<path fill="none" stroke="#191970" d="M622.18,-115.222C548.0124,-106.8476 419.4256,-91.764 309.5,-76 308.0393,-75.7905 306.5596,-75.5747 305.0671,-75.3538"/>
<polygon fill="#191970" stroke="#191970" points="305.5099,-71.881 295.0971,-73.8363 304.4565,-78.8013 305.5099,-71.881"/>
</g>
<!-- Node11&#45;&gt;Node7 -->
<g id="edge21" class="edge">
<title>Node11&#45;&gt;Node7</title>
<path fill="none" stroke="#191970" d="M700.6433,-112.4467C716.776,-103.356 741.523,-89.1513 762.5,-76 789.0254,-59.3702 818.7559,-39.1102 838.4415,-25.4595"/>
<polygon fill="#191970" stroke="#191970" points="840.5235,-28.2748 846.7318,-19.6894 836.5247,-22.5294 840.5235,-28.2748"/>
</g>
<!-- Node11&#45;&gt;Node9 -->
<g id="edge17" class="edge">
<title>Node11&#45;&gt;Node9</title>
<path fill="none" stroke="#191970" d="M622.3105,-117.3619C529.9064,-109.8228 363.2699,-93.9353 342.5,-76 329.4115,-64.6978 325.0549,-45.0186 323.7372,-30.0816"/>
<polygon fill="#191970" stroke="#191970" points="327.2185,-29.6152 323.2277,-19.8008 320.2271,-29.9618 327.2185,-29.6152"/>
</g>
<!-- Node12 -->
<g id="node13" class="node">
<title>Node12</title>
<polygon fill="#ffffff" stroke="#bfbfbf" points="351.5,-56.5 351.5,-75.5 409.5,-75.5 409.5,-56.5 351.5,-56.5"/>
<text text-anchor="middle" x="380.5" y="-63.5" font-family="Helvetica,sans-Serif" font-size="10.00" fill="#000000">memory</text>
</g>
<!-- Node11&#45;&gt;Node12 -->
<g id="edge14" class="edge">
<title>Node11&#45;&gt;Node12</title>
<path fill="none" stroke="#191970" d="M622.4301,-112.9178C570.8488,-104.9015 494.8371,-92.282 419.9729,-76.1901"/>
<polygon fill="#191970" stroke="#191970" points="420.4135,-72.7043 409.8984,-74.0017 418.9276,-79.5447 420.4135,-72.7043"/>
</g>
<!-- Node13 -->
<g id="node14" class="node">
<title>Node13</title>
<polygon fill="#ffffff" stroke="#bfbfbf" points="427.5,-56.5 427.5,-75.5 491.5,-75.5 491.5,-56.5 427.5,-56.5"/>
<text text-anchor="middle" x="459.5" y="-63.5" font-family="Helvetica,sans-Serif" font-size="10.00" fill="#000000">algorithm</text>
</g>
<!-- Node11&#45;&gt;Node13 -->
<g id="edge16" class="edge">
<title>Node11&#45;&gt;Node13</title>
<path fill="none" stroke="#191970" d="M645.2475,-112.4369C605.3063,-102.4516 542.8396,-86.8349 501.5404,-76.5101"/>
<polygon fill="#191970" stroke="#191970" points="502.3313,-73.1002 491.781,-74.0702 500.6335,-79.8912 502.3313,-73.1002"/>
</g>
<!-- Node14 -->
<g id="node15" class="node">
<title>Node14</title>
<polygon fill="#ffffff" stroke="#bfbfbf" points="1310,-56.5 1310,-75.5 1407,-75.5 1407,-56.5 1310,-56.5"/>
<text text-anchor="middle" x="1358.5" y="-63.5" font-family="Helvetica,sans-Serif" font-size="10.00" fill="#000000">AMReX_BCRec.H</text>
</g>
<!-- Node11&#45;&gt;Node14 -->
<g id="edge18" class="edge">
<title>Node11&#45;&gt;Node14</title>
<path fill="none" stroke="#191970" d="M744.5564,-119.4003C853.8159,-114.321 1090.1412,-101.3989 1299.8508,-75.9645"/>
<polygon fill="#191970" stroke="#191970" points="1300.3159,-79.4338 1309.8162,-74.7439 1299.4648,-72.4857 1300.3159,-79.4338"/>
</g>
<!-- Node15 -->
<g id="node16" class="node">
<title>Node15</title>
<polygon fill="#ffffff" stroke="#bfbfbf" points="509.5,-56.5 509.5,-75.5 595.5,-75.5 595.5,-56.5 509.5,-56.5"/>
<text text-anchor="middle" x="552.5" y="-63.5" font-family="Helvetica,sans-Serif" font-size="10.00" fill="#000000">AMReX_Gpu.H</text>
</g>
<!-- Node11&#45;&gt;Node15 -->
<g id="edge19" class="edge">
<title>Node11&#45;&gt;Node15</title>
<path fill="none" stroke="#191970" d="M660.9803,-112.3733C639.7628,-103.3032 607.7724,-89.6279 584.0231,-79.4755"/>
<polygon fill="#191970" stroke="#191970" points="585.2967,-76.2136 574.7258,-75.5011 582.5452,-82.6502 585.2967,-76.2136"/>
</g>
<!-- Node16 -->
<g id="node17" class="node">
<title>Node16</title>
<g id="a_node17"><a xlink:href="incflo__enums_8_h.html" target="_top" xlink:title="amr&#45;wind/incflo_enums.H">
<polygon fill="#ffffff" stroke="#000000" points="613.5,-56.5 613.5,-75.5 753.5,-75.5 753.5,-56.5 613.5,-56.5"/>
<text text-anchor="middle" x="683.5" y="-63.5" font-family="Helvetica,sans-Serif" font-size="10.00" fill="#000000">amr&#45;wind/incflo_enums.H</text>
</a>
</g>
</g>
<!-- Node11&#45;&gt;Node16 -->
<g id="edge20" class="edge">
<title>Node11&#45;&gt;Node16</title>
<path fill="none" stroke="#191970" d="M683.5,-112.2455C683.5,-104.9382 683.5,-94.6944 683.5,-85.7046"/>
<polygon fill="#191970" stroke="#191970" points="687.0001,-85.6426 683.5,-75.6427 680.0001,-85.6427 687.0001,-85.6426"/>
</g>
<!-- Node17 -->
<g id="node18" class="node">
<title>Node17</title>
<g id="a_node18"><a xlink:href="_view_field_8_h.html" target="_top" xlink:title="amr&#45;wind/core/ViewField.H">
<polygon fill="#ffffff" stroke="#000000" points="885.5,-56.5 885.5,-75.5 1031.5,-75.5 1031.5,-56.5 885.5,-56.5"/>
<text text-anchor="middle" x="958.5" y="-63.5" font-family="Helvetica,sans-Serif" font-size="10.00" fill="#000000">amr&#45;wind/core/ViewField.H</text>
</a>
</g>
</g>
<!-- Node11&#45;&gt;Node17 -->
<g id="edge22" class="edge">
<title>Node11&#45;&gt;Node17</title>
<path fill="none" stroke="#191970" d="M730.4617,-112.4369C777.9213,-102.7724 851.2866,-87.8326 901.9223,-77.5213"/>
<polygon fill="#191970" stroke="#191970" points="902.6315,-80.9488 911.732,-75.5237 901.2347,-74.0895 902.6315,-80.9488"/>
</g>
<!-- Node17&#45;&gt;Node5 -->
<g id="edge23" class="edge">
<title>Node17&#45;&gt;Node5</title>
<path fill="none" stroke="#191970" d="M1031.7254,-57.4033C1137.0166,-45.0421 1326.8541,-22.7551 1402.7989,-13.8391"/>
<polygon fill="#191970" stroke="#191970" points="1403.6302,-17.2657 1413.1539,-12.6234 1402.814,-10.3134 1403.6302,-17.2657"/>
</g>
<!-- Node17&#45;&gt;Node7 -->
<g id="edge24" class="edge">
<title>Node17&#45;&gt;Node7</title>
<path fill="none" stroke="#191970" d="M941.4297,-56.2455C926.253,-47.5731 903.8379,-34.7645 886.4437,-24.825"/>
<polygon fill="#191970" stroke="#191970" points="887.7936,-21.5653 877.3747,-19.6427 884.3206,-27.643 887.7936,-21.5653"/>
</g>
<!-- Node17&#45;&gt;Node9 -->
<g id="edge25" class="edge">
<title>Node17&#45;&gt;Node9</title>
<path fill="none" stroke="#191970" d="M885.4161,-57.4348C880.7084,-56.934 876.0387,-56.4512 871.5,-56 696.5245,-38.6042 489.6794,-22.4298 387.3853,-14.7231"/>
<polygon fill="#191970" stroke="#191970" points="387.4555,-11.2186 377.2213,-13.9593 386.9309,-18.1989 387.4555,-11.2186"/>
</g>
<!-- Node18 -->
<g id="node19" class="node">
<title>Node18</title>
<polygon fill="#ffffff" stroke="#bfbfbf" points="1006.5,-.5 1006.5,-19.5 1102.5,-19.5 1102.5,-.5 1006.5,-.5"/>
<text text-anchor="middle" x="1054.5" y="-7.5" font-family="Helvetica,sans-Serif" font-size="10.00" fill="#000000">AMReX_Vector.H</text>
</g>
<!-- Node17&#45;&gt;Node18 -->
<g id="edge26" class="edge">
<title>Node17&#45;&gt;Node18</title>
<path fill="none" stroke="#191970" d="M975.2219,-56.2455C990.0889,-47.5731 1012.0466,-34.7645 1029.0858,-24.825"/>
<polygon fill="#191970" stroke="#191970" points="1031.0955,-27.7047 1037.9697,-19.6427 1027.5683,-21.6582 1031.0955,-27.7047"/>
</g>
<!-- Node19&#45;&gt;Node5 -->
<g id="edge28" class="edge">
<title>Node19&#45;&gt;Node5</title>
<path fill="none" stroke="#191970" d="M1571.6763,-112.4557C1596.9253,-100.2398 1632.5952,-78.0134 1615.5,-56 1597.5216,-32.8493 1514.3397,-19.3845 1467.6026,-13.5215"/>
<polygon fill="#191970" stroke="#191970" points="1468.0154,-10.046 1457.6677,-12.3208 1467.1755,-16.9954 1468.0154,-10.046"/>
</g>
<!-- Node19&#45;&gt;Node7 -->
<g id="edge29" class="edge">
<title>Node19&#45;&gt;Node7</title>
<path fill="none" stroke="#191970" d="M1560.6752,-112.4448C1575.5647,-98.6037 1598.2968,-72.7988 1582.5,-56 1537.8877,-8.558 1062.4761,-24.3705 997.5,-20 984.7013,-19.1391 971.2327,-18.1985 957.9408,-17.2497"/>
<polygon fill="#191970" stroke="#191970" points="958.0498,-13.7486 947.8249,-16.5238 957.5487,-20.7307 958.0498,-13.7486"/>
</g>
<!-- Node19&#45;&gt;Node20 -->
<g id="edge30" class="edge">
<title>Node19&#45;&gt;Node20</title>
<path fill="none" stroke="#191970" d="M1544.1002,-112.2455C1539.8773,-104.617 1533.8827,-93.7881 1528.7559,-84.5267"/>
<polygon fill="#191970" stroke="#191970" points="1531.7432,-82.6965 1523.8379,-75.6427 1525.619,-86.0867 1531.7432,-82.6965"/>
</g>
<!-- Node21&#45;&gt;Node5 -->
<g id="edge32" class="edge">
<title>Node21&#45;&gt;Node5</title>
<path fill="none" stroke="#191970" d="M1164.7425,-113.1738C1259.619,-102.2844 1407.0343,-84.207 1416.5,-76 1429.5659,-64.6716 1433.9255,-44.9959 1435.25,-30.0668"/>
<polygon fill="#191970" stroke="#191970" points="1438.7599,-29.9553 1435.7652,-19.7925 1431.7687,-29.6047 1438.7599,-29.9553"/>
</g>
<!-- Node21&#45;&gt;Node7 -->
<g id="edge33" class="edge">
<title>Node21&#45;&gt;Node7</title>
<path fill="none" stroke="#191970" d="M1081.5748,-112.2751C1075.194,-97.7332 1061.1694,-70.486 1040.5,-56 1021.8153,-42.905 968.8061,-30.2344 925.1184,-21.5186"/>
<polygon fill="#191970" stroke="#191970" points="925.586,-18.0438 915.0996,-19.5556 924.24,-24.9132 925.586,-18.0438"/>
</g>
<!-- Node21&#45;&gt;Node9 -->
<g id="edge35" class="edge">
<title>Node21&#45;&gt;Node9</title>
<path fill="none" stroke="#191970" d="M1045.19,-112.4482C984.286,-98.3159 865.027,-71.8082 762.5,-56 629.6782,-35.5208 472.8179,-21.5128 387.1852,-14.7204"/>
<polygon fill="#191970" stroke="#191970" points="387.3452,-11.2223 377.1017,-13.9279 386.7967,-18.2008 387.3452,-11.2223"/>
</g>
<!-- Node21&#45;&gt;Node17 -->
<g id="edge34" class="edge">
<title>Node21&#45;&gt;Node17</title>
<path fill="none" stroke="#191970" d="M1063.6679,-112.3733C1043.1897,-103.3435 1012.3601,-89.7494 989.3681,-79.6111"/>
<polygon fill="#191970" stroke="#191970" points="990.6093,-76.3333 980.0472,-75.5011 987.785,-82.7383 990.6093,-76.3333"/>
</g>
<!-- Node21&#45;&gt;Node18 -->
<g id="edge36" class="edge">
<title>Node21&#45;&gt;Node18</title>
<path fill="none" stroke="#191970" d="M1094.2689,-112.4216C1105.0533,-99.4177 1120.8477,-75.5558 1111.5,-56 1105.3552,-43.1449 1093.6701,-32.7306 1082.4715,-25.0832"/>
<polygon fill="#191970" stroke="#191970" points="1084.0339,-21.9304 1073.71,-19.5495 1080.2959,-27.8488 1084.0339,-21.9304"/>
</g>
<!-- Node22 -->
<g id="node23" class="node">
<title>Node22</title>
<polygon fill="#ffffff" stroke="#bfbfbf" points="1163.5,-56.5 1163.5,-75.5 1291.5,-75.5 1291.5,-56.5 1163.5,-56.5"/>
<text text-anchor="middle" x="1227.5" y="-63.5" font-family="Helvetica,sans-Serif" font-size="10.00" fill="#000000">AMReX_PhysBCFunct.H</text>
</g>
<!-- Node21&#45;&gt;Node22 -->
<g id="edge37" class="edge">
<title>Node21&#45;&gt;Node22</title>
<path fill="none" stroke="#191970" d="M1109.9107,-112.3733C1133.1142,-103.2226 1168.2038,-89.3844 1194.0142,-79.2057"/>
<polygon fill="#191970" stroke="#191970" points="1195.3892,-82.4258 1203.4079,-75.5011 1192.8211,-75.9139 1195.3892,-82.4258"/>
</g>
<!-- Node24&#45;&gt;Node14 -->
<g id="edge42" class="edge">
<title>Node24&#45;&gt;Node14</title>
<path fill="none" stroke="#191970" d="M1309.8662,-168.3341C1319.8177,-158.7993 1331.8177,-145.7334 1339.5,-132 1347.504,-117.6915 1352.3912,-99.7133 1355.2007,-86.1354"/>
<polygon fill="#191970" stroke="#191970" points="1358.7089,-86.4131 1357.0948,-75.9419 1351.8267,-85.1342 1358.7089,-86.4131"/>
</g>
</g>
</svg>
        <g id="navigator" transform="translate(0 0)" fill="#404254">
                <rect fill="#f2f5e9" fill-opacity="0.5" stroke="#606060" stroke-width=".5" x="0" y="0" width="60" height="60"/>
                <use id="zoomplus" xlink:href="#zoomPlus" x="17" y="9" onmousedown="handleZoom(evt,'in')"/>
                <use id="zoomminus" xlink:href="#zoomMin" x="42" y="9" onmousedown="handleZoom(evt,'out')"/>
                <use id="reset" xlink:href="#resetDef" x="30" y="36" onmousedown="handleReset()"/>
                <g id="arrowUp" xlink:href="#dirArrow" transform="translate(30 24)" onmousedown="handlePan(0,-1)">
                  <use xlink:href="#rim" fill="#404040">
                        <set attributeName="fill" to="#808080" begin="arrowUp.mouseover" end="arrowUp.mouseout"/>
                  </use>
                  <path fill="none" stroke="white" stroke-width="1.5" d="M0,-3.0v7 M-2.5,-0.5L0,-3.0L2.5,-0.5"/>
                </g>
                <g id="arrowRight" xlink:href="#dirArrow" transform="rotate(90) translate(36 -43)" onmousedown="handlePan(1,0)">
                  <use xlink:href="#rim" fill="#404040">
                        <set attributeName="fill" to="#808080" begin="arrowRight.mouseover" end="arrowRight.mouseout"/>
                  </use>
                  <path fill="none" stroke="white" stroke-width="1.5" d="M0,-3.0v7 M-2.5,-0.5L0,-3.0L2.5,-0.5"/>
                </g>
                <g id="arrowDown" xlink:href="#dirArrow" transform="rotate(180) translate(-30 -48)" onmousedown="handlePan(0,1)">
                  <use xlink:href="#rim" fill="#404040">
                        <set attributeName="fill" to="#808080" begin="arrowDown.mouseover" end="arrowDown.mouseout"/>
                  </use>
                  <path fill="none" stroke="white" stroke-width="1.5" d="M0,-3.0v7 M-2.5,-0.5L0,-3.0L2.5,-0.5"/>
                </g>
                <g id="arrowLeft" xlink:href="#dirArrow" transform="rotate(270) translate(-36 17)" onmousedown="handlePan(-1,0)">
                  <use xlink:href="#rim" fill="#404040">
                        <set attributeName="fill" to="#808080" begin="arrowLeft.mouseover" end="arrowLeft.mouseout"/>
                  </use>
                  <path fill="none" stroke="white" stroke-width="1.5" d="M0,-3.0v7 M-2.5,-0.5L0,-3.0L2.5,-0.5"/>
                </g>
        </g>
        <svg viewBox="0 0 15 15" width="100%" height="30px" preserveAspectRatio="xMaxYMin meet">
         <g id="arrow_out" transform="scale(0.3 0.3)">
          <a xlink:href="incflo__mol__predict_8cpp__incl_org.svg" target="_base">
           <rect id="button" ry="5" rx="5" y="6" x="6" height="38" width="38"
                fill="#f2f5e9" fill-opacity="0.5" stroke="#606060" stroke-width="1.0"/>
           <path id="arrow"
             d="M 11.500037,31.436501 C 11.940474,20.09759 22.043105,11.32322 32.158766,21.979434 L 37.068811,17.246167 C 37.068811,17.246167 37.088388,32 37.088388,32 L 22.160133,31.978069 C 22.160133,31.978069 26.997745,27.140456 26.997745,27.140456 C 18.528582,18.264221 13.291696,25.230495 11.500037,31.436501 z"
             style="fill:#404040;"/>
          </a>
         </g>
        </svg>
</svg>
