<?xml version="1.0" encoding="UTF-8" standalone="no"?>
<!DOCTYPE svg PUBLIC "-//W3C//DTD SVG 1.1//EN"
 "http://www.w3.org/Graphics/SVG/1.1/DTD/svg11.dtd">
<!-- Generated by graphviz version 2.40.1 (20161225.0304)
 -->
<!-- Title: Graphical Class Hierarchy Pages: 1 -->
<svg width="210pt" height="137pt"
 viewBox="0.00 0.00 210.00 137.00" xmlns="http://www.w3.org/2000/svg" xmlns:xlink="http://www.w3.org/1999/xlink">
<g id="graph0" class="graph" transform="scale(1 1) rotate(0) translate(4 133)">
<title>Graphical Class Hierarchy</title>
<polygon fill="#ffffff" stroke="transparent" points="-4,4 -4,-133 206,-133 206,4 -4,4"/>
<!-- Node102 -->
<g id="node1" class="node">
<title>Node102</title>
<polygon fill="#ffffff" stroke="#bfbfbf" points="0,-55 0,-74 56,-74 56,-55 0,-55"/>
<text text-anchor="middle" x="28" y="-62" font-family="Helvetica,sans-Serif" font-size="10.00" fill="#000000">Register</text>
</g>
<!-- Node0 -->
<g id="node2" class="node">
<title>Node0</title>
<g id="a_node2"><a xlink:href="classamr__wind_1_1pde_1_1tke_1_1_ksgs_m84_src.html" target="_top" xlink:title="TKE source term based on Moeng 1984 paper. ">
<polygon fill="#ffffff" stroke="#000000" points="92,-98.5 92,-128.5 202,-128.5 202,-98.5 92,-98.5"/>
<text text-anchor="start" x="100" y="-116.5" font-family="Helvetica,sans-Serif" font-size="10.00" fill="#000000">amr_wind::pde::tke</text>
<text text-anchor="middle" x="147" y="-105.5" font-family="Helvetica,sans-Serif" font-size="10.00" fill="#000000">::KsgsM84Src</text>
</a>
</g>
</g>
<!-- Node102&#45;&gt;Node0 -->
<g id="edge1" class="edge">
<title>Node102&#45;&gt;Node0</title>
<path fill="none" stroke="#191970" d="M60.8141,-78.0117C76.1442,-84.3241 94.4553,-91.864 110.2489,-98.3672"/>
<polygon fill="#191970" stroke="#191970" points="61.8063,-74.6352 51.2269,-74.064 59.141,-81.1079 61.8063,-74.6352"/>
</g>
<!-- Node104 -->
<g id="node3" class="node">
<title>Node104</title>
<g id="a_node3"><a xlink:href="classamr__wind_1_1pde_1_1tke_1_1_ksgs_s94_src.html" target="_top" xlink:title="One&#45;equation k&#45;sgs source term based on Sullivan 1994 paper. ">
<polygon fill="#ffffff" stroke="#000000" points="92,-49.5 92,-79.5 202,-79.5 202,-49.5 92,-49.5"/>
<text text-anchor="start" x="100" y="-67.5" font-family="Helvetica,sans-Serif" font-size="10.00" fill="#000000">amr_wind::pde::tke</text>
<text text-anchor="middle" x="147" y="-56.5" font-family="Helvetica,sans-Serif" font-size="10.00" fill="#000000">::KsgsS94Src</text>
</a>
</g>
</g>
<!-- Node102&#45;&gt;Node104 -->
<g id="edge2" class="edge">
<title>Node102&#45;&gt;Node104</title>
<path fill="none" stroke="#191970" d="M66.4689,-64.5C74.5884,-64.5 83.3075,-64.5 91.9034,-64.5"/>
<polygon fill="#191970" stroke="#191970" points="66.2014,-61.0001 56.2013,-64.5 66.2013,-68.0001 66.2014,-61.0001"/>
</g>
<!-- Node105 -->
<g id="node4" class="node">
<title>Node105</title>
<g id="a_node4"><a xlink:href="classamr__wind_1_1pde_1_1tke_1_1_kw_s_s_t_src.html" target="_top" xlink:title="Source terms for TKE equation in K&#45;w&#45;SST turbulence modelWorks for all TKE equations with production ...">
<polygon fill="#ffffff" stroke="#000000" points="92,-.5 92,-30.5 202,-30.5 202,-.5 92,-.5"/>
<text text-anchor="start" x="100" y="-18.5" font-family="Helvetica,sans-Serif" font-size="10.00" fill="#000000">amr_wind::pde::tke</text>
<text text-anchor="middle" x="147" y="-7.5" font-family="Helvetica,sans-Serif" font-size="10.00" fill="#000000">::KwSSTSrc</text>
</a>
</g>
</g>
<!-- Node102&#45;&gt;Node105 -->
<g id="edge3" class="edge">
<title>Node102&#45;&gt;Node105</title>
<path fill="none" stroke="#191970" d="M60.8141,-50.9883C76.1442,-44.6759 94.4553,-37.136 110.2489,-30.6328"/>
<polygon fill="#191970" stroke="#191970" points="59.141,-47.8921 51.2269,-54.936 61.8063,-54.3648 59.141,-47.8921"/>
</g>
</g>
</svg>
