<?xml version="1.0" encoding="UTF-8" standalone="no"?>
<!DOCTYPE svg PUBLIC "-//W3C//DTD SVG 1.1//EN"
 "http://www.w3.org/Graphics/SVG/1.1/DTD/svg11.dtd">
<!-- Generated by graphviz version 2.40.1 (20161225.0304)
 -->
<!-- Title: Graphical Class Hierarchy Pages: 1 -->
<svg width="216pt" height="137pt"
 viewBox="0.00 0.00 216.00 137.00" xmlns="http://www.w3.org/2000/svg" xmlns:xlink="http://www.w3.org/1999/xlink">
<g id="graph0" class="graph" transform="scale(1 1) rotate(0) translate(4 133)">
<title>Graphical Class Hierarchy</title>
<polygon fill="#ffffff" stroke="transparent" points="-4,4 -4,-133 212,-133 212,4 -4,4"/>
<!-- Node155 -->
<g id="node1" class="node">
<title>Node155</title>
<polygon fill="#ffffff" stroke="#bfbfbf" points="0,-55 0,-74 56,-74 56,-55 0,-55"/>
<text text-anchor="middle" x="28" y="-62" font-family="Helvetica,sans-Serif" font-size="10.00" fill="#000000">Register</text>
</g>
<!-- Node0 -->
<g id="node2" class="node">
<title>Node0</title>
<g id="a_node2"><a xlink:href="classamr__wind_1_1sampling_1_1_line_sampler.html" target="_top" xlink:title="Sample data along a lineDefines probes along a line defined by start and end coordinates and divides ...">
<polygon fill="#ffffff" stroke="#000000" points="92,-98.5 92,-128.5 208,-128.5 208,-98.5 92,-98.5"/>
<text text-anchor="start" x="100" y="-116.5" font-family="Helvetica,sans-Serif" font-size="10.00" fill="#000000">amr_wind::sampling</text>
<text text-anchor="middle" x="150" y="-105.5" font-family="Helvetica,sans-Serif" font-size="10.00" fill="#000000">::LineSampler</text>
</a>
</g>
</g>
<!-- Node155&#45;&gt;Node0 -->
<g id="edge1" class="edge">
<title>Node155&#45;&gt;Node0</title>
<path fill="none" stroke="#191970" d="M61.1931,-77.8317C77.0001,-84.1804 95.9765,-91.802 112.3224,-98.3672"/>
<polygon fill="#191970" stroke="#191970" points="62.3964,-74.5433 51.8124,-74.064 59.7875,-81.0389 62.3964,-74.5433"/>
</g>
<!-- Node157 -->
<g id="node3" class="node">
<title>Node157</title>
<g id="a_node3"><a xlink:href="classamr__wind_1_1sampling_1_1_plane_sampler.html" target="_top" xlink:title="Sample data on uniform gridsDefines probe locations on a two&#45;dimensional plane defined by two vectors...">
<polygon fill="#ffffff" stroke="#000000" points="92,-49.5 92,-79.5 208,-79.5 208,-49.5 92,-49.5"/>
<text text-anchor="start" x="100" y="-67.5" font-family="Helvetica,sans-Serif" font-size="10.00" fill="#000000">amr_wind::sampling</text>
<text text-anchor="middle" x="150" y="-56.5" font-family="Helvetica,sans-Serif" font-size="10.00" fill="#000000">::PlaneSampler</text>
</a>
</g>
</g>
<!-- Node155&#45;&gt;Node157 -->
<g id="edge2" class="edge">
<title>Node155&#45;&gt;Node157</title>
<path fill="none" stroke="#191970" d="M66.4076,-64.5C74.4069,-64.5 83.0097,-64.5 91.546,-64.5"/>
<polygon fill="#191970" stroke="#191970" points="66.2959,-61.0001 56.2959,-64.5 66.2959,-68.0001 66.2959,-61.0001"/>
</g>
<!-- Node158 -->
<g id="node4" class="node">
<title>Node158</title>
<g id="a_node4"><a xlink:href="classamr__wind_1_1sampling_1_1_probe_sampler.html" target="_top" xlink:title="Sample data on a cloud of pointsReads a cloud of point locations from a text file and samples data on...">
<polygon fill="#ffffff" stroke="#000000" points="92,-.5 92,-30.5 208,-30.5 208,-.5 92,-.5"/>
<text text-anchor="start" x="100" y="-18.5" font-family="Helvetica,sans-Serif" font-size="10.00" fill="#000000">amr_wind::sampling</text>
<text text-anchor="middle" x="150" y="-7.5" font-family="Helvetica,sans-Serif" font-size="10.00" fill="#000000">::ProbeSampler</text>
</a>
</g>
</g>
<!-- Node155&#45;&gt;Node158 -->
<g id="edge3" class="edge">
<title>Node155&#45;&gt;Node158</title>
<path fill="none" stroke="#191970" d="M61.1931,-51.1683C77.0001,-44.8196 95.9765,-37.198 112.3224,-30.6328"/>
<polygon fill="#191970" stroke="#191970" points="59.7875,-47.9611 51.8124,-54.936 62.3964,-54.4567 59.7875,-47.9611"/>
</g>
</g>
</svg>
