<?xml version="1.0" encoding="UTF-8" standalone="no"?>
<!DOCTYPE svg PUBLIC "-//W3C//DTD SVG 1.1//EN"
 "http://www.w3.org/Graphics/SVG/1.1/DTD/svg11.dtd">
<!-- Generated by graphviz version 2.40.1 (20161225.0304)
 -->
<!-- Title: Graphical Class Hierarchy Pages: 1 -->
<svg width="288pt" height="88pt"
 viewBox="0.00 0.00 288.00 88.00" xmlns="http://www.w3.org/2000/svg" xmlns:xlink="http://www.w3.org/1999/xlink">
<g id="graph0" class="graph" transform="scale(1 1) rotate(0) translate(4 84)">
<title>Graphical Class Hierarchy</title>
<polygon fill="#ffffff" stroke="transparent" points="-4,4 -4,-84 284,-84 284,4 -4,4"/>
<!-- Node0 -->
<g id="node1" class="node">
<title>Node0</title>
<g id="a_node1"><a xlink:href="classamr__wind_1_1synth__turb_1_1_mean_profile.html" target="_top" xlink:title="amr_wind::synth_turb\l::MeanProfile">
<polygon fill="#ffffff" stroke="#000000" points="0,-24.5 0,-54.5 122,-54.5 122,-24.5 0,-24.5"/>
<text text-anchor="start" x="8" y="-42.5" font-family="Helvetica,sans-Serif" font-size="10.00" fill="#000000">amr_wind::synth_turb</text>
<text text-anchor="middle" x="61" y="-31.5" font-family="Helvetica,sans-Serif" font-size="10.00" fill="#000000">::MeanProfile</text>
</a>
</g>
</g>
<!-- Node1 -->
<g id="node2" class="node">
<title>Node1</title>
<g id="a_node2"><a xlink:href="classamr__wind_1_1synth__turb_1_1_linear_shear_profile.html" target="_top" xlink:title="amr_wind::synth_turb\l::LinearShearProfile">
<polygon fill="#ffffff" stroke="#000000" points="158,-49.5 158,-79.5 280,-79.5 280,-49.5 158,-49.5"/>
<text text-anchor="start" x="166" y="-67.5" font-family="Helvetica,sans-Serif" font-size="10.00" fill="#000000">amr_wind::synth_turb</text>
<text text-anchor="middle" x="219" y="-56.5" font-family="Helvetica,sans-Serif" font-size="10.00" fill="#000000">::LinearShearProfile</text>
</a>
</g>
</g>
<!-- Node0&#45;&gt;Node1 -->
<g id="edge1" class="edge">
<title>Node0&#45;&gt;Node1</title>
<path fill="none" stroke="#191970" d="M132.0855,-50.7477C140.6732,-52.1065 149.3868,-53.4853 157.815,-54.8188"/>
<polygon fill="#191970" stroke="#191970" points="132.5111,-47.2716 122.0869,-49.1657 131.417,-54.1856 132.5111,-47.2716"/>
</g>
<!-- Node2 -->
<g id="node3" class="node">
<title>Node2</title>
<g id="a_node3"><a xlink:href="classamr__wind_1_1synth__turb_1_1_power_law_profile.html" target="_top" xlink:title="amr_wind::synth_turb\l::PowerLawProfile">
<polygon fill="#ffffff" stroke="#000000" points="158,-.5 158,-30.5 280,-30.5 280,-.5 158,-.5"/>
<text text-anchor="start" x="166" y="-18.5" font-family="Helvetica,sans-Serif" font-size="10.00" fill="#000000">amr_wind::synth_turb</text>
<text text-anchor="middle" x="219" y="-7.5" font-family="Helvetica,sans-Serif" font-size="10.00" fill="#000000">::PowerLawProfile</text>
</a>
</g>
</g>
<!-- Node0&#45;&gt;Node2 -->
<g id="edge2" class="edge">
<title>Node0&#45;&gt;Node2</title>
<path fill="none" stroke="#191970" d="M132.0855,-28.7022C140.6732,-27.3977 149.3868,-26.0742 157.815,-24.7939"/>
<polygon fill="#191970" stroke="#191970" points="131.4479,-25.2588 122.0869,-30.221 132.4992,-32.1794 131.4479,-25.2588"/>
</g>
</g>
</svg>
