<?xml version="1.0" encoding="UTF-8" standalone="no"?>
<!DOCTYPE svg PUBLIC "-//W3C//DTD SVG 1.1//EN"
 "http://www.w3.org/Graphics/SVG/1.1/DTD/svg11.dtd">
<!-- Generated by graphviz version 2.40.1 (20161225.0304)
 -->
<!-- Title: Graphical Class Hierarchy Pages: 1 -->
<svg width="1111pt" height="137pt"
 viewBox="0.00 0.00 1111.00 137.00" xmlns="http://www.w3.org/2000/svg" xmlns:xlink="http://www.w3.org/1999/xlink">
<g id="graph0" class="graph" transform="scale(1 1) rotate(0) translate(4 133)">
<title>Graphical Class Hierarchy</title>
<polygon fill="#ffffff" stroke="transparent" points="-4,4 -4,-133 1107,-133 1107,4 -4,4"/>
<!-- Node0 -->
<g id="node1" class="node">
<title>Node0</title>
<g id="a_node1"><a xlink:href="structamr__wind_1_1_factory.html" target="_top" xlink:title="amr_wind::Factory\&lt;\l TurbulenceModel, CFDSim &amp;\&gt;">
<polygon fill="#ffffff" stroke="#000000" points="0,-73.5 0,-103.5 164,-103.5 164,-73.5 0,-73.5"/>
<text text-anchor="start" x="8" y="-91.5" font-family="Helvetica,sans-Serif" font-size="10.00" fill="#000000">amr_wind::Factory&lt;</text>
<text text-anchor="middle" x="82" y="-80.5" font-family="Helvetica,sans-Serif" font-size="10.00" fill="#000000"> TurbulenceModel, CFDSim &amp;&gt;</text>
</a>
</g>
</g>
<!-- Node1 -->
<g id="node2" class="node">
<title>Node1</title>
<g id="a_node2"><a xlink:href="classamr__wind_1_1turbulence_1_1_turbulence_model.html" target="_top" xlink:title="Abstract representation of a turbulence modelThis class is an abstract representation of a turbulence...">
<polygon fill="#ffffff" stroke="#000000" points="200,-73.5 200,-103.5 322,-103.5 322,-73.5 200,-73.5"/>
<text text-anchor="start" x="208" y="-91.5" font-family="Helvetica,sans-Serif" font-size="10.00" fill="#000000">amr_wind::turbulence</text>
<text text-anchor="middle" x="261" y="-80.5" font-family="Helvetica,sans-Serif" font-size="10.00" fill="#000000">::TurbulenceModel</text>
</a>
</g>
</g>
<!-- Node0&#45;&gt;Node1 -->
<g id="edge1" class="edge">
<title>Node0&#45;&gt;Node1</title>
<path fill="none" stroke="#191970" d="M174.3468,-88.5C183.0224,-88.5 191.6623,-88.5 199.94,-88.5"/>
<polygon fill="#191970" stroke="#191970" points="174.1656,-85.0001 164.1655,-88.5 174.1655,-92.0001 174.1656,-85.0001"/>
</g>
<!-- Node2 -->
<g id="node3" class="node">
<title>Node2</title>
<g id="a_node3"><a xlink:href="classamr__wind_1_1turbulence_1_1_turb_model.html" target="_top" xlink:title="Turbulence model with a specific transport modelThis templated class allows turbulence model to be sp...">
<polygon fill="#ffffff" stroke="#000000" points="358,-73.5 358,-103.5 498,-103.5 498,-73.5 358,-73.5"/>
<text text-anchor="start" x="366" y="-91.5" font-family="Helvetica,sans-Serif" font-size="10.00" fill="#000000">amr_wind::turbulence</text>
<text text-anchor="middle" x="428" y="-80.5" font-family="Helvetica,sans-Serif" font-size="10.00" fill="#000000">::TurbModel&lt; Transport &gt;</text>
</a>
</g>
</g>
<!-- Node1&#45;&gt;Node2 -->
<g id="edge2" class="edge">
<title>Node1&#45;&gt;Node2</title>
<path fill="none" stroke="#191970" d="M332.3764,-88.5C340.7766,-88.5 349.3441,-88.5 357.729,-88.5"/>
<polygon fill="#191970" stroke="#191970" points="332.2364,-85.0001 322.2364,-88.5 332.2363,-92.0001 332.2364,-85.0001"/>
</g>
<!-- Node3 -->
<g id="node4" class="node">
<title>Node3</title>
<g id="a_node4"><a xlink:href="classamr__wind_1_1turbulence_1_1_laminar.html" target="_top" xlink:title="Laminar modelImplementation of laminar flow model. ">
<polygon fill="#ffffff" stroke="#000000" points="551,-98.5 551,-128.5 681,-128.5 681,-98.5 551,-98.5"/>
<text text-anchor="start" x="559" y="-116.5" font-family="Helvetica,sans-Serif" font-size="10.00" fill="#000000">amr_wind::turbulence</text>
<text text-anchor="middle" x="616" y="-105.5" font-family="Helvetica,sans-Serif" font-size="10.00" fill="#000000">::Laminar&lt; Transport &gt;</text>
</a>
</g>
</g>
<!-- Node2&#45;&gt;Node3 -->
<g id="edge3" class="edge">
<title>Node2&#45;&gt;Node3</title>
<path fill="none" stroke="#191970" d="M508.2727,-99.1746C522.5052,-101.0672 537.1668,-103.0169 550.9143,-104.845"/>
<polygon fill="#191970" stroke="#191970" points="508.3784,-95.6579 498.0043,-97.8091 507.4556,-102.5968 508.3784,-95.6579"/>
</g>
<!-- Node4 -->
<g id="node5" class="node">
<title>Node4</title>
<g id="a_node5"><a xlink:href="classamr__wind_1_1turbulence_1_1_turb_model_base.html" target="_top" xlink:title="Turbulence model aspects common to both LES and RANS modelsThis class implements more of the common m...">
<polygon fill="#ffffff" stroke="#000000" points="534,-49.5 534,-79.5 698,-79.5 698,-49.5 534,-49.5"/>
<text text-anchor="start" x="542" y="-67.5" font-family="Helvetica,sans-Serif" font-size="10.00" fill="#000000">amr_wind::turbulence</text>
<text text-anchor="middle" x="616" y="-56.5" font-family="Helvetica,sans-Serif" font-size="10.00" fill="#000000">::TurbModelBase&lt; Transport &gt;</text>
</a>
</g>
</g>
<!-- Node2&#45;&gt;Node4 -->
<g id="edge4" class="edge">
<title>Node2&#45;&gt;Node4</title>
<path fill="none" stroke="#191970" d="M507.9781,-78.29C516.5516,-77.1955 525.2844,-76.0807 533.8823,-74.9831"/>
<polygon fill="#191970" stroke="#191970" points="507.4805,-74.8251 498.0043,-79.5633 508.367,-81.7687 507.4805,-74.8251"/>
</g>
<!-- Node5 -->
<g id="node6" class="node">
<title>Node5</title>
<g id="a_node6"><a xlink:href="classamr__wind_1_1turbulence_1_1_k_omega_s_s_t.html" target="_top" xlink:title="K&#45;Omega&#45;SST RANS turbulence model. ">
<polygon fill="#ffffff" stroke="#000000" points="736.5,-98.5 736.5,-128.5 885.5,-128.5 885.5,-98.5 736.5,-98.5"/>
<text text-anchor="start" x="744.5" y="-116.5" font-family="Helvetica,sans-Serif" font-size="10.00" fill="#000000">amr_wind::turbulence</text>
<text text-anchor="middle" x="811" y="-105.5" font-family="Helvetica,sans-Serif" font-size="10.00" fill="#000000">::KOmegaSST&lt; Transport &gt;</text>
</a>
</g>
</g>
<!-- Node4&#45;&gt;Node5 -->
<g id="edge5" class="edge">
<title>Node4&#45;&gt;Node5</title>
<path fill="none" stroke="#191970" d="M685.5505,-81.9768C707.0431,-87.3775 730.5149,-93.2755 751.2815,-98.4938"/>
<polygon fill="#191970" stroke="#191970" points="686.3831,-78.5773 675.8316,-79.5346 684.6771,-85.3662 686.3831,-78.5773"/>
</g>
<!-- Node7 -->
<g id="node8" class="node">
<title>Node7</title>
<g id="a_node8"><a xlink:href="classamr__wind_1_1turbulence_1_1_one_eq_ksgs.html" target="_top" xlink:title="Base class for 1&#45;Equation subgrid scale TKE turbulence model. ">
<polygon fill="#ffffff" stroke="#000000" points="738.5,-49.5 738.5,-79.5 883.5,-79.5 883.5,-49.5 738.5,-49.5"/>
<text text-anchor="start" x="746.5" y="-67.5" font-family="Helvetica,sans-Serif" font-size="10.00" fill="#000000">amr_wind::turbulence</text>
<text text-anchor="middle" x="811" y="-56.5" font-family="Helvetica,sans-Serif" font-size="10.00" fill="#000000">::OneEqKsgs&lt; Transport &gt;</text>
</a>
</g>
</g>
<!-- Node4&#45;&gt;Node7 -->
<g id="edge7" class="edge">
<title>Node4&#45;&gt;Node7</title>
<path fill="none" stroke="#191970" d="M708.1822,-64.5C718.2735,-64.5 728.441,-64.5 738.2506,-64.5"/>
<polygon fill="#191970" stroke="#191970" points="708.1324,-61.0001 698.1324,-64.5 708.1324,-68.0001 708.1324,-61.0001"/>
</g>
<!-- Node10 -->
<g id="node11" class="node">
<title>Node10</title>
<g id="a_node11"><a xlink:href="classamr__wind_1_1turbulence_1_1_smagorinsky.html" target="_top" xlink:title="Smagorinsky LES Model. ">
<polygon fill="#ffffff" stroke="#000000" points="734,-.5 734,-30.5 888,-30.5 888,-.5 734,-.5"/>
<text text-anchor="start" x="742" y="-18.5" font-family="Helvetica,sans-Serif" font-size="10.00" fill="#000000">amr_wind::turbulence</text>
<text text-anchor="middle" x="811" y="-7.5" font-family="Helvetica,sans-Serif" font-size="10.00" fill="#000000">::Smagorinsky&lt; Transport &gt;</text>
</a>
</g>
</g>
<!-- Node4&#45;&gt;Node10 -->
<g id="edge10" class="edge">
<title>Node4&#45;&gt;Node10</title>
<path fill="none" stroke="#191970" d="M685.5505,-47.0232C707.0431,-41.6225 730.5149,-35.7245 751.2815,-30.5062"/>
<polygon fill="#191970" stroke="#191970" points="684.6771,-43.6338 675.8316,-49.4654 686.3831,-50.4227 684.6771,-43.6338"/>
</g>
<!-- Node6 -->
<g id="node7" class="node">
<title>Node6</title>
<g id="a_node7"><a xlink:href="classamr__wind_1_1turbulence_1_1_k_omega_s_s_t_i_d_d_e_s.html" target="_top" xlink:title="K&#45;Omega&#45;SST&#45;IDDES Hybrid RANS/LES turbulence model. ">
<polygon fill="#ffffff" stroke="#000000" points="924,-98.5 924,-128.5 1103,-128.5 1103,-98.5 924,-98.5"/>
<text text-anchor="start" x="932" y="-116.5" font-family="Helvetica,sans-Serif" font-size="10.00" fill="#000000">amr_wind::turbulence</text>
<text text-anchor="middle" x="1013.5" y="-105.5" font-family="Helvetica,sans-Serif" font-size="10.00" fill="#000000">::KOmegaSSTIDDES&lt; Transport &gt;</text>
</a>
</g>
</g>
<!-- Node5&#45;&gt;Node6 -->
<g id="edge6" class="edge">
<title>Node5&#45;&gt;Node6</title>
<path fill="none" stroke="#191970" d="M895.8292,-113.5C905.0265,-113.5 914.4095,-113.5 923.6637,-113.5"/>
<polygon fill="#191970" stroke="#191970" points="895.5409,-110.0001 885.5408,-113.5 895.5408,-117.0001 895.5409,-110.0001"/>
</g>
<!-- Node8 -->
<g id="node9" class="node">
<title>Node8</title>
<g id="a_node9"><a xlink:href="classamr__wind_1_1turbulence_1_1_one_eq_ksgs_m84.html" target="_top" xlink:title="1&#45;equation subgrid scale TKE turbulence modelImplements the model described in Moeng 1984 paper ...">
<polygon fill="#ffffff" stroke="#000000" points="931,-49.5 931,-79.5 1096,-79.5 1096,-49.5 931,-49.5"/>
<text text-anchor="start" x="939" y="-67.5" font-family="Helvetica,sans-Serif" font-size="10.00" fill="#000000">amr_wind::turbulence</text>
<text text-anchor="middle" x="1013.5" y="-56.5" font-family="Helvetica,sans-Serif" font-size="10.00" fill="#000000">::OneEqKsgsM84&lt; Transport &gt;</text>
</a>
</g>
</g>
<!-- Node7&#45;&gt;Node8 -->
<g id="edge8" class="edge">
<title>Node7&#45;&gt;Node8</title>
<path fill="none" stroke="#191970" d="M893.7102,-64.5C905.9477,-64.5 918.5593,-64.5 930.7966,-64.5"/>
<polygon fill="#191970" stroke="#191970" points="893.5352,-61.0001 883.5352,-64.5 893.5351,-68.0001 893.5352,-61.0001"/>
</g>
<!-- Node9 -->
<g id="node10" class="node">
<title>Node9</title>
<g id="a_node10"><a xlink:href="classamr__wind_1_1turbulence_1_1_one_eq_ksgs_s94.html" target="_top" xlink:title="1&#45;equation subgrid scale TKE turbulence modelImplements the model described in Sullivan 1994 paper ...">
<polygon fill="#ffffff" stroke="#000000" points="932,-.5 932,-30.5 1095,-30.5 1095,-.5 932,-.5"/>
<text text-anchor="start" x="940" y="-18.5" font-family="Helvetica,sans-Serif" font-size="10.00" fill="#000000">amr_wind::turbulence</text>
<text text-anchor="middle" x="1013.5" y="-7.5" font-family="Helvetica,sans-Serif" font-size="10.00" fill="#000000">::OneEqKsgsS94&lt; Transport &gt;</text>
</a>
</g>
</g>
<!-- Node7&#45;&gt;Node9 -->
<g id="edge9" class="edge">
<title>Node7&#45;&gt;Node9</title>
<path fill="none" stroke="#191970" d="M882.924,-47.0962C905.3251,-41.6757 929.8221,-35.748 951.4846,-30.5062"/>
<polygon fill="#191970" stroke="#191970" points="882.0292,-43.7116 873.1329,-49.4654 883.6755,-50.5153 882.0292,-43.7116"/>
</g>
</g>
</svg>
