<?xml version="1.0" encoding="UTF-8" standalone="no"?>
<!DOCTYPE svg PUBLIC "-//W3C//DTD SVG 1.1//EN"
 "http://www.w3.org/Graphics/SVG/1.1/DTD/svg11.dtd">
<!-- Generated by graphviz version 2.40.1 (20161225.0304)
 -->
<!-- Title: Graphical Class Hierarchy Pages: 1 -->
<svg width="479pt" height="137pt"
 viewBox="0.00 0.00 479.00 137.00" xmlns="http://www.w3.org/2000/svg" xmlns:xlink="http://www.w3.org/1999/xlink">
<g id="graph0" class="graph" transform="scale(1 1) rotate(0) translate(4 133)">
<title>Graphical Class Hierarchy</title>
<polygon fill="#ffffff" stroke="transparent" points="-4,4 -4,-133 475,-133 475,4 -4,4"/>
<!-- Node0 -->
<g id="node1" class="node">
<title>Node0</title>
<g id="a_node1"><a xlink:href="classamr__wind_1_1_field_fill_patch_ops_base.html" target="_top" xlink:title="Abstract interface for classes that handle fill patch and physical boundary condition operations for ...">
<polygon fill="#ffffff" stroke="#000000" points="0,-49.5 0,-79.5 133,-79.5 133,-49.5 0,-49.5"/>
<text text-anchor="start" x="8" y="-67.5" font-family="Helvetica,sans-Serif" font-size="10.00" fill="#000000">amr_wind::FieldFillPatch</text>
<text text-anchor="middle" x="66.5" y="-56.5" font-family="Helvetica,sans-Serif" font-size="10.00" fill="#000000">OpsBase</text>
</a>
</g>
</g>
<!-- Node1 -->
<g id="node2" class="node">
<title>Node1</title>
<g id="a_node2"><a xlink:href="classamr__wind_1_1_field_fill_const_scalar.html" target="_top" xlink:title="Implementation that just fills a constant value on newly created grids. ">
<polygon fill="#ffffff" stroke="#000000" points="169,-98.5 169,-128.5 303,-128.5 303,-98.5 169,-98.5"/>
<text text-anchor="start" x="177" y="-116.5" font-family="Helvetica,sans-Serif" font-size="10.00" fill="#000000">amr_wind::FieldFillConst</text>
<text text-anchor="middle" x="236" y="-105.5" font-family="Helvetica,sans-Serif" font-size="10.00" fill="#000000">Scalar</text>
</a>
</g>
</g>
<!-- Node0&#45;&gt;Node1 -->
<g id="edge1" class="edge">
<title>Node0&#45;&gt;Node1</title>
<path fill="none" stroke="#191970" d="M128.3989,-82.3941C146.63,-87.6644 166.3858,-93.3755 183.9338,-98.4484"/>
<polygon fill="#191970" stroke="#191970" points="129.3173,-79.0163 118.7387,-79.6014 127.3733,-85.741 129.3173,-79.0163"/>
</g>
<!-- Node2 -->
<g id="node3" class="node">
<title>Node2</title>
<g id="a_node3"><a xlink:href="classamr__wind_1_1_field_fill_patch_ops.html" target="_top" xlink:title="Concrete implementation of filling patches and boundary conditions on multi&#45;level AMR meshes...">
<polygon fill="#ffffff" stroke="#000000" points="169.5,-49.5 169.5,-79.5 302.5,-79.5 302.5,-49.5 169.5,-49.5"/>
<text text-anchor="start" x="177.5" y="-67.5" font-family="Helvetica,sans-Serif" font-size="10.00" fill="#000000">amr_wind::FieldFillPatch</text>
<text text-anchor="middle" x="236" y="-56.5" font-family="Helvetica,sans-Serif" font-size="10.00" fill="#000000">Ops&lt; BCOpCreator &gt;</text>
</a>
</g>
</g>
<!-- Node0&#45;&gt;Node2 -->
<g id="edge2" class="edge">
<title>Node0&#45;&gt;Node2</title>
<path fill="none" stroke="#191970" d="M143.1976,-64.5C151.9451,-64.5 160.808,-64.5 169.4092,-64.5"/>
<polygon fill="#191970" stroke="#191970" points="143.0044,-61.0001 133.0044,-64.5 143.0044,-68.0001 143.0044,-61.0001"/>
</g>
<!-- Node3 -->
<g id="node4" class="node">
<title>Node3</title>
<g id="a_node4"><a xlink:href="classamr__wind_1_1_field_fill_patch_ops.html" target="_top" xlink:title="amr_wind::FieldFillPatch\lOps\&lt; FieldBCNoOp \&gt;">
<polygon fill="#ffffff" stroke="#000000" points="169.5,-.5 169.5,-30.5 302.5,-30.5 302.5,-.5 169.5,-.5"/>
<text text-anchor="start" x="177.5" y="-18.5" font-family="Helvetica,sans-Serif" font-size="10.00" fill="#000000">amr_wind::FieldFillPatch</text>
<text text-anchor="middle" x="236" y="-7.5" font-family="Helvetica,sans-Serif" font-size="10.00" fill="#000000">Ops&lt; FieldBCNoOp &gt;</text>
</a>
</g>
</g>
<!-- Node0&#45;&gt;Node3 -->
<g id="edge3" class="edge">
<title>Node0&#45;&gt;Node3</title>
<path fill="none" stroke="#191970" d="M128.3989,-46.6059C146.63,-41.3356 166.3858,-35.6245 183.9338,-30.5516"/>
<polygon fill="#191970" stroke="#191970" points="127.3733,-43.259 118.7387,-49.3986 129.3173,-49.9837 127.3733,-43.259"/>
</g>
<!-- Node4 -->
<g id="node5" class="node">
<title>Node4</title>
<g id="a_node5"><a xlink:href="classamr__wind_1_1_a_b_l_fill_inflow.html" target="_top" xlink:title="Operations to perform inflow of data from boundary planesThis class contains the operations necessary...">
<polygon fill="#ffffff" stroke="#000000" points="339,-6 339,-25 471,-25 471,-6 339,-6"/>
<text text-anchor="middle" x="405" y="-13" font-family="Helvetica,sans-Serif" font-size="10.00" fill="#000000">amr_wind::ABLFillInflow</text>
</a>
</g>
</g>
<!-- Node3&#45;&gt;Node4 -->
<g id="edge4" class="edge">
<title>Node3&#45;&gt;Node4</title>
<path fill="none" stroke="#191970" d="M312.9296,-15.5C321.6254,-15.5 330.4291,-15.5 338.9682,-15.5"/>
<polygon fill="#191970" stroke="#191970" points="312.7933,-12.0001 302.7933,-15.5 312.7932,-19.0001 312.7933,-12.0001"/>
</g>
</g>
</svg>
