<?xml version="1.0" encoding="UTF-8" standalone="no"?>
<!DOCTYPE svg PUBLIC "-//W3C//DTD SVG 1.1//EN"
 "http://www.w3.org/Graphics/SVG/1.1/DTD/svg11.dtd">
<!-- Generated by graphviz version 2.40.1 (20161225.0304)
 -->
<!-- Title: Graphical Class Hierarchy Pages: 1 -->
<svg width="367pt" height="50pt"
 viewBox="0.00 0.00 367.00 50.00" xmlns="http://www.w3.org/2000/svg" xmlns:xlink="http://www.w3.org/1999/xlink">
<g id="graph0" class="graph" transform="scale(1 1) rotate(0) translate(4 46)">
<title>Graphical Class Hierarchy</title>
<polygon fill="#ffffff" stroke="transparent" points="-4,4 -4,-46 363,-46 363,4 -4,4"/>
<!-- Node0 -->
<g id="node1" class="node">
<title>Node0</title>
<g id="a_node1"><a xlink:href="structamr__wind_1_1_factory.html" target="_top" xlink:title="amr_wind::Factory\&lt;\l MomentumSource, const\l CFDSim &amp;\&gt;">
<polygon fill="#ffffff" stroke="#000000" points="0,-.5 0,-41.5 140,-41.5 140,-.5 0,-.5"/>
<text text-anchor="start" x="8" y="-29.5" font-family="Helvetica,sans-Serif" font-size="10.00" fill="#000000">amr_wind::Factory&lt;</text>
<text text-anchor="start" x="8" y="-18.5" font-family="Helvetica,sans-Serif" font-size="10.00" fill="#000000"> MomentumSource, const</text>
<text text-anchor="middle" x="70" y="-7.5" font-family="Helvetica,sans-Serif" font-size="10.00" fill="#000000"> CFDSim &amp;&gt;</text>
</a>
</g>
</g>
<!-- Node1 -->
<g id="node2" class="node">
<title>Node1</title>
<g id="a_node2"><a xlink:href="classamr__wind_1_1pde_1_1_momentum_source.html" target="_top" xlink:title="Representation of a momentum source termAll momentum source terms must inherit from this class...">
<polygon fill="#ffffff" stroke="#000000" points="176,-11.5 176,-30.5 359,-30.5 359,-11.5 176,-11.5"/>
<text text-anchor="middle" x="267.5" y="-18.5" font-family="Helvetica,sans-Serif" font-size="10.00" fill="#000000">amr_wind::pde::MomentumSource</text>
</a>
</g>
</g>
<!-- Node0&#45;&gt;Node1 -->
<g id="edge1" class="edge">
<title>Node0&#45;&gt;Node1</title>
<path fill="none" stroke="#191970" d="M150.312,-21C158.7014,-21 167.2749,-21 175.7785,-21"/>
<polygon fill="#191970" stroke="#191970" points="150.1872,-17.5001 140.1872,-21 150.1872,-24.5001 150.1872,-17.5001"/>
</g>
</g>
</svg>
