<?xml version="1.0" encoding="UTF-8" standalone="no"?>
<!DOCTYPE svg PUBLIC "-//W3C//DTD SVG 1.1//EN"
 "http://www.w3.org/Graphics/SVG/1.1/DTD/svg11.dtd">
<!-- Generated by graphviz version 2.40.1 (20161225.0304)
 -->
<!-- Title: Graphical Class Hierarchy Pages: 1 -->
<svg width="280pt" height="88pt"
 viewBox="0.00 0.00 280.00 88.00" xmlns="http://www.w3.org/2000/svg" xmlns:xlink="http://www.w3.org/1999/xlink">
<g id="graph0" class="graph" transform="scale(1 1) rotate(0) translate(4 84)">
<title>Graphical Class Hierarchy</title>
<polygon fill="#ffffff" stroke="transparent" points="-4,4 -4,-84 276,-84 276,4 -4,4"/>
<!-- Node341 -->
<g id="node1" class="node">
<title>Node341</title>
<polygon fill="#ffffff" stroke="#bfbfbf" points="0,-30 0,-49 120,-49 120,-30 0,-30"/>
<text text-anchor="middle" x="60" y="-37" font-family="Helvetica,sans-Serif" font-size="10.00" fill="#000000">AmrParticleContainer</text>
</g>
<!-- Node0 -->
<g id="node2" class="node">
<title>Node0</title>
<g id="a_node2"><a xlink:href="classamr__wind_1_1actuator_1_1_actuator_container.html" target="_top" xlink:title="Specialization of AmrParticleContainer for sampling velocities. ">
<polygon fill="#ffffff" stroke="#000000" points="158.5,-49.5 158.5,-79.5 269.5,-79.5 269.5,-49.5 158.5,-49.5"/>
<text text-anchor="start" x="166.5" y="-67.5" font-family="Helvetica,sans-Serif" font-size="10.00" fill="#000000">amr_wind::actuator</text>
<text text-anchor="middle" x="214" y="-56.5" font-family="Helvetica,sans-Serif" font-size="10.00" fill="#000000">::ActuatorContainer</text>
</a>
</g>
</g>
<!-- Node341&#45;&gt;Node0 -->
<g id="edge1" class="edge">
<title>Node341&#45;&gt;Node0</title>
<path fill="none" stroke="#191970" d="M128.839,-50.6752C138.6957,-52.2753 148.7328,-53.9047 158.2945,-55.4569"/>
<polygon fill="#191970" stroke="#191970" points="129.0918,-47.1705 118.6601,-49.0227 127.97,-54.08 129.0918,-47.1705"/>
</g>
<!-- Node343 -->
<g id="node3" class="node">
<title>Node343</title>
<g id="a_node3"><a xlink:href="classamr__wind_1_1sampling_1_1_sampling_container.html" target="_top" xlink:title="Specialization of the AMReX ParticleContainer object for sampling dataRepresents the data probes as a...">
<polygon fill="#ffffff" stroke="#000000" points="156,-.5 156,-30.5 272,-30.5 272,-.5 156,-.5"/>
<text text-anchor="start" x="164" y="-18.5" font-family="Helvetica,sans-Serif" font-size="10.00" fill="#000000">amr_wind::sampling</text>
<text text-anchor="middle" x="214" y="-7.5" font-family="Helvetica,sans-Serif" font-size="10.00" fill="#000000">::SamplingContainer</text>
</a>
</g>
</g>
<!-- Node341&#45;&gt;Node343 -->
<g id="edge2" class="edge">
<title>Node341&#45;&gt;Node343</title>
<path fill="none" stroke="#191970" d="M130.3351,-28.5387C138.843,-27.2128 147.4603,-25.8698 155.7672,-24.5752"/>
<polygon fill="#191970" stroke="#191970" points="129.7646,-25.0853 120.4229,-30.0834 130.8426,-32.0018 129.7646,-25.0853"/>
</g>
</g>
</svg>
