<?xml version="1.0" encoding="UTF-8" standalone="no"?>
<!DOCTYPE svg PUBLIC "-//W3C//DTD SVG 1.1//EN"
 "http://www.w3.org/Graphics/SVG/1.1/DTD/svg11.dtd">
<!-- Generated by graphviz version 2.40.1 (20161225.0304)
 -->
<!-- Title: Graphical Class Hierarchy Pages: 1 -->
<svg width="289pt" height="61pt"
 viewBox="0.00 0.00 289.00 61.00" xmlns="http://www.w3.org/2000/svg" xmlns:xlink="http://www.w3.org/1999/xlink">
<g id="graph0" class="graph" transform="scale(1 1) rotate(0) translate(4 57)">
<title>Graphical Class Hierarchy</title>
<polygon fill="#ffffff" stroke="transparent" points="-4,4 -4,-57 285,-57 285,4 -4,4"/>
<!-- Node0 -->
<g id="node1" class="node">
<title>Node0</title>
<g id="a_node1"><a xlink:href="structamr__wind_1_1_factory.html" target="_top" xlink:title="amr_wind::Factory\&lt;\l ActuatorModel, CFDSim\l &amp;, const std::string\l &amp;, const int \&gt;">
<polygon fill="#ffffff" stroke="#000000" points="0,-.5 0,-52.5 134,-52.5 134,-.5 0,-.5"/>
<text text-anchor="start" x="8" y="-40.5" font-family="Helvetica,sans-Serif" font-size="10.00" fill="#000000">amr_wind::Factory&lt;</text>
<text text-anchor="start" x="8" y="-29.5" font-family="Helvetica,sans-Serif" font-size="10.00" fill="#000000"> ActuatorModel, CFDSim</text>
<text text-anchor="start" x="8" y="-18.5" font-family="Helvetica,sans-Serif" font-size="10.00" fill="#000000"> &amp;, const std::string</text>
<text text-anchor="middle" x="67" y="-7.5" font-family="Helvetica,sans-Serif" font-size="10.00" fill="#000000"> &amp;, const int &gt;</text>
</a>
</g>
</g>
<!-- Node1 -->
<g id="node2" class="node">
<title>Node1</title>
<g id="a_node2"><a xlink:href="classamr__wind_1_1actuator_1_1_actuator_model.html" target="_top" xlink:title="Abstract representation of an actuator source in the flowfield. ">
<polygon fill="#ffffff" stroke="#000000" points="170,-11.5 170,-41.5 281,-41.5 281,-11.5 170,-11.5"/>
<text text-anchor="start" x="178" y="-29.5" font-family="Helvetica,sans-Serif" font-size="10.00" fill="#000000">amr_wind::actuator</text>
<text text-anchor="middle" x="225.5" y="-18.5" font-family="Helvetica,sans-Serif" font-size="10.00" fill="#000000">::ActuatorModel</text>
</a>
</g>
</g>
<!-- Node0&#45;&gt;Node1 -->
<g id="edge1" class="edge">
<title>Node0&#45;&gt;Node1</title>
<path fill="none" stroke="#191970" d="M144.2474,-26.5C152.8236,-26.5 161.431,-26.5 169.6676,-26.5"/>
<polygon fill="#191970" stroke="#191970" points="144.2183,-23.0001 134.2183,-26.5 144.2182,-30.0001 144.2183,-23.0001"/>
</g>
</g>
</svg>
