<?xml version="1.0" encoding="UTF-8" standalone="no"?>
<!DOCTYPE svg PUBLIC "-//W3C//DTD SVG 1.1//EN"
 "http://www.w3.org/Graphics/SVG/1.1/DTD/svg11.dtd">
<!-- Generated by graphviz version 2.40.1 (20161225.0304)
 -->
<!-- Title: Graphical Class Hierarchy Pages: 1 -->
<svg width="276pt" height="218pt"
 viewBox="0.00 0.00 276.00 218.00" xmlns="http://www.w3.org/2000/svg" xmlns:xlink="http://www.w3.org/1999/xlink">
<g id="graph0" class="graph" transform="scale(1 1) rotate(0) translate(4 214)">
<title>Graphical Class Hierarchy</title>
<polygon fill="#ffffff" stroke="transparent" points="-4,4 -4,-214 272,-214 272,4 -4,4"/>
<!-- Node108 -->
<g id="node1" class="node">
<title>Node108</title>
<polygon fill="#ffffff" stroke="#bfbfbf" points="0,-95.5 0,-114.5 56,-114.5 56,-95.5 0,-95.5"/>
<text text-anchor="middle" x="28" y="-102.5" font-family="Helvetica,sans-Serif" font-size="10.00" fill="#000000">Register</text>
</g>
<!-- Node0 -->
<g id="node2" class="node">
<title>Node0</title>
<g id="a_node2"><a xlink:href="classamr__wind_1_1_cart_box_refinement.html" target="_top" xlink:title="Static refinement with Cartesian&#45;aligned bounding boxesImplements tagging functionality for nested re...">
<polygon fill="#ffffff" stroke="#000000" points="97.5,-190.5 97.5,-209.5 262.5,-209.5 262.5,-190.5 97.5,-190.5"/>
<text text-anchor="middle" x="180" y="-197.5" font-family="Helvetica,sans-Serif" font-size="10.00" fill="#000000">amr_wind::CartBoxRefinement</text>
</a>
</g>
</g>
<!-- Node108&#45;&gt;Node0 -->
<g id="edge1" class="edge">
<title>Node108&#45;&gt;Node0</title>
<path fill="none" stroke="#191970" d="M38.559,-123.4983C49.5931,-141.0868 68.5562,-166.8905 92,-181 98.4279,-184.8686 105.5392,-187.9545 112.8514,-190.4151"/>
<polygon fill="#191970" stroke="#191970" points="41.42,-121.4642 33.2666,-114.6986 35.4213,-125.072 41.42,-121.4642"/>
</g>
<!-- Node110 -->
<g id="node3" class="node">
<title>Node110</title>
<g id="a_node3"><a xlink:href="classamr__wind_1_1_field_refinement.html" target="_top" xlink:title="AMR refinement using a given field (e.g., density)``` tagging.labels = t1 tagging/t1.type = FieldRefinement tagging/t1.field_name = density ">
<polygon fill="#ffffff" stroke="#000000" points="105.5,-152.5 105.5,-171.5 254.5,-171.5 254.5,-152.5 105.5,-152.5"/>
<text text-anchor="middle" x="180" y="-159.5" font-family="Helvetica,sans-Serif" font-size="10.00" fill="#000000">amr_wind::FieldRefinement</text>
</a>
</g>
</g>
<!-- Node108&#45;&gt;Node110 -->
<g id="edge2" class="edge">
<title>Node108&#45;&gt;Node110</title>
<path fill="none" stroke="#191970" d="M49.9768,-120.4614C61.9238,-128.2317 77.2397,-137.2031 92,-143 101.7472,-146.8281 112.4201,-149.9538 122.8664,-152.4827"/>
<polygon fill="#191970" stroke="#191970" points="51.8189,-117.4827 41.5625,-114.826 47.9236,-123.2988 51.8189,-117.4827"/>
</g>
<!-- Node111 -->
<g id="node4" class="node">
<title>Node111</title>
<g id="a_node4"><a xlink:href="classamr__wind_1_1_geometry_refinement.html" target="_top" xlink:title="AMR based on geometric shapes. ">
<polygon fill="#ffffff" stroke="#000000" points="92.5,-114.5 92.5,-133.5 267.5,-133.5 267.5,-114.5 92.5,-114.5"/>
<text text-anchor="middle" x="180" y="-121.5" font-family="Helvetica,sans-Serif" font-size="10.00" fill="#000000">amr_wind::GeometryRefinement</text>
</a>
</g>
</g>
<!-- Node108&#45;&gt;Node111 -->
<g id="edge3" class="edge">
<title>Node108&#45;&gt;Node111</title>
<path fill="none" stroke="#191970" d="M66.2905,-109.7863C77.7585,-111.2198 90.7609,-112.8451 103.7721,-114.4715"/>
<polygon fill="#191970" stroke="#191970" points="66.5907,-106.2967 56.2338,-108.5292 65.7224,-113.2426 66.5907,-106.2967"/>
</g>
<!-- Node112 -->
<g id="node5" class="node">
<title>Node112</title>
<g id="a_node5"><a xlink:href="classamr__wind_1_1_overset_refinement.html" target="_top" xlink:title="amr_wind::OversetRefinement">
<polygon fill="#ffffff" stroke="#000000" points="98,-76.5 98,-95.5 262,-95.5 262,-76.5 98,-76.5"/>
<text text-anchor="middle" x="180" y="-83.5" font-family="Helvetica,sans-Serif" font-size="10.00" fill="#000000">amr_wind::OversetRefinement</text>
</a>
</g>
</g>
<!-- Node108&#45;&gt;Node112 -->
<g id="edge4" class="edge">
<title>Node108&#45;&gt;Node112</title>
<path fill="none" stroke="#191970" d="M66.2905,-100.2137C77.7585,-98.7802 90.7609,-97.1549 103.7721,-95.5285"/>
<polygon fill="#191970" stroke="#191970" points="65.7224,-96.7574 56.2338,-101.4708 66.5907,-103.7033 65.7224,-96.7574"/>
</g>
<!-- Node113 -->
<g id="node6" class="node">
<title>Node113</title>
<g id="a_node6"><a xlink:href="classamr__wind_1_1_q_criterion_refinement.html" target="_top" xlink:title="AMR refinement using Q criterion``` tagging.labels = qc1 tagging/qc1.type = QCriterionRefinement tagg...">
<polygon fill="#ffffff" stroke="#000000" points="92,-38.5 92,-57.5 268,-57.5 268,-38.5 92,-38.5"/>
<text text-anchor="middle" x="180" y="-45.5" font-family="Helvetica,sans-Serif" font-size="10.00" fill="#000000">amr_wind::QCriterionRefinement</text>
</a>
</g>
</g>
<!-- Node108&#45;&gt;Node113 -->
<g id="edge5" class="edge">
<title>Node108&#45;&gt;Node113</title>
<path fill="none" stroke="#191970" d="M49.9768,-89.5386C61.9238,-81.7683 77.2397,-72.7969 92,-67 101.7472,-63.1719 112.4201,-60.0462 122.8664,-57.5173"/>
<polygon fill="#191970" stroke="#191970" points="47.9236,-86.7012 41.5625,-95.174 51.8189,-92.5173 47.9236,-86.7012"/>
</g>
<!-- Node114 -->
<g id="node7" class="node">
<title>Node114</title>
<g id="a_node7"><a xlink:href="classamr__wind_1_1_vorticity_refinement.html" target="_top" xlink:title="AMR refinement using vorticity``` tagging.labels = v1 tagging/v1.type = VorticityRefinement tagging/v...">
<polygon fill="#ffffff" stroke="#000000" points="96.5,-.5 96.5,-19.5 263.5,-19.5 263.5,-.5 96.5,-.5"/>
<text text-anchor="middle" x="180" y="-7.5" font-family="Helvetica,sans-Serif" font-size="10.00" fill="#000000">amr_wind::VorticityRefinement</text>
</a>
</g>
</g>
<!-- Node108&#45;&gt;Node114 -->
<g id="edge6" class="edge">
<title>Node108&#45;&gt;Node114</title>
<path fill="none" stroke="#191970" d="M38.559,-86.5017C49.5931,-68.9132 68.5562,-43.1095 92,-29 98.4279,-25.1314 105.5392,-22.0455 112.8514,-19.5849"/>
<polygon fill="#191970" stroke="#191970" points="35.4213,-84.928 33.2666,-95.3014 41.42,-88.5358 35.4213,-84.928"/>
</g>
</g>
</svg>
