<?xml version="1.0" encoding="UTF-8" standalone="no"?>
<!DOCTYPE svg PUBLIC "-//W3C//DTD SVG 1.1//EN"
 "http://www.w3.org/Graphics/SVG/1.1/DTD/svg11.dtd">
<!-- Generated by graphviz version 2.40.1 (20161225.0304)
 -->
<!-- Title: Graphical Class Hierarchy Pages: 1 -->
<svg width="226pt" height="529pt"
 viewBox="0.00 0.00 226.00 529.00" xmlns="http://www.w3.org/2000/svg" xmlns:xlink="http://www.w3.org/1999/xlink">
<g id="graph0" class="graph" transform="scale(1 1) rotate(0) translate(4 525)">
<title>Graphical Class Hierarchy</title>
<polygon fill="#ffffff" stroke="transparent" points="-4,4 -4,-525 222,-525 222,4 -4,4"/>
<!-- Node133 -->
<g id="node1" class="node">
<title>Node133</title>
<polygon fill="#ffffff" stroke="#bfbfbf" points="0,-251 0,-270 56,-270 56,-251 0,-251"/>
<text text-anchor="middle" x="28" y="-258" font-family="Helvetica,sans-Serif" font-size="10.00" fill="#000000">Register</text>
</g>
<!-- Node0 -->
<g id="node2" class="node">
<title>Node0</title>
<g id="a_node2"><a xlink:href="classamr__wind_1_1pde_1_1icns_1_1_a_b_l_forcing.html" target="_top" xlink:title="Forcing term to drive the ABL profile to a desired state. ">
<polygon fill="#ffffff" stroke="#000000" points="98,-490.5 98,-520.5 212,-520.5 212,-490.5 98,-490.5"/>
<text text-anchor="start" x="106" y="-508.5" font-family="Helvetica,sans-Serif" font-size="10.00" fill="#000000">amr_wind::pde::icns</text>
<text text-anchor="middle" x="155" y="-497.5" font-family="Helvetica,sans-Serif" font-size="10.00" fill="#000000">::ABLForcing</text>
</a>
</g>
</g>
<!-- Node133&#45;&gt;Node0 -->
<g id="edge1" class="edge">
<title>Node133&#45;&gt;Node0</title>
<path fill="none" stroke="#191970" d="M31.4151,-280.3453C40.1135,-328.8264 64.3784,-451.5123 92,-481.5 95.1718,-484.9435 98.8905,-487.8969 102.9078,-490.4292"/>
<polygon fill="#191970" stroke="#191970" points="34.8103,-279.4438 29.6296,-270.2021 27.9163,-280.6575 34.8103,-279.4438"/>
</g>
<!-- Node135 -->
<g id="node3" class="node">
<title>Node135</title>
<g id="a_node3"><a xlink:href="classamr__wind_1_1pde_1_1icns_1_1_a_b_l_mean_boussinesq.html" target="_top" xlink:title="Boussinesq bouyancy source term. ">
<polygon fill="#ffffff" stroke="#000000" points="93.5,-441.5 93.5,-471.5 216.5,-471.5 216.5,-441.5 93.5,-441.5"/>
<text text-anchor="start" x="101.5" y="-459.5" font-family="Helvetica,sans-Serif" font-size="10.00" fill="#000000">amr_wind::pde::icns</text>
<text text-anchor="middle" x="155" y="-448.5" font-family="Helvetica,sans-Serif" font-size="10.00" fill="#000000">::ABLMeanBoussinesq</text>
</a>
</g>
</g>
<!-- Node133&#45;&gt;Node135 -->
<g id="edge2" class="edge">
<title>Node133&#45;&gt;Node135</title>
<path fill="none" stroke="#191970" d="M30.0368,-280.1145C34.6997,-315.2908 49.2721,-389.4393 92,-432.5 95.38,-435.9064 99.2934,-438.8372 103.4825,-441.3575"/>
<polygon fill="#191970" stroke="#191970" points="33.5083,-279.6667 28.848,-270.1519 26.5576,-280.4962 33.5083,-279.6667"/>
</g>
<!-- Node136 -->
<g id="node4" class="node">
<title>Node136</title>
<g id="a_node4"><a xlink:href="classamr__wind_1_1pde_1_1icns_1_1_actuator_forcing.html" target="_top" xlink:title="Body forces introduced by turbines modeled as actuators in flow field. ">
<polygon fill="#ffffff" stroke="#000000" points="98,-392.5 98,-422.5 212,-422.5 212,-392.5 98,-392.5"/>
<text text-anchor="start" x="106" y="-410.5" font-family="Helvetica,sans-Serif" font-size="10.00" fill="#000000">amr_wind::pde::icns</text>
<text text-anchor="middle" x="155" y="-399.5" font-family="Helvetica,sans-Serif" font-size="10.00" fill="#000000">::ActuatorForcing</text>
</a>
</g>
</g>
<!-- Node133&#45;&gt;Node136 -->
<g id="edge3" class="edge">
<title>Node133&#45;&gt;Node136</title>
<path fill="none" stroke="#191970" d="M33.3558,-280.0707C41.6538,-306.9211 60.0823,-355.0797 92,-383.5 95.8461,-386.9247 100.2312,-389.8811 104.8564,-392.4291"/>
<polygon fill="#191970" stroke="#191970" points="36.6623,-278.9075 30.4941,-270.2933 29.9441,-280.8739 36.6623,-278.9075"/>
</g>
<!-- Node137 -->
<g id="node5" class="node">
<title>Node137</title>
<g id="a_node5"><a xlink:href="classamr__wind_1_1pde_1_1icns_1_1_body_force.html" target="_top" xlink:title="Apply a user&#45;defined body force as a source termThe implementation can apply either a constant source...">
<polygon fill="#ffffff" stroke="#000000" points="98,-343.5 98,-373.5 212,-373.5 212,-343.5 98,-343.5"/>
<text text-anchor="start" x="106" y="-361.5" font-family="Helvetica,sans-Serif" font-size="10.00" fill="#000000">amr_wind::pde::icns</text>
<text text-anchor="middle" x="155" y="-350.5" font-family="Helvetica,sans-Serif" font-size="10.00" fill="#000000">::BodyForce</text>
</a>
</g>
</g>
<!-- Node133&#45;&gt;Node137 -->
<g id="edge4" class="edge">
<title>Node133&#45;&gt;Node137</title>
<path fill="none" stroke="#191970" d="M39.8462,-278.7603C51.4027,-295.307 70.3662,-319.3521 92,-334.5 96.7938,-337.8566 102.1183,-340.8176 107.5833,-343.4094"/>
<polygon fill="#191970" stroke="#191970" points="42.4318,-276.3352 33.9337,-270.0082 36.6314,-280.2538 42.4318,-276.3352"/>
</g>
<!-- Node138 -->
<g id="node6" class="node">
<title>Node138</title>
<g id="a_node6"><a xlink:href="classamr__wind_1_1pde_1_1icns_1_1_boussinesq_buoyancy.html" target="_top" xlink:title="Boussinesq bouyancy source term. ">
<polygon fill="#ffffff" stroke="#000000" points="92,-294.5 92,-324.5 218,-324.5 218,-294.5 92,-294.5"/>
<text text-anchor="start" x="100" y="-312.5" font-family="Helvetica,sans-Serif" font-size="10.00" fill="#000000">amr_wind::pde::icns</text>
<text text-anchor="middle" x="155" y="-301.5" font-family="Helvetica,sans-Serif" font-size="10.00" fill="#000000">::BoussinesqBuoyancy</text>
</a>
</g>
</g>
<!-- Node133&#45;&gt;Node138 -->
<g id="edge5" class="edge">
<title>Node133&#45;&gt;Node138</title>
<path fill="none" stroke="#191970" d="M61.6926,-273.7224C71.4624,-277.5399 82.1506,-281.7003 92,-285.5 99.5347,-288.4067 107.5845,-291.4901 115.3243,-294.4437"/>
<polygon fill="#191970" stroke="#191970" points="62.8817,-270.4294 52.2939,-270.0453 60.3312,-276.9482 62.8817,-270.4294"/>
</g>
<!-- Node139 -->
<g id="node7" class="node">
<title>Node139</title>
<g id="a_node7"><a xlink:href="classamr__wind_1_1pde_1_1icns_1_1_coriolis_forcing.html" target="_top" xlink:title="Account for Coriolis forcing due to earth&#39;s rotation. ">
<polygon fill="#ffffff" stroke="#000000" points="98,-245.5 98,-275.5 212,-275.5 212,-245.5 98,-245.5"/>
<text text-anchor="start" x="106" y="-263.5" font-family="Helvetica,sans-Serif" font-size="10.00" fill="#000000">amr_wind::pde::icns</text>
<text text-anchor="middle" x="155" y="-252.5" font-family="Helvetica,sans-Serif" font-size="10.00" fill="#000000">::CoriolisForcing</text>
</a>
</g>
</g>
<!-- Node133&#45;&gt;Node139 -->
<g id="edge6" class="edge">
<title>Node133&#45;&gt;Node139</title>
<path fill="none" stroke="#191970" d="M66.4586,-260.5C76.3256,-260.5 87.1531,-260.5 97.7464,-260.5"/>
<polygon fill="#191970" stroke="#191970" points="66.1855,-257.0001 56.1854,-260.5 66.1854,-264.0001 66.1855,-257.0001"/>
</g>
<!-- Node140 -->
<g id="node8" class="node">
<title>Node140</title>
<g id="a_node8"><a xlink:href="classamr__wind_1_1pde_1_1icns_1_1_density_buoyancy.html" target="_top" xlink:title="Buoyancy term from density variations. ">
<polygon fill="#ffffff" stroke="#000000" points="98,-196.5 98,-226.5 212,-226.5 212,-196.5 98,-196.5"/>
<text text-anchor="start" x="106" y="-214.5" font-family="Helvetica,sans-Serif" font-size="10.00" fill="#000000">amr_wind::pde::icns</text>
<text text-anchor="middle" x="155" y="-203.5" font-family="Helvetica,sans-Serif" font-size="10.00" fill="#000000">::DensityBuoyancy</text>
</a>
</g>
</g>
<!-- Node133&#45;&gt;Node140 -->
<g id="edge7" class="edge">
<title>Node133&#45;&gt;Node140</title>
<path fill="none" stroke="#191970" d="M62.5535,-247.1683C79.0083,-240.8196 98.7624,-233.198 115.7783,-226.6328"/>
<polygon fill="#191970" stroke="#191970" points="60.8581,-244.0709 52.7884,-250.936 63.3779,-250.6017 60.8581,-244.0709"/>
</g>
<!-- Node141 -->
<g id="node9" class="node">
<title>Node141</title>
<g id="a_node9"><a xlink:href="classamr__wind_1_1pde_1_1icns_1_1_geostrophic_forcing.html" target="_top" xlink:title="Apply source term equivalent to drive the flow to match given geostrophic wind. ">
<polygon fill="#ffffff" stroke="#000000" points="97,-147.5 97,-177.5 213,-177.5 213,-147.5 97,-147.5"/>
<text text-anchor="start" x="105" y="-165.5" font-family="Helvetica,sans-Serif" font-size="10.00" fill="#000000">amr_wind::pde::icns</text>
<text text-anchor="middle" x="155" y="-154.5" font-family="Helvetica,sans-Serif" font-size="10.00" fill="#000000">::GeostrophicForcing</text>
</a>
</g>
</g>
<!-- Node133&#45;&gt;Node141 -->
<g id="edge8" class="edge">
<title>Node133&#45;&gt;Node141</title>
<path fill="none" stroke="#191970" d="M40.3255,-242.0347C51.9844,-225.7834 70.8163,-202.4443 92,-187.5 97.2884,-183.7692 103.2124,-180.4876 109.2548,-177.6342"/>
<polygon fill="#191970" stroke="#191970" points="37.159,-240.4581 34.3263,-250.6672 42.9072,-244.4529 37.159,-240.4581"/>
</g>
<!-- Node142 -->
<g id="node10" class="node">
<title>Node142</title>
<g id="a_node10"><a xlink:href="classamr__wind_1_1pde_1_1icns_1_1_gravity_forcing.html" target="_top" xlink:title="Gravity Forcing term. ">
<polygon fill="#ffffff" stroke="#000000" points="98,-98.5 98,-128.5 212,-128.5 212,-98.5 98,-98.5"/>
<text text-anchor="start" x="106" y="-116.5" font-family="Helvetica,sans-Serif" font-size="10.00" fill="#000000">amr_wind::pde::icns</text>
<text text-anchor="middle" x="155" y="-105.5" font-family="Helvetica,sans-Serif" font-size="10.00" fill="#000000">::GravityForcing</text>
</a>
</g>
</g>
<!-- Node133&#45;&gt;Node142 -->
<g id="edge9" class="edge">
<title>Node133&#45;&gt;Node142</title>
<path fill="none" stroke="#191970" d="M33.455,-241.1489C41.8695,-214.5878 60.4341,-166.9038 92,-138.5 96.2862,-134.6432 101.2396,-131.3469 106.4479,-128.5379"/>
<polygon fill="#191970" stroke="#191970" points="30.0752,-240.2346 30.5475,-250.8189 36.7787,-242.2502 30.0752,-240.2346"/>
</g>
<!-- Node143 -->
<g id="node11" class="node">
<title>Node143</title>
<g id="a_node11"><a xlink:href="classamr__wind_1_1pde_1_1icns_1_1mms_1_1_m_m_s_forcing.html" target="_top" xlink:title="amr_wind::pde::icns\l::mms::MMSForcing">
<polygon fill="#ffffff" stroke="#000000" points="98,-49.5 98,-79.5 212,-79.5 212,-49.5 98,-49.5"/>
<text text-anchor="start" x="106" y="-67.5" font-family="Helvetica,sans-Serif" font-size="10.00" fill="#000000">amr_wind::pde::icns</text>
<text text-anchor="middle" x="155" y="-56.5" font-family="Helvetica,sans-Serif" font-size="10.00" fill="#000000">::mms::MMSForcing</text>
</a>
</g>
</g>
<!-- Node133&#45;&gt;Node143 -->
<g id="edge10" class="edge">
<title>Node133&#45;&gt;Node143</title>
<path fill="none" stroke="#191970" d="M30.1931,-240.5999C35.0709,-205.5359 49.9283,-132.4061 92,-89.5 95.7897,-85.6351 100.2517,-82.352 105.0218,-79.5663"/>
<polygon fill="#191970" stroke="#191970" points="26.6689,-240.5753 28.8966,-250.9332 33.6144,-241.4468 26.6689,-240.5753"/>
</g>
<!-- Node144 -->
<g id="node12" class="node">
<title>Node144</title>
<g id="a_node12"><a xlink:href="classamr__wind_1_1pde_1_1icns_1_1_synth_turb_forcing.html" target="_top" xlink:title="Synthetic turbulence momentum source term. ">
<polygon fill="#ffffff" stroke="#000000" points="98,-.5 98,-30.5 212,-30.5 212,-.5 98,-.5"/>
<text text-anchor="start" x="106" y="-18.5" font-family="Helvetica,sans-Serif" font-size="10.00" fill="#000000">amr_wind::pde::icns</text>
<text text-anchor="middle" x="155" y="-7.5" font-family="Helvetica,sans-Serif" font-size="10.00" fill="#000000">::SynthTurbForcing</text>
</a>
</g>
</g>
<!-- Node133&#45;&gt;Node144 -->
<g id="edge11" class="edge">
<title>Node133&#45;&gt;Node144</title>
<path fill="none" stroke="#191970" d="M31.4525,-240.767C40.2365,-192.5568 64.6819,-70.5349 92,-40.5 95.4838,-36.6698 99.6311,-33.4177 104.1109,-30.6581"/>
<polygon fill="#191970" stroke="#191970" points="27.9639,-240.3932 29.6485,-250.8532 34.8546,-241.6257 27.9639,-240.3932"/>
</g>
</g>
</svg>
