<?xml version="1.0" encoding="UTF-8" standalone="no"?>
<!DOCTYPE svg PUBLIC "-//W3C//DTD SVG 1.1//EN"
 "http://www.w3.org/Graphics/SVG/1.1/DTD/svg11.dtd">
<!-- Generated by graphviz version 2.40.1 (20161225.0304)
 -->
<!-- Title: levelset.H Pages: 1 -->
<svg width="128pt" height="140pt"
 viewBox="0.00 0.00 127.50 140.00" xmlns="http://www.w3.org/2000/svg" xmlns:xlink="http://www.w3.org/1999/xlink">
<g id="graph0" class="graph" transform="scale(1 1) rotate(0) translate(4 136)">
<title>levelset.H</title>
<polygon fill="#ffffff" stroke="transparent" points="-4,4 -4,-136 123.5,-136 123.5,4 -4,4"/>
<!-- Node60 -->
<g id="node1" class="node">
<title>Node60</title>
<polygon fill="#bfbfbf" stroke="#000000" points="5,-112.5 5,-131.5 71,-131.5 71,-112.5 5,-112.5"/>
<text text-anchor="middle" x="38" y="-119.5" font-family="Helvetica,sans-Serif" font-size="10.00" fill="#000000">levelset.H</text>
</g>
<!-- Node61 -->
<g id="node2" class="node">
<title>Node61</title>
<g id="a_node2"><a xlink:href="levelset_8cpp.html" target="_top" xlink:title="levelset.cpp">
<polygon fill="#ffffff" stroke="#000000" points="0,-.5 0,-19.5 76,-19.5 76,-.5 0,-.5"/>
<text text-anchor="middle" x="38" y="-7.5" font-family="Helvetica,sans-Serif" font-size="10.00" fill="#000000">levelset.cpp</text>
</a>
</g>
</g>
<!-- Node60&#45;&gt;Node61 -->
<g id="edge1" class="edge">
<title>Node60&#45;&gt;Node61</title>
<path fill="none" stroke="#191970" d="M29.809,-103.0595C26.7034,-94.8981 23.545,-85.1449 22,-76 18.5824,-55.7717 27.2022,-32.5509 33.0749,-19.7505"/>
<polygon fill="#191970" stroke="#191970" points="26.5873,-104.4287 33.589,-112.3802 33.0742,-101.7979 26.5873,-104.4287"/>
</g>
<!-- Node62 -->
<g id="node3" class="node">
<title>Node62</title>
<g id="a_node3"><a xlink:href="levelset__ops_8_h.html" target="_top" xlink:title="levelset_ops.H">
<polygon fill="#ffffff" stroke="#000000" points="30.5,-56.5 30.5,-75.5 119.5,-75.5 119.5,-56.5 30.5,-56.5"/>
<text text-anchor="middle" x="75" y="-63.5" font-family="Helvetica,sans-Serif" font-size="10.00" fill="#000000">levelset_ops.H</text>
</a>
</g>
</g>
<!-- Node60&#45;&gt;Node62 -->
<g id="edge2" class="edge">
<title>Node60&#45;&gt;Node62</title>
<path fill="none" stroke="#191970" d="M50.1376,-103.6296C56.3093,-94.2887 63.5566,-83.3197 68.6289,-75.6427"/>
<polygon fill="#191970" stroke="#191970" points="47.0373,-101.9728 44.4449,-112.2455 52.8777,-105.8316 47.0373,-101.9728"/>
</g>
<!-- Node62&#45;&gt;Node61 -->
<g id="edge3" class="edge">
<title>Node62&#45;&gt;Node61</title>
<path fill="none" stroke="#191970" d="M62.8624,-47.6296C56.6907,-38.2887 49.4434,-27.3197 44.3711,-19.6427"/>
<polygon fill="#191970" stroke="#191970" points="60.1223,-49.8316 68.5551,-56.2455 65.9627,-45.9728 60.1223,-49.8316"/>
</g>
</g>
</svg>
