<?xml version="1.0" encoding="UTF-8" standalone="no"?>
<!DOCTYPE svg PUBLIC "-//W3C//DTD SVG 1.1//EN"
 "http://www.w3.org/Graphics/SVG/1.1/DTD/svg11.dtd">
<!-- Generated by graphviz version 2.40.1 (20161225.0304)
 -->
<!-- Title: linear_interpolation.H Pages: 1 -->
<svg width="220pt" height="140pt"
 viewBox="0.00 0.00 220.00 140.00" xmlns="http://www.w3.org/2000/svg" xmlns:xlink="http://www.w3.org/1999/xlink">
<g id="graph0" class="graph" transform="scale(1 1) rotate(0) translate(4 136)">
<title>linear_interpolation.H</title>
<polygon fill="#ffffff" stroke="transparent" points="-4,4 -4,-136 216,-136 216,4 -4,4"/>
<!-- Node2 -->
<g id="node1" class="node">
<title>Node2</title>
<polygon fill="#bfbfbf" stroke="#000000" points="42,-112.5 42,-131.5 164,-131.5 164,-112.5 42,-112.5"/>
<text text-anchor="middle" x="103" y="-119.5" font-family="Helvetica,sans-Serif" font-size="10.00" fill="#000000">linear_interpolation.H</text>
</g>
<!-- Node3 -->
<g id="node2" class="node">
<title>Node3</title>
<g id="a_node2"><a xlink:href="_airfoil_table_8cpp.html" target="_top" xlink:title="AirfoilTable.cpp">
<polygon fill="#ffffff" stroke="#000000" points="0,-56.5 0,-75.5 92,-75.5 92,-56.5 0,-56.5"/>
<text text-anchor="middle" x="46" y="-63.5" font-family="Helvetica,sans-Serif" font-size="10.00" fill="#000000">AirfoilTable.cpp</text>
</a>
</g>
</g>
<!-- Node2&#45;&gt;Node3 -->
<g id="edge1" class="edge">
<title>Node2&#45;&gt;Node3</title>
<path fill="none" stroke="#191970" d="M85.7729,-105.0751C75.9659,-95.4402 64.036,-83.7196 55.8149,-75.6427"/>
<polygon fill="#191970" stroke="#191970" points="83.4851,-107.734 93.0714,-112.2455 88.3909,-102.7406 83.4851,-107.734"/>
</g>
<!-- Node4 -->
<g id="node3" class="node">
<title>Node4</title>
<g id="a_node3"><a xlink:href="fixed__wing__ops_8_h.html" target="_top" xlink:title="fixed_wing_ops.H">
<polygon fill="#ffffff" stroke="#000000" points="110,-56.5 110,-75.5 212,-75.5 212,-56.5 110,-56.5"/>
<text text-anchor="middle" x="161" y="-63.5" font-family="Helvetica,sans-Serif" font-size="10.00" fill="#000000">fixed_wing_ops.H</text>
</a>
</g>
</g>
<!-- Node2&#45;&gt;Node4 -->
<g id="edge2" class="edge">
<title>Node2&#45;&gt;Node4</title>
<path fill="none" stroke="#191970" d="M120.5293,-105.0751C130.5083,-95.4402 142.6476,-83.7196 151.0129,-75.6427"/>
<polygon fill="#191970" stroke="#191970" points="117.8658,-102.7817 113.1028,-112.2455 122.728,-107.8175 117.8658,-102.7817"/>
</g>
<!-- Node5 -->
<g id="node4" class="node">
<title>Node5</title>
<g id="a_node4"><a xlink:href="_fixed_wing_8cpp.html" target="_top" xlink:title="FixedWing.cpp">
<polygon fill="#ffffff" stroke="#000000" points="117.5,-.5 117.5,-19.5 204.5,-19.5 204.5,-.5 117.5,-.5"/>
<text text-anchor="middle" x="161" y="-7.5" font-family="Helvetica,sans-Serif" font-size="10.00" fill="#000000">FixedWing.cpp</text>
</a>
</g>
</g>
<!-- Node4&#45;&gt;Node5 -->
<g id="edge3" class="edge">
<title>Node4&#45;&gt;Node5</title>
<path fill="none" stroke="#191970" d="M161,-46.1575C161,-37.155 161,-26.9199 161,-19.6427"/>
<polygon fill="#191970" stroke="#191970" points="157.5001,-46.2455 161,-56.2455 164.5001,-46.2456 157.5001,-46.2455"/>
</g>
</g>
</svg>
