<?xml version="1.0" encoding="UTF-8" standalone="no"?>
<!DOCTYPE svg PUBLIC "-//W3C//DTD SVG 1.1//EN"
 "http://www.w3.org/Graphics/SVG/1.1/DTD/svg11.dtd">
<!-- Generated by graphviz version 2.40.1 (20161225.0304)
 -->
<!-- Title: nc_interface.cpp Pages: 1 -->
<svg width="399pt" height="151pt"
 viewBox="0.00 0.00 398.50 151.00" xmlns="http://www.w3.org/2000/svg" xmlns:xlink="http://www.w3.org/1999/xlink">
<g id="graph0" class="graph" transform="scale(1 1) rotate(0) translate(4 147)">
<title>nc_interface.cpp</title>
<polygon fill="#ffffff" stroke="transparent" points="-4,4 -4,-147 394.5,-147 394.5,4 -4,4"/>
<!-- Node0 -->
<g id="node1" class="node">
<title>Node0</title>
<polygon fill="#bfbfbf" stroke="#000000" points="148.5,-123.5 148.5,-142.5 245.5,-142.5 245.5,-123.5 148.5,-123.5"/>
<text text-anchor="middle" x="197" y="-130.5" font-family="Helvetica,sans-Serif" font-size="10.00" fill="#000000">nc_interface.cpp</text>
</g>
<!-- Node1 -->
<g id="node2" class="node">
<title>Node1</title>
<polygon fill="#ffffff" stroke="#bfbfbf" points="70,-62 70,-81 116,-81 116,-62 70,-62"/>
<text text-anchor="middle" x="93" y="-69" font-family="Helvetica,sans-Serif" font-size="10.00" fill="#000000">cstdio</text>
</g>
<!-- Node0&#45;&gt;Node1 -->
<g id="edge1" class="edge">
<title>Node0&#45;&gt;Node1</title>
<path fill="none" stroke="#191970" d="M180.75,-123.3906C163.8831,-113.4165 137.2901,-97.6908 117.7965,-86.1633"/>
<polygon fill="#191970" stroke="#191970" points="119.5251,-83.1194 109.1359,-81.0419 115.962,-89.1447 119.5251,-83.1194"/>
</g>
<!-- Node2 -->
<g id="node3" class="node">
<title>Node2</title>
<g id="a_node3"><a xlink:href="nc__interface_8_h.html" target="_top" xlink:title="Interface to NetCDF library. ">
<polygon fill="#ffffff" stroke="#000000" points="134.5,-56.5 134.5,-86.5 259.5,-86.5 259.5,-56.5 134.5,-56.5"/>
<text text-anchor="start" x="142.5" y="-74.5" font-family="Helvetica,sans-Serif" font-size="10.00" fill="#000000">amr&#45;wind/utilities</text>
<text text-anchor="middle" x="197" y="-63.5" font-family="Helvetica,sans-Serif" font-size="10.00" fill="#000000">/ncutils/nc_interface.H</text>
</a>
</g>
</g>
<!-- Node0&#45;&gt;Node2 -->
<g id="edge2" class="edge">
<title>Node0&#45;&gt;Node2</title>
<path fill="none" stroke="#191970" d="M197,-123.3906C197,-116.2234 197,-106.0862 197,-96.671"/>
<polygon fill="#191970" stroke="#191970" points="200.5001,-96.5446 197,-86.5446 193.5001,-96.5446 200.5001,-96.5446"/>
</g>
<!-- Node8 -->
<g id="node9" class="node">
<title>Node8</title>
<polygon fill="#ffffff" stroke="#bfbfbf" points="277.5,-62 277.5,-81 338.5,-81 338.5,-62 277.5,-62"/>
<text text-anchor="middle" x="308" y="-69" font-family="Helvetica,sans-Serif" font-size="10.00" fill="#000000">AMReX.H</text>
</g>
<!-- Node0&#45;&gt;Node8 -->
<g id="edge8" class="edge">
<title>Node0&#45;&gt;Node8</title>
<path fill="none" stroke="#191970" d="M214.3438,-123.3906C232.4273,-113.3713 260.9859,-97.5483 281.8165,-86.0071"/>
<polygon fill="#191970" stroke="#191970" points="283.7271,-88.9498 290.778,-81.0419 280.3346,-82.8268 283.7271,-88.9498"/>
</g>
<!-- Node3 -->
<g id="node4" class="node">
<title>Node3</title>
<polygon fill="#ffffff" stroke="#bfbfbf" points="0,-.5 0,-19.5 44,-19.5 44,-.5 0,-.5"/>
<text text-anchor="middle" x="22" y="-7.5" font-family="Helvetica,sans-Serif" font-size="10.00" fill="#000000">string</text>
</g>
<!-- Node2&#45;&gt;Node3 -->
<g id="edge3" class="edge">
<title>Node2&#45;&gt;Node3</title>
<path fill="none" stroke="#191970" d="M154.1902,-56.4554C123.1886,-45.5606 81.9558,-31.0702 53.837,-21.1884"/>
<polygon fill="#191970" stroke="#191970" points="54.7088,-17.785 44.114,-17.7715 52.3879,-24.3891 54.7088,-17.785"/>
</g>
<!-- Node4 -->
<g id="node5" class="node">
<title>Node4</title>
<polygon fill="#ffffff" stroke="#bfbfbf" points="62.5,-.5 62.5,-19.5 155.5,-19.5 155.5,-.5 62.5,-.5"/>
<text text-anchor="middle" x="109" y="-7.5" font-family="Helvetica,sans-Serif" font-size="10.00" fill="#000000">unordered_map</text>
</g>
<!-- Node2&#45;&gt;Node4 -->
<g id="edge4" class="edge">
<title>Node2&#45;&gt;Node4</title>
<path fill="none" stroke="#191970" d="M175.2472,-56.2977C161.8032,-46.9022 144.5989,-34.8787 131.0922,-25.4395"/>
<polygon fill="#191970" stroke="#191970" points="133.0288,-22.5228 122.8271,-19.6633 129.0189,-28.2605 133.0288,-22.5228"/>
</g>
<!-- Node5 -->
<g id="node6" class="node">
<title>Node5</title>
<polygon fill="#ffffff" stroke="#bfbfbf" points="173.5,-.5 173.5,-19.5 220.5,-19.5 220.5,-.5 173.5,-.5"/>
<text text-anchor="middle" x="197" y="-7.5" font-family="Helvetica,sans-Serif" font-size="10.00" fill="#000000">vector</text>
</g>
<!-- Node2&#45;&gt;Node5 -->
<g id="edge5" class="edge">
<title>Node2&#45;&gt;Node5</title>
<path fill="none" stroke="#191970" d="M197,-56.2977C197,-48.3834 197,-38.6043 197,-30.0759"/>
<polygon fill="#191970" stroke="#191970" points="200.5001,-29.8469 197,-19.8469 193.5001,-29.847 200.5001,-29.8469"/>
</g>
<!-- Node6 -->
<g id="node7" class="node">
<title>Node6</title>
<polygon fill="#ffffff" stroke="#bfbfbf" points="239,-.5 239,-19.5 295,-19.5 295,-.5 239,-.5"/>
<text text-anchor="middle" x="267" y="-7.5" font-family="Helvetica,sans-Serif" font-size="10.00" fill="#000000">netcdf.h</text>
</g>
<!-- Node2&#45;&gt;Node6 -->
<g id="edge6" class="edge">
<title>Node2&#45;&gt;Node6</title>
<path fill="none" stroke="#191970" d="M214.3034,-56.2977C224.5262,-47.3163 237.4823,-35.9334 247.9896,-26.702"/>
<polygon fill="#191970" stroke="#191970" points="250.5897,-29.0766 255.7921,-19.8469 245.9695,-23.8178 250.5897,-29.0766"/>
</g>
<!-- Node7 -->
<g id="node8" class="node">
<title>Node7</title>
<polygon fill="#ffffff" stroke="#bfbfbf" points="313.5,-.5 313.5,-19.5 390.5,-19.5 390.5,-.5 313.5,-.5"/>
<text text-anchor="middle" x="352" y="-7.5" font-family="Helvetica,sans-Serif" font-size="10.00" fill="#000000">netcdf_par.h</text>
</g>
<!-- Node2&#45;&gt;Node7 -->
<g id="edge7" class="edge">
<title>Node2&#45;&gt;Node7</title>
<path fill="none" stroke="#191970" d="M234.9173,-56.4554C260.4391,-46.329 293.7896,-33.0964 318.3656,-23.3453"/>
<polygon fill="#191970" stroke="#191970" points="319.9763,-26.4717 327.9805,-19.5303 317.3946,-19.9651 319.9763,-26.4717"/>
</g>
</g>
</svg>
