<?xml version="1.0" encoding="UTF-8" standalone="no"?>
<!DOCTYPE svg PUBLIC "-//W3C//DTD SVG 1.1//EN"
 "http://www.w3.org/Graphics/SVG/1.1/DTD/svg11.dtd">
<!-- Generated by graphviz version 2.40.1 (20161225.0304)
 -->
<!-- Title: prob_bc.cpp Pages: 1 -->
<svg width="2443pt" height="397pt"
 viewBox="0.00 0.00 2443.00 397.00" xmlns="http://www.w3.org/2000/svg" xmlns:xlink="http://www.w3.org/1999/xlink">
<g id="graph0" class="graph" transform="scale(1 1) rotate(0) translate(4 393)">
<title>prob_bc.cpp</title>
<polygon fill="#ffffff" stroke="transparent" points="-4,4 -4,-393 2439,-393 2439,4 -4,4"/>
<!-- Node0 -->
<g id="node1" class="node">
<title>Node0</title>
<polygon fill="#bfbfbf" stroke="#000000" points="862.5,-369.5 862.5,-388.5 937.5,-388.5 937.5,-369.5 862.5,-369.5"/>
<text text-anchor="middle" x="900" y="-376.5" font-family="Helvetica,sans-Serif" font-size="10.00" fill="#000000">prob_bc.cpp</text>
</g>
<!-- Node1 -->
<g id="node2" class="node">
<title>Node1</title>
<g id="a_node2"><a xlink:href="incflo_8_h.html" target="_top" xlink:title="amr&#45;wind/incflo.H">
<polygon fill="#ffffff" stroke="#000000" points="849,-313.5 849,-332.5 951,-332.5 951,-313.5 849,-313.5"/>
<text text-anchor="middle" x="900" y="-320.5" font-family="Helvetica,sans-Serif" font-size="10.00" fill="#000000">amr&#45;wind/incflo.H</text>
</a>
</g>
</g>
<!-- Node0&#45;&gt;Node1 -->
<g id="edge1" class="edge">
<title>Node0&#45;&gt;Node1</title>
<path fill="none" stroke="#191970" d="M900,-369.2455C900,-361.9382 900,-351.6944 900,-342.7046"/>
<polygon fill="#191970" stroke="#191970" points="903.5001,-342.6426 900,-332.6427 896.5001,-342.6427 903.5001,-342.6426"/>
</g>
<!-- Node2 -->
<g id="node3" class="node">
<title>Node2</title>
<polygon fill="#ffffff" stroke="#bfbfbf" points="759.5,-129 759.5,-148 868.5,-148 868.5,-129 759.5,-129"/>
<text text-anchor="middle" x="814" y="-136" font-family="Helvetica,sans-Serif" font-size="10.00" fill="#000000">AMReX_AmrCore.H</text>
</g>
<!-- Node1&#45;&gt;Node2 -->
<g id="edge2" class="edge">
<title>Node1&#45;&gt;Node2</title>
<path fill="none" stroke="#191970" d="M947.1253,-313.4416C982.6567,-305.1663 1027.0728,-292.1606 1038,-277 1046.056,-265.8229 1045.2434,-257.7201 1038,-246 1017.2057,-212.3541 911.2507,-171.7466 852.8194,-151.4182"/>
<polygon fill="#191970" stroke="#191970" points="853.7759,-148.0459 843.1812,-148.099 851.4966,-154.6645 853.7759,-148.0459"/>
</g>
<!-- Node3 -->
<g id="node4" class="node">
<title>Node3</title>
<polygon fill="#ffffff" stroke="#bfbfbf" points="443,-252 443,-271 567,-271 567,-252 443,-252"/>
<text text-anchor="middle" x="505" y="-259" font-family="Helvetica,sans-Serif" font-size="10.00" fill="#000000">AMReX_MultiFabUtil.H</text>
</g>
<!-- Node1&#45;&gt;Node3 -->
<g id="edge3" class="edge">
<title>Node1&#45;&gt;Node3</title>
<path fill="none" stroke="#191970" d="M848.7471,-316.9117C784.7166,-309.0328 671.8969,-294.2508 576,-277 569.6438,-275.8566 562.9909,-274.5508 556.414,-273.1931"/>
<polygon fill="#191970" stroke="#191970" points="556.7027,-269.6769 546.1951,-271.033 555.255,-276.5256 556.7027,-269.6769"/>
</g>
<!-- Node4 -->
<g id="node5" class="node">
<title>Node4</title>
<polygon fill="#ffffff" stroke="#bfbfbf" points="585.5,-252 585.5,-271 702.5,-271 702.5,-252 585.5,-252"/>
<text text-anchor="middle" x="644" y="-259" font-family="Helvetica,sans-Serif" font-size="10.00" fill="#000000">AMReX_ParmParse.H</text>
</g>
<!-- Node1&#45;&gt;Node4 -->
<g id="edge4" class="edge">
<title>Node1&#45;&gt;Node4</title>
<path fill="none" stroke="#191970" d="M860.2809,-313.4581C815.4397,-302.6857 742.4157,-285.1428 693.7975,-273.4631"/>
<polygon fill="#191970" stroke="#191970" points="694.3532,-269.9971 683.8123,-271.0643 692.7181,-276.8034 694.3532,-269.9971"/>
</g>
<!-- Node5 -->
<g id="node6" class="node">
<title>Node5</title>
<polygon fill="#ffffff" stroke="#bfbfbf" points="2195,-62 2195,-81 2305,-81 2305,-62 2195,-62"/>
<text text-anchor="middle" x="2250" y="-69" font-family="Helvetica,sans-Serif" font-size="10.00" fill="#000000">AMReX_iMultiFab.H</text>
</g>
<!-- Node1&#45;&gt;Node5 -->
<g id="edge5" class="edge">
<title>Node1&#45;&gt;Node5</title>
<path fill="none" stroke="#191970" d="M951.2896,-322.5512C1166.9331,-319.7516 1998.5233,-299.5398 2207,-154 2228.3555,-139.0915 2239.8684,-110.2322 2245.4653,-90.9117"/>
<polygon fill="#191970" stroke="#191970" points="2248.897,-91.6231 2248.049,-81.0622 2242.1261,-89.8469 2248.897,-91.6231"/>
</g>
<!-- Node6 -->
<g id="node7" class="node">
<title>Node6</title>
<polygon fill="#ffffff" stroke="#bfbfbf" points="759.5,-252 759.5,-271 896.5,-271 896.5,-252 759.5,-252"/>
<text text-anchor="middle" x="828" y="-259" font-family="Helvetica,sans-Serif" font-size="10.00" fill="#000000">AMReX_NodalProjector.H</text>
</g>
<!-- Node1&#45;&gt;Node6 -->
<g id="edge6" class="edge">
<title>Node1&#45;&gt;Node6</title>
<path fill="none" stroke="#191970" d="M888.75,-313.3906C877.614,-303.8786 860.354,-289.1357 847.0732,-277.7917"/>
<polygon fill="#191970" stroke="#191970" points="849.2856,-275.0784 839.4086,-271.2449 844.7392,-280.4011 849.2856,-275.0784"/>
</g>
<!-- Node7 -->
<g id="node8" class="node">
<title>Node7</title>
<g id="a_node8"><a xlink:href="incflo__enums_8_h.html" target="_top" xlink:title="amr&#45;wind/incflo_enums.H">
<polygon fill="#ffffff" stroke="#000000" points="729,-62 729,-81 869,-81 869,-62 729,-62"/>
<text text-anchor="middle" x="799" y="-69" font-family="Helvetica,sans-Serif" font-size="10.00" fill="#000000">amr&#45;wind/incflo_enums.H</text>
</a>
</g>
</g>
<!-- Node1&#45;&gt;Node7 -->
<g id="edge7" class="edge">
<title>Node1&#45;&gt;Node7</title>
<path fill="none" stroke="#191970" d="M848.8331,-314.0009C810.2447,-306.0502 761.9827,-293.2082 750,-277 709.3112,-221.963 724.5958,-186.5552 750,-123 755.5662,-109.0746 766.8885,-96.7656 777.2482,-87.676"/>
<polygon fill="#191970" stroke="#191970" points="779.7291,-90.167 785.2218,-81.1072 775.2781,-84.7643 779.7291,-90.167"/>
</g>
<!-- Node8 -->
<g id="node9" class="node">
<title>Node8</title>
<g id="a_node9"><a xlink:href="_c_f_d_sim_8_h.html" target="_top" xlink:title="amr&#45;wind/CFDSim.H">
<polygon fill="#ffffff" stroke="#000000" points="915,-252 915,-271 1029,-271 1029,-252 915,-252"/>
<text text-anchor="middle" x="972" y="-259" font-family="Helvetica,sans-Serif" font-size="10.00" fill="#000000">amr&#45;wind/CFDSim.H</text>
</a>
</g>
</g>
<!-- Node1&#45;&gt;Node8 -->
<g id="edge8" class="edge">
<title>Node1&#45;&gt;Node8</title>
<path fill="none" stroke="#191970" d="M911.25,-313.3906C922.386,-303.8786 939.646,-289.1357 952.9268,-277.7917"/>
<polygon fill="#191970" stroke="#191970" points="955.2608,-280.4011 960.5914,-271.2449 950.7144,-275.0784 955.2608,-280.4011"/>
</g>
<!-- Node9 -->
<g id="node10" class="node">
<title>Node9</title>
<g id="a_node10"><a xlink:href="_sim_time_8_h.html" target="_top" xlink:title="amr&#45;wind/core/SimTime.H">
<polygon fill="#ffffff" stroke="#000000" points="236.5,-190.5 236.5,-209.5 379.5,-209.5 379.5,-190.5 236.5,-190.5"/>
<text text-anchor="middle" x="308" y="-197.5" font-family="Helvetica,sans-Serif" font-size="10.00" fill="#000000">amr&#45;wind/core/SimTime.H</text>
</a>
</g>
</g>
<!-- Node1&#45;&gt;Node9 -->
<g id="edge73" class="edge">
<title>Node1&#45;&gt;Node9</title>
<path fill="none" stroke="#191970" d="M848.8537,-320.8335C744.3549,-315.9382 509.8272,-302.4208 434,-277 393.0488,-263.2713 351.4266,-234.2631 327.7529,-216.0327"/>
<polygon fill="#191970" stroke="#191970" points="329.6238,-213.0516 319.5974,-209.6277 325.3002,-218.5568 329.6238,-213.0516"/>
</g>
<!-- Node13 -->
<g id="node14" class="node">
<title>Node13</title>
<g id="a_node14"><a xlink:href="_field_repo_8_h.html" target="_top" xlink:title="amr&#45;wind/core/FieldRepo.H">
<polygon fill="#ffffff" stroke="#000000" points="1299,-190.5 1299,-209.5 1445,-209.5 1445,-190.5 1299,-190.5"/>
<text text-anchor="middle" x="1372" y="-197.5" font-family="Helvetica,sans-Serif" font-size="10.00" fill="#000000">amr&#45;wind/core/FieldRepo.H</text>
</a>
</g>
</g>
<!-- Node1&#45;&gt;Node13 -->
<g id="edge74" class="edge">
<title>Node1&#45;&gt;Node13</title>
<path fill="none" stroke="#191970" d="M936.6443,-313.4507C1021.5962,-291.3129 1231.8658,-236.518 1325.6078,-212.0895"/>
<polygon fill="#191970" stroke="#191970" points="1326.5848,-215.4519 1335.379,-209.5432 1324.8196,-208.6781 1326.5848,-215.4519"/>
</g>
<!-- Node40 -->
<g id="node41" class="node">
<title>Node40</title>
<g id="a_node41"><a xlink:href="incflo__prob___i_8_h.html" target="_top" xlink:title="amr&#45;wind/prob/incflo\l_prob_I.H">
<polygon fill="#ffffff" stroke="#000000" points="2319,-246.5 2319,-276.5 2435,-276.5 2435,-246.5 2319,-246.5"/>
<text text-anchor="start" x="2327" y="-264.5" font-family="Helvetica,sans-Serif" font-size="10.00" fill="#000000">amr&#45;wind/prob/incflo</text>
<text text-anchor="middle" x="2377" y="-253.5" font-family="Helvetica,sans-Serif" font-size="10.00" fill="#000000">_prob_I.H</text>
</a>
</g>
</g>
<!-- Node1&#45;&gt;Node40 -->
<g id="edge75" class="edge">
<title>Node1&#45;&gt;Node40</title>
<path fill="none" stroke="#191970" d="M951.2949,-322.5529C1171.1888,-320.4466 2035.2176,-310.1832 2305,-277 2306.2849,-276.842 2307.5809,-276.6722 2308.8849,-276.4918"/>
<polygon fill="#191970" stroke="#191970" points="2309.649,-279.9152 2318.9933,-274.9216 2308.5745,-272.9981 2309.649,-279.9152"/>
</g>
<!-- Node8&#45;&gt;Node2 -->
<g id="edge9" class="edge">
<title>Node8&#45;&gt;Node2</title>
<path fill="none" stroke="#191970" d="M963.7752,-251.9632C951.0258,-237.5138 925.3141,-209.6764 900,-190 881.7984,-175.8521 859.4064,-162.5563 842.0344,-153.0191"/>
<polygon fill="#191970" stroke="#191970" points="843.4215,-149.7907 832.9583,-148.1258 840.0995,-155.9522 843.4215,-149.7907"/>
</g>
<!-- Node8&#45;&gt;Node9 -->
<g id="edge10" class="edge">
<title>Node8&#45;&gt;Node9</title>
<path fill="none" stroke="#191970" d="M935.3317,-251.9694C925.5343,-249.711 914.9131,-247.5197 905,-246 722.2223,-217.979 505.2098,-206.6893 389.7863,-202.4083"/>
<polygon fill="#191970" stroke="#191970" points="389.7371,-198.9043 379.6169,-202.0396 389.4834,-205.8997 389.7371,-198.9043"/>
</g>
<!-- Node8&#45;&gt;Node13 -->
<g id="edge14" class="edge">
<title>Node8&#45;&gt;Node13</title>
<path fill="none" stroke="#191970" d="M1029.3102,-252.6885C1100.6357,-241.7223 1222.4813,-222.9885 1300.027,-211.0658"/>
<polygon fill="#191970" stroke="#191970" points="1300.8435,-214.4815 1310.1955,-209.5024 1299.7797,-207.5628 1300.8435,-214.4815"/>
</g>
<!-- Node30 -->
<g id="node31" class="node">
<title>Node30</title>
<g id="a_node31"><a xlink:href="_p_d_e_base_8_h.html" target="_top" xlink:title="amr&#45;wind/equation_systems\l/PDEBase.H">
<polygon fill="#ffffff" stroke="#000000" points="547.5,-123.5 547.5,-153.5 702.5,-153.5 702.5,-123.5 547.5,-123.5"/>
<text text-anchor="start" x="555.5" y="-141.5" font-family="Helvetica,sans-Serif" font-size="10.00" fill="#000000">amr&#45;wind/equation_systems</text>
<text text-anchor="middle" x="625" y="-130.5" font-family="Helvetica,sans-Serif" font-size="10.00" fill="#000000">/PDEBase.H</text>
</a>
</g>
</g>
<!-- Node8&#45;&gt;Node30 -->
<g id="edge51" class="edge">
<title>Node8&#45;&gt;Node30</title>
<path fill="none" stroke="#191970" d="M958.3011,-251.9597C935.8406,-236.7341 889.3386,-206.9366 846,-190 803.3725,-173.3413 753.9229,-161.1965 712.621,-152.8993"/>
<polygon fill="#191970" stroke="#191970" points="713.0667,-149.42 702.5793,-150.9251 711.7162,-156.2885 713.0667,-149.42"/>
</g>
<!-- Node38 -->
<g id="node39" class="node">
<title>Node38</title>
<g id="a_node39"><a xlink:href="_physics_8_h.html" target="_top" xlink:title="amr&#45;wind/core/Physics.H">
<polygon fill="#ffffff" stroke="#000000" points="392.5,-129 392.5,-148 529.5,-148 529.5,-129 392.5,-129"/>
<text text-anchor="middle" x="461" y="-136" font-family="Helvetica,sans-Serif" font-size="10.00" fill="#000000">amr&#45;wind/core/Physics.H</text>
</a>
</g>
</g>
<!-- Node8&#45;&gt;Node38 -->
<g id="edge68" class="edge">
<title>Node8&#45;&gt;Node38</title>
<path fill="none" stroke="#191970" d="M932.3279,-251.9507C840.1705,-229.768 611.7908,-174.796 510.6107,-150.4415"/>
<polygon fill="#191970" stroke="#191970" points="511.1883,-146.9806 500.6468,-148.0432 509.5501,-153.7863 511.1883,-146.9806"/>
</g>
<!-- Node10 -->
<g id="node11" class="node">
<title>Node10</title>
<polygon fill="#ffffff" stroke="#bfbfbf" points="132.5,-129 132.5,-148 223.5,-148 223.5,-129 132.5,-129"/>
<text text-anchor="middle" x="178" y="-136" font-family="Helvetica,sans-Serif" font-size="10.00" fill="#000000">AMReX_REAL.H</text>
</g>
<!-- Node9&#45;&gt;Node10 -->
<g id="edge11" class="edge">
<title>Node9&#45;&gt;Node10</title>
<path fill="none" stroke="#191970" d="M287.6875,-190.3906C266.1269,-180.1908 231.8522,-163.9763 207.3556,-152.3875"/>
<polygon fill="#191970" stroke="#191970" points="208.7061,-149.1545 198.1699,-148.0419 205.7126,-155.4822 208.7061,-149.1545"/>
</g>
<!-- Node11 -->
<g id="node12" class="node">
<title>Node11</title>
<polygon fill="#ffffff" stroke="#bfbfbf" points="242,-129 242,-148 374,-148 374,-129 242,-129"/>
<text text-anchor="middle" x="308" y="-136" font-family="Helvetica,sans-Serif" font-size="10.00" fill="#000000">AMReX_GpuQualifiers.H</text>
</g>
<!-- Node9&#45;&gt;Node11 -->
<g id="edge12" class="edge">
<title>Node9&#45;&gt;Node11</title>
<path fill="none" stroke="#191970" d="M308,-190.3906C308,-181.8657 308,-169.1392 308,-158.4235"/>
<polygon fill="#191970" stroke="#191970" points="311.5001,-158.2448 308,-148.2449 304.5001,-158.2449 311.5001,-158.2448"/>
</g>
<!-- Node12 -->
<g id="node13" class="node">
<title>Node12</title>
<polygon fill="#ffffff" stroke="#bfbfbf" points="0,-129 0,-148 114,-148 114,-129 0,-129"/>
<text text-anchor="middle" x="57" y="-136" font-family="Helvetica,sans-Serif" font-size="10.00" fill="#000000">AMReX_Extension.H</text>
</g>
<!-- Node9&#45;&gt;Node12 -->
<g id="edge13" class="edge">
<title>Node9&#45;&gt;Node12</title>
<path fill="none" stroke="#191970" d="M269.0566,-190.4581C225.0913,-179.6857 153.4935,-162.1428 105.8249,-150.4631"/>
<polygon fill="#191970" stroke="#191970" points="106.5804,-147.0447 96.0347,-148.0643 104.9145,-153.8436 106.5804,-147.0447"/>
</g>
<!-- Node13&#45;&gt;Node2 -->
<g id="edge48" class="edge">
<title>Node13&#45;&gt;Node2</title>
<path fill="none" stroke="#191970" d="M1298.7309,-196.0224C1202.7812,-190.1483 1029.5372,-177.2546 883,-154 876.3194,-152.9398 869.3184,-151.6181 862.4445,-150.1965"/>
<polygon fill="#191970" stroke="#191970" points="863.0288,-146.7422 852.5164,-148.061 861.5568,-153.5856 863.0288,-146.7422"/>
</g>
<!-- Node13&#45;&gt;Node5 -->
<g id="edge50" class="edge">
<title>Node13&#45;&gt;Node5</title>
<path fill="none" stroke="#191970" d="M1445.1779,-198.9533C1630.851,-195.8542 2110.1718,-184.9249 2175,-154 2203.9771,-140.1771 2226.8883,-109.6355 2239.4302,-89.8411"/>
<polygon fill="#191970" stroke="#191970" points="2242.535,-91.4714 2244.7354,-81.1076 2236.5523,-87.8372 2242.535,-91.4714"/>
</g>
<!-- Node14 -->
<g id="node15" class="node">
<title>Node14</title>
<polygon fill="#ffffff" stroke="#bfbfbf" points="1014,-.5 1014,-19.5 1058,-19.5 1058,-.5 1014,-.5"/>
<text text-anchor="middle" x="1036" y="-7.5" font-family="Helvetica,sans-Serif" font-size="10.00" fill="#000000">string</text>
</g>
<!-- Node13&#45;&gt;Node14 -->
<g id="edge15" class="edge">
<title>Node13&#45;&gt;Node14</title>
<path fill="none" stroke="#191970" d="M1314.5866,-190.4376C1223.1981,-173.8696 1051.5067,-136.7695 1018,-87 1006.2073,-69.4837 1015.0834,-45.2193 1024.0485,-28.639"/>
<polygon fill="#191970" stroke="#191970" points="1027.1483,-30.2717 1029.1817,-19.8739 1021.1079,-26.7342 1027.1483,-30.2717"/>
</g>
<!-- Node15 -->
<g id="node16" class="node">
<title>Node15</title>
<polygon fill="#ffffff" stroke="#bfbfbf" points="695.5,-.5 695.5,-19.5 788.5,-19.5 788.5,-.5 695.5,-.5"/>
<text text-anchor="middle" x="742" y="-7.5" font-family="Helvetica,sans-Serif" font-size="10.00" fill="#000000">unordered_map</text>
</g>
<!-- Node13&#45;&gt;Node15 -->
<g id="edge16" class="edge">
<title>Node13&#45;&gt;Node15</title>
<path fill="none" stroke="#191970" d="M1298.8597,-195.5399C1236.5282,-190.1809 1145.2015,-178.6082 1069,-154 978.2062,-124.6794 965.875,-93.1643 878,-56 847.2293,-42.9864 811.3971,-30.9896 784.2395,-22.5125"/>
<polygon fill="#191970" stroke="#191970" points="785.2394,-19.1583 774.6519,-19.5533 783.1748,-25.8469 785.2394,-19.1583"/>
</g>
<!-- Node16 -->
<g id="node17" class="node">
<title>Node16</title>
<g id="a_node17"><a xlink:href="_field_desc_types_8_h.html" target="_top" xlink:title="amr&#45;wind/core/FieldDescTypes.H">
<polygon fill="#ffffff" stroke="#000000" points="1826,-.5 1826,-19.5 2000,-19.5 2000,-.5 1826,-.5"/>
<text text-anchor="middle" x="1913" y="-7.5" font-family="Helvetica,sans-Serif" font-size="10.00" fill="#000000">amr&#45;wind/core/FieldDescTypes.H</text>
</a>
</g>
</g>
<!-- Node13&#45;&gt;Node16 -->
<g id="edge17" class="edge">
<title>Node13&#45;&gt;Node16</title>
<path fill="none" stroke="#191970" d="M1445.2249,-198.0577C1635.4585,-192.7161 2135.5147,-176.6811 2207,-154 2260.4818,-137.0311 2286.8206,-136.0869 2314,-87 2320.674,-74.9466 2323.1704,-66.2825 2314,-56 2311.472,-53.1654 2128.2978,-33.0563 2010.4202,-20.3815"/>
<polygon fill="#191970" stroke="#191970" points="2010.6025,-16.881 2000.2858,-19.2928 2009.8548,-23.841 2010.6025,-16.881"/>
</g>
<!-- Node17 -->
<g id="node18" class="node">
<title>Node17</title>
<g id="a_node18"><a xlink:href="_field_utils_8_h.html" target="_top" xlink:title="amr&#45;wind/core/FieldUtils.H">
<polygon fill="#ffffff" stroke="#000000" points="1993.5,-62 1993.5,-81 2138.5,-81 2138.5,-62 1993.5,-62"/>
<text text-anchor="middle" x="2066" y="-69" font-family="Helvetica,sans-Serif" font-size="10.00" fill="#000000">amr&#45;wind/core/FieldUtils.H</text>
</a>
</g>
</g>
<!-- Node13&#45;&gt;Node17 -->
<g id="edge18" class="edge">
<title>Node13&#45;&gt;Node17</title>
<path fill="none" stroke="#191970" d="M1445.2912,-197.097C1570.2125,-191.5747 1819.0126,-177.9218 1903,-154 1956.0763,-138.8825 2012.304,-106.2024 2042.8792,-86.8178"/>
<polygon fill="#191970" stroke="#191970" points="2044.9968,-89.6172 2051.5126,-81.2629 2041.2091,-83.7305 2044.9968,-89.6172"/>
</g>
<!-- Node18 -->
<g id="node19" class="node">
<title>Node18</title>
<polygon fill="#ffffff" stroke="#bfbfbf" points="1406.5,-.5 1406.5,-19.5 1513.5,-19.5 1513.5,-.5 1406.5,-.5"/>
<text text-anchor="middle" x="1460" y="-7.5" font-family="Helvetica,sans-Serif" font-size="10.00" fill="#000000">AMReX_MultiFab.H</text>
</g>
<!-- Node13&#45;&gt;Node18 -->
<g id="edge49" class="edge">
<title>Node13&#45;&gt;Node18</title>
<path fill="none" stroke="#191970" d="M1445.2392,-194.3295C1570.5439,-182.9408 1817.6533,-152.5553 1870,-87 1878.5971,-76.2336 1879.1832,-66.2711 1870,-56 1847.3668,-30.6855 1633.2916,-17.6337 1523.8161,-12.5678"/>
<polygon fill="#191970" stroke="#191970" points="1523.7066,-9.0593 1513.5581,-12.1023 1523.3892,-16.0521 1523.7066,-9.0593"/>
</g>
<!-- Node20 -->
<g id="node21" class="node">
<title>Node20</title>
<g id="a_node21"><a xlink:href="_field_8_h.html" target="_top" xlink:title="amr&#45;wind/core/Field.H">
<polygon fill="#ffffff" stroke="#000000" points="1412,-129 1412,-148 1534,-148 1534,-129 1412,-129"/>
<text text-anchor="middle" x="1473" y="-136" font-family="Helvetica,sans-Serif" font-size="10.00" fill="#000000">amr&#45;wind/core/Field.H</text>
</a>
</g>
</g>
<!-- Node13&#45;&gt;Node20 -->
<g id="edge22" class="edge">
<title>Node13&#45;&gt;Node20</title>
<path fill="none" stroke="#191970" d="M1387.7813,-190.3906C1404.0875,-180.4616 1429.754,-164.833 1448.6614,-153.3201"/>
<polygon fill="#191970" stroke="#191970" points="1450.6087,-156.2322 1457.3296,-148.0419 1446.9681,-150.2533 1450.6087,-156.2322"/>
</g>
<!-- Node27 -->
<g id="node28" class="node">
<title>Node27</title>
<g id="a_node28"><a xlink:href="_int_field_8_h.html" target="_top" xlink:title="amr&#45;wind/core/IntField.H">
<polygon fill="#ffffff" stroke="#000000" points="2030.5,-129 2030.5,-148 2165.5,-148 2165.5,-129 2030.5,-129"/>
<text text-anchor="middle" x="2098" y="-136" font-family="Helvetica,sans-Serif" font-size="10.00" fill="#000000">amr&#45;wind/core/IntField.H</text>
</a>
</g>
</g>
<!-- Node13&#45;&gt;Node27 -->
<g id="edge37" class="edge">
<title>Node13&#45;&gt;Node27</title>
<path fill="none" stroke="#191970" d="M1445.2776,-196.1259C1560.9926,-189.6504 1793.0378,-175.214 1989,-154 2000.9511,-152.7062 2013.6086,-151.1127 2025.9041,-149.4447"/>
<polygon fill="#191970" stroke="#191970" points="2026.6977,-152.8683 2036.1238,-148.0311 2025.7385,-145.9344 2026.6977,-152.8683"/>
</g>
<!-- Node28 -->
<g id="node29" class="node">
<title>Node28</title>
<g id="a_node29"><a xlink:href="_scratch_field_8_h.html" target="_top" xlink:title="amr&#45;wind/core/ScratchField.H">
<polygon fill="#ffffff" stroke="#000000" points="1192,-129 1192,-148 1350,-148 1350,-129 1192,-129"/>
<text text-anchor="middle" x="1271" y="-136" font-family="Helvetica,sans-Serif" font-size="10.00" fill="#000000">amr&#45;wind/core/ScratchField.H</text>
</a>
</g>
</g>
<!-- Node13&#45;&gt;Node28 -->
<g id="edge41" class="edge">
<title>Node13&#45;&gt;Node28</title>
<path fill="none" stroke="#191970" d="M1356.2188,-190.3906C1339.9125,-180.4616 1314.246,-164.833 1295.3386,-153.3201"/>
<polygon fill="#191970" stroke="#191970" points="1297.0319,-150.2533 1286.6704,-148.0419 1293.3913,-156.2322 1297.0319,-150.2533"/>
</g>
<!-- Node17&#45;&gt;Node16 -->
<g id="edge19" class="edge">
<title>Node17&#45;&gt;Node16</title>
<path fill="none" stroke="#191970" d="M2042.0938,-61.8906C2016.2695,-51.5103 1974.9473,-34.9004 1946.0295,-23.2766"/>
<polygon fill="#191970" stroke="#191970" points="1947.3222,-20.0241 1936.7384,-19.5419 1944.7115,-26.519 1947.3222,-20.0241"/>
</g>
<!-- Node17&#45;&gt;Node18 -->
<g id="edge20" class="edge">
<title>Node17&#45;&gt;Node18</title>
<path fill="none" stroke="#191970" d="M2016.8869,-61.9724C2004.5513,-59.7939 1991.3183,-57.64 1979,-56 1815.5397,-34.2378 1621.7002,-20.1433 1523.6371,-13.8315"/>
<polygon fill="#191970" stroke="#191970" points="1523.794,-10.3345 1513.5914,-13.1906 1523.3482,-17.3203 1523.794,-10.3345"/>
</g>
<!-- Node19 -->
<g id="node20" class="node">
<title>Node19</title>
<polygon fill="#ffffff" stroke="#bfbfbf" points="2018,-.5 2018,-19.5 2140,-19.5 2140,-.5 2018,-.5"/>
<text text-anchor="middle" x="2079" y="-7.5" font-family="Helvetica,sans-Serif" font-size="10.00" fill="#000000">AMReX_Interpolater.H</text>
</g>
<!-- Node17&#45;&gt;Node19 -->
<g id="edge21" class="edge">
<title>Node17&#45;&gt;Node19</title>
<path fill="none" stroke="#191970" d="M2068.0313,-61.8906C2069.8522,-53.276 2072.5802,-40.3708 2074.8599,-29.5858"/>
<polygon fill="#191970" stroke="#191970" points="2078.2962,-30.2525 2076.9401,-19.7449 2071.4476,-28.8048 2078.2962,-30.2525"/>
</g>
<!-- Node20&#45;&gt;Node7 -->
<g id="edge30" class="edge">
<title>Node20&#45;&gt;Node7</title>
<path fill="none" stroke="#191970" d="M1411.8271,-129.6847C1394.7473,-127.359 1376.1663,-124.9554 1359,-123 1188.6726,-103.598 988.5508,-86.5836 879.6335,-77.8089"/>
<polygon fill="#191970" stroke="#191970" points="879.63,-74.2975 869.3819,-76.9857 879.0697,-81.275 879.63,-74.2975"/>
</g>
<!-- Node20&#45;&gt;Node14 -->
<g id="edge23" class="edge">
<title>Node20&#45;&gt;Node14</title>
<path fill="none" stroke="#191970" d="M1474.004,-128.8536C1475.2277,-111.3992 1474.9748,-74.6586 1454,-56 1425.3052,-30.4739 1161.3814,-15.8325 1068.3069,-11.4279"/>
<polygon fill="#191970" stroke="#191970" points="1068.2317,-7.9207 1058.08,-10.9528 1067.9068,-14.9132 1068.2317,-7.9207"/>
</g>
<!-- Node20&#45;&gt;Node15 -->
<g id="edge25" class="edge">
<title>Node20&#45;&gt;Node15</title>
<path fill="none" stroke="#191970" d="M1435.1946,-128.9387C1397.9761,-119.2736 1339.6585,-103.452 1290,-87 1253.4094,-74.8774 1246.515,-64.8572 1209,-56 1132.4582,-37.9287 905.7437,-20.9511 798.9082,-13.6963"/>
<polygon fill="#191970" stroke="#191970" points="798.857,-10.185 788.6441,-13.0042 798.386,-17.1692 798.857,-10.185"/>
</g>
<!-- Node20&#45;&gt;Node16 -->
<g id="edge31" class="edge">
<title>Node20&#45;&gt;Node16</title>
<path fill="none" stroke="#191970" d="M1534.2043,-137.1706C1631.6561,-133.9776 1816.5527,-123.1937 1870,-87 1889.9365,-73.4993 1901.6053,-47.5303 1907.641,-29.5052"/>
<polygon fill="#191970" stroke="#191970" points="1911.0536,-30.314 1910.6294,-19.7277 1904.3593,-28.2679 1911.0536,-30.314"/>
</g>
<!-- Node20&#45;&gt;Node18 -->
<g id="edge27" class="edge">
<title>Node20&#45;&gt;Node18</title>
<path fill="none" stroke="#191970" d="M1477.3631,-128.7145C1483.7113,-113.1294 1494.0111,-81.7951 1487,-56 1484.2824,-46.0015 1478.7825,-35.9556 1473.4516,-27.8139"/>
<polygon fill="#191970" stroke="#191970" points="1476.261,-25.7239 1467.6619,-19.5346 1470.5245,-29.7354 1476.261,-25.7239"/>
</g>
<!-- Node21 -->
<g id="node22" class="node">
<title>Node21</title>
<polygon fill="#ffffff" stroke="#bfbfbf" points="500,-.5 500,-19.5 558,-19.5 558,-.5 500,-.5"/>
<text text-anchor="middle" x="529" y="-7.5" font-family="Helvetica,sans-Serif" font-size="10.00" fill="#000000">memory</text>
</g>
<!-- Node20&#45;&gt;Node21 -->
<g id="edge24" class="edge">
<title>Node20&#45;&gt;Node21</title>
<path fill="none" stroke="#191970" d="M1411.7455,-130.5584C1345.1713,-121.2274 1243.6519,-104.7508 1209,-87 1191.0901,-77.8255 1194.4346,-64.0686 1176,-56 1168.9935,-52.9333 707.5517,-21.9187 568.334,-12.6208"/>
<polygon fill="#191970" stroke="#191970" points="568.334,-9.1131 558.1231,-11.9392 567.8678,-16.0976 568.334,-9.1131"/>
</g>
<!-- Node22 -->
<g id="node23" class="node">
<title>Node22</title>
<polygon fill="#ffffff" stroke="#bfbfbf" points="1681,-62 1681,-81 1745,-81 1745,-62 1681,-62"/>
<text text-anchor="middle" x="1713" y="-69" font-family="Helvetica,sans-Serif" font-size="10.00" fill="#000000">algorithm</text>
</g>
<!-- Node20&#45;&gt;Node22 -->
<g id="edge26" class="edge">
<title>Node20&#45;&gt;Node22</title>
<path fill="none" stroke="#191970" d="M1515.3047,-128.9559C1555.8495,-119.4795 1618.5971,-103.9499 1672,-87 1674.4117,-86.2345 1676.8885,-85.4064 1679.373,-84.5449"/>
<polygon fill="#191970" stroke="#191970" points="1680.6523,-87.8042 1688.8708,-81.1179 1678.2764,-81.2197 1680.6523,-87.8042"/>
</g>
<!-- Node23 -->
<g id="node24" class="node">
<title>Node23</title>
<polygon fill="#ffffff" stroke="#bfbfbf" points="1763.5,-62 1763.5,-81 1860.5,-81 1860.5,-62 1763.5,-62"/>
<text text-anchor="middle" x="1812" y="-69" font-family="Helvetica,sans-Serif" font-size="10.00" fill="#000000">AMReX_BCRec.H</text>
</g>
<!-- Node20&#45;&gt;Node23 -->
<g id="edge28" class="edge">
<title>Node20&#45;&gt;Node23</title>
<path fill="none" stroke="#191970" d="M1532.7573,-128.9711C1589.8353,-119.5341 1678.1505,-104.0571 1754,-87 1758.6491,-85.9545 1763.4875,-84.7881 1768.2992,-83.5773"/>
<polygon fill="#191970" stroke="#191970" points="1769.2624,-86.9435 1778.0696,-81.0541 1767.5121,-80.1658 1769.2624,-86.9435"/>
</g>
<!-- Node24 -->
<g id="node25" class="node">
<title>Node24</title>
<polygon fill="#ffffff" stroke="#bfbfbf" points="1577,-62 1577,-81 1663,-81 1663,-62 1577,-62"/>
<text text-anchor="middle" x="1620" y="-69" font-family="Helvetica,sans-Serif" font-size="10.00" fill="#000000">AMReX_Gpu.H</text>
</g>
<!-- Node20&#45;&gt;Node24 -->
<g id="edge29" class="edge">
<title>Node20&#45;&gt;Node24</title>
<path fill="none" stroke="#191970" d="M1494.0615,-128.9005C1519.1681,-117.4574 1561.3077,-98.2509 1589.8598,-85.2374"/>
<polygon fill="#191970" stroke="#191970" points="1591.3297,-88.4139 1598.9776,-81.0817 1588.4265,-82.0443 1591.3297,-88.4139"/>
</g>
<!-- Node25 -->
<g id="node26" class="node">
<title>Node25</title>
<g id="a_node26"><a xlink:href="_view_field_8_h.html" target="_top" xlink:title="amr&#45;wind/core/ViewField.H">
<polygon fill="#ffffff" stroke="#000000" points="1299,-62 1299,-81 1445,-81 1445,-62 1299,-62"/>
<text text-anchor="middle" x="1372" y="-69" font-family="Helvetica,sans-Serif" font-size="10.00" fill="#000000">amr&#45;wind/core/ViewField.H</text>
</a>
</g>
</g>
<!-- Node20&#45;&gt;Node25 -->
<g id="edge32" class="edge">
<title>Node20&#45;&gt;Node25</title>
<path fill="none" stroke="#191970" d="M1458.5292,-128.9005C1441.8791,-117.8554 1414.326,-99.5776 1394.7886,-86.6172"/>
<polygon fill="#191970" stroke="#191970" points="1396.712,-83.693 1386.444,-81.0817 1392.8424,-89.5263 1396.712,-83.693"/>
</g>
<!-- Node25&#45;&gt;Node14 -->
<g id="edge33" class="edge">
<title>Node25&#45;&gt;Node14</title>
<path fill="none" stroke="#191970" d="M1319.8687,-61.9581C1249.5898,-49.0946 1126.5663,-26.5769 1068.3241,-15.9165"/>
<polygon fill="#191970" stroke="#191970" points="1068.697,-12.4267 1058.2302,-14.0689 1067.4367,-19.3123 1068.697,-12.4267"/>
</g>
<!-- Node25&#45;&gt;Node16 -->
<g id="edge34" class="edge">
<title>Node25&#45;&gt;Node16</title>
<path fill="none" stroke="#191970" d="M1445.0181,-62.2809C1462.0712,-60.1735 1480.168,-57.9741 1497,-56 1606.0509,-43.2102 1731.3032,-29.4922 1815.6362,-20.3979"/>
<polygon fill="#191970" stroke="#191970" points="1816.1465,-23.8632 1825.714,-19.3121 1815.3966,-16.9035 1816.1465,-23.8632"/>
</g>
<!-- Node25&#45;&gt;Node18 -->
<g id="edge35" class="edge">
<title>Node25&#45;&gt;Node18</title>
<path fill="none" stroke="#191970" d="M1385.75,-61.8906C1399.6991,-52.1421 1421.5098,-36.8994 1437.8897,-25.4521"/>
<polygon fill="#191970" stroke="#191970" points="1440.1548,-28.1392 1446.3466,-19.5419 1436.1449,-22.4015 1440.1548,-28.1392"/>
</g>
<!-- Node26 -->
<g id="node27" class="node">
<title>Node26</title>
<polygon fill="#ffffff" stroke="#bfbfbf" points="900,-.5 900,-19.5 996,-19.5 996,-.5 900,-.5"/>
<text text-anchor="middle" x="948" y="-7.5" font-family="Helvetica,sans-Serif" font-size="10.00" fill="#000000">AMReX_Vector.H</text>
</g>
<!-- Node25&#45;&gt;Node26 -->
<g id="edge36" class="edge">
<title>Node25&#45;&gt;Node26</title>
<path fill="none" stroke="#191970" d="M1298.7771,-61.9759C1226.8676,-52.4516 1113.7852,-37.0187 1006.2375,-20.1559"/>
<polygon fill="#191970" stroke="#191970" points="1006.6054,-16.6708 996.1827,-18.5726 1005.5165,-23.5856 1006.6054,-16.6708"/>
</g>
<!-- Node27&#45;&gt;Node5 -->
<g id="edge40" class="edge">
<title>Node27&#45;&gt;Node5</title>
<path fill="none" stroke="#191970" d="M2119.7779,-128.9005C2145.7384,-117.4574 2189.3113,-98.2509 2218.8346,-85.2374"/>
<polygon fill="#191970" stroke="#191970" points="2220.5237,-88.3178 2228.2625,-81.0817 2217.7003,-81.9125 2220.5237,-88.3178"/>
</g>
<!-- Node27&#45;&gt;Node14 -->
<g id="edge38" class="edge">
<title>Node27&#45;&gt;Node14</title>
<path fill="none" stroke="#191970" d="M2077.8349,-128.9191C2038.7702,-110.8799 1949.6053,-72.2315 1870,-56 1790.5468,-39.7995 1213.2662,-16.7925 1068.7375,-11.2403"/>
<polygon fill="#191970" stroke="#191970" points="1068.4659,-7.7274 1058.3393,-10.8423 1068.1981,-14.7223 1068.4659,-7.7274"/>
</g>
<!-- Node27&#45;&gt;Node16 -->
<g id="edge39" class="edge">
<title>Node27&#45;&gt;Node16</title>
<path fill="none" stroke="#191970" d="M2111.6118,-128.7628C2132.4329,-112.7036 2167.7989,-80.0502 2148,-56 2138.1088,-43.9849 2059.3881,-30.2875 1995.7413,-20.9866"/>
<polygon fill="#191970" stroke="#191970" points="1996.0662,-17.4973 1985.6687,-19.5325 1995.066,-24.4255 1996.0662,-17.4973"/>
</g>
<!-- Node28&#45;&gt;Node14 -->
<g id="edge42" class="edge">
<title>Node28&#45;&gt;Node14</title>
<path fill="none" stroke="#191970" d="M1191.951,-132.1894C1129.7172,-125.3863 1050.2141,-111.9902 1030,-87 1016.9413,-70.8559 1021.8771,-46.0671 1027.8155,-28.9999"/>
<polygon fill="#191970" stroke="#191970" points="1031.1403,-30.1064 1031.4906,-19.5173 1024.6133,-27.5767 1031.1403,-30.1064"/>
</g>
<!-- Node28&#45;&gt;Node16 -->
<g id="edge43" class="edge">
<title>Node28&#45;&gt;Node16</title>
<path fill="none" stroke="#191970" d="M1304.9723,-128.9275C1380.1206,-107.7714 1554.8599,-58.6876 1568,-56 1650.9452,-39.0351 1746.4394,-26.8612 1815.9011,-19.3157"/>
<polygon fill="#191970" stroke="#191970" points="1816.3869,-22.7838 1825.956,-18.236 1815.6395,-15.8238 1816.3869,-22.7838"/>
</g>
<!-- Node28&#45;&gt;Node18 -->
<g id="edge45" class="edge">
<title>Node28&#45;&gt;Node18</title>
<path fill="none" stroke="#191970" d="M1270.2753,-128.8882C1269.5469,-111.8175 1270.6312,-76.1173 1290,-56 1304.8716,-40.5537 1354.476,-28.2251 1396.2907,-20.2343"/>
<polygon fill="#191970" stroke="#191970" points="1396.9835,-23.6656 1406.1753,-18.3967 1395.7041,-16.7835 1396.9835,-23.6656"/>
</g>
<!-- Node28&#45;&gt;Node25 -->
<g id="edge44" class="edge">
<title>Node28&#45;&gt;Node25</title>
<path fill="none" stroke="#191970" d="M1285.4708,-128.9005C1302.1209,-117.8554 1329.674,-99.5776 1349.2114,-86.6172"/>
<polygon fill="#191970" stroke="#191970" points="1351.1576,-89.5263 1357.556,-81.0817 1347.288,-83.693 1351.1576,-89.5263"/>
</g>
<!-- Node28&#45;&gt;Node26 -->
<g id="edge46" class="edge">
<title>Node28&#45;&gt;Node26</title>
<path fill="none" stroke="#191970" d="M1199.2596,-128.9738C1135.6948,-119.6225 1048.3953,-104.2782 1018,-87 992.7217,-72.6306 971.5601,-45.8945 959.3304,-28.0209"/>
<polygon fill="#191970" stroke="#191970" points="962.2012,-26.0166 953.7747,-19.5945 956.3571,-29.8698 962.2012,-26.0166"/>
</g>
<!-- Node29 -->
<g id="node30" class="node">
<title>Node29</title>
<polygon fill="#ffffff" stroke="#bfbfbf" points="1039,-62 1039,-81 1167,-81 1167,-62 1039,-62"/>
<text text-anchor="middle" x="1103" y="-69" font-family="Helvetica,sans-Serif" font-size="10.00" fill="#000000">AMReX_PhysBCFunct.H</text>
</g>
<!-- Node28&#45;&gt;Node29 -->
<g id="edge47" class="edge">
<title>Node28&#45;&gt;Node29</title>
<path fill="none" stroke="#191970" d="M1246.9297,-128.9005C1217.987,-117.3579 1169.2379,-97.9163 1136.5983,-84.8993"/>
<polygon fill="#191970" stroke="#191970" points="1137.6108,-81.5351 1127.0257,-81.0817 1135.0177,-88.0371 1137.6108,-81.5351"/>
</g>
<!-- Node30&#45;&gt;Node7 -->
<g id="edge67" class="edge">
<title>Node30&#45;&gt;Node7</title>
<path fill="none" stroke="#191970" d="M664.049,-123.4639C694.2542,-111.8332 735.6736,-95.8843 764.6307,-84.7342"/>
<polygon fill="#191970" stroke="#191970" points="766.2403,-87.865 774.3146,-81.0053 763.7248,-81.3325 766.2403,-87.865"/>
</g>
<!-- Node30&#45;&gt;Node14 -->
<g id="edge52" class="edge">
<title>Node30&#45;&gt;Node14</title>
<path fill="none" stroke="#191970" d="M631.6789,-123.293C641.0212,-104.0282 659.9384,-71.4774 687,-56 807.6954,13.0298 863.4327,-47.1485 1003.9701,-19.777"/>
<polygon fill="#191970" stroke="#191970" points="1004.7078,-23.1986 1013.7936,-17.749 1003.2925,-16.3432 1004.7078,-23.1986"/>
</g>
<!-- Node30&#45;&gt;Node16 -->
<g id="edge66" class="edge">
<title>Node30&#45;&gt;Node16</title>
<path fill="none" stroke="#191970" d="M636.838,-123.1733C653.113,-103.4535 684.4547,-70.0661 720,-56 745.3589,-45.9649 1535.8009,-21.3262 1815.8337,-12.8891"/>
<polygon fill="#191970" stroke="#191970" points="1816.0891,-16.3831 1825.9793,-12.5838 1815.8785,-9.3863 1816.0891,-16.3831"/>
</g>
<!-- Node31 -->
<g id="node32" class="node">
<title>Node31</title>
<g id="a_node32"><a xlink:href="_factory_8_h.html" target="_top" xlink:title="amr&#45;wind/core/Factory.H">
<polygon fill="#ffffff" stroke="#000000" points="135,-62 135,-81 269,-81 269,-62 135,-62"/>
<text text-anchor="middle" x="202" y="-69" font-family="Helvetica,sans-Serif" font-size="10.00" fill="#000000">amr&#45;wind/core/Factory.H</text>
</a>
</g>
</g>
<!-- Node30&#45;&gt;Node31 -->
<g id="edge53" class="edge">
<title>Node30&#45;&gt;Node31</title>
<path fill="none" stroke="#191970" d="M547.237,-124.4918C544.1188,-123.9789 541.0307,-123.4796 538,-123 422.7759,-104.7657 392.9884,-106.666 278,-87 270.9734,-85.7983 263.603,-84.4308 256.3315,-83.0174"/>
<polygon fill="#191970" stroke="#191970" points="257.0082,-79.5835 246.5186,-81.0729 255.6475,-86.45 257.0082,-79.5835"/>
</g>
<!-- Node35 -->
<g id="node36" class="node">
<title>Node35</title>
<g id="a_node36"><a xlink:href="_coll_mgr_8_h.html" target="_top" xlink:title="amr&#45;wind/core/CollMgr.H">
<polygon fill="#ffffff" stroke="#000000" points="461,-62 461,-81 597,-81 597,-62 461,-62"/>
<text text-anchor="middle" x="529" y="-69" font-family="Helvetica,sans-Serif" font-size="10.00" fill="#000000">amr&#45;wind/core/CollMgr.H</text>
</a>
</g>
</g>
<!-- Node30&#45;&gt;Node35 -->
<g id="edge59" class="edge">
<title>Node30&#45;&gt;Node35</title>
<path fill="none" stroke="#191970" d="M603.2161,-123.2967C587.678,-112.4524 566.8529,-97.9182 551.2176,-87.006"/>
<polygon fill="#191970" stroke="#191970" points="552.8942,-83.908 542.6907,-81.055 548.8879,-89.6483 552.8942,-83.908"/>
</g>
<!-- Node36 -->
<g id="node37" class="node">
<title>Node36</title>
<g id="a_node37"><a xlink:href="_p_d_e_fields_8_h.html" target="_top" xlink:title="amr&#45;wind/equation_systems\l/PDEFields.H">
<polygon fill="#ffffff" stroke="#000000" points="287.5,-56.5 287.5,-86.5 442.5,-86.5 442.5,-56.5 287.5,-56.5"/>
<text text-anchor="start" x="295.5" y="-74.5" font-family="Helvetica,sans-Serif" font-size="10.00" fill="#000000">amr&#45;wind/equation_systems</text>
<text text-anchor="middle" x="365" y="-63.5" font-family="Helvetica,sans-Serif" font-size="10.00" fill="#000000">/PDEFields.H</text>
</a>
</g>
</g>
<!-- Node30&#45;&gt;Node36 -->
<g id="edge64" class="edge">
<title>Node30&#45;&gt;Node36</title>
<path fill="none" stroke="#191970" d="M566.6509,-123.4639C527.1477,-113.2842 474.8077,-99.7966 433.3519,-89.1138"/>
<polygon fill="#191970" stroke="#191970" points="434.1606,-85.7079 423.6036,-86.6017 432.4138,-92.4864 434.1606,-85.7079"/>
</g>
<!-- Node31&#45;&gt;Node15 -->
<g id="edge55" class="edge">
<title>Node31&#45;&gt;Node15</title>
<path fill="none" stroke="#191970" d="M244.8695,-61.9584C255.6463,-59.7803 267.215,-57.63 278,-56 424.0942,-33.9198 597.7344,-19.9414 685.3751,-13.7362"/>
<polygon fill="#191970" stroke="#191970" points="685.6428,-17.2261 695.3737,-13.0357 685.1535,-10.2433 685.6428,-17.2261"/>
</g>
<!-- Node31&#45;&gt;Node21 -->
<g id="edge54" class="edge">
<title>Node31&#45;&gt;Node21</title>
<path fill="none" stroke="#191970" d="M248.1897,-61.9264C258.0222,-59.9315 268.349,-57.8683 278,-56 352.9187,-41.4967 440.6526,-25.6852 490.0394,-16.8919"/>
<polygon fill="#191970" stroke="#191970" points="490.7446,-20.3215 499.9776,-15.125 489.5193,-13.4296 490.7446,-20.3215"/>
</g>
<!-- Node32 -->
<g id="node33" class="node">
<title>Node32</title>
<polygon fill="#ffffff" stroke="#bfbfbf" points="77,-.5 77,-19.5 137,-19.5 137,-.5 77,-.5"/>
<text text-anchor="middle" x="107" y="-7.5" font-family="Helvetica,sans-Serif" font-size="10.00" fill="#000000">iostream</text>
</g>
<!-- Node31&#45;&gt;Node32 -->
<g id="edge56" class="edge">
<title>Node31&#45;&gt;Node32</title>
<path fill="none" stroke="#191970" d="M187.1563,-61.8906C171.9582,-52.0519 148.1152,-36.6167 130.3794,-25.1351"/>
<polygon fill="#191970" stroke="#191970" points="132.0361,-22.0382 121.7395,-19.5419 128.232,-27.9144 132.0361,-22.0382"/>
</g>
<!-- Node33 -->
<g id="node34" class="node">
<title>Node33</title>
<polygon fill="#ffffff" stroke="#bfbfbf" points="155.5,-.5 155.5,-19.5 244.5,-19.5 244.5,-.5 155.5,-.5"/>
<text text-anchor="middle" x="200" y="-7.5" font-family="Helvetica,sans-Serif" font-size="10.00" fill="#000000">AMReX_Print.H</text>
</g>
<!-- Node31&#45;&gt;Node33 -->
<g id="edge57" class="edge">
<title>Node31&#45;&gt;Node33</title>
<path fill="none" stroke="#191970" d="M201.6875,-61.8906C201.4103,-53.3657 200.9964,-40.6392 200.6479,-29.9235"/>
<polygon fill="#191970" stroke="#191970" points="204.1402,-29.6258 200.3169,-19.7449 197.1439,-29.8534 204.1402,-29.6258"/>
</g>
<!-- Node34 -->
<g id="node35" class="node">
<title>Node34</title>
<polygon fill="#ffffff" stroke="#bfbfbf" points="262.5,-.5 262.5,-19.5 323.5,-19.5 323.5,-.5 262.5,-.5"/>
<text text-anchor="middle" x="293" y="-7.5" font-family="Helvetica,sans-Serif" font-size="10.00" fill="#000000">AMReX.H</text>
</g>
<!-- Node31&#45;&gt;Node34 -->
<g id="edge58" class="edge">
<title>Node31&#45;&gt;Node34</title>
<path fill="none" stroke="#191970" d="M216.2188,-61.8906C230.6434,-52.1421 253.1976,-36.8994 270.136,-25.4521"/>
<polygon fill="#191970" stroke="#191970" points="272.5556,-28.0412 278.8811,-19.5419 268.6359,-22.2415 272.5556,-28.0412"/>
</g>
<!-- Node35&#45;&gt;Node14 -->
<g id="edge60" class="edge">
<title>Node35&#45;&gt;Node14</title>
<path fill="none" stroke="#191970" d="M575.2738,-61.9522C586.9009,-59.7743 599.3777,-57.6256 611,-56 781.9141,-32.0942 830.9109,-54.3484 1003.8623,-19.8277"/>
<polygon fill="#191970" stroke="#191970" points="1004.7027,-23.2285 1013.8061,-17.8082 1003.3095,-16.3686 1004.7027,-23.2285"/>
</g>
<!-- Node35&#45;&gt;Node15 -->
<g id="edge62" class="edge">
<title>Node35&#45;&gt;Node15</title>
<path fill="none" stroke="#191970" d="M562.2813,-61.8906C599.1705,-51.2395 658.7757,-34.0296 699.1325,-22.3772"/>
<polygon fill="#191970" stroke="#191970" points="700.3158,-25.6786 708.9525,-19.5419 698.374,-18.9533 700.3158,-25.6786"/>
</g>
<!-- Node35&#45;&gt;Node21 -->
<g id="edge61" class="edge">
<title>Node35&#45;&gt;Node21</title>
<path fill="none" stroke="#191970" d="M529,-61.8906C529,-53.3657 529,-40.6392 529,-29.9235"/>
<polygon fill="#191970" stroke="#191970" points="532.5001,-29.7448 529,-19.7449 525.5001,-29.7449 532.5001,-29.7448"/>
</g>
<!-- Node35&#45;&gt;Node26 -->
<g id="edge63" class="edge">
<title>Node35&#45;&gt;Node26</title>
<path fill="none" stroke="#191970" d="M577.0568,-61.9902C588.183,-59.9069 599.9888,-57.791 611,-56 708.5703,-40.13 822.6419,-25.345 889.9099,-17.0124"/>
<polygon fill="#191970" stroke="#191970" points="890.3947,-20.4792 899.8908,-15.7808 889.5375,-13.5319 890.3947,-20.4792"/>
</g>
<!-- Node37 -->
<g id="node38" class="node">
<title>Node37</title>
<polygon fill="#ffffff" stroke="#bfbfbf" points="341.5,-.5 341.5,-19.5 390.5,-19.5 390.5,-.5 341.5,-.5"/>
<text text-anchor="middle" x="366" y="-7.5" font-family="Helvetica,sans-Serif" font-size="10.00" fill="#000000">iosfwd</text>
</g>
<!-- Node36&#45;&gt;Node37 -->
<g id="edge65" class="edge">
<title>Node36&#45;&gt;Node37</title>
<path fill="none" stroke="#191970" d="M365.2472,-56.2977C365.3759,-48.3834 365.5349,-38.6043 365.6736,-30.0759"/>
<polygon fill="#191970" stroke="#191970" points="369.1767,-29.9025 365.8399,-19.8469 362.1777,-29.7887 369.1767,-29.9025"/>
</g>
<!-- Node38&#45;&gt;Node18 -->
<g id="edge71" class="edge">
<title>Node38&#45;&gt;Node18</title>
<path fill="none" stroke="#191970" d="M488.5994,-128.9209C517.825,-118.7252 565.272,-102.0239 606,-87 642.1644,-73.6596 649.3204,-64.1288 687,-56 821.7002,-26.9405 1236.3526,-14.9241 1396.2227,-11.2896"/>
<polygon fill="#191970" stroke="#191970" points="1396.4598,-14.7853 1406.3789,-11.0623 1396.303,-7.7871 1396.4598,-14.7853"/>
</g>
<!-- Node38&#45;&gt;Node31 -->
<g id="edge69" class="edge">
<title>Node38&#45;&gt;Node31</title>
<path fill="none" stroke="#191970" d="M424.1667,-128.9717C378.1753,-117.0743 299.4377,-96.7059 249.1041,-83.6852"/>
<polygon fill="#191970" stroke="#191970" points="249.6835,-80.22 239.1256,-81.1039 247.9303,-86.9969 249.6835,-80.22"/>
</g>
<!-- Node38&#45;&gt;Node35 -->
<g id="edge70" class="edge">
<title>Node38&#45;&gt;Node35</title>
<path fill="none" stroke="#191970" d="M470.7427,-128.9005C481.4477,-118.353 498.847,-101.2096 511.8479,-88.3998"/>
<polygon fill="#191970" stroke="#191970" points="514.6085,-90.5933 519.2753,-81.0817 509.6956,-85.607 514.6085,-90.5933"/>
</g>
<!-- Node39 -->
<g id="node40" class="node">
<title>Node39</title>
<polygon fill="#ffffff" stroke="#bfbfbf" points="3.5,-62 3.5,-81 116.5,-81 116.5,-62 3.5,-62"/>
<text text-anchor="middle" x="60" y="-69" font-family="Helvetica,sans-Serif" font-size="10.00" fill="#000000">AMReX_Geometry.H</text>
</g>
<!-- Node38&#45;&gt;Node39 -->
<g id="edge72" class="edge">
<title>Node38&#45;&gt;Node39</title>
<path fill="none" stroke="#191970" d="M415.2988,-128.9654C404.7149,-126.8833 393.4819,-124.7741 383,-123 269.28,-103.7522 239.371,-108.2069 126,-87 120.1448,-85.9047 114.0252,-84.6368 107.9746,-83.3071"/>
<polygon fill="#191970" stroke="#191970" points="108.4418,-79.8244 97.9159,-81.0309 106.8968,-86.6518 108.4418,-79.8244"/>
</g>
</g>
</svg>
