<?xml version="1.0" encoding="UTF-8" standalone="no"?>
<!DOCTYPE svg PUBLIC "-//W3C//DTD SVG 1.1//EN"
 "http://www.w3.org/Graphics/SVG/1.1/DTD/svg11.dtd">
<!-- Generated by graphviz version 2.40.1 (20161225.0304)
 -->
<!-- Title: stencils.H Pages: 1 -->
<svg width="472pt" height="84pt"
 viewBox="0.00 0.00 472.00 84.00" xmlns="http://www.w3.org/2000/svg" xmlns:xlink="http://www.w3.org/1999/xlink">
<g id="graph0" class="graph" transform="scale(1 1) rotate(0) translate(4 80)">
<title>stencils.H</title>
<polygon fill="#ffffff" stroke="transparent" points="-4,4 -4,-80 468,-80 468,4 -4,4"/>
<!-- Node0 -->
<g id="node1" class="node">
<title>Node0</title>
<polygon fill="#bfbfbf" stroke="#000000" points="179,-56.5 179,-75.5 244,-75.5 244,-56.5 179,-56.5"/>
<text text-anchor="middle" x="211.5" y="-63.5" font-family="Helvetica,sans-Serif" font-size="10.00" fill="#000000">stencils.H</text>
</g>
<!-- Node1 -->
<g id="node2" class="node">
<title>Node1</title>
<polygon fill="#ffffff" stroke="#bfbfbf" points="0,-.5 0,-19.5 91,-19.5 91,-.5 0,-.5"/>
<text text-anchor="middle" x="45.5" y="-7.5" font-family="Helvetica,sans-Serif" font-size="10.00" fill="#000000">AMReX_REAL.H</text>
</g>
<!-- Node0&#45;&gt;Node1 -->
<g id="edge1" class="edge">
<title>Node0&#45;&gt;Node1</title>
<path fill="none" stroke="#191970" d="M182.9636,-56.3733C155.4798,-47.1016 113.7314,-33.0178 83.4548,-22.804"/>
<polygon fill="#191970" stroke="#191970" points="84.2582,-19.3813 73.664,-19.5011 82.0206,-26.0141 84.2582,-19.3813"/>
</g>
<!-- Node2 -->
<g id="node3" class="node">
<title>Node2</title>
<polygon fill="#ffffff" stroke="#bfbfbf" points="109,-.5 109,-19.5 194,-19.5 194,-.5 109,-.5"/>
<text text-anchor="middle" x="151.5" y="-7.5" font-family="Helvetica,sans-Serif" font-size="10.00" fill="#000000">AMReX_Box.H</text>
</g>
<!-- Node0&#45;&gt;Node2 -->
<g id="edge2" class="edge">
<title>Node0&#45;&gt;Node2</title>
<path fill="none" stroke="#191970" d="M201.0488,-56.2455C192.2731,-48.0549 179.5446,-36.1749 169.186,-26.5069"/>
<polygon fill="#191970" stroke="#191970" points="171.5301,-23.9072 161.8314,-19.6427 166.7539,-29.0246 171.5301,-23.9072"/>
</g>
<!-- Node3 -->
<g id="node4" class="node">
<title>Node3</title>
<polygon fill="#ffffff" stroke="#bfbfbf" points="212,-.5 212,-19.5 333,-19.5 333,-.5 212,-.5"/>
<text text-anchor="middle" x="272.5" y="-7.5" font-family="Helvetica,sans-Serif" font-size="10.00" fill="#000000">AMReX_Orientation.H</text>
</g>
<!-- Node0&#45;&gt;Node3 -->
<g id="edge3" class="edge">
<title>Node0&#45;&gt;Node3</title>
<path fill="none" stroke="#191970" d="M222.1254,-56.2455C231.0473,-48.0549 243.988,-36.1749 254.5192,-26.5069"/>
<polygon fill="#191970" stroke="#191970" points="256.9968,-28.9837 261.9964,-19.6427 252.2629,-23.8271 256.9968,-28.9837"/>
</g>
<!-- Node4 -->
<g id="node5" class="node">
<title>Node4</title>
<polygon fill="#ffffff" stroke="#bfbfbf" points="351,-.5 351,-19.5 464,-19.5 464,-.5 351,-.5"/>
<text text-anchor="middle" x="407.5" y="-7.5" font-family="Helvetica,sans-Serif" font-size="10.00" fill="#000000">AMReX_Geometry.H</text>
</g>
<!-- Node0&#45;&gt;Node4 -->
<g id="edge4" class="edge">
<title>Node0&#45;&gt;Node4</title>
<path fill="none" stroke="#191970" d="M244.306,-56.6269C277.178,-47.2349 327.9602,-32.7257 364.1397,-22.3886"/>
<polygon fill="#191970" stroke="#191970" points="365.2763,-25.704 373.93,-19.5914 363.3532,-18.9734 365.2763,-25.704"/>
</g>
</g>
</svg>
