<?xml version="1.0" encoding="UTF-8" standalone="no"?>
<!DOCTYPE svg PUBLIC "-//W3C//DTD SVG 1.1//EN"
 "http://www.w3.org/Graphics/SVG/1.1/DTD/svg11.dtd">
<!-- Generated by graphviz version 2.40.1 (20161225.0304)
 -->
<!-- Title: strainrate.H Pages: 1 -->
<svg width="575pt" height="140pt"
 viewBox="0.00 0.00 574.50 140.00" xmlns="http://www.w3.org/2000/svg" xmlns:xlink="http://www.w3.org/1999/xlink">
<g id="graph0" class="graph" transform="scale(1 1) rotate(0) translate(4 136)">
<title>strainrate.H</title>
<polygon fill="#ffffff" stroke="transparent" points="-4,4 -4,-136 570.5,-136 570.5,4 -4,4"/>
<!-- Node28 -->
<g id="node1" class="node">
<title>Node28</title>
<polygon fill="#bfbfbf" stroke="#000000" points="222.5,-112.5 222.5,-131.5 296.5,-131.5 296.5,-112.5 222.5,-112.5"/>
<text text-anchor="middle" x="259.5" y="-119.5" font-family="Helvetica,sans-Serif" font-size="10.00" fill="#000000">strainrate.H</text>
</g>
<!-- Node29 -->
<g id="node2" class="node">
<title>Node29</title>
<g id="a_node2"><a xlink:href="fvm_8_h.html" target="_top" xlink:title="fvm.H">
<polygon fill="#ffffff" stroke="#000000" points="34,-56.5 34,-75.5 81,-75.5 81,-56.5 34,-56.5"/>
<text text-anchor="middle" x="57.5" y="-63.5" font-family="Helvetica,sans-Serif" font-size="10.00" fill="#000000">fvm.H</text>
</a>
</g>
</g>
<!-- Node28&#45;&gt;Node29 -->
<g id="edge1" class="edge">
<title>Node28&#45;&gt;Node29</title>
<path fill="none" stroke="#191970" d="M213.484,-109.8541C179.4459,-100.7777 131.9929,-87.9311 90.5,-76 87.5083,-75.1397 84.3704,-74.2164 81.2691,-73.291"/>
<polygon fill="#191970" stroke="#191970" points="212.5894,-113.2378 223.1532,-112.4273 214.3896,-106.4732 212.5894,-113.2378"/>
</g>
<!-- Node31 -->
<g id="node4" class="node">
<title>Node31</title>
<g id="a_node4"><a xlink:href="_one_eq_ksgs_8cpp.html" target="_top" xlink:title="OneEqKsgs.cpp">
<polygon fill="#ffffff" stroke="#000000" points="99.5,-56.5 99.5,-75.5 191.5,-75.5 191.5,-56.5 99.5,-56.5"/>
<text text-anchor="middle" x="145.5" y="-63.5" font-family="Helvetica,sans-Serif" font-size="10.00" fill="#000000">OneEqKsgs.cpp</text>
</a>
</g>
</g>
<!-- Node28&#45;&gt;Node31 -->
<g id="edge3" class="edge">
<title>Node28&#45;&gt;Node31</title>
<path fill="none" stroke="#191970" d="M230.6679,-107.8368C210.0605,-97.7139 182.8918,-84.3679 164.8416,-75.5011"/>
<polygon fill="#191970" stroke="#191970" points="229.384,-111.1056 239.9027,-112.3733 232.4703,-104.8227 229.384,-111.1056"/>
</g>
<!-- Node32 -->
<g id="node5" class="node">
<title>Node32</title>
<g id="a_node5"><a xlink:href="_smagorinsky_8cpp.html" target="_top" xlink:title="Smagorinsky.cpp">
<polygon fill="#ffffff" stroke="#000000" points="210,-56.5 210,-75.5 309,-75.5 309,-56.5 210,-56.5"/>
<text text-anchor="middle" x="259.5" y="-63.5" font-family="Helvetica,sans-Serif" font-size="10.00" fill="#000000">Smagorinsky.cpp</text>
</a>
</g>
</g>
<!-- Node28&#45;&gt;Node32 -->
<g id="edge4" class="edge">
<title>Node28&#45;&gt;Node32</title>
<path fill="none" stroke="#191970" d="M259.5,-102.1575C259.5,-93.155 259.5,-82.9199 259.5,-75.6427"/>
<polygon fill="#191970" stroke="#191970" points="256.0001,-102.2455 259.5,-112.2455 263.0001,-102.2456 256.0001,-102.2455"/>
</g>
<!-- Node33 -->
<g id="node6" class="node">
<title>Node33</title>
<g id="a_node6"><a xlink:href="_k_omega_s_s_t_8cpp.html" target="_top" xlink:title="KOmegaSST.cpp">
<polygon fill="#ffffff" stroke="#000000" points="327,-56.5 327,-75.5 422,-75.5 422,-56.5 327,-56.5"/>
<text text-anchor="middle" x="374.5" y="-63.5" font-family="Helvetica,sans-Serif" font-size="10.00" fill="#000000">KOmegaSST.cpp</text>
</a>
</g>
</g>
<!-- Node28&#45;&gt;Node33 -->
<g id="edge5" class="edge">
<title>Node28&#45;&gt;Node33</title>
<path fill="none" stroke="#191970" d="M288.3033,-107.9741C309.125,-97.8348 336.6978,-84.408 354.9888,-75.5011"/>
<polygon fill="#191970" stroke="#191970" points="286.7276,-104.8484 279.2692,-112.3733 289.7922,-111.1419 286.7276,-104.8484"/>
</g>
<!-- Node34 -->
<g id="node7" class="node">
<title>Node34</title>
<g id="a_node7"><a xlink:href="_k_omega_s_s_t_i_d_d_e_s_8cpp.html" target="_top" xlink:title="KOmegaSSTIDDES.cpp">
<polygon fill="#ffffff" stroke="#000000" points="440.5,-56.5 440.5,-75.5 566.5,-75.5 566.5,-56.5 440.5,-56.5"/>
<text text-anchor="middle" x="503.5" y="-63.5" font-family="Helvetica,sans-Serif" font-size="10.00" fill="#000000">KOmegaSSTIDDES.cpp</text>
</a>
</g>
</g>
<!-- Node28&#45;&gt;Node34 -->
<g id="edge6" class="edge">
<title>Node28&#45;&gt;Node34</title>
<path fill="none" stroke="#191970" d="M306.3753,-111.2417C351.4236,-100.9028 418.8473,-85.4285 462.0008,-75.5244"/>
<polygon fill="#191970" stroke="#191970" points="305.522,-107.8465 296.5583,-113.4948 307.0879,-114.6691 305.522,-107.8465"/>
</g>
<!-- Node30 -->
<g id="node3" class="node">
<title>Node30</title>
<g id="a_node3"><a xlink:href="_derived_qty_defs_8cpp.html" target="_top" xlink:title="DerivedQtyDefs.cpp">
<polygon fill="#ffffff" stroke="#000000" points="0,-.5 0,-19.5 115,-19.5 115,-.5 0,-.5"/>
<text text-anchor="middle" x="57.5" y="-7.5" font-family="Helvetica,sans-Serif" font-size="10.00" fill="#000000">DerivedQtyDefs.cpp</text>
</a>
</g>
</g>
<!-- Node29&#45;&gt;Node30 -->
<g id="edge2" class="edge">
<title>Node29&#45;&gt;Node30</title>
<path fill="none" stroke="#191970" d="M57.5,-46.1575C57.5,-37.155 57.5,-26.9199 57.5,-19.6427"/>
<polygon fill="#191970" stroke="#191970" points="54.0001,-46.2455 57.5,-56.2455 61.0001,-46.2456 54.0001,-46.2455"/>
</g>
</g>
</svg>
