<?xml version="1.0" encoding="UTF-8" standalone="no"?>
<!DOCTYPE svg PUBLIC "-//W3C//DTD SVG 1.1//EN"
 "http://www.w3.org/Graphics/SVG/1.1/DTD/svg11.dtd">
<!-- Generated by graphviz version 2.40.1 (20161225.0304)
 -->
<!-- Title: amr_wind::actuator::TurbineInfo Pages: 1 -->
<svg width="212pt" height="319pt"
 viewBox="0.00 0.00 212.00 319.00" xmlns="http://www.w3.org/2000/svg" xmlns:xlink="http://www.w3.org/1999/xlink">
<g id="graph0" class="graph" transform="scale(1 1) rotate(0) translate(4 315)">
<title>amr_wind::actuator::TurbineInfo</title>
<polygon fill="#ffffff" stroke="transparent" points="-4,4 -4,-315 208,-315 208,4 -4,4"/>
<!-- Node2 -->
<g id="node1" class="node">
<title>Node2</title>
<polygon fill="#bfbfbf" stroke="#000000" points="42.5,-.5 42.5,-30.5 153.5,-30.5 153.5,-.5 42.5,-.5"/>
<text text-anchor="start" x="50.5" y="-18.5" font-family="Helvetica,sans-Serif" font-size="10.00" fill="#000000">amr_wind::actuator</text>
<text text-anchor="middle" x="98" y="-7.5" font-family="Helvetica,sans-Serif" font-size="10.00" fill="#000000">::TurbineInfo</text>
</g>
<!-- Node3 -->
<g id="node2" class="node">
<title>Node3</title>
<g id="a_node2"><a xlink:href="structamr__wind_1_1actuator_1_1_act_info.html" target="_top" xlink:title="Basic information that is common to all actuator types. ">
<polygon fill="#ffffff" stroke="#000000" points="42.5,-68.5 42.5,-98.5 153.5,-98.5 153.5,-68.5 42.5,-68.5"/>
<text text-anchor="start" x="50.5" y="-86.5" font-family="Helvetica,sans-Serif" font-size="10.00" fill="#000000">amr_wind::actuator</text>
<text text-anchor="middle" x="98" y="-75.5" font-family="Helvetica,sans-Serif" font-size="10.00" fill="#000000">::ActInfo</text>
</a>
</g>
</g>
<!-- Node3&#45;&gt;Node2 -->
<g id="edge1" class="edge">
<title>Node3&#45;&gt;Node2</title>
<path fill="none" stroke="#191970" d="M98,-58.1174C98,-48.8378 98,-38.6413 98,-30.5492"/>
<polygon fill="#191970" stroke="#191970" points="94.5001,-58.4086 98,-68.4086 101.5001,-58.4086 94.5001,-58.4086"/>
</g>
<!-- Node4 -->
<g id="node3" class="node">
<title>Node4</title>
<polygon fill="#ffffff" stroke="#bfbfbf" points="7,-146.5 7,-165.5 95,-165.5 95,-146.5 7,-146.5"/>
<text text-anchor="middle" x="51" y="-153.5" font-family="Helvetica,sans-Serif" font-size="10.00" fill="#000000">std::set&lt; int &gt;</text>
</g>
<!-- Node4&#45;&gt;Node3 -->
<g id="edge2" class="edge">
<title>Node4&#45;&gt;Node3</title>
<path fill="none" stroke="#9a32cd" stroke-dasharray="5,2" d="M62.7866,-137.8185C70.6152,-125.7425 80.774,-110.072 88.1669,-98.668"/>
<polygon fill="#9a32cd" stroke="#9a32cd" points="59.8415,-135.9274 57.3386,-146.2223 65.7153,-139.7352 59.8415,-135.9274"/>
<text text-anchor="middle" x="91" y="-120" font-family="Helvetica,sans-Serif" font-size="10.00" fill="#000000"> procs</text>
</g>
<!-- Node5 -->
<g id="node4" class="node">
<title>Node5</title>
<g id="a_node4"><a xlink:title="STL class. ">
<polygon fill="#ffffff" stroke="#bfbfbf" points="0,-219 0,-238 82,-238 82,-219 0,-219"/>
<text text-anchor="middle" x="41" y="-226" font-family="Helvetica,sans-Serif" font-size="10.00" fill="#000000">std::set&lt; K &gt;</text>
</a>
</g>
</g>
<!-- Node5&#45;&gt;Node4 -->
<g id="edge3" class="edge">
<title>Node5&#45;&gt;Node4</title>
<path fill="none" stroke="#ffa500" stroke-dasharray="5,2" d="M43.7441,-208.6054C45.6726,-194.6237 48.1676,-176.5346 49.6727,-165.6228"/>
<polygon fill="#ffa500" stroke="#ffa500" points="40.2479,-208.3379 42.3486,-218.7223 47.1823,-209.2944 40.2479,-208.3379"/>
<text text-anchor="middle" x="66.5" y="-187" font-family="Helvetica,sans-Serif" font-size="10.00" fill="#000000"> &lt; int &gt;</text>
</g>
<!-- Node6 -->
<g id="node5" class="node">
<title>Node6</title>
<polygon fill="#ffffff" stroke="#bfbfbf" points="26.5,-291.5 26.5,-310.5 55.5,-310.5 55.5,-291.5 26.5,-291.5"/>
<text text-anchor="middle" x="41" y="-298.5" font-family="Helvetica,sans-Serif" font-size="10.00" fill="#000000">K</text>
</g>
<!-- Node6&#45;&gt;Node5 -->
<g id="edge4" class="edge">
<title>Node6&#45;&gt;Node5</title>
<path fill="none" stroke="#9a32cd" stroke-dasharray="5,2" d="M41,-281.1054C41,-267.1237 41,-249.0346 41,-238.1228"/>
<polygon fill="#9a32cd" stroke="#9a32cd" points="37.5001,-281.2223 41,-291.2223 44.5001,-281.2224 37.5001,-281.2223"/>
<text text-anchor="middle" x="54.5" y="-265" font-family="Helvetica,sans-Serif" font-size="10.00" fill="#000000"> keys</text>
</g>
<!-- Node7 -->
<g id="node6" class="node">
<title>Node7</title>
<g id="a_node6"><a xlink:title="STL class. ">
<polygon fill="#ffffff" stroke="#bfbfbf" points="117.5,-146.5 117.5,-165.5 182.5,-165.5 182.5,-146.5 117.5,-146.5"/>
<text text-anchor="middle" x="150" y="-153.5" font-family="Helvetica,sans-Serif" font-size="10.00" fill="#000000">std::string</text>
</a>
</g>
</g>
<!-- Node7&#45;&gt;Node3 -->
<g id="edge5" class="edge">
<title>Node7&#45;&gt;Node3</title>
<path fill="none" stroke="#9a32cd" stroke-dasharray="5,2" d="M136.9595,-137.8185C128.2981,-125.7425 117.0586,-110.072 108.8791,-98.668"/>
<polygon fill="#9a32cd" stroke="#9a32cd" points="134.3146,-140.1363 142.987,-146.2223 140.0028,-136.0564 134.3146,-140.1363"/>
<text text-anchor="middle" x="143" y="-120" font-family="Helvetica,sans-Serif" font-size="10.00" fill="#000000"> label</text>
</g>
<!-- Node8 -->
<g id="node7" class="node">
<title>Node8</title>
<g id="a_node7"><a xlink:title="STL class. ">
<polygon fill="#ffffff" stroke="#bfbfbf" points="100,-213.5 100,-243.5 204,-243.5 204,-213.5 100,-213.5"/>
<text text-anchor="start" x="108" y="-231.5" font-family="Helvetica,sans-Serif" font-size="10.00" fill="#000000">std::basic_string&lt;</text>
<text text-anchor="middle" x="152" y="-220.5" font-family="Helvetica,sans-Serif" font-size="10.00" fill="#000000"> char &gt;</text>
</a>
</g>
</g>
<!-- Node8&#45;&gt;Node7 -->
<g id="edge6" class="edge">
<title>Node8&#45;&gt;Node7</title>
<path fill="none" stroke="#191970" d="M151.305,-203.305C150.9496,-190.424 150.5375,-175.4836 150.273,-165.8957"/>
<polygon fill="#191970" stroke="#191970" points="147.8111,-203.5783 151.5856,-213.478 154.8084,-203.3852 147.8111,-203.5783"/>
</g>
</g>
</svg>
