<?xml version="1.0" encoding="UTF-8" standalone="no"?>
<!DOCTYPE svg PUBLIC "-//W3C//DTD SVG 1.1//EN"
 "http://www.w3.org/Graphics/SVG/1.1/DTD/svg11.dtd">
<!-- Generated by graphviz version 2.40.1 (20161225.0304)
 -->
<!-- Title: amr_wind::pde::PDEFields Pages: 1 -->
<svg width="283pt" height="451pt"
 viewBox="0.00 0.00 282.50 451.00" xmlns="http://www.w3.org/2000/svg" xmlns:xlink="http://www.w3.org/1999/xlink">
<g id="graph0" class="graph" transform="scale(1 1) rotate(0) translate(4 447)">
<title>amr_wind::pde::PDEFields</title>
<polygon fill="#ffffff" stroke="transparent" points="-4,4 -4,-447 278.5,-447 278.5,4 -4,4"/>
<!-- Node1 -->
<g id="node1" class="node">
<title>Node1</title>
<polygon fill="#bfbfbf" stroke="#000000" points="83,-.5 83,-19.5 225,-19.5 225,-.5 83,-.5"/>
<text text-anchor="middle" x="154" y="-7.5" font-family="Helvetica,sans-Serif" font-size="10.00" fill="#000000">amr_wind::pde::PDEFields</text>
</g>
<!-- Node2 -->
<g id="node2" class="node">
<title>Node2</title>
<g id="a_node2"><a xlink:href="classamr__wind_1_1_field.html" target="_top" xlink:title="Computational fieldThis is an abstraction of a collection of MultiFabs over multiple levels...">
<polygon fill="#ffffff" stroke="#000000" points="181.5,-111.5 181.5,-130.5 274.5,-130.5 274.5,-111.5 181.5,-111.5"/>
<text text-anchor="middle" x="228" y="-118.5" font-family="Helvetica,sans-Serif" font-size="10.00" fill="#000000">amr_wind::Field</text>
</a>
</g>
</g>
<!-- Node2&#45;&gt;Node1 -->
<g id="edge1" class="edge">
<title>Node2&#45;&gt;Node1</title>
<path fill="none" stroke="#9a32cd" stroke-dasharray="5,2" d="M215.7675,-102.6513C199.8954,-78.8431 172.7794,-38.1692 160.4466,-19.6699"/>
<polygon fill="#9a32cd" stroke="#9a32cd" points="212.9738,-104.7704 221.433,-111.1495 218.7981,-100.8875 212.9738,-104.7704"/>
<text text-anchor="middle" x="234" y="-85" font-family="Helvetica,sans-Serif" font-size="10.00" fill="#000000"> src_term</text>
<text text-anchor="middle" x="234" y="-74" font-family="Helvetica,sans-Serif" font-size="10.00" fill="#000000">field</text>
<text text-anchor="middle" x="234" y="-63" font-family="Helvetica,sans-Serif" font-size="10.00" fill="#000000">diff_term</text>
<text text-anchor="middle" x="234" y="-52" font-family="Helvetica,sans-Serif" font-size="10.00" fill="#000000">mueff</text>
<text text-anchor="middle" x="234" y="-41" font-family="Helvetica,sans-Serif" font-size="10.00" fill="#000000">conv_term</text>
</g>
<!-- Node3 -->
<g id="node3" class="node">
<title>Node3</title>
<g id="a_node3"><a xlink:title="STL class. ">
<polygon fill="#ffffff" stroke="#bfbfbf" points="169.5,-340 169.5,-359 234.5,-359 234.5,-340 169.5,-340"/>
<text text-anchor="middle" x="202" y="-347" font-family="Helvetica,sans-Serif" font-size="10.00" fill="#000000">std::string</text>
</a>
</g>
</g>
<!-- Node3&#45;&gt;Node2 -->
<g id="edge2" class="edge">
<title>Node3&#45;&gt;Node2</title>
<path fill="none" stroke="#9a32cd" stroke-dasharray="5,2" d="M205.1093,-329.5846C205.7682,-325.1196 206.4347,-320.4017 207,-316 216.1077,-245.0776 224.4043,-159.2943 227.0918,-130.7558"/>
<polygon fill="#9a32cd" stroke="#9a32cd" points="201.5931,-329.4264 203.5488,-339.8392 208.5135,-330.4795 201.5931,-329.4264"/>
<text text-anchor="middle" x="241" y="-224.5" font-family="Helvetica,sans-Serif" font-size="10.00" fill="#000000"> m_name</text>
</g>
<!-- Node6 -->
<g id="node6" class="node">
<title>Node6</title>
<polygon fill="#ffffff" stroke="#bfbfbf" points="74,-256.5 74,-286.5 196,-286.5 196,-256.5 74,-256.5"/>
<text text-anchor="start" x="82" y="-274.5" font-family="Helvetica,sans-Serif" font-size="10.00" fill="#000000">std::unordered_map</text>
<text text-anchor="middle" x="135" y="-263.5" font-family="Helvetica,sans-Serif" font-size="10.00" fill="#000000">&lt; std::string, size_t &gt;</text>
</g>
<!-- Node3&#45;&gt;Node6 -->
<g id="edge6" class="edge">
<title>Node3&#45;&gt;Node6</title>
<path fill="none" stroke="#9a32cd" stroke-dasharray="5,2" d="M188.5108,-331.5488C182.1619,-323.3112 174.3781,-313.5064 167,-305 161.6246,-298.8025 155.4527,-292.2255 149.9723,-286.5552"/>
<polygon fill="#9a32cd" stroke="#9a32cd" points="185.9049,-333.9038 194.7496,-339.7367 191.4728,-329.6613 185.9049,-333.9038"/>
<text text-anchor="middle" x="189.5" y="-308" font-family="Helvetica,sans-Serif" font-size="10.00" fill="#000000"> keys</text>
</g>
<!-- Node4 -->
<g id="node4" class="node">
<title>Node4</title>
<g id="a_node4"><a xlink:title="STL class. ">
<polygon fill="#ffffff" stroke="#bfbfbf" points="150,-412.5 150,-442.5 254,-442.5 254,-412.5 150,-412.5"/>
<text text-anchor="start" x="158" y="-430.5" font-family="Helvetica,sans-Serif" font-size="10.00" fill="#000000">std::basic_string&lt;</text>
<text text-anchor="middle" x="202" y="-419.5" font-family="Helvetica,sans-Serif" font-size="10.00" fill="#000000"> char &gt;</text>
</a>
</g>
</g>
<!-- Node4&#45;&gt;Node3 -->
<g id="edge3" class="edge">
<title>Node4&#45;&gt;Node3</title>
<path fill="none" stroke="#191970" d="M202,-402.3962C202,-387.6331 202,-369.8138 202,-359.0839"/>
<polygon fill="#191970" stroke="#191970" points="198.5001,-402.4608 202,-412.4608 205.5001,-402.4609 198.5001,-402.4608"/>
</g>
<!-- Node5 -->
<g id="node5" class="node">
<title>Node5</title>
<g id="a_node5"><a xlink:href="classamr__wind_1_1_field_repo.html" target="_top" xlink:title="Field RepositoryFieldRepo is a database that manages handling of fields used during a simulation...">
<polygon fill="#ffffff" stroke="#000000" points="79.5,-178.5 79.5,-197.5 196.5,-197.5 196.5,-178.5 79.5,-178.5"/>
<text text-anchor="middle" x="138" y="-185.5" font-family="Helvetica,sans-Serif" font-size="10.00" fill="#000000">amr_wind::FieldRepo</text>
</a>
</g>
</g>
<!-- Node5&#45;&gt;Node1 -->
<g id="edge10" class="edge">
<title>Node5&#45;&gt;Node1</title>
<path fill="none" stroke="#9a32cd" stroke-dasharray="5,2" d="M139.7883,-168.1053C143.2199,-129.9283 150.6124,-47.6875 153.1355,-19.6174"/>
<polygon fill="#9a32cd" stroke="#9a32cd" points="136.2696,-168.1567 138.8602,-178.4299 143.2415,-168.7835 136.2696,-168.1567"/>
<text text-anchor="middle" x="157.5" y="-118.5" font-family="Helvetica,sans-Serif" font-size="10.00" fill="#000000"> repo</text>
</g>
<!-- Node5&#45;&gt;Node2 -->
<g id="edge4" class="edge">
<title>Node5&#45;&gt;Node2</title>
<path fill="none" stroke="#9a32cd" stroke-dasharray="5,2" d="M153.5053,-170.4357C160.3042,-163.3012 168.6326,-155.2787 177,-149 186.3719,-141.9675 197.7219,-135.5592 207.3332,-130.6533"/>
<polygon fill="#9a32cd" stroke="#9a32cd" points="150.5138,-168.5175 146.316,-178.2453 155.6639,-173.2585 150.5138,-168.5175"/>
<text text-anchor="middle" x="197" y="-152" font-family="Helvetica,sans-Serif" font-size="10.00" fill="#000000"> m_repo</text>
</g>
<!-- Node6&#45;&gt;Node5 -->
<g id="edge5" class="edge">
<title>Node6&#45;&gt;Node5</title>
<path fill="none" stroke="#9a32cd" stroke-dasharray="5,2" d="M135.169,-246.3971C135.3076,-236.8738 135.5561,-225.9327 136,-216 136.2742,-209.8655 136.7629,-202.9867 137.1887,-197.5823"/>
<polygon fill="#9a32cd" stroke="#9a32cd" points="131.6691,-246.3782 135.0548,-256.4175 138.6687,-246.4581 131.6691,-246.3782"/>
<text text-anchor="middle" x="172.5" y="-230" font-family="Helvetica,sans-Serif" font-size="10.00" fill="#000000"> m_fid_map</text>
<text text-anchor="middle" x="172.5" y="-219" font-family="Helvetica,sans-Serif" font-size="10.00" fill="#000000">m_int_fid_map</text>
</g>
<!-- Node7 -->
<g id="node7" class="node">
<title>Node7</title>
<g id="a_node7"><a xlink:title="STL class. ">
<polygon fill="#ffffff" stroke="#bfbfbf" points="0,-334.5 0,-364.5 114,-364.5 114,-334.5 0,-334.5"/>
<text text-anchor="start" x="8" y="-352.5" font-family="Helvetica,sans-Serif" font-size="10.00" fill="#000000">std::unordered_map</text>
<text text-anchor="middle" x="57" y="-341.5" font-family="Helvetica,sans-Serif" font-size="10.00" fill="#000000">&lt; K, T &gt;</text>
</a>
</g>
</g>
<!-- Node7&#45;&gt;Node6 -->
<g id="edge7" class="edge">
<title>Node7&#45;&gt;Node6</title>
<path fill="none" stroke="#ffa500" stroke-dasharray="5,2" d="M49.9023,-324.1603C49.4104,-317.4738 50.272,-310.5761 54,-305 59.2439,-297.1565 66.6989,-291.1473 74.9863,-286.5439"/>
<polygon fill="#ffa500" stroke="#ffa500" points="46.4896,-324.9769 51.5718,-334.2733 53.3962,-323.8367 46.4896,-324.9769"/>
<text text-anchor="middle" x="108.5" y="-308" font-family="Helvetica,sans-Serif" font-size="10.00" fill="#000000"> &lt; std::string, size_t &gt;</text>
</g>
<!-- Node8 -->
<g id="node8" class="node">
<title>Node8</title>
<polygon fill="#ffffff" stroke="#bfbfbf" points="29.5,-418 29.5,-437 58.5,-437 58.5,-418 29.5,-418"/>
<text text-anchor="middle" x="44" y="-425" font-family="Helvetica,sans-Serif" font-size="10.00" fill="#000000">K</text>
</g>
<!-- Node8&#45;&gt;Node7 -->
<g id="edge8" class="edge">
<title>Node8&#45;&gt;Node7</title>
<path fill="none" stroke="#9a32cd" stroke-dasharray="5,2" d="M43.0903,-407.6032C43.0893,-399.8661 43.5243,-390.964 45,-383 46.1481,-376.8041 48.2863,-370.2273 50.4434,-364.5568"/>
<polygon fill="#9a32cd" stroke="#9a32cd" points="39.5973,-407.946 43.3331,-417.8604 46.5954,-407.7803 39.5973,-407.946"/>
<text text-anchor="middle" x="58.5" y="-386" font-family="Helvetica,sans-Serif" font-size="10.00" fill="#000000"> keys</text>
</g>
<!-- Node9 -->
<g id="node9" class="node">
<title>Node9</title>
<polygon fill="#ffffff" stroke="#bfbfbf" points="79.5,-418 79.5,-437 108.5,-437 108.5,-418 79.5,-418"/>
<text text-anchor="middle" x="94" y="-425" font-family="Helvetica,sans-Serif" font-size="10.00" fill="#000000">T</text>
</g>
<!-- Node9&#45;&gt;Node7 -->
<g id="edge9" class="edge">
<title>Node9&#45;&gt;Node7</title>
<path fill="none" stroke="#9a32cd" stroke-dasharray="5,2" d="M85.0685,-408.6714C78.6878,-395.2202 70.2117,-377.3517 64.2493,-364.7824"/>
<polygon fill="#9a32cd" stroke="#9a32cd" points="82.0149,-410.4007 89.4631,-417.9357 88.3394,-407.4006 82.0149,-410.4007"/>
<text text-anchor="middle" x="102.5" y="-386" font-family="Helvetica,sans-Serif" font-size="10.00" fill="#000000"> elements</text>
</g>
</g>
</svg>
