<?xml version="1.0" encoding="UTF-8" standalone="no"?>
<!DOCTYPE svg PUBLIC "-//W3C//DTD SVG 1.1//EN"
 "http://www.w3.org/Graphics/SVG/1.1/DTD/svg11.dtd">
<!-- Generated by graphviz version 2.40.1 (20161225.0304)
 -->
<!-- Title: amr_wind::MLMGOptions Pages: 1 -->
<svg width="175pt" height="185pt"
 viewBox="0.00 0.00 174.50 185.00" xmlns="http://www.w3.org/2000/svg" xmlns:xlink="http://www.w3.org/1999/xlink">
<g id="graph0" class="graph" transform="scale(1 1) rotate(0) translate(4 181)">
<title>amr_wind::MLMGOptions</title>
<polygon fill="#ffffff" stroke="transparent" points="-4,4 -4,-181 170.5,-181 170.5,4 -4,4"/>
<!-- Node1 -->
<g id="node1" class="node">
<title>Node1</title>
<polygon fill="#bfbfbf" stroke="#000000" points="0,-.5 0,-19.5 137,-19.5 137,-.5 0,-.5"/>
<text text-anchor="middle" x="68.5" y="-7.5" font-family="Helvetica,sans-Serif" font-size="10.00" fill="#000000">amr_wind::MLMGOptions</text>
</g>
<!-- Node2 -->
<g id="node2" class="node">
<title>Node2</title>
<g id="a_node2"><a xlink:title="STL class. ">
<polygon fill="#ffffff" stroke="#bfbfbf" points="36,-89.5 36,-108.5 101,-108.5 101,-89.5 36,-89.5"/>
<text text-anchor="middle" x="68.5" y="-96.5" font-family="Helvetica,sans-Serif" font-size="10.00" fill="#000000">std::string</text>
</a>
</g>
</g>
<!-- Node2&#45;&gt;Node1 -->
<g id="edge1" class="edge">
<title>Node2&#45;&gt;Node1</title>
<path fill="none" stroke="#9a32cd" stroke-dasharray="5,2" d="M68.5,-79.2379C68.5,-60.7654 68.5,-33.957 68.5,-19.7259"/>
<polygon fill="#9a32cd" stroke="#9a32cd" points="65.0001,-79.4754 68.5,-89.4754 72.0001,-79.4755 65.0001,-79.4754"/>
<text text-anchor="middle" x="117.5" y="-63" font-family="Helvetica,sans-Serif" font-size="10.00" fill="#000000"> hypre_namespace</text>
<text text-anchor="middle" x="117.5" y="-52" font-family="Helvetica,sans-Serif" font-size="10.00" fill="#000000">bottom_solver_type</text>
<text text-anchor="middle" x="117.5" y="-41" font-family="Helvetica,sans-Serif" font-size="10.00" fill="#000000">hypre_interface</text>
</g>
<!-- Node3 -->
<g id="node3" class="node">
<title>Node3</title>
<g id="a_node3"><a xlink:title="STL class. ">
<polygon fill="#ffffff" stroke="#bfbfbf" points="16.5,-146.5 16.5,-176.5 120.5,-176.5 120.5,-146.5 16.5,-146.5"/>
<text text-anchor="start" x="24.5" y="-164.5" font-family="Helvetica,sans-Serif" font-size="10.00" fill="#000000">std::basic_string&lt;</text>
<text text-anchor="middle" x="68.5" y="-153.5" font-family="Helvetica,sans-Serif" font-size="10.00" fill="#000000"> char &gt;</text>
</a>
</g>
</g>
<!-- Node3&#45;&gt;Node2 -->
<g id="edge2" class="edge">
<title>Node3&#45;&gt;Node2</title>
<path fill="none" stroke="#191970" d="M68.5,-136.3498C68.5,-126.6481 68.5,-116.1303 68.5,-108.7356"/>
<polygon fill="#191970" stroke="#191970" points="65.0001,-136.3705 68.5,-146.3705 72.0001,-136.3705 65.0001,-136.3705"/>
</g>
</g>
</svg>
