<?xml version="1.0" encoding="UTF-8" standalone="no"?>
<!DOCTYPE svg PUBLIC "-//W3C//DTD SVG 1.1//EN"
 "http://www.w3.org/Graphics/SVG/1.1/DTD/svg11.dtd">
<!-- Generated by graphviz version 2.40.1 (20161225.0304)
 -->
<!-- Title: amr_wind::pde::AdvectionOp&lt; ICNS, fvm::Godunov &gt; Pages: 1 -->
<svg width="623pt" height="573pt"
 viewBox="0.00 0.00 623.00 573.00" xmlns="http://www.w3.org/2000/svg" xmlns:xlink="http://www.w3.org/1999/xlink">
<g id="graph0" class="graph" transform="scale(1 1) rotate(0) translate(4 569)">
<title>amr_wind::pde::AdvectionOp&lt; ICNS, fvm::Godunov &gt;</title>
<polygon fill="#ffffff" stroke="transparent" points="-4,4 -4,-569 619,-569 619,4 -4,4"/>
<!-- Node1 -->
<g id="node1" class="node">
<title>Node1</title>
<polygon fill="#bfbfbf" stroke="#000000" points="103.5,-.5 103.5,-30.5 254.5,-30.5 254.5,-.5 103.5,-.5"/>
<text text-anchor="start" x="111.5" y="-18.5" font-family="Helvetica,sans-Serif" font-size="10.00" fill="#000000">amr_wind::pde::Advection</text>
<text text-anchor="middle" x="179" y="-7.5" font-family="Helvetica,sans-Serif" font-size="10.00" fill="#000000">Op&lt; ICNS, fvm::Godunov &gt;</text>
</g>
<!-- Node2 -->
<g id="node2" class="node">
<title>Node2</title>
<g id="a_node2"><a xlink:href="classamr__wind_1_1pde_1_1_mac_proj_op.html" target="_top" xlink:title="amr_wind::pde::MacProjOp">
<polygon fill="#ffffff" stroke="#000000" points="256,-202.5 256,-221.5 402,-221.5 402,-202.5 256,-202.5"/>
<text text-anchor="middle" x="329" y="-209.5" font-family="Helvetica,sans-Serif" font-size="10.00" fill="#000000">amr_wind::pde::MacProjOp</text>
</a>
</g>
</g>
<!-- Node2&#45;&gt;Node1 -->
<g id="edge1" class="edge">
<title>Node2&#45;&gt;Node1</title>
<path fill="none" stroke="#9a32cd" stroke-dasharray="5,2" d="M316.5662,-193.9107C298.5114,-167.8584 263.7225,-118.4586 232,-78 219.0081,-61.4303 203.324,-43.13 192.4028,-30.6382"/>
<polygon fill="#9a32cd" stroke="#9a32cd" points="313.8614,-196.1533 322.4241,-202.3927 319.6212,-192.1753 313.8614,-196.1533"/>
<text text-anchor="middle" x="295" y="-92" font-family="Helvetica,sans-Serif" font-size="10.00" fill="#000000"> m_macproj_op</text>
</g>
<!-- Node3 -->
<g id="node3" class="node">
<title>Node3</title>
<polygon fill="#ffffff" stroke="#bfbfbf" points="419,-307.5 419,-337.5 551,-337.5 551,-307.5 419,-307.5"/>
<text text-anchor="start" x="427" y="-325.5" font-family="Helvetica,sans-Serif" font-size="10.00" fill="#000000">std::unique_ptr&lt; amrex</text>
<text text-anchor="middle" x="485" y="-314.5" font-family="Helvetica,sans-Serif" font-size="10.00" fill="#000000">::MacProjector &gt;</text>
</g>
<!-- Node3&#45;&gt;Node2 -->
<g id="edge2" class="edge">
<title>Node3&#45;&gt;Node2</title>
<path fill="none" stroke="#9a32cd" stroke-dasharray="5,2" d="M455.0854,-301.3105C421.2981,-277.3778 367.7725,-239.4638 342.7467,-221.7372"/>
<polygon fill="#9a32cd" stroke="#9a32cd" points="453.4526,-304.443 463.636,-307.3671 457.4988,-298.7308 453.4526,-304.443"/>
<text text-anchor="middle" x="468" y="-276.5" font-family="Helvetica,sans-Serif" font-size="10.00" fill="#000000"> m_mac_proj</text>
</g>
<!-- Node4 -->
<g id="node4" class="node">
<title>Node4</title>
<g id="a_node4"><a xlink:title="STL class. ">
<polygon fill="#ffffff" stroke="#bfbfbf" points="432,-412 432,-431 550,-431 550,-412 432,-412"/>
<text text-anchor="middle" x="491" y="-419" font-family="Helvetica,sans-Serif" font-size="10.00" fill="#000000">std::unique_ptr&lt; T &gt;</text>
</a>
</g>
</g>
<!-- Node4&#45;&gt;Node3 -->
<g id="edge3" class="edge">
<title>Node4&#45;&gt;Node3</title>
<path fill="none" stroke="#ffa500" stroke-dasharray="5,2" d="M489.788,-401.5022C488.6471,-382.6778 486.9631,-354.8907 485.9262,-337.7822"/>
<polygon fill="#ffa500" stroke="#ffa500" points="486.3041,-401.8756 490.4028,-411.6456 493.2913,-401.4521 486.3041,-401.8756"/>
<text text-anchor="middle" x="551.5" y="-369" font-family="Helvetica,sans-Serif" font-size="10.00" fill="#000000"> &lt; amrex::MacProjector &gt;</text>
</g>
<!-- Node5 -->
<g id="node5" class="node">
<title>Node5</title>
<polygon fill="#ffffff" stroke="#bfbfbf" points="406.5,-540 406.5,-559 435.5,-559 435.5,-540 406.5,-540"/>
<text text-anchor="middle" x="421" y="-547" font-family="Helvetica,sans-Serif" font-size="10.00" fill="#000000">T</text>
</g>
<!-- Node5&#45;&gt;Node4 -->
<g id="edge4" class="edge">
<title>Node5&#45;&gt;Node4</title>
<path fill="none" stroke="#9a32cd" stroke-dasharray="5,2" d="M431.198,-530.8523C446.2981,-503.2407 474.067,-452.4632 485.6776,-431.2324"/>
<polygon fill="#9a32cd" stroke="#9a32cd" points="427.9887,-529.4261 426.2614,-539.8792 434.1304,-532.7848 427.9887,-529.4261"/>
<text text-anchor="middle" x="452.5" y="-508" font-family="Helvetica,sans-Serif" font-size="10.00" fill="#000000"> ptr</text>
</g>
<!-- Node11 -->
<g id="node11" class="node">
<title>Node11</title>
<g id="a_node11"><a xlink:title="STL class. ">
<polygon fill="#ffffff" stroke="#bfbfbf" points="245,-456.5 245,-486.5 359,-486.5 359,-456.5 245,-456.5"/>
<text text-anchor="start" x="253" y="-474.5" font-family="Helvetica,sans-Serif" font-size="10.00" fill="#000000">std::unordered_map</text>
<text text-anchor="middle" x="302" y="-463.5" font-family="Helvetica,sans-Serif" font-size="10.00" fill="#000000">&lt; K, T &gt;</text>
</a>
</g>
</g>
<!-- Node5&#45;&gt;Node11 -->
<g id="edge13" class="edge">
<title>Node5&#45;&gt;Node11</title>
<path fill="none" stroke="#9a32cd" stroke-dasharray="5,2" d="M397.821,-534.307C376.9007,-520.5946 346.2777,-500.5224 325.3154,-486.7824"/>
<polygon fill="#9a32cd" stroke="#9a32cd" points="396.126,-537.3809 406.4083,-539.9357 399.9634,-531.5264 396.126,-537.3809"/>
<text text-anchor="middle" x="392.5" y="-508" font-family="Helvetica,sans-Serif" font-size="10.00" fill="#000000"> elements</text>
</g>
<!-- Node6 -->
<g id="node6" class="node">
<title>Node6</title>
<g id="a_node6"><a xlink:href="structamr__wind_1_1_m_l_m_g_options.html" target="_top" xlink:title="Interface to control the behavior of AMReX LinearSolvers. ">
<polygon fill="#ffffff" stroke="#000000" points="265.5,-313 265.5,-332 402.5,-332 402.5,-313 265.5,-313"/>
<text text-anchor="middle" x="334" y="-320" font-family="Helvetica,sans-Serif" font-size="10.00" fill="#000000">amr_wind::MLMGOptions</text>
</a>
</g>
</g>
<!-- Node6&#45;&gt;Node2 -->
<g id="edge5" class="edge">
<title>Node6&#45;&gt;Node2</title>
<path fill="none" stroke="#9a32cd" stroke-dasharray="5,2" d="M333.1012,-302.6366C332.0205,-278.7522 330.2504,-239.6348 329.4356,-221.6264"/>
<polygon fill="#9a32cd" stroke="#9a32cd" points="329.6077,-302.8623 333.5563,-312.6939 336.6006,-302.5458 329.6077,-302.8623"/>
<text text-anchor="middle" x="359.5" y="-276.5" font-family="Helvetica,sans-Serif" font-size="10.00" fill="#000000"> m_options</text>
</g>
<!-- Node7 -->
<g id="node7" class="node">
<title>Node7</title>
<g id="a_node7"><a xlink:title="STL class. ">
<polygon fill="#ffffff" stroke="#bfbfbf" points="94.5,-462 94.5,-481 159.5,-481 159.5,-462 94.5,-462"/>
<text text-anchor="middle" x="127" y="-469" font-family="Helvetica,sans-Serif" font-size="10.00" fill="#000000">std::string</text>
</a>
</g>
</g>
<!-- Node7&#45;&gt;Node1 -->
<g id="edge17" class="edge">
<title>Node7&#45;&gt;Node1</title>
<path fill="none" stroke="#9a32cd" stroke-dasharray="5,2" d="M85.6612,-458.3472C48.5912,-443.6624 0,-415.9381 0,-371.5 0,-371.5 0,-371.5 0,-94.5 0,-68.2594 65.1974,-44.9178 116.8968,-30.5336"/>
<polygon fill="#9a32cd" stroke="#9a32cd" points="84.6883,-461.7209 95.2801,-461.9742 87.1581,-455.171 84.6883,-461.7209"/>
<text text-anchor="middle" x="36.5" y="-243" font-family="Helvetica,sans-Serif" font-size="10.00" fill="#000000"> godunov_type</text>
</g>
<!-- Node7&#45;&gt;Node6 -->
<g id="edge6" class="edge">
<title>Node7&#45;&gt;Node6</title>
<path fill="none" stroke="#9a32cd" stroke-dasharray="5,2" d="M169.5357,-464.7797C221.1673,-456.4468 302.0172,-442.7604 307,-438 322.3364,-423.348 330.4739,-357.4878 333.0675,-332.3201"/>
<polygon fill="#9a32cd" stroke="#9a32cd" points="168.9486,-461.329 159.6302,-466.3706 170.0587,-468.2405 168.9486,-461.329"/>
<text text-anchor="middle" x="370" y="-430" font-family="Helvetica,sans-Serif" font-size="10.00" fill="#000000"> hypre_namespace</text>
<text text-anchor="middle" x="370" y="-419" font-family="Helvetica,sans-Serif" font-size="10.00" fill="#000000">bottom_solver_type</text>
<text text-anchor="middle" x="370" y="-408" font-family="Helvetica,sans-Serif" font-size="10.00" fill="#000000">hypre_interface</text>
</g>
<!-- Node10 -->
<g id="node10" class="node">
<title>Node10</title>
<polygon fill="#ffffff" stroke="#bfbfbf" points="137,-356.5 137,-386.5 259,-386.5 259,-356.5 137,-356.5"/>
<text text-anchor="start" x="145" y="-374.5" font-family="Helvetica,sans-Serif" font-size="10.00" fill="#000000">std::unordered_map</text>
<text text-anchor="middle" x="198" y="-363.5" font-family="Helvetica,sans-Serif" font-size="10.00" fill="#000000">&lt; std::string, size_t &gt;</text>
</g>
<!-- Node7&#45;&gt;Node10 -->
<g id="edge10" class="edge">
<title>Node7&#45;&gt;Node10</title>
<path fill="none" stroke="#9a32cd" stroke-dasharray="5,2" d="M129.7395,-451.4032C132.4724,-437.3005 137.8014,-418.6071 148,-405 153.452,-397.7259 160.973,-391.5269 168.5271,-386.5123"/>
<polygon fill="#9a32cd" stroke="#9a32cd" points="126.241,-451.1068 128.0609,-461.5442 133.1471,-452.25 126.241,-451.1068"/>
<text text-anchor="middle" x="161.5" y="-419" font-family="Helvetica,sans-Serif" font-size="10.00" fill="#000000"> keys</text>
</g>
<!-- Node13 -->
<g id="node13" class="node">
<title>Node13</title>
<g id="a_node13"><a xlink:href="classamr__wind_1_1_field.html" target="_top" xlink:title="Computational fieldThis is an abstraction of a collection of MultiFabs over multiple levels...">
<polygon fill="#ffffff" stroke="#000000" points="140.5,-202.5 140.5,-221.5 233.5,-221.5 233.5,-202.5 140.5,-202.5"/>
<text text-anchor="middle" x="187" y="-209.5" font-family="Helvetica,sans-Serif" font-size="10.00" fill="#000000">amr_wind::Field</text>
</a>
</g>
</g>
<!-- Node7&#45;&gt;Node13 -->
<g id="edge15" class="edge">
<title>Node7&#45;&gt;Node13</title>
<path fill="none" stroke="#9a32cd" stroke-dasharray="5,2" d="M122.1991,-451.5712C114.1934,-414.0503 101.4614,-331.1128 128,-269 136.8416,-248.3066 157.2436,-231.4442 171.5683,-221.5664"/>
<polygon fill="#9a32cd" stroke="#9a32cd" points="118.8661,-452.701 124.4832,-461.6842 125.6941,-451.1588 118.8661,-452.701"/>
<text text-anchor="middle" x="140" y="-320" font-family="Helvetica,sans-Serif" font-size="10.00" fill="#000000"> m_name</text>
</g>
<!-- Node8 -->
<g id="node8" class="node">
<title>Node8</title>
<g id="a_node8"><a xlink:title="STL class. ">
<polygon fill="#ffffff" stroke="#bfbfbf" points="75,-534.5 75,-564.5 179,-564.5 179,-534.5 75,-534.5"/>
<text text-anchor="start" x="83" y="-552.5" font-family="Helvetica,sans-Serif" font-size="10.00" fill="#000000">std::basic_string&lt;</text>
<text text-anchor="middle" x="127" y="-541.5" font-family="Helvetica,sans-Serif" font-size="10.00" fill="#000000"> char &gt;</text>
</a>
</g>
</g>
<!-- Node8&#45;&gt;Node7 -->
<g id="edge7" class="edge">
<title>Node8&#45;&gt;Node7</title>
<path fill="none" stroke="#191970" d="M127,-524.3962C127,-509.6331 127,-491.8138 127,-481.0839"/>
<polygon fill="#191970" stroke="#191970" points="123.5001,-524.4608 127,-534.4608 130.5001,-524.4609 123.5001,-524.4608"/>
</g>
<!-- Node9 -->
<g id="node9" class="node">
<title>Node9</title>
<g id="a_node9"><a xlink:href="classamr__wind_1_1_field_repo.html" target="_top" xlink:title="Field RepositoryFieldRepo is a database that manages handling of fields used during a simulation...">
<polygon fill="#ffffff" stroke="#000000" points="137.5,-269.5 137.5,-288.5 254.5,-288.5 254.5,-269.5 137.5,-269.5"/>
<text text-anchor="middle" x="196" y="-276.5" font-family="Helvetica,sans-Serif" font-size="10.00" fill="#000000">amr_wind::FieldRepo</text>
</a>
</g>
</g>
<!-- Node9&#45;&gt;Node2 -->
<g id="edge8" class="edge">
<title>Node9&#45;&gt;Node2</title>
<path fill="none" stroke="#9a32cd" stroke-dasharray="5,2" d="M223.9869,-264.9013C249.8174,-251.889 287.4776,-232.9173 309.9797,-221.5817"/>
<polygon fill="#9a32cd" stroke="#9a32cd" points="222.4118,-261.7757 215.0557,-269.4005 225.5611,-268.0273 222.4118,-261.7757"/>
<text text-anchor="middle" x="291" y="-243" font-family="Helvetica,sans-Serif" font-size="10.00" fill="#000000"> m_repo</text>
</g>
<!-- Node9&#45;&gt;Node13 -->
<g id="edge16" class="edge">
<title>Node9&#45;&gt;Node13</title>
<path fill="none" stroke="#9a32cd" stroke-dasharray="5,2" d="M193.3788,-259.4863C191.7053,-247.0286 189.6094,-231.4258 188.2871,-221.5817"/>
<polygon fill="#9a32cd" stroke="#9a32cd" points="189.9103,-259.9555 194.7105,-269.4005 196.848,-259.0236 189.9103,-259.9555"/>
<text text-anchor="middle" x="213" y="-243" font-family="Helvetica,sans-Serif" font-size="10.00" fill="#000000"> m_repo</text>
</g>
<!-- Node14 -->
<g id="node14" class="node">
<title>Node14</title>
<g id="a_node14"><a xlink:href="structamr__wind_1_1pde_1_1_p_d_e_fields.html" target="_top" xlink:title="Collection of fields related to a PDEEvery PDE requires a common set of fields, e.g., the transported variable (scalar or vector), advection, diffusion, source, and effective viscosity fields. ">
<polygon fill="#ffffff" stroke="#000000" points="28,-85 28,-104 170,-104 170,-85 28,-85"/>
<text text-anchor="middle" x="99" y="-92" font-family="Helvetica,sans-Serif" font-size="10.00" fill="#000000">amr_wind::pde::PDEFields</text>
</a>
</g>
</g>
<!-- Node9&#45;&gt;Node14 -->
<g id="edge20" class="edge">
<title>Node9&#45;&gt;Node14</title>
<path fill="none" stroke="#9a32cd" stroke-dasharray="5,2" d="M158.8235,-265.266C139.593,-256.1034 117.7419,-242.0156 106,-222 83.4532,-183.5661 91.9966,-126.8855 96.7083,-104.3045"/>
<polygon fill="#9a32cd" stroke="#9a32cd" points="157.4404,-268.4815 167.9977,-269.3728 160.3005,-262.0924 157.4404,-268.4815"/>
<text text-anchor="middle" x="118.5" y="-209.5" font-family="Helvetica,sans-Serif" font-size="10.00" fill="#000000"> repo</text>
</g>
<!-- Node10&#45;&gt;Node9 -->
<g id="edge9" class="edge">
<title>Node10&#45;&gt;Node9</title>
<path fill="none" stroke="#9a32cd" stroke-dasharray="5,2" d="M185.574,-346.8061C184.5226,-343.8957 183.6241,-340.9211 183,-338 180.1212,-324.5263 180.0291,-320.4537 183,-307 184.4099,-300.6152 187.4284,-293.9568 190.2022,-288.7356"/>
<polygon fill="#9a32cd" stroke="#9a32cd" points="182.4574,-348.4237 189.5616,-356.2838 188.9096,-345.709 182.4574,-348.4237"/>
<text text-anchor="middle" x="219.5" y="-325.5" font-family="Helvetica,sans-Serif" font-size="10.00" fill="#000000"> m_fid_map</text>
<text text-anchor="middle" x="219.5" y="-314.5" font-family="Helvetica,sans-Serif" font-size="10.00" fill="#000000">m_int_fid_map</text>
</g>
<!-- Node11&#45;&gt;Node10 -->
<g id="edge11" class="edge">
<title>Node11&#45;&gt;Node10</title>
<path fill="none" stroke="#ffa500" stroke-dasharray="5,2" d="M235.1827,-456.6194C218.141,-451.4165 203.1597,-445.0828 198,-438 187.1913,-423.1628 189.809,-401.1033 193.3446,-386.5165"/>
<polygon fill="#ffa500" stroke="#ffa500" points="234.235,-459.9887 244.813,-459.3911 236.1712,-453.2617 234.235,-459.9887"/>
<text text-anchor="middle" x="252.5" y="-419" font-family="Helvetica,sans-Serif" font-size="10.00" fill="#000000"> &lt; std::string, size_t &gt;</text>
</g>
<!-- Node12 -->
<g id="node12" class="node">
<title>Node12</title>
<polygon fill="#ffffff" stroke="#bfbfbf" points="287.5,-540 287.5,-559 316.5,-559 316.5,-540 287.5,-540"/>
<text text-anchor="middle" x="302" y="-547" font-family="Helvetica,sans-Serif" font-size="10.00" fill="#000000">K</text>
</g>
<!-- Node12&#45;&gt;Node11 -->
<g id="edge12" class="edge">
<title>Node12&#45;&gt;Node11</title>
<path fill="none" stroke="#9a32cd" stroke-dasharray="5,2" d="M302,-529.8751C302,-516.5215 302,-499.1052 302,-486.7824"/>
<polygon fill="#9a32cd" stroke="#9a32cd" points="298.5001,-529.9356 302,-539.9357 305.5001,-529.9357 298.5001,-529.9356"/>
<text text-anchor="middle" x="315.5" y="-508" font-family="Helvetica,sans-Serif" font-size="10.00" fill="#000000"> keys</text>
</g>
<!-- Node13&#45;&gt;Node1 -->
<g id="edge14" class="edge">
<title>Node13&#45;&gt;Node1</title>
<path fill="none" stroke="#9a32cd" stroke-dasharray="5,2" d="M190.9607,-192.3441C191.3912,-189.5535 191.7598,-186.7115 192,-184 196.9967,-127.5939 187.0705,-60.4665 181.8823,-30.8433"/>
<polygon fill="#9a32cd" stroke="#9a32cd" points="187.4656,-192.0038 189.1339,-202.4665 194.3543,-193.2471 187.4656,-192.0038"/>
<text text-anchor="middle" x="210" y="-103" font-family="Helvetica,sans-Serif" font-size="10.00" fill="#000000"> u_mac</text>
<text text-anchor="middle" x="210" y="-92" font-family="Helvetica,sans-Serif" font-size="10.00" fill="#000000">v_mac</text>
<text text-anchor="middle" x="210" y="-81" font-family="Helvetica,sans-Serif" font-size="10.00" fill="#000000">w_mac</text>
</g>
<!-- Node13&#45;&gt;Node14 -->
<g id="edge19" class="edge">
<title>Node13&#45;&gt;Node14</title>
<path fill="none" stroke="#9a32cd" stroke-dasharray="5,2" d="M155.8675,-197.1089C150.1063,-193.3912 144.4969,-189.0094 140,-184 118.1934,-159.7082 106.1034,-121.8436 101.3698,-104.1816"/>
<polygon fill="#9a32cd" stroke="#9a32cd" points="154.5092,-200.3693 164.9078,-202.3993 158.0448,-194.3277 154.5092,-200.3693"/>
<text text-anchor="middle" x="166" y="-176" font-family="Helvetica,sans-Serif" font-size="10.00" fill="#000000"> src_term</text>
<text text-anchor="middle" x="166" y="-165" font-family="Helvetica,sans-Serif" font-size="10.00" fill="#000000">field</text>
<text text-anchor="middle" x="166" y="-154" font-family="Helvetica,sans-Serif" font-size="10.00" fill="#000000">diff_term</text>
<text text-anchor="middle" x="166" y="-143" font-family="Helvetica,sans-Serif" font-size="10.00" fill="#000000">mueff</text>
<text text-anchor="middle" x="166" y="-132" font-family="Helvetica,sans-Serif" font-size="10.00" fill="#000000">conv_term</text>
</g>
<!-- Node14&#45;&gt;Node1 -->
<g id="edge18" class="edge">
<title>Node14&#45;&gt;Node1</title>
<path fill="none" stroke="#9a32cd" stroke-dasharray="5,2" d="M115.9736,-77.7386C130.0794,-63.8091 149.9787,-44.1586 163.6225,-30.6852"/>
<polygon fill="#9a32cd" stroke="#9a32cd" points="113.4657,-75.2962 108.8096,-84.813 118.3843,-80.277 113.4657,-75.2962"/>
<text text-anchor="middle" x="159" y="-52" font-family="Helvetica,sans-Serif" font-size="10.00" fill="#000000"> fields</text>
</g>
</g>
</svg>
