<?xml version="1.0" encoding="UTF-8" standalone="no"?>
<!DOCTYPE svg PUBLIC "-//W3C//DTD SVG 1.1//EN"
 "http://www.w3.org/Graphics/SVG/1.1/DTD/svg11.dtd">
<!-- Generated by graphviz version 2.40.1 (20161225.0304)
 -->
<!-- Title: amr_wind::pde::DiffusionOp&lt; PDE, Scheme, typename std::enable_if&lt; std::is_base_of&lt; ScalarTransport, PDE &gt;::value &gt;::type &gt; Pages: 1 -->
<svg width="185pt" height="218pt"
 viewBox="0.00 0.00 184.50 218.00" xmlns="http://www.w3.org/2000/svg" xmlns:xlink="http://www.w3.org/1999/xlink">
<g id="graph0" class="graph" transform="scale(1 1) rotate(0) translate(4 214)">
<title>amr_wind::pde::DiffusionOp&lt; PDE, Scheme, typename std::enable_if&lt; std::is_base_of&lt; ScalarTransport, PDE &gt;::value &gt;::type &gt;</title>
<polygon fill="#ffffff" stroke="transparent" points="-4,4 -4,-214 180.5,-214 180.5,4 -4,4"/>
<!-- Node0 -->
<g id="node1" class="node">
<title>Node0</title>
<polygon fill="#bfbfbf" stroke="#000000" points="0,-.5 0,-63.5 161,-63.5 161,-.5 0,-.5"/>
<text text-anchor="start" x="8" y="-51.5" font-family="Helvetica,sans-Serif" font-size="10.00" fill="#000000">amr_wind::pde::Diffusion</text>
<text text-anchor="start" x="8" y="-40.5" font-family="Helvetica,sans-Serif" font-size="10.00" fill="#000000">Op&lt; PDE, Scheme, typename</text>
<text text-anchor="start" x="8" y="-29.5" font-family="Helvetica,sans-Serif" font-size="10.00" fill="#000000"> std::enable_if&lt; std::is</text>
<text text-anchor="start" x="8" y="-18.5" font-family="Helvetica,sans-Serif" font-size="10.00" fill="#000000">_base_of&lt; ScalarTransport,</text>
<text text-anchor="middle" x="80.5" y="-7.5" font-family="Helvetica,sans-Serif" font-size="10.00" fill="#000000"> PDE &gt;::value &gt;::type &gt;</text>
</g>
<!-- Node1 -->
<g id="node2" class="node">
<title>Node1</title>
<g id="a_node2"><a xlink:href="classamr__wind_1_1pde_1_1_diff_solver_iface.html" target="_top" xlink:title="amr_wind::pde::DiffSolver\lIface\&lt; PDE::MLDiffOp \&gt;">
<polygon fill="#ffffff" stroke="#000000" points="9,-101.5 9,-131.5 152,-131.5 152,-101.5 9,-101.5"/>
<text text-anchor="start" x="17" y="-119.5" font-family="Helvetica,sans-Serif" font-size="10.00" fill="#000000">amr_wind::pde::DiffSolver</text>
<text text-anchor="middle" x="80.5" y="-108.5" font-family="Helvetica,sans-Serif" font-size="10.00" fill="#000000">Iface&lt; PDE::MLDiffOp &gt;</text>
</a>
</g>
</g>
<!-- Node1&#45;&gt;Node0 -->
<g id="edge1" class="edge">
<title>Node1&#45;&gt;Node0</title>
<path fill="none" stroke="#191970" d="M80.5,-91.2139C80.5,-82.5926 80.5,-72.8413 80.5,-63.7765"/>
<polygon fill="#191970" stroke="#191970" points="77.0001,-91.3931 80.5,-101.3931 84.0001,-91.3931 77.0001,-91.3931"/>
</g>
<!-- Node2 -->
<g id="node3" class="node">
<title>Node2</title>
<g id="a_node3"><a xlink:href="classamr__wind_1_1pde_1_1_diff_solver_iface.html" target="_top" xlink:title="Base class for all diffusion operatorsThis class provides the common operations for an implicit solut...">
<polygon fill="#ffffff" stroke="#000000" points="9,-179.5 9,-209.5 152,-209.5 152,-179.5 9,-179.5"/>
<text text-anchor="start" x="17" y="-197.5" font-family="Helvetica,sans-Serif" font-size="10.00" fill="#000000">amr_wind::pde::DiffSolver</text>
<text text-anchor="middle" x="80.5" y="-186.5" font-family="Helvetica,sans-Serif" font-size="10.00" fill="#000000">Iface&lt; LinOp &gt;</text>
</a>
</g>
</g>
<!-- Node2&#45;&gt;Node1 -->
<g id="edge2" class="edge">
<title>Node2&#45;&gt;Node1</title>
<path fill="none" stroke="#ffa500" stroke-dasharray="5,2" d="M80.5,-169.2875C80.5,-156.9187 80.5,-142.4264 80.5,-131.7592"/>
<polygon fill="#ffa500" stroke="#ffa500" points="77.0001,-169.4608 80.5,-179.4608 84.0001,-169.4608 77.0001,-169.4608"/>
<text text-anchor="middle" x="128.5" y="-153" font-family="Helvetica,sans-Serif" font-size="10.00" fill="#000000"> &lt; PDE::MLDiffOp &gt;</text>
</g>
</g>
</svg>
