<?xml version="1.0" encoding="UTF-8" standalone="no"?>
<!DOCTYPE svg PUBLIC "-//W3C//DTD SVG 1.1//EN"
 "http://www.w3.org/Graphics/SVG/1.1/DTD/svg11.dtd">
<!-- Generated by graphviz version 2.40.1 (20161225.0304)
 -->
<!-- Title: amr_wind::AMROversetInfo Pages: 1 -->
<!--zoomable 228 -->
<svg id="main" version="1.1" xmlns="http://www.w3.org/2000/svg" xmlns:xlink="http://www.w3.org/1999/xlink" xml:space="preserve" onload="init(evt)">
<style type="text/css"><![CDATA[
.edge:hover path { stroke: red; }
.edge:hover polygon { stroke: red; fill: red; }
]]></style>
<script type="text/javascript"><![CDATA[
var edges = document.getElementsByTagName('g');
if (edges && edges.length) {
  for (var i=0;i<edges.length;i++) {
    if (edges[i].id.substr(0,4)=='edge') {
      edges[i].setAttribute('class','edge');
    }
  }
}
]]></script>
        <defs>
                <circle id="rim" cx="0" cy="0" r="7"/>
                <circle id="rim2" cx="0" cy="0" r="3.5"/>
                <g id="zoomPlus">
                        <use xlink:href="#rim" fill="#404040">
                                <set attributeName="fill" to="#808080" begin="zoomplus.mouseover" end="zoomplus.mouseout"/>
                        </use>
                        <path d="M-4,0h8M0,-4v8" fill="none" stroke="white" stroke-width="1.5" pointer-events="none"/>
                </g>
                <g id="zoomMin">
                        <use xlink:href="#rim" fill="#404040">
                                <set attributeName="fill" to="#808080" begin="zoomminus.mouseover" end="zoomminus.mouseout"/>
                        </use>
                        <path d="M-4,0h8" fill="none" stroke="white" stroke-width="1.5" pointer-events="none"/>
                </g>
                <g id="dirArrow">
                        <path fill="none" stroke="white" stroke-width="1.5" d="M0,-3.0v7 M-2.5,-0.5L0,-3.0L2.5,-0.5"/>
                </g>
               <g id="resetDef">
                       <use xlink:href="#rim2" fill="#404040">
                               <set attributeName="fill" to="#808080" begin="reset.mouseover" end="reset.mouseout"/>
                       </use>
               </g>
        </defs>

<script type="text/javascript">
var viewWidth = 645;
var viewHeight = 228;
var sectionId = 'dynsection-0';
</script>
<script xlink:href="svgpan.js"/>
<svg id="graph" class="graph">
<g id="viewport">
<title>amr_wind::AMROversetInfo</title>
<polygon fill="#ffffff" stroke="transparent" points="-4,4 -4,-223.7641 641,-223.7641 641,4 -4,4"/>
<!-- Node1 -->
<g id="node1" class="node">
<title>Node1</title>
<polygon fill="#bfbfbf" stroke="#000000" points="488,-110.2641 488,-129.2641 637,-129.2641 637,-110.2641 488,-110.2641"/>
<text text-anchor="middle" x="562.5" y="-117.2641" font-family="Helvetica,sans-Serif" font-size="10.00" fill="#000000">amr_wind::AMROversetInfo</text>
</g>
<!-- Node2 -->
<g id="node2" class="node">
<title>Node2</title>
<g id="a_node2"><a xlink:href="structamr__wind_1_1tioga__iface_1_1_amr_dual_array.html" target="_top" xlink:title="amr_wind::tioga_iface\l::AmrDualArray\&lt; amrex\l::Real \&gt;">
<polygon fill="#ffffff" stroke="#000000" points="251,-178.2641 251,-219.2641 385,-219.2641 385,-178.2641 251,-178.2641"/>
<text text-anchor="start" x="259" y="-207.2641" font-family="Helvetica,sans-Serif" font-size="10.00" fill="#000000">amr_wind::tioga_iface</text>
<text text-anchor="start" x="259" y="-196.2641" font-family="Helvetica,sans-Serif" font-size="10.00" fill="#000000">::AmrDualArray&lt; amrex</text>
<text text-anchor="middle" x="318" y="-185.2641" font-family="Helvetica,sans-Serif" font-size="10.00" fill="#000000">::Real &gt;</text>
</a>
</g>
</g>
<!-- Node2&#45;&gt;Node1 -->
<g id="edge1" class="edge">
<title>Node2&#45;&gt;Node1</title>
<path fill="none" stroke="#9a32cd" stroke-dasharray="5,2" d="M394.9865,-180.0186C419.1882,-173.5877 445.8826,-165.9341 470,-157.7641 494.994,-149.297 522.9175,-137.4881 541.4803,-129.2908"/>
<polygon fill="#9a32cd" stroke="#9a32cd" points="393.9211,-176.6796 385.1383,-182.6052 395.6994,-183.45 393.9211,-176.6796"/>
<text text-anchor="middle" x="436.5" y="-190.7641" font-family="Helvetica,sans-Serif" font-size="10.00" fill="#000000"> dx</text>
<text text-anchor="middle" x="436.5" y="-179.7641" font-family="Helvetica,sans-Serif" font-size="10.00" fill="#000000">xlo</text>
</g>
<!-- Node3 -->
<g id="node3" class="node">
<title>Node3</title>
<g id="a_node3"><a xlink:href="structamr__wind_1_1tioga__iface_1_1_amr_dual_array.html" target="_top" xlink:title="Wrapper to handle host/device views of the data for TIOGA overset. ">
<polygon fill="#ffffff" stroke="#000000" points="0,-90.7641 0,-120.7641 125,-120.7641 125,-90.7641 0,-90.7641"/>
<text text-anchor="start" x="8" y="-108.7641" font-family="Helvetica,sans-Serif" font-size="10.00" fill="#000000">amr_wind::tioga_iface</text>
<text text-anchor="middle" x="62.5" y="-97.7641" font-family="Helvetica,sans-Serif" font-size="10.00" fill="#000000">::AmrDualArray&lt; T &gt;</text>
</a>
</g>
</g>
<!-- Node3&#45;&gt;Node2 -->
<g id="edge2" class="edge">
<title>Node3&#45;&gt;Node2</title>
<path fill="none" stroke="#ffa500" stroke-dasharray="5,2" d="M103.5788,-125.1391C116.1176,-130.7801 130.0219,-136.7646 143,-141.7641 178.1841,-155.3178 218.114,-168.4871 250.9393,-178.7467"/>
<polygon fill="#ffa500" stroke="#ffa500" points="104.846,-121.8705 94.2944,-120.9145 101.9468,-128.2419 104.846,-121.8705"/>
<text text-anchor="middle" x="188" y="-173.7641" font-family="Helvetica,sans-Serif" font-size="10.00" fill="#000000"> &lt; amrex::Real &gt;</text>
</g>
<!-- Node4 -->
<g id="node4" class="node">
<title>Node4</title>
<g id="a_node4"><a xlink:href="structamr__wind_1_1tioga__iface_1_1_amr_dual_array.html" target="_top" xlink:title="amr_wind::tioga_iface\l::AmrDualArray\&lt; amrex\l::Real *\&gt;">
<polygon fill="#ffffff" stroke="#000000" points="251,-118.2641 251,-159.2641 385,-159.2641 385,-118.2641 251,-118.2641"/>
<text text-anchor="start" x="259" y="-147.2641" font-family="Helvetica,sans-Serif" font-size="10.00" fill="#000000">amr_wind::tioga_iface</text>
<text text-anchor="start" x="259" y="-136.2641" font-family="Helvetica,sans-Serif" font-size="10.00" fill="#000000">::AmrDualArray&lt; amrex</text>
<text text-anchor="middle" x="318" y="-125.2641" font-family="Helvetica,sans-Serif" font-size="10.00" fill="#000000">::Real *&gt;</text>
</a>
</g>
</g>
<!-- Node3&#45;&gt;Node4 -->
<g id="edge4" class="edge">
<title>Node3&#45;&gt;Node4</title>
<path fill="none" stroke="#ffa500" stroke-dasharray="5,2" d="M135.0508,-115.1346C171.4177,-119.8317 215.1735,-125.4832 250.7738,-130.0812"/>
<polygon fill="#ffa500" stroke="#ffa500" points="135.3683,-111.6466 125.0023,-113.8368 134.4716,-118.589 135.3683,-111.6466"/>
<text text-anchor="middle" x="188" y="-129.7641" font-family="Helvetica,sans-Serif" font-size="10.00" fill="#000000"> &lt; amrex::Real *&gt;</text>
</g>
<!-- Node5 -->
<g id="node5" class="node">
<title>Node5</title>
<g id="a_node5"><a xlink:href="structamr__wind_1_1tioga__iface_1_1_amr_dual_array.html" target="_top" xlink:title="amr_wind::tioga_iface\l::AmrDualArray\&lt; int *\&gt;">
<polygon fill="#ffffff" stroke="#000000" points="252,-68.7641 252,-98.7641 384,-98.7641 384,-68.7641 252,-68.7641"/>
<text text-anchor="start" x="260" y="-86.7641" font-family="Helvetica,sans-Serif" font-size="10.00" fill="#000000">amr_wind::tioga_iface</text>
<text text-anchor="middle" x="318" y="-75.7641" font-family="Helvetica,sans-Serif" font-size="10.00" fill="#000000">::AmrDualArray&lt; int *&gt;</text>
</a>
</g>
</g>
<!-- Node3&#45;&gt;Node5 -->
<g id="edge6" class="edge">
<title>Node3&#45;&gt;Node5</title>
<path fill="none" stroke="#ffa500" stroke-dasharray="5,2" d="M135.1303,-99.5102C171.79,-96.3536 215.9421,-92.5518 251.6778,-89.4748"/>
<polygon fill="#ffa500" stroke="#ffa500" points="134.6652,-96.0372 125.0023,-100.3823 135.2658,-103.0114 134.6652,-96.0372"/>
<text text-anchor="middle" x="188" y="-100.7641" font-family="Helvetica,sans-Serif" font-size="10.00" fill="#000000"> &lt; int *&gt;</text>
</g>
<!-- Node6 -->
<g id="node6" class="node">
<title>Node6</title>
<g id="a_node6"><a xlink:href="structamr__wind_1_1tioga__iface_1_1_amr_dual_array.html" target="_top" xlink:title="amr_wind::tioga_iface\l::AmrDualArray\&lt; int \&gt;">
<polygon fill="#ffffff" stroke="#000000" points="254.5,-6.7641 254.5,-36.7641 381.5,-36.7641 381.5,-6.7641 254.5,-6.7641"/>
<text text-anchor="start" x="262.5" y="-24.7641" font-family="Helvetica,sans-Serif" font-size="10.00" fill="#000000">amr_wind::tioga_iface</text>
<text text-anchor="middle" x="318" y="-13.7641" font-family="Helvetica,sans-Serif" font-size="10.00" fill="#000000">::AmrDualArray&lt; int &gt;</text>
</a>
</g>
</g>
<!-- Node3&#45;&gt;Node6 -->
<g id="edge8" class="edge">
<title>Node3&#45;&gt;Node6</title>
<path fill="none" stroke="#ffa500" stroke-dasharray="5,2" d="M111.0807,-87.1474C121.5678,-83.2724 132.6222,-79.2957 143,-75.7641 184.2374,-61.7307 231.4565,-47.2522 266.445,-36.8241"/>
<polygon fill="#ffa500" stroke="#ffa500" points="109.7944,-83.8915 101.6449,-90.6618 112.2377,-90.4513 109.7944,-83.8915"/>
<text text-anchor="middle" x="188" y="-78.7641" font-family="Helvetica,sans-Serif" font-size="10.00" fill="#000000"> &lt; int &gt;</text>
</g>
<!-- Node4&#45;&gt;Node1 -->
<g id="edge3" class="edge">
<title>Node4&#45;&gt;Node1</title>
<path fill="none" stroke="#9a32cd" stroke-dasharray="5,2" d="M395.3949,-132.7497C424.9203,-130.4553 458.4984,-127.846 487.7711,-125.5712"/>
<polygon fill="#9a32cd" stroke="#9a32cd" points="394.8328,-129.2828 385.1341,-133.5471 395.3752,-136.2617 394.8328,-129.2828"/>
<text text-anchor="middle" x="436.5" y="-145.7641" font-family="Helvetica,sans-Serif" font-size="10.00" fill="#000000"> qnode</text>
<text text-anchor="middle" x="436.5" y="-134.7641" font-family="Helvetica,sans-Serif" font-size="10.00" fill="#000000">qcell</text>
</g>
<!-- Node5&#45;&gt;Node1 -->
<g id="edge5" class="edge">
<title>Node5&#45;&gt;Node1</title>
<path fill="none" stroke="#9a32cd" stroke-dasharray="5,2" d="M394.2433,-90.9149C418.5203,-93.5598 445.4451,-96.8774 470,-100.7641 486.5166,-103.3784 504.5561,-106.9257 520.2829,-110.2476"/>
<polygon fill="#9a32cd" stroke="#9a32cd" points="394.3307,-87.4044 384.0156,-89.8228 393.5875,-94.3648 394.3307,-87.4044"/>
<text text-anchor="middle" x="436.5" y="-114.7641" font-family="Helvetica,sans-Serif" font-size="10.00" fill="#000000"> iblank_cell</text>
<text text-anchor="middle" x="436.5" y="-103.7641" font-family="Helvetica,sans-Serif" font-size="10.00" fill="#000000">iblank_node</text>
</g>
<!-- Node6&#45;&gt;Node1 -->
<g id="edge7" class="edge">
<title>Node6&#45;&gt;Node1</title>
<path fill="none" stroke="#9a32cd" stroke-dasharray="5,2" d="M375.8384,-4.622C405.2789,.957 440.8977,2.7081 470,-10.7641 515.4964,-31.8255 546.7861,-87.5149 557.9621,-110.0717"/>
<polygon fill="#9a32cd" stroke="#9a32cd" points="374.7779,-1.2678 365.7034,-6.7364 376.2075,-8.1203 374.7779,-1.2678"/>
<text text-anchor="middle" x="436.5" y="-79.7641" font-family="Helvetica,sans-Serif" font-size="10.00" fill="#000000"> mpi_rank</text>
<text text-anchor="middle" x="436.5" y="-68.7641" font-family="Helvetica,sans-Serif" font-size="10.00" fill="#000000">global_idmap</text>
<text text-anchor="middle" x="436.5" y="-57.7641" font-family="Helvetica,sans-Serif" font-size="10.00" fill="#000000">ihigh</text>
<text text-anchor="middle" x="436.5" y="-46.7641" font-family="Helvetica,sans-Serif" font-size="10.00" fill="#000000">dims</text>
<text text-anchor="middle" x="436.5" y="-35.7641" font-family="Helvetica,sans-Serif" font-size="10.00" fill="#000000">ilow</text>
<text text-anchor="middle" x="436.5" y="-24.7641" font-family="Helvetica,sans-Serif" font-size="10.00" fill="#000000">local_id</text>
<text text-anchor="middle" x="436.5" y="-13.7641" font-family="Helvetica,sans-Serif" font-size="10.00" fill="#000000">level</text>
</g>
</g>
</svg>
        <g id="navigator" transform="translate(0 0)" fill="#404254">
                <rect fill="#f2f5e9" fill-opacity="0.5" stroke="#606060" stroke-width=".5" x="0" y="0" width="60" height="60"/>
                <use id="zoomplus" xlink:href="#zoomPlus" x="17" y="9" onmousedown="handleZoom(evt,'in')"/>
                <use id="zoomminus" xlink:href="#zoomMin" x="42" y="9" onmousedown="handleZoom(evt,'out')"/>
                <use id="reset" xlink:href="#resetDef" x="30" y="36" onmousedown="handleReset()"/>
                <g id="arrowUp" xlink:href="#dirArrow" transform="translate(30 24)" onmousedown="handlePan(0,-1)">
                  <use xlink:href="#rim" fill="#404040">
                        <set attributeName="fill" to="#808080" begin="arrowUp.mouseover" end="arrowUp.mouseout"/>
                  </use>
                  <path fill="none" stroke="white" stroke-width="1.5" d="M0,-3.0v7 M-2.5,-0.5L0,-3.0L2.5,-0.5"/>
                </g>
                <g id="arrowRight" xlink:href="#dirArrow" transform="rotate(90) translate(36 -43)" onmousedown="handlePan(1,0)">
                  <use xlink:href="#rim" fill="#404040">
                        <set attributeName="fill" to="#808080" begin="arrowRight.mouseover" end="arrowRight.mouseout"/>
                  </use>
                  <path fill="none" stroke="white" stroke-width="1.5" d="M0,-3.0v7 M-2.5,-0.5L0,-3.0L2.5,-0.5"/>
                </g>
                <g id="arrowDown" xlink:href="#dirArrow" transform="rotate(180) translate(-30 -48)" onmousedown="handlePan(0,1)">
                  <use xlink:href="#rim" fill="#404040">
                        <set attributeName="fill" to="#808080" begin="arrowDown.mouseover" end="arrowDown.mouseout"/>
                  </use>
                  <path fill="none" stroke="white" stroke-width="1.5" d="M0,-3.0v7 M-2.5,-0.5L0,-3.0L2.5,-0.5"/>
                </g>
                <g id="arrowLeft" xlink:href="#dirArrow" transform="rotate(270) translate(-36 17)" onmousedown="handlePan(-1,0)">
                  <use xlink:href="#rim" fill="#404040">
                        <set attributeName="fill" to="#808080" begin="arrowLeft.mouseover" end="arrowLeft.mouseout"/>
                  </use>
                  <path fill="none" stroke="white" stroke-width="1.5" d="M0,-3.0v7 M-2.5,-0.5L0,-3.0L2.5,-0.5"/>
                </g>
        </g>
        <svg viewBox="0 0 15 15" width="100%" height="30px" preserveAspectRatio="xMaxYMin meet">
         <g id="arrow_out" transform="scale(0.3 0.3)">
          <a xlink:href="structamr__wind_1_1_a_m_r_overset_info__coll__graph_org.svg" target="_base">
           <rect id="button" ry="5" rx="5" y="6" x="6" height="38" width="38"
                fill="#f2f5e9" fill-opacity="0.5" stroke="#606060" stroke-width="1.0"/>
           <path id="arrow"
             d="M 11.500037,31.436501 C 11.940474,20.09759 22.043105,11.32322 32.158766,21.979434 L 37.068811,17.246167 C 37.068811,17.246167 37.088388,32 37.088388,32 L 22.160133,31.978069 C 22.160133,31.978069 26.997745,27.140456 26.997745,27.140456 C 18.528582,18.264221 13.291696,25.230495 11.500037,31.436501 z"
             style="fill:#404040;"/>
          </a>
         </g>
        </svg>
</svg>
