<?xml version="1.0" encoding="UTF-8" standalone="no"?>
<!DOCTYPE svg PUBLIC "-//W3C//DTD SVG 1.1//EN"
 "http://www.w3.org/Graphics/SVG/1.1/DTD/svg11.dtd">
<!-- Generated by graphviz version 2.40.1 (20161225.0304)
 -->
<!-- Title: amr_wind::pde::ComputeRHSOp&lt; PDE, Scheme &gt; Pages: 1 -->
<svg width="329pt" height="529pt"
 viewBox="0.00 0.00 328.50 529.00" xmlns="http://www.w3.org/2000/svg" xmlns:xlink="http://www.w3.org/1999/xlink">
<g id="graph0" class="graph" transform="scale(1 1) rotate(0) translate(4 525)">
<title>amr_wind::pde::ComputeRHSOp&lt; PDE, Scheme &gt;</title>
<polygon fill="#ffffff" stroke="transparent" points="-4,4 -4,-525 324.5,-525 324.5,4 -4,4"/>
<!-- Node1 -->
<g id="node1" class="node">
<title>Node1</title>
<polygon fill="#bfbfbf" stroke="#000000" points="0,-.5 0,-30.5 173,-30.5 173,-.5 0,-.5"/>
<text text-anchor="start" x="8" y="-18.5" font-family="Helvetica,sans-Serif" font-size="10.00" fill="#000000">amr_wind::pde::ComputeRHSOp</text>
<text text-anchor="middle" x="86.5" y="-7.5" font-family="Helvetica,sans-Serif" font-size="10.00" fill="#000000">&lt; PDE, Scheme &gt;</text>
</g>
<!-- Node2 -->
<g id="node2" class="node">
<title>Node2</title>
<g id="a_node2"><a xlink:href="classamr__wind_1_1_field.html" target="_top" xlink:title="Computational fieldThis is an abstraction of a collection of MultiFabs over multiple levels...">
<polygon fill="#ffffff" stroke="#000000" points="67,-189.5 67,-208.5 160,-208.5 160,-189.5 67,-189.5"/>
<text text-anchor="middle" x="113.5" y="-196.5" font-family="Helvetica,sans-Serif" font-size="10.00" fill="#000000">amr_wind::Field</text>
</a>
</g>
</g>
<!-- Node2&#45;&gt;Node1 -->
<g id="edge1" class="edge">
<title>Node2&#45;&gt;Node1</title>
<path fill="none" stroke="#9a32cd" stroke-dasharray="5,2" d="M105.0422,-180.0367C96.6425,-160.0855 84.3389,-127.5413 79.5,-98 78.0631,-89.228 79.0045,-86.8751 79.5,-78 80.4068,-61.7567 82.6293,-43.2491 84.3288,-30.6155"/>
<polygon fill="#9a32cd" stroke="#9a32cd" points="101.8392,-181.4479 109.0187,-189.2393 108.265,-178.6713 101.8392,-181.4479"/>
<text text-anchor="middle" x="99.5" y="-85.5" font-family="Helvetica,sans-Serif" font-size="10.00" fill="#000000"> density</text>
</g>
<!-- Node10 -->
<g id="node10" class="node">
<title>Node10</title>
<g id="a_node10"><a xlink:href="structamr__wind_1_1pde_1_1_p_d_e_fields.html" target="_top" xlink:title="Collection of fields related to a PDEEvery PDE requires a common set of fields, e.g., the transported variable (scalar or vector), advection, diffusion, source, and effective viscosity fields. ">
<polygon fill="#ffffff" stroke="#000000" points="128.5,-78.5 128.5,-97.5 270.5,-97.5 270.5,-78.5 128.5,-78.5"/>
<text text-anchor="middle" x="199.5" y="-85.5" font-family="Helvetica,sans-Serif" font-size="10.00" fill="#000000">amr_wind::pde::PDEFields</text>
</a>
</g>
</g>
<!-- Node2&#45;&gt;Node10 -->
<g id="edge11" class="edge">
<title>Node2&#45;&gt;Node10</title>
<path fill="none" stroke="#9a32cd" stroke-dasharray="5,2" d="M113.4184,-179.1569C114.3668,-160.7808 118.5014,-133.6985 133.5,-116 140.5815,-107.6438 150.5932,-101.7239 160.684,-97.5527"/>
<polygon fill="#9a32cd" stroke="#9a32cd" points="109.9157,-179.2295 113.171,-189.3119 116.9136,-179.4001 109.9157,-179.2295"/>
<text text-anchor="middle" x="159.5" y="-163" font-family="Helvetica,sans-Serif" font-size="10.00" fill="#000000"> src_term</text>
<text text-anchor="middle" x="159.5" y="-152" font-family="Helvetica,sans-Serif" font-size="10.00" fill="#000000">field</text>
<text text-anchor="middle" x="159.5" y="-141" font-family="Helvetica,sans-Serif" font-size="10.00" fill="#000000">diff_term</text>
<text text-anchor="middle" x="159.5" y="-130" font-family="Helvetica,sans-Serif" font-size="10.00" fill="#000000">mueff</text>
<text text-anchor="middle" x="159.5" y="-119" font-family="Helvetica,sans-Serif" font-size="10.00" fill="#000000">conv_term</text>
</g>
<!-- Node3 -->
<g id="node3" class="node">
<title>Node3</title>
<g id="a_node3"><a xlink:title="STL class. ">
<polygon fill="#ffffff" stroke="#bfbfbf" points="79,-418 79,-437 144,-437 144,-418 79,-418"/>
<text text-anchor="middle" x="111.5" y="-425" font-family="Helvetica,sans-Serif" font-size="10.00" fill="#000000">std::string</text>
</a>
</g>
</g>
<!-- Node3&#45;&gt;Node2 -->
<g id="edge2" class="edge">
<title>Node3&#45;&gt;Node2</title>
<path fill="none" stroke="#9a32cd" stroke-dasharray="5,2" d="M111.6719,-407.8634C112.0837,-360.8087 113.1152,-242.9671 113.4163,-208.5681"/>
<polygon fill="#9a32cd" stroke="#9a32cd" points="108.1711,-407.9423 111.5834,-417.9726 115.1709,-408.0036 108.1711,-407.9423"/>
<text text-anchor="middle" x="136.5" y="-302.5" font-family="Helvetica,sans-Serif" font-size="10.00" fill="#000000"> m_name</text>
</g>
<!-- Node6 -->
<g id="node6" class="node">
<title>Node6</title>
<polygon fill="#ffffff" stroke="#bfbfbf" points="139.5,-334.5 139.5,-364.5 261.5,-364.5 261.5,-334.5 139.5,-334.5"/>
<text text-anchor="start" x="147.5" y="-352.5" font-family="Helvetica,sans-Serif" font-size="10.00" fill="#000000">std::unordered_map</text>
<text text-anchor="middle" x="200.5" y="-341.5" font-family="Helvetica,sans-Serif" font-size="10.00" fill="#000000">&lt; std::string, size_t &gt;</text>
</g>
<!-- Node3&#45;&gt;Node6 -->
<g id="edge6" class="edge">
<title>Node3&#45;&gt;Node6</title>
<path fill="none" stroke="#9a32cd" stroke-dasharray="5,2" d="M130.33,-410.9973C145.9125,-397.3407 167.8769,-378.0911 183.0624,-364.7824"/>
<polygon fill="#9a32cd" stroke="#9a32cd" points="127.6268,-408.7124 122.4131,-417.9357 132.2406,-413.9768 127.6268,-408.7124"/>
<text text-anchor="middle" x="175" y="-386" font-family="Helvetica,sans-Serif" font-size="10.00" fill="#000000"> keys</text>
</g>
<!-- Node4 -->
<g id="node4" class="node">
<title>Node4</title>
<g id="a_node4"><a xlink:title="STL class. ">
<polygon fill="#ffffff" stroke="#bfbfbf" points="59.5,-490.5 59.5,-520.5 163.5,-520.5 163.5,-490.5 59.5,-490.5"/>
<text text-anchor="start" x="67.5" y="-508.5" font-family="Helvetica,sans-Serif" font-size="10.00" fill="#000000">std::basic_string&lt;</text>
<text text-anchor="middle" x="111.5" y="-497.5" font-family="Helvetica,sans-Serif" font-size="10.00" fill="#000000"> char &gt;</text>
</a>
</g>
</g>
<!-- Node4&#45;&gt;Node3 -->
<g id="edge3" class="edge">
<title>Node4&#45;&gt;Node3</title>
<path fill="none" stroke="#191970" d="M111.5,-480.3962C111.5,-465.6331 111.5,-447.8138 111.5,-437.0839"/>
<polygon fill="#191970" stroke="#191970" points="108.0001,-480.4608 111.5,-490.4608 115.0001,-480.4609 108.0001,-480.4608"/>
</g>
<!-- Node5 -->
<g id="node5" class="node">
<title>Node5</title>
<g id="a_node5"><a xlink:href="classamr__wind_1_1_field_repo.html" target="_top" xlink:title="Field RepositoryFieldRepo is a database that manages handling of fields used during a simulation...">
<polygon fill="#ffffff" stroke="#000000" points="141,-256.5 141,-275.5 258,-275.5 258,-256.5 141,-256.5"/>
<text text-anchor="middle" x="199.5" y="-263.5" font-family="Helvetica,sans-Serif" font-size="10.00" fill="#000000">amr_wind::FieldRepo</text>
</a>
</g>
</g>
<!-- Node5&#45;&gt;Node2 -->
<g id="edge4" class="edge">
<title>Node5&#45;&gt;Node2</title>
<path fill="none" stroke="#9a32cd" stroke-dasharray="5,2" d="M166.9784,-251.8486C159.5572,-247.8999 151.9612,-243.2358 145.5,-238 135.0208,-229.5083 125.5693,-217.12 119.7013,-208.5961"/>
<polygon fill="#9a32cd" stroke="#9a32cd" points="165.6775,-255.1114 176.1865,-256.4569 168.8103,-248.8515 165.6775,-255.1114"/>
<text text-anchor="middle" x="165.5" y="-230" font-family="Helvetica,sans-Serif" font-size="10.00" fill="#000000"> m_repo</text>
</g>
<!-- Node5&#45;&gt;Node10 -->
<g id="edge12" class="edge">
<title>Node5&#45;&gt;Node10</title>
<path fill="none" stroke="#9a32cd" stroke-dasharray="5,2" d="M199.5,-246.1053C199.5,-207.9283 199.5,-125.6875 199.5,-97.6174"/>
<polygon fill="#9a32cd" stroke="#9a32cd" points="196.0001,-246.4299 199.5,-256.4299 203.0001,-246.43 196.0001,-246.4299"/>
<text text-anchor="middle" x="212" y="-196.5" font-family="Helvetica,sans-Serif" font-size="10.00" fill="#000000"> repo</text>
</g>
<!-- Node6&#45;&gt;Node5 -->
<g id="edge5" class="edge">
<title>Node6&#45;&gt;Node5</title>
<path fill="none" stroke="#9a32cd" stroke-dasharray="5,2" d="M200.1958,-324.1022C199.9991,-307.6775 199.7544,-287.2426 199.6138,-275.5023"/>
<polygon fill="#9a32cd" stroke="#9a32cd" points="196.697,-324.2275 200.3166,-334.1848 203.6965,-324.1436 196.697,-324.2275"/>
<text text-anchor="middle" x="237" y="-308" font-family="Helvetica,sans-Serif" font-size="10.00" fill="#000000"> m_fid_map</text>
<text text-anchor="middle" x="237" y="-297" font-family="Helvetica,sans-Serif" font-size="10.00" fill="#000000">m_int_fid_map</text>
</g>
<!-- Node7 -->
<g id="node7" class="node">
<title>Node7</title>
<g id="a_node7"><a xlink:title="STL class. ">
<polygon fill="#ffffff" stroke="#bfbfbf" points="162.5,-412.5 162.5,-442.5 276.5,-442.5 276.5,-412.5 162.5,-412.5"/>
<text text-anchor="start" x="170.5" y="-430.5" font-family="Helvetica,sans-Serif" font-size="10.00" fill="#000000">std::unordered_map</text>
<text text-anchor="middle" x="219.5" y="-419.5" font-family="Helvetica,sans-Serif" font-size="10.00" fill="#000000">&lt; K, T &gt;</text>
</a>
</g>
</g>
<!-- Node7&#45;&gt;Node6 -->
<g id="edge7" class="edge">
<title>Node7&#45;&gt;Node6</title>
<path fill="none" stroke="#ffa500" stroke-dasharray="5,2" d="M213.4496,-402.6616C210.417,-390.2119 206.8417,-375.5342 204.217,-364.7592"/>
<polygon fill="#ffa500" stroke="#ffa500" points="210.0693,-403.5733 215.8366,-412.4608 216.8704,-401.9165 210.0693,-403.5733"/>
<text text-anchor="middle" x="266" y="-386" font-family="Helvetica,sans-Serif" font-size="10.00" fill="#000000"> &lt; std::string, size_t &gt;</text>
</g>
<!-- Node8 -->
<g id="node8" class="node">
<title>Node8</title>
<polygon fill="#ffffff" stroke="#bfbfbf" points="193,-496 193,-515 222,-515 222,-496 193,-496"/>
<text text-anchor="middle" x="207.5" y="-503" font-family="Helvetica,sans-Serif" font-size="10.00" fill="#000000">K</text>
</g>
<!-- Node8&#45;&gt;Node7 -->
<g id="edge8" class="edge">
<title>Node8&#45;&gt;Node7</title>
<path fill="none" stroke="#9a32cd" stroke-dasharray="5,2" d="M206.7017,-485.6231C206.7151,-477.8885 207.1308,-468.983 208.5,-461 209.5555,-454.846 211.5162,-448.2777 213.4932,-442.6023"/>
<polygon fill="#9a32cd" stroke="#9a32cd" points="203.2073,-485.945 206.9057,-495.8733 210.2059,-485.8056 203.2073,-485.945"/>
<text text-anchor="middle" x="222" y="-464" font-family="Helvetica,sans-Serif" font-size="10.00" fill="#000000"> keys</text>
</g>
<!-- Node9 -->
<g id="node9" class="node">
<title>Node9</title>
<polygon fill="#ffffff" stroke="#bfbfbf" points="243,-496 243,-515 272,-515 272,-496 243,-496"/>
<text text-anchor="middle" x="257.5" y="-503" font-family="Helvetica,sans-Serif" font-size="10.00" fill="#000000">T</text>
</g>
<!-- Node9&#45;&gt;Node7 -->
<g id="edge9" class="edge">
<title>Node9&#45;&gt;Node7</title>
<path fill="none" stroke="#9a32cd" stroke-dasharray="5,2" d="M248.3271,-486.6714C241.7739,-473.2202 233.0688,-455.3517 226.9453,-442.7824"/>
<polygon fill="#9a32cd" stroke="#9a32cd" points="245.3142,-488.4787 252.8405,-495.9357 251.6072,-485.4128 245.3142,-488.4787"/>
<text text-anchor="middle" x="266" y="-464" font-family="Helvetica,sans-Serif" font-size="10.00" fill="#000000"> elements</text>
</g>
<!-- Node10&#45;&gt;Node1 -->
<g id="edge10" class="edge">
<title>Node10&#45;&gt;Node1</title>
<path fill="none" stroke="#9a32cd" stroke-dasharray="5,2" d="M175.7437,-72.7581C156.4569,-60.3839 129.3969,-43.0224 110.1412,-30.668"/>
<polygon fill="#9a32cd" stroke="#9a32cd" points="173.9536,-75.7681 184.2603,-78.2223 177.7337,-69.8764 173.9536,-75.7681"/>
<text text-anchor="middle" x="168.5" y="-52" font-family="Helvetica,sans-Serif" font-size="10.00" fill="#000000"> fields</text>
</g>
</g>
</svg>
