<?xml version="1.0" encoding="UTF-8" standalone="no"?>
<!DOCTYPE svg PUBLIC "-//W3C//DTD SVG 1.1//EN"
 "http://www.w3.org/Graphics/SVG/1.1/DTD/svg11.dtd">
<!-- Generated by graphviz version 2.40.1 (20161225.0304)
 -->
<!-- Title: amr_wind::pde::DiffusionOp&lt; SDR, Scheme &gt; Pages: 1 -->
<!--zoomable 362 -->
<svg id="main" version="1.1" xmlns="http://www.w3.org/2000/svg" xmlns:xlink="http://www.w3.org/1999/xlink" xml:space="preserve" onload="init(evt)">
<style type="text/css"><![CDATA[
.edge:hover path { stroke: red; }
.edge:hover polygon { stroke: red; fill: red; }
]]></style>
<script type="text/javascript"><![CDATA[
var edges = document.getElementsByTagName('g');
if (edges && edges.length) {
  for (var i=0;i<edges.length;i++) {
    if (edges[i].id.substr(0,4)=='edge') {
      edges[i].setAttribute('class','edge');
    }
  }
}
]]></script>
        <defs>
                <circle id="rim" cx="0" cy="0" r="7"/>
                <circle id="rim2" cx="0" cy="0" r="3.5"/>
                <g id="zoomPlus">
                        <use xlink:href="#rim" fill="#404040">
                                <set attributeName="fill" to="#808080" begin="zoomplus.mouseover" end="zoomplus.mouseout"/>
                        </use>
                        <path d="M-4,0h8M0,-4v8" fill="none" stroke="white" stroke-width="1.5" pointer-events="none"/>
                </g>
                <g id="zoomMin">
                        <use xlink:href="#rim" fill="#404040">
                                <set attributeName="fill" to="#808080" begin="zoomminus.mouseover" end="zoomminus.mouseout"/>
                        </use>
                        <path d="M-4,0h8" fill="none" stroke="white" stroke-width="1.5" pointer-events="none"/>
                </g>
                <g id="dirArrow">
                        <path fill="none" stroke="white" stroke-width="1.5" d="M0,-3.0v7 M-2.5,-0.5L0,-3.0L2.5,-0.5"/>
                </g>
               <g id="resetDef">
                       <use xlink:href="#rim2" fill="#404040">
                               <set attributeName="fill" to="#808080" begin="reset.mouseover" end="reset.mouseout"/>
                       </use>
               </g>
        </defs>

<script type="text/javascript">
var viewWidth = 2024;
var viewHeight = 362;
var sectionId = 'dynsection-1';
</script>
<script xlink:href="svgpan.js"/>
<svg id="graph" class="graph">
<g id="viewport">
<title>amr_wind::pde::DiffusionOp&lt; SDR, Scheme &gt;</title>
<polygon fill="#ffffff" stroke="transparent" points="-4,4 -4,-357.5 2020,-357.5 2020,4 -4,4"/>
<!-- Node3 -->
<g id="node1" class="node">
<title>Node3</title>
<polygon fill="#bfbfbf" stroke="#000000" points="1878,-.5 1878,-30.5 2016,-30.5 2016,-.5 1878,-.5"/>
<text text-anchor="start" x="1886" y="-18.5" font-family="Helvetica,sans-Serif" font-size="10.00" fill="#000000">amr_wind::pde::Diffusion</text>
<text text-anchor="middle" x="1947" y="-7.5" font-family="Helvetica,sans-Serif" font-size="10.00" fill="#000000">Op&lt; SDR, Scheme &gt;</text>
</g>
<!-- Node4 -->
<g id="node2" class="node">
<title>Node4</title>
<g id="a_node2"><a xlink:href="classamr__wind_1_1pde_1_1_diff_solver_iface.html" target="_top" xlink:title="amr_wind::pde::DiffSolver\lIface\&lt; SDR::MLDiffOp \&gt;">
<polygon fill="#ffffff" stroke="#000000" points="1698,-119.5 1698,-149.5 1841,-149.5 1841,-119.5 1698,-119.5"/>
<text text-anchor="start" x="1706" y="-137.5" font-family="Helvetica,sans-Serif" font-size="10.00" fill="#000000">amr_wind::pde::DiffSolver</text>
<text text-anchor="middle" x="1769.5" y="-126.5" font-family="Helvetica,sans-Serif" font-size="10.00" fill="#000000">Iface&lt; SDR::MLDiffOp &gt;</text>
</a>
</g>
</g>
<!-- Node4&#45;&gt;Node3 -->
<g id="edge1" class="edge">
<title>Node4&#45;&gt;Node3</title>
<path fill="none" stroke="#191970" d="M1800.4857,-113.7265C1835.8905,-89.9903 1892.98,-51.7162 1924.4224,-30.6365"/>
<polygon fill="#191970" stroke="#191970" points="1798.3376,-110.9528 1791.9805,-119.4286 1802.2356,-116.7671 1798.3376,-110.9528"/>
</g>
<!-- Node5 -->
<g id="node3" class="node">
<title>Node5</title>
<g id="a_node3"><a xlink:href="classamr__wind_1_1_field.html" target="_top" xlink:title="Computational fieldThis is an abstraction of a collection of MultiFabs over multiple levels...">
<polygon fill="#ffffff" stroke="#000000" points="884.5,-68 884.5,-87 977.5,-87 977.5,-68 884.5,-68"/>
<text text-anchor="middle" x="931" y="-75" font-family="Helvetica,sans-Serif" font-size="10.00" fill="#000000">amr_wind::Field</text>
</a>
</g>
</g>
<!-- Node5&#45;&gt;Node3 -->
<g id="edge25" class="edge">
<title>Node5&#45;&gt;Node3</title>
<path fill="none" stroke="#9a32cd" stroke-dasharray="5,2" d="M959.973,-63.6917C1007.6406,-42.2783 1106.0985,-3.5 1194,-3.5 1194,-3.5 1194,-3.5 1769.5,-3.5 1805.3281,-3.5 1845.1317,-5.9639 1877.9517,-8.6587"/>
<polygon fill="#9a32cd" stroke="#9a32cd" points="958.235,-60.6377 950.5942,-67.9773 961.1443,-67.0045 958.235,-60.6377"/>
<text text-anchor="middle" x="1493.5" y="-6.5" font-family="Helvetica,sans-Serif" font-size="10.00" fill="#000000"> m_lhs_src_term</text>
</g>
<!-- Node5&#45;&gt;Node4 -->
<g id="edge2" class="edge">
<title>Node5&#45;&gt;Node4</title>
<path fill="none" stroke="#9a32cd" stroke-dasharray="5,2" d="M987.6327,-67.6573C994.4768,-66.769 1001.3841,-66.0124 1008,-65.5 1050.9824,-62.1708 1061.9466,-63.2707 1105,-65.5 1321.6015,-76.7155 1576.3287,-108.3632 1697.9071,-124.6085"/>
<polygon fill="#9a32cd" stroke="#9a32cd" points="987.1142,-64.1957 977.6918,-69.04 988.0787,-71.1289 987.1142,-64.1957"/>
<text text-anchor="middle" x="1343.5" y="-92.5" font-family="Helvetica,sans-Serif" font-size="10.00" fill="#000000"> m_density</text>
</g>
<!-- Node16 -->
<g id="node14" class="node">
<title>Node16</title>
<g id="a_node14"><a xlink:href="structamr__wind_1_1pde_1_1_p_d_e_fields.html" target="_top" xlink:title="Collection of fields related to a PDEEvery PDE requires a common set of fields, e.g., the transported variable (scalar or vector), advection, diffusion, source, and effective viscosity fields. ">
<polygon fill="#ffffff" stroke="#000000" points="1123,-109 1123,-128 1265,-128 1265,-109 1123,-109"/>
<text text-anchor="middle" x="1194" y="-116" font-family="Helvetica,sans-Serif" font-size="10.00" fill="#000000">amr_wind::pde::PDEFields</text>
</a>
</g>
</g>
<!-- Node5&#45;&gt;Node16 -->
<g id="edge17" class="edge">
<title>Node5&#45;&gt;Node16</title>
<path fill="none" stroke="#9a32cd" stroke-dasharray="5,2" d="M988.0744,-70.7732C1022.3759,-68.3044 1066.6652,-67.909 1105,-76.5 1132.6754,-82.7022 1161.8812,-98.5207 1178.996,-108.8765"/>
<polygon fill="#9a32cd" stroke="#9a32cd" points="987.4562,-67.3114 977.7674,-71.5982 988.0149,-74.289 987.4562,-67.3114"/>
<text text-anchor="middle" x="1056.5" y="-123.5" font-family="Helvetica,sans-Serif" font-size="10.00" fill="#000000"> src_term</text>
<text text-anchor="middle" x="1056.5" y="-112.5" font-family="Helvetica,sans-Serif" font-size="10.00" fill="#000000">field</text>
<text text-anchor="middle" x="1056.5" y="-101.5" font-family="Helvetica,sans-Serif" font-size="10.00" fill="#000000">diff_term</text>
<text text-anchor="middle" x="1056.5" y="-90.5" font-family="Helvetica,sans-Serif" font-size="10.00" fill="#000000">mueff</text>
<text text-anchor="middle" x="1056.5" y="-79.5" font-family="Helvetica,sans-Serif" font-size="10.00" fill="#000000">conv_term</text>
</g>
<!-- Node17 -->
<g id="node15" class="node">
<title>Node17</title>
<g id="a_node15"><a xlink:href="classamr__wind_1_1pde_1_1_diff_solver_iface.html" target="_top" xlink:title="Base class for all diffusion operatorsThis class provides the common operations for an implicit solut...">
<polygon fill="#ffffff" stroke="#000000" points="1422,-155.5 1422,-185.5 1565,-185.5 1565,-155.5 1422,-155.5"/>
<text text-anchor="start" x="1430" y="-173.5" font-family="Helvetica,sans-Serif" font-size="10.00" fill="#000000">amr_wind::pde::DiffSolver</text>
<text text-anchor="middle" x="1493.5" y="-162.5" font-family="Helvetica,sans-Serif" font-size="10.00" fill="#000000">Iface&lt; LinOp &gt;</text>
</a>
</g>
</g>
<!-- Node5&#45;&gt;Node17 -->
<g id="edge20" class="edge">
<title>Node5&#45;&gt;Node17</title>
<path fill="none" stroke="#9a32cd" stroke-dasharray="5,2" d="M947.5371,-94.4862C962.058,-108.2003 984.4836,-126.6243 1008,-135.5 1081.7263,-163.3262 1305.7029,-169.1845 1421.8813,-170.3145"/>
<polygon fill="#9a32cd" stroke="#9a32cd" points="949.9256,-91.9266 940.3266,-87.4424 945.0341,-96.934 949.9256,-91.9266"/>
<text text-anchor="middle" x="1194" y="-169.5" font-family="Helvetica,sans-Serif" font-size="10.00" fill="#000000"> m_density</text>
</g>
<!-- Node6 -->
<g id="node4" class="node">
<title>Node6</title>
<g id="a_node4"><a xlink:title="STL class. ">
<polygon fill="#ffffff" stroke="#bfbfbf" points="213.5,-128 213.5,-147 278.5,-147 278.5,-128 213.5,-128"/>
<text text-anchor="middle" x="246" y="-135" font-family="Helvetica,sans-Serif" font-size="10.00" fill="#000000">std::string</text>
</a>
</g>
</g>
<!-- Node6&#45;&gt;Node5 -->
<g id="edge3" class="edge">
<title>Node6&#45;&gt;Node5</title>
<path fill="none" stroke="#9a32cd" stroke-dasharray="5,2" d="M288.6616,-133.0753C329.5318,-128.884 392.9528,-122.5042 448,-117.5 608.0498,-102.9504 798.1401,-87.8453 884.3521,-81.1127"/>
<polygon fill="#9a32cd" stroke="#9a32cd" points="288.1111,-129.6134 278.5215,-134.1178 288.827,-136.5767 288.1111,-129.6134"/>
<text text-anchor="middle" x="624.5" y="-108.5" font-family="Helvetica,sans-Serif" font-size="10.00" fill="#000000"> m_name</text>
</g>
<!-- Node9 -->
<g id="node7" class="node">
<title>Node9</title>
<polygon fill="#ffffff" stroke="#bfbfbf" points="448,-127.5 448,-157.5 570,-157.5 570,-127.5 448,-127.5"/>
<text text-anchor="start" x="456" y="-145.5" font-family="Helvetica,sans-Serif" font-size="10.00" fill="#000000">std::unordered_map</text>
<text text-anchor="middle" x="509" y="-134.5" font-family="Helvetica,sans-Serif" font-size="10.00" fill="#000000">&lt; std::string, size_t &gt;</text>
</g>
<!-- Node6&#45;&gt;Node9 -->
<g id="edge7" class="edge">
<title>Node6&#45;&gt;Node9</title>
<path fill="none" stroke="#9a32cd" stroke-dasharray="5,2" d="M288.5923,-137.1869C325.8912,-137.0428 381.5476,-137.1424 430,-138.5 435.7655,-138.6615 441.7657,-138.8778 447.7682,-139.1263"/>
<polygon fill="#9a32cd" stroke="#9a32cd" points="288.5639,-133.6869 278.5802,-137.2332 288.5963,-140.6868 288.5639,-133.6869"/>
<text text-anchor="middle" x="375.5" y="-141.5" font-family="Helvetica,sans-Serif" font-size="10.00" fill="#000000"> keys</text>
</g>
<!-- Node13 -->
<g id="node11" class="node">
<title>Node13</title>
<g id="a_node11"><a xlink:href="structamr__wind_1_1_m_l_m_g_options.html" target="_top" xlink:title="Interface to control the behavior of AMReX LinearSolvers. ">
<polygon fill="#ffffff" stroke="#000000" points="1125.5,-200 1125.5,-219 1262.5,-219 1262.5,-200 1125.5,-200"/>
<text text-anchor="middle" x="1194" y="-207" font-family="Helvetica,sans-Serif" font-size="10.00" fill="#000000">amr_wind::MLMGOptions</text>
</a>
</g>
</g>
<!-- Node6&#45;&gt;Node13 -->
<g id="edge12" class="edge">
<title>Node6&#45;&gt;Node13</title>
<path fill="none" stroke="#9a32cd" stroke-dasharray="5,2" d="M285.6917,-151.232C291.7648,-154.1606 297.7508,-157.5771 303,-161.5 313.1197,-169.0628 309.7924,-177.6695 321,-183.5 395.3302,-222.1687 425.2131,-197.5 509,-197.5 509,-197.5 509,-197.5 931,-197.5 997.0469,-197.5 1072.3268,-201.3233 1125.3734,-204.6537"/>
<polygon fill="#9a32cd" stroke="#9a32cd" points="286.7316,-147.8653 276.1698,-147.0289 283.9048,-154.2691 286.7316,-147.8653"/>
<text text-anchor="middle" x="737.5" y="-222.5" font-family="Helvetica,sans-Serif" font-size="10.00" fill="#000000"> hypre_namespace</text>
<text text-anchor="middle" x="737.5" y="-211.5" font-family="Helvetica,sans-Serif" font-size="10.00" fill="#000000">bottom_solver_type</text>
<text text-anchor="middle" x="737.5" y="-200.5" font-family="Helvetica,sans-Serif" font-size="10.00" fill="#000000">hypre_interface</text>
</g>
<!-- Node7 -->
<g id="node5" class="node">
<title>Node7</title>
<g id="a_node5"><a xlink:title="STL class. ">
<polygon fill="#ffffff" stroke="#bfbfbf" points="0,-122.5 0,-152.5 104,-152.5 104,-122.5 0,-122.5"/>
<text text-anchor="start" x="8" y="-140.5" font-family="Helvetica,sans-Serif" font-size="10.00" fill="#000000">std::basic_string&lt;</text>
<text text-anchor="middle" x="52" y="-129.5" font-family="Helvetica,sans-Serif" font-size="10.00" fill="#000000"> char &gt;</text>
</a>
</g>
</g>
<!-- Node7&#45;&gt;Node6 -->
<g id="edge4" class="edge">
<title>Node7&#45;&gt;Node6</title>
<path fill="none" stroke="#191970" d="M114.2675,-137.5C147.2713,-137.5 186.4557,-137.5 213.4613,-137.5"/>
<polygon fill="#191970" stroke="#191970" points="114.2437,-134.0001 104.2436,-137.5 114.2436,-141.0001 114.2437,-134.0001"/>
</g>
<!-- Node8 -->
<g id="node6" class="node">
<title>Node8</title>
<g id="a_node6"><a xlink:href="classamr__wind_1_1_field_repo.html" target="_top" xlink:title="Field RepositoryFieldRepo is a database that manages handling of fields used during a simulation...">
<polygon fill="#ffffff" stroke="#000000" points="679,-133 679,-152 796,-152 796,-133 679,-133"/>
<text text-anchor="middle" x="737.5" y="-140" font-family="Helvetica,sans-Serif" font-size="10.00" fill="#000000">amr_wind::FieldRepo</text>
</a>
</g>
</g>
<!-- Node8&#45;&gt;Node5 -->
<g id="edge5" class="edge">
<title>Node8&#45;&gt;Node5</title>
<path fill="none" stroke="#9a32cd" stroke-dasharray="5,2" d="M775.5886,-129.7054C812.9484,-117.1556 869.0549,-98.3084 902.6465,-87.0244"/>
<polygon fill="#9a32cd" stroke="#9a32cd" points="774.4165,-126.4068 766.0516,-132.909 776.6456,-133.0425 774.4165,-126.4068"/>
<text text-anchor="middle" x="834" y="-119.5" font-family="Helvetica,sans-Serif" font-size="10.00" fill="#000000"> m_repo</text>
</g>
<!-- Node8&#45;&gt;Node16 -->
<g id="edge18" class="edge">
<title>Node8&#45;&gt;Node16</title>
<path fill="none" stroke="#9a32cd" stroke-dasharray="5,2" d="M806.2936,-142.8001C880.2348,-142.572 1001.1515,-140.6082 1105,-131.5 1114.8001,-130.6405 1125.1667,-129.4167 1135.2275,-128.06"/>
<polygon fill="#9a32cd" stroke="#9a32cd" points="806.1712,-139.3002 796.1786,-142.8213 806.186,-146.3002 806.1712,-139.3002"/>
<text text-anchor="middle" x="931" y="-145.5" font-family="Helvetica,sans-Serif" font-size="10.00" fill="#000000"> repo</text>
</g>
<!-- Node9&#45;&gt;Node8 -->
<g id="edge6" class="edge">
<title>Node9&#45;&gt;Node8</title>
<path fill="none" stroke="#9a32cd" stroke-dasharray="5,2" d="M580.321,-142.5C611.9937,-142.5 648.8171,-142.5 678.8573,-142.5"/>
<polygon fill="#9a32cd" stroke="#9a32cd" points="580.2338,-139.0001 570.2338,-142.5 580.2338,-146.0001 580.2338,-139.0001"/>
<text text-anchor="middle" x="624.5" y="-156.5" font-family="Helvetica,sans-Serif" font-size="10.00" fill="#000000"> m_fid_map</text>
<text text-anchor="middle" x="624.5" y="-145.5" font-family="Helvetica,sans-Serif" font-size="10.00" fill="#000000">m_int_fid_map</text>
</g>
<!-- Node10 -->
<g id="node8" class="node">
<title>Node10</title>
<g id="a_node8"><a xlink:title="STL class. ">
<polygon fill="#ffffff" stroke="#bfbfbf" points="189,-171.5 189,-201.5 303,-201.5 303,-171.5 189,-171.5"/>
<text text-anchor="start" x="197" y="-189.5" font-family="Helvetica,sans-Serif" font-size="10.00" fill="#000000">std::unordered_map</text>
<text text-anchor="middle" x="246" y="-178.5" font-family="Helvetica,sans-Serif" font-size="10.00" fill="#000000">&lt; K, T &gt;</text>
</a>
</g>
</g>
<!-- Node10&#45;&gt;Node9 -->
<g id="edge8" class="edge">
<title>Node10&#45;&gt;Node9</title>
<path fill="none" stroke="#ffa500" stroke-dasharray="5,2" d="M313.0961,-175.2748C354.6338,-168.3255 407.556,-159.4716 447.9213,-152.7185"/>
<polygon fill="#ffa500" stroke="#ffa500" points="312.3525,-171.8505 303.0671,-176.9527 313.5076,-178.7545 312.3525,-171.8505"/>
<text text-anchor="middle" x="375.5" y="-176.5" font-family="Helvetica,sans-Serif" font-size="10.00" fill="#000000"> &lt; std::string, size_t &gt;</text>
</g>
<!-- Node11 -->
<g id="node9" class="node">
<title>Node11</title>
<polygon fill="#ffffff" stroke="#bfbfbf" points="37.5,-177 37.5,-196 66.5,-196 66.5,-177 37.5,-177"/>
<text text-anchor="middle" x="52" y="-184" font-family="Helvetica,sans-Serif" font-size="10.00" fill="#000000">K</text>
</g>
<!-- Node11&#45;&gt;Node10 -->
<g id="edge9" class="edge">
<title>Node11&#45;&gt;Node10</title>
<path fill="none" stroke="#9a32cd" stroke-dasharray="5,2" d="M76.7174,-186.5C104.8185,-186.5 151.6251,-186.5 188.9063,-186.5"/>
<polygon fill="#9a32cd" stroke="#9a32cd" points="76.5816,-183.0001 66.5815,-186.5 76.5815,-190.0001 76.5816,-183.0001"/>
<text text-anchor="middle" x="146.5" y="-189.5" font-family="Helvetica,sans-Serif" font-size="10.00" fill="#000000"> keys</text>
</g>
<!-- Node12 -->
<g id="node10" class="node">
<title>Node12</title>
<polygon fill="#ffffff" stroke="#bfbfbf" points="37.5,-226 37.5,-245 66.5,-245 66.5,-226 37.5,-226"/>
<text text-anchor="middle" x="52" y="-233" font-family="Helvetica,sans-Serif" font-size="10.00" fill="#000000">T</text>
</g>
<!-- Node12&#45;&gt;Node10 -->
<g id="edge10" class="edge">
<title>Node12&#45;&gt;Node10</title>
<path fill="none" stroke="#9a32cd" stroke-dasharray="5,2" d="M76.3455,-229.3509C104.4041,-222.2639 151.4602,-210.3786 188.9063,-200.9206"/>
<polygon fill="#9a32cd" stroke="#9a32cd" points="75.4199,-225.9747 66.5815,-231.817 77.1342,-232.7615 75.4199,-225.9747"/>
<text text-anchor="middle" x="146.5" y="-220.5" font-family="Helvetica,sans-Serif" font-size="10.00" fill="#000000"> elements</text>
</g>
<!-- Node15 -->
<g id="node13" class="node">
<title>Node15</title>
<g id="a_node13"><a xlink:title="STL class. ">
<polygon fill="#ffffff" stroke="#bfbfbf" points="872,-249 872,-268 990,-268 990,-249 872,-249"/>
<text text-anchor="middle" x="931" y="-256" font-family="Helvetica,sans-Serif" font-size="10.00" fill="#000000">std::unique_ptr&lt; T &gt;</text>
</a>
</g>
</g>
<!-- Node12&#45;&gt;Node15 -->
<g id="edge15" class="edge">
<title>Node12&#45;&gt;Node15</title>
<path fill="none" stroke="#9a32cd" stroke-dasharray="5,2" d="M76.7899,-240.3391C113.5695,-247.0857 184.8338,-258.5 246,-258.5 246,-258.5 246,-258.5 737.5,-258.5 782.5156,-258.5 833.422,-258.5 871.7185,-258.5"/>
<polygon fill="#9a32cd" stroke="#9a32cd" points="77.0062,-236.8186 66.5321,-238.413 75.7144,-243.6984 77.0062,-236.8186"/>
<text text-anchor="middle" x="509" y="-261.5" font-family="Helvetica,sans-Serif" font-size="10.00" fill="#000000"> ptr</text>
</g>
<!-- Node13&#45;&gt;Node4 -->
<g id="edge11" class="edge">
<title>Node13&#45;&gt;Node4</title>
<path fill="none" stroke="#9a32cd" stroke-dasharray="5,2" d="M1253.3355,-223.2234C1257.4721,-225.3149 1261.416,-227.7243 1265,-230.5 1277.2935,-240.0209 1269.4691,-252.8389 1283,-260.5 1329.7974,-286.9962 1350.8478,-268.6789 1404,-260.5 1532.6972,-240.6965 1676.237,-178.5484 1738.2153,-149.607"/>
<polygon fill="#9a32cd" stroke="#9a32cd" points="1254.5995,-219.9559 1244.0366,-219.1341 1251.7816,-226.3636 1254.5995,-219.9559"/>
<text text-anchor="middle" x="1493.5" y="-260.5" font-family="Helvetica,sans-Serif" font-size="10.00" fill="#000000"> m_options</text>
</g>
<!-- Node13&#45;&gt;Node17 -->
<g id="edge23" class="edge">
<title>Node13&#45;&gt;Node17</title>
<path fill="none" stroke="#9a32cd" stroke-dasharray="5,2" d="M1272.6964,-199.2524C1318.9661,-193.2273 1377.0167,-185.6681 1421.9823,-179.8128"/>
<polygon fill="#9a32cd" stroke="#9a32cd" points="1272.1757,-195.7906 1262.7113,-200.5526 1273.0796,-202.732 1272.1757,-195.7906"/>
<text text-anchor="middle" x="1343.5" y="-200.5" font-family="Helvetica,sans-Serif" font-size="10.00" fill="#000000"> m_options</text>
</g>
<!-- Node14 -->
<g id="node12" class="node">
<title>Node14</title>
<polygon fill="#ffffff" stroke="#bfbfbf" points="1283,-298.5 1283,-328.5 1404,-328.5 1404,-298.5 1283,-298.5"/>
<text text-anchor="start" x="1291" y="-316.5" font-family="Helvetica,sans-Serif" font-size="10.00" fill="#000000">std::unique_ptr&lt; SDR</text>
<text text-anchor="middle" x="1343.5" y="-305.5" font-family="Helvetica,sans-Serif" font-size="10.00" fill="#000000">::MLDiffOp &gt;</text>
</g>
<!-- Node14&#45;&gt;Node4 -->
<g id="edge13" class="edge">
<title>Node14&#45;&gt;Node4</title>
<path fill="none" stroke="#9a32cd" stroke-dasharray="5,2" d="M1414.2257,-326.2893C1486.6662,-335.5014 1599.7317,-338.7402 1680,-288.5 1731.9004,-256.0154 1757.0568,-181.6568 1765.7917,-149.6305"/>
<polygon fill="#9a32cd" stroke="#9a32cd" points="1414.658,-322.816 1404.2813,-324.9547 1413.7269,-329.7538 1414.658,-322.816"/>
<text text-anchor="middle" x="1493.5" y="-345.5" font-family="Helvetica,sans-Serif" font-size="10.00" fill="#000000"> m_applier</text>
<text text-anchor="middle" x="1493.5" y="-334.5" font-family="Helvetica,sans-Serif" font-size="10.00" fill="#000000">m_solver</text>
</g>
<!-- Node15&#45;&gt;Node14 -->
<g id="edge14" class="edge">
<title>Node15&#45;&gt;Node14</title>
<path fill="none" stroke="#ffa500" stroke-dasharray="5,2" d="M995.8627,-269.6544C999.9671,-270.2972 1004.0389,-270.918 1008,-271.5 1103.8279,-285.581 1215.5012,-298.9584 1282.7854,-306.6896"/>
<polygon fill="#ffa500" stroke="#ffa500" points="996.065,-266.1424 985.638,-268.0208 994.9605,-273.0548 996.065,-266.1424"/>
<text text-anchor="middle" x="1056.5" y="-286.5" font-family="Helvetica,sans-Serif" font-size="10.00" fill="#000000"> &lt; SDR::MLDiffOp &gt;</text>
</g>
<!-- Node18 -->
<g id="node16" class="node">
<title>Node18</title>
<polygon fill="#ffffff" stroke="#bfbfbf" points="1124,-240 1124,-259 1264,-259 1264,-240 1124,-240"/>
<text text-anchor="middle" x="1194" y="-247" font-family="Helvetica,sans-Serif" font-size="10.00" fill="#000000">std::unique_ptr&lt; LinOp &gt;</text>
</g>
<!-- Node15&#45;&gt;Node18 -->
<g id="edge22" class="edge">
<title>Node15&#45;&gt;Node18</title>
<path fill="none" stroke="#ffa500" stroke-dasharray="5,2" d="M1000.0327,-256.1377C1038.2401,-254.8302 1085.6127,-253.2091 1123.9769,-251.8962"/>
<polygon fill="#ffa500" stroke="#ffa500" points="999.8967,-252.6402 990.0223,-256.4802 1000.1362,-259.6361 999.8967,-252.6402"/>
<text text-anchor="middle" x="1056.5" y="-259.5" font-family="Helvetica,sans-Serif" font-size="10.00" fill="#000000"> &lt; LinOp &gt;</text>
</g>
<!-- Node16&#45;&gt;Node4 -->
<g id="edge16" class="edge">
<title>Node16&#45;&gt;Node4</title>
<path fill="none" stroke="#9a32cd" stroke-dasharray="5,2" d="M1275.4404,-120.7642C1388.2143,-123.8995 1590.15,-129.5137 1697.6141,-132.5014"/>
<polygon fill="#9a32cd" stroke="#9a32cd" points="1275.2382,-117.2573 1265.1448,-120.478 1275.0436,-124.2546 1275.2382,-117.2573"/>
<text text-anchor="middle" x="1493.5" y="-132.5" font-family="Helvetica,sans-Serif" font-size="10.00" fill="#000000"> m_pdefields</text>
</g>
<!-- Node16&#45;&gt;Node17 -->
<g id="edge24" class="edge">
<title>Node16&#45;&gt;Node17</title>
<path fill="none" stroke="#9a32cd" stroke-dasharray="5,2" d="M1275.6432,-126.2215C1314.7038,-130.6215 1362.0016,-136.9809 1404,-145.5 1417.2812,-148.194 1431.4828,-151.8117 1444.5707,-155.4569"/>
<polygon fill="#9a32cd" stroke="#9a32cd" points="1275.7022,-122.7068 1265.3786,-125.0887 1274.9343,-129.6646 1275.7022,-122.7068"/>
<text text-anchor="middle" x="1343.5" y="-148.5" font-family="Helvetica,sans-Serif" font-size="10.00" fill="#000000"> m_pdefields</text>
</g>
<!-- Node17&#45;&gt;Node4 -->
<g id="edge19" class="edge">
<title>Node17&#45;&gt;Node4</title>
<path fill="none" stroke="#ffa500" stroke-dasharray="5,2" d="M1575.5109,-159.8029C1614.293,-154.7444 1660.1792,-148.7592 1697.5853,-143.8802"/>
<polygon fill="#ffa500" stroke="#ffa500" points="1574.7585,-156.3713 1565.2953,-161.1354 1575.664,-163.3125 1574.7585,-156.3713"/>
<text text-anchor="middle" x="1631.5" y="-161.5" font-family="Helvetica,sans-Serif" font-size="10.00" fill="#000000"> &lt; SDR::MLDiffOp &gt;</text>
</g>
<!-- Node18&#45;&gt;Node17 -->
<g id="edge21" class="edge">
<title>Node18&#45;&gt;Node17</title>
<path fill="none" stroke="#9a32cd" stroke-dasharray="5,2" d="M1274.3016,-240.4273C1313.9388,-234.6757 1362.117,-225.7587 1404,-212.5 1425.6001,-205.6622 1448.7203,-194.7094 1466.0503,-185.7031"/>
<polygon fill="#9a32cd" stroke="#9a32cd" points="1273.5677,-236.9961 1264.1544,-241.8582 1274.5451,-243.9275 1273.5677,-236.9961"/>
<text text-anchor="middle" x="1343.5" y="-253.5" font-family="Helvetica,sans-Serif" font-size="10.00" fill="#000000"> m_applier</text>
<text text-anchor="middle" x="1343.5" y="-242.5" font-family="Helvetica,sans-Serif" font-size="10.00" fill="#000000">m_solver</text>
</g>
</g>
</svg>
        <g id="navigator" transform="translate(0 0)" fill="#404254">
                <rect fill="#f2f5e9" fill-opacity="0.5" stroke="#606060" stroke-width=".5" x="0" y="0" width="60" height="60"/>
                <use id="zoomplus" xlink:href="#zoomPlus" x="17" y="9" onmousedown="handleZoom(evt,'in')"/>
                <use id="zoomminus" xlink:href="#zoomMin" x="42" y="9" onmousedown="handleZoom(evt,'out')"/>
                <use id="reset" xlink:href="#resetDef" x="30" y="36" onmousedown="handleReset()"/>
                <g id="arrowUp" xlink:href="#dirArrow" transform="translate(30 24)" onmousedown="handlePan(0,-1)">
                  <use xlink:href="#rim" fill="#404040">
                        <set attributeName="fill" to="#808080" begin="arrowUp.mouseover" end="arrowUp.mouseout"/>
                  </use>
                  <path fill="none" stroke="white" stroke-width="1.5" d="M0,-3.0v7 M-2.5,-0.5L0,-3.0L2.5,-0.5"/>
                </g>
                <g id="arrowRight" xlink:href="#dirArrow" transform="rotate(90) translate(36 -43)" onmousedown="handlePan(1,0)">
                  <use xlink:href="#rim" fill="#404040">
                        <set attributeName="fill" to="#808080" begin="arrowRight.mouseover" end="arrowRight.mouseout"/>
                  </use>
                  <path fill="none" stroke="white" stroke-width="1.5" d="M0,-3.0v7 M-2.5,-0.5L0,-3.0L2.5,-0.5"/>
                </g>
                <g id="arrowDown" xlink:href="#dirArrow" transform="rotate(180) translate(-30 -48)" onmousedown="handlePan(0,1)">
                  <use xlink:href="#rim" fill="#404040">
                        <set attributeName="fill" to="#808080" begin="arrowDown.mouseover" end="arrowDown.mouseout"/>
                  </use>
                  <path fill="none" stroke="white" stroke-width="1.5" d="M0,-3.0v7 M-2.5,-0.5L0,-3.0L2.5,-0.5"/>
                </g>
                <g id="arrowLeft" xlink:href="#dirArrow" transform="rotate(270) translate(-36 17)" onmousedown="handlePan(-1,0)">
                  <use xlink:href="#rim" fill="#404040">
                        <set attributeName="fill" to="#808080" begin="arrowLeft.mouseover" end="arrowLeft.mouseout"/>
                  </use>
                  <path fill="none" stroke="white" stroke-width="1.5" d="M0,-3.0v7 M-2.5,-0.5L0,-3.0L2.5,-0.5"/>
                </g>
        </g>
        <svg viewBox="0 0 15 15" width="100%" height="30px" preserveAspectRatio="xMaxYMin meet">
         <g id="arrow_out" transform="scale(0.3 0.3)">
          <a xlink:href="structamr__wind_1_1pde_1_1_diffusion_op_3_01_s_d_r_00_01_scheme_01_4__coll__graph_org.svg" target="_base">
           <rect id="button" ry="5" rx="5" y="6" x="6" height="38" width="38"
                fill="#f2f5e9" fill-opacity="0.5" stroke="#606060" stroke-width="1.0"/>
           <path id="arrow"
             d="M 11.500037,31.436501 C 11.940474,20.09759 22.043105,11.32322 32.158766,21.979434 L 37.068811,17.246167 C 37.068811,17.246167 37.088388,32 37.088388,32 L 22.160133,31.978069 C 22.160133,31.978069 26.997745,27.140456 26.997745,27.140456 C 18.528582,18.264221 13.291696,25.230495 11.500037,31.436501 z"
             style="fill:#404040;"/>
          </a>
         </g>
        </svg>
</svg>
