<?xml version="1.0" encoding="UTF-8" standalone="no"?>
<!DOCTYPE svg PUBLIC "-//W3C//DTD SVG 1.1//EN"
 "http://www.w3.org/Graphics/SVG/1.1/DTD/svg11.dtd">
<!-- Generated by graphviz version 2.40.1 (20161225.0304)
 -->
<!-- Title: amr_wind::actuator::ActInfo Pages: 1 -->
<svg width="212pt" height="251pt"
 viewBox="0.00 0.00 212.00 251.00" xmlns="http://www.w3.org/2000/svg" xmlns:xlink="http://www.w3.org/1999/xlink">
<g id="graph0" class="graph" transform="scale(1 1) rotate(0) translate(4 247)">
<title>amr_wind::actuator::ActInfo</title>
<polygon fill="#ffffff" stroke="transparent" points="-4,4 -4,-247 208,-247 208,4 -4,4"/>
<!-- Node2 -->
<g id="node1" class="node">
<title>Node2</title>
<polygon fill="#bfbfbf" stroke="#000000" points="42.5,-.5 42.5,-30.5 153.5,-30.5 153.5,-.5 42.5,-.5"/>
<text text-anchor="start" x="50.5" y="-18.5" font-family="Helvetica,sans-Serif" font-size="10.00" fill="#000000">amr_wind::actuator</text>
<text text-anchor="middle" x="98" y="-7.5" font-family="Helvetica,sans-Serif" font-size="10.00" fill="#000000">::ActInfo</text>
</g>
<!-- Node3 -->
<g id="node2" class="node">
<title>Node3</title>
<polygon fill="#ffffff" stroke="#bfbfbf" points="7,-78.5 7,-97.5 95,-97.5 95,-78.5 7,-78.5"/>
<text text-anchor="middle" x="51" y="-85.5" font-family="Helvetica,sans-Serif" font-size="10.00" fill="#000000">std::set&lt; int &gt;</text>
</g>
<!-- Node3&#45;&gt;Node2 -->
<g id="edge1" class="edge">
<title>Node3&#45;&gt;Node2</title>
<path fill="none" stroke="#9a32cd" stroke-dasharray="5,2" d="M62.7866,-69.8185C70.6152,-57.7425 80.774,-42.072 88.1669,-30.668"/>
<polygon fill="#9a32cd" stroke="#9a32cd" points="59.8415,-67.9274 57.3386,-78.2223 65.7153,-71.7352 59.8415,-67.9274"/>
<text text-anchor="middle" x="91" y="-52" font-family="Helvetica,sans-Serif" font-size="10.00" fill="#000000"> procs</text>
</g>
<!-- Node4 -->
<g id="node3" class="node">
<title>Node4</title>
<g id="a_node3"><a xlink:title="STL class. ">
<polygon fill="#ffffff" stroke="#bfbfbf" points="0,-151 0,-170 82,-170 82,-151 0,-151"/>
<text text-anchor="middle" x="41" y="-158" font-family="Helvetica,sans-Serif" font-size="10.00" fill="#000000">std::set&lt; K &gt;</text>
</a>
</g>
</g>
<!-- Node4&#45;&gt;Node3 -->
<g id="edge2" class="edge">
<title>Node4&#45;&gt;Node3</title>
<path fill="none" stroke="#ffa500" stroke-dasharray="5,2" d="M43.7441,-140.6054C45.6726,-126.6237 48.1676,-108.5346 49.6727,-97.6228"/>
<polygon fill="#ffa500" stroke="#ffa500" points="40.2479,-140.3379 42.3486,-150.7223 47.1823,-141.2944 40.2479,-140.3379"/>
<text text-anchor="middle" x="66.5" y="-119" font-family="Helvetica,sans-Serif" font-size="10.00" fill="#000000"> &lt; int &gt;</text>
</g>
<!-- Node5 -->
<g id="node4" class="node">
<title>Node5</title>
<polygon fill="#ffffff" stroke="#bfbfbf" points="26.5,-223.5 26.5,-242.5 55.5,-242.5 55.5,-223.5 26.5,-223.5"/>
<text text-anchor="middle" x="41" y="-230.5" font-family="Helvetica,sans-Serif" font-size="10.00" fill="#000000">K</text>
</g>
<!-- Node5&#45;&gt;Node4 -->
<g id="edge3" class="edge">
<title>Node5&#45;&gt;Node4</title>
<path fill="none" stroke="#9a32cd" stroke-dasharray="5,2" d="M41,-213.1054C41,-199.1237 41,-181.0346 41,-170.1228"/>
<polygon fill="#9a32cd" stroke="#9a32cd" points="37.5001,-213.2223 41,-223.2223 44.5001,-213.2224 37.5001,-213.2223"/>
<text text-anchor="middle" x="54.5" y="-197" font-family="Helvetica,sans-Serif" font-size="10.00" fill="#000000"> keys</text>
</g>
<!-- Node6 -->
<g id="node5" class="node">
<title>Node6</title>
<g id="a_node5"><a xlink:title="STL class. ">
<polygon fill="#ffffff" stroke="#bfbfbf" points="117.5,-78.5 117.5,-97.5 182.5,-97.5 182.5,-78.5 117.5,-78.5"/>
<text text-anchor="middle" x="150" y="-85.5" font-family="Helvetica,sans-Serif" font-size="10.00" fill="#000000">std::string</text>
</a>
</g>
</g>
<!-- Node6&#45;&gt;Node2 -->
<g id="edge4" class="edge">
<title>Node6&#45;&gt;Node2</title>
<path fill="none" stroke="#9a32cd" stroke-dasharray="5,2" d="M136.9595,-69.8185C128.2981,-57.7425 117.0586,-42.072 108.8791,-30.668"/>
<polygon fill="#9a32cd" stroke="#9a32cd" points="134.3146,-72.1363 142.987,-78.2223 140.0028,-68.0564 134.3146,-72.1363"/>
<text text-anchor="middle" x="143" y="-52" font-family="Helvetica,sans-Serif" font-size="10.00" fill="#000000"> label</text>
</g>
<!-- Node7 -->
<g id="node6" class="node">
<title>Node7</title>
<g id="a_node6"><a xlink:title="STL class. ">
<polygon fill="#ffffff" stroke="#bfbfbf" points="100,-145.5 100,-175.5 204,-175.5 204,-145.5 100,-145.5"/>
<text text-anchor="start" x="108" y="-163.5" font-family="Helvetica,sans-Serif" font-size="10.00" fill="#000000">std::basic_string&lt;</text>
<text text-anchor="middle" x="152" y="-152.5" font-family="Helvetica,sans-Serif" font-size="10.00" fill="#000000"> char &gt;</text>
</a>
</g>
</g>
<!-- Node7&#45;&gt;Node6 -->
<g id="edge5" class="edge">
<title>Node7&#45;&gt;Node6</title>
<path fill="none" stroke="#191970" d="M151.305,-135.305C150.9496,-122.424 150.5375,-107.4836 150.273,-97.8957"/>
<polygon fill="#191970" stroke="#191970" points="147.8111,-135.5783 151.5856,-145.478 154.8084,-135.3852 147.8111,-135.5783"/>
</g>
</g>
</svg>
