<?xml version="1.0" encoding="UTF-8" standalone="no"?>
<!DOCTYPE svg PUBLIC "-//W3C//DTD SVG 1.1//EN"
 "http://www.w3.org/Graphics/SVG/1.1/DTD/svg11.dtd">
<!-- Generated by graphviz version 2.40.1 (20161225.0304)
 -->
<!-- Title: amr_wind::pde::ScalarTransport Pages: 1 -->
<svg width="370pt" height="218pt"
 viewBox="0.00 0.00 370.00 218.00" xmlns="http://www.w3.org/2000/svg" xmlns:xlink="http://www.w3.org/1999/xlink">
<g id="graph0" class="graph" transform="scale(1 1) rotate(0) translate(4 214)">
<title>amr_wind::pde::ScalarTransport</title>
<polygon fill="#ffffff" stroke="transparent" points="-4,4 -4,-214 366,-214 366,4 -4,4"/>
<!-- Node0 -->
<g id="node1" class="node">
<title>Node0</title>
<polygon fill="#bfbfbf" stroke="#000000" points="0,-95.5 0,-114.5 170,-114.5 170,-95.5 0,-95.5"/>
<text text-anchor="middle" x="85" y="-102.5" font-family="Helvetica,sans-Serif" font-size="10.00" fill="#000000">amr_wind::pde::ScalarTransport</text>
</g>
<!-- Node1 -->
<g id="node2" class="node">
<title>Node1</title>
<g id="a_node2"><a xlink:href="structamr__wind_1_1pde_1_1_density.html" target="_top" xlink:title="amr_wind::pde::Density">
<polygon fill="#ffffff" stroke="#000000" points="218,-190.5 218,-209.5 350,-209.5 350,-190.5 218,-190.5"/>
<text text-anchor="middle" x="284" y="-197.5" font-family="Helvetica,sans-Serif" font-size="10.00" fill="#000000">amr_wind::pde::Density</text>
</a>
</g>
</g>
<!-- Node0&#45;&gt;Node1 -->
<g id="edge1" class="edge">
<title>Node0&#45;&gt;Node1</title>
<path fill="none" stroke="#191970" d="M105.3627,-120.6879C128.5405,-137.8322 168.1112,-164.9862 206,-181 214.8583,-184.744 224.6078,-187.85 234.1247,-190.39"/>
<polygon fill="#191970" stroke="#191970" points="107.4188,-117.8549 97.3199,-114.6513 103.2168,-123.4535 107.4188,-117.8549"/>
</g>
<!-- Node2 -->
<g id="node3" class="node">
<title>Node2</title>
<g id="a_node3"><a xlink:href="structamr__wind_1_1pde_1_1_levelset.html" target="_top" xlink:title="Characteristics of Levelset transport equation system. ">
<polygon fill="#ffffff" stroke="#000000" points="216,-152.5 216,-171.5 352,-171.5 352,-152.5 216,-152.5"/>
<text text-anchor="middle" x="284" y="-159.5" font-family="Helvetica,sans-Serif" font-size="10.00" fill="#000000">amr_wind::pde::Levelset</text>
</a>
</g>
</g>
<!-- Node0&#45;&gt;Node2 -->
<g id="edge2" class="edge">
<title>Node0&#45;&gt;Node2</title>
<path fill="none" stroke="#191970" d="M123.3633,-117.753C147.0614,-125.455 178.1602,-135.2466 206,-143 217.8155,-146.2906 230.7246,-149.564 242.5793,-152.4433"/>
<polygon fill="#191970" stroke="#191970" points="124.2837,-114.3717 113.6911,-114.5922 122.1092,-121.0254 124.2837,-114.3717"/>
</g>
<!-- Node3 -->
<g id="node4" class="node">
<title>Node3</title>
<g id="a_node4"><a xlink:href="structamr__wind_1_1pde_1_1_s_d_r.html" target="_top" xlink:title="Characteristics of SDR transport equation. ">
<polygon fill="#ffffff" stroke="#000000" points="226.5,-114.5 226.5,-133.5 341.5,-133.5 341.5,-114.5 226.5,-114.5"/>
<text text-anchor="middle" x="284" y="-121.5" font-family="Helvetica,sans-Serif" font-size="10.00" fill="#000000">amr_wind::pde::SDR</text>
</a>
</g>
</g>
<!-- Node0&#45;&gt;Node3 -->
<g id="edge3" class="edge">
<title>Node0&#45;&gt;Node3</title>
<path fill="none" stroke="#191970" d="M180.4905,-114.1172C196.1125,-115.6087 211.8664,-117.1129 226.2086,-118.4822"/>
<polygon fill="#191970" stroke="#191970" points="180.5473,-110.6068 170.2599,-113.1404 179.882,-117.5751 180.5473,-110.6068"/>
</g>
<!-- Node4 -->
<g id="node5" class="node">
<title>Node4</title>
<g id="a_node5"><a xlink:href="structamr__wind_1_1pde_1_1_temperature.html" target="_top" xlink:title="Characteristics of temperature transport equation. ">
<polygon fill="#ffffff" stroke="#000000" points="206,-76.5 206,-95.5 362,-95.5 362,-76.5 206,-76.5"/>
<text text-anchor="middle" x="284" y="-83.5" font-family="Helvetica,sans-Serif" font-size="10.00" fill="#000000">amr_wind::pde::Temperature</text>
</a>
</g>
</g>
<!-- Node0&#45;&gt;Node4 -->
<g id="edge4" class="edge">
<title>Node0&#45;&gt;Node4</title>
<path fill="none" stroke="#191970" d="M180.2786,-95.903C188.8423,-95.0854 197.4479,-94.2638 205.8408,-93.4624"/>
<polygon fill="#191970" stroke="#191970" points="179.882,-92.4249 170.2599,-96.8596 180.5473,-99.3932 179.882,-92.4249"/>
</g>
<!-- Node5 -->
<g id="node6" class="node">
<title>Node5</title>
<g id="a_node6"><a xlink:href="structamr__wind_1_1pde_1_1_t_k_e.html" target="_top" xlink:title="Characteristics of TKE transport equation. ">
<polygon fill="#ffffff" stroke="#000000" points="227.5,-38.5 227.5,-57.5 340.5,-57.5 340.5,-38.5 227.5,-38.5"/>
<text text-anchor="middle" x="284" y="-45.5" font-family="Helvetica,sans-Serif" font-size="10.00" fill="#000000">amr_wind::pde::TKE</text>
</a>
</g>
</g>
<!-- Node0&#45;&gt;Node5 -->
<g id="edge5" class="edge">
<title>Node0&#45;&gt;Node5</title>
<path fill="none" stroke="#191970" d="M123.3633,-92.247C147.0614,-84.545 178.1602,-74.7534 206,-67 217.8155,-63.7094 230.7246,-60.436 242.5793,-57.5567"/>
<polygon fill="#191970" stroke="#191970" points="122.1092,-88.9746 113.6911,-95.4078 124.2837,-95.6283 122.1092,-88.9746"/>
</g>
<!-- Node6 -->
<g id="node7" class="node">
<title>Node6</title>
<g id="a_node7"><a xlink:href="structamr__wind_1_1pde_1_1_v_o_f.html" target="_top" xlink:title="amr_wind::pde::VOF">
<polygon fill="#ffffff" stroke="#000000" points="227,-.5 227,-19.5 341,-19.5 341,-.5 227,-.5"/>
<text text-anchor="middle" x="284" y="-7.5" font-family="Helvetica,sans-Serif" font-size="10.00" fill="#000000">amr_wind::pde::VOF</text>
</a>
</g>
</g>
<!-- Node0&#45;&gt;Node6 -->
<g id="edge6" class="edge">
<title>Node0&#45;&gt;Node6</title>
<path fill="none" stroke="#191970" d="M105.3627,-89.3121C128.5405,-72.1678 168.1112,-45.0138 206,-29 214.8583,-25.256 224.6078,-22.15 234.1247,-19.61"/>
<polygon fill="#191970" stroke="#191970" points="103.2168,-86.5465 97.3199,-95.3487 107.4188,-92.1451 103.2168,-86.5465"/>
</g>
</g>
</svg>
