<?xml version="1.0" encoding="UTF-8" standalone="no"?>
<!DOCTYPE svg PUBLIC "-//W3C//DTD SVG 1.1//EN"
 "http://www.w3.org/Graphics/SVG/1.1/DTD/svg11.dtd">
<!-- Generated by graphviz version 2.40.1 (20161225.0304)
 -->
<!-- Title: exw_fast::FastTurbine Pages: 1 -->
<!--zoomable 194 -->
<svg id="main" version="1.1" xmlns="http://www.w3.org/2000/svg" xmlns:xlink="http://www.w3.org/1999/xlink" xml:space="preserve" onload="init(evt)">
<style type="text/css"><![CDATA[
.edge:hover path { stroke: red; }
.edge:hover polygon { stroke: red; fill: red; }
]]></style>
<script type="text/javascript"><![CDATA[
var edges = document.getElementsByTagName('g');
if (edges && edges.length) {
  for (var i=0;i<edges.length;i++) {
    if (edges[i].id.substr(0,4)=='edge') {
      edges[i].setAttribute('class','edge');
    }
  }
}
]]></script>
        <defs>
                <circle id="rim" cx="0" cy="0" r="7"/>
                <circle id="rim2" cx="0" cy="0" r="3.5"/>
                <g id="zoomPlus">
                        <use xlink:href="#rim" fill="#404040">
                                <set attributeName="fill" to="#808080" begin="zoomplus.mouseover" end="zoomplus.mouseout"/>
                        </use>
                        <path d="M-4,0h8M0,-4v8" fill="none" stroke="white" stroke-width="1.5" pointer-events="none"/>
                </g>
                <g id="zoomMin">
                        <use xlink:href="#rim" fill="#404040">
                                <set attributeName="fill" to="#808080" begin="zoomminus.mouseover" end="zoomminus.mouseout"/>
                        </use>
                        <path d="M-4,0h8" fill="none" stroke="white" stroke-width="1.5" pointer-events="none"/>
                </g>
                <g id="dirArrow">
                        <path fill="none" stroke="white" stroke-width="1.5" d="M0,-3.0v7 M-2.5,-0.5L0,-3.0L2.5,-0.5"/>
                </g>
               <g id="resetDef">
                       <use xlink:href="#rim2" fill="#404040">
                               <set attributeName="fill" to="#808080" begin="reset.mouseover" end="reset.mouseout"/>
                       </use>
               </g>
        </defs>

<script type="text/javascript">
var viewWidth = 536;
var viewHeight = 194;
var sectionId = 'dynsection-0';
</script>
<script xlink:href="svgpan.js"/>
<svg id="graph" class="graph">
<g id="viewport">
<title>exw_fast::FastTurbine</title>
<polygon fill="#ffffff" stroke="transparent" points="-4,4 -4,-190 532,-190 532,4 -4,4"/>
<!-- Node1 -->
<g id="node1" class="node">
<title>Node1</title>
<polygon fill="#bfbfbf" stroke="#000000" points="406,-92.5 406,-111.5 528,-111.5 528,-92.5 406,-92.5"/>
<text text-anchor="middle" x="467" y="-99.5" font-family="Helvetica,sans-Serif" font-size="10.00" fill="#000000">exw_fast::FastTurbine</text>
</g>
<!-- Node2 -->
<g id="node2" class="node">
<title>Node2</title>
<g id="a_node2"><a xlink:href="structexw__fast_1_1_op_f_m___output_type.html" target="_top" xlink:title="exw_fast::OpFM_OutputType">
<polygon fill="#ffffff" stroke="#000000" points="141,-166.5 141,-185.5 296,-185.5 296,-166.5 141,-166.5"/>
<text text-anchor="middle" x="218.5" y="-173.5" font-family="Helvetica,sans-Serif" font-size="10.00" fill="#000000">exw_fast::OpFM_OutputType</text>
</a>
</g>
</g>
<!-- Node2&#45;&gt;Node1 -->
<g id="edge1" class="edge">
<title>Node2&#45;&gt;Node1</title>
<path fill="none" stroke="#9a32cd" stroke-dasharray="5,2" d="M290.7745,-164.5931C321.2352,-158.7775 356.7922,-150.648 388,-140 410.3264,-132.3823 434.5777,-120.0587 450.2383,-111.5203"/>
<polygon fill="#9a32cd" stroke="#9a32cd" points="289.844,-161.2061 280.6533,-166.4769 291.125,-168.0879 289.844,-161.2061"/>
<text text-anchor="middle" x="351" y="-162" font-family="Helvetica,sans-Serif" font-size="10.00" fill="#000000"> from_cfd</text>
</g>
<!-- Node3 -->
<g id="node3" class="node">
<title>Node3</title>
<g id="a_node3"><a xlink:href="structexw__fast_1_1_s_c___output_type.html" target="_top" xlink:title="exw_fast::SC_OutputType">
<polygon fill="#ffffff" stroke="#000000" points="148.5,-128.5 148.5,-147.5 288.5,-147.5 288.5,-128.5 148.5,-128.5"/>
<text text-anchor="middle" x="218.5" y="-135.5" font-family="Helvetica,sans-Serif" font-size="10.00" fill="#000000">exw_fast::SC_OutputType</text>
</a>
</g>
</g>
<!-- Node3&#45;&gt;Node1 -->
<g id="edge2" class="edge">
<title>Node3&#45;&gt;Node1</title>
<path fill="none" stroke="#9a32cd" stroke-dasharray="5,2" d="M298.9152,-128.337C327.1255,-124.7422 359.0038,-120.4486 388,-116 396.8114,-114.6481 406.1547,-113.0972 415.2131,-111.5312"/>
<polygon fill="#9a32cd" stroke="#9a32cd" points="298.1818,-124.9018 288.7,-129.6288 299.0601,-131.8465 298.1818,-124.9018"/>
<text text-anchor="middle" x="351" y="-128" font-family="Helvetica,sans-Serif" font-size="10.00" fill="#000000"> from_sc</text>
</g>
<!-- Node4 -->
<g id="node4" class="node">
<title>Node4</title>
<g id="a_node4"><a xlink:href="structexw__fast_1_1_op_f_m___input_type.html" target="_top" xlink:title="exw_fast::OpFM_InputType">
<polygon fill="#ffffff" stroke="#000000" points="145.5,-90.5 145.5,-109.5 291.5,-109.5 291.5,-90.5 145.5,-90.5"/>
<text text-anchor="middle" x="218.5" y="-97.5" font-family="Helvetica,sans-Serif" font-size="10.00" fill="#000000">exw_fast::OpFM_InputType</text>
</a>
</g>
</g>
<!-- Node4&#45;&gt;Node1 -->
<g id="edge3" class="edge">
<title>Node4&#45;&gt;Node1</title>
<path fill="none" stroke="#9a32cd" stroke-dasharray="5,2" d="M302.073,-100.6726C335.963,-100.9454 374.3911,-101.2547 405.6229,-101.506"/>
<polygon fill="#9a32cd" stroke="#9a32cd" points="301.742,-97.1699 291.7141,-100.5892 301.6856,-104.1697 301.742,-97.1699"/>
<text text-anchor="middle" x="351" y="-104" font-family="Helvetica,sans-Serif" font-size="10.00" fill="#000000"> to_cfd</text>
</g>
<!-- Node5 -->
<g id="node5" class="node">
<title>Node5</title>
<g id="a_node5"><a xlink:title="STL class. ">
<polygon fill="#ffffff" stroke="#bfbfbf" points="186,-38.5 186,-57.5 251,-57.5 251,-38.5 186,-38.5"/>
<text text-anchor="middle" x="218.5" y="-45.5" font-family="Helvetica,sans-Serif" font-size="10.00" fill="#000000">std::string</text>
</a>
</g>
</g>
<!-- Node5&#45;&gt;Node1 -->
<g id="edge4" class="edge">
<title>Node5&#45;&gt;Node1</title>
<path fill="none" stroke="#9a32cd" stroke-dasharray="5,2" d="M261.5892,-47.4615C296.3247,-48.0568 346.1107,-51.2525 388,-63 411.5638,-69.6083 436.5322,-83.1906 451.9449,-92.448"/>
<polygon fill="#9a32cd" stroke="#9a32cd" points="261.354,-43.9589 251.3178,-47.3536 261.2805,-50.9586 261.354,-43.9589"/>
<text text-anchor="middle" x="351" y="-88" font-family="Helvetica,sans-Serif" font-size="10.00" fill="#000000"> tlabel</text>
<text text-anchor="middle" x="351" y="-77" font-family="Helvetica,sans-Serif" font-size="10.00" fill="#000000">input_file</text>
<text text-anchor="middle" x="351" y="-66" font-family="Helvetica,sans-Serif" font-size="10.00" fill="#000000">checkpoint_file</text>
</g>
<!-- Node6 -->
<g id="node6" class="node">
<title>Node6</title>
<g id="a_node6"><a xlink:title="STL class. ">
<polygon fill="#ffffff" stroke="#bfbfbf" points="0,-33 0,-63 104,-63 104,-33 0,-33"/>
<text text-anchor="start" x="8" y="-51" font-family="Helvetica,sans-Serif" font-size="10.00" fill="#000000">std::basic_string&lt;</text>
<text text-anchor="middle" x="52" y="-40" font-family="Helvetica,sans-Serif" font-size="10.00" fill="#000000"> char &gt;</text>
</a>
</g>
</g>
<!-- Node6&#45;&gt;Node5 -->
<g id="edge5" class="edge">
<title>Node6&#45;&gt;Node5</title>
<path fill="none" stroke="#191970" d="M114.4453,-48C138.7144,-48 165.5039,-48 185.8222,-48"/>
<polygon fill="#191970" stroke="#191970" points="114.2248,-44.5001 104.2248,-48 114.2248,-51.5001 114.2248,-44.5001"/>
</g>
<!-- Node7 -->
<g id="node7" class="node">
<title>Node7</title>
<g id="a_node7"><a xlink:href="structexw__fast_1_1_s_c___input_type.html" target="_top" xlink:title="exw_fast::SC_InputType">
<polygon fill="#ffffff" stroke="#000000" points="152.5,-.5 152.5,-19.5 284.5,-19.5 284.5,-.5 152.5,-.5"/>
<text text-anchor="middle" x="218.5" y="-7.5" font-family="Helvetica,sans-Serif" font-size="10.00" fill="#000000">exw_fast::SC_InputType</text>
</a>
</g>
</g>
<!-- Node7&#45;&gt;Node1 -->
<g id="edge6" class="edge">
<title>Node7&#45;&gt;Node1</title>
<path fill="none" stroke="#9a32cd" stroke-dasharray="5,2" d="M294.9031,-12.2617C324.9777,-15.4246 359.1477,-21.9449 388,-35 418.1473,-48.641 445.7694,-77.2854 458.9221,-92.3188"/>
<polygon fill="#9a32cd" stroke="#9a32cd" points="295.1597,-8.7704 284.8745,-11.3132 294.5005,-15.7393 295.1597,-8.7704"/>
<text text-anchor="middle" x="351" y="-38" font-family="Helvetica,sans-Serif" font-size="10.00" fill="#000000"> to_sc</text>
</g>
</g>
</svg>
        <g id="navigator" transform="translate(0 0)" fill="#404254">
                <rect fill="#f2f5e9" fill-opacity="0.5" stroke="#606060" stroke-width=".5" x="0" y="0" width="60" height="60"/>
                <use id="zoomplus" xlink:href="#zoomPlus" x="17" y="9" onmousedown="handleZoom(evt,'in')"/>
                <use id="zoomminus" xlink:href="#zoomMin" x="42" y="9" onmousedown="handleZoom(evt,'out')"/>
                <use id="reset" xlink:href="#resetDef" x="30" y="36" onmousedown="handleReset()"/>
                <g id="arrowUp" xlink:href="#dirArrow" transform="translate(30 24)" onmousedown="handlePan(0,-1)">
                  <use xlink:href="#rim" fill="#404040">
                        <set attributeName="fill" to="#808080" begin="arrowUp.mouseover" end="arrowUp.mouseout"/>
                  </use>
                  <path fill="none" stroke="white" stroke-width="1.5" d="M0,-3.0v7 M-2.5,-0.5L0,-3.0L2.5,-0.5"/>
                </g>
                <g id="arrowRight" xlink:href="#dirArrow" transform="rotate(90) translate(36 -43)" onmousedown="handlePan(1,0)">
                  <use xlink:href="#rim" fill="#404040">
                        <set attributeName="fill" to="#808080" begin="arrowRight.mouseover" end="arrowRight.mouseout"/>
                  </use>
                  <path fill="none" stroke="white" stroke-width="1.5" d="M0,-3.0v7 M-2.5,-0.5L0,-3.0L2.5,-0.5"/>
                </g>
                <g id="arrowDown" xlink:href="#dirArrow" transform="rotate(180) translate(-30 -48)" onmousedown="handlePan(0,1)">
                  <use xlink:href="#rim" fill="#404040">
                        <set attributeName="fill" to="#808080" begin="arrowDown.mouseover" end="arrowDown.mouseout"/>
                  </use>
                  <path fill="none" stroke="white" stroke-width="1.5" d="M0,-3.0v7 M-2.5,-0.5L0,-3.0L2.5,-0.5"/>
                </g>
                <g id="arrowLeft" xlink:href="#dirArrow" transform="rotate(270) translate(-36 17)" onmousedown="handlePan(-1,0)">
                  <use xlink:href="#rim" fill="#404040">
                        <set attributeName="fill" to="#808080" begin="arrowLeft.mouseover" end="arrowLeft.mouseout"/>
                  </use>
                  <path fill="none" stroke="white" stroke-width="1.5" d="M0,-3.0v7 M-2.5,-0.5L0,-3.0L2.5,-0.5"/>
                </g>
        </g>
        <svg viewBox="0 0 15 15" width="100%" height="30px" preserveAspectRatio="xMaxYMin meet">
         <g id="arrow_out" transform="scale(0.3 0.3)">
          <a xlink:href="structexw__fast_1_1_fast_turbine__coll__graph_org.svg" target="_base">
           <rect id="button" ry="5" rx="5" y="6" x="6" height="38" width="38"
                fill="#f2f5e9" fill-opacity="0.5" stroke="#606060" stroke-width="1.0"/>
           <path id="arrow"
             d="M 11.500037,31.436501 C 11.940474,20.09759 22.043105,11.32322 32.158766,21.979434 L 37.068811,17.246167 C 37.068811,17.246167 37.088388,32 37.088388,32 L 22.160133,31.978069 C 22.160133,31.978069 26.997745,27.140456 26.997745,27.140456 C 18.528582,18.264221 13.291696,25.230495 11.500037,31.436501 z"
             style="fill:#404040;"/>
          </a>
         </g>
        </svg>
</svg>
