<?xml version="1.0" encoding="UTF-8" standalone="no"?>
<!DOCTYPE svg PUBLIC "-//W3C//DTD SVG 1.1//EN"
 "http://www.w3.org/Graphics/SVG/1.1/DTD/svg11.dtd">
<!-- Generated by graphviz version 2.40.1 (20161225.0304)
 -->
<!-- Title: amr_wind::SynthTurbDeviceData Pages: 1 -->
<svg width="184pt" height="240pt"
 viewBox="0.00 0.00 184.00 240.00" xmlns="http://www.w3.org/2000/svg" xmlns:xlink="http://www.w3.org/1999/xlink">
<g id="graph0" class="graph" transform="scale(1 1) rotate(0) translate(4 236)">
<title>amr_wind::SynthTurbDeviceData</title>
<polygon fill="#ffffff" stroke="transparent" points="-4,4 -4,-236 180,-236 180,4 -4,4"/>
<!-- Node1 -->
<g id="node1" class="node">
<title>Node1</title>
<polygon fill="#bfbfbf" stroke="#000000" points="0,-.5 0,-19.5 176,-19.5 176,-.5 0,-.5"/>
<text text-anchor="middle" x="88" y="-7.5" font-family="Helvetica,sans-Serif" font-size="10.00" fill="#000000">amr_wind::SynthTurbDeviceData</text>
</g>
<!-- Node2 -->
<g id="node2" class="node">
<title>Node2</title>
<g id="a_node2"><a xlink:href="structamr__wind_1_1vs_1_1_vector_t.html" target="_top" xlink:title="amr_wind::vs::VectorT\l\&lt; int \&gt;">
<polygon fill="#ffffff" stroke="#000000" points="25.5,-67.5 25.5,-97.5 150.5,-97.5 150.5,-67.5 25.5,-67.5"/>
<text text-anchor="start" x="33.5" y="-85.5" font-family="Helvetica,sans-Serif" font-size="10.00" fill="#000000">amr_wind::vs::VectorT</text>
<text text-anchor="middle" x="88" y="-74.5" font-family="Helvetica,sans-Serif" font-size="10.00" fill="#000000">&lt; int &gt;</text>
</a>
</g>
</g>
<!-- Node2&#45;&gt;Node1 -->
<g id="edge1" class="edge">
<title>Node2&#45;&gt;Node1</title>
<path fill="none" stroke="#9a32cd" stroke-dasharray="5,2" d="M88,-57.305C88,-44.424 88,-29.4836 88,-19.8957"/>
<polygon fill="#9a32cd" stroke="#9a32cd" points="84.5001,-57.4779 88,-67.478 91.5001,-57.478 84.5001,-57.4779"/>
<text text-anchor="middle" x="113.5" y="-41" font-family="Helvetica,sans-Serif" font-size="10.00" fill="#000000"> box_dims</text>
</g>
<!-- Node3 -->
<g id="node3" class="node">
<title>Node3</title>
<g id="a_node3"><a xlink:href="structamr__wind_1_1vs_1_1_vector_t.html" target="_top" xlink:title="Vector in 3D space. ">
<polygon fill="#ffffff" stroke="#000000" points="11.5,-145.5 11.5,-164.5 164.5,-164.5 164.5,-145.5 11.5,-145.5"/>
<text text-anchor="middle" x="88" y="-152.5" font-family="Helvetica,sans-Serif" font-size="10.00" fill="#000000">amr_wind::vs::VectorT&lt; T &gt;</text>
</a>
</g>
</g>
<!-- Node3&#45;&gt;Node2 -->
<g id="edge2" class="edge">
<title>Node3&#45;&gt;Node2</title>
<path fill="none" stroke="#ffa500" stroke-dasharray="5,2" d="M88,-135.0177C88,-123.2164 88,-108.513 88,-97.668"/>
<polygon fill="#ffa500" stroke="#ffa500" points="84.5001,-135.2223 88,-145.2223 91.5001,-135.2224 84.5001,-135.2223"/>
<text text-anchor="middle" x="107.5" y="-119" font-family="Helvetica,sans-Serif" font-size="10.00" fill="#000000"> &lt; int &gt;</text>
</g>
<!-- Node4 -->
<g id="node4" class="node">
<title>Node4</title>
<polygon fill="#ffffff" stroke="#bfbfbf" points="73.5,-212.5 73.5,-231.5 102.5,-231.5 102.5,-212.5 73.5,-212.5"/>
<text text-anchor="middle" x="88" y="-219.5" font-family="Helvetica,sans-Serif" font-size="10.00" fill="#000000">T</text>
</g>
<!-- Node4&#45;&gt;Node3 -->
<g id="edge3" class="edge">
<title>Node4&#45;&gt;Node3</title>
<path fill="none" stroke="#9a32cd" stroke-dasharray="5,2" d="M88,-202.1079C88,-189.714 88,-174.3263 88,-164.5817"/>
<polygon fill="#9a32cd" stroke="#9a32cd" points="84.5001,-202.4005 88,-212.4005 91.5001,-202.4006 84.5001,-202.4005"/>
<text text-anchor="middle" x="96" y="-186" font-family="Helvetica,sans-Serif" font-size="10.00" fill="#000000"> vv</text>
</g>
</g>
</svg>
