<?xml version="1.0" encoding="UTF-8" standalone="no"?>
<!DOCTYPE svg PUBLIC "-//W3C//DTD SVG 1.1//EN"
 "http://www.w3.org/Graphics/SVG/1.1/DTD/svg11.dtd">
<!-- Generated by graphviz version 2.40.1 (20161225.0304)
 -->
<!-- Title: amr_wind::pde::ComputeRHSOp&lt; VOF, Scheme &gt; Pages: 1 -->
<svg width="283pt" height="529pt"
 viewBox="0.00 0.00 282.50 529.00" xmlns="http://www.w3.org/2000/svg" xmlns:xlink="http://www.w3.org/1999/xlink">
<g id="graph0" class="graph" transform="scale(1 1) rotate(0) translate(4 525)">
<title>amr_wind::pde::ComputeRHSOp&lt; VOF, Scheme &gt;</title>
<polygon fill="#ffffff" stroke="transparent" points="-4,4 -4,-525 278.5,-525 278.5,4 -4,4"/>
<!-- Node1 -->
<g id="node1" class="node">
<title>Node1</title>
<polygon fill="#bfbfbf" stroke="#000000" points="67.5,-.5 67.5,-30.5 240.5,-30.5 240.5,-.5 67.5,-.5"/>
<text text-anchor="start" x="75.5" y="-18.5" font-family="Helvetica,sans-Serif" font-size="10.00" fill="#000000">amr_wind::pde::ComputeRHSOp</text>
<text text-anchor="middle" x="154" y="-7.5" font-family="Helvetica,sans-Serif" font-size="10.00" fill="#000000">&lt; VOF, Scheme &gt;</text>
</g>
<!-- Node2 -->
<g id="node2" class="node">
<title>Node2</title>
<g id="a_node2"><a xlink:href="structamr__wind_1_1pde_1_1_p_d_e_fields.html" target="_top" xlink:title="Collection of fields related to a PDEEvery PDE requires a common set of fields, e.g., the transported variable (scalar or vector), advection, diffusion, source, and effective viscosity fields. ">
<polygon fill="#ffffff" stroke="#000000" points="83,-78.5 83,-97.5 225,-97.5 225,-78.5 83,-78.5"/>
<text text-anchor="middle" x="154" y="-85.5" font-family="Helvetica,sans-Serif" font-size="10.00" fill="#000000">amr_wind::pde::PDEFields</text>
</a>
</g>
</g>
<!-- Node2&#45;&gt;Node1 -->
<g id="edge1" class="edge">
<title>Node2&#45;&gt;Node1</title>
<path fill="none" stroke="#9a32cd" stroke-dasharray="5,2" d="M154,-68.0177C154,-56.2164 154,-41.513 154,-30.668"/>
<polygon fill="#9a32cd" stroke="#9a32cd" points="150.5001,-68.2223 154,-78.2223 157.5001,-68.2224 150.5001,-68.2223"/>
<text text-anchor="middle" x="169" y="-52" font-family="Helvetica,sans-Serif" font-size="10.00" fill="#000000"> fields</text>
</g>
<!-- Node3 -->
<g id="node3" class="node">
<title>Node3</title>
<g id="a_node3"><a xlink:href="classamr__wind_1_1_field.html" target="_top" xlink:title="Computational fieldThis is an abstraction of a collection of MultiFabs over multiple levels...">
<polygon fill="#ffffff" stroke="#000000" points="181.5,-189.5 181.5,-208.5 274.5,-208.5 274.5,-189.5 181.5,-189.5"/>
<text text-anchor="middle" x="228" y="-196.5" font-family="Helvetica,sans-Serif" font-size="10.00" fill="#000000">amr_wind::Field</text>
</a>
</g>
</g>
<!-- Node3&#45;&gt;Node2 -->
<g id="edge2" class="edge">
<title>Node3&#45;&gt;Node2</title>
<path fill="none" stroke="#9a32cd" stroke-dasharray="5,2" d="M215.7675,-180.6513C199.8954,-156.8431 172.7794,-116.1692 160.4466,-97.6699"/>
<polygon fill="#9a32cd" stroke="#9a32cd" points="212.9738,-182.7704 221.433,-189.1495 218.7981,-178.8875 212.9738,-182.7704"/>
<text text-anchor="middle" x="234" y="-163" font-family="Helvetica,sans-Serif" font-size="10.00" fill="#000000"> src_term</text>
<text text-anchor="middle" x="234" y="-152" font-family="Helvetica,sans-Serif" font-size="10.00" fill="#000000">field</text>
<text text-anchor="middle" x="234" y="-141" font-family="Helvetica,sans-Serif" font-size="10.00" fill="#000000">diff_term</text>
<text text-anchor="middle" x="234" y="-130" font-family="Helvetica,sans-Serif" font-size="10.00" fill="#000000">mueff</text>
<text text-anchor="middle" x="234" y="-119" font-family="Helvetica,sans-Serif" font-size="10.00" fill="#000000">conv_term</text>
</g>
<!-- Node4 -->
<g id="node4" class="node">
<title>Node4</title>
<g id="a_node4"><a xlink:title="STL class. ">
<polygon fill="#ffffff" stroke="#bfbfbf" points="169.5,-418 169.5,-437 234.5,-437 234.5,-418 169.5,-418"/>
<text text-anchor="middle" x="202" y="-425" font-family="Helvetica,sans-Serif" font-size="10.00" fill="#000000">std::string</text>
</a>
</g>
</g>
<!-- Node4&#45;&gt;Node3 -->
<g id="edge3" class="edge">
<title>Node4&#45;&gt;Node3</title>
<path fill="none" stroke="#9a32cd" stroke-dasharray="5,2" d="M205.1093,-407.5846C205.7682,-403.1196 206.4347,-398.4017 207,-394 216.1077,-323.0776 224.4043,-237.2943 227.0918,-208.7558"/>
<polygon fill="#9a32cd" stroke="#9a32cd" points="201.5931,-407.4264 203.5488,-417.8392 208.5135,-408.4795 201.5931,-407.4264"/>
<text text-anchor="middle" x="241" y="-302.5" font-family="Helvetica,sans-Serif" font-size="10.00" fill="#000000"> m_name</text>
</g>
<!-- Node7 -->
<g id="node7" class="node">
<title>Node7</title>
<polygon fill="#ffffff" stroke="#bfbfbf" points="74,-334.5 74,-364.5 196,-364.5 196,-334.5 74,-334.5"/>
<text text-anchor="start" x="82" y="-352.5" font-family="Helvetica,sans-Serif" font-size="10.00" fill="#000000">std::unordered_map</text>
<text text-anchor="middle" x="135" y="-341.5" font-family="Helvetica,sans-Serif" font-size="10.00" fill="#000000">&lt; std::string, size_t &gt;</text>
</g>
<!-- Node4&#45;&gt;Node7 -->
<g id="edge7" class="edge">
<title>Node4&#45;&gt;Node7</title>
<path fill="none" stroke="#9a32cd" stroke-dasharray="5,2" d="M188.5108,-409.5488C182.1619,-401.3112 174.3781,-391.5064 167,-383 161.6246,-376.8025 155.4527,-370.2255 149.9723,-364.5552"/>
<polygon fill="#9a32cd" stroke="#9a32cd" points="185.9049,-411.9038 194.7496,-417.7367 191.4728,-407.6613 185.9049,-411.9038"/>
<text text-anchor="middle" x="189.5" y="-386" font-family="Helvetica,sans-Serif" font-size="10.00" fill="#000000"> keys</text>
</g>
<!-- Node5 -->
<g id="node5" class="node">
<title>Node5</title>
<g id="a_node5"><a xlink:title="STL class. ">
<polygon fill="#ffffff" stroke="#bfbfbf" points="150,-490.5 150,-520.5 254,-520.5 254,-490.5 150,-490.5"/>
<text text-anchor="start" x="158" y="-508.5" font-family="Helvetica,sans-Serif" font-size="10.00" fill="#000000">std::basic_string&lt;</text>
<text text-anchor="middle" x="202" y="-497.5" font-family="Helvetica,sans-Serif" font-size="10.00" fill="#000000"> char &gt;</text>
</a>
</g>
</g>
<!-- Node5&#45;&gt;Node4 -->
<g id="edge4" class="edge">
<title>Node5&#45;&gt;Node4</title>
<path fill="none" stroke="#191970" d="M202,-480.3962C202,-465.6331 202,-447.8138 202,-437.0839"/>
<polygon fill="#191970" stroke="#191970" points="198.5001,-480.4608 202,-490.4608 205.5001,-480.4609 198.5001,-480.4608"/>
</g>
<!-- Node6 -->
<g id="node6" class="node">
<title>Node6</title>
<g id="a_node6"><a xlink:href="classamr__wind_1_1_field_repo.html" target="_top" xlink:title="Field RepositoryFieldRepo is a database that manages handling of fields used during a simulation...">
<polygon fill="#ffffff" stroke="#000000" points="79.5,-256.5 79.5,-275.5 196.5,-275.5 196.5,-256.5 79.5,-256.5"/>
<text text-anchor="middle" x="138" y="-263.5" font-family="Helvetica,sans-Serif" font-size="10.00" fill="#000000">amr_wind::FieldRepo</text>
</a>
</g>
</g>
<!-- Node6&#45;&gt;Node2 -->
<g id="edge11" class="edge">
<title>Node6&#45;&gt;Node2</title>
<path fill="none" stroke="#9a32cd" stroke-dasharray="5,2" d="M139.7883,-246.1053C143.2199,-207.9283 150.6124,-125.6875 153.1355,-97.6174"/>
<polygon fill="#9a32cd" stroke="#9a32cd" points="136.2696,-246.1567 138.8602,-256.4299 143.2415,-246.7835 136.2696,-246.1567"/>
<text text-anchor="middle" x="157.5" y="-196.5" font-family="Helvetica,sans-Serif" font-size="10.00" fill="#000000"> repo</text>
</g>
<!-- Node6&#45;&gt;Node3 -->
<g id="edge5" class="edge">
<title>Node6&#45;&gt;Node3</title>
<path fill="none" stroke="#9a32cd" stroke-dasharray="5,2" d="M153.5053,-248.4357C160.3042,-241.3012 168.6326,-233.2787 177,-227 186.3719,-219.9675 197.7219,-213.5592 207.3332,-208.6533"/>
<polygon fill="#9a32cd" stroke="#9a32cd" points="150.5138,-246.5175 146.316,-256.2453 155.6639,-251.2585 150.5138,-246.5175"/>
<text text-anchor="middle" x="197" y="-230" font-family="Helvetica,sans-Serif" font-size="10.00" fill="#000000"> m_repo</text>
</g>
<!-- Node7&#45;&gt;Node6 -->
<g id="edge6" class="edge">
<title>Node7&#45;&gt;Node6</title>
<path fill="none" stroke="#9a32cd" stroke-dasharray="5,2" d="M135.169,-324.3971C135.3076,-314.8738 135.5561,-303.9327 136,-294 136.2742,-287.8655 136.7629,-280.9867 137.1887,-275.5823"/>
<polygon fill="#9a32cd" stroke="#9a32cd" points="131.6691,-324.3782 135.0548,-334.4175 138.6687,-324.4581 131.6691,-324.3782"/>
<text text-anchor="middle" x="172.5" y="-308" font-family="Helvetica,sans-Serif" font-size="10.00" fill="#000000"> m_fid_map</text>
<text text-anchor="middle" x="172.5" y="-297" font-family="Helvetica,sans-Serif" font-size="10.00" fill="#000000">m_int_fid_map</text>
</g>
<!-- Node8 -->
<g id="node8" class="node">
<title>Node8</title>
<g id="a_node8"><a xlink:title="STL class. ">
<polygon fill="#ffffff" stroke="#bfbfbf" points="0,-412.5 0,-442.5 114,-442.5 114,-412.5 0,-412.5"/>
<text text-anchor="start" x="8" y="-430.5" font-family="Helvetica,sans-Serif" font-size="10.00" fill="#000000">std::unordered_map</text>
<text text-anchor="middle" x="57" y="-419.5" font-family="Helvetica,sans-Serif" font-size="10.00" fill="#000000">&lt; K, T &gt;</text>
</a>
</g>
</g>
<!-- Node8&#45;&gt;Node7 -->
<g id="edge8" class="edge">
<title>Node8&#45;&gt;Node7</title>
<path fill="none" stroke="#ffa500" stroke-dasharray="5,2" d="M49.9023,-402.1603C49.4104,-395.4738 50.272,-388.5761 54,-383 59.2439,-375.1565 66.6989,-369.1473 74.9863,-364.5439"/>
<polygon fill="#ffa500" stroke="#ffa500" points="46.4896,-402.9769 51.5718,-412.2733 53.3962,-401.8367 46.4896,-402.9769"/>
<text text-anchor="middle" x="108.5" y="-386" font-family="Helvetica,sans-Serif" font-size="10.00" fill="#000000"> &lt; std::string, size_t &gt;</text>
</g>
<!-- Node9 -->
<g id="node9" class="node">
<title>Node9</title>
<polygon fill="#ffffff" stroke="#bfbfbf" points="29.5,-496 29.5,-515 58.5,-515 58.5,-496 29.5,-496"/>
<text text-anchor="middle" x="44" y="-503" font-family="Helvetica,sans-Serif" font-size="10.00" fill="#000000">K</text>
</g>
<!-- Node9&#45;&gt;Node8 -->
<g id="edge9" class="edge">
<title>Node9&#45;&gt;Node8</title>
<path fill="none" stroke="#9a32cd" stroke-dasharray="5,2" d="M43.0903,-485.6032C43.0893,-477.8661 43.5243,-468.964 45,-461 46.1481,-454.8041 48.2863,-448.2273 50.4434,-442.5568"/>
<polygon fill="#9a32cd" stroke="#9a32cd" points="39.5973,-485.946 43.3331,-495.8604 46.5954,-485.7803 39.5973,-485.946"/>
<text text-anchor="middle" x="58.5" y="-464" font-family="Helvetica,sans-Serif" font-size="10.00" fill="#000000"> keys</text>
</g>
<!-- Node10 -->
<g id="node10" class="node">
<title>Node10</title>
<polygon fill="#ffffff" stroke="#bfbfbf" points="79.5,-496 79.5,-515 108.5,-515 108.5,-496 79.5,-496"/>
<text text-anchor="middle" x="94" y="-503" font-family="Helvetica,sans-Serif" font-size="10.00" fill="#000000">T</text>
</g>
<!-- Node10&#45;&gt;Node8 -->
<g id="edge10" class="edge">
<title>Node10&#45;&gt;Node8</title>
<path fill="none" stroke="#9a32cd" stroke-dasharray="5,2" d="M85.0685,-486.6714C78.6878,-473.2202 70.2117,-455.3517 64.2493,-442.7824"/>
<polygon fill="#9a32cd" stroke="#9a32cd" points="82.0149,-488.4007 89.4631,-495.9357 88.3394,-485.4006 82.0149,-488.4007"/>
<text text-anchor="middle" x="102.5" y="-464" font-family="Helvetica,sans-Serif" font-size="10.00" fill="#000000"> elements</text>
</g>
</g>
</svg>
