<?xml version="1.0" encoding="UTF-8" standalone="no"?>
<!DOCTYPE svg PUBLIC "-//W3C//DTD SVG 1.1//EN"
 "http://www.w3.org/Graphics/SVG/1.1/DTD/svg11.dtd">
<!-- Generated by graphviz version 2.40.1 (20161225.0304)
 -->
<!-- Title: amr_wind::pde::DiffusionOp&lt; PDE, Scheme, typename &gt; Pages: 1 -->
<svg width="186pt" height="117pt"
 viewBox="0.00 0.00 185.50 117.00" xmlns="http://www.w3.org/2000/svg" xmlns:xlink="http://www.w3.org/1999/xlink">
<g id="graph0" class="graph" transform="scale(1 1) rotate(0) translate(4 113)">
<title>amr_wind::pde::DiffusionOp&lt; PDE, Scheme, typename &gt;</title>
<polygon fill="#ffffff" stroke="transparent" points="-4,4 -4,-113 181.5,-113 181.5,4 -4,4"/>
<!-- Node0 -->
<g id="node1" class="node">
<title>Node0</title>
<polygon fill="#bfbfbf" stroke="#000000" points="0,-78.5 0,-108.5 173,-108.5 173,-78.5 0,-78.5"/>
<text text-anchor="start" x="8" y="-96.5" font-family="Helvetica,sans-Serif" font-size="10.00" fill="#000000">amr_wind::pde::Diffusion</text>
<text text-anchor="middle" x="86.5" y="-85.5" font-family="Helvetica,sans-Serif" font-size="10.00" fill="#000000">Op&lt; PDE, Scheme, typename &gt;</text>
</g>
<!-- Node1 -->
<g id="node2" class="node">
<title>Node1</title>
<g id="a_node2"><a xlink:href="structamr__wind_1_1pde_1_1_diffusion_op.html" target="_top" xlink:title="amr_wind::pde::Diffusion\lOp\&lt; PDE, Scheme \&gt;">
<polygon fill="#ffffff" stroke="#000000" points="17.5,-.5 17.5,-30.5 155.5,-30.5 155.5,-.5 17.5,-.5"/>
<text text-anchor="start" x="25.5" y="-18.5" font-family="Helvetica,sans-Serif" font-size="10.00" fill="#000000">amr_wind::pde::Diffusion</text>
<text text-anchor="middle" x="86.5" y="-7.5" font-family="Helvetica,sans-Serif" font-size="10.00" fill="#000000">Op&lt; PDE, Scheme &gt;</text>
</a>
</g>
</g>
<!-- Node0&#45;&gt;Node1 -->
<g id="edge1" class="edge">
<title>Node0&#45;&gt;Node1</title>
<path fill="none" stroke="#ffa500" stroke-dasharray="5,2" d="M86.5,-68.2875C86.5,-55.9187 86.5,-41.4264 86.5,-30.7592"/>
<polygon fill="#ffa500" stroke="#ffa500" points="83.0001,-68.4608 86.5,-78.4608 90.0001,-68.4608 83.0001,-68.4608"/>
<text text-anchor="middle" x="132" y="-52" font-family="Helvetica,sans-Serif" font-size="10.00" fill="#000000"> &lt; PDE, Scheme &gt;</text>
</g>
</g>
</svg>
