<?xml version="1.0" encoding="UTF-8" standalone="no"?>
<!DOCTYPE svg PUBLIC "-//W3C//DTD SVG 1.1//EN"
 "http://www.w3.org/Graphics/SVG/1.1/DTD/svg11.dtd">
<!-- Generated by graphviz version 2.40.1 (20161225.0304)
 -->
<!-- Title: amr_wind::actuator::TurbineBaseData Pages: 1 -->
<!--zoomable 212 -->
<svg id="main" version="1.1" xmlns="http://www.w3.org/2000/svg" xmlns:xlink="http://www.w3.org/1999/xlink" xml:space="preserve" onload="init(evt)">
<style type="text/css"><![CDATA[
.edge:hover path { stroke: red; }
.edge:hover polygon { stroke: red; fill: red; }
]]></style>
<script type="text/javascript"><![CDATA[
var edges = document.getElementsByTagName('g');
if (edges && edges.length) {
  for (var i=0;i<edges.length;i++) {
    if (edges[i].id.substr(0,4)=='edge') {
      edges[i].setAttribute('class','edge');
    }
  }
}
]]></script>
        <defs>
                <circle id="rim" cx="0" cy="0" r="7"/>
                <circle id="rim2" cx="0" cy="0" r="3.5"/>
                <g id="zoomPlus">
                        <use xlink:href="#rim" fill="#404040">
                                <set attributeName="fill" to="#808080" begin="zoomplus.mouseover" end="zoomplus.mouseout"/>
                        </use>
                        <path d="M-4,0h8M0,-4v8" fill="none" stroke="white" stroke-width="1.5" pointer-events="none"/>
                </g>
                <g id="zoomMin">
                        <use xlink:href="#rim" fill="#404040">
                                <set attributeName="fill" to="#808080" begin="zoomminus.mouseover" end="zoomminus.mouseout"/>
                        </use>
                        <path d="M-4,0h8" fill="none" stroke="white" stroke-width="1.5" pointer-events="none"/>
                </g>
                <g id="dirArrow">
                        <path fill="none" stroke="white" stroke-width="1.5" d="M0,-3.0v7 M-2.5,-0.5L0,-3.0L2.5,-0.5"/>
                </g>
               <g id="resetDef">
                       <use xlink:href="#rim2" fill="#404040">
                               <set attributeName="fill" to="#808080" begin="reset.mouseover" end="reset.mouseout"/>
                       </use>
               </g>
        </defs>

<script type="text/javascript">
var viewWidth = 1268;
var viewHeight = 212;
var sectionId = 'dynsection-1';
</script>
<script xlink:href="svgpan.js"/>
<svg id="graph" class="graph">
<g id="viewport">
<title>amr_wind::actuator::TurbineBaseData</title>
<polygon fill="#ffffff" stroke="transparent" points="-4,4 -4,-208 1264,-208 1264,4 -4,4"/>
<!-- Node2 -->
<g id="node1" class="node">
<title>Node2</title>
<polygon fill="#bfbfbf" stroke="#000000" points="1149,-37 1149,-67 1260,-67 1260,-37 1149,-37"/>
<text text-anchor="start" x="1157" y="-55" font-family="Helvetica,sans-Serif" font-size="10.00" fill="#000000">amr_wind::actuator</text>
<text text-anchor="middle" x="1204.5" y="-44" font-family="Helvetica,sans-Serif" font-size="10.00" fill="#000000">::TurbineBaseData</text>
</g>
<!-- Node3 -->
<g id="node2" class="node">
<title>Node3</title>
<polygon fill="#ffffff" stroke="#bfbfbf" points="916,-11 916,-41 1077,-41 1077,-11 916,-11"/>
<text text-anchor="start" x="924" y="-29" font-family="Helvetica,sans-Serif" font-size="10.00" fill="#000000">std::vector&lt; amr_wind</text>
<text text-anchor="middle" x="996.5" y="-18" font-family="Helvetica,sans-Serif" font-size="10.00" fill="#000000">::actuator::ComponentView &gt;</text>
</g>
<!-- Node3&#45;&gt;Node2 -->
<g id="edge1" class="edge">
<title>Node3&#45;&gt;Node2</title>
<path fill="none" stroke="#9a32cd" stroke-dasharray="5,2" d="M1087.4209,-37.3651C1108.3573,-39.9822 1130.0123,-42.689 1148.9189,-45.0524"/>
<polygon fill="#9a32cd" stroke="#9a32cd" points="1087.5729,-33.857 1077.2159,-36.0895 1086.7046,-40.8029 1087.5729,-33.857"/>
<text text-anchor="middle" x="1113" y="-46" font-family="Helvetica,sans-Serif" font-size="10.00" fill="#000000"> blades</text>
</g>
<!-- Node4 -->
<g id="node3" class="node">
<title>Node4</title>
<g id="a_node3"><a xlink:href="structamr__wind_1_1actuator_1_1_component_view.html" target="_top" xlink:title="amr_wind::actuator\l::ComponentView">
<polygon fill="#ffffff" stroke="#000000" points="720,-63 720,-93 831,-93 831,-63 720,-63"/>
<text text-anchor="start" x="728" y="-81" font-family="Helvetica,sans-Serif" font-size="10.00" fill="#000000">amr_wind::actuator</text>
<text text-anchor="middle" x="775.5" y="-70" font-family="Helvetica,sans-Serif" font-size="10.00" fill="#000000">::ComponentView</text>
</a>
</g>
</g>
<!-- Node4&#45;&gt;Node2 -->
<g id="edge16" class="edge">
<title>Node4&#45;&gt;Node2</title>
<path fill="none" stroke="#9a32cd" stroke-dasharray="5,2" d="M841.4457,-74.789C912.8399,-71.1962 1030.0467,-64.9592 1131,-58 1136.7476,-57.6038 1142.7457,-57.1615 1148.7286,-56.7015"/>
<polygon fill="#9a32cd" stroke="#9a32cd" points="841.0642,-71.3037 831.2519,-75.2997 841.4145,-78.2949 841.0642,-71.3037"/>
<text text-anchor="middle" x="996.5" y="-74" font-family="Helvetica,sans-Serif" font-size="10.00" fill="#000000"> tower</text>
</g>
<!-- Node4&#45;&gt;Node3 -->
<g id="edge2" class="edge">
<title>Node4&#45;&gt;Node3</title>
<path fill="none" stroke="#9a32cd" stroke-dasharray="5,2" d="M825.9507,-59.7558C833.6177,-57.2992 841.4791,-54.9561 849,-53 870.4157,-47.43 893.8711,-42.5822 915.6508,-38.5911"/>
<polygon fill="#9a32cd" stroke="#9a32cd" points="824.7861,-56.4543 816.3833,-62.9075 826.9763,-63.1029 824.7861,-56.4543"/>
<text text-anchor="middle" x="873.5" y="-56" font-family="Helvetica,sans-Serif" font-size="10.00" fill="#000000"> elements</text>
</g>
<!-- Node5 -->
<g id="node4" class="node">
<title>Node5</title>
<g id="a_node4"><a xlink:href="structamr__wind_1_1utils_1_1_slice.html" target="_top" xlink:title="amr_wind::utils::Slice\l\&lt; amrex::Real \&gt;">
<polygon fill="#ffffff" stroke="#000000" points="443.5,-99 443.5,-129 564.5,-129 564.5,-99 443.5,-99"/>
<text text-anchor="start" x="451.5" y="-117" font-family="Helvetica,sans-Serif" font-size="10.00" fill="#000000">amr_wind::utils::Slice</text>
<text text-anchor="middle" x="504" y="-106" font-family="Helvetica,sans-Serif" font-size="10.00" fill="#000000">&lt; amrex::Real &gt;</text>
</a>
</g>
</g>
<!-- Node5&#45;&gt;Node4 -->
<g id="edge3" class="edge">
<title>Node5&#45;&gt;Node4</title>
<path fill="none" stroke="#9a32cd" stroke-dasharray="5,2" d="M575.1301,-106.0965C612.8748,-101.7213 660.0101,-95.97 702,-90 707.7603,-89.181 713.7666,-88.2792 719.7543,-87.3489"/>
<polygon fill="#9a32cd" stroke="#9a32cd" points="574.2788,-102.6714 564.7452,-107.2931 575.0801,-109.6254 574.2788,-102.6714"/>
<text text-anchor="middle" x="647.5" y="-107" font-family="Helvetica,sans-Serif" font-size="10.00" fill="#000000"> chord</text>
</g>
<!-- Node6 -->
<g id="node5" class="node">
<title>Node6</title>
<g id="a_node5"><a xlink:href="structamr__wind_1_1utils_1_1_slice.html" target="_top" xlink:title="amr_wind::utils::Slice\&lt; T \&gt;">
<polygon fill="#ffffff" stroke="#000000" points="116.5,-95.5 116.5,-114.5 265.5,-114.5 265.5,-95.5 116.5,-95.5"/>
<text text-anchor="middle" x="191" y="-102.5" font-family="Helvetica,sans-Serif" font-size="10.00" fill="#000000">amr_wind::utils::Slice&lt; T &gt;</text>
</a>
</g>
</g>
<!-- Node6&#45;&gt;Node5 -->
<g id="edge4" class="edge">
<title>Node6&#45;&gt;Node5</title>
<path fill="none" stroke="#ffa500" stroke-dasharray="5,2" d="M275.6361,-107.4336C328.6309,-108.9574 395.6692,-110.8851 443.3733,-112.2567"/>
<polygon fill="#ffa500" stroke="#ffa500" points="275.6701,-103.9333 265.5736,-107.1443 275.4689,-110.9304 275.6701,-103.9333"/>
<text text-anchor="middle" x="350.5" y="-115" font-family="Helvetica,sans-Serif" font-size="10.00" fill="#000000"> &lt; amrex::Real &gt;</text>
</g>
<!-- Node8 -->
<g id="node7" class="node">
<title>Node8</title>
<g id="a_node7"><a xlink:href="structamr__wind_1_1utils_1_1_slice.html" target="_top" xlink:title="amr_wind::utils::Slice\l\&lt; amr_wind::vs::Tensor \&gt;">
<polygon fill="#ffffff" stroke="#000000" points="433,-50 433,-80 575,-80 575,-50 433,-50"/>
<text text-anchor="start" x="441" y="-68" font-family="Helvetica,sans-Serif" font-size="10.00" fill="#000000">amr_wind::utils::Slice</text>
<text text-anchor="middle" x="504" y="-57" font-family="Helvetica,sans-Serif" font-size="10.00" fill="#000000">&lt; amr_wind::vs::Tensor &gt;</text>
</a>
</g>
</g>
<!-- Node6&#45;&gt;Node8 -->
<g id="edge9" class="edge">
<title>Node6&#45;&gt;Node8</title>
<path fill="none" stroke="#ffa500" stroke-dasharray="5,2" d="M275.5712,-94.1922C324.8226,-87.8981 386.2205,-80.0517 432.9552,-74.0792"/>
<polygon fill="#ffa500" stroke="#ffa500" points="275.0493,-90.7303 265.5736,-95.4698 275.9367,-97.6739 275.0493,-90.7303"/>
<text text-anchor="middle" x="350.5" y="-96" font-family="Helvetica,sans-Serif" font-size="10.00" fill="#000000"> &lt; amr_wind::vs::Tensor &gt;</text>
</g>
<!-- Node10 -->
<g id="node9" class="node">
<title>Node10</title>
<g id="a_node9"><a xlink:href="structamr__wind_1_1utils_1_1_slice.html" target="_top" xlink:title="amr_wind::utils::Slice\l\&lt; amr_wind::vs::Vector \&gt;">
<polygon fill="#ffffff" stroke="#000000" points="433.5,-148 433.5,-178 574.5,-178 574.5,-148 433.5,-148"/>
<text text-anchor="start" x="441.5" y="-166" font-family="Helvetica,sans-Serif" font-size="10.00" fill="#000000">amr_wind::utils::Slice</text>
<text text-anchor="middle" x="504" y="-155" font-family="Helvetica,sans-Serif" font-size="10.00" fill="#000000">&lt; amr_wind::vs::Vector &gt;</text>
</a>
</g>
</g>
<!-- Node6&#45;&gt;Node10 -->
<g id="edge13" class="edge">
<title>Node6&#45;&gt;Node10</title>
<path fill="none" stroke="#ffa500" stroke-dasharray="5,2" d="M239.6885,-116.9049C254.5156,-120.3601 270.8879,-124.0056 286,-127 334.9167,-136.6927 390.3688,-145.8247 433.1045,-152.466"/>
<polygon fill="#ffa500" stroke="#ffa500" points="240.241,-113.4393 229.7049,-114.5535 238.6362,-120.2529 240.241,-113.4393"/>
<text text-anchor="middle" x="350.5" y="-152" font-family="Helvetica,sans-Serif" font-size="10.00" fill="#000000"> &lt; amr_wind::vs::Vector &gt;</text>
</g>
<!-- Node7 -->
<g id="node6" class="node">
<title>Node7</title>
<polygon fill="#ffffff" stroke="#bfbfbf" points="0,-63.5 0,-82.5 29,-82.5 29,-63.5 0,-63.5"/>
<text text-anchor="middle" x="14.5" y="-70.5" font-family="Helvetica,sans-Serif" font-size="10.00" fill="#000000">T</text>
</g>
<!-- Node7&#45;&gt;Node6 -->
<g id="edge5" class="edge">
<title>Node7&#45;&gt;Node6</title>
<path fill="none" stroke="#9a32cd" stroke-dasharray="5,2" d="M39.227,-77.4831C64.8472,-82.1281 105.6628,-89.5281 138.5174,-95.4847"/>
<polygon fill="#9a32cd" stroke="#9a32cd" points="39.7087,-74.0134 29.2447,-75.6733 38.4599,-80.9011 39.7087,-74.0134"/>
<text text-anchor="middle" x="71.5" y="-102" font-family="Helvetica,sans-Serif" font-size="10.00" fill="#000000"> ptr_begin</text>
<text text-anchor="middle" x="71.5" y="-91" font-family="Helvetica,sans-Serif" font-size="10.00" fill="#000000">ptr_end</text>
</g>
<!-- Node9 -->
<g id="node8" class="node">
<title>Node9</title>
<g id="a_node8"><a xlink:href="structamr__wind_1_1vs_1_1_tensor_t.html" target="_top" xlink:title="Tensor in 3D vector space. ">
<polygon fill="#ffffff" stroke="#000000" points="114,-39.5 114,-58.5 268,-58.5 268,-39.5 114,-39.5"/>
<text text-anchor="middle" x="191" y="-46.5" font-family="Helvetica,sans-Serif" font-size="10.00" fill="#000000">amr_wind::vs::TensorT&lt; T &gt;</text>
</a>
</g>
</g>
<!-- Node7&#45;&gt;Node9 -->
<g id="edge8" class="edge">
<title>Node7&#45;&gt;Node9</title>
<path fill="none" stroke="#9a32cd" stroke-dasharray="5,2" d="M38.6931,-62.3992C41.4569,-61.4659 44.2642,-60.6359 47,-60 68.3691,-55.0332 91.9532,-52.1766 113.7418,-50.5679"/>
<polygon fill="#9a32cd" stroke="#9a32cd" points="37.1722,-59.2334 29.0785,-66.0703 39.6691,-65.7729 37.1722,-59.2334"/>
<text text-anchor="middle" x="71.5" y="-63" font-family="Helvetica,sans-Serif" font-size="10.00" fill="#000000"> vv</text>
</g>
<!-- Node11 -->
<g id="node10" class="node">
<title>Node11</title>
<g id="a_node10"><a xlink:href="structamr__wind_1_1vs_1_1_vector_t.html" target="_top" xlink:title="Vector in 3D space. ">
<polygon fill="#ffffff" stroke="#000000" points="114.5,-173.5 114.5,-192.5 267.5,-192.5 267.5,-173.5 114.5,-173.5"/>
<text text-anchor="middle" x="191" y="-180.5" font-family="Helvetica,sans-Serif" font-size="10.00" fill="#000000">amr_wind::vs::VectorT&lt; T &gt;</text>
</a>
</g>
</g>
<!-- Node7&#45;&gt;Node11 -->
<g id="edge12" class="edge">
<title>Node7&#45;&gt;Node11</title>
<path fill="none" stroke="#9a32cd" stroke-dasharray="5,2" d="M26.2155,-91.2735C31.8188,-98.993 39.0406,-107.6462 47,-114 82.3145,-142.1907 131.0374,-162.4556 161.777,-173.459"/>
<polygon fill="#9a32cd" stroke="#9a32cd" points="28.9729,-89.1057 20.4338,-82.8341 23.1981,-93.0619 28.9729,-89.1057"/>
<text text-anchor="middle" x="71.5" y="-148" font-family="Helvetica,sans-Serif" font-size="10.00" fill="#000000"> vv</text>
</g>
<!-- Node12 -->
<g id="node11" class="node">
<title>Node12</title>
<g id="a_node11"><a xlink:title="STL class. ">
<polygon fill="#ffffff" stroke="#bfbfbf" points="302,-.5 302,-19.5 399,-19.5 399,-.5 302,-.5"/>
<text text-anchor="middle" x="350.5" y="-7.5" font-family="Helvetica,sans-Serif" font-size="10.00" fill="#000000">std::vector&lt; T &gt;</text>
</a>
</g>
</g>
<!-- Node7&#45;&gt;Node12 -->
<g id="edge15" class="edge">
<title>Node7&#45;&gt;Node12</title>
<path fill="none" stroke="#9a32cd" stroke-dasharray="5,2" d="M27.0603,-54.8631C32.4434,-48.4827 39.2768,-41.9292 47,-38 128.8261,3.6297 239.1443,1.6927 301.7497,-3.8792"/>
<polygon fill="#9a32cd" stroke="#9a32cd" points="23.9796,-53.1288 20.6712,-63.1939 29.5342,-57.3888 23.9796,-53.1288"/>
<text text-anchor="middle" x="71.5" y="-41" font-family="Helvetica,sans-Serif" font-size="10.00" fill="#000000"> elements</text>
</g>
<!-- Node8&#45;&gt;Node4 -->
<g id="edge6" class="edge">
<title>Node8&#45;&gt;Node4</title>
<path fill="none" stroke="#9a32cd" stroke-dasharray="5,2" d="M585.5657,-68.9055C628.8634,-70.9787 680.9592,-73.4732 719.6307,-75.3249"/>
<polygon fill="#9a32cd" stroke="#9a32cd" points="585.4894,-65.398 575.3334,-68.4156 585.1546,-72.39 585.4894,-65.398"/>
<text text-anchor="middle" x="647.5" y="-78" font-family="Helvetica,sans-Serif" font-size="10.00" fill="#000000"> orientation</text>
</g>
<!-- Node9&#45;&gt;Node8 -->
<g id="edge7" class="edge">
<title>Node9&#45;&gt;Node8</title>
<path fill="none" stroke="#9a32cd" stroke-dasharray="5,2" d="M278.3069,-41.479C319.8378,-39.3231 370.1139,-38.7762 415,-44 426.1962,-45.303 438.0278,-47.4986 449.2812,-49.9914"/>
<polygon fill="#9a32cd" stroke="#9a32cd" points="278.0093,-37.9901 268.2202,-42.0428 278.4,-44.9792 278.0093,-37.9901"/>
<text text-anchor="middle" x="350.5" y="-58" font-family="Helvetica,sans-Serif" font-size="10.00" fill="#000000"> ptr_begin</text>
<text text-anchor="middle" x="350.5" y="-47" font-family="Helvetica,sans-Serif" font-size="10.00" fill="#000000">ptr_end</text>
</g>
<!-- Node10&#45;&gt;Node4 -->
<g id="edge10" class="edge">
<title>Node10&#45;&gt;Node4</title>
<path fill="none" stroke="#9a32cd" stroke-dasharray="5,2" d="M584.7399,-150.5512C621.2673,-143.5338 664.5487,-133.2573 702,-119 719.7521,-112.242 738.4284,-101.7748 752.5125,-93.1082"/>
<polygon fill="#9a32cd" stroke="#9a32cd" points="583.8119,-147.1641 574.6268,-152.4447 585.1002,-154.0445 583.8119,-147.1641"/>
<text text-anchor="middle" x="647.5" y="-196" font-family="Helvetica,sans-Serif" font-size="10.00" fill="#000000"> vel_pos</text>
<text text-anchor="middle" x="647.5" y="-185" font-family="Helvetica,sans-Serif" font-size="10.00" fill="#000000">force</text>
<text text-anchor="middle" x="647.5" y="-174" font-family="Helvetica,sans-Serif" font-size="10.00" fill="#000000">vel</text>
<text text-anchor="middle" x="647.5" y="-163" font-family="Helvetica,sans-Serif" font-size="10.00" fill="#000000">epsilon</text>
<text text-anchor="middle" x="647.5" y="-152" font-family="Helvetica,sans-Serif" font-size="10.00" fill="#000000">pos</text>
</g>
<!-- Node11&#45;&gt;Node10 -->
<g id="edge11" class="edge">
<title>Node11&#45;&gt;Node10</title>
<path fill="none" stroke="#9a32cd" stroke-dasharray="5,2" d="M277.838,-177.4512C326.8214,-174.3213 387.244,-170.4604 433.3092,-167.517"/>
<polygon fill="#9a32cd" stroke="#9a32cd" points="277.3248,-173.9768 267.5684,-178.1074 277.7713,-180.9626 277.3248,-173.9768"/>
<text text-anchor="middle" x="350.5" y="-190" font-family="Helvetica,sans-Serif" font-size="10.00" fill="#000000"> ptr_begin</text>
<text text-anchor="middle" x="350.5" y="-179" font-family="Helvetica,sans-Serif" font-size="10.00" fill="#000000">ptr_end</text>
</g>
<!-- Node12&#45;&gt;Node3 -->
<g id="edge14" class="edge">
<title>Node12&#45;&gt;Node3</title>
<path fill="none" stroke="#ffa500" stroke-dasharray="5,2" d="M409.1568,-11.4528C525.1171,-14.3249 783.855,-20.7332 915.7863,-24.0009"/>
<polygon fill="#ffa500" stroke="#ffa500" points="409.1386,-7.9514 399.055,-11.2026 408.9652,-14.9492 409.1386,-7.9514"/>
<text text-anchor="start" x="593" y="-33" font-family="Helvetica,sans-Serif" font-size="10.00" fill="#000000"> &lt; amr_wind::actuator</text>
<text text-anchor="middle" x="647.5" y="-22" font-family="Helvetica,sans-Serif" font-size="10.00" fill="#000000">::ComponentView &gt;</text>
</g>
</g>
</svg>
        <g id="navigator" transform="translate(0 0)" fill="#404254">
                <rect fill="#f2f5e9" fill-opacity="0.5" stroke="#606060" stroke-width=".5" x="0" y="0" width="60" height="60"/>
                <use id="zoomplus" xlink:href="#zoomPlus" x="17" y="9" onmousedown="handleZoom(evt,'in')"/>
                <use id="zoomminus" xlink:href="#zoomMin" x="42" y="9" onmousedown="handleZoom(evt,'out')"/>
                <use id="reset" xlink:href="#resetDef" x="30" y="36" onmousedown="handleReset()"/>
                <g id="arrowUp" xlink:href="#dirArrow" transform="translate(30 24)" onmousedown="handlePan(0,-1)">
                  <use xlink:href="#rim" fill="#404040">
                        <set attributeName="fill" to="#808080" begin="arrowUp.mouseover" end="arrowUp.mouseout"/>
                  </use>
                  <path fill="none" stroke="white" stroke-width="1.5" d="M0,-3.0v7 M-2.5,-0.5L0,-3.0L2.5,-0.5"/>
                </g>
                <g id="arrowRight" xlink:href="#dirArrow" transform="rotate(90) translate(36 -43)" onmousedown="handlePan(1,0)">
                  <use xlink:href="#rim" fill="#404040">
                        <set attributeName="fill" to="#808080" begin="arrowRight.mouseover" end="arrowRight.mouseout"/>
                  </use>
                  <path fill="none" stroke="white" stroke-width="1.5" d="M0,-3.0v7 M-2.5,-0.5L0,-3.0L2.5,-0.5"/>
                </g>
                <g id="arrowDown" xlink:href="#dirArrow" transform="rotate(180) translate(-30 -48)" onmousedown="handlePan(0,1)">
                  <use xlink:href="#rim" fill="#404040">
                        <set attributeName="fill" to="#808080" begin="arrowDown.mouseover" end="arrowDown.mouseout"/>
                  </use>
                  <path fill="none" stroke="white" stroke-width="1.5" d="M0,-3.0v7 M-2.5,-0.5L0,-3.0L2.5,-0.5"/>
                </g>
                <g id="arrowLeft" xlink:href="#dirArrow" transform="rotate(270) translate(-36 17)" onmousedown="handlePan(-1,0)">
                  <use xlink:href="#rim" fill="#404040">
                        <set attributeName="fill" to="#808080" begin="arrowLeft.mouseover" end="arrowLeft.mouseout"/>
                  </use>
                  <path fill="none" stroke="white" stroke-width="1.5" d="M0,-3.0v7 M-2.5,-0.5L0,-3.0L2.5,-0.5"/>
                </g>
        </g>
        <svg viewBox="0 0 15 15" width="100%" height="30px" preserveAspectRatio="xMaxYMin meet">
         <g id="arrow_out" transform="scale(0.3 0.3)">
          <a xlink:href="structamr__wind_1_1actuator_1_1_turbine_base_data__coll__graph_org.svg" target="_base">
           <rect id="button" ry="5" rx="5" y="6" x="6" height="38" width="38"
                fill="#f2f5e9" fill-opacity="0.5" stroke="#606060" stroke-width="1.0"/>
           <path id="arrow"
             d="M 11.500037,31.436501 C 11.940474,20.09759 22.043105,11.32322 32.158766,21.979434 L 37.068811,17.246167 C 37.068811,17.246167 37.088388,32 37.088388,32 L 22.160133,31.978069 C 22.160133,31.978069 26.997745,27.140456 26.997745,27.140456 C 18.528582,18.264221 13.291696,25.230495 11.500037,31.436501 z"
             style="fill:#404040;"/>
          </a>
         </g>
        </svg>
</svg>
