<?xml version="1.0" encoding="UTF-8" standalone="no"?>
<!DOCTYPE svg PUBLIC "-//W3C//DTD SVG 1.1//EN"
 "http://www.w3.org/Graphics/SVG/1.1/DTD/svg11.dtd">
<!-- Generated by graphviz version 2.40.1 (20161225.0304)
 -->
<!-- Title: amr_wind::actuator::FixedWingData Pages: 1 -->
<svg width="723pt" height="132pt"
 viewBox="0.00 0.00 723.00 132.00" xmlns="http://www.w3.org/2000/svg" xmlns:xlink="http://www.w3.org/1999/xlink">
<g id="graph0" class="graph" transform="scale(1 1) rotate(0) translate(4 128)">
<title>amr_wind::actuator::FixedWingData</title>
<polygon fill="#ffffff" stroke="transparent" points="-4,4 -4,-128 719,-128 719,4 -4,4"/>
<!-- Node2 -->
<g id="node1" class="node">
<title>Node2</title>
<polygon fill="#bfbfbf" stroke="#000000" points="604,-45.5 604,-75.5 715,-75.5 715,-45.5 604,-45.5"/>
<text text-anchor="start" x="612" y="-63.5" font-family="Helvetica,sans-Serif" font-size="10.00" fill="#000000">amr_wind::actuator</text>
<text text-anchor="middle" x="659.5" y="-52.5" font-family="Helvetica,sans-Serif" font-size="10.00" fill="#000000">::FixedWingData</text>
</g>
<!-- Node3 -->
<g id="node2" class="node">
<title>Node3</title>
<g id="a_node2"><a xlink:href="structamr__wind_1_1actuator_1_1_wing_base_data.html" target="_top" xlink:title="Base data representation of a fixed&#45;wing. ">
<polygon fill="#ffffff" stroke="#000000" points="371.5,-93.5 371.5,-123.5 482.5,-123.5 482.5,-93.5 371.5,-93.5"/>
<text text-anchor="start" x="379.5" y="-111.5" font-family="Helvetica,sans-Serif" font-size="10.00" fill="#000000">amr_wind::actuator</text>
<text text-anchor="middle" x="427" y="-100.5" font-family="Helvetica,sans-Serif" font-size="10.00" fill="#000000">::WingBaseData</text>
</a>
</g>
</g>
<!-- Node3&#45;&gt;Node2 -->
<g id="edge1" class="edge">
<title>Node3&#45;&gt;Node2</title>
<path fill="none" stroke="#191970" d="M492.8287,-94.9096C527.8697,-87.6753 570.4917,-78.8759 603.8624,-71.9865"/>
<polygon fill="#191970" stroke="#191970" points="491.7753,-91.5531 482.6895,-97.0028 493.1907,-98.4086 491.7753,-91.5531"/>
</g>
<!-- Node4 -->
<g id="node3" class="node">
<title>Node4</title>
<polygon fill="#ffffff" stroke="#bfbfbf" points="345,-44.5 345,-74.5 509,-74.5 509,-44.5 345,-44.5"/>
<text text-anchor="start" x="353" y="-62.5" font-family="Helvetica,sans-Serif" font-size="10.00" fill="#000000">std::unique_ptr&lt; amr</text>
<text text-anchor="middle" x="427" y="-51.5" font-family="Helvetica,sans-Serif" font-size="10.00" fill="#000000">_wind::actuator::AirfoilTable &gt;</text>
</g>
<!-- Node4&#45;&gt;Node2 -->
<g id="edge2" class="edge">
<title>Node4&#45;&gt;Node2</title>
<path fill="none" stroke="#9a32cd" stroke-dasharray="5,2" d="M519.3262,-59.8971C547.9503,-60.0202 578.597,-60.152 603.9121,-60.2609"/>
<polygon fill="#9a32cd" stroke="#9a32cd" points="519.313,-56.3971 509.298,-59.854 519.2828,-63.397 519.313,-56.3971"/>
<text text-anchor="middle" x="556.5" y="-62.5" font-family="Helvetica,sans-Serif" font-size="10.00" fill="#000000"> aflookup</text>
</g>
<!-- Node5 -->
<g id="node4" class="node">
<title>Node5</title>
<g id="a_node4"><a xlink:href="classamr__wind_1_1actuator_1_1_airfoil_table.html" target="_top" xlink:title="amr_wind::actuator\l::AirfoilTable">
<polygon fill="#ffffff" stroke="#000000" points="85.5,-89.5 85.5,-119.5 196.5,-119.5 196.5,-89.5 85.5,-89.5"/>
<text text-anchor="start" x="93.5" y="-107.5" font-family="Helvetica,sans-Serif" font-size="10.00" fill="#000000">amr_wind::actuator</text>
<text text-anchor="middle" x="141" y="-96.5" font-family="Helvetica,sans-Serif" font-size="10.00" fill="#000000">::AirfoilTable</text>
</a>
</g>
</g>
<!-- Node5&#45;&gt;Node4 -->
<g id="edge3" class="edge">
<title>Node5&#45;&gt;Node4</title>
<path fill="none" stroke="#9a32cd" stroke-dasharray="5,2" d="M206.8609,-98.466C242.5512,-94.7553 287.3436,-89.3849 327,-82.5 339.8128,-80.2755 353.4498,-77.4495 366.3989,-74.5458"/>
<polygon fill="#9a32cd" stroke="#9a32cd" points="206.1644,-95.0189 196.5715,-99.5163 206.8752,-101.9827 206.1644,-95.0189"/>
<text text-anchor="middle" x="272.5" y="-99.5" font-family="Helvetica,sans-Serif" font-size="10.00" fill="#000000"> ptr</text>
</g>
<!-- Node6 -->
<g id="node5" class="node">
<title>Node6</title>
<g id="a_node5"><a xlink:title="STL class. ">
<polygon fill="#ffffff" stroke="#bfbfbf" points="82,-50 82,-69 200,-69 200,-50 82,-50"/>
<text text-anchor="middle" x="141" y="-57" font-family="Helvetica,sans-Serif" font-size="10.00" fill="#000000">std::unique_ptr&lt; T &gt;</text>
</a>
</g>
</g>
<!-- Node6&#45;&gt;Node4 -->
<g id="edge4" class="edge">
<title>Node6&#45;&gt;Node4</title>
<path fill="none" stroke="#ffa500" stroke-dasharray="5,2" d="M210.3151,-59.5C250.835,-59.5 302.2153,-59.5 344.773,-59.5"/>
<polygon fill="#ffa500" stroke="#ffa500" points="210.2594,-56.0001 200.2594,-59.5 210.2594,-63.0001 210.2594,-56.0001"/>
<text text-anchor="start" x="218" y="-73.5" font-family="Helvetica,sans-Serif" font-size="10.00" fill="#000000"> &lt; amr_wind::actuator</text>
<text text-anchor="middle" x="272.5" y="-62.5" font-family="Helvetica,sans-Serif" font-size="10.00" fill="#000000">::AirfoilTable &gt;</text>
</g>
<!-- Node7 -->
<g id="node6" class="node">
<title>Node7</title>
<polygon fill="#ffffff" stroke="#bfbfbf" points="0,-50 0,-69 29,-69 29,-50 0,-50"/>
<text text-anchor="middle" x="14.5" y="-57" font-family="Helvetica,sans-Serif" font-size="10.00" fill="#000000">T</text>
</g>
<!-- Node7&#45;&gt;Node6 -->
<g id="edge5" class="edge">
<title>Node7&#45;&gt;Node6</title>
<path fill="none" stroke="#9a32cd" stroke-dasharray="5,2" d="M39.2983,-59.5C51.5577,-59.5 66.9231,-59.5 81.9686,-59.5"/>
<polygon fill="#9a32cd" stroke="#9a32cd" points="39.0112,-56.0001 29.0112,-59.5 39.0111,-63.0001 39.0112,-56.0001"/>
<text text-anchor="middle" x="55.5" y="-62.5" font-family="Helvetica,sans-Serif" font-size="10.00" fill="#000000"> ptr</text>
</g>
<!-- Node8 -->
<g id="node7" class="node">
<title>Node8</title>
<g id="a_node7"><a xlink:title="STL class. ">
<polygon fill="#ffffff" stroke="#bfbfbf" points="394.5,-6 394.5,-25 459.5,-25 459.5,-6 394.5,-6"/>
<text text-anchor="middle" x="427" y="-13" font-family="Helvetica,sans-Serif" font-size="10.00" fill="#000000">std::string</text>
</a>
</g>
</g>
<!-- Node8&#45;&gt;Node2 -->
<g id="edge6" class="edge">
<title>Node8&#45;&gt;Node2</title>
<path fill="none" stroke="#9a32cd" stroke-dasharray="5,2" d="M469.6734,-17.5555C501.9616,-19.7767 547.214,-24.3208 586,-33.5 598.5673,-36.4742 611.929,-40.9592 623.7649,-45.4241"/>
<polygon fill="#9a32cd" stroke="#9a32cd" points="469.8741,-14.0612 459.6703,-16.913 469.4254,-21.0468 469.8741,-14.0612"/>
<text text-anchor="middle" x="556.5" y="-47.5" font-family="Helvetica,sans-Serif" font-size="10.00" fill="#000000"> airfoil_type</text>
<text text-anchor="middle" x="556.5" y="-36.5" font-family="Helvetica,sans-Serif" font-size="10.00" fill="#000000">airfoil_file</text>
</g>
<!-- Node9 -->
<g id="node8" class="node">
<title>Node9</title>
<g id="a_node8"><a xlink:title="STL class. ">
<polygon fill="#ffffff" stroke="#bfbfbf" points="89,-.5 89,-30.5 193,-30.5 193,-.5 89,-.5"/>
<text text-anchor="start" x="97" y="-18.5" font-family="Helvetica,sans-Serif" font-size="10.00" fill="#000000">std::basic_string&lt;</text>
<text text-anchor="middle" x="141" y="-7.5" font-family="Helvetica,sans-Serif" font-size="10.00" fill="#000000"> char &gt;</text>
</a>
</g>
</g>
<!-- Node9&#45;&gt;Node8 -->
<g id="edge7" class="edge">
<title>Node9&#45;&gt;Node8</title>
<path fill="none" stroke="#191970" d="M203.4104,-15.5C262.2169,-15.5 348.0208,-15.5 394.3728,-15.5"/>
<polygon fill="#191970" stroke="#191970" points="203.1243,-12.0001 193.1243,-15.5 203.1242,-19.0001 203.1243,-12.0001"/>
</g>
</g>
</svg>
