<?xml version="1.0" encoding="UTF-8" standalone="no"?>
<!DOCTYPE svg PUBLIC "-//W3C//DTD SVG 1.1//EN"
 "http://www.w3.org/Graphics/SVG/1.1/DTD/svg11.dtd">
<!-- Generated by graphviz version 2.40.1 (20161225.0304)
 -->
<!-- Title: amr_wind::LevelDataHolder Pages: 1 -->
<svg width="803pt" height="88pt"
 viewBox="0.00 0.00 803.00 88.00" xmlns="http://www.w3.org/2000/svg" xmlns:xlink="http://www.w3.org/1999/xlink">
<g id="graph0" class="graph" transform="scale(1 1) rotate(0) translate(4 84)">
<title>amr_wind::LevelDataHolder</title>
<polygon fill="#ffffff" stroke="transparent" points="-4,4 -4,-84 799,-84 799,4 -4,4"/>
<!-- Node1 -->
<g id="node1" class="node">
<title>Node1</title>
<polygon fill="#bfbfbf" stroke="#000000" points="643,-30 643,-49 795,-49 795,-30 643,-30"/>
<text text-anchor="middle" x="719" y="-37" font-family="Helvetica,sans-Serif" font-size="10.00" fill="#000000">amr_wind::LevelDataHolder</text>
</g>
<!-- Node2 -->
<g id="node2" class="node">
<title>Node2</title>
<polygon fill="#ffffff" stroke="#bfbfbf" points="357.5,-49.5 357.5,-79.5 551.5,-79.5 551.5,-49.5 357.5,-49.5"/>
<text text-anchor="start" x="365.5" y="-67.5" font-family="Helvetica,sans-Serif" font-size="10.00" fill="#000000">std::unique_ptr&lt; amrex</text>
<text text-anchor="middle" x="454.5" y="-56.5" font-family="Helvetica,sans-Serif" font-size="10.00" fill="#000000">::FabFactory&lt; amrex::IArrayBox &gt; &gt;</text>
</g>
<!-- Node2&#45;&gt;Node1 -->
<g id="edge1" class="edge">
<title>Node2&#45;&gt;Node1</title>
<path fill="none" stroke="#9a32cd" stroke-dasharray="5,2" d="M562.1649,-54.3237C589.2523,-51.7635 617.7658,-49.0684 642.9419,-46.6889"/>
<polygon fill="#9a32cd" stroke="#9a32cd" points="561.4895,-50.8719 551.8632,-55.2974 562.1482,-57.8408 561.4895,-50.8719"/>
<text text-anchor="middle" x="597.5" y="-55.5" font-family="Helvetica,sans-Serif" font-size="10.00" fill="#000000"> m_int_fact</text>
</g>
<!-- Node3 -->
<g id="node3" class="node">
<title>Node3</title>
<g id="a_node3"><a xlink:title="STL class. ">
<polygon fill="#ffffff" stroke="#bfbfbf" points="82,-30 82,-49 200,-49 200,-30 82,-30"/>
<text text-anchor="middle" x="141" y="-37" font-family="Helvetica,sans-Serif" font-size="10.00" fill="#000000">std::unique_ptr&lt; T &gt;</text>
</a>
</g>
</g>
<!-- Node3&#45;&gt;Node2 -->
<g id="edge2" class="edge">
<title>Node3&#45;&gt;Node2</title>
<path fill="none" stroke="#ffa500" stroke-dasharray="5,2" d="M210.449,-45.0382C253.5839,-48.478 309.6688,-52.9505 357.1951,-56.7404"/>
<polygon fill="#ffa500" stroke="#ffa500" points="210.5821,-41.5378 200.3355,-44.2317 210.0256,-48.5156 210.5821,-41.5378"/>
<text text-anchor="start" x="218.5" y="-68.5" font-family="Helvetica,sans-Serif" font-size="10.00" fill="#000000"> &lt; amrex::FabFactory</text>
<text text-anchor="middle" x="278.5" y="-57.5" font-family="Helvetica,sans-Serif" font-size="10.00" fill="#000000">&lt; amrex::IArrayBox &gt; &gt;</text>
</g>
<!-- Node5 -->
<g id="node5" class="node">
<title>Node5</title>
<polygon fill="#ffffff" stroke="#bfbfbf" points="357,-.5 357,-30.5 552,-30.5 552,-.5 357,-.5"/>
<text text-anchor="start" x="365" y="-18.5" font-family="Helvetica,sans-Serif" font-size="10.00" fill="#000000">std::unique_ptr&lt; amrex</text>
<text text-anchor="middle" x="454.5" y="-7.5" font-family="Helvetica,sans-Serif" font-size="10.00" fill="#000000">::FabFactory&lt; amrex::FArrayBox &gt; &gt;</text>
</g>
<!-- Node3&#45;&gt;Node5 -->
<g id="edge5" class="edge">
<title>Node3&#45;&gt;Node5</title>
<path fill="none" stroke="#ffa500" stroke-dasharray="5,2" d="M180.6667,-27.2797C192.5559,-24.1396 205.7049,-21.1765 218,-19.5 263.3676,-13.314 314.08,-11.7577 356.8752,-11.9718"/>
<polygon fill="#ffa500" stroke="#ffa500" points="179.7348,-23.906 171.0225,-29.9347 181.5928,-30.6549 179.7348,-23.906"/>
<text text-anchor="start" x="218" y="-33.5" font-family="Helvetica,sans-Serif" font-size="10.00" fill="#000000"> &lt; amrex::FabFactory</text>
<text text-anchor="middle" x="278.5" y="-22.5" font-family="Helvetica,sans-Serif" font-size="10.00" fill="#000000">&lt; amrex::FArrayBox &gt; &gt;</text>
</g>
<!-- Node4 -->
<g id="node4" class="node">
<title>Node4</title>
<polygon fill="#ffffff" stroke="#bfbfbf" points="0,-30 0,-49 29,-49 29,-30 0,-30"/>
<text text-anchor="middle" x="14.5" y="-37" font-family="Helvetica,sans-Serif" font-size="10.00" fill="#000000">T</text>
</g>
<!-- Node4&#45;&gt;Node3 -->
<g id="edge3" class="edge">
<title>Node4&#45;&gt;Node3</title>
<path fill="none" stroke="#9a32cd" stroke-dasharray="5,2" d="M39.2983,-39.5C51.5577,-39.5 66.9231,-39.5 81.9686,-39.5"/>
<polygon fill="#9a32cd" stroke="#9a32cd" points="39.0112,-36.0001 29.0112,-39.5 39.0111,-43.0001 39.0112,-36.0001"/>
<text text-anchor="middle" x="55.5" y="-42.5" font-family="Helvetica,sans-Serif" font-size="10.00" fill="#000000"> ptr</text>
</g>
<!-- Node5&#45;&gt;Node1 -->
<g id="edge4" class="edge">
<title>Node5&#45;&gt;Node1</title>
<path fill="none" stroke="#9a32cd" stroke-dasharray="5,2" d="M562.521,-22.1736C583.2752,-23.7186 604.8252,-25.5039 625,-27.5 632.4492,-28.237 640.2199,-29.0911 647.9625,-29.9974"/>
<polygon fill="#9a32cd" stroke="#9a32cd" points="562.6345,-18.6727 552.406,-21.4347 562.1244,-25.6541 562.6345,-18.6727"/>
<text text-anchor="middle" x="597.5" y="-30.5" font-family="Helvetica,sans-Serif" font-size="10.00" fill="#000000"> m_factory</text>
</g>
</g>
</svg>
