<?xml version="1.0" encoding="UTF-8" standalone="no"?>
<!DOCTYPE svg PUBLIC "-//W3C//DTD SVG 1.1//EN"
 "http://www.w3.org/Graphics/SVG/1.1/DTD/svg11.dtd">
<!-- Generated by graphviz version 2.40.1 (20161225.0304)
 -->
<!-- Title: amr_wind::actuator::ops::ProcessOutputsOp&lt; ActTrait, SrcTrait, typename std::enable_if&lt; std::is_base_of&lt; WingType, ActTrait &gt;::value &amp;&amp;UseDefaultOp&lt; ActTrait, ActSrcLine &gt;::process_outputs &gt;::type &gt; Pages: 1 -->
<svg width="216pt" height="240pt"
 viewBox="0.00 0.00 216.00 240.00" xmlns="http://www.w3.org/2000/svg" xmlns:xlink="http://www.w3.org/1999/xlink">
<g id="graph0" class="graph" transform="scale(1 1) rotate(0) translate(4 236)">
<title>amr_wind::actuator::ops::ProcessOutputsOp&lt; ActTrait, SrcTrait, typename std::enable_if&lt; std::is_base_of&lt; WingType, ActTrait &gt;::value &amp;&amp;UseDefaultOp&lt; ActTrait, ActSrcLine &gt;::process_outputs &gt;::type &gt;</title>
<polygon fill="#ffffff" stroke="transparent" points="-4,4 -4,-236 212,-236 212,4 -4,4"/>
<!-- Node1 -->
<g id="node1" class="node">
<title>Node1</title>
<polygon fill="#bfbfbf" stroke="#000000" points="0,-.5 0,-85.5 208,-85.5 208,-.5 0,-.5"/>
<text text-anchor="start" x="8" y="-73.5" font-family="Helvetica,sans-Serif" font-size="10.00" fill="#000000">amr_wind::actuator</text>
<text text-anchor="start" x="8" y="-62.5" font-family="Helvetica,sans-Serif" font-size="10.00" fill="#000000">::ops::ProcessOutputsOp</text>
<text text-anchor="start" x="8" y="-51.5" font-family="Helvetica,sans-Serif" font-size="10.00" fill="#000000">&lt; ActTrait, SrcTrait, typename</text>
<text text-anchor="start" x="8" y="-40.5" font-family="Helvetica,sans-Serif" font-size="10.00" fill="#000000"> std::enable_if&lt; std::is_base</text>
<text text-anchor="start" x="8" y="-29.5" font-family="Helvetica,sans-Serif" font-size="10.00" fill="#000000">_of&lt; WingType, ActTrait &gt;::value</text>
<text text-anchor="start" x="8" y="-18.5" font-family="Helvetica,sans-Serif" font-size="10.00" fill="#000000"> &amp;&amp;UseDefaultOp&lt; ActTrait, ActSrcLine</text>
<text text-anchor="middle" x="104" y="-7.5" font-family="Helvetica,sans-Serif" font-size="10.00" fill="#000000"> &gt;::process_outputs &gt;::type &gt;</text>
</g>
<!-- Node2 -->
<g id="node2" class="node">
<title>Node2</title>
<g id="a_node2"><a xlink:title="STL class. ">
<polygon fill="#ffffff" stroke="#bfbfbf" points="71.5,-144.5 71.5,-163.5 136.5,-163.5 136.5,-144.5 71.5,-144.5"/>
<text text-anchor="middle" x="104" y="-151.5" font-family="Helvetica,sans-Serif" font-size="10.00" fill="#000000">std::string</text>
</a>
</g>
</g>
<!-- Node2&#45;&gt;Node1 -->
<g id="edge1" class="edge">
<title>Node2&#45;&gt;Node1</title>
<path fill="none" stroke="#9a32cd" stroke-dasharray="5,2" d="M104,-134.1269C104,-120.6711 104,-102.3758 104,-85.7084"/>
<polygon fill="#9a32cd" stroke="#9a32cd" points="100.5001,-134.1495 104,-144.1495 107.5001,-134.1495 100.5001,-134.1495"/>
<text text-anchor="middle" x="141.5" y="-118" font-family="Helvetica,sans-Serif" font-size="10.00" fill="#000000"> m_out_dir</text>
<text text-anchor="middle" x="141.5" y="-107" font-family="Helvetica,sans-Serif" font-size="10.00" fill="#000000">m_nc_filename</text>
</g>
<!-- Node3 -->
<g id="node3" class="node">
<title>Node3</title>
<g id="a_node3"><a xlink:title="STL class. ">
<polygon fill="#ffffff" stroke="#bfbfbf" points="52,-201.5 52,-231.5 156,-231.5 156,-201.5 52,-201.5"/>
<text text-anchor="start" x="60" y="-219.5" font-family="Helvetica,sans-Serif" font-size="10.00" fill="#000000">std::basic_string&lt;</text>
<text text-anchor="middle" x="104" y="-208.5" font-family="Helvetica,sans-Serif" font-size="10.00" fill="#000000"> char &gt;</text>
</a>
</g>
</g>
<!-- Node3&#45;&gt;Node2 -->
<g id="edge2" class="edge">
<title>Node3&#45;&gt;Node2</title>
<path fill="none" stroke="#191970" d="M104,-191.3498C104,-181.6481 104,-171.1303 104,-163.7356"/>
<polygon fill="#191970" stroke="#191970" points="100.5001,-191.3705 104,-201.3705 107.5001,-191.3705 100.5001,-191.3705"/>
</g>
</g>
</svg>
