<?xml version="1.0" encoding="UTF-8" standalone="no"?>
<!DOCTYPE svg PUBLIC "-//W3C//DTD SVG 1.1//EN"
 "http://www.w3.org/Graphics/SVG/1.1/DTD/svg11.dtd">
<!-- Generated by graphviz version 2.40.1 (20161225.0304)
 -->
<!-- Title: amr_wind::pde::BCOp&lt; ICNS &gt; Pages: 1 -->
<svg width="318pt" height="529pt"
 viewBox="0.00 0.00 317.50 529.00" xmlns="http://www.w3.org/2000/svg" xmlns:xlink="http://www.w3.org/1999/xlink">
<g id="graph0" class="graph" transform="scale(1 1) rotate(0) translate(4 525)">
<title>amr_wind::pde::BCOp&lt; ICNS &gt;</title>
<polygon fill="#ffffff" stroke="transparent" points="-4,4 -4,-525 313.5,-525 313.5,4 -4,4"/>
<!-- Node1 -->
<g id="node1" class="node">
<title>Node1</title>
<polygon fill="#bfbfbf" stroke="#000000" points="28,-.5 28,-30.5 150,-30.5 150,-.5 28,-.5"/>
<text text-anchor="start" x="36" y="-18.5" font-family="Helvetica,sans-Serif" font-size="10.00" fill="#000000">amr_wind::pde::BCOp</text>
<text text-anchor="middle" x="89" y="-7.5" font-family="Helvetica,sans-Serif" font-size="10.00" fill="#000000">&lt; ICNS &gt;</text>
</g>
<!-- Node2 -->
<g id="node2" class="node">
<title>Node2</title>
<g id="a_node2"><a xlink:href="classamr__wind_1_1_sim_time.html" target="_top" xlink:title="Time manager for simulations. ">
<polygon fill="#ffffff" stroke="#000000" points="0,-78.5 0,-97.5 114,-97.5 114,-78.5 0,-78.5"/>
<text text-anchor="middle" x="57" y="-85.5" font-family="Helvetica,sans-Serif" font-size="10.00" fill="#000000">amr_wind::SimTime</text>
</a>
</g>
</g>
<!-- Node2&#45;&gt;Node1 -->
<g id="edge1" class="edge">
<title>Node2&#45;&gt;Node1</title>
<path fill="none" stroke="#9a32cd" stroke-dasharray="5,2" d="M65.4993,-68.7439C70.7603,-56.8244 77.4197,-41.7366 82.3051,-30.668"/>
<polygon fill="#9a32cd" stroke="#9a32cd" points="62.1517,-67.6605 61.3157,-78.2223 68.5557,-70.4871 62.1517,-67.6605"/>
<text text-anchor="middle" x="94.5" y="-52" font-family="Helvetica,sans-Serif" font-size="10.00" fill="#000000"> m_time</text>
</g>
<!-- Node3 -->
<g id="node3" class="node">
<title>Node3</title>
<g id="a_node3"><a xlink:href="structamr__wind_1_1pde_1_1_p_d_e_fields.html" target="_top" xlink:title="Collection of fields related to a PDEEvery PDE requires a common set of fields, e.g., the transported variable (scalar or vector), advection, diffusion, source, and effective viscosity fields. ">
<polygon fill="#ffffff" stroke="#000000" points="132,-78.5 132,-97.5 274,-97.5 274,-78.5 132,-78.5"/>
<text text-anchor="middle" x="203" y="-85.5" font-family="Helvetica,sans-Serif" font-size="10.00" fill="#000000">amr_wind::pde::PDEFields</text>
</a>
</g>
</g>
<!-- Node3&#45;&gt;Node1 -->
<g id="edge2" class="edge">
<title>Node3&#45;&gt;Node1</title>
<path fill="none" stroke="#9a32cd" stroke-dasharray="5,2" d="M179.0335,-72.7581C159.576,-60.3839 132.2766,-43.0224 112.8504,-30.668"/>
<polygon fill="#9a32cd" stroke="#9a32cd" points="177.3091,-75.8093 187.6255,-78.2223 181.0655,-69.9026 177.3091,-75.8093"/>
<text text-anchor="middle" x="179.5" y="-52" font-family="Helvetica,sans-Serif" font-size="10.00" fill="#000000"> m_fields</text>
</g>
<!-- Node4 -->
<g id="node4" class="node">
<title>Node4</title>
<g id="a_node4"><a xlink:href="classamr__wind_1_1_field.html" target="_top" xlink:title="Computational fieldThis is an abstraction of a collection of MultiFabs over multiple levels...">
<polygon fill="#ffffff" stroke="#000000" points="216.5,-189.5 216.5,-208.5 309.5,-208.5 309.5,-189.5 216.5,-189.5"/>
<text text-anchor="middle" x="263" y="-196.5" font-family="Helvetica,sans-Serif" font-size="10.00" fill="#000000">amr_wind::Field</text>
</a>
</g>
</g>
<!-- Node4&#45;&gt;Node3 -->
<g id="edge3" class="edge">
<title>Node4&#45;&gt;Node3</title>
<path fill="none" stroke="#9a32cd" stroke-dasharray="5,2" d="M252.9104,-180.3342C240.0182,-156.4836 218.1823,-116.0873 208.227,-97.6699"/>
<polygon fill="#9a32cd" stroke="#9a32cd" points="249.8412,-182.0167 257.6754,-189.1495 255.9992,-178.6881 249.8412,-182.0167"/>
<text text-anchor="middle" x="272" y="-163" font-family="Helvetica,sans-Serif" font-size="10.00" fill="#000000"> src_term</text>
<text text-anchor="middle" x="272" y="-152" font-family="Helvetica,sans-Serif" font-size="10.00" fill="#000000">field</text>
<text text-anchor="middle" x="272" y="-141" font-family="Helvetica,sans-Serif" font-size="10.00" fill="#000000">diff_term</text>
<text text-anchor="middle" x="272" y="-130" font-family="Helvetica,sans-Serif" font-size="10.00" fill="#000000">mueff</text>
<text text-anchor="middle" x="272" y="-119" font-family="Helvetica,sans-Serif" font-size="10.00" fill="#000000">conv_term</text>
</g>
<!-- Node5 -->
<g id="node5" class="node">
<title>Node5</title>
<g id="a_node5"><a xlink:title="STL class. ">
<polygon fill="#ffffff" stroke="#bfbfbf" points="204.5,-418 204.5,-437 269.5,-437 269.5,-418 204.5,-418"/>
<text text-anchor="middle" x="237" y="-425" font-family="Helvetica,sans-Serif" font-size="10.00" fill="#000000">std::string</text>
</a>
</g>
</g>
<!-- Node5&#45;&gt;Node4 -->
<g id="edge4" class="edge">
<title>Node5&#45;&gt;Node4</title>
<path fill="none" stroke="#9a32cd" stroke-dasharray="5,2" d="M240.1093,-407.5846C240.7682,-403.1196 241.4347,-398.4017 242,-394 251.1077,-323.0776 259.4043,-237.2943 262.0918,-208.7558"/>
<polygon fill="#9a32cd" stroke="#9a32cd" points="236.5931,-407.4264 238.5488,-417.8392 243.5135,-408.4795 236.5931,-407.4264"/>
<text text-anchor="middle" x="276" y="-302.5" font-family="Helvetica,sans-Serif" font-size="10.00" fill="#000000"> m_name</text>
</g>
<!-- Node8 -->
<g id="node8" class="node">
<title>Node8</title>
<polygon fill="#ffffff" stroke="#bfbfbf" points="109,-334.5 109,-364.5 231,-364.5 231,-334.5 109,-334.5"/>
<text text-anchor="start" x="117" y="-352.5" font-family="Helvetica,sans-Serif" font-size="10.00" fill="#000000">std::unordered_map</text>
<text text-anchor="middle" x="170" y="-341.5" font-family="Helvetica,sans-Serif" font-size="10.00" fill="#000000">&lt; std::string, size_t &gt;</text>
</g>
<!-- Node5&#45;&gt;Node8 -->
<g id="edge8" class="edge">
<title>Node5&#45;&gt;Node8</title>
<path fill="none" stroke="#9a32cd" stroke-dasharray="5,2" d="M223.5108,-409.5488C217.1619,-401.3112 209.3781,-391.5064 202,-383 196.6246,-376.8025 190.4527,-370.2255 184.9723,-364.5552"/>
<polygon fill="#9a32cd" stroke="#9a32cd" points="220.9049,-411.9038 229.7496,-417.7367 226.4728,-407.6613 220.9049,-411.9038"/>
<text text-anchor="middle" x="224.5" y="-386" font-family="Helvetica,sans-Serif" font-size="10.00" fill="#000000"> keys</text>
</g>
<!-- Node6 -->
<g id="node6" class="node">
<title>Node6</title>
<g id="a_node6"><a xlink:title="STL class. ">
<polygon fill="#ffffff" stroke="#bfbfbf" points="185,-490.5 185,-520.5 289,-520.5 289,-490.5 185,-490.5"/>
<text text-anchor="start" x="193" y="-508.5" font-family="Helvetica,sans-Serif" font-size="10.00" fill="#000000">std::basic_string&lt;</text>
<text text-anchor="middle" x="237" y="-497.5" font-family="Helvetica,sans-Serif" font-size="10.00" fill="#000000"> char &gt;</text>
</a>
</g>
</g>
<!-- Node6&#45;&gt;Node5 -->
<g id="edge5" class="edge">
<title>Node6&#45;&gt;Node5</title>
<path fill="none" stroke="#191970" d="M237,-480.3962C237,-465.6331 237,-447.8138 237,-437.0839"/>
<polygon fill="#191970" stroke="#191970" points="233.5001,-480.4608 237,-490.4608 240.5001,-480.4609 233.5001,-480.4608"/>
</g>
<!-- Node7 -->
<g id="node7" class="node">
<title>Node7</title>
<g id="a_node7"><a xlink:href="classamr__wind_1_1_field_repo.html" target="_top" xlink:title="Field RepositoryFieldRepo is a database that manages handling of fields used during a simulation...">
<polygon fill="#ffffff" stroke="#000000" points="114.5,-256.5 114.5,-275.5 231.5,-275.5 231.5,-256.5 114.5,-256.5"/>
<text text-anchor="middle" x="173" y="-263.5" font-family="Helvetica,sans-Serif" font-size="10.00" fill="#000000">amr_wind::FieldRepo</text>
</a>
</g>
</g>
<!-- Node7&#45;&gt;Node3 -->
<g id="edge12" class="edge">
<title>Node7&#45;&gt;Node3</title>
<path fill="none" stroke="#9a32cd" stroke-dasharray="5,2" d="M175.1736,-246.4706C176.9967,-230.8745 179.8095,-208.4828 183,-189 188.5175,-155.3072 196.935,-115.6681 200.8538,-97.711"/>
<polygon fill="#9a32cd" stroke="#9a32cd" points="171.687,-246.1545 174.0298,-256.4871 178.6418,-246.9488 171.687,-246.1545"/>
<text text-anchor="middle" x="195.5" y="-196.5" font-family="Helvetica,sans-Serif" font-size="10.00" fill="#000000"> repo</text>
</g>
<!-- Node7&#45;&gt;Node4 -->
<g id="edge6" class="edge">
<title>Node7&#45;&gt;Node4</title>
<path fill="none" stroke="#9a32cd" stroke-dasharray="5,2" d="M188.5053,-248.4357C195.3042,-241.3012 203.6326,-233.2787 212,-227 221.3719,-219.9675 232.7219,-213.5592 242.3332,-208.6533"/>
<polygon fill="#9a32cd" stroke="#9a32cd" points="185.5138,-246.5175 181.316,-256.2453 190.6639,-251.2585 185.5138,-246.5175"/>
<text text-anchor="middle" x="232" y="-230" font-family="Helvetica,sans-Serif" font-size="10.00" fill="#000000"> m_repo</text>
</g>
<!-- Node8&#45;&gt;Node7 -->
<g id="edge7" class="edge">
<title>Node8&#45;&gt;Node7</title>
<path fill="none" stroke="#9a32cd" stroke-dasharray="5,2" d="M170.169,-324.3971C170.3076,-314.8738 170.5561,-303.9327 171,-294 171.2742,-287.8655 171.7629,-280.9867 172.1887,-275.5823"/>
<polygon fill="#9a32cd" stroke="#9a32cd" points="166.6691,-324.3782 170.0548,-334.4175 173.6687,-324.4581 166.6691,-324.3782"/>
<text text-anchor="middle" x="207.5" y="-308" font-family="Helvetica,sans-Serif" font-size="10.00" fill="#000000"> m_fid_map</text>
<text text-anchor="middle" x="207.5" y="-297" font-family="Helvetica,sans-Serif" font-size="10.00" fill="#000000">m_int_fid_map</text>
</g>
<!-- Node9 -->
<g id="node9" class="node">
<title>Node9</title>
<g id="a_node9"><a xlink:title="STL class. ">
<polygon fill="#ffffff" stroke="#bfbfbf" points="35,-412.5 35,-442.5 149,-442.5 149,-412.5 35,-412.5"/>
<text text-anchor="start" x="43" y="-430.5" font-family="Helvetica,sans-Serif" font-size="10.00" fill="#000000">std::unordered_map</text>
<text text-anchor="middle" x="92" y="-419.5" font-family="Helvetica,sans-Serif" font-size="10.00" fill="#000000">&lt; K, T &gt;</text>
</a>
</g>
</g>
<!-- Node9&#45;&gt;Node8 -->
<g id="edge9" class="edge">
<title>Node9&#45;&gt;Node8</title>
<path fill="none" stroke="#ffa500" stroke-dasharray="5,2" d="M84.9023,-402.1603C84.4104,-395.4738 85.272,-388.5761 89,-383 94.2439,-375.1565 101.6989,-369.1473 109.9863,-364.5439"/>
<polygon fill="#ffa500" stroke="#ffa500" points="81.4896,-402.9769 86.5718,-412.2733 88.3962,-401.8367 81.4896,-402.9769"/>
<text text-anchor="middle" x="143.5" y="-386" font-family="Helvetica,sans-Serif" font-size="10.00" fill="#000000"> &lt; std::string, size_t &gt;</text>
</g>
<!-- Node10 -->
<g id="node10" class="node">
<title>Node10</title>
<polygon fill="#ffffff" stroke="#bfbfbf" points="64.5,-496 64.5,-515 93.5,-515 93.5,-496 64.5,-496"/>
<text text-anchor="middle" x="79" y="-503" font-family="Helvetica,sans-Serif" font-size="10.00" fill="#000000">K</text>
</g>
<!-- Node10&#45;&gt;Node9 -->
<g id="edge10" class="edge">
<title>Node10&#45;&gt;Node9</title>
<path fill="none" stroke="#9a32cd" stroke-dasharray="5,2" d="M78.0903,-485.6032C78.0893,-477.8661 78.5243,-468.964 80,-461 81.1481,-454.8041 83.2863,-448.2273 85.4434,-442.5568"/>
<polygon fill="#9a32cd" stroke="#9a32cd" points="74.5973,-485.946 78.3331,-495.8604 81.5954,-485.7803 74.5973,-485.946"/>
<text text-anchor="middle" x="93.5" y="-464" font-family="Helvetica,sans-Serif" font-size="10.00" fill="#000000"> keys</text>
</g>
<!-- Node11 -->
<g id="node11" class="node">
<title>Node11</title>
<polygon fill="#ffffff" stroke="#bfbfbf" points="114.5,-496 114.5,-515 143.5,-515 143.5,-496 114.5,-496"/>
<text text-anchor="middle" x="129" y="-503" font-family="Helvetica,sans-Serif" font-size="10.00" fill="#000000">T</text>
</g>
<!-- Node11&#45;&gt;Node9 -->
<g id="edge11" class="edge">
<title>Node11&#45;&gt;Node9</title>
<path fill="none" stroke="#9a32cd" stroke-dasharray="5,2" d="M120.0685,-486.6714C113.6878,-473.2202 105.2117,-455.3517 99.2493,-442.7824"/>
<polygon fill="#9a32cd" stroke="#9a32cd" points="117.0149,-488.4007 124.4631,-495.9357 123.3394,-485.4006 117.0149,-488.4007"/>
<text text-anchor="middle" x="137.5" y="-464" font-family="Helvetica,sans-Serif" font-size="10.00" fill="#000000"> elements</text>
</g>
</g>
</svg>
