<?xml version="1.0" encoding="UTF-8" standalone="no"?>
<!DOCTYPE svg PUBLIC "-//W3C//DTD SVG 1.1//EN"
 "http://www.w3.org/Graphics/SVG/1.1/DTD/svg11.dtd">
<!-- Generated by graphviz version 2.40.1 (20161225.0304)
 -->
<!-- Title: amr_wind::pde::SrcTermOp&lt; ICNS &gt; Pages: 1 -->
<!--zoomable 675 -->
<svg id="main" version="1.1" xmlns="http://www.w3.org/2000/svg" xmlns:xlink="http://www.w3.org/1999/xlink" xml:space="preserve" onload="init(evt)">
<style type="text/css"><![CDATA[
.edge:hover path { stroke: red; }
.edge:hover polygon { stroke: red; fill: red; }
]]></style>
<script type="text/javascript"><![CDATA[
var edges = document.getElementsByTagName('g');
if (edges && edges.length) {
  for (var i=0;i<edges.length;i++) {
    if (edges[i].id.substr(0,4)=='edge') {
      edges[i].setAttribute('class','edge');
    }
  }
}
]]></script>
        <defs>
                <circle id="rim" cx="0" cy="0" r="7"/>
                <circle id="rim2" cx="0" cy="0" r="3.5"/>
                <g id="zoomPlus">
                        <use xlink:href="#rim" fill="#404040">
                                <set attributeName="fill" to="#808080" begin="zoomplus.mouseover" end="zoomplus.mouseout"/>
                        </use>
                        <path d="M-4,0h8M0,-4v8" fill="none" stroke="white" stroke-width="1.5" pointer-events="none"/>
                </g>
                <g id="zoomMin">
                        <use xlink:href="#rim" fill="#404040">
                                <set attributeName="fill" to="#808080" begin="zoomminus.mouseover" end="zoomminus.mouseout"/>
                        </use>
                        <path d="M-4,0h8" fill="none" stroke="white" stroke-width="1.5" pointer-events="none"/>
                </g>
                <g id="dirArrow">
                        <path fill="none" stroke="white" stroke-width="1.5" d="M0,-3.0v7 M-2.5,-0.5L0,-3.0L2.5,-0.5"/>
                </g>
               <g id="resetDef">
                       <use xlink:href="#rim2" fill="#404040">
                               <set attributeName="fill" to="#808080" begin="reset.mouseover" end="reset.mouseout"/>
                       </use>
               </g>
        </defs>

<script type="text/javascript">
var viewWidth = 423;
var viewHeight = 675;
var sectionId = 'dynsection-1';
</script>
<script xlink:href="svgpan.js"/>
<svg id="graph" class="graph">
<g id="viewport">
<title>amr_wind::pde::SrcTermOp&lt; ICNS &gt;</title>
<polygon fill="#ffffff" stroke="transparent" points="-4,4 -4,-671 419.1349,-671 419.1349,4 -4,4"/>
<!-- Node3 -->
<g id="node1" class="node">
<title>Node3</title>
<polygon fill="#bfbfbf" stroke="#000000" points="176.6349,-.5 176.6349,-30.5 323.6349,-30.5 323.6349,-.5 176.6349,-.5"/>
<text text-anchor="start" x="184.6349" y="-18.5" font-family="Helvetica,sans-Serif" font-size="10.00" fill="#000000">amr_wind::pde::SrcTermOp</text>
<text text-anchor="middle" x="250.1349" y="-7.5" font-family="Helvetica,sans-Serif" font-size="10.00" fill="#000000">&lt; ICNS &gt;</text>
</g>
<!-- Node4 -->
<g id="node2" class="node">
<title>Node4</title>
<g id="a_node2"><a xlink:href="structamr__wind_1_1pde_1_1_src_term_op_base.html" target="_top" xlink:title="amr_wind::pde::SrcTermOp\lBase\&lt; ICNS \&gt;">
<polygon fill="#ffffff" stroke="#000000" points="72.6349,-68.5 72.6349,-98.5 219.6349,-98.5 219.6349,-68.5 72.6349,-68.5"/>
<text text-anchor="start" x="80.6349" y="-86.5" font-family="Helvetica,sans-Serif" font-size="10.00" fill="#000000">amr_wind::pde::SrcTermOp</text>
<text text-anchor="middle" x="146.1349" y="-75.5" font-family="Helvetica,sans-Serif" font-size="10.00" fill="#000000">Base&lt; ICNS &gt;</text>
</a>
</g>
</g>
<!-- Node4&#45;&gt;Node3 -->
<g id="edge1" class="edge">
<title>Node4&#45;&gt;Node3</title>
<path fill="none" stroke="#191970" d="M177.7023,-62.8598C193.6262,-52.448 212.5899,-40.0487 227.1185,-30.5492"/>
<polygon fill="#191970" stroke="#191970" points="175.6702,-60.0067 169.2159,-68.4086 179.501,-65.8655 175.6702,-60.0067"/>
</g>
<!-- Node5 -->
<g id="node3" class="node">
<title>Node5</title>
<g id="a_node3"><a xlink:href="classamr__wind_1_1_field.html" target="_top" xlink:title="Computational fieldThis is an abstraction of a collection of MultiFabs over multiple levels...">
<polygon fill="#ffffff" stroke="#000000" points="155.6349,-335.5 155.6349,-354.5 248.6349,-354.5 248.6349,-335.5 155.6349,-335.5"/>
<text text-anchor="middle" x="202.1349" y="-342.5" font-family="Helvetica,sans-Serif" font-size="10.00" fill="#000000">amr_wind::Field</text>
</a>
</g>
</g>
<!-- Node5&#45;&gt;Node3 -->
<g id="edge17" class="edge">
<title>Node5&#45;&gt;Node3</title>
<path fill="none" stroke="#9a32cd" stroke-dasharray="5,2" d="M239.0456,-330.7248C245.9195,-326.9601 252.6533,-322.4035 258.1349,-317 287.7221,-287.8345 301.1349,-275.5455 301.1349,-234 301.1349,-234 301.1349,-234 301.1349,-83.5 301.1349,-62.1024 284.7733,-43.1288 270.5847,-30.6979"/>
<polygon fill="#9a32cd" stroke="#9a32cd" points="237.0882,-327.789 229.6897,-335.3728 240.2027,-334.058 237.0882,-327.789"/>
<text text-anchor="middle" x="319.6349" y="-159" font-family="Helvetica,sans-Serif" font-size="10.00" fill="#000000"> grad_p</text>
</g>
<!-- Node5&#45;&gt;Node4 -->
<g id="edge2" class="edge">
<title>Node5&#45;&gt;Node4</title>
<path fill="none" stroke="#9a32cd" stroke-dasharray="5,2" d="M145.5688,-336.9976C117.2629,-332.1206 86.6219,-325.2418 75.1349,-317 28.3156,-283.4077 23.5901,-261.5125 8.1349,-206 3.9929,-191.1225 -7.8866,-171.89 9.1349,-146 24.5022,-122.6263 50.957,-107.8729 76.5462,-98.6172"/>
<polygon fill="#9a32cd" stroke="#9a32cd" points="145.01,-340.4527 155.4483,-338.6382 146.1567,-333.5473 145.01,-340.4527"/>
<text text-anchor="middle" x="35.6349" y="-198" font-family="Helvetica,sans-Serif" font-size="10.00" fill="#000000"> m_density</text>
</g>
<!-- Node13 -->
<g id="node11" class="node">
<title>Node13</title>
<g id="a_node11"><a xlink:href="structamr__wind_1_1pde_1_1_p_d_e_fields.html" target="_top" xlink:title="Collection of fields related to a PDEEvery PDE requires a common set of fields, e.g., the transported variable (scalar or vector), advection, diffusion, source, and effective viscosity fields. ">
<polygon fill="#ffffff" stroke="#000000" points="131.1349,-224.5 131.1349,-243.5 273.1349,-243.5 273.1349,-224.5 131.1349,-224.5"/>
<text text-anchor="middle" x="202.1349" y="-231.5" font-family="Helvetica,sans-Serif" font-size="10.00" fill="#000000">amr_wind::pde::PDEFields</text>
</a>
</g>
</g>
<!-- Node5&#45;&gt;Node13 -->
<g id="edge12" class="edge">
<title>Node5&#45;&gt;Node13</title>
<path fill="none" stroke="#9a32cd" stroke-dasharray="5,2" d="M202.1349,-325.0467C202.1349,-301.0543 202.1349,-261.7599 202.1349,-243.6699"/>
<polygon fill="#9a32cd" stroke="#9a32cd" points="198.635,-325.1495 202.1349,-335.1495 205.635,-325.1495 198.635,-325.1495"/>
<text text-anchor="middle" x="228.1349" y="-309" font-family="Helvetica,sans-Serif" font-size="10.00" fill="#000000"> src_term</text>
<text text-anchor="middle" x="228.1349" y="-298" font-family="Helvetica,sans-Serif" font-size="10.00" fill="#000000">field</text>
<text text-anchor="middle" x="228.1349" y="-287" font-family="Helvetica,sans-Serif" font-size="10.00" fill="#000000">diff_term</text>
<text text-anchor="middle" x="228.1349" y="-276" font-family="Helvetica,sans-Serif" font-size="10.00" fill="#000000">mueff</text>
<text text-anchor="middle" x="228.1349" y="-265" font-family="Helvetica,sans-Serif" font-size="10.00" fill="#000000">conv_term</text>
</g>
<!-- Node14 -->
<g id="node12" class="node">
<title>Node14</title>
<g id="a_node12"><a xlink:href="structamr__wind_1_1pde_1_1_src_term_op_base.html" target="_top" xlink:title="Base implementation of source terms for a PDEHolds a collection of source terms that are initialized ...">
<polygon fill="#ffffff" stroke="#000000" points="18.6349,-146.5 18.6349,-176.5 165.6349,-176.5 165.6349,-146.5 18.6349,-146.5"/>
<text text-anchor="start" x="26.6349" y="-164.5" font-family="Helvetica,sans-Serif" font-size="10.00" fill="#000000">amr_wind::pde::SrcTermOp</text>
<text text-anchor="middle" x="92.1349" y="-153.5" font-family="Helvetica,sans-Serif" font-size="10.00" fill="#000000">Base&lt; PDE &gt;</text>
</a>
</g>
</g>
<!-- Node5&#45;&gt;Node14 -->
<g id="edge15" class="edge">
<title>Node5&#45;&gt;Node14</title>
<path fill="none" stroke="#9a32cd" stroke-dasharray="5,2" d="M169.2135,-331.1674C136.5206,-315.4219 88.3078,-286.283 67.1349,-244 56.0113,-221.7857 69.8254,-193.6917 80.9133,-176.6837"/>
<polygon fill="#9a32cd" stroke="#9a32cd" points="167.8569,-334.3964 178.4004,-335.4384 170.808,-328.0489 167.8569,-334.3964"/>
<text text-anchor="middle" x="94.6349" y="-231.5" font-family="Helvetica,sans-Serif" font-size="10.00" fill="#000000"> m_density</text>
</g>
<!-- Node6 -->
<g id="node4" class="node">
<title>Node6</title>
<g id="a_node4"><a xlink:title="STL class. ">
<polygon fill="#ffffff" stroke="#bfbfbf" points="169.6349,-564 169.6349,-583 234.6349,-583 234.6349,-564 169.6349,-564"/>
<text text-anchor="middle" x="202.1349" y="-571" font-family="Helvetica,sans-Serif" font-size="10.00" fill="#000000">std::string</text>
</a>
</g>
</g>
<!-- Node6&#45;&gt;Node5 -->
<g id="edge3" class="edge">
<title>Node6&#45;&gt;Node5</title>
<path fill="none" stroke="#9a32cd" stroke-dasharray="5,2" d="M202.1349,-553.8634C202.1349,-506.8087 202.1349,-388.9671 202.1349,-354.5681"/>
<polygon fill="#9a32cd" stroke="#9a32cd" points="198.635,-553.9725 202.1349,-563.9726 205.635,-553.9726 198.635,-553.9725"/>
<text text-anchor="middle" x="225.1349" y="-448.5" font-family="Helvetica,sans-Serif" font-size="10.00" fill="#000000"> m_name</text>
</g>
<!-- Node9 -->
<g id="node7" class="node">
<title>Node9</title>
<polygon fill="#ffffff" stroke="#bfbfbf" points="239.1349,-480.5 239.1349,-510.5 361.1349,-510.5 361.1349,-480.5 239.1349,-480.5"/>
<text text-anchor="start" x="247.1349" y="-498.5" font-family="Helvetica,sans-Serif" font-size="10.00" fill="#000000">std::unordered_map</text>
<text text-anchor="middle" x="300.1349" y="-487.5" font-family="Helvetica,sans-Serif" font-size="10.00" fill="#000000">&lt; std::string, size_t &gt;</text>
</g>
<!-- Node6&#45;&gt;Node9 -->
<g id="edge7" class="edge">
<title>Node6&#45;&gt;Node9</title>
<path fill="none" stroke="#9a32cd" stroke-dasharray="5,2" d="M222.3943,-557.3752C239.5789,-543.6977 264.058,-524.2143 280.934,-510.7824"/>
<polygon fill="#9a32cd" stroke="#9a32cd" points="219.7963,-554.9697 214.1517,-563.9357 224.1555,-560.4467 219.7963,-554.9697"/>
<text text-anchor="middle" x="270.6349" y="-532" font-family="Helvetica,sans-Serif" font-size="10.00" fill="#000000"> keys</text>
</g>
<!-- Node7 -->
<g id="node5" class="node">
<title>Node7</title>
<g id="a_node5"><a xlink:title="STL class. ">
<polygon fill="#ffffff" stroke="#bfbfbf" points="150.1349,-636.5 150.1349,-666.5 254.1349,-666.5 254.1349,-636.5 150.1349,-636.5"/>
<text text-anchor="start" x="158.1349" y="-654.5" font-family="Helvetica,sans-Serif" font-size="10.00" fill="#000000">std::basic_string&lt;</text>
<text text-anchor="middle" x="202.1349" y="-643.5" font-family="Helvetica,sans-Serif" font-size="10.00" fill="#000000"> char &gt;</text>
</a>
</g>
</g>
<!-- Node7&#45;&gt;Node6 -->
<g id="edge4" class="edge">
<title>Node7&#45;&gt;Node6</title>
<path fill="none" stroke="#191970" d="M202.1349,-626.3962C202.1349,-611.6331 202.1349,-593.8138 202.1349,-583.0839"/>
<polygon fill="#191970" stroke="#191970" points="198.635,-626.4608 202.1349,-636.4608 205.635,-626.4609 198.635,-626.4608"/>
</g>
<!-- Node8 -->
<g id="node6" class="node">
<title>Node8</title>
<g id="a_node6"><a xlink:href="classamr__wind_1_1_field_repo.html" target="_top" xlink:title="Field RepositoryFieldRepo is a database that manages handling of fields used during a simulation...">
<polygon fill="#ffffff" stroke="#000000" points="241.6349,-402.5 241.6349,-421.5 358.6349,-421.5 358.6349,-402.5 241.6349,-402.5"/>
<text text-anchor="middle" x="300.1349" y="-409.5" font-family="Helvetica,sans-Serif" font-size="10.00" fill="#000000">amr_wind::FieldRepo</text>
</a>
</g>
</g>
<!-- Node8&#45;&gt;Node5 -->
<g id="edge5" class="edge">
<title>Node8&#45;&gt;Node5</title>
<path fill="none" stroke="#9a32cd" stroke-dasharray="5,2" d="M277.7359,-396.6864C258.7866,-383.7312 232.2213,-365.5693 216.1499,-354.5817"/>
<polygon fill="#9a32cd" stroke="#9a32cd" points="275.8634,-399.646 286.0939,-402.4005 279.8141,-393.8674 275.8634,-399.646"/>
<text text-anchor="middle" x="277.1349" y="-376" font-family="Helvetica,sans-Serif" font-size="10.00" fill="#000000"> m_repo</text>
</g>
<!-- Node8&#45;&gt;Node13 -->
<g id="edge13" class="edge">
<title>Node8&#45;&gt;Node13</title>
<path fill="none" stroke="#9a32cd" stroke-dasharray="5,2" d="M302.2463,-392.1318C302.4748,-385.9582 302.2861,-379.1584 301.1349,-373 291.4139,-320.9951 293.7448,-301.1274 258.1349,-262 250.8187,-253.9611 240.6733,-247.9301 231.0255,-243.565"/>
<polygon fill="#9a32cd" stroke="#9a32cd" points="298.7419,-392.0653 301.5021,-402.2942 305.7232,-392.5766 298.7419,-392.0653"/>
<text text-anchor="middle" x="310.6349" y="-342.5" font-family="Helvetica,sans-Serif" font-size="10.00" fill="#000000"> repo</text>
</g>
<!-- Node9&#45;&gt;Node8 -->
<g id="edge6" class="edge">
<title>Node9&#45;&gt;Node8</title>
<path fill="none" stroke="#9a32cd" stroke-dasharray="5,2" d="M300.1349,-470.1022C300.1349,-453.6775 300.1349,-433.2426 300.1349,-421.5023"/>
<polygon fill="#9a32cd" stroke="#9a32cd" points="296.635,-470.1848 300.1349,-480.1848 303.635,-470.1848 296.635,-470.1848"/>
<text text-anchor="middle" x="336.6349" y="-454" font-family="Helvetica,sans-Serif" font-size="10.00" fill="#000000"> m_fid_map</text>
<text text-anchor="middle" x="336.6349" y="-443" font-family="Helvetica,sans-Serif" font-size="10.00" fill="#000000">m_int_fid_map</text>
</g>
<!-- Node10 -->
<g id="node8" class="node">
<title>Node10</title>
<g id="a_node8"><a xlink:title="STL class. ">
<polygon fill="#ffffff" stroke="#bfbfbf" points="253.1349,-558.5 253.1349,-588.5 367.1349,-588.5 367.1349,-558.5 253.1349,-558.5"/>
<text text-anchor="start" x="261.1349" y="-576.5" font-family="Helvetica,sans-Serif" font-size="10.00" fill="#000000">std::unordered_map</text>
<text text-anchor="middle" x="310.1349" y="-565.5" font-family="Helvetica,sans-Serif" font-size="10.00" fill="#000000">&lt; K, T &gt;</text>
</a>
</g>
</g>
<!-- Node10&#45;&gt;Node9 -->
<g id="edge8" class="edge">
<title>Node10&#45;&gt;Node9</title>
<path fill="none" stroke="#ffa500" stroke-dasharray="5,2" d="M306.9026,-548.2875C305.3168,-535.9187 303.4588,-521.4264 302.0912,-510.7592"/>
<polygon fill="#ffa500" stroke="#ffa500" points="303.4635,-548.9871 308.2068,-558.4608 310.4067,-548.0969 303.4635,-548.9871"/>
<text text-anchor="middle" x="360.6349" y="-532" font-family="Helvetica,sans-Serif" font-size="10.00" fill="#000000"> &lt; std::string, size_t &gt;</text>
</g>
<!-- Node11 -->
<g id="node9" class="node">
<title>Node11</title>
<polygon fill="#ffffff" stroke="#bfbfbf" points="283.6349,-642 283.6349,-661 312.6349,-661 312.6349,-642 283.6349,-642"/>
<text text-anchor="middle" x="298.1349" y="-649" font-family="Helvetica,sans-Serif" font-size="10.00" fill="#000000">K</text>
</g>
<!-- Node11&#45;&gt;Node10 -->
<g id="edge9" class="edge">
<title>Node11&#45;&gt;Node10</title>
<path fill="none" stroke="#9a32cd" stroke-dasharray="5,2" d="M297.3366,-631.6231C297.35,-623.8885 297.7657,-614.983 299.1349,-607 300.1905,-600.846 302.1512,-594.2777 304.1281,-588.6023"/>
<polygon fill="#9a32cd" stroke="#9a32cd" points="293.8422,-631.945 297.5406,-641.8733 300.8409,-631.8056 293.8422,-631.945"/>
<text text-anchor="middle" x="312.6349" y="-610" font-family="Helvetica,sans-Serif" font-size="10.00" fill="#000000"> keys</text>
</g>
<!-- Node12 -->
<g id="node10" class="node">
<title>Node12</title>
<polygon fill="#ffffff" stroke="#bfbfbf" points="333.6349,-642 333.6349,-661 362.6349,-661 362.6349,-642 333.6349,-642"/>
<text text-anchor="middle" x="348.1349" y="-649" font-family="Helvetica,sans-Serif" font-size="10.00" fill="#000000">T</text>
</g>
<!-- Node12&#45;&gt;Node10 -->
<g id="edge10" class="edge">
<title>Node12&#45;&gt;Node10</title>
<path fill="none" stroke="#9a32cd" stroke-dasharray="5,2" d="M338.962,-632.6714C332.4089,-619.2202 323.7037,-601.3517 317.5802,-588.7824"/>
<polygon fill="#9a32cd" stroke="#9a32cd" points="335.9492,-634.4787 343.4754,-641.9357 342.2421,-631.4128 335.9492,-634.4787"/>
<text text-anchor="middle" x="356.6349" y="-610" font-family="Helvetica,sans-Serif" font-size="10.00" fill="#000000"> elements</text>
</g>
<!-- Node13&#45;&gt;Node4 -->
<g id="edge11" class="edge">
<title>Node13&#45;&gt;Node4</title>
<path fill="none" stroke="#9a32cd" stroke-dasharray="5,2" d="M200.8133,-214.3078C198.5264,-190.1871 192.3854,-148.6376 176.1349,-117 172.7105,-110.3331 167.6357,-103.9555 162.6298,-98.5877"/>
<polygon fill="#9a32cd" stroke="#9a32cd" points="197.3308,-214.6665 201.6346,-224.3478 204.3075,-214.0957 197.3308,-214.6665"/>
<text text-anchor="middle" x="211.1349" y="-159" font-family="Helvetica,sans-Serif" font-size="10.00" fill="#000000"> fields</text>
</g>
<!-- Node13&#45;&gt;Node14 -->
<g id="edge16" class="edge">
<title>Node13&#45;&gt;Node14</title>
<path fill="none" stroke="#9a32cd" stroke-dasharray="5,2" d="M178.1406,-218.8926C171.6274,-214.7478 164.5916,-210.23 158.1349,-206 143.4541,-196.382 127.0962,-185.355 114.3383,-176.6841"/>
<polygon fill="#9a32cd" stroke="#9a32cd" points="176.2748,-221.8539 186.5948,-224.2514 180.0224,-215.9415 176.2748,-221.8539"/>
<text text-anchor="middle" x="173.1349" y="-198" font-family="Helvetica,sans-Serif" font-size="10.00" fill="#000000"> fields</text>
</g>
<!-- Node14&#45;&gt;Node4 -->
<g id="edge14" class="edge">
<title>Node14&#45;&gt;Node4</title>
<path fill="none" stroke="#ffa500" stroke-dasharray="5,2" d="M108.3041,-138.1445C117.1326,-125.3923 127.8129,-109.9652 135.5709,-98.7592"/>
<polygon fill="#ffa500" stroke="#ffa500" points="105.3611,-136.2466 102.5467,-146.4608 111.1165,-140.2311 105.3611,-136.2466"/>
<text text-anchor="middle" x="147.6349" y="-120" font-family="Helvetica,sans-Serif" font-size="10.00" fill="#000000"> &lt; ICNS &gt;</text>
</g>
</g>
</svg>
        <g id="navigator" transform="translate(0 0)" fill="#404254">
                <rect fill="#f2f5e9" fill-opacity="0.5" stroke="#606060" stroke-width=".5" x="0" y="0" width="60" height="60"/>
                <use id="zoomplus" xlink:href="#zoomPlus" x="17" y="9" onmousedown="handleZoom(evt,'in')"/>
                <use id="zoomminus" xlink:href="#zoomMin" x="42" y="9" onmousedown="handleZoom(evt,'out')"/>
                <use id="reset" xlink:href="#resetDef" x="30" y="36" onmousedown="handleReset()"/>
                <g id="arrowUp" xlink:href="#dirArrow" transform="translate(30 24)" onmousedown="handlePan(0,-1)">
                  <use xlink:href="#rim" fill="#404040">
                        <set attributeName="fill" to="#808080" begin="arrowUp.mouseover" end="arrowUp.mouseout"/>
                  </use>
                  <path fill="none" stroke="white" stroke-width="1.5" d="M0,-3.0v7 M-2.5,-0.5L0,-3.0L2.5,-0.5"/>
                </g>
                <g id="arrowRight" xlink:href="#dirArrow" transform="rotate(90) translate(36 -43)" onmousedown="handlePan(1,0)">
                  <use xlink:href="#rim" fill="#404040">
                        <set attributeName="fill" to="#808080" begin="arrowRight.mouseover" end="arrowRight.mouseout"/>
                  </use>
                  <path fill="none" stroke="white" stroke-width="1.5" d="M0,-3.0v7 M-2.5,-0.5L0,-3.0L2.5,-0.5"/>
                </g>
                <g id="arrowDown" xlink:href="#dirArrow" transform="rotate(180) translate(-30 -48)" onmousedown="handlePan(0,1)">
                  <use xlink:href="#rim" fill="#404040">
                        <set attributeName="fill" to="#808080" begin="arrowDown.mouseover" end="arrowDown.mouseout"/>
                  </use>
                  <path fill="none" stroke="white" stroke-width="1.5" d="M0,-3.0v7 M-2.5,-0.5L0,-3.0L2.5,-0.5"/>
                </g>
                <g id="arrowLeft" xlink:href="#dirArrow" transform="rotate(270) translate(-36 17)" onmousedown="handlePan(-1,0)">
                  <use xlink:href="#rim" fill="#404040">
                        <set attributeName="fill" to="#808080" begin="arrowLeft.mouseover" end="arrowLeft.mouseout"/>
                  </use>
                  <path fill="none" stroke="white" stroke-width="1.5" d="M0,-3.0v7 M-2.5,-0.5L0,-3.0L2.5,-0.5"/>
                </g>
        </g>
        <svg viewBox="0 0 15 15" width="100%" height="30px" preserveAspectRatio="xMaxYMin meet">
         <g id="arrow_out" transform="scale(0.3 0.3)">
          <a xlink:href="structamr__wind_1_1pde_1_1_src_term_op_3_01_i_c_n_s_01_4__coll__graph_org.svg" target="_base">
           <rect id="button" ry="5" rx="5" y="6" x="6" height="38" width="38"
                fill="#f2f5e9" fill-opacity="0.5" stroke="#606060" stroke-width="1.0"/>
           <path id="arrow"
             d="M 11.500037,31.436501 C 11.940474,20.09759 22.043105,11.32322 32.158766,21.979434 L 37.068811,17.246167 C 37.068811,17.246167 37.088388,32 37.088388,32 L 22.160133,31.978069 C 22.160133,31.978069 26.997745,27.140456 26.997745,27.140456 C 18.528582,18.264221 13.291696,25.230495 11.500037,31.436501 z"
             style="fill:#404040;"/>
          </a>
         </g>
        </svg>
</svg>
