<?xml version="1.0" encoding="UTF-8" standalone="no"?>
<!DOCTYPE svg PUBLIC "-//W3C//DTD SVG 1.1//EN"
 "http://www.w3.org/Graphics/SVG/1.1/DTD/svg11.dtd">
<!-- Generated by graphviz version 2.40.1 (20161225.0304)
 -->
<!-- Title: amr_wind::pde::DiffusionOp&lt; ICNS, Scheme &gt; Pages: 1 -->
<!--zoomable 279 -->
<svg id="main" version="1.1" xmlns="http://www.w3.org/2000/svg" xmlns:xlink="http://www.w3.org/1999/xlink" xml:space="preserve" onload="init(evt)">
<style type="text/css"><![CDATA[
.edge:hover path { stroke: red; }
.edge:hover polygon { stroke: red; fill: red; }
]]></style>
<script type="text/javascript"><![CDATA[
var edges = document.getElementsByTagName('g');
if (edges && edges.length) {
  for (var i=0;i<edges.length;i++) {
    if (edges[i].id.substr(0,4)=='edge') {
      edges[i].setAttribute('class','edge');
    }
  }
}
]]></script>
        <defs>
                <circle id="rim" cx="0" cy="0" r="7"/>
                <circle id="rim2" cx="0" cy="0" r="3.5"/>
                <g id="zoomPlus">
                        <use xlink:href="#rim" fill="#404040">
                                <set attributeName="fill" to="#808080" begin="zoomplus.mouseover" end="zoomplus.mouseout"/>
                        </use>
                        <path d="M-4,0h8M0,-4v8" fill="none" stroke="white" stroke-width="1.5" pointer-events="none"/>
                </g>
                <g id="zoomMin">
                        <use xlink:href="#rim" fill="#404040">
                                <set attributeName="fill" to="#808080" begin="zoomminus.mouseover" end="zoomminus.mouseout"/>
                        </use>
                        <path d="M-4,0h8" fill="none" stroke="white" stroke-width="1.5" pointer-events="none"/>
                </g>
                <g id="dirArrow">
                        <path fill="none" stroke="white" stroke-width="1.5" d="M0,-3.0v7 M-2.5,-0.5L0,-3.0L2.5,-0.5"/>
                </g>
               <g id="resetDef">
                       <use xlink:href="#rim2" fill="#404040">
                               <set attributeName="fill" to="#808080" begin="reset.mouseover" end="reset.mouseout"/>
                       </use>
               </g>
        </defs>

<script type="text/javascript">
var viewWidth = 2033;
var viewHeight = 279;
var sectionId = 'dynsection-1';
</script>
<script xlink:href="svgpan.js"/>
<svg id="graph" class="graph">
<g id="viewport">
<title>amr_wind::pde::DiffusionOp&lt; ICNS, Scheme &gt;</title>
<polygon fill="#ffffff" stroke="transparent" points="-4,4 -4,-274.6661 2029,-274.6661 2029,4 -4,4"/>
<!-- Node3 -->
<g id="node1" class="node">
<title>Node3</title>
<polygon fill="#bfbfbf" stroke="#000000" points="1887,-92.6661 1887,-122.6661 2025,-122.6661 2025,-92.6661 1887,-92.6661"/>
<text text-anchor="start" x="1895" y="-110.6661" font-family="Helvetica,sans-Serif" font-size="10.00" fill="#000000">amr_wind::pde::Diffusion</text>
<text text-anchor="middle" x="1956" y="-99.6661" font-family="Helvetica,sans-Serif" font-size="10.00" fill="#000000">Op&lt; ICNS, Scheme &gt;</text>
</g>
<!-- Node4 -->
<g id="node2" class="node">
<title>Node4</title>
<g id="a_node2"><a xlink:href="classamr__wind_1_1pde_1_1_diff_solver_iface.html" target="_top" xlink:title="amr_wind::pde::DiffSolver\lIface\&lt; ICNS::MLDiffOp \&gt;">
<polygon fill="#ffffff" stroke="#000000" points="1707,-92.6661 1707,-122.6661 1850,-122.6661 1850,-92.6661 1707,-92.6661"/>
<text text-anchor="start" x="1715" y="-110.6661" font-family="Helvetica,sans-Serif" font-size="10.00" fill="#000000">amr_wind::pde::DiffSolver</text>
<text text-anchor="middle" x="1778.5" y="-99.6661" font-family="Helvetica,sans-Serif" font-size="10.00" fill="#000000">Iface&lt; ICNS::MLDiffOp &gt;</text>
</a>
</g>
</g>
<!-- Node4&#45;&gt;Node3 -->
<g id="edge1" class="edge">
<title>Node4&#45;&gt;Node3</title>
<path fill="none" stroke="#191970" d="M1860.2089,-107.6661C1869.1409,-107.6661 1878.1687,-107.6661 1886.9272,-107.6661"/>
<polygon fill="#191970" stroke="#191970" points="1860.1844,-104.1662 1850.1844,-107.6661 1860.1844,-111.1662 1860.1844,-104.1662"/>
</g>
<!-- Node5 -->
<g id="node3" class="node">
<title>Node5</title>
<g id="a_node3"><a xlink:href="classamr__wind_1_1_field.html" target="_top" xlink:title="Computational fieldThis is an abstraction of a collection of MultiFabs over multiple levels...">
<polygon fill="#ffffff" stroke="#000000" points="884.5,-24.1661 884.5,-43.1661 977.5,-43.1661 977.5,-24.1661 884.5,-24.1661"/>
<text text-anchor="middle" x="931" y="-31.1661" font-family="Helvetica,sans-Serif" font-size="10.00" fill="#000000">amr_wind::Field</text>
</a>
</g>
</g>
<!-- Node5&#45;&gt;Node4 -->
<g id="edge2" class="edge">
<title>Node5&#45;&gt;Node4</title>
<path fill="none" stroke="#9a32cd" stroke-dasharray="5,2" d="M987.6682,-24.2072C994.506,-23.2516 1001.4021,-22.3743 1008,-21.6661 1060.2366,-16.0592 1073.4864,-16.2223 1126,-14.6661 1324.3015,-8.7894 1375.2106,-17.6577 1571,-49.6661 1623.5706,-58.2605 1637.8663,-55.737 1689,-70.6661 1708.6906,-76.415 1729.9401,-85.0876 1746.7907,-92.5916"/>
<polygon fill="#9a32cd" stroke="#9a32cd" points="987.1249,-20.7493 977.7331,-25.6527 988.1328,-27.6764 987.1249,-20.7493"/>
<text text-anchor="middle" x="1348" y="-27.6661" font-family="Helvetica,sans-Serif" font-size="10.00" fill="#000000"> m_density</text>
</g>
<!-- Node14 -->
<g id="node12" class="node">
<title>Node14</title>
<g id="a_node12"><a xlink:href="structamr__wind_1_1pde_1_1_p_d_e_fields.html" target="_top" xlink:title="Collection of fields related to a PDEEvery PDE requires a common set of fields, e.g., the transported variable (scalar or vector), advection, diffusion, source, and effective viscosity fields. ">
<polygon fill="#ffffff" stroke="#000000" points="1126,-24.1661 1126,-43.1661 1268,-43.1661 1268,-24.1661 1126,-24.1661"/>
<text text-anchor="middle" x="1197" y="-31.1661" font-family="Helvetica,sans-Serif" font-size="10.00" fill="#000000">amr_wind::pde::PDEFields</text>
</a>
</g>
</g>
<!-- Node5&#45;&gt;Node14 -->
<g id="edge14" class="edge">
<title>Node5&#45;&gt;Node14</title>
<path fill="none" stroke="#9a32cd" stroke-dasharray="5,2" d="M988.1859,-27.8874C994.8599,-27.3849 1001.5761,-26.9575 1008,-26.6661 1052.3988,-24.6521 1063.5898,-24.9223 1108,-26.6661 1113.7303,-26.8911 1119.6633,-27.1973 1125.6207,-27.5565"/>
<polygon fill="#9a32cd" stroke="#9a32cd" points="987.4658,-24.4341 977.7809,-28.7298 988.0308,-31.4113 987.4658,-24.4341"/>
<text text-anchor="middle" x="1058" y="-73.6661" font-family="Helvetica,sans-Serif" font-size="10.00" fill="#000000"> src_term</text>
<text text-anchor="middle" x="1058" y="-62.6661" font-family="Helvetica,sans-Serif" font-size="10.00" fill="#000000">field</text>
<text text-anchor="middle" x="1058" y="-51.6661" font-family="Helvetica,sans-Serif" font-size="10.00" fill="#000000">diff_term</text>
<text text-anchor="middle" x="1058" y="-40.6661" font-family="Helvetica,sans-Serif" font-size="10.00" fill="#000000">mueff</text>
<text text-anchor="middle" x="1058" y="-29.6661" font-family="Helvetica,sans-Serif" font-size="10.00" fill="#000000">conv_term</text>
</g>
<!-- Node17 -->
<g id="node15" class="node">
<title>Node17</title>
<g id="a_node15"><a xlink:href="classamr__wind_1_1pde_1_1_diff_solver_iface.html" target="_top" xlink:title="Base class for all diffusion operatorsThis class provides the common operations for an implicit solut...">
<polygon fill="#ffffff" stroke="#000000" points="1428,-92.6661 1428,-122.6661 1571,-122.6661 1571,-92.6661 1428,-92.6661"/>
<text text-anchor="start" x="1436" y="-110.6661" font-family="Helvetica,sans-Serif" font-size="10.00" fill="#000000">amr_wind::pde::DiffSolver</text>
<text text-anchor="middle" x="1499.5" y="-99.6661" font-family="Helvetica,sans-Serif" font-size="10.00" fill="#000000">Iface&lt; LinOp &gt;</text>
</a>
</g>
</g>
<!-- Node5&#45;&gt;Node17 -->
<g id="edge20" class="edge">
<title>Node5&#45;&gt;Node17</title>
<path fill="none" stroke="#9a32cd" stroke-dasharray="5,2" d="M950.2215,-49.5237C965.0224,-60.7251 986.5224,-74.9011 1008,-81.6661 1046.8662,-93.9081 1300.6933,-102.3418 1427.5606,-105.8457"/>
<polygon fill="#9a32cd" stroke="#9a32cd" points="952.3645,-46.7564 942.3319,-43.3507 948.0509,-52.2695 952.3645,-46.7564"/>
<text text-anchor="middle" x="1197" y="-103.6661" font-family="Helvetica,sans-Serif" font-size="10.00" fill="#000000"> m_density</text>
</g>
<!-- Node6 -->
<g id="node4" class="node">
<title>Node6</title>
<g id="a_node4"><a xlink:title="STL class. ">
<polygon fill="#ffffff" stroke="#bfbfbf" points="213.5,-126.1661 213.5,-145.1661 278.5,-145.1661 278.5,-126.1661 213.5,-126.1661"/>
<text text-anchor="middle" x="246" y="-133.1661" font-family="Helvetica,sans-Serif" font-size="10.00" fill="#000000">std::string</text>
</a>
</g>
</g>
<!-- Node6&#45;&gt;Node5 -->
<g id="edge3" class="edge">
<title>Node6&#45;&gt;Node5</title>
<path fill="none" stroke="#9a32cd" stroke-dasharray="5,2" d="M288.6625,-133.2714C326.006,-130.9722 381.6886,-127.0527 430,-121.6661 533.1337,-110.1669 558.7543,-105.4032 661,-87.6661 740.8343,-73.8168 833.3155,-54.634 886.6979,-43.2518"/>
<polygon fill="#9a32cd" stroke="#9a32cd" points="288.4082,-129.7802 278.6374,-133.8768 288.8302,-136.7675 288.4082,-129.7802"/>
<text text-anchor="middle" x="624.5" y="-103.6661" font-family="Helvetica,sans-Serif" font-size="10.00" fill="#000000"> m_name</text>
</g>
<!-- Node9 -->
<g id="node7" class="node">
<title>Node9</title>
<polygon fill="#ffffff" stroke="#bfbfbf" points="448,-60.6661 448,-90.6661 570,-90.6661 570,-60.6661 448,-60.6661"/>
<text text-anchor="start" x="456" y="-78.6661" font-family="Helvetica,sans-Serif" font-size="10.00" fill="#000000">std::unordered_map</text>
<text text-anchor="middle" x="509" y="-67.6661" font-family="Helvetica,sans-Serif" font-size="10.00" fill="#000000">&lt; std::string, size_t &gt;</text>
</g>
<!-- Node6&#45;&gt;Node9 -->
<g id="edge7" class="edge">
<title>Node6&#45;&gt;Node9</title>
<path fill="none" stroke="#9a32cd" stroke-dasharray="5,2" d="M281.3208,-122.7797C293.7527,-118.5417 307.8931,-114.0534 321,-110.6661 362.9474,-99.8252 410.982,-90.9418 447.9972,-84.8373"/>
<polygon fill="#9a32cd" stroke="#9a32cd" points="280.0662,-119.5103 271.7693,-126.0991 282.3641,-126.1224 280.0662,-119.5103"/>
<text text-anchor="middle" x="375.5" y="-113.6661" font-family="Helvetica,sans-Serif" font-size="10.00" fill="#000000"> keys</text>
</g>
<!-- Node13 -->
<g id="node11" class="node">
<title>Node13</title>
<g id="a_node11"><a xlink:href="structamr__wind_1_1_m_l_m_g_options.html" target="_top" xlink:title="Interface to control the behavior of AMReX LinearSolvers. ">
<polygon fill="#ffffff" stroke="#000000" points="1128.5,-201.1661 1128.5,-220.1661 1265.5,-220.1661 1265.5,-201.1661 1128.5,-201.1661"/>
<text text-anchor="middle" x="1197" y="-208.1661" font-family="Helvetica,sans-Serif" font-size="10.00" fill="#000000">amr_wind::MLMGOptions</text>
</a>
</g>
</g>
<!-- Node6&#45;&gt;Node13 -->
<g id="edge12" class="edge">
<title>Node6&#45;&gt;Node13</title>
<path fill="none" stroke="#9a32cd" stroke-dasharray="5,2" d="M278.9702,-148.8544C328.2013,-167.3255 424.2242,-198.6661 509,-198.6661 509,-198.6661 509,-198.6661 931,-198.6661 998.1455,-198.6661 1074.7282,-202.5292 1128.4233,-205.8716"/>
<polygon fill="#9a32cd" stroke="#9a32cd" points="280.0711,-145.5283 269.4803,-145.2344 277.5762,-152.0687 280.0711,-145.5283"/>
<text text-anchor="middle" x="737.5" y="-223.6661" font-family="Helvetica,sans-Serif" font-size="10.00" fill="#000000"> hypre_namespace</text>
<text text-anchor="middle" x="737.5" y="-212.6661" font-family="Helvetica,sans-Serif" font-size="10.00" fill="#000000">bottom_solver_type</text>
<text text-anchor="middle" x="737.5" y="-201.6661" font-family="Helvetica,sans-Serif" font-size="10.00" fill="#000000">hypre_interface</text>
</g>
<!-- Node7 -->
<g id="node5" class="node">
<title>Node7</title>
<g id="a_node5"><a xlink:title="STL class. ">
<polygon fill="#ffffff" stroke="#bfbfbf" points="0,-120.6661 0,-150.6661 104,-150.6661 104,-120.6661 0,-120.6661"/>
<text text-anchor="start" x="8" y="-138.6661" font-family="Helvetica,sans-Serif" font-size="10.00" fill="#000000">std::basic_string&lt;</text>
<text text-anchor="middle" x="52" y="-127.6661" font-family="Helvetica,sans-Serif" font-size="10.00" fill="#000000"> char &gt;</text>
</a>
</g>
</g>
<!-- Node7&#45;&gt;Node6 -->
<g id="edge4" class="edge">
<title>Node7&#45;&gt;Node6</title>
<path fill="none" stroke="#191970" d="M114.2675,-135.6661C147.2713,-135.6661 186.4557,-135.6661 213.4613,-135.6661"/>
<polygon fill="#191970" stroke="#191970" points="114.2437,-132.1662 104.2436,-135.6661 114.2436,-139.1662 114.2437,-132.1662"/>
</g>
<!-- Node8 -->
<g id="node6" class="node">
<title>Node8</title>
<g id="a_node6"><a xlink:href="classamr__wind_1_1_field_repo.html" target="_top" xlink:title="Field RepositoryFieldRepo is a database that manages handling of fields used during a simulation...">
<polygon fill="#ffffff" stroke="#000000" points="679,-24.1661 679,-43.1661 796,-43.1661 796,-24.1661 679,-24.1661"/>
<text text-anchor="middle" x="737.5" y="-31.1661" font-family="Helvetica,sans-Serif" font-size="10.00" fill="#000000">amr_wind::FieldRepo</text>
</a>
</g>
</g>
<!-- Node8&#45;&gt;Node5 -->
<g id="edge5" class="edge">
<title>Node8&#45;&gt;Node5</title>
<path fill="none" stroke="#9a32cd" stroke-dasharray="5,2" d="M806.208,-33.6661C832.0742,-33.6661 860.8674,-33.6661 884.2728,-33.6661"/>
<polygon fill="#9a32cd" stroke="#9a32cd" points="806.0815,-30.1662 796.0815,-33.6661 806.0815,-37.1662 806.0815,-30.1662"/>
<text text-anchor="middle" x="834" y="-36.6661" font-family="Helvetica,sans-Serif" font-size="10.00" fill="#000000"> m_repo</text>
</g>
<!-- Node8&#45;&gt;Node14 -->
<g id="edge15" class="edge">
<title>Node8&#45;&gt;Node14</title>
<path fill="none" stroke="#9a32cd" stroke-dasharray="5,2" d="M780.577,-21.5262C806.7712,-14.7804 841.0341,-7.0776 872,-3.6661 972.8176,7.4411 1091.5428,-11.6516 1153.8426,-24.142"/>
<polygon fill="#9a32cd" stroke="#9a32cd" points="779.3801,-18.2219 770.5989,-24.1498 781.1602,-24.9918 779.3801,-18.2219"/>
<text text-anchor="middle" x="931" y="-6.6661" font-family="Helvetica,sans-Serif" font-size="10.00" fill="#000000"> repo</text>
</g>
<!-- Node9&#45;&gt;Node8 -->
<g id="edge6" class="edge">
<title>Node9&#45;&gt;Node8</title>
<path fill="none" stroke="#9a32cd" stroke-dasharray="5,2" d="M580.1662,-62.5852C614.35,-56.302 654.5627,-48.9106 685.777,-43.1732"/>
<polygon fill="#9a32cd" stroke="#9a32cd" points="579.4363,-59.1606 570.2338,-64.4108 580.7018,-66.0453 579.4363,-59.1606"/>
<text text-anchor="middle" x="624.5" y="-75.6661" font-family="Helvetica,sans-Serif" font-size="10.00" fill="#000000"> m_fid_map</text>
<text text-anchor="middle" x="624.5" y="-64.6661" font-family="Helvetica,sans-Serif" font-size="10.00" fill="#000000">m_int_fid_map</text>
</g>
<!-- Node10 -->
<g id="node8" class="node">
<title>Node10</title>
<g id="a_node8"><a xlink:title="STL class. ">
<polygon fill="#ffffff" stroke="#bfbfbf" points="189,-68.6661 189,-98.6661 303,-98.6661 303,-68.6661 189,-68.6661"/>
<text text-anchor="start" x="197" y="-86.6661" font-family="Helvetica,sans-Serif" font-size="10.00" fill="#000000">std::unordered_map</text>
<text text-anchor="middle" x="246" y="-75.6661" font-family="Helvetica,sans-Serif" font-size="10.00" fill="#000000">&lt; K, T &gt;</text>
</a>
</g>
</g>
<!-- Node10&#45;&gt;Node9 -->
<g id="edge8" class="edge">
<title>Node10&#45;&gt;Node9</title>
<path fill="none" stroke="#ffa500" stroke-dasharray="5,2" d="M313.3402,-77.0965C315.9253,-76.9346 318.4856,-76.7899 321,-76.6661 363.2168,-74.5877 410.8301,-74.3562 447.5771,-74.6348"/>
<polygon fill="#ffa500" stroke="#ffa500" points="313.0231,-73.61 303.2909,-77.7975 313.5103,-80.593 313.0231,-73.61"/>
<text text-anchor="middle" x="375.5" y="-79.6661" font-family="Helvetica,sans-Serif" font-size="10.00" fill="#000000"> &lt; std::string, size_t &gt;</text>
</g>
<!-- Node11 -->
<g id="node9" class="node">
<title>Node11</title>
<polygon fill="#ffffff" stroke="#bfbfbf" points="37.5,-74.1661 37.5,-93.1661 66.5,-93.1661 66.5,-74.1661 37.5,-74.1661"/>
<text text-anchor="middle" x="52" y="-81.1661" font-family="Helvetica,sans-Serif" font-size="10.00" fill="#000000">K</text>
</g>
<!-- Node11&#45;&gt;Node10 -->
<g id="edge9" class="edge">
<title>Node11&#45;&gt;Node10</title>
<path fill="none" stroke="#9a32cd" stroke-dasharray="5,2" d="M76.7174,-83.6661C104.8185,-83.6661 151.6251,-83.6661 188.9063,-83.6661"/>
<polygon fill="#9a32cd" stroke="#9a32cd" points="76.5816,-80.1662 66.5815,-83.6661 76.5815,-87.1662 76.5816,-80.1662"/>
<text text-anchor="middle" x="146.5" y="-86.6661" font-family="Helvetica,sans-Serif" font-size="10.00" fill="#000000"> keys</text>
</g>
<!-- Node12 -->
<g id="node10" class="node">
<title>Node12</title>
<polygon fill="#ffffff" stroke="#bfbfbf" points="37.5,-221.1661 37.5,-240.1661 66.5,-240.1661 66.5,-221.1661 37.5,-221.1661"/>
<text text-anchor="middle" x="52" y="-228.1661" font-family="Helvetica,sans-Serif" font-size="10.00" fill="#000000">T</text>
</g>
<!-- Node12&#45;&gt;Node10 -->
<g id="edge10" class="edge">
<title>Node12&#45;&gt;Node10</title>
<path fill="none" stroke="#9a32cd" stroke-dasharray="5,2" d="M69.8737,-214.103C95.3048,-190.9385 143.8651,-148.1719 189,-116.6661 198.095,-110.3174 208.4811,-104.0421 217.8743,-98.6959"/>
<polygon fill="#9a32cd" stroke="#9a32cd" points="67.1795,-211.8247 62.1743,-221.1627 71.9103,-216.9841 67.1795,-211.8247"/>
<text text-anchor="middle" x="146.5" y="-169.6661" font-family="Helvetica,sans-Serif" font-size="10.00" fill="#000000"> elements</text>
</g>
<!-- Node16 -->
<g id="node14" class="node">
<title>Node16</title>
<g id="a_node14"><a xlink:title="STL class. ">
<polygon fill="#ffffff" stroke="#bfbfbf" points="872,-151.1661 872,-170.1661 990,-170.1661 990,-151.1661 872,-151.1661"/>
<text text-anchor="middle" x="931" y="-158.1661" font-family="Helvetica,sans-Serif" font-size="10.00" fill="#000000">std::unique_ptr&lt; T &gt;</text>
</a>
</g>
</g>
<!-- Node12&#45;&gt;Node16 -->
<g id="edge18" class="edge">
<title>Node12&#45;&gt;Node16</title>
<path fill="none" stroke="#9a32cd" stroke-dasharray="5,2" d="M76.8057,-236.7863C113.5269,-245.2953 184.6296,-259.6661 246,-259.6661 246,-259.6661 246,-259.6661 737.5,-259.6661 815.2346,-259.6661 893.1606,-195.5614 920.6351,-170.5205"/>
<polygon fill="#9a32cd" stroke="#9a32cd" points="77.5163,-233.3579 66.9787,-234.4573 75.902,-240.1692 77.5163,-233.3579"/>
<text text-anchor="middle" x="509" y="-262.6661" font-family="Helvetica,sans-Serif" font-size="10.00" fill="#000000"> ptr</text>
</g>
<!-- Node13&#45;&gt;Node4 -->
<g id="edge11" class="edge">
<title>Node13&#45;&gt;Node4</title>
<path fill="none" stroke="#9a32cd" stroke-dasharray="5,2" d="M1269.5935,-221.2682C1275.1365,-221.8283 1280.6526,-222.3072 1286,-222.6661 1340.9874,-226.3564 1355.24,-228.8774 1410,-222.6661 1538.1889,-208.1258 1681.956,-150.4279 1745.3908,-122.6989"/>
<polygon fill="#9a32cd" stroke="#9a32cd" points="1269.9381,-217.7851 1259.6176,-220.1805 1269.1793,-224.7439 1269.9381,-217.7851"/>
<text text-anchor="middle" x="1499.5" y="-221.6661" font-family="Helvetica,sans-Serif" font-size="10.00" fill="#000000"> m_options</text>
</g>
<!-- Node13&#45;&gt;Node17 -->
<g id="edge23" class="edge">
<title>Node13&#45;&gt;Node17</title>
<path fill="none" stroke="#9a32cd" stroke-dasharray="5,2" d="M1275.8603,-210.8634C1327.5438,-209.4485 1389.2417,-204.3358 1410,-188.6661 1427.1923,-175.6882 1413.4368,-159.5378 1428,-143.6661 1435.9867,-134.9618 1446.5522,-128.0689 1457.1035,-122.7441"/>
<polygon fill="#9a32cd" stroke="#9a32cd" points="1275.5886,-207.3687 1265.6722,-211.0992 1275.7505,-214.3668 1275.5886,-207.3687"/>
<text text-anchor="middle" x="1348" y="-212.6661" font-family="Helvetica,sans-Serif" font-size="10.00" fill="#000000"> m_options</text>
</g>
<!-- Node14&#45;&gt;Node4 -->
<g id="edge13" class="edge">
<title>Node14&#45;&gt;Node4</title>
<path fill="none" stroke="#9a32cd" stroke-dasharray="5,2" d="M1278.2563,-39.1918C1318.0157,-42.1401 1366.5576,-46.1022 1410,-50.6661 1481.7667,-58.2057 1499.6566,-60.8293 1571,-71.6661 1616.1848,-78.5294 1666.7157,-87.2734 1706.5989,-94.425"/>
<polygon fill="#9a32cd" stroke="#9a32cd" points="1278.3114,-35.6865 1268.082,-38.4452 1277.799,-42.6677 1278.3114,-35.6865"/>
<text text-anchor="middle" x="1499.5" y="-74.6661" font-family="Helvetica,sans-Serif" font-size="10.00" fill="#000000"> m_pdefields</text>
</g>
<!-- Node14&#45;&gt;Node17 -->
<g id="edge24" class="edge">
<title>Node14&#45;&gt;Node17</title>
<path fill="none" stroke="#9a32cd" stroke-dasharray="5,2" d="M1265.6694,-44.8206C1322.5377,-54.187 1396.1841,-66.6633 1410,-70.6661 1429.7024,-76.3743 1450.9524,-85.045 1467.8004,-92.5582"/>
<polygon fill="#9a32cd" stroke="#9a32cd" points="1266.0594,-41.3378 1255.6241,-43.1697 1264.9241,-48.2452 1266.0594,-41.3378"/>
<text text-anchor="middle" x="1348" y="-73.6661" font-family="Helvetica,sans-Serif" font-size="10.00" fill="#000000"> m_pdefields</text>
</g>
<!-- Node15 -->
<g id="node13" class="node">
<title>Node15</title>
<polygon fill="#ffffff" stroke="#bfbfbf" points="1286,-156.6661 1286,-186.6661 1410,-186.6661 1410,-156.6661 1286,-156.6661"/>
<text text-anchor="start" x="1294" y="-174.6661" font-family="Helvetica,sans-Serif" font-size="10.00" fill="#000000">std::unique_ptr&lt; ICNS</text>
<text text-anchor="middle" x="1348" y="-163.6661" font-family="Helvetica,sans-Serif" font-size="10.00" fill="#000000">::MLDiffOp &gt;</text>
</g>
<!-- Node15&#45;&gt;Node4 -->
<g id="edge16" class="edge">
<title>Node15&#45;&gt;Node4</title>
<path fill="none" stroke="#9a32cd" stroke-dasharray="5,2" d="M1420.1987,-161.7895C1489.2706,-152.223 1596.3406,-137.0862 1689,-122.6661 1694.76,-121.7697 1700.7246,-120.8191 1706.7143,-119.8486"/>
<polygon fill="#9a32cd" stroke="#9a32cd" points="1419.716,-158.3229 1410.2897,-163.1598 1420.6749,-165.2569 1419.716,-158.3229"/>
<text text-anchor="middle" x="1499.5" y="-173.6661" font-family="Helvetica,sans-Serif" font-size="10.00" fill="#000000"> m_applier</text>
<text text-anchor="middle" x="1499.5" y="-162.6661" font-family="Helvetica,sans-Serif" font-size="10.00" fill="#000000">m_solver</text>
</g>
<!-- Node16&#45;&gt;Node15 -->
<g id="edge17" class="edge">
<title>Node16&#45;&gt;Node15</title>
<path fill="none" stroke="#ffa500" stroke-dasharray="5,2" d="M1000.7223,-162.5053C1080.3675,-164.6062 1209.5007,-168.0126 1285.8406,-170.0264"/>
<polygon fill="#ffa500" stroke="#ffa500" points="1000.3919,-158.9954 990.3031,-162.2304 1000.2073,-165.993 1000.3919,-158.9954"/>
<text text-anchor="middle" x="1058" y="-167.6661" font-family="Helvetica,sans-Serif" font-size="10.00" fill="#000000"> &lt; ICNS::MLDiffOp &gt;</text>
</g>
<!-- Node18 -->
<g id="node16" class="node">
<title>Node18</title>
<polygon fill="#ffffff" stroke="#bfbfbf" points="1127,-125.1661 1127,-144.1661 1267,-144.1661 1267,-125.1661 1127,-125.1661"/>
<text text-anchor="middle" x="1197" y="-132.1661" font-family="Helvetica,sans-Serif" font-size="10.00" fill="#000000">std::unique_ptr&lt; LinOp &gt;</text>
</g>
<!-- Node16&#45;&gt;Node18 -->
<g id="edge22" class="edge">
<title>Node16&#45;&gt;Node18</title>
<path fill="none" stroke="#ffa500" stroke-dasharray="5,2" d="M969.4045,-148.2489C981.6127,-144.8284 995.2557,-141.5446 1008,-139.6661 1046.9677,-133.9221 1090.9315,-132.4644 1126.6453,-132.5368"/>
<polygon fill="#ffa500" stroke="#ffa500" points="968.1584,-144.9664 959.5383,-151.1264 970.1184,-151.6864 968.1584,-144.9664"/>
<text text-anchor="middle" x="1058" y="-142.6661" font-family="Helvetica,sans-Serif" font-size="10.00" fill="#000000"> &lt; LinOp &gt;</text>
</g>
<!-- Node17&#45;&gt;Node4 -->
<g id="edge19" class="edge">
<title>Node17&#45;&gt;Node4</title>
<path fill="none" stroke="#ffa500" stroke-dasharray="5,2" d="M1581.5499,-107.6661C1621.3089,-107.6661 1668.6121,-107.6661 1706.894,-107.6661"/>
<polygon fill="#ffa500" stroke="#ffa500" points="1581.3495,-104.1662 1571.3494,-107.6661 1581.3494,-111.1662 1581.3495,-104.1662"/>
<text text-anchor="middle" x="1639" y="-110.6661" font-family="Helvetica,sans-Serif" font-size="10.00" fill="#000000"> &lt; ICNS::MLDiffOp &gt;</text>
</g>
<!-- Node18&#45;&gt;Node17 -->
<g id="edge21" class="edge">
<title>Node18&#45;&gt;Node17</title>
<path fill="none" stroke="#9a32cd" stroke-dasharray="5,2" d="M1277.3903,-126.4752C1280.2959,-126.1987 1283.173,-125.9282 1286,-125.6661 1333.2243,-121.2879 1386.3676,-116.8059 1427.82,-113.4095"/>
<polygon fill="#9a32cd" stroke="#9a32cd" points="1277.051,-122.9916 1267.4326,-127.4343 1277.7222,-129.9593 1277.051,-122.9916"/>
<text text-anchor="middle" x="1348" y="-139.6661" font-family="Helvetica,sans-Serif" font-size="10.00" fill="#000000"> m_applier</text>
<text text-anchor="middle" x="1348" y="-128.6661" font-family="Helvetica,sans-Serif" font-size="10.00" fill="#000000">m_solver</text>
</g>
</g>
</svg>
        <g id="navigator" transform="translate(0 0)" fill="#404254">
                <rect fill="#f2f5e9" fill-opacity="0.5" stroke="#606060" stroke-width=".5" x="0" y="0" width="60" height="60"/>
                <use id="zoomplus" xlink:href="#zoomPlus" x="17" y="9" onmousedown="handleZoom(evt,'in')"/>
                <use id="zoomminus" xlink:href="#zoomMin" x="42" y="9" onmousedown="handleZoom(evt,'out')"/>
                <use id="reset" xlink:href="#resetDef" x="30" y="36" onmousedown="handleReset()"/>
                <g id="arrowUp" xlink:href="#dirArrow" transform="translate(30 24)" onmousedown="handlePan(0,-1)">
                  <use xlink:href="#rim" fill="#404040">
                        <set attributeName="fill" to="#808080" begin="arrowUp.mouseover" end="arrowUp.mouseout"/>
                  </use>
                  <path fill="none" stroke="white" stroke-width="1.5" d="M0,-3.0v7 M-2.5,-0.5L0,-3.0L2.5,-0.5"/>
                </g>
                <g id="arrowRight" xlink:href="#dirArrow" transform="rotate(90) translate(36 -43)" onmousedown="handlePan(1,0)">
                  <use xlink:href="#rim" fill="#404040">
                        <set attributeName="fill" to="#808080" begin="arrowRight.mouseover" end="arrowRight.mouseout"/>
                  </use>
                  <path fill="none" stroke="white" stroke-width="1.5" d="M0,-3.0v7 M-2.5,-0.5L0,-3.0L2.5,-0.5"/>
                </g>
                <g id="arrowDown" xlink:href="#dirArrow" transform="rotate(180) translate(-30 -48)" onmousedown="handlePan(0,1)">
                  <use xlink:href="#rim" fill="#404040">
                        <set attributeName="fill" to="#808080" begin="arrowDown.mouseover" end="arrowDown.mouseout"/>
                  </use>
                  <path fill="none" stroke="white" stroke-width="1.5" d="M0,-3.0v7 M-2.5,-0.5L0,-3.0L2.5,-0.5"/>
                </g>
                <g id="arrowLeft" xlink:href="#dirArrow" transform="rotate(270) translate(-36 17)" onmousedown="handlePan(-1,0)">
                  <use xlink:href="#rim" fill="#404040">
                        <set attributeName="fill" to="#808080" begin="arrowLeft.mouseover" end="arrowLeft.mouseout"/>
                  </use>
                  <path fill="none" stroke="white" stroke-width="1.5" d="M0,-3.0v7 M-2.5,-0.5L0,-3.0L2.5,-0.5"/>
                </g>
        </g>
        <svg viewBox="0 0 15 15" width="100%" height="30px" preserveAspectRatio="xMaxYMin meet">
         <g id="arrow_out" transform="scale(0.3 0.3)">
          <a xlink:href="structamr__wind_1_1pde_1_1_diffusion_op_3_01_i_c_n_s_00_01_scheme_01_4__coll__graph_org.svg" target="_base">
           <rect id="button" ry="5" rx="5" y="6" x="6" height="38" width="38"
                fill="#f2f5e9" fill-opacity="0.5" stroke="#606060" stroke-width="1.0"/>
           <path id="arrow"
             d="M 11.500037,31.436501 C 11.940474,20.09759 22.043105,11.32322 32.158766,21.979434 L 37.068811,17.246167 C 37.068811,17.246167 37.088388,32 37.088388,32 L 22.160133,31.978069 C 22.160133,31.978069 26.997745,27.140456 26.997745,27.140456 C 18.528582,18.264221 13.291696,25.230495 11.500037,31.436501 z"
             style="fill:#404040;"/>
          </a>
         </g>
        </svg>
</svg>
