<?xml version="1.0" encoding="UTF-8" standalone="no"?>
<!DOCTYPE svg PUBLIC "-//W3C//DTD SVG 1.1//EN"
 "http://www.w3.org/Graphics/SVG/1.1/DTD/svg11.dtd">
<!-- Generated by graphviz version 2.40.1 (20161225.0304)
 -->
<!-- Title: amr_wind::pde::SrcTermOpBase&lt; PDE &gt; Pages: 1 -->
<svg width="320pt" height="185pt"
 viewBox="0.00 0.00 320.00 185.00" xmlns="http://www.w3.org/2000/svg" xmlns:xlink="http://www.w3.org/1999/xlink">
<g id="graph0" class="graph" transform="scale(1 1) rotate(0) translate(4 181)">
<title>amr_wind::pde::SrcTermOpBase&lt; PDE &gt;</title>
<polygon fill="#ffffff" stroke="transparent" points="-4,4 -4,-181 316,-181 316,4 -4,4"/>
<!-- Node0 -->
<g id="node1" class="node">
<title>Node0</title>
<polygon fill="#bfbfbf" stroke="#000000" points="49,-146.5 49,-176.5 196,-176.5 196,-146.5 49,-146.5"/>
<text text-anchor="start" x="57" y="-164.5" font-family="Helvetica,sans-Serif" font-size="10.00" fill="#000000">amr_wind::pde::SrcTermOp</text>
<text text-anchor="middle" x="122.5" y="-153.5" font-family="Helvetica,sans-Serif" font-size="10.00" fill="#000000">Base&lt; PDE &gt;</text>
</g>
<!-- Node1 -->
<g id="node2" class="node">
<title>Node1</title>
<g id="a_node2"><a xlink:href="structamr__wind_1_1pde_1_1_src_term_op.html" target="_top" xlink:title="Implementation of source terms for scalar transport equations. ">
<polygon fill="#ffffff" stroke="#000000" points="0,-68.5 0,-98.5 147,-98.5 147,-68.5 0,-68.5"/>
<text text-anchor="start" x="8" y="-86.5" font-family="Helvetica,sans-Serif" font-size="10.00" fill="#000000">amr_wind::pde::SrcTermOp</text>
<text text-anchor="middle" x="73.5" y="-75.5" font-family="Helvetica,sans-Serif" font-size="10.00" fill="#000000">&lt; PDE &gt;</text>
</a>
</g>
</g>
<!-- Node0&#45;&gt;Node1 -->
<g id="edge1" class="edge">
<title>Node0&#45;&gt;Node1</title>
<path fill="none" stroke="#191970" d="M107.5964,-137.7759C99.6308,-125.096 90.0579,-109.8574 83.0859,-98.7592"/>
<polygon fill="#191970" stroke="#191970" points="104.769,-139.8549 113.0523,-146.4608 110.6965,-136.1312 104.769,-139.8549"/>
</g>
<!-- Node2 -->
<g id="node3" class="node">
<title>Node2</title>
<g id="a_node3"><a xlink:href="structamr__wind_1_1pde_1_1_src_term_op_base.html" target="_top" xlink:title="amr_wind::pde::SrcTermOp\lBase\&lt; ICNS \&gt;">
<polygon fill="#ffffff" stroke="#000000" points="165,-68.5 165,-98.5 312,-98.5 312,-68.5 165,-68.5"/>
<text text-anchor="start" x="173" y="-86.5" font-family="Helvetica,sans-Serif" font-size="10.00" fill="#000000">amr_wind::pde::SrcTermOp</text>
<text text-anchor="middle" x="238.5" y="-75.5" font-family="Helvetica,sans-Serif" font-size="10.00" fill="#000000">Base&lt; ICNS &gt;</text>
</a>
</g>
</g>
<!-- Node0&#45;&gt;Node2 -->
<g id="edge2" class="edge">
<title>Node0&#45;&gt;Node2</title>
<path fill="none" stroke="#ffa500" stroke-dasharray="5,2" d="M153.1968,-140.8591C172.8569,-127.6393 197.9397,-110.7733 215.8069,-98.7592"/>
<polygon fill="#ffa500" stroke="#ffa500" points="151.2114,-137.9763 144.866,-146.4608 155.1174,-143.7853 151.2114,-137.9763"/>
<text text-anchor="middle" x="211" y="-120" font-family="Helvetica,sans-Serif" font-size="10.00" fill="#000000"> &lt; ICNS &gt;</text>
</g>
<!-- Node3 -->
<g id="node4" class="node">
<title>Node3</title>
<g id="a_node4"><a xlink:href="structamr__wind_1_1pde_1_1_src_term_op_3_01_i_c_n_s_01_4.html" target="_top" xlink:title="Specialization of the source term operator for ICNS. ">
<polygon fill="#ffffff" stroke="#000000" points="165,-.5 165,-30.5 312,-30.5 312,-.5 165,-.5"/>
<text text-anchor="start" x="173" y="-18.5" font-family="Helvetica,sans-Serif" font-size="10.00" fill="#000000">amr_wind::pde::SrcTermOp</text>
<text text-anchor="middle" x="238.5" y="-7.5" font-family="Helvetica,sans-Serif" font-size="10.00" fill="#000000">&lt; ICNS &gt;</text>
</a>
</g>
</g>
<!-- Node2&#45;&gt;Node3 -->
<g id="edge3" class="edge">
<title>Node2&#45;&gt;Node3</title>
<path fill="none" stroke="#191970" d="M238.5,-58.1174C238.5,-48.8378 238.5,-38.6413 238.5,-30.5492"/>
<polygon fill="#191970" stroke="#191970" points="235.0001,-58.4086 238.5,-68.4086 242.0001,-58.4086 235.0001,-58.4086"/>
</g>
</g>
</svg>
