<?xml version="1.0" encoding="UTF-8" standalone="no"?>
<!DOCTYPE svg PUBLIC "-//W3C//DTD SVG 1.1//EN"
 "http://www.w3.org/Graphics/SVG/1.1/DTD/svg11.dtd">
<!-- Generated by graphviz version 2.40.1 (20161225.0304)
 -->
<!-- Title: amr_wind::actuator::FlatPlateData Pages: 1 -->
<svg width="248pt" height="117pt"
 viewBox="0.00 0.00 248.00 117.00" xmlns="http://www.w3.org/2000/svg" xmlns:xlink="http://www.w3.org/1999/xlink">
<g id="graph0" class="graph" transform="scale(1 1) rotate(0) translate(4 113)">
<title>amr_wind::actuator::FlatPlateData</title>
<polygon fill="#ffffff" stroke="transparent" points="-4,4 -4,-113 244,-113 244,4 -4,4"/>
<!-- Node2 -->
<g id="node1" class="node">
<title>Node2</title>
<polygon fill="#bfbfbf" stroke="#000000" points="64,-.5 64,-30.5 175,-30.5 175,-.5 64,-.5"/>
<text text-anchor="start" x="72" y="-18.5" font-family="Helvetica,sans-Serif" font-size="10.00" fill="#000000">amr_wind::actuator</text>
<text text-anchor="middle" x="119.5" y="-7.5" font-family="Helvetica,sans-Serif" font-size="10.00" fill="#000000">::FlatPlateData</text>
</g>
<!-- Node3 -->
<g id="node2" class="node">
<title>Node3</title>
<g id="a_node2"><a xlink:href="structamr__wind_1_1actuator_1_1_wing_base_data.html" target="_top" xlink:title="Base data representation of a fixed&#45;wing. ">
<polygon fill="#ffffff" stroke="#000000" points="0,-78.5 0,-108.5 111,-108.5 111,-78.5 0,-78.5"/>
<text text-anchor="start" x="8" y="-96.5" font-family="Helvetica,sans-Serif" font-size="10.00" fill="#000000">amr_wind::actuator</text>
<text text-anchor="middle" x="55.5" y="-85.5" font-family="Helvetica,sans-Serif" font-size="10.00" fill="#000000">::WingBaseData</text>
</a>
</g>
</g>
<!-- Node3&#45;&gt;Node2 -->
<g id="edge1" class="edge">
<title>Node3&#45;&gt;Node2</title>
<path fill="none" stroke="#191970" d="M74.3623,-70.5116C84.8831,-57.6894 97.6966,-42.0729 106.9797,-30.7592"/>
<polygon fill="#191970" stroke="#191970" points="71.4773,-68.5099 67.8398,-78.4608 76.8888,-72.9502 71.4773,-68.5099"/>
</g>
<!-- Node4 -->
<g id="node3" class="node">
<title>Node4</title>
<g id="a_node3"><a xlink:href="classamr__wind_1_1actuator_1_1_thin_airfoil.html" target="_top" xlink:title="amr_wind::actuator\l::ThinAirfoil">
<polygon fill="#ffffff" stroke="#000000" points="129,-78.5 129,-108.5 240,-108.5 240,-78.5 129,-78.5"/>
<text text-anchor="start" x="137" y="-96.5" font-family="Helvetica,sans-Serif" font-size="10.00" fill="#000000">amr_wind::actuator</text>
<text text-anchor="middle" x="184.5" y="-85.5" font-family="Helvetica,sans-Serif" font-size="10.00" fill="#000000">::ThinAirfoil</text>
</a>
</g>
</g>
<!-- Node4&#45;&gt;Node2 -->
<g id="edge2" class="edge">
<title>Node4&#45;&gt;Node2</title>
<path fill="none" stroke="#9a32cd" stroke-dasharray="5,2" d="M165.343,-70.5116C154.6578,-57.6894 141.6441,-42.0729 132.216,-30.7592"/>
<polygon fill="#9a32cd" stroke="#9a32cd" points="162.8767,-73.0192 171.9673,-78.4608 168.2542,-68.5379 162.8767,-73.0192"/>
<text text-anchor="middle" x="178.5" y="-52" font-family="Helvetica,sans-Serif" font-size="10.00" fill="#000000"> aflookup</text>
</g>
</g>
</svg>
