<?xml version="1.0" encoding="UTF-8" standalone="no"?>
<!DOCTYPE svg PUBLIC "-//W3C//DTD SVG 1.1//EN"
 "http://www.w3.org/Graphics/SVG/1.1/DTD/svg11.dtd">
<!-- Generated by graphviz version 2.40.1 (20161225.0304)
 -->
<!-- Title: amr_wind::pde::AdvectionOp&lt; ICNS, fvm::MOL &gt; Pages: 1 -->
<!--zoomable 219 -->
<svg id="main" version="1.1" xmlns="http://www.w3.org/2000/svg" xmlns:xlink="http://www.w3.org/1999/xlink" xml:space="preserve" onload="init(evt)">
<style type="text/css"><![CDATA[
.edge:hover path { stroke: red; }
.edge:hover polygon { stroke: red; fill: red; }
]]></style>
<script type="text/javascript"><![CDATA[
var edges = document.getElementsByTagName('g');
if (edges && edges.length) {
  for (var i=0;i<edges.length;i++) {
    if (edges[i].id.substr(0,4)=='edge') {
      edges[i].setAttribute('class','edge');
    }
  }
}
]]></script>
        <defs>
                <circle id="rim" cx="0" cy="0" r="7"/>
                <circle id="rim2" cx="0" cy="0" r="3.5"/>
                <g id="zoomPlus">
                        <use xlink:href="#rim" fill="#404040">
                                <set attributeName="fill" to="#808080" begin="zoomplus.mouseover" end="zoomplus.mouseout"/>
                        </use>
                        <path d="M-4,0h8M0,-4v8" fill="none" stroke="white" stroke-width="1.5" pointer-events="none"/>
                </g>
                <g id="zoomMin">
                        <use xlink:href="#rim" fill="#404040">
                                <set attributeName="fill" to="#808080" begin="zoomminus.mouseover" end="zoomminus.mouseout"/>
                        </use>
                        <path d="M-4,0h8" fill="none" stroke="white" stroke-width="1.5" pointer-events="none"/>
                </g>
                <g id="dirArrow">
                        <path fill="none" stroke="white" stroke-width="1.5" d="M0,-3.0v7 M-2.5,-0.5L0,-3.0L2.5,-0.5"/>
                </g>
               <g id="resetDef">
                       <use xlink:href="#rim2" fill="#404040">
                               <set attributeName="fill" to="#808080" begin="reset.mouseover" end="reset.mouseout"/>
                       </use>
               </g>
        </defs>

<script type="text/javascript">
var viewWidth = 1543;
var viewHeight = 219;
var sectionId = 'dynsection-0';
</script>
<script xlink:href="svgpan.js"/>
<svg id="graph" class="graph">
<g id="viewport">
<title>amr_wind::pde::AdvectionOp&lt; ICNS, fvm::MOL &gt;</title>
<polygon fill="#ffffff" stroke="transparent" points="-4,4 -4,-214.61 1539,-214.61 1539,4 -4,4"/>
<!-- Node1 -->
<g id="node1" class="node">
<title>Node1</title>
<polygon fill="#bfbfbf" stroke="#000000" points="1392,-46.11 1392,-76.11 1535,-76.11 1535,-46.11 1392,-46.11"/>
<text text-anchor="start" x="1400" y="-64.11" font-family="Helvetica,sans-Serif" font-size="10.00" fill="#000000">amr_wind::pde::Advection</text>
<text text-anchor="middle" x="1463.5" y="-53.11" font-family="Helvetica,sans-Serif" font-size="10.00" fill="#000000">Op&lt; ICNS, fvm::MOL &gt;</text>
</g>
<!-- Node2 -->
<g id="node2" class="node">
<title>Node2</title>
<g id="a_node2"><a xlink:href="classamr__wind_1_1pde_1_1_mac_proj_op.html" target="_top" xlink:title="amr_wind::pde::MacProjOp">
<polygon fill="#ffffff" stroke="#000000" points="950,-125.61 950,-144.61 1096,-144.61 1096,-125.61 950,-125.61"/>
<text text-anchor="middle" x="1023" y="-132.61" font-family="Helvetica,sans-Serif" font-size="10.00" fill="#000000">amr_wind::pde::MacProjOp</text>
</a>
</g>
</g>
<!-- Node2&#45;&gt;Node1 -->
<g id="edge1" class="edge">
<title>Node2&#45;&gt;Node1</title>
<path fill="none" stroke="#9a32cd" stroke-dasharray="5,2" d="M1089.8148,-123.8857C1171.1985,-110.214 1308.1301,-87.2107 1391.7054,-73.1709"/>
<polygon fill="#9a32cd" stroke="#9a32cd" points="1088.9678,-120.4789 1079.6859,-125.5873 1090.1276,-127.3822 1088.9678,-120.4789"/>
<text text-anchor="middle" x="1255" y="-111.11" font-family="Helvetica,sans-Serif" font-size="10.00" fill="#000000"> m_macproj_op</text>
</g>
<!-- Node3 -->
<g id="node3" class="node">
<title>Node3</title>
<polygon fill="#ffffff" stroke="#bfbfbf" points="604.5,-180.11 604.5,-210.11 736.5,-210.11 736.5,-180.11 604.5,-180.11"/>
<text text-anchor="start" x="612.5" y="-198.11" font-family="Helvetica,sans-Serif" font-size="10.00" fill="#000000">std::unique_ptr&lt; amrex</text>
<text text-anchor="middle" x="670.5" y="-187.11" font-family="Helvetica,sans-Serif" font-size="10.00" fill="#000000">::MacProjector &gt;</text>
</g>
<!-- Node3&#45;&gt;Node2 -->
<g id="edge2" class="edge">
<title>Node3&#45;&gt;Node2</title>
<path fill="none" stroke="#9a32cd" stroke-dasharray="5,2" d="M746.7857,-182.1252C813.1135,-170.8354 907.6603,-154.7423 967.1499,-144.6164"/>
<polygon fill="#9a32cd" stroke="#9a32cd" points="746.0734,-178.696 736.8026,-183.8245 747.2481,-185.5968 746.0734,-178.696"/>
<text text-anchor="middle" x="815.5" y="-182.11" font-family="Helvetica,sans-Serif" font-size="10.00" fill="#000000"> m_mac_proj</text>
</g>
<!-- Node4 -->
<g id="node4" class="node">
<title>Node4</title>
<g id="a_node4"><a xlink:title="STL class. ">
<polygon fill="#ffffff" stroke="#bfbfbf" points="321,-186.61 321,-205.61 439,-205.61 439,-186.61 321,-186.61"/>
<text text-anchor="middle" x="380" y="-193.61" font-family="Helvetica,sans-Serif" font-size="10.00" fill="#000000">std::unique_ptr&lt; T &gt;</text>
</a>
</g>
</g>
<!-- Node4&#45;&gt;Node3 -->
<g id="edge3" class="edge">
<title>Node4&#45;&gt;Node3</title>
<path fill="none" stroke="#ffa500" stroke-dasharray="5,2" d="M449.232,-195.8717C496.2306,-195.7099 558.014,-195.4972 604.3476,-195.3377"/>
<polygon fill="#ffa500" stroke="#ffa500" points="449.125,-192.3719 439.1372,-195.9064 449.1492,-199.3719 449.125,-192.3719"/>
<text text-anchor="middle" x="520.5" y="-198.11" font-family="Helvetica,sans-Serif" font-size="10.00" fill="#000000"> &lt; amrex::MacProjector &gt;</text>
</g>
<!-- Node5 -->
<g id="node5" class="node">
<title>Node5</title>
<polygon fill="#ffffff" stroke="#bfbfbf" points="37.5,-179.61 37.5,-198.61 66.5,-198.61 66.5,-179.61 37.5,-179.61"/>
<text text-anchor="middle" x="52" y="-186.61" font-family="Helvetica,sans-Serif" font-size="10.00" fill="#000000">T</text>
</g>
<!-- Node5&#45;&gt;Node4 -->
<g id="edge4" class="edge">
<title>Node5&#45;&gt;Node4</title>
<path fill="none" stroke="#9a32cd" stroke-dasharray="5,2" d="M76.6895,-189.6369C128.1334,-190.7348 248.0461,-193.2939 320.7427,-194.8454"/>
<polygon fill="#9a32cd" stroke="#9a32cd" points="76.5894,-186.1341 66.517,-189.4198 76.44,-193.1325 76.5894,-186.1341"/>
<text text-anchor="middle" x="146.5" y="-194.11" font-family="Helvetica,sans-Serif" font-size="10.00" fill="#000000"> ptr</text>
</g>
<!-- Node11 -->
<g id="node11" class="node">
<title>Node11</title>
<g id="a_node11"><a xlink:title="STL class. ">
<polygon fill="#ffffff" stroke="#bfbfbf" points="189,-145.11 189,-175.11 303,-175.11 303,-145.11 189,-145.11"/>
<text text-anchor="start" x="197" y="-163.11" font-family="Helvetica,sans-Serif" font-size="10.00" fill="#000000">std::unordered_map</text>
<text text-anchor="middle" x="246" y="-152.11" font-family="Helvetica,sans-Serif" font-size="10.00" fill="#000000">&lt; K, T &gt;</text>
</a>
</g>
</g>
<!-- Node5&#45;&gt;Node11 -->
<g id="edge13" class="edge">
<title>Node5&#45;&gt;Node11</title>
<path fill="none" stroke="#9a32cd" stroke-dasharray="5,2" d="M76.4465,-181.7783C89.7942,-178.041 106.6793,-173.7412 122,-171.11 143.7265,-167.3786 167.825,-164.8744 188.9561,-163.2118"/>
<polygon fill="#9a32cd" stroke="#9a32cd" points="75.2399,-178.4834 66.5978,-184.6124 77.1757,-185.2105 75.2399,-178.4834"/>
<text text-anchor="middle" x="146.5" y="-174.11" font-family="Helvetica,sans-Serif" font-size="10.00" fill="#000000"> elements</text>
</g>
<!-- Node6 -->
<g id="node6" class="node">
<title>Node6</title>
<g id="a_node6"><a xlink:href="structamr__wind_1_1_m_l_m_g_options.html" target="_top" xlink:title="Interface to control the behavior of AMReX LinearSolvers. ">
<polygon fill="#ffffff" stroke="#000000" points="602,-119.61 602,-138.61 739,-138.61 739,-119.61 602,-119.61"/>
<text text-anchor="middle" x="670.5" y="-126.61" font-family="Helvetica,sans-Serif" font-size="10.00" fill="#000000">amr_wind::MLMGOptions</text>
</a>
</g>
</g>
<!-- Node6&#45;&gt;Node2 -->
<g id="edge5" class="edge">
<title>Node6&#45;&gt;Node2</title>
<path fill="none" stroke="#9a32cd" stroke-dasharray="5,2" d="M749.4832,-130.4544C809.4602,-131.4753 891.3163,-132.8686 949.8172,-133.8643"/>
<polygon fill="#9a32cd" stroke="#9a32cd" points="749.3605,-126.9519 739.3024,-130.2811 749.2413,-133.9509 749.3605,-126.9519"/>
<text text-anchor="middle" x="815.5" y="-136.11" font-family="Helvetica,sans-Serif" font-size="10.00" fill="#000000"> m_options</text>
</g>
<!-- Node7 -->
<g id="node7" class="node">
<title>Node7</title>
<g id="a_node7"><a xlink:title="STL class. ">
<polygon fill="#ffffff" stroke="#bfbfbf" points="213.5,-59.61 213.5,-78.61 278.5,-78.61 278.5,-59.61 213.5,-59.61"/>
<text text-anchor="middle" x="246" y="-66.61" font-family="Helvetica,sans-Serif" font-size="10.00" fill="#000000">std::string</text>
</a>
</g>
</g>
<!-- Node7&#45;&gt;Node6 -->
<g id="edge6" class="edge">
<title>Node7&#45;&gt;Node6</title>
<path fill="none" stroke="#9a32cd" stroke-dasharray="5,2" d="M288.6115,-78.165C299.1698,-80.2615 310.4744,-82.382 321,-84.11 418.1954,-100.067 531.3725,-113.7517 601.9863,-121.7108"/>
<polygon fill="#9a32cd" stroke="#9a32cd" points="289.2622,-74.7258 278.767,-76.1759 287.8758,-81.5872 289.2622,-74.7258"/>
<text text-anchor="middle" x="380" y="-127.11" font-family="Helvetica,sans-Serif" font-size="10.00" fill="#000000"> hypre_namespace</text>
<text text-anchor="middle" x="380" y="-116.11" font-family="Helvetica,sans-Serif" font-size="10.00" fill="#000000">bottom_solver_type</text>
<text text-anchor="middle" x="380" y="-105.11" font-family="Helvetica,sans-Serif" font-size="10.00" fill="#000000">hypre_interface</text>
</g>
<!-- Node10 -->
<g id="node10" class="node">
<title>Node10</title>
<polygon fill="#ffffff" stroke="#bfbfbf" points="459.5,-54.11 459.5,-84.11 581.5,-84.11 581.5,-54.11 459.5,-54.11"/>
<text text-anchor="start" x="467.5" y="-72.11" font-family="Helvetica,sans-Serif" font-size="10.00" fill="#000000">std::unordered_map</text>
<text text-anchor="middle" x="520.5" y="-61.11" font-family="Helvetica,sans-Serif" font-size="10.00" fill="#000000">&lt; std::string, size_t &gt;</text>
</g>
<!-- Node7&#45;&gt;Node10 -->
<g id="edge10" class="edge">
<title>Node7&#45;&gt;Node10</title>
<path fill="none" stroke="#9a32cd" stroke-dasharray="5,2" d="M288.7457,-69.11C334.5265,-69.11 407.5741,-69.11 459.4118,-69.11"/>
<polygon fill="#9a32cd" stroke="#9a32cd" points="288.5667,-65.6101 278.5667,-69.11 288.5667,-72.6101 288.5667,-65.6101"/>
<text text-anchor="middle" x="380" y="-72.11" font-family="Helvetica,sans-Serif" font-size="10.00" fill="#000000"> keys</text>
</g>
<!-- Node13 -->
<g id="node13" class="node">
<title>Node13</title>
<g id="a_node13"><a xlink:href="classamr__wind_1_1_field.html" target="_top" xlink:title="Computational fieldThis is an abstraction of a collection of MultiFabs over multiple levels...">
<polygon fill="#ffffff" stroke="#000000" points="976.5,-9.61 976.5,-28.61 1069.5,-28.61 1069.5,-9.61 976.5,-9.61"/>
<text text-anchor="middle" x="1023" y="-16.61" font-family="Helvetica,sans-Serif" font-size="10.00" fill="#000000">amr_wind::Field</text>
</a>
</g>
</g>
<!-- Node7&#45;&gt;Node13 -->
<g id="edge15" class="edge">
<title>Node7&#45;&gt;Node13</title>
<path fill="none" stroke="#9a32cd" stroke-dasharray="5,2" d="M288.8256,-63.0961C331.3896,-57.341 398.5776,-48.8548 457,-44.11 649.3974,-28.4844 879.4362,-22.1241 976.3368,-20.0063"/>
<polygon fill="#9a32cd" stroke="#9a32cd" points="288.2536,-59.6417 278.818,-64.4604 289.1991,-66.5775 288.2536,-59.6417"/>
<text text-anchor="middle" x="670.5" y="-37.11" font-family="Helvetica,sans-Serif" font-size="10.00" fill="#000000"> m_name</text>
</g>
<!-- Node8 -->
<g id="node8" class="node">
<title>Node8</title>
<g id="a_node8"><a xlink:title="STL class. ">
<polygon fill="#ffffff" stroke="#bfbfbf" points="0,-54.11 0,-84.11 104,-84.11 104,-54.11 0,-54.11"/>
<text text-anchor="start" x="8" y="-72.11" font-family="Helvetica,sans-Serif" font-size="10.00" fill="#000000">std::basic_string&lt;</text>
<text text-anchor="middle" x="52" y="-61.11" font-family="Helvetica,sans-Serif" font-size="10.00" fill="#000000"> char &gt;</text>
</a>
</g>
</g>
<!-- Node8&#45;&gt;Node7 -->
<g id="edge7" class="edge">
<title>Node8&#45;&gt;Node7</title>
<path fill="none" stroke="#191970" d="M114.2675,-69.11C147.2713,-69.11 186.4557,-69.11 213.4613,-69.11"/>
<polygon fill="#191970" stroke="#191970" points="114.2437,-65.6101 104.2436,-69.11 114.2436,-72.6101 114.2437,-65.6101"/>
</g>
<!-- Node9 -->
<g id="node9" class="node">
<title>Node9</title>
<g id="a_node9"><a xlink:href="classamr__wind_1_1_field_repo.html" target="_top" xlink:title="Field RepositoryFieldRepo is a database that manages handling of fields used during a simulation...">
<polygon fill="#ffffff" stroke="#000000" points="757,-67.61 757,-86.61 874,-86.61 874,-67.61 757,-67.61"/>
<text text-anchor="middle" x="815.5" y="-74.61" font-family="Helvetica,sans-Serif" font-size="10.00" fill="#000000">amr_wind::FieldRepo</text>
</a>
</g>
</g>
<!-- Node9&#45;&gt;Node2 -->
<g id="edge8" class="edge">
<title>Node9&#45;&gt;Node2</title>
<path fill="none" stroke="#9a32cd" stroke-dasharray="5,2" d="M859.6754,-89.4578C898.2254,-100.2333 953.373,-115.648 988.6847,-125.5183"/>
<polygon fill="#9a32cd" stroke="#9a32cd" points="860.3375,-86.0088 849.7644,-86.6875 858.453,-92.7504 860.3375,-86.0088"/>
<text text-anchor="middle" x="912" y="-113.11" font-family="Helvetica,sans-Serif" font-size="10.00" fill="#000000"> m_repo</text>
</g>
<!-- Node9&#45;&gt;Node13 -->
<g id="edge16" class="edge">
<title>Node9&#45;&gt;Node13</title>
<path fill="none" stroke="#9a32cd" stroke-dasharray="5,2" d="M859.6754,-64.7622C898.2254,-53.9868 953.373,-38.572 988.6847,-28.7018"/>
<polygon fill="#9a32cd" stroke="#9a32cd" points="858.453,-61.4696 849.7644,-67.5325 860.3375,-68.2112 858.453,-61.4696"/>
<text text-anchor="middle" x="912" y="-58.11" font-family="Helvetica,sans-Serif" font-size="10.00" fill="#000000"> m_repo</text>
</g>
<!-- Node14 -->
<g id="node14" class="node">
<title>Node14</title>
<g id="a_node14"><a xlink:href="structamr__wind_1_1pde_1_1_p_d_e_fields.html" target="_top" xlink:title="Collection of fields related to a PDEEvery PDE requires a common set of fields, e.g., the transported variable (scalar or vector), advection, diffusion, source, and effective viscosity fields. ">
<polygon fill="#ffffff" stroke="#000000" points="1184,-51.61 1184,-70.61 1326,-70.61 1326,-51.61 1184,-51.61"/>
<text text-anchor="middle" x="1255" y="-58.61" font-family="Helvetica,sans-Serif" font-size="10.00" fill="#000000">amr_wind::pde::PDEFields</text>
</a>
</g>
</g>
<!-- Node9&#45;&gt;Node14 -->
<g id="edge19" class="edge">
<title>Node9&#45;&gt;Node14</title>
<path fill="none" stroke="#9a32cd" stroke-dasharray="5,2" d="M884.3071,-78.333C955.0467,-79.0731 1068.3482,-78.8212 1166,-72.11 1171.747,-71.715 1177.6918,-71.2045 1183.6574,-70.6199"/>
<polygon fill="#9a32cd" stroke="#9a32cd" points="884.2252,-74.8319 874.1858,-78.2172 884.1451,-81.8315 884.2252,-74.8319"/>
<text text-anchor="middle" x="1023" y="-82.11" font-family="Helvetica,sans-Serif" font-size="10.00" fill="#000000"> repo</text>
</g>
<!-- Node10&#45;&gt;Node9 -->
<g id="edge9" class="edge">
<title>Node10&#45;&gt;Node9</title>
<path fill="none" stroke="#9a32cd" stroke-dasharray="5,2" d="M591.8352,-71.0445C642.4326,-72.4167 709.5083,-74.2357 756.9668,-75.5227"/>
<polygon fill="#9a32cd" stroke="#9a32cd" points="591.7154,-67.5401 581.6242,-70.7676 591.5256,-74.5375 591.7154,-67.5401"/>
<text text-anchor="middle" x="670.5" y="-89.11" font-family="Helvetica,sans-Serif" font-size="10.00" fill="#000000"> m_fid_map</text>
<text text-anchor="middle" x="670.5" y="-78.11" font-family="Helvetica,sans-Serif" font-size="10.00" fill="#000000">m_int_fid_map</text>
</g>
<!-- Node11&#45;&gt;Node10 -->
<g id="edge11" class="edge">
<title>Node11&#45;&gt;Node10</title>
<path fill="none" stroke="#ffa500" stroke-dasharray="5,2" d="M313.3643,-166.6293C351.7222,-167.685 399.7926,-164.4011 439,-147.11 469.8222,-133.5169 496.0175,-102.9791 509.8896,-84.4022"/>
<polygon fill="#ffa500" stroke="#ffa500" points="313.4523,-163.1302 303.327,-166.2492 313.1874,-170.1252 313.4523,-163.1302"/>
<text text-anchor="middle" x="380" y="-169.11" font-family="Helvetica,sans-Serif" font-size="10.00" fill="#000000"> &lt; std::string, size_t &gt;</text>
</g>
<!-- Node12 -->
<g id="node12" class="node">
<title>Node12</title>
<polygon fill="#ffffff" stroke="#bfbfbf" points="37.5,-126.61 37.5,-145.61 66.5,-145.61 66.5,-126.61 37.5,-126.61"/>
<text text-anchor="middle" x="52" y="-133.61" font-family="Helvetica,sans-Serif" font-size="10.00" fill="#000000">K</text>
</g>
<!-- Node12&#45;&gt;Node11 -->
<g id="edge12" class="edge">
<title>Node12&#45;&gt;Node11</title>
<path fill="none" stroke="#9a32cd" stroke-dasharray="5,2" d="M76.8604,-134.2462C101.0518,-132.9188 138.7728,-132.141 171,-137.11 182.0374,-138.8118 193.699,-141.7832 204.4525,-145.0363"/>
<polygon fill="#9a32cd" stroke="#9a32cd" points="76.5284,-130.76 66.7658,-134.876 76.9643,-137.7464 76.5284,-130.76"/>
<text text-anchor="middle" x="146.5" y="-140.11" font-family="Helvetica,sans-Serif" font-size="10.00" fill="#000000"> keys</text>
</g>
<!-- Node13&#45;&gt;Node1 -->
<g id="edge14" class="edge">
<title>Node13&#45;&gt;Node1</title>
<path fill="none" stroke="#9a32cd" stroke-dasharray="5,2" d="M1079.9087,-9.9789C1141.2186,-1.8208 1241.3763,6.6305 1326,-9.11 1364.3896,-16.2507 1406.0056,-33.43 1433.279,-46.0981"/>
<polygon fill="#9a32cd" stroke="#9a32cd" points="1079.0986,-6.5573 1069.6687,-11.3871 1080.0523,-13.4921 1079.0986,-6.5573"/>
<text text-anchor="middle" x="1255" y="-34.11" font-family="Helvetica,sans-Serif" font-size="10.00" fill="#000000"> u_mac</text>
<text text-anchor="middle" x="1255" y="-23.11" font-family="Helvetica,sans-Serif" font-size="10.00" fill="#000000">v_mac</text>
<text text-anchor="middle" x="1255" y="-12.11" font-family="Helvetica,sans-Serif" font-size="10.00" fill="#000000">w_mac</text>
</g>
<!-- Node13&#45;&gt;Node14 -->
<g id="edge18" class="edge">
<title>Node13&#45;&gt;Node14</title>
<path fill="none" stroke="#9a32cd" stroke-dasharray="5,2" d="M1079.9084,-12.054C1106.401,-10.3552 1138.1459,-10.6008 1166,-17.11 1194.1976,-23.6996 1223.715,-40.5895 1240.6762,-51.4228"/>
<polygon fill="#9a32cd" stroke="#9a32cd" points="1079.3673,-8.5847 1069.6572,-12.8232 1079.8911,-15.5651 1079.3673,-8.5847"/>
<text text-anchor="middle" x="1140" y="-64.11" font-family="Helvetica,sans-Serif" font-size="10.00" fill="#000000"> src_term</text>
<text text-anchor="middle" x="1140" y="-53.11" font-family="Helvetica,sans-Serif" font-size="10.00" fill="#000000">field</text>
<text text-anchor="middle" x="1140" y="-42.11" font-family="Helvetica,sans-Serif" font-size="10.00" fill="#000000">diff_term</text>
<text text-anchor="middle" x="1140" y="-31.11" font-family="Helvetica,sans-Serif" font-size="10.00" fill="#000000">mueff</text>
<text text-anchor="middle" x="1140" y="-20.11" font-family="Helvetica,sans-Serif" font-size="10.00" fill="#000000">conv_term</text>
</g>
<!-- Node14&#45;&gt;Node1 -->
<g id="edge17" class="edge">
<title>Node14&#45;&gt;Node1</title>
<path fill="none" stroke="#9a32cd" stroke-dasharray="5,2" d="M1336.2586,-61.11C1354.6303,-61.11 1374.0046,-61.11 1391.9421,-61.11"/>
<polygon fill="#9a32cd" stroke="#9a32cd" points="1336.1708,-57.6101 1326.1707,-61.11 1336.1707,-64.6101 1336.1708,-57.6101"/>
<text text-anchor="middle" x="1359" y="-64.11" font-family="Helvetica,sans-Serif" font-size="10.00" fill="#000000"> fields</text>
</g>
</g>
</svg>
        <g id="navigator" transform="translate(0 0)" fill="#404254">
                <rect fill="#f2f5e9" fill-opacity="0.5" stroke="#606060" stroke-width=".5" x="0" y="0" width="60" height="60"/>
                <use id="zoomplus" xlink:href="#zoomPlus" x="17" y="9" onmousedown="handleZoom(evt,'in')"/>
                <use id="zoomminus" xlink:href="#zoomMin" x="42" y="9" onmousedown="handleZoom(evt,'out')"/>
                <use id="reset" xlink:href="#resetDef" x="30" y="36" onmousedown="handleReset()"/>
                <g id="arrowUp" xlink:href="#dirArrow" transform="translate(30 24)" onmousedown="handlePan(0,-1)">
                  <use xlink:href="#rim" fill="#404040">
                        <set attributeName="fill" to="#808080" begin="arrowUp.mouseover" end="arrowUp.mouseout"/>
                  </use>
                  <path fill="none" stroke="white" stroke-width="1.5" d="M0,-3.0v7 M-2.5,-0.5L0,-3.0L2.5,-0.5"/>
                </g>
                <g id="arrowRight" xlink:href="#dirArrow" transform="rotate(90) translate(36 -43)" onmousedown="handlePan(1,0)">
                  <use xlink:href="#rim" fill="#404040">
                        <set attributeName="fill" to="#808080" begin="arrowRight.mouseover" end="arrowRight.mouseout"/>
                  </use>
                  <path fill="none" stroke="white" stroke-width="1.5" d="M0,-3.0v7 M-2.5,-0.5L0,-3.0L2.5,-0.5"/>
                </g>
                <g id="arrowDown" xlink:href="#dirArrow" transform="rotate(180) translate(-30 -48)" onmousedown="handlePan(0,1)">
                  <use xlink:href="#rim" fill="#404040">
                        <set attributeName="fill" to="#808080" begin="arrowDown.mouseover" end="arrowDown.mouseout"/>
                  </use>
                  <path fill="none" stroke="white" stroke-width="1.5" d="M0,-3.0v7 M-2.5,-0.5L0,-3.0L2.5,-0.5"/>
                </g>
                <g id="arrowLeft" xlink:href="#dirArrow" transform="rotate(270) translate(-36 17)" onmousedown="handlePan(-1,0)">
                  <use xlink:href="#rim" fill="#404040">
                        <set attributeName="fill" to="#808080" begin="arrowLeft.mouseover" end="arrowLeft.mouseout"/>
                  </use>
                  <path fill="none" stroke="white" stroke-width="1.5" d="M0,-3.0v7 M-2.5,-0.5L0,-3.0L2.5,-0.5"/>
                </g>
        </g>
        <svg viewBox="0 0 15 15" width="100%" height="30px" preserveAspectRatio="xMaxYMin meet">
         <g id="arrow_out" transform="scale(0.3 0.3)">
          <a xlink:href="structamr__wind_1_1pde_1_1_advection_op_3_01_i_c_n_s_00_01fvm_1_1_m_o_l_01_4__coll__graph_org.svg" target="_base">
           <rect id="button" ry="5" rx="5" y="6" x="6" height="38" width="38"
                fill="#f2f5e9" fill-opacity="0.5" stroke="#606060" stroke-width="1.0"/>
           <path id="arrow"
             d="M 11.500037,31.436501 C 11.940474,20.09759 22.043105,11.32322 32.158766,21.979434 L 37.068811,17.246167 C 37.068811,17.246167 37.088388,32 37.088388,32 L 22.160133,31.978069 C 22.160133,31.978069 26.997745,27.140456 26.997745,27.140456 C 18.528582,18.264221 13.291696,25.230495 11.500037,31.436501 z"
             style="fill:#404040;"/>
          </a>
         </g>
        </svg>
</svg>
