<?xml version="1.0" encoding="UTF-8" standalone="no"?>
<!DOCTYPE svg PUBLIC "-//W3C//DTD SVG 1.1//EN"
 "http://www.w3.org/Graphics/SVG/1.1/DTD/svg11.dtd">
<!-- Generated by graphviz version 2.40.1 (20161225.0304)
 -->
<!-- Title: amr_wind::pde::AdvectionOp&lt; VOF, fvm::Godunov &gt; Pages: 1 -->
<svg width="312pt" height="542pt"
 viewBox="0.00 0.00 311.50 542.00" xmlns="http://www.w3.org/2000/svg" xmlns:xlink="http://www.w3.org/1999/xlink">
<g id="graph0" class="graph" transform="scale(1 1) rotate(0) translate(4 538)">
<title>amr_wind::pde::AdvectionOp&lt; VOF, fvm::Godunov &gt;</title>
<polygon fill="#ffffff" stroke="transparent" points="-4,4 -4,-538 307.5,-538 307.5,4 -4,4"/>
<!-- Node1 -->
<g id="node1" class="node">
<title>Node1</title>
<polygon fill="#bfbfbf" stroke="#000000" points="0,-.5 0,-30.5 147,-30.5 147,-.5 0,-.5"/>
<text text-anchor="start" x="8" y="-18.5" font-family="Helvetica,sans-Serif" font-size="10.00" fill="#000000">amr_wind::pde::Advection</text>
<text text-anchor="middle" x="73.5" y="-7.5" font-family="Helvetica,sans-Serif" font-size="10.00" fill="#000000">Op&lt; VOF, fvm::Godunov &gt;</text>
</g>
<!-- Node2 -->
<g id="node2" class="node">
<title>Node2</title>
<g id="a_node2"><a xlink:href="classamr__wind_1_1_field.html" target="_top" xlink:title="Computational fieldThis is an abstraction of a collection of MultiFabs over multiple levels...">
<polygon fill="#ffffff" stroke="#000000" points="50,-202.5 50,-221.5 143,-221.5 143,-202.5 50,-202.5"/>
<text text-anchor="middle" x="96.5" y="-209.5" font-family="Helvetica,sans-Serif" font-size="10.00" fill="#000000">amr_wind::Field</text>
</a>
</g>
</g>
<!-- Node2&#45;&gt;Node1 -->
<g id="edge1" class="edge">
<title>Node2&#45;&gt;Node1</title>
<path fill="none" stroke="#9a32cd" stroke-dasharray="5,2" d="M89.0469,-192.9728C81.6311,-172.9415 70.7605,-140.3069 66.5,-111 64.39,-96.4859 65.6825,-92.6439 66.5,-78 67.4068,-61.7567 69.6293,-43.2491 71.3288,-30.6155"/>
<polygon fill="#9a32cd" stroke="#9a32cd" points="85.8279,-194.355 92.6521,-202.4594 92.3713,-191.8683 85.8279,-194.355"/>
<text text-anchor="middle" x="84.5" y="-103" font-family="Helvetica,sans-Serif" font-size="10.00" fill="#000000"> u_mac</text>
<text text-anchor="middle" x="84.5" y="-92" font-family="Helvetica,sans-Serif" font-size="10.00" fill="#000000">v_mac</text>
<text text-anchor="middle" x="84.5" y="-81" font-family="Helvetica,sans-Serif" font-size="10.00" fill="#000000">w_mac</text>
</g>
<!-- Node10 -->
<g id="node10" class="node">
<title>Node10</title>
<g id="a_node10"><a xlink:href="structamr__wind_1_1pde_1_1_p_d_e_fields.html" target="_top" xlink:title="Collection of fields related to a PDEEvery PDE requires a common set of fields, e.g., the transported variable (scalar or vector), advection, diffusion, source, and effective viscosity fields. ">
<polygon fill="#ffffff" stroke="#000000" points="111.5,-85 111.5,-104 253.5,-104 253.5,-85 111.5,-85"/>
<text text-anchor="middle" x="182.5" y="-92" font-family="Helvetica,sans-Serif" font-size="10.00" fill="#000000">amr_wind::pde::PDEFields</text>
</a>
</g>
</g>
<!-- Node2&#45;&gt;Node10 -->
<g id="edge11" class="edge">
<title>Node2&#45;&gt;Node10</title>
<path fill="none" stroke="#9a32cd" stroke-dasharray="5,2" d="M96.7463,-192.4236C97.9293,-174.2383 102.2251,-147.2872 116.5,-129 125.4104,-117.5851 139.157,-109.5547 151.8027,-104.1323"/>
<polygon fill="#9a32cd" stroke="#9a32cd" points="93.2475,-192.3278 96.3506,-202.458 100.242,-192.6037 93.2475,-192.3278"/>
<text text-anchor="middle" x="142.5" y="-176" font-family="Helvetica,sans-Serif" font-size="10.00" fill="#000000"> src_term</text>
<text text-anchor="middle" x="142.5" y="-165" font-family="Helvetica,sans-Serif" font-size="10.00" fill="#000000">field</text>
<text text-anchor="middle" x="142.5" y="-154" font-family="Helvetica,sans-Serif" font-size="10.00" fill="#000000">diff_term</text>
<text text-anchor="middle" x="142.5" y="-143" font-family="Helvetica,sans-Serif" font-size="10.00" fill="#000000">mueff</text>
<text text-anchor="middle" x="142.5" y="-132" font-family="Helvetica,sans-Serif" font-size="10.00" fill="#000000">conv_term</text>
</g>
<!-- Node3 -->
<g id="node3" class="node">
<title>Node3</title>
<g id="a_node3"><a xlink:title="STL class. ">
<polygon fill="#ffffff" stroke="#bfbfbf" points="62,-431 62,-450 127,-450 127,-431 62,-431"/>
<text text-anchor="middle" x="94.5" y="-438" font-family="Helvetica,sans-Serif" font-size="10.00" fill="#000000">std::string</text>
</a>
</g>
</g>
<!-- Node3&#45;&gt;Node2 -->
<g id="edge2" class="edge">
<title>Node3&#45;&gt;Node2</title>
<path fill="none" stroke="#9a32cd" stroke-dasharray="5,2" d="M94.6719,-420.8634C95.0837,-373.8087 96.1152,-255.9671 96.4163,-221.5681"/>
<polygon fill="#9a32cd" stroke="#9a32cd" points="91.1711,-420.9423 94.5834,-430.9726 98.1709,-421.0036 91.1711,-420.9423"/>
<text text-anchor="middle" x="119.5" y="-315.5" font-family="Helvetica,sans-Serif" font-size="10.00" fill="#000000"> m_name</text>
</g>
<!-- Node6 -->
<g id="node6" class="node">
<title>Node6</title>
<polygon fill="#ffffff" stroke="#bfbfbf" points="122.5,-347.5 122.5,-377.5 244.5,-377.5 244.5,-347.5 122.5,-347.5"/>
<text text-anchor="start" x="130.5" y="-365.5" font-family="Helvetica,sans-Serif" font-size="10.00" fill="#000000">std::unordered_map</text>
<text text-anchor="middle" x="183.5" y="-354.5" font-family="Helvetica,sans-Serif" font-size="10.00" fill="#000000">&lt; std::string, size_t &gt;</text>
</g>
<!-- Node3&#45;&gt;Node6 -->
<g id="edge6" class="edge">
<title>Node3&#45;&gt;Node6</title>
<path fill="none" stroke="#9a32cd" stroke-dasharray="5,2" d="M113.33,-423.9973C128.9125,-410.3407 150.8769,-391.0911 166.0624,-377.7824"/>
<polygon fill="#9a32cd" stroke="#9a32cd" points="110.6268,-421.7124 105.4131,-430.9357 115.2406,-426.9768 110.6268,-421.7124"/>
<text text-anchor="middle" x="158" y="-399" font-family="Helvetica,sans-Serif" font-size="10.00" fill="#000000"> keys</text>
</g>
<!-- Node4 -->
<g id="node4" class="node">
<title>Node4</title>
<g id="a_node4"><a xlink:title="STL class. ">
<polygon fill="#ffffff" stroke="#bfbfbf" points="42.5,-503.5 42.5,-533.5 146.5,-533.5 146.5,-503.5 42.5,-503.5"/>
<text text-anchor="start" x="50.5" y="-521.5" font-family="Helvetica,sans-Serif" font-size="10.00" fill="#000000">std::basic_string&lt;</text>
<text text-anchor="middle" x="94.5" y="-510.5" font-family="Helvetica,sans-Serif" font-size="10.00" fill="#000000"> char &gt;</text>
</a>
</g>
</g>
<!-- Node4&#45;&gt;Node3 -->
<g id="edge3" class="edge">
<title>Node4&#45;&gt;Node3</title>
<path fill="none" stroke="#191970" d="M94.5,-493.3962C94.5,-478.6331 94.5,-460.8138 94.5,-450.0839"/>
<polygon fill="#191970" stroke="#191970" points="91.0001,-493.4608 94.5,-503.4608 98.0001,-493.4609 91.0001,-493.4608"/>
</g>
<!-- Node5 -->
<g id="node5" class="node">
<title>Node5</title>
<g id="a_node5"><a xlink:href="classamr__wind_1_1_field_repo.html" target="_top" xlink:title="Field RepositoryFieldRepo is a database that manages handling of fields used during a simulation...">
<polygon fill="#ffffff" stroke="#000000" points="124,-269.5 124,-288.5 241,-288.5 241,-269.5 124,-269.5"/>
<text text-anchor="middle" x="182.5" y="-276.5" font-family="Helvetica,sans-Serif" font-size="10.00" fill="#000000">amr_wind::FieldRepo</text>
</a>
</g>
</g>
<!-- Node5&#45;&gt;Node2 -->
<g id="edge4" class="edge">
<title>Node5&#45;&gt;Node2</title>
<path fill="none" stroke="#9a32cd" stroke-dasharray="5,2" d="M149.9784,-264.8486C142.5572,-260.8999 134.9612,-256.2358 128.5,-251 118.0208,-242.5083 108.5693,-230.12 102.7013,-221.5961"/>
<polygon fill="#9a32cd" stroke="#9a32cd" points="148.6775,-268.1114 159.1865,-269.4569 151.8103,-261.8515 148.6775,-268.1114"/>
<text text-anchor="middle" x="148.5" y="-243" font-family="Helvetica,sans-Serif" font-size="10.00" fill="#000000"> m_repo</text>
</g>
<!-- Node5&#45;&gt;Node10 -->
<g id="edge12" class="edge">
<title>Node5&#45;&gt;Node10</title>
<path fill="none" stroke="#9a32cd" stroke-dasharray="5,2" d="M182.5,-259.1587C182.5,-219.7567 182.5,-132.9547 182.5,-104.0641"/>
<polygon fill="#9a32cd" stroke="#9a32cd" points="179.0001,-259.3402 182.5,-269.3402 186.0001,-259.3403 179.0001,-259.3402"/>
<text text-anchor="middle" x="195" y="-209.5" font-family="Helvetica,sans-Serif" font-size="10.00" fill="#000000"> repo</text>
</g>
<!-- Node6&#45;&gt;Node5 -->
<g id="edge5" class="edge">
<title>Node6&#45;&gt;Node5</title>
<path fill="none" stroke="#9a32cd" stroke-dasharray="5,2" d="M183.1958,-337.1022C182.9991,-320.6775 182.7544,-300.2426 182.6138,-288.5023"/>
<polygon fill="#9a32cd" stroke="#9a32cd" points="179.697,-337.2275 183.3166,-347.1848 186.6965,-337.1436 179.697,-337.2275"/>
<text text-anchor="middle" x="220" y="-321" font-family="Helvetica,sans-Serif" font-size="10.00" fill="#000000"> m_fid_map</text>
<text text-anchor="middle" x="220" y="-310" font-family="Helvetica,sans-Serif" font-size="10.00" fill="#000000">m_int_fid_map</text>
</g>
<!-- Node7 -->
<g id="node7" class="node">
<title>Node7</title>
<g id="a_node7"><a xlink:title="STL class. ">
<polygon fill="#ffffff" stroke="#bfbfbf" points="145.5,-425.5 145.5,-455.5 259.5,-455.5 259.5,-425.5 145.5,-425.5"/>
<text text-anchor="start" x="153.5" y="-443.5" font-family="Helvetica,sans-Serif" font-size="10.00" fill="#000000">std::unordered_map</text>
<text text-anchor="middle" x="202.5" y="-432.5" font-family="Helvetica,sans-Serif" font-size="10.00" fill="#000000">&lt; K, T &gt;</text>
</a>
</g>
</g>
<!-- Node7&#45;&gt;Node6 -->
<g id="edge7" class="edge">
<title>Node7&#45;&gt;Node6</title>
<path fill="none" stroke="#ffa500" stroke-dasharray="5,2" d="M196.4496,-415.6616C193.417,-403.2119 189.8417,-388.5342 187.217,-377.7592"/>
<polygon fill="#ffa500" stroke="#ffa500" points="193.0693,-416.5733 198.8366,-425.4608 199.8704,-414.9165 193.0693,-416.5733"/>
<text text-anchor="middle" x="249" y="-399" font-family="Helvetica,sans-Serif" font-size="10.00" fill="#000000"> &lt; std::string, size_t &gt;</text>
</g>
<!-- Node8 -->
<g id="node8" class="node">
<title>Node8</title>
<polygon fill="#ffffff" stroke="#bfbfbf" points="176,-509 176,-528 205,-528 205,-509 176,-509"/>
<text text-anchor="middle" x="190.5" y="-516" font-family="Helvetica,sans-Serif" font-size="10.00" fill="#000000">K</text>
</g>
<!-- Node8&#45;&gt;Node7 -->
<g id="edge8" class="edge">
<title>Node8&#45;&gt;Node7</title>
<path fill="none" stroke="#9a32cd" stroke-dasharray="5,2" d="M189.7017,-498.6231C189.7151,-490.8885 190.1308,-481.983 191.5,-474 192.5555,-467.846 194.5162,-461.2777 196.4932,-455.6023"/>
<polygon fill="#9a32cd" stroke="#9a32cd" points="186.2073,-498.945 189.9057,-508.8733 193.2059,-498.8056 186.2073,-498.945"/>
<text text-anchor="middle" x="205" y="-477" font-family="Helvetica,sans-Serif" font-size="10.00" fill="#000000"> keys</text>
</g>
<!-- Node9 -->
<g id="node9" class="node">
<title>Node9</title>
<polygon fill="#ffffff" stroke="#bfbfbf" points="226,-509 226,-528 255,-528 255,-509 226,-509"/>
<text text-anchor="middle" x="240.5" y="-516" font-family="Helvetica,sans-Serif" font-size="10.00" fill="#000000">T</text>
</g>
<!-- Node9&#45;&gt;Node7 -->
<g id="edge9" class="edge">
<title>Node9&#45;&gt;Node7</title>
<path fill="none" stroke="#9a32cd" stroke-dasharray="5,2" d="M231.3271,-499.6714C224.7739,-486.2202 216.0688,-468.3517 209.9453,-455.7824"/>
<polygon fill="#9a32cd" stroke="#9a32cd" points="228.3142,-501.4787 235.8405,-508.9357 234.6072,-498.4128 228.3142,-501.4787"/>
<text text-anchor="middle" x="249" y="-477" font-family="Helvetica,sans-Serif" font-size="10.00" fill="#000000"> elements</text>
</g>
<!-- Node10&#45;&gt;Node1 -->
<g id="edge10" class="edge">
<title>Node10&#45;&gt;Node1</title>
<path fill="none" stroke="#9a32cd" stroke-dasharray="5,2" d="M160.9565,-78.8859C141.6671,-64.9055 113.558,-44.5328 94.4518,-30.6852"/>
<polygon fill="#9a32cd" stroke="#9a32cd" points="158.9835,-81.7785 169.1345,-84.813 163.0914,-76.1106 158.9835,-81.7785"/>
<text text-anchor="middle" x="150.5" y="-52" font-family="Helvetica,sans-Serif" font-size="10.00" fill="#000000"> fields</text>
</g>
</g>
</svg>
