<?xml version="1.0" encoding="UTF-8" standalone="no"?>
<!DOCTYPE svg PUBLIC "-//W3C//DTD SVG 1.1//EN"
 "http://www.w3.org/Graphics/SVG/1.1/DTD/svg11.dtd">
<!-- Generated by graphviz version 2.40.1 (20161225.0304)
 -->
<!-- Title: amr_wind::tioga_iface::AmrDualArray&lt; T &gt; Pages: 1 -->
<svg width="393pt" height="210pt"
 viewBox="0.00 0.00 393.00 209.50" xmlns="http://www.w3.org/2000/svg" xmlns:xlink="http://www.w3.org/1999/xlink">
<g id="graph0" class="graph" transform="scale(1 1) rotate(0) translate(4 205.5)">
<title>amr_wind::tioga_iface::AmrDualArray&lt; T &gt;</title>
<polygon fill="#ffffff" stroke="transparent" points="-4,4 -4,-205.5 389,-205.5 389,4 -4,4"/>
<!-- Node0 -->
<g id="node1" class="node">
<title>Node0</title>
<polygon fill="#bfbfbf" stroke="#000000" points="0,-88 0,-118 125,-118 125,-88 0,-88"/>
<text text-anchor="start" x="8" y="-106" font-family="Helvetica,sans-Serif" font-size="10.00" fill="#000000">amr_wind::tioga_iface</text>
<text text-anchor="middle" x="62.5" y="-95" font-family="Helvetica,sans-Serif" font-size="10.00" fill="#000000">::AmrDualArray&lt; T &gt;</text>
</g>
<!-- Node1 -->
<g id="node2" class="node">
<title>Node1</title>
<g id="a_node2"><a xlink:href="structamr__wind_1_1tioga__iface_1_1_amr_dual_array.html" target="_top" xlink:title="amr_wind::tioga_iface\l::AmrDualArray\&lt; int *\&gt;">
<polygon fill="#ffffff" stroke="#000000" points="252,-171 252,-201 384,-201 384,-171 252,-171"/>
<text text-anchor="start" x="260" y="-189" font-family="Helvetica,sans-Serif" font-size="10.00" fill="#000000">amr_wind::tioga_iface</text>
<text text-anchor="middle" x="318" y="-178" font-family="Helvetica,sans-Serif" font-size="10.00" fill="#000000">::AmrDualArray&lt; int *&gt;</text>
</a>
</g>
</g>
<!-- Node0&#45;&gt;Node1 -->
<g id="edge1" class="edge">
<title>Node0&#45;&gt;Node1</title>
<path fill="none" stroke="#ffa500" stroke-dasharray="5,2" d="M106.6227,-122.1152C118.3478,-126.9114 131.07,-131.8647 143,-136 181.2144,-149.2463 224.9644,-161.7463 259.1608,-170.9348"/>
<polygon fill="#ffa500" stroke="#ffa500" points="107.6254,-118.742 97.0474,-118.1447 104.9442,-125.2082 107.6254,-118.742"/>
<text text-anchor="middle" x="188" y="-165" font-family="Helvetica,sans-Serif" font-size="10.00" fill="#000000"> &lt; int *&gt;</text>
</g>
<!-- Node2 -->
<g id="node3" class="node">
<title>Node2</title>
<g id="a_node3"><a xlink:href="structamr__wind_1_1tioga__iface_1_1_amr_dual_array.html" target="_top" xlink:title="amr_wind::tioga_iface\l::AmrDualArray\&lt; amrex\l::Real *\&gt;">
<polygon fill="#ffffff" stroke="#000000" points="251,-110.5 251,-151.5 385,-151.5 385,-110.5 251,-110.5"/>
<text text-anchor="start" x="259" y="-139.5" font-family="Helvetica,sans-Serif" font-size="10.00" fill="#000000">amr_wind::tioga_iface</text>
<text text-anchor="start" x="259" y="-128.5" font-family="Helvetica,sans-Serif" font-size="10.00" fill="#000000">::AmrDualArray&lt; amrex</text>
<text text-anchor="middle" x="318" y="-117.5" font-family="Helvetica,sans-Serif" font-size="10.00" fill="#000000">::Real *&gt;</text>
</a>
</g>
</g>
<!-- Node0&#45;&gt;Node2 -->
<g id="edge2" class="edge">
<title>Node0&#45;&gt;Node2</title>
<path fill="none" stroke="#ffa500" stroke-dasharray="5,2" d="M135.0508,-110.9508C171.4177,-114.9362 215.1735,-119.7313 250.7738,-123.6327"/>
<polygon fill="#ffa500" stroke="#ffa500" points="135.3241,-107.4599 125.0023,-109.8496 134.5615,-114.4182 135.3241,-107.4599"/>
<text text-anchor="middle" x="188" y="-124" font-family="Helvetica,sans-Serif" font-size="10.00" fill="#000000"> &lt; amrex::Real *&gt;</text>
</g>
<!-- Node3 -->
<g id="node4" class="node">
<title>Node3</title>
<g id="a_node4"><a xlink:href="structamr__wind_1_1tioga__iface_1_1_amr_dual_array.html" target="_top" xlink:title="amr_wind::tioga_iface\l::AmrDualArray\&lt; int \&gt;">
<polygon fill="#ffffff" stroke="#000000" points="254.5,-61 254.5,-91 381.5,-91 381.5,-61 254.5,-61"/>
<text text-anchor="start" x="262.5" y="-79" font-family="Helvetica,sans-Serif" font-size="10.00" fill="#000000">amr_wind::tioga_iface</text>
<text text-anchor="middle" x="318" y="-68" font-family="Helvetica,sans-Serif" font-size="10.00" fill="#000000">::AmrDualArray&lt; int &gt;</text>
</a>
</g>
</g>
<!-- Node0&#45;&gt;Node3 -->
<g id="edge3" class="edge">
<title>Node0&#45;&gt;Node3</title>
<path fill="none" stroke="#ffa500" stroke-dasharray="5,2" d="M135.369,-95.2996C172.9079,-91.3326 218.2528,-86.5408 254.3681,-82.7243"/>
<polygon fill="#ffa500" stroke="#ffa500" points="134.5791,-91.8635 125.0023,-96.3951 135.3148,-98.8247 134.5791,-91.8635"/>
<text text-anchor="middle" x="188" y="-97" font-family="Helvetica,sans-Serif" font-size="10.00" fill="#000000"> &lt; int &gt;</text>
</g>
<!-- Node4 -->
<g id="node5" class="node">
<title>Node4</title>
<g id="a_node5"><a xlink:href="structamr__wind_1_1tioga__iface_1_1_amr_dual_array.html" target="_top" xlink:title="amr_wind::tioga_iface\l::AmrDualArray\&lt; amrex\l::Real \&gt;">
<polygon fill="#ffffff" stroke="#000000" points="251,-.5 251,-41.5 385,-41.5 385,-.5 251,-.5"/>
<text text-anchor="start" x="259" y="-29.5" font-family="Helvetica,sans-Serif" font-size="10.00" fill="#000000">amr_wind::tioga_iface</text>
<text text-anchor="start" x="259" y="-18.5" font-family="Helvetica,sans-Serif" font-size="10.00" fill="#000000">::AmrDualArray&lt; amrex</text>
<text text-anchor="middle" x="318" y="-7.5" font-family="Helvetica,sans-Serif" font-size="10.00" fill="#000000">::Real &gt;</text>
</a>
</g>
</g>
<!-- Node0&#45;&gt;Node4 -->
<g id="edge4" class="edge">
<title>Node0&#45;&gt;Node4</title>
<path fill="none" stroke="#ffa500" stroke-dasharray="5,2" d="M105.9252,-84.1214C117.838,-79.2386 130.827,-74.1835 143,-70 178.2083,-57.8999 218.14,-46.5439 250.9603,-37.8168"/>
<polygon fill="#ffa500" stroke="#ffa500" points="104.5297,-80.911 96.6383,-87.9804 107.2158,-87.3752 104.5297,-80.911"/>
<text text-anchor="middle" x="188" y="-73" font-family="Helvetica,sans-Serif" font-size="10.00" fill="#000000"> &lt; amrex::Real &gt;</text>
</g>
</g>
</svg>
