<?xml version="1.0" encoding="UTF-8" standalone="no"?>
<!DOCTYPE svg PUBLIC "-//W3C//DTD SVG 1.1//EN"
 "http://www.w3.org/Graphics/SVG/1.1/DTD/svg11.dtd">
<!-- Generated by graphviz version 2.40.1 (20161225.0304)
 -->
<!-- Title: tensor.H Pages: 1 -->
<!--zoomable 207 -->
<svg id="main" version="1.1" xmlns="http://www.w3.org/2000/svg" xmlns:xlink="http://www.w3.org/1999/xlink" xml:space="preserve" onload="init(evt)">
<style type="text/css"><![CDATA[
.edge:hover path { stroke: red; }
.edge:hover polygon { stroke: red; fill: red; }
]]></style>
<script type="text/javascript"><![CDATA[
var edges = document.getElementsByTagName('g');
if (edges && edges.length) {
  for (var i=0;i<edges.length;i++) {
    if (edges[i].id.substr(0,4)=='edge') {
      edges[i].setAttribute('class','edge');
    }
  }
}
]]></script>
        <defs>
                <circle id="rim" cx="0" cy="0" r="7"/>
                <circle id="rim2" cx="0" cy="0" r="3.5"/>
                <g id="zoomPlus">
                        <use xlink:href="#rim" fill="#404040">
                                <set attributeName="fill" to="#808080" begin="zoomplus.mouseover" end="zoomplus.mouseout"/>
                        </use>
                        <path d="M-4,0h8M0,-4v8" fill="none" stroke="white" stroke-width="1.5" pointer-events="none"/>
                </g>
                <g id="zoomMin">
                        <use xlink:href="#rim" fill="#404040">
                                <set attributeName="fill" to="#808080" begin="zoomminus.mouseover" end="zoomminus.mouseout"/>
                        </use>
                        <path d="M-4,0h8" fill="none" stroke="white" stroke-width="1.5" pointer-events="none"/>
                </g>
                <g id="dirArrow">
                        <path fill="none" stroke="white" stroke-width="1.5" d="M0,-3.0v7 M-2.5,-0.5L0,-3.0L2.5,-0.5"/>
                </g>
               <g id="resetDef">
                       <use xlink:href="#rim2" fill="#404040">
                               <set attributeName="fill" to="#808080" begin="reset.mouseover" end="reset.mouseout"/>
                       </use>
               </g>
        </defs>

<script type="text/javascript">
var viewWidth = 536;
var viewHeight = 207;
var sectionId = 'dynsection-0';
</script>
<script xlink:href="svgpan.js"/>
<svg id="graph" class="graph">
<g id="viewport">
<title>tensor.H</title>
<polygon fill="#ffffff" stroke="transparent" points="-4,4 -4,-203 532.1039,-203 532.1039,4 -4,4"/>
<!-- Node0 -->
<g id="node1" class="node">
<title>Node0</title>
<polygon fill="#bfbfbf" stroke="#000000" points="251,-179.5 251,-198.5 308,-198.5 308,-179.5 251,-179.5"/>
<text text-anchor="middle" x="279.5" y="-186.5" font-family="Helvetica,sans-Serif" font-size="10.00" fill="#000000">tensor.H</text>
</g>
<!-- Node1 -->
<g id="node2" class="node">
<title>Node1</title>
<polygon fill="#ffffff" stroke="#bfbfbf" points="200.5,-.5 200.5,-19.5 286.5,-19.5 286.5,-.5 200.5,-.5"/>
<text text-anchor="middle" x="243.5" y="-7.5" font-family="Helvetica,sans-Serif" font-size="10.00" fill="#000000">AMReX_Gpu.H</text>
</g>
<!-- Node0&#45;&gt;Node1 -->
<g id="edge1" class="edge">
<title>Node0&#45;&gt;Node1</title>
<path fill="none" stroke="#191970" d="M250.8926,-180.9835C232.3879,-174.1477 209.7273,-162.2875 198.5,-143 176.2444,-104.7669 208.1596,-53.9004 228.6247,-27.5276"/>
<polygon fill="#191970" stroke="#191970" points="231.4825,-29.5592 235.0313,-19.5764 226.0317,-25.1673 231.4825,-29.5592"/>
</g>
<!-- Node2 -->
<g id="node3" class="node">
<title>Node2</title>
<g id="a_node3"><a xlink:href="vstraits_8_h.html" target="_top" xlink:title="amr&#45;wind/core/vs/vstraits.H">
<polygon fill="#ffffff" stroke="#000000" points="0,-62 0,-81 151,-81 151,-62 0,-62"/>
<text text-anchor="middle" x="75.5" y="-69" font-family="Helvetica,sans-Serif" font-size="10.00" fill="#000000">amr&#45;wind/core/vs/vstraits.H</text>
</a>
</g>
</g>
<!-- Node0&#45;&gt;Node2 -->
<g id="edge2" class="edge">
<title>Node0&#45;&gt;Node2</title>
<path fill="none" stroke="#191970" d="M250.8027,-179.9977C227.0888,-171.9625 192.9782,-159.0055 165.5,-143 138.3816,-127.2041 110.617,-103.8325 93.2343,-88.154"/>
<polygon fill="#191970" stroke="#191970" points="95.3204,-85.3184 85.5833,-81.1423 90.5909,-90.479 95.3204,-85.3184"/>
</g>
<!-- Node5 -->
<g id="node6" class="node">
<title>Node5</title>
<g id="a_node6"><a xlink:href="vector_8_h.html" target="_top" xlink:title="amr&#45;wind/core/vs/vector.H">
<polygon fill="#ffffff" stroke="#000000" points="207.5,-123.5 207.5,-142.5 351.5,-142.5 351.5,-123.5 207.5,-123.5"/>
<text text-anchor="middle" x="279.5" y="-130.5" font-family="Helvetica,sans-Serif" font-size="10.00" fill="#000000">amr&#45;wind/core/vs/vector.H</text>
</a>
</g>
</g>
<!-- Node0&#45;&gt;Node5 -->
<g id="edge5" class="edge">
<title>Node0&#45;&gt;Node5</title>
<path fill="none" stroke="#191970" d="M279.5,-179.2455C279.5,-171.9382 279.5,-161.6944 279.5,-152.7046"/>
<polygon fill="#191970" stroke="#191970" points="283.0001,-152.6426 279.5,-142.6427 276.0001,-152.6427 283.0001,-152.6426"/>
</g>
<!-- Node9 -->
<g id="node10" class="node">
<title>Node9</title>
<g id="a_node10"><a xlink:href="tensor_i_8_h.html" target="_top" xlink:title="amr&#45;wind/core/vs/tensorI.H">
<polygon fill="#ffffff" stroke="#000000" points="369.5,-123.5 369.5,-142.5 517.5,-142.5 517.5,-123.5 369.5,-123.5"/>
<text text-anchor="middle" x="443.5" y="-130.5" font-family="Helvetica,sans-Serif" font-size="10.00" fill="#000000">amr&#45;wind/core/vs/tensorI.H</text>
</a>
</g>
</g>
<!-- Node0&#45;&gt;Node9 -->
<g id="edge12" class="edge">
<title>Node0&#45;&gt;Node9</title>
<path fill="none" stroke="#191970" d="M302.4506,-179.3733C327.8996,-170.0613 369.2147,-155.8953 400.6364,-145.671"/>
<polygon fill="#191970" stroke="#191970" points="402.0164,-148.9035 410.458,-142.5011 399.8663,-142.2418 402.0164,-148.9035"/>
</g>
<!-- Node3 -->
<g id="node4" class="node">
<title>Node3</title>
<polygon fill="#ffffff" stroke="#bfbfbf" points="28.5,-.5 28.5,-19.5 72.5,-19.5 72.5,-.5 28.5,-.5"/>
<text text-anchor="middle" x="50.5" y="-7.5" font-family="Helvetica,sans-Serif" font-size="10.00" fill="#000000">limits</text>
</g>
<!-- Node2&#45;&gt;Node3 -->
<g id="edge3" class="edge">
<title>Node2&#45;&gt;Node3</title>
<path fill="none" stroke="#191970" d="M71.5938,-61.8906C68.0554,-53.1862 62.7364,-40.1015 58.325,-29.2494"/>
<polygon fill="#191970" stroke="#191970" points="61.4695,-27.6907 54.4613,-19.7449 54.9848,-30.3268 61.4695,-27.6907"/>
</g>
<!-- Node4 -->
<g id="node5" class="node">
<title>Node4</title>
<polygon fill="#ffffff" stroke="#bfbfbf" points="91,-.5 91,-19.5 182,-19.5 182,-.5 91,-.5"/>
<text text-anchor="middle" x="136.5" y="-7.5" font-family="Helvetica,sans-Serif" font-size="10.00" fill="#000000">AMReX_REAL.H</text>
</g>
<!-- Node2&#45;&gt;Node4 -->
<g id="edge4" class="edge">
<title>Node2&#45;&gt;Node4</title>
<path fill="none" stroke="#191970" d="M85.0313,-61.8906C94.2879,-52.5581 108.539,-38.1902 119.7003,-26.9374"/>
<polygon fill="#191970" stroke="#191970" points="122.2772,-29.3095 126.8344,-19.7449 117.3072,-24.38 122.2772,-29.3095"/>
</g>
<!-- Node5&#45;&gt;Node1 -->
<g id="edge6" class="edge">
<title>Node5&#45;&gt;Node1</title>
<path fill="none" stroke="#191970" d="M266.169,-123.3825C255.8827,-115.0729 242.4389,-102.0499 236.5,-87 229.1739,-68.4346 232.7193,-45.4599 236.9791,-29.4607"/>
<polygon fill="#191970" stroke="#191970" points="240.4045,-30.2223 239.9175,-19.6387 233.6981,-28.216 240.4045,-30.2223"/>
</g>
<!-- Node5&#45;&gt;Node2 -->
<g id="edge7" class="edge">
<title>Node5&#45;&gt;Node2</title>
<path fill="none" stroke="#191970" d="M247.625,-123.3906C212.4441,-112.7846 155.6912,-95.6753 117.0485,-84.0257"/>
<polygon fill="#191970" stroke="#191970" points="117.7358,-80.5773 107.1512,-81.0419 115.7153,-87.2794 117.7358,-80.5773"/>
</g>
<!-- Node6 -->
<g id="node7" class="node">
<title>Node6</title>
<g id="a_node7"><a xlink:href="vector_i_8_h.html" target="_top" xlink:title="amr&#45;wind/core/vs/vectorI.H">
<polygon fill="#ffffff" stroke="#000000" points="365.5,-62 365.5,-81 513.5,-81 513.5,-62 365.5,-62"/>
<text text-anchor="middle" x="439.5" y="-69" font-family="Helvetica,sans-Serif" font-size="10.00" fill="#000000">amr&#45;wind/core/vs/vectorI.H</text>
</a>
</g>
</g>
<!-- Node5&#45;&gt;Node6 -->
<g id="edge8" class="edge">
<title>Node5&#45;&gt;Node6</title>
<path fill="none" stroke="#191970" d="M299.4375,-123.3906C324.6351,-112.92 368.1777,-96.1111 400.1191,-84.4745"/>
<polygon fill="#191970" stroke="#191970" points="401.4091,-87.7299 409.6263,-81.0419 399.0319,-81.1459 401.4091,-87.7299"/>
</g>
<!-- Node6&#45;&gt;Node5 -->
<g id="edge11" class="edge">
<title>Node6&#45;&gt;Node5</title>
<path fill="none" stroke="#191970" d="M419.7248,-81.0419C394.6063,-91.4852 351.0783,-108.2916 319.0872,-119.9504"/>
<polygon fill="#191970" stroke="#191970" points="317.7788,-116.7016 309.5625,-123.3906 320.1568,-123.2853 317.7788,-116.7016"/>
</g>
<!-- Node7 -->
<g id="node8" class="node">
<title>Node7</title>
<polygon fill="#ffffff" stroke="#bfbfbf" points="446,-.5 446,-19.5 503,-19.5 503,-.5 446,-.5"/>
<text text-anchor="middle" x="474.5" y="-7.5" font-family="Helvetica,sans-Serif" font-size="10.00" fill="#000000">ostream</text>
</g>
<!-- Node6&#45;&gt;Node7 -->
<g id="edge9" class="edge">
<title>Node6&#45;&gt;Node7</title>
<path fill="none" stroke="#191970" d="M444.9688,-61.8906C450.0246,-53.0068 457.6772,-39.5601 463.9254,-28.5811"/>
<polygon fill="#191970" stroke="#191970" points="467.0498,-30.1672 468.9541,-19.7449 460.966,-26.7048 467.0498,-30.1672"/>
</g>
<!-- Node8 -->
<g id="node9" class="node">
<title>Node8</title>
<polygon fill="#ffffff" stroke="#bfbfbf" points="381,-.5 381,-19.5 428,-19.5 428,-.5 381,-.5"/>
<text text-anchor="middle" x="404.5" y="-7.5" font-family="Helvetica,sans-Serif" font-size="10.00" fill="#000000">cmath</text>
</g>
<!-- Node6&#45;&gt;Node8 -->
<g id="edge10" class="edge">
<title>Node6&#45;&gt;Node8</title>
<path fill="none" stroke="#191970" d="M434.0313,-61.8906C428.9754,-53.0068 421.3228,-39.5601 415.0746,-28.5811"/>
<polygon fill="#191970" stroke="#191970" points="418.034,-26.7048 410.0459,-19.7449 411.9502,-30.1672 418.034,-26.7048"/>
</g>
<!-- Node9&#45;&gt;Node0 -->
<g id="edge14" class="edge">
<title>Node9&#45;&gt;Node0</title>
<path fill="none" stroke="#191970" d="M420.7307,-142.5604C394.153,-152.2901 350.1001,-167.3685 318.1763,-177.687"/>
<polygon fill="#191970" stroke="#191970" points="316.7316,-174.4745 308.2751,-180.8571 318.8661,-181.1411 316.7316,-174.4745"/>
</g>
<!-- Node9&#45;&gt;Node8 -->
<g id="edge13" class="edge">
<title>Node9&#45;&gt;Node8</title>
<path fill="none" stroke="#191970" d="M475.0032,-123.3744C492.3159,-116.2912 512.296,-104.7494 522.5,-87 529.3669,-75.0554 530.2743,-67.3748 522.5,-56 517.4403,-48.597 470.9169,-31.951 437.8261,-20.8472"/>
<polygon fill="#191970" stroke="#191970" points="438.6421,-17.4302 428.0486,-17.5956 436.4331,-24.0725 438.6421,-17.4302"/>
</g>
<!-- Node10 -->
<g id="node11" class="node">
<title>Node10</title>
<g id="a_node11"><a xlink:href="trig__ops_8_h.html" target="_top" xlink:title="Trigonometric utilities. ">
<polygon fill="#ffffff" stroke="#000000" points="245.5,-56.5 245.5,-86.5 347.5,-86.5 347.5,-56.5 245.5,-56.5"/>
<text text-anchor="start" x="253.5" y="-74.5" font-family="Helvetica,sans-Serif" font-size="10.00" fill="#000000">amr&#45;wind/utilities</text>
<text text-anchor="middle" x="296.5" y="-63.5" font-family="Helvetica,sans-Serif" font-size="10.00" fill="#000000">/trig_ops.H</text>
</a>
</g>
</g>
<!-- Node9&#45;&gt;Node10 -->
<g id="edge15" class="edge">
<title>Node9&#45;&gt;Node10</title>
<path fill="none" stroke="#191970" d="M420.5313,-123.3906C399.5313,-114.6049 367.8648,-101.3567 341.7855,-90.446"/>
<polygon fill="#191970" stroke="#191970" points="343.0363,-87.1754 332.4602,-86.5446 340.3346,-93.633 343.0363,-87.1754"/>
</g>
<!-- Node10&#45;&gt;Node1 -->
<g id="edge18" class="edge">
<title>Node10&#45;&gt;Node1</title>
<path fill="none" stroke="#191970" d="M283.3989,-56.2977C275.8887,-47.5831 266.43,-36.6075 258.6073,-27.5302"/>
<polygon fill="#191970" stroke="#191970" points="261.1655,-25.1372 251.986,-19.8469 255.8629,-29.707 261.1655,-25.1372"/>
</g>
<!-- Node10&#45;&gt;Node4 -->
<g id="edge17" class="edge">
<title>Node10&#45;&gt;Node4</title>
<path fill="none" stroke="#191970" d="M257.3596,-56.4554C230.8974,-46.284 196.2819,-32.9787 170.8817,-23.2155"/>
<polygon fill="#191970" stroke="#191970" points="171.8843,-19.8512 161.2943,-19.5303 169.3728,-26.3852 171.8843,-19.8512"/>
</g>
<!-- Node10&#45;&gt;Node8 -->
<g id="edge16" class="edge">
<title>Node10&#45;&gt;Node8</title>
<path fill="none" stroke="#191970" d="M322.9198,-56.4554C339.9914,-46.734 362.0902,-34.15 378.9809,-24.5317"/>
<polygon fill="#191970" stroke="#191970" points="380.8059,-27.5202 387.7638,-19.5303 377.342,-21.4373 380.8059,-27.5202"/>
</g>
</g>
</svg>
        <g id="navigator" transform="translate(0 0)" fill="#404254">
                <rect fill="#f2f5e9" fill-opacity="0.5" stroke="#606060" stroke-width=".5" x="0" y="0" width="60" height="60"/>
                <use id="zoomplus" xlink:href="#zoomPlus" x="17" y="9" onmousedown="handleZoom(evt,'in')"/>
                <use id="zoomminus" xlink:href="#zoomMin" x="42" y="9" onmousedown="handleZoom(evt,'out')"/>
                <use id="reset" xlink:href="#resetDef" x="30" y="36" onmousedown="handleReset()"/>
                <g id="arrowUp" xlink:href="#dirArrow" transform="translate(30 24)" onmousedown="handlePan(0,-1)">
                  <use xlink:href="#rim" fill="#404040">
                        <set attributeName="fill" to="#808080" begin="arrowUp.mouseover" end="arrowUp.mouseout"/>
                  </use>
                  <path fill="none" stroke="white" stroke-width="1.5" d="M0,-3.0v7 M-2.5,-0.5L0,-3.0L2.5,-0.5"/>
                </g>
                <g id="arrowRight" xlink:href="#dirArrow" transform="rotate(90) translate(36 -43)" onmousedown="handlePan(1,0)">
                  <use xlink:href="#rim" fill="#404040">
                        <set attributeName="fill" to="#808080" begin="arrowRight.mouseover" end="arrowRight.mouseout"/>
                  </use>
                  <path fill="none" stroke="white" stroke-width="1.5" d="M0,-3.0v7 M-2.5,-0.5L0,-3.0L2.5,-0.5"/>
                </g>
                <g id="arrowDown" xlink:href="#dirArrow" transform="rotate(180) translate(-30 -48)" onmousedown="handlePan(0,1)">
                  <use xlink:href="#rim" fill="#404040">
                        <set attributeName="fill" to="#808080" begin="arrowDown.mouseover" end="arrowDown.mouseout"/>
                  </use>
                  <path fill="none" stroke="white" stroke-width="1.5" d="M0,-3.0v7 M-2.5,-0.5L0,-3.0L2.5,-0.5"/>
                </g>
                <g id="arrowLeft" xlink:href="#dirArrow" transform="rotate(270) translate(-36 17)" onmousedown="handlePan(-1,0)">
                  <use xlink:href="#rim" fill="#404040">
                        <set attributeName="fill" to="#808080" begin="arrowLeft.mouseover" end="arrowLeft.mouseout"/>
                  </use>
                  <path fill="none" stroke="white" stroke-width="1.5" d="M0,-3.0v7 M-2.5,-0.5L0,-3.0L2.5,-0.5"/>
                </g>
        </g>
        <svg viewBox="0 0 15 15" width="100%" height="30px" preserveAspectRatio="xMaxYMin meet">
         <g id="arrow_out" transform="scale(0.3 0.3)">
          <a xlink:href="tensor_8_h__incl_org.svg" target="_base">
           <rect id="button" ry="5" rx="5" y="6" x="6" height="38" width="38"
                fill="#f2f5e9" fill-opacity="0.5" stroke="#606060" stroke-width="1.0"/>
           <path id="arrow"
             d="M 11.500037,31.436501 C 11.940474,20.09759 22.043105,11.32322 32.158766,21.979434 L 37.068811,17.246167 C 37.068811,17.246167 37.088388,32 37.088388,32 L 22.160133,31.978069 C 22.160133,31.978069 26.997745,27.140456 26.997745,27.140456 C 18.528582,18.264221 13.291696,25.230495 11.500037,31.436501 z"
             style="fill:#404040;"/>
          </a>
         </g>
        </svg>
</svg>
