<?xml version="1.0" encoding="UTF-8" standalone="no"?>
<!DOCTYPE svg PUBLIC "-//W3C//DTD SVG 1.1//EN"
 "http://www.w3.org/Graphics/SVG/1.1/DTD/svg11.dtd">
<!-- Generated by graphviz version 2.40.1 (20161225.0304)
 -->
<!-- Title: turb_utils.cpp Pages: 1 -->
<svg width="297pt" height="140pt"
 viewBox="0.00 0.00 296.50 140.00" xmlns="http://www.w3.org/2000/svg" xmlns:xlink="http://www.w3.org/1999/xlink">
<g id="graph0" class="graph" transform="scale(1 1) rotate(0) translate(4 136)">
<title>turb_utils.cpp</title>
<polygon fill="#ffffff" stroke="transparent" points="-4,4 -4,-136 292.5,-136 292.5,4 -4,4"/>
<!-- Node0 -->
<g id="node1" class="node">
<title>Node0</title>
<polygon fill="#bfbfbf" stroke="#000000" points="95.5,-112.5 95.5,-131.5 178.5,-131.5 178.5,-112.5 95.5,-112.5"/>
<text text-anchor="middle" x="137" y="-119.5" font-family="Helvetica,sans-Serif" font-size="10.00" fill="#000000">turb_utils.cpp</text>
</g>
<!-- Node1 -->
<g id="node2" class="node">
<title>Node1</title>
<g id="a_node2"><a xlink:href="turb__utils_8_h.html" target="_top" xlink:title="turb_utils.H">
<polygon fill="#ffffff" stroke="#000000" points="29.5,-56.5 29.5,-75.5 102.5,-75.5 102.5,-56.5 29.5,-56.5"/>
<text text-anchor="middle" x="66" y="-63.5" font-family="Helvetica,sans-Serif" font-size="10.00" fill="#000000">turb_utils.H</text>
</a>
</g>
</g>
<!-- Node0&#45;&gt;Node1 -->
<g id="edge1" class="edge">
<title>Node0&#45;&gt;Node1</title>
<path fill="none" stroke="#191970" d="M124.6327,-112.2455C114.0446,-103.8943 98.5936,-91.7076 86.2107,-81.9408"/>
<polygon fill="#191970" stroke="#191970" points="88.2447,-79.0875 78.2255,-75.6427 83.9097,-84.5837 88.2447,-79.0875"/>
</g>
<!-- Node4 -->
<g id="node5" class="node">
<title>Node4</title>
<polygon fill="#ffffff" stroke="#bfbfbf" points="121,-56.5 121,-75.5 153,-75.5 153,-56.5 121,-56.5"/>
<text text-anchor="middle" x="137" y="-63.5" font-family="Helvetica,sans-Serif" font-size="10.00" fill="#000000">set</text>
</g>
<!-- Node0&#45;&gt;Node4 -->
<g id="edge4" class="edge">
<title>Node0&#45;&gt;Node4</title>
<path fill="none" stroke="#191970" d="M137,-112.2455C137,-104.9382 137,-94.6944 137,-85.7046"/>
<polygon fill="#191970" stroke="#191970" points="140.5001,-85.6426 137,-75.6427 133.5001,-85.6427 140.5001,-85.6426"/>
</g>
<!-- Node5 -->
<g id="node6" class="node">
<title>Node5</title>
<polygon fill="#ffffff" stroke="#bfbfbf" points="171.5,-56.5 171.5,-75.5 288.5,-75.5 288.5,-56.5 171.5,-56.5"/>
<text text-anchor="middle" x="230" y="-63.5" font-family="Helvetica,sans-Serif" font-size="10.00" fill="#000000">AMReX_ParmParse.H</text>
</g>
<!-- Node0&#45;&gt;Node5 -->
<g id="edge5" class="edge">
<title>Node0&#45;&gt;Node5</title>
<path fill="none" stroke="#191970" d="M153.1994,-112.2455C167.6018,-103.5731 188.8732,-90.7645 205.3799,-80.825"/>
<polygon fill="#191970" stroke="#191970" points="207.225,-83.7996 213.9863,-75.6427 203.614,-77.8028 207.225,-83.7996"/>
</g>
<!-- Node2 -->
<g id="node3" class="node">
<title>Node2</title>
<polygon fill="#ffffff" stroke="#bfbfbf" points="0,-.5 0,-19.5 44,-19.5 44,-.5 0,-.5"/>
<text text-anchor="middle" x="22" y="-7.5" font-family="Helvetica,sans-Serif" font-size="10.00" fill="#000000">string</text>
</g>
<!-- Node1&#45;&gt;Node2 -->
<g id="edge2" class="edge">
<title>Node1&#45;&gt;Node2</title>
<path fill="none" stroke="#191970" d="M58.3358,-56.2455C52.1527,-48.3761 43.2937,-37.101 35.8711,-27.6542"/>
<polygon fill="#191970" stroke="#191970" points="38.5068,-25.3435 29.5764,-19.6427 33.0025,-29.6683 38.5068,-25.3435"/>
</g>
<!-- Node3 -->
<g id="node4" class="node">
<title>Node3</title>
<polygon fill="#ffffff" stroke="#bfbfbf" points="62,-.5 62,-19.5 158,-19.5 158,-.5 62,-.5"/>
<text text-anchor="middle" x="110" y="-7.5" font-family="Helvetica,sans-Serif" font-size="10.00" fill="#000000">AMReX_Vector.H</text>
</g>
<!-- Node1&#45;&gt;Node3 -->
<g id="edge3" class="edge">
<title>Node1&#45;&gt;Node3</title>
<path fill="none" stroke="#191970" d="M73.6642,-56.2455C79.8473,-48.3761 88.7063,-37.101 96.1289,-27.6542"/>
<polygon fill="#191970" stroke="#191970" points="98.9975,-29.6683 102.4236,-19.6427 93.4932,-25.3435 98.9975,-29.6683"/>
</g>
</g>
</svg>
