<?xml version="1.0" encoding="UTF-8" standalone="no"?>
<!DOCTYPE svg PUBLIC "-//W3C//DTD SVG 1.1//EN"
 "http://www.w3.org/Graphics/SVG/1.1/DTD/svg11.dtd">
<!-- Generated by graphviz version 2.40.1 (20161225.0304)
 -->
<!-- Title: turb_utils.H Pages: 1 -->
<svg width="386pt" height="140pt"
 viewBox="0.00 0.00 385.50 140.00" xmlns="http://www.w3.org/2000/svg" xmlns:xlink="http://www.w3.org/1999/xlink">
<g id="graph0" class="graph" transform="scale(1 1) rotate(0) translate(4 136)">
<title>turb_utils.H</title>
<polygon fill="#ffffff" stroke="transparent" points="-4,4 -4,-136 381.5,-136 381.5,4 -4,4"/>
<!-- Node3 -->
<g id="node1" class="node">
<title>Node3</title>
<polygon fill="#bfbfbf" stroke="#000000" points="156.5,-112.5 156.5,-131.5 229.5,-131.5 229.5,-112.5 156.5,-112.5"/>
<text text-anchor="middle" x="193" y="-119.5" font-family="Helvetica,sans-Serif" font-size="10.00" fill="#000000">turb_utils.H</text>
</g>
<!-- Node4 -->
<g id="node2" class="node">
<title>Node4</title>
<g id="a_node2"><a xlink:href="_one_eq_ksgs_8cpp.html" target="_top" xlink:title="OneEqKsgs.cpp">
<polygon fill="#ffffff" stroke="#000000" points="0,-56.5 0,-75.5 92,-75.5 92,-56.5 0,-56.5"/>
<text text-anchor="middle" x="46" y="-63.5" font-family="Helvetica,sans-Serif" font-size="10.00" fill="#000000">OneEqKsgs.cpp</text>
</a>
</g>
</g>
<!-- Node3&#45;&gt;Node4 -->
<g id="edge1" class="edge">
<title>Node3&#45;&gt;Node4</title>
<path fill="none" stroke="#191970" d="M158.3206,-108.7888C131.4802,-98.5639 94.953,-84.6488 70.9404,-75.5011"/>
<polygon fill="#191970" stroke="#191970" points="157.1389,-112.0839 167.7298,-112.3733 159.6309,-105.5425 157.1389,-112.0839"/>
</g>
<!-- Node5 -->
<g id="node3" class="node">
<title>Node5</title>
<g id="a_node3"><a xlink:href="_k_omega_s_s_t_i_8_h.html" target="_top" xlink:title="KOmegaSSTI.H">
<polygon fill="#ffffff" stroke="#000000" points="148.5,-56.5 148.5,-75.5 237.5,-75.5 237.5,-56.5 148.5,-56.5"/>
<text text-anchor="middle" x="193" y="-63.5" font-family="Helvetica,sans-Serif" font-size="10.00" fill="#000000">KOmegaSSTI.H</text>
</a>
</g>
</g>
<!-- Node3&#45;&gt;Node5 -->
<g id="edge2" class="edge">
<title>Node3&#45;&gt;Node5</title>
<path fill="none" stroke="#191970" d="M193,-102.1575C193,-93.155 193,-82.9199 193,-75.6427"/>
<polygon fill="#191970" stroke="#191970" points="189.5001,-102.2455 193,-112.2455 196.5001,-102.2456 189.5001,-102.2455"/>
</g>
<!-- Node6 -->
<g id="node4" class="node">
<title>Node6</title>
<g id="a_node4"><a xlink:href="_k_omega_s_s_t_8cpp.html" target="_top" xlink:title="KOmegaSST.cpp">
<polygon fill="#ffffff" stroke="#000000" points="80.5,-.5 80.5,-19.5 175.5,-19.5 175.5,-.5 80.5,-.5"/>
<text text-anchor="middle" x="128" y="-7.5" font-family="Helvetica,sans-Serif" font-size="10.00" fill="#000000">KOmegaSST.cpp</text>
</a>
</g>
</g>
<!-- Node3&#45;&gt;Node6 -->
<g id="edge5" class="edge">
<title>Node3&#45;&gt;Node6</title>
<path fill="none" stroke="#191970" d="M168.5338,-106.3936C158.1508,-98.5212 146.8801,-88.0745 140,-76 129.737,-57.9885 127.9445,-33.1159 127.8049,-19.6313"/>
<polygon fill="#191970" stroke="#191970" points="166.7565,-109.4249 176.9309,-112.3802 170.8202,-103.7252 166.7565,-109.4249"/>
</g>
<!-- Node7 -->
<g id="node5" class="node">
<title>Node7</title>
<g id="a_node5"><a xlink:href="_k_omega_s_s_t_i_d_d_e_s_8cpp.html" target="_top" xlink:title="KOmegaSSTIDDES.cpp">
<polygon fill="#ffffff" stroke="#000000" points="198,-.5 198,-19.5 324,-19.5 324,-.5 198,-.5"/>
<text text-anchor="middle" x="261" y="-7.5" font-family="Helvetica,sans-Serif" font-size="10.00" fill="#000000">KOmegaSSTIDDES.cpp</text>
</a>
</g>
</g>
<!-- Node3&#45;&gt;Node7 -->
<g id="edge6" class="edge">
<title>Node3&#45;&gt;Node7</title>
<path fill="none" stroke="#191970" d="M217.4479,-106.6241C228.0792,-98.724 239.7406,-88.1898 247,-76 257.6681,-58.0863 260.2693,-33.1755 260.864,-19.6585"/>
<polygon fill="#191970" stroke="#191970" points="215.4237,-103.7688 209.2464,-112.3764 219.4432,-109.4997 215.4237,-103.7688"/>
</g>
<!-- Node8 -->
<g id="node6" class="node">
<title>Node8</title>
<g id="a_node6"><a xlink:href="turb__utils_8cpp.html" target="_top" xlink:title="turb_utils.cpp">
<polygon fill="#ffffff" stroke="#000000" points="294.5,-56.5 294.5,-75.5 377.5,-75.5 377.5,-56.5 294.5,-56.5"/>
<text text-anchor="middle" x="336" y="-63.5" font-family="Helvetica,sans-Serif" font-size="10.00" fill="#000000">turb_utils.cpp</text>
</a>
</g>
</g>
<!-- Node3&#45;&gt;Node8 -->
<g id="edge7" class="edge">
<title>Node3&#45;&gt;Node8</title>
<path fill="none" stroke="#191970" d="M227.0798,-108.6541C253.1573,-98.4419 288.4815,-84.6086 311.7382,-75.5011"/>
<polygon fill="#191970" stroke="#191970" points="225.6178,-105.4677 217.5826,-112.3733 228.1703,-111.9858 225.6178,-105.4677"/>
</g>
<!-- Node5&#45;&gt;Node6 -->
<g id="edge3" class="edge">
<title>Node5&#45;&gt;Node6</title>
<path fill="none" stroke="#191970" d="M174.0165,-49.645C162.7121,-39.9058 148.753,-27.8795 139.1924,-19.6427"/>
<polygon fill="#191970" stroke="#191970" points="171.8173,-52.3701 181.6779,-56.2455 176.3862,-47.0668 171.8173,-52.3701"/>
</g>
<!-- Node5&#45;&gt;Node7 -->
<g id="edge4" class="edge">
<title>Node5&#45;&gt;Node7</title>
<path fill="none" stroke="#191970" d="M212.8596,-49.645C224.6858,-39.9058 239.2892,-27.8795 249.291,-19.6427"/>
<polygon fill="#191970" stroke="#191970" points="210.339,-47.1867 204.8447,-56.2455 214.789,-52.5902 210.339,-47.1867"/>
</g>
</g>
</svg>
