<?xml version="1.0" encoding="UTF-8" standalone="no"?>
<!DOCTYPE svg PUBLIC "-//W3C//DTD SVG 1.1//EN"
 "http://www.w3.org/Graphics/SVG/1.1/DTD/svg11.dtd">
<!-- Generated by graphviz version 2.40.1 (20161225.0304)
 -->
<!-- Title: turbine_utils.H Pages: 1 -->
<!--zoomable 475 -->
<svg id="main" version="1.1" xmlns="http://www.w3.org/2000/svg" xmlns:xlink="http://www.w3.org/1999/xlink" xml:space="preserve" onload="init(evt)">
<style type="text/css"><![CDATA[
.edge:hover path { stroke: red; }
.edge:hover polygon { stroke: red; fill: red; }
]]></style>
<script type="text/javascript"><![CDATA[
var edges = document.getElementsByTagName('g');
if (edges && edges.length) {
  for (var i=0;i<edges.length;i++) {
    if (edges[i].id.substr(0,4)=='edge') {
      edges[i].setAttribute('class','edge');
    }
  }
}
]]></script>
        <defs>
                <circle id="rim" cx="0" cy="0" r="7"/>
                <circle id="rim2" cx="0" cy="0" r="3.5"/>
                <g id="zoomPlus">
                        <use xlink:href="#rim" fill="#404040">
                                <set attributeName="fill" to="#808080" begin="zoomplus.mouseover" end="zoomplus.mouseout"/>
                        </use>
                        <path d="M-4,0h8M0,-4v8" fill="none" stroke="white" stroke-width="1.5" pointer-events="none"/>
                </g>
                <g id="zoomMin">
                        <use xlink:href="#rim" fill="#404040">
                                <set attributeName="fill" to="#808080" begin="zoomminus.mouseover" end="zoomminus.mouseout"/>
                        </use>
                        <path d="M-4,0h8" fill="none" stroke="white" stroke-width="1.5" pointer-events="none"/>
                </g>
                <g id="dirArrow">
                        <path fill="none" stroke="white" stroke-width="1.5" d="M0,-3.0v7 M-2.5,-0.5L0,-3.0L2.5,-0.5"/>
                </g>
               <g id="resetDef">
                       <use xlink:href="#rim2" fill="#404040">
                               <set attributeName="fill" to="#808080" begin="reset.mouseover" end="reset.mouseout"/>
                       </use>
               </g>
        </defs>

<script type="text/javascript">
var viewWidth = 662;
var viewHeight = 475;
var sectionId = 'dynsection-0';
</script>
<script xlink:href="svgpan.js"/>
<svg id="graph" class="graph">
<g id="viewport">
<title>turbine_utils.H</title>
<polygon fill="#ffffff" stroke="transparent" points="-4,4 -4,-471 657.7994,-471 657.7994,4 -4,4"/>
<!-- Node0 -->
<g id="node1" class="node">
<title>Node0</title>
<polygon fill="#bfbfbf" stroke="#000000" points="206,-447.5 206,-466.5 294,-466.5 294,-447.5 206,-447.5"/>
<text text-anchor="middle" x="250" y="-454.5" font-family="Helvetica,sans-Serif" font-size="10.00" fill="#000000">turbine_utils.H</text>
</g>
<!-- Node1 -->
<g id="node2" class="node">
<title>Node1</title>
<g id="a_node2"><a xlink:href="turbine__types_8_h.html" target="_top" xlink:title="amr&#45;wind/wind_energy\l/actuator/turbine/turbine\l_types.H">
<polygon fill="#ffffff" stroke="#000000" points="107.5,-369.5 107.5,-410.5 242.5,-410.5 242.5,-369.5 107.5,-369.5"/>
<text text-anchor="start" x="115.5" y="-398.5" font-family="Helvetica,sans-Serif" font-size="10.00" fill="#000000">amr&#45;wind/wind_energy</text>
<text text-anchor="start" x="115.5" y="-387.5" font-family="Helvetica,sans-Serif" font-size="10.00" fill="#000000">/actuator/turbine/turbine</text>
<text text-anchor="middle" x="175" y="-376.5" font-family="Helvetica,sans-Serif" font-size="10.00" fill="#000000">_types.H</text>
</a>
</g>
</g>
<!-- Node0&#45;&gt;Node1 -->
<g id="edge1" class="edge">
<title>Node0&#45;&gt;Node1</title>
<path fill="none" stroke="#191970" d="M239.2543,-447.4005C230.4826,-439.5645 217.6358,-428.088 205.7305,-417.4526"/>
<polygon fill="#191970" stroke="#191970" points="207.8847,-414.6838 198.0953,-410.6318 203.2211,-419.9041 207.8847,-414.6838"/>
</g>
<!-- Node20 -->
<g id="node21" class="node">
<title>Node20</title>
<g id="a_node21"><a xlink:href="_act_parser_8_h.html" target="_top" xlink:title="amr&#45;wind/wind_energy\l/actuator/ActParser.H">
<polygon fill="#ffffff" stroke="#000000" points="261,-375 261,-405 389,-405 389,-375 261,-375"/>
<text text-anchor="start" x="269" y="-393" font-family="Helvetica,sans-Serif" font-size="10.00" fill="#000000">amr&#45;wind/wind_energy</text>
<text text-anchor="middle" x="325" y="-382" font-family="Helvetica,sans-Serif" font-size="10.00" fill="#000000">/actuator/ActParser.H</text>
</a>
</g>
</g>
<!-- Node0&#45;&gt;Node20 -->
<g id="edge31" class="edge">
<title>Node0&#45;&gt;Node20</title>
<path fill="none" stroke="#191970" d="M260.7457,-447.4005C271.1065,-438.1448 287.1529,-423.8101 300.6176,-411.7816"/>
<polygon fill="#191970" stroke="#191970" points="303.0587,-414.2941 308.1846,-405.0218 298.3952,-409.0738 303.0587,-414.2941"/>
</g>
<!-- Node2 -->
<g id="node3" class="node">
<title>Node2</title>
<g id="a_node3"><a xlink:href="actuator__types_8_h.html" target="_top" xlink:title="amr&#45;wind/wind_energy\l/actuator/actuator_types.H">
<polygon fill="#ffffff" stroke="#000000" points="94,-302.5 94,-332.5 240,-332.5 240,-302.5 94,-302.5"/>
<text text-anchor="start" x="102" y="-320.5" font-family="Helvetica,sans-Serif" font-size="10.00" fill="#000000">amr&#45;wind/wind_energy</text>
<text text-anchor="middle" x="167" y="-309.5" font-family="Helvetica,sans-Serif" font-size="10.00" fill="#000000">/actuator/actuator_types.H</text>
</a>
</g>
</g>
<!-- Node1&#45;&gt;Node2 -->
<g id="edge2" class="edge">
<title>Node1&#45;&gt;Node2</title>
<path fill="none" stroke="#191970" d="M172.7289,-369.4183C171.8094,-361.0849 170.7389,-351.3834 169.7738,-342.6373"/>
<polygon fill="#191970" stroke="#191970" points="173.2419,-342.1549 168.6661,-332.5991 166.2841,-342.9227 173.2419,-342.1549"/>
</g>
<!-- Node3 -->
<g id="node4" class="node">
<title>Node3</title>
<g id="a_node4"><a xlink:href="_slice_8_h.html" target="_top" xlink:title="amr&#45;wind/core/Slice.H">
<polygon fill="#ffffff" stroke="#000000" points="88.5,-241 88.5,-260 211.5,-260 211.5,-241 88.5,-241"/>
<text text-anchor="middle" x="150" y="-248" font-family="Helvetica,sans-Serif" font-size="10.00" fill="#000000">amr&#45;wind/core/Slice.H</text>
</a>
</g>
</g>
<!-- Node2&#45;&gt;Node3 -->
<g id="edge3" class="edge">
<title>Node2&#45;&gt;Node3</title>
<path fill="none" stroke="#191970" d="M163.1424,-302.2967C160.6995,-292.6685 157.5185,-280.1318 154.898,-269.8038"/>
<polygon fill="#191970" stroke="#191970" points="158.2764,-268.887 152.4244,-260.055 151.4914,-270.6086 158.2764,-268.887"/>
</g>
<!-- Node6 -->
<g id="node7" class="node">
<title>Node6</title>
<polygon fill="#ffffff" stroke="#bfbfbf" points="93,-.5 93,-19.5 179,-19.5 179,-.5 93,-.5"/>
<text text-anchor="middle" x="136" y="-7.5" font-family="Helvetica,sans-Serif" font-size="10.00" fill="#000000">AMReX_Gpu.H</text>
</g>
<!-- Node2&#45;&gt;Node6 -->
<g id="edge28" class="edge">
<title>Node2&#45;&gt;Node6</title>
<path fill="none" stroke="#191970" d="M126.958,-302.4647C109.8492,-294.1476 91.0775,-282.1668 79,-266 57.904,-237.7612 60,-224.2487 60,-189 60,-189 60,-189 60,-133 60,-89.4388 94.9243,-48.4145 117.4235,-26.5053"/>
<polygon fill="#191970" stroke="#191970" points="119.8999,-28.981 124.7859,-19.5801 115.1038,-23.8822 119.8999,-28.981"/>
</g>
<!-- Node7 -->
<g id="node8" class="node">
<title>Node7</title>
<g id="a_node8"><a xlink:href="vector__space_8_h.html" target="_top" xlink:title="amr&#45;wind/core/vs/vector\l_space.H">
<polygon fill="#ffffff" stroke="#000000" points="354,-235.5 354,-265.5 488,-265.5 488,-235.5 354,-235.5"/>
<text text-anchor="start" x="362" y="-253.5" font-family="Helvetica,sans-Serif" font-size="10.00" fill="#000000">amr&#45;wind/core/vs/vector</text>
<text text-anchor="middle" x="421" y="-242.5" font-family="Helvetica,sans-Serif" font-size="10.00" fill="#000000">_space.H</text>
</a>
</g>
</g>
<!-- Node2&#45;&gt;Node7 -->
<g id="edge7" class="edge">
<title>Node2&#45;&gt;Node7</title>
<path fill="none" stroke="#191970" d="M224.0026,-302.4639C262.5128,-292.3057 313.5106,-278.8535 353.969,-268.1814"/>
<polygon fill="#191970" stroke="#191970" points="354.9723,-271.5366 363.7488,-265.6017 353.1868,-264.7681 354.9723,-271.5366"/>
</g>
<!-- Node18 -->
<g id="node19" class="node">
<title>Node18</title>
<polygon fill="#ffffff" stroke="#bfbfbf" points="230,-241 230,-260 336,-260 336,-241 230,-241"/>
<text text-anchor="middle" x="283" y="-248" font-family="Helvetica,sans-Serif" font-size="10.00" fill="#000000">AMReX_RealBox.H</text>
</g>
<!-- Node2&#45;&gt;Node18 -->
<g id="edge29" class="edge">
<title>Node2&#45;&gt;Node18</title>
<path fill="none" stroke="#191970" d="M193.0327,-302.4639C212.3206,-291.3234 238.4678,-276.2212 257.6028,-265.1691"/>
<polygon fill="#191970" stroke="#191970" points="259.4635,-268.1363 266.3723,-260.1039 255.9624,-262.0747 259.4635,-268.1363"/>
</g>
<!-- Node19 -->
<g id="node20" class="node">
<title>Node19</title>
<polygon fill="#ffffff" stroke="#bfbfbf" points="0,-241 0,-260 32,-260 32,-241 0,-241"/>
<text text-anchor="middle" x="16" y="-248" font-family="Helvetica,sans-Serif" font-size="10.00" fill="#000000">set</text>
</g>
<!-- Node2&#45;&gt;Node19 -->
<g id="edge30" class="edge">
<title>Node2&#45;&gt;Node19</title>
<path fill="none" stroke="#191970" d="M129.6126,-302.4308C105.5384,-292.5208 73.6836,-279.0209 46,-266 44.4317,-265.2624 42.8256,-264.4884 41.2113,-263.6963"/>
<polygon fill="#191970" stroke="#191970" points="42.5867,-260.47 32.0823,-259.0888 39.4326,-266.7192 42.5867,-260.47"/>
</g>
<!-- Node4 -->
<g id="node5" class="node">
<title>Node4</title>
<polygon fill="#ffffff" stroke="#bfbfbf" points="126.5,-179.5 126.5,-198.5 179.5,-198.5 179.5,-179.5 126.5,-179.5"/>
<text text-anchor="middle" x="153" y="-186.5" font-family="Helvetica,sans-Serif" font-size="10.00" fill="#000000">iterator</text>
</g>
<!-- Node3&#45;&gt;Node4 -->
<g id="edge4" class="edge">
<title>Node3&#45;&gt;Node4</title>
<path fill="none" stroke="#191970" d="M150.4688,-240.8906C150.8846,-232.3657 151.5054,-219.6392 152.0281,-208.9235"/>
<polygon fill="#191970" stroke="#191970" points="155.5332,-208.9035 152.5246,-198.7449 148.5415,-208.5624 155.5332,-208.9035"/>
</g>
<!-- Node5 -->
<g id="node6" class="node">
<title>Node5</title>
<polygon fill="#ffffff" stroke="#bfbfbf" points="198,-179.5 198,-198.5 294,-198.5 294,-179.5 198,-179.5"/>
<text text-anchor="middle" x="246" y="-186.5" font-family="Helvetica,sans-Serif" font-size="10.00" fill="#000000">AMReX_Vector.H</text>
</g>
<!-- Node3&#45;&gt;Node5 -->
<g id="edge5" class="edge">
<title>Node3&#45;&gt;Node5</title>
<path fill="none" stroke="#191970" d="M165,-240.8906C180.3581,-231.0519 204.4521,-215.6167 222.3745,-204.1351"/>
<polygon fill="#191970" stroke="#191970" points="224.573,-206.8833 231.1053,-198.5419 220.797,-200.9891 224.573,-206.8833"/>
</g>
<!-- Node3&#45;&gt;Node6 -->
<g id="edge6" class="edge">
<title>Node3&#45;&gt;Node6</title>
<path fill="none" stroke="#191970" d="M141.268,-240.7158C133.1812,-230.9452 121.7162,-215.1016 117,-199 99.4344,-139.0291 118.2832,-64.2861 129.2624,-29.498"/>
<polygon fill="#191970" stroke="#191970" points="132.6932,-30.2694 132.4945,-19.6764 126.0439,-28.0812 132.6932,-30.2694"/>
</g>
<!-- Node8 -->
<g id="node9" class="node">
<title>Node8</title>
<g id="a_node9"><a xlink:href="vector_8_h.html" target="_top" xlink:title="amr&#45;wind/core/vs/vector.H">
<polygon fill="#ffffff" stroke="#000000" points="232,-123.5 232,-142.5 376,-142.5 376,-123.5 232,-123.5"/>
<text text-anchor="middle" x="304" y="-130.5" font-family="Helvetica,sans-Serif" font-size="10.00" fill="#000000">amr&#45;wind/core/vs/vector.H</text>
</a>
</g>
</g>
<!-- Node7&#45;&gt;Node8 -->
<g id="edge8" class="edge">
<title>Node7&#45;&gt;Node8</title>
<path fill="none" stroke="#191970" d="M399.8643,-235.3309C386.9048,-225.5944 370.305,-212.3184 357,-199 342.0051,-183.99 327.0664,-164.9185 316.8897,-151.1406"/>
<polygon fill="#191970" stroke="#191970" points="319.6464,-148.9802 310.9372,-142.9469 313.9831,-153.0945 319.6464,-148.9802"/>
</g>
<!-- Node15 -->
<g id="node16" class="node">
<title>Node15</title>
<g id="a_node16"><a xlink:href="tensor_8_h.html" target="_top" xlink:title="amr&#45;wind/core/vs/tensor.H">
<polygon fill="#ffffff" stroke="#000000" points="366,-179.5 366,-198.5 510,-198.5 510,-179.5 366,-179.5"/>
<text text-anchor="middle" x="438" y="-186.5" font-family="Helvetica,sans-Serif" font-size="10.00" fill="#000000">amr&#45;wind/core/vs/tensor.H</text>
</a>
</g>
</g>
<!-- Node7&#45;&gt;Node15 -->
<g id="edge17" class="edge">
<title>Node7&#45;&gt;Node15</title>
<path fill="none" stroke="#191970" d="M425.2022,-235.2977C427.4391,-227.2055 430.2149,-217.1639 432.609,-208.5029"/>
<polygon fill="#191970" stroke="#191970" points="435.9872,-209.418 435.2781,-198.8469 429.2402,-207.5529 435.9872,-209.418"/>
</g>
<!-- Node8&#45;&gt;Node6 -->
<g id="edge9" class="edge">
<title>Node8&#45;&gt;Node6</title>
<path fill="none" stroke="#191970" d="M267.6645,-123.4231C244.6264,-116.0937 215.1093,-104.2733 193,-87 172.5118,-70.9933 155.7916,-45.8242 145.8771,-28.6507"/>
<polygon fill="#191970" stroke="#191970" points="148.7626,-26.6373 140.8489,-19.5929 142.6423,-30.0348 148.7626,-26.6373"/>
</g>
<!-- Node9 -->
<g id="node10" class="node">
<title>Node9</title>
<g id="a_node10"><a xlink:href="vstraits_8_h.html" target="_top" xlink:title="amr&#45;wind/core/vs/vstraits.H">
<polygon fill="#ffffff" stroke="#000000" points="368.5,-62 368.5,-81 519.5,-81 519.5,-62 368.5,-62"/>
<text text-anchor="middle" x="444" y="-69" font-family="Helvetica,sans-Serif" font-size="10.00" fill="#000000">amr&#45;wind/core/vs/vstraits.H</text>
</a>
</g>
</g>
<!-- Node8&#45;&gt;Node9 -->
<g id="edge10" class="edge">
<title>Node8&#45;&gt;Node9</title>
<path fill="none" stroke="#191970" d="M325.875,-123.3906C349.2996,-113.1005 386.6596,-96.6888 413.0841,-85.0809"/>
<polygon fill="#191970" stroke="#191970" points="414.5307,-88.2683 422.2786,-81.0419 411.7154,-81.8594 414.5307,-88.2683"/>
</g>
<!-- Node12 -->
<g id="node13" class="node">
<title>Node12</title>
<g id="a_node13"><a xlink:href="vector_i_8_h.html" target="_top" xlink:title="amr&#45;wind/core/vs/vectorI.H">
<polygon fill="#ffffff" stroke="#000000" points="202,-62 202,-81 350,-81 350,-62 202,-62"/>
<text text-anchor="middle" x="276" y="-69" font-family="Helvetica,sans-Serif" font-size="10.00" fill="#000000">amr&#45;wind/core/vs/vectorI.H</text>
</a>
</g>
</g>
<!-- Node8&#45;&gt;Node12 -->
<g id="edge13" class="edge">
<title>Node8&#45;&gt;Node12</title>
<path fill="none" stroke="#191970" d="M294.5625,-123.3906C288.9595,-114.776 282.6588,-101.8708 278.5791,-91.0858"/>
<polygon fill="#191970" stroke="#191970" points="281.7929,-89.6539 275.3479,-81.2449 275.1423,-91.8377 281.7929,-89.6539"/>
</g>
<!-- Node10 -->
<g id="node11" class="node">
<title>Node10</title>
<polygon fill="#ffffff" stroke="#bfbfbf" points="408,-.5 408,-19.5 452,-19.5 452,-.5 408,-.5"/>
<text text-anchor="middle" x="430" y="-7.5" font-family="Helvetica,sans-Serif" font-size="10.00" fill="#000000">limits</text>
</g>
<!-- Node9&#45;&gt;Node10 -->
<g id="edge11" class="edge">
<title>Node9&#45;&gt;Node10</title>
<path fill="none" stroke="#191970" d="M441.8125,-61.8906C439.8514,-53.276 436.9137,-40.3708 434.4585,-29.5858"/>
<polygon fill="#191970" stroke="#191970" points="437.8507,-28.7185 432.2183,-19.7449 431.0254,-30.2723 437.8507,-28.7185"/>
</g>
<!-- Node11 -->
<g id="node12" class="node">
<title>Node11</title>
<polygon fill="#ffffff" stroke="#bfbfbf" points="470.5,-.5 470.5,-19.5 561.5,-19.5 561.5,-.5 470.5,-.5"/>
<text text-anchor="middle" x="516" y="-7.5" font-family="Helvetica,sans-Serif" font-size="10.00" fill="#000000">AMReX_REAL.H</text>
</g>
<!-- Node9&#45;&gt;Node11 -->
<g id="edge12" class="edge">
<title>Node9&#45;&gt;Node11</title>
<path fill="none" stroke="#191970" d="M455.25,-61.8906C466.386,-52.3786 483.646,-37.6357 496.9268,-26.2917"/>
<polygon fill="#191970" stroke="#191970" points="499.2608,-28.9011 504.5914,-19.7449 494.7144,-23.5784 499.2608,-28.9011"/>
</g>
<!-- Node12&#45;&gt;Node8 -->
<g id="edge16" class="edge">
<title>Node12&#45;&gt;Node8</title>
<path fill="none" stroke="#191970" d="M285.5254,-81.2449C291.1357,-89.9042 297.4283,-102.8205 301.4847,-113.5832"/>
<polygon fill="#191970" stroke="#191970" points="298.256,-114.9712 304.6875,-123.3906 304.9101,-112.7981 298.256,-114.9712"/>
</g>
<!-- Node13 -->
<g id="node14" class="node">
<title>Node13</title>
<polygon fill="#ffffff" stroke="#bfbfbf" points="247.5,-.5 247.5,-19.5 304.5,-19.5 304.5,-.5 247.5,-.5"/>
<text text-anchor="middle" x="276" y="-7.5" font-family="Helvetica,sans-Serif" font-size="10.00" fill="#000000">ostream</text>
</g>
<!-- Node12&#45;&gt;Node13 -->
<g id="edge14" class="edge">
<title>Node12&#45;&gt;Node13</title>
<path fill="none" stroke="#191970" d="M276,-61.8906C276,-53.3657 276,-40.6392 276,-29.9235"/>
<polygon fill="#191970" stroke="#191970" points="279.5001,-29.7448 276,-19.7449 272.5001,-29.7449 279.5001,-29.7448"/>
</g>
<!-- Node14 -->
<g id="node15" class="node">
<title>Node14</title>
<polygon fill="#ffffff" stroke="#bfbfbf" points="579.5,-.5 579.5,-19.5 626.5,-19.5 626.5,-.5 579.5,-.5"/>
<text text-anchor="middle" x="603" y="-7.5" font-family="Helvetica,sans-Serif" font-size="10.00" fill="#000000">cmath</text>
</g>
<!-- Node12&#45;&gt;Node14 -->
<g id="edge15" class="edge">
<title>Node12&#45;&gt;Node14</title>
<path fill="none" stroke="#191970" d="M327.0643,-61.9637C337.9308,-59.9662 349.3412,-57.8926 360,-56 450.5577,-39.9204 476.7776,-42.0686 569.5354,-20.1309"/>
<polygon fill="#191970" stroke="#191970" points="570.4236,-23.5173 579.333,-17.7838 568.7927,-16.7099 570.4236,-23.5173"/>
</g>
<!-- Node15&#45;&gt;Node6 -->
<g id="edge18" class="edge">
<title>Node15&#45;&gt;Node6</title>
<path fill="none" stroke="#191970" d="M365.6258,-183.025C322.3552,-177.1896 267.3513,-165.679 223,-143 189.9398,-126.0947 181.1957,-118.1592 161,-87 149.5716,-69.3675 142.9653,-46.0693 139.4465,-29.7361"/>
<polygon fill="#191970" stroke="#191970" points="142.8373,-28.8384 137.4824,-19.6965 135.9675,-30.1825 142.8373,-28.8384"/>
</g>
<!-- Node15&#45;&gt;Node8 -->
<g id="edge20" class="edge">
<title>Node15&#45;&gt;Node8</title>
<path fill="none" stroke="#191970" d="M414.9646,-179.3733C393.2612,-170.3032 360.5382,-156.6279 336.245,-146.4755"/>
<polygon fill="#191970" stroke="#191970" points="337.3111,-143.1278 326.7348,-142.5011 334.6119,-149.5865 337.3111,-143.1278"/>
</g>
<!-- Node15&#45;&gt;Node9 -->
<g id="edge19" class="edge">
<title>Node15&#45;&gt;Node9</title>
<path fill="none" stroke="#191970" d="M438.491,-179.3845C439.4711,-160.1913 441.6875,-116.786 442.9907,-91.2663"/>
<polygon fill="#191970" stroke="#191970" points="446.4876,-91.4139 443.5022,-81.2484 439.4967,-91.0568 446.4876,-91.4139"/>
</g>
<!-- Node16 -->
<g id="node17" class="node">
<title>Node16</title>
<g id="a_node17"><a xlink:href="tensor_i_8_h.html" target="_top" xlink:title="amr&#45;wind/core/vs/tensorI.H">
<polygon fill="#ffffff" stroke="#000000" points="493,-123.5 493,-142.5 641,-142.5 641,-123.5 493,-123.5"/>
<text text-anchor="middle" x="567" y="-130.5" font-family="Helvetica,sans-Serif" font-size="10.00" fill="#000000">amr&#45;wind/core/vs/tensorI.H</text>
</a>
</g>
</g>
<!-- Node15&#45;&gt;Node16 -->
<g id="edge21" class="edge">
<title>Node15&#45;&gt;Node16</title>
<path fill="none" stroke="#191970" d="M454.9339,-179.3733C474.138,-170.2629 505.625,-156.5062 530.4201,-146.3404"/>
<polygon fill="#191970" stroke="#191970" points="531.9423,-149.5001 539.8962,-142.5011 529.3137,-143.0124 531.9423,-149.5001"/>
</g>
<!-- Node16&#45;&gt;Node14 -->
<g id="edge22" class="edge">
<title>Node16&#45;&gt;Node14</title>
<path fill="none" stroke="#191970" d="M600.5002,-123.3574C618.2612,-116.3494 638.524,-104.8886 649,-87 655.9625,-75.1109 654.2725,-68.729 649,-56 644.1688,-44.3363 634.7863,-34.0881 625.7482,-26.243"/>
<polygon fill="#191970" stroke="#191970" points="627.667,-23.2942 617.6852,-19.7423 623.2734,-28.7436 627.667,-23.2942"/>
</g>
<!-- Node16&#45;&gt;Node15 -->
<g id="edge23" class="edge">
<title>Node16&#45;&gt;Node15</title>
<path fill="none" stroke="#191970" d="M550.3308,-142.5011C531.2402,-151.5685 499.7794,-165.3201 474.923,-175.5189"/>
<polygon fill="#191970" stroke="#191970" points="473.3697,-172.3719 465.4179,-179.3733 476.0003,-178.8588 473.3697,-172.3719"/>
</g>
<!-- Node17 -->
<g id="node18" class="node">
<title>Node17</title>
<g id="a_node18"><a xlink:href="trig__ops_8_h.html" target="_top" xlink:title="Trigonometric utilities. ">
<polygon fill="#ffffff" stroke="#000000" points="538,-56.5 538,-86.5 640,-86.5 640,-56.5 538,-56.5"/>
<text text-anchor="start" x="546" y="-74.5" font-family="Helvetica,sans-Serif" font-size="10.00" fill="#000000">amr&#45;wind/utilities</text>
<text text-anchor="middle" x="589" y="-63.5" font-family="Helvetica,sans-Serif" font-size="10.00" fill="#000000">/trig_ops.H</text>
</a>
</g>
</g>
<!-- Node16&#45;&gt;Node17 -->
<g id="edge24" class="edge">
<title>Node16&#45;&gt;Node17</title>
<path fill="none" stroke="#191970" d="M570.4375,-123.3906C573.0565,-116.0692 576.7842,-105.6488 580.2126,-96.0647"/>
<polygon fill="#191970" stroke="#191970" points="583.5454,-97.1392 583.6182,-86.5446 576.9544,-94.7814 583.5454,-97.1392"/>
</g>
<!-- Node17&#45;&gt;Node6 -->
<g id="edge27" class="edge">
<title>Node17&#45;&gt;Node6</title>
<path fill="none" stroke="#191970" d="M537.7161,-57.7613C534.776,-57.1266 531.8554,-56.5334 529,-56 465.1167,-44.0672 280.9849,-24.6454 189.2513,-15.3231"/>
<polygon fill="#191970" stroke="#191970" points="189.371,-11.8174 179.069,-14.2913 188.6652,-18.7817 189.371,-11.8174"/>
</g>
<!-- Node17&#45;&gt;Node11 -->
<g id="edge26" class="edge">
<title>Node17&#45;&gt;Node11</title>
<path fill="none" stroke="#191970" d="M570.9551,-56.2977C560.1886,-47.2274 546.5149,-35.7077 535.5005,-26.4285"/>
<polygon fill="#191970" stroke="#191970" points="537.5911,-23.6132 527.6882,-19.8469 533.0809,-28.9667 537.5911,-23.6132"/>
</g>
<!-- Node17&#45;&gt;Node14 -->
<g id="edge25" class="edge">
<title>Node17&#45;&gt;Node14</title>
<path fill="none" stroke="#191970" d="M592.4607,-56.2977C594.2826,-48.2945 596.5385,-38.3843 598.4952,-29.7889"/>
<polygon fill="#191970" stroke="#191970" points="601.9514,-30.3744 600.7584,-19.8469 595.126,-28.8206 601.9514,-30.3744"/>
</g>
<!-- Node20&#45;&gt;Node7 -->
<g id="edge32" class="edge">
<title>Node20&#45;&gt;Node7</title>
<path fill="none" stroke="#191970" d="M348.995,-374.8783C363.5265,-364.6319 381.4285,-349.9073 393,-333 404.885,-315.6345 412.1217,-292.7778 416.2523,-275.5272"/>
<polygon fill="#191970" stroke="#191970" points="419.7036,-276.1287 418.4365,-265.6099 412.8674,-274.623 419.7036,-276.1287"/>
</g>
<!-- Node21 -->
<g id="node22" class="node">
<title>Node21</title>
<polygon fill="#ffffff" stroke="#bfbfbf" points="266.5,-308 266.5,-327 383.5,-327 383.5,-308 266.5,-308"/>
<text text-anchor="middle" x="325" y="-315" font-family="Helvetica,sans-Serif" font-size="10.00" fill="#000000">AMReX_ParmParse.H</text>
</g>
<!-- Node20&#45;&gt;Node21 -->
<g id="edge33" class="edge">
<title>Node20&#45;&gt;Node21</title>
<path fill="none" stroke="#191970" d="M325,-374.978C325,-364.1657 325,-349.4631 325,-337.6348"/>
<polygon fill="#191970" stroke="#191970" points="328.5001,-337.3956 325,-327.3957 321.5001,-337.3957 328.5001,-337.3956"/>
</g>
</g>
</svg>
        <g id="navigator" transform="translate(0 0)" fill="#404254">
                <rect fill="#f2f5e9" fill-opacity="0.5" stroke="#606060" stroke-width=".5" x="0" y="0" width="60" height="60"/>
                <use id="zoomplus" xlink:href="#zoomPlus" x="17" y="9" onmousedown="handleZoom(evt,'in')"/>
                <use id="zoomminus" xlink:href="#zoomMin" x="42" y="9" onmousedown="handleZoom(evt,'out')"/>
                <use id="reset" xlink:href="#resetDef" x="30" y="36" onmousedown="handleReset()"/>
                <g id="arrowUp" xlink:href="#dirArrow" transform="translate(30 24)" onmousedown="handlePan(0,-1)">
                  <use xlink:href="#rim" fill="#404040">
                        <set attributeName="fill" to="#808080" begin="arrowUp.mouseover" end="arrowUp.mouseout"/>
                  </use>
                  <path fill="none" stroke="white" stroke-width="1.5" d="M0,-3.0v7 M-2.5,-0.5L0,-3.0L2.5,-0.5"/>
                </g>
                <g id="arrowRight" xlink:href="#dirArrow" transform="rotate(90) translate(36 -43)" onmousedown="handlePan(1,0)">
                  <use xlink:href="#rim" fill="#404040">
                        <set attributeName="fill" to="#808080" begin="arrowRight.mouseover" end="arrowRight.mouseout"/>
                  </use>
                  <path fill="none" stroke="white" stroke-width="1.5" d="M0,-3.0v7 M-2.5,-0.5L0,-3.0L2.5,-0.5"/>
                </g>
                <g id="arrowDown" xlink:href="#dirArrow" transform="rotate(180) translate(-30 -48)" onmousedown="handlePan(0,1)">
                  <use xlink:href="#rim" fill="#404040">
                        <set attributeName="fill" to="#808080" begin="arrowDown.mouseover" end="arrowDown.mouseout"/>
                  </use>
                  <path fill="none" stroke="white" stroke-width="1.5" d="M0,-3.0v7 M-2.5,-0.5L0,-3.0L2.5,-0.5"/>
                </g>
                <g id="arrowLeft" xlink:href="#dirArrow" transform="rotate(270) translate(-36 17)" onmousedown="handlePan(-1,0)">
                  <use xlink:href="#rim" fill="#404040">
                        <set attributeName="fill" to="#808080" begin="arrowLeft.mouseover" end="arrowLeft.mouseout"/>
                  </use>
                  <path fill="none" stroke="white" stroke-width="1.5" d="M0,-3.0v7 M-2.5,-0.5L0,-3.0L2.5,-0.5"/>
                </g>
        </g>
        <svg viewBox="0 0 15 15" width="100%" height="30px" preserveAspectRatio="xMaxYMin meet">
         <g id="arrow_out" transform="scale(0.3 0.3)">
          <a xlink:href="turbine__utils_8_h__incl_org.svg" target="_base">
           <rect id="button" ry="5" rx="5" y="6" x="6" height="38" width="38"
                fill="#f2f5e9" fill-opacity="0.5" stroke="#606060" stroke-width="1.0"/>
           <path id="arrow"
             d="M 11.500037,31.436501 C 11.940474,20.09759 22.043105,11.32322 32.158766,21.979434 L 37.068811,17.246167 C 37.068811,17.246167 37.088388,32 37.088388,32 L 22.160133,31.978069 C 22.160133,31.978069 26.997745,27.140456 26.997745,27.140456 C 18.528582,18.264221 13.291696,25.230495 11.500037,31.436501 z"
             style="fill:#404040;"/>
          </a>
         </g>
        </svg>
</svg>
