<?xml version="1.0" encoding="UTF-8" standalone="no"?>
<!DOCTYPE svg PUBLIC "-//W3C//DTD SVG 1.1//EN"
 "http://www.w3.org/Graphics/SVG/1.1/DTD/svg11.dtd">
<!-- Generated by graphviz version 2.40.1 (20161225.0304)
 -->
<!-- Title: turbine_utils.H Pages: 1 -->
<svg width="232pt" height="140pt"
 viewBox="0.00 0.00 232.00 140.00" xmlns="http://www.w3.org/2000/svg" xmlns:xlink="http://www.w3.org/1999/xlink">
<g id="graph0" class="graph" transform="scale(1 1) rotate(0) translate(4 136)">
<title>turbine_utils.H</title>
<polygon fill="#ffffff" stroke="transparent" points="-4,4 -4,-136 228,-136 228,4 -4,4"/>
<!-- Node22 -->
<g id="node1" class="node">
<title>Node22</title>
<polygon fill="#bfbfbf" stroke="#000000" points="70,-112.5 70,-131.5 158,-131.5 158,-112.5 70,-112.5"/>
<text text-anchor="middle" x="114" y="-119.5" font-family="Helvetica,sans-Serif" font-size="10.00" fill="#000000">turbine_utils.H</text>
</g>
<!-- Node23 -->
<g id="node2" class="node">
<title>Node23</title>
<g id="a_node2"><a xlink:href="turbine__fast__ops_8_h.html" target="_top" xlink:title="turbine_fast_ops.H">
<polygon fill="#ffffff" stroke="#000000" points="0,-56.5 0,-75.5 108,-75.5 108,-56.5 0,-56.5"/>
<text text-anchor="middle" x="54" y="-63.5" font-family="Helvetica,sans-Serif" font-size="10.00" fill="#000000">turbine_fast_ops.H</text>
</a>
</g>
</g>
<!-- Node22&#45;&gt;Node23 -->
<g id="edge1" class="edge">
<title>Node22&#45;&gt;Node23</title>
<path fill="none" stroke="#191970" d="M96.1722,-105.3607C85.7922,-95.6727 73.0709,-83.7995 64.3314,-75.6427"/>
<polygon fill="#191970" stroke="#191970" points="93.8501,-107.981 103.5488,-112.2455 98.6263,-102.8636 93.8501,-107.981"/>
</g>
<!-- Node25 -->
<g id="node4" class="node">
<title>Node25</title>
<g id="a_node4"><a xlink:href="turbine__utils_8cpp.html" target="_top" xlink:title="turbine_utils.cpp">
<polygon fill="#ffffff" stroke="#000000" points="126,-56.5 126,-75.5 224,-75.5 224,-56.5 126,-56.5"/>
<text text-anchor="middle" x="175" y="-63.5" font-family="Helvetica,sans-Serif" font-size="10.00" fill="#000000">turbine_utils.cpp</text>
</a>
</g>
</g>
<!-- Node22&#45;&gt;Node25 -->
<g id="edge3" class="edge">
<title>Node22&#45;&gt;Node25</title>
<path fill="none" stroke="#191970" d="M132.1249,-105.3607C142.678,-95.6727 155.6112,-83.7995 164.4964,-75.6427"/>
<polygon fill="#191970" stroke="#191970" points="129.625,-102.9045 124.6254,-112.2455 134.3589,-108.0611 129.625,-102.9045"/>
</g>
<!-- Node24 -->
<g id="node3" class="node">
<title>Node24</title>
<g id="a_node3"><a xlink:href="_turbine_fast_8cpp.html" target="_top" xlink:title="TurbineFast.cpp">
<polygon fill="#ffffff" stroke="#000000" points="8,-.5 8,-19.5 100,-19.5 100,-.5 8,-.5"/>
<text text-anchor="middle" x="54" y="-7.5" font-family="Helvetica,sans-Serif" font-size="10.00" fill="#000000">TurbineFast.cpp</text>
</a>
</g>
</g>
<!-- Node23&#45;&gt;Node24 -->
<g id="edge2" class="edge">
<title>Node23&#45;&gt;Node24</title>
<path fill="none" stroke="#191970" d="M54,-46.1575C54,-37.155 54,-26.9199 54,-19.6427"/>
<polygon fill="#191970" stroke="#191970" points="50.5001,-46.2455 54,-56.2455 57.5001,-46.2456 50.5001,-46.2455"/>
</g>
</g>
</svg>
