<?xml version="1.0" encoding="UTF-8" standalone="no"?>
<!DOCTYPE svg PUBLIC "-//W3C//DTD SVG 1.1//EN"
 "http://www.w3.org/Graphics/SVG/1.1/DTD/svg11.dtd">
<!-- Generated by graphviz version 2.40.1 (20161225.0304)
 -->
<!-- Title: turbine_utils.cpp Pages: 1 -->
<!--zoomable 553 -->
<svg id="main" version="1.1" xmlns="http://www.w3.org/2000/svg" xmlns:xlink="http://www.w3.org/1999/xlink" xml:space="preserve" onload="init(evt)">
<style type="text/css"><![CDATA[
.edge:hover path { stroke: red; }
.edge:hover polygon { stroke: red; fill: red; }
]]></style>
<script type="text/javascript"><![CDATA[
var edges = document.getElementsByTagName('g');
if (edges && edges.length) {
  for (var i=0;i<edges.length;i++) {
    if (edges[i].id.substr(0,4)=='edge') {
      edges[i].setAttribute('class','edge');
    }
  }
}
]]></script>
        <defs>
                <circle id="rim" cx="0" cy="0" r="7"/>
                <circle id="rim2" cx="0" cy="0" r="3.5"/>
                <g id="zoomPlus">
                        <use xlink:href="#rim" fill="#404040">
                                <set attributeName="fill" to="#808080" begin="zoomplus.mouseover" end="zoomplus.mouseout"/>
                        </use>
                        <path d="M-4,0h8M0,-4v8" fill="none" stroke="white" stroke-width="1.5" pointer-events="none"/>
                </g>
                <g id="zoomMin">
                        <use xlink:href="#rim" fill="#404040">
                                <set attributeName="fill" to="#808080" begin="zoomminus.mouseover" end="zoomminus.mouseout"/>
                        </use>
                        <path d="M-4,0h8" fill="none" stroke="white" stroke-width="1.5" pointer-events="none"/>
                </g>
                <g id="dirArrow">
                        <path fill="none" stroke="white" stroke-width="1.5" d="M0,-3.0v7 M-2.5,-0.5L0,-3.0L2.5,-0.5"/>
                </g>
               <g id="resetDef">
                       <use xlink:href="#rim2" fill="#404040">
                               <set attributeName="fill" to="#808080" begin="reset.mouseover" end="reset.mouseout"/>
                       </use>
               </g>
        </defs>

<script type="text/javascript">
var viewWidth = 1342;
var viewHeight = 553;
var sectionId = 'dynsection-0';
</script>
<script xlink:href="svgpan.js"/>
<svg id="graph" class="graph">
<g id="viewport">
<title>turbine_utils.cpp</title>
<polygon fill="#ffffff" stroke="transparent" points="-4,4 -4,-549 1338,-549 1338,4 -4,4"/>
<!-- Node0 -->
<g id="node1" class="node">
<title>Node0</title>
<polygon fill="#bfbfbf" stroke="#000000" points="883,-525.5 883,-544.5 981,-544.5 981,-525.5 883,-525.5"/>
<text text-anchor="middle" x="932" y="-532.5" font-family="Helvetica,sans-Serif" font-size="10.00" fill="#000000">turbine_utils.cpp</text>
</g>
<!-- Node1 -->
<g id="node2" class="node">
<title>Node1</title>
<g id="a_node2"><a xlink:href="turbine__utils_8_h.html" target="_top" xlink:title="amr&#45;wind/wind_energy\l/actuator/turbine/turbine\l_utils.H">
<polygon fill="#ffffff" stroke="#000000" points="549.5,-447.5 549.5,-488.5 684.5,-488.5 684.5,-447.5 549.5,-447.5"/>
<text text-anchor="start" x="557.5" y="-476.5" font-family="Helvetica,sans-Serif" font-size="10.00" fill="#000000">amr&#45;wind/wind_energy</text>
<text text-anchor="start" x="557.5" y="-465.5" font-family="Helvetica,sans-Serif" font-size="10.00" fill="#000000">/actuator/turbine/turbine</text>
<text text-anchor="middle" x="617" y="-454.5" font-family="Helvetica,sans-Serif" font-size="10.00" fill="#000000">_utils.H</text>
</a>
</g>
</g>
<!-- Node0&#45;&gt;Node1 -->
<g id="edge1" class="edge">
<title>Node0&#45;&gt;Node1</title>
<path fill="none" stroke="#191970" d="M887.2027,-525.4717C837.083,-514.8113 754.9879,-497.3498 694.4199,-484.4671"/>
<polygon fill="#191970" stroke="#191970" points="695.0232,-481.0172 684.5139,-482.3601 693.5669,-487.864 695.0232,-481.0172"/>
</g>
<!-- Node23 -->
<g id="node24" class="node">
<title>Node23</title>
<g id="a_node24"><a xlink:href="nc__interface_8_h.html" target="_top" xlink:title="Interface to NetCDF library. ">
<polygon fill="#ffffff" stroke="#000000" points="869.5,-453 869.5,-483 994.5,-483 994.5,-453 869.5,-453"/>
<text text-anchor="start" x="877.5" y="-471" font-family="Helvetica,sans-Serif" font-size="10.00" fill="#000000">amr&#45;wind/utilities</text>
<text text-anchor="middle" x="932" y="-460" font-family="Helvetica,sans-Serif" font-size="10.00" fill="#000000">/ncutils/nc_interface.H</text>
</a>
</g>
</g>
<!-- Node0&#45;&gt;Node23 -->
<g id="edge35" class="edge">
<title>Node0&#45;&gt;Node23</title>
<path fill="none" stroke="#191970" d="M932,-525.4005C932,-517.0099 932,-504.4451 932,-493.2085"/>
<polygon fill="#191970" stroke="#191970" points="935.5001,-493.0217 932,-483.0218 928.5001,-493.0218 935.5001,-493.0217"/>
</g>
<!-- Node29 -->
<g id="node30" class="node">
<title>Node29</title>
<g id="a_node30"><a xlink:href="io__utils_8_h.html" target="_top" xlink:title="amr&#45;wind/utilities\l/io_utils.H">
<polygon fill="#ffffff" stroke="#000000" points="1115,-453 1115,-483 1217,-483 1217,-453 1115,-453"/>
<text text-anchor="start" x="1123" y="-471" font-family="Helvetica,sans-Serif" font-size="10.00" fill="#000000">amr&#45;wind/utilities</text>
<text text-anchor="middle" x="1166" y="-460" font-family="Helvetica,sans-Serif" font-size="10.00" fill="#000000">/io_utils.H</text>
</a>
</g>
</g>
<!-- Node0&#45;&gt;Node29 -->
<g id="edge41" class="edge">
<title>Node0&#45;&gt;Node29</title>
<path fill="none" stroke="#191970" d="M965.5265,-525.4005C1001.8302,-515.0059 1060.5067,-498.2054 1105.0212,-485.4597"/>
<polygon fill="#191970" stroke="#191970" points="1106.2121,-488.7595 1114.8624,-482.642 1104.2852,-482.0299 1106.2121,-488.7595"/>
</g>
<!-- Node2 -->
<g id="node3" class="node">
<title>Node2</title>
<g id="a_node3"><a xlink:href="turbine__types_8_h.html" target="_top" xlink:title="amr&#45;wind/wind_energy\l/actuator/turbine/turbine\l_types.H">
<polygon fill="#ffffff" stroke="#000000" points="549.5,-369.5 549.5,-410.5 684.5,-410.5 684.5,-369.5 549.5,-369.5"/>
<text text-anchor="start" x="557.5" y="-398.5" font-family="Helvetica,sans-Serif" font-size="10.00" fill="#000000">amr&#45;wind/wind_energy</text>
<text text-anchor="start" x="557.5" y="-387.5" font-family="Helvetica,sans-Serif" font-size="10.00" fill="#000000">/actuator/turbine/turbine</text>
<text text-anchor="middle" x="617" y="-376.5" font-family="Helvetica,sans-Serif" font-size="10.00" fill="#000000">_types.H</text>
</a>
</g>
</g>
<!-- Node1&#45;&gt;Node2 -->
<g id="edge2" class="edge">
<title>Node1&#45;&gt;Node2</title>
<path fill="none" stroke="#191970" d="M617,-447.0974C617,-439.077 617,-429.7444 617,-420.9772"/>
<polygon fill="#191970" stroke="#191970" points="620.5001,-420.6898 617,-410.6898 613.5001,-420.6898 620.5001,-420.6898"/>
</g>
<!-- Node21 -->
<g id="node22" class="node">
<title>Node21</title>
<g id="a_node22"><a xlink:href="_act_parser_8_h.html" target="_top" xlink:title="amr&#45;wind/wind_energy\l/actuator/ActParser.H">
<polygon fill="#ffffff" stroke="#000000" points="403,-375 403,-405 531,-405 531,-375 403,-375"/>
<text text-anchor="start" x="411" y="-393" font-family="Helvetica,sans-Serif" font-size="10.00" fill="#000000">amr&#45;wind/wind_energy</text>
<text text-anchor="middle" x="467" y="-382" font-family="Helvetica,sans-Serif" font-size="10.00" fill="#000000">/actuator/ActParser.H</text>
</a>
</g>
</g>
<!-- Node1&#45;&gt;Node21 -->
<g id="edge32" class="edge">
<title>Node1&#45;&gt;Node21</title>
<path fill="none" stroke="#191970" d="M577.1966,-447.3022C554.869,-435.6919 527.1591,-421.2828 505.1122,-409.8183"/>
<polygon fill="#191970" stroke="#191970" points="506.5293,-406.6103 496.0424,-405.102 503.2998,-412.8209 506.5293,-406.6103"/>
</g>
<!-- Node3 -->
<g id="node4" class="node">
<title>Node3</title>
<g id="a_node4"><a xlink:href="actuator__types_8_h.html" target="_top" xlink:title="amr&#45;wind/wind_energy\l/actuator/actuator_types.H">
<polygon fill="#ffffff" stroke="#000000" points="588,-302.5 588,-332.5 734,-332.5 734,-302.5 588,-302.5"/>
<text text-anchor="start" x="596" y="-320.5" font-family="Helvetica,sans-Serif" font-size="10.00" fill="#000000">amr&#45;wind/wind_energy</text>
<text text-anchor="middle" x="661" y="-309.5" font-family="Helvetica,sans-Serif" font-size="10.00" fill="#000000">/actuator/actuator_types.H</text>
</a>
</g>
</g>
<!-- Node2&#45;&gt;Node3 -->
<g id="edge3" class="edge">
<title>Node2&#45;&gt;Node3</title>
<path fill="none" stroke="#191970" d="M629.4909,-369.4183C634.8264,-360.627 641.0858,-350.3132 646.6137,-341.2047"/>
<polygon fill="#191970" stroke="#191970" points="649.6402,-342.9638 651.8364,-332.5991 643.656,-339.332 649.6402,-342.9638"/>
</g>
<!-- Node4 -->
<g id="node5" class="node">
<title>Node4</title>
<g id="a_node5"><a xlink:href="_slice_8_h.html" target="_top" xlink:title="amr&#45;wind/core/Slice.H">
<polygon fill="#ffffff" stroke="#000000" points="782.5,-241 782.5,-260 905.5,-260 905.5,-241 782.5,-241"/>
<text text-anchor="middle" x="844" y="-248" font-family="Helvetica,sans-Serif" font-size="10.00" fill="#000000">amr&#45;wind/core/Slice.H</text>
</a>
</g>
</g>
<!-- Node3&#45;&gt;Node4 -->
<g id="edge4" class="edge">
<title>Node3&#45;&gt;Node4</title>
<path fill="none" stroke="#191970" d="M702.0688,-302.4639C733.975,-290.7824 777.7788,-274.7449 808.2512,-263.5884"/>
<polygon fill="#191970" stroke="#191970" points="809.8507,-266.73 818.0378,-260.0053 807.444,-260.1567 809.8507,-266.73"/>
</g>
<!-- Node7 -->
<g id="node8" class="node">
<title>Node7</title>
<polygon fill="#ffffff" stroke="#bfbfbf" points="499,-.5 499,-19.5 585,-19.5 585,-.5 499,-.5"/>
<text text-anchor="middle" x="542" y="-7.5" font-family="Helvetica,sans-Serif" font-size="10.00" fill="#000000">AMReX_Gpu.H</text>
</g>
<!-- Node3&#45;&gt;Node7 -->
<g id="edge29" class="edge">
<title>Node3&#45;&gt;Node7</title>
<path fill="none" stroke="#191970" d="M636.2066,-302.4882C623.2875,-293.4474 608.2879,-280.8215 599,-266 580.2829,-236.1313 580,-224.2487 580,-189 580,-189 580,-189 580,-133 580,-94.6461 562.9248,-52.4423 551.6666,-28.7843"/>
<polygon fill="#191970" stroke="#191970" points="554.6861,-26.9938 547.1248,-19.5723 548.4077,-30.0892 554.6861,-26.9938"/>
</g>
<!-- Node8 -->
<g id="node9" class="node">
<title>Node8</title>
<g id="a_node9"><a xlink:href="vector__space_8_h.html" target="_top" xlink:title="amr&#45;wind/core/vs/vector\l_space.H">
<polygon fill="#ffffff" stroke="#000000" points="357,-235.5 357,-265.5 491,-265.5 491,-235.5 357,-235.5"/>
<text text-anchor="start" x="365" y="-253.5" font-family="Helvetica,sans-Serif" font-size="10.00" fill="#000000">amr&#45;wind/core/vs/vector</text>
<text text-anchor="middle" x="424" y="-242.5" font-family="Helvetica,sans-Serif" font-size="10.00" fill="#000000">_space.H</text>
</a>
</g>
</g>
<!-- Node3&#45;&gt;Node8 -->
<g id="edge8" class="edge">
<title>Node3&#45;&gt;Node8</title>
<path fill="none" stroke="#191970" d="M607.8126,-302.4639C572.1077,-292.3701 524.8984,-279.024 487.2641,-268.3848"/>
<polygon fill="#191970" stroke="#191970" points="487.9944,-264.9541 477.4194,-265.6017 486.0901,-271.6901 487.9944,-264.9541"/>
</g>
<!-- Node19 -->
<g id="node20" class="node">
<title>Node19</title>
<polygon fill="#ffffff" stroke="#bfbfbf" points="608,-241 608,-260 714,-260 714,-241 608,-241"/>
<text text-anchor="middle" x="661" y="-248" font-family="Helvetica,sans-Serif" font-size="10.00" fill="#000000">AMReX_RealBox.H</text>
</g>
<!-- Node3&#45;&gt;Node19 -->
<g id="edge30" class="edge">
<title>Node3&#45;&gt;Node19</title>
<path fill="none" stroke="#191970" d="M661,-302.2967C661,-292.7699 661,-280.3954 661,-270.1306"/>
<polygon fill="#191970" stroke="#191970" points="664.5001,-270.0549 661,-260.055 657.5001,-270.055 664.5001,-270.0549"/>
</g>
<!-- Node20 -->
<g id="node21" class="node">
<title>Node20</title>
<polygon fill="#ffffff" stroke="#bfbfbf" points="732,-241 732,-260 764,-260 764,-241 732,-241"/>
<text text-anchor="middle" x="748" y="-248" font-family="Helvetica,sans-Serif" font-size="10.00" fill="#000000">set</text>
</g>
<!-- Node3&#45;&gt;Node20 -->
<g id="edge31" class="edge">
<title>Node3&#45;&gt;Node20</title>
<path fill="none" stroke="#191970" d="M680.7416,-302.2967C694.6915,-291.5537 713.3435,-277.1895 727.4668,-266.3129"/>
<polygon fill="#191970" stroke="#191970" points="729.8055,-268.9295 735.5928,-260.055 725.5344,-263.3835 729.8055,-268.9295"/>
</g>
<!-- Node5 -->
<g id="node6" class="node">
<title>Node5</title>
<polygon fill="#ffffff" stroke="#bfbfbf" points="817.5,-179.5 817.5,-198.5 870.5,-198.5 870.5,-179.5 817.5,-179.5"/>
<text text-anchor="middle" x="844" y="-186.5" font-family="Helvetica,sans-Serif" font-size="10.00" fill="#000000">iterator</text>
</g>
<!-- Node4&#45;&gt;Node5 -->
<g id="edge5" class="edge">
<title>Node4&#45;&gt;Node5</title>
<path fill="none" stroke="#191970" d="M844,-240.8906C844,-232.3657 844,-219.6392 844,-208.9235"/>
<polygon fill="#191970" stroke="#191970" points="847.5001,-208.7448 844,-198.7449 840.5001,-208.7449 847.5001,-208.7448"/>
</g>
<!-- Node6 -->
<g id="node7" class="node">
<title>Node6</title>
<polygon fill="#ffffff" stroke="#bfbfbf" points="1017,-179.5 1017,-198.5 1113,-198.5 1113,-179.5 1017,-179.5"/>
<text text-anchor="middle" x="1065" y="-186.5" font-family="Helvetica,sans-Serif" font-size="10.00" fill="#000000">AMReX_Vector.H</text>
</g>
<!-- Node4&#45;&gt;Node6 -->
<g id="edge6" class="edge">
<title>Node4&#45;&gt;Node6</title>
<path fill="none" stroke="#191970" d="M878.5313,-240.8906C916.9682,-230.1944 979.1744,-212.8836 1021.0536,-201.2294"/>
<polygon fill="#191970" stroke="#191970" points="1022.0157,-204.5948 1030.7112,-198.5419 1020.1389,-197.851 1022.0157,-204.5948"/>
</g>
<!-- Node4&#45;&gt;Node7 -->
<g id="edge7" class="edge">
<title>Node4&#45;&gt;Node7</title>
<path fill="none" stroke="#191970" d="M831.7872,-240.7742C785.3939,-203.8286 619.8006,-71.9571 562.0452,-25.9631"/>
<polygon fill="#191970" stroke="#191970" points="564.0368,-23.075 554.0339,-19.5833 559.6761,-28.5508 564.0368,-23.075"/>
</g>
<!-- Node9 -->
<g id="node10" class="node">
<title>Node9</title>
<g id="a_node10"><a xlink:href="vector_8_h.html" target="_top" xlink:title="amr&#45;wind/core/vs/vector.H">
<polygon fill="#ffffff" stroke="#000000" points="151,-123.5 151,-142.5 295,-142.5 295,-123.5 151,-123.5"/>
<text text-anchor="middle" x="223" y="-130.5" font-family="Helvetica,sans-Serif" font-size="10.00" fill="#000000">amr&#45;wind/core/vs/vector.H</text>
</a>
</g>
</g>
<!-- Node8&#45;&gt;Node9 -->
<g id="edge9" class="edge">
<title>Node8&#45;&gt;Node9</title>
<path fill="none" stroke="#191970" d="M398.1343,-235.3795C359.427,-212.7521 286.8813,-170.3435 248.4299,-147.8657"/>
<polygon fill="#191970" stroke="#191970" points="249.8295,-144.6298 239.43,-142.6046 246.2968,-150.673 249.8295,-144.6298"/>
</g>
<!-- Node16 -->
<g id="node17" class="node">
<title>Node16</title>
<g id="a_node17"><a xlink:href="tensor_8_h.html" target="_top" xlink:title="amr&#45;wind/core/vs/tensor.H">
<polygon fill="#ffffff" stroke="#000000" points="353,-179.5 353,-198.5 497,-198.5 497,-179.5 353,-179.5"/>
<text text-anchor="middle" x="425" y="-186.5" font-family="Helvetica,sans-Serif" font-size="10.00" fill="#000000">amr&#45;wind/core/vs/tensor.H</text>
</a>
</g>
</g>
<!-- Node8&#45;&gt;Node16 -->
<g id="edge18" class="edge">
<title>Node8&#45;&gt;Node16</title>
<path fill="none" stroke="#191970" d="M424.2472,-235.2977C424.3759,-227.3834 424.5349,-217.6043 424.6736,-209.0759"/>
<polygon fill="#191970" stroke="#191970" points="428.1767,-208.9025 424.8399,-198.8469 421.1777,-208.7887 428.1767,-208.9025"/>
</g>
<!-- Node9&#45;&gt;Node7 -->
<g id="edge10" class="edge">
<title>Node9&#45;&gt;Node7</title>
<path fill="none" stroke="#191970" d="M295.1454,-126.3718C361.4393,-119.21 453.9672,-106.1839 485,-87 507.4561,-73.1181 523.9785,-46.8482 533.2922,-28.8893"/>
<polygon fill="#191970" stroke="#191970" points="536.5557,-30.1839 537.8252,-19.6654 530.2734,-27.0965 536.5557,-30.1839"/>
</g>
<!-- Node10 -->
<g id="node11" class="node">
<title>Node10</title>
<g id="a_node11"><a xlink:href="vstraits_8_h.html" target="_top" xlink:title="amr&#45;wind/core/vs/vstraits.H">
<polygon fill="#ffffff" stroke="#000000" points="166.5,-62 166.5,-81 317.5,-81 317.5,-62 166.5,-62"/>
<text text-anchor="middle" x="242" y="-69" font-family="Helvetica,sans-Serif" font-size="10.00" fill="#000000">amr&#45;wind/core/vs/vstraits.H</text>
</a>
</g>
</g>
<!-- Node9&#45;&gt;Node10 -->
<g id="edge11" class="edge">
<title>Node9&#45;&gt;Node10</title>
<path fill="none" stroke="#191970" d="M225.9688,-123.3906C228.6302,-114.776 232.6171,-101.8708 235.9491,-91.0858"/>
<polygon fill="#191970" stroke="#191970" points="239.3816,-91.8324 238.9894,-81.2449 232.6935,-89.7661 239.3816,-91.8324"/>
</g>
<!-- Node13 -->
<g id="node14" class="node">
<title>Node13</title>
<g id="a_node14"><a xlink:href="vector_i_8_h.html" target="_top" xlink:title="amr&#45;wind/core/vs/vectorI.H">
<polygon fill="#ffffff" stroke="#000000" points="0,-62 0,-81 148,-81 148,-62 0,-62"/>
<text text-anchor="middle" x="74" y="-69" font-family="Helvetica,sans-Serif" font-size="10.00" fill="#000000">amr&#45;wind/core/vs/vectorI.H</text>
</a>
</g>
</g>
<!-- Node9&#45;&gt;Node13 -->
<g id="edge14" class="edge">
<title>Node9&#45;&gt;Node13</title>
<path fill="none" stroke="#191970" d="M194.6563,-123.3906C167.8361,-113.1457 128.0905,-96.8326 101.5426,-85.2339"/>
<polygon fill="#191970" stroke="#191970" points="102.6295,-81.8876 92.0685,-81.0419 99.7971,-88.289 102.6295,-81.8876"/>
</g>
<!-- Node11 -->
<g id="node12" class="node">
<title>Node11</title>
<polygon fill="#ffffff" stroke="#bfbfbf" points="220,-.5 220,-19.5 264,-19.5 264,-.5 220,-.5"/>
<text text-anchor="middle" x="242" y="-7.5" font-family="Helvetica,sans-Serif" font-size="10.00" fill="#000000">limits</text>
</g>
<!-- Node10&#45;&gt;Node11 -->
<g id="edge12" class="edge">
<title>Node10&#45;&gt;Node11</title>
<path fill="none" stroke="#191970" d="M242,-61.8906C242,-53.3657 242,-40.6392 242,-29.9235"/>
<polygon fill="#191970" stroke="#191970" points="245.5001,-29.7448 242,-19.7449 238.5001,-29.7449 245.5001,-29.7448"/>
</g>
<!-- Node12 -->
<g id="node13" class="node">
<title>Node12</title>
<polygon fill="#ffffff" stroke="#bfbfbf" points="379.5,-.5 379.5,-19.5 470.5,-19.5 470.5,-.5 379.5,-.5"/>
<text text-anchor="middle" x="425" y="-7.5" font-family="Helvetica,sans-Serif" font-size="10.00" fill="#000000">AMReX_REAL.H</text>
</g>
<!-- Node10&#45;&gt;Node12 -->
<g id="edge13" class="edge">
<title>Node10&#45;&gt;Node12</title>
<path fill="none" stroke="#191970" d="M270.5938,-61.8906C301.8845,-51.3749 352.1986,-34.466 386.84,-22.8243"/>
<polygon fill="#191970" stroke="#191970" points="388.243,-26.0452 396.607,-19.5419 386.013,-19.4099 388.243,-26.0452"/>
</g>
<!-- Node13&#45;&gt;Node9 -->
<g id="edge17" class="edge">
<title>Node13&#45;&gt;Node9</title>
<path fill="none" stroke="#191970" d="M102.1671,-81.0419C129.0481,-91.3051 169.0267,-107.7139 195.633,-119.3428"/>
<polygon fill="#191970" stroke="#191970" points="194.2202,-122.545 204.7813,-123.3906 197.0527,-116.1436 194.2202,-122.545"/>
</g>
<!-- Node14 -->
<g id="node15" class="node">
<title>Node14</title>
<polygon fill="#ffffff" stroke="#bfbfbf" points="45.5,-.5 45.5,-19.5 102.5,-19.5 102.5,-.5 45.5,-.5"/>
<text text-anchor="middle" x="74" y="-7.5" font-family="Helvetica,sans-Serif" font-size="10.00" fill="#000000">ostream</text>
</g>
<!-- Node13&#45;&gt;Node14 -->
<g id="edge15" class="edge">
<title>Node13&#45;&gt;Node14</title>
<path fill="none" stroke="#191970" d="M74,-61.8906C74,-53.3657 74,-40.6392 74,-29.9235"/>
<polygon fill="#191970" stroke="#191970" points="77.5001,-29.7448 74,-19.7449 70.5001,-29.7449 77.5001,-29.7448"/>
</g>
<!-- Node15 -->
<g id="node16" class="node">
<title>Node15</title>
<polygon fill="#ffffff" stroke="#bfbfbf" points="314.5,-.5 314.5,-19.5 361.5,-19.5 361.5,-.5 314.5,-.5"/>
<text text-anchor="middle" x="338" y="-7.5" font-family="Helvetica,sans-Serif" font-size="10.00" fill="#000000">cmath</text>
</g>
<!-- Node13&#45;&gt;Node15 -->
<g id="edge16" class="edge">
<title>Node13&#45;&gt;Node15</title>
<path fill="none" stroke="#191970" d="M114.9603,-61.9581C167.0429,-49.8252 255.9937,-29.1037 304.3289,-17.8438"/>
<polygon fill="#191970" stroke="#191970" points="305.337,-21.2028 314.2821,-15.5252 303.7488,-14.3853 305.337,-21.2028"/>
</g>
<!-- Node16&#45;&gt;Node7 -->
<g id="edge19" class="edge">
<title>Node16&#45;&gt;Node7</title>
<path fill="none" stroke="#191970" d="M454.7957,-179.3582C472.7294,-172.0819 494.609,-160.3434 508,-143 533.9869,-109.3428 540.2658,-57.9976 541.6848,-29.968"/>
<polygon fill="#191970" stroke="#191970" points="545.1881,-29.9317 542.0334,-19.8174 538.1922,-29.6913 545.1881,-29.9317"/>
</g>
<!-- Node16&#45;&gt;Node9 -->
<g id="edge21" class="edge">
<title>Node16&#45;&gt;Node9</title>
<path fill="none" stroke="#191970" d="M390.275,-179.3733C356.2492,-169.9404 304.2563,-155.5265 267.2766,-145.2747"/>
<polygon fill="#191970" stroke="#191970" points="267.8435,-141.7999 257.2719,-142.5011 265.9734,-148.5455 267.8435,-141.7999"/>
</g>
<!-- Node16&#45;&gt;Node10 -->
<g id="edge20" class="edge">
<title>Node16&#45;&gt;Node10</title>
<path fill="none" stroke="#191970" d="M406.1863,-179.3646C389.1287,-170.4438 363.4499,-156.5498 342,-143 313.5507,-125.0288 282.2126,-102.0727 262.3355,-87.0889"/>
<polygon fill="#191970" stroke="#191970" points="264.3933,-84.2568 254.3106,-81.0026 260.1633,-89.8342 264.3933,-84.2568"/>
</g>
<!-- Node17 -->
<g id="node18" class="node">
<title>Node17</title>
<g id="a_node18"><a xlink:href="tensor_i_8_h.html" target="_top" xlink:title="amr&#45;wind/core/vs/tensorI.H">
<polygon fill="#ffffff" stroke="#000000" points="351,-123.5 351,-142.5 499,-142.5 499,-123.5 351,-123.5"/>
<text text-anchor="middle" x="425" y="-130.5" font-family="Helvetica,sans-Serif" font-size="10.00" fill="#000000">amr&#45;wind/core/vs/tensorI.H</text>
</a>
</g>
</g>
<!-- Node16&#45;&gt;Node17 -->
<g id="edge22" class="edge">
<title>Node16&#45;&gt;Node17</title>
<path fill="none" stroke="#191970" d="M419.7332,-179.2455C418.3221,-171.9382 417.9179,-161.6944 418.5205,-152.7046"/>
<polygon fill="#191970" stroke="#191970" points="422.0111,-152.9945 419.7549,-142.6427 415.0632,-152.1421 422.0111,-152.9945"/>
</g>
<!-- Node17&#45;&gt;Node15 -->
<g id="edge23" class="edge">
<title>Node17&#45;&gt;Node15</title>
<path fill="none" stroke="#191970" d="M407.514,-123.4153C394.1776,-115.2982 376.2434,-102.5187 365,-87 352.5746,-69.8498 345.4537,-46.4706 341.6793,-29.9865"/>
<polygon fill="#191970" stroke="#191970" points="345.0326,-28.9195 339.5768,-19.8374 338.1781,-30.3395 345.0326,-28.9195"/>
</g>
<!-- Node17&#45;&gt;Node16 -->
<g id="edge24" class="edge">
<title>Node17&#45;&gt;Node16</title>
<path fill="none" stroke="#191970" d="M430.2451,-142.6427C431.6665,-149.9199 432.081,-160.155 431.4887,-169.1575"/>
<polygon fill="#191970" stroke="#191970" points="427.9947,-168.8972 430.2668,-179.2455 434.9439,-169.739 427.9947,-168.8972"/>
</g>
<!-- Node18 -->
<g id="node19" class="node">
<title>Node18</title>
<g id="a_node19"><a xlink:href="trig__ops_8_h.html" target="_top" xlink:title="Trigonometric utilities. ">
<polygon fill="#ffffff" stroke="#000000" points="374,-56.5 374,-86.5 476,-86.5 476,-56.5 374,-56.5"/>
<text text-anchor="start" x="382" y="-74.5" font-family="Helvetica,sans-Serif" font-size="10.00" fill="#000000">amr&#45;wind/utilities</text>
<text text-anchor="middle" x="425" y="-63.5" font-family="Helvetica,sans-Serif" font-size="10.00" fill="#000000">/trig_ops.H</text>
</a>
</g>
</g>
<!-- Node17&#45;&gt;Node18 -->
<g id="edge25" class="edge">
<title>Node17&#45;&gt;Node18</title>
<path fill="none" stroke="#191970" d="M425,-123.3906C425,-116.2234 425,-106.0862 425,-96.671"/>
<polygon fill="#191970" stroke="#191970" points="428.5001,-96.5446 425,-86.5446 421.5001,-96.5446 428.5001,-96.5446"/>
</g>
<!-- Node18&#45;&gt;Node7 -->
<g id="edge28" class="edge">
<title>Node18&#45;&gt;Node7</title>
<path fill="none" stroke="#191970" d="M453.6214,-56.4554C472.287,-46.644 496.4999,-33.9167 514.8612,-24.2653"/>
<polygon fill="#191970" stroke="#191970" points="516.646,-27.2812 523.8692,-19.5303 513.389,-21.0851 516.646,-27.2812"/>
</g>
<!-- Node18&#45;&gt;Node12 -->
<g id="edge27" class="edge">
<title>Node18&#45;&gt;Node12</title>
<path fill="none" stroke="#191970" d="M425,-56.2977C425,-48.3834 425,-38.6043 425,-30.0759"/>
<polygon fill="#191970" stroke="#191970" points="428.5001,-29.8469 425,-19.8469 421.5001,-29.847 428.5001,-29.8469"/>
</g>
<!-- Node18&#45;&gt;Node15 -->
<g id="edge26" class="edge">
<title>Node18&#45;&gt;Node15</title>
<path fill="none" stroke="#191970" d="M403.4944,-56.2977C390.2032,-46.9022 373.1943,-34.8787 359.8412,-25.4395"/>
<polygon fill="#191970" stroke="#191970" points="361.8561,-22.5776 351.67,-19.6633 357.8154,-28.2937 361.8561,-22.5776"/>
</g>
<!-- Node21&#45;&gt;Node8 -->
<g id="edge33" class="edge">
<title>Node21&#45;&gt;Node8</title>
<path fill="none" stroke="#191970" d="M459.749,-374.7885C454.5583,-363.4595 447.6866,-347.5087 443,-333 436.885,-314.0694 431.925,-292.0944 428.6079,-275.5863"/>
<polygon fill="#191970" stroke="#191970" points="432.0135,-274.7629 426.6698,-265.6144 425.1421,-276.0985 432.0135,-274.7629"/>
</g>
<!-- Node22 -->
<g id="node23" class="node">
<title>Node22</title>
<polygon fill="#ffffff" stroke="#bfbfbf" points="452.5,-308 452.5,-327 569.5,-327 569.5,-308 452.5,-308"/>
<text text-anchor="middle" x="511" y="-315" font-family="Helvetica,sans-Serif" font-size="10.00" fill="#000000">AMReX_ParmParse.H</text>
</g>
<!-- Node21&#45;&gt;Node22 -->
<g id="edge34" class="edge">
<title>Node21&#45;&gt;Node22</title>
<path fill="none" stroke="#191970" d="M476.1168,-374.978C482.9494,-363.7198 492.3416,-348.2439 499.6592,-336.1866"/>
<polygon fill="#191970" stroke="#191970" points="502.7982,-337.7604 504.9944,-327.3957 496.814,-334.1286 502.7982,-337.7604"/>
</g>
<!-- Node24 -->
<g id="node25" class="node">
<title>Node24</title>
<polygon fill="#ffffff" stroke="#bfbfbf" points="1048,-380.5 1048,-399.5 1092,-399.5 1092,-380.5 1048,-380.5"/>
<text text-anchor="middle" x="1070" y="-387.5" font-family="Helvetica,sans-Serif" font-size="10.00" fill="#000000">string</text>
</g>
<!-- Node23&#45;&gt;Node24 -->
<g id="edge36" class="edge">
<title>Node23&#45;&gt;Node24</title>
<path fill="none" stroke="#191970" d="M962.4535,-452.8659C984.1283,-441.8327 1013.763,-426.2117 1039,-411 1042.0429,-409.1659 1045.1996,-407.1577 1048.2827,-405.1333"/>
<polygon fill="#191970" stroke="#191970" points="1050.2828,-408.0061 1056.6216,-399.5166 1046.3722,-402.2003 1050.2828,-408.0061"/>
</g>
<!-- Node25 -->
<g id="node26" class="node">
<title>Node25</title>
<polygon fill="#ffffff" stroke="#bfbfbf" points="797.5,-380.5 797.5,-399.5 890.5,-399.5 890.5,-380.5 797.5,-380.5"/>
<text text-anchor="middle" x="844" y="-387.5" font-family="Helvetica,sans-Serif" font-size="10.00" fill="#000000">unordered_map</text>
</g>
<!-- Node23&#45;&gt;Node25 -->
<g id="edge37" class="edge">
<title>Node23&#45;&gt;Node25</title>
<path fill="none" stroke="#191970" d="M915.0327,-452.9608C900.0305,-439.6634 878.1828,-420.2984 862.6852,-406.5619"/>
<polygon fill="#191970" stroke="#191970" points="864.6176,-403.5977 854.8126,-399.5839 859.9745,-408.8362 864.6176,-403.5977"/>
</g>
<!-- Node26 -->
<g id="node27" class="node">
<title>Node26</title>
<polygon fill="#ffffff" stroke="#bfbfbf" points="908.5,-380.5 908.5,-399.5 955.5,-399.5 955.5,-380.5 908.5,-380.5"/>
<text text-anchor="middle" x="932" y="-387.5" font-family="Helvetica,sans-Serif" font-size="10.00" fill="#000000">vector</text>
</g>
<!-- Node23&#45;&gt;Node26 -->
<g id="edge38" class="edge">
<title>Node23&#45;&gt;Node26</title>
<path fill="none" stroke="#191970" d="M932,-452.9608C932,-440.6484 932,-423.134 932,-409.7024"/>
<polygon fill="#191970" stroke="#191970" points="935.5001,-409.5838 932,-399.5839 928.5001,-409.5839 935.5001,-409.5838"/>
</g>
<!-- Node27 -->
<g id="node28" class="node">
<title>Node27</title>
<polygon fill="#ffffff" stroke="#bfbfbf" points="974,-380.5 974,-399.5 1030,-399.5 1030,-380.5 974,-380.5"/>
<text text-anchor="middle" x="1002" y="-387.5" font-family="Helvetica,sans-Serif" font-size="10.00" fill="#000000">netcdf.h</text>
</g>
<!-- Node23&#45;&gt;Node27 -->
<g id="edge39" class="edge">
<title>Node23&#45;&gt;Node27</title>
<path fill="none" stroke="#191970" d="M945.4967,-452.9608C957.2093,-439.9097 974.1673,-421.0136 986.4467,-407.3308"/>
<polygon fill="#191970" stroke="#191970" points="989.3248,-409.364 993.3991,-399.5839 984.1151,-404.6886 989.3248,-409.364"/>
</g>
<!-- Node28 -->
<g id="node29" class="node">
<title>Node28</title>
<polygon fill="#ffffff" stroke="#bfbfbf" points="702.5,-380.5 702.5,-399.5 779.5,-399.5 779.5,-380.5 702.5,-380.5"/>
<text text-anchor="middle" x="741" y="-387.5" font-family="Helvetica,sans-Serif" font-size="10.00" fill="#000000">netcdf_par.h</text>
</g>
<!-- Node23&#45;&gt;Node28 -->
<g id="edge40" class="edge">
<title>Node23&#45;&gt;Node28</title>
<path fill="none" stroke="#191970" d="M893.3192,-452.982C864.4671,-441.6831 824.1393,-425.6853 789,-411 783.4085,-408.6632 777.4762,-406.1204 771.7594,-403.637"/>
<polygon fill="#191970" stroke="#191970" points="773.0043,-400.3614 762.4398,-399.5607 770.1991,-406.7748 773.0043,-400.3614"/>
</g>
<!-- Node29&#45;&gt;Node6 -->
<g id="edge46" class="edge">
<title>Node29&#45;&gt;Node6</title>
<path fill="none" stroke="#191970" d="M1170.6821,-452.9325C1176.0527,-433.2542 1183.1335,-397.9071 1175,-369 1156.4019,-302.9008 1106.0423,-237.0711 1080.4209,-206.5715"/>
<polygon fill="#191970" stroke="#191970" points="1082.7695,-203.9325 1073.6109,-198.606 1077.4488,-208.4813 1082.7695,-203.9325"/>
</g>
<!-- Node29&#45;&gt;Node24 -->
<g id="edge44" class="edge">
<title>Node29&#45;&gt;Node24</title>
<path fill="none" stroke="#191970" d="M1147.4902,-452.9608C1130.9727,-439.5403 1106.8484,-419.9393 1089.9161,-406.1818"/>
<polygon fill="#191970" stroke="#191970" points="1091.7638,-403.1734 1081.7955,-399.5839 1087.3496,-408.6062 1091.7638,-403.1734"/>
</g>
<!-- Node30 -->
<g id="node31" class="node">
<title>Node30</title>
<polygon fill="#ffffff" stroke="#bfbfbf" points="1222,-380.5 1222,-399.5 1272,-399.5 1272,-380.5 1222,-380.5"/>
<text text-anchor="middle" x="1247" y="-387.5" font-family="Helvetica,sans-Serif" font-size="10.00" fill="#000000">chrono</text>
</g>
<!-- Node29&#45;&gt;Node30 -->
<g id="edge42" class="edge">
<title>Node29&#45;&gt;Node30</title>
<path fill="none" stroke="#191970" d="M1181.6176,-452.9608C1195.4265,-439.6634 1215.5362,-420.2984 1229.8011,-406.5619"/>
<polygon fill="#191970" stroke="#191970" points="1232.2721,-409.0414 1237.0475,-399.5839 1227.4165,-403.9992 1232.2721,-409.0414"/>
</g>
<!-- Node31 -->
<g id="node32" class="node">
<title>Node31</title>
<polygon fill="#ffffff" stroke="#bfbfbf" points="1290,-380.5 1290,-399.5 1334,-399.5 1334,-380.5 1290,-380.5"/>
<text text-anchor="middle" x="1312" y="-387.5" font-family="Helvetica,sans-Serif" font-size="10.00" fill="#000000">ctime</text>
</g>
<!-- Node29&#45;&gt;Node31 -->
<g id="edge43" class="edge">
<title>Node29&#45;&gt;Node31</title>
<path fill="none" stroke="#191970" d="M1199.3382,-452.9396C1222.637,-442.0629 1254.2412,-426.599 1281,-411 1284.0695,-409.2106 1287.2414,-407.2281 1290.332,-405.2165"/>
<polygon fill="#191970" stroke="#191970" points="1292.3296,-408.0909 1298.6746,-399.6061 1288.4233,-402.2822 1292.3296,-408.0909"/>
</g>
<!-- Node32 -->
<g id="node33" class="node">
<title>Node32</title>
<polygon fill="#ffffff" stroke="#bfbfbf" points="1110,-380.5 1110,-399.5 1166,-399.5 1166,-380.5 1110,-380.5"/>
<text text-anchor="middle" x="1138" y="-387.5" font-family="Helvetica,sans-Serif" font-size="10.00" fill="#000000">sstream</text>
</g>
<!-- Node29&#45;&gt;Node32 -->
<g id="edge45" class="edge">
<title>Node29&#45;&gt;Node32</title>
<path fill="none" stroke="#191970" d="M1160.6013,-452.9608C1156.1373,-440.5253 1149.7683,-422.7832 1144.9284,-409.3007"/>
<polygon fill="#191970" stroke="#191970" points="1148.1133,-407.8133 1141.4404,-399.5839 1141.5249,-410.1784 1148.1133,-407.8133"/>
</g>
</g>
</svg>
        <g id="navigator" transform="translate(0 0)" fill="#404254">
                <rect fill="#f2f5e9" fill-opacity="0.5" stroke="#606060" stroke-width=".5" x="0" y="0" width="60" height="60"/>
                <use id="zoomplus" xlink:href="#zoomPlus" x="17" y="9" onmousedown="handleZoom(evt,'in')"/>
                <use id="zoomminus" xlink:href="#zoomMin" x="42" y="9" onmousedown="handleZoom(evt,'out')"/>
                <use id="reset" xlink:href="#resetDef" x="30" y="36" onmousedown="handleReset()"/>
                <g id="arrowUp" xlink:href="#dirArrow" transform="translate(30 24)" onmousedown="handlePan(0,-1)">
                  <use xlink:href="#rim" fill="#404040">
                        <set attributeName="fill" to="#808080" begin="arrowUp.mouseover" end="arrowUp.mouseout"/>
                  </use>
                  <path fill="none" stroke="white" stroke-width="1.5" d="M0,-3.0v7 M-2.5,-0.5L0,-3.0L2.5,-0.5"/>
                </g>
                <g id="arrowRight" xlink:href="#dirArrow" transform="rotate(90) translate(36 -43)" onmousedown="handlePan(1,0)">
                  <use xlink:href="#rim" fill="#404040">
                        <set attributeName="fill" to="#808080" begin="arrowRight.mouseover" end="arrowRight.mouseout"/>
                  </use>
                  <path fill="none" stroke="white" stroke-width="1.5" d="M0,-3.0v7 M-2.5,-0.5L0,-3.0L2.5,-0.5"/>
                </g>
                <g id="arrowDown" xlink:href="#dirArrow" transform="rotate(180) translate(-30 -48)" onmousedown="handlePan(0,1)">
                  <use xlink:href="#rim" fill="#404040">
                        <set attributeName="fill" to="#808080" begin="arrowDown.mouseover" end="arrowDown.mouseout"/>
                  </use>
                  <path fill="none" stroke="white" stroke-width="1.5" d="M0,-3.0v7 M-2.5,-0.5L0,-3.0L2.5,-0.5"/>
                </g>
                <g id="arrowLeft" xlink:href="#dirArrow" transform="rotate(270) translate(-36 17)" onmousedown="handlePan(-1,0)">
                  <use xlink:href="#rim" fill="#404040">
                        <set attributeName="fill" to="#808080" begin="arrowLeft.mouseover" end="arrowLeft.mouseout"/>
                  </use>
                  <path fill="none" stroke="white" stroke-width="1.5" d="M0,-3.0v7 M-2.5,-0.5L0,-3.0L2.5,-0.5"/>
                </g>
        </g>
        <svg viewBox="0 0 15 15" width="100%" height="30px" preserveAspectRatio="xMaxYMin meet">
         <g id="arrow_out" transform="scale(0.3 0.3)">
          <a xlink:href="turbine__utils_8cpp__incl_org.svg" target="_base">
           <rect id="button" ry="5" rx="5" y="6" x="6" height="38" width="38"
                fill="#f2f5e9" fill-opacity="0.5" stroke="#606060" stroke-width="1.0"/>
           <path id="arrow"
             d="M 11.500037,31.436501 C 11.940474,20.09759 22.043105,11.32322 32.158766,21.979434 L 37.068811,17.246167 C 37.068811,17.246167 37.088388,32 37.088388,32 L 22.160133,31.978069 C 22.160133,31.978069 26.997745,27.140456 26.997745,27.140456 C 18.528582,18.264221 13.291696,25.230495 11.500037,31.436501 z"
             style="fill:#404040;"/>
          </a>
         </g>
        </svg>
</svg>
