<?xml version="1.0" encoding="UTF-8" standalone="no"?>
<!DOCTYPE svg PUBLIC "-//W3C//DTD SVG 1.1//EN"
 "http://www.w3.org/Graphics/SVG/1.1/DTD/svg11.dtd">
<!-- Generated by graphviz version 2.40.1 (20161225.0304)
 -->
<!-- Title: vectorI.H Pages: 1 -->
<svg width="377pt" height="196pt"
 viewBox="0.00 0.00 377.00 196.00" xmlns="http://www.w3.org/2000/svg" xmlns:xlink="http://www.w3.org/1999/xlink">
<g id="graph0" class="graph" transform="scale(1 1) rotate(0) translate(4 192)">
<title>vectorI.H</title>
<polygon fill="#ffffff" stroke="transparent" points="-4,4 -4,-192 373,-192 373,4 -4,4"/>
<!-- Node0 -->
<g id="node1" class="node">
<title>Node0</title>
<polygon fill="#bfbfbf" stroke="#000000" points="125,-168.5 125,-187.5 186,-187.5 186,-168.5 125,-168.5"/>
<text text-anchor="middle" x="155.5" y="-175.5" font-family="Helvetica,sans-Serif" font-size="10.00" fill="#000000">vectorI.H</text>
</g>
<!-- Node1 -->
<g id="node2" class="node">
<title>Node1</title>
<polygon fill="#ffffff" stroke="#bfbfbf" points="0,-112.5 0,-131.5 57,-131.5 57,-112.5 0,-112.5"/>
<text text-anchor="middle" x="28.5" y="-119.5" font-family="Helvetica,sans-Serif" font-size="10.00" fill="#000000">ostream</text>
</g>
<!-- Node0&#45;&gt;Node1 -->
<g id="edge1" class="edge">
<title>Node0&#45;&gt;Node1</title>
<path fill="none" stroke="#191970" d="M133.6679,-168.3733C113.1897,-159.3435 82.3601,-145.7494 59.3681,-135.6111"/>
<polygon fill="#191970" stroke="#191970" points="60.6093,-132.3333 50.0472,-131.5011 57.785,-138.7383 60.6093,-132.3333"/>
</g>
<!-- Node2 -->
<g id="node3" class="node">
<title>Node2</title>
<polygon fill="#ffffff" stroke="#bfbfbf" points="75,-112.5 75,-131.5 122,-131.5 122,-112.5 75,-112.5"/>
<text text-anchor="middle" x="98.5" y="-119.5" font-family="Helvetica,sans-Serif" font-size="10.00" fill="#000000">cmath</text>
</g>
<!-- Node0&#45;&gt;Node2 -->
<g id="edge2" class="edge">
<title>Node0&#45;&gt;Node2</title>
<path fill="none" stroke="#191970" d="M145.5714,-168.2455C137.3162,-160.1352 125.3791,-148.4075 115.5918,-138.7919"/>
<polygon fill="#191970" stroke="#191970" points="117.9011,-136.1542 108.3149,-131.6427 112.9954,-141.1476 117.9011,-136.1542"/>
</g>
<!-- Node3 -->
<g id="node4" class="node">
<title>Node3</title>
<g id="a_node4"><a xlink:href="vector_8_h.html" target="_top" xlink:title="amr&#45;wind/core/vs/vector.H">
<polygon fill="#ffffff" stroke="#000000" points="140.5,-112.5 140.5,-131.5 284.5,-131.5 284.5,-112.5 140.5,-112.5"/>
<text text-anchor="middle" x="212.5" y="-119.5" font-family="Helvetica,sans-Serif" font-size="10.00" fill="#000000">amr&#45;wind/core/vs/vector.H</text>
</a>
</g>
</g>
<!-- Node0&#45;&gt;Node3 -->
<g id="edge3" class="edge">
<title>Node0&#45;&gt;Node3</title>
<path fill="none" stroke="#191970" d="M160.1618,-168.2455C166.9833,-159.9746 178.9239,-147.9416 189.7985,-138.2232"/>
<polygon fill="#191970" stroke="#191970" points="192.1464,-140.8203 197.44,-131.6427 187.5785,-135.516 192.1464,-140.8203"/>
</g>
<!-- Node3&#45;&gt;Node0 -->
<g id="edge8" class="edge">
<title>Node3&#45;&gt;Node0</title>
<path fill="none" stroke="#191970" d="M207.9303,-131.6427C201.1551,-139.8795 189.2329,-151.9058 178.3488,-161.645"/>
<polygon fill="#191970" stroke="#191970" points="175.9824,-159.0641 170.6955,-168.2455 180.5541,-164.365 175.9824,-159.0641"/>
</g>
<!-- Node4 -->
<g id="node5" class="node">
<title>Node4</title>
<polygon fill="#ffffff" stroke="#bfbfbf" points="100.5,-56.5 100.5,-75.5 186.5,-75.5 186.5,-56.5 100.5,-56.5"/>
<text text-anchor="middle" x="143.5" y="-63.5" font-family="Helvetica,sans-Serif" font-size="10.00" fill="#000000">AMReX_Gpu.H</text>
</g>
<!-- Node3&#45;&gt;Node4 -->
<g id="edge4" class="edge">
<title>Node3&#45;&gt;Node4</title>
<path fill="none" stroke="#191970" d="M200.4811,-112.2455C190.2902,-103.9746 175.4638,-91.9416 163.4893,-82.2232"/>
<polygon fill="#191970" stroke="#191970" points="165.3514,-79.2268 155.3812,-75.6427 160.9402,-84.662 165.3514,-79.2268"/>
</g>
<!-- Node5 -->
<g id="node6" class="node">
<title>Node5</title>
<g id="a_node6"><a xlink:href="vstraits_8_h.html" target="_top" xlink:title="amr&#45;wind/core/vs/vstraits.H">
<polygon fill="#ffffff" stroke="#000000" points="205,-56.5 205,-75.5 356,-75.5 356,-56.5 205,-56.5"/>
<text text-anchor="middle" x="280.5" y="-63.5" font-family="Helvetica,sans-Serif" font-size="10.00" fill="#000000">amr&#45;wind/core/vs/vstraits.H</text>
</a>
</g>
</g>
<!-- Node3&#45;&gt;Node5 -->
<g id="edge5" class="edge">
<title>Node3&#45;&gt;Node5</title>
<path fill="none" stroke="#191970" d="M224.3447,-112.2455C234.388,-103.9746 248.9995,-91.9416 260.8004,-82.2232"/>
<polygon fill="#191970" stroke="#191970" points="263.2967,-84.7015 268.791,-75.6427 258.8467,-79.298 263.2967,-84.7015"/>
</g>
<!-- Node6 -->
<g id="node7" class="node">
<title>Node6</title>
<polygon fill="#ffffff" stroke="#bfbfbf" points="215.5,-.5 215.5,-19.5 259.5,-19.5 259.5,-.5 215.5,-.5"/>
<text text-anchor="middle" x="237.5" y="-7.5" font-family="Helvetica,sans-Serif" font-size="10.00" fill="#000000">limits</text>
</g>
<!-- Node5&#45;&gt;Node6 -->
<g id="edge6" class="edge">
<title>Node5&#45;&gt;Node6</title>
<path fill="none" stroke="#191970" d="M273.01,-56.2455C266.9674,-48.3761 258.3097,-37.101 251.0559,-27.6542"/>
<polygon fill="#191970" stroke="#191970" points="253.7705,-25.4426 244.9042,-19.6427 248.2185,-29.7058 253.7705,-25.4426"/>
</g>
<!-- Node7 -->
<g id="node8" class="node">
<title>Node7</title>
<polygon fill="#ffffff" stroke="#bfbfbf" points="278,-.5 278,-19.5 369,-19.5 369,-.5 278,-.5"/>
<text text-anchor="middle" x="323.5" y="-7.5" font-family="Helvetica,sans-Serif" font-size="10.00" fill="#000000">AMReX_REAL.H</text>
</g>
<!-- Node5&#45;&gt;Node7 -->
<g id="edge7" class="edge">
<title>Node5&#45;&gt;Node7</title>
<path fill="none" stroke="#191970" d="M287.99,-56.2455C294.0326,-48.3761 302.6903,-37.101 309.9441,-27.6542"/>
<polygon fill="#191970" stroke="#191970" points="312.7815,-29.7058 316.0958,-19.6427 307.2295,-25.4426 312.7815,-29.7058"/>
</g>
</g>
</svg>
