<?xml version="1.0" encoding="UTF-8" standalone="no"?>
<!DOCTYPE svg PUBLIC "-//W3C//DTD SVG 1.1//EN"
 "http://www.w3.org/Graphics/SVG/1.1/DTD/svg11.dtd">
<!-- Generated by graphviz version 2.40.1 (20161225.0304)
 -->
<!-- Title: vector.H Pages: 1 -->
<svg width="430pt" height="140pt"
 viewBox="0.00 0.00 430.00 140.00" xmlns="http://www.w3.org/2000/svg" xmlns:xlink="http://www.w3.org/1999/xlink">
<g id="graph0" class="graph" transform="scale(1 1) rotate(0) translate(4 136)">
<title>vector.H</title>
<polygon fill="#ffffff" stroke="transparent" points="-4,4 -4,-136 426,-136 426,4 -4,4"/>
<!-- Node0 -->
<g id="node1" class="node">
<title>Node0</title>
<polygon fill="#bfbfbf" stroke="#000000" points="235.5,-112.5 235.5,-131.5 292.5,-131.5 292.5,-112.5 235.5,-112.5"/>
<text text-anchor="middle" x="264" y="-119.5" font-family="Helvetica,sans-Serif" font-size="10.00" fill="#000000">vector.H</text>
</g>
<!-- Node1 -->
<g id="node2" class="node">
<title>Node1</title>
<polygon fill="#ffffff" stroke="#bfbfbf" points="0,-56.5 0,-75.5 86,-75.5 86,-56.5 0,-56.5"/>
<text text-anchor="middle" x="43" y="-63.5" font-family="Helvetica,sans-Serif" font-size="10.00" fill="#000000">AMReX_Gpu.H</text>
</g>
<!-- Node0&#45;&gt;Node1 -->
<g id="edge1" class="edge">
<title>Node0&#45;&gt;Node1</title>
<path fill="none" stroke="#191970" d="M235.1081,-114.679C198.4195,-105.3823 134.612,-89.2139 90.6653,-78.0781"/>
<polygon fill="#191970" stroke="#191970" points="91.3327,-74.6367 80.7793,-75.573 89.6132,-81.4222 91.3327,-74.6367"/>
</g>
<!-- Node2 -->
<g id="node3" class="node">
<title>Node2</title>
<g id="a_node3"><a xlink:href="vstraits_8_h.html" target="_top" xlink:title="amr&#45;wind/core/vs/vstraits.H">
<polygon fill="#ffffff" stroke="#000000" points="104.5,-56.5 104.5,-75.5 255.5,-75.5 255.5,-56.5 104.5,-56.5"/>
<text text-anchor="middle" x="180" y="-63.5" font-family="Helvetica,sans-Serif" font-size="10.00" fill="#000000">amr&#45;wind/core/vs/vstraits.H</text>
</a>
</g>
</g>
<!-- Node0&#45;&gt;Node2 -->
<g id="edge2" class="edge">
<title>Node0&#45;&gt;Node2</title>
<path fill="none" stroke="#191970" d="M249.3683,-112.2455C236.6006,-103.7337 217.8562,-91.2375 203.0701,-81.3801"/>
<polygon fill="#191970" stroke="#191970" points="204.726,-78.2775 194.464,-75.6427 200.8431,-84.1019 204.726,-78.2775"/>
</g>
<!-- Node5 -->
<g id="node6" class="node">
<title>Node5</title>
<g id="a_node6"><a xlink:href="vector_i_8_h.html" target="_top" xlink:title="amr&#45;wind/core/vs/vectorI.H">
<polygon fill="#ffffff" stroke="#000000" points="274,-56.5 274,-75.5 422,-75.5 422,-56.5 274,-56.5"/>
<text text-anchor="middle" x="348" y="-63.5" font-family="Helvetica,sans-Serif" font-size="10.00" fill="#000000">amr&#45;wind/core/vs/vectorI.H</text>
</a>
</g>
</g>
<!-- Node0&#45;&gt;Node5 -->
<g id="edge5" class="edge">
<title>Node0&#45;&gt;Node5</title>
<path fill="none" stroke="#191970" d="M273.3648,-112.2455C284.6988,-103.5731 303.6552,-90.7645 319.7262,-80.825"/>
<polygon fill="#191970" stroke="#191970" points="321.5471,-83.8141 328.2909,-75.6427 317.9232,-77.8251 321.5471,-83.8141"/>
</g>
<!-- Node3 -->
<g id="node4" class="node">
<title>Node3</title>
<polygon fill="#ffffff" stroke="#bfbfbf" points="110,-.5 110,-19.5 154,-19.5 154,-.5 110,-.5"/>
<text text-anchor="middle" x="132" y="-7.5" font-family="Helvetica,sans-Serif" font-size="10.00" fill="#000000">limits</text>
</g>
<!-- Node2&#45;&gt;Node3 -->
<g id="edge3" class="edge">
<title>Node2&#45;&gt;Node3</title>
<path fill="none" stroke="#191970" d="M171.639,-56.2455C164.825,-48.2958 155.0319,-36.8706 146.8848,-27.3656"/>
<polygon fill="#191970" stroke="#191970" points="149.4305,-24.9575 140.2651,-19.6427 144.1157,-29.513 149.4305,-24.9575"/>
</g>
<!-- Node4 -->
<g id="node5" class="node">
<title>Node4</title>
<polygon fill="#ffffff" stroke="#bfbfbf" points="172.5,-.5 172.5,-19.5 263.5,-19.5 263.5,-.5 172.5,-.5"/>
<text text-anchor="middle" x="218" y="-7.5" font-family="Helvetica,sans-Serif" font-size="10.00" fill="#000000">AMReX_REAL.H</text>
</g>
<!-- Node2&#45;&gt;Node4 -->
<g id="edge4" class="edge">
<title>Node2&#45;&gt;Node4</title>
<path fill="none" stroke="#191970" d="M186.6191,-56.2455C191.9046,-48.4564 199.4541,-37.3308 205.8238,-27.9439"/>
<polygon fill="#191970" stroke="#191970" points="208.7379,-29.8827 211.4568,-19.6427 202.9455,-25.9522 208.7379,-29.8827"/>
</g>
<!-- Node5&#45;&gt;Node0 -->
<g id="edge8" class="edge">
<title>Node5&#45;&gt;Node0</title>
<path fill="none" stroke="#191970" d="M338.7811,-75.6427C327.513,-84.2794 308.5771,-97.0824 292.4816,-107.0465"/>
<polygon fill="#191970" stroke="#191970" points="290.6384,-104.0709 283.8985,-112.2455 294.2651,-110.0581 290.6384,-104.0709"/>
</g>
<!-- Node6 -->
<g id="node7" class="node">
<title>Node6</title>
<polygon fill="#ffffff" stroke="#bfbfbf" points="284.5,-.5 284.5,-19.5 341.5,-19.5 341.5,-.5 284.5,-.5"/>
<text text-anchor="middle" x="313" y="-7.5" font-family="Helvetica,sans-Serif" font-size="10.00" fill="#000000">ostream</text>
</g>
<!-- Node5&#45;&gt;Node6 -->
<g id="edge6" class="edge">
<title>Node5&#45;&gt;Node6</title>
<path fill="none" stroke="#191970" d="M341.9035,-56.2455C337.0855,-48.5367 330.2249,-37.5598 324.3968,-28.2348"/>
<polygon fill="#191970" stroke="#191970" points="327.2947,-26.2677 319.0267,-19.6427 321.3587,-29.9777 327.2947,-26.2677"/>
</g>
<!-- Node7 -->
<g id="node8" class="node">
<title>Node7</title>
<polygon fill="#ffffff" stroke="#bfbfbf" points="359.5,-.5 359.5,-19.5 406.5,-19.5 406.5,-.5 359.5,-.5"/>
<text text-anchor="middle" x="383" y="-7.5" font-family="Helvetica,sans-Serif" font-size="10.00" fill="#000000">cmath</text>
</g>
<!-- Node5&#45;&gt;Node7 -->
<g id="edge7" class="edge">
<title>Node5&#45;&gt;Node7</title>
<path fill="none" stroke="#191970" d="M354.0965,-56.2455C358.9145,-48.5367 365.7751,-37.5598 371.6032,-28.2348"/>
<polygon fill="#191970" stroke="#191970" points="374.6413,-29.9777 376.9733,-19.6427 368.7053,-26.2677 374.6413,-29.9777"/>
</g>
</g>
</svg>
