<?xml version="1.0" encoding="UTF-8" standalone="no"?>
<!DOCTYPE svg PUBLIC "-//W3C//DTD SVG 1.1//EN"
 "http://www.w3.org/Graphics/SVG/1.1/DTD/svg11.dtd">
<!-- Generated by graphviz version 2.40.1 (20161225.0304)
 -->
<!-- Title: vector_space.H Pages: 1 -->
<!--zoomable 308 -->
<svg id="main" version="1.1" xmlns="http://www.w3.org/2000/svg" xmlns:xlink="http://www.w3.org/1999/xlink" xml:space="preserve" onload="init(evt)">
<style type="text/css"><![CDATA[
.edge:hover path { stroke: red; }
.edge:hover polygon { stroke: red; fill: red; }
]]></style>
<script type="text/javascript"><![CDATA[
var edges = document.getElementsByTagName('g');
if (edges && edges.length) {
  for (var i=0;i<edges.length;i++) {
    if (edges[i].id.substr(0,4)=='edge') {
      edges[i].setAttribute('class','edge');
    }
  }
}
]]></script>
        <defs>
                <circle id="rim" cx="0" cy="0" r="7"/>
                <circle id="rim2" cx="0" cy="0" r="3.5"/>
                <g id="zoomPlus">
                        <use xlink:href="#rim" fill="#404040">
                                <set attributeName="fill" to="#808080" begin="zoomplus.mouseover" end="zoomplus.mouseout"/>
                        </use>
                        <path d="M-4,0h8M0,-4v8" fill="none" stroke="white" stroke-width="1.5" pointer-events="none"/>
                </g>
                <g id="zoomMin">
                        <use xlink:href="#rim" fill="#404040">
                                <set attributeName="fill" to="#808080" begin="zoomminus.mouseover" end="zoomminus.mouseout"/>
                        </use>
                        <path d="M-4,0h8" fill="none" stroke="white" stroke-width="1.5" pointer-events="none"/>
                </g>
                <g id="dirArrow">
                        <path fill="none" stroke="white" stroke-width="1.5" d="M0,-3.0v7 M-2.5,-0.5L0,-3.0L2.5,-0.5"/>
                </g>
               <g id="resetDef">
                       <use xlink:href="#rim2" fill="#404040">
                               <set attributeName="fill" to="#808080" begin="reset.mouseover" end="reset.mouseout"/>
                       </use>
               </g>
        </defs>

<script type="text/javascript">
var viewWidth = 1594;
var viewHeight = 308;
var sectionId = 'dynsection-1';
</script>
<script xlink:href="svgpan.js"/>
<svg id="graph" class="graph">
<g id="viewport">
<title>vector_space.H</title>
<polygon fill="#ffffff" stroke="transparent" points="-4,4 -4,-304 1589.5,-304 1589.5,4 -4,4"/>
<!-- Node12 -->
<g id="node1" class="node">
<title>Node12</title>
<polygon fill="#bfbfbf" stroke="#000000" points="431.5,-280.5 431.5,-299.5 523.5,-299.5 523.5,-280.5 431.5,-280.5"/>
<text text-anchor="middle" x="477.5" y="-287.5" font-family="Helvetica,sans-Serif" font-size="10.00" fill="#000000">vector_space.H</text>
</g>
<!-- Node13 -->
<g id="node2" class="node">
<title>Node13</title>
<g id="a_node2"><a xlink:href="_synthetic_turbulence_8_h.html" target="_top" xlink:title="SyntheticTurbulence.H">
<polygon fill="#ffffff" stroke="#000000" points="22,-224.5 22,-243.5 147,-243.5 147,-224.5 22,-224.5"/>
<text text-anchor="middle" x="84.5" y="-231.5" font-family="Helvetica,sans-Serif" font-size="10.00" fill="#000000">SyntheticTurbulence.H</text>
</a>
</g>
</g>
<!-- Node12&#45;&gt;Node13 -->
<g id="edge1" class="edge">
<title>Node12&#45;&gt;Node13</title>
<path fill="none" stroke="#191970" d="M420.9372,-281.9402C348.2625,-271.5845 222.5082,-253.6653 147.049,-242.9128"/>
<polygon fill="#191970" stroke="#191970" points="420.8685,-285.4656 431.2623,-283.4114 421.856,-278.5356 420.8685,-285.4656"/>
</g>
<!-- Node15 -->
<g id="node4" class="node">
<title>Node15</title>
<g id="a_node4"><a xlink:href="_box_refiner_8_h.html" target="_top" xlink:title="BoxRefiner.H">
<polygon fill="#ffffff" stroke="#000000" points="175,-224.5 175,-243.5 254,-243.5 254,-224.5 175,-224.5"/>
<text text-anchor="middle" x="214.5" y="-231.5" font-family="Helvetica,sans-Serif" font-size="10.00" fill="#000000">BoxRefiner.H</text>
</a>
</g>
</g>
<!-- Node12&#45;&gt;Node15 -->
<g id="edge3" class="edge">
<title>Node12&#45;&gt;Node15</title>
<path fill="none" stroke="#191970" d="M422.5252,-278.2943C372.177,-267.5738 298.8745,-251.9657 254.0683,-242.4252"/>
<polygon fill="#191970" stroke="#191970" points="422.0778,-281.7775 432.5875,-280.4369 423.5357,-274.931 422.0778,-281.7775"/>
</g>
<!-- Node17 -->
<g id="node6" class="node">
<title>Node17</title>
<g id="a_node6"><a xlink:href="_cylinder_refiner_8_h.html" target="_top" xlink:title="CylinderRefiner.H">
<polygon fill="#ffffff" stroke="#000000" points="277,-224.5 277,-243.5 378,-243.5 378,-224.5 277,-224.5"/>
<text text-anchor="middle" x="327.5" y="-231.5" font-family="Helvetica,sans-Serif" font-size="10.00" fill="#000000">CylinderRefiner.H</text>
</a>
</g>
</g>
<!-- Node12&#45;&gt;Node17 -->
<g id="edge5" class="edge">
<title>Node12&#45;&gt;Node17</title>
<path fill="none" stroke="#191970" d="M442.1129,-276.7888C414.7247,-266.5639 377.4521,-252.6488 352.9494,-243.5011"/>
<polygon fill="#191970" stroke="#191970" points="441.1215,-280.1546 451.7141,-280.3733 443.5698,-273.5967 441.1215,-280.1546"/>
</g>
<!-- Node19 -->
<g id="node8" class="node">
<title>Node19</title>
<g id="a_node8"><a xlink:href="_act_parser_8_h.html" target="_top" xlink:title="ActParser.H">
<polygon fill="#ffffff" stroke="#000000" points="657.5,-224.5 657.5,-243.5 729.5,-243.5 729.5,-224.5 657.5,-224.5"/>
<text text-anchor="middle" x="693.5" y="-231.5" font-family="Helvetica,sans-Serif" font-size="10.00" fill="#000000">ActParser.H</text>
</a>
</g>
</g>
<!-- Node12&#45;&gt;Node19 -->
<g id="edge7" class="edge">
<title>Node12&#45;&gt;Node19</title>
<path fill="none" stroke="#191970" d="M524.3906,-277.8432C564.2669,-267.5049 620.7101,-252.8714 657.2123,-243.4079"/>
<polygon fill="#191970" stroke="#191970" points="523.4333,-274.4756 514.6317,-280.3733 525.1901,-281.2516 523.4333,-274.4756"/>
</g>
<!-- Node34 -->
<g id="node23" class="node">
<title>Node34</title>
<g id="a_node23"><a xlink:href="actuator__types_8_h.html" target="_top" xlink:title="actuator_types.H">
<polygon fill="#ffffff" stroke="#000000" points="995.5,-224.5 995.5,-243.5 1095.5,-243.5 1095.5,-224.5 995.5,-224.5"/>
<text text-anchor="middle" x="1045.5" y="-231.5" font-family="Helvetica,sans-Serif" font-size="10.00" fill="#000000">actuator_types.H</text>
</a>
</g>
</g>
<!-- Node12&#45;&gt;Node34 -->
<g id="edge32" class="edge">
<title>Node12&#45;&gt;Node34</title>
<path fill="none" stroke="#191970" d="M533.4697,-284.4819C644.2089,-273.5639 889.6817,-249.3624 995.4329,-238.9362"/>
<polygon fill="#191970" stroke="#191970" points="533.109,-281.0004 523.5007,-285.4647 533.7959,-287.9666 533.109,-281.0004"/>
</g>
<!-- Node43 -->
<g id="node32" class="node">
<title>Node43</title>
<g id="a_node32"><a xlink:href="_actuator_wing_8_h.html" target="_top" xlink:title="ActuatorWing.H">
<polygon fill="#ffffff" stroke="#000000" points="1234,-168.5 1234,-187.5 1327,-187.5 1327,-168.5 1234,-168.5"/>
<text text-anchor="middle" x="1280.5" y="-175.5" font-family="Helvetica,sans-Serif" font-size="10.00" fill="#000000">ActuatorWing.H</text>
</a>
</g>
</g>
<!-- Node12&#45;&gt;Node43 -->
<g id="edge61" class="edge">
<title>Node12&#45;&gt;Node43</title>
<path fill="none" stroke="#191970" d="M534.0322,-287.9172C667.0149,-282.6846 996.5487,-267.6873 1104.5,-244 1163.3094,-231.0957 1228.7673,-202.5105 1260.7441,-187.5496"/>
<polygon fill="#191970" stroke="#191970" points="533.5251,-284.4342 523.669,-288.3208 533.7976,-291.4289 533.5251,-284.4342"/>
</g>
<!-- Node44 -->
<g id="node33" class="node">
<title>Node44</title>
<g id="a_node33"><a xlink:href="_actuator_container_8_h.html" target="_top" xlink:title="ActuatorContainer.H">
<polygon fill="#ffffff" stroke="#000000" points="420,-224.5 420,-243.5 535,-243.5 535,-224.5 420,-224.5"/>
<text text-anchor="middle" x="477.5" y="-231.5" font-family="Helvetica,sans-Serif" font-size="10.00" fill="#000000">ActuatorContainer.H</text>
</a>
</g>
</g>
<!-- Node12&#45;&gt;Node44 -->
<g id="edge58" class="edge">
<title>Node12&#45;&gt;Node44</title>
<path fill="none" stroke="#191970" d="M477.5,-270.1575C477.5,-261.155 477.5,-250.9199 477.5,-243.6427"/>
<polygon fill="#191970" stroke="#191970" points="474.0001,-270.2455 477.5,-280.2455 481.0001,-270.2456 474.0001,-270.2455"/>
</g>
<!-- Node14 -->
<g id="node3" class="node">
<title>Node14</title>
<g id="a_node3"><a xlink:href="_synthetic_turbulence_8cpp.html" target="_top" xlink:title="SyntheticTurbulence.cpp">
<polygon fill="#ffffff" stroke="#000000" points="0,-168.5 0,-187.5 135,-187.5 135,-168.5 0,-168.5"/>
<text text-anchor="middle" x="67.5" y="-175.5" font-family="Helvetica,sans-Serif" font-size="10.00" fill="#000000">SyntheticTurbulence.cpp</text>
</a>
</g>
</g>
<!-- Node13&#45;&gt;Node14 -->
<g id="edge2" class="edge">
<title>Node13&#45;&gt;Node14</title>
<path fill="none" stroke="#191970" d="M78.5663,-214.4538C75.8119,-205.3803 72.6607,-194.9998 70.4272,-187.6427"/>
<polygon fill="#191970" stroke="#191970" points="75.2849,-215.6934 81.5388,-224.2455 81.983,-213.66 75.2849,-215.6934"/>
</g>
<!-- Node16 -->
<g id="node5" class="node">
<title>Node16</title>
<g id="a_node5"><a xlink:href="_box_refiner_8cpp.html" target="_top" xlink:title="BoxRefiner.cpp">
<polygon fill="#ffffff" stroke="#000000" points="153,-168.5 153,-187.5 242,-187.5 242,-168.5 153,-168.5"/>
<text text-anchor="middle" x="197.5" y="-175.5" font-family="Helvetica,sans-Serif" font-size="10.00" fill="#000000">BoxRefiner.cpp</text>
</a>
</g>
</g>
<!-- Node15&#45;&gt;Node16 -->
<g id="edge4" class="edge">
<title>Node15&#45;&gt;Node16</title>
<path fill="none" stroke="#191970" d="M208.5663,-214.4538C205.8119,-205.3803 202.6607,-194.9998 200.4272,-187.6427"/>
<polygon fill="#191970" stroke="#191970" points="205.2849,-215.6934 211.5388,-224.2455 211.983,-213.66 205.2849,-215.6934"/>
</g>
<!-- Node18 -->
<g id="node7" class="node">
<title>Node18</title>
<g id="a_node7"><a xlink:href="_cylinder_refiner_8cpp.html" target="_top" xlink:title="CylinderRefiner.cpp">
<polygon fill="#ffffff" stroke="#000000" points="260.5,-168.5 260.5,-187.5 370.5,-187.5 370.5,-168.5 260.5,-168.5"/>
<text text-anchor="middle" x="315.5" y="-175.5" font-family="Helvetica,sans-Serif" font-size="10.00" fill="#000000">CylinderRefiner.cpp</text>
</a>
</g>
</g>
<!-- Node17&#45;&gt;Node18 -->
<g id="edge6" class="edge">
<title>Node17&#45;&gt;Node18</title>
<path fill="none" stroke="#191970" d="M323.3115,-214.4538C321.3672,-205.3803 319.1428,-194.9998 317.5663,-187.6427"/>
<polygon fill="#191970" stroke="#191970" points="319.8921,-215.2009 325.4098,-224.2455 326.7367,-213.7341 319.8921,-215.2009"/>
</g>
<!-- Node20 -->
<g id="node9" class="node">
<title>Node20</title>
<g id="a_node9"><a xlink:href="actuator__ops_8_h.html" target="_top" xlink:title="actuator_ops.H">
<polygon fill="#ffffff" stroke="#000000" points="927.5,-168.5 927.5,-187.5 1017.5,-187.5 1017.5,-168.5 927.5,-168.5"/>
<text text-anchor="middle" x="972.5" y="-175.5" font-family="Helvetica,sans-Serif" font-size="10.00" fill="#000000">actuator_ops.H</text>
</a>
</g>
</g>
<!-- Node19&#45;&gt;Node20 -->
<g id="edge8" class="edge">
<title>Node19&#45;&gt;Node20</title>
<path fill="none" stroke="#191970" d="M739.6347,-224.74C791.591,-214.3115 875.4897,-197.4716 927.1301,-187.1065"/>
<polygon fill="#191970" stroke="#191970" points="738.804,-221.3368 729.6884,-226.7364 740.1816,-228.1999 738.804,-221.3368"/>
</g>
<!-- Node22 -->
<g id="node11" class="node">
<title>Node22</title>
<g id="a_node11"><a xlink:href="_actuator_model_8_h.html" target="_top" xlink:title="ActuatorModel.H">
<polygon fill="#ffffff" stroke="#000000" points="834.5,-56.5 834.5,-75.5 932.5,-75.5 932.5,-56.5 834.5,-56.5"/>
<text text-anchor="middle" x="883.5" y="-63.5" font-family="Helvetica,sans-Serif" font-size="10.00" fill="#000000">ActuatorModel.H</text>
</a>
</g>
</g>
<!-- Node19&#45;&gt;Node22 -->
<g id="edge26" class="edge">
<title>Node19&#45;&gt;Node22</title>
<path fill="none" stroke="#191970" d="M716.3474,-218.2923C727.2256,-210.0908 739.9179,-199.3993 749.5,-188 774.4722,-158.292 764.4223,-138.7921 792.5,-112 810.174,-95.1353 835.2368,-83.0857 854.5864,-75.5607"/>
<polygon fill="#191970" stroke="#191970" points="714.124,-215.5818 708.1063,-224.3018 718.2484,-221.2378 714.124,-215.5818"/>
</g>
<!-- Node23 -->
<g id="node12" class="node">
<title>Node23</title>
<g id="a_node12"><a xlink:href="_actuator_8cpp.html" target="_top" xlink:title="Actuator.cpp">
<polygon fill="#ffffff" stroke="#000000" points="486,-.5 486,-19.5 563,-19.5 563,-.5 486,-.5"/>
<text text-anchor="middle" x="524.5" y="-7.5" font-family="Helvetica,sans-Serif" font-size="10.00" fill="#000000">Actuator.cpp</text>
</a>
</g>
</g>
<!-- Node19&#45;&gt;Node23 -->
<g id="edge27" class="edge">
<title>Node19&#45;&gt;Node23</title>
<path fill="none" stroke="#191970" d="M658.2418,-220.4259C622.8569,-204.8053 569.9196,-175.5659 543.5,-132 521.2696,-95.3422 522.1775,-41.4993 523.6385,-19.6972"/>
<polygon fill="#191970" stroke="#191970" points="657.1489,-223.7648 667.7201,-224.4711 659.8967,-217.3266 657.1489,-223.7648"/>
</g>
<!-- Node31 -->
<g id="node20" class="node">
<title>Node31</title>
<g id="a_node20"><a xlink:href="wing__ops_8cpp.html" target="_top" xlink:title="wing_ops.cpp">
<polygon fill="#ffffff" stroke="#000000" points="951,-56.5 951,-75.5 1034,-75.5 1034,-56.5 951,-56.5"/>
<text text-anchor="middle" x="992.5" y="-63.5" font-family="Helvetica,sans-Serif" font-size="10.00" fill="#000000">wing_ops.cpp</text>
</a>
</g>
</g>
<!-- Node19&#45;&gt;Node31 -->
<g id="edge31" class="edge">
<title>Node19&#45;&gt;Node31</title>
<path fill="none" stroke="#191970" d="M719.9071,-219.459C735.0447,-210.8212 754.2136,-199.3637 770.5,-188 814.5595,-157.2579 817.6768,-138.3421 864.5,-112 893.6212,-95.6168 929.6557,-83.291 956.0642,-75.5426"/>
<polygon fill="#191970" stroke="#191970" points="718.0549,-216.4852 711.0645,-224.4467 721.494,-222.5822 718.0549,-216.4852"/>
</g>
<!-- Node32 -->
<g id="node21" class="node">
<title>Node32</title>
<g id="a_node21"><a xlink:href="turbine__utils_8_h.html" target="_top" xlink:title="turbine_utils.H">
<polygon fill="#ffffff" stroke="#000000" points="552.5,-112.5 552.5,-131.5 640.5,-131.5 640.5,-112.5 552.5,-112.5"/>
<text text-anchor="middle" x="596.5" y="-119.5" font-family="Helvetica,sans-Serif" font-size="10.00" fill="#000000">turbine_utils.H</text>
</a>
</g>
</g>
<!-- Node19&#45;&gt;Node32 -->
<g id="edge28" class="edge">
<title>Node19&#45;&gt;Node32</title>
<path fill="none" stroke="#191970" d="M670.8534,-218.1199C660.0234,-209.8771 647.3137,-199.2005 637.5,-188 621.6767,-169.9405 608.0358,-145.0867 601.1924,-131.6179"/>
<polygon fill="#191970" stroke="#191970" points="668.922,-221.0446 679.0446,-224.1723 673.0818,-215.4147 668.922,-221.0446"/>
</g>
<!-- Node21 -->
<g id="node10" class="node">
<title>Node21</title>
<g id="a_node10"><a xlink:href="_act_src_op_8_h.html" target="_top" xlink:title="ActSrcOp.H">
<polygon fill="#ffffff" stroke="#000000" points="873,-112.5 873,-131.5 944,-131.5 944,-112.5 873,-112.5"/>
<text text-anchor="middle" x="908.5" y="-119.5" font-family="Helvetica,sans-Serif" font-size="10.00" fill="#000000">ActSrcOp.H</text>
</a>
</g>
</g>
<!-- Node20&#45;&gt;Node21 -->
<g id="edge9" class="edge">
<title>Node20&#45;&gt;Node21</title>
<path fill="none" stroke="#191970" d="M953.8086,-161.645C942.6781,-151.9058 928.9337,-139.8795 919.5202,-131.6427"/>
<polygon fill="#191970" stroke="#191970" points="951.5215,-164.2945 961.3521,-168.2455 956.131,-159.0264 951.5215,-164.2945"/>
</g>
<!-- Node20&#45;&gt;Node22 -->
<g id="edge15" class="edge">
<title>Node20&#45;&gt;Node22</title>
<path fill="none" stroke="#191970" d="M970.4522,-158.0417C968.1851,-144.039 963.4321,-125.4841 953.5,-112 941.3398,-95.491 921.3396,-83.2131 905.8246,-75.5137"/>
<polygon fill="#191970" stroke="#191970" points="967.0034,-158.6593 971.7889,-168.1117 973.9425,-157.7381 967.0034,-158.6593"/>
</g>
<!-- Node27 -->
<g id="node16" class="node">
<title>Node27</title>
<g id="a_node16"><a xlink:href="turbine__fast__ops_8_h.html" target="_top" xlink:title="turbine_fast_ops.H">
<polygon fill="#ffffff" stroke="#000000" points="708.5,-56.5 708.5,-75.5 816.5,-75.5 816.5,-56.5 708.5,-56.5"/>
<text text-anchor="middle" x="762.5" y="-63.5" font-family="Helvetica,sans-Serif" font-size="10.00" fill="#000000">turbine_fast_ops.H</text>
</a>
</g>
</g>
<!-- Node20&#45;&gt;Node27 -->
<g id="edge16" class="edge">
<title>Node20&#45;&gt;Node27</title>
<path fill="none" stroke="#191970" d="M937.2336,-164.7591C915.7801,-156.2707 888.0655,-144.5236 864.5,-132 831.1606,-114.2822 794.5758,-89.0738 775.5839,-75.5123"/>
<polygon fill="#191970" stroke="#191970" points="936.0245,-168.0443 946.6126,-168.4209 938.5704,-161.5236 936.0245,-168.0443"/>
</g>
<!-- Node28 -->
<g id="node17" class="node">
<title>Node28</title>
<g id="a_node17"><a xlink:href="fixed__wing__ops_8_h.html" target="_top" xlink:title="fixed_wing_ops.H">
<polygon fill="#ffffff" stroke="#000000" points="1165.5,-56.5 1165.5,-75.5 1267.5,-75.5 1267.5,-56.5 1165.5,-56.5"/>
<text text-anchor="middle" x="1216.5" y="-63.5" font-family="Helvetica,sans-Serif" font-size="10.00" fill="#000000">fixed_wing_ops.H</text>
</a>
</g>
</g>
<!-- Node20&#45;&gt;Node28 -->
<g id="edge18" class="edge">
<title>Node20&#45;&gt;Node28</title>
<path fill="none" stroke="#191970" d="M1000.1635,-163.7534C1027.0937,-150.0326 1069.288,-128.9255 1106.5,-112 1135.7056,-98.7162 1169.8702,-84.655 1192.2822,-75.6275"/>
<polygon fill="#191970" stroke="#191970" points="998.2811,-160.7848 990.97,-168.4528 1001.4672,-167.0177 998.2811,-160.7848"/>
</g>
<!-- Node29 -->
<g id="node18" class="node">
<title>Node29</title>
<g id="a_node18"><a xlink:href="wing__ops_8_h.html" target="_top" xlink:title="wing_ops.H">
<polygon fill="#ffffff" stroke="#000000" points="1115,-112.5 1115,-131.5 1188,-131.5 1188,-112.5 1115,-112.5"/>
<text text-anchor="middle" x="1151.5" y="-119.5" font-family="Helvetica,sans-Serif" font-size="10.00" fill="#000000">wing_ops.H</text>
</a>
</g>
</g>
<!-- Node20&#45;&gt;Node29 -->
<g id="edge20" class="edge">
<title>Node20&#45;&gt;Node29</title>
<path fill="none" stroke="#191970" d="M1013.0195,-165.3235C1045.8466,-155.0536 1091.3776,-140.8093 1121.1303,-131.5011"/>
<polygon fill="#191970" stroke="#191970" points="1011.77,-162.0471 1003.2712,-168.3733 1013.8601,-168.7278 1011.77,-162.0471"/>
</g>
<!-- Node30 -->
<g id="node19" class="node">
<title>Node30</title>
<g id="a_node19"><a xlink:href="flat__plate__ops_8_h.html" target="_top" xlink:title="flat_plate_ops.H">
<polygon fill="#ffffff" stroke="#000000" points="1052,-56.5 1052,-75.5 1147,-75.5 1147,-56.5 1052,-56.5"/>
<text text-anchor="middle" x="1099.5" y="-63.5" font-family="Helvetica,sans-Serif" font-size="10.00" fill="#000000">flat_plate_ops.H</text>
</a>
</g>
</g>
<!-- Node20&#45;&gt;Node30 -->
<g id="edge25" class="edge">
<title>Node20&#45;&gt;Node30</title>
<path fill="none" stroke="#191970" d="M987.0683,-160.6608C999.1144,-146.7908 1017.0206,-127.2152 1034.5,-112 1050.4542,-98.1125 1070.5557,-84.394 1084.1484,-75.603"/>
<polygon fill="#191970" stroke="#191970" points="984.2274,-158.5973 980.3814,-168.4694 989.5443,-163.1504 984.2274,-158.5973"/>
</g>
<!-- Node21&#45;&gt;Node22 -->
<g id="edge10" class="edge">
<title>Node21&#45;&gt;Node22</title>
<path fill="none" stroke="#191970" d="M900.0374,-103.0437C895.9255,-93.8331 891.1606,-83.1598 887.8048,-75.6427"/>
<polygon fill="#191970" stroke="#191970" points="896.8728,-104.541 904.1453,-112.2455 903.2648,-101.6874 896.8728,-104.541"/>
</g>
<!-- Node22&#45;&gt;Node23 -->
<g id="edge11" class="edge">
<title>Node22&#45;&gt;Node23</title>
<path fill="none" stroke="#191970" d="M824.4688,-55.8552C724.219,-39.625 618.4636,-23.8264 563.0239,-15.647"/>
<polygon fill="#191970" stroke="#191970" points="824.0317,-59.3299 834.4633,-57.4777 825.1534,-52.4204 824.0317,-59.3299"/>
</g>
<!-- Node24 -->
<g id="node13" class="node">
<title>Node24</title>
<g id="a_node13"><a xlink:href="_turbine_fast_8cpp.html" target="_top" xlink:title="TurbineFast.cpp">
<polygon fill="#ffffff" stroke="#000000" points="716.5,-.5 716.5,-19.5 808.5,-19.5 808.5,-.5 716.5,-.5"/>
<text text-anchor="middle" x="762.5" y="-7.5" font-family="Helvetica,sans-Serif" font-size="10.00" fill="#000000">TurbineFast.cpp</text>
</a>
</g>
</g>
<!-- Node22&#45;&gt;Node24 -->
<g id="edge12" class="edge">
<title>Node22&#45;&gt;Node24</title>
<path fill="none" stroke="#191970" d="M853.4896,-52.1109C831.5475,-41.9559 802.3612,-28.4482 783.0292,-19.5011"/>
<polygon fill="#191970" stroke="#191970" points="852.1541,-55.3494 862.6994,-56.3733 855.0942,-48.9968 852.1541,-55.3494"/>
</g>
<!-- Node25 -->
<g id="node14" class="node">
<title>Node25</title>
<g id="a_node14"><a xlink:href="_fixed_wing_8cpp.html" target="_top" xlink:title="FixedWing.cpp">
<polygon fill="#ffffff" stroke="#000000" points="1173,-.5 1173,-19.5 1260,-19.5 1260,-.5 1173,-.5"/>
<text text-anchor="middle" x="1216.5" y="-7.5" font-family="Helvetica,sans-Serif" font-size="10.00" fill="#000000">FixedWing.cpp</text>
</a>
</g>
</g>
<!-- Node22&#45;&gt;Node25 -->
<g id="edge13" class="edge">
<title>Node22&#45;&gt;Node25</title>
<path fill="none" stroke="#191970" d="M942.6402,-55.9784C1030.64,-41.139 1120.718,-26.0376 1172.8378,-17.3085"/>
<polygon fill="#191970" stroke="#191970" points="942.033,-52.5313 932.7544,-57.6459 943.1973,-59.4338 942.033,-52.5313"/>
</g>
<!-- Node26 -->
<g id="node15" class="node">
<title>Node26</title>
<g id="a_node15"><a xlink:href="_flat_plate_8cpp.html" target="_top" xlink:title="FlatPlate.cpp">
<polygon fill="#ffffff" stroke="#000000" points="1059.5,-.5 1059.5,-19.5 1139.5,-19.5 1139.5,-.5 1059.5,-.5"/>
<text text-anchor="middle" x="1099.5" y="-7.5" font-family="Helvetica,sans-Serif" font-size="10.00" fill="#000000">FlatPlate.cpp</text>
</a>
</g>
</g>
<!-- Node22&#45;&gt;Node26 -->
<g id="edge14" class="edge">
<title>Node22&#45;&gt;Node26</title>
<path fill="none" stroke="#191970" d="M930.36,-53.8511C970.1073,-43.5462 1026.331,-28.9697 1062.8528,-19.5011"/>
<polygon fill="#191970" stroke="#191970" points="929.4333,-50.4756 920.6317,-56.3733 931.1901,-57.2516 929.4333,-50.4756"/>
</g>
<!-- Node27&#45;&gt;Node24 -->
<g id="edge17" class="edge">
<title>Node27&#45;&gt;Node24</title>
<path fill="none" stroke="#191970" d="M762.5,-46.1575C762.5,-37.155 762.5,-26.9199 762.5,-19.6427"/>
<polygon fill="#191970" stroke="#191970" points="759.0001,-46.2455 762.5,-56.2455 766.0001,-46.2456 759.0001,-46.2455"/>
</g>
<!-- Node28&#45;&gt;Node25 -->
<g id="edge19" class="edge">
<title>Node28&#45;&gt;Node25</title>
<path fill="none" stroke="#191970" d="M1216.5,-46.1575C1216.5,-37.155 1216.5,-26.9199 1216.5,-19.6427"/>
<polygon fill="#191970" stroke="#191970" points="1213.0001,-46.2455 1216.5,-56.2455 1220.0001,-46.2456 1213.0001,-46.2455"/>
</g>
<!-- Node29&#45;&gt;Node28 -->
<g id="edge21" class="edge">
<title>Node29&#45;&gt;Node28</title>
<path fill="none" stroke="#191970" d="M1170.4835,-105.645C1181.7879,-95.9058 1195.747,-83.8795 1205.3076,-75.6427"/>
<polygon fill="#191970" stroke="#191970" points="1168.1138,-103.0668 1162.8221,-112.2455 1172.6827,-108.3701 1168.1138,-103.0668"/>
</g>
<!-- Node29&#45;&gt;Node30 -->
<g id="edge22" class="edge">
<title>Node29&#45;&gt;Node30</title>
<path fill="none" stroke="#191970" d="M1135.5178,-104.7884C1126.6222,-95.2085 1115.8796,-83.6396 1108.4539,-75.6427"/>
<polygon fill="#191970" stroke="#191970" points="1133.073,-107.2992 1142.4423,-112.2455 1138.2025,-102.536 1133.073,-107.2992"/>
</g>
<!-- Node29&#45;&gt;Node31 -->
<g id="edge24" class="edge">
<title>Node29&#45;&gt;Node31</title>
<path fill="none" stroke="#191970" d="M1114.371,-108.9231C1085.305,-98.686 1045.5631,-84.6889 1019.4764,-75.5011"/>
<polygon fill="#191970" stroke="#191970" points="1113.5721,-112.3524 1124.1669,-112.3733 1115.8975,-105.75 1113.5721,-112.3524"/>
</g>
<!-- Node30&#45;&gt;Node26 -->
<g id="edge23" class="edge">
<title>Node30&#45;&gt;Node26</title>
<path fill="none" stroke="#191970" d="M1099.5,-46.1575C1099.5,-37.155 1099.5,-26.9199 1099.5,-19.6427"/>
<polygon fill="#191970" stroke="#191970" points="1096.0001,-46.2455 1099.5,-56.2455 1103.0001,-46.2456 1096.0001,-46.2455"/>
</g>
<!-- Node32&#45;&gt;Node27 -->
<g id="edge29" class="edge">
<title>Node32&#45;&gt;Node27</title>
<path fill="none" stroke="#191970" d="M634.8667,-109.057C665.2466,-98.8084 706.9819,-84.729 734.336,-75.5011"/>
<polygon fill="#191970" stroke="#191970" points="633.393,-105.8603 625.0364,-112.3733 635.6306,-112.4931 633.393,-105.8603"/>
</g>
<!-- Node33 -->
<g id="node22" class="node">
<title>Node33</title>
<g id="a_node22"><a xlink:href="turbine__utils_8cpp.html" target="_top" xlink:title="turbine_utils.cpp">
<polygon fill="#ffffff" stroke="#000000" points="552.5,-56.5 552.5,-75.5 650.5,-75.5 650.5,-56.5 552.5,-56.5"/>
<text text-anchor="middle" x="601.5" y="-63.5" font-family="Helvetica,sans-Serif" font-size="10.00" fill="#000000">turbine_utils.cpp</text>
</a>
</g>
</g>
<!-- Node32&#45;&gt;Node33 -->
<g id="edge30" class="edge">
<title>Node32&#45;&gt;Node33</title>
<path fill="none" stroke="#191970" d="M598.2717,-102.1575C599.0754,-93.155 599.9893,-82.9199 600.639,-75.6427"/>
<polygon fill="#191970" stroke="#191970" points="594.7742,-101.9739 597.3709,-112.2455 601.7465,-102.5965 594.7742,-101.9739"/>
</g>
<!-- Node34&#45;&gt;Node20 -->
<g id="edge34" class="edge">
<title>Node34&#45;&gt;Node20</title>
<path fill="none" stroke="#191970" d="M1024.549,-217.928C1011.7893,-208.1397 995.9115,-195.9595 985.0699,-187.6427"/>
<polygon fill="#191970" stroke="#191970" points="1022.7197,-220.9359 1032.7844,-224.2455 1026.9804,-215.3819 1022.7197,-220.9359"/>
</g>
<!-- Node34&#45;&gt;Node21 -->
<g id="edge33" class="edge">
<title>Node34&#45;&gt;Node21</title>
<path fill="none" stroke="#191970" d="M996.3104,-221.7618C965.1303,-212.993 928.7979,-200.5581 918.5,-188 905.2726,-171.8695 905.7024,-145.7931 907.1234,-131.7319"/>
<polygon fill="#191970" stroke="#191970" points="995.6438,-225.2081 1006.2132,-224.4754 997.4938,-218.4569 995.6438,-225.2081"/>
</g>
<!-- Node34&#45;&gt;Node22 -->
<g id="edge35" class="edge">
<title>Node34&#45;&gt;Node22</title>
<path fill="none" stroke="#191970" d="M1042.4196,-214.2554C1039.6828,-200.5929 1034.793,-182.3586 1026.5,-168 999.3521,-120.9958 940.822,-90.0439 907.6755,-75.5463"/>
<polygon fill="#191970" stroke="#191970" points="1039.0398,-215.24 1044.2396,-224.4711 1045.9313,-214.0122 1039.0398,-215.24"/>
</g>
<!-- Node34&#45;&gt;Node29 -->
<g id="edge57" class="edge">
<title>Node34&#45;&gt;Node29</title>
<path fill="none" stroke="#191970" d="M1103.9542,-222.1751C1138.0694,-213.9561 1176.3492,-201.9889 1186.5,-188 1199.9063,-169.5247 1178.3359,-145.2576 1163.5453,-131.8949"/>
<polygon fill="#191970" stroke="#191970" points="1102.9467,-218.8161 1094.0042,-224.4978 1104.538,-225.6329 1102.9467,-218.8161"/>
</g>
<!-- Node35 -->
<g id="node24" class="node">
<title>Node35</title>
<g id="a_node24"><a xlink:href="actuator__utils_8cpp.html" target="_top" xlink:title="actuator_utils.cpp">
<polygon fill="#ffffff" stroke="#000000" points="1073.5,-168.5 1073.5,-187.5 1177.5,-187.5 1177.5,-168.5 1073.5,-168.5"/>
<text text-anchor="middle" x="1125.5" y="-175.5" font-family="Helvetica,sans-Serif" font-size="10.00" fill="#000000">actuator_utils.cpp</text>
</a>
</g>
</g>
<!-- Node34&#45;&gt;Node35 -->
<g id="edge36" class="edge">
<title>Node34&#45;&gt;Node35</title>
<path fill="none" stroke="#191970" d="M1067.6571,-218.49C1081.772,-208.6096 1099.6151,-196.1194 1111.7248,-187.6427"/>
<polygon fill="#191970" stroke="#191970" points="1065.6201,-215.6436 1059.4349,-224.2455 1069.6344,-221.3782 1065.6201,-215.6436"/>
</g>
<!-- Node36 -->
<g id="node25" class="node">
<title>Node36</title>
<g id="a_node25"><a xlink:href="_airfoil_table_8_h.html" target="_top" xlink:title="AirfoilTable.H">
<polygon fill="#ffffff" stroke="#000000" points="1345.5,-168.5 1345.5,-187.5 1427.5,-187.5 1427.5,-168.5 1345.5,-168.5"/>
<text text-anchor="middle" x="1386.5" y="-175.5" font-family="Helvetica,sans-Serif" font-size="10.00" fill="#000000">AirfoilTable.H</text>
</a>
</g>
</g>
<!-- Node34&#45;&gt;Node36 -->
<g id="edge37" class="edge">
<title>Node34&#45;&gt;Node36</title>
<path fill="none" stroke="#191970" d="M1105.7969,-225.1988C1164.7317,-216.4244 1256.9434,-202.2376 1336.5,-188 1339.3756,-187.4854 1342.3407,-186.9373 1345.3244,-186.3728"/>
<polygon fill="#191970" stroke="#191970" points="1104.9289,-221.7893 1095.5512,-226.7196 1105.9567,-228.7134 1104.9289,-221.7893"/>
</g>
<!-- Node41 -->
<g id="node30" class="node">
<title>Node41</title>
<g id="a_node30"><a xlink:href="turbine__types_8_h.html" target="_top" xlink:title="turbine_types.H">
<polygon fill="#ffffff" stroke="#000000" points="646.5,-168.5 646.5,-187.5 740.5,-187.5 740.5,-168.5 646.5,-168.5"/>
<text text-anchor="middle" x="693.5" y="-175.5" font-family="Helvetica,sans-Serif" font-size="10.00" fill="#000000">turbine_types.H</text>
</a>
</g>
</g>
<!-- Node34&#45;&gt;Node41 -->
<g id="edge48" class="edge">
<title>Node34&#45;&gt;Node41</title>
<path fill="none" stroke="#191970" d="M985.5495,-224.4624C916.3078,-213.4467 803.8322,-195.5529 740.5743,-185.4891"/>
<polygon fill="#191970" stroke="#191970" points="985.0151,-227.9213 995.4408,-226.036 986.1149,-221.0083 985.0151,-227.9213"/>
</g>
<!-- Node34&#45;&gt;Node43 -->
<g id="edge53" class="edge">
<title>Node34&#45;&gt;Node43</title>
<path fill="none" stroke="#191970" d="M1095.3852,-222.1125C1138.652,-211.8021 1200.4604,-197.0733 1240.5346,-187.5237"/>
<polygon fill="#191970" stroke="#191970" points="1094.5472,-218.7141 1085.6309,-224.4369 1096.1699,-225.5234 1094.5472,-218.7141"/>
</g>
<!-- Node36&#45;&gt;Node29 -->
<g id="edge44" class="edge">
<title>Node36&#45;&gt;Node29</title>
<path fill="none" stroke="#191970" d="M1336.3695,-166.054C1291.9822,-155.4766 1228.2233,-140.283 1188.3691,-130.7858"/>
<polygon fill="#191970" stroke="#191970" points="1335.8301,-169.5234 1346.3691,-168.4369 1337.4528,-162.7141 1335.8301,-169.5234"/>
</g>
<!-- Node37 -->
<g id="node26" class="node">
<title>Node37</title>
<g id="a_node26"><a xlink:href="_airfoil_table_8cpp.html" target="_top" xlink:title="AirfoilTable.cpp">
<polygon fill="#ffffff" stroke="#000000" points="1493.5,-112.5 1493.5,-131.5 1585.5,-131.5 1585.5,-112.5 1493.5,-112.5"/>
<text text-anchor="middle" x="1539.5" y="-119.5" font-family="Helvetica,sans-Serif" font-size="10.00" fill="#000000">AirfoilTable.cpp</text>
</a>
</g>
</g>
<!-- Node36&#45;&gt;Node37 -->
<g id="edge38" class="edge">
<title>Node36&#45;&gt;Node37</title>
<path fill="none" stroke="#191970" d="M1422.2279,-164.9231C1450.1971,-154.686 1488.4393,-140.6889 1513.5416,-131.5011"/>
<polygon fill="#191970" stroke="#191970" points="1420.9894,-161.6493 1412.8016,-168.3733 1423.3954,-168.2228 1420.9894,-161.6493"/>
</g>
<!-- Node38 -->
<g id="node27" class="node">
<title>Node38</title>
<g id="a_node27"><a xlink:href="_airfoil_table_i_8_h.html" target="_top" xlink:title="AirfoilTableI.H">
<polygon fill="#ffffff" stroke="#000000" points="1390,-112.5 1390,-131.5 1475,-131.5 1475,-112.5 1390,-112.5"/>
<text text-anchor="middle" x="1432.5" y="-119.5" font-family="Helvetica,sans-Serif" font-size="10.00" fill="#000000">AirfoilTableI.H</text>
</a>
</g>
</g>
<!-- Node36&#45;&gt;Node38 -->
<g id="edge39" class="edge">
<title>Node36&#45;&gt;Node38</title>
<path fill="none" stroke="#191970" d="M1394.9923,-159.9209C1401.9436,-150.5176 1411.4472,-139.3997 1419.3341,-131.6427"/>
<polygon fill="#191970" stroke="#191970" points="1392.0464,-158.0276 1389.2457,-168.2455 1397.8071,-162.0043 1392.0464,-158.0276"/>
</g>
<!-- Node39 -->
<g id="node28" class="node">
<title>Node39</title>
<g id="a_node28"><a xlink:href="_fixed_wing_8_h.html" target="_top" xlink:title="FixedWing.H">
<polygon fill="#ffffff" stroke="#000000" points="1295,-112.5 1295,-131.5 1372,-131.5 1372,-112.5 1295,-112.5"/>
<text text-anchor="middle" x="1333.5" y="-119.5" font-family="Helvetica,sans-Serif" font-size="10.00" fill="#000000">FixedWing.H</text>
</a>
</g>
</g>
<!-- Node36&#45;&gt;Node39 -->
<g id="edge41" class="edge">
<title>Node36&#45;&gt;Node39</title>
<path fill="none" stroke="#191970" d="M1370.2104,-160.7884C1361.1438,-151.2085 1350.1946,-139.6396 1342.6261,-131.6427"/>
<polygon fill="#191970" stroke="#191970" points="1367.8522,-163.3884 1377.2681,-168.2455 1372.9363,-158.5767 1367.8522,-163.3884"/>
</g>
<!-- Node40 -->
<g id="node29" class="node">
<title>Node40</title>
<g id="a_node29"><a xlink:href="_flat_plate_8_h.html" target="_top" xlink:title="FlatPlate.H">
<polygon fill="#ffffff" stroke="#000000" points="1206.5,-112.5 1206.5,-131.5 1276.5,-131.5 1276.5,-112.5 1206.5,-112.5"/>
<text text-anchor="middle" x="1241.5" y="-119.5" font-family="Helvetica,sans-Serif" font-size="10.00" fill="#000000">FlatPlate.H</text>
</a>
</g>
</g>
<!-- Node36&#45;&gt;Node40 -->
<g id="edge45" class="edge">
<title>Node36&#45;&gt;Node40</title>
<path fill="none" stroke="#191970" d="M1351.9435,-164.6541C1325.5014,-154.4419 1289.6831,-140.6086 1266.1011,-131.5011"/>
<polygon fill="#191970" stroke="#191970" points="1350.9842,-168.0354 1361.5736,-168.3733 1353.5061,-161.5055 1350.9842,-168.0354"/>
</g>
<!-- Node38&#45;&gt;Node36 -->
<g id="edge40" class="edge">
<title>Node38&#45;&gt;Node36</title>
<path fill="none" stroke="#191970" d="M1424.1075,-139.9439C1417.1808,-149.3308 1407.6817,-160.4564 1399.7794,-168.2455"/>
<polygon fill="#191970" stroke="#191970" points="1427.0351,-141.8638 1429.8244,-131.6427 1421.2699,-137.8934 1427.0351,-141.8638"/>
</g>
<!-- Node39&#45;&gt;Node25 -->
<g id="edge43" class="edge">
<title>Node39&#45;&gt;Node25</title>
<path fill="none" stroke="#191970" d="M1330.4255,-102.4988C1327.2918,-88.179 1321.164,-69.0306 1309.5,-56 1293.7619,-38.418 1269.7781,-26.7847 1250.1088,-19.6159"/>
<polygon fill="#191970" stroke="#191970" points="1326.9864,-103.1493 1332.2804,-112.3267 1333.865,-101.851 1326.9864,-103.1493"/>
</g>
<!-- Node39&#45;&gt;Node28 -->
<g id="edge42" class="edge">
<title>Node39&#45;&gt;Node28</title>
<path fill="none" stroke="#191970" d="M1304.1958,-107.9741C1283.012,-97.8348 1254.9597,-84.408 1236.3506,-75.5011"/>
<polygon fill="#191970" stroke="#191970" points="1302.8559,-111.2129 1313.387,-112.3733 1305.878,-104.8989 1302.8559,-111.2129"/>
</g>
<!-- Node40&#45;&gt;Node26 -->
<g id="edge47" class="edge">
<title>Node40&#45;&gt;Node26</title>
<path fill="none" stroke="#191970" d="M1260.6028,-105.3919C1274.3043,-91.454 1288.4162,-71.409 1276.5,-56 1268.051,-45.0746 1189.3178,-27.75 1139.7462,-17.7725"/>
<polygon fill="#191970" stroke="#191970" points="1258.0303,-103.0084 1253.2009,-112.4386 1262.8569,-108.0783 1258.0303,-103.0084"/>
</g>
<!-- Node40&#45;&gt;Node30 -->
<g id="edge46" class="edge">
<title>Node40&#45;&gt;Node30</title>
<path fill="none" stroke="#191970" d="M1207.6585,-108.6541C1181.7634,-98.4419 1146.6862,-84.6086 1123.5921,-75.5011"/>
<polygon fill="#191970" stroke="#191970" points="1206.5025,-111.9605 1217.0893,-112.3733 1209.0707,-105.4486 1206.5025,-111.9605"/>
</g>
<!-- Node41&#45;&gt;Node32 -->
<g id="edge52" class="edge">
<title>Node41&#45;&gt;Node32</title>
<path fill="none" stroke="#191970" d="M667.5984,-163.0465C650.3391,-153.0824 628.1624,-140.2794 613.2025,-131.6427"/>
<polygon fill="#191970" stroke="#191970" points="666.1936,-166.2768 676.6039,-168.2455 669.6935,-160.2146 666.1936,-166.2768"/>
</g>
<!-- Node42 -->
<g id="node31" class="node">
<title>Node42</title>
<g id="a_node31"><a xlink:href="_turbine_fast_8_h.html" target="_top" xlink:title="TurbineFast.H">
<polygon fill="#ffffff" stroke="#000000" points="658.5,-112.5 658.5,-131.5 740.5,-131.5 740.5,-112.5 658.5,-112.5"/>
<text text-anchor="middle" x="699.5" y="-119.5" font-family="Helvetica,sans-Serif" font-size="10.00" fill="#000000">TurbineFast.H</text>
</a>
</g>
</g>
<!-- Node41&#45;&gt;Node42 -->
<g id="edge49" class="edge">
<title>Node41&#45;&gt;Node42</title>
<path fill="none" stroke="#191970" d="M695.626,-158.1575C696.5905,-149.155 697.6872,-138.9199 698.4669,-131.6427"/>
<polygon fill="#191970" stroke="#191970" points="692.1305,-157.9296 694.5451,-168.2455 699.0906,-158.6753 692.1305,-157.9296"/>
</g>
<!-- Node42&#45;&gt;Node24 -->
<g id="edge51" class="edge">
<title>Node42&#45;&gt;Node24</title>
<path fill="none" stroke="#191970" d="M695.045,-102.5697C692.9198,-88.8189 692.2106,-70.3481 699.5,-56 708.0263,-39.2172 725.8669,-27.098 740.3934,-19.5258"/>
<polygon fill="#191970" stroke="#191970" points="691.6119,-103.2517 696.9272,-112.4167 698.4874,-101.9374 691.6119,-103.2517"/>
</g>
<!-- Node42&#45;&gt;Node27 -->
<g id="edge50" class="edge">
<title>Node42&#45;&gt;Node27</title>
<path fill="none" stroke="#191970" d="M718.2192,-105.3607C729.1182,-95.6727 742.4755,-83.7995 751.652,-75.6427"/>
<polygon fill="#191970" stroke="#191970" points="715.6226,-102.9859 710.4738,-112.2455 720.2732,-108.2178 715.6226,-102.9859"/>
</g>
<!-- Node43&#45;&gt;Node29 -->
<g id="edge55" class="edge">
<title>Node43&#45;&gt;Node29</title>
<path fill="none" stroke="#191970" d="M1249.1329,-164.3833C1225.6716,-154.1985 1194.1815,-140.5284 1173.3865,-131.5011"/>
<polygon fill="#191970" stroke="#191970" points="1247.7574,-167.6017 1258.3241,-168.3733 1250.5449,-161.1806 1247.7574,-167.6017"/>
</g>
<!-- Node43&#45;&gt;Node39 -->
<g id="edge54" class="edge">
<title>Node43&#45;&gt;Node39</title>
<path fill="none" stroke="#191970" d="M1296.7896,-160.7884C1305.8562,-151.2085 1316.8054,-139.6396 1324.3739,-131.6427"/>
<polygon fill="#191970" stroke="#191970" points="1294.0637,-158.5767 1289.7319,-168.2455 1299.1478,-163.3884 1294.0637,-158.5767"/>
</g>
<!-- Node43&#45;&gt;Node40 -->
<g id="edge56" class="edge">
<title>Node43&#45;&gt;Node40</title>
<path fill="none" stroke="#191970" d="M1267.9092,-159.9209C1261.3605,-150.5176 1253.6176,-139.3997 1248.2154,-131.6427"/>
<polygon fill="#191970" stroke="#191970" points="1265.1196,-162.0397 1273.7067,-168.2455 1270.8639,-158.0392 1265.1196,-162.0397"/>
</g>
<!-- Node44&#45;&gt;Node23 -->
<g id="edge59" class="edge">
<title>Node44&#45;&gt;Node23</title>
<path fill="none" stroke="#191970" d="M447.9407,-219.1349C436.2062,-211.5543 423.9793,-201.1319 417.5,-188 413.5669,-180.0286 414.8932,-176.4981 417.5,-168 437.125,-104.0221 492.3996,-42.6354 514.8454,-19.5846"/>
<polygon fill="#191970" stroke="#191970" points="446.3348,-222.2525 456.7148,-224.3756 449.9244,-216.2428 446.3348,-222.2525"/>
</g>
<!-- Node45 -->
<g id="node34" class="node">
<title>Node45</title>
<g id="a_node34"><a xlink:href="_actuator_container_8cpp.html" target="_top" xlink:title="ActuatorContainer.cpp">
<polygon fill="#ffffff" stroke="#000000" points="427,-168.5 427,-187.5 552,-187.5 552,-168.5 427,-168.5"/>
<text text-anchor="middle" x="489.5" y="-175.5" font-family="Helvetica,sans-Serif" font-size="10.00" fill="#000000">ActuatorContainer.cpp</text>
</a>
</g>
</g>
<!-- Node44&#45;&gt;Node45 -->
<g id="edge60" class="edge">
<title>Node44&#45;&gt;Node45</title>
<path fill="none" stroke="#191970" d="M481.6885,-214.4538C483.6328,-205.3803 485.8572,-194.9998 487.4337,-187.6427"/>
<polygon fill="#191970" stroke="#191970" points="478.2633,-213.7341 479.5902,-224.2455 485.1079,-215.2009 478.2633,-213.7341"/>
</g>
</g>
</svg>
        <g id="navigator" transform="translate(0 0)" fill="#404254">
                <rect fill="#f2f5e9" fill-opacity="0.5" stroke="#606060" stroke-width=".5" x="0" y="0" width="60" height="60"/>
                <use id="zoomplus" xlink:href="#zoomPlus" x="17" y="9" onmousedown="handleZoom(evt,'in')"/>
                <use id="zoomminus" xlink:href="#zoomMin" x="42" y="9" onmousedown="handleZoom(evt,'out')"/>
                <use id="reset" xlink:href="#resetDef" x="30" y="36" onmousedown="handleReset()"/>
                <g id="arrowUp" xlink:href="#dirArrow" transform="translate(30 24)" onmousedown="handlePan(0,-1)">
                  <use xlink:href="#rim" fill="#404040">
                        <set attributeName="fill" to="#808080" begin="arrowUp.mouseover" end="arrowUp.mouseout"/>
                  </use>
                  <path fill="none" stroke="white" stroke-width="1.5" d="M0,-3.0v7 M-2.5,-0.5L0,-3.0L2.5,-0.5"/>
                </g>
                <g id="arrowRight" xlink:href="#dirArrow" transform="rotate(90) translate(36 -43)" onmousedown="handlePan(1,0)">
                  <use xlink:href="#rim" fill="#404040">
                        <set attributeName="fill" to="#808080" begin="arrowRight.mouseover" end="arrowRight.mouseout"/>
                  </use>
                  <path fill="none" stroke="white" stroke-width="1.5" d="M0,-3.0v7 M-2.5,-0.5L0,-3.0L2.5,-0.5"/>
                </g>
                <g id="arrowDown" xlink:href="#dirArrow" transform="rotate(180) translate(-30 -48)" onmousedown="handlePan(0,1)">
                  <use xlink:href="#rim" fill="#404040">
                        <set attributeName="fill" to="#808080" begin="arrowDown.mouseover" end="arrowDown.mouseout"/>
                  </use>
                  <path fill="none" stroke="white" stroke-width="1.5" d="M0,-3.0v7 M-2.5,-0.5L0,-3.0L2.5,-0.5"/>
                </g>
                <g id="arrowLeft" xlink:href="#dirArrow" transform="rotate(270) translate(-36 17)" onmousedown="handlePan(-1,0)">
                  <use xlink:href="#rim" fill="#404040">
                        <set attributeName="fill" to="#808080" begin="arrowLeft.mouseover" end="arrowLeft.mouseout"/>
                  </use>
                  <path fill="none" stroke="white" stroke-width="1.5" d="M0,-3.0v7 M-2.5,-0.5L0,-3.0L2.5,-0.5"/>
                </g>
        </g>
        <svg viewBox="0 0 15 15" width="100%" height="30px" preserveAspectRatio="xMaxYMin meet">
         <g id="arrow_out" transform="scale(0.3 0.3)">
          <a xlink:href="vector__space_8_h__dep__incl_org.svg" target="_base">
           <rect id="button" ry="5" rx="5" y="6" x="6" height="38" width="38"
                fill="#f2f5e9" fill-opacity="0.5" stroke="#606060" stroke-width="1.0"/>
           <path id="arrow"
             d="M 11.500037,31.436501 C 11.940474,20.09759 22.043105,11.32322 32.158766,21.979434 L 37.068811,17.246167 C 37.068811,17.246167 37.088388,32 37.088388,32 L 22.160133,31.978069 C 22.160133,31.978069 26.997745,27.140456 26.997745,27.140456 C 18.528582,18.264221 13.291696,25.230495 11.500037,31.436501 z"
             style="fill:#404040;"/>
          </a>
         </g>
        </svg>
</svg>
