<?xml version="1.0" encoding="UTF-8" standalone="no"?>
<!DOCTYPE svg PUBLIC "-//W3C//DTD SVG 1.1//EN"
 "http://www.w3.org/Graphics/SVG/1.1/DTD/svg11.dtd">
<!-- Generated by graphviz version 2.40.1 (20161225.0304)
 -->
<!-- Title: vector_space.H Pages: 1 -->
<svg width="572pt" height="263pt"
 viewBox="0.00 0.00 572.00 263.00" xmlns="http://www.w3.org/2000/svg" xmlns:xlink="http://www.w3.org/1999/xlink">
<g id="graph0" class="graph" transform="scale(1 1) rotate(0) translate(4 259)">
<title>vector_space.H</title>
<polygon fill="#ffffff" stroke="transparent" points="-4,4 -4,-259 568,-259 568,4 -4,4"/>
<!-- Node0 -->
<g id="node1" class="node">
<title>Node0</title>
<polygon fill="#bfbfbf" stroke="#000000" points="265,-235.5 265,-254.5 357,-254.5 357,-235.5 265,-235.5"/>
<text text-anchor="middle" x="311" y="-242.5" font-family="Helvetica,sans-Serif" font-size="10.00" fill="#000000">vector_space.H</text>
</g>
<!-- Node1 -->
<g id="node2" class="node">
<title>Node1</title>
<g id="a_node2"><a xlink:href="vector_8_h.html" target="_top" xlink:title="amr&#45;wind/core/vs/vector.H">
<polygon fill="#ffffff" stroke="#000000" points="138,-123.5 138,-142.5 282,-142.5 282,-123.5 138,-123.5"/>
<text text-anchor="middle" x="210" y="-130.5" font-family="Helvetica,sans-Serif" font-size="10.00" fill="#000000">amr&#45;wind/core/vs/vector.H</text>
</a>
</g>
</g>
<!-- Node0&#45;&gt;Node1 -->
<g id="edge1" class="edge">
<title>Node0&#45;&gt;Node1</title>
<path fill="none" stroke="#191970" d="M302.3888,-235.4509C285.3196,-216.5227 246.9859,-174.014 225.4457,-150.1279"/>
<polygon fill="#191970" stroke="#191970" points="227.8856,-147.6073 218.5894,-142.5249 222.6872,-152.2952 227.8856,-147.6073"/>
</g>
<!-- Node9 -->
<g id="node10" class="node">
<title>Node9</title>
<g id="a_node10"><a xlink:href="tensor_8_h.html" target="_top" xlink:title="amr&#45;wind/core/vs/tensor.H">
<polygon fill="#ffffff" stroke="#000000" points="289,-179.5 289,-198.5 433,-198.5 433,-179.5 289,-179.5"/>
<text text-anchor="middle" x="361" y="-186.5" font-family="Helvetica,sans-Serif" font-size="10.00" fill="#000000">amr&#45;wind/core/vs/tensor.H</text>
</a>
</g>
</g>
<!-- Node0&#45;&gt;Node9 -->
<g id="edge10" class="edge">
<title>Node0&#45;&gt;Node9</title>
<path fill="none" stroke="#191970" d="M319.7093,-235.2455C326.8073,-227.2958 337.0084,-215.8706 345.495,-206.3656"/>
<polygon fill="#191970" stroke="#191970" points="348.3411,-208.4331 352.3905,-198.6427 343.1195,-203.771 348.3411,-208.4331"/>
</g>
<!-- Node2 -->
<g id="node3" class="node">
<title>Node2</title>
<polygon fill="#ffffff" stroke="#bfbfbf" points="478,-.5 478,-19.5 564,-19.5 564,-.5 478,-.5"/>
<text text-anchor="middle" x="521" y="-7.5" font-family="Helvetica,sans-Serif" font-size="10.00" fill="#000000">AMReX_Gpu.H</text>
</g>
<!-- Node1&#45;&gt;Node2 -->
<g id="edge2" class="edge">
<title>Node1&#45;&gt;Node2</title>
<path fill="none" stroke="#191970" d="M234.4555,-123.3449C257.9416,-114.0625 294.4147,-99.6206 326,-87 360.258,-73.3115 368.7023,-69.5888 403,-56 431.0818,-44.874 463.0046,-32.4426 486.5595,-23.3107"/>
<polygon fill="#191970" stroke="#191970" points="488.046,-26.4884 496.1066,-19.6125 485.5175,-19.961 488.046,-26.4884"/>
</g>
<!-- Node3 -->
<g id="node4" class="node">
<title>Node3</title>
<g id="a_node4"><a xlink:href="vstraits_8_h.html" target="_top" xlink:title="amr&#45;wind/core/vs/vstraits.H">
<polygon fill="#ffffff" stroke="#000000" points="166.5,-62 166.5,-81 317.5,-81 317.5,-62 166.5,-62"/>
<text text-anchor="middle" x="242" y="-69" font-family="Helvetica,sans-Serif" font-size="10.00" fill="#000000">amr&#45;wind/core/vs/vstraits.H</text>
</a>
</g>
</g>
<!-- Node1&#45;&gt;Node3 -->
<g id="edge3" class="edge">
<title>Node1&#45;&gt;Node3</title>
<path fill="none" stroke="#191970" d="M215,-123.3906C219.5758,-114.5965 226.4781,-101.3312 232.1583,-90.4145"/>
<polygon fill="#191970" stroke="#191970" points="235.4185,-91.7314 236.9295,-81.2449 229.2088,-88.5003 235.4185,-91.7314"/>
</g>
<!-- Node6 -->
<g id="node7" class="node">
<title>Node6</title>
<g id="a_node7"><a xlink:href="vector_i_8_h.html" target="_top" xlink:title="amr&#45;wind/core/vs/vectorI.H">
<polygon fill="#ffffff" stroke="#000000" points="0,-62 0,-81 148,-81 148,-62 0,-62"/>
<text text-anchor="middle" x="74" y="-69" font-family="Helvetica,sans-Serif" font-size="10.00" fill="#000000">amr&#45;wind/core/vs/vectorI.H</text>
</a>
</g>
</g>
<!-- Node1&#45;&gt;Node6 -->
<g id="edge6" class="edge">
<title>Node1&#45;&gt;Node6</title>
<path fill="none" stroke="#191970" d="M183.6875,-123.3906C159.2502,-113.2359 123.3744,-97.1196 99.2792,-85.5416"/>
<polygon fill="#191970" stroke="#191970" points="100.5739,-82.279 90.0515,-81.0419 97.5058,-88.5708 100.5739,-82.279"/>
</g>
<!-- Node4 -->
<g id="node5" class="node">
<title>Node4</title>
<polygon fill="#ffffff" stroke="#bfbfbf" points="220,-.5 220,-19.5 264,-19.5 264,-.5 220,-.5"/>
<text text-anchor="middle" x="242" y="-7.5" font-family="Helvetica,sans-Serif" font-size="10.00" fill="#000000">limits</text>
</g>
<!-- Node3&#45;&gt;Node4 -->
<g id="edge4" class="edge">
<title>Node3&#45;&gt;Node4</title>
<path fill="none" stroke="#191970" d="M242,-61.8906C242,-53.3657 242,-40.6392 242,-29.9235"/>
<polygon fill="#191970" stroke="#191970" points="245.5001,-29.7448 242,-19.7449 238.5001,-29.7449 245.5001,-29.7448"/>
</g>
<!-- Node5 -->
<g id="node6" class="node">
<title>Node5</title>
<polygon fill="#ffffff" stroke="#bfbfbf" points="368.5,-.5 368.5,-19.5 459.5,-19.5 459.5,-.5 368.5,-.5"/>
<text text-anchor="middle" x="414" y="-7.5" font-family="Helvetica,sans-Serif" font-size="10.00" fill="#000000">AMReX_REAL.H</text>
</g>
<!-- Node3&#45;&gt;Node5 -->
<g id="edge5" class="edge">
<title>Node3&#45;&gt;Node5</title>
<path fill="none" stroke="#191970" d="M268.875,-61.8906C298.1586,-51.42 345.169,-34.6111 377.7137,-22.9745"/>
<polygon fill="#191970" stroke="#191970" points="379.0759,-26.2045 387.3137,-19.5419 376.7191,-19.6131 379.0759,-26.2045"/>
</g>
<!-- Node6&#45;&gt;Node1 -->
<g id="edge9" class="edge">
<title>Node6&#45;&gt;Node1</title>
<path fill="none" stroke="#191970" d="M100.1501,-81.0419C124.5365,-91.1701 160.413,-107.2832 184.5603,-118.8813"/>
<polygon fill="#191970" stroke="#191970" points="183.2899,-122.1557 193.8125,-123.3906 186.3567,-115.8632 183.2899,-122.1557"/>
</g>
<!-- Node7 -->
<g id="node8" class="node">
<title>Node7</title>
<polygon fill="#ffffff" stroke="#bfbfbf" points="45.5,-.5 45.5,-19.5 102.5,-19.5 102.5,-.5 45.5,-.5"/>
<text text-anchor="middle" x="74" y="-7.5" font-family="Helvetica,sans-Serif" font-size="10.00" fill="#000000">ostream</text>
</g>
<!-- Node6&#45;&gt;Node7 -->
<g id="edge7" class="edge">
<title>Node6&#45;&gt;Node7</title>
<path fill="none" stroke="#191970" d="M74,-61.8906C74,-53.3657 74,-40.6392 74,-29.9235"/>
<polygon fill="#191970" stroke="#191970" points="77.5001,-29.7448 74,-19.7449 70.5001,-29.7449 77.5001,-29.7448"/>
</g>
<!-- Node8 -->
<g id="node9" class="node">
<title>Node8</title>
<polygon fill="#ffffff" stroke="#bfbfbf" points="303.5,-.5 303.5,-19.5 350.5,-19.5 350.5,-.5 303.5,-.5"/>
<text text-anchor="middle" x="327" y="-7.5" font-family="Helvetica,sans-Serif" font-size="10.00" fill="#000000">cmath</text>
</g>
<!-- Node6&#45;&gt;Node8 -->
<g id="edge8" class="edge">
<title>Node6&#45;&gt;Node8</title>
<path fill="none" stroke="#191970" d="M113.2537,-61.9581C162.6744,-49.9448 246.7344,-29.5112 293.3515,-18.1794"/>
<polygon fill="#191970" stroke="#191970" points="294.3645,-21.5351 303.2548,-15.7721 292.711,-14.7332 294.3645,-21.5351"/>
</g>
<!-- Node9&#45;&gt;Node1 -->
<g id="edge13" class="edge">
<title>Node9&#45;&gt;Node1</title>
<path fill="none" stroke="#191970" d="M335.0422,-179.3733C310.2593,-170.1822 272.7254,-156.2624 245.246,-146.0713"/>
<polygon fill="#191970" stroke="#191970" points="246.2121,-142.6968 235.6191,-142.5011 243.7781,-149.26 246.2121,-142.6968"/>
</g>
<!-- Node9&#45;&gt;Node2 -->
<g id="edge11" class="edge">
<title>Node9&#45;&gt;Node2</title>
<path fill="none" stroke="#191970" d="M418.8002,-179.4613C444.5115,-172.8028 473.7142,-161.6282 495,-143 525.5673,-116.2491 523.8824,-96.6103 523,-56 522.8114,-47.3189 522.4227,-37.7229 522.0378,-29.5513"/>
<polygon fill="#191970" stroke="#191970" points="525.5308,-29.3229 521.5343,-19.5108 518.5396,-29.6736 525.5308,-29.3229"/>
</g>
<!-- Node9&#45;&gt;Node3 -->
<g id="edge12" class="edge">
<title>Node9&#45;&gt;Node3</title>
<path fill="none" stroke="#191970" d="M351.2617,-179.3845C331.1262,-159.5028 284.6786,-113.6406 259.309,-88.5908"/>
<polygon fill="#191970" stroke="#191970" points="261.4478,-85.784 251.8728,-81.2484 256.5295,-90.765 261.4478,-85.784"/>
</g>
<!-- Node10 -->
<g id="node11" class="node">
<title>Node10</title>
<g id="a_node11"><a xlink:href="tensor_i_8_h.html" target="_top" xlink:title="amr&#45;wind/core/vs/tensorI.H">
<polygon fill="#ffffff" stroke="#000000" points="338,-123.5 338,-142.5 486,-142.5 486,-123.5 338,-123.5"/>
<text text-anchor="middle" x="412" y="-130.5" font-family="Helvetica,sans-Serif" font-size="10.00" fill="#000000">amr&#45;wind/core/vs/tensorI.H</text>
</a>
</g>
</g>
<!-- Node9&#45;&gt;Node10 -->
<g id="edge14" class="edge">
<title>Node9&#45;&gt;Node10</title>
<path fill="none" stroke="#191970" d="M364.6167,-179.2455C370.4368,-171.1352 380.7915,-159.4075 390.463,-149.7919"/>
<polygon fill="#191970" stroke="#191970" points="393.1434,-152.0726 397.9731,-142.6427 388.3169,-147.0026 393.1434,-152.0726"/>
</g>
<!-- Node10&#45;&gt;Node8 -->
<g id="edge15" class="edge">
<title>Node10&#45;&gt;Node8</title>
<path fill="none" stroke="#191970" d="M405.3302,-123.3484C391.1166,-102.7804 357.655,-54.3596 339.4037,-27.9489"/>
<polygon fill="#191970" stroke="#191970" points="342.2034,-25.8437 333.6388,-19.6068 336.4446,-29.8233 342.2034,-25.8437"/>
</g>
<!-- Node10&#45;&gt;Node9 -->
<g id="edge16" class="edge">
<title>Node10&#45;&gt;Node9</title>
<path fill="none" stroke="#191970" d="M408.4634,-142.6427C402.6852,-150.7196 392.3483,-162.4402 382.6706,-172.0751"/>
<polygon fill="#191970" stroke="#191970" points="379.9726,-169.8117 375.1504,-179.2455 384.8031,-174.8779 379.9726,-169.8117"/>
</g>
<!-- Node11 -->
<g id="node12" class="node">
<title>Node11</title>
<g id="a_node12"><a xlink:href="trig__ops_8_h.html" target="_top" xlink:title="Trigonometric utilities. ">
<polygon fill="#ffffff" stroke="#000000" points="412,-56.5 412,-86.5 514,-86.5 514,-56.5 412,-56.5"/>
<text text-anchor="start" x="420" y="-74.5" font-family="Helvetica,sans-Serif" font-size="10.00" fill="#000000">amr&#45;wind/utilities</text>
<text text-anchor="middle" x="463" y="-63.5" font-family="Helvetica,sans-Serif" font-size="10.00" fill="#000000">/trig_ops.H</text>
</a>
</g>
</g>
<!-- Node10&#45;&gt;Node11 -->
<g id="edge17" class="edge">
<title>Node10&#45;&gt;Node11</title>
<path fill="none" stroke="#191970" d="M419.9688,-123.3906C426.4236,-115.6068 435.7832,-104.3202 444.1261,-94.2597"/>
<polygon fill="#191970" stroke="#191970" points="446.8348,-96.4764 450.524,-86.5446 441.4464,-92.008 446.8348,-96.4764"/>
</g>
<!-- Node11&#45;&gt;Node2 -->
<g id="edge20" class="edge">
<title>Node11&#45;&gt;Node2</title>
<path fill="none" stroke="#191970" d="M477.3371,-56.2977C485.6397,-47.4941 496.1182,-36.3833 504.7289,-27.2529"/>
<polygon fill="#191970" stroke="#191970" points="507.3987,-29.5234 511.7135,-19.8469 502.3061,-24.7206 507.3987,-29.5234"/>
</g>
<!-- Node11&#45;&gt;Node5 -->
<g id="edge19" class="edge">
<title>Node11&#45;&gt;Node5</title>
<path fill="none" stroke="#191970" d="M450.8876,-56.2977C444.0151,-47.672 435.3777,-36.8312 428.189,-27.8087"/>
<polygon fill="#191970" stroke="#191970" points="430.8144,-25.487 421.8455,-19.8469 425.3396,-29.849 430.8144,-25.487"/>
</g>
<!-- Node11&#45;&gt;Node8 -->
<g id="edge18" class="edge">
<title>Node11&#45;&gt;Node8</title>
<path fill="none" stroke="#191970" d="M429.7307,-56.4554C407.6359,-46.464 378.854,-33.4487 357.3781,-23.7372"/>
<polygon fill="#191970" stroke="#191970" points="358.629,-20.4616 348.0752,-19.5303 355.7447,-26.8398 358.629,-20.4616"/>
</g>
</g>
</svg>
