<?xml version="1.0" encoding="UTF-8" standalone="no"?>
<!DOCTYPE svg PUBLIC "-//W3C//DTD SVG 1.1//EN"
 "http://www.w3.org/Graphics/SVG/1.1/DTD/svg11.dtd">
<!-- Generated by graphviz version 2.40.1 (20161225.0304)
 -->
<!-- Title: vector.H Pages: 1 -->
<svg width="1562pt" height="420pt"
 viewBox="0.00 0.00 1561.50 420.00" xmlns="http://www.w3.org/2000/svg" xmlns:xlink="http://www.w3.org/1999/xlink">
<g id="graph0" class="graph" transform="scale(1 1) rotate(0) translate(4 416)">
<title>vector.H</title>
<polygon fill="#ffffff" stroke="transparent" points="-4,4 -4,-416 1557.5,-416 1557.5,4 -4,4"/>
<!-- Node8 -->
<g id="node1" class="node">
<title>Node8</title>
<polygon fill="#bfbfbf" stroke="#000000" points="610,-392.5 610,-411.5 667,-411.5 667,-392.5 610,-392.5"/>
<text text-anchor="middle" x="638.5" y="-399.5" font-family="Helvetica,sans-Serif" font-size="10.00" fill="#000000">vector.H</text>
</g>
<!-- Node9 -->
<g id="node2" class="node">
<title>Node9</title>
<g id="a_node2"><a xlink:href="tensor_8_h.html" target="_top" xlink:title="tensor.H">
<polygon fill="#ffffff" stroke="#000000" points="475,-336.5 475,-355.5 532,-355.5 532,-336.5 475,-336.5"/>
<text text-anchor="middle" x="503.5" y="-343.5" font-family="Helvetica,sans-Serif" font-size="10.00" fill="#000000">tensor.H</text>
</a>
</g>
</g>
<!-- Node8&#45;&gt;Node9 -->
<g id="edge1" class="edge">
<title>Node8&#45;&gt;Node9</title>
<path fill="none" stroke="#191970" d="M606.0009,-388.5189C581.4146,-378.3201 548.2634,-364.5685 526.4045,-355.5011"/>
<polygon fill="#191970" stroke="#191970" points="604.7148,-391.7745 615.2927,-392.3733 607.3969,-385.3087 604.7148,-391.7745"/>
</g>
<!-- Node11 -->
<g id="node4" class="node">
<title>Node11</title>
<g id="a_node4"><a xlink:href="vector__space_8_h.html" target="_top" xlink:title="vector_space.H">
<polygon fill="#ffffff" stroke="#000000" points="533.5,-280.5 533.5,-299.5 625.5,-299.5 625.5,-280.5 533.5,-280.5"/>
<text text-anchor="middle" x="579.5" y="-287.5" font-family="Helvetica,sans-Serif" font-size="10.00" fill="#000000">vector_space.H</text>
</a>
</g>
</g>
<!-- Node8&#45;&gt;Node11 -->
<g id="edge68" class="edge">
<title>Node8&#45;&gt;Node11</title>
<path fill="none" stroke="#191970" d="M620.7926,-385.2789C613.0044,-377.0947 604.3232,-366.7097 598.5,-356 588.4754,-337.5635 583.2541,-313.2819 580.9698,-299.9063"/>
<polygon fill="#191970" stroke="#191970" points="618.3308,-387.7669 627.8637,-392.3901 623.2945,-382.8312 618.3308,-387.7669"/>
</g>
<!-- Node45 -->
<g id="node38" class="node">
<title>Node45</title>
<g id="a_node38"><a xlink:href="vector_i_8_h.html" target="_top" xlink:title="vectorI.H">
<polygon fill="#ffffff" stroke="#000000" points="608,-336.5 608,-355.5 669,-355.5 669,-336.5 608,-336.5"/>
<text text-anchor="middle" x="638.5" y="-343.5" font-family="Helvetica,sans-Serif" font-size="10.00" fill="#000000">vectorI.H</text>
</a>
</g>
</g>
<!-- Node8&#45;&gt;Node45 -->
<g id="edge66" class="edge">
<title>Node8&#45;&gt;Node45</title>
<path fill="none" stroke="#191970" d="M632.0113,-382.1575C631.419,-373.155 631.8335,-362.9199 633.2549,-355.6427"/>
<polygon fill="#191970" stroke="#191970" points="628.5561,-382.739 633.2332,-392.2455 635.5053,-381.8972 628.5561,-382.739"/>
</g>
<!-- Node46 -->
<g id="node39" class="node">
<title>Node46</title>
<g id="a_node39"><a xlink:href="_power_law_profile_8cpp.html" target="_top" xlink:title="PowerLawProfile.cpp">
<polygon fill="#ffffff" stroke="#000000" points="687,-336.5 687,-355.5 804,-355.5 804,-336.5 687,-336.5"/>
<text text-anchor="middle" x="745.5" y="-343.5" font-family="Helvetica,sans-Serif" font-size="10.00" fill="#000000">PowerLawProfile.cpp</text>
</a>
</g>
</g>
<!-- Node8&#45;&gt;Node46 -->
<g id="edge69" class="edge">
<title>Node8&#45;&gt;Node46</title>
<path fill="none" stroke="#191970" d="M666.0199,-387.5971C685.2017,-377.558 710.2678,-364.4393 727.0756,-355.6427"/>
<polygon fill="#191970" stroke="#191970" points="664.375,-384.5075 657.138,-392.2455 667.6209,-390.7095 664.375,-384.5075"/>
</g>
<!-- Node47 -->
<g id="node40" class="node">
<title>Node47</title>
<g id="a_node40"><a xlink:href="actuator__utils_8_h.html" target="_top" xlink:title="actuator_utils.H">
<polygon fill="#ffffff" stroke="#000000" points="834.5,-280.5 834.5,-299.5 928.5,-299.5 928.5,-280.5 834.5,-280.5"/>
<text text-anchor="middle" x="881.5" y="-287.5" font-family="Helvetica,sans-Serif" font-size="10.00" fill="#000000">actuator_utils.H</text>
</a>
</g>
</g>
<!-- Node8&#45;&gt;Node47 -->
<g id="edge70" class="edge">
<title>Node8&#45;&gt;Node47</title>
<path fill="none" stroke="#191970" d="M677.5581,-397.3943C714.2793,-391.7822 769.8294,-379.914 812.5,-356 838.8186,-341.2502 862.5903,-314.1142 874.1341,-299.6587"/>
<polygon fill="#191970" stroke="#191970" points="676.6624,-393.9871 667.2645,-398.8789 677.6618,-400.9155 676.6624,-393.9871"/>
</g>
<!-- Node10 -->
<g id="node3" class="node">
<title>Node10</title>
<g id="a_node3"><a xlink:href="tensor_i_8_h.html" target="_top" xlink:title="tensorI.H">
<polygon fill="#ffffff" stroke="#000000" points="454,-280.5 454,-299.5 515,-299.5 515,-280.5 454,-280.5"/>
<text text-anchor="middle" x="484.5" y="-287.5" font-family="Helvetica,sans-Serif" font-size="10.00" fill="#000000">tensorI.H</text>
</a>
</g>
</g>
<!-- Node9&#45;&gt;Node10 -->
<g id="edge2" class="edge">
<title>Node9&#45;&gt;Node10</title>
<path fill="none" stroke="#191970" d="M490.6416,-327.0437C486.8362,-317.8331 483.6088,-307.1598 482.5265,-299.6427"/>
<polygon fill="#191970" stroke="#191970" points="487.5313,-328.6558 494.9236,-336.2455 493.8778,-325.7024 487.5313,-328.6558"/>
</g>
<!-- Node9&#45;&gt;Node11 -->
<g id="edge4" class="edge">
<title>Node9&#45;&gt;Node11</title>
<path fill="none" stroke="#191970" d="M524.9297,-330.2097C538.2777,-320.3743 555.0179,-308.0394 566.4135,-299.6427"/>
<polygon fill="#191970" stroke="#191970" points="522.7126,-327.4958 516.7382,-336.2455 526.865,-333.1312 522.7126,-327.4958"/>
</g>
<!-- Node10&#45;&gt;Node9 -->
<g id="edge3" class="edge">
<title>Node10&#45;&gt;Node9</title>
<path fill="none" stroke="#191970" d="M497.3019,-308.8197C501.113,-318.0158 504.3538,-328.6973 505.4573,-336.2455"/>
<polygon fill="#191970" stroke="#191970" points="500.419,-307.2227 493.0168,-299.6427 494.0764,-310.1844 500.419,-307.2227"/>
</g>
<!-- Node12 -->
<g id="node5" class="node">
<title>Node12</title>
<g id="a_node5"><a xlink:href="_synthetic_turbulence_8_h.html" target="_top" xlink:title="SyntheticTurbulence.H">
<polygon fill="#ffffff" stroke="#000000" points="30,-224.5 30,-243.5 155,-243.5 155,-224.5 30,-224.5"/>
<text text-anchor="middle" x="92.5" y="-231.5" font-family="Helvetica,sans-Serif" font-size="10.00" fill="#000000">SyntheticTurbulence.H</text>
</a>
</g>
</g>
<!-- Node11&#45;&gt;Node12 -->
<g id="edge5" class="edge">
<title>Node11&#45;&gt;Node12</title>
<path fill="none" stroke="#191970" d="M523.8029,-280.0427C523.7018,-280.0284 523.6009,-280.0142 523.5,-280 368.6451,-258.2403 328.8848,-261.581 173.5,-244 167.5866,-243.3309 161.4334,-242.6122 155.2781,-241.8782"/>
<polygon fill="#191970" stroke="#191970" points="522.9888,-283.4594 533.3986,-281.488 524.0315,-276.5375 522.9888,-283.4594"/>
</g>
<!-- Node14 -->
<g id="node7" class="node">
<title>Node14</title>
<g id="a_node7"><a xlink:href="_box_refiner_8_h.html" target="_top" xlink:title="BoxRefiner.H">
<polygon fill="#ffffff" stroke="#000000" points="183,-224.5 183,-243.5 262,-243.5 262,-224.5 183,-224.5"/>
<text text-anchor="middle" x="222.5" y="-231.5" font-family="Helvetica,sans-Serif" font-size="10.00" fill="#000000">BoxRefiner.H</text>
</a>
</g>
</g>
<!-- Node11&#45;&gt;Node14 -->
<g id="edge7" class="edge">
<title>Node11&#45;&gt;Node14</title>
<path fill="none" stroke="#191970" d="M523.8019,-280.0489C523.7012,-280.0326 523.6005,-280.0163 523.5,-280 413.5528,-262.2081 385.3589,-262.3292 275.5,-244 271.159,-243.2757 266.6256,-242.4804 262.1166,-241.6644"/>
<polygon fill="#191970" stroke="#191970" points="522.9368,-283.453 533.3755,-281.6408 524.0851,-276.5478 522.9368,-283.453"/>
</g>
<!-- Node16 -->
<g id="node9" class="node">
<title>Node16</title>
<g id="a_node9"><a xlink:href="_cylinder_refiner_8_h.html" target="_top" xlink:title="CylinderRefiner.H">
<polygon fill="#ffffff" stroke="#000000" points="285,-224.5 285,-243.5 386,-243.5 386,-224.5 285,-224.5"/>
<text text-anchor="middle" x="335.5" y="-231.5" font-family="Helvetica,sans-Serif" font-size="10.00" fill="#000000">CylinderRefiner.H</text>
</a>
</g>
</g>
<!-- Node11&#45;&gt;Node16 -->
<g id="edge9" class="edge">
<title>Node11&#45;&gt;Node16</title>
<path fill="none" stroke="#191970" d="M527.9878,-278.1775C483.0507,-267.8641 418.6926,-253.0934 376.996,-243.5237"/>
<polygon fill="#191970" stroke="#191970" points="527.3026,-281.6112 537.8321,-280.4369 528.8685,-274.7886 527.3026,-281.6112"/>
</g>
<!-- Node18 -->
<g id="node11" class="node">
<title>Node18</title>
<g id="a_node11"><a xlink:href="_act_parser_8_h.html" target="_top" xlink:title="ActParser.H">
<polygon fill="#ffffff" stroke="#000000" points="1132.5,-224.5 1132.5,-243.5 1204.5,-243.5 1204.5,-224.5 1132.5,-224.5"/>
<text text-anchor="middle" x="1168.5" y="-231.5" font-family="Helvetica,sans-Serif" font-size="10.00" fill="#000000">ActParser.H</text>
</a>
</g>
</g>
<!-- Node11&#45;&gt;Node18 -->
<g id="edge11" class="edge">
<title>Node11&#45;&gt;Node18</title>
<path fill="none" stroke="#191970" d="M636.012,-284.9605C727.8129,-276.7239 915.0357,-259.7175 1073.5,-244 1092.9738,-242.0685 1114.6792,-239.7929 1132.4215,-237.9009"/>
<polygon fill="#191970" stroke="#191970" points="635.4779,-281.4942 625.8303,-285.8731 636.1029,-288.4663 635.4779,-281.4942"/>
</g>
<!-- Node33 -->
<g id="node26" class="node">
<title>Node33</title>
<g id="a_node26"><a xlink:href="actuator__types_8_h.html" target="_top" xlink:title="actuator_types.H">
<polygon fill="#ffffff" stroke="#000000" points="598.5,-224.5 598.5,-243.5 698.5,-243.5 698.5,-224.5 598.5,-224.5"/>
<text text-anchor="middle" x="648.5" y="-231.5" font-family="Helvetica,sans-Serif" font-size="10.00" fill="#000000">actuator_types.H</text>
</a>
</g>
</g>
<!-- Node11&#45;&gt;Node33 -->
<g id="edge36" class="edge">
<title>Node11&#45;&gt;Node33</title>
<path fill="none" stroke="#191970" d="M599.303,-273.928C611.3636,-264.1397 626.3714,-251.9595 636.6188,-243.6427"/>
<polygon fill="#191970" stroke="#191970" points="597.0779,-271.2262 591.5189,-280.2455 601.4891,-276.6614 597.0779,-271.2262"/>
</g>
<!-- Node42 -->
<g id="node35" class="node">
<title>Node42</title>
<g id="a_node35"><a xlink:href="_actuator_wing_8_h.html" target="_top" xlink:title="ActuatorWing.H">
<polygon fill="#ffffff" stroke="#000000" points="389,-168.5 389,-187.5 482,-187.5 482,-168.5 389,-168.5"/>
<text text-anchor="middle" x="435.5" y="-175.5" font-family="Helvetica,sans-Serif" font-size="10.00" fill="#000000">ActuatorWing.H</text>
</a>
</g>
</g>
<!-- Node11&#45;&gt;Node42 -->
<g id="edge65" class="edge">
<title>Node11&#45;&gt;Node42</title>
<path fill="none" stroke="#191970" d="M559.0274,-274.0768C528.6265,-250.4317 472.4814,-206.7633 447.7463,-187.5249"/>
<polygon fill="#191970" stroke="#191970" points="557.1803,-277.0742 567.2226,-280.4509 561.4779,-271.5488 557.1803,-277.0742"/>
</g>
<!-- Node43 -->
<g id="node36" class="node">
<title>Node43</title>
<g id="a_node36"><a xlink:href="_actuator_container_8_h.html" target="_top" xlink:title="ActuatorContainer.H">
<polygon fill="#ffffff" stroke="#000000" points="950,-224.5 950,-243.5 1065,-243.5 1065,-224.5 950,-224.5"/>
<text text-anchor="middle" x="1007.5" y="-231.5" font-family="Helvetica,sans-Serif" font-size="10.00" fill="#000000">ActuatorContainer.H</text>
</a>
</g>
</g>
<!-- Node11&#45;&gt;Node43 -->
<g id="edge62" class="edge">
<title>Node11&#45;&gt;Node43</title>
<path fill="none" stroke="#191970" d="M635.7172,-282.9641C706.0732,-274.1108 830.2495,-258.3272 936.5,-244 940.8177,-243.4178 945.282,-242.8078 949.772,-242.1886"/>
<polygon fill="#191970" stroke="#191970" points="635.2211,-279.4988 625.7358,-284.2191 636.0943,-286.4442 635.2211,-279.4988"/>
</g>
<!-- Node13 -->
<g id="node6" class="node">
<title>Node13</title>
<g id="a_node6"><a xlink:href="_synthetic_turbulence_8cpp.html" target="_top" xlink:title="SyntheticTurbulence.cpp">
<polygon fill="#ffffff" stroke="#000000" points="0,-168.5 0,-187.5 135,-187.5 135,-168.5 0,-168.5"/>
<text text-anchor="middle" x="67.5" y="-175.5" font-family="Helvetica,sans-Serif" font-size="10.00" fill="#000000">SyntheticTurbulence.cpp</text>
</a>
</g>
</g>
<!-- Node12&#45;&gt;Node13 -->
<g id="edge6" class="edge">
<title>Node12&#45;&gt;Node13</title>
<path fill="none" stroke="#191970" d="M84.0374,-215.0437C79.9255,-205.8331 75.1606,-195.1598 71.8048,-187.6427"/>
<polygon fill="#191970" stroke="#191970" points="80.8728,-216.541 88.1453,-224.2455 87.2648,-213.6874 80.8728,-216.541"/>
</g>
<!-- Node15 -->
<g id="node8" class="node">
<title>Node15</title>
<g id="a_node8"><a xlink:href="_box_refiner_8cpp.html" target="_top" xlink:title="BoxRefiner.cpp">
<polygon fill="#ffffff" stroke="#000000" points="153,-168.5 153,-187.5 242,-187.5 242,-168.5 153,-168.5"/>
<text text-anchor="middle" x="197.5" y="-175.5" font-family="Helvetica,sans-Serif" font-size="10.00" fill="#000000">BoxRefiner.cpp</text>
</a>
</g>
</g>
<!-- Node14&#45;&gt;Node15 -->
<g id="edge8" class="edge">
<title>Node14&#45;&gt;Node15</title>
<path fill="none" stroke="#191970" d="M214.0374,-215.0437C209.9255,-205.8331 205.1606,-195.1598 201.8048,-187.6427"/>
<polygon fill="#191970" stroke="#191970" points="210.8728,-216.541 218.1453,-224.2455 217.2648,-213.6874 210.8728,-216.541"/>
</g>
<!-- Node17 -->
<g id="node10" class="node">
<title>Node17</title>
<g id="a_node10"><a xlink:href="_cylinder_refiner_8cpp.html" target="_top" xlink:title="CylinderRefiner.cpp">
<polygon fill="#ffffff" stroke="#000000" points="260.5,-168.5 260.5,-187.5 370.5,-187.5 370.5,-168.5 260.5,-168.5"/>
<text text-anchor="middle" x="315.5" y="-175.5" font-family="Helvetica,sans-Serif" font-size="10.00" fill="#000000">CylinderRefiner.cpp</text>
</a>
</g>
</g>
<!-- Node16&#45;&gt;Node17 -->
<g id="edge10" class="edge">
<title>Node16&#45;&gt;Node17</title>
<path fill="none" stroke="#191970" d="M328.6247,-214.7493C325.3594,-205.6064 321.5999,-195.0798 318.9438,-187.6427"/>
<polygon fill="#191970" stroke="#191970" points="325.3567,-216.0053 332.0163,-224.2455 331.9489,-213.6509 325.3567,-216.0053"/>
</g>
<!-- Node19 -->
<g id="node12" class="node">
<title>Node19</title>
<g id="a_node12"><a xlink:href="actuator__ops_8_h.html" target="_top" xlink:title="actuator_ops.H">
<polygon fill="#ffffff" stroke="#000000" points="836.5,-168.5 836.5,-187.5 926.5,-187.5 926.5,-168.5 836.5,-168.5"/>
<text text-anchor="middle" x="881.5" y="-175.5" font-family="Helvetica,sans-Serif" font-size="10.00" fill="#000000">actuator_ops.H</text>
</a>
</g>
</g>
<!-- Node18&#45;&gt;Node19 -->
<g id="edge12" class="edge">
<title>Node18&#45;&gt;Node19</title>
<path fill="none" stroke="#191970" d="M1122.4825,-225.021C1068.6375,-214.5146 980.0622,-197.2317 926.6107,-186.8021"/>
<polygon fill="#191970" stroke="#191970" points="1121.9566,-228.4843 1132.4419,-226.9643 1123.2973,-221.6139 1121.9566,-228.4843"/>
</g>
<!-- Node21 -->
<g id="node14" class="node">
<title>Node21</title>
<g id="a_node14"><a xlink:href="_actuator_model_8_h.html" target="_top" xlink:title="ActuatorModel.H">
<polygon fill="#ffffff" stroke="#000000" points="1014.5,-56.5 1014.5,-75.5 1112.5,-75.5 1112.5,-56.5 1014.5,-56.5"/>
<text text-anchor="middle" x="1063.5" y="-63.5" font-family="Helvetica,sans-Serif" font-size="10.00" fill="#000000">ActuatorModel.H</text>
</a>
</g>
</g>
<!-- Node18&#45;&gt;Node21 -->
<g id="edge30" class="edge">
<title>Node18&#45;&gt;Node21</title>
<path fill="none" stroke="#191970" d="M1165.4055,-213.9479C1162.7576,-200.4065 1158.1312,-182.438 1150.5,-168 1130.0528,-129.3145 1092.7177,-92.439 1074.3262,-75.5785"/>
<polygon fill="#191970" stroke="#191970" points="1162.0122,-214.8615 1167.1869,-224.1066 1168.907,-213.6524 1162.0122,-214.8615"/>
</g>
<!-- Node22 -->
<g id="node15" class="node">
<title>Node22</title>
<g id="a_node15"><a xlink:href="_actuator_8cpp.html" target="_top" xlink:title="Actuator.cpp">
<polygon fill="#ffffff" stroke="#000000" points="1167,-.5 1167,-19.5 1244,-19.5 1244,-.5 1167,-.5"/>
<text text-anchor="middle" x="1205.5" y="-7.5" font-family="Helvetica,sans-Serif" font-size="10.00" fill="#000000">Actuator.cpp</text>
</a>
</g>
</g>
<!-- Node18&#45;&gt;Node22 -->
<g id="edge31" class="edge">
<title>Node18&#45;&gt;Node22</title>
<path fill="none" stroke="#191970" d="M1196.8549,-219.0855C1208.2765,-211.4519 1220.2172,-201.0019 1226.5,-188 1252.0252,-135.1773 1238.9666,-113.3268 1226.5,-56 1223.6271,-42.7892 1216.6112,-28.8263 1211.4765,-19.7968"/>
<polygon fill="#191970" stroke="#191970" points="1194.9823,-216.1282 1188.3241,-224.3695 1198.6684,-222.0791 1194.9823,-216.1282"/>
</g>
<!-- Node30 -->
<g id="node23" class="node">
<title>Node30</title>
<g id="a_node23"><a xlink:href="wing__ops_8cpp.html" target="_top" xlink:title="wing_ops.cpp">
<polygon fill="#ffffff" stroke="#000000" points="913,-56.5 913,-75.5 996,-75.5 996,-56.5 913,-56.5"/>
<text text-anchor="middle" x="954.5" y="-63.5" font-family="Helvetica,sans-Serif" font-size="10.00" fill="#000000">wing_ops.cpp</text>
</a>
</g>
</g>
<!-- Node18&#45;&gt;Node30 -->
<g id="edge35" class="edge">
<title>Node18&#45;&gt;Node30</title>
<path fill="none" stroke="#191970" d="M1151.3082,-216.8335C1137.2704,-203.1115 1116.6867,-183.6509 1097.5,-168 1052.6026,-131.3763 995.5794,-92.93 969.1609,-75.5404"/>
<polygon fill="#191970" stroke="#191970" points="1149.1787,-219.649 1158.757,-224.1775 1154.0933,-214.6643 1149.1787,-219.649"/>
</g>
<!-- Node31 -->
<g id="node24" class="node">
<title>Node31</title>
<g id="a_node24"><a xlink:href="turbine__utils_8_h.html" target="_top" xlink:title="turbine_utils.H">
<polygon fill="#ffffff" stroke="#000000" points="1378.5,-112.5 1378.5,-131.5 1466.5,-131.5 1466.5,-112.5 1378.5,-112.5"/>
<text text-anchor="middle" x="1422.5" y="-119.5" font-family="Helvetica,sans-Serif" font-size="10.00" fill="#000000">turbine_utils.H</text>
</a>
</g>
</g>
<!-- Node18&#45;&gt;Node31 -->
<g id="edge32" class="edge">
<title>Node18&#45;&gt;Node31</title>
<path fill="none" stroke="#191970" d="M1214.6263,-228.3132C1268.924,-220.8932 1355.0614,-206.6288 1381.5,-188 1401.569,-173.8593 1413.8251,-146.4664 1419.2338,-131.8114"/>
<polygon fill="#191970" stroke="#191970" points="1213.9965,-224.8662 1204.5492,-229.6619 1214.9251,-231.8043 1213.9965,-224.8662"/>
</g>
<!-- Node20 -->
<g id="node13" class="node">
<title>Node20</title>
<g id="a_node13"><a xlink:href="_act_src_op_8_h.html" target="_top" xlink:title="ActSrcOp.H">
<polygon fill="#ffffff" stroke="#000000" points="936,-112.5 936,-131.5 1007,-131.5 1007,-112.5 936,-112.5"/>
<text text-anchor="middle" x="971.5" y="-119.5" font-family="Helvetica,sans-Serif" font-size="10.00" fill="#000000">ActSrcOp.H</text>
</a>
</g>
</g>
<!-- Node19&#45;&gt;Node20 -->
<g id="edge13" class="edge">
<title>Node19&#45;&gt;Node20</title>
<path fill="none" stroke="#191970" d="M905.9784,-162.769C921.9266,-152.8456 942.251,-140.1994 956.0028,-131.6427"/>
<polygon fill="#191970" stroke="#191970" points="903.8183,-159.9908 897.1768,-168.2455 907.5165,-165.9342 903.8183,-159.9908"/>
</g>
<!-- Node19&#45;&gt;Node21 -->
<g id="edge19" class="edge">
<title>Node19&#45;&gt;Node21</title>
<path fill="none" stroke="#191970" d="M936.6627,-167.1628C962.39,-160.1742 992.36,-149.0974 1015.5,-132 1036.2392,-116.6765 1051.7506,-89.7826 1058.9852,-75.5149"/>
<polygon fill="#191970" stroke="#191970" points="935.4801,-163.853 926.6675,-169.7343 937.2242,-170.6323 935.4801,-163.853"/>
</g>
<!-- Node26 -->
<g id="node19" class="node">
<title>Node26</title>
<g id="a_node19"><a xlink:href="turbine__fast__ops_8_h.html" target="_top" xlink:title="turbine_fast_ops.H">
<polygon fill="#ffffff" stroke="#000000" points="1329.5,-56.5 1329.5,-75.5 1437.5,-75.5 1437.5,-56.5 1329.5,-56.5"/>
<text text-anchor="middle" x="1383.5" y="-63.5" font-family="Helvetica,sans-Serif" font-size="10.00" fill="#000000">turbine_fast_ops.H</text>
</a>
</g>
</g>
<!-- Node19&#45;&gt;Node26 -->
<g id="edge20" class="edge">
<title>Node19&#45;&gt;Node26</title>
<path fill="none" stroke="#191970" d="M934.1746,-166.2479C1034.0656,-143.9615 1249.2126,-95.9605 1340.8081,-75.5249"/>
<polygon fill="#191970" stroke="#191970" points="933.2981,-162.8573 924.3002,-168.4509 934.8224,-169.6893 933.2981,-162.8573"/>
</g>
<!-- Node27 -->
<g id="node20" class="node">
<title>Node27</title>
<g id="a_node20"><a xlink:href="fixed__wing__ops_8_h.html" target="_top" xlink:title="fixed_wing_ops.H">
<polygon fill="#ffffff" stroke="#000000" points="605.5,-56.5 605.5,-75.5 707.5,-75.5 707.5,-56.5 605.5,-56.5"/>
<text text-anchor="middle" x="656.5" y="-63.5" font-family="Helvetica,sans-Serif" font-size="10.00" fill="#000000">fixed_wing_ops.H</text>
</a>
</g>
</g>
<!-- Node19&#45;&gt;Node27 -->
<g id="edge22" class="edge">
<title>Node19&#45;&gt;Node27</title>
<path fill="none" stroke="#191970" d="M861.6398,-162.0573C842.868,-147.558 813.4863,-126.301 785.5,-112 754.6934,-96.2578 717.2341,-83.5506 690.6358,-75.5136"/>
<polygon fill="#191970" stroke="#191970" points="859.6824,-164.9701 869.7125,-168.3832 864.0001,-159.4602 859.6824,-164.9701"/>
</g>
<!-- Node28 -->
<g id="node21" class="node">
<title>Node28</title>
<g id="a_node21"><a xlink:href="wing__ops_8_h.html" target="_top" xlink:title="wing_ops.H">
<polygon fill="#ffffff" stroke="#000000" points="704,-112.5 704,-131.5 777,-131.5 777,-112.5 704,-112.5"/>
<text text-anchor="middle" x="740.5" y="-119.5" font-family="Helvetica,sans-Serif" font-size="10.00" fill="#000000">wing_ops.H</text>
</a>
</g>
</g>
<!-- Node19&#45;&gt;Node28 -->
<g id="edge24" class="edge">
<title>Node19&#45;&gt;Node28</title>
<path fill="none" stroke="#191970" d="M847.8968,-164.6541C822.1841,-154.4419 787.3539,-140.6086 764.4225,-131.5011"/>
<polygon fill="#191970" stroke="#191970" points="846.6755,-167.9349 857.2612,-168.3733 849.2593,-161.4292 846.6755,-167.9349"/>
</g>
<!-- Node29 -->
<g id="node22" class="node">
<title>Node29</title>
<g id="a_node22"><a xlink:href="flat__plate__ops_8_h.html" target="_top" xlink:title="flat_plate_ops.H">
<polygon fill="#ffffff" stroke="#000000" points="764,-56.5 764,-75.5 859,-75.5 859,-56.5 764,-56.5"/>
<text text-anchor="middle" x="811.5" y="-63.5" font-family="Helvetica,sans-Serif" font-size="10.00" fill="#000000">flat_plate_ops.H</text>
</a>
</g>
</g>
<!-- Node19&#45;&gt;Node29 -->
<g id="edge29" class="edge">
<title>Node19&#45;&gt;Node29</title>
<path fill="none" stroke="#191970" d="M870.1829,-159.8927C855.1437,-135.8299 829.1158,-94.1853 817.4531,-75.5249"/>
<polygon fill="#191970" stroke="#191970" points="867.2638,-161.826 875.5318,-168.4509 873.1998,-158.1159 867.2638,-161.826"/>
</g>
<!-- Node20&#45;&gt;Node21 -->
<g id="edge14" class="edge">
<title>Node20&#45;&gt;Node21</title>
<path fill="none" stroke="#191970" d="M996.5224,-106.769C1012.825,-96.8456 1033.601,-84.1994 1047.6585,-75.6427"/>
<polygon fill="#191970" stroke="#191970" points="994.2473,-104.0563 987.5252,-112.2455 997.887,-110.0357 994.2473,-104.0563"/>
</g>
<!-- Node21&#45;&gt;Node22 -->
<g id="edge15" class="edge">
<title>Node21&#45;&gt;Node22</title>
<path fill="none" stroke="#191970" d="M1097.3415,-52.6541C1123.2366,-42.4419 1158.3138,-28.6086 1181.4079,-19.5011"/>
<polygon fill="#191970" stroke="#191970" points="1095.9293,-49.4486 1087.9107,-56.3733 1098.4975,-55.9605 1095.9293,-49.4486"/>
</g>
<!-- Node23 -->
<g id="node16" class="node">
<title>Node23</title>
<g id="a_node16"><a xlink:href="_turbine_fast_8cpp.html" target="_top" xlink:title="TurbineFast.cpp">
<polygon fill="#ffffff" stroke="#000000" points="1262.5,-.5 1262.5,-19.5 1354.5,-19.5 1354.5,-.5 1262.5,-.5"/>
<text text-anchor="middle" x="1308.5" y="-7.5" font-family="Helvetica,sans-Serif" font-size="10.00" fill="#000000">TurbineFast.cpp</text>
</a>
</g>
</g>
<!-- Node21&#45;&gt;Node23 -->
<g id="edge16" class="edge">
<title>Node21&#45;&gt;Node23</title>
<path fill="none" stroke="#191970" d="M1115.2233,-54.1775C1160.3445,-43.8641 1224.9665,-29.0934 1266.8339,-19.5237"/>
<polygon fill="#191970" stroke="#191970" points="1114.3073,-50.7966 1105.3386,-56.4369 1115.8671,-57.6206 1114.3073,-50.7966"/>
</g>
<!-- Node24 -->
<g id="node17" class="node">
<title>Node24</title>
<g id="a_node17"><a xlink:href="_fixed_wing_8cpp.html" target="_top" xlink:title="FixedWing.cpp">
<polygon fill="#ffffff" stroke="#000000" points="613,-.5 613,-19.5 700,-19.5 700,-.5 613,-.5"/>
<text text-anchor="middle" x="656.5" y="-7.5" font-family="Helvetica,sans-Serif" font-size="10.00" fill="#000000">FixedWing.cpp</text>
</a>
</g>
</g>
<!-- Node21&#45;&gt;Node24 -->
<g id="edge17" class="edge">
<title>Node21&#45;&gt;Node24</title>
<path fill="none" stroke="#191970" d="M1004.1342,-55.9935C888.0205,-38.6192 764.4019,-23.0952 700.247,-15.263"/>
<polygon fill="#191970" stroke="#191970" points="1003.8568,-59.491 1014.2661,-57.5172 1004.8978,-52.5689 1003.8568,-59.491"/>
</g>
<!-- Node25 -->
<g id="node18" class="node">
<title>Node25</title>
<g id="a_node18"><a xlink:href="_flat_plate_8cpp.html" target="_top" xlink:title="FlatPlate.cpp">
<polygon fill="#ffffff" stroke="#000000" points="771.5,-.5 771.5,-19.5 851.5,-19.5 851.5,-.5 771.5,-.5"/>
<text text-anchor="middle" x="811.5" y="-7.5" font-family="Helvetica,sans-Serif" font-size="10.00" fill="#000000">FlatPlate.cpp</text>
</a>
</g>
</g>
<!-- Node21&#45;&gt;Node25 -->
<g id="edge18" class="edge">
<title>Node21&#45;&gt;Node25</title>
<path fill="none" stroke="#191970" d="M1010.7026,-54.2672C963.3692,-43.7487 894.935,-28.5411 851.8571,-18.9682"/>
<polygon fill="#191970" stroke="#191970" points="1009.9448,-57.6842 1020.466,-56.4369 1011.4634,-50.8508 1009.9448,-57.6842"/>
</g>
<!-- Node26&#45;&gt;Node23 -->
<g id="edge21" class="edge">
<title>Node26&#45;&gt;Node23</title>
<path fill="none" stroke="#191970" d="M1362.3523,-50.2097C1349.1799,-40.3743 1332.66,-28.0394 1321.4143,-19.6427"/>
<polygon fill="#191970" stroke="#191970" points="1360.3291,-53.0671 1370.436,-56.2455 1364.5172,-47.4581 1360.3291,-53.0671"/>
</g>
<!-- Node27&#45;&gt;Node24 -->
<g id="edge23" class="edge">
<title>Node27&#45;&gt;Node24</title>
<path fill="none" stroke="#191970" d="M656.5,-46.1575C656.5,-37.155 656.5,-26.9199 656.5,-19.6427"/>
<polygon fill="#191970" stroke="#191970" points="653.0001,-46.2455 656.5,-56.2455 660.0001,-46.2456 653.0001,-46.2455"/>
</g>
<!-- Node28&#45;&gt;Node27 -->
<g id="edge25" class="edge">
<title>Node28&#45;&gt;Node27</title>
<path fill="none" stroke="#191970" d="M717.2351,-106.49C702.4144,-96.6096 683.6791,-84.1194 670.964,-75.6427"/>
<polygon fill="#191970" stroke="#191970" points="715.6063,-109.6107 725.8683,-112.2455 719.4893,-103.7863 715.6063,-109.6107"/>
</g>
<!-- Node28&#45;&gt;Node29 -->
<g id="edge26" class="edge">
<title>Node28&#45;&gt;Node29</title>
<path fill="none" stroke="#191970" d="M760.877,-105.928C773.2871,-96.1397 788.73,-83.9595 799.2745,-75.6427"/>
<polygon fill="#191970" stroke="#191970" points="758.5514,-103.3046 752.8673,-112.2455 762.8864,-108.8007 758.5514,-103.3046"/>
</g>
<!-- Node28&#45;&gt;Node30 -->
<g id="edge28" class="edge">
<title>Node28&#45;&gt;Node30</title>
<path fill="none" stroke="#191970" d="M787.1766,-109.7856C826.5414,-99.4845 882.0851,-84.9497 918.1921,-75.5011"/>
<polygon fill="#191970" stroke="#191970" points="786.0761,-106.4556 777.2879,-112.3733 787.8482,-113.2276 786.0761,-106.4556"/>
</g>
<!-- Node29&#45;&gt;Node25 -->
<g id="edge27" class="edge">
<title>Node29&#45;&gt;Node25</title>
<path fill="none" stroke="#191970" d="M811.5,-46.1575C811.5,-37.155 811.5,-26.9199 811.5,-19.6427"/>
<polygon fill="#191970" stroke="#191970" points="808.0001,-46.2455 811.5,-56.2455 815.0001,-46.2456 808.0001,-46.2455"/>
</g>
<!-- Node31&#45;&gt;Node26 -->
<g id="edge33" class="edge">
<title>Node31&#45;&gt;Node26</title>
<path fill="none" stroke="#191970" d="M1409.9092,-103.9209C1403.3605,-94.5176 1395.6176,-83.3997 1390.2154,-75.6427"/>
<polygon fill="#191970" stroke="#191970" points="1407.1196,-106.0397 1415.7067,-112.2455 1412.8639,-102.0392 1407.1196,-106.0397"/>
</g>
<!-- Node32 -->
<g id="node25" class="node">
<title>Node32</title>
<g id="a_node25"><a xlink:href="turbine__utils_8cpp.html" target="_top" xlink:title="turbine_utils.cpp">
<polygon fill="#ffffff" stroke="#000000" points="1455.5,-56.5 1455.5,-75.5 1553.5,-75.5 1553.5,-56.5 1455.5,-56.5"/>
<text text-anchor="middle" x="1504.5" y="-63.5" font-family="Helvetica,sans-Serif" font-size="10.00" fill="#000000">turbine_utils.cpp</text>
</a>
</g>
</g>
<!-- Node31&#45;&gt;Node32 -->
<g id="edge34" class="edge">
<title>Node31&#45;&gt;Node32</title>
<path fill="none" stroke="#191970" d="M1445.211,-106.49C1459.6788,-96.6096 1477.968,-84.1194 1490.3804,-75.6427"/>
<polygon fill="#191970" stroke="#191970" points="1443.0675,-103.7156 1436.7833,-112.2455 1447.0152,-109.4962 1443.0675,-103.7156"/>
</g>
<!-- Node33&#45;&gt;Node19 -->
<g id="edge38" class="edge">
<title>Node33&#45;&gt;Node19</title>
<path fill="none" stroke="#191970" d="M698.2318,-222.0473C741.1172,-211.7401 802.2252,-197.0532 841.8747,-187.5237"/>
<polygon fill="#191970" stroke="#191970" points="697.1946,-218.6968 688.2894,-224.4369 698.8304,-225.503 697.1946,-218.6968"/>
</g>
<!-- Node33&#45;&gt;Node20 -->
<g id="edge37" class="edge">
<title>Node33&#45;&gt;Node20</title>
<path fill="none" stroke="#191970" d="M659.4147,-215.3945C669.4068,-200.1186 685.6391,-179.2359 705.5,-168 744.3533,-146.0196 872.6782,-131.2799 935.801,-125.1763"/>
<polygon fill="#191970" stroke="#191970" points="656.3423,-213.7071 654.0229,-224.045 662.2828,-217.4098 656.3423,-213.7071"/>
</g>
<!-- Node33&#45;&gt;Node21 -->
<g id="edge39" class="edge">
<title>Node33&#45;&gt;Node21</title>
<path fill="none" stroke="#191970" d="M652.5441,-214.6224C656.6316,-199.7825 664.4202,-179.8973 678.5,-168 691.968,-156.6197 928.4501,-98.6058 1023.9653,-75.5071"/>
<polygon fill="#191970" stroke="#191970" points="649.1405,-213.8069 650.1849,-224.3501 655.9433,-215.4568 649.1405,-213.8069"/>
</g>
<!-- Node33&#45;&gt;Node28 -->
<g id="edge61" class="edge">
<title>Node33&#45;&gt;Node28</title>
<path fill="none" stroke="#191970" d="M637.3862,-215.0289C630.7742,-201.0193 625.296,-182.0275 634.5,-168 643.0841,-154.9173 680.5681,-140.6976 708.5427,-131.5847"/>
<polygon fill="#191970" stroke="#191970" points="634.4586,-216.982 642.2074,-224.2074 640.6557,-213.7268 634.4586,-216.982"/>
</g>
<!-- Node34 -->
<g id="node27" class="node">
<title>Node34</title>
<g id="a_node27"><a xlink:href="actuator__utils_8cpp.html" target="_top" xlink:title="actuator_utils.cpp">
<polygon fill="#ffffff" stroke="#000000" points="714.5,-168.5 714.5,-187.5 818.5,-187.5 818.5,-168.5 714.5,-168.5"/>
<text text-anchor="middle" x="766.5" y="-175.5" font-family="Helvetica,sans-Serif" font-size="10.00" fill="#000000">actuator_utils.cpp</text>
</a>
</g>
</g>
<!-- Node33&#45;&gt;Node34 -->
<g id="edge40" class="edge">
<title>Node33&#45;&gt;Node34</title>
<path fill="none" stroke="#191970" d="M678.0547,-219.9741C699.4195,-209.8348 727.7116,-196.408 746.4798,-187.5011"/>
<polygon fill="#191970" stroke="#191970" points="676.3186,-216.9238 668.7849,-224.3733 679.3198,-223.2478 676.3186,-216.9238"/>
</g>
<!-- Node35 -->
<g id="node28" class="node">
<title>Node35</title>
<g id="a_node28"><a xlink:href="_airfoil_table_8_h.html" target="_top" xlink:title="AirfoilTable.H">
<polygon fill="#ffffff" stroke="#000000" points="500.5,-168.5 500.5,-187.5 582.5,-187.5 582.5,-168.5 500.5,-168.5"/>
<text text-anchor="middle" x="541.5" y="-175.5" font-family="Helvetica,sans-Serif" font-size="10.00" fill="#000000">AirfoilTable.H</text>
</a>
</g>
</g>
<!-- Node33&#45;&gt;Node35 -->
<g id="edge41" class="edge">
<title>Node33&#45;&gt;Node35</title>
<path fill="none" stroke="#191970" d="M620.9801,-219.5971C601.7983,-209.558 576.7322,-196.4393 559.9244,-187.6427"/>
<polygon fill="#191970" stroke="#191970" points="619.3791,-222.7095 629.862,-224.2455 622.625,-216.5075 619.3791,-222.7095"/>
</g>
<!-- Node40 -->
<g id="node33" class="node">
<title>Node40</title>
<g id="a_node33"><a xlink:href="turbine__types_8_h.html" target="_top" xlink:title="turbine_types.H">
<polygon fill="#ffffff" stroke="#000000" points="1278.5,-168.5 1278.5,-187.5 1372.5,-187.5 1372.5,-168.5 1278.5,-168.5"/>
<text text-anchor="middle" x="1325.5" y="-175.5" font-family="Helvetica,sans-Serif" font-size="10.00" fill="#000000">turbine_types.H</text>
</a>
</g>
</g>
<!-- Node33&#45;&gt;Node40 -->
<g id="edge52" class="edge">
<title>Node33&#45;&gt;Node40</title>
<path fill="none" stroke="#191970" d="M708.5677,-229.0313C841.5404,-218.0321 1158.4709,-191.8163 1278.4149,-181.8948"/>
<polygon fill="#191970" stroke="#191970" points="708.2338,-225.5469 698.5564,-229.8594 708.8109,-232.5231 708.2338,-225.5469"/>
</g>
<!-- Node33&#45;&gt;Node42 -->
<g id="edge57" class="edge">
<title>Node33&#45;&gt;Node42</title>
<path fill="none" stroke="#191970" d="M602.0415,-221.7856C562.8607,-211.4845 507.5765,-196.9497 471.6382,-187.5011"/>
<polygon fill="#191970" stroke="#191970" points="601.3227,-225.2155 611.884,-224.3733 603.1026,-218.4455 601.3227,-225.2155"/>
</g>
<!-- Node35&#45;&gt;Node28 -->
<g id="edge48" class="edge">
<title>Node35&#45;&gt;Node28</title>
<path fill="none" stroke="#191970" d="M585.6062,-165.5882C622.1677,-155.2996 673.3748,-140.8895 706.7371,-131.5011"/>
<polygon fill="#191970" stroke="#191970" points="584.3873,-162.2952 575.7093,-168.3733 586.2836,-169.0335 584.3873,-162.2952"/>
</g>
<!-- Node36 -->
<g id="node29" class="node">
<title>Node36</title>
<g id="a_node29"><a xlink:href="_airfoil_table_8cpp.html" target="_top" xlink:title="AirfoilTable.cpp">
<polygon fill="#ffffff" stroke="#000000" points="490.5,-112.5 490.5,-131.5 582.5,-131.5 582.5,-112.5 490.5,-112.5"/>
<text text-anchor="middle" x="536.5" y="-119.5" font-family="Helvetica,sans-Serif" font-size="10.00" fill="#000000">AirfoilTable.cpp</text>
</a>
</g>
</g>
<!-- Node35&#45;&gt;Node36 -->
<g id="edge42" class="edge">
<title>Node35&#45;&gt;Node36</title>
<path fill="none" stroke="#191970" d="M539.7283,-158.1575C538.9246,-149.155 538.0107,-138.9199 537.361,-131.6427"/>
<polygon fill="#191970" stroke="#191970" points="536.2535,-158.5965 540.6291,-168.2455 543.2258,-157.9739 536.2535,-158.5965"/>
</g>
<!-- Node37 -->
<g id="node30" class="node">
<title>Node37</title>
<g id="a_node30"><a xlink:href="_airfoil_table_i_8_h.html" target="_top" xlink:title="AirfoilTableI.H">
<polygon fill="#ffffff" stroke="#000000" points="601,-112.5 601,-131.5 686,-131.5 686,-112.5 601,-112.5"/>
<text text-anchor="middle" x="643.5" y="-119.5" font-family="Helvetica,sans-Serif" font-size="10.00" fill="#000000">AirfoilTableI.H</text>
</a>
</g>
</g>
<!-- Node35&#45;&gt;Node37 -->
<g id="edge43" class="edge">
<title>Node35&#45;&gt;Node37</title>
<path fill="none" stroke="#191970" d="M562.6855,-163.0465C579.685,-153.0824 603.2735,-140.2794 620.6914,-131.6427"/>
<polygon fill="#191970" stroke="#191970" points="560.7827,-160.1063 554.0002,-168.2455 564.3781,-166.1124 560.7827,-160.1063"/>
</g>
<!-- Node38 -->
<g id="node31" class="node">
<title>Node38</title>
<g id="a_node31"><a xlink:href="_fixed_wing_8_h.html" target="_top" xlink:title="FixedWing.H">
<polygon fill="#ffffff" stroke="#000000" points="307,-112.5 307,-131.5 384,-131.5 384,-112.5 307,-112.5"/>
<text text-anchor="middle" x="345.5" y="-119.5" font-family="Helvetica,sans-Serif" font-size="10.00" fill="#000000">FixedWing.H</text>
</a>
</g>
</g>
<!-- Node35&#45;&gt;Node38 -->
<g id="edge45" class="edge">
<title>Node35&#45;&gt;Node38</title>
<path fill="none" stroke="#191970" d="M498.0587,-165.5882C462.0484,-155.2996 411.6132,-140.8895 378.7539,-131.5011"/>
<polygon fill="#191970" stroke="#191970" points="497.2296,-168.9913 507.8064,-168.3733 499.1527,-162.2606 497.2296,-168.9913"/>
</g>
<!-- Node39 -->
<g id="node32" class="node">
<title>Node39</title>
<g id="a_node32"><a xlink:href="_flat_plate_8_h.html" target="_top" xlink:title="FlatPlate.H">
<polygon fill="#ffffff" stroke="#000000" points="402.5,-112.5 402.5,-131.5 472.5,-131.5 472.5,-112.5 402.5,-112.5"/>
<text text-anchor="middle" x="437.5" y="-119.5" font-family="Helvetica,sans-Serif" font-size="10.00" fill="#000000">FlatPlate.H</text>
</a>
</g>
</g>
<!-- Node35&#45;&gt;Node39 -->
<g id="edge49" class="edge">
<title>Node35&#45;&gt;Node39</title>
<path fill="none" stroke="#191970" d="M514.4971,-163.46C495.8864,-153.4388 471.6701,-140.3993 455.4078,-131.6427"/>
<polygon fill="#191970" stroke="#191970" points="512.9205,-166.5861 523.3846,-168.2455 516.2392,-160.4228 512.9205,-166.5861"/>
</g>
<!-- Node37&#45;&gt;Node35 -->
<g id="edge44" class="edge">
<title>Node37&#45;&gt;Node35</title>
<path fill="none" stroke="#191970" d="M622.7293,-136.7102C605.6899,-146.7145 581.8395,-159.666 564.2764,-168.3733"/>
<polygon fill="#191970" stroke="#191970" points="624.6372,-139.6472 631.4117,-131.5011 621.0359,-133.6446 624.6372,-139.6472"/>
</g>
<!-- Node38&#45;&gt;Node24 -->
<g id="edge47" class="edge">
<title>Node38&#45;&gt;Node24</title>
<path fill="none" stroke="#191970" d="M381.5785,-109.0071C444.8393,-86.2251 574.3377,-39.589 630.0514,-19.5249"/>
<polygon fill="#191970" stroke="#191970" points="380.2383,-105.7696 372.0157,-112.4509 382.6101,-112.3556 380.2383,-105.7696"/>
</g>
<!-- Node38&#45;&gt;Node27 -->
<g id="edge46" class="edge">
<title>Node38&#45;&gt;Node27</title>
<path fill="none" stroke="#191970" d="M394.4186,-111.8708C473.7244,-96.773 554.0988,-83.0205 605.0074,-74.5017"/>
<polygon fill="#191970" stroke="#191970" points="393.4158,-108.499 384.2511,-113.8151 394.7306,-115.3745 393.4158,-108.499"/>
</g>
<!-- Node39&#45;&gt;Node25 -->
<g id="edge51" class="edge">
<title>Node39&#45;&gt;Node25</title>
<path fill="none" stroke="#191970" d="M482.5455,-111.9685C587.367,-93.607 621.3299,-113.9677 716.5,-76 750.6351,-62.3819 784.5128,-34.5073 801.0581,-19.7175"/>
<polygon fill="#191970" stroke="#191970" points="481.7235,-108.5607 472.5172,-113.8043 482.984,-115.4463 481.7235,-108.5607"/>
</g>
<!-- Node39&#45;&gt;Node29 -->
<g id="edge50" class="edge">
<title>Node39&#45;&gt;Node29</title>
<path fill="none" stroke="#191970" d="M482.3754,-111.9728C601.4588,-90.8003 633.7451,-93.1066 749.5,-76 754.1379,-75.3146 758.967,-74.5773 763.7922,-73.8249"/>
<polygon fill="#191970" stroke="#191970" points="481.73,-108.5326 472.5063,-113.7454 482.9676,-115.4224 481.73,-108.5326"/>
</g>
<!-- Node40&#45;&gt;Node31 -->
<g id="edge56" class="edge">
<title>Node40&#45;&gt;Node31</title>
<path fill="none" stroke="#191970" d="M1351.4016,-163.0465C1368.6609,-153.0824 1390.8376,-140.2794 1405.7975,-131.6427"/>
<polygon fill="#191970" stroke="#191970" points="1349.3065,-160.2146 1342.3961,-168.2455 1352.8064,-166.2768 1349.3065,-160.2146"/>
</g>
<!-- Node41 -->
<g id="node34" class="node">
<title>Node41</title>
<g id="a_node34"><a xlink:href="_turbine_fast_8_h.html" target="_top" xlink:title="TurbineFast.H">
<polygon fill="#ffffff" stroke="#000000" points="1278.5,-112.5 1278.5,-131.5 1360.5,-131.5 1360.5,-112.5 1278.5,-112.5"/>
<text text-anchor="middle" x="1319.5" y="-119.5" font-family="Helvetica,sans-Serif" font-size="10.00" fill="#000000">TurbineFast.H</text>
</a>
</g>
</g>
<!-- Node40&#45;&gt;Node41 -->
<g id="edge53" class="edge">
<title>Node40&#45;&gt;Node41</title>
<path fill="none" stroke="#191970" d="M1323.374,-158.1575C1322.4095,-149.155 1321.3128,-138.9199 1320.5331,-131.6427"/>
<polygon fill="#191970" stroke="#191970" points="1319.9094,-158.6753 1324.4549,-168.2455 1326.8695,-157.9296 1319.9094,-158.6753"/>
</g>
<!-- Node41&#45;&gt;Node23 -->
<g id="edge55" class="edge">
<title>Node41&#45;&gt;Node23</title>
<path fill="none" stroke="#191970" d="M1317.5623,-102.2702C1315.1784,-77.9985 1311.2277,-37.7725 1309.4355,-19.5249"/>
<polygon fill="#191970" stroke="#191970" points="1314.1014,-102.841 1318.5621,-112.4509 1321.0679,-102.1567 1314.1014,-102.841"/>
</g>
<!-- Node41&#45;&gt;Node26 -->
<g id="edge54" class="edge">
<title>Node41&#45;&gt;Node26</title>
<path fill="none" stroke="#191970" d="M1338.1914,-105.645C1349.3219,-95.9058 1363.0663,-83.8795 1372.4798,-75.6427"/>
<polygon fill="#191970" stroke="#191970" points="1335.869,-103.0264 1330.6479,-112.2455 1340.4785,-108.2945 1335.869,-103.0264"/>
</g>
<!-- Node42&#45;&gt;Node28 -->
<g id="edge59" class="edge">
<title>Node42&#45;&gt;Node28</title>
<path fill="none" stroke="#191970" d="M492.1863,-167.8854C583.3557,-151.7769 607.6755,-149.1296 694.5,-132 697.5469,-131.3989 700.7028,-130.7559 703.8682,-130.0967"/>
<polygon fill="#191970" stroke="#191970" points="491.4854,-164.455 482.2502,-169.6475 492.7077,-171.3475 491.4854,-164.455"/>
</g>
<!-- Node42&#45;&gt;Node38 -->
<g id="edge58" class="edge">
<title>Node42&#45;&gt;Node38</title>
<path fill="none" stroke="#191970" d="M411.0216,-162.769C395.0734,-152.8456 374.749,-140.1994 360.9972,-131.6427"/>
<polygon fill="#191970" stroke="#191970" points="409.4835,-165.9342 419.8232,-168.2455 413.1817,-159.9908 409.4835,-165.9342"/>
</g>
<!-- Node42&#45;&gt;Node39 -->
<g id="edge60" class="edge">
<title>Node42&#45;&gt;Node39</title>
<path fill="none" stroke="#191970" d="M436.2087,-158.1575C436.5302,-149.155 436.8957,-138.9199 437.1556,-131.6427"/>
<polygon fill="#191970" stroke="#191970" points="432.7076,-158.127 435.8484,-168.2455 439.7032,-158.3769 432.7076,-158.127"/>
</g>
<!-- Node43&#45;&gt;Node22 -->
<g id="edge63" class="edge">
<title>Node43&#45;&gt;Node22</title>
<path fill="none" stroke="#191970" d="M1035.4517,-219.2099C1049.2961,-211.0941 1065.7347,-200.2055 1078.5,-188 1136.1201,-132.9067 1184.6671,-48.4224 1200.2533,-19.8397"/>
<polygon fill="#191970" stroke="#191970" points="1033.33,-216.3895 1026.3586,-224.3676 1036.7836,-222.4782 1033.33,-216.3895"/>
</g>
<!-- Node44 -->
<g id="node37" class="node">
<title>Node44</title>
<g id="a_node37"><a xlink:href="_actuator_container_8cpp.html" target="_top" xlink:title="ActuatorContainer.cpp">
<polygon fill="#ffffff" stroke="#000000" points="945,-168.5 945,-187.5 1070,-187.5 1070,-168.5 945,-168.5"/>
<text text-anchor="middle" x="1007.5" y="-175.5" font-family="Helvetica,sans-Serif" font-size="10.00" fill="#000000">ActuatorContainer.cpp</text>
</a>
</g>
</g>
<!-- Node43&#45;&gt;Node44 -->
<g id="edge64" class="edge">
<title>Node43&#45;&gt;Node44</title>
<path fill="none" stroke="#191970" d="M1007.5,-214.1575C1007.5,-205.155 1007.5,-194.9199 1007.5,-187.6427"/>
<polygon fill="#191970" stroke="#191970" points="1004.0001,-214.2455 1007.5,-224.2455 1011.0001,-214.2456 1004.0001,-214.2455"/>
</g>
<!-- Node45&#45;&gt;Node8 -->
<g id="edge67" class="edge">
<title>Node45&#45;&gt;Node8</title>
<path fill="none" stroke="#191970" d="M644.9795,-365.7046C645.5821,-374.6944 645.1779,-384.9382 643.7668,-392.2455"/>
<polygon fill="#191970" stroke="#191970" points="648.4368,-365.1421 643.7451,-355.6427 641.4889,-365.9945 648.4368,-365.1421"/>
</g>
<!-- Node47&#45;&gt;Node20 -->
<g id="edge73" class="edge">
<title>Node47&#45;&gt;Node20</title>
<path fill="none" stroke="#191970" d="M938.726,-283.6588C988.751,-276.8521 1056.0511,-264.2044 1073.5,-244 1095.6253,-218.3807 1097.1186,-196.2705 1078.5,-168 1062.763,-144.1049 1031.7326,-132.5714 1007.1231,-127.0344"/>
<polygon fill="#191970" stroke="#191970" points="938.1131,-280.2092 928.6547,-284.983 939.0256,-287.1494 938.1131,-280.2092"/>
</g>
<!-- Node47&#45;&gt;Node26 -->
<g id="edge75" class="edge">
<title>Node47&#45;&gt;Node26</title>
<path fill="none" stroke="#191970" d="M938.8881,-284.6469C1005.4306,-277.8416 1118.1821,-264.4598 1213.5,-244 1299.9922,-225.4347 1325.8926,-228.5765 1404.5,-188 1445.5749,-166.7975 1499.8016,-151.3208 1475.5,-112 1464.1402,-93.6195 1442.9658,-82.3377 1423.7925,-75.5505"/>
<polygon fill="#191970" stroke="#191970" points="938.2134,-281.1971 928.615,-285.6827 938.9157,-288.1618 938.2134,-281.1971"/>
</g>
<!-- Node47&#45;&gt;Node34 -->
<g id="edge74" class="edge">
<title>Node47&#45;&gt;Node34</title>
<path fill="none" stroke="#191970" d="M860.5096,-274.0152C849.7107,-265.483 836.5343,-254.5826 825.5,-244 805.9774,-225.2766 785.4117,-201.1026 774.4646,-187.8223"/>
<polygon fill="#191970" stroke="#191970" points="858.5345,-276.9133 868.5739,-280.2988 862.8369,-271.3916 858.5345,-276.9133"/>
</g>
<!-- Node48 -->
<g id="node41" class="node">
<title>Node48</title>
<g id="a_node41"><a xlink:href="actuator__ops_i_8_h.html" target="_top" xlink:title="actuator_opsI.H">
<polygon fill="#ffffff" stroke="#000000" points="835,-224.5 835,-243.5 928,-243.5 928,-224.5 835,-224.5"/>
<text text-anchor="middle" x="881.5" y="-231.5" font-family="Helvetica,sans-Serif" font-size="10.00" fill="#000000">actuator_opsI.H</text>
</a>
</g>
</g>
<!-- Node47&#45;&gt;Node48 -->
<g id="edge71" class="edge">
<title>Node47&#45;&gt;Node48</title>
<path fill="none" stroke="#191970" d="M881.5,-270.1575C881.5,-261.155 881.5,-250.9199 881.5,-243.6427"/>
<polygon fill="#191970" stroke="#191970" points="878.0001,-270.2455 881.5,-280.2455 885.0001,-270.2456 878.0001,-270.2455"/>
</g>
<!-- Node48&#45;&gt;Node19 -->
<g id="edge72" class="edge">
<title>Node48&#45;&gt;Node19</title>
<path fill="none" stroke="#191970" d="M881.5,-214.1575C881.5,-205.155 881.5,-194.9199 881.5,-187.6427"/>
<polygon fill="#191970" stroke="#191970" points="878.0001,-214.2455 881.5,-224.2455 885.0001,-214.2456 878.0001,-214.2455"/>
</g>
</g>
</svg>
