<?xml version="1.0" encoding="UTF-8" standalone="no"?>
<!DOCTYPE svg PUBLIC "-//W3C//DTD SVG 1.1//EN"
 "http://www.w3.org/Graphics/SVG/1.1/DTD/svg11.dtd">
<!-- Generated by graphviz version 2.40.1 (20161225.0304)
 -->
<!-- Title: vof.H Pages: 1 -->
<svg width="199pt" height="140pt"
 viewBox="0.00 0.00 199.12 140.00" xmlns="http://www.w3.org/2000/svg" xmlns:xlink="http://www.w3.org/1999/xlink">
<g id="graph0" class="graph" transform="scale(1 1) rotate(0) translate(4 136)">
<title>vof.H</title>
<polygon fill="#ffffff" stroke="transparent" points="-4,4 -4,-136 195.1229,-136 195.1229,4 -4,4"/>
<!-- Node60 -->
<g id="node1" class="node">
<title>Node60</title>
<polygon fill="#bfbfbf" stroke="#000000" points="38.6229,-112.5 38.6229,-131.5 80.6229,-131.5 80.6229,-112.5 38.6229,-112.5"/>
<text text-anchor="middle" x="59.6229" y="-119.5" font-family="Helvetica,sans-Serif" font-size="10.00" fill="#000000">vof.H</text>
</g>
<!-- Node61 -->
<g id="node2" class="node">
<title>Node61</title>
<g id="a_node2"><a xlink:href="vof_8cpp.html" target="_top" xlink:title="vof.cpp">
<polygon fill="#ffffff" stroke="#000000" points="33.6229,-.5 33.6229,-19.5 85.6229,-19.5 85.6229,-.5 33.6229,-.5"/>
<text text-anchor="middle" x="59.6229" y="-7.5" font-family="Helvetica,sans-Serif" font-size="10.00" fill="#000000">vof.cpp</text>
</a>
</g>
</g>
<!-- Node60&#45;&gt;Node61 -->
<g id="edge1" class="edge">
<title>Node60&#45;&gt;Node61</title>
<path fill="none" stroke="#191970" d="M31.6513,-106.9168C20.4528,-99.2694 8.7677,-88.8551 2.6229,-76 -8.4118,-52.9151 19.9637,-31.5462 40.5246,-19.6883"/>
<polygon fill="#191970" stroke="#191970" points="30.089,-110.0696 40.4129,-112.4505 33.827,-104.1512 30.089,-110.0696"/>
</g>
<!-- Node62 -->
<g id="node3" class="node">
<title>Node62</title>
<g id="a_node3"><a xlink:href="vof__advection_8_h.html" target="_top" xlink:title="vof_advection.H">
<polygon fill="#ffffff" stroke="#000000" points="11.6229,-56.5 11.6229,-75.5 107.6229,-75.5 107.6229,-56.5 11.6229,-56.5"/>
<text text-anchor="middle" x="59.6229" y="-63.5" font-family="Helvetica,sans-Serif" font-size="10.00" fill="#000000">vof_advection.H</text>
</a>
</g>
</g>
<!-- Node60&#45;&gt;Node62 -->
<g id="edge2" class="edge">
<title>Node60&#45;&gt;Node62</title>
<path fill="none" stroke="#191970" d="M59.6229,-102.1575C59.6229,-93.155 59.6229,-82.9199 59.6229,-75.6427"/>
<polygon fill="#191970" stroke="#191970" points="56.123,-102.2455 59.6229,-112.2455 63.123,-102.2456 56.123,-102.2455"/>
</g>
<!-- Node63 -->
<g id="node4" class="node">
<title>Node63</title>
<g id="a_node4"><a xlink:href="vof__ops_8_h.html" target="_top" xlink:title="vof_ops.H">
<polygon fill="#ffffff" stroke="#000000" points="126.1229,-56.5 126.1229,-75.5 191.1229,-75.5 191.1229,-56.5 126.1229,-56.5"/>
<text text-anchor="middle" x="158.6229" y="-63.5" font-family="Helvetica,sans-Serif" font-size="10.00" fill="#000000">vof_ops.H</text>
</a>
</g>
</g>
<!-- Node60&#45;&gt;Node63 -->
<g id="edge4" class="edge">
<title>Node60&#45;&gt;Node63</title>
<path fill="none" stroke="#191970" d="M86.0586,-107.0465C103.6737,-97.0824 126.3076,-84.2794 141.576,-75.6427"/>
<polygon fill="#191970" stroke="#191970" points="83.8481,-104.2756 76.8674,-112.2455 87.2946,-110.3684 83.8481,-104.2756"/>
</g>
<!-- Node62&#45;&gt;Node61 -->
<g id="edge3" class="edge">
<title>Node62&#45;&gt;Node61</title>
<path fill="none" stroke="#191970" d="M59.6229,-46.1575C59.6229,-37.155 59.6229,-26.9199 59.6229,-19.6427"/>
<polygon fill="#191970" stroke="#191970" points="56.123,-46.2455 59.6229,-56.2455 63.123,-46.2456 56.123,-46.2455"/>
</g>
<!-- Node63&#45;&gt;Node61 -->
<g id="edge5" class="edge">
<title>Node63&#45;&gt;Node61</title>
<path fill="none" stroke="#191970" d="M132.1872,-51.0465C114.5721,-41.0824 91.9382,-28.2794 76.6698,-19.6427"/>
<polygon fill="#191970" stroke="#191970" points="130.9512,-54.3684 141.3784,-56.2455 134.3976,-48.2756 130.9512,-54.3684"/>
</g>
</g>
</svg>
