<?xml version="1.0" encoding="UTF-8" standalone="no"?>
<!DOCTYPE svg PUBLIC "-//W3C//DTD SVG 1.1//EN"
 "http://www.w3.org/Graphics/SVG/1.1/DTD/svg11.dtd">
<!-- Generated by graphviz version 2.40.1 (20161225.0304)
 -->
<!-- Title: vof_advection.H Pages: 1 -->
<svg width="2889pt" height="553pt"
 viewBox="0.00 0.00 2889.08 553.00" xmlns="http://www.w3.org/2000/svg" xmlns:xlink="http://www.w3.org/1999/xlink">
<g id="graph0" class="graph" transform="scale(1 1) rotate(0) translate(4 549)">
<title>vof_advection.H</title>
<polygon fill="#ffffff" stroke="transparent" points="-4,4 -4,-549 2885.0807,-549 2885.0807,4 -4,4"/>
<!-- Node0 -->
<g id="node1" class="node">
<title>Node0</title>
<polygon fill="#bfbfbf" stroke="#000000" points="1617.8914,-525.5 1617.8914,-544.5 1713.8914,-544.5 1713.8914,-525.5 1617.8914,-525.5"/>
<text text-anchor="middle" x="1665.8914" y="-532.5" font-family="Helvetica,sans-Serif" font-size="10.00" fill="#000000">vof_advection.H</text>
</g>
<!-- Node1 -->
<g id="node2" class="node">
<title>Node1</title>
<g id="a_node2"><a xlink:href="vof_8_h.html" target="_top" xlink:title="amr&#45;wind/equation_systems\l/vof/vof.H">
<polygon fill="#ffffff" stroke="#000000" points="1535.3914,-458.5 1535.3914,-488.5 1690.3914,-488.5 1690.3914,-458.5 1535.3914,-458.5"/>
<text text-anchor="start" x="1543.3914" y="-476.5" font-family="Helvetica,sans-Serif" font-size="10.00" fill="#000000">amr&#45;wind/equation_systems</text>
<text text-anchor="middle" x="1612.8914" y="-465.5" font-family="Helvetica,sans-Serif" font-size="10.00" fill="#000000">/vof/vof.H</text>
</a>
</g>
</g>
<!-- Node0&#45;&gt;Node1 -->
<g id="edge1" class="edge">
<title>Node0&#45;&gt;Node1</title>
<path fill="none" stroke="#191970" d="M1657.6101,-525.3906C1650.9021,-517.6068 1641.1755,-506.3202 1632.5054,-496.2597"/>
<polygon fill="#191970" stroke="#191970" points="1635.0362,-493.8349 1625.8566,-488.5446 1629.7335,-498.4046 1635.0362,-493.8349"/>
</g>
<!-- Node61 -->
<g id="node50" class="node">
<title>Node61</title>
<g id="a_node50"><a xlink:href="_split_advection_8_h.html" target="_top" xlink:title="amr&#45;wind/equation_systems\l/vof/SplitAdvection.H">
<polygon fill="#ffffff" stroke="#000000" points="2398.3914,-391.5 2398.3914,-421.5 2553.3914,-421.5 2553.3914,-391.5 2398.3914,-391.5"/>
<text text-anchor="start" x="2406.3914" y="-409.5" font-family="Helvetica,sans-Serif" font-size="10.00" fill="#000000">amr&#45;wind/equation_systems</text>
<text text-anchor="middle" x="2475.8914" y="-398.5" font-family="Helvetica,sans-Serif" font-size="10.00" fill="#000000">/vof/SplitAdvection.H</text>
</a>
</g>
</g>
<!-- Node0&#45;&gt;Node61 -->
<g id="edge119" class="edge">
<title>Node0&#45;&gt;Node61</title>
<path fill="none" stroke="#191970" d="M1714.2431,-527.575C1829.9683,-509.7637 2131.9993,-463.0395 2383.8914,-422 2385.1953,-421.7876 2386.5095,-421.5729 2387.832,-421.3564"/>
<polygon fill="#191970" stroke="#191970" points="2388.8024,-424.7439 2398.1014,-419.6667 2387.6658,-417.8368 2388.8024,-424.7439"/>
</g>
<!-- Node2 -->
<g id="node3" class="node">
<title>Node2</title>
<g id="a_node3"><a xlink:href="_p_d_e_traits_8_h.html" target="_top" xlink:title="amr&#45;wind/equation_systems\l/PDETraits.H">
<polygon fill="#ffffff" stroke="#000000" points="2148.3914,-257.5 2148.3914,-287.5 2303.3914,-287.5 2303.3914,-257.5 2148.3914,-257.5"/>
<text text-anchor="start" x="2156.3914" y="-275.5" font-family="Helvetica,sans-Serif" font-size="10.00" fill="#000000">amr&#45;wind/equation_systems</text>
<text text-anchor="middle" x="2225.8914" y="-264.5" font-family="Helvetica,sans-Serif" font-size="10.00" fill="#000000">/PDETraits.H</text>
</a>
</g>
</g>
<!-- Node1&#45;&gt;Node2 -->
<g id="edge2" class="edge">
<title>Node1&#45;&gt;Node2</title>
<path fill="none" stroke="#191970" d="M1658.966,-458.3923C1769.7332,-422.0723 2050.6277,-329.9682 2170.4059,-290.6935"/>
<polygon fill="#191970" stroke="#191970" points="2171.7066,-293.9504 2180.1183,-287.5088 2169.5255,-287.2988 2171.7066,-293.9504"/>
</g>
<!-- Node3 -->
<g id="node4" class="node">
<title>Node3</title>
<g id="a_node4"><a xlink:href="_scheme_traits_8_h.html" target="_top" xlink:title="amr&#45;wind/equation_systems\l/SchemeTraits.H">
<polygon fill="#ffffff" stroke="#000000" points="844.3914,-257.5 844.3914,-287.5 999.3914,-287.5 999.3914,-257.5 844.3914,-257.5"/>
<text text-anchor="start" x="852.3914" y="-275.5" font-family="Helvetica,sans-Serif" font-size="10.00" fill="#000000">amr&#45;wind/equation_systems</text>
<text text-anchor="middle" x="921.8914" y="-264.5" font-family="Helvetica,sans-Serif" font-size="10.00" fill="#000000">/SchemeTraits.H</text>
</a>
</g>
</g>
<!-- Node1&#45;&gt;Node3 -->
<g id="edge3" class="edge">
<title>Node1&#45;&gt;Node3</title>
<path fill="none" stroke="#191970" d="M1535.2622,-471.6283C1392.2938,-467.4247 1093.0178,-454.8894 994.8914,-422 942.0476,-404.2881 915.7853,-403.8149 888.8914,-355 878.3687,-335.9004 889.5289,-312.7389 901.6346,-295.8249"/>
<polygon fill="#191970" stroke="#191970" points="904.6314,-297.6687 907.9414,-287.6041 899.0775,-293.4079 904.6314,-297.6687"/>
</g>
<!-- Node5 -->
<g id="node6" class="node">
<title>Node5</title>
<g id="a_node6"><a xlink:href="_p_d_e_helpers_8_h.html" target="_top" xlink:title="amr&#45;wind/equation_systems\l/PDEHelpers.H">
<polygon fill="#ffffff" stroke="#000000" points="1334.3914,-190.5 1334.3914,-220.5 1489.3914,-220.5 1489.3914,-190.5 1334.3914,-190.5"/>
<text text-anchor="start" x="1342.3914" y="-208.5" font-family="Helvetica,sans-Serif" font-size="10.00" fill="#000000">amr&#45;wind/equation_systems</text>
<text text-anchor="middle" x="1411.8914" y="-197.5" font-family="Helvetica,sans-Serif" font-size="10.00" fill="#000000">/PDEHelpers.H</text>
</a>
</g>
</g>
<!-- Node1&#45;&gt;Node5 -->
<g id="edge5" class="edge">
<title>Node1&#45;&gt;Node5</title>
<path fill="none" stroke="#191970" d="M1605.9056,-458.3393C1588.3035,-421.1806 1539.2035,-323.7406 1478.8914,-257 1468.6805,-245.7008 1455.7343,-235.0974 1443.9499,-226.4832"/>
<polygon fill="#191970" stroke="#191970" points="1445.8112,-223.5124 1435.63,-220.5809 1441.7609,-229.2217 1445.8112,-223.5124"/>
</g>
<!-- Node36 -->
<g id="node32" class="node">
<title>Node36</title>
<g id="a_node32"><a xlink:href="_p_d_e_8_h.html" target="_top" xlink:title="amr&#45;wind/equation_systems\l/PDE.H">
<polygon fill="#ffffff" stroke="#000000" points="1003.3914,-391.5 1003.3914,-421.5 1158.3914,-421.5 1158.3914,-391.5 1003.3914,-391.5"/>
<text text-anchor="start" x="1011.3914" y="-409.5" font-family="Helvetica,sans-Serif" font-size="10.00" fill="#000000">amr&#45;wind/equation_systems</text>
<text text-anchor="middle" x="1080.8914" y="-398.5" font-family="Helvetica,sans-Serif" font-size="10.00" fill="#000000">/PDE.H</text>
</a>
</g>
</g>
<!-- Node1&#45;&gt;Node36 -->
<g id="edge57" class="edge">
<title>Node1&#45;&gt;Node36</title>
<path fill="none" stroke="#191970" d="M1535.2493,-463.7218C1437.7031,-451.4368 1270.749,-430.4106 1168.6622,-417.5538"/>
<polygon fill="#191970" stroke="#191970" points="1169.0435,-414.0743 1158.6845,-416.2973 1168.1688,-421.0194 1169.0435,-414.0743"/>
</g>
<!-- Node60 -->
<g id="node49" class="node">
<title>Node60</title>
<g id="a_node49"><a xlink:href="_source_term_8_h.html" target="_top" xlink:title="amr&#45;wind/equation_systems\l/SourceTerm.H">
<polygon fill="#ffffff" stroke="#000000" points="2511.3914,-190.5 2511.3914,-220.5 2666.3914,-220.5 2666.3914,-190.5 2511.3914,-190.5"/>
<text text-anchor="start" x="2519.3914" y="-208.5" font-family="Helvetica,sans-Serif" font-size="10.00" fill="#000000">amr&#45;wind/equation_systems</text>
<text text-anchor="middle" x="2588.8914" y="-197.5" font-family="Helvetica,sans-Serif" font-size="10.00" fill="#000000">/SourceTerm.H</text>
</a>
</g>
</g>
<!-- Node1&#45;&gt;Node60 -->
<g id="edge113" class="edge">
<title>Node1&#45;&gt;Node60</title>
<path fill="none" stroke="#191970" d="M1679.8453,-458.3975C1723.0572,-448.4742 1780.4205,-434.9719 1830.8914,-422 2092.8765,-354.6651 2402.1515,-262.2527 2529.5317,-223.6223"/>
<polygon fill="#191970" stroke="#191970" points="2530.9236,-226.8575 2539.4758,-220.6037 2528.8903,-220.1593 2530.9236,-226.8575"/>
</g>
<!-- Node4 -->
<g id="node5" class="node">
<title>Node4</title>
<polygon fill="#ffffff" stroke="#bfbfbf" points="807.8914,-.5 807.8914,-19.5 851.8914,-19.5 851.8914,-.5 807.8914,-.5"/>
<text text-anchor="middle" x="829.8914" y="-7.5" font-family="Helvetica,sans-Serif" font-size="10.00" fill="#000000">string</text>
</g>
<!-- Node3&#45;&gt;Node4 -->
<g id="edge4" class="edge">
<title>Node3&#45;&gt;Node4</title>
<path fill="none" stroke="#191970" d="M899.6373,-257.1618C872.6931,-237.0839 828.7116,-199.0912 810.8914,-154 794.2083,-111.7861 810.38,-57.7423 821.4517,-29.3755"/>
<polygon fill="#191970" stroke="#191970" points="824.8066,-30.4192 825.3662,-19.8391 818.331,-27.761 824.8066,-30.4192"/>
</g>
<!-- Node5&#45;&gt;Node4 -->
<g id="edge6" class="edge">
<title>Node5&#45;&gt;Node4</title>
<path fill="none" stroke="#191970" d="M1334.2005,-193.7485C1287.2539,-185.3936 1226.6783,-172.3695 1174.8914,-154 1083.8503,-121.7065 1070.5372,-91.986 980.8914,-56 940.7911,-39.9028 892.8048,-26.1843 861.8593,-18.0209"/>
<polygon fill="#191970" stroke="#191970" points="862.6131,-14.6006 852.054,-15.47 860.8506,-21.3751 862.6131,-14.6006"/>
</g>
<!-- Node6 -->
<g id="node7" class="node">
<title>Node6</title>
<g id="a_node7"><a xlink:href="_p_d_e_fields_8_h.html" target="_top" xlink:title="amr&#45;wind/equation_systems\l/PDEFields.H">
<polygon fill="#ffffff" stroke="#000000" points="30.3914,-56.5 30.3914,-86.5 185.3914,-86.5 185.3914,-56.5 30.3914,-56.5"/>
<text text-anchor="start" x="38.3914" y="-74.5" font-family="Helvetica,sans-Serif" font-size="10.00" fill="#000000">amr&#45;wind/equation_systems</text>
<text text-anchor="middle" x="107.8914" y="-63.5" font-family="Helvetica,sans-Serif" font-size="10.00" fill="#000000">/PDEFields.H</text>
</a>
</g>
</g>
<!-- Node5&#45;&gt;Node6 -->
<g id="edge7" class="edge">
<title>Node5&#45;&gt;Node6</title>
<path fill="none" stroke="#191970" d="M1334.0457,-195.4765C1315.6583,-193.3916 1296.1042,-191.4042 1277.8914,-190 1071.9033,-174.1187 551.9929,-191.8562 348.8914,-154 277.5102,-140.6952 198.5573,-110.5209 151.1073,-90.5888"/>
<polygon fill="#191970" stroke="#191970" points="152.3345,-87.3075 141.7617,-86.6239 149.6005,-93.7516 152.3345,-87.3075"/>
</g>
<!-- Node8 -->
<g id="node9" class="node">
<title>Node8</title>
<g id="a_node9"><a xlink:href="_sim_time_8_h.html" target="_top" xlink:title="amr&#45;wind/core/SimTime.H">
<polygon fill="#ffffff" stroke="#000000" points="1340.3914,-62 1340.3914,-81 1483.3914,-81 1483.3914,-62 1340.3914,-62"/>
<text text-anchor="middle" x="1411.8914" y="-69" font-family="Helvetica,sans-Serif" font-size="10.00" fill="#000000">amr&#45;wind/core/SimTime.H</text>
</a>
</g>
</g>
<!-- Node5&#45;&gt;Node8 -->
<g id="edge9" class="edge">
<title>Node5&#45;&gt;Node8</title>
<path fill="none" stroke="#191970" d="M1411.8914,-190.389C1411.8914,-166.0735 1411.8914,-118.2644 1411.8914,-91.2698"/>
<polygon fill="#191970" stroke="#191970" points="1415.3915,-91.1041 1411.8914,-81.1042 1408.3915,-91.1042 1415.3915,-91.1041"/>
</g>
<!-- Node12 -->
<g id="node13" class="node">
<title>Node12</title>
<g id="a_node13"><a xlink:href="_field_repo_8_h.html" target="_top" xlink:title="amr&#45;wind/core/FieldRepo.H">
<polygon fill="#ffffff" stroke="#000000" points="2033.8914,-129 2033.8914,-148 2179.8914,-148 2179.8914,-129 2033.8914,-129"/>
<text text-anchor="middle" x="2106.8914" y="-136" font-family="Helvetica,sans-Serif" font-size="10.00" fill="#000000">amr&#45;wind/core/FieldRepo.H</text>
</a>
</g>
</g>
<!-- Node5&#45;&gt;Node12 -->
<g id="edge13" class="edge">
<title>Node5&#45;&gt;Node12</title>
<path fill="none" stroke="#191970" d="M1489.5937,-198.0093C1621.468,-185.2962 1887.9519,-159.6064 2023.5545,-146.5339"/>
<polygon fill="#191970" stroke="#191970" points="2024.2635,-149.9819 2033.8815,-145.5384 2023.5917,-143.0142 2024.2635,-149.9819"/>
</g>
<!-- Node31 -->
<g id="node27" class="node">
<title>Node31</title>
<g id="a_node27"><a xlink:href="_field_fill_patch_ops_8_h.html" target="_top" xlink:title="amr&#45;wind/core/FieldFillPatch\lOps.H">
<polygon fill="#ffffff" stroke="#000000" points="1691.8914,-123.5 1691.8914,-153.5 1843.8914,-153.5 1843.8914,-123.5 1691.8914,-123.5"/>
<text text-anchor="start" x="1699.8914" y="-141.5" font-family="Helvetica,sans-Serif" font-size="10.00" fill="#000000">amr&#45;wind/core/FieldFillPatch</text>
<text text-anchor="middle" x="1767.8914" y="-130.5" font-family="Helvetica,sans-Serif" font-size="10.00" fill="#000000">Ops.H</text>
</a>
</g>
</g>
<!-- Node5&#45;&gt;Node31 -->
<g id="edge40" class="edge">
<title>Node5&#45;&gt;Node31</title>
<path fill="none" stroke="#191970" d="M1489.5772,-190.8794C1546.2433,-180.2147 1623.0483,-165.7598 1681.6199,-154.7365"/>
<polygon fill="#191970" stroke="#191970" points="1682.4146,-158.1485 1691.5947,-152.8592 1681.1199,-151.2692 1682.4146,-158.1485"/>
</g>
<!-- Node33 -->
<g id="node29" class="node">
<title>Node33</title>
<g id="a_node29"><a xlink:href="_field_b_c_ops_8_h.html" target="_top" xlink:title="amr&#45;wind/core/FieldBCOps.H">
<polygon fill="#ffffff" stroke="#000000" points="1183.3914,-129 1183.3914,-148 1338.3914,-148 1338.3914,-129 1183.3914,-129"/>
<text text-anchor="middle" x="1260.8914" y="-136" font-family="Helvetica,sans-Serif" font-size="10.00" fill="#000000">amr&#45;wind/core/FieldBCOps.H</text>
</a>
</g>
</g>
<!-- Node5&#45;&gt;Node33 -->
<g id="edge50" class="edge">
<title>Node5&#45;&gt;Node33</title>
<path fill="none" stroke="#191970" d="M1378.004,-190.4639C1352.2117,-179.0196 1316.9968,-163.3945 1291.9343,-152.274"/>
<polygon fill="#191970" stroke="#191970" points="1293.0962,-148.9605 1282.536,-148.1039 1290.2571,-155.359 1293.0962,-148.9605"/>
</g>
<!-- Node7 -->
<g id="node8" class="node">
<title>Node7</title>
<polygon fill="#ffffff" stroke="#bfbfbf" points="80.3914,-.5 80.3914,-19.5 129.3914,-19.5 129.3914,-.5 80.3914,-.5"/>
<text text-anchor="middle" x="104.8914" y="-7.5" font-family="Helvetica,sans-Serif" font-size="10.00" fill="#000000">iosfwd</text>
</g>
<!-- Node6&#45;&gt;Node7 -->
<g id="edge8" class="edge">
<title>Node6&#45;&gt;Node7</title>
<path fill="none" stroke="#191970" d="M107.1498,-56.2977C106.7637,-48.3834 106.2867,-38.6043 105.8707,-30.0759"/>
<polygon fill="#191970" stroke="#191970" points="109.3549,-29.6645 105.3717,-19.8469 102.3632,-30.0056 109.3549,-29.6645"/>
</g>
<!-- Node9 -->
<g id="node10" class="node">
<title>Node9</title>
<polygon fill="#ffffff" stroke="#bfbfbf" points="1618.3914,-.5 1618.3914,-19.5 1709.3914,-19.5 1709.3914,-.5 1618.3914,-.5"/>
<text text-anchor="middle" x="1663.8914" y="-7.5" font-family="Helvetica,sans-Serif" font-size="10.00" fill="#000000">AMReX_REAL.H</text>
</g>
<!-- Node8&#45;&gt;Node9 -->
<g id="edge10" class="edge">
<title>Node8&#45;&gt;Node9</title>
<path fill="none" stroke="#191970" d="M1450.9899,-61.9581C1495.1304,-51.1857 1567.0134,-33.6428 1614.8719,-21.9631"/>
<polygon fill="#191970" stroke="#191970" points="1615.8161,-25.3355 1624.7012,-19.5643 1614.1564,-18.535 1615.8161,-25.3355"/>
</g>
<!-- Node10 -->
<g id="node11" class="node">
<title>Node10</title>
<polygon fill="#ffffff" stroke="#bfbfbf" points="1460.8914,-.5 1460.8914,-19.5 1592.8914,-19.5 1592.8914,-.5 1460.8914,-.5"/>
<text text-anchor="middle" x="1526.8914" y="-7.5" font-family="Helvetica,sans-Serif" font-size="10.00" fill="#000000">AMReX_GpuQualifiers.H</text>
</g>
<!-- Node8&#45;&gt;Node10 -->
<g id="edge11" class="edge">
<title>Node8&#45;&gt;Node10</title>
<path fill="none" stroke="#191970" d="M1429.8601,-61.8906C1448.6798,-51.8262 1478.4499,-35.9057 1500.0554,-24.3514"/>
<polygon fill="#191970" stroke="#191970" points="1501.8811,-27.3442 1509.0488,-19.5419 1498.58,-21.1714 1501.8811,-27.3442"/>
</g>
<!-- Node11 -->
<g id="node12" class="node">
<title>Node11</title>
<polygon fill="#ffffff" stroke="#bfbfbf" points="1328.8914,-.5 1328.8914,-19.5 1442.8914,-19.5 1442.8914,-.5 1328.8914,-.5"/>
<text text-anchor="middle" x="1385.8914" y="-7.5" font-family="Helvetica,sans-Serif" font-size="10.00" fill="#000000">AMReX_Extension.H</text>
</g>
<!-- Node8&#45;&gt;Node11 -->
<g id="edge12" class="edge">
<title>Node8&#45;&gt;Node11</title>
<path fill="none" stroke="#191970" d="M1407.8289,-61.8906C1404.149,-53.1862 1398.6172,-40.1015 1394.0294,-29.2494"/>
<polygon fill="#191970" stroke="#191970" points="1397.1289,-27.5927 1390.0112,-19.7449 1390.6814,-30.3185 1397.1289,-27.5927"/>
</g>
<!-- Node12&#45;&gt;Node4 -->
<g id="edge14" class="edge">
<title>Node12&#45;&gt;Node4</title>
<path fill="none" stroke="#191970" d="M2109.6118,-128.9071C2113.8837,-111.5395 2119.7723,-74.9349 2099.8914,-56 2059.5558,-17.5837 1153.5567,-22.0385 1097.8914,-20 1012.9288,-16.8886 912.8189,-13.1281 862.3977,-11.2274"/>
<polygon fill="#191970" stroke="#191970" points="862.2517,-7.7195 852.1269,-10.8401 861.9878,-14.7146 862.2517,-7.7195"/>
</g>
<!-- Node13 -->
<g id="node14" class="node">
<title>Node13</title>
<polygon fill="#ffffff" stroke="#bfbfbf" points="568.3914,-.5 568.3914,-19.5 661.3914,-19.5 661.3914,-.5 568.3914,-.5"/>
<text text-anchor="middle" x="614.8914" y="-7.5" font-family="Helvetica,sans-Serif" font-size="10.00" fill="#000000">unordered_map</text>
</g>
<!-- Node12&#45;&gt;Node13 -->
<g id="edge15" class="edge">
<title>Node12&#45;&gt;Node13</title>
<path fill="none" stroke="#191970" d="M2105.4538,-128.7203C2102.2245,-110.702 2092.5575,-72.5914 2066.8914,-56 2007.7076,-17.7417 869.304,-22.9124 798.8914,-20 756.4164,-18.2431 708.4602,-15.6158 672.1575,-13.495"/>
<polygon fill="#191970" stroke="#191970" points="671.9525,-9.977 661.764,-12.8831 671.541,-16.9649 671.9525,-9.977"/>
</g>
<!-- Node14 -->
<g id="node15" class="node">
<title>Node14</title>
<g id="a_node15"><a xlink:href="_field_desc_types_8_h.html" target="_top" xlink:title="amr&#45;wind/core/FieldDescTypes.H">
<polygon fill="#ffffff" stroke="#000000" points="2053.8914,-.5 2053.8914,-19.5 2227.8914,-19.5 2227.8914,-.5 2053.8914,-.5"/>
<text text-anchor="middle" x="2140.8914" y="-7.5" font-family="Helvetica,sans-Serif" font-size="10.00" fill="#000000">amr&#45;wind/core/FieldDescTypes.H</text>
</a>
</g>
</g>
<!-- Node12&#45;&gt;Node14 -->
<g id="edge16" class="edge">
<title>Node12&#45;&gt;Node14</title>
<path fill="none" stroke="#191970" d="M2157.8874,-128.9923C2169.6916,-126.9089 2182.2148,-124.7924 2193.8914,-123 2255.6816,-113.5148 2431.6125,-133.9474 2472.8914,-87 2481.989,-76.653 2481.9405,-66.3894 2472.8914,-56 2457.5347,-38.3689 2330.5956,-24.7446 2238.2372,-17.0456"/>
<polygon fill="#191970" stroke="#191970" points="2238.2569,-13.5355 2228.0039,-16.2048 2237.6837,-20.512 2238.2569,-13.5355"/>
</g>
<!-- Node15 -->
<g id="node16" class="node">
<title>Node15</title>
<g id="a_node16"><a xlink:href="_field_utils_8_h.html" target="_top" xlink:title="amr&#45;wind/core/FieldUtils.H">
<polygon fill="#ffffff" stroke="#ff0000" points="2634.3914,-62 2634.3914,-81 2779.3914,-81 2779.3914,-62 2634.3914,-62"/>
<text text-anchor="middle" x="2706.8914" y="-69" font-family="Helvetica,sans-Serif" font-size="10.00" fill="#000000">amr&#45;wind/core/FieldUtils.H</text>
</a>
</g>
</g>
<!-- Node12&#45;&gt;Node15 -->
<g id="edge17" class="edge">
<title>Node12&#45;&gt;Node15</title>
<path fill="none" stroke="#191970" d="M2155.9998,-128.937C2168.3355,-126.7594 2181.5697,-124.6148 2193.8914,-123 2382.2886,-98.3103 2431.4941,-111.6897 2619.8914,-87 2628.9401,-85.8142 2638.481,-84.3425 2647.7967,-82.7819"/>
<polygon fill="#191970" stroke="#191970" points="2648.5216,-86.2087 2657.7829,-81.063 2647.3341,-79.3102 2648.5216,-86.2087"/>
</g>
<!-- Node16 -->
<g id="node17" class="node">
<title>Node16</title>
<polygon fill="#ffffff" stroke="#bfbfbf" points="2476.3914,-.5 2476.3914,-19.5 2583.3914,-19.5 2583.3914,-.5 2476.3914,-.5"/>
<text text-anchor="middle" x="2529.8914" y="-7.5" font-family="Helvetica,sans-Serif" font-size="10.00" fill="#000000">AMReX_MultiFab.H</text>
</g>
<!-- Node12&#45;&gt;Node16 -->
<g id="edge38" class="edge">
<title>Node12&#45;&gt;Node16</title>
<path fill="none" stroke="#191970" d="M2157.8779,-128.9298C2169.6826,-126.8493 2182.2083,-124.7498 2193.8914,-123 2259.4229,-113.1851 2435.4415,-124.7615 2489.8914,-87 2509.3574,-73.5001 2520.0018,-47.531 2525.3171,-29.5055"/>
<polygon fill="#191970" stroke="#191970" points="2528.7297,-30.2912 2527.9135,-19.7279 2521.9642,-28.4946 2528.7297,-30.2912"/>
</g>
<!-- Node18 -->
<g id="node18" class="node">
<title>Node18</title>
<g id="a_node18"><a xlink:href="_field_8_h.html" target="_top" xlink:title="amr&#45;wind/core/Field.H">
<polygon fill="#ffffff" stroke="#ff0000" points="1199.8914,-62 1199.8914,-81 1321.8914,-81 1321.8914,-62 1199.8914,-62"/>
<text text-anchor="middle" x="1260.8914" y="-69" font-family="Helvetica,sans-Serif" font-size="10.00" fill="#000000">amr&#45;wind/core/Field.H</text>
</a>
</g>
</g>
<!-- Node12&#45;&gt;Node18 -->
<g id="edge20" class="edge">
<title>Node12&#45;&gt;Node18</title>
<path fill="none" stroke="#191970" d="M2033.6825,-133.9307C1847.1505,-122.2488 1366.2712,-91.8675 1331.8914,-87 1324.6772,-85.9786 1317.1047,-84.6293 1309.7027,-83.1519"/>
<polygon fill="#191970" stroke="#191970" points="1310.2687,-79.6947 1299.7644,-81.0767 1308.8379,-86.5469 1310.2687,-79.6947"/>
</g>
<!-- Node26 -->
<g id="node22" class="node">
<title>Node26</title>
<g id="a_node22"><a xlink:href="_int_field_8_h.html" target="_top" xlink:title="amr&#45;wind/core/IntField.H">
<polygon fill="#ffffff" stroke="#000000" points="2328.3914,-62 2328.3914,-81 2463.3914,-81 2463.3914,-62 2328.3914,-62"/>
<text text-anchor="middle" x="2395.8914" y="-69" font-family="Helvetica,sans-Serif" font-size="10.00" fill="#000000">amr&#45;wind/core/IntField.H</text>
</a>
</g>
</g>
<!-- Node12&#45;&gt;Node26 -->
<g id="edge28" class="edge">
<title>Node12&#45;&gt;Node26</title>
<path fill="none" stroke="#191970" d="M2147.9911,-128.9717C2199.6311,-116.9998 2288.2694,-96.4504 2344.3827,-83.4415"/>
<polygon fill="#191970" stroke="#191970" points="2345.5144,-86.772 2354.4655,-81.1039 2343.9334,-79.9529 2345.5144,-86.772"/>
</g>
<!-- Node27 -->
<g id="node23" class="node">
<title>Node27</title>
<polygon fill="#ffffff" stroke="#bfbfbf" points="2676.8914,-.5 2676.8914,-19.5 2786.8914,-19.5 2786.8914,-.5 2676.8914,-.5"/>
<text text-anchor="middle" x="2731.8914" y="-7.5" font-family="Helvetica,sans-Serif" font-size="10.00" fill="#000000">AMReX_iMultiFab.H</text>
</g>
<!-- Node12&#45;&gt;Node27 -->
<g id="edge39" class="edge">
<title>Node12&#45;&gt;Node27</title>
<path fill="none" stroke="#191970" d="M2180.1662,-135.6195C2352.0803,-128.5071 2768.4165,-109.0793 2788.8914,-87 2807.3433,-67.1022 2779.1226,-41.2908 2756.2259,-25.1859"/>
<polygon fill="#191970" stroke="#191970" points="2758.0685,-22.207 2747.8197,-19.5213 2754.1567,-28.012 2758.0685,-22.207"/>
</g>
<!-- Node28 -->
<g id="node24" class="node">
<title>Node28</title>
<g id="a_node24"><a xlink:href="_scratch_field_8_h.html" target="_top" xlink:title="amr&#45;wind/core/ScratchField.H">
<polygon fill="#ffffff" stroke="#ff0000" points="2151.8914,-62 2151.8914,-81 2309.8914,-81 2309.8914,-62 2151.8914,-62"/>
<text text-anchor="middle" x="2230.8914" y="-69" font-family="Helvetica,sans-Serif" font-size="10.00" fill="#000000">amr&#45;wind/core/ScratchField.H</text>
</a>
</g>
</g>
<!-- Node12&#45;&gt;Node28 -->
<g id="edge32" class="edge">
<title>Node12&#45;&gt;Node28</title>
<path fill="none" stroke="#191970" d="M2124.6576,-128.9005C2145.4676,-117.6564 2180.1502,-98.9166 2204.2001,-85.9219"/>
<polygon fill="#191970" stroke="#191970" points="2206.0241,-88.9147 2213.1582,-81.0817 2202.6965,-82.7561 2206.0241,-88.9147"/>
</g>
<!-- Node30 -->
<g id="node26" class="node">
<title>Node30</title>
<polygon fill="#ffffff" stroke="#bfbfbf" points="1948.3914,-62 1948.3914,-81 2057.3914,-81 2057.3914,-62 1948.3914,-62"/>
<text text-anchor="middle" x="2002.8914" y="-69" font-family="Helvetica,sans-Serif" font-size="10.00" fill="#000000">AMReX_AmrCore.H</text>
</g>
<!-- Node12&#45;&gt;Node30 -->
<g id="edge37" class="edge">
<title>Node12&#45;&gt;Node30</title>
<path fill="none" stroke="#191970" d="M2091.9907,-128.9005C2074.8461,-117.8554 2046.4746,-99.5776 2026.3569,-86.6172"/>
<polygon fill="#191970" stroke="#191970" points="2028.0665,-83.5552 2017.7644,-81.0817 2024.2754,-89.4397 2028.0665,-83.5552"/>
</g>
<!-- Node15&#45;&gt;Node14 -->
<g id="edge18" class="edge">
<title>Node15&#45;&gt;Node14</title>
<path fill="none" stroke="#191970" d="M2634.212,-62.2455C2617.0622,-60.1289 2598.8381,-57.9343 2581.8914,-56 2463.6942,-42.5086 2327.488,-28.5422 2238.092,-19.5911"/>
<polygon fill="#191970" stroke="#191970" points="2238.2671,-16.0912 2227.9684,-18.5788 2237.5705,-23.0565 2238.2671,-16.0912"/>
</g>
<!-- Node15&#45;&gt;Node16 -->
<g id="edge19" class="edge">
<title>Node15&#45;&gt;Node16</title>
<path fill="none" stroke="#191970" d="M2679.2351,-61.8906C2648.9703,-51.3749 2600.3059,-34.466 2566.8003,-22.8243"/>
<polygon fill="#191970" stroke="#191970" points="2567.9482,-19.5179 2557.3534,-19.5419 2565.6507,-26.1302 2567.9482,-19.5179"/>
</g>
<!-- Node18&#45;&gt;Node4 -->
<g id="edge21" class="edge">
<title>Node18&#45;&gt;Node4</title>
<path fill="none" stroke="#191970" d="M1220.6687,-61.9354C1210.9536,-59.8077 1200.579,-57.6862 1190.8914,-56 1070.2682,-35.0052 925.4013,-19.4366 862.1161,-13.1097"/>
<polygon fill="#191970" stroke="#191970" points="862.2685,-9.6078 851.9723,-12.1052 861.5786,-16.5737 862.2685,-9.6078"/>
</g>
<!-- Node18&#45;&gt;Node13 -->
<g id="edge23" class="edge">
<title>Node18&#45;&gt;Node13</title>
<path fill="none" stroke="#191970" d="M1222.1924,-61.9299C1212.0585,-59.6994 1201.1083,-57.5316 1190.8914,-56 1091.8613,-41.1544 796.9955,-21.4885 671.9573,-13.5486"/>
<polygon fill="#191970" stroke="#191970" points="672.0239,-10.0459 661.8227,-12.9071 671.5816,-17.0319 672.0239,-10.0459"/>
</g>
<!-- Node18&#45;&gt;Node14 -->
<g id="edge27" class="edge">
<title>Node18&#45;&gt;Node14</title>
<path fill="none" stroke="#191970" d="M1299.3846,-61.936C1309.8692,-59.6494 1321.266,-57.4526 1331.8914,-56 1349.3012,-53.6199 1832.5722,-26.9213 2043.7245,-15.3243"/>
<polygon fill="#191970" stroke="#191970" points="2044.0835,-18.81 2053.8766,-14.7669 2043.6997,-11.8205 2044.0835,-18.81"/>
</g>
<!-- Node18&#45;&gt;Node16 -->
<g id="edge24" class="edge">
<title>Node18&#45;&gt;Node16</title>
<path fill="none" stroke="#191970" d="M1298.6287,-61.9665C1309.315,-59.6208 1321.0028,-57.3866 1331.8914,-56 1360.245,-52.3895 2222.4232,-21.0912 2466.2338,-12.2923"/>
<polygon fill="#191970" stroke="#191970" points="2466.4854,-15.7856 2476.3527,-11.9273 2466.2329,-8.7902 2466.4854,-15.7856"/>
</g>
<!-- Node19 -->
<g id="node19" class="node">
<title>Node19</title>
<polygon fill="#ffffff" stroke="#bfbfbf" points="470.8914,-.5 470.8914,-19.5 528.8914,-19.5 528.8914,-.5 470.8914,-.5"/>
<text text-anchor="middle" x="499.8914" y="-7.5" font-family="Helvetica,sans-Serif" font-size="10.00" fill="#000000">memory</text>
</g>
<!-- Node18&#45;&gt;Node19 -->
<g id="edge22" class="edge">
<title>Node18&#45;&gt;Node19</title>
<path fill="none" stroke="#191970" d="M1222.9466,-61.9315C1212.6096,-59.6448 1201.3717,-57.4492 1190.8914,-56 912.199,-17.463 838.4603,-51.5561 558.8914,-20 552.4553,-19.2735 545.6548,-18.3078 539.0492,-17.2625"/>
<polygon fill="#191970" stroke="#191970" points="539.3482,-13.7643 528.9097,-15.5772 538.2005,-20.6695 539.3482,-13.7643"/>
</g>
<!-- Node22 -->
<g id="node20" class="node">
<title>Node22</title>
<polygon fill="#ffffff" stroke="#bfbfbf" points="1106.8914,-.5 1106.8914,-19.5 1192.8914,-19.5 1192.8914,-.5 1106.8914,-.5"/>
<text text-anchor="middle" x="1149.8914" y="-7.5" font-family="Helvetica,sans-Serif" font-size="10.00" fill="#000000">AMReX_Gpu.H</text>
</g>
<!-- Node18&#45;&gt;Node22 -->
<g id="edge25" class="edge">
<title>Node18&#45;&gt;Node22</title>
<path fill="none" stroke="#191970" d="M1243.5476,-61.8906C1225.464,-51.8713 1196.9055,-36.0483 1176.0749,-24.5071"/>
<polygon fill="#191970" stroke="#191970" points="1177.5568,-21.3268 1167.1133,-19.5419 1174.1642,-27.4498 1177.5568,-21.3268"/>
</g>
<!-- Node23 -->
<g id="node21" class="node">
<title>Node23</title>
<g id="a_node21"><a xlink:href="incflo__enums_8_h.html" target="_top" xlink:title="amr&#45;wind/incflo_enums.H">
<polygon fill="#ffffff" stroke="#000000" points="147.8914,-.5 147.8914,-19.5 287.8914,-19.5 287.8914,-.5 147.8914,-.5"/>
<text text-anchor="middle" x="217.8914" y="-7.5" font-family="Helvetica,sans-Serif" font-size="10.00" fill="#000000">amr&#45;wind/incflo_enums.H</text>
</a>
</g>
</g>
<!-- Node18&#45;&gt;Node23 -->
<g id="edge26" class="edge">
<title>Node18&#45;&gt;Node23</title>
<path fill="none" stroke="#191970" d="M1223.3202,-61.9444C1212.8834,-59.6286 1201.502,-57.415 1190.8914,-56 1146.9875,-50.145 523.1377,-23.0589 298.096,-13.4182"/>
<polygon fill="#191970" stroke="#191970" points="298.1466,-9.9172 288.006,-12.9862 297.8471,-16.9108 298.1466,-9.9172"/>
</g>
<!-- Node26&#45;&gt;Node4 -->
<g id="edge29" class="edge">
<title>Node26&#45;&gt;Node4</title>
<path fill="none" stroke="#191970" d="M2355.335,-62C2343.6375,-59.6241 2330.8133,-57.3657 2318.8914,-56 1779.5165,5.7891 1640.4913,-38.1219 1097.8914,-20 1012.9192,-17.1621 912.8134,-13.2849 862.3953,-11.2949"/>
<polygon fill="#191970" stroke="#191970" points="862.2558,-7.7867 852.1252,-10.8885 861.9789,-14.7812 862.2558,-7.7867"/>
</g>
<!-- Node26&#45;&gt;Node14 -->
<g id="edge30" class="edge">
<title>Node26&#45;&gt;Node14</title>
<path fill="none" stroke="#191970" d="M2356.3274,-61.9581C2311.6614,-51.1857 2238.9227,-33.6428 2190.4944,-21.9631"/>
<polygon fill="#191970" stroke="#191970" points="2191.0901,-18.5065 2180.5482,-19.5643 2189.4488,-25.3113 2191.0901,-18.5065"/>
</g>
<!-- Node26&#45;&gt;Node27 -->
<g id="edge31" class="edge">
<title>Node26&#45;&gt;Node27</title>
<path fill="none" stroke="#191970" d="M2448.0227,-61.9581C2507.9493,-50.9894 2606.2261,-33.0012 2669.9883,-21.3305"/>
<polygon fill="#191970" stroke="#191970" points="2670.7078,-24.757 2679.9142,-19.5137 2669.4474,-17.8714 2670.7078,-24.757"/>
</g>
<!-- Node28&#45;&gt;Node4 -->
<g id="edge33" class="edge">
<title>Node28&#45;&gt;Node4</title>
<path fill="none" stroke="#191970" d="M2180.8561,-61.9293C2166.9896,-59.6134 2151.8982,-57.4036 2137.8914,-56 1677.6971,-9.8846 1560.0916,-36.6227 1097.8914,-20 1012.9267,-16.9443 912.8178,-13.16 862.3972,-11.2412"/>
<polygon fill="#191970" stroke="#191970" points="862.2525,-7.7332 852.1265,-10.8499 861.986,-14.7281 862.2525,-7.7332"/>
</g>
<!-- Node28&#45;&gt;Node14 -->
<g id="edge34" class="edge">
<title>Node28&#45;&gt;Node14</title>
<path fill="none" stroke="#191970" d="M2216.8289,-61.8906C2202.5628,-52.1421 2180.2564,-36.8994 2163.5042,-25.4521"/>
<polygon fill="#191970" stroke="#191970" points="2165.0863,-22.2941 2154.8551,-19.5419 2161.1369,-28.0736 2165.0863,-22.2941"/>
</g>
<!-- Node28&#45;&gt;Node16 -->
<g id="edge35" class="edge">
<title>Node28&#45;&gt;Node16</title>
<path fill="none" stroke="#191970" d="M2277.2821,-61.9581C2330.203,-51.073 2416.7328,-33.2751 2473.5019,-21.5985"/>
<polygon fill="#191970" stroke="#191970" points="2474.3021,-25.0073 2483.3919,-19.5643 2472.8917,-18.1508 2474.3021,-25.0073"/>
</g>
<!-- Node29 -->
<g id="node25" class="node">
<title>Node29</title>
<polygon fill="#ffffff" stroke="#bfbfbf" points="1817.8914,-.5 1817.8914,-19.5 1945.8914,-19.5 1945.8914,-.5 1817.8914,-.5"/>
<text text-anchor="middle" x="1881.8914" y="-7.5" font-family="Helvetica,sans-Serif" font-size="10.00" fill="#000000">AMReX_PhysBCFunct.H</text>
</g>
<!-- Node28&#45;&gt;Node29 -->
<g id="edge36" class="edge">
<title>Node28&#45;&gt;Node29</title>
<path fill="none" stroke="#191970" d="M2176.7431,-61.9581C2114.3699,-50.9668 2011.9984,-32.9272 1945.7812,-21.2585"/>
<polygon fill="#191970" stroke="#191970" points="1946.3353,-17.8023 1935.8796,-19.5137 1945.1204,-24.6961 1946.3353,-17.8023"/>
</g>
<!-- Node31&#45;&gt;Node8 -->
<g id="edge42" class="edge">
<title>Node31&#45;&gt;Node8</title>
<path fill="none" stroke="#191970" d="M1691.5205,-124.1268C1626.0485,-111.8048 1532.9893,-94.2909 1472.5254,-82.9115"/>
<polygon fill="#191970" stroke="#191970" points="1472.8454,-79.4103 1462.3706,-81.0003 1471.5507,-86.2895 1472.8454,-79.4103"/>
</g>
<!-- Node31&#45;&gt;Node9 -->
<g id="edge47" class="edge">
<title>Node31&#45;&gt;Node9</title>
<path fill="none" stroke="#191970" d="M1753.8636,-123.4681C1744.5716,-113.3493 1732.2357,-99.6023 1721.8914,-87 1705.7364,-67.3187 1688.2981,-43.8348 1676.8076,-28.0193"/>
<polygon fill="#191970" stroke="#191970" points="1679.4769,-25.7373 1670.7842,-19.6803 1673.8024,-29.8361 1679.4769,-25.7373"/>
</g>
<!-- Node31&#45;&gt;Node14 -->
<g id="edge43" class="edge">
<title>Node31&#45;&gt;Node14</title>
<path fill="none" stroke="#191970" d="M1804.0644,-123.4102C1827.1413,-113.5462 1857.5554,-100.104 1883.8914,-87 1909.3607,-74.3272 1913.3204,-66.1619 1939.8914,-56 1981.3274,-40.153 2029.7483,-28.8691 2068.6815,-21.4439"/>
<polygon fill="#191970" stroke="#191970" points="2069.6894,-24.8165 2078.8799,-19.5452 2068.4082,-17.9347 2069.6894,-24.8165"/>
</g>
<!-- Node31&#45;&gt;Node15 -->
<g id="edge44" class="edge">
<title>Node31&#45;&gt;Node15</title>
<path fill="none" stroke="#191970" d="M1844.0391,-133.7246C2011.8767,-123.1537 2409.3946,-97.8556 2543.8914,-87 2570.0307,-84.8902 2598.4984,-82.2881 2624.2218,-79.8226"/>
<polygon fill="#191970" stroke="#191970" points="2624.6911,-83.2936 2634.3087,-78.8494 2624.0188,-76.326 2624.6911,-83.2936"/>
</g>
<!-- Node31&#45;&gt;Node16 -->
<g id="edge46" class="edge">
<title>Node31&#45;&gt;Node16</title>
<path fill="none" stroke="#191970" d="M1844.0068,-133.7473C2031.2212,-121.985 2499.4457,-92.0978 2505.8914,-87 2523.0809,-73.405 2528.2226,-47.6513 2529.6229,-29.6881"/>
<polygon fill="#191970" stroke="#191970" points="2533.1195,-29.8396 2530.0855,-19.6885 2526.127,-29.5161 2533.1195,-29.8396"/>
</g>
<!-- Node31&#45;&gt;Node18 -->
<g id="edge41" class="edge">
<title>Node31&#45;&gt;Node18</title>
<path fill="none" stroke="#191970" d="M1691.5666,-131.7555C1604.2762,-123.5164 1457.2368,-108.0336 1331.8914,-87 1325.2034,-85.8777 1318.1939,-84.5434 1311.2928,-83.1356"/>
<polygon fill="#191970" stroke="#191970" points="1311.8156,-79.6691 1301.3094,-81.0365 1310.3752,-86.5193 1311.8156,-79.6691"/>
</g>
<!-- Node31&#45;&gt;Node29 -->
<g id="edge48" class="edge">
<title>Node31&#45;&gt;Node29</title>
<path fill="none" stroke="#191970" d="M1813.0309,-123.2869C1830.957,-115.1331 1850.2717,-103.3284 1862.8914,-87 1875.6161,-70.5357 1879.9386,-46.6764 1881.3445,-29.8907"/>
<polygon fill="#191970" stroke="#191970" points="1884.8573,-29.7571 1881.9194,-19.5778 1877.8682,-29.3674 1884.8573,-29.7571"/>
</g>
<!-- Node31&#45;&gt;Node30 -->
<g id="edge45" class="edge">
<title>Node31&#45;&gt;Node30</title>
<path fill="none" stroke="#191970" d="M1820.63,-123.4639C1862.5822,-111.503 1920.5522,-94.9754 1959.7619,-83.7965"/>
<polygon fill="#191970" stroke="#191970" points="1960.8948,-87.113 1969.5519,-81.0053 1958.9755,-80.3813 1960.8948,-87.113"/>
</g>
<!-- Node32 -->
<g id="node28" class="node">
<title>Node32</title>
<polygon fill="#ffffff" stroke="#bfbfbf" points="1730.3914,-62 1730.3914,-81 1853.3914,-81 1853.3914,-62 1730.3914,-62"/>
<text text-anchor="middle" x="1791.8914" y="-69" font-family="Helvetica,sans-Serif" font-size="10.00" fill="#000000">AMReX_FillPatchUtil.H</text>
</g>
<!-- Node31&#45;&gt;Node32 -->
<g id="edge49" class="edge">
<title>Node31&#45;&gt;Node32</title>
<path fill="none" stroke="#191970" d="M1773.3374,-123.2967C1776.8225,-113.5672 1781.3717,-100.8675 1785.0932,-90.4784"/>
<polygon fill="#191970" stroke="#191970" points="1788.3914,-91.6495 1788.4687,-81.055 1781.8014,-89.2889 1788.3914,-91.6495"/>
</g>
<!-- Node33&#45;&gt;Node14 -->
<g id="edge51" class="edge">
<title>Node33&#45;&gt;Node14</title>
<path fill="none" stroke="#191970" d="M1338.4868,-129.0951C1407.8641,-120.1376 1512.1367,-105.3203 1601.8914,-87 1655.8628,-75.9836 1667.7078,-65.9201 1721.8914,-56 1831.1828,-35.9907 1958.2174,-23.5354 2043.5066,-16.712"/>
<polygon fill="#191970" stroke="#191970" points="2044.0032,-20.1838 2053.6968,-15.9077 2043.4523,-13.2055 2044.0032,-20.1838"/>
</g>
<!-- Node33&#45;&gt;Node18 -->
<g id="edge52" class="edge">
<title>Node33&#45;&gt;Node18</title>
<path fill="none" stroke="#191970" d="M1260.8914,-128.9005C1260.8914,-119.149 1260.8914,-103.7597 1260.8914,-91.3695"/>
<polygon fill="#191970" stroke="#191970" points="1264.3915,-91.0816 1260.8914,-81.0817 1257.3915,-91.0817 1264.3915,-91.0816"/>
</g>
<!-- Node33&#45;&gt;Node22 -->
<g id="edge53" class="edge">
<title>Node33&#45;&gt;Node22</title>
<path fill="none" stroke="#191970" d="M1183.9572,-128.9586C1132.9944,-120.8759 1072.7161,-107.3162 1056.8914,-87 1048.4249,-76.1305 1049.6227,-67.7044 1056.8914,-56 1066.424,-40.6499 1082.7655,-30.2666 1099.1162,-23.3145"/>
<polygon fill="#191970" stroke="#191970" points="1100.6315,-26.481 1108.6928,-19.6061 1098.1037,-19.9534 1100.6315,-26.481"/>
</g>
<!-- Node33&#45;&gt;Node29 -->
<g id="edge56" class="edge">
<title>Node33&#45;&gt;Node29</title>
<path fill="none" stroke="#191970" d="M1306.3481,-128.921C1353.2036,-118.9273 1428.3169,-102.5727 1492.8914,-87 1546.0223,-74.187 1558.4586,-67.4891 1611.8914,-56 1677.7562,-41.8377 1753.4171,-29.2617 1807.8565,-20.854"/>
<polygon fill="#191970" stroke="#191970" points="1808.414,-24.3095 1817.7675,-19.3332 1807.3523,-17.3905 1808.414,-24.3095"/>
</g>
<!-- Node34 -->
<g id="node30" class="node">
<title>Node34</title>
<polygon fill="#ffffff" stroke="#bfbfbf" points="1065.8914,-62 1065.8914,-81 1181.8914,-81 1181.8914,-62 1065.8914,-62"/>
<text text-anchor="middle" x="1123.8914" y="-69" font-family="Helvetica,sans-Serif" font-size="10.00" fill="#000000">AMReX_FArrayBox.H</text>
</g>
<!-- Node33&#45;&gt;Node34 -->
<g id="edge54" class="edge">
<title>Node33&#45;&gt;Node34</title>
<path fill="none" stroke="#191970" d="M1241.2626,-128.9005C1218.0675,-117.5569 1179.2728,-98.5844 1152.6783,-85.5783"/>
<polygon fill="#191970" stroke="#191970" points="1154.0047,-82.3308 1143.4837,-81.0817 1150.9293,-88.6191 1154.0047,-82.3308"/>
</g>
<!-- Node35 -->
<g id="node31" class="node">
<title>Node35</title>
<polygon fill="#ffffff" stroke="#bfbfbf" points="858.3914,-62 858.3914,-81 971.3914,-81 971.3914,-62 858.3914,-62"/>
<text text-anchor="middle" x="914.8914" y="-69" font-family="Helvetica,sans-Serif" font-size="10.00" fill="#000000">AMReX_Geometry.H</text>
</g>
<!-- Node33&#45;&gt;Node35 -->
<g id="edge55" class="edge">
<title>Node33&#45;&gt;Node35</title>
<path fill="none" stroke="#191970" d="M1211.6855,-128.9717C1149.1304,-116.8584 1041.2274,-95.9639 974.1957,-82.9838"/>
<polygon fill="#191970" stroke="#191970" points="974.6904,-79.5146 964.2073,-81.0496 973.3596,-86.387 974.6904,-79.5146"/>
</g>
<!-- Node36&#45;&gt;Node4 -->
<g id="edge58" class="edge">
<title>Node36&#45;&gt;Node4</title>
<path fill="none" stroke="#191970" d="M1005.871,-391.4224C909.3294,-369.8246 753.8914,-326.6436 753.8914,-272.5 753.8914,-272.5 753.8914,-272.5 753.8914,-138.5 753.8914,-93.2888 789.1767,-50.0297 811.6618,-27.0531"/>
<polygon fill="#191970" stroke="#191970" points="814.3478,-29.3196 819.0024,-19.8019 809.4285,-24.3396 814.3478,-29.3196"/>
</g>
<!-- Node37 -->
<g id="node33" class="node">
<title>Node37</title>
<g id="a_node33"><a xlink:href="_c_f_d_sim_8_h.html" target="_top" xlink:title="amr&#45;wind/CFDSim.H">
<polygon fill="#ffffff" stroke="#000000" points="1018.8914,-196 1018.8914,-215 1132.8914,-215 1132.8914,-196 1018.8914,-196"/>
<text text-anchor="middle" x="1075.8914" y="-203" font-family="Helvetica,sans-Serif" font-size="10.00" fill="#000000">amr&#45;wind/CFDSim.H</text>
</a>
</g>
</g>
<!-- Node36&#45;&gt;Node37 -->
<g id="edge59" class="edge">
<title>Node36&#45;&gt;Node37</title>
<path fill="none" stroke="#191970" d="M1080.5156,-391.3923C1079.6248,-355.5844 1077.3853,-265.5545 1076.3861,-225.386"/>
<polygon fill="#191970" stroke="#191970" points="1079.8818,-225.166 1076.1341,-215.2562 1072.8839,-225.3402 1079.8818,-225.166"/>
</g>
<!-- Node38 -->
<g id="node34" class="node">
<title>Node38</title>
<g id="a_node34"><a xlink:href="_p_d_e_base_8_h.html" target="_top" xlink:title="amr&#45;wind/equation_systems\l/PDEBase.H">
<polygon fill="#ffffff" stroke="#000000" points="358.3914,-123.5 358.3914,-153.5 513.3914,-153.5 513.3914,-123.5 358.3914,-123.5"/>
<text text-anchor="start" x="366.3914" y="-141.5" font-family="Helvetica,sans-Serif" font-size="10.00" fill="#000000">amr&#45;wind/equation_systems</text>
<text text-anchor="middle" x="435.8914" y="-130.5" font-family="Helvetica,sans-Serif" font-size="10.00" fill="#000000">/PDEBase.H</text>
</a>
</g>
</g>
<!-- Node36&#45;&gt;Node38 -->
<g id="edge80" class="edge">
<title>Node36&#45;&gt;Node38</title>
<path fill="none" stroke="#191970" d="M1003.0922,-398.9921C917.622,-389.9991 786.3067,-373.7745 739.8914,-355 622.111,-307.3591 506.4072,-205.6825 458.6987,-160.6979"/>
<polygon fill="#191970" stroke="#191970" points="461.0324,-158.0873 451.3744,-153.7313 456.2079,-163.1593 461.0324,-158.0873"/>
</g>
<!-- Node45 -->
<g id="node38" class="node">
<title>Node45</title>
<g id="a_node38"><a xlink:href="_p_d_e_ops_8_h.html" target="_top" xlink:title="amr&#45;wind/equation_systems\l/PDEOps.H">
<polygon fill="#ffffff" stroke="#000000" points="1109.3914,-257.5 1109.3914,-287.5 1264.3914,-287.5 1264.3914,-257.5 1109.3914,-257.5"/>
<text text-anchor="start" x="1117.3914" y="-275.5" font-family="Helvetica,sans-Serif" font-size="10.00" fill="#000000">amr&#45;wind/equation_systems</text>
<text text-anchor="middle" x="1186.8914" y="-264.5" font-family="Helvetica,sans-Serif" font-size="10.00" fill="#000000">/PDEOps.H</text>
</a>
</g>
</g>
<!-- Node36&#45;&gt;Node45 -->
<g id="edge81" class="edge">
<title>Node36&#45;&gt;Node45</title>
<path fill="none" stroke="#191970" d="M1092.8449,-391.389C1111.2944,-368.066 1146.8423,-323.1281 1168.5579,-295.6763"/>
<polygon fill="#191970" stroke="#191970" points="1171.3599,-297.7757 1174.8189,-287.7614 1165.8699,-293.4328 1171.3599,-297.7757"/>
</g>
<!-- Node52 -->
<g id="node42" class="node">
<title>Node52</title>
<g id="a_node42"><a xlink:href="_comp_r_h_s_ops_8_h.html" target="_top" xlink:title="amr&#45;wind/equation_systems\l/CompRHSOps.H">
<polygon fill="#ffffff" stroke="#000000" points="897.3914,-324.5 897.3914,-354.5 1052.3914,-354.5 1052.3914,-324.5 897.3914,-324.5"/>
<text text-anchor="start" x="905.3914" y="-342.5" font-family="Helvetica,sans-Serif" font-size="10.00" fill="#000000">amr&#45;wind/equation_systems</text>
<text text-anchor="middle" x="974.8914" y="-331.5" font-family="Helvetica,sans-Serif" font-size="10.00" fill="#000000">/CompRHSOps.H</text>
</a>
</g>
</g>
<!-- Node36&#45;&gt;Node52 -->
<g id="edge93" class="edge">
<title>Node36&#45;&gt;Node52</title>
<path fill="none" stroke="#191970" d="M1057.1029,-391.4639C1042.4763,-382.2188 1023.533,-370.2452 1007.5175,-360.1222"/>
<polygon fill="#191970" stroke="#191970" points="1009.2903,-357.1022 998.9672,-354.7177 1005.5502,-363.0193 1009.2903,-357.1022"/>
</g>
<!-- Node53 -->
<g id="node43" class="node">
<title>Node53</title>
<g id="a_node43"><a xlink:href="_diffusion_ops_8_h.html" target="_top" xlink:title="amr&#45;wind/equation_systems\l/DiffusionOps.H">
<polygon fill="#ffffff" stroke="#000000" points="1568.3914,-324.5 1568.3914,-354.5 1723.3914,-354.5 1723.3914,-324.5 1568.3914,-324.5"/>
<text text-anchor="start" x="1576.3914" y="-342.5" font-family="Helvetica,sans-Serif" font-size="10.00" fill="#000000">amr&#45;wind/equation_systems</text>
<text text-anchor="middle" x="1645.8914" y="-331.5" font-family="Helvetica,sans-Serif" font-size="10.00" fill="#000000">/DiffusionOps.H</text>
</a>
</g>
</g>
<!-- Node36&#45;&gt;Node53 -->
<g id="edge97" class="edge">
<title>Node36&#45;&gt;Node53</title>
<path fill="none" stroke="#191970" d="M1158.5631,-397.2894C1263.1309,-384.8893 1448.6654,-362.8879 1558.1542,-349.9042"/>
<polygon fill="#191970" stroke="#191970" points="1558.6631,-353.3685 1568.1813,-348.7152 1557.8387,-346.4172 1558.6631,-353.3685"/>
</g>
<!-- Node37&#45;&gt;Node8 -->
<g id="edge61" class="edge">
<title>Node37&#45;&gt;Node8</title>
<path fill="none" stroke="#191970" d="M1115.4945,-195.9686C1124.4822,-193.9085 1133.9996,-191.8079 1142.8914,-190 1233.5419,-171.5685 1268.6643,-201.7526 1347.8914,-154 1373.2754,-138.7003 1392.341,-109.2917 1402.8048,-90.0368"/>
<polygon fill="#191970" stroke="#191970" points="1405.9833,-91.5104 1407.4805,-81.0219 1399.7693,-88.2874 1405.9833,-91.5104"/>
</g>
<!-- Node37&#45;&gt;Node12 -->
<g id="edge62" class="edge">
<title>Node37&#45;&gt;Node12</title>
<path fill="none" stroke="#191970" d="M1111.8333,-195.9394C1121.8228,-193.6235 1132.7212,-191.4112 1142.8914,-190 1470.3634,-144.5601 1555.8613,-173.5665 1885.8914,-154 1931.4707,-151.2977 1982.3008,-147.7686 2023.7107,-144.7606"/>
<polygon fill="#191970" stroke="#191970" points="2024.0346,-148.2463 2033.7534,-144.0279 2023.5252,-141.2649 2024.0346,-148.2463"/>
</g>
<!-- Node37&#45;&gt;Node30 -->
<g id="edge60" class="edge">
<title>Node37&#45;&gt;Node30</title>
<path fill="none" stroke="#191970" d="M1111.8355,-195.9545C1121.8249,-193.6387 1132.7227,-191.4226 1142.8914,-190 1299.3481,-168.111 1703.8311,-206.334 1852.8914,-154 1875.1209,-146.1954 1875.643,-135.0443 1895.8914,-123 1920.1684,-108.5593 1949.1094,-94.8239 1970.7676,-85.1754"/>
<polygon fill="#191970" stroke="#191970" points="1972.4192,-88.2726 1980.1633,-81.0421 1969.6004,-81.8652 1972.4192,-88.2726"/>
</g>
<!-- Node37&#45;&gt;Node38 -->
<g id="edge63" class="edge">
<title>Node37&#45;&gt;Node38</title>
<path fill="none" stroke="#191970" d="M1018.5397,-201.4995C918.6249,-194.2202 706.2544,-177.3744 527.8914,-154 526.5815,-153.8283 525.2617,-153.6519 523.9339,-153.4711"/>
<polygon fill="#191970" stroke="#191970" points="524.0238,-149.9489 513.6311,-152.0086 523.04,-156.8794 524.0238,-149.9489"/>
</g>
<!-- Node44 -->
<g id="node37" class="node">
<title>Node44</title>
<g id="a_node37"><a xlink:href="_physics_8_h.html" target="_top" xlink:title="amr&#45;wind/core/Physics.H">
<polygon fill="#ffffff" stroke="#000000" points="820.3914,-129 820.3914,-148 957.3914,-148 957.3914,-129 820.3914,-129"/>
<text text-anchor="middle" x="888.8914" y="-136" font-family="Helvetica,sans-Serif" font-size="10.00" fill="#000000">amr&#45;wind/core/Physics.H</text>
</a>
</g>
</g>
<!-- Node37&#45;&gt;Node44 -->
<g id="edge75" class="edge">
<title>Node37&#45;&gt;Node44</title>
<path fill="none" stroke="#191970" d="M1049.0988,-195.9005C1016.6051,-184.2584 961.6833,-164.5805 925.3539,-151.5641"/>
<polygon fill="#191970" stroke="#191970" points="926.2288,-148.1598 915.6342,-148.0817 923.8677,-154.7496 926.2288,-148.1598"/>
</g>
<!-- Node38&#45;&gt;Node4 -->
<g id="edge64" class="edge">
<title>Node38&#45;&gt;Node4</title>
<path fill="none" stroke="#191970" d="M513.5413,-126.9321C578.1531,-116.6191 664.5893,-101.0289 696.8914,-87 718.5011,-77.6148 719.7885,-68.2856 739.8914,-56 759.2205,-44.1873 781.9415,-32.5909 799.7183,-23.9965"/>
<polygon fill="#191970" stroke="#191970" points="801.5171,-27.0161 809.0327,-19.5483 798.5005,-20.6994 801.5171,-27.0161"/>
</g>
<!-- Node38&#45;&gt;Node6 -->
<g id="edge72" class="edge">
<title>Node38&#45;&gt;Node6</title>
<path fill="none" stroke="#191970" d="M362.2818,-123.4639C311.6222,-113.1157 244.2283,-99.3493 191.535,-88.5857"/>
<polygon fill="#191970" stroke="#191970" points="192.0367,-85.116 181.5385,-86.5438 190.6357,-91.9744 192.0367,-85.116"/>
</g>
<!-- Node38&#45;&gt;Node14 -->
<g id="edge73" class="edge">
<title>Node38&#45;&gt;Node14</title>
<path fill="none" stroke="#191970" d="M513.4684,-127.8437C529.1425,-125.983 545.5253,-124.2472 560.8914,-123 767.4776,-106.2321 1290.8566,-133.2704 1492.8914,-87 1526.4547,-79.3133 1530.4925,-64.3722 1563.8914,-56 1609.0332,-44.6841 1890.9672,-25.6588 2043.3673,-16.0063"/>
<polygon fill="#191970" stroke="#191970" points="2043.9033,-19.4795 2053.6628,-15.356 2043.462,-12.4934 2043.9033,-19.4795"/>
</g>
<!-- Node38&#45;&gt;Node23 -->
<g id="edge74" class="edge">
<title>Node38&#45;&gt;Node23</title>
<path fill="none" stroke="#191970" d="M358.3219,-127.5675C308.6076,-118.9672 250.2521,-105.3622 232.8914,-87 218.5384,-71.819 216.0006,-47.184 216.2718,-29.8757"/>
<polygon fill="#191970" stroke="#191970" points="219.7751,-29.8894 216.7598,-19.7328 212.7832,-29.553 219.7751,-29.8894"/>
</g>
<!-- Node39 -->
<g id="node35" class="node">
<title>Node39</title>
<g id="a_node35"><a xlink:href="_factory_8_h.html" target="_top" xlink:title="amr&#45;wind/core/Factory.H">
<polygon fill="#ffffff" stroke="#ff0000" points="241.8914,-62 241.8914,-81 375.8914,-81 375.8914,-62 241.8914,-62"/>
<text text-anchor="middle" x="308.8914" y="-69" font-family="Helvetica,sans-Serif" font-size="10.00" fill="#000000">amr&#45;wind/core/Factory.H</text>
</a>
</g>
</g>
<!-- Node38&#45;&gt;Node39 -->
<g id="edge65" class="edge">
<title>Node38&#45;&gt;Node39</title>
<path fill="none" stroke="#191970" d="M407.3901,-123.4639C386.0811,-112.2222 357.1253,-96.9463 336.1275,-85.8686"/>
<polygon fill="#191970" stroke="#191970" points="337.5736,-82.6744 327.0958,-81.1039 334.3073,-88.8657 337.5736,-82.6744"/>
</g>
<!-- Node43 -->
<g id="node36" class="node">
<title>Node43</title>
<g id="a_node36"><a xlink:href="_coll_mgr_8_h.html" target="_top" xlink:title="amr&#45;wind/core/CollMgr.H">
<polygon fill="#ffffff" stroke="#ff0000" points="431.8914,-62 431.8914,-81 567.8914,-81 567.8914,-62 431.8914,-62"/>
<text text-anchor="middle" x="499.8914" y="-69" font-family="Helvetica,sans-Serif" font-size="10.00" fill="#000000">amr&#45;wind/core/CollMgr.H</text>
</a>
</g>
</g>
<!-- Node38&#45;&gt;Node43 -->
<g id="edge68" class="edge">
<title>Node38&#45;&gt;Node43</title>
<path fill="none" stroke="#191970" d="M450.414,-123.2967C460.2887,-112.9591 473.3663,-99.2684 483.5964,-88.5588"/>
<polygon fill="#191970" stroke="#191970" points="486.3878,-90.7037 490.7642,-81.055 481.326,-85.8685 486.3878,-90.7037"/>
</g>
<!-- Node39&#45;&gt;Node13 -->
<g id="edge67" class="edge">
<title>Node39&#45;&gt;Node13</title>
<path fill="none" stroke="#191970" d="M356.3681,-61.9581C410.8447,-51.0094 500.1205,-33.0667 558.1979,-21.3943"/>
<polygon fill="#191970" stroke="#191970" points="559.1931,-24.7643 568.3074,-19.3625 557.8137,-17.9016 559.1931,-24.7643"/>
</g>
<!-- Node39&#45;&gt;Node19 -->
<g id="edge66" class="edge">
<title>Node39&#45;&gt;Node19</title>
<path fill="none" stroke="#191970" d="M338.7351,-61.8906C371.7257,-51.268 424.9771,-34.1216 461.1606,-22.4709"/>
<polygon fill="#191970" stroke="#191970" points="462.4366,-25.7371 470.8826,-19.3405 460.2911,-19.074 462.4366,-25.7371"/>
</g>
<!-- Node43&#45;&gt;Node4 -->
<g id="edge69" class="edge">
<title>Node43&#45;&gt;Node4</title>
<path fill="none" stroke="#191970" d="M546.6909,-61.9331C556.6526,-59.9377 567.1147,-57.8726 576.8914,-56 656.1767,-40.8136 749.684,-24.1304 797.7647,-15.6418"/>
<polygon fill="#191970" stroke="#191970" points="798.628,-19.0437 807.8685,-13.8606 797.4127,-12.15 798.628,-19.0437"/>
</g>
<!-- Node43&#45;&gt;Node13 -->
<g id="edge71" class="edge">
<title>Node43&#45;&gt;Node13</title>
<path fill="none" stroke="#191970" d="M517.8601,-61.8906C536.6798,-51.8262 566.4499,-35.9057 588.0554,-24.3514"/>
<polygon fill="#191970" stroke="#191970" points="589.8811,-27.3442 597.0488,-19.5419 586.58,-21.1714 589.8811,-27.3442"/>
</g>
<!-- Node43&#45;&gt;Node19 -->
<g id="edge70" class="edge">
<title>Node43&#45;&gt;Node19</title>
<path fill="none" stroke="#191970" d="M499.8914,-61.8906C499.8914,-53.3657 499.8914,-40.6392 499.8914,-29.9235"/>
<polygon fill="#191970" stroke="#191970" points="503.3915,-29.7448 499.8914,-19.7449 496.3915,-29.7449 503.3915,-29.7448"/>
</g>
<!-- Node44&#45;&gt;Node16 -->
<g id="edge78" class="edge">
<title>Node44&#45;&gt;Node16</title>
<path fill="none" stroke="#191970" d="M957.6355,-134.2638C1015.5533,-130.8174 1100.6138,-126.0423 1174.8914,-123 1246.9698,-120.0478 2408.926,-120.3534 2472.8914,-87 2485.3608,-80.4981 2506.2276,-48.9885 2518.9572,-28.346"/>
<polygon fill="#191970" stroke="#191970" points="2521.9751,-30.1193 2524.1739,-19.7551 2515.9918,-26.486 2521.9751,-30.1193"/>
</g>
<!-- Node44&#45;&gt;Node35 -->
<g id="edge79" class="edge">
<title>Node44&#45;&gt;Node35</title>
<path fill="none" stroke="#191970" d="M892.6165,-128.9005C896.478,-118.95 902.6174,-103.1292 907.4737,-90.6147"/>
<polygon fill="#191970" stroke="#191970" points="910.8182,-91.6706 911.1731,-81.0817 904.2924,-89.1381 910.8182,-91.6706"/>
</g>
<!-- Node44&#45;&gt;Node39 -->
<g id="edge76" class="edge">
<title>Node44&#45;&gt;Node39</title>
<path fill="none" stroke="#191970" d="M820.1354,-131.446C729.1682,-121.9886 563.8601,-104.3702 422.8914,-87 411.0435,-85.5401 398.5143,-83.9171 386.2676,-82.2866"/>
<polygon fill="#191970" stroke="#191970" points="386.4444,-78.7791 376.0679,-80.9187 385.5139,-85.717 386.4444,-78.7791"/>
</g>
<!-- Node44&#45;&gt;Node43 -->
<g id="edge77" class="edge">
<title>Node44&#45;&gt;Node43</title>
<path fill="none" stroke="#191970" d="M827.2138,-128.9727C764.1952,-119.0849 663.564,-102.8718 576.8914,-87 570.1324,-85.7623 563.0509,-84.4113 556.0357,-83.0395"/>
<polygon fill="#191970" stroke="#191970" points="556.3393,-79.5319 545.8503,-81.0257 554.9815,-86.3989 556.3393,-79.5319"/>
</g>
<!-- Node45&#45;&gt;Node5 -->
<g id="edge83" class="edge">
<title>Node45&#45;&gt;Node5</title>
<path fill="none" stroke="#191970" d="M1237.3858,-257.4639C1271.1386,-247.4131 1315.7206,-234.1375 1351.3739,-223.5208"/>
<polygon fill="#191970" stroke="#191970" points="1352.5916,-226.8101 1361.1768,-220.6017 1350.5937,-220.1013 1352.5916,-226.8101"/>
</g>
<!-- Node45&#45;&gt;Node15 -->
<g id="edge82" class="edge">
<title>Node45&#45;&gt;Node15</title>
<path fill="none" stroke="#191970" d="M1264.5813,-260.9735C1274.4411,-259.5908 1284.3983,-258.2336 1293.8914,-257 1690.9564,-205.404 1792.1995,-208.3902 2188.8914,-154 2352.4897,-131.5691 2544.2221,-99.5223 2642.1495,-82.7363"/>
<polygon fill="#191970" stroke="#191970" points="2642.9249,-86.1545 2652.1884,-81.0126 2641.7403,-79.2554 2642.9249,-86.1545"/>
</g>
<!-- Node45&#45;&gt;Node37 -->
<g id="edge91" class="edge">
<title>Node45&#45;&gt;Node37</title>
<path fill="none" stroke="#191970" d="M1161.9808,-257.4639C1143.6081,-246.3741 1118.7314,-231.3584 1100.4439,-220.32"/>
<polygon fill="#191970" stroke="#191970" points="1102.1723,-217.2751 1091.8024,-215.1039 1098.555,-223.268 1102.1723,-217.2751"/>
</g>
<!-- Node46 -->
<g id="node39" class="node">
<title>Node46</title>
<g id="a_node39"><a xlink:href="_turbulence_model_8_h.html" target="_top" xlink:title="amr&#45;wind/turbulence\l/TurbulenceModel.H">
<polygon fill="#ffffff" stroke="#000000" points="570.3914,-123.5 570.3914,-153.5 687.3914,-153.5 687.3914,-123.5 570.3914,-123.5"/>
<text text-anchor="start" x="578.3914" y="-141.5" font-family="Helvetica,sans-Serif" font-size="10.00" fill="#000000">amr&#45;wind/turbulence</text>
<text text-anchor="middle" x="628.8914" y="-130.5" font-family="Helvetica,sans-Serif" font-size="10.00" fill="#000000">/TurbulenceModel.H</text>
</a>
</g>
</g>
<!-- Node45&#45;&gt;Node46 -->
<g id="edge84" class="edge">
<title>Node45&#45;&gt;Node46</title>
<path fill="none" stroke="#191970" d="M1109.301,-264.9036C1041.2443,-257.2009 939.9928,-243.2094 853.8914,-221 789.3347,-204.348 717.4392,-176.2183 672.686,-157.5041"/>
<polygon fill="#191970" stroke="#191970" points="673.8612,-154.2014 663.2867,-153.545 671.1439,-160.6524 673.8612,-154.2014"/>
</g>
<!-- Node47 -->
<g id="node40" class="node">
<title>Node47</title>
<g id="a_node40"><a xlink:href="_i_o_manager_8_h.html" target="_top" xlink:title="amr&#45;wind/utilities\l/IOManager.H">
<polygon fill="#ffffff" stroke="#ff0000" points="585.8914,-56.5 585.8914,-86.5 687.8914,-86.5 687.8914,-56.5 585.8914,-56.5"/>
<text text-anchor="start" x="593.8914" y="-74.5" font-family="Helvetica,sans-Serif" font-size="10.00" fill="#000000">amr&#45;wind/utilities</text>
<text text-anchor="middle" x="636.8914" y="-63.5" font-family="Helvetica,sans-Serif" font-size="10.00" fill="#000000">/IOManager.H</text>
</a>
</g>
</g>
<!-- Node45&#45;&gt;Node47 -->
<g id="edge88" class="edge">
<title>Node45&#45;&gt;Node47</title>
<path fill="none" stroke="#191970" d="M1132.8814,-257.4156C1097.7355,-247.4446 1050.9629,-233.883 1009.8914,-221 920.8465,-193.069 897.4264,-188.9404 810.8914,-154 763.2867,-134.7786 710.1842,-108.9317 675.3091,-91.3244"/>
<polygon fill="#191970" stroke="#191970" points="676.4771,-87.9923 665.9756,-86.589 673.3099,-94.2348 676.4771,-87.9923"/>
</g>
<!-- Node51 -->
<g id="node41" class="node">
<title>Node51</title>
<polygon fill="#ffffff" stroke="#bfbfbf" points="1151.3914,-196 1151.3914,-215 1268.3914,-215 1268.3914,-196 1151.3914,-196"/>
<text text-anchor="middle" x="1209.8914" y="-203" font-family="Helvetica,sans-Serif" font-size="10.00" fill="#000000">AMReX_ParmParse.H</text>
</g>
<!-- Node45&#45;&gt;Node51 -->
<g id="edge92" class="edge">
<title>Node45&#45;&gt;Node51</title>
<path fill="none" stroke="#191970" d="M1192.1104,-257.2967C1195.4156,-247.6685 1199.7193,-235.1318 1203.2647,-224.8038"/>
<polygon fill="#191970" stroke="#191970" points="1206.6748,-225.6496 1206.6113,-215.055 1200.054,-223.3768 1206.6748,-225.6496"/>
</g>
<!-- Node46&#45;&gt;Node13 -->
<g id="edge85" class="edge">
<title>Node46&#45;&gt;Node13</title>
<path fill="none" stroke="#191970" d="M570.2714,-125.6952C511.0306,-112.4763 427.5493,-92.9657 422.8914,-87 414.4124,-76.1403 414.3591,-66.8179 422.8914,-56 431.3915,-45.2229 504.4205,-29.9236 557.9005,-19.9802"/>
<polygon fill="#191970" stroke="#191970" points="558.7729,-23.3785 567.9746,-18.127 557.5064,-16.494 558.7729,-23.3785"/>
</g>
<!-- Node46&#45;&gt;Node14 -->
<g id="edge87" class="edge">
<title>Node46&#45;&gt;Node14</title>
<path fill="none" stroke="#191970" d="M687.4542,-132.9557C723.1106,-129.7187 769.5988,-125.7445 810.8914,-123 894.4692,-117.4451 1485.678,-116.9797 1563.8914,-87 1584.2434,-79.1989 1581.6886,-64.1799 1601.8914,-56 1641.6608,-39.8977 1899.2989,-23.3447 2043.501,-15.1893"/>
<polygon fill="#191970" stroke="#191970" points="2043.8953,-18.6728 2053.683,-14.6168 2043.5022,-11.6838 2043.8953,-18.6728"/>
</g>
<!-- Node46&#45;&gt;Node39 -->
<g id="edge86" class="edge">
<title>Node46&#45;&gt;Node39</title>
<path fill="none" stroke="#191970" d="M570.3245,-126.0448C565.4424,-125.0126 560.5824,-123.9871 555.8914,-123 490.3235,-109.2036 414.9275,-93.5078 364.8568,-83.108"/>
<polygon fill="#191970" stroke="#191970" points="365.383,-79.6426 354.8803,-81.0363 363.9598,-86.4964 365.383,-79.6426"/>
</g>
<!-- Node47&#45;&gt;Node4 -->
<g id="edge89" class="edge">
<title>Node47&#45;&gt;Node4</title>
<path fill="none" stroke="#191970" d="M684.1045,-56.4554C719.4971,-45.1774 766.9808,-30.0466 797.9964,-20.1634"/>
<polygon fill="#191970" stroke="#191970" points="799.3769,-23.397 807.8422,-17.026 797.2516,-16.7274 799.3769,-23.397"/>
</g>
<!-- Node47&#45;&gt;Node13 -->
<g id="edge90" class="edge">
<title>Node47&#45;&gt;Node13</title>
<path fill="none" stroke="#191970" d="M631.4532,-56.2977C628.5584,-48.2055 624.9663,-38.1639 621.868,-29.5029"/>
<polygon fill="#191970" stroke="#191970" points="625.0776,-28.0837 618.4139,-19.8469 618.4866,-30.4415 625.0776,-28.0837"/>
</g>
<!-- Node52&#45;&gt;Node3 -->
<g id="edge96" class="edge">
<title>Node52&#45;&gt;Node3</title>
<path fill="none" stroke="#191970" d="M962.8649,-324.2967C956.1562,-315.816 947.6625,-305.0785 940.15,-295.5817"/>
<polygon fill="#191970" stroke="#191970" points="942.8194,-293.3146 933.8703,-287.6432 937.3294,-297.6574 942.8194,-293.3146"/>
</g>
<!-- Node52&#45;&gt;Node23 -->
<g id="edge94" class="edge">
<title>Node52&#45;&gt;Node23</title>
<path fill="none" stroke="#191970" d="M897.3204,-336.949C666.8075,-328.3468 1.8914,-295.7147 1.8914,-205.5 1.8914,-205.5 1.8914,-205.5 1.8914,-138.5 1.8914,-100.8735 -5.6741,-82.6463 20.8914,-56 30.4916,-46.3706 100.5665,-31.5583 154.4374,-21.3574"/>
<polygon fill="#191970" stroke="#191970" points="155.1066,-24.793 164.2895,-19.5086 153.8155,-17.9131 155.1066,-24.793"/>
</g>
<!-- Node52&#45;&gt;Node45 -->
<g id="edge95" class="edge">
<title>Node52&#45;&gt;Node45</title>
<path fill="none" stroke="#191970" d="M1022.4683,-324.4639C1054.135,-314.456 1095.9183,-301.2509 1129.4393,-290.657"/>
<polygon fill="#191970" stroke="#191970" points="1130.6265,-293.9525 1139.1069,-287.6017 1128.517,-287.2779 1130.6265,-293.9525"/>
</g>
<!-- Node53&#45;&gt;Node2 -->
<g id="edge102" class="edge">
<title>Node53&#45;&gt;Node2</title>
<path fill="none" stroke="#191970" d="M1723.4047,-332.8092C1819.8128,-324.1449 1989.3466,-307.7842 2133.8914,-288 2135.2003,-287.8208 2136.5191,-287.6374 2137.846,-287.45"/>
<polygon fill="#191970" stroke="#191970" points="2138.7542,-290.8546 2148.1432,-285.9458 2137.7423,-283.9281 2138.7542,-290.8546"/>
</g>
<!-- Node53&#45;&gt;Node3 -->
<g id="edge103" class="edge">
<title>Node53&#45;&gt;Node3</title>
<path fill="none" stroke="#191970" d="M1568.0671,-332.298C1432.0909,-319.7146 1152.1836,-293.8116 1009.5741,-280.6143"/>
<polygon fill="#191970" stroke="#191970" points="1009.8273,-277.1229 999.5473,-279.6864 1009.1822,-284.0931 1009.8273,-277.1229"/>
</g>
<!-- Node53&#45;&gt;Node5 -->
<g id="edge105" class="edge">
<title>Node53&#45;&gt;Node5</title>
<path fill="none" stroke="#191970" d="M1624.7949,-324.2382C1600.4007,-306.9101 1558.7381,-278.2883 1520.8914,-257 1500.1044,-245.3075 1476.2259,-233.8202 1456.1269,-224.6721"/>
<polygon fill="#191970" stroke="#191970" points="1457.4444,-221.4269 1446.8893,-220.5102 1454.5689,-227.809 1457.4444,-221.4269"/>
</g>
<!-- Node53&#45;&gt;Node30 -->
<g id="edge112" class="edge">
<title>Node53&#45;&gt;Node30</title>
<path fill="none" stroke="#191970" d="M1645.7657,-324.3817C1646.3943,-306.3943 1649.9993,-276.3689 1665.8914,-257 1734.8845,-172.9128 1793.9543,-208.8319 1887.8914,-154 1922.9241,-133.5511 1960.597,-105.168 1982.9366,-87.5874"/>
<polygon fill="#191970" stroke="#191970" points="1985.3248,-90.1603 1990.9803,-81.2011 1980.9722,-84.678 1985.3248,-90.1603"/>
</g>
<!-- Node53&#45;&gt;Node45 -->
<g id="edge104" class="edge">
<title>Node53&#45;&gt;Node45</title>
<path fill="none" stroke="#191970" d="M1568.288,-328.1723C1486.9791,-316.3037 1359.5018,-297.6959 1274.598,-285.3025"/>
<polygon fill="#191970" stroke="#191970" points="1274.8615,-281.8039 1264.4608,-283.8228 1273.8504,-288.7305 1274.8615,-281.8039"/>
</g>
<!-- Node54 -->
<g id="node44" class="node">
<title>Node54</title>
<g id="a_node44"><a xlink:href="_m_l_m_g_options_8_h.html" target="_top" xlink:title="amr&#45;wind/core/MLMGOptions.H">
<polygon fill="#ffffff" stroke="#ff0000" points="1302.3914,-263 1302.3914,-282 1469.3914,-282 1469.3914,-263 1302.3914,-263"/>
<text text-anchor="middle" x="1385.8914" y="-270" font-family="Helvetica,sans-Serif" font-size="10.00" fill="#000000">amr&#45;wind/core/MLMGOptions.H</text>
</a>
</g>
</g>
<!-- Node53&#45;&gt;Node54 -->
<g id="edge98" class="edge">
<title>Node53&#45;&gt;Node54</title>
<path fill="none" stroke="#191970" d="M1587.5423,-324.4639C1540.7329,-312.4015 1475.8994,-295.6944 1432.5084,-284.5128"/>
<polygon fill="#191970" stroke="#191970" points="1433.3346,-281.1115 1422.7776,-282.0053 1431.5878,-287.89 1433.3346,-281.1115"/>
</g>
<!-- Node56 -->
<g id="node45" class="node">
<title>Node56</title>
<g id="a_node45"><a xlink:href="diffusion_8_h.html" target="_top" xlink:title="amr&#45;wind/diffusion\l/diffusion.H">
<polygon fill="#ffffff" stroke="#000000" points="1984.3914,-257.5 1984.3914,-287.5 2091.3914,-287.5 2091.3914,-257.5 1984.3914,-257.5"/>
<text text-anchor="start" x="1992.3914" y="-275.5" font-family="Helvetica,sans-Serif" font-size="10.00" fill="#000000">amr&#45;wind/diffusion</text>
<text text-anchor="middle" x="2037.8914" y="-264.5" font-family="Helvetica,sans-Serif" font-size="10.00" fill="#000000">/diffusion.H</text>
</a>
</g>
</g>
<!-- Node53&#45;&gt;Node56 -->
<g id="edge106" class="edge">
<title>Node53&#45;&gt;Node56</title>
<path fill="none" stroke="#191970" d="M1723.5883,-329.3902C1788.326,-320.5034 1883.1287,-306.4193 1974.2464,-288.2431"/>
<polygon fill="#191970" stroke="#191970" points="1975.0784,-291.6459 1984.1903,-286.24 1973.696,-284.7838 1975.0784,-291.6459"/>
</g>
<!-- Node57 -->
<g id="node46" class="node">
<title>Node57</title>
<polygon fill="#ffffff" stroke="#bfbfbf" points="2208.3914,-196 2208.3914,-215 2303.3914,-215 2303.3914,-196 2208.3914,-196"/>
<text text-anchor="middle" x="2255.8914" y="-203" font-family="Helvetica,sans-Serif" font-size="10.00" fill="#000000">AMReX_MLMG.H</text>
</g>
<!-- Node53&#45;&gt;Node57 -->
<g id="edge111" class="edge">
<title>Node53&#45;&gt;Node57</title>
<path fill="none" stroke="#191970" d="M1723.5109,-335.8841C1835.0368,-329.8158 2034.4996,-315.4582 2100.8914,-288 2121.3526,-279.5377 2120.9538,-268.4735 2139.8914,-257 2165.2857,-241.6147 2196.0858,-228.1573 2219.565,-218.8609"/>
<polygon fill="#191970" stroke="#191970" points="2221.0897,-222.0234 2229.1422,-215.1381 2218.5535,-215.499 2221.0897,-222.0234"/>
</g>
<!-- Node58 -->
<g id="node47" class="node">
<title>Node58</title>
<polygon fill="#ffffff" stroke="#bfbfbf" points="1674.3914,-263 1674.3914,-282 1825.3914,-282 1825.3914,-263 1674.3914,-263"/>
<text text-anchor="middle" x="1749.8914" y="-270" font-family="Helvetica,sans-Serif" font-size="10.00" fill="#000000">AMReX_MLABecLaplacian.H</text>
</g>
<!-- Node53&#45;&gt;Node58 -->
<g id="edge109" class="edge">
<title>Node53&#45;&gt;Node58</title>
<path fill="none" stroke="#191970" d="M1669.231,-324.4639C1686.2093,-313.526 1709.1156,-298.769 1726.1796,-287.7759"/>
<polygon fill="#191970" stroke="#191970" points="1728.4728,-290.462 1734.9838,-282.1039 1724.6817,-284.5774 1728.4728,-290.462"/>
</g>
<!-- Node59 -->
<g id="node48" class="node">
<title>Node59</title>
<polygon fill="#ffffff" stroke="#bfbfbf" points="1843.3914,-263 1843.3914,-282 1966.3914,-282 1966.3914,-263 1843.3914,-263"/>
<text text-anchor="middle" x="1904.8914" y="-270" font-family="Helvetica,sans-Serif" font-size="10.00" fill="#000000">AMReX_MLTensorOp.H</text>
</g>
<!-- Node53&#45;&gt;Node59 -->
<g id="edge110" class="edge">
<title>Node53&#45;&gt;Node59</title>
<path fill="none" stroke="#191970" d="M1704.016,-324.4639C1750.6454,-312.4015 1815.2296,-295.6944 1858.4537,-284.5128"/>
<polygon fill="#191970" stroke="#191970" points="1859.3423,-287.8983 1868.1471,-282.0053 1857.5892,-281.1213 1859.3423,-287.8983"/>
</g>
<!-- Node54&#45;&gt;Node4 -->
<g id="edge99" class="edge">
<title>Node54&#45;&gt;Node4</title>
<path fill="none" stroke="#191970" d="M1374.6959,-262.9094C1351.5946,-243.2971 1299.0395,-199.6378 1277.8914,-190 1205.6347,-157.0706 1180.1996,-172.1334 1102.8914,-154 1088.6832,-150.6673 859.1279,-97.4015 848.8914,-87 833.9969,-71.8655 830.1526,-47.0218 829.4501,-29.6592"/>
<polygon fill="#191970" stroke="#191970" points="832.9487,-29.4748 829.3576,-19.5071 825.9489,-29.5386 832.9487,-29.4748"/>
</g>
<!-- Node54&#45;&gt;Node9 -->
<g id="edge100" class="edge">
<title>Node54&#45;&gt;Node9</title>
<path fill="none" stroke="#191970" d="M1416.8579,-262.9368C1440.8908,-254.493 1474.1681,-240.4819 1498.8914,-221 1571.2855,-163.9535 1630.4866,-68.7609 1653.5281,-28.6855"/>
<polygon fill="#191970" stroke="#191970" points="1656.7111,-30.1675 1658.5931,-19.7411 1650.6199,-26.7182 1656.7111,-30.1675"/>
</g>
<!-- Node54&#45;&gt;Node51 -->
<g id="edge101" class="edge">
<title>Node54&#45;&gt;Node51</title>
<path fill="none" stroke="#191970" d="M1360.6749,-262.9005C1330.2232,-251.3082 1278.8428,-231.7486 1244.6483,-218.7313"/>
<polygon fill="#191970" stroke="#191970" points="1245.6521,-215.3685 1235.0611,-215.0817 1243.1616,-221.9105 1245.6521,-215.3685"/>
</g>
<!-- Node56&#45;&gt;Node12 -->
<g id="edge108" class="edge">
<title>Node56&#45;&gt;Node12</title>
<path fill="none" stroke="#191970" d="M2045.6724,-257.389C2058.3608,-232.7478 2083.4728,-183.9796 2097.2641,-157.1965"/>
<polygon fill="#191970" stroke="#191970" points="2100.4796,-158.597 2101.946,-148.1042 2094.2562,-155.3924 2100.4796,-158.597"/>
</g>
<!-- Node56&#45;&gt;Node57 -->
<g id="edge107" class="edge">
<title>Node56&#45;&gt;Node57</title>
<path fill="none" stroke="#191970" d="M2086.8148,-257.4639C2125.4844,-245.5792 2178.8242,-229.1858 2215.1848,-218.0108"/>
<polygon fill="#191970" stroke="#191970" points="2216.4332,-221.2887 2224.9637,-215.0053 2214.3767,-214.5976 2216.4332,-221.2887"/>
</g>
<!-- Node60&#45;&gt;Node12 -->
<g id="edge117" class="edge">
<title>Node60&#45;&gt;Node12</title>
<path fill="none" stroke="#191970" d="M2511.1821,-194.6981C2421.7001,-182.2597 2275.5162,-161.9396 2185.6104,-149.4423"/>
<polygon fill="#191970" stroke="#191970" points="2185.8595,-145.9433 2175.4728,-148.0331 2184.8957,-152.8767 2185.8595,-145.9433"/>
</g>
<!-- Node60&#45;&gt;Node14 -->
<g id="edge115" class="edge">
<title>Node60&#45;&gt;Node14</title>
<path fill="none" stroke="#191970" d="M2640.6647,-190.4254C2716.4987,-165.922 2843.1866,-114.2861 2788.8914,-56 2770.4276,-36.1791 2414.6298,-20.1979 2238.2826,-13.4586"/>
<polygon fill="#191970" stroke="#191970" points="2238.3448,-9.9585 2228.2192,-13.0766 2238.0792,-16.9535 2238.3448,-9.9585"/>
</g>
<!-- Node60&#45;&gt;Node15 -->
<g id="edge116" class="edge">
<title>Node60&#45;&gt;Node15</title>
<path fill="none" stroke="#191970" d="M2602.1981,-190.389C2624.2794,-165.3136 2668.3623,-115.2534 2691.6559,-88.8014"/>
<polygon fill="#191970" stroke="#191970" points="2694.4519,-90.9222 2698.434,-81.1042 2689.1984,-86.296 2694.4519,-90.9222"/>
</g>
<!-- Node60&#45;&gt;Node16 -->
<g id="edge118" class="edge">
<title>Node60&#45;&gt;Node16</title>
<path fill="none" stroke="#191970" d="M2666.6825,-201.4754C2737.8814,-195.9703 2835.727,-183.189 2859.8914,-154 2887.6664,-120.4496 2888.4849,-88.8557 2859.8914,-56 2842.7056,-36.2525 2684.8173,-21.4318 2593.8076,-14.4443"/>
<polygon fill="#191970" stroke="#191970" points="2593.8307,-10.9362 2583.5951,-13.6715 2593.3025,-17.9162 2593.8307,-10.9362"/>
</g>
<!-- Node60&#45;&gt;Node39 -->
<g id="edge114" class="edge">
<title>Node60&#45;&gt;Node39</title>
<path fill="none" stroke="#191970" d="M2511.3001,-200.4038C2456.0084,-196.9528 2379.9112,-192.5696 2312.8914,-190 2215.609,-186.27 652.4733,-187.0233 560.8914,-154 540.0621,-146.4892 541.7864,-132.719 521.8914,-123 479.4164,-102.2502 427.9941,-89.5105 386.3164,-81.8935"/>
<polygon fill="#191970" stroke="#191970" points="386.6723,-78.4023 376.2164,-80.1122 385.4565,-85.2959 386.6723,-78.4023"/>
</g>
<!-- Node61&#45;&gt;Node12 -->
<g id="edge120" class="edge">
<title>Node61&#45;&gt;Node12</title>
<path fill="none" stroke="#191970" d="M2469.0494,-391.3663C2450.2701,-351.6237 2393.8796,-243.6666 2312.8914,-190 2289.9159,-174.7753 2223.4975,-159.7655 2172.2256,-149.9139"/>
<polygon fill="#191970" stroke="#191970" points="2172.6671,-146.4354 2162.1905,-148.0139 2171.3647,-153.3132 2172.6671,-146.4354"/>
</g>
</g>
</svg>
