<?xml version="1.0" encoding="UTF-8" standalone="no"?>
<!DOCTYPE svg PUBLIC "-//W3C//DTD SVG 1.1//EN"
 "http://www.w3.org/Graphics/SVG/1.1/DTD/svg11.dtd">
<!-- Generated by graphviz version 2.40.1 (20161225.0304)
 -->
<!-- Title: wing_ops.H Pages: 1 -->
<svg width="325pt" height="140pt"
 viewBox="0.00 0.00 324.50 140.00" xmlns="http://www.w3.org/2000/svg" xmlns:xlink="http://www.w3.org/1999/xlink">
<g id="graph0" class="graph" transform="scale(1 1) rotate(0) translate(4 136)">
<title>wing_ops.H</title>
<polygon fill="#ffffff" stroke="transparent" points="-4,4 -4,-136 320.5,-136 320.5,4 -4,4"/>
<!-- Node59 -->
<g id="node1" class="node">
<title>Node59</title>
<polygon fill="#bfbfbf" stroke="#000000" points="131.5,-112.5 131.5,-131.5 204.5,-131.5 204.5,-112.5 131.5,-112.5"/>
<text text-anchor="middle" x="168" y="-119.5" font-family="Helvetica,sans-Serif" font-size="10.00" fill="#000000">wing_ops.H</text>
</g>
<!-- Node60 -->
<g id="node2" class="node">
<title>Node60</title>
<g id="a_node2"><a xlink:href="fixed__wing__ops_8_h.html" target="_top" xlink:title="fixed_wing_ops.H">
<polygon fill="#ffffff" stroke="#000000" points="0,-56.5 0,-75.5 102,-75.5 102,-56.5 0,-56.5"/>
<text text-anchor="middle" x="51" y="-63.5" font-family="Helvetica,sans-Serif" font-size="10.00" fill="#000000">fixed_wing_ops.H</text>
</a>
</g>
</g>
<!-- Node59&#45;&gt;Node60 -->
<g id="edge1" class="edge">
<title>Node59&#45;&gt;Node60</title>
<path fill="none" stroke="#191970" d="M138.6958,-107.9741C117.512,-97.8348 89.4597,-84.408 70.8506,-75.5011"/>
<polygon fill="#191970" stroke="#191970" points="137.3559,-111.2129 147.887,-112.3733 140.378,-104.8989 137.3559,-111.2129"/>
</g>
<!-- Node62 -->
<g id="node4" class="node">
<title>Node62</title>
<g id="a_node4"><a xlink:href="flat__plate__ops_8_h.html" target="_top" xlink:title="flat_plate_ops.H">
<polygon fill="#ffffff" stroke="#000000" points="120.5,-56.5 120.5,-75.5 215.5,-75.5 215.5,-56.5 120.5,-56.5"/>
<text text-anchor="middle" x="168" y="-63.5" font-family="Helvetica,sans-Serif" font-size="10.00" fill="#000000">flat_plate_ops.H</text>
</a>
</g>
</g>
<!-- Node59&#45;&gt;Node62 -->
<g id="edge3" class="edge">
<title>Node59&#45;&gt;Node62</title>
<path fill="none" stroke="#191970" d="M168,-102.1575C168,-93.155 168,-82.9199 168,-75.6427"/>
<polygon fill="#191970" stroke="#191970" points="164.5001,-102.2455 168,-112.2455 171.5001,-102.2456 164.5001,-102.2455"/>
</g>
<!-- Node64 -->
<g id="node6" class="node">
<title>Node64</title>
<g id="a_node6"><a xlink:href="wing__ops_8cpp.html" target="_top" xlink:title="wing_ops.cpp">
<polygon fill="#ffffff" stroke="#000000" points="233.5,-56.5 233.5,-75.5 316.5,-75.5 316.5,-56.5 233.5,-56.5"/>
<text text-anchor="middle" x="275" y="-63.5" font-family="Helvetica,sans-Serif" font-size="10.00" fill="#000000">wing_ops.cpp</text>
</a>
</g>
</g>
<!-- Node59&#45;&gt;Node64 -->
<g id="edge5" class="edge">
<title>Node59&#45;&gt;Node64</title>
<path fill="none" stroke="#191970" d="M195.5199,-107.5971C214.7017,-97.558 239.7678,-84.4393 256.5756,-75.6427"/>
<polygon fill="#191970" stroke="#191970" points="193.875,-104.5075 186.638,-112.2455 197.1209,-110.7095 193.875,-104.5075"/>
</g>
<!-- Node61 -->
<g id="node3" class="node">
<title>Node61</title>
<g id="a_node3"><a xlink:href="_fixed_wing_8cpp.html" target="_top" xlink:title="FixedWing.cpp">
<polygon fill="#ffffff" stroke="#000000" points="7.5,-.5 7.5,-19.5 94.5,-19.5 94.5,-.5 7.5,-.5"/>
<text text-anchor="middle" x="51" y="-7.5" font-family="Helvetica,sans-Serif" font-size="10.00" fill="#000000">FixedWing.cpp</text>
</a>
</g>
</g>
<!-- Node60&#45;&gt;Node61 -->
<g id="edge2" class="edge">
<title>Node60&#45;&gt;Node61</title>
<path fill="none" stroke="#191970" d="M51,-46.1575C51,-37.155 51,-26.9199 51,-19.6427"/>
<polygon fill="#191970" stroke="#191970" points="47.5001,-46.2455 51,-56.2455 54.5001,-46.2456 47.5001,-46.2455"/>
</g>
<!-- Node63 -->
<g id="node5" class="node">
<title>Node63</title>
<g id="a_node5"><a xlink:href="_flat_plate_8cpp.html" target="_top" xlink:title="FlatPlate.cpp">
<polygon fill="#ffffff" stroke="#000000" points="128,-.5 128,-19.5 208,-19.5 208,-.5 128,-.5"/>
<text text-anchor="middle" x="168" y="-7.5" font-family="Helvetica,sans-Serif" font-size="10.00" fill="#000000">FlatPlate.cpp</text>
</a>
</g>
</g>
<!-- Node62&#45;&gt;Node63 -->
<g id="edge4" class="edge">
<title>Node62&#45;&gt;Node63</title>
<path fill="none" stroke="#191970" d="M168,-46.1575C168,-37.155 168,-26.9199 168,-19.6427"/>
<polygon fill="#191970" stroke="#191970" points="164.5001,-46.2455 168,-56.2455 171.5001,-46.2456 164.5001,-46.2455"/>
</g>
</g>
</svg>
